<?xml version="1.0" standalone="no"?>
<!DOCTYPE svg PUBLIC "-//W3C//DTD SVG 1.1//EN"
	"http://www.w3.org/Graphics/SVG/1.1/DTD/svg11.dtd">
<svg xmlns="http://www.w3.org/2000/svg" version="1.1"
	xmlns:xlink="http://www.w3.org/1999/xlink"
	color="black"
	width="701.60px" height="591.20px">
<style type="text/css">
.fill {fill: currentColor}
.stroke {stroke: currentColor; fill: none}
text{white-space: pre}
</style>
<title>/media/tim/Data1/tims_code/sphinx-tunes/source/_abcfiles/_San Day Carol. (1) tune 1</title>
<!-- Creator: abcm2ps-8.14.6 -->
<!-- CreationDate: Jul 30, 2023 12:16 -->
<!-- CommandLine: -g '/media/tim/Data1/tims_code/sphinx-tunes/source/_abcfiles/_San Day Carol.abc' -O '/media/tim/Data1/tims_code/sphinx-tunes/source/_abcfiles/_San Day Carol.svg' -->
<g stroke-width="0.70">
<path class="stroke" stroke-width="1"
	d="M117.30 59.00v-24.00"/>
<path class="stroke" stroke-width="1"
	d="M244.90 59.00v-24.00"/>
<path class="stroke" stroke-width="1"
	d="M352.20 59.00v-24.00"/>
<path class="stroke" stroke-width="1"
	d="M459.50 59.00v-24.00"/>
<path class="stroke" stroke-width="1"
	d="M565.00 59.00v-24.00"/>
<path class="stroke" stroke-width="1"
	d="M691.60 59.00v-24.00"/>
<path d="m10.00 59.00
	h681.60
	M10.00 53.00
	h681.60
	M10.00 47.00
	h681.60
	M10.00 41.00
	h681.60
	M10.00 35.00
	h681.60
	" class="stroke"/>
<defs>
<path id="utclef" class="fill" d="m-50 -90
	c-72 -41 -72 -158 52 -188
	150 -10 220 188 90 256
	-114 52 -275 0 -293 -136
	-15 -181 93 -229 220 -334
	88 -87 79 -133 62 -210
	-51 33 -94 105 -89 186
	17 267 36 374 49 574
	6 96 -19 134 -77 135
	-80 1 -126 -93 -61 -133
	85 -41 133 101 31 105
	23 17 92 37 90 -92
	-10 -223 -39 -342 -50 -617
	0 -90 0 -162 96 -232
	56 72 63 230 22 289
	-74 106 -257 168 -255 316
	9 153 148 185 252 133
	86 -65 29 -192 -80 -176
	-71 12 -105 67 -59 124"/>
<use id="tclef" transform="translate(0,6) scale(0.045)"
	xlink:href="#utclef"/>
</defs>
<use x="22.00" y="53.00" xlink:href="#tclef"/>
<defs>
<path id="usharp" class="fill" d="
	m136 -702
	v890
	h32
	v-890
	m128 840
	h32
	v-888
	h-32
	m-232 286
	v116
	l338 -96
	v-116
	m-338 442
	v116
	l338 -98
	v-114"/>
<use id="sh0" transform="translate(-4,5) scale(0.018)"
	xlink:href="#usharp"/>
</defs>
<use x="37.00" y="35.00" xlink:href="#sh0"/>
<g style="font:bold 16px serif"
	transform="translate(53.00,58.50) scale(1.2,1)">
	<text text-anchor="middle">4</text>
	<text y="-12" text-anchor="middle">3</text>
</g>
<defs>
<ellipse id="hd" rx="4.1" ry="2.9"
	transform="rotate(-20)" class="fill"/>
</defs>
<use x="71.00" y="53.00" xlink:href="#hd"/>
<circle class="fill" cx="78.70" cy="50.00" r="1.2"/>
<path d="M74.50 53.00v-21.00" class="stroke"/>
<path class="fill"
	d="M74.50 32.00c0.6 5.6 9.6 9 5.6 18.4
	1.6 -6 -1.3 -11.6 -5.6 -12.8
"/>
<use x="100.30" y="47.00" xlink:href="#hd"/>
<path d="M103.80 47.00v-22.00" class="stroke"/>
<path class="fill"
	d="M103.80 25.00c0.9 3.7 9.1 6.4 6 12.4
	1 -5.4 -4.2 -8.4 -6 -8.4
M103.80 30.40c0.9 3.7 9.1 6.4 6 12.4
	1 -5.4 -4.2 -8.4 -6 -8.4
"/>
<use x="130.30" y="41.00" xlink:href="#hd"/>
<path d="M126.80 41.00v21.00" class="stroke"/>
<use x="166.50" y="41.00" xlink:href="#hd"/>
<path d="M163.00 41.00v21.00" class="stroke"/>
<use x="202.80" y="41.00" xlink:href="#hd"/>
<circle class="fill" cx="210.50" cy="38.00" r="1.2"/>
<path d="M199.30 41.00v21.00" class="stroke"/>
<path class="fill"
	d="M199.30 62.00c0.6 -5.6 9.6 -9 5.6 -18.4
	1.6 6 -1.3 11.6 -5.6 12.8
"/>
<use x="232.10" y="44.00" xlink:href="#hd"/>
<path d="M228.60 44.00v23.00" class="stroke"/>
<path class="fill"
	d="M228.60 67.00c0.9 -3.7 9.1 -6.4 6 -12.4
	1 5.4 -4.2 8.4 -6 8.4
M228.60 61.60c0.9 -3.7 9.1 -6.4 6 -12.4
	1 5.4 -4.2 8.4 -6 8.4
"/>
<use x="257.90" y="47.00" xlink:href="#hd"/>
<path d="M254.40 47.00v21.00" class="stroke"/>
<use x="290.50" y="53.00" xlink:href="#hd"/>
<path d="M294.00 53.00v-21.00" class="stroke"/>
<use x="326.80" y="47.00" xlink:href="#hd"/>
<path d="M330.30 47.00v-21.00" class="stroke"/>
<use x="365.20" y="44.00" xlink:href="#hd"/>
<path d="M361.70 44.00v21.00" class="stroke"/>
<use x="397.80" y="50.00" xlink:href="#hd"/>
<path d="M401.30 50.00v-21.00" class="stroke"/>
<use x="434.10" y="56.00" xlink:href="#hd"/>
<path d="M437.60 56.00v-21.00" class="stroke"/>
<defs>
<path id="Hd" class="fill" d="m3 -1.6
	c-1 -1.8 -7 1.4 -6 3.2
	1 1.8 7 -1.4 6 -3.2
	m0.5 -0.3
	c2 3.8 -5 7.6 -7 3.8
	-2 -3.8 5 -7.6 7 -3.8"/>
</defs>
<use x="472.50" y="53.00" xlink:href="#Hd"/>
<path d="M476.00 53.00v-21.00" class="stroke"/>
<path class="fill"
	d="M526.90 31.00l23.80 -4.10v3.20l-23.80 4.10"/>
<use x="523.70" y="53.00" xlink:href="#hd"/>
<path d="M527.20 53.00v-21.00" class="stroke"/>
<use x="546.90" y="47.00" xlink:href="#hd"/>
<path d="M550.40 47.00v-19.00" class="stroke"/>
<use x="577.90" y="41.00" xlink:href="#hd"/>
<path d="M574.40 41.00v21.00" class="stroke"/>
<use x="614.20" y="41.00" xlink:href="#hd"/>
<path d="M610.70 41.00v21.00" class="stroke"/>
<path class="fill"
	d="M646.50 62.30l23.80 2.50v-3.20l-23.80 -2.50"/>
<use x="650.40" y="41.00" xlink:href="#hd"/>
<path d="M646.90 41.00v20.30" class="stroke"/>
<use x="673.50" y="44.00" xlink:href="#hd"/>
<path d="M670.00 44.00v19.70" class="stroke"/>
</g>
<g stroke-width="0.70">
<path class="stroke" stroke-width="1"
	d="M154.50 129.00v-24.00"/>
<path class="stroke" stroke-width="1"
	d="M252.20 129.00v-24.00"/>
<path class="stroke" stroke-width="1"
	d="M348.70 129.00v-24.00"/>
<path class="stroke" stroke-width="1"
	d="M464.00 129.00v-24.00"/>
<path class="stroke" stroke-width="1"
	d="M576.40 129.00v-24.00"/>
<path class="stroke" stroke-width="1"
	d="M691.60 129.00v-24.00"/>
<path d="m10.00 129.00
	h681.60
	M10.00 123.00
	h681.60
	M10.00 117.00
	h681.60
	M10.00 111.00
	h681.60
	M10.00 105.00
	h681.60
	" class="stroke"/>
<use x="22.00" y="123.00" xlink:href="#tclef"/>
<use x="37.00" y="105.00" xlink:href="#sh0"/>
<use x="55.00" y="117.00" xlink:href="#hd"/>
<path d="M51.50 117.00v21.00" class="stroke"/>
<use x="84.50" y="123.00" xlink:href="#hd"/>
<path d="M88.00 123.00v-21.00" class="stroke"/>
<path class="fill"
	d="M120.30 96.00l21.60 0.00v3.20l-21.60 -0.00"/>
<use x="117.10" y="117.00" xlink:href="#hd"/>
<path d="M120.60 117.00v-20.00" class="stroke"/>
<use x="138.10" y="117.00" xlink:href="#hd"/>
<path d="M141.60 117.00v-20.00" class="stroke"/>
<use x="167.00" y="114.00" xlink:href="#hd"/>
<path d="M163.50 114.00v21.00" class="stroke"/>
<use x="196.40" y="120.00" xlink:href="#hd"/>
<path d="M199.90 120.00v-21.00" class="stroke"/>
<use x="229.10" y="126.00" xlink:href="#hd"/>
<path d="M232.60 126.00v-21.00" class="stroke"/>
<use x="265.20" y="123.00" xlink:href="#Hd"/>
<path d="M268.70 123.00v-21.00" class="stroke"/>
<path class="fill"
	d="M314.50 101.00l21.60 -3.90v3.20l-21.60 3.90"/>
<use x="311.40" y="123.00" xlink:href="#hd"/>
<path d="M314.90 123.00v-21.10" class="stroke"/>
<use x="332.30" y="117.00" xlink:href="#hd"/>
<path d="M335.80 117.00v-18.90" class="stroke"/>
<use x="361.20" y="111.00" xlink:href="#hd"/>
<path d="M357.70 111.00v21.00" class="stroke"/>
<use x="393.90" y="111.00" xlink:href="#hd"/>
<path d="M390.40 111.00v21.00" class="stroke"/>
<path class="fill"
	d="M422.80 128.70l21.60 -2.40v-3.20l-21.60 2.40"/>
<use x="426.60" y="108.00" xlink:href="#hd"/>
<path d="M423.10 108.00v19.70" class="stroke"/>
<use x="447.50" y="105.00" xlink:href="#hd"/>
<path d="M444.00 105.00v20.30" class="stroke"/>
<path class="fill"
	d="M472.60 123.20l21.60 0.00v-3.20l-21.60 -0.00"/>
<use x="476.50" y="102.00" xlink:href="#hd"/>
<path d="M473.00 102.00v20.20" class="stroke"/>
<use x="497.40" y="102.00" xlink:href="#hd"/>
<path d="M493.90 102.00v20.20" class="stroke"/>
<use x="520.60" y="111.00" xlink:href="#hd"/>
<path d="M517.10 111.00v21.00" class="stroke"/>
<use x="553.30" y="111.00" xlink:href="#hd"/>
<path d="M549.80 111.00v21.00" class="stroke"/>
<use x="588.90" y="111.00" xlink:href="#hd"/>
<path d="M585.40 111.00v21.00" class="stroke"/>
<use x="621.60" y="111.00" xlink:href="#hd"/>
<path d="M618.10 111.00v21.00" class="stroke"/>
<path class="fill"
	d="M650.40 128.70l21.60 -2.40v-3.20l-21.60 2.40"/>
<use x="654.20" y="108.00" xlink:href="#hd"/>
<path d="M650.70 108.00v19.70" class="stroke"/>
<use x="675.20" y="105.00" xlink:href="#hd"/>
<path d="M671.70 105.00v20.30" class="stroke"/>
</g>
<g stroke-width="0.70">
<path class="stroke" stroke-width="1"
	d="M185.20 199.00v-24.00"/>
<path class="stroke" stroke-width="1"
	d="M373.10 199.00v-24.00"/>
<path class="stroke" stroke-width="1"
	d="M532.40 199.00v-24.00"/>
<path class="stroke" stroke-width="1"
	d="M691.60 199.00v-24.00"/>
<path d="m10.00 199.00
	h681.60
	M10.00 193.00
	h681.60
	M10.00 187.00
	h681.60
	M10.00 181.00
	h681.60
	M10.00 175.00
	h681.60
	" class="stroke"/>
<use x="22.00" y="193.00" xlink:href="#tclef"/>
<use x="37.00" y="175.00" xlink:href="#sh0"/>
<use x="55.50" y="172.00" xlink:href="#Hd"/>
<path d="M52.00 172.00v21.00" class="stroke"/>
<path class="fill"
	d="M127.30 171.30l35.00 -4.50v3.20l-35.00 4.50"/>
<use x="124.20" y="193.00" xlink:href="#hd"/>
<path d="M127.70 193.00v-20.80" class="stroke"/>
<use x="158.50" y="187.00" xlink:href="#hd"/>
<path d="M162.00 187.00v-19.20" class="stroke"/>
<use x="204.30" y="181.00" xlink:href="#hd"/>
<path d="M200.80 181.00v21.00" class="stroke"/>
<use x="258.20" y="181.00" xlink:href="#hd"/>
<path d="M254.70 181.00v21.00" class="stroke"/>
<path class="fill"
	d="M308.20 202.20l35.00 2.60v-3.20l-35.00 -2.60"/>
<use x="312.10" y="181.00" xlink:href="#hd"/>
<path d="M308.60 181.00v20.20" class="stroke"/>
<use x="346.40" y="184.00" xlink:href="#hd"/>
<path d="M342.90 184.00v19.80" class="stroke"/>
<use x="392.20" y="187.00" xlink:href="#hd"/>
<path d="M388.70 187.00v21.00" class="stroke"/>
<use x="440.70" y="193.00" xlink:href="#hd"/>
<path d="M444.20 193.00v-21.00" class="stroke"/>
<use x="494.60" y="187.00" xlink:href="#hd"/>
<path d="M498.10 187.00v-21.00" class="stroke"/>
<use x="551.40" y="184.00" xlink:href="#hd"/>
<path d="M547.90 184.00v21.00" class="stroke"/>
<use x="599.90" y="190.00" xlink:href="#hd"/>
<path d="M603.40 190.00v-21.00" class="stroke"/>
<use x="653.90" y="196.00" xlink:href="#hd"/>
<path d="M657.40 196.00v-21.00" class="stroke"/>
</g>
<g stroke-width="0.70">
<path class="stroke" stroke-width="1"
	d="M128.30 269.00v-24.00"/>
<path class="stroke" stroke-width="1"
	d="M214.10 269.00v-24.00"/>
<path class="stroke" stroke-width="1"
	d="M314.90 269.00v-24.00"/>
<path class="stroke" stroke-width="1"
	d="M435.40 269.00v-24.00"/>
<path class="stroke" stroke-width="1"
	d="M537.50 269.00v-24.00"/>
<path class="stroke" stroke-width="1"
	d="M639.60 269.00v-24.00"/>
<path class="stroke" stroke-width="1"
	d="M691.60 269.00v-24.00"/>
<path class="stroke" stroke-width="1"
	d="M688.60 269.00v-24.00"/>
<path d="m10.00 269.00
	h681.60
	M10.00 263.00
	h681.60
	M10.00 257.00
	h681.60
	M10.00 251.00
	h681.60
	M10.00 245.00
	h681.60
	" class="stroke"/>
<use x="22.00" y="263.00" xlink:href="#tclef"/>
<use x="37.00" y="245.00" xlink:href="#sh0"/>
<use x="55.50" y="263.00" xlink:href="#Hd"/>
<path d="M59.00 263.00v-21.00" class="stroke"/>
<use x="104.10" y="260.00" xlink:href="#hd"/>
<path d="M107.60 260.00v-21.00" class="stroke"/>
<use x="141.30" y="260.00" xlink:href="#Hd"/>
<path d="M144.80 260.00v-21.00" class="stroke"/>
<use x="189.90" y="260.00" xlink:href="#hd"/>
<path d="M193.40 260.00v-21.00" class="stroke"/>
<use x="227.10" y="257.00" xlink:href="#Hd"/>
<path d="M230.60 257.00v-21.00" class="stroke"/>
<path class="fill"
	d="M278.90 241.00l22.70 -4.00v3.20l-22.70 4.00"/>
<use x="275.70" y="263.00" xlink:href="#hd"/>
<path d="M279.20 263.00v-21.10" class="stroke"/>
<use x="297.70" y="257.00" xlink:href="#hd"/>
<path d="M301.20 257.00v-18.90" class="stroke"/>
<use x="327.40" y="251.00" xlink:href="#hd"/>
<path d="M323.90 251.00v21.00" class="stroke"/>
<use x="361.80" y="251.00" xlink:href="#hd"/>
<path d="M358.30 251.00v21.00" class="stroke"/>
<path class="fill"
	d="M392.40 272.30l22.70 2.40v-3.20l-22.70 -2.40"/>
<use x="396.20" y="251.00" xlink:href="#hd"/>
<path d="M392.70 251.00v20.30" class="stroke"/>
<use x="418.20" y="254.00" xlink:href="#hd"/>
<path d="M414.70 254.00v19.70" class="stroke"/>
<use x="447.90" y="257.00" xlink:href="#hd"/>
<path d="M444.40 257.00v21.00" class="stroke"/>
<use x="478.90" y="263.00" xlink:href="#hd"/>
<path d="M482.40 263.00v-21.00" class="stroke"/>
<use x="513.30" y="257.00" xlink:href="#hd"/>
<path d="M516.80 257.00v-21.00" class="stroke"/>
<use x="550.00" y="254.00" xlink:href="#hd"/>
<path d="M546.50 254.00v21.00" class="stroke"/>
<use x="581.00" y="260.00" xlink:href="#hd"/>
<path d="M584.50 260.00v-21.00" class="stroke"/>
<use x="615.40" y="266.00" xlink:href="#hd"/>
<path d="M618.90 266.00v-21.00" class="stroke"/>
<use x="652.60" y="263.00" xlink:href="#Hd"/>
<path d="M656.10 263.00v-21.00" class="stroke"/>
</g>
<g stroke-width="0.70" style="font:16.00px Arial">
<text x="60.00" y="309.60">Now the holly bears a berry as white as the milk</text>
</g>
<g stroke-width="0.70" style="font:16.00px Arial">
<text x="60.00" y="327.20">And Mary bore Jesus, all wrappéd in silk</text>
</g>
<g stroke-width="0.70" style="font:16.00px Arial">
<text x="60.00" y="362.40">Holly! Holly!</text>
</g>
<g stroke-width="0.70" style="font:16.00px Arial">
<text x="60.00" y="380.00">And the first tree in the greenwood, it was the holly!</text>
</g>
<g stroke-width="0.70" style="font:16.00px Arial">
<text x="60.00" y="415.20">And Mary bore Jesus Christ our Saviour for to be,</text>
</g>
<g stroke-width="0.70" style="font:16.00px Arial">
<text x="60.00" y="432.80">And the first tree in the greenwood, it was the holly.</text>
</g>
<g stroke-width="0.70" style="font:16.00px Arial">
<text x="60.00" y="468.00">Now the holly bears a berry as green as the grass,</text>
</g>
<g stroke-width="0.70" style="font:16.00px Arial">
<text x="60.00" y="485.60">And Mary bore Jesus, who died on the cross,</text>
</g>
<g stroke-width="0.70" style="font:16.00px Arial">
<text x="60.00" y="520.80">Now the holly bears a berry as black as the coal,</text>
</g>
<g stroke-width="0.70" style="font:16.00px Arial">
<text x="60.00" y="538.40">And Mary bore Jesus, who died for us all,</text>
</g>
<g stroke-width="0.70" style="font:16.00px Arial">
<text x="60.00" y="573.60">Now the holly bears a berry as blood is it red,</text>
</g>
<g stroke-width="0.70" style="font:16.00px Arial">
<text x="60.00" y="591.20">And Mary bore Jesus who rose from the dead,</text>
</g>
</svg>
