<?xml version="1.0" standalone="no"?>
<!DOCTYPE svg PUBLIC "-//W3C//DTD SVG 1.1//EN"
	"http://www.w3.org/Graphics/SVG/1.1/DTD/svg11.dtd">
<svg xmlns="http://www.w3.org/2000/svg" version="1.1"
	xmlns:xlink="http://www.w3.org/1999/xlink"
	color="black"
	width="701.60px" height="553.50px">
<style type="text/css">
.fill {fill: currentColor}
.stroke {stroke: currentColor; fill: none}
text{white-space: pre}
</style>
<title>/media/tim/Data1/tims_code/sphinx-tunes/source/_abcfiles/_Silent Night.a (0) tune 1</title>
<!-- Creator: abcm2ps-8.14.6 -->
<!-- CreationDate: Jul 30, 2023 11:59 -->
<!-- CommandLine: -g '/media/tim/Data1/tims_code/sphinx-tunes/source/_abcfiles/_Silent Night.abc' -O '/media/tim/Data1/tims_code/sphinx-tunes/source/_abcfiles/_Silent Night.svg' -->
<g stroke-width="0.70" style="font:italic 14.00px Times">
<text x="691.60" y="20.00" text-anchor="end">Franz Gruber</text>
</g>
<g stroke-width="0.70" transform="scale(0.700)" style="font:italic 14.00px Times">
<defs>
<ellipse id="hd" rx="4.1" ry="2.9"
	transform="rotate(-20)" class="fill"/>
</defs>
<use x="118.71" y="58.43" xlink:href="#hd"/>
<path d="M122.21 58.43v-21.00" class="stroke"/>
</g>
<g stroke-width="0.70" style="font:bold 15.00px Times">
<text x="90.80" y="43.00">= 55</text>
<path class="stroke" stroke-width="1"
	d="M10.00 153.30v-92.30"/>
<path class="stroke" stroke-width="1"
	d="M218.00 85.00v-24.00"/>
<path class="stroke" stroke-width="1"
	d="M218.00 153.30v-68.30"/>
<path class="stroke" stroke-width="1"
	d="M370.20 85.00v-24.00"/>
<path class="stroke" stroke-width="1"
	d="M370.20 153.30v-68.30"/>
<path class="stroke" stroke-width="1"
	d="M530.50 85.00v-24.00"/>
<path class="stroke" stroke-width="1"
	d="M530.50 153.30v-68.30"/>
<path class="stroke" stroke-width="1"
	d="M691.60 85.00v-24.00"/>
<path class="stroke" stroke-width="1"
	d="M691.60 153.30v-68.30"/>
<path d="m10.00 85.00
	h681.60
	M10.00 79.00
	h681.60
	M10.00 73.00
	h681.60
	M10.00 67.00
	h681.60
	M10.00 61.00
	h681.60
	" class="stroke"/>
<path d="m10.00 153.30
	h681.60
	M10.00 147.30
	h681.60
	M10.00 141.30
	h681.60
	M10.00 135.30
	h681.60
	M10.00 129.30
	h681.60
	" class="stroke"/>
<path class="fill"
	d="M84.00 81.10c5.22 3.72 27.92 2.28 33.14 -2.10
	v0.23c-6.21 6.15 -26.93 7.58 -33.14 1.87"/>
<path class="fill"
	d="M241.20 81.10c5.22 3.72 27.92 2.28 33.14 -2.10
	v0.23c-6.21 6.15 -26.93 7.58 -33.14 1.87"/>
<path class="fill"
	d="M440.20 59.80c3.39 -3.23 18.11 -0.35 21.49 4.20
	v-0.22c-4.03 -6.33 -17.46 -9.21 -21.49 -3.98"/>
<path class="fill"
	d="M599.90 63.40c3.23 -2.84 17.26 1.68 20.49 6.60
	v-0.22c-3.84 -6.70 -16.65 -11.22 -20.49 -6.38"/>
<path class="fill"
	d="M84.00 155.40c5.22 3.72 27.92 2.28 33.14 -2.10
	v0.23c-6.21 6.15 -26.93 7.58 -33.14 1.87"/>
<path class="fill"
	d="M241.20 155.40c5.22 3.72 27.92 2.28 33.14 -2.10
	v0.23c-6.21 6.15 -26.93 7.58 -33.14 1.87"/>
</g>
<g stroke-width="0.70" style="font:13.00px Arial">
<text x="72.00" y="117.10">Si</text>
<path class="stroke" stroke-width="1.2"
	stroke-dasharray="5,26"
	d="M109.50 113.20h5"/>
<text x="132.80" y="117.10">lent</text>
<text x="163.40" y="117.10">night!</text>
<text x="227.00" y="117.10">Ho</text>
<path class="stroke" stroke-width="1.2"
	stroke-dasharray="5,23"
	d="M268.85 113.20h5"/>
<text x="291.00" y="117.10">ly</text>
<text x="315.60" y="117.10">night!</text>
<text x="379.20" y="117.10">All</text>
<text x="430.50" y="117.10">is</text>
<path class="stroke" stroke-width="0.8"
	d="M443.00 117.10h24.60"/>
<text x="477.00" y="117.10">calm,</text>
<text x="539.50" y="117.10">all</text>
<text x="589.20" y="117.10">is</text>
<path class="stroke" stroke-width="0.8"
	d="M601.70 117.10h24.60"/>
<text x="635.50" y="117.10">bright.</text>
<defs>
<path id="utclef" class="fill" d="m-50 -90
	c-72 -41 -72 -158 52 -188
	150 -10 220 188 90 256
	-114 52 -275 0 -293 -136
	-15 -181 93 -229 220 -334
	88 -87 79 -133 62 -210
	-51 33 -94 105 -89 186
	17 267 36 374 49 574
	6 96 -19 134 -77 135
	-80 1 -126 -93 -61 -133
	85 -41 133 101 31 105
	23 17 92 37 90 -92
	-10 -223 -39 -342 -50 -617
	0 -90 0 -162 96 -232
	56 72 63 230 22 289
	-74 106 -257 168 -255 316
	9 153 148 185 252 133
	86 -65 29 -192 -80 -176
	-71 12 -105 67 -59 124"/>
<use id="tclef" transform="translate(0,6) scale(0.045)"
	xlink:href="#utclef"/>
</defs>
<use x="22.00" y="79.00" xlink:href="#tclef"/>
<defs>
<path id="usharp" class="fill" d="
	m136 -702
	v890
	h32
	v-890
	m128 840
	h32
	v-888
	h-32
	m-232 286
	v116
	l338 -96
	v-116
	m-338 442
	v116
	l338 -98
	v-114"/>
<use id="sh0" transform="translate(-4,5) scale(0.018)"
	xlink:href="#usharp"/>
</defs>
<use x="37.00" y="61.00" xlink:href="#sh0"/>
<use x="42.50" y="70.00" xlink:href="#sh0"/>
<g style="font:bold 16px serif"
	transform="translate(58.50,84.50) scale(1.2,1)">
	<text text-anchor="middle">8</text>
	<text y="-12" text-anchor="middle">6</text>
</g>
<path class="fill"
	d="M85.70 53.40l35.30 -2.60v3.20l-35.30 2.60"/>
<path class="fill"
	d="M113.60 56.30l7.00 -0.50v3.20l-7.00 0.50"/>
<use x="82.50" y="76.00" xlink:href="#hd"/>
<circle class="fill" cx="90.20" cy="76.00" r="1.2"/>
<path d="M86.00 76.00v-21.60" class="stroke"/>
<use x="117.10" y="73.00" xlink:href="#hd"/>
<path d="M120.60 73.00v-21.20" class="stroke"/>
<use x="144.30" y="76.00" xlink:href="#hd"/>
<path d="M147.80 76.00v-21.00" class="stroke"/>
<path class="fill"
	d="M147.80 55.00c0.6 5.6 9.6 9 5.6 18.4
	1.6 -6 -1.3 -11.6 -5.6 -12.8
"/>
<use x="179.90" y="82.00" xlink:href="#hd"/>
<circle class="fill" cx="187.60" cy="82.00" r="1.2"/>
<path d="M183.40 82.00v-21.00" class="stroke"/>
<path class="fill"
	d="M242.90 53.40l35.30 -2.60v3.20l-35.30 2.60"/>
<path class="fill"
	d="M270.90 56.30l7.00 -0.50v3.20l-7.00 0.50"/>
<use x="239.70" y="76.00" xlink:href="#hd"/>
<circle class="fill" cx="247.40" cy="76.00" r="1.2"/>
<path d="M243.20 76.00v-21.60" class="stroke"/>
<use x="274.40" y="73.00" xlink:href="#hd"/>
<path d="M277.90 73.00v-21.20" class="stroke"/>
<use x="298.30" y="76.00" xlink:href="#hd"/>
<path d="M301.80 76.00v-21.00" class="stroke"/>
<path class="fill"
	d="M301.80 55.00c0.6 5.6 9.6 9 5.6 18.4
	1.6 -6 -1.3 -11.6 -5.6 -12.8
"/>
<use x="332.10" y="82.00" xlink:href="#hd"/>
<circle class="fill" cx="339.80" cy="82.00" r="1.2"/>
<path d="M335.60 82.00v-21.00" class="stroke"/>
<use x="389.40" y="64.00" xlink:href="#hd"/>
<path d="M385.90 64.00v21.00" class="stroke"/>
<path class="fill"
	d="M433.30 91.10l25.20 4.10v-3.20l-25.20 -4.10"/>
<path class="fill"
	d="M433.70 86.20l24.50 4.00v-3.20l-24.50 -4.00"/>
<path class="fill"
	d="M451.20 84.00l7.00 1.20v-3.20l-7.00 -1.20"/>
<use x="437.20" y="64.00" xlink:href="#hd"/>
<circle class="fill" cx="444.90" cy="64.00" r="1.2"/>
<path d="M433.70 64.00v26.20" class="stroke"/>
<use x="461.70" y="70.00" xlink:href="#hd"/>
<path d="M458.20 70.00v24.20" class="stroke"/>
<use x="492.40" y="70.00" xlink:href="#hd"/>
<circle class="fill" cx="500.10" cy="70.00" r="1.2"/>
<path d="M488.90 70.00v21.00" class="stroke"/>
<use x="548.00" y="67.00" xlink:href="#hd"/>
<path d="M544.50 67.00v21.00" class="stroke"/>
<path class="fill"
	d="M592.00 95.90l25.20 5.30v-3.20l-25.20 -5.30"/>
<path class="fill"
	d="M592.40 91.00l24.50 5.20v-3.20l-24.50 -5.20"/>
<path class="fill"
	d="M609.90 89.70l7.00 1.50v-3.20l-7.00 -1.50"/>
<use x="595.90" y="67.00" xlink:href="#hd"/>
<circle class="fill" cx="603.60" cy="64.00" r="1.2"/>
<path d="M592.40 67.00v28.00" class="stroke"/>
<use x="620.40" y="76.00" xlink:href="#hd"/>
<path d="M616.90 76.00v24.20" class="stroke"/>
<use x="653.50" y="76.00" xlink:href="#hd"/>
<circle class="fill" cx="661.20" cy="76.00" r="1.2"/>
<path d="M657.00 76.00v-21.00" class="stroke"/>
<use x="22.00" y="147.30" xlink:href="#tclef"/>
<use x="37.00" y="129.30" xlink:href="#sh0"/>
<use x="42.50" y="138.30" xlink:href="#sh0"/>
<g style="font:bold 16px serif"
	transform="translate(58.50,152.80) scale(1.2,1)">
	<text text-anchor="middle">8</text>
	<text y="-12" text-anchor="middle">6</text>
</g>
<path class="fill"
	d="M85.70 127.70l35.30 -2.60v3.20l-35.30 2.60"/>
<path class="fill"
	d="M113.60 130.60l7.00 -0.50v3.20l-7.00 0.50"/>
<use x="82.50" y="150.30" xlink:href="#hd"/>
<circle class="fill" cx="90.20" cy="150.30" r="1.2"/>
<path d="M86.00 150.30v-21.60" class="stroke"/>
<use x="117.10" y="147.30" xlink:href="#hd"/>
<path d="M120.60 147.30v-21.20" class="stroke"/>
<use x="144.30" y="150.30" xlink:href="#hd"/>
<path d="M147.80 150.30v-21.00" class="stroke"/>
<path class="fill"
	d="M147.80 129.30c0.6 5.6 9.6 9 5.6 18.4
	1.6 -6 -1.3 -11.6 -5.6 -12.8
"/>
<use x="179.90" y="156.30" xlink:href="#hd"/>
<circle class="fill" cx="187.60" cy="156.30" r="1.2"/>
<path d="M183.40 156.30v-21.00" class="stroke"/>
<path class="fill"
	d="M242.90 127.70l35.30 -2.60v3.20l-35.30 2.60"/>
<path class="fill"
	d="M270.90 130.60l7.00 -0.50v3.20l-7.00 0.50"/>
<use x="239.70" y="150.30" xlink:href="#hd"/>
<circle class="fill" cx="247.40" cy="150.30" r="1.2"/>
<path d="M243.20 150.30v-21.60" class="stroke"/>
<use x="274.40" y="147.30" xlink:href="#hd"/>
<path d="M277.90 147.30v-21.20" class="stroke"/>
<use x="298.30" y="150.30" xlink:href="#hd"/>
<path d="M301.80 150.30v-21.00" class="stroke"/>
<path class="fill"
	d="M301.80 129.30c0.6 5.6 9.6 9 5.6 18.4
	1.6 -6 -1.3 -11.6 -5.6 -12.8
"/>
<use x="332.10" y="156.30" xlink:href="#hd"/>
<circle class="fill" cx="339.80" cy="156.30" r="1.2"/>
<path d="M335.60 156.30v-21.00" class="stroke"/>
<use x="389.40" y="147.30" xlink:href="#hd"/>
<path d="M392.90 147.30v-21.00" class="stroke"/>
<use x="437.20" y="147.30" xlink:href="#hd"/>
<path d="M440.70 147.30v-21.00" class="stroke"/>
<path class="fill"
	d="M440.70 126.30c0.6 5.6 9.6 9 5.6 18.4
	1.6 -6 -1.3 -11.6 -5.6 -12.8
"/>
<use x="492.40" y="147.30" xlink:href="#hd"/>
<circle class="fill" cx="500.10" cy="144.30" r="1.2"/>
<path d="M495.90 147.30v-21.00" class="stroke"/>
<use x="548.00" y="150.30" xlink:href="#hd"/>
<path d="M551.50 150.30v-21.00" class="stroke"/>
<use x="595.90" y="150.30" xlink:href="#hd"/>
<path d="M599.40 150.30v-21.00" class="stroke"/>
<path class="fill"
	d="M599.40 129.30c0.6 5.6 9.6 9 5.6 18.4
	1.6 -6 -1.3 -11.6 -5.6 -12.8
"/>
<use x="653.50" y="150.30" xlink:href="#hd"/>
<circle class="fill" cx="661.20" cy="150.30" r="1.2"/>
<path d="M657.00 150.30v-21.00" class="stroke"/>
</g>
<g stroke-width="0.70" style="font:13.00px Arial">
<path class="stroke" stroke-width="1"
	d="M10.00 290.60v-91.30"/>
<path class="stroke" stroke-width="1"
	d="M272.40 223.30v-24.00"/>
<path class="stroke" stroke-width="1"
	d="M272.40 290.60v-67.30"/>
<path class="stroke" stroke-width="1"
	d="M460.00 223.30v-24.00"/>
<path class="stroke" stroke-width="1"
	d="M460.00 290.60v-67.30"/>
<path class="stroke" stroke-width="1"
	d="M691.60 223.30v-24.00"/>
<path class="stroke" stroke-width="1"
	d="M691.60 290.60v-67.30"/>
<path d="m10.00 223.30
	h681.60
	M10.00 217.30
	h681.60
	M10.00 211.30
	h681.60
	M10.00 205.30
	h681.60
	M10.00 199.30
	h681.60
	" class="stroke"/>
<path d="m10.00 290.60
	h681.60
	M10.00 284.60
	h681.60
	M10.00 278.60
	h681.60
	M10.00 272.60
	h681.60
	M10.00 266.60
	h681.60
	" class="stroke"/>
<path class="fill"
	d="M172.40 200.20c6.47 -3.83 34.78 -2.39 41.25 2.10
	v-0.24c-7.71 -6.25 -33.54 -7.69 -41.25 -1.86"/>
<path class="fill"
	d="M170.90 284.60c6.47 4.49 34.78 5.93 41.25 2.10
	v0.24c-7.71 5.59 -33.54 4.15 -41.25 -2.34"/>
<text x="52.00" y="248.40">Round</text>
<text x="117.70" y="248.40">yon</text>
<text x="157.50" y="248.40">Vir</text>
<path class="stroke" stroke-width="1.2"
	stroke-dasharray="5,26"
	d="M190.30 244.50h36"/>
<text x="233.00" y="248.40">gin</text>
<text x="282.70" y="248.40">Mo</text>
<path class="stroke" stroke-width="1.2"
	stroke-dasharray="5,20"
	d="M316.05 244.50h5"/>
<text x="327.40" y="248.40">ther</text>
<text x="360.10" y="248.40">and</text>
<text x="396.00" y="248.40">Child.</text>
<text x="470.30" y="248.40">Ho</text>
<path class="stroke" stroke-width="1.2"
	stroke-dasharray="5,23"
	d="M512.40 244.50h5"/>
<text x="534.80" y="248.40">ly</text>
<text x="573.30" y="248.40">In</text>
<path class="stroke" stroke-width="1.2"
	stroke-dasharray="5,23"
	d="M602.75 244.50h5"/>
<text x="618.10" y="248.40">fant,</text>
<text x="654.40" y="248.40">so</text>
<use x="22.00" y="217.30" xlink:href="#tclef"/>
<use x="37.00" y="199.30" xlink:href="#sh0"/>
<use x="42.50" y="208.30" xlink:href="#sh0"/>
<use x="70.10" y="211.30" xlink:href="#hd"/>
<path d="M73.60 211.30v-21.00" class="stroke"/>
<use x="129.10" y="211.30" xlink:href="#hd"/>
<path d="M132.60 211.30v-21.00" class="stroke"/>
<path class="fill"
	d="M132.60 190.30c0.6 5.6 9.6 9 5.6 18.4
	1.6 -6 -1.3 -11.6 -5.6 -12.8
"/>
<path class="fill"
	d="M167.00 228.50l43.40 2.70v-3.20l-43.40 -2.70"/>
<path class="fill"
	d="M203.10 225.70l7.00 0.40v-3.20l-7.00 -0.40"/>
<use x="170.90" y="205.30" xlink:href="#hd"/>
<circle class="fill" cx="178.60" cy="202.30" r="1.2"/>
<path d="M167.40 205.30v22.20" class="stroke"/>
<use x="213.60" y="208.30" xlink:href="#hd"/>
<path d="M210.10 208.30v21.80" class="stroke"/>
<use x="243.10" y="211.30" xlink:href="#hd"/>
<path d="M239.60 211.30v21.00" class="stroke"/>
<path class="fill"
	d="M239.60 232.30c0.6 -5.6 9.6 -9 5.6 -18.4
	1.6 6 -1.3 11.6 -5.6 12.8
"/>
<path class="fill"
	d="M299.50 191.80l43.40 -2.70v3.20l-43.40 2.70"/>
<path class="fill"
	d="M335.60 194.50l7.00 -0.40v3.20l-7.00 0.40"/>
<use x="296.40" y="214.30" xlink:href="#hd"/>
<circle class="fill" cx="304.10" cy="214.30" r="1.2"/>
<path d="M299.90 214.30v-21.60" class="stroke"/>
<use x="339.10" y="211.30" xlink:href="#hd"/>
<path d="M342.60 211.30v-21.20" class="stroke"/>
<use x="371.20" y="214.30" xlink:href="#hd"/>
<path d="M374.70 214.30v-21.00" class="stroke"/>
<path class="fill"
	d="M374.70 193.30c0.6 5.6 9.6 9 5.6 18.4
	1.6 -6 -1.3 -11.6 -5.6 -12.8
"/>
<use x="413.00" y="220.30" xlink:href="#hd"/>
<circle class="fill" cx="420.70" cy="220.30" r="1.2"/>
<path d="M416.50 220.30v-21.00" class="stroke"/>
<use x="483.10" y="211.30" xlink:href="#hd"/>
<path d="M486.60 211.30v-21.00" class="stroke"/>
<use x="542.10" y="211.30" xlink:href="#hd"/>
<path d="M545.60 211.30v-21.00" class="stroke"/>
<path class="fill"
	d="M545.60 190.30c0.6 5.6 9.6 9 5.6 18.4
	1.6 -6 -1.3 -11.6 -5.6 -12.8
"/>
<use x="583.80" y="205.30" xlink:href="#hd"/>
<circle class="fill" cx="591.50" cy="202.30" r="1.2"/>
<path d="M580.30 205.30v21.00" class="stroke"/>
<path class="fill"
	d="M580.30 226.30c0.6 -5.6 9.6 -9 5.6 -18.4
	1.6 6 -1.3 11.6 -5.6 12.8
"/>
<use x="631.30" y="208.30" xlink:href="#hd"/>
<path d="M627.80 208.30v23.00" class="stroke"/>
<path class="fill"
	d="M627.80 231.30c0.9 -3.7 9.1 -6.4 6 -12.4
	1 5.4 -4.2 8.4 -6 8.4
M627.80 225.90c0.9 -3.7 9.1 -6.4 6 -12.4
	1 5.4 -4.2 8.4 -6 8.4
"/>
<use x="662.40" y="211.30" xlink:href="#hd"/>
<path d="M658.90 211.30v21.00" class="stroke"/>
<path class="fill"
	d="M658.90 232.30c0.6 -5.6 9.6 -9 5.6 -18.4
	1.6 6 -1.3 11.6 -5.6 12.8
"/>
<use x="22.00" y="284.60" xlink:href="#tclef"/>
<use x="37.00" y="266.60" xlink:href="#sh0"/>
<use x="42.50" y="275.60" xlink:href="#sh0"/>
<use x="70.10" y="284.60" xlink:href="#hd"/>
<path d="M73.60 284.60v-21.00" class="stroke"/>
<use x="129.10" y="284.60" xlink:href="#hd"/>
<path d="M132.60 284.60v-21.00" class="stroke"/>
<path class="fill"
	d="M132.60 263.60c0.6 5.6 9.6 9 5.6 18.4
	1.6 -6 -1.3 -11.6 -5.6 -12.8
"/>
<path class="fill"
	d="M174.00 256.70l43.40 2.70v3.20l-43.40 -2.70"/>
<path class="fill"
	d="M210.10 264.00l7.00 0.40v3.20l-7.00 -0.40"/>
<use x="170.90" y="278.60" xlink:href="#hd"/>
<circle class="fill" cx="178.60" cy="275.60" r="1.2"/>
<path d="M174.40 278.60v-20.80" class="stroke"/>
<use x="213.60" y="281.60" xlink:href="#hd"/>
<path d="M217.10 281.60v-21.20" class="stroke"/>
<use x="243.10" y="284.60" xlink:href="#hd"/>
<path d="M246.60 284.60v-21.00" class="stroke"/>
<path class="fill"
	d="M246.60 263.60c0.6 5.6 9.6 9 5.6 18.4
	1.6 -6 -1.3 -11.6 -5.6 -12.8
"/>
<path class="fill"
	d="M299.50 265.10l43.40 -2.70v3.20l-43.40 2.70"/>
<path class="fill"
	d="M335.60 267.80l7.00 -0.40v3.20l-7.00 0.40"/>
<use x="296.40" y="287.60" xlink:href="#hd"/>
<circle class="fill" cx="304.10" cy="287.60" r="1.2"/>
<path d="M299.90 287.60v-21.60" class="stroke"/>
<use x="339.10" y="284.60" xlink:href="#hd"/>
<path d="M342.60 284.60v-21.20" class="stroke"/>
<use x="371.20" y="287.60" xlink:href="#hd"/>
<path d="M374.70 287.60v-21.00" class="stroke"/>
<path class="fill"
	d="M374.70 266.60c0.6 5.6 9.6 9 5.6 18.4
	1.6 -6 -1.3 -11.6 -5.6 -12.8
"/>
<use x="413.00" y="293.60" xlink:href="#hd"/>
<circle class="fill" cx="420.70" cy="293.60" r="1.2"/>
<path d="M416.50 293.60v-21.00" class="stroke"/>
<use x="483.10" y="293.60" xlink:href="#hd"/>
<path d="M486.60 293.60v-21.00" class="stroke"/>
<use x="542.10" y="284.60" xlink:href="#hd"/>
<path d="M545.60 284.60v-21.00" class="stroke"/>
<path class="fill"
	d="M545.60 263.60c0.6 5.6 9.6 9 5.6 18.4
	1.6 -6 -1.3 -11.6 -5.6 -12.8
"/>
<use x="583.80" y="278.60" xlink:href="#hd"/>
<circle class="fill" cx="591.50" cy="275.60" r="1.2"/>
<path d="M587.30 278.60v-21.00" class="stroke"/>
<path class="fill"
	d="M587.30 257.60c0.6 5.6 9.6 9 5.6 18.4
	1.6 -6 -1.3 -11.6 -5.6 -12.8
"/>
<use x="631.30" y="281.60" xlink:href="#hd"/>
<path d="M634.80 281.60v-22.00" class="stroke"/>
<path class="fill"
	d="M634.80 259.60c0.9 3.7 9.1 6.4 6 12.4
	1 -5.4 -4.2 -8.4 -6 -8.4
M634.80 265.00c0.9 3.7 9.1 6.4 6 12.4
	1 -5.4 -4.2 -8.4 -6 -8.4
"/>
<use x="662.40" y="284.60" xlink:href="#hd"/>
<path d="M665.90 284.60v-21.00" class="stroke"/>
<path class="fill"
	d="M665.90 263.60c0.6 5.6 9.6 9 5.6 18.4
	1.6 -6 -1.3 -11.6 -5.6 -12.8
"/>
</g>
<g stroke-width="0.70" style="font:13.00px Arial">
<path class="stroke" stroke-width="1"
	d="M10.00 424.90v-88.30"/>
<path class="stroke" stroke-width="1"
	d="M180.60 360.60v-24.00"/>
<path class="stroke" stroke-width="1"
	d="M180.60 424.90v-64.30"/>
<path class="stroke" stroke-width="1"
	d="M338.70 360.60v-24.00"/>
<path class="stroke" stroke-width="1"
	d="M338.70 424.90v-64.30"/>
<path class="stroke" stroke-width="1"
	d="M428.80 360.60v-24.00"/>
<path class="stroke" stroke-width="1"
	d="M428.80 424.90v-64.30"/>
<path class="stroke" stroke-width="1"
	d="M597.50 360.60v-24.00"/>
<path class="stroke" stroke-width="1"
	d="M597.50 424.90v-64.30"/>
<path class="stroke" stroke-width="3"
	d="M690.10 360.60v-24.00"/>
<path class="stroke" stroke-width="1"
	d="M685.60 360.60v-24.00"/>
<path class="stroke" stroke-width="3"
	d="M690.10 424.90v-64.30"/>
<path class="stroke" stroke-width="1"
	d="M685.60 424.90v-64.30"/>
<path d="m10.00 360.60
	h681.60
	M10.00 354.60
	h681.60
	M10.00 348.60
	h681.60
	M10.00 342.60
	h681.60
	M10.00 336.60
	h681.60
	" class="stroke"/>
<path d="m10.00 424.90
	h681.60
	M10.00 418.90
	h681.60
	M10.00 412.90
	h681.60
	M10.00 406.90
	h681.60
	M10.00 400.90
	h681.60
	" class="stroke"/>
<path class="fill"
	d="M364.00 336.60c5.37 -4.72 28.75 -7.60 34.12 -4.20
	v-0.23c-6.40 -5.17 -27.73 -2.29 -34.12 4.43"/>
<path class="fill"
	d="M456.40 339.00c3.03 -2.82 16.19 1.70 19.21 6.60
	v-0.22c-3.60 -6.68 -15.61 -11.20 -19.21 -6.38"/>
<path class="fill"
	d="M622.80 369.60c5.85 4.10 31.28 4.10 37.12 -0.00
	v0.24c-6.96 5.86 -30.16 5.86 -37.12 -0.24"/>
<path class="fill"
	d="M367.00 426.10c5.37 3.40 28.75 0.52 34.12 -4.20
	v0.23c-6.40 6.49 -27.73 9.37 -34.12 3.97"/>
<path class="fill"
	d="M622.80 427.90c5.37 4.72 28.75 7.60 34.12 4.20
	v0.23c-6.40 5.17 -27.73 2.29 -34.12 -4.43"/>
<text x="52.00" y="386.70">ten</text>
<path class="stroke" stroke-width="1.2"
	stroke-dasharray="5,20"
	d="M77.65 382.80h5"/>
<text x="83.80" y="386.70">der</text>
<text x="109.20" y="386.70">and</text>
<text x="137.00" y="386.70">mild.</text>
<text x="188.60" y="386.70">Sleep</text>
<text x="232.90" y="386.70">in</text>
<text x="251.20" y="386.70">heav</text>
<path class="stroke" stroke-width="1.2"
	stroke-dasharray="5,20"
	d="M286.35 382.80h5"/>
<text x="292.50" y="386.70">en</text>
<text x="313.10" y="386.70">ly</text>
<text x="346.70" y="386.70">peace,</text>
<path class="stroke" stroke-width="0.8"
	d="M385.80 386.70h21.30"/>
<text x="436.80" y="386.70">Sleep</text>
<path class="stroke" stroke-width="0.8"
	d="M471.60 386.70h10.00"/>
<text x="491.70" y="386.70">in</text>
<text x="510.00" y="386.70">heav</text>
<path class="stroke" stroke-width="1.2"
	stroke-dasharray="5,20"
	d="M545.15 382.80h5"/>
<text x="551.30" y="386.70">en</text>
<text x="571.90" y="386.70">ly</text>
<text x="605.50" y="386.70">peace.</text>
<path class="stroke" stroke-width="0.8"
	d="M644.60 386.70h21.30"/>
<use x="22.00" y="354.60" xlink:href="#tclef"/>
<use x="37.00" y="336.60" xlink:href="#sh0"/>
<use x="42.50" y="345.60" xlink:href="#sh0"/>
<path class="fill"
	d="M67.90 328.90l29.90 -2.50v3.20l-29.90 2.50"/>
<path class="fill"
	d="M90.40 332.00l7.00 -0.60v3.20l-7.00 0.60"/>
<use x="64.70" y="351.60" xlink:href="#hd"/>
<circle class="fill" cx="72.40" cy="351.60" r="1.2"/>
<path d="M68.20 351.60v-21.70" class="stroke"/>
<use x="93.90" y="348.60" xlink:href="#hd"/>
<path d="M97.40 348.60v-21.20" class="stroke"/>
<use x="120.30" y="351.60" xlink:href="#hd"/>
<path d="M123.80 351.60v-21.00" class="stroke"/>
<path class="fill"
	d="M123.80 330.60c0.6 5.6 9.6 9 5.6 18.4
	1.6 -6 -1.3 -11.6 -5.6 -12.8
"/>
<use x="151.80" y="357.60" xlink:href="#hd"/>
<circle class="fill" cx="159.50" cy="357.60" r="1.2"/>
<path d="M155.30 357.60v-21.00" class="stroke"/>
<use x="204.20" y="339.60" xlink:href="#hd"/>
<path d="M200.70 339.60v21.00" class="stroke"/>
<use x="240.20" y="339.60" xlink:href="#hd"/>
<path d="M236.70 339.60v21.00" class="stroke"/>
<path class="fill"
	d="M236.70 360.60c0.6 -5.6 9.6 -9 5.6 -18.4
	1.6 6 -1.3 11.6 -5.6 12.8
"/>
<use x="267.70" y="333.60" xlink:href="#hd"/>
<circle class="fill" cx="275.40" cy="333.60" r="1.2"/>
<path d="M264.20 333.60v21.00" class="stroke"/>
<path class="fill"
	d="M264.20 354.60c0.6 -5.6 9.6 -9 5.6 -18.4
	1.6 6 -1.3 11.6 -5.6 12.8
"/>
<use x="300.80" y="339.60" xlink:href="#hd"/>
<path d="M297.30 339.60v23.00" class="stroke"/>
<path class="fill"
	d="M297.30 362.60c0.9 -3.7 9.1 -6.4 6 -12.4
	1 5.4 -4.2 8.4 -6 8.4
M297.30 357.20c0.9 -3.7 9.1 -6.4 6 -12.4
	1 5.4 -4.2 8.4 -6 8.4
"/>
<use x="320.50" y="345.60" xlink:href="#hd"/>
<path d="M317.00 345.60v21.00" class="stroke"/>
<path class="fill"
	d="M317.00 366.60c0.6 -5.6 9.6 -9 5.6 -18.4
	1.6 6 -1.3 11.6 -5.6 12.8
"/>
<use x="364.00" y="342.60" xlink:href="#hd"/>
<circle class="fill" cx="371.70" cy="339.60" r="1.2"/>
<path d="M360.50 342.60v21.00" class="stroke"/>
<use x="401.20" y="336.60" xlink:href="#hd"/>
<circle class="fill" cx="408.90" cy="333.60" r="1.2"/>
<path d="M397.70 336.60v21.00" class="stroke"/>
<path class="fill"
	d="M448.50 365.70l23.90 5.20v-3.20l-23.90 -5.20"/>
<use x="452.40" y="342.60" xlink:href="#hd"/>
<path d="M448.90 342.60v22.10" class="stroke"/>
<use x="475.60" y="351.60" xlink:href="#hd"/>
<path d="M472.10 351.60v18.20" class="stroke"/>
<use x="499.00" y="357.60" xlink:href="#hd"/>
<path d="M502.50 357.60v-21.00" class="stroke"/>
<path class="fill"
	d="M502.50 336.60c0.6 5.6 9.6 9 5.6 18.4
	1.6 -6 -1.3 -11.6 -5.6 -12.8
"/>
<use x="526.50" y="351.60" xlink:href="#hd"/>
<circle class="fill" cx="534.20" cy="351.60" r="1.2"/>
<path d="M530.00 351.60v-21.00" class="stroke"/>
<path class="fill"
	d="M530.00 330.60c0.6 5.6 9.6 9 5.6 18.4
	1.6 -6 -1.3 -11.6 -5.6 -12.8
"/>
<use x="559.60" y="354.60" xlink:href="#hd"/>
<path d="M563.10 354.60v-22.00" class="stroke"/>
<path class="fill"
	d="M563.10 332.60c0.9 3.7 9.1 6.4 6 12.4
	1 -5.4 -4.2 -8.4 -6 -8.4
M563.10 338.00c0.9 3.7 9.1 6.4 6 12.4
	1 -5.4 -4.2 -8.4 -6 -8.4
"/>
<use x="579.30" y="360.60" xlink:href="#hd"/>
<path d="M582.80 360.60v-21.00" class="stroke"/>
<path class="fill"
	d="M582.80 339.60c0.6 5.6 9.6 9 5.6 18.4
	1.6 -6 -1.3 -11.6 -5.6 -12.8
"/>
<use x="622.80" y="363.60" xlink:href="#hd"/>
<circle class="fill" cx="630.50" cy="363.60" r="1.2"/>
<path d="M626.30 363.60v-21.00" class="stroke"/>
<use x="659.90" y="363.60" xlink:href="#hd"/>
<circle class="fill" cx="667.60" cy="363.60" r="1.2"/>
<path d="M663.40 363.60v-21.00" class="stroke"/>
<use x="22.00" y="418.90" xlink:href="#tclef"/>
<use x="37.00" y="400.90" xlink:href="#sh0"/>
<use x="42.50" y="409.90" xlink:href="#sh0"/>
<path class="fill"
	d="M67.90 399.20l29.90 -2.50v3.20l-29.90 2.50"/>
<path class="fill"
	d="M90.40 402.30l7.00 -0.60v3.20l-7.00 0.60"/>
<use x="64.70" y="421.90" xlink:href="#hd"/>
<circle class="fill" cx="72.40" cy="421.90" r="1.2"/>
<path d="M68.20 421.90v-21.70" class="stroke"/>
<use x="93.90" y="418.90" xlink:href="#hd"/>
<path d="M97.40 418.90v-21.20" class="stroke"/>
<use x="120.30" y="421.90" xlink:href="#hd"/>
<path d="M123.80 421.90v-21.00" class="stroke"/>
<path class="fill"
	d="M123.80 400.90c0.6 5.6 9.6 9 5.6 18.4
	1.6 -6 -1.3 -11.6 -5.6 -12.8
"/>
<use x="151.80" y="427.90" xlink:href="#hd"/>
<circle class="fill" cx="159.50" cy="427.90" r="1.2"/>
<path d="M155.30 427.90v-21.00" class="stroke"/>
<use x="204.20" y="418.90" xlink:href="#hd"/>
<path d="M207.70 418.90v-21.00" class="stroke"/>
<use x="240.20" y="418.90" xlink:href="#hd"/>
<path d="M243.70 418.90v-21.00" class="stroke"/>
<path class="fill"
	d="M243.70 397.90c0.6 5.6 9.6 9 5.6 18.4
	1.6 -6 -1.3 -11.6 -5.6 -12.8
"/>
<use x="267.70" y="424.90" xlink:href="#hd"/>
<circle class="fill" cx="275.40" cy="421.90" r="1.2"/>
<path d="M271.20 424.90v-21.00" class="stroke"/>
<path class="fill"
	d="M271.20 403.90c0.6 5.6 9.6 9 5.6 18.4
	1.6 -6 -1.3 -11.6 -5.6 -12.8
"/>
<use x="300.80" y="418.90" xlink:href="#hd"/>
<path d="M304.30 418.90v-22.00" class="stroke"/>
<path class="fill"
	d="M304.30 396.90c0.9 3.7 9.1 6.4 6 12.4
	1 -5.4 -4.2 -8.4 -6 -8.4
M304.30 402.30c0.9 3.7 9.1 6.4 6 12.4
	1 -5.4 -4.2 -8.4 -6 -8.4
"/>
<use x="320.50" y="415.90" xlink:href="#hd"/>
<path d="M324.00 415.90v-21.00" class="stroke"/>
<path class="fill"
	d="M324.00 394.90c0.6 5.6 9.6 9 5.6 18.4
	1.6 -6 -1.3 -11.6 -5.6 -12.8
"/>
<use x="364.00" y="421.90" xlink:href="#hd"/>
<circle class="fill" cx="371.70" cy="421.90" r="1.2"/>
<path d="M367.50 421.90v-21.00" class="stroke"/>
<use x="401.20" y="415.90" xlink:href="#hd"/>
<circle class="fill" cx="408.90" cy="415.90" r="1.2"/>
<path d="M404.70 415.90v-21.00" class="stroke"/>
<use x="452.40" y="421.90" xlink:href="#hd"/>
<path d="M455.90 421.90v-21.00" class="stroke"/>
<use x="499.00" y="427.90" xlink:href="#hd"/>
<path d="M502.50 427.90v-21.00" class="stroke"/>
<path class="fill"
	d="M502.50 406.90c0.6 5.6 9.6 9 5.6 18.4
	1.6 -6 -1.3 -11.6 -5.6 -12.8
"/>
<defs>
<path id="hl" class="stroke" d="m-6 0h12"/>
</defs>
<use x="526.50" y="430.90" xlink:href="#hl"/>
<use x="526.50" y="430.90" xlink:href="#hd"/>
<circle class="fill" cx="534.20" cy="427.90" r="1.2"/>
<path d="M530.00 430.90v-21.00" class="stroke"/>
<path class="fill"
	d="M530.00 409.90c0.6 5.6 9.6 9 5.6 18.4
	1.6 -6 -1.3 -11.6 -5.6 -12.8
"/>
<use x="559.60" y="424.90" xlink:href="#hd"/>
<path d="M563.10 424.90v-22.00" class="stroke"/>
<path class="fill"
	d="M563.10 402.90c0.9 3.7 9.1 6.4 6 12.4
	1 -5.4 -4.2 -8.4 -6 -8.4
M563.10 408.30c0.9 3.7 9.1 6.4 6 12.4
	1 -5.4 -4.2 -8.4 -6 -8.4
"/>
<use x="579.30" y="418.90" xlink:href="#hd"/>
<path d="M582.80 418.90v-21.00" class="stroke"/>
<path class="fill"
	d="M582.80 397.90c0.6 5.6 9.6 9 5.6 18.4
	1.6 -6 -1.3 -11.6 -5.6 -12.8
"/>
<use x="622.80" y="421.90" xlink:href="#hd"/>
<circle class="fill" cx="630.50" cy="421.90" r="1.2"/>
<path d="M626.30 421.90v-21.00" class="stroke"/>
<use x="659.90" y="427.90" xlink:href="#hd"/>
<circle class="fill" cx="667.60" cy="427.90" r="1.2"/>
<path d="M663.40 427.90v-21.00" class="stroke"/>
</g>
<g stroke-width="0.70" style="font:16.00px Arial">
<text x="60.00" y="465.50">Silent night! Holy night!</text>
<text x="375.80" y="465.50">Silent night! Holy night!</text>
</g>
<g stroke-width="0.70" style="font:16.00px Arial">
<text x="60.00" y="483.10">Shepherds quake at the sight!</text>
<text x="375.80" y="483.10">Son of God, love&apos;s pure light</text>
</g>
<g stroke-width="0.70" style="font:16.00px Arial">
<text x="60.00" y="500.70">Glories stream from heaven afar,</text>
<text x="375.80" y="500.70">Radiant beams from thy holy face</text>
</g>
<g stroke-width="0.70" style="font:16.00px Arial">
<text x="60.00" y="518.30">Heavenly hosts sing Alleluia!</text>
<text x="375.80" y="518.30">With the dawn of redeeming grace,</text>
</g>
<g stroke-width="0.70" style="font:16.00px Arial">
<text x="60.00" y="535.90">Christ the Saviour is born!</text>
<text x="375.80" y="535.90">Jesus, Lord, at thy birth!</text>
</g>
<g stroke-width="0.70" style="font:16.00px Arial">
<text x="60.00" y="553.50">Christ the Saviour is born!</text>
<text x="375.80" y="553.50">Jesus, Lord, at thy birth!</text>
</g>
</svg>
