<?xml version="1.0" standalone="no"?>
<!DOCTYPE svg PUBLIC "-//W3C//DTD SVG 1.1//EN"
	"http://www.w3.org/Graphics/SVG/1.1/DTD/svg11.dtd">
<svg xmlns="http://www.w3.org/2000/svg" version="1.1"
	xmlns:xlink="http://www.w3.org/1999/xlink"
	color="black"
	width="701.60px" height="834.00px">
<style type="text/css">
.fill {fill: currentColor}
.stroke {stroke: currentColor; fill: none}
text{white-space: pre}
</style>
<title>/media/tim/Data1/tims_code/sphinx-tunes/source/_abcfiles/_While Shepards (1) tune 1</title>
<!-- Creator: abcm2ps-8.14.6 -->
<!-- CreationDate: Jul 30, 2023 11:59 -->
<!-- CommandLine: -g '/media/tim/Data1/tims_code/sphinx-tunes/source/_abcfiles/_While Shepards Watched.abc' -O '/media/tim/Data1/tims_code/sphinx-tunes/source/_abcfiles/_While Shepards Watched.svg' -->
<g stroke-width="0.70" style="font:italic 14.00px Times">
<text x="691.60" y="20.00" text-anchor="end">Nahum Tate (1652-1715)</text>
</g>
<g stroke-width="0.70" style="font:italic 14.00px Times">
<path class="stroke" stroke-width="1"
	d="M80.00 73.00v-24.00"/>
<path class="stroke" stroke-width="1"
	d="M188.00 73.00v-24.00"/>
<path class="stroke" stroke-width="1"
	d="M320.10 73.00v-24.00"/>
<path class="stroke" stroke-width="1"
	d="M430.50 73.00v-24.00"/>
<path class="stroke" stroke-width="1"
	d="M559.50 73.00v-24.00"/>
<path class="stroke" stroke-width="1"
	d="M691.60 73.00v-24.00"/>
<path d="m10.00 73.00
	h681.60
	M10.00 67.00
	h681.60
	M10.00 61.00
	h681.60
	M10.00 55.00
	h681.60
	M10.00 49.00
	h681.60
	" class="stroke"/>
<defs>
<path id="utclef" class="fill" d="m-50 -90
	c-72 -41 -72 -158 52 -188
	150 -10 220 188 90 256
	-114 52 -275 0 -293 -136
	-15 -181 93 -229 220 -334
	88 -87 79 -133 62 -210
	-51 33 -94 105 -89 186
	17 267 36 374 49 574
	6 96 -19 134 -77 135
	-80 1 -126 -93 -61 -133
	85 -41 133 101 31 105
	23 17 92 37 90 -92
	-10 -223 -39 -342 -50 -617
	0 -90 0 -162 96 -232
	56 72 63 230 22 289
	-74 106 -257 168 -255 316
	9 153 148 185 252 133
	86 -65 29 -192 -80 -176
	-71 12 -105 67 -59 124"/>
<use id="tclef" transform="translate(0,6) scale(0.045)"
	xlink:href="#utclef"/>
</defs>
<use x="22.00" y="67.00" xlink:href="#tclef"/>
<defs>
<path id="usharp" class="fill" d="
	m136 -702
	v890
	h32
	v-890
	m128 840
	h32
	v-888
	h-32
	m-232 286
	v116
	l338 -96
	v-116
	m-338 442
	v116
	l338 -98
	v-114"/>
<use id="sh0" transform="translate(-4,5) scale(0.018)"
	xlink:href="#usharp"/>
</defs>
<use x="37.00" y="49.00" xlink:href="#sh0"/>
<use x="42.50" y="58.00" xlink:href="#sh0"/>
<g style="font:bold 16px serif"
	transform="translate(58.50,72.50) scale(1.2,1)">
	<text text-anchor="middle">4</text>
	<text y="-12" text-anchor="middle">4</text>
</g>
<defs>
<path id="Hd" class="fill" d="m3 -1.6
	c-1 -1.8 -7 1.4 -6 3.2
	1 1.8 7 -1.4 6 -3.2
	m0.5 -0.3
	c2 3.8 -5 7.6 -7 3.8
	-2 -3.8 5 -7.6 7 -3.8"/>
</defs>
<use x="93.00" y="55.00" xlink:href="#Hd"/>
<path d="M89.50 55.00v21.00" class="stroke"/>
<defs>
<ellipse id="hd" rx="4.1" ry="2.9"
	transform="rotate(-20)" class="fill"/>
</defs>
<use x="134.00" y="64.00" xlink:href="#hd"/>
<circle class="fill" cx="141.70" cy="64.00" r="1.2"/>
<path d="M137.50 64.00v-21.00" class="stroke"/>
<use x="171.00" y="61.00" xlink:href="#hd"/>
<path d="M174.50 61.00v-21.00" class="stroke"/>
<path class="fill"
	d="M174.50 40.00c0.6 5.6 9.6 9 5.6 18.4
	1.6 -6 -1.3 -11.6 -5.6 -12.8
"/>
<use x="200.50" y="64.00" xlink:href="#hd"/>
<path d="M204.00 64.00v-21.00" class="stroke"/>
<use x="232.70" y="67.00" xlink:href="#hd"/>
<path d="M236.20 67.00v-21.00" class="stroke"/>
<use x="265.00" y="70.00" xlink:href="#hd"/>
<path d="M268.50 70.00v-21.00" class="stroke"/>
<use x="297.30" y="73.00" xlink:href="#hd"/>
<path d="M300.80 73.00v-21.00" class="stroke"/>
<use x="333.10" y="76.00" xlink:href="#Hd"/>
<path d="M336.60 76.00v-21.00" class="stroke"/>
<defs>
<path id="r4" class="fill" d="m-1 -8.5
	l3.6 5.1 -2.1 5.2 2.2 4.3
	c-2.6 -2.3 -5.1 0 -2.4 2.6
	-4.8 -3 -1.5 -6.9 1.4 -4.1
	l-3.1 -4.5 1.9 -5.1 -1.5 -3.5"/>
</defs>
<use x="378.60" y="61.00" xlink:href="#r4"/>
<use x="407.70" y="64.00" xlink:href="#hd"/>
<path d="M411.20 64.00v-21.00" class="stroke"/>
<use x="443.00" y="55.00" xlink:href="#hd"/>
<path d="M439.50 55.00v21.00" class="stroke"/>
<use x="475.30" y="58.00" xlink:href="#hd"/>
<path d="M471.80 58.00v21.00" class="stroke"/>
<use x="507.50" y="61.00" xlink:href="#hd"/>
<path d="M504.00 61.00v21.00" class="stroke"/>
<use x="536.60" y="64.00" xlink:href="#hd"/>
<path d="M540.10 64.00v-21.00" class="stroke"/>
<use x="572.00" y="61.00" xlink:href="#hd"/>
<path d="M575.50 61.00v-21.00" class="stroke"/>
<use x="604.20" y="64.00" xlink:href="#hd"/>
<path d="M607.70 64.00v-21.00" class="stroke"/>
<use x="636.50" y="67.00" xlink:href="#hd"/>
<path d="M640.00 67.00v-21.00" class="stroke"/>
<use x="668.70" y="70.00" xlink:href="#hd"/>
<path d="M672.20 70.00v-21.00" class="stroke"/>
</g>
<g stroke-width="0.70" style="font:italic 14.00px Times">
<path class="stroke" stroke-width="1"
	d="M137.50 143.00v-24.00"/>
<path class="stroke" stroke-width="1"
	d="M248.80 143.00v-24.00"/>
<path class="stroke" stroke-width="1"
	d="M264.80 143.00v-24.00"/>
<path class="stroke" stroke-width="1"
	d="M392.20 143.00v-24.00"/>
<path class="stroke" stroke-width="1"
	d="M450.80 143.00v-24.00"/>
<path class="stroke" stroke-width="1"
	d="M561.20 143.00v-24.00"/>
<path class="stroke" stroke-width="1"
	d="M691.60 143.00v-24.00"/>
<path d="m10.00 143.00
	h681.60
	M10.00 137.00
	h681.60
	M10.00 131.00
	h681.60
	M10.00 125.00
	h681.60
	M10.00 119.00
	h681.60
	" class="stroke"/>
<use x="22.00" y="137.00" xlink:href="#tclef"/>
<use x="37.00" y="119.00" xlink:href="#sh0"/>
<use x="42.50" y="128.00" xlink:href="#sh0"/>
<use x="61.00" y="140.00" xlink:href="#Hd"/>
<path d="M64.50 140.00v-21.00" class="stroke"/>
<use x="105.80" y="143.00" xlink:href="#Hd"/>
<path d="M109.30 143.00v-21.00" class="stroke"/>
<use x="150.50" y="134.00" xlink:href="#Hd"/>
<path d="M154.00 134.00v-21.00" class="stroke"/>
<use x="195.30" y="134.00" xlink:href="#hd"/>
<circle class="fill" cx="203.00" cy="134.00" r="1.2"/>
<path d="M198.80 134.00v-21.00" class="stroke"/>
<use x="231.80" y="131.00" xlink:href="#hd"/>
<path d="M235.30 131.00v-21.00" class="stroke"/>
<path class="fill"
	d="M235.30 110.00c0.6 5.6 9.6 9 5.6 18.4
	1.6 -6 -1.3 -11.6 -5.6 -12.8
"/>
<use x="277.30" y="128.00" xlink:href="#hd"/>
<path d="M273.80 128.00v21.00" class="stroke"/>
<use x="306.00" y="134.00" xlink:href="#hd"/>
<path d="M309.50 134.00v-21.00" class="stroke"/>
<use x="337.70" y="131.00" xlink:href="#hd"/>
<path d="M341.20 131.00v-21.00" class="stroke"/>
<use x="369.60" y="128.00" xlink:href="#hd"/>
<path d="M366.10 128.00v21.00" class="stroke"/>
<defs>
<path id="HD" class="fill" d="m-2.7 -1.4
	c1.5 -2.8 6.9 0 5.3 2.7
	-1.5 2.8 -6.9 0 -5.3 -2.7
	m8.3 1.4
	c0 -1.5 -2.2 -3 -5.6 -3
	-3.4 0 -5.6 1.5 -5.6 3
	0 1.5 2.2 3 5.6 3
	3.4 0 5.6 -1.5 5.6 -3"/>
</defs>
<use x="407.20" y="125.00" xlink:href="#HD"/>
<use x="463.80" y="122.00" xlink:href="#Hd"/>
<path d="M460.30 122.00v21.00" class="stroke"/>
<use x="508.60" y="122.00" xlink:href="#hd"/>
<circle class="fill" cx="516.30" cy="122.00" r="1.2"/>
<path d="M505.10 122.00v21.00" class="stroke"/>
<use x="545.10" y="125.00" xlink:href="#hd"/>
<path d="M541.60 125.00v21.00" class="stroke"/>
<path class="fill"
	d="M541.60 146.00c0.6 -5.6 9.6 -9 5.6 -18.4
	1.6 6 -1.3 11.6 -5.6 12.8
"/>
<use x="573.70" y="128.00" xlink:href="#hd"/>
<path d="M570.20 128.00v21.00" class="stroke"/>
<use x="605.50" y="122.00" xlink:href="#hd"/>
<path d="M602.00 122.00v21.00" class="stroke"/>
<use x="637.30" y="131.00" xlink:href="#hd"/>
<path d="M633.80 131.00v21.00" class="stroke"/>
<use x="669.00" y="122.00" xlink:href="#hd"/>
<path d="M665.50 122.00v21.00" class="stroke"/>
</g>
<g stroke-width="0.70" style="font:italic 14.00px Times">
<path class="stroke" stroke-width="1"
	d="M135.70 213.00v-24.00"/>
<path class="stroke" stroke-width="1"
	d="M206.40 213.00v-24.00"/>
<path class="stroke" stroke-width="1"
	d="M309.20 213.00v-24.00"/>
<path class="stroke" stroke-width="1"
	d="M509.10 213.00v-24.00"/>
<path class="stroke" stroke-width="1"
	d="M691.60 213.00v-24.00"/>
<path d="m10.00 213.00
	h681.60
	M10.00 207.00
	h681.60
	M10.00 201.00
	h681.60
	M10.00 195.00
	h681.60
	M10.00 189.00
	h681.60
	" class="stroke"/>
<use x="22.00" y="207.00" xlink:href="#tclef"/>
<use x="37.00" y="189.00" xlink:href="#sh0"/>
<use x="42.50" y="198.00" xlink:href="#sh0"/>
<use x="63.00" y="204.00" xlink:href="#HD"/>
<use x="154.30" y="204.00" xlink:href="#Hd"/>
<path d="M157.80 204.00v-21.00" class="stroke"/>
<use x="225.00" y="201.00" xlink:href="#r4"/>
<use x="272.40" y="204.00" xlink:href="#hd"/>
<path d="M275.90 204.00v-21.00" class="stroke"/>
<use x="327.80" y="195.00" xlink:href="#hd"/>
<circle class="fill" cx="335.50" cy="192.00" r="1.2"/>
<path d="M324.30 195.00v21.00" class="stroke"/>
<use x="387.70" y="195.00" xlink:href="#hd"/>
<path d="M384.20 195.00v21.00" class="stroke"/>
<path class="fill"
	d="M384.20 216.00c0.6 -5.6 9.6 -9 5.6 -18.4
	1.6 6 -1.3 11.6 -5.6 12.8
"/>
<use x="424.90" y="195.00" xlink:href="#hd"/>
<path d="M421.40 195.00v21.00" class="stroke"/>
<use x="472.30" y="204.00" xlink:href="#hd"/>
<path d="M475.80 204.00v-21.00" class="stroke"/>
<use x="527.70" y="195.00" xlink:href="#Hd"/>
<path d="M524.20 195.00v21.00" class="stroke"/>
<use x="602.20" y="201.00" xlink:href="#r4"/>
<use x="654.80" y="192.00" xlink:href="#hd"/>
<path d="M651.30 192.00v21.00" class="stroke"/>
</g>
<g stroke-width="0.70" style="font:italic 14.00px Times">
<path class="stroke" stroke-width="1"
	d="M60.00 283.00v-24.00"/>
<path class="stroke" stroke-width="1"
	d="M210.80 283.00v-24.00"/>
<path class="stroke" stroke-width="1"
	d="M262.80 283.00v-24.00"/>
<path class="stroke" stroke-width="1"
	d="M342.20 283.00v-24.00"/>
<path class="stroke" stroke-width="1"
	d="M448.80 283.00v-24.00"/>
<path class="stroke" stroke-width="1"
	d="M555.40 283.00v-24.00"/>
<path class="stroke" stroke-width="1"
	d="M623.50 283.00v-24.00"/>
<path class="stroke" stroke-width="1"
	d="M691.60 283.00v-24.00"/>
<path d="m10.00 283.00
	h681.60
	M10.00 277.00
	h681.60
	M10.00 271.00
	h681.60
	M10.00 265.00
	h681.60
	M10.00 259.00
	h681.60
	" class="stroke"/>
<use x="22.00" y="277.00" xlink:href="#tclef"/>
<use x="37.00" y="259.00" xlink:href="#sh0"/>
<use x="42.50" y="268.00" xlink:href="#sh0"/>
<use x="73.70" y="259.00" xlink:href="#hd"/>
<circle class="fill" cx="81.40" cy="256.00" r="1.2"/>
<path d="M70.20 259.00v21.00" class="stroke"/>
<use x="117.70" y="259.00" xlink:href="#hd"/>
<path d="M114.20 259.00v21.00" class="stroke"/>
<path class="fill"
	d="M114.20 280.00c0.6 -5.6 9.6 -9 5.6 -18.4
	1.6 6 -1.3 11.6 -5.6 12.8
"/>
<use x="145.10" y="259.00" xlink:href="#hd"/>
<path d="M141.60 259.00v21.00" class="stroke"/>
<use x="183.70" y="262.00" xlink:href="#hd"/>
<path d="M180.20 262.00v21.00" class="stroke"/>
<use x="224.50" y="259.00" xlink:href="#Hd"/>
<path d="M221.00 259.00v21.00" class="stroke"/>
<use x="276.50" y="271.00" xlink:href="#r4"/>
<use x="315.10" y="259.00" xlink:href="#hd"/>
<path d="M311.60 259.00v21.00" class="stroke"/>
<use x="355.90" y="262.00" xlink:href="#Hd"/>
<path d="M352.40 262.00v21.00" class="stroke"/>
<use x="410.50" y="265.00" xlink:href="#Hd"/>
<path d="M407.00 265.00v21.00" class="stroke"/>
<use x="462.50" y="265.00" xlink:href="#Hd"/>
<path d="M459.00 265.00v21.00" class="stroke"/>
<use x="517.20" y="268.00" xlink:href="#Hd"/>
<path d="M513.70 268.00v21.00" class="stroke"/>
<use x="570.40" y="265.00" xlink:href="#HD"/>
<use x="638.50" y="265.00" xlink:href="#HD"/>
</g>
<g stroke-width="0.70" style="font:16.00px Arial">
<text x="60.00" y="323.60">While shepherds watched their flocks by night,</text>
</g>
<g stroke-width="0.70" style="font:16.00px Arial">
<text x="60.00" y="341.20">all seated on the ground,</text>
</g>
<g stroke-width="0.70" style="font:16.00px Arial">
<text x="60.00" y="358.80">the angel of the Lord came down</text>
</g>
<g stroke-width="0.70" style="font:16.00px Arial">
<text x="60.00" y="376.40">and glory shone around.</text>
</g>
<g stroke-width="0.70" style="font:16.00px Arial">
<text x="60.00" y="411.60">&apos;Fear not,&apos; said he - for mighty dread</text>
</g>
<g stroke-width="0.70" style="font:16.00px Arial">
<text x="60.00" y="429.20">had seized their troubled mind -</text>
</g>
<g stroke-width="0.70" style="font:16.00px Arial">
<text x="60.00" y="446.80">&apos;Glad tidings of great joy I bring</text>
</g>
<g stroke-width="0.70" style="font:16.00px Arial">
<text x="60.00" y="464.40">to you and all mankind:</text>
</g>
<g stroke-width="0.70" style="font:16.00px Arial">
<text x="60.00" y="499.60">&apos;To you in David&apos;s town this day</text>
</g>
<g stroke-width="0.70" style="font:16.00px Arial">
<text x="60.00" y="517.20">is born of David&apos;s line</text>
</g>
<g stroke-width="0.70" style="font:16.00px Arial">
<text x="60.00" y="534.80">a Saviour, who is Christ the Lord.</text>
</g>
<g stroke-width="0.70" style="font:16.00px Arial">
<text x="60.00" y="552.40">And this shall be the sign:</text>
</g>
<g stroke-width="0.70" style="font:16.00px Arial">
<text x="60.00" y="587.60">&apos;The heavenly babe you there shall find</text>
</g>
<g stroke-width="0.70" style="font:16.00px Arial">
<text x="60.00" y="605.20">to human view displayed,</text>
</g>
<g stroke-width="0.70" style="font:16.00px Arial">
<text x="60.00" y="622.80">all meanly wrapped in swathing bands</text>
</g>
<g stroke-width="0.70" style="font:16.00px Arial">
<text x="60.00" y="640.40">and in a manger laid.&apos;</text>
</g>
<g stroke-width="0.70" style="font:16.00px Arial">
<text x="60.00" y="675.60">Thus spoke the seraph, and forthwith</text>
</g>
<g stroke-width="0.70" style="font:16.00px Arial">
<text x="60.00" y="693.20">appeared a shining throng</text>
</g>
<g stroke-width="0.70" style="font:16.00px Arial">
<text x="60.00" y="710.80">of angels praising God, who thus</text>
</g>
<g stroke-width="0.70" style="font:16.00px Arial">
<text x="60.00" y="728.40">addressed their joyful song:</text>
</g>
<g stroke-width="0.70" style="font:16.00px Arial">
<text x="60.00" y="763.60">&apos;All glory be to God on high,</text>
</g>
<g stroke-width="0.70" style="font:16.00px Arial">
<text x="60.00" y="781.20">and to the earth be peace;</text>
</g>
<g stroke-width="0.70" style="font:16.00px Arial">
<text x="60.00" y="798.80">goodwill henceforth from highest heaven</text>
</g>
<g stroke-width="0.70" style="font:16.00px Arial">
<text x="60.00" y="816.40">begin and never cease!&apos;</text>
</g>
</svg>
