<?xml version="1.0" standalone="no"?>
<!DOCTYPE svg PUBLIC "-//W3C//DTD SVG 1.1//EN"
	"http://www.w3.org/Graphics/SVG/1.1/DTD/svg11.dtd">
<svg xmlns="http://www.w3.org/2000/svg" version="1.1"
	xmlns:xlink="http://www.w3.org/1999/xlink"
	color="black"
	width="701.60px" height="362.00px">
<style type="text/css">
.fill {fill: currentColor}
.stroke {stroke: currentColor; fill: none}
text{white-space: pre}
</style>
<title>/mnt/ed617834-7c4b-4156-8731-6c17b22f12c7/tims_code/sphinx-tunes/source/ (1) tune 1</title>
<!-- Creator: abcm2ps-8.14.6 -->
<!-- CreationDate: Aug  1, 2021 16:34 -->
<!-- CommandLine: -g '/mnt/ed617834-7c4b-4156-8731-6c17b22f12c7/tims_code/sphinx-tunes/source/_abcfiles/_Arthur McBride.abc' -O '/mnt/ed617834-7c4b-4156-8731-6c17b22f12c7/tims_code/sphinx-tunes/source/_abcfiles/Arthur McBride.svg' -->
<g stroke-width="0.70">
<path class="stroke" stroke-width="1"
	d="M98.30 59.00v-24.00"/>
<path class="stroke" stroke-width="1"
	d="M211.30 59.00v-24.00"/>
<path class="stroke" stroke-width="1"
	d="M346.60 59.00v-24.00"/>
<path class="stroke" stroke-width="1"
	d="M459.60 59.00v-24.00"/>
<path class="stroke" stroke-width="1"
	d="M572.60 59.00v-24.00"/>
<path class="stroke" stroke-width="1"
	d="M691.60 59.00v-24.00"/>
<path d="m10.00 59.00
	h681.60
	M10.00 53.00
	h681.60
	M10.00 47.00
	h681.60
	M10.00 41.00
	h681.60
	M10.00 35.00
	h681.60
	" class="stroke"/>
<defs>
<path id="utclef" class="fill" d="m-50 -90
	c-72 -41 -72 -158 52 -188
	150 -10 220 188 90 256
	-114 52 -275 0 -293 -136
	-15 -181 93 -229 220 -334
	88 -87 79 -133 62 -210
	-51 33 -94 105 -89 186
	17 267 36 374 49 574
	6 96 -19 134 -77 135
	-80 1 -126 -93 -61 -133
	85 -41 133 101 31 105
	23 17 92 37 90 -92
	-10 -223 -39 -342 -50 -617
	0 -90 0 -162 96 -232
	56 72 63 230 22 289
	-74 106 -257 168 -255 316
	9 153 148 185 252 133
	86 -65 29 -192 -80 -176
	-71 12 -105 67 -59 124"/>
<use id="tclef" transform="translate(0,6) scale(0.045)"
	xlink:href="#utclef"/>
</defs>
<use x="22.00" y="53.00" xlink:href="#tclef"/>
<defs>
<path id="usharp" class="fill" d="
	m136 -702
	v890
	h32
	v-890
	m128 840
	h32
	v-888
	h-32
	m-232 286
	v116
	l338 -96
	v-116
	m-338 442
	v116
	l338 -98
	v-114"/>
<use id="sh0" transform="translate(-4,5) scale(0.018)"
	xlink:href="#usharp"/>
</defs>
<use x="37.00" y="35.00" xlink:href="#sh0"/>
<g style="font:bold 16px serif"
	transform="translate(53.00,58.50) scale(1.2,1)">
	<text text-anchor="middle">4</text>
	<text y="-12" text-anchor="middle">3</text>
</g>
<defs>
<ellipse id="hd" rx="4.1" ry="2.9"
	transform="rotate(-20)" class="fill"/>
</defs>
<use x="71.00" y="53.00" xlink:href="#hd"/>
<path d="M74.50 53.00v-21.00" class="stroke"/>
<use x="112.10" y="53.00" xlink:href="#hd"/>
<circle class="fill" cx="119.80" cy="50.00" r="1.2"/>
<path d="M115.60 53.00v-21.00" class="stroke"/>
<use x="156.50" y="50.00" xlink:href="#hd"/>
<path d="M160.00 50.00v-21.00" class="stroke"/>
<path class="fill"
	d="M160.00 29.00c0.6 5.6 9.6 9 5.6 18.4
	1.6 -6 -1.3 -11.6 -5.6 -12.8
"/>
<use x="184.00" y="53.00" xlink:href="#hd"/>
<path d="M187.50 53.00v-21.00" class="stroke"/>
<use x="225.10" y="53.00" xlink:href="#hd"/>
<path d="M228.60 53.00v-21.00" class="stroke"/>
<path class="fill"
	d="M228.60 32.00c0.6 5.6 9.6 9 5.6 18.4
	1.6 -6 -1.3 -11.6 -5.6 -12.8
"/>
<use x="252.70" y="62.00" xlink:href="#hd"/>
<path d="M256.20 62.00v-21.00" class="stroke"/>
<path class="fill"
	d="M256.20 41.00c0.6 5.6 9.6 9 5.6 18.4
	1.6 -6 -1.3 -11.6 -5.6 -12.8
"/>
<use x="280.30" y="62.00" xlink:href="#hd"/>
<path d="M283.80 62.00v-21.00" class="stroke"/>
<use x="319.30" y="59.00" xlink:href="#hd"/>
<path d="M322.80 59.00v-21.00" class="stroke"/>
<use x="360.40" y="53.00" xlink:href="#hd"/>
<circle class="fill" cx="368.10" cy="50.00" r="1.2"/>
<path d="M363.90 53.00v-21.00" class="stroke"/>
<use x="404.70" y="50.00" xlink:href="#hd"/>
<path d="M408.20 50.00v-21.00" class="stroke"/>
<path class="fill"
	d="M408.20 29.00c0.6 5.6 9.6 9 5.6 18.4
	1.6 -6 -1.3 -11.6 -5.6 -12.8
"/>
<use x="432.30" y="53.00" xlink:href="#hd"/>
<path d="M435.80 53.00v-21.00" class="stroke"/>
<defs>
<path id="Hd" class="fill" d="m3 -1.6
	c-1 -1.8 -7 1.4 -6 3.2
	1 1.8 7 -1.4 6 -3.2
	m0.5 -0.3
	c2 3.8 -5 7.6 -7 3.8
	-2 -3.8 5 -7.6 7 -3.8"/>
</defs>
<use x="473.40" y="47.00" xlink:href="#Hd"/>
<path d="M476.90 47.00v-21.00" class="stroke"/>
<path class="fill"
	d="M524.70 62.00l25.50 0.00v-3.20l-25.50 -0.00"/>
<use x="528.50" y="41.00" xlink:href="#hd"/>
<path d="M525.00 41.00v20.00" class="stroke"/>
<use x="553.30" y="41.00" xlink:href="#hd"/>
<path d="M549.80 41.00v20.00" class="stroke"/>
<use x="586.40" y="38.00" xlink:href="#hd"/>
<path d="M582.90 38.00v21.00" class="stroke"/>
<use x="625.40" y="41.00" xlink:href="#hd"/>
<path d="M621.90 41.00v21.00" class="stroke"/>
<use x="664.30" y="44.00" xlink:href="#hd"/>
<path d="M660.80 44.00v21.00" class="stroke"/>
<path class="fill"
	d="M256.20 62.00c3.25 4.87 17.37 4.87 20.62 -0.00
	v0.22c-3.87 6.65 -16.75 6.65 -20.62 -0.22"/>
</g>
<g stroke-width="0.70">
<path class="stroke" stroke-width="1"
	d="M139.30 129.00v-24.00"/>
<path class="stroke" stroke-width="1"
	d="M243.20 129.00v-24.00"/>
<path class="stroke" stroke-width="1"
	d="M322.20 129.00v-24.00"/>
<path class="stroke" stroke-width="1"
	d="M418.90 129.00v-24.00"/>
<path class="stroke" stroke-width="1"
	d="M515.70 129.00v-24.00"/>
<path class="stroke" stroke-width="1"
	d="M612.50 129.00v-24.00"/>
<path class="stroke" stroke-width="1"
	d="M691.60 129.00v-24.00"/>
<path d="m10.00 129.00
	h681.60
	M10.00 123.00
	h681.60
	M10.00 117.00
	h681.60
	M10.00 111.00
	h681.60
	M10.00 105.00
	h681.60
	" class="stroke"/>
<use x="22.00" y="123.00" xlink:href="#tclef"/>
<use x="37.00" y="105.00" xlink:href="#sh0"/>
<use x="55.00" y="117.00" xlink:href="#hd"/>
<path d="M51.50 117.00v21.00" class="stroke"/>
<use x="86.10" y="114.00" xlink:href="#hd"/>
<path d="M82.60 114.00v21.00" class="stroke"/>
<use x="117.20" y="117.00" xlink:href="#hd"/>
<path d="M113.70 117.00v21.00" class="stroke"/>
<use x="151.80" y="120.00" xlink:href="#hd"/>
<circle class="fill" cx="159.50" cy="120.00" r="1.2"/>
<path d="M155.30 120.00v-21.00" class="stroke"/>
<path class="fill"
	d="M190.70 96.70l40.60 4.70v3.20l-40.60 -4.70"/>
<use x="187.50" y="117.00" xlink:href="#hd"/>
<path d="M191.00 117.00v-19.30" class="stroke"/>
<use x="207.50" y="120.00" xlink:href="#hd"/>
<path d="M211.00 120.00v-20.00" class="stroke"/>
<use x="227.40" y="123.00" xlink:href="#hd"/>
<path d="M230.90 123.00v-20.70" class="stroke"/>
<use x="256.20" y="129.00" xlink:href="#Hd"/>
<path d="M259.70 129.00v-21.00" class="stroke"/>
<use x="300.10" y="123.00" xlink:href="#hd"/>
<path d="M303.60 123.00v-21.00" class="stroke"/>
<use x="334.70" y="123.00" xlink:href="#hd"/>
<path d="M338.20 123.00v-21.00" class="stroke"/>
<use x="365.80" y="132.00" xlink:href="#hd"/>
<path d="M369.30 132.00v-21.00" class="stroke"/>
<use x="396.90" y="129.00" xlink:href="#hd"/>
<path d="M400.40 129.00v-21.00" class="stroke"/>
<use x="431.40" y="123.00" xlink:href="#hd"/>
<path d="M434.90 123.00v-21.00" class="stroke"/>
<use x="462.60" y="132.00" xlink:href="#hd"/>
<path d="M466.10 132.00v-21.00" class="stroke"/>
<use x="493.70" y="129.00" xlink:href="#hd"/>
<path d="M497.20 129.00v-21.00" class="stroke"/>
<use x="528.20" y="123.00" xlink:href="#hd"/>
<path d="M531.70 123.00v-21.00" class="stroke"/>
<use x="559.40" y="120.00" xlink:href="#hd"/>
<path d="M562.90 120.00v-21.00" class="stroke"/>
<use x="590.50" y="123.00" xlink:href="#hd"/>
<path d="M594.00 123.00v-21.00" class="stroke"/>
<use x="625.50" y="117.00" xlink:href="#Hd"/>
<path d="M629.00 117.00v-21.00" class="stroke"/>
<use x="669.50" y="111.00" xlink:href="#hd"/>
<path d="M666.00 111.00v21.00" class="stroke"/>
</g>
<g stroke-width="0.70">
<path class="stroke" stroke-width="1"
	d="M182.90 199.00v-24.00"/>
<path class="stroke" stroke-width="1"
	d="M320.30 199.00v-24.00"/>
<path class="stroke" stroke-width="1"
	d="M457.70 199.00v-24.00"/>
<path class="stroke" stroke-width="1"
	d="M574.60 199.00v-24.00"/>
<path class="stroke" stroke-width="1"
	d="M691.60 199.00v-24.00"/>
<path d="m10.00 199.00
	h681.60
	M10.00 193.00
	h681.60
	M10.00 187.00
	h681.60
	M10.00 181.00
	h681.60
	M10.00 175.00
	h681.60
	" class="stroke"/>
<use x="22.00" y="193.00" xlink:href="#tclef"/>
<use x="37.00" y="175.00" xlink:href="#sh0"/>
<use x="55.00" y="181.00" xlink:href="#hd"/>
<path d="M51.50 181.00v21.00" class="stroke"/>
<use x="102.40" y="184.00" xlink:href="#hd"/>
<path d="M98.90 184.00v21.00" class="stroke"/>
<use x="149.80" y="187.00" xlink:href="#hd"/>
<path d="M146.30 187.00v21.00" class="stroke"/>
<use x="199.70" y="190.00" xlink:href="#hd"/>
<circle class="fill" cx="207.40" cy="190.00" r="1.2"/>
<path d="M203.20 190.00v-21.00" class="stroke"/>
<use x="253.60" y="187.00" xlink:href="#hd"/>
<path d="M257.10 187.00v-21.00" class="stroke"/>
<path class="fill"
	d="M257.10 166.00c0.6 5.6 9.6 9 5.6 18.4
	1.6 -6 -1.3 -11.6 -5.6 -12.8
"/>
<use x="287.10" y="181.00" xlink:href="#hd"/>
<path d="M283.60 181.00v21.00" class="stroke"/>
<use x="337.10" y="178.00" xlink:href="#hd"/>
<circle class="fill" cx="344.80" cy="178.00" r="1.2"/>
<path d="M333.60 178.00v21.00" class="stroke"/>
<use x="391.00" y="175.00" xlink:href="#hd"/>
<path d="M387.50 175.00v21.00" class="stroke"/>
<path class="fill"
	d="M387.50 196.00c0.6 -5.6 9.6 -9 5.6 -18.4
	1.6 6 -1.3 11.6 -5.6 12.8
"/>
<use x="424.50" y="178.00" xlink:href="#hd"/>
<path d="M421.00 178.00v21.00" class="stroke"/>
<use x="474.40" y="181.00" xlink:href="#Hd"/>
<path d="M470.90 181.00v21.00" class="stroke"/>
<use x="541.50" y="187.00" xlink:href="#hd"/>
<path d="M538.00 187.00v21.00" class="stroke"/>
<use x="591.40" y="181.00" xlink:href="#Hd"/>
<path d="M587.90 181.00v21.00" class="stroke"/>
<use x="658.40" y="181.00" xlink:href="#hd"/>
<path d="M654.90 181.00v21.00" class="stroke"/>
</g>
<g stroke-width="0.70">
<path class="stroke" stroke-width="1"
	d="M147.80 269.00v-24.00"/>
<path class="stroke" stroke-width="1"
	d="M253.00 269.00v-24.00"/>
<path class="stroke" stroke-width="1"
	d="M358.30 269.00v-24.00"/>
<path class="stroke" stroke-width="1"
	d="M463.60 269.00v-24.00"/>
<path class="stroke" stroke-width="1"
	d="M568.80 269.00v-24.00"/>
<path class="stroke" stroke-width="1"
	d="M691.60 269.00v-24.00"/>
<path d="m10.00 269.00
	h681.60
	M10.00 263.00
	h681.60
	M10.00 257.00
	h681.60
	M10.00 251.00
	h681.60
	M10.00 245.00
	h681.60
	" class="stroke"/>
<use x="22.00" y="263.00" xlink:href="#tclef"/>
<use x="37.00" y="245.00" xlink:href="#sh0"/>
<use x="55.00" y="257.00" xlink:href="#hd"/>
<path d="M51.50 257.00v21.00" class="stroke"/>
<use x="89.30" y="254.00" xlink:href="#hd"/>
<path d="M85.80 254.00v21.00" class="stroke"/>
<use x="123.60" y="251.00" xlink:href="#hd"/>
<path d="M120.10 251.00v21.00" class="stroke"/>
<use x="160.30" y="248.00" xlink:href="#hd"/>
<path d="M156.80 248.00v21.00" class="stroke"/>
<use x="194.60" y="248.00" xlink:href="#hd"/>
<path d="M191.10 248.00v21.00" class="stroke"/>
<use x="228.90" y="248.00" xlink:href="#hd"/>
<path d="M225.40 248.00v21.00" class="stroke"/>
<use x="265.50" y="251.00" xlink:href="#hd"/>
<path d="M262.00 251.00v21.00" class="stroke"/>
<defs>
<path id="r4" class="fill" d="m-1 -8.5
	l3.6 5.1 -2.1 5.2 2.2 4.3
	c-2.6 -2.3 -5.1 0 -2.4 2.6
	-4.8 -3 -1.5 -6.9 1.4 -4.1
	l-3.1 -4.5 1.9 -5.1 -1.5 -3.5"/>
</defs>
<use x="299.90" y="257.00" xlink:href="#r4"/>
<use x="334.20" y="257.00" xlink:href="#hd"/>
<path d="M330.70 257.00v21.00" class="stroke"/>
<use x="370.80" y="254.00" xlink:href="#hd"/>
<path d="M367.30 254.00v21.00" class="stroke"/>
<use x="405.10" y="251.00" xlink:href="#hd"/>
<path d="M401.60 251.00v21.00" class="stroke"/>
<use x="439.40" y="254.00" xlink:href="#hd"/>
<path d="M435.90 254.00v21.00" class="stroke"/>
<use x="476.10" y="257.00" xlink:href="#hd"/>
<path d="M472.60 257.00v21.00" class="stroke"/>
<use x="510.40" y="254.00" xlink:href="#hd"/>
<path d="M506.90 254.00v21.00" class="stroke"/>
<use x="544.70" y="257.00" xlink:href="#hd"/>
<path d="M541.20 257.00v21.00" class="stroke"/>
<use x="581.30" y="260.00" xlink:href="#hd"/>
<path d="M584.80 260.00v-21.00" class="stroke"/>
<use x="615.70" y="257.00" xlink:href="#hd"/>
<path d="M619.20 257.00v-21.00" class="stroke"/>
<use x="650.00" y="260.00" xlink:href="#hd"/>
<path d="M653.50 260.00v-21.00" class="stroke"/>
<path class="fill"
	d="M653.50 239.00c0.6 5.6 9.6 9 5.6 18.4
	1.6 -6 -1.3 -11.6 -5.6 -12.8
"/>
<use x="674.40" y="263.00" xlink:href="#hd"/>
<path d="M677.90 263.00v-21.00" class="stroke"/>
<path class="fill"
	d="M677.90 242.00c0.6 5.6 9.6 9 5.6 18.4
	1.6 -6 -1.3 -11.6 -5.6 -12.8
"/>
</g>
<g stroke-width="0.70">
<path class="stroke" stroke-width="1"
	d="M110.80 339.00v-24.00"/>
<path class="stroke" stroke-width="1"
	d="M191.60 339.00v-24.00"/>
<path class="stroke" stroke-width="1"
	d="M275.00 339.00v-24.00"/>
<path class="stroke" stroke-width="1"
	d="M358.30 339.00v-24.00"/>
<path class="stroke" stroke-width="1"
	d="M438.70 339.00v-24.00"/>
<path class="stroke" stroke-width="1"
	d="M522.00 339.00v-24.00"/>
<path class="stroke" stroke-width="1"
	d="M605.40 339.00v-24.00"/>
<path class="stroke" stroke-width="1"
	d="M648.90 339.00v-24.00"/>
<path class="stroke" stroke-width="1"
	d="M691.60 339.00v-24.00"/>
<path class="stroke" stroke-width="1"
	d="M688.60 339.00v-24.00"/>
<path d="m10.00 339.00
	h681.60
	M10.00 333.00
	h681.60
	M10.00 327.00
	h681.60
	M10.00 321.00
	h681.60
	M10.00 315.00
	h681.60
	" class="stroke"/>
<use x="22.00" y="333.00" xlink:href="#tclef"/>
<use x="37.00" y="315.00" xlink:href="#sh0"/>
<use x="55.50" y="339.00" xlink:href="#Hd"/>
<path d="M59.00 339.00v-21.00" class="stroke"/>
<use x="91.90" y="333.00" xlink:href="#hd"/>
<path d="M95.40 333.00v-21.00" class="stroke"/>
<use x="123.30" y="333.00" xlink:href="#hd"/>
<circle class="fill" cx="131.00" cy="330.00" r="1.2"/>
<path d="M126.80 333.00v-21.00" class="stroke"/>
<use x="153.60" y="342.00" xlink:href="#hd"/>
<path d="M157.10 342.00v-21.00" class="stroke"/>
<path class="fill"
	d="M157.10 321.00c0.6 5.6 9.6 9 5.6 18.4
	1.6 -6 -1.3 -11.6 -5.6 -12.8
"/>
<use x="172.70" y="339.00" xlink:href="#hd"/>
<path d="M176.20 339.00v-21.00" class="stroke"/>
<use x="204.10" y="333.00" xlink:href="#hd"/>
<path d="M207.60 333.00v-21.00" class="stroke"/>
<use x="230.10" y="342.00" xlink:href="#hd"/>
<path d="M233.60 342.00v-21.00" class="stroke"/>
<use x="256.10" y="339.00" xlink:href="#hd"/>
<path d="M259.60 339.00v-21.00" class="stroke"/>
<use x="287.50" y="333.00" xlink:href="#hd"/>
<path d="M291.00 333.00v-21.00" class="stroke"/>
<use x="313.50" y="330.00" xlink:href="#hd"/>
<path d="M317.00 330.00v-21.00" class="stroke"/>
<use x="339.40" y="333.00" xlink:href="#hd"/>
<path d="M342.90 333.00v-21.00" class="stroke"/>
<use x="371.30" y="327.00" xlink:href="#Hd"/>
<path d="M374.80 327.00v-21.00" class="stroke"/>
<path class="fill"
	d="M404.20 342.00l17.60 0.00v-3.20l-17.60 -0.00"/>
<use x="408.00" y="321.00" xlink:href="#hd"/>
<path d="M404.50 321.00v20.00" class="stroke"/>
<use x="424.90" y="321.00" xlink:href="#hd"/>
<path d="M421.40 321.00v20.00" class="stroke"/>
<use x="451.20" y="321.00" xlink:href="#hd"/>
<path d="M447.70 321.00v21.00" class="stroke"/>
<use x="477.20" y="324.00" xlink:href="#hd"/>
<path d="M473.70 324.00v21.00" class="stroke"/>
<use x="503.10" y="327.00" xlink:href="#hd"/>
<path d="M499.60 327.00v21.00" class="stroke"/>
<use x="534.50" y="330.00" xlink:href="#hd"/>
<path d="M538.00 330.00v-21.00" class="stroke"/>
<use x="560.50" y="339.00" xlink:href="#hd"/>
<path d="M564.00 339.00v-21.00" class="stroke"/>
<use x="586.50" y="336.00" xlink:href="#hd"/>
<path d="M590.00 336.00v-21.00" class="stroke"/>
<use x="618.40" y="333.00" xlink:href="#Hd"/>
<circle class="fill" cx="627.10" cy="330.00" r="1.2"/>
<path d="M621.90 333.00v-21.00" class="stroke"/>
<use x="661.90" y="333.00" xlink:href="#Hd"/>
<path d="M665.40 333.00v-21.00" class="stroke"/>
</g>
</svg>
