<?xml version="1.0" standalone="no"?>
<!DOCTYPE svg PUBLIC "-//W3C//DTD SVG 1.1//EN"
	"http://www.w3.org/Graphics/SVG/1.1/DTD/svg11.dtd">
<svg xmlns="http://www.w3.org/2000/svg" version="1.1"
	xmlns:xlink="http://www.w3.org/1999/xlink"
	color="black"
	width="701.60px" height="306.00px">
<style type="text/css">
.fill {fill: currentColor}
.stroke {stroke: currentColor; fill: none}
text{white-space: pre}
</style>
<title>/mnt/ed617834-7c4b-4156-8731-6c17b22f12c7/tims_code/sphinx-tunes/source/ (1) tune 1</title>
<!-- Creator: abcm2ps-8.14.6 -->
<!-- CreationDate: Aug  3, 2021 09:10 -->
<!-- CommandLine: -g '/mnt/ed617834-7c4b-4156-8731-6c17b22f12c7/tims_code/sphinx-tunes/source/_abcfiles/_Castles in the air.abc' -O '/mnt/ed617834-7c4b-4156-8731-6c17b22f12c7/tims_code/sphinx-tunes/source/_abcfiles/Castles in the air.svg' -->
<g stroke-width="0.70" style="font:italic 14.00px Times">
<text x="691.60" y="20.00" text-anchor="end">Trad</text>
</g>
<g stroke-width="0.70" style="font:italic 14.00px Times">
<path class="stroke" stroke-width="1"
	d="M117.60 73.00v-24.00"/>
<path class="stroke" stroke-width="1"
	d="M254.80 73.00v-24.00"/>
<path class="stroke" stroke-width="1"
	d="M386.30 73.00v-24.00"/>
<path class="stroke" stroke-width="1"
	d="M538.30 73.00v-24.00"/>
<path class="stroke" stroke-width="1"
	d="M691.60 73.00v-24.00"/>
<path d="m10.00 73.00
	h681.60
	M10.00 67.00
	h681.60
	M10.00 61.00
	h681.60
	M10.00 55.00
	h681.60
	M10.00 49.00
	h681.60
	" class="stroke"/>
<text style="font:italic 12px serif"
	x="93.10" y="45.70" text-anchor="middle">3</text>
<text style="font:italic 12px serif"
	x="667.10" y="45.70" text-anchor="middle">3</text>
<defs>
<path id="utclef" class="fill" d="m-50 -90
	c-72 -41 -72 -158 52 -188
	150 -10 220 188 90 256
	-114 52 -275 0 -293 -136
	-15 -181 93 -229 220 -334
	88 -87 79 -133 62 -210
	-51 33 -94 105 -89 186
	17 267 36 374 49 574
	6 96 -19 134 -77 135
	-80 1 -126 -93 -61 -133
	85 -41 133 101 31 105
	23 17 92 37 90 -92
	-10 -223 -39 -342 -50 -617
	0 -90 0 -162 96 -232
	56 72 63 230 22 289
	-74 106 -257 168 -255 316
	9 153 148 185 252 133
	86 -65 29 -192 -80 -176
	-71 12 -105 67 -59 124"/>
<use id="tclef" transform="translate(0,6) scale(0.045)"
	xlink:href="#utclef"/>
</defs>
<use x="22.00" y="67.00" xlink:href="#tclef"/>
<defs>
<path id="usharp" class="fill" d="
	m136 -702
	v890
	h32
	v-890
	m128 840
	h32
	v-888
	h-32
	m-232 286
	v116
	l338 -96
	v-116
	m-338 442
	v116
	l338 -98
	v-114"/>
<use id="sh0" transform="translate(-4,5) scale(0.018)"
	xlink:href="#usharp"/>
</defs>
<use x="37.00" y="49.00" xlink:href="#sh0"/>
<use x="42.50" y="58.00" xlink:href="#sh0"/>
<g style="font:bold 16px serif"
	transform="translate(58.50,72.50) scale(1.2,1)">
	<text text-anchor="middle">4</text>
	<text y="-12" text-anchor="middle">4</text>
</g>
<path class="fill"
	d="M79.70 54.20l29.30 -4.30v3.20l-29.30 4.30"/>
<defs>
<ellipse id="hd" rx="4.1" ry="2.9"
	transform="rotate(-20)" class="fill"/>
</defs>
<use x="76.50" y="76.00" xlink:href="#hd"/>
<path d="M80.00 76.00v-20.90" class="stroke"/>
<use x="90.80" y="73.00" xlink:href="#hd"/>
<path d="M94.30 73.00v-20.00" class="stroke"/>
<use x="105.10" y="70.00" xlink:href="#hd"/>
<path d="M108.60 70.00v-19.10" class="stroke"/>
<use x="130.10" y="67.00" xlink:href="#hd"/>
<path d="M133.60 67.00v-21.00" class="stroke"/>
<path class="fill"
	d="M160.90 42.70l22.00 -4.00v3.20l-22.00 4.00"/>
<path class="fill"
	d="M175.50 45.10l7.00 -1.30v3.20l-7.00 1.30"/>
<use x="157.70" y="67.00" xlink:href="#hd"/>
<circle class="fill" cx="165.40" cy="64.00" r="1.2"/>
<path d="M161.20 67.00v-23.40" class="stroke"/>
<use x="179.00" y="61.00" xlink:href="#hd"/>
<path d="M182.50 61.00v-21.20" class="stroke"/>
<use x="193.40" y="76.00" xlink:href="#hd"/>
<path d="M196.90 76.00v-21.00" class="stroke"/>
<path class="fill"
	d="M224.10 51.70l22.00 -4.00v3.20l-22.00 4.00"/>
<path class="fill"
	d="M238.80 54.10l7.00 -1.30v3.20l-7.00 1.30"/>
<use x="221.00" y="76.00" xlink:href="#hd"/>
<circle class="fill" cx="228.70" cy="76.00" r="1.2"/>
<path d="M224.50 76.00v-23.40" class="stroke"/>
<use x="242.30" y="70.00" xlink:href="#hd"/>
<path d="M245.80 70.00v-21.20" class="stroke"/>
<path class="fill"
	d="M270.40 45.30l22.00 2.40v3.20l-22.00 -2.40"/>
<path class="fill"
	d="M285.00 51.90l7.00 0.80v3.20l-7.00 -0.80"/>
<use x="267.30" y="67.00" xlink:href="#hd"/>
<circle class="fill" cx="275.00" cy="64.00" r="1.2"/>
<path d="M270.80 67.00v-20.70" class="stroke"/>
<use x="288.50" y="70.00" xlink:href="#hd"/>
<path d="M292.00 70.00v-21.30" class="stroke"/>
<path class="fill"
	d="M306.10 44.20l22.00 -2.40v3.20l-22.00 2.40"/>
<path class="fill"
	d="M320.70 47.60l7.00 -0.80v3.20l-7.00 0.80"/>
<use x="302.90" y="67.00" xlink:href="#hd"/>
<circle class="fill" cx="310.60" cy="64.00" r="1.2"/>
<path d="M306.40 67.00v-21.90" class="stroke"/>
<use x="324.20" y="64.00" xlink:href="#hd"/>
<path d="M327.70 64.00v-21.20" class="stroke"/>
<use x="338.60" y="61.00" xlink:href="#hd"/>
<path d="M342.10 61.00v-21.00" class="stroke"/>
<use x="366.20" y="61.00" xlink:href="#hd"/>
<path d="M369.70 61.00v-21.00" class="stroke"/>
<path class="fill"
	d="M395.00 81.30l22.00 2.40v-3.20l-22.00 -2.40"/>
<path class="fill"
	d="M409.60 77.90l7.00 0.80v-3.20l-7.00 -0.80"/>
<use x="398.80" y="58.00" xlink:href="#hd"/>
<circle class="fill" cx="406.50" cy="58.00" r="1.2"/>
<path d="M395.30 58.00v22.30" class="stroke"/>
<use x="420.10" y="61.00" xlink:href="#hd"/>
<path d="M416.60 61.00v21.70" class="stroke"/>
<path class="fill"
	d="M430.60 80.00l22.00 -4.00v-3.20l-22.00 4.00"/>
<path class="fill"
	d="M445.30 72.30l7.00 -1.30v-3.20l-7.00 1.30"/>
<use x="434.50" y="58.00" xlink:href="#hd"/>
<circle class="fill" cx="442.20" cy="58.00" r="1.2"/>
<path d="M431.00 58.00v20.90" class="stroke"/>
<use x="455.80" y="52.00" xlink:href="#hd"/>
<path d="M452.30 52.00v23.10" class="stroke"/>
<path class="fill"
	d="M466.30 79.30l22.00 4.00v-3.20l-22.00 -4.00"/>
<path class="fill"
	d="M480.90 76.90l7.00 1.30v-3.20l-7.00 -1.30"/>
<use x="470.10" y="55.00" xlink:href="#hd"/>
<circle class="fill" cx="477.80" cy="52.00" r="1.2"/>
<path d="M466.60 55.00v23.40" class="stroke"/>
<use x="491.40" y="61.00" xlink:href="#hd"/>
<path d="M487.90 61.00v21.20" class="stroke"/>
<path class="fill"
	d="M507.60 42.30l22.00 2.40v3.20l-22.00 -2.40"/>
<path class="fill"
	d="M522.30 48.90l7.00 0.80v3.20l-7.00 -0.80"/>
<use x="504.50" y="64.00" xlink:href="#hd"/>
<circle class="fill" cx="512.20" cy="64.00" r="1.2"/>
<path d="M508.00 64.00v-20.70" class="stroke"/>
<use x="525.80" y="67.00" xlink:href="#hd"/>
<path d="M529.30 67.00v-21.30" class="stroke"/>
<path class="fill"
	d="M553.90 41.60l13.70 -2.20v3.20l-13.70 2.20"/>
<path class="fill"
	d="M561.30 45.40l-7.00 1.10v3.20l7.00 -1.10"/>
<use x="550.80" y="64.00" xlink:href="#hd"/>
<path d="M554.30 64.00v-21.50" class="stroke"/>
<use x="563.80" y="61.00" xlink:href="#hd"/>
<circle class="fill" cx="571.50" cy="58.00" r="1.2"/>
<path d="M567.30 61.00v-20.50" class="stroke"/>
<path class="fill"
	d="M590.40 42.30l22.00 2.40v3.20l-22.00 -2.40"/>
<path class="fill"
	d="M605.00 48.90l7.00 0.80v3.20l-7.00 -0.80"/>
<use x="587.20" y="64.00" xlink:href="#hd"/>
<circle class="fill" cx="594.90" cy="64.00" r="1.2"/>
<path d="M590.70 64.00v-20.70" class="stroke"/>
<use x="608.50" y="67.00" xlink:href="#hd"/>
<path d="M612.00 67.00v-21.30" class="stroke"/>
<use x="622.90" y="73.00" xlink:href="#hd"/>
<path d="M626.40 73.00v-21.00" class="stroke"/>
<path class="fill"
	d="M653.70 54.20l29.30 -4.30v3.20l-29.30 4.30"/>
<use x="650.50" y="76.00" xlink:href="#hd"/>
<path d="M654.00 76.00v-20.90" class="stroke"/>
<use x="664.80" y="73.00" xlink:href="#hd"/>
<path d="M668.30 73.00v-20.00" class="stroke"/>
<use x="679.10" y="70.00" xlink:href="#hd"/>
<path d="M682.60 70.00v-19.10" class="stroke"/>
</g>
<g stroke-width="0.70" style="font:italic 14.00px Times">
<path class="stroke" stroke-width="1"
	d="M215.80 143.00v-24.00"/>
<path class="stroke" stroke-width="1"
	d="M378.70 143.00v-24.00"/>
<path class="stroke" stroke-width="1"
	d="M562.80 143.00v-24.00"/>
<path class="stroke" stroke-width="3"
	d="M690.10 143.00v-24.00"/>
<path class="stroke" stroke-width="1"
	d="M685.60 143.00v-24.00"/>
<defs>
<g id="rdots" class="fill">
	<circle cx="0" cy="-9" r="1.2"/>
	<circle cx="0" cy="-15" r="1.2"/>
</g>
</defs>
<use x="681.60" y="143.00" xlink:href="#rdots"/>
<path d="m10.00 143.00
	h681.60
	M10.00 137.00
	h681.60
	M10.00 131.00
	h681.60
	M10.00 125.00
	h681.60
	M10.00 119.00
	h681.60
	" class="stroke"/>
<use x="22.00" y="137.00" xlink:href="#tclef"/>
<use x="37.00" y="119.00" xlink:href="#sh0"/>
<use x="42.50" y="128.00" xlink:href="#sh0"/>
<use x="60.50" y="137.00" xlink:href="#hd"/>
<path d="M64.00 137.00v-21.00" class="stroke"/>
<path class="fill"
	d="M99.70 113.00l26.90 -4.20v3.20l-26.90 4.20"/>
<path class="fill"
	d="M119.30 114.90l7.00 -1.10v3.20l-7.00 1.10"/>
<use x="96.50" y="137.00" xlink:href="#hd"/>
<circle class="fill" cx="104.20" cy="134.00" r="1.2"/>
<path d="M100.00 137.00v-23.10" class="stroke"/>
<use x="122.80" y="131.00" xlink:href="#hd"/>
<path d="M126.30 131.00v-21.20" class="stroke"/>
<use x="140.80" y="146.00" xlink:href="#hd"/>
<path d="M144.30 146.00v-21.00" class="stroke"/>
<path class="fill"
	d="M180.00 122.00l26.90 -4.20v3.20l-26.90 4.20"/>
<path class="fill"
	d="M199.60 123.90l7.00 -1.10v3.20l-7.00 1.10"/>
<use x="176.80" y="146.00" xlink:href="#hd"/>
<circle class="fill" cx="184.50" cy="146.00" r="1.2"/>
<path d="M180.30 146.00v-23.10" class="stroke"/>
<use x="203.10" y="140.00" xlink:href="#hd"/>
<path d="M206.60 140.00v-21.20" class="stroke"/>
<path class="fill"
	d="M231.90 115.20l26.90 2.50v3.20l-26.90 -2.50"/>
<path class="fill"
	d="M251.50 122.10l7.00 0.70v3.20l-7.00 -0.70"/>
<use x="228.70" y="137.00" xlink:href="#hd"/>
<circle class="fill" cx="236.40" cy="134.00" r="1.2"/>
<path d="M232.20 137.00v-20.70" class="stroke"/>
<use x="255.00" y="140.00" xlink:href="#hd"/>
<path d="M258.50 140.00v-21.30" class="stroke"/>
<path class="fill"
	d="M276.20 114.30l26.90 -2.50v3.20l-26.90 2.50"/>
<path class="fill"
	d="M295.80 117.50l7.00 -0.70v3.20l-7.00 0.70"/>
<use x="273.00" y="137.00" xlink:href="#hd"/>
<circle class="fill" cx="280.70" cy="134.00" r="1.2"/>
<path d="M276.50 137.00v-21.80" class="stroke"/>
<use x="299.30" y="134.00" xlink:href="#hd"/>
<path d="M302.80 134.00v-21.20" class="stroke"/>
<use x="317.40" y="131.00" xlink:href="#hd"/>
<path d="M320.90 131.00v-21.00" class="stroke"/>
<use x="353.40" y="131.00" xlink:href="#hd"/>
<path d="M356.90 131.00v-21.00" class="stroke"/>
<path class="fill"
	d="M387.70 150.80l26.90 -2.50v-3.20l-26.90 2.50"/>
<path class="fill"
	d="M407.30 143.90l7.00 -0.70v-3.20l-7.00 0.70"/>
<use x="391.60" y="128.00" xlink:href="#hd"/>
<circle class="fill" cx="399.30" cy="128.00" r="1.2"/>
<path d="M388.10 128.00v21.70" class="stroke"/>
<use x="417.80" y="125.00" xlink:href="#hd"/>
<path d="M414.30 125.00v22.30" class="stroke"/>
<path class="fill"
	d="M432.00 144.30l17.00 -3.60v-3.20l-17.00 3.60"/>
<path class="fill"
	d="M439.40 137.70l-7.00 1.50v-3.20l7.00 -1.50"/>
<use x="435.90" y="122.00" xlink:href="#hd"/>
<path d="M432.40 122.00v21.20" class="stroke"/>
<use x="452.20" y="116.00" xlink:href="#hd"/>
<circle class="fill" cx="459.90" cy="116.00" r="1.2"/>
<path d="M448.70 116.00v23.70" class="stroke"/>
<path class="fill"
	d="M477.50 149.00l26.90 4.20v-3.20l-26.90 -4.20"/>
<path class="fill"
	d="M497.10 147.10l7.00 1.10v-3.20l-7.00 -1.10"/>
<use x="481.30" y="125.00" xlink:href="#hd"/>
<circle class="fill" cx="489.00" cy="122.00" r="1.2"/>
<path d="M477.80 125.00v23.10" class="stroke"/>
<use x="507.60" y="131.00" xlink:href="#hd"/>
<path d="M504.10 131.00v21.20" class="stroke"/>
<path class="fill"
	d="M527.00 114.30l26.90 -2.50v3.20l-26.90 2.50"/>
<path class="fill"
	d="M546.60 117.50l7.00 -0.70v3.20l-7.00 0.70"/>
<use x="523.80" y="137.00" xlink:href="#hd"/>
<circle class="fill" cx="531.50" cy="134.00" r="1.2"/>
<path d="M527.30 137.00v-21.80" class="stroke"/>
<use x="550.10" y="134.00" xlink:href="#hd"/>
<path d="M553.60 134.00v-21.20" class="stroke"/>
<path class="fill"
	d="M571.90 153.80l26.90 -2.50v-3.20l-26.90 2.50"/>
<path class="fill"
	d="M591.50 146.90l7.00 -0.70v-3.20l-7.00 0.70"/>
<use x="575.70" y="131.00" xlink:href="#hd"/>
<circle class="fill" cx="583.40" cy="128.00" r="1.2"/>
<path d="M572.20 131.00v21.70" class="stroke"/>
<use x="602.00" y="128.00" xlink:href="#hd"/>
<path d="M598.50 128.00v22.30" class="stroke"/>
<path class="fill"
	d="M621.40 109.20l26.90 2.50v3.20l-26.90 -2.50"/>
<path class="fill"
	d="M641.00 116.10l7.00 0.70v3.20l-7.00 -0.70"/>
<use x="618.30" y="131.00" xlink:href="#hd"/>
<circle class="fill" cx="626.00" cy="128.00" r="1.2"/>
<path d="M621.80 131.00v-20.70" class="stroke"/>
<use x="644.50" y="134.00" xlink:href="#hd"/>
<path d="M648.00 134.00v-21.30" class="stroke"/>
<use x="662.60" y="137.00" xlink:href="#hd"/>
<path d="M666.10 137.00v-21.00" class="stroke"/>
</g>
<g stroke-width="0.70" style="font:italic 14.00px Times">
<path class="stroke" stroke-width="1"
	d="M103.20 213.00v-24.00"/>
<path class="stroke" stroke-width="1"
	d="M233.80 213.00v-24.00"/>
<path class="stroke" stroke-width="1"
	d="M372.30 213.00v-24.00"/>
<path class="stroke" stroke-width="1"
	d="M530.80 213.00v-24.00"/>
<path class="stroke" stroke-width="1"
	d="M691.60 213.00v-24.00"/>
<path d="m10.00 213.00
	h681.60
	M10.00 207.00
	h681.60
	M10.00 201.00
	h681.60
	M10.00 195.00
	h681.60
	M10.00 189.00
	h681.60
	" class="stroke"/>
<text style="font:italic 12px serif"
	x="73.30" y="233.30" text-anchor="middle">3</text>
<use x="22.00" y="207.00" xlink:href="#tclef"/>
<use x="37.00" y="189.00" xlink:href="#sh0"/>
<use x="42.50" y="198.00" xlink:href="#sh0"/>
<path class="fill"
	d="M56.70 221.20l30.90 -4.40v-3.20l-30.90 4.40"/>
<use x="60.50" y="201.00" xlink:href="#hd"/>
<path d="M57.00 201.00v19.10" class="stroke"/>
<use x="75.60" y="198.00" xlink:href="#hd"/>
<path d="M72.10 198.00v20.00" class="stroke"/>
<use x="90.70" y="195.00" xlink:href="#hd"/>
<path d="M87.20 195.00v20.90" class="stroke"/>
<use x="115.70" y="192.00" xlink:href="#hd"/>
<path d="M112.20 192.00v21.00" class="stroke"/>
<path class="fill"
	d="M141.50 214.00l23.00 -4.00v-3.20l-23.00 4.00"/>
<path class="fill"
	d="M157.20 206.30l7.00 -1.20v-3.20l-7.00 1.20"/>
<use x="145.40" y="192.00" xlink:href="#hd"/>
<circle class="fill" cx="153.10" cy="192.00" r="1.2"/>
<path d="M141.90 192.00v21.00" class="stroke"/>
<use x="167.70" y="186.00" xlink:href="#hd"/>
<path d="M164.20 186.00v23.00" class="stroke"/>
<use x="182.90" y="195.00" xlink:href="#hd"/>
<path d="M179.40 195.00v21.00" class="stroke"/>
<use x="212.60" y="195.00" xlink:href="#hd"/>
<path d="M209.10 195.00v21.00" class="stroke"/>
<path class="fill"
	d="M242.50 221.30l23.00 2.40v-3.20l-23.00 -2.40"/>
<path class="fill"
	d="M258.20 217.90l7.00 0.70v-3.20l-7.00 -0.70"/>
<use x="246.30" y="198.00" xlink:href="#hd"/>
<circle class="fill" cx="254.00" cy="198.00" r="1.2"/>
<path d="M242.80 198.00v22.30" class="stroke"/>
<use x="268.70" y="201.00" xlink:href="#hd"/>
<path d="M265.20 201.00v21.70" class="stroke"/>
<path class="fill"
	d="M280.00 220.70l23.00 -2.40v-3.20l-23.00 2.40"/>
<path class="fill"
	d="M295.70 214.10l7.00 -0.70v-3.20l-7.00 0.70"/>
<use x="283.90" y="198.00" xlink:href="#hd"/>
<circle class="fill" cx="291.60" cy="198.00" r="1.2"/>
<path d="M280.40 198.00v21.70" class="stroke"/>
<use x="306.20" y="195.00" xlink:href="#hd"/>
<path d="M302.70 195.00v22.30" class="stroke"/>
<use x="321.40" y="201.00" xlink:href="#hd"/>
<path d="M317.90 201.00v21.00" class="stroke"/>
<use x="351.10" y="201.00" xlink:href="#hd"/>
<path d="M347.60 201.00v21.00" class="stroke"/>
<path class="fill"
	d="M381.00 221.30l23.00 2.40v-3.20l-23.00 -2.40"/>
<path class="fill"
	d="M396.70 217.90l7.00 0.70v-3.20l-7.00 -0.70"/>
<use x="384.80" y="198.00" xlink:href="#hd"/>
<circle class="fill" cx="392.50" cy="198.00" r="1.2"/>
<path d="M381.30 198.00v22.30" class="stroke"/>
<use x="407.20" y="201.00" xlink:href="#hd"/>
<path d="M403.70 201.00v21.70" class="stroke"/>
<path class="fill"
	d="M418.50 220.00l23.00 -4.00v-3.20l-23.00 4.00"/>
<path class="fill"
	d="M434.20 212.30l7.00 -1.20v-3.20l-7.00 1.20"/>
<use x="422.40" y="198.00" xlink:href="#hd"/>
<circle class="fill" cx="430.10" cy="198.00" r="1.2"/>
<path d="M418.90 198.00v21.00" class="stroke"/>
<use x="444.70" y="192.00" xlink:href="#hd"/>
<path d="M441.20 192.00v23.00" class="stroke"/>
<path class="fill"
	d="M456.10 219.20l23.00 4.00v-3.20l-23.00 -4.00"/>
<path class="fill"
	d="M471.70 217.00l7.00 1.20v-3.20l-7.00 -1.20"/>
<use x="459.90" y="195.00" xlink:href="#hd"/>
<circle class="fill" cx="467.60" cy="192.00" r="1.2"/>
<path d="M456.40 195.00v23.30" class="stroke"/>
<use x="482.20" y="201.00" xlink:href="#hd"/>
<path d="M478.70 201.00v21.20" class="stroke"/>
<path class="fill"
	d="M499.10 182.30l23.00 2.40v3.20l-23.00 -2.40"/>
<path class="fill"
	d="M514.80 188.90l7.00 0.70v3.20l-7.00 -0.70"/>
<use x="496.00" y="204.00" xlink:href="#hd"/>
<circle class="fill" cx="503.70" cy="204.00" r="1.2"/>
<path d="M499.50 204.00v-20.70" class="stroke"/>
<use x="518.30" y="207.00" xlink:href="#hd"/>
<path d="M521.80 207.00v-21.30" class="stroke"/>
<path class="fill"
	d="M546.50 181.60l14.40 -2.20v3.20l-14.40 2.20"/>
<path class="fill"
	d="M553.80 185.50l-7.00 1.10v3.20l7.00 -1.10"/>
<use x="543.30" y="204.00" xlink:href="#hd"/>
<path d="M546.80 204.00v-21.50" class="stroke"/>
<use x="557.10" y="201.00" xlink:href="#hd"/>
<circle class="fill" cx="564.80" cy="198.00" r="1.2"/>
<path d="M560.60 201.00v-20.50" class="stroke"/>
<path class="fill"
	d="M584.90 182.30l23.00 2.40v3.20l-23.00 -2.40"/>
<path class="fill"
	d="M600.50 188.90l7.00 0.70v3.20l-7.00 -0.70"/>
<use x="581.70" y="204.00" xlink:href="#hd"/>
<circle class="fill" cx="589.40" cy="204.00" r="1.2"/>
<path d="M585.20 204.00v-20.70" class="stroke"/>
<use x="604.00" y="207.00" xlink:href="#hd"/>
<path d="M607.50 207.00v-21.30" class="stroke"/>
<path class="fill"
	d="M622.40 182.30l23.00 -6.60v3.20l-23.00 6.60"/>
<path class="fill"
	d="M638.10 182.80l7.00 -2.00v3.20l-7.00 2.00"/>
<use x="619.20" y="213.00" xlink:href="#hd"/>
<circle class="fill" cx="626.90" cy="210.00" r="1.2"/>
<path d="M622.70 213.00v-29.80" class="stroke"/>
<use x="641.60" y="198.00" xlink:href="#hd"/>
<path d="M645.10 198.00v-21.20" class="stroke"/>
<path class="fill"
	d="M659.90 179.30l23.00 2.40v3.20l-23.00 -2.40"/>
<path class="fill"
	d="M675.60 185.90l7.00 0.70v3.20l-7.00 -0.70"/>
<use x="656.80" y="201.00" xlink:href="#hd"/>
<circle class="fill" cx="664.50" cy="198.00" r="1.2"/>
<path d="M660.30 201.00v-20.70" class="stroke"/>
<use x="679.10" y="204.00" xlink:href="#hd"/>
<path d="M682.60 204.00v-21.30" class="stroke"/>
</g>
<g stroke-width="0.70" style="font:italic 14.00px Times">
<path class="stroke" stroke-width="1"
	d="M223.90 283.00v-24.00"/>
<path class="stroke" stroke-width="1"
	d="M383.90 283.00v-24.00"/>
<path class="stroke" stroke-width="1"
	d="M565.00 283.00v-24.00"/>
<path class="stroke" stroke-width="3"
	d="M690.10 283.00v-24.00"/>
<path class="stroke" stroke-width="1"
	d="M685.60 283.00v-24.00"/>
<use x="681.60" y="283.00" xlink:href="#rdots"/>
<path d="m10.00 283.00
	h681.60
	M10.00 277.00
	h681.60
	M10.00 271.00
	h681.60
	M10.00 265.00
	h681.60
	M10.00 259.00
	h681.60
	" class="stroke"/>
<text style="font:italic 12px serif"
	x="194.70" y="255.70" text-anchor="middle">3</text>
<use x="22.00" y="277.00" xlink:href="#tclef"/>
<use x="37.00" y="259.00" xlink:href="#sh0"/>
<use x="42.50" y="268.00" xlink:href="#sh0"/>
<use x="60.50" y="277.00" xlink:href="#hd"/>
<path d="M64.00 277.00v-21.00" class="stroke"/>
<path class="fill"
	d="M99.00 252.90l26.50 -4.20v3.20l-26.50 4.20"/>
<path class="fill"
	d="M118.20 254.90l7.00 -1.10v3.20l-7.00 1.10"/>
<use x="95.90" y="277.00" xlink:href="#hd"/>
<circle class="fill" cx="103.60" cy="274.00" r="1.2"/>
<path d="M99.40 277.00v-23.10" class="stroke"/>
<use x="121.70" y="271.00" xlink:href="#hd"/>
<path d="M125.20 271.00v-21.20" class="stroke"/>
<use x="139.40" y="286.00" xlink:href="#hd"/>
<path d="M142.90 286.00v-21.00" class="stroke"/>
<path class="fill"
	d="M177.90 264.30l36.00 -4.60v3.20l-36.00 4.60"/>
<use x="174.80" y="286.00" xlink:href="#hd"/>
<path d="M178.30 286.00v-20.80" class="stroke"/>
<use x="192.40" y="283.00" xlink:href="#hd"/>
<path d="M195.90 283.00v-20.00" class="stroke"/>
<use x="210.10" y="280.00" xlink:href="#hd"/>
<path d="M213.60 280.00v-19.20" class="stroke"/>
<path class="fill"
	d="M239.70 255.30l26.50 2.50v3.20l-26.50 -2.50"/>
<path class="fill"
	d="M258.90 262.10l7.00 0.70v3.20l-7.00 -0.70"/>
<use x="236.60" y="277.00" xlink:href="#hd"/>
<circle class="fill" cx="244.30" cy="274.00" r="1.2"/>
<path d="M240.10 277.00v-20.70" class="stroke"/>
<use x="262.40" y="280.00" xlink:href="#hd"/>
<path d="M265.90 280.00v-21.30" class="stroke"/>
<path class="fill"
	d="M283.30 254.30l26.50 -2.50v3.20l-26.50 2.50"/>
<path class="fill"
	d="M302.50 257.50l7.00 -0.70v3.20l-7.00 0.70"/>
<use x="280.20" y="277.00" xlink:href="#hd"/>
<circle class="fill" cx="287.90" cy="274.00" r="1.2"/>
<path d="M283.70 277.00v-21.80" class="stroke"/>
<use x="306.00" y="274.00" xlink:href="#hd"/>
<path d="M309.50 274.00v-21.20" class="stroke"/>
<use x="323.70" y="271.00" xlink:href="#hd"/>
<path d="M327.20 271.00v-21.00" class="stroke"/>
<use x="359.10" y="271.00" xlink:href="#hd"/>
<path d="M362.60 271.00v-21.00" class="stroke"/>
<path class="fill"
	d="M392.80 290.70l26.50 -2.50v-3.20l-26.50 2.50"/>
<path class="fill"
	d="M411.90 283.90l7.00 -0.70v-3.20l-7.00 0.70"/>
<use x="396.60" y="268.00" xlink:href="#hd"/>
<circle class="fill" cx="404.30" cy="268.00" r="1.2"/>
<path d="M393.10 268.00v21.70" class="stroke"/>
<use x="422.40" y="265.00" xlink:href="#hd"/>
<path d="M418.90 265.00v22.30" class="stroke"/>
<path class="fill"
	d="M436.40 284.30l16.70 -3.60v-3.20l-16.70 3.60"/>
<path class="fill"
	d="M443.70 277.70l-7.00 1.50v-3.20l7.00 -1.50"/>
<use x="440.20" y="262.00" xlink:href="#hd"/>
<path d="M436.70 262.00v21.20" class="stroke"/>
<use x="456.20" y="256.00" xlink:href="#hd"/>
<circle class="fill" cx="463.90" cy="256.00" r="1.2"/>
<path d="M452.70 256.00v23.80" class="stroke"/>
<path class="fill"
	d="M481.00 289.10l26.50 4.20v-3.20l-26.50 -4.20"/>
<path class="fill"
	d="M500.10 287.10l7.00 1.10v-3.20l-7.00 -1.10"/>
<use x="484.80" y="265.00" xlink:href="#hd"/>
<circle class="fill" cx="492.50" cy="262.00" r="1.2"/>
<path d="M481.30 265.00v23.10" class="stroke"/>
<use x="510.60" y="271.00" xlink:href="#hd"/>
<path d="M507.10 271.00v21.20" class="stroke"/>
<path class="fill"
	d="M529.80 254.30l26.50 -2.50v3.20l-26.50 2.50"/>
<path class="fill"
	d="M549.00 257.50l7.00 -0.70v3.20l-7.00 0.70"/>
<use x="526.60" y="277.00" xlink:href="#hd"/>
<circle class="fill" cx="534.30" cy="274.00" r="1.2"/>
<path d="M530.10 277.00v-21.80" class="stroke"/>
<use x="552.50" y="274.00" xlink:href="#hd"/>
<path d="M556.00 274.00v-21.20" class="stroke"/>
<path class="fill"
	d="M573.80 293.70l26.50 -2.50v-3.20l-26.50 2.50"/>
<path class="fill"
	d="M593.00 286.90l7.00 -0.70v-3.20l-7.00 0.70"/>
<use x="577.70" y="271.00" xlink:href="#hd"/>
<circle class="fill" cx="585.40" cy="268.00" r="1.2"/>
<path d="M574.20 271.00v21.70" class="stroke"/>
<use x="603.50" y="268.00" xlink:href="#hd"/>
<path d="M600.00 268.00v22.30" class="stroke"/>
<path class="fill"
	d="M622.70 249.30l26.50 2.50v3.20l-26.50 -2.50"/>
<path class="fill"
	d="M641.80 256.10l7.00 0.70v3.20l-7.00 -0.70"/>
<use x="619.50" y="271.00" xlink:href="#hd"/>
<circle class="fill" cx="627.20" cy="268.00" r="1.2"/>
<path d="M623.00 271.00v-20.70" class="stroke"/>
<use x="645.30" y="274.00" xlink:href="#hd"/>
<path d="M648.80 274.00v-21.30" class="stroke"/>
<use x="663.10" y="277.00" xlink:href="#hd"/>
<path d="M666.60 277.00v-21.00" class="stroke"/>
</g>
</svg>
