<?xml version="1.0" standalone="no"?>
<!DOCTYPE svg PUBLIC "-//W3C//DTD SVG 1.1//EN"
	"http://www.w3.org/Graphics/SVG/1.1/DTD/svg11.dtd">
<svg xmlns="http://www.w3.org/2000/svg" version="1.1"
	xmlns:xlink="http://www.w3.org/1999/xlink"
	color="black"
	width="701.60px" height="292.00px">
<style type="text/css">
.fill {fill: currentColor}
.stroke {stroke: currentColor; fill: none}
text{white-space: pre}
</style>
<title>/mnt/ed617834-7c4b-4156-8731-6c17b22f12c7/tims_code/sphinx-tunes/source/ (1) tune 1</title>
<!-- Creator: abcm2ps-8.14.6 -->
<!-- CreationDate: Aug  3, 2021 07:10 -->
<!-- CommandLine: -g /mnt/ed617834-7c4b-4156-8731-6c17b22f12c7/tims_code/sphinx-tunes/source/_abcfiles/_Doom.abc -O /mnt/ed617834-7c4b-4156-8731-6c17b22f12c7/tims_code/sphinx-tunes/source/_abcfiles/Doom.svg -->
<g stroke-width="0.70">
<path class="stroke" stroke-width="1"
	d="M195.20 59.00v-24.00"/>
<path class="stroke" stroke-width="1"
	d="M358.80 59.00v-24.00"/>
<path class="stroke" stroke-width="1"
	d="M525.20 59.00v-24.00"/>
<path class="stroke" stroke-width="1"
	d="M691.60 59.00v-24.00"/>
<path d="m10.00 59.00
	h681.60
	M10.00 53.00
	h681.60
	M10.00 47.00
	h681.60
	M10.00 41.00
	h681.60
	M10.00 35.00
	h681.60
	" class="stroke"/>
<defs>
<path id="utclef" class="fill" d="m-50 -90
	c-72 -41 -72 -158 52 -188
	150 -10 220 188 90 256
	-114 52 -275 0 -293 -136
	-15 -181 93 -229 220 -334
	88 -87 79 -133 62 -210
	-51 33 -94 105 -89 186
	17 267 36 374 49 574
	6 96 -19 134 -77 135
	-80 1 -126 -93 -61 -133
	85 -41 133 101 31 105
	23 17 92 37 90 -92
	-10 -223 -39 -342 -50 -617
	0 -90 0 -162 96 -232
	56 72 63 230 22 289
	-74 106 -257 168 -255 316
	9 153 148 185 252 133
	86 -65 29 -192 -80 -176
	-71 12 -105 67 -59 124"/>
<use id="tclef" transform="translate(0,6) scale(0.045)"
	xlink:href="#utclef"/>
</defs>
<use x="22.00" y="53.00" xlink:href="#tclef"/>
<defs>
<path id="usharp" class="fill" d="
	m136 -702
	v890
	h32
	v-890
	m128 840
	h32
	v-888
	h-32
	m-232 286
	v116
	l338 -96
	v-116
	m-338 442
	v116
	l338 -98
	v-114"/>
<use id="sh0" transform="translate(-4,5) scale(0.018)"
	xlink:href="#usharp"/>
</defs>
<use x="37.00" y="35.00" xlink:href="#sh0"/>
<use x="42.50" y="44.00" xlink:href="#sh0"/>
<g style="font:bold 16px serif"
	transform="translate(58.50,58.50) scale(1.2,1)">
	<text text-anchor="middle">4</text>
	<text y="-12" text-anchor="middle">3</text>
</g>
<defs>
<ellipse id="hd" rx="4.1" ry="2.9"
	transform="rotate(-20)" class="fill"/>
</defs>
<use x="76.50" y="35.00" xlink:href="#hd"/>
<circle class="fill" cx="84.20" cy="32.00" r="1.2"/>
<path d="M73.00 35.00v21.00" class="stroke"/>
<use x="121.90" y="38.00" xlink:href="#hd"/>
<path d="M118.40 38.00v21.00" class="stroke"/>
<path class="fill"
	d="M118.40 59.00c0.6 -5.6 9.6 -9 5.6 -18.4
	1.6 6 -1.3 11.6 -5.6 12.8
"/>
<path class="fill"
	d="M146.20 61.10l26.10 -4.20v-3.20l-26.10 4.20"/>
<use x="150.10" y="41.00" xlink:href="#hd"/>
<path d="M146.60 41.00v19.00" class="stroke"/>
<use x="175.50" y="35.00" xlink:href="#hd"/>
<path d="M172.00 35.00v21.00" class="stroke"/>
<path class="fill"
	d="M205.50 59.90l26.10 4.20v-3.20l-26.10 -4.20"/>
<use x="209.30" y="38.00" xlink:href="#hd"/>
<path d="M205.80 38.00v21.00" class="stroke"/>
<use x="234.70" y="44.00" xlink:href="#hd"/>
<path d="M231.20 44.00v19.00" class="stroke"/>
<path class="fill"
	d="M259.10 70.10l26.10 -4.20v-3.20l-26.10 4.20"/>
<use x="262.90" y="50.00" xlink:href="#hd"/>
<path d="M259.40 50.00v19.00" class="stroke"/>
<use x="288.30" y="44.00" xlink:href="#hd"/>
<path d="M284.80 44.00v21.00" class="stroke"/>
<path class="fill"
	d="M316.80 26.30l26.10 2.50v3.20l-26.10 -2.50"/>
<use x="313.70" y="47.00" xlink:href="#hd"/>
<path d="M317.20 47.00v-19.70" class="stroke"/>
<use x="339.00" y="50.00" xlink:href="#hd"/>
<path d="M342.50 50.00v-20.30" class="stroke"/>
<path class="fill"
	d="M376.10 31.10l26.10 -4.20v3.20l-26.10 4.20"/>
<use x="372.90" y="53.00" xlink:href="#hd"/>
<path d="M376.40 53.00v-21.00" class="stroke"/>
<use x="398.30" y="47.00" xlink:href="#hd"/>
<path d="M401.80 47.00v-19.00" class="stroke"/>
<path class="fill"
	d="M429.60 21.70l26.10 7.10v3.20l-26.10 -7.10"/>
<use x="426.50" y="41.00" xlink:href="#hd"/>
<path d="M430.00 41.00v-18.20" class="stroke"/>
<use x="451.90" y="56.00" xlink:href="#hd"/>
<path d="M455.40 56.00v-26.30" class="stroke"/>
<path class="fill"
	d="M476.20 67.10l26.10 -4.20v-3.20l-26.10 4.20"/>
<use x="480.10" y="47.00" xlink:href="#hd"/>
<path d="M476.60 47.00v19.00" class="stroke"/>
<use x="505.50" y="41.00" xlink:href="#hd"/>
<path d="M502.00 41.00v21.00" class="stroke"/>
<path class="fill"
	d="M535.50 70.10l26.10 -4.20v-3.20l-26.10 4.20"/>
<use x="539.30" y="50.00" xlink:href="#hd"/>
<path d="M535.80 50.00v19.00" class="stroke"/>
<use x="564.70" y="44.00" xlink:href="#hd"/>
<path d="M561.20 44.00v21.00" class="stroke"/>
<path class="fill"
	d="M589.00 62.90l26.10 6.30v-3.20l-26.10 -6.30"/>
<use x="592.90" y="38.00" xlink:href="#hd"/>
<path d="M589.40 38.00v24.00" class="stroke"/>
<use x="618.30" y="50.00" xlink:href="#hd"/>
<path d="M614.80 50.00v18.20" class="stroke"/>
<path class="fill"
	d="M642.60 49.70l26.10 -2.50v-3.20l-26.10 2.50"/>
<defs>
<path id="hl" class="stroke" d="m-6 0h12"/>
</defs>
<use x="646.50" y="29.00" xlink:href="#hl"/>
<use x="646.50" y="29.00" xlink:href="#hd"/>
<path d="M643.00 29.00v19.70" class="stroke"/>
<use x="671.90" y="29.00" xlink:href="#hl"/>
<use x="671.90" y="26.00" xlink:href="#hd"/>
<path d="M668.40 26.00v20.30" class="stroke"/>
</g>
<g stroke-width="0.70">
<path class="stroke" stroke-width="1"
	d="M184.50 129.00v-24.00"/>
<path class="stroke" stroke-width="1"
	d="M355.40 129.00v-24.00"/>
<path class="stroke" stroke-width="1"
	d="M529.20 129.00v-24.00"/>
<path class="stroke" stroke-width="3"
	d="M690.10 129.00v-24.00"/>
<path class="stroke" stroke-width="1"
	d="M685.60 129.00v-24.00"/>
<defs>
<g id="rdots" class="fill">
	<circle cx="0" cy="-9" r="1.2"/>
	<circle cx="0" cy="-15" r="1.2"/>
</g>
</defs>
<use x="681.60" y="129.00" xlink:href="#rdots"/>
<path d="m10.00 129.00
	h681.60
	M10.00 123.00
	h681.60
	M10.00 117.00
	h681.60
	M10.00 111.00
	h681.60
	M10.00 105.00
	h681.60
	" class="stroke"/>
<use x="22.00" y="123.00" xlink:href="#tclef"/>
<use x="37.00" y="105.00" xlink:href="#sh0"/>
<use x="42.50" y="114.00" xlink:href="#sh0"/>
<use x="60.50" y="105.00" xlink:href="#hd"/>
<circle class="fill" cx="68.20" cy="102.00" r="1.2"/>
<path d="M57.00 105.00v21.00" class="stroke"/>
<use x="107.90" y="108.00" xlink:href="#hd"/>
<path d="M104.40 108.00v21.00" class="stroke"/>
<path class="fill"
	d="M104.40 129.00c0.6 -5.6 9.6 -9 5.6 -18.4
	1.6 6 -1.3 11.6 -5.6 12.8
"/>
<path class="fill"
	d="M133.50 131.10l27.20 -4.20v-3.20l-27.20 4.20"/>
<use x="137.40" y="111.00" xlink:href="#hd"/>
<path d="M133.90 111.00v19.10" class="stroke"/>
<use x="163.90" y="105.00" xlink:href="#hd"/>
<path d="M160.40 105.00v20.90" class="stroke"/>
<path class="fill"
	d="M195.40 129.90l27.20 4.20v-3.20l-27.20 -4.20"/>
<use x="199.20" y="108.00" xlink:href="#hd"/>
<path d="M195.70 108.00v20.90" class="stroke"/>
<use x="225.70" y="114.00" xlink:href="#hd"/>
<path d="M222.20 114.00v19.10" class="stroke"/>
<path class="fill"
	d="M251.40 140.10l27.20 -4.20v-3.20l-27.20 4.20"/>
<use x="255.20" y="120.00" xlink:href="#hd"/>
<path d="M251.70 120.00v19.10" class="stroke"/>
<use x="281.70" y="114.00" xlink:href="#hd"/>
<path d="M278.20 114.00v20.90" class="stroke"/>
<path class="fill"
	d="M311.40 96.20l27.20 2.50v3.20l-27.20 -2.50"/>
<use x="308.20" y="117.00" xlink:href="#hd"/>
<path d="M311.70 117.00v-19.70" class="stroke"/>
<use x="334.70" y="120.00" xlink:href="#hd"/>
<path d="M338.20 120.00v-20.30" class="stroke"/>
<path class="fill"
	d="M373.30 102.20l27.20 2.50v3.20l-27.20 -2.50"/>
<use x="370.10" y="123.00" xlink:href="#hd"/>
<path d="M373.60 123.00v-19.70" class="stroke"/>
<use x="396.60" y="126.00" xlink:href="#hd"/>
<path d="M400.10 126.00v-20.30" class="stroke"/>
<path class="fill"
	d="M429.20 97.00l27.20 -8.30v3.20l-27.20 8.30"/>
<use x="426.10" y="129.00" xlink:href="#hd"/>
<path d="M429.60 129.00v-31.10" class="stroke"/>
<use x="452.60" y="108.00" xlink:href="#hd"/>
<path d="M456.10 108.00v-18.20" class="stroke"/>
<path class="fill"
	d="M478.20 126.90l27.20 4.20v-3.20l-27.20 -4.20"/>
<use x="482.00" y="105.00" xlink:href="#hd"/>
<path d="M478.50 105.00v20.90" class="stroke"/>
<use x="508.60" y="111.00" xlink:href="#hd"/>
<path d="M505.10 111.00v19.10" class="stroke"/>
<use x="543.90" y="117.00" xlink:href="#hd"/>
<path d="M540.40 117.00v21.00" class="stroke"/>
<path class="fill"
	d="M581.70 123.20l27.20 2.50v-3.20l-27.20 -2.50"/>
<use x="585.50" y="102.00" xlink:href="#hd"/>
<path d="M582.00 102.00v20.30" class="stroke"/>
<use x="612.10" y="105.00" xlink:href="#hd"/>
<path d="M608.60 105.00v19.70" class="stroke"/>
<path class="fill"
	d="M637.70 128.10l27.20 -4.20v-3.20l-27.20 4.20"/>
<use x="641.50" y="108.00" xlink:href="#hd"/>
<path d="M638.00 108.00v19.10" class="stroke"/>
<use x="668.00" y="102.00" xlink:href="#hd"/>
<path d="M664.50 102.00v20.90" class="stroke"/>
</g>
<g stroke-width="0.70">
<path class="stroke" stroke-width="1"
	d="M228.10 199.00v-24.00"/>
<path class="stroke" stroke-width="1"
	d="M374.30 199.00v-24.00"/>
<path class="stroke" stroke-width="1"
	d="M523.60 199.00v-24.00"/>
<path class="stroke" stroke-width="1"
	d="M691.60 199.00v-24.00"/>
<path d="m10.00 199.00
	h681.60
	M10.00 193.00
	h681.60
	M10.00 187.00
	h681.60
	M10.00 181.00
	h681.60
	M10.00 175.00
	h681.60
	" class="stroke"/>
<use x="22.00" y="193.00" xlink:href="#tclef"/>
<use x="37.00" y="175.00" xlink:href="#sh0"/>
<use x="42.50" y="184.00" xlink:href="#sh0"/>
<path class="fill"
	d="M56.70 202.90l28.60 4.30v-3.20l-28.60 -4.30"/>
<use x="60.50" y="181.00" xlink:href="#hd"/>
<path d="M57.00 181.00v20.90" class="stroke"/>
<use x="88.40" y="187.00" xlink:href="#hd"/>
<path d="M84.90 187.00v19.10" class="stroke"/>
<path class="fill"
	d="M115.60 196.20l28.60 2.50v-3.20l-28.60 -2.50"/>
<use x="119.50" y="175.00" xlink:href="#hd"/>
<path d="M116.00 175.00v20.30" class="stroke"/>
<use x="147.40" y="178.00" xlink:href="#hd"/>
<path d="M143.90 178.00v19.70" class="stroke"/>
<path class="fill"
	d="M174.60 202.20l28.60 2.50v-3.20l-28.60 -2.50"/>
<use x="178.50" y="181.00" xlink:href="#hd"/>
<path d="M175.00 181.00v20.30" class="stroke"/>
<use x="206.40" y="184.00" xlink:href="#hd"/>
<path d="M202.90 184.00v19.70" class="stroke"/>
<use x="243.60" y="190.00" xlink:href="#hd"/>
<circle class="fill" cx="251.30" cy="190.00" r="1.2"/>
<path d="M247.10 190.00v-21.00" class="stroke"/>
<use x="293.60" y="193.00" xlink:href="#hd"/>
<path d="M297.10 193.00v-21.00" class="stroke"/>
<path class="fill"
	d="M297.10 172.00c0.6 5.6 9.6 9 5.6 18.4
	1.6 -6 -1.3 -11.6 -5.6 -12.8
"/>
<path class="fill"
	d="M327.80 168.80l28.60 -2.50v3.20l-28.60 2.50"/>
<use x="324.60" y="190.00" xlink:href="#hd"/>
<path d="M328.10 190.00v-20.30" class="stroke"/>
<use x="352.60" y="187.00" xlink:href="#hd"/>
<path d="M356.10 187.00v-19.70" class="stroke"/>
<use x="392.90" y="184.00" xlink:href="#hd"/>
<circle class="fill" cx="400.60" cy="184.00" r="1.2"/>
<defs>
<path id="unat" class="fill" d="
	m96 -750
	h-32
	v716
	l32 -8
	182 -54
	v282
	h32
	v-706
	l-34 10
	-180 50
	v-290
	m0 592
	v-190
	l182 -52
	v188"/>
<use id="nt0" transform="translate(-3,5) scale(0.018)"
	xlink:href="#unat"/>
</defs>
<use x="383.90" y="184.00" xlink:href="#nt0"/>
<path d="M389.40 184.00v21.00" class="stroke"/>
<use x="442.90" y="187.00" xlink:href="#hd"/>
<path d="M439.40 187.00v21.00" class="stroke"/>
<path class="fill"
	d="M439.40 208.00c0.6 -5.6 9.6 -9 5.6 -18.4
	1.6 6 -1.3 11.6 -5.6 12.8
"/>
<path class="fill"
	d="M470.10 210.10l28.60 -4.30v-3.20l-28.60 4.30"/>
<use x="473.90" y="190.00" xlink:href="#hd"/>
<path d="M470.40 190.00v19.10" class="stroke"/>
<use x="501.80" y="184.00" xlink:href="#hd"/>
<path d="M498.30 184.00v20.90" class="stroke"/>
<path class="fill"
	d="M542.20 166.90l28.60 4.30v3.20l-28.60 -4.30"/>
<use x="539.10" y="187.00" xlink:href="#hd"/>
<path d="M542.60 187.00v-19.10" class="stroke"/>
<use x="567.00" y="193.00" xlink:href="#hd"/>
<path d="M570.50 193.00v-20.90" class="stroke"/>
<use x="598.10" y="199.00" xlink:href="#hd"/>
<path d="M601.60 199.00v-21.00" class="stroke"/>
<path class="fill"
	d="M638.10 201.80l28.60 -2.50v-3.20l-28.60 2.50"/>
<use x="641.90" y="181.00" xlink:href="#hd"/>
<path d="M638.40 181.00v19.70" class="stroke"/>
<use x="669.90" y="178.00" xlink:href="#hd"/>
<path d="M666.40 178.00v20.30" class="stroke"/>
</g>
<g stroke-width="0.70">
<path class="stroke" stroke-width="1"
	d="M263.40 269.00v-24.00"/>
<path class="stroke" stroke-width="1"
	d="M382.70 269.00v-24.00"/>
<path class="stroke" stroke-width="1"
	d="M604.40 269.00v-24.00"/>
<path class="stroke" stroke-width="3"
	d="M690.10 269.00v-24.00"/>
<path class="stroke" stroke-width="1"
	d="M685.60 269.00v-24.00"/>
<use x="681.60" y="269.00" xlink:href="#rdots"/>
<path d="m10.00 269.00
	h681.60
	M10.00 263.00
	h681.60
	M10.00 257.00
	h681.60
	M10.00 251.00
	h681.60
	M10.00 245.00
	h681.60
	" class="stroke"/>
<use x="22.00" y="263.00" xlink:href="#tclef"/>
<use x="37.00" y="245.00" xlink:href="#sh0"/>
<use x="42.50" y="254.00" xlink:href="#sh0"/>
<path class="fill"
	d="M56.70 269.10l34.50 7.20v-3.20l-34.50 -7.20"/>
<use x="60.50" y="245.00" xlink:href="#hd"/>
<path d="M57.00 245.00v23.20" class="stroke"/>
<use x="94.30" y="257.00" xlink:href="#hd"/>
<path d="M90.80 257.00v18.20" class="stroke"/>
<path class="fill"
	d="M128.10 268.20l34.50 8.10v-3.20l-34.50 -8.10"/>
<use x="131.90" y="242.00" xlink:href="#hd"/>
<path d="M128.40 242.00v25.30" class="stroke"/>
<use x="165.70" y="257.00" xlink:href="#hd"/>
<path d="M162.20 257.00v18.20" class="stroke"/>
<path class="fill"
	d="M199.50 259.80l34.50 -2.60v-3.20l-34.50 2.60"/>
<use x="203.30" y="239.00" xlink:href="#hl"/>
<use x="203.30" y="239.00" xlink:href="#hd"/>
<path d="M199.80 239.00v19.80" class="stroke"/>
<use x="237.10" y="239.00" xlink:href="#hl"/>
<use x="237.10" y="236.00" xlink:href="#hd"/>
<path d="M233.60 236.00v20.20" class="stroke"/>
<use x="282.20" y="245.00" xlink:href="#hd"/>
<path d="M278.70 245.00v21.00" class="stroke"/>
<defs>
<path id="Hd" class="fill" d="m3 -1.6
	c-1 -1.8 -7 1.4 -6 3.2
	1 1.8 7 -1.4 6 -3.2
	m0.5 -0.3
	c2 3.8 -5 7.6 -7 3.8
	-2 -3.8 5 -7.6 7 -3.8"/>
</defs>
<use x="330.00" y="266.00" xlink:href="#Hd"/>
<path d="M333.50 266.00v-34.00" class="stroke"/>
<use x="330.00" y="251.00" xlink:href="#Hd"/>
<path class="fill"
	d="M397.60 269.20l34.50 2.60v-3.20l-34.50 -2.60"/>
<use x="401.40" y="248.00" xlink:href="#hd"/>
<path d="M397.90 248.00v20.20" class="stroke"/>
<use x="435.30" y="251.00" xlink:href="#hd"/>
<path d="M431.80 251.00v19.80" class="stroke"/>
<path class="fill"
	d="M469.00 274.30l34.50 -4.50v-3.20l-34.50 4.50"/>
<use x="472.90" y="254.00" xlink:href="#hd"/>
<path d="M469.40 254.00v19.20" class="stroke"/>
<use x="506.70" y="248.00" xlink:href="#hd"/>
<path d="M503.20 248.00v20.80" class="stroke"/>
<path class="fill"
	d="M540.40 266.70l34.50 4.50v-3.20l-34.50 -4.50"/>
<use x="544.30" y="245.00" xlink:href="#hd"/>
<path d="M540.80 245.00v20.80" class="stroke"/>
<use x="578.10" y="251.00" xlink:href="#hd"/>
<path d="M574.60 251.00v19.20" class="stroke"/>
<use x="623.20" y="257.00" xlink:href="#Hd"/>
<circle class="fill" cx="631.90" cy="254.00" r="1.2"/>
<path d="M619.70 257.00v21.00" class="stroke"/>
</g>
</svg>
