<?xml version="1.0" standalone="no"?>
<!DOCTYPE svg PUBLIC "-//W3C//DTD SVG 1.1//EN"
	"http://www.w3.org/Graphics/SVG/1.1/DTD/svg11.dtd">
<svg xmlns="http://www.w3.org/2000/svg" version="1.1"
	xmlns:xlink="http://www.w3.org/1999/xlink"
	color="black"
	width="701.60px" height="336.00px">
<style type="text/css">
.fill {fill: currentColor}
.stroke {stroke: currentColor; fill: none}
text{white-space: pre}
</style>
<title>/media/tim/Data1/tims_code/sphinx-tunes/source/_abcfiles/Gentle Maiden.a (1) tune 1</title>
<!-- Creator: abcm2ps-8.14.6 -->
<!-- CreationDate: Jul 30, 2023 12:06 -->
<!-- CommandLine: -g '/media/tim/Data1/tims_code/sphinx-tunes/source/_abcfiles/Gentle Maiden.abc' -O '/media/tim/Data1/tims_code/sphinx-tunes/source/_abcfiles/Gentle Maiden.svg' -->
<g stroke-width="0.70">
<!-- title: Gentle Maiden -->
</g>
<g stroke-width="0.70" style="font:20.00px Times">
<text x="350.80" y="22.00" text-anchor="middle">Gentle Maiden</text>
</g>
<g stroke-width="0.70" style="font:italic 14.00px Times">
<text x="691.60" y="46.00" text-anchor="end">Trad</text>
</g>
<g stroke-width="0.70" style="font:italic 14.00px Times">
<path class="stroke" stroke-width="1"
	d="M90.70 100.00v-24.00"/>
<path class="stroke" stroke-width="1"
	d="M174.60 100.00v-24.00"/>
<path class="stroke" stroke-width="1"
	d="M261.10 100.00v-24.00"/>
<path class="stroke" stroke-width="1"
	d="M332.00 100.00v-24.00"/>
<path class="stroke" stroke-width="1"
	d="M418.50 100.00v-24.00"/>
<path class="stroke" stroke-width="1"
	d="M505.10 100.00v-24.00"/>
<path class="stroke" stroke-width="1"
	d="M576.00 100.00v-24.00"/>
<path class="stroke" stroke-width="1"
	d="M620.80 100.00v-24.00"/>
<path class="stroke" stroke-width="1"
	d="M691.60 100.00v-24.00"/>
<path d="m10.00 100.00
	h681.60
	M10.00 94.00
	h681.60
	M10.00 88.00
	h681.60
	M10.00 82.00
	h681.60
	M10.00 76.00
	h681.60
	" class="stroke"/>
</g>
<g stroke-width="0.70" style="font:12.00px Helvetica">
<text x="99.40" y="63.60">G</text>
<text x="180.60" y="63.60">D7</text>
<text x="270.30" y="63.60">G</text>
<text x="340.90" y="63.60">C</text>
<text x="427.20" y="63.60">G</text>
<text x="511.70" y="63.60">G7</text>
<text x="585.40" y="63.60">C</text>
<text x="627.30" y="63.60">D7</text>
<defs>
<path id="utclef" class="fill" d="m-50 -90
	c-72 -41 -72 -158 52 -188
	150 -10 220 188 90 256
	-114 52 -275 0 -293 -136
	-15 -181 93 -229 220 -334
	88 -87 79 -133 62 -210
	-51 33 -94 105 -89 186
	17 267 36 374 49 574
	6 96 -19 134 -77 135
	-80 1 -126 -93 -61 -133
	85 -41 133 101 31 105
	23 17 92 37 90 -92
	-10 -223 -39 -342 -50 -617
	0 -90 0 -162 96 -232
	56 72 63 230 22 289
	-74 106 -257 168 -255 316
	9 153 148 185 252 133
	86 -65 29 -192 -80 -176
	-71 12 -105 67 -59 124"/>
<use id="tclef" transform="translate(0,6) scale(0.045)"
	xlink:href="#utclef"/>
</defs>
<use x="22.00" y="94.00" xlink:href="#tclef"/>
<defs>
<path id="usharp" class="fill" d="
	m136 -702
	v890
	h32
	v-890
	m128 840
	h32
	v-888
	h-32
	m-232 286
	v116
	l338 -96
	v-116
	m-338 442
	v116
	l338 -98
	v-114"/>
<use id="sh0" transform="translate(-4,5) scale(0.018)"
	xlink:href="#usharp"/>
</defs>
<use x="37.00" y="76.00" xlink:href="#sh0"/>
<g style="font:bold 16px serif"
	transform="translate(53.00,99.50) scale(1.2,1)">
	<text text-anchor="middle">4</text>
	<text y="-12" text-anchor="middle">3</text>
</g>
<defs>
<ellipse id="hd" rx="4.1" ry="2.9"
	transform="rotate(-20)" class="fill"/>
</defs>
<use x="71.00" y="103.00" xlink:href="#hd"/>
<path d="M74.50 103.00v-21.00" class="stroke"/>
<use x="103.20" y="94.00" xlink:href="#hd"/>
<circle class="fill" cx="110.90" cy="91.00" r="1.2"/>
<path d="M106.70 94.00v-21.00" class="stroke"/>
<use x="134.80" y="91.00" xlink:href="#hd"/>
<path d="M138.30 91.00v-21.00" class="stroke"/>
<path class="fill"
	d="M138.30 70.00c0.6 5.6 9.6 9 5.6 18.4
	1.6 -6 -1.3 -11.6 -5.6 -12.8
"/>
<use x="154.90" y="94.00" xlink:href="#hd"/>
<path d="M158.40 94.00v-21.00" class="stroke"/>
<use x="187.10" y="97.00" xlink:href="#hd"/>
<path d="M190.60 97.00v-21.00" class="stroke"/>
<use x="214.20" y="100.00" xlink:href="#hd"/>
<path d="M217.70 100.00v-21.00" class="stroke"/>
<use x="241.40" y="103.00" xlink:href="#hd"/>
<path d="M244.90 103.00v-21.00" class="stroke"/>
<defs>
<path id="Hd" class="fill" d="m3 -1.6
	c-1 -1.8 -7 1.4 -6 3.2
	1 1.8 7 -1.4 6 -3.2
	m0.5 -0.3
	c2 3.8 -5 7.6 -7 3.8
	-2 -3.8 5 -7.6 7 -3.8"/>
</defs>
<use x="274.10" y="82.00" xlink:href="#Hd"/>
<path d="M270.60 82.00v21.00" class="stroke"/>
<use x="312.30" y="82.00" xlink:href="#hd"/>
<path d="M308.80 82.00v21.00" class="stroke"/>
<use x="344.50" y="79.00" xlink:href="#hd"/>
<path d="M341.00 79.00v21.00" class="stroke"/>
<use x="371.70" y="76.00" xlink:href="#hd"/>
<path d="M368.20 76.00v21.00" class="stroke"/>
<use x="398.80" y="73.00" xlink:href="#hd"/>
<path d="M395.30 73.00v21.00" class="stroke"/>
<use x="431.00" y="82.00" xlink:href="#hd"/>
<path d="M427.50 82.00v21.00" class="stroke"/>
<use x="458.20" y="85.00" xlink:href="#hd"/>
<path d="M454.70 85.00v21.00" class="stroke"/>
<use x="485.40" y="88.00" xlink:href="#hd"/>
<path d="M481.90 88.00v21.00" class="stroke"/>
<use x="518.10" y="91.00" xlink:href="#Hd"/>
<path d="M521.60 91.00v-21.00" class="stroke"/>
<use x="556.20" y="94.00" xlink:href="#hd"/>
<path d="M559.70 94.00v-21.00" class="stroke"/>
<use x="589.00" y="100.00" xlink:href="#Hd"/>
<circle class="fill" cx="597.70" cy="97.00" r="1.2"/>
<path d="M592.50 100.00v-21.00" class="stroke"/>
<use x="633.80" y="100.00" xlink:href="#Hd"/>
<path d="M637.30 100.00v-21.00" class="stroke"/>
<use x="671.90" y="97.00" xlink:href="#hd"/>
<path d="M675.40 97.00v-21.00" class="stroke"/>
<path class="fill"
	d="M592.50 100.00c5.96 5.18 31.87 5.18 37.82 -0.00
	v0.24c-7.09 6.94 -30.73 6.94 -37.82 -0.24"/>
</g>
<g stroke-width="0.70" style="font:12.00px Helvetica">
<path class="stroke" stroke-width="1"
	d="M57.50 171.00v-24.00"/>
<path class="stroke" stroke-width="1"
	d="M150.30 171.00v-24.00"/>
<path class="stroke" stroke-width="1"
	d="M247.20 171.00v-24.00"/>
<path class="stroke" stroke-width="1"
	d="M326.10 171.00v-24.00"/>
<path class="stroke" stroke-width="1"
	d="M423.00 171.00v-24.00"/>
<path class="stroke" stroke-width="1"
	d="M515.60 171.00v-24.00"/>
<path class="stroke" stroke-width="1"
	d="M594.50 171.00v-24.00"/>
<path class="stroke" stroke-width="1"
	d="M643.20 171.00v-24.00"/>
<path class="stroke" stroke-width="1"
	d="M691.60 171.00v-24.00"/>
<path class="stroke" stroke-width="1"
	d="M688.60 171.00v-24.00"/>
<path d="m10.00 171.00
	h681.60
	M10.00 165.00
	h681.60
	M10.00 159.00
	h681.60
	M10.00 153.00
	h681.60
	M10.00 147.00
	h681.60
	" class="stroke"/>
<text x="66.20" y="134.60">G</text>
<text x="156.40" y="134.60">D7</text>
<text x="256.40" y="134.60">G</text>
<text x="335.10" y="134.60">C</text>
<text x="431.70" y="134.60">G</text>
<text x="522.10" y="134.60">D7</text>
<text x="603.70" y="134.60">G</text>
<use x="22.00" y="165.00" xlink:href="#tclef"/>
<use x="37.00" y="147.00" xlink:href="#sh0"/>
<use x="70.00" y="165.00" xlink:href="#hd"/>
<circle class="fill" cx="77.70" cy="162.00" r="1.2"/>
<path d="M73.50 165.00v-21.00" class="stroke"/>
<use x="105.80" y="162.00" xlink:href="#hd"/>
<path d="M109.30 162.00v-21.00" class="stroke"/>
<path class="fill"
	d="M109.30 141.00c0.6 5.6 9.6 9 5.6 18.4
	1.6 -6 -1.3 -11.6 -5.6 -12.8
"/>
<use x="128.20" y="165.00" xlink:href="#hd"/>
<path d="M131.70 165.00v-21.00" class="stroke"/>
<use x="162.80" y="168.00" xlink:href="#hd"/>
<path d="M166.30 168.00v-21.00" class="stroke"/>
<use x="193.90" y="171.00" xlink:href="#hd"/>
<path d="M197.40 171.00v-21.00" class="stroke"/>
<use x="225.00" y="174.00" xlink:href="#hd"/>
<path d="M228.50 174.00v-21.00" class="stroke"/>
<use x="260.20" y="153.00" xlink:href="#Hd"/>
<path d="M256.70 153.00v21.00" class="stroke"/>
<use x="304.00" y="153.00" xlink:href="#hd"/>
<path d="M300.50 153.00v21.00" class="stroke"/>
<use x="338.60" y="150.00" xlink:href="#hd"/>
<path d="M335.10 150.00v21.00" class="stroke"/>
<use x="369.80" y="147.00" xlink:href="#hd"/>
<path d="M366.30 147.00v21.00" class="stroke"/>
<use x="400.90" y="144.00" xlink:href="#hd"/>
<path d="M397.40 144.00v21.00" class="stroke"/>
<use x="435.50" y="153.00" xlink:href="#hd"/>
<circle class="fill" cx="443.20" cy="150.00" r="1.2"/>
<path d="M432.00 153.00v21.00" class="stroke"/>
<use x="471.30" y="156.00" xlink:href="#hd"/>
<path d="M467.80 156.00v21.00" class="stroke"/>
<path class="fill"
	d="M467.80 177.00c0.6 -5.6 9.6 -9 5.6 -18.4
	1.6 6 -1.3 11.6 -5.6 12.8
"/>
<use x="493.40" y="159.00" xlink:href="#hd"/>
<path d="M489.90 159.00v21.00" class="stroke"/>
<use x="528.60" y="162.00" xlink:href="#Hd"/>
<path d="M532.10 162.00v-21.00" class="stroke"/>
<use x="572.40" y="165.00" xlink:href="#hd"/>
<path d="M575.90 165.00v-21.00" class="stroke"/>
<use x="607.50" y="165.00" xlink:href="#Hd"/>
<circle class="fill" cx="616.20" cy="162.00" r="1.2"/>
<path d="M611.00 165.00v-21.00" class="stroke"/>
<use x="656.20" y="165.00" xlink:href="#Hd"/>
<path d="M659.70 165.00v-21.00" class="stroke"/>
<path class="fill"
	d="M611.00 165.00c6.53 5.25 35.15 5.25 41.69 -0.00
	v0.24c-7.78 7.01 -33.90 7.01 -41.69 -0.24"/>
</g>
<g stroke-width="0.70" style="font:12.00px Helvetica">
<path class="stroke" stroke-width="1"
	d="M76.00 242.00v-24.00"/>
<path class="stroke" stroke-width="1"
	d="M164.10 242.00v-24.00"/>
<path class="stroke" stroke-width="1"
	d="M239.20 242.00v-24.00"/>
<path class="stroke" stroke-width="1"
	d="M314.40 242.00v-24.00"/>
<path class="stroke" stroke-width="1"
	d="M406.40 242.00v-24.00"/>
<path class="stroke" stroke-width="1"
	d="M494.50 242.00v-24.00"/>
<path class="stroke" stroke-width="1"
	d="M569.70 242.00v-24.00"/>
<path class="stroke" stroke-width="1"
	d="M616.50 242.00v-24.00"/>
<path class="stroke" stroke-width="1"
	d="M691.60 242.00v-24.00"/>
<path d="m10.00 242.00
	h681.60
	M10.00 236.00
	h681.60
	M10.00 230.00
	h681.60
	M10.00 224.00
	h681.60
	M10.00 218.00
	h681.60
	" class="stroke"/>
<text x="82.00" y="205.60">G7</text>
<text x="173.60" y="205.60">C</text>
<text x="415.10" y="205.60">G</text>
<text x="499.60" y="205.60">Am</text>
<text x="579.10" y="205.60">C</text>
<text x="623.00" y="205.60">D7</text>
<use x="22.00" y="236.00" xlink:href="#tclef"/>
<use x="37.00" y="218.00" xlink:href="#sh0"/>
<use x="55.00" y="224.00" xlink:href="#hd"/>
<path d="M51.50 224.00v21.00" class="stroke"/>
<use x="88.50" y="224.00" xlink:href="#hd"/>
<circle class="fill" cx="96.20" cy="221.00" r="1.2"/>
<path d="M85.00 224.00v21.00" class="stroke"/>
<use x="122.30" y="221.00" xlink:href="#hd"/>
<path d="M118.80 221.00v21.00" class="stroke"/>
<path class="fill"
	d="M118.80 242.00c0.6 -5.6 9.6 -9 5.6 -18.4
	1.6 6 -1.3 11.6 -5.6 12.8
"/>
<use x="143.20" y="218.00" xlink:href="#hd"/>
<path d="M139.70 218.00v21.00" class="stroke"/>
<use x="177.10" y="215.00" xlink:href="#Hd"/>
<path d="M173.60 215.00v21.00" class="stroke"/>
<use x="218.30" y="215.00" xlink:href="#hd"/>
<path d="M214.80 215.00v21.00" class="stroke"/>
<use x="252.20" y="215.00" xlink:href="#Hd"/>
<path d="M248.70 215.00v21.00" class="stroke"/>
<use x="293.40" y="215.00" xlink:href="#hd"/>
<path d="M289.90 215.00v21.00" class="stroke"/>
<use x="326.90" y="215.00" xlink:href="#hd"/>
<path d="M323.40 215.00v21.00" class="stroke"/>
<use x="356.10" y="218.00" xlink:href="#hd"/>
<path d="M352.60 218.00v21.00" class="stroke"/>
<use x="385.40" y="221.00" xlink:href="#hd"/>
<path d="M381.90 221.00v21.00" class="stroke"/>
<use x="418.90" y="224.00" xlink:href="#hd"/>
<circle class="fill" cx="426.60" cy="221.00" r="1.2"/>
<path d="M415.40 224.00v21.00" class="stroke"/>
<use x="452.70" y="227.00" xlink:href="#hd"/>
<path d="M449.20 227.00v21.00" class="stroke"/>
<path class="fill"
	d="M449.20 248.00c0.6 -5.6 9.6 -9 5.6 -18.4
	1.6 6 -1.3 11.6 -5.6 12.8
"/>
<use x="473.60" y="230.00" xlink:href="#hd"/>
<path d="M470.10 230.00v21.00" class="stroke"/>
<use x="507.50" y="233.00" xlink:href="#Hd"/>
<path d="M511.00 233.00v-21.00" class="stroke"/>
<use x="548.70" y="236.00" xlink:href="#hd"/>
<path d="M552.20 236.00v-21.00" class="stroke"/>
<use x="582.70" y="242.00" xlink:href="#Hd"/>
<circle class="fill" cx="591.40" cy="239.00" r="1.2"/>
<path d="M586.20 242.00v-21.00" class="stroke"/>
<use x="629.50" y="242.00" xlink:href="#Hd"/>
<path d="M633.00 242.00v-21.00" class="stroke"/>
<use x="670.60" y="239.00" xlink:href="#hd"/>
<path d="M674.10 239.00v-21.00" class="stroke"/>
<path class="fill"
	d="M586.20 242.00c6.27 5.22 33.54 5.22 39.81 -0.00
	v0.24c-7.46 6.98 -32.35 6.98 -39.81 -0.24"/>
</g>
<g stroke-width="0.70" style="font:12.00px Helvetica">
<path class="stroke" stroke-width="1"
	d="M64.50 313.00v-24.00"/>
<path class="stroke" stroke-width="1"
	d="M156.30 313.00v-24.00"/>
<path class="stroke" stroke-width="1"
	d="M252.00 313.00v-24.00"/>
<path class="stroke" stroke-width="1"
	d="M330.00 313.00v-24.00"/>
<path class="stroke" stroke-width="1"
	d="M425.70 313.00v-24.00"/>
<path class="stroke" stroke-width="1"
	d="M517.20 313.00v-24.00"/>
<path class="stroke" stroke-width="1"
	d="M595.30 313.00v-24.00"/>
<path class="stroke" stroke-width="1"
	d="M643.50 313.00v-24.00"/>
<path class="stroke" stroke-width="3"
	d="M690.10 313.00v-24.00"/>
<path class="stroke" stroke-width="1"
	d="M685.60 313.00v-24.00"/>
<path d="m10.00 313.00
	h681.60
	M10.00 307.00
	h681.60
	M10.00 301.00
	h681.60
	M10.00 295.00
	h681.60
	M10.00 289.00
	h681.60
	" class="stroke"/>
<text x="73.20" y="276.60">G</text>
<text x="162.40" y="276.60">D7</text>
<text x="261.20" y="276.60">G</text>
<text x="339.00" y="276.60">C</text>
<text x="434.40" y="276.60">G</text>
<text x="523.80" y="276.60">D7</text>
<text x="604.40" y="276.60">G</text>
<use x="22.00" y="307.00" xlink:href="#tclef"/>
<use x="37.00" y="289.00" xlink:href="#sh0"/>
<use x="77.00" y="307.00" xlink:href="#hd"/>
<circle class="fill" cx="84.70" cy="304.00" r="1.2"/>
<path d="M80.50 307.00v-21.00" class="stroke"/>
<use x="112.30" y="304.00" xlink:href="#hd"/>
<path d="M115.80 304.00v-21.00" class="stroke"/>
<path class="fill"
	d="M115.80 283.00c0.6 5.6 9.6 9 5.6 18.4
	1.6 -6 -1.3 -11.6 -5.6 -12.8
"/>
<use x="134.50" y="307.00" xlink:href="#hd"/>
<path d="M138.00 307.00v-21.00" class="stroke"/>
<use x="168.80" y="310.00" xlink:href="#hd"/>
<path d="M172.30 310.00v-21.00" class="stroke"/>
<use x="199.50" y="313.00" xlink:href="#hd"/>
<path d="M203.00 313.00v-21.00" class="stroke"/>
<use x="230.10" y="316.00" xlink:href="#hd"/>
<path d="M233.60 316.00v-21.00" class="stroke"/>
<use x="265.00" y="295.00" xlink:href="#Hd"/>
<path d="M261.50 295.00v21.00" class="stroke"/>
<use x="308.20" y="295.00" xlink:href="#hd"/>
<path d="M304.70 295.00v21.00" class="stroke"/>
<use x="342.50" y="292.00" xlink:href="#hd"/>
<path d="M339.00 292.00v21.00" class="stroke"/>
<use x="373.20" y="289.00" xlink:href="#hd"/>
<path d="M369.70 289.00v21.00" class="stroke"/>
<use x="403.80" y="286.00" xlink:href="#hd"/>
<path d="M400.30 286.00v21.00" class="stroke"/>
<use x="438.20" y="295.00" xlink:href="#hd"/>
<circle class="fill" cx="445.90" cy="292.00" r="1.2"/>
<path d="M434.70 295.00v21.00" class="stroke"/>
<use x="473.50" y="298.00" xlink:href="#hd"/>
<path d="M470.00 298.00v21.00" class="stroke"/>
<path class="fill"
	d="M470.00 319.00c0.6 -5.6 9.6 -9 5.6 -18.4
	1.6 6 -1.3 11.6 -5.6 12.8
"/>
<use x="495.40" y="301.00" xlink:href="#hd"/>
<path d="M491.90 301.00v21.00" class="stroke"/>
<use x="530.20" y="304.00" xlink:href="#Hd"/>
<path d="M533.70 304.00v-21.00" class="stroke"/>
<use x="573.40" y="307.00" xlink:href="#hd"/>
<path d="M576.90 307.00v-21.00" class="stroke"/>
<use x="608.30" y="307.00" xlink:href="#Hd"/>
<circle class="fill" cx="617.00" cy="304.00" r="1.2"/>
<path d="M611.80 307.00v-21.00" class="stroke"/>
<use x="656.50" y="307.00" xlink:href="#Hd"/>
<path d="M660.00 307.00v-21.00" class="stroke"/>
<path class="fill"
	d="M611.80 307.00c6.48 5.24 34.79 5.24 41.26 -0.00
	v0.24c-7.71 7.00 -33.55 7.00 -41.26 -0.24"/>
</g>
</svg>
