<?xml version="1.0" standalone="no"?>
<!DOCTYPE svg PUBLIC "-//W3C//DTD SVG 1.1//EN"
	"http://www.w3.org/Graphics/SVG/1.1/DTD/svg11.dtd">
<svg xmlns="http://www.w3.org/2000/svg" version="1.1"
	xmlns:xlink="http://www.w3.org/1999/xlink"
	color="black"
	width="701.60px" height="446.00px">
<style type="text/css">
.fill {fill: currentColor}
.stroke {stroke: currentColor; fill: none}
text{white-space: pre}
</style>
<title>/mnt/ed617834-7c4b-4156-8731-6c17b22f12c7/tims_code/sphinx-tunes/source/ (1) tune 1</title>
<!-- Creator: abcm2ps-8.14.6 -->
<!-- CreationDate: Aug  4, 2021 07:48 -->
<!-- CommandLine: -g '/mnt/ed617834-7c4b-4156-8731-6c17b22f12c7/tims_code/sphinx-tunes/source/_abcfiles/_I'm not fed up with the Pacific Ocean.abc' -O '/mnt/ed617834-7c4b-4156-8731-6c17b22f12c7/tims_code/sphinx-tunes/source/_abcfiles/I'm not fed up with the Pacific Ocean.svg' -->
<g stroke-width="0.70" style="font:italic 14.00px Times">
<text x="691.60" y="20.00" text-anchor="end">Ola Bäckström (arr for NSP by Tim Pillinger)</text>
</g>
<g stroke-width="0.70" style="font:italic 14.00px Times">
<path class="stroke" stroke-width="1"
	d="M94.20 73.00v-24.00"/>
<path class="stroke" stroke-width="1"
	d="M247.90 73.00v-24.00"/>
<path class="stroke" stroke-width="1"
	d="M401.50 73.00v-24.00"/>
<path class="stroke" stroke-width="1"
	d="M561.60 73.00v-24.00"/>
<path class="stroke" stroke-width="1"
	d="M691.60 73.00v-24.00"/>
<path d="m10.00 73.00
	h681.60
	M10.00 67.00
	h681.60
	M10.00 61.00
	h681.60
	M10.00 55.00
	h681.60
	M10.00 49.00
	h681.60
	" class="stroke"/>
<defs>
<path id="utclef" class="fill" d="m-50 -90
	c-72 -41 -72 -158 52 -188
	150 -10 220 188 90 256
	-114 52 -275 0 -293 -136
	-15 -181 93 -229 220 -334
	88 -87 79 -133 62 -210
	-51 33 -94 105 -89 186
	17 267 36 374 49 574
	6 96 -19 134 -77 135
	-80 1 -126 -93 -61 -133
	85 -41 133 101 31 105
	23 17 92 37 90 -92
	-10 -223 -39 -342 -50 -617
	0 -90 0 -162 96 -232
	56 72 63 230 22 289
	-74 106 -257 168 -255 316
	9 153 148 185 252 133
	86 -65 29 -192 -80 -176
	-71 12 -105 67 -59 124"/>
<use id="tclef" transform="translate(0,6) scale(0.045)"
	xlink:href="#utclef"/>
</defs>
<use x="22.00" y="67.00" xlink:href="#tclef"/>
<defs>
<path id="usharp" class="fill" d="
	m136 -702
	v890
	h32
	v-890
	m128 840
	h32
	v-888
	h-32
	m-232 286
	v116
	l338 -96
	v-116
	m-338 442
	v116
	l338 -98
	v-114"/>
<use id="sh0" transform="translate(-4,5) scale(0.018)"
	xlink:href="#usharp"/>
</defs>
<use x="37.00" y="49.00" xlink:href="#sh0"/>
<g style="font:bold 16px serif"
	transform="translate(53.00,72.50) scale(1.2,1)">
	<text text-anchor="middle">4</text>
	<text y="-12" text-anchor="middle">4</text>
</g>
<defs>
<ellipse id="hd" rx="4.1" ry="2.9"
	transform="rotate(-20)" class="fill"/>
</defs>
<use x="71.00" y="64.00" xlink:href="#hd"/>
<path d="M74.50 64.00v-21.00" class="stroke"/>
<use x="106.70" y="61.00" xlink:href="#hd"/>
<circle class="fill" cx="114.40" cy="58.00" r="1.2"/>
<path d="M110.20 61.00v-21.00" class="stroke"/>
<use x="144.30" y="61.00" xlink:href="#hd"/>
<path d="M147.80 61.00v-21.00" class="stroke"/>
<path class="fill"
	d="M147.80 40.00c0.6 5.6 9.6 9 5.6 18.4
	1.6 -6 -1.3 -11.6 -5.6 -12.8
"/>
<path class="fill"
	d="M171.40 38.80l63.80 0.00v3.20l-63.80 -0.00"/>
<use x="168.20" y="61.00" xlink:href="#hd"/>
<path d="M171.70 61.00v-21.20" class="stroke"/>
<use x="189.20" y="67.00" xlink:href="#hd"/>
<path d="M192.70 67.00v-27.20" class="stroke"/>
<use x="210.30" y="64.00" xlink:href="#hd"/>
<path d="M213.80 64.00v-24.20" class="stroke"/>
<use x="231.30" y="58.00" xlink:href="#hd"/>
<path d="M234.80 58.00v-18.20" class="stroke"/>
<use x="260.40" y="61.00" xlink:href="#hd"/>
<circle class="fill" cx="268.10" cy="58.00" r="1.2"/>
<path d="M263.90 61.00v-21.00" class="stroke"/>
<use x="298.00" y="61.00" xlink:href="#hd"/>
<path d="M301.50 61.00v-21.00" class="stroke"/>
<path class="fill"
	d="M301.50 40.00c0.6 5.6 9.6 9 5.6 18.4
	1.6 -6 -1.3 -11.6 -5.6 -12.8
"/>
<path class="fill"
	d="M325.00 38.80l63.80 0.00v3.20l-63.80 -0.00"/>
<use x="321.80" y="61.00" xlink:href="#hd"/>
<path d="M325.30 61.00v-21.20" class="stroke"/>
<use x="342.90" y="67.00" xlink:href="#hd"/>
<path d="M346.40 67.00v-27.20" class="stroke"/>
<use x="363.90" y="64.00" xlink:href="#hd"/>
<path d="M367.40 64.00v-24.20" class="stroke"/>
<use x="384.90" y="58.00" xlink:href="#hd"/>
<path d="M388.40 58.00v-18.20" class="stroke"/>
<use x="414.00" y="61.00" xlink:href="#hd"/>
<path d="M417.50 61.00v-21.00" class="stroke"/>
<path class="fill"
	d="M450.00 42.70l21.70 -2.40v3.20l-21.70 2.40"/>
<use x="446.80" y="64.00" xlink:href="#hd"/>
<path d="M450.30 64.00v-20.30" class="stroke"/>
<use x="467.80" y="61.00" xlink:href="#hd"/>
<path d="M471.30 61.00v-19.70" class="stroke"/>
<use x="491.20" y="67.00" xlink:href="#hd"/>
<path d="M494.70 67.00v-21.00" class="stroke"/>
<path class="fill"
	d="M527.10 48.70l21.70 -2.40v3.20l-21.70 2.40"/>
<use x="524.00" y="70.00" xlink:href="#hd"/>
<path d="M527.50 70.00v-20.30" class="stroke"/>
<use x="545.00" y="67.00" xlink:href="#hd"/>
<path d="M548.50 67.00v-19.70" class="stroke"/>
<use x="574.10" y="73.00" xlink:href="#hd"/>
<circle class="fill" cx="581.80" cy="70.00" r="1.2"/>
<path d="M577.60 73.00v-21.00" class="stroke"/>
<use x="611.70" y="73.00" xlink:href="#hd"/>
<path d="M615.20 73.00v-21.00" class="stroke"/>
<path class="fill"
	d="M615.20 52.00c0.6 5.6 9.6 9 5.6 18.4
	1.6 -6 -1.3 -11.6 -5.6 -12.8
"/>
<use x="635.60" y="73.00" xlink:href="#hd"/>
<path d="M639.10 73.00v-21.00" class="stroke"/>
<use x="668.40" y="76.00" xlink:href="#hd"/>
<path d="M671.90 76.00v-21.00" class="stroke"/>
<path class="fill"
	d="M147.80 61.00c2.66 4.80 14.22 4.80 16.88 -0.00
	v0.22c-3.16 6.59 -13.71 6.59 -16.88 -0.22"/>
<path class="fill"
	d="M301.50 61.00c2.66 4.80 14.22 4.80 16.88 -0.00
	v0.22c-3.16 6.59 -13.71 6.59 -16.88 -0.22"/>
<path class="fill"
	d="M615.20 73.00c2.66 4.80 14.22 4.80 16.88 -0.00
	v0.22c-3.16 6.59 -13.71 6.59 -16.88 -0.22"/>
</g>
<g stroke-width="0.70" style="font:italic 14.00px Times">
<path class="stroke" stroke-width="1"
	d="M213.90 143.00v-24.00"/>
<path class="stroke" stroke-width="1"
	d="M386.00 143.00v-24.00"/>
<path class="stroke" stroke-width="1"
	d="M579.30 143.00v-24.00"/>
<path class="stroke" stroke-width="3"
	d="M690.10 143.00v-24.00"/>
<path class="stroke" stroke-width="1"
	d="M685.60 143.00v-24.00"/>
<defs>
<g id="rdots" class="fill">
	<circle cx="0" cy="-9" r="1.2"/>
	<circle cx="0" cy="-15" r="1.2"/>
</g>
</defs>
<use x="681.60" y="143.00" xlink:href="#rdots"/>
<path d="m10.00 143.00
	h681.60
	M10.00 137.00
	h681.60
	M10.00 131.00
	h681.60
	M10.00 125.00
	h681.60
	M10.00 119.00
	h681.60
	" class="stroke"/>
<use x="22.00" y="137.00" xlink:href="#tclef"/>
<use x="37.00" y="119.00" xlink:href="#sh0"/>
<use x="55.00" y="131.00" xlink:href="#hd"/>
<circle class="fill" cx="62.70" cy="128.00" r="1.2"/>
<path d="M58.50 131.00v-21.00" class="stroke"/>
<use x="97.50" y="131.00" xlink:href="#hd"/>
<path d="M101.00 131.00v-21.00" class="stroke"/>
<path class="fill"
	d="M101.00 110.00c0.6 5.6 9.6 9 5.6 18.4
	1.6 -6 -1.3 -11.6 -5.6 -12.8
"/>
<path class="fill"
	d="M127.20 108.80l72.00 0.00v3.20l-72.00 -0.00"/>
<use x="124.00" y="131.00" xlink:href="#hd"/>
<path d="M127.50 131.00v-21.20" class="stroke"/>
<use x="147.80" y="137.00" xlink:href="#hd"/>
<path d="M151.30 137.00v-27.20" class="stroke"/>
<use x="171.60" y="134.00" xlink:href="#hd"/>
<path d="M175.10 134.00v-24.20" class="stroke"/>
<use x="195.30" y="128.00" xlink:href="#hd"/>
<path d="M198.80 128.00v-18.20" class="stroke"/>
<use x="227.20" y="131.00" xlink:href="#hd"/>
<circle class="fill" cx="234.90" cy="128.00" r="1.2"/>
<path d="M230.70 131.00v-21.00" class="stroke"/>
<use x="269.70" y="131.00" xlink:href="#hd"/>
<path d="M273.20 131.00v-21.00" class="stroke"/>
<path class="fill"
	d="M273.20 110.00c0.6 5.6 9.6 9 5.6 18.4
	1.6 -6 -1.3 -11.6 -5.6 -12.8
"/>
<path class="fill"
	d="M299.40 108.80l72.00 0.00v3.20l-72.00 -0.00"/>
<use x="296.20" y="131.00" xlink:href="#hd"/>
<path d="M299.70 131.00v-21.20" class="stroke"/>
<use x="320.00" y="137.00" xlink:href="#hd"/>
<path d="M323.50 137.00v-27.20" class="stroke"/>
<use x="343.70" y="134.00" xlink:href="#hd"/>
<path d="M347.20 134.00v-24.20" class="stroke"/>
<use x="367.50" y="128.00" xlink:href="#hd"/>
<path d="M371.00 128.00v-18.20" class="stroke"/>
<use x="399.30" y="131.00" xlink:href="#hd"/>
<path d="M402.80 131.00v-21.00" class="stroke"/>
<path class="fill"
	d="M439.80 113.30l24.50 2.50v3.20l-24.50 -2.50"/>
<use x="436.60" y="134.00" xlink:href="#hd"/>
<path d="M440.10 134.00v-19.70" class="stroke"/>
<use x="460.40" y="137.00" xlink:href="#hd"/>
<path d="M463.90 137.00v-20.30" class="stroke"/>
<path class="fill"
	d="M489.90 118.70l24.50 -2.50v3.20l-24.50 2.50"/>
<use x="486.80" y="140.00" xlink:href="#hd"/>
<path d="M490.30 140.00v-20.30" class="stroke"/>
<use x="510.60" y="137.00" xlink:href="#hd"/>
<path d="M514.10 137.00v-19.70" class="stroke"/>
<path class="fill"
	d="M540.10 113.90l24.50 4.10v3.20l-24.50 -4.10"/>
<use x="537.00" y="134.00" xlink:href="#hd"/>
<path d="M540.50 134.00v-19.00" class="stroke"/>
<use x="560.70" y="140.00" xlink:href="#hd"/>
<path d="M564.20 140.00v-21.00" class="stroke"/>
<use x="592.50" y="137.00" xlink:href="#hd"/>
<circle class="fill" cx="600.20" cy="134.00" r="1.2"/>
<path d="M596.00 137.00v-21.00" class="stroke"/>
<use x="635.00" y="137.00" xlink:href="#hd"/>
<path d="M638.50 137.00v-21.00" class="stroke"/>
<path class="fill"
	d="M638.50 116.00c0.6 5.6 9.6 9 5.6 18.4
	1.6 -6 -1.3 -11.6 -5.6 -12.8
"/>
<use x="661.60" y="137.00" xlink:href="#hd"/>
<path d="M665.10 137.00v-21.00" class="stroke"/>
<path class="fill"
	d="M101.00 131.00c3.08 4.85 16.45 4.85 19.53 -0.00
	v0.22c-3.66 6.63 -15.87 6.63 -19.53 -0.22"/>
<path class="fill"
	d="M273.20 131.00c3.08 4.85 16.45 4.85 19.53 -0.00
	v0.22c-3.66 6.63 -15.87 6.63 -19.53 -0.22"/>
<path class="fill"
	d="M638.50 137.00c3.08 4.85 16.45 4.85 19.53 -0.00
	v0.22c-3.66 6.63 -15.87 6.63 -19.53 -0.22"/>
</g>
<g stroke-width="0.70" style="font:italic 14.00px Times">
<use x="61.50" y="213.00" xlink:href="#rdots"/>
<path class="stroke" stroke-width="1"
	d="M57.50 213.00v-24.00"/>
<path class="stroke" stroke-width="3"
	d="M53.00 213.00v-24.00"/>
<path class="stroke" stroke-width="1"
	d="M96.70 213.00v-24.00"/>
<path class="stroke" stroke-width="1"
	d="M253.40 213.00v-24.00"/>
<path class="stroke" stroke-width="1"
	d="M412.10 213.00v-24.00"/>
<path class="stroke" stroke-width="1"
	d="M568.80 213.00v-24.00"/>
<path class="stroke" stroke-width="1"
	d="M691.60 213.00v-24.00"/>
<path d="m10.00 213.00
	h681.60
	M10.00 207.00
	h681.60
	M10.00 201.00
	h681.60
	M10.00 195.00
	h681.60
	M10.00 189.00
	h681.60
	" class="stroke"/>
<use x="22.00" y="207.00" xlink:href="#tclef"/>
<use x="37.00" y="189.00" xlink:href="#sh0"/>
<use x="75.00" y="207.00" xlink:href="#hd"/>
<path d="M78.50 207.00v-21.00" class="stroke"/>
<use x="109.20" y="195.00" xlink:href="#hd"/>
<path d="M105.70 195.00v21.00" class="stroke"/>
<path class="fill"
	d="M135.90 219.30l20.30 2.40v-3.20l-20.30 -2.40"/>
<use x="139.70" y="198.00" xlink:href="#hd"/>
<path d="M136.20 198.00v20.40" class="stroke"/>
<use x="159.30" y="201.00" xlink:href="#hd"/>
<path d="M155.80 201.00v19.60" class="stroke"/>
<path class="fill"
	d="M182.10 186.00l59.50 0.00v3.20l-59.50 -0.00"/>
<use x="179.00" y="204.00" xlink:href="#hd"/>
<path d="M182.50 204.00v-17.00" class="stroke"/>
<use x="198.60" y="207.00" xlink:href="#hd"/>
<path d="M202.10 207.00v-20.00" class="stroke"/>
<use x="218.20" y="210.00" xlink:href="#hd"/>
<path d="M221.70 210.00v-23.00" class="stroke"/>
<use x="237.80" y="207.00" xlink:href="#hd"/>
<path d="M241.30 207.00v-20.00" class="stroke"/>
<use x="265.90" y="186.00" xlink:href="#hd"/>
<path d="M262.40 186.00v21.00" class="stroke"/>
<path class="fill"
	d="M292.50 209.70l20.30 -2.40v-3.20l-20.30 2.40"/>
<use x="296.40" y="189.00" xlink:href="#hd"/>
<path d="M292.90 189.00v19.60" class="stroke"/>
<use x="316.00" y="186.00" xlink:href="#hd"/>
<path d="M312.50 186.00v20.40" class="stroke"/>
<path class="fill"
	d="M333.90 214.00l59.50 7.00v-3.20l-59.50 -7.00"/>
<use x="337.70" y="192.00" xlink:href="#hd"/>
<path d="M334.20 192.00v21.10" class="stroke"/>
<use x="357.30" y="195.00" xlink:href="#hd"/>
<path d="M353.80 195.00v20.40" class="stroke"/>
<use x="377.00" y="198.00" xlink:href="#hd"/>
<path d="M373.50 198.00v19.60" class="stroke"/>
<use x="396.60" y="201.00" xlink:href="#hd"/>
<path d="M393.10 201.00v18.90" class="stroke"/>
<use x="424.60" y="195.00" xlink:href="#hd"/>
<path d="M421.10 195.00v21.00" class="stroke"/>
<path class="fill"
	d="M451.30 219.30l20.30 2.40v-3.20l-20.30 -2.40"/>
<use x="455.20" y="198.00" xlink:href="#hd"/>
<path d="M451.70 198.00v20.40" class="stroke"/>
<use x="474.80" y="201.00" xlink:href="#hd"/>
<path d="M471.30 201.00v19.60" class="stroke"/>
<path class="fill"
	d="M497.50 186.00l59.50 0.00v3.20l-59.50 -0.00"/>
<use x="494.40" y="204.00" xlink:href="#hd"/>
<path d="M497.90 204.00v-17.00" class="stroke"/>
<use x="514.00" y="207.00" xlink:href="#hd"/>
<path d="M517.50 207.00v-20.00" class="stroke"/>
<use x="533.60" y="210.00" xlink:href="#hd"/>
<path d="M537.10 210.00v-23.00" class="stroke"/>
<use x="553.20" y="207.00" xlink:href="#hd"/>
<path d="M556.70 207.00v-20.00" class="stroke"/>
<use x="581.30" y="213.00" xlink:href="#hd"/>
<circle class="fill" cx="589.00" cy="210.00" r="1.2"/>
<path d="M584.80 213.00v-21.00" class="stroke"/>
<use x="616.40" y="213.00" xlink:href="#hd"/>
<path d="M619.90 213.00v-21.00" class="stroke"/>
<path class="fill"
	d="M619.90 192.00c0.6 5.6 9.6 9 5.6 18.4
	1.6 -6 -1.3 -11.6 -5.6 -12.8
"/>
<use x="639.40" y="213.00" xlink:href="#hd"/>
<path d="M642.90 213.00v-21.00" class="stroke"/>
<use x="669.90" y="216.00" xlink:href="#hd"/>
<path d="M673.40 216.00v-21.00" class="stroke"/>
<path class="fill"
	d="M619.90 213.00c2.52 4.79 13.48 4.79 16.00 -0.00
	v0.22c-3.00 6.57 -13.00 6.57 -16.00 -0.22"/>
</g>
<g stroke-width="0.70" style="font:italic 14.00px Times">
<path class="stroke" stroke-width="1"
	d="M213.50 283.00v-24.00"/>
<path class="stroke" stroke-width="1"
	d="M386.80 283.00v-24.00"/>
<path class="stroke" stroke-width="1"
	d="M557.80 283.00v-24.00"/>
<path class="stroke" stroke-width="3"
	d="M660.20 283.00v-24.00"/>
<path class="stroke" stroke-width="1"
	d="M655.70 283.00v-24.00"/>
<use x="651.70" y="283.00" xlink:href="#rdots"/>
<path d="m10.00 283.00
	h681.60
	M10.00 277.00
	h681.60
	M10.00 271.00
	h681.60
	M10.00 265.00
	h681.60
	M10.00 259.00
	h681.60
	" class="stroke"/>
<use x="22.00" y="277.00" xlink:href="#tclef"/>
<use x="37.00" y="259.00" xlink:href="#sh0"/>
<use x="55.00" y="265.00" xlink:href="#hd"/>
<path d="M51.50 265.00v21.00" class="stroke"/>
<path class="fill"
	d="M84.60 289.30l22.20 2.40v-3.20l-22.20 -2.40"/>
<use x="88.50" y="268.00" xlink:href="#hd"/>
<path d="M85.00 268.00v20.30" class="stroke"/>
<use x="110.00" y="271.00" xlink:href="#hd"/>
<path d="M106.50 271.00v19.70" class="stroke"/>
<path class="fill"
	d="M134.80 256.00l65.40 0.00v3.20l-65.40 -0.00"/>
<use x="131.60" y="274.00" xlink:href="#hd"/>
<path d="M135.10 274.00v-17.00" class="stroke"/>
<use x="153.20" y="277.00" xlink:href="#hd"/>
<path d="M156.70 277.00v-20.00" class="stroke"/>
<use x="174.70" y="280.00" xlink:href="#hd"/>
<path d="M178.20 280.00v-23.00" class="stroke"/>
<use x="196.30" y="277.00" xlink:href="#hd"/>
<path d="M199.80 277.00v-20.00" class="stroke"/>
<use x="226.00" y="256.00" xlink:href="#hd"/>
<path d="M222.50 256.00v21.00" class="stroke"/>
<path class="fill"
	d="M255.70 279.70l22.20 -2.40v-3.20l-22.20 2.40"/>
<use x="259.50" y="259.00" xlink:href="#hd"/>
<path d="M256.00 259.00v19.70" class="stroke"/>
<use x="281.10" y="256.00" xlink:href="#hd"/>
<path d="M277.60 256.00v20.30" class="stroke"/>
<path class="fill"
	d="M301.10 283.90l65.40 7.10v-3.20l-65.40 -7.10"/>
<use x="304.90" y="262.00" xlink:href="#hd"/>
<path d="M301.40 262.00v21.00" class="stroke"/>
<use x="326.50" y="265.00" xlink:href="#hd"/>
<path d="M323.00 265.00v20.30" class="stroke"/>
<use x="348.10" y="268.00" xlink:href="#hd"/>
<path d="M344.60 268.00v19.70" class="stroke"/>
<use x="369.60" y="271.00" xlink:href="#hd"/>
<path d="M366.10 271.00v19.00" class="stroke"/>
<use x="399.40" y="265.00" xlink:href="#hd"/>
<path d="M395.90 265.00v21.00" class="stroke"/>
<path class="fill"
	d="M429.00 289.30l22.20 2.40v-3.20l-22.20 -2.40"/>
<use x="432.80" y="268.00" xlink:href="#hd"/>
<path d="M429.30 268.00v20.30" class="stroke"/>
<use x="454.40" y="271.00" xlink:href="#hd"/>
<path d="M450.90 271.00v19.70" class="stroke"/>
<path class="fill"
	d="M479.10 256.00l65.40 0.00v3.20l-65.40 -0.00"/>
<use x="476.00" y="274.00" xlink:href="#hd"/>
<path d="M479.50 274.00v-17.00" class="stroke"/>
<use x="497.50" y="277.00" xlink:href="#hd"/>
<path d="M501.00 277.00v-20.00" class="stroke"/>
<use x="519.10" y="280.00" xlink:href="#hd"/>
<path d="M522.60 280.00v-23.00" class="stroke"/>
<use x="540.60" y="274.00" xlink:href="#hd"/>
<path d="M544.10 274.00v-17.00" class="stroke"/>
<use x="570.40" y="277.00" xlink:href="#hd"/>
<circle class="fill" cx="578.10" cy="274.00" r="1.2"/>
<path d="M573.90 277.00v-21.00" class="stroke"/>
<use x="609.00" y="277.00" xlink:href="#hd"/>
<path d="M612.50 277.00v-21.00" class="stroke"/>
<path class="fill"
	d="M612.50 256.00c0.6 5.6 9.6 9 5.6 18.4
	1.6 -6 -1.3 -11.6 -5.6 -12.8
"/>
<use x="633.90" y="277.00" xlink:href="#hd"/>
<path d="M637.40 277.00v-21.00" class="stroke"/>
<use x="672.70" y="259.00" xlink:href="#sh0"/>
<use x="678.20" y="268.00" xlink:href="#sh0"/>
<path class="fill"
	d="M612.50 277.00c2.83 4.82 15.11 4.82 17.94 -0.00
	v0.22c-3.36 6.60 -14.58 6.60 -17.94 -0.22"/>
</g>
<g stroke-width="0.70" style="font:italic 14.00px Times">
<use x="67.00" y="353.00" xlink:href="#rdots"/>
<path class="stroke" stroke-width="1"
	d="M63.00 353.00v-24.00"/>
<path class="stroke" stroke-width="3"
	d="M58.50 353.00v-24.00"/>
<path class="stroke" stroke-width="1"
	d="M103.50 353.00v-24.00"/>
<path class="stroke" stroke-width="1"
	d="M255.30 353.00v-24.00"/>
<path class="stroke" stroke-width="1"
	d="M413.60 353.00v-24.00"/>
<path class="stroke" stroke-width="1"
	d="M542.00 353.00v-24.00"/>
<path class="stroke" stroke-width="1"
	d="M691.60 353.00v-24.00"/>
<path d="m10.00 353.00
	h681.60
	M10.00 347.00
	h681.60
	M10.00 341.00
	h681.60
	M10.00 335.00
	h681.60
	M10.00 329.00
	h681.60
	" class="stroke"/>
<use x="22.00" y="347.00" xlink:href="#tclef"/>
<use x="37.00" y="329.00" xlink:href="#sh0"/>
<use x="42.50" y="338.00" xlink:href="#sh0"/>
<use x="80.50" y="344.00" xlink:href="#hd"/>
<path d="M84.00 344.00v-21.00" class="stroke"/>
<use x="116.00" y="329.00" xlink:href="#hd"/>
<circle class="fill" cx="123.70" cy="326.00" r="1.2"/>
<path d="M112.50 329.00v21.00" class="stroke"/>
<use x="153.10" y="329.00" xlink:href="#hd"/>
<path d="M149.60 329.00v21.00" class="stroke"/>
<path class="fill"
	d="M149.60 350.00c0.6 -5.6 9.6 -9 5.6 -18.4
	1.6 6 -1.3 11.6 -5.6 12.8
"/>
<path class="fill"
	d="M172.70 350.00l63.00 0.00v-3.20l-63.00 -0.00"/>
<use x="176.60" y="329.00" xlink:href="#hd"/>
<path d="M173.10 329.00v20.00" class="stroke"/>
<use x="197.30" y="329.00" xlink:href="#hd"/>
<path d="M193.80 329.00v20.00" class="stroke"/>
<use x="218.10" y="332.00" xlink:href="#hd"/>
<path d="M214.60 332.00v17.00" class="stroke"/>
<use x="238.90" y="326.00" xlink:href="#hd"/>
<path d="M235.40 326.00v23.00" class="stroke"/>
<use x="267.80" y="329.00" xlink:href="#hd"/>
<path d="M264.30 329.00v21.00" class="stroke"/>
<path class="fill"
	d="M296.30 352.70l21.50 -2.40v-3.20l-21.50 2.40"/>
<use x="300.20" y="332.00" xlink:href="#hd"/>
<path d="M296.70 332.00v19.70" class="stroke"/>
<use x="321.00" y="329.00" xlink:href="#hd"/>
<path d="M317.50 329.00v20.30" class="stroke"/>
<use x="344.00" y="335.00" xlink:href="#hd"/>
<path d="M340.50 335.00v21.00" class="stroke"/>
<path class="fill"
	d="M372.60 358.70l21.50 -2.40v-3.20l-21.50 2.40"/>
<use x="376.40" y="338.00" xlink:href="#hd"/>
<path d="M372.90 338.00v19.70" class="stroke"/>
<use x="397.20" y="335.00" xlink:href="#hd"/>
<path d="M393.70 335.00v20.30" class="stroke"/>
<use x="426.10" y="341.00" xlink:href="#hd"/>
<circle class="fill" cx="433.80" cy="338.00" r="1.2"/>
<path d="M422.60 341.00v21.00" class="stroke"/>
<use x="463.20" y="341.00" xlink:href="#hd"/>
<path d="M459.70 341.00v21.00" class="stroke"/>
<path class="fill"
	d="M459.70 362.00c0.6 -5.6 9.6 -9 5.6 -18.4
	1.6 6 -1.3 11.6 -5.6 12.8
"/>
<use x="486.70" y="341.00" xlink:href="#hd"/>
<path d="M483.20 341.00v21.00" class="stroke"/>
<use x="519.10" y="338.00" xlink:href="#hd"/>
<path d="M515.60 338.00v21.00" class="stroke"/>
<use x="554.50" y="341.00" xlink:href="#hd"/>
<circle class="fill" cx="562.20" cy="338.00" r="1.2"/>
<path d="M551.00 341.00v21.00" class="stroke"/>
<use x="591.70" y="341.00" xlink:href="#hd"/>
<path d="M588.20 341.00v21.00" class="stroke"/>
<path class="fill"
	d="M588.20 362.00c0.6 -5.6 9.6 -9 5.6 -18.4
	1.6 6 -1.3 11.6 -5.6 12.8
"/>
<path class="fill"
	d="M616.00 321.00l63.00 7.10v3.20l-63.00 -7.10"/>
<use x="612.90" y="341.00" xlink:href="#hd"/>
<path d="M616.40 341.00v-19.00" class="stroke"/>
<use x="633.70" y="344.00" xlink:href="#hd"/>
<path d="M637.20 344.00v-19.70" class="stroke"/>
<use x="654.40" y="347.00" xlink:href="#hd"/>
<path d="M657.90 347.00v-20.30" class="stroke"/>
<use x="675.20" y="350.00" xlink:href="#hd"/>
<path d="M678.70 350.00v-21.00" class="stroke"/>
<path class="fill"
	d="M156.60 329.00c2.59 -4.80 13.86 -4.80 16.45 -0.00
	v-0.22c-3.08 -6.58 -13.36 -6.58 -16.45 0.22"/>
<path class="fill"
	d="M466.70 341.00c2.59 -4.80 13.86 -4.80 16.45 -0.00
	v-0.22c-3.08 -6.58 -13.36 -6.58 -16.45 0.22"/>
<path class="fill"
	d="M595.20 341.00c2.23 -4.76 11.95 -4.76 14.18 -0.00
	v-0.21c-2.66 -6.54 -11.52 -6.54 -14.18 0.21"/>
</g>
<g stroke-width="0.70" style="font:italic 14.00px Times">
<path class="stroke" stroke-width="1"
	d="M225.60 423.00v-24.00"/>
<path class="stroke" stroke-width="1"
	d="M423.70 423.00v-24.00"/>
<path class="stroke" stroke-width="1"
	d="M575.10 423.00v-24.00"/>
<path class="stroke" stroke-width="3"
	d="M690.10 423.00v-24.00"/>
<path class="stroke" stroke-width="1"
	d="M685.60 423.00v-24.00"/>
<use x="681.60" y="423.00" xlink:href="#rdots"/>
<path d="m10.00 423.00
	h681.60
	M10.00 417.00
	h681.60
	M10.00 411.00
	h681.60
	M10.00 405.00
	h681.60
	M10.00 399.00
	h681.60
	" class="stroke"/>
<use x="22.00" y="417.00" xlink:href="#tclef"/>
<use x="37.00" y="399.00" xlink:href="#sh0"/>
<use x="42.50" y="408.00" xlink:href="#sh0"/>
<use x="60.50" y="399.00" xlink:href="#hd"/>
<circle class="fill" cx="68.20" cy="396.00" r="1.2"/>
<path d="M57.00 399.00v21.00" class="stroke"/>
<use x="104.70" y="399.00" xlink:href="#hd"/>
<path d="M101.20 399.00v21.00" class="stroke"/>
<path class="fill"
	d="M101.20 420.00c0.6 -5.6 9.6 -9 5.6 -18.4
	1.6 6 -1.3 11.6 -5.6 12.8
"/>
<path class="fill"
	d="M128.30 420.00l74.80 0.00v-3.20l-74.80 -0.00"/>
<use x="132.20" y="399.00" xlink:href="#hd"/>
<path d="M128.70 399.00v20.00" class="stroke"/>
<use x="156.90" y="399.00" xlink:href="#hd"/>
<path d="M153.40 399.00v20.00" class="stroke"/>
<use x="181.60" y="402.00" xlink:href="#hd"/>
<path d="M178.10 402.00v17.00" class="stroke"/>
<use x="206.30" y="396.00" xlink:href="#hd"/>
<path d="M202.80 396.00v23.00" class="stroke"/>
<use x="239.30" y="399.00" xlink:href="#hd"/>
<path d="M235.80 399.00v21.00" class="stroke"/>
<path class="fill"
	d="M274.30 423.30l25.40 2.50v-3.20l-25.40 -2.50"/>
<use x="278.10" y="402.00" xlink:href="#hd"/>
<path d="M274.60 402.00v20.30" class="stroke"/>
<use x="302.80" y="405.00" xlink:href="#hd"/>
<path d="M299.30 405.00v19.70" class="stroke"/>
<path class="fill"
	d="M326.40 426.00l74.80 0.00v-3.20l-74.80 -0.00"/>
<use x="330.30" y="408.00" xlink:href="#hd"/>
<path d="M326.80 408.00v17.00" class="stroke"/>
<use x="355.00" y="405.00" xlink:href="#hd"/>
<path d="M351.50 405.00v20.00" class="stroke"/>
<use x="379.70" y="402.00" xlink:href="#hd"/>
<path d="M376.20 402.00v23.00" class="stroke"/>
<use x="404.40" y="408.00" xlink:href="#hd"/>
<path d="M400.90 408.00v17.00" class="stroke"/>
<use x="437.40" y="405.00" xlink:href="#hd"/>
<circle class="fill" cx="445.10" cy="402.00" r="1.2"/>
<path d="M433.90 405.00v21.00" class="stroke"/>
<use x="481.60" y="405.00" xlink:href="#hd"/>
<path d="M478.10 405.00v21.00" class="stroke"/>
<path class="fill"
	d="M478.10 426.00c0.6 -5.6 9.6 -9 5.6 -18.4
	1.6 6 -1.3 11.6 -5.6 12.8
"/>
<use x="509.10" y="405.00" xlink:href="#hd"/>
<path d="M505.60 405.00v21.00" class="stroke"/>
<use x="547.90" y="402.00" xlink:href="#hd"/>
<path d="M544.40 402.00v21.00" class="stroke"/>
<use x="588.80" y="405.00" xlink:href="#hd"/>
<circle class="fill" cx="596.50" cy="402.00" r="1.2"/>
<path d="M585.30 405.00v21.00" class="stroke"/>
<use x="633.00" y="405.00" xlink:href="#hd"/>
<path d="M629.50 405.00v21.00" class="stroke"/>
<path class="fill"
	d="M629.50 426.00c0.6 -5.6 9.6 -9 5.6 -18.4
	1.6 6 -1.3 11.6 -5.6 12.8
"/>
<use x="660.50" y="405.00" xlink:href="#hd"/>
<path d="M657.00 405.00v21.00" class="stroke"/>
<path class="fill"
	d="M108.20 399.00c3.23 -4.87 17.27 -4.87 20.49 -0.00
	v-0.22c-3.84 -6.65 -16.65 -6.65 -20.49 0.22"/>
<path class="fill"
	d="M485.10 405.00c3.23 -4.87 17.27 -4.87 20.49 -0.00
	v-0.22c-3.84 -6.65 -16.65 -6.65 -20.49 0.22"/>
<path class="fill"
	d="M636.50 405.00c3.23 -4.87 17.27 -4.87 20.49 -0.00
	v-0.22c-3.84 -6.65 -16.65 -6.65 -20.49 0.22"/>
</g>
</svg>
