<?xml version="1.0" standalone="no"?>
<!DOCTYPE svg PUBLIC "-//W3C//DTD SVG 1.1//EN"
	"http://www.w3.org/Graphics/SVG/1.1/DTD/svg11.dtd">
<svg xmlns="http://www.w3.org/2000/svg" version="1.1"
	xmlns:xlink="http://www.w3.org/1999/xlink"
	color="black"
	width="701.60px" height="437.00px">
<style type="text/css">
.fill {fill: currentColor}
.stroke {stroke: currentColor; fill: none}
text{white-space: pre}
</style>
<title>/mnt/ed617834-7c4b-4156-8731-6c17b22f12c7/tims_code/sphinx-tunes/source/ (1) tune 1</title>
<!-- Creator: abcm2ps-8.14.6 -->
<!-- CreationDate: Aug  9, 2021 22:55 -->
<!-- CommandLine: -g /mnt/ed617834-7c4b-4156-8731-6c17b22f12c7/tims_code/sphinx-tunes/source/_abcfiles/_Inisheer.abc -O /mnt/ed617834-7c4b-4156-8731-6c17b22f12c7/tims_code/sphinx-tunes/source/_abcfiles/Inisheer.svg -->
<g stroke-width="0.70">
<path class="stroke" stroke-width="1"
	d="M210.50 59.00v-24.00"/>
<path class="stroke" stroke-width="1"
	d="M367.10 59.00v-24.00"/>
<path class="stroke" stroke-width="1"
	d="M529.40 59.00v-24.00"/>
<path class="stroke" stroke-width="1"
	d="M691.60 59.00v-24.00"/>
<path d="m10.00 59.00
	h681.60
	M10.00 53.00
	h681.60
	M10.00 47.00
	h681.60
	M10.00 41.00
	h681.60
	M10.00 35.00
	h681.60
	" class="stroke"/>
<defs>
<path id="utclef" class="fill" d="m-50 -90
	c-72 -41 -72 -158 52 -188
	150 -10 220 188 90 256
	-114 52 -275 0 -293 -136
	-15 -181 93 -229 220 -334
	88 -87 79 -133 62 -210
	-51 33 -94 105 -89 186
	17 267 36 374 49 574
	6 96 -19 134 -77 135
	-80 1 -126 -93 -61 -133
	85 -41 133 101 31 105
	23 17 92 37 90 -92
	-10 -223 -39 -342 -50 -617
	0 -90 0 -162 96 -232
	56 72 63 230 22 289
	-74 106 -257 168 -255 316
	9 153 148 185 252 133
	86 -65 29 -192 -80 -176
	-71 12 -105 67 -59 124"/>
<use id="tclef" transform="translate(0,6) scale(0.045)"
	xlink:href="#utclef"/>
</defs>
<use x="22.00" y="53.00" xlink:href="#tclef"/>
<defs>
<path id="usharp" class="fill" d="
	m136 -702
	v890
	h32
	v-890
	m128 840
	h32
	v-888
	h-32
	m-232 286
	v116
	l338 -96
	v-116
	m-338 442
	v116
	l338 -98
	v-114"/>
<use id="sh0" transform="translate(-4,5) scale(0.018)"
	xlink:href="#usharp"/>
</defs>
<use x="37.00" y="35.00" xlink:href="#sh0"/>
<g style="font:bold 16px serif"
	transform="translate(53.00,58.50) scale(1.2,1)">
	<text text-anchor="middle">4</text>
	<text y="-12" text-anchor="middle">3</text>
</g>
<defs>
<ellipse id="hd" rx="4.1" ry="2.9"
	transform="rotate(-20)" class="fill"/>
</defs>
<use x="71.00" y="47.00" xlink:href="#hd"/>
<circle class="fill" cx="78.70" cy="44.00" r="1.2"/>
<path d="M67.50 47.00v21.00" class="stroke"/>
<use x="120.90" y="50.00" xlink:href="#hd"/>
<path d="M124.40 50.00v-21.00" class="stroke"/>
<path class="fill"
	d="M124.40 29.00c0.6 5.6 9.6 9 5.6 18.4
	1.6 -6 -1.3 -11.6 -5.6 -12.8
"/>
<path class="fill"
	d="M151.50 67.20l31.70 -4.40v-3.20l-31.70 4.40"/>
<use x="155.30" y="47.00" xlink:href="#hd"/>
<path d="M151.80 47.00v19.20" class="stroke"/>
<use x="186.30" y="41.00" xlink:href="#hd"/>
<path d="M182.80 41.00v20.80" class="stroke"/>
<use x="227.70" y="47.00" xlink:href="#hd"/>
<circle class="fill" cx="235.40" cy="44.00" r="1.2"/>
<path d="M224.20 47.00v21.00" class="stroke"/>
<use x="277.60" y="50.00" xlink:href="#hd"/>
<path d="M281.10 50.00v-21.00" class="stroke"/>
<path class="fill"
	d="M281.10 29.00c0.6 5.6 9.6 9 5.6 18.4
	1.6 -6 -1.3 -11.6 -5.6 -12.8
"/>
<path class="fill"
	d="M308.20 67.20l31.70 -4.40v-3.20l-31.70 4.40"/>
<use x="312.00" y="47.00" xlink:href="#hd"/>
<path d="M308.50 47.00v19.20" class="stroke"/>
<use x="343.00" y="41.00" xlink:href="#hd"/>
<path d="M339.50 41.00v20.80" class="stroke"/>
<use x="384.40" y="59.00" xlink:href="#hd"/>
<circle class="fill" cx="392.10" cy="56.00" r="1.2"/>
<path d="M387.90 59.00v-21.00" class="stroke"/>
<use x="439.80" y="47.00" xlink:href="#hd"/>
<path d="M443.30 47.00v-21.00" class="stroke"/>
<path class="fill"
	d="M443.30 26.00c0.6 5.6 9.6 9 5.6 18.4
	1.6 -6 -1.3 -11.6 -5.6 -12.8
"/>
<path class="fill"
	d="M477.40 28.80l31.70 -2.60v3.20l-31.70 2.60"/>
<use x="474.30" y="50.00" xlink:href="#hd"/>
<path d="M477.80 50.00v-20.20" class="stroke"/>
<use x="505.30" y="47.00" xlink:href="#hd"/>
<path d="M508.80 47.00v-19.80" class="stroke"/>
<use x="546.60" y="62.00" xlink:href="#hd"/>
<circle class="fill" cx="554.30" cy="62.00" r="1.2"/>
<path d="M550.10 62.00v-21.00" class="stroke"/>
<use x="602.00" y="47.00" xlink:href="#hd"/>
<path d="M605.50 47.00v-21.00" class="stroke"/>
<path class="fill"
	d="M605.50 26.00c0.6 5.6 9.6 9 5.6 18.4
	1.6 -6 -1.3 -11.6 -5.6 -12.8
"/>
<path class="fill"
	d="M639.60 29.20l31.70 2.60v3.20l-31.70 -2.60"/>
<use x="636.50" y="50.00" xlink:href="#hd"/>
<path d="M640.00 50.00v-19.80" class="stroke"/>
<use x="667.50" y="53.00" xlink:href="#hd"/>
<path d="M671.00 53.00v-20.20" class="stroke"/>
</g>
<g stroke-width="0.70">
<path class="stroke" stroke-width="1"
	d="M169.20 134.00v-24.00"/>
<path class="stroke" stroke-width="1"
	d="M292.60 134.00v-24.00"/>
<path class="stroke" stroke-width="1"
	d="M430.60 134.00v-24.00"/>
<path class="stroke" stroke-width="3"
	d="M559.60 134.00v-24.00"/>
<path class="stroke" stroke-width="1"
	d="M555.10 134.00v-24.00"/>
<defs>
<g id="rdots" class="fill">
	<circle cx="0" cy="-9" r="1.2"/>
	<circle cx="0" cy="-15" r="1.2"/>
</g>
</defs>
<use x="551.10" y="134.00" xlink:href="#rdots"/>
<path class="stroke" stroke-width="1"
	d="M691.60 134.00v-24.00"/>
<path class="stroke" stroke-width="1"
	d="M688.60 134.00v-24.00"/>
<path d="m10.00 134.00
	h681.60
	M10.00 128.00
	h681.60
	M10.00 122.00
	h681.60
	M10.00 116.00
	h681.60
	M10.00 110.00
	h681.60
	" class="stroke"/>
</g>
<g stroke-width="0.70" style="font:13.00px Times">
<text x="434.60" y="95.40">1</text>
<path class="stroke"
	d="M430.60 84.00m0 20v-20h122.50v20"/>
<text x="565.10" y="95.40">2</text>
<path class="stroke"
	d="M561.10 84.00m0 20v-20h130.50v20"/>
<use x="22.00" y="128.00" xlink:href="#tclef"/>
<use x="37.00" y="110.00" xlink:href="#sh0"/>
<use x="55.00" y="122.00" xlink:href="#hd"/>
<circle class="fill" cx="62.70" cy="119.00" r="1.2"/>
<path d="M58.50 122.00v-21.00" class="stroke"/>
<use x="98.60" y="125.00" xlink:href="#hd"/>
<path d="M102.10 125.00v-21.00" class="stroke"/>
<path class="fill"
	d="M102.10 104.00c0.6 5.6 9.6 9 5.6 18.4
	1.6 -6 -1.3 -11.6 -5.6 -12.8
"/>
<path class="fill"
	d="M121.90 142.10l25.10 -4.10v-3.20l-25.10 4.10"/>
<use x="125.80" y="122.00" xlink:href="#hd"/>
<path d="M122.30 122.00v19.00" class="stroke"/>
<use x="150.20" y="116.00" xlink:href="#hd"/>
<path d="M146.70 116.00v21.00" class="stroke"/>
<use x="182.80" y="122.00" xlink:href="#hd"/>
<circle class="fill" cx="190.50" cy="119.00" r="1.2"/>
<path d="M179.30 122.00v21.00" class="stroke"/>
<use x="222.10" y="125.00" xlink:href="#hd"/>
<path d="M225.60 125.00v-21.00" class="stroke"/>
<path class="fill"
	d="M225.60 104.00c0.6 5.6 9.6 9 5.6 18.4
	1.6 -6 -1.3 -11.6 -5.6 -12.8
"/>
<path class="fill"
	d="M245.40 142.10l25.10 -4.10v-3.20l-25.10 4.10"/>
<use x="249.20" y="122.00" xlink:href="#hd"/>
<path d="M245.70 122.00v19.00" class="stroke"/>
<use x="273.60" y="116.00" xlink:href="#hd"/>
<path d="M270.10 116.00v21.00" class="stroke"/>
<use x="306.20" y="128.00" xlink:href="#hd"/>
<circle class="fill" cx="313.90" cy="125.00" r="1.2"/>
<path d="M309.70 128.00v-21.00" class="stroke"/>
<use x="349.90" y="122.00" xlink:href="#hd"/>
<path d="M353.40 122.00v-21.00" class="stroke"/>
<path class="fill"
	d="M353.40 101.00c0.6 5.6 9.6 9 5.6 18.4
	1.6 -6 -1.3 -11.6 -5.6 -12.8
"/>
<path class="fill"
	d="M380.20 102.80l35.20 4.50v3.20l-35.20 -4.50"/>
<path class="fill"
	d="M380.50 107.80l17.30 2.20v3.20l-17.30 -2.20"/>
<use x="377.00" y="125.00" xlink:href="#hd"/>
<path d="M380.50 125.00v-21.20" class="stroke"/>
<use x="394.30" y="128.00" xlink:href="#hd"/>
<path d="M397.80 128.00v-22.00" class="stroke"/>
<use x="411.50" y="131.00" xlink:href="#hd"/>
<path d="M415.00 131.00v-22.70" class="stroke"/>
<use x="444.20" y="128.00" xlink:href="#hd"/>
<circle class="fill" cx="451.90" cy="125.00" r="1.2"/>
<path d="M447.70 128.00v-21.00" class="stroke"/>
<use x="487.80" y="134.00" xlink:href="#hd"/>
<path d="M491.30 134.00v-21.00" class="stroke"/>
<path class="fill"
	d="M491.30 113.00c0.6 5.6 9.6 9 5.6 18.4
	1.6 -6 -1.3 -11.6 -5.6 -12.8
"/>
<path class="fill"
	d="M518.10 114.10l25.10 -5.30v3.20l-25.10 5.30"/>
<use x="514.90" y="137.00" xlink:href="#hd"/>
<path d="M518.40 137.00v-22.00" class="stroke"/>
<use x="539.30" y="128.00" xlink:href="#hd"/>
<path d="M542.80 128.00v-18.20" class="stroke"/>
<use x="574.70" y="128.00" xlink:href="#hd"/>
<circle class="fill" cx="582.40" cy="125.00" r="1.2"/>
<path d="M578.20 128.00v-21.00" class="stroke"/>
<use x="618.30" y="125.00" xlink:href="#hd"/>
<path d="M621.80 125.00v-21.00" class="stroke"/>
<path class="fill"
	d="M621.80 104.00c0.6 5.6 9.6 9 5.6 18.4
	1.6 -6 -1.3 -11.6 -5.6 -12.8
"/>
<path class="fill"
	d="M641.60 142.10l25.10 -4.10v-3.20l-25.10 4.10"/>
<use x="645.50" y="122.00" xlink:href="#hd"/>
<path d="M642.00 122.00v19.00" class="stroke"/>
<use x="669.90" y="116.00" xlink:href="#hd"/>
<path d="M666.40 116.00v21.00" class="stroke"/>
</g>
<g stroke-width="0.70" style="font:13.00px Times">
<path class="stroke" stroke-width="1"
	d="M233.30 204.00v-24.00"/>
<path class="stroke" stroke-width="1"
	d="M425.90 204.00v-24.00"/>
<path class="stroke" stroke-width="1"
	d="M691.60 204.00v-24.00"/>
<path d="m10.00 204.00
	h681.60
	M10.00 198.00
	h681.60
	M10.00 192.00
	h681.60
	M10.00 186.00
	h681.60
	M10.00 180.00
	h681.60
	" class="stroke"/>
<use x="22.00" y="198.00" xlink:href="#tclef"/>
<use x="37.00" y="180.00" xlink:href="#sh0"/>
<use x="55.00" y="183.00" xlink:href="#hd"/>
<circle class="fill" cx="62.70" cy="183.00" r="1.2"/>
<path d="M51.50 183.00v21.00" class="stroke"/>
<use x="123.20" y="180.00" xlink:href="#hd"/>
<path d="M119.70 180.00v21.00" class="stroke"/>
<path class="fill"
	d="M119.70 201.00c0.6 -5.6 9.6 -9 5.6 -18.4
	1.6 6 -1.3 11.6 -5.6 12.8
"/>
<path class="fill"
	d="M161.70 204.20l38.80 2.60v-3.20l-38.80 -2.60"/>
<use x="165.50" y="183.00" xlink:href="#hd"/>
<path d="M162.00 183.00v20.20" class="stroke"/>
<use x="203.60" y="186.00" xlink:href="#hd"/>
<path d="M200.10 186.00v19.80" class="stroke"/>
<use x="254.50" y="192.00" xlink:href="#hd"/>
<circle class="fill" cx="262.20" cy="189.00" r="1.2"/>
<path d="M251.00 192.00v21.00" class="stroke"/>
<use x="315.80" y="195.00" xlink:href="#hd"/>
<path d="M319.30 195.00v-21.00" class="stroke"/>
<path class="fill"
	d="M319.30 174.00c0.6 5.6 9.6 9 5.6 18.4
	1.6 -6 -1.3 -11.6 -5.6 -12.8
"/>
<path class="fill"
	d="M354.30 212.30l38.80 -4.60v-3.20l-38.80 4.60"/>
<use x="358.20" y="192.00" xlink:href="#hd"/>
<path d="M354.70 192.00v19.30" class="stroke"/>
<use x="396.30" y="186.00" xlink:href="#hd"/>
<path d="M392.80 186.00v20.70" class="stroke"/>
<path class="fill"
	d="M443.30 203.80l38.80 -2.60v-3.20l-38.80 2.60"/>
<use x="447.10" y="183.00" xlink:href="#hd"/>
<path d="M443.60 183.00v19.80" class="stroke"/>
<use x="485.20" y="180.00" xlink:href="#hd"/>
<path d="M481.70 180.00v20.20" class="stroke"/>
<path class="fill"
	d="M523.70 204.20l38.80 2.60v-3.20l-38.80 -2.60"/>
<use x="527.60" y="183.00" xlink:href="#hd"/>
<path d="M524.10 183.00v20.20" class="stroke"/>
<use x="565.70" y="186.00" xlink:href="#hd"/>
<path d="M562.20 186.00v19.80" class="stroke"/>
<path class="fill"
	d="M604.20 214.50l54.60 -5.00v-3.20l-54.60 5.00"/>
<path class="fill"
	d="M604.60 209.50l26.90 -2.50v-3.20l-26.90 2.50"/>
<use x="608.10" y="192.00" xlink:href="#hd"/>
<path d="M604.60 192.00v21.50" class="stroke"/>
<use x="635.00" y="189.00" xlink:href="#hd"/>
<path d="M631.50 189.00v22.00" class="stroke"/>
<use x="661.90" y="186.00" xlink:href="#hd"/>
<path d="M658.40 186.00v22.50" class="stroke"/>
</g>
<g stroke-width="0.70" style="font:13.00px Times">
<path class="stroke" stroke-width="1"
	d="M195.20 274.00v-24.00"/>
<path class="stroke" stroke-width="1"
	d="M358.20 274.00v-24.00"/>
<path class="stroke" stroke-width="1"
	d="M515.70 274.00v-24.00"/>
<path class="stroke" stroke-width="1"
	d="M691.60 274.00v-24.00"/>
<path d="m10.00 274.00
	h681.60
	M10.00 268.00
	h681.60
	M10.00 262.00
	h681.60
	M10.00 256.00
	h681.60
	M10.00 250.00
	h681.60
	" class="stroke"/>
<use x="22.00" y="268.00" xlink:href="#tclef"/>
<use x="37.00" y="250.00" xlink:href="#sh0"/>
<use x="55.00" y="253.00" xlink:href="#hd"/>
<circle class="fill" cx="62.70" cy="253.00" r="1.2"/>
<path d="M51.50 253.00v21.00" class="stroke"/>
<use x="105.10" y="265.00" xlink:href="#hd"/>
<path d="M108.60 265.00v-21.00" class="stroke"/>
<path class="fill"
	d="M108.60 244.00c0.6 5.6 9.6 9 5.6 18.4
	1.6 -6 -1.3 -11.6 -5.6 -12.8
"/>
<path class="fill"
	d="M135.90 282.20l31.80 -4.40v-3.20l-31.80 4.40"/>
<use x="139.80" y="262.00" xlink:href="#hd"/>
<path d="M136.30 262.00v19.20" class="stroke"/>
<use x="170.90" y="256.00" xlink:href="#hd"/>
<path d="M167.40 256.00v20.80" class="stroke"/>
<use x="212.50" y="253.00" xlink:href="#hd"/>
<circle class="fill" cx="220.20" cy="253.00" r="1.2"/>
<path d="M209.00 253.00v21.00" class="stroke"/>
<use x="268.20" y="250.00" xlink:href="#hd"/>
<path d="M264.70 250.00v21.00" class="stroke"/>
<path class="fill"
	d="M264.70 271.00c0.6 -5.6 9.6 -9 5.6 -18.4
	1.6 6 -1.3 11.6 -5.6 12.8
"/>
<path class="fill"
	d="M299.00 274.20l31.80 2.60v-3.20l-31.80 -2.60"/>
<use x="302.80" y="253.00" xlink:href="#hd"/>
<path d="M299.30 253.00v20.20" class="stroke"/>
<use x="334.00" y="256.00" xlink:href="#hd"/>
<path d="M330.50 256.00v19.80" class="stroke"/>
<use x="375.50" y="262.00" xlink:href="#hd"/>
<circle class="fill" cx="383.20" cy="259.00" r="1.2"/>
<path d="M372.00 262.00v21.00" class="stroke"/>
<use x="425.70" y="265.00" xlink:href="#hd"/>
<path d="M429.20 265.00v-21.00" class="stroke"/>
<path class="fill"
	d="M429.20 244.00c0.6 5.6 9.6 9 5.6 18.4
	1.6 -6 -1.3 -11.6 -5.6 -12.8
"/>
<path class="fill"
	d="M456.40 282.20l31.80 -4.40v-3.20l-31.80 4.40"/>
<use x="460.30" y="262.00" xlink:href="#hd"/>
<path d="M456.80 262.00v19.20" class="stroke"/>
<use x="491.40" y="256.00" xlink:href="#hd"/>
<path d="M487.90 256.00v20.80" class="stroke"/>
<use x="533.00" y="268.00" xlink:href="#hd"/>
<circle class="fill" cx="540.70" cy="265.00" r="1.2"/>
<path d="M536.50 268.00v-21.00" class="stroke"/>
<use x="588.70" y="262.00" xlink:href="#hd"/>
<path d="M592.20 262.00v-21.00" class="stroke"/>
<path class="fill"
	d="M592.20 241.00c0.6 5.6 9.6 9 5.6 18.4
	1.6 -6 -1.3 -11.6 -5.6 -12.8
"/>
<path class="fill"
	d="M626.50 242.80l44.70 4.80v3.20l-44.70 -4.80"/>
<path class="fill"
	d="M626.80 247.80l22.00 2.40v3.20l-22.00 -2.40"/>
<use x="623.30" y="265.00" xlink:href="#hd"/>
<path d="M626.80 265.00v-21.20" class="stroke"/>
<use x="645.30" y="268.00" xlink:href="#hd"/>
<path d="M648.80 268.00v-21.80" class="stroke"/>
<use x="667.40" y="271.00" xlink:href="#hd"/>
<path d="M670.90 271.00v-22.50" class="stroke"/>
</g>
<g stroke-width="0.70" style="font:13.00px Times">
<path class="stroke" stroke-width="1"
	d="M190.70 344.00v-24.00"/>
<path class="stroke" stroke-width="1"
	d="M342.60 344.00v-24.00"/>
<path class="stroke" stroke-width="1"
	d="M489.30 344.00v-24.00"/>
<path class="stroke" stroke-width="1"
	d="M691.60 344.00v-24.00"/>
<path d="m10.00 344.00
	h681.60
	M10.00 338.00
	h681.60
	M10.00 332.00
	h681.60
	M10.00 326.00
	h681.60
	M10.00 320.00
	h681.60
	" class="stroke"/>
<use x="22.00" y="338.00" xlink:href="#tclef"/>
<use x="37.00" y="320.00" xlink:href="#sh0"/>
<use x="55.00" y="338.00" xlink:href="#hd"/>
<circle class="fill" cx="62.70" cy="335.00" r="1.2"/>
<path d="M58.50 338.00v-21.00" class="stroke"/>
<use x="106.90" y="335.00" xlink:href="#hd"/>
<path d="M110.40 335.00v-21.00" class="stroke"/>
<path class="fill"
	d="M110.40 314.00c0.6 5.6 9.6 9 5.6 18.4
	1.6 -6 -1.3 -11.6 -5.6 -12.8
"/>
<path class="fill"
	d="M135.30 352.20l29.70 -4.30v-3.20l-29.70 4.30"/>
<use x="139.10" y="332.00" xlink:href="#hd"/>
<path d="M135.60 332.00v19.10" class="stroke"/>
<use x="168.20" y="326.00" xlink:href="#hd"/>
<path d="M164.70 326.00v20.90" class="stroke"/>
<use x="206.90" y="323.00" xlink:href="#hd"/>
<circle class="fill" cx="214.60" cy="323.00" r="1.2"/>
<path d="M203.40 323.00v21.00" class="stroke"/>
<use x="258.80" y="320.00" xlink:href="#hd"/>
<path d="M255.30 320.00v21.00" class="stroke"/>
<path class="fill"
	d="M255.30 341.00c0.6 -5.6 9.6 -9 5.6 -18.4
	1.6 6 -1.3 11.6 -5.6 12.8
"/>
<path class="fill"
	d="M287.20 344.20l29.70 2.50v-3.20l-29.70 -2.50"/>
<use x="291.00" y="323.00" xlink:href="#hd"/>
<path d="M287.50 323.00v20.30" class="stroke"/>
<use x="320.00" y="326.00" xlink:href="#hd"/>
<path d="M316.50 326.00v19.70" class="stroke"/>
<use x="358.80" y="332.00" xlink:href="#hd"/>
<circle class="fill" cx="366.50" cy="329.00" r="1.2"/>
<path d="M355.30 332.00v21.00" class="stroke"/>
<use x="405.50" y="335.00" xlink:href="#hd"/>
<path d="M409.00 335.00v-21.00" class="stroke"/>
<path class="fill"
	d="M409.00 314.00c0.6 5.6 9.6 9 5.6 18.4
	1.6 -6 -1.3 -11.6 -5.6 -12.8
"/>
<path class="fill"
	d="M433.90 352.20l29.70 -4.30v-3.20l-29.70 4.30"/>
<use x="437.70" y="332.00" xlink:href="#hd"/>
<path d="M434.20 332.00v19.10" class="stroke"/>
<use x="466.70" y="326.00" xlink:href="#hd"/>
<path d="M463.20 326.00v20.90" class="stroke"/>
<path class="fill"
	d="M501.60 338.20l29.70 2.50v-3.20l-29.70 -2.50"/>
<use x="505.40" y="317.00" xlink:href="#hd"/>
<path d="M501.90 317.00v20.30" class="stroke"/>
<use x="534.50" y="320.00" xlink:href="#hd"/>
<path d="M531.00 320.00v19.70" class="stroke"/>
<path class="fill"
	d="M562.90 344.20l29.70 2.50v-3.20l-29.70 -2.50"/>
<use x="566.70" y="323.00" xlink:href="#hd"/>
<path d="M563.20 323.00v20.30" class="stroke"/>
<use x="595.70" y="326.00" xlink:href="#hd"/>
<path d="M592.20 326.00v19.70" class="stroke"/>
<path class="fill"
	d="M624.20 354.40l41.70 -4.70v-3.20l-41.70 4.70"/>
<path class="fill"
	d="M624.50 349.30l20.50 -2.30v-3.20l-20.50 2.30"/>
<use x="628.00" y="332.00" xlink:href="#hd"/>
<path d="M624.50 332.00v21.30" class="stroke"/>
<use x="648.50" y="329.00" xlink:href="#hd"/>
<path d="M645.00 329.00v22.00" class="stroke"/>
<use x="669.00" y="326.00" xlink:href="#hd"/>
<path d="M665.50 326.00v22.70" class="stroke"/>
</g>
<g stroke-width="0.70" style="font:13.00px Times">
<path class="stroke" stroke-width="1"
	d="M179.50 414.00v-24.00"/>
<path class="stroke" stroke-width="1"
	d="M324.20 414.00v-24.00"/>
<path class="stroke" stroke-width="1"
	d="M464.00 414.00v-24.00"/>
<path class="stroke" stroke-width="1"
	d="M620.30 414.00v-24.00"/>
<path class="stroke" stroke-width="1"
	d="M691.60 414.00v-24.00"/>
<path class="stroke" stroke-width="1"
	d="M688.60 414.00v-24.00"/>
<path d="m10.00 414.00
	h681.60
	M10.00 408.00
	h681.60
	M10.00 402.00
	h681.60
	M10.00 396.00
	h681.60
	M10.00 390.00
	h681.60
	" class="stroke"/>
<use x="22.00" y="408.00" xlink:href="#tclef"/>
<use x="37.00" y="390.00" xlink:href="#sh0"/>
<use x="55.00" y="393.00" xlink:href="#hd"/>
<circle class="fill" cx="62.70" cy="393.00" r="1.2"/>
<path d="M51.50 393.00v21.00" class="stroke"/>
<use x="99.50" y="405.00" xlink:href="#hd"/>
<path d="M103.00 405.00v-21.00" class="stroke"/>
<path class="fill"
	d="M103.00 384.00c0.6 5.6 9.6 9 5.6 18.4
	1.6 -6 -1.3 -11.6 -5.6 -12.8
"/>
<path class="fill"
	d="M126.40 422.10l28.30 -4.30v-3.20l-28.30 4.30"/>
<use x="130.30" y="402.00" xlink:href="#hd"/>
<path d="M126.80 402.00v19.10" class="stroke"/>
<use x="157.90" y="396.00" xlink:href="#hd"/>
<path d="M154.40 396.00v20.90" class="stroke"/>
<use x="194.80" y="393.00" xlink:href="#hd"/>
<circle class="fill" cx="202.50" cy="393.00" r="1.2"/>
<path d="M191.30 393.00v21.00" class="stroke"/>
<use x="244.30" y="390.00" xlink:href="#hd"/>
<path d="M240.80 390.00v21.00" class="stroke"/>
<path class="fill"
	d="M240.80 411.00c0.6 -5.6 9.6 -9 5.6 -18.4
	1.6 6 -1.3 11.6 -5.6 12.8
"/>
<path class="fill"
	d="M271.20 414.20l28.30 2.50v-3.20l-28.30 -2.50"/>
<use x="275.00" y="393.00" xlink:href="#hd"/>
<path d="M271.50 393.00v20.30" class="stroke"/>
<use x="302.70" y="396.00" xlink:href="#hd"/>
<path d="M299.20 396.00v19.70" class="stroke"/>
<use x="339.60" y="402.00" xlink:href="#hd"/>
<circle class="fill" cx="347.30" cy="399.00" r="1.2"/>
<path d="M336.10 402.00v21.00" class="stroke"/>
<use x="384.10" y="405.00" xlink:href="#hd"/>
<path d="M387.60 405.00v-21.00" class="stroke"/>
<path class="fill"
	d="M387.60 384.00c0.6 5.6 9.6 9 5.6 18.4
	1.6 -6 -1.3 -11.6 -5.6 -12.8
"/>
<path class="fill"
	d="M411.00 422.10l28.30 -4.30v-3.20l-28.30 4.30"/>
<use x="414.90" y="402.00" xlink:href="#hd"/>
<path d="M411.40 402.00v19.10" class="stroke"/>
<use x="442.50" y="396.00" xlink:href="#hd"/>
<path d="M439.00 396.00v20.90" class="stroke"/>
<use x="479.40" y="417.00" xlink:href="#hd"/>
<circle class="fill" cx="487.10" cy="417.00" r="1.2"/>
<path d="M482.90 417.00v-21.00" class="stroke"/>
<use x="528.90" y="402.00" xlink:href="#hd"/>
<path d="M532.40 402.00v-21.00" class="stroke"/>
<path class="fill"
	d="M532.40 381.00c0.6 5.6 9.6 9 5.6 18.4
	1.6 -6 -1.3 -11.6 -5.6 -12.8
"/>
<path class="fill"
	d="M562.80 382.80l39.80 4.70v3.20l-39.80 -4.70"/>
<path class="fill"
	d="M563.10 387.80l19.60 2.30v3.20l-19.60 -2.30"/>
<use x="559.60" y="405.00" xlink:href="#hd"/>
<path d="M563.10 405.00v-21.20" class="stroke"/>
<use x="579.20" y="408.00" xlink:href="#hd"/>
<path d="M582.70 408.00v-21.90" class="stroke"/>
<use x="598.70" y="411.00" xlink:href="#hd"/>
<path d="M602.20 411.00v-22.60" class="stroke"/>
<defs>
<path id="Hd" class="fill" d="m3 -1.6
	c-1 -1.8 -7 1.4 -6 3.2
	1 1.8 7 -1.4 6 -3.2
	m0.5 -0.3
	c2 3.8 -5 7.6 -7 3.8
	-2 -3.8 5 -7.6 7 -3.8"/>
</defs>
<use x="635.60" y="408.00" xlink:href="#Hd"/>
<circle class="fill" cx="644.30" cy="405.00" r="1.2"/>
<path d="M639.10 408.00v-21.00" class="stroke"/>
</g>
</svg>
