<?xml version="1.0" standalone="no"?>
<!DOCTYPE svg PUBLIC "-//W3C//DTD SVG 1.1//EN"
	"http://www.w3.org/Graphics/SVG/1.1/DTD/svg11.dtd">
<svg xmlns="http://www.w3.org/2000/svg" version="1.1"
	xmlns:xlink="http://www.w3.org/1999/xlink"
	color="black"
	width="701.60px" height="463.00px">
<style type="text/css">
.fill {fill: currentColor}
.stroke {stroke: currentColor; fill: none}
text{white-space: pre}
</style>
<title>/media/tim/Data1/tims_code/sphinx-tunes/source/_abcfiles/Inisheer.abc (1) tune 1</title>
<!-- Creator: abcm2ps-8.14.6 -->
<!-- CreationDate: Jul 30, 2023 12:16 -->
<!-- CommandLine: -g /media/tim/Data1/tims_code/sphinx-tunes/source/_abcfiles/Inisheer.abc -O /media/tim/Data1/tims_code/sphinx-tunes/source/_abcfiles/Inisheer.svg -->
<g stroke-width="0.70">
<!-- title: Inisheer -->
</g>
<g stroke-width="0.70" style="font:20.00px Times">
<text x="350.80" y="22.00" text-anchor="middle">Inisheer</text>
</g>
<g stroke-width="0.70" style="font:20.00px Times">
<path class="stroke" stroke-width="1"
	d="M210.50 85.00v-24.00"/>
<path class="stroke" stroke-width="1"
	d="M367.10 85.00v-24.00"/>
<path class="stroke" stroke-width="1"
	d="M529.40 85.00v-24.00"/>
<path class="stroke" stroke-width="1"
	d="M691.60 85.00v-24.00"/>
<path d="m10.00 85.00
	h681.60
	M10.00 79.00
	h681.60
	M10.00 73.00
	h681.60
	M10.00 67.00
	h681.60
	M10.00 61.00
	h681.60
	" class="stroke"/>
<defs>
<path id="utclef" class="fill" d="m-50 -90
	c-72 -41 -72 -158 52 -188
	150 -10 220 188 90 256
	-114 52 -275 0 -293 -136
	-15 -181 93 -229 220 -334
	88 -87 79 -133 62 -210
	-51 33 -94 105 -89 186
	17 267 36 374 49 574
	6 96 -19 134 -77 135
	-80 1 -126 -93 -61 -133
	85 -41 133 101 31 105
	23 17 92 37 90 -92
	-10 -223 -39 -342 -50 -617
	0 -90 0 -162 96 -232
	56 72 63 230 22 289
	-74 106 -257 168 -255 316
	9 153 148 185 252 133
	86 -65 29 -192 -80 -176
	-71 12 -105 67 -59 124"/>
<use id="tclef" transform="translate(0,6) scale(0.045)"
	xlink:href="#utclef"/>
</defs>
<use x="22.00" y="79.00" xlink:href="#tclef"/>
<defs>
<path id="usharp" class="fill" d="
	m136 -702
	v890
	h32
	v-890
	m128 840
	h32
	v-888
	h-32
	m-232 286
	v116
	l338 -96
	v-116
	m-338 442
	v116
	l338 -98
	v-114"/>
<use id="sh0" transform="translate(-4,5) scale(0.018)"
	xlink:href="#usharp"/>
</defs>
<use x="37.00" y="61.00" xlink:href="#sh0"/>
<g style="font:bold 16px serif"
	transform="translate(53.00,84.50) scale(1.2,1)">
	<text text-anchor="middle">4</text>
	<text y="-12" text-anchor="middle">3</text>
</g>
<defs>
<ellipse id="hd" rx="4.1" ry="2.9"
	transform="rotate(-20)" class="fill"/>
</defs>
<use x="71.00" y="73.00" xlink:href="#hd"/>
<circle class="fill" cx="78.70" cy="70.00" r="1.2"/>
<path d="M67.50 73.00v21.00" class="stroke"/>
<use x="120.90" y="76.00" xlink:href="#hd"/>
<path d="M124.40 76.00v-21.00" class="stroke"/>
<path class="fill"
	d="M124.40 55.00c0.6 5.6 9.6 9 5.6 18.4
	1.6 -6 -1.3 -11.6 -5.6 -12.8
"/>
<path class="fill"
	d="M151.50 93.20l31.70 -4.40v-3.20l-31.70 4.40"/>
<use x="155.30" y="73.00" xlink:href="#hd"/>
<path d="M151.80 73.00v19.20" class="stroke"/>
<use x="186.30" y="67.00" xlink:href="#hd"/>
<path d="M182.80 67.00v20.80" class="stroke"/>
<use x="227.70" y="73.00" xlink:href="#hd"/>
<circle class="fill" cx="235.40" cy="70.00" r="1.2"/>
<path d="M224.20 73.00v21.00" class="stroke"/>
<use x="277.60" y="76.00" xlink:href="#hd"/>
<path d="M281.10 76.00v-21.00" class="stroke"/>
<path class="fill"
	d="M281.10 55.00c0.6 5.6 9.6 9 5.6 18.4
	1.6 -6 -1.3 -11.6 -5.6 -12.8
"/>
<path class="fill"
	d="M308.20 93.20l31.70 -4.40v-3.20l-31.70 4.40"/>
<use x="312.00" y="73.00" xlink:href="#hd"/>
<path d="M308.50 73.00v19.20" class="stroke"/>
<use x="343.00" y="67.00" xlink:href="#hd"/>
<path d="M339.50 67.00v20.80" class="stroke"/>
<use x="384.40" y="85.00" xlink:href="#hd"/>
<circle class="fill" cx="392.10" cy="82.00" r="1.2"/>
<path d="M387.90 85.00v-21.00" class="stroke"/>
<use x="439.80" y="73.00" xlink:href="#hd"/>
<path d="M443.30 73.00v-21.00" class="stroke"/>
<path class="fill"
	d="M443.30 52.00c0.6 5.6 9.6 9 5.6 18.4
	1.6 -6 -1.3 -11.6 -5.6 -12.8
"/>
<path class="fill"
	d="M477.40 54.80l31.70 -2.60v3.20l-31.70 2.60"/>
<use x="474.30" y="76.00" xlink:href="#hd"/>
<path d="M477.80 76.00v-20.20" class="stroke"/>
<use x="505.30" y="73.00" xlink:href="#hd"/>
<path d="M508.80 73.00v-19.80" class="stroke"/>
<use x="546.60" y="88.00" xlink:href="#hd"/>
<circle class="fill" cx="554.30" cy="88.00" r="1.2"/>
<path d="M550.10 88.00v-21.00" class="stroke"/>
<use x="602.00" y="73.00" xlink:href="#hd"/>
<path d="M605.50 73.00v-21.00" class="stroke"/>
<path class="fill"
	d="M605.50 52.00c0.6 5.6 9.6 9 5.6 18.4
	1.6 -6 -1.3 -11.6 -5.6 -12.8
"/>
<path class="fill"
	d="M639.60 55.20l31.70 2.60v3.20l-31.70 -2.60"/>
<use x="636.50" y="76.00" xlink:href="#hd"/>
<path d="M640.00 76.00v-19.80" class="stroke"/>
<use x="667.50" y="79.00" xlink:href="#hd"/>
<path d="M671.00 79.00v-20.20" class="stroke"/>
</g>
<g stroke-width="0.70" style="font:20.00px Times">
<path class="stroke" stroke-width="1"
	d="M169.20 160.00v-24.00"/>
<path class="stroke" stroke-width="1"
	d="M292.60 160.00v-24.00"/>
<path class="stroke" stroke-width="1"
	d="M430.60 160.00v-24.00"/>
<path class="stroke" stroke-width="3"
	d="M559.60 160.00v-24.00"/>
<path class="stroke" stroke-width="1"
	d="M555.10 160.00v-24.00"/>
<defs>
<g id="rdots" class="fill">
	<circle cx="0" cy="-9" r="1.2"/>
	<circle cx="0" cy="-15" r="1.2"/>
</g>
</defs>
<use x="551.10" y="160.00" xlink:href="#rdots"/>
<path class="stroke" stroke-width="1"
	d="M691.60 160.00v-24.00"/>
<path class="stroke" stroke-width="1"
	d="M688.60 160.00v-24.00"/>
<path d="m10.00 160.00
	h681.60
	M10.00 154.00
	h681.60
	M10.00 148.00
	h681.60
	M10.00 142.00
	h681.60
	M10.00 136.00
	h681.60
	" class="stroke"/>
</g>
<g stroke-width="0.70" style="font:13.00px Times">
<text x="434.60" y="121.40">1</text>
<path class="stroke"
	d="M430.60 110.00m0 20v-20h122.50v20"/>
<text x="565.10" y="121.40">2</text>
<path class="stroke"
	d="M561.10 110.00m0 20v-20h130.50v20"/>
<use x="22.00" y="154.00" xlink:href="#tclef"/>
<use x="37.00" y="136.00" xlink:href="#sh0"/>
<use x="55.00" y="148.00" xlink:href="#hd"/>
<circle class="fill" cx="62.70" cy="145.00" r="1.2"/>
<path d="M58.50 148.00v-21.00" class="stroke"/>
<use x="98.60" y="151.00" xlink:href="#hd"/>
<path d="M102.10 151.00v-21.00" class="stroke"/>
<path class="fill"
	d="M102.10 130.00c0.6 5.6 9.6 9 5.6 18.4
	1.6 -6 -1.3 -11.6 -5.6 -12.8
"/>
<path class="fill"
	d="M121.90 168.10l25.10 -4.10v-3.20l-25.10 4.10"/>
<use x="125.80" y="148.00" xlink:href="#hd"/>
<path d="M122.30 148.00v19.00" class="stroke"/>
<use x="150.20" y="142.00" xlink:href="#hd"/>
<path d="M146.70 142.00v21.00" class="stroke"/>
<use x="182.80" y="148.00" xlink:href="#hd"/>
<circle class="fill" cx="190.50" cy="145.00" r="1.2"/>
<path d="M179.30 148.00v21.00" class="stroke"/>
<use x="222.10" y="151.00" xlink:href="#hd"/>
<path d="M225.60 151.00v-21.00" class="stroke"/>
<path class="fill"
	d="M225.60 130.00c0.6 5.6 9.6 9 5.6 18.4
	1.6 -6 -1.3 -11.6 -5.6 -12.8
"/>
<path class="fill"
	d="M245.40 168.10l25.10 -4.10v-3.20l-25.10 4.10"/>
<use x="249.20" y="148.00" xlink:href="#hd"/>
<path d="M245.70 148.00v19.00" class="stroke"/>
<use x="273.60" y="142.00" xlink:href="#hd"/>
<path d="M270.10 142.00v21.00" class="stroke"/>
<use x="306.20" y="154.00" xlink:href="#hd"/>
<circle class="fill" cx="313.90" cy="151.00" r="1.2"/>
<path d="M309.70 154.00v-21.00" class="stroke"/>
<use x="349.90" y="148.00" xlink:href="#hd"/>
<path d="M353.40 148.00v-21.00" class="stroke"/>
<path class="fill"
	d="M353.40 127.00c0.6 5.6 9.6 9 5.6 18.4
	1.6 -6 -1.3 -11.6 -5.6 -12.8
"/>
<path class="fill"
	d="M380.20 128.80l35.20 4.50v3.20l-35.20 -4.50"/>
<path class="fill"
	d="M380.50 133.80l17.30 2.20v3.20l-17.30 -2.20"/>
<use x="377.00" y="151.00" xlink:href="#hd"/>
<path d="M380.50 151.00v-21.20" class="stroke"/>
<use x="394.30" y="154.00" xlink:href="#hd"/>
<path d="M397.80 154.00v-22.00" class="stroke"/>
<use x="411.50" y="157.00" xlink:href="#hd"/>
<path d="M415.00 157.00v-22.70" class="stroke"/>
<use x="444.20" y="154.00" xlink:href="#hd"/>
<circle class="fill" cx="451.90" cy="151.00" r="1.2"/>
<path d="M447.70 154.00v-21.00" class="stroke"/>
<use x="487.80" y="160.00" xlink:href="#hd"/>
<path d="M491.30 160.00v-21.00" class="stroke"/>
<path class="fill"
	d="M491.30 139.00c0.6 5.6 9.6 9 5.6 18.4
	1.6 -6 -1.3 -11.6 -5.6 -12.8
"/>
<path class="fill"
	d="M518.10 140.10l25.10 -5.30v3.20l-25.10 5.30"/>
<use x="514.90" y="163.00" xlink:href="#hd"/>
<path d="M518.40 163.00v-22.00" class="stroke"/>
<use x="539.30" y="154.00" xlink:href="#hd"/>
<path d="M542.80 154.00v-18.20" class="stroke"/>
<use x="574.70" y="154.00" xlink:href="#hd"/>
<circle class="fill" cx="582.40" cy="151.00" r="1.2"/>
<path d="M578.20 154.00v-21.00" class="stroke"/>
<use x="618.30" y="151.00" xlink:href="#hd"/>
<path d="M621.80 151.00v-21.00" class="stroke"/>
<path class="fill"
	d="M621.80 130.00c0.6 5.6 9.6 9 5.6 18.4
	1.6 -6 -1.3 -11.6 -5.6 -12.8
"/>
<path class="fill"
	d="M641.60 168.10l25.10 -4.10v-3.20l-25.10 4.10"/>
<use x="645.50" y="148.00" xlink:href="#hd"/>
<path d="M642.00 148.00v19.00" class="stroke"/>
<use x="669.90" y="142.00" xlink:href="#hd"/>
<path d="M666.40 142.00v21.00" class="stroke"/>
</g>
<g stroke-width="0.70" style="font:13.00px Times">
<path class="stroke" stroke-width="1"
	d="M233.30 230.00v-24.00"/>
<path class="stroke" stroke-width="1"
	d="M425.90 230.00v-24.00"/>
<path class="stroke" stroke-width="1"
	d="M691.60 230.00v-24.00"/>
<path d="m10.00 230.00
	h681.60
	M10.00 224.00
	h681.60
	M10.00 218.00
	h681.60
	M10.00 212.00
	h681.60
	M10.00 206.00
	h681.60
	" class="stroke"/>
<use x="22.00" y="224.00" xlink:href="#tclef"/>
<use x="37.00" y="206.00" xlink:href="#sh0"/>
<use x="55.00" y="209.00" xlink:href="#hd"/>
<circle class="fill" cx="62.70" cy="209.00" r="1.2"/>
<path d="M51.50 209.00v21.00" class="stroke"/>
<use x="123.20" y="206.00" xlink:href="#hd"/>
<path d="M119.70 206.00v21.00" class="stroke"/>
<path class="fill"
	d="M119.70 227.00c0.6 -5.6 9.6 -9 5.6 -18.4
	1.6 6 -1.3 11.6 -5.6 12.8
"/>
<path class="fill"
	d="M161.70 230.20l38.80 2.60v-3.20l-38.80 -2.60"/>
<use x="165.50" y="209.00" xlink:href="#hd"/>
<path d="M162.00 209.00v20.20" class="stroke"/>
<use x="203.60" y="212.00" xlink:href="#hd"/>
<path d="M200.10 212.00v19.80" class="stroke"/>
<use x="254.50" y="218.00" xlink:href="#hd"/>
<circle class="fill" cx="262.20" cy="215.00" r="1.2"/>
<path d="M251.00 218.00v21.00" class="stroke"/>
<use x="315.80" y="221.00" xlink:href="#hd"/>
<path d="M319.30 221.00v-21.00" class="stroke"/>
<path class="fill"
	d="M319.30 200.00c0.6 5.6 9.6 9 5.6 18.4
	1.6 -6 -1.3 -11.6 -5.6 -12.8
"/>
<path class="fill"
	d="M354.30 238.30l38.80 -4.60v-3.20l-38.80 4.60"/>
<use x="358.20" y="218.00" xlink:href="#hd"/>
<path d="M354.70 218.00v19.30" class="stroke"/>
<use x="396.30" y="212.00" xlink:href="#hd"/>
<path d="M392.80 212.00v20.70" class="stroke"/>
<path class="fill"
	d="M443.30 229.80l38.80 -2.60v-3.20l-38.80 2.60"/>
<use x="447.10" y="209.00" xlink:href="#hd"/>
<path d="M443.60 209.00v19.80" class="stroke"/>
<use x="485.20" y="206.00" xlink:href="#hd"/>
<path d="M481.70 206.00v20.20" class="stroke"/>
<path class="fill"
	d="M523.70 230.20l38.80 2.60v-3.20l-38.80 -2.60"/>
<use x="527.60" y="209.00" xlink:href="#hd"/>
<path d="M524.10 209.00v20.20" class="stroke"/>
<use x="565.70" y="212.00" xlink:href="#hd"/>
<path d="M562.20 212.00v19.80" class="stroke"/>
<path class="fill"
	d="M604.20 240.50l54.60 -5.00v-3.20l-54.60 5.00"/>
<path class="fill"
	d="M604.60 235.50l26.90 -2.50v-3.20l-26.90 2.50"/>
<use x="608.10" y="218.00" xlink:href="#hd"/>
<path d="M604.60 218.00v21.50" class="stroke"/>
<use x="635.00" y="215.00" xlink:href="#hd"/>
<path d="M631.50 215.00v22.00" class="stroke"/>
<use x="661.90" y="212.00" xlink:href="#hd"/>
<path d="M658.40 212.00v22.50" class="stroke"/>
</g>
<g stroke-width="0.70" style="font:13.00px Times">
<path class="stroke" stroke-width="1"
	d="M195.20 300.00v-24.00"/>
<path class="stroke" stroke-width="1"
	d="M358.20 300.00v-24.00"/>
<path class="stroke" stroke-width="1"
	d="M515.70 300.00v-24.00"/>
<path class="stroke" stroke-width="1"
	d="M691.60 300.00v-24.00"/>
<path d="m10.00 300.00
	h681.60
	M10.00 294.00
	h681.60
	M10.00 288.00
	h681.60
	M10.00 282.00
	h681.60
	M10.00 276.00
	h681.60
	" class="stroke"/>
<use x="22.00" y="294.00" xlink:href="#tclef"/>
<use x="37.00" y="276.00" xlink:href="#sh0"/>
<use x="55.00" y="279.00" xlink:href="#hd"/>
<circle class="fill" cx="62.70" cy="279.00" r="1.2"/>
<path d="M51.50 279.00v21.00" class="stroke"/>
<use x="105.10" y="291.00" xlink:href="#hd"/>
<path d="M108.60 291.00v-21.00" class="stroke"/>
<path class="fill"
	d="M108.60 270.00c0.6 5.6 9.6 9 5.6 18.4
	1.6 -6 -1.3 -11.6 -5.6 -12.8
"/>
<path class="fill"
	d="M135.90 308.20l31.80 -4.40v-3.20l-31.80 4.40"/>
<use x="139.80" y="288.00" xlink:href="#hd"/>
<path d="M136.30 288.00v19.20" class="stroke"/>
<use x="170.90" y="282.00" xlink:href="#hd"/>
<path d="M167.40 282.00v20.80" class="stroke"/>
<use x="212.50" y="279.00" xlink:href="#hd"/>
<circle class="fill" cx="220.20" cy="279.00" r="1.2"/>
<path d="M209.00 279.00v21.00" class="stroke"/>
<use x="268.20" y="276.00" xlink:href="#hd"/>
<path d="M264.70 276.00v21.00" class="stroke"/>
<path class="fill"
	d="M264.70 297.00c0.6 -5.6 9.6 -9 5.6 -18.4
	1.6 6 -1.3 11.6 -5.6 12.8
"/>
<path class="fill"
	d="M299.00 300.20l31.80 2.60v-3.20l-31.80 -2.60"/>
<use x="302.80" y="279.00" xlink:href="#hd"/>
<path d="M299.30 279.00v20.20" class="stroke"/>
<use x="334.00" y="282.00" xlink:href="#hd"/>
<path d="M330.50 282.00v19.80" class="stroke"/>
<use x="375.50" y="288.00" xlink:href="#hd"/>
<circle class="fill" cx="383.20" cy="285.00" r="1.2"/>
<path d="M372.00 288.00v21.00" class="stroke"/>
<use x="425.70" y="291.00" xlink:href="#hd"/>
<path d="M429.20 291.00v-21.00" class="stroke"/>
<path class="fill"
	d="M429.20 270.00c0.6 5.6 9.6 9 5.6 18.4
	1.6 -6 -1.3 -11.6 -5.6 -12.8
"/>
<path class="fill"
	d="M456.40 308.20l31.80 -4.40v-3.20l-31.80 4.40"/>
<use x="460.30" y="288.00" xlink:href="#hd"/>
<path d="M456.80 288.00v19.20" class="stroke"/>
<use x="491.40" y="282.00" xlink:href="#hd"/>
<path d="M487.90 282.00v20.80" class="stroke"/>
<use x="533.00" y="294.00" xlink:href="#hd"/>
<circle class="fill" cx="540.70" cy="291.00" r="1.2"/>
<path d="M536.50 294.00v-21.00" class="stroke"/>
<use x="588.70" y="288.00" xlink:href="#hd"/>
<path d="M592.20 288.00v-21.00" class="stroke"/>
<path class="fill"
	d="M592.20 267.00c0.6 5.6 9.6 9 5.6 18.4
	1.6 -6 -1.3 -11.6 -5.6 -12.8
"/>
<path class="fill"
	d="M626.50 268.80l44.70 4.80v3.20l-44.70 -4.80"/>
<path class="fill"
	d="M626.80 273.80l22.00 2.40v3.20l-22.00 -2.40"/>
<use x="623.30" y="291.00" xlink:href="#hd"/>
<path d="M626.80 291.00v-21.20" class="stroke"/>
<use x="645.30" y="294.00" xlink:href="#hd"/>
<path d="M648.80 294.00v-21.80" class="stroke"/>
<use x="667.40" y="297.00" xlink:href="#hd"/>
<path d="M670.90 297.00v-22.50" class="stroke"/>
</g>
<g stroke-width="0.70" style="font:13.00px Times">
<path class="stroke" stroke-width="1"
	d="M190.70 370.00v-24.00"/>
<path class="stroke" stroke-width="1"
	d="M342.60 370.00v-24.00"/>
<path class="stroke" stroke-width="1"
	d="M489.30 370.00v-24.00"/>
<path class="stroke" stroke-width="1"
	d="M691.60 370.00v-24.00"/>
<path d="m10.00 370.00
	h681.60
	M10.00 364.00
	h681.60
	M10.00 358.00
	h681.60
	M10.00 352.00
	h681.60
	M10.00 346.00
	h681.60
	" class="stroke"/>
<use x="22.00" y="364.00" xlink:href="#tclef"/>
<use x="37.00" y="346.00" xlink:href="#sh0"/>
<use x="55.00" y="364.00" xlink:href="#hd"/>
<circle class="fill" cx="62.70" cy="361.00" r="1.2"/>
<path d="M58.50 364.00v-21.00" class="stroke"/>
<use x="106.90" y="361.00" xlink:href="#hd"/>
<path d="M110.40 361.00v-21.00" class="stroke"/>
<path class="fill"
	d="M110.40 340.00c0.6 5.6 9.6 9 5.6 18.4
	1.6 -6 -1.3 -11.6 -5.6 -12.8
"/>
<path class="fill"
	d="M135.30 378.20l29.70 -4.30v-3.20l-29.70 4.30"/>
<use x="139.10" y="358.00" xlink:href="#hd"/>
<path d="M135.60 358.00v19.10" class="stroke"/>
<use x="168.20" y="352.00" xlink:href="#hd"/>
<path d="M164.70 352.00v20.90" class="stroke"/>
<use x="206.90" y="349.00" xlink:href="#hd"/>
<circle class="fill" cx="214.60" cy="349.00" r="1.2"/>
<path d="M203.40 349.00v21.00" class="stroke"/>
<use x="258.80" y="346.00" xlink:href="#hd"/>
<path d="M255.30 346.00v21.00" class="stroke"/>
<path class="fill"
	d="M255.30 367.00c0.6 -5.6 9.6 -9 5.6 -18.4
	1.6 6 -1.3 11.6 -5.6 12.8
"/>
<path class="fill"
	d="M287.20 370.20l29.70 2.50v-3.20l-29.70 -2.50"/>
<use x="291.00" y="349.00" xlink:href="#hd"/>
<path d="M287.50 349.00v20.30" class="stroke"/>
<use x="320.00" y="352.00" xlink:href="#hd"/>
<path d="M316.50 352.00v19.70" class="stroke"/>
<use x="358.80" y="358.00" xlink:href="#hd"/>
<circle class="fill" cx="366.50" cy="355.00" r="1.2"/>
<path d="M355.30 358.00v21.00" class="stroke"/>
<use x="405.50" y="361.00" xlink:href="#hd"/>
<path d="M409.00 361.00v-21.00" class="stroke"/>
<path class="fill"
	d="M409.00 340.00c0.6 5.6 9.6 9 5.6 18.4
	1.6 -6 -1.3 -11.6 -5.6 -12.8
"/>
<path class="fill"
	d="M433.90 378.20l29.70 -4.30v-3.20l-29.70 4.30"/>
<use x="437.70" y="358.00" xlink:href="#hd"/>
<path d="M434.20 358.00v19.10" class="stroke"/>
<use x="466.70" y="352.00" xlink:href="#hd"/>
<path d="M463.20 352.00v20.90" class="stroke"/>
<path class="fill"
	d="M501.60 364.20l29.70 2.50v-3.20l-29.70 -2.50"/>
<use x="505.40" y="343.00" xlink:href="#hd"/>
<path d="M501.90 343.00v20.30" class="stroke"/>
<use x="534.50" y="346.00" xlink:href="#hd"/>
<path d="M531.00 346.00v19.70" class="stroke"/>
<path class="fill"
	d="M562.90 370.20l29.70 2.50v-3.20l-29.70 -2.50"/>
<use x="566.70" y="349.00" xlink:href="#hd"/>
<path d="M563.20 349.00v20.30" class="stroke"/>
<use x="595.70" y="352.00" xlink:href="#hd"/>
<path d="M592.20 352.00v19.70" class="stroke"/>
<path class="fill"
	d="M624.20 380.40l41.70 -4.70v-3.20l-41.70 4.70"/>
<path class="fill"
	d="M624.50 375.30l20.50 -2.30v-3.20l-20.50 2.30"/>
<use x="628.00" y="358.00" xlink:href="#hd"/>
<path d="M624.50 358.00v21.30" class="stroke"/>
<use x="648.50" y="355.00" xlink:href="#hd"/>
<path d="M645.00 355.00v22.00" class="stroke"/>
<use x="669.00" y="352.00" xlink:href="#hd"/>
<path d="M665.50 352.00v22.70" class="stroke"/>
</g>
<g stroke-width="0.70" style="font:13.00px Times">
<path class="stroke" stroke-width="1"
	d="M179.50 440.00v-24.00"/>
<path class="stroke" stroke-width="1"
	d="M324.20 440.00v-24.00"/>
<path class="stroke" stroke-width="1"
	d="M464.00 440.00v-24.00"/>
<path class="stroke" stroke-width="1"
	d="M620.30 440.00v-24.00"/>
<path class="stroke" stroke-width="1"
	d="M691.60 440.00v-24.00"/>
<path class="stroke" stroke-width="1"
	d="M688.60 440.00v-24.00"/>
<path d="m10.00 440.00
	h681.60
	M10.00 434.00
	h681.60
	M10.00 428.00
	h681.60
	M10.00 422.00
	h681.60
	M10.00 416.00
	h681.60
	" class="stroke"/>
<use x="22.00" y="434.00" xlink:href="#tclef"/>
<use x="37.00" y="416.00" xlink:href="#sh0"/>
<use x="55.00" y="419.00" xlink:href="#hd"/>
<circle class="fill" cx="62.70" cy="419.00" r="1.2"/>
<path d="M51.50 419.00v21.00" class="stroke"/>
<use x="99.50" y="431.00" xlink:href="#hd"/>
<path d="M103.00 431.00v-21.00" class="stroke"/>
<path class="fill"
	d="M103.00 410.00c0.6 5.6 9.6 9 5.6 18.4
	1.6 -6 -1.3 -11.6 -5.6 -12.8
"/>
<path class="fill"
	d="M126.40 448.10l28.30 -4.30v-3.20l-28.30 4.30"/>
<use x="130.30" y="428.00" xlink:href="#hd"/>
<path d="M126.80 428.00v19.10" class="stroke"/>
<use x="157.90" y="422.00" xlink:href="#hd"/>
<path d="M154.40 422.00v20.90" class="stroke"/>
<use x="194.80" y="419.00" xlink:href="#hd"/>
<circle class="fill" cx="202.50" cy="419.00" r="1.2"/>
<path d="M191.30 419.00v21.00" class="stroke"/>
<use x="244.30" y="416.00" xlink:href="#hd"/>
<path d="M240.80 416.00v21.00" class="stroke"/>
<path class="fill"
	d="M240.80 437.00c0.6 -5.6 9.6 -9 5.6 -18.4
	1.6 6 -1.3 11.6 -5.6 12.8
"/>
<path class="fill"
	d="M271.20 440.20l28.30 2.50v-3.20l-28.30 -2.50"/>
<use x="275.00" y="419.00" xlink:href="#hd"/>
<path d="M271.50 419.00v20.30" class="stroke"/>
<use x="302.70" y="422.00" xlink:href="#hd"/>
<path d="M299.20 422.00v19.70" class="stroke"/>
<use x="339.60" y="428.00" xlink:href="#hd"/>
<circle class="fill" cx="347.30" cy="425.00" r="1.2"/>
<path d="M336.10 428.00v21.00" class="stroke"/>
<use x="384.10" y="431.00" xlink:href="#hd"/>
<path d="M387.60 431.00v-21.00" class="stroke"/>
<path class="fill"
	d="M387.60 410.00c0.6 5.6 9.6 9 5.6 18.4
	1.6 -6 -1.3 -11.6 -5.6 -12.8
"/>
<path class="fill"
	d="M411.00 448.10l28.30 -4.30v-3.20l-28.30 4.30"/>
<use x="414.90" y="428.00" xlink:href="#hd"/>
<path d="M411.40 428.00v19.10" class="stroke"/>
<use x="442.50" y="422.00" xlink:href="#hd"/>
<path d="M439.00 422.00v20.90" class="stroke"/>
<use x="479.40" y="443.00" xlink:href="#hd"/>
<circle class="fill" cx="487.10" cy="443.00" r="1.2"/>
<path d="M482.90 443.00v-21.00" class="stroke"/>
<use x="528.90" y="428.00" xlink:href="#hd"/>
<path d="M532.40 428.00v-21.00" class="stroke"/>
<path class="fill"
	d="M532.40 407.00c0.6 5.6 9.6 9 5.6 18.4
	1.6 -6 -1.3 -11.6 -5.6 -12.8
"/>
<path class="fill"
	d="M562.80 408.80l39.80 4.70v3.20l-39.80 -4.70"/>
<path class="fill"
	d="M563.10 413.80l19.60 2.30v3.20l-19.60 -2.30"/>
<use x="559.60" y="431.00" xlink:href="#hd"/>
<path d="M563.10 431.00v-21.20" class="stroke"/>
<use x="579.20" y="434.00" xlink:href="#hd"/>
<path d="M582.70 434.00v-21.90" class="stroke"/>
<use x="598.70" y="437.00" xlink:href="#hd"/>
<path d="M602.20 437.00v-22.60" class="stroke"/>
<defs>
<path id="Hd" class="fill" d="m3 -1.6
	c-1 -1.8 -7 1.4 -6 3.2
	1 1.8 7 -1.4 6 -3.2
	m0.5 -0.3
	c2 3.8 -5 7.6 -7 3.8
	-2 -3.8 5 -7.6 7 -3.8"/>
</defs>
<use x="635.60" y="434.00" xlink:href="#Hd"/>
<circle class="fill" cx="644.30" cy="431.00" r="1.2"/>
<path d="M639.10 434.00v-21.00" class="stroke"/>
</g>
</svg>
