<?xml version="1.0" standalone="no"?>
<!DOCTYPE svg PUBLIC "-//W3C//DTD SVG 1.1//EN"
	"http://www.w3.org/Graphics/SVG/1.1/DTD/svg11.dtd">
<svg xmlns="http://www.w3.org/2000/svg" version="1.1"
	xmlns:xlink="http://www.w3.org/1999/xlink"
	color="black"
	width="701.60px" height="472.00px">
<style type="text/css">
.fill {fill: currentColor}
.stroke {stroke: currentColor; fill: none}
text{white-space: pre}
</style>
<title>/media/tim/Data1/tims_code/sphinx-tunes/source/_abcfiles/Sherborne Waltz (1) tune 1</title>
<!-- Creator: abcm2ps-8.14.6 -->
<!-- CreationDate: Jul 30, 2023 11:59 -->
<!-- CommandLine: -g '/media/tim/Data1/tims_code/sphinx-tunes/source/_abcfiles/Sherborne Waltz.abc' -O '/media/tim/Data1/tims_code/sphinx-tunes/source/_abcfiles/Sherborne Waltz.svg' -->
<g stroke-width="0.70">
<!-- title: Sherborne Waltz -->
</g>
<g stroke-width="0.70" style="font:20.00px Times">
<text x="350.80" y="22.00" text-anchor="middle">Sherborne Waltz</text>
</g>
<g stroke-width="0.70" style="font:italic 14.00px Times">
<text x="691.60" y="46.00" text-anchor="end">England</text>
</g>
<g stroke-width="0.70" style="font:italic 14.00px Times">
<defs>
<g id="rdots" class="fill">
	<circle cx="0" cy="-9" r="1.2"/>
	<circle cx="0" cy="-15" r="1.2"/>
</g>
</defs>
<use x="108.60" y="99.00" xlink:href="#rdots"/>
<path class="stroke" stroke-width="1"
	d="M104.60 99.00v-24.00"/>
<path class="stroke" stroke-width="3"
	d="M100.10 99.00v-24.00"/>
<path class="stroke" stroke-width="1"
	d="M256.90 99.00v-24.00"/>
<path class="stroke" stroke-width="1"
	d="M404.30 99.00v-24.00"/>
<path class="stroke" stroke-width="1"
	d="M551.60 99.00v-24.00"/>
<path class="stroke" stroke-width="1"
	d="M691.60 99.00v-24.00"/>
<path d="m10.00 99.00
	h681.60
	M10.00 93.00
	h681.60
	M10.00 87.00
	h681.60
	M10.00 81.00
	h681.60
	M10.00 75.00
	h681.60
	" class="stroke"/>
<defs>
<path id="utclef" class="fill" d="m-50 -90
	c-72 -41 -72 -158 52 -188
	150 -10 220 188 90 256
	-114 52 -275 0 -293 -136
	-15 -181 93 -229 220 -334
	88 -87 79 -133 62 -210
	-51 33 -94 105 -89 186
	17 267 36 374 49 574
	6 96 -19 134 -77 135
	-80 1 -126 -93 -61 -133
	85 -41 133 101 31 105
	23 17 92 37 90 -92
	-10 -223 -39 -342 -50 -617
	0 -90 0 -162 96 -232
	56 72 63 230 22 289
	-74 106 -257 168 -255 316
	9 153 148 185 252 133
	86 -65 29 -192 -80 -176
	-71 12 -105 67 -59 124"/>
<use id="tclef" transform="translate(0,6) scale(0.045)"
	xlink:href="#utclef"/>
</defs>
<use x="22.00" y="93.00" xlink:href="#tclef"/>
<defs>
<path id="usharp" class="fill" d="
	m136 -702
	v890
	h32
	v-890
	m128 840
	h32
	v-888
	h-32
	m-232 286
	v116
	l338 -96
	v-116
	m-338 442
	v116
	l338 -98
	v-114"/>
<use id="sh0" transform="translate(-4,5) scale(0.018)"
	xlink:href="#usharp"/>
</defs>
<use x="37.00" y="75.00" xlink:href="#sh0"/>
<g style="font:bold 16px serif"
	transform="translate(53.00,98.50) scale(1.2,1)">
	<text text-anchor="middle">4</text>
	<text y="-12" text-anchor="middle">3</text>
</g>
<defs>
<ellipse id="hd" rx="4.1" ry="2.9"
	transform="rotate(-20)" class="fill"/>
</defs>
<use x="71.00" y="102.00" xlink:href="#hd"/>
<path d="M74.50 102.00v-21.00" class="stroke"/>
<use x="126.70" y="99.00" xlink:href="#hd"/>
<path d="M130.20 99.00v-21.00" class="stroke"/>
<use x="174.90" y="93.00" xlink:href="#hd"/>
<path d="M178.40 93.00v-21.00" class="stroke"/>
<use x="223.20" y="99.00" xlink:href="#hd"/>
<path d="M226.70 99.00v-21.00" class="stroke"/>
<use x="274.00" y="102.00" xlink:href="#hd"/>
<path d="M277.50 102.00v-21.00" class="stroke"/>
<use x="322.30" y="93.00" xlink:href="#hd"/>
<path d="M325.80 93.00v-21.00" class="stroke"/>
<use x="370.50" y="90.00" xlink:href="#hd"/>
<path d="M374.00 90.00v-21.00" class="stroke"/>
<use x="421.40" y="87.00" xlink:href="#hd"/>
<path d="M424.90 87.00v-21.00" class="stroke"/>
<use x="469.60" y="81.00" xlink:href="#hd"/>
<path d="M466.10 81.00v21.00" class="stroke"/>
<use x="517.90" y="87.00" xlink:href="#hd"/>
<path d="M514.40 87.00v21.00" class="stroke"/>
<defs>
<path id="Hd" class="fill" d="m3 -1.6
	c-1 -1.8 -7 1.4 -6 3.2
	1 1.8 7 -1.4 6 -3.2
	m0.5 -0.3
	c2 3.8 -5 7.6 -7 3.8
	-2 -3.8 5 -7.6 7 -3.8"/>
</defs>
<use x="568.70" y="90.00" xlink:href="#Hd"/>
<path d="M572.20 90.00v-21.00" class="stroke"/>
<path class="fill"
	d="M640.10 66.20l31.40 2.60v3.20l-31.40 -2.60"/>
<use x="637.00" y="87.00" xlink:href="#hd"/>
<path d="M640.50 87.00v-19.80" class="stroke"/>
<use x="667.70" y="90.00" xlink:href="#hd"/>
<path d="M671.20 90.00v-20.20" class="stroke"/>
</g>
<g stroke-width="0.70" style="font:italic 14.00px Times">
<path class="stroke" stroke-width="1"
	d="M54.50 169.00v-24.00"/>
<path class="stroke" stroke-width="1"
	d="M237.20 169.00v-24.00"/>
<path class="stroke" stroke-width="1"
	d="M420.00 169.00v-24.00"/>
<path class="stroke" stroke-width="1"
	d="M602.70 169.00v-24.00"/>
<path class="stroke" stroke-width="3"
	d="M690.10 169.00v-24.00"/>
<path class="stroke" stroke-width="1"
	d="M685.60 169.00v-24.00"/>
<use x="681.60" y="169.00" xlink:href="#rdots"/>
<path d="m10.00 169.00
	h681.60
	M10.00 163.00
	h681.60
	M10.00 157.00
	h681.60
	M10.00 151.00
	h681.60
	M10.00 145.00
	h681.60
	" class="stroke"/>
<use x="22.00" y="163.00" xlink:href="#tclef"/>
<use x="37.00" y="145.00" xlink:href="#sh0"/>
<use x="75.70" y="163.00" xlink:href="#hd"/>
<path d="M79.20 163.00v-21.00" class="stroke"/>
<use x="135.50" y="169.00" xlink:href="#hd"/>
<path d="M139.00 169.00v-21.00" class="stroke"/>
<use x="195.30" y="169.00" xlink:href="#hd"/>
<path d="M198.80 169.00v-21.00" class="stroke"/>
<use x="258.40" y="172.00" xlink:href="#hd"/>
<path d="M261.90 172.00v-21.00" class="stroke"/>
<use x="318.20" y="163.00" xlink:href="#hd"/>
<path d="M321.70 163.00v-21.00" class="stroke"/>
<use x="378.10" y="160.00" xlink:href="#hd"/>
<path d="M381.60 160.00v-21.00" class="stroke"/>
<use x="441.10" y="157.00" xlink:href="#hd"/>
<path d="M444.60 157.00v-21.00" class="stroke"/>
<use x="501.00" y="163.00" xlink:href="#hd"/>
<path d="M504.50 163.00v-21.00" class="stroke"/>
<use x="560.80" y="163.00" xlink:href="#hd"/>
<path d="M564.30 163.00v-21.00" class="stroke"/>
<use x="623.90" y="163.00" xlink:href="#Hd"/>
<path d="M627.40 163.00v-21.00" class="stroke"/>
</g>
<g stroke-width="0.70" style="font:italic 14.00px Times">
<path class="stroke" stroke-width="1"
	d="M90.30 239.00v-24.00"/>
<path class="stroke" stroke-width="1"
	d="M258.60 239.00v-24.00"/>
<path class="stroke" stroke-width="1"
	d="M383.20 239.00v-24.00"/>
<path class="stroke" stroke-width="1"
	d="M537.40 239.00v-24.00"/>
<path class="stroke" stroke-width="1"
	d="M691.60 239.00v-24.00"/>
<path d="m10.00 239.00
	h681.60
	M10.00 233.00
	h681.60
	M10.00 227.00
	h681.60
	M10.00 221.00
	h681.60
	M10.00 215.00
	h681.60
	" class="stroke"/>
<use x="22.00" y="233.00" xlink:href="#tclef"/>
<use x="37.00" y="215.00" xlink:href="#sh0"/>
<use x="55.00" y="230.00" xlink:href="#hd"/>
<path d="M58.50 230.00v-21.00" class="stroke"/>
<use x="108.20" y="227.00" xlink:href="#hd"/>
<circle class="fill" cx="115.90" cy="224.00" r="1.2"/>
<path d="M111.70 227.00v-21.00" class="stroke"/>
<use x="165.70" y="230.00" xlink:href="#hd"/>
<path d="M169.20 230.00v-21.00" class="stroke"/>
<path class="fill"
	d="M169.20 209.00c0.6 5.6 9.6 9 5.6 18.4
	1.6 -6 -1.3 -11.6 -5.6 -12.8
"/>
<path class="fill"
	d="M197.60 247.80l32.80 -2.60v-3.20l-32.80 2.60"/>
<use x="201.40" y="227.00" xlink:href="#hd"/>
<path d="M197.90 227.00v19.80" class="stroke"/>
<use x="233.60" y="224.00" xlink:href="#hd"/>
<path d="M230.10 224.00v20.20" class="stroke"/>
<use x="276.40" y="221.00" xlink:href="#Hd"/>
<path d="M272.90 221.00v21.00" class="stroke"/>
<use x="347.90" y="227.00" xlink:href="#hd"/>
<path d="M344.40 227.00v21.00" class="stroke"/>
<use x="401.10" y="230.00" xlink:href="#hd"/>
<path d="M404.60 230.00v-21.00" class="stroke"/>
<use x="451.60" y="233.00" xlink:href="#hd"/>
<path d="M455.10 233.00v-21.00" class="stroke"/>
<use x="502.10" y="230.00" xlink:href="#hd"/>
<path d="M505.60 230.00v-21.00" class="stroke"/>
<use x="555.30" y="227.00" xlink:href="#hd"/>
<path d="M558.80 227.00v-21.00" class="stroke"/>
<use x="605.80" y="224.00" xlink:href="#hd"/>
<path d="M602.30 224.00v21.00" class="stroke"/>
<use x="656.30" y="221.00" xlink:href="#hd"/>
<path d="M652.80 221.00v21.00" class="stroke"/>
</g>
<g stroke-width="0.70" style="font:italic 14.00px Times">
<path class="stroke" stroke-width="1"
	d="M54.50 309.00v-24.00"/>
<path class="stroke" stroke-width="1"
	d="M221.80 309.00v-24.00"/>
<path class="stroke" stroke-width="1"
	d="M389.10 309.00v-24.00"/>
<path class="stroke" stroke-width="1"
	d="M556.40 309.00v-24.00"/>
<path class="stroke" stroke-width="1"
	d="M691.60 309.00v-24.00"/>
<path d="m10.00 309.00
	h681.60
	M10.00 303.00
	h681.60
	M10.00 297.00
	h681.60
	M10.00 291.00
	h681.60
	M10.00 285.00
	h681.60
	" class="stroke"/>
<use x="22.00" y="303.00" xlink:href="#tclef"/>
<use x="37.00" y="285.00" xlink:href="#sh0"/>
<use x="73.90" y="288.00" xlink:href="#hd"/>
<path d="M70.40 288.00v21.00" class="stroke"/>
<use x="128.70" y="291.00" xlink:href="#hd"/>
<path d="M125.20 291.00v21.00" class="stroke"/>
<use x="183.40" y="297.00" xlink:href="#hd"/>
<path d="M179.90 297.00v21.00" class="stroke"/>
<use x="241.20" y="300.00" xlink:href="#hd"/>
<path d="M244.70 300.00v-21.00" class="stroke"/>
<use x="295.90" y="303.00" xlink:href="#hd"/>
<path d="M299.40 303.00v-21.00" class="stroke"/>
<use x="350.70" y="300.00" xlink:href="#hd"/>
<path d="M354.20 300.00v-21.00" class="stroke"/>
<use x="408.50" y="297.00" xlink:href="#hd"/>
<path d="M412.00 297.00v-21.00" class="stroke"/>
<use x="463.20" y="300.00" xlink:href="#hd"/>
<path d="M466.70 300.00v-21.00" class="stroke"/>
<use x="518.00" y="303.00" xlink:href="#hd"/>
<path d="M521.50 303.00v-21.00" class="stroke"/>
<use x="575.70" y="309.00" xlink:href="#Hd"/>
<path d="M579.20 309.00v-21.00" class="stroke"/>
<use x="653.30" y="312.00" xlink:href="#hd"/>
<path d="M656.80 312.00v-21.00" class="stroke"/>
</g>
<g stroke-width="0.70" style="font:italic 14.00px Times">
<path class="stroke" stroke-width="1"
	d="M54.50 379.00v-24.00"/>
<path class="stroke" stroke-width="1"
	d="M215.80 379.00v-24.00"/>
<path class="stroke" stroke-width="1"
	d="M377.10 379.00v-24.00"/>
<path class="stroke" stroke-width="1"
	d="M538.40 379.00v-24.00"/>
<path class="stroke" stroke-width="1"
	d="M691.60 379.00v-24.00"/>
<path d="m10.00 379.00
	h681.60
	M10.00 373.00
	h681.60
	M10.00 367.00
	h681.60
	M10.00 361.00
	h681.60
	M10.00 355.00
	h681.60
	" class="stroke"/>
<use x="22.00" y="373.00" xlink:href="#tclef"/>
<use x="37.00" y="355.00" xlink:href="#sh0"/>
<use x="73.20" y="379.00" xlink:href="#hd"/>
<path d="M76.70 379.00v-21.00" class="stroke"/>
<use x="126.00" y="373.00" xlink:href="#hd"/>
<path d="M129.50 373.00v-21.00" class="stroke"/>
<use x="178.80" y="379.00" xlink:href="#hd"/>
<path d="M182.30 379.00v-21.00" class="stroke"/>
<use x="234.50" y="382.00" xlink:href="#hd"/>
<path d="M238.00 382.00v-21.00" class="stroke"/>
<use x="287.30" y="373.00" xlink:href="#hd"/>
<path d="M290.80 373.00v-21.00" class="stroke"/>
<use x="340.10" y="370.00" xlink:href="#hd"/>
<path d="M343.60 370.00v-21.00" class="stroke"/>
<use x="395.80" y="367.00" xlink:href="#hd"/>
<path d="M399.30 367.00v-21.00" class="stroke"/>
<use x="448.60" y="361.00" xlink:href="#hd"/>
<path d="M445.10 361.00v21.00" class="stroke"/>
<use x="501.40" y="367.00" xlink:href="#hd"/>
<path d="M497.90 367.00v21.00" class="stroke"/>
<use x="557.10" y="370.00" xlink:href="#Hd"/>
<path d="M560.60 370.00v-21.00" class="stroke"/>
<path class="fill"
	d="M635.00 346.20l34.30 2.60v3.20l-34.30 -2.60"/>
<use x="631.80" y="367.00" xlink:href="#hd"/>
<path d="M635.30 367.00v-19.80" class="stroke"/>
<use x="665.40" y="370.00" xlink:href="#hd"/>
<path d="M668.90 370.00v-20.20" class="stroke"/>
</g>
<g stroke-width="0.70" style="font:italic 14.00px Times">
<path class="stroke" stroke-width="1"
	d="M54.50 449.00v-24.00"/>
<path class="stroke" stroke-width="1"
	d="M237.20 449.00v-24.00"/>
<path class="stroke" stroke-width="1"
	d="M420.00 449.00v-24.00"/>
<path class="stroke" stroke-width="1"
	d="M602.70 449.00v-24.00"/>
<path class="stroke" stroke-width="1"
	d="M691.60 449.00v-24.00"/>
<path class="stroke" stroke-width="1"
	d="M688.60 449.00v-24.00"/>
<path d="m10.00 449.00
	h681.60
	M10.00 443.00
	h681.60
	M10.00 437.00
	h681.60
	M10.00 431.00
	h681.60
	M10.00 425.00
	h681.60
	" class="stroke"/>
<use x="22.00" y="443.00" xlink:href="#tclef"/>
<use x="37.00" y="425.00" xlink:href="#sh0"/>
<use x="75.70" y="443.00" xlink:href="#hd"/>
<path d="M79.20 443.00v-21.00" class="stroke"/>
<use x="135.50" y="449.00" xlink:href="#hd"/>
<path d="M139.00 449.00v-21.00" class="stroke"/>
<use x="195.30" y="449.00" xlink:href="#hd"/>
<path d="M198.80 449.00v-21.00" class="stroke"/>
<use x="258.40" y="452.00" xlink:href="#hd"/>
<path d="M261.90 452.00v-21.00" class="stroke"/>
<use x="318.20" y="443.00" xlink:href="#hd"/>
<path d="M321.70 443.00v-21.00" class="stroke"/>
<use x="378.10" y="440.00" xlink:href="#hd"/>
<path d="M381.60 440.00v-21.00" class="stroke"/>
<use x="441.10" y="437.00" xlink:href="#hd"/>
<path d="M444.60 437.00v-21.00" class="stroke"/>
<use x="501.00" y="443.00" xlink:href="#hd"/>
<path d="M504.50 443.00v-21.00" class="stroke"/>
<use x="560.80" y="443.00" xlink:href="#hd"/>
<path d="M564.30 443.00v-21.00" class="stroke"/>
<use x="623.90" y="443.00" xlink:href="#Hd"/>
<path d="M627.40 443.00v-21.00" class="stroke"/>
</g>
</svg>
