<?xml version="1.0" standalone="no"?>
<!DOCTYPE svg PUBLIC "-//W3C//DTD SVG 1.1//EN"
	"http://www.w3.org/Graphics/SVG/1.1/DTD/svg11.dtd">
<svg xmlns="http://www.w3.org/2000/svg" version="1.1"
	xmlns:xlink="http://www.w3.org/1999/xlink"
	color="black"
	width="701.60px" height="598.00px">
<style type="text/css">
.fill {fill: currentColor}
.stroke {stroke: currentColor; fill: none}
text{white-space: pre}
</style>
<title>/media/tim/Data1/tims_code/sphinx-tunes/source/_abcfiles/The Valiant.abc (1) tune 1</title>
<!-- Creator: abcm2ps-8.14.6 -->
<!-- CreationDate: Jul 30, 2023 12:16 -->
<!-- CommandLine: -g '/media/tim/Data1/tims_code/sphinx-tunes/source/_abcfiles/The Valiant.abc' -O '/media/tim/Data1/tims_code/sphinx-tunes/source/_abcfiles/The Valiant.svg' -->
<g stroke-width="0.70">
<!-- title: The Valiant -->
</g>
<g stroke-width="0.70" style="font:20.00px Times">
<text x="350.80" y="22.00" text-anchor="middle">The Valiant</text>
</g>
<g stroke-width="0.70" style="font:20.00px Times">
<path class="stroke" stroke-width="1"
	d="M90.80 85.00v-24.00"/>
<path class="stroke" stroke-width="1"
	d="M243.70 85.00v-24.00"/>
<path class="stroke" stroke-width="1"
	d="M396.60 85.00v-24.00"/>
<path class="stroke" stroke-width="1"
	d="M549.60 85.00v-24.00"/>
<path class="stroke" stroke-width="1"
	d="M691.60 85.00v-24.00"/>
<path d="m10.00 85.00
	h681.60
	M10.00 79.00
	h681.60
	M10.00 73.00
	h681.60
	M10.00 67.00
	h681.60
	M10.00 61.00
	h681.60
	" class="stroke"/>
<defs>
<path id="utclef" class="fill" d="m-50 -90
	c-72 -41 -72 -158 52 -188
	150 -10 220 188 90 256
	-114 52 -275 0 -293 -136
	-15 -181 93 -229 220 -334
	88 -87 79 -133 62 -210
	-51 33 -94 105 -89 186
	17 267 36 374 49 574
	6 96 -19 134 -77 135
	-80 1 -126 -93 -61 -133
	85 -41 133 101 31 105
	23 17 92 37 90 -92
	-10 -223 -39 -342 -50 -617
	0 -90 0 -162 96 -232
	56 72 63 230 22 289
	-74 106 -257 168 -255 316
	9 153 148 185 252 133
	86 -65 29 -192 -80 -176
	-71 12 -105 67 -59 124"/>
<use id="tclef" transform="translate(0,6) scale(0.045)"
	xlink:href="#utclef"/>
</defs>
<use x="22.00" y="79.00" xlink:href="#tclef"/>
<defs>
<path id="usharp" class="fill" d="
	m136 -702
	v890
	h32
	v-890
	m128 840
	h32
	v-888
	h-32
	m-232 286
	v116
	l338 -96
	v-116
	m-338 442
	v116
	l338 -98
	v-114"/>
<use id="sh0" transform="translate(-4,5) scale(0.018)"
	xlink:href="#usharp"/>
</defs>
<use x="37.00" y="61.00" xlink:href="#sh0"/>
<g style="font:bold 16px serif"
	transform="translate(53.00,84.50) scale(1.2,1)">
	<text text-anchor="middle">8</text>
	<text y="-12" text-anchor="middle">6</text>
</g>
<defs>
<ellipse id="hd" rx="4.1" ry="2.9"
	transform="rotate(-20)" class="fill"/>
</defs>
<use x="71.00" y="76.00" xlink:href="#hd"/>
<path d="M74.50 76.00v-21.00" class="stroke"/>
<path class="fill"
	d="M74.50 55.00c0.6 5.6 9.6 9 5.6 18.4
	1.6 -6 -1.3 -11.6 -5.6 -12.8
"/>
<use x="104.90" y="73.00" xlink:href="#hd"/>
<path d="M108.40 73.00v-21.00" class="stroke"/>
<use x="144.80" y="73.00" xlink:href="#hd"/>
<path d="M148.30 73.00v-21.00" class="stroke"/>
<path class="fill"
	d="M148.30 52.00c0.6 5.6 9.6 9 5.6 18.4
	1.6 -6 -1.3 -11.6 -5.6 -12.8
"/>
<path class="fill"
	d="M176.20 52.50l51.50 4.90v3.20l-51.50 -4.90"/>
<use x="173.10" y="73.00" xlink:href="#hd"/>
<path d="M176.60 73.00v-19.40" class="stroke"/>
<use x="198.50" y="76.00" xlink:href="#hd"/>
<path d="M202.00 76.00v-20.00" class="stroke"/>
<use x="223.90" y="79.00" xlink:href="#hd"/>
<path d="M227.40 79.00v-20.60" class="stroke"/>
<use x="257.80" y="73.00" xlink:href="#hd"/>
<path d="M261.30 73.00v-21.00" class="stroke"/>
<use x="297.80" y="76.00" xlink:href="#hd"/>
<path d="M301.30 76.00v-21.00" class="stroke"/>
<path class="fill"
	d="M301.30 55.00c0.6 5.6 9.6 9 5.6 18.4
	1.6 -6 -1.3 -11.6 -5.6 -12.8
"/>
<path class="fill"
	d="M329.20 53.80l51.50 0.00v3.20l-51.50 -0.00"/>
<use x="326.00" y="76.00" xlink:href="#hd"/>
<path d="M329.50 76.00v-21.20" class="stroke"/>
<use x="351.40" y="73.00" xlink:href="#hd"/>
<path d="M354.90 73.00v-18.20" class="stroke"/>
<use x="376.90" y="76.00" xlink:href="#hd"/>
<path d="M380.40 76.00v-21.20" class="stroke"/>
<use x="410.80" y="79.00" xlink:href="#hd"/>
<path d="M414.30 79.00v-21.00" class="stroke"/>
<use x="450.70" y="79.00" xlink:href="#hd"/>
<path d="M454.20 79.00v-21.00" class="stroke"/>
<path class="fill"
	d="M454.20 58.00c0.6 5.6 9.6 9 5.6 18.4
	1.6 -6 -1.3 -11.6 -5.6 -12.8
"/>
<path class="fill"
	d="M482.10 58.00l51.50 0.00v3.20l-51.50 -0.00"/>
<use x="479.00" y="79.00" xlink:href="#hd"/>
<path d="M482.50 79.00v-20.00" class="stroke"/>
<use x="504.40" y="76.00" xlink:href="#hd"/>
<path d="M507.90 76.00v-17.00" class="stroke"/>
<use x="529.80" y="79.00" xlink:href="#hd"/>
<path d="M533.30 79.00v-20.00" class="stroke"/>
<use x="563.70" y="79.00" xlink:href="#hd"/>
<path d="M567.20 79.00v-21.00" class="stroke"/>
<use x="603.60" y="82.00" xlink:href="#hd"/>
<path d="M607.10 82.00v-21.00" class="stroke"/>
<path class="fill"
	d="M607.10 61.00c0.6 5.6 9.6 9 5.6 18.4
	1.6 -6 -1.3 -11.6 -5.6 -12.8
"/>
<use x="631.90" y="82.00" xlink:href="#hd"/>
<path d="M635.40 82.00v-21.00" class="stroke"/>
<use x="671.80" y="88.00" xlink:href="#hd"/>
<path d="M675.30 88.00v-21.00" class="stroke"/>
<path class="fill"
	d="M675.30 67.00c0.6 5.6 9.6 9 5.6 18.4
	1.6 -6 -1.3 -11.6 -5.6 -12.8
"/>
</g>
<g stroke-width="0.70" style="font:20.00px Times">
<path class="stroke" stroke-width="1"
	d="M216.30 155.00v-24.00"/>
<path class="stroke" stroke-width="1"
	d="M381.30 155.00v-24.00"/>
<path class="stroke" stroke-width="1"
	d="M559.00 155.00v-24.00"/>
<path class="stroke" stroke-width="1"
	d="M691.60 155.00v-24.00"/>
<path d="m10.00 155.00
	h681.60
	M10.00 149.00
	h681.60
	M10.00 143.00
	h681.60
	M10.00 137.00
	h681.60
	M10.00 131.00
	h681.60
	" class="stroke"/>
<use x="22.00" y="149.00" xlink:href="#tclef"/>
<use x="37.00" y="131.00" xlink:href="#sh0"/>
<use x="55.00" y="155.00" xlink:href="#hd"/>
<path d="M58.50 155.00v-21.00" class="stroke"/>
<use x="101.40" y="155.00" xlink:href="#hd"/>
<path d="M104.90 155.00v-21.00" class="stroke"/>
<path class="fill"
	d="M104.90 134.00c0.6 5.6 9.6 9 5.6 18.4
	1.6 -6 -1.3 -11.6 -5.6 -12.8
"/>
<path class="fill"
	d="M137.40 133.50l59.80 -5.00v3.20l-59.80 5.00"/>
<use x="134.20" y="155.00" xlink:href="#hd"/>
<path d="M137.70 155.00v-20.50" class="stroke"/>
<use x="163.80" y="152.00" xlink:href="#hd"/>
<path d="M167.30 152.00v-20.00" class="stroke"/>
<use x="193.30" y="149.00" xlink:href="#hd"/>
<path d="M196.80 149.00v-19.50" class="stroke"/>
<use x="232.70" y="155.00" xlink:href="#hd"/>
<path d="M236.20 155.00v-21.00" class="stroke"/>
<use x="279.10" y="158.00" xlink:href="#hd"/>
<path d="M282.60 158.00v-21.00" class="stroke"/>
<path class="fill"
	d="M282.60 137.00c0.6 5.6 9.6 9 5.6 18.4
	1.6 -6 -1.3 -11.6 -5.6 -12.8
"/>
<use x="311.90" y="158.00" xlink:href="#hd"/>
<path d="M315.40 158.00v-21.00" class="stroke"/>
<use x="358.30" y="158.00" xlink:href="#hd"/>
<path d="M361.80 158.00v-21.00" class="stroke"/>
<path class="fill"
	d="M361.80 137.00c0.6 5.6 9.6 9 5.6 18.4
	1.6 -6 -1.3 -11.6 -5.6 -12.8
"/>
<use x="397.70" y="149.00" xlink:href="#hd"/>
<path d="M401.20 149.00v-21.00" class="stroke"/>
<use x="444.10" y="149.00" xlink:href="#hd"/>
<path d="M447.60 149.00v-21.00" class="stroke"/>
<path class="fill"
	d="M447.60 128.00c0.6 5.6 9.6 9 5.6 18.4
	1.6 -6 -1.3 -11.6 -5.6 -12.8
"/>
<path class="fill"
	d="M480.10 127.50l59.80 -5.00v3.20l-59.80 5.00"/>
<use x="476.90" y="149.00" xlink:href="#hd"/>
<path d="M480.40 149.00v-20.50" class="stroke"/>
<use x="506.50" y="146.00" xlink:href="#hd"/>
<path d="M510.00 146.00v-20.00" class="stroke"/>
<use x="536.00" y="143.00" xlink:href="#hd"/>
<path d="M539.50 143.00v-19.50" class="stroke"/>
<use x="575.40" y="143.00" xlink:href="#hd"/>
<path d="M578.90 143.00v-21.00" class="stroke"/>
<use x="621.80" y="146.00" xlink:href="#hd"/>
<path d="M625.30 146.00v-21.00" class="stroke"/>
<path class="fill"
	d="M625.30 125.00c0.6 5.6 9.6 9 5.6 18.4
	1.6 -6 -1.3 -11.6 -5.6 -12.8
"/>
<use x="654.60" y="146.00" xlink:href="#hd"/>
<circle class="fill" cx="662.30" cy="146.00" r="1.2"/>
<path d="M658.10 146.00v-21.00" class="stroke"/>
</g>
<g stroke-width="0.70" style="font:20.00px Times">
<path class="stroke" stroke-width="1"
	d="M205.60 225.00v-24.00"/>
<path class="stroke" stroke-width="1"
	d="M371.60 225.00v-24.00"/>
<path class="stroke" stroke-width="1"
	d="M537.50 225.00v-24.00"/>
<path class="stroke" stroke-width="1"
	d="M691.60 225.00v-24.00"/>
<path d="m10.00 225.00
	h681.60
	M10.00 219.00
	h681.60
	M10.00 213.00
	h681.60
	M10.00 207.00
	h681.60
	M10.00 201.00
	h681.60
	" class="stroke"/>
<use x="22.00" y="219.00" xlink:href="#tclef"/>
<use x="37.00" y="201.00" xlink:href="#sh0"/>
<use x="55.00" y="213.00" xlink:href="#hd"/>
<path d="M58.50 213.00v-21.00" class="stroke"/>
<use x="98.30" y="213.00" xlink:href="#hd"/>
<path d="M101.80 213.00v-21.00" class="stroke"/>
<path class="fill"
	d="M101.80 192.00c0.6 5.6 9.6 9 5.6 18.4
	1.6 -6 -1.3 -11.6 -5.6 -12.8
"/>
<path class="fill"
	d="M132.10 192.50l55.90 5.00v3.20l-55.90 -5.00"/>
<use x="129.00" y="213.00" xlink:href="#hd"/>
<path d="M132.50 213.00v-19.50" class="stroke"/>
<use x="156.60" y="216.00" xlink:href="#hd"/>
<path d="M160.10 216.00v-20.00" class="stroke"/>
<use x="184.20" y="219.00" xlink:href="#hd"/>
<path d="M187.70 219.00v-20.50" class="stroke"/>
<use x="220.90" y="213.00" xlink:href="#hd"/>
<path d="M224.40 213.00v-21.00" class="stroke"/>
<use x="264.30" y="216.00" xlink:href="#hd"/>
<path d="M267.80 216.00v-21.00" class="stroke"/>
<path class="fill"
	d="M267.80 195.00c0.6 5.6 9.6 9 5.6 18.4
	1.6 -6 -1.3 -11.6 -5.6 -12.8
"/>
<path class="fill"
	d="M298.10 193.80l55.90 0.00v3.20l-55.90 -0.00"/>
<use x="294.90" y="216.00" xlink:href="#hd"/>
<path d="M298.40 216.00v-21.20" class="stroke"/>
<use x="322.50" y="213.00" xlink:href="#hd"/>
<path d="M326.00 213.00v-18.20" class="stroke"/>
<use x="350.10" y="216.00" xlink:href="#hd"/>
<path d="M353.60 216.00v-21.20" class="stroke"/>
<use x="386.90" y="219.00" xlink:href="#hd"/>
<path d="M390.40 219.00v-21.00" class="stroke"/>
<use x="430.20" y="219.00" xlink:href="#hd"/>
<path d="M433.70 219.00v-21.00" class="stroke"/>
<path class="fill"
	d="M433.70 198.00c0.6 5.6 9.6 9 5.6 18.4
	1.6 -6 -1.3 -11.6 -5.6 -12.8
"/>
<path class="fill"
	d="M464.00 198.00l55.90 0.00v3.20l-55.90 -0.00"/>
<use x="460.90" y="219.00" xlink:href="#hd"/>
<path d="M464.40 219.00v-20.00" class="stroke"/>
<use x="488.50" y="216.00" xlink:href="#hd"/>
<path d="M492.00 216.00v-17.00" class="stroke"/>
<use x="516.00" y="219.00" xlink:href="#hd"/>
<path d="M519.50 219.00v-20.00" class="stroke"/>
<use x="552.80" y="219.00" xlink:href="#hd"/>
<path d="M556.30 219.00v-21.00" class="stroke"/>
<use x="596.20" y="222.00" xlink:href="#hd"/>
<path d="M599.70 222.00v-21.00" class="stroke"/>
<path class="fill"
	d="M599.70 201.00c0.6 5.6 9.6 9 5.6 18.4
	1.6 -6 -1.3 -11.6 -5.6 -12.8
"/>
<use x="626.80" y="222.00" xlink:href="#hd"/>
<path d="M630.30 222.00v-21.00" class="stroke"/>
<use x="670.10" y="228.00" xlink:href="#hd"/>
<path d="M673.60 228.00v-21.00" class="stroke"/>
<path class="fill"
	d="M673.60 207.00c0.6 5.6 9.6 9 5.6 18.4
	1.6 -6 -1.3 -11.6 -5.6 -12.8
"/>
</g>
<g stroke-width="0.70" style="font:20.00px Times">
<path class="stroke" stroke-width="1"
	d="M207.20 295.00v-24.00"/>
<path class="stroke" stroke-width="1"
	d="M386.80 295.00v-24.00"/>
<path class="stroke" stroke-width="1"
	d="M566.40 295.00v-24.00"/>
<path class="stroke" stroke-width="3"
	d="M690.10 295.00v-24.00"/>
<path class="stroke" stroke-width="1"
	d="M685.60 295.00v-24.00"/>
<path d="m10.00 295.00
	h681.60
	M10.00 289.00
	h681.60
	M10.00 283.00
	h681.60
	M10.00 277.00
	h681.60
	M10.00 271.00
	h681.60
	" class="stroke"/>
<use x="22.00" y="289.00" xlink:href="#tclef"/>
<use x="37.00" y="271.00" xlink:href="#sh0"/>
<use x="55.00" y="295.00" xlink:href="#hd"/>
<path d="M58.50 295.00v-21.00" class="stroke"/>
<use x="98.80" y="295.00" xlink:href="#hd"/>
<path d="M102.30 295.00v-21.00" class="stroke"/>
<path class="fill"
	d="M102.30 274.00c0.6 5.6 9.6 9 5.6 18.4
	1.6 -6 -1.3 -11.6 -5.6 -12.8
"/>
<path class="fill"
	d="M132.90 273.50l56.40 -5.00v3.20l-56.40 5.00"/>
<use x="129.70" y="295.00" xlink:href="#hd"/>
<path d="M133.20 295.00v-20.50" class="stroke"/>
<use x="157.60" y="292.00" xlink:href="#hd"/>
<path d="M161.10 292.00v-20.00" class="stroke"/>
<use x="185.50" y="289.00" xlink:href="#hd"/>
<path d="M189.00 289.00v-19.50" class="stroke"/>
<path class="fill"
	d="M225.80 262.50l56.40 5.00v3.20l-56.40 -5.00"/>
<use x="222.60" y="283.00" xlink:href="#hd"/>
<path d="M226.10 283.00v-19.50" class="stroke"/>
<use x="250.50" y="286.00" xlink:href="#hd"/>
<path d="M254.00 286.00v-20.00" class="stroke"/>
<use x="278.40" y="289.00" xlink:href="#hd"/>
<path d="M281.90 289.00v-20.50" class="stroke"/>
<path class="fill"
	d="M312.50 271.50l56.40 5.00v3.20l-56.40 -5.00"/>
<use x="309.30" y="292.00" xlink:href="#hd"/>
<path d="M312.80 292.00v-19.50" class="stroke"/>
<use x="337.20" y="295.00" xlink:href="#hd"/>
<path d="M340.70 295.00v-20.00" class="stroke"/>
<use x="365.10" y="298.00" xlink:href="#hd"/>
<path d="M368.60 298.00v-20.50" class="stroke"/>
<path class="fill"
	d="M405.40 273.50l56.40 -5.00v3.20l-56.40 5.00"/>
<use x="402.20" y="295.00" xlink:href="#hd"/>
<path d="M405.70 295.00v-20.50" class="stroke"/>
<use x="430.10" y="292.00" xlink:href="#hd"/>
<path d="M433.60 292.00v-20.00" class="stroke"/>
<use x="458.00" y="289.00" xlink:href="#hd"/>
<path d="M461.50 289.00v-19.50" class="stroke"/>
<path class="fill"
	d="M492.10 265.50l56.40 5.00v3.20l-56.40 -5.00"/>
<use x="488.90" y="286.00" xlink:href="#hd"/>
<path d="M492.40 286.00v-19.50" class="stroke"/>
<use x="516.80" y="289.00" xlink:href="#hd"/>
<path d="M520.30 289.00v-20.00" class="stroke"/>
<use x="544.70" y="292.00" xlink:href="#hd"/>
<path d="M548.20 292.00v-20.50" class="stroke"/>
<use x="581.80" y="292.00" xlink:href="#hd"/>
<path d="M585.30 292.00v-21.00" class="stroke"/>
<use x="625.60" y="289.00" xlink:href="#hd"/>
<path d="M629.10 289.00v-21.00" class="stroke"/>
<path class="fill"
	d="M629.10 268.00c0.6 5.6 9.6 9 5.6 18.4
	1.6 -6 -1.3 -11.6 -5.6 -12.8
"/>
<use x="656.60" y="289.00" xlink:href="#hd"/>
<path d="M660.10 289.00v-21.00" class="stroke"/>
</g>
<g stroke-width="0.70" style="font:20.00px Times">
<defs>
<g id="rdots" class="fill">
	<circle cx="0" cy="-9" r="1.2"/>
	<circle cx="0" cy="-15" r="1.2"/>
</g>
</defs>
<use x="61.50" y="365.00" xlink:href="#rdots"/>
<path class="stroke" stroke-width="1"
	d="M57.50 365.00v-24.00"/>
<path class="stroke" stroke-width="3"
	d="M53.00 365.00v-24.00"/>
<path class="stroke" stroke-width="1"
	d="M101.00 365.00v-24.00"/>
<path class="stroke" stroke-width="1"
	d="M204.90 365.00v-24.00"/>
<path class="stroke" stroke-width="1"
	d="M388.00 365.00v-24.00"/>
<path class="stroke" stroke-width="1"
	d="M561.90 365.00v-24.00"/>
<path class="stroke" stroke-width="1"
	d="M691.60 365.00v-24.00"/>
<path d="m10.00 365.00
	h681.60
	M10.00 359.00
	h681.60
	M10.00 353.00
	h681.60
	M10.00 347.00
	h681.60
	M10.00 341.00
	h681.60
	" class="stroke"/>
<use x="22.00" y="359.00" xlink:href="#tclef"/>
<use x="37.00" y="341.00" xlink:href="#sh0"/>
<use x="78.60" y="356.00" xlink:href="#hd"/>
<path d="M82.10 356.00v-21.00" class="stroke"/>
<path class="fill"
	d="M82.10 335.00c0.6 5.6 9.6 9 5.6 18.4
	1.6 -6 -1.3 -11.6 -5.6 -12.8
"/>
<use x="117.10" y="347.00" xlink:href="#hd"/>
<circle class="fill" cx="124.80" cy="344.00" r="1.2"/>
<path d="M113.60 347.00v21.00" class="stroke"/>
<use x="168.80" y="344.00" xlink:href="#hd"/>
<circle class="fill" cx="176.50" cy="344.00" r="1.2"/>
<path d="M165.30 344.00v21.00" class="stroke"/>
<path class="fill"
	d="M217.20 368.50l58.50 5.00v-3.20l-58.50 -5.00"/>
<use x="221.00" y="347.00" xlink:href="#hd"/>
<path d="M217.50 347.00v20.50" class="stroke"/>
<use x="249.90" y="350.00" xlink:href="#hd"/>
<path d="M246.40 350.00v20.00" class="stroke"/>
<use x="278.80" y="353.00" xlink:href="#hd"/>
<path d="M275.30 353.00v19.50" class="stroke"/>
<path class="fill"
	d="M310.90 335.50l58.50 5.00v3.20l-58.50 -5.00"/>
<use x="307.70" y="356.00" xlink:href="#hd"/>
<path d="M311.20 356.00v-19.50" class="stroke"/>
<use x="336.60" y="359.00" xlink:href="#hd"/>
<path d="M340.10 359.00v-20.00" class="stroke"/>
<use x="365.50" y="362.00" xlink:href="#hd"/>
<path d="M369.00 362.00v-20.50" class="stroke"/>
<use x="404.10" y="359.00" xlink:href="#hd"/>
<path d="M407.60 359.00v-21.00" class="stroke"/>
<use x="449.50" y="359.00" xlink:href="#hd"/>
<path d="M453.00 359.00v-21.00" class="stroke"/>
<path class="fill"
	d="M453.00 338.00c0.6 5.6 9.6 9 5.6 18.4
	1.6 -6 -1.3 -11.6 -5.6 -12.8
"/>
<path class="fill"
	d="M484.70 337.50l58.50 -5.00v3.20l-58.50 5.00"/>
<use x="481.60" y="359.00" xlink:href="#hd"/>
<path d="M485.10 359.00v-20.50" class="stroke"/>
<use x="510.50" y="356.00" xlink:href="#hd"/>
<path d="M514.00 356.00v-20.00" class="stroke"/>
<use x="539.40" y="353.00" xlink:href="#hd"/>
<path d="M542.90 353.00v-19.50" class="stroke"/>
<use x="577.90" y="353.00" xlink:href="#hd"/>
<path d="M581.40 353.00v-21.00" class="stroke"/>
<use x="623.30" y="356.00" xlink:href="#hd"/>
<path d="M626.80 356.00v-21.00" class="stroke"/>
<path class="fill"
	d="M626.80 335.00c0.6 5.6 9.6 9 5.6 18.4
	1.6 -6 -1.3 -11.6 -5.6 -12.8
"/>
<use x="655.40" y="356.00" xlink:href="#hd"/>
<circle class="fill" cx="663.10" cy="356.00" r="1.2"/>
<path d="M658.90 356.00v-21.00" class="stroke"/>
</g>
<g stroke-width="0.70" style="font:20.00px Times">
<path class="stroke" stroke-width="1"
	d="M219.90 435.00v-24.00"/>
<path class="stroke" stroke-width="1"
	d="M397.30 435.00v-24.00"/>
<path class="stroke" stroke-width="1"
	d="M565.80 435.00v-24.00"/>
<path class="stroke" stroke-width="3"
	d="M690.10 435.00v-24.00"/>
<path class="stroke" stroke-width="1"
	d="M685.60 435.00v-24.00"/>
<use x="681.60" y="435.00" xlink:href="#rdots"/>
<path d="m10.00 435.00
	h681.60
	M10.00 429.00
	h681.60
	M10.00 423.00
	h681.60
	M10.00 417.00
	h681.60
	M10.00 411.00
	h681.60
	" class="stroke"/>
<use x="22.00" y="429.00" xlink:href="#tclef"/>
<use x="37.00" y="411.00" xlink:href="#sh0"/>
<path class="fill"
	d="M51.20 442.20l56.70 0.00v-3.20l-56.70 -0.00"/>
<use x="55.00" y="417.00" xlink:href="#hd"/>
<path d="M51.50 417.00v24.20" class="stroke"/>
<use x="83.00" y="423.00" xlink:href="#hd"/>
<path d="M79.50 423.00v18.20" class="stroke"/>
<use x="111.00" y="417.00" xlink:href="#hd"/>
<path d="M107.50 417.00v24.20" class="stroke"/>
<path class="fill"
	d="M138.30 438.00l56.70 0.00v-3.20l-56.70 -0.00"/>
<use x="142.10" y="414.00" xlink:href="#hd"/>
<path d="M138.60 414.00v23.00" class="stroke"/>
<use x="170.10" y="420.00" xlink:href="#hd"/>
<path d="M166.60 420.00v17.00" class="stroke"/>
<use x="198.10" y="414.00" xlink:href="#hd"/>
<path d="M194.60 414.00v23.00" class="stroke"/>
<path class="fill"
	d="M231.60 438.50l56.70 5.00v-3.20l-56.70 -5.00"/>
<use x="235.50" y="417.00" xlink:href="#hd"/>
<path d="M232.00 417.00v20.50" class="stroke"/>
<use x="263.50" y="420.00" xlink:href="#hd"/>
<path d="M260.00 420.00v20.00" class="stroke"/>
<use x="291.50" y="423.00" xlink:href="#hd"/>
<path d="M288.00 423.00v19.50" class="stroke"/>
<path class="fill"
	d="M322.70 405.50l56.70 5.00v3.20l-56.70 -5.00"/>
<use x="319.50" y="426.00" xlink:href="#hd"/>
<path d="M323.00 426.00v-19.50" class="stroke"/>
<use x="347.50" y="429.00" xlink:href="#hd"/>
<path d="M351.00 429.00v-20.00" class="stroke"/>
<use x="375.50" y="432.00" xlink:href="#hd"/>
<path d="M379.00 432.00v-20.50" class="stroke"/>
<use x="412.90" y="429.00" xlink:href="#hd"/>
<path d="M416.40 429.00v-21.00" class="stroke"/>
<use x="456.80" y="429.00" xlink:href="#hd"/>
<path d="M460.30 429.00v-21.00" class="stroke"/>
<path class="fill"
	d="M460.30 408.00c0.6 5.6 9.6 9 5.6 18.4
	1.6 -6 -1.3 -11.6 -5.6 -12.8
"/>
<path class="fill"
	d="M491.10 407.50l56.70 -5.00v3.20l-56.70 5.00"/>
<use x="488.00" y="429.00" xlink:href="#hd"/>
<path d="M491.50 429.00v-20.50" class="stroke"/>
<use x="516.00" y="426.00" xlink:href="#hd"/>
<path d="M519.50 426.00v-20.00" class="stroke"/>
<use x="544.00" y="423.00" xlink:href="#hd"/>
<path d="M547.50 423.00v-19.50" class="stroke"/>
<use x="581.30" y="426.00" xlink:href="#hd"/>
<path d="M584.80 426.00v-21.00" class="stroke"/>
<use x="625.30" y="429.00" xlink:href="#hd"/>
<path d="M628.80 429.00v-21.00" class="stroke"/>
<path class="fill"
	d="M628.80 408.00c0.6 5.6 9.6 9 5.6 18.4
	1.6 -6 -1.3 -11.6 -5.6 -12.8
"/>
<use x="656.40" y="429.00" xlink:href="#hd"/>
<path d="M659.90 429.00v-21.00" class="stroke"/>
</g>
<g stroke-width="0.70" style="font:20.00px Times">
<use x="61.50" y="505.00" xlink:href="#rdots"/>
<path class="stroke" stroke-width="1"
	d="M57.50 505.00v-24.00"/>
<path class="stroke" stroke-width="3"
	d="M53.00 505.00v-24.00"/>
<path class="stroke" stroke-width="1"
	d="M96.70 505.00v-24.00"/>
<path class="stroke" stroke-width="1"
	d="M250.90 505.00v-24.00"/>
<path class="stroke" stroke-width="1"
	d="M394.10 505.00v-24.00"/>
<path class="stroke" stroke-width="1"
	d="M548.40 505.00v-24.00"/>
<path class="stroke" stroke-width="1"
	d="M691.60 505.00v-24.00"/>
<path d="m10.00 505.00
	h681.60
	M10.00 499.00
	h681.60
	M10.00 493.00
	h681.60
	M10.00 487.00
	h681.60
	M10.00 481.00
	h681.60
	" class="stroke"/>
<use x="22.00" y="499.00" xlink:href="#tclef"/>
<use x="37.00" y="481.00" xlink:href="#sh0"/>
<use x="76.70" y="499.00" xlink:href="#hd"/>
<path d="M80.20 499.00v-21.00" class="stroke"/>
<path class="fill"
	d="M80.20 478.00c0.6 5.6 9.6 9 5.6 18.4
	1.6 -6 -1.3 -11.6 -5.6 -12.8
"/>
<use x="110.90" y="505.00" xlink:href="#hd"/>
<path d="M114.40 505.00v-21.00" class="stroke"/>
<use x="151.20" y="505.00" xlink:href="#hd"/>
<path d="M154.70 505.00v-21.00" class="stroke"/>
<path class="fill"
	d="M154.70 484.00c0.6 5.6 9.6 9 5.6 18.4
	1.6 -6 -1.3 -11.6 -5.6 -12.8
"/>
<path class="fill"
	d="M182.90 483.50l52.00 -4.90v3.20l-52.00 4.90"/>
<use x="179.70" y="505.00" xlink:href="#hd"/>
<path d="M183.20 505.00v-20.60" class="stroke"/>
<use x="205.30" y="502.00" xlink:href="#hd"/>
<path d="M208.80 502.00v-20.00" class="stroke"/>
<use x="231.00" y="499.00" xlink:href="#hd"/>
<path d="M234.50 499.00v-19.40" class="stroke"/>
<use x="265.20" y="505.00" xlink:href="#hd"/>
<path d="M268.70 505.00v-21.00" class="stroke"/>
<use x="305.40" y="508.00" xlink:href="#hd"/>
<path d="M308.90 508.00v-21.00" class="stroke"/>
<path class="fill"
	d="M308.90 487.00c0.6 5.6 9.6 9 5.6 18.4
	1.6 -6 -1.3 -11.6 -5.6 -12.8
"/>
<use x="333.90" y="508.00" xlink:href="#hd"/>
<path d="M337.40 508.00v-21.00" class="stroke"/>
<use x="374.20" y="508.00" xlink:href="#hd"/>
<path d="M377.70 508.00v-21.00" class="stroke"/>
<path class="fill"
	d="M377.70 487.00c0.6 5.6 9.6 9 5.6 18.4
	1.6 -6 -1.3 -11.6 -5.6 -12.8
"/>
<use x="408.40" y="499.00" xlink:href="#hd"/>
<path d="M411.90 499.00v-21.00" class="stroke"/>
<use x="448.70" y="499.00" xlink:href="#hd"/>
<path d="M452.20 499.00v-21.00" class="stroke"/>
<path class="fill"
	d="M452.20 478.00c0.6 5.6 9.6 9 5.6 18.4
	1.6 -6 -1.3 -11.6 -5.6 -12.8
"/>
<path class="fill"
	d="M480.30 477.50l52.00 -4.90v3.20l-52.00 4.90"/>
<use x="477.20" y="499.00" xlink:href="#hd"/>
<path d="M480.70 499.00v-20.60" class="stroke"/>
<use x="502.80" y="496.00" xlink:href="#hd"/>
<path d="M506.30 496.00v-20.00" class="stroke"/>
<use x="528.40" y="493.00" xlink:href="#hd"/>
<path d="M531.90 493.00v-19.40" class="stroke"/>
<use x="562.60" y="493.00" xlink:href="#hd"/>
<path d="M566.10 493.00v-21.00" class="stroke"/>
<use x="602.90" y="496.00" xlink:href="#hd"/>
<path d="M606.40 496.00v-21.00" class="stroke"/>
<path class="fill"
	d="M606.40 475.00c0.6 5.6 9.6 9 5.6 18.4
	1.6 -6 -1.3 -11.6 -5.6 -12.8
"/>
<use x="631.40" y="496.00" xlink:href="#hd"/>
<path d="M634.90 496.00v-21.00" class="stroke"/>
<use x="671.70" y="508.00" xlink:href="#hd"/>
<path d="M675.20 508.00v-21.00" class="stroke"/>
<path class="fill"
	d="M675.20 487.00c0.6 5.6 9.6 9 5.6 18.4
	1.6 -6 -1.3 -11.6 -5.6 -12.8
"/>
</g>
<g stroke-width="0.70" style="font:20.00px Times">
<path class="stroke" stroke-width="1"
	d="M207.20 575.00v-24.00"/>
<path class="stroke" stroke-width="1"
	d="M386.80 575.00v-24.00"/>
<path class="stroke" stroke-width="1"
	d="M566.40 575.00v-24.00"/>
<path class="stroke" stroke-width="3"
	d="M690.10 575.00v-24.00"/>
<path class="stroke" stroke-width="1"
	d="M685.60 575.00v-24.00"/>
<use x="681.60" y="575.00" xlink:href="#rdots"/>
<path d="m10.00 575.00
	h681.60
	M10.00 569.00
	h681.60
	M10.00 563.00
	h681.60
	M10.00 557.00
	h681.60
	M10.00 551.00
	h681.60
	" class="stroke"/>
<use x="22.00" y="569.00" xlink:href="#tclef"/>
<use x="37.00" y="551.00" xlink:href="#sh0"/>
<use x="55.00" y="575.00" xlink:href="#hd"/>
<path d="M58.50 575.00v-21.00" class="stroke"/>
<use x="98.80" y="575.00" xlink:href="#hd"/>
<path d="M102.30 575.00v-21.00" class="stroke"/>
<path class="fill"
	d="M102.30 554.00c0.6 5.6 9.6 9 5.6 18.4
	1.6 -6 -1.3 -11.6 -5.6 -12.8
"/>
<path class="fill"
	d="M132.90 553.50l56.40 -5.00v3.20l-56.40 5.00"/>
<use x="129.70" y="575.00" xlink:href="#hd"/>
<path d="M133.20 575.00v-20.50" class="stroke"/>
<use x="157.60" y="572.00" xlink:href="#hd"/>
<path d="M161.10 572.00v-20.00" class="stroke"/>
<use x="185.50" y="569.00" xlink:href="#hd"/>
<path d="M189.00 569.00v-19.50" class="stroke"/>
<path class="fill"
	d="M225.80 542.50l56.40 5.00v3.20l-56.40 -5.00"/>
<use x="222.60" y="563.00" xlink:href="#hd"/>
<path d="M226.10 563.00v-19.50" class="stroke"/>
<use x="250.50" y="566.00" xlink:href="#hd"/>
<path d="M254.00 566.00v-20.00" class="stroke"/>
<use x="278.40" y="569.00" xlink:href="#hd"/>
<path d="M281.90 569.00v-20.50" class="stroke"/>
<path class="fill"
	d="M312.50 551.50l56.40 5.00v3.20l-56.40 -5.00"/>
<use x="309.30" y="572.00" xlink:href="#hd"/>
<path d="M312.80 572.00v-19.50" class="stroke"/>
<use x="337.20" y="575.00" xlink:href="#hd"/>
<path d="M340.70 575.00v-20.00" class="stroke"/>
<use x="365.10" y="578.00" xlink:href="#hd"/>
<path d="M368.60 578.00v-20.50" class="stroke"/>
<path class="fill"
	d="M405.40 553.50l56.40 -5.00v3.20l-56.40 5.00"/>
<use x="402.20" y="575.00" xlink:href="#hd"/>
<path d="M405.70 575.00v-20.50" class="stroke"/>
<use x="430.10" y="572.00" xlink:href="#hd"/>
<path d="M433.60 572.00v-20.00" class="stroke"/>
<use x="458.00" y="569.00" xlink:href="#hd"/>
<path d="M461.50 569.00v-19.50" class="stroke"/>
<path class="fill"
	d="M492.10 545.50l56.40 5.00v3.20l-56.40 -5.00"/>
<use x="488.90" y="566.00" xlink:href="#hd"/>
<path d="M492.40 566.00v-19.50" class="stroke"/>
<use x="516.80" y="569.00" xlink:href="#hd"/>
<path d="M520.30 569.00v-20.00" class="stroke"/>
<use x="544.70" y="572.00" xlink:href="#hd"/>
<path d="M548.20 572.00v-20.50" class="stroke"/>
<use x="581.80" y="572.00" xlink:href="#hd"/>
<path d="M585.30 572.00v-21.00" class="stroke"/>
<use x="625.60" y="569.00" xlink:href="#hd"/>
<path d="M629.10 569.00v-21.00" class="stroke"/>
<path class="fill"
	d="M629.10 548.00c0.6 5.6 9.6 9 5.6 18.4
	1.6 -6 -1.3 -11.6 -5.6 -12.8
"/>
<use x="656.60" y="569.00" xlink:href="#hd"/>
<path d="M660.10 569.00v-21.00" class="stroke"/>
</g>
</svg>
