<?xml version="1.0" standalone="no"?>
<!DOCTYPE svg PUBLIC "-//W3C//DTD SVG 1.1//EN"
	"http://www.w3.org/Graphics/SVG/1.1/DTD/svg11.dtd">
<svg xmlns="http://www.w3.org/2000/svg" version="1.1"
	xmlns:xlink="http://www.w3.org/1999/xlink"
	color="black"
	width="701.60px" height="248.00px">
<style type="text/css">
.fill {fill: currentColor}
.stroke {stroke: currentColor; fill: none}
text{white-space: pre}
</style>
<title>/media/tim/Data1/tims_code/sphinx-tunes/source/_abcfiles/The Hole in the (14) tune 1</title>
<!-- Creator: abcm2ps-8.14.6 -->
<!-- CreationDate: Jul 30, 2023 11:59 -->
<!-- CommandLine: -g '/media/tim/Data1/tims_code/sphinx-tunes/source/_abcfiles/The Hole in the Wall.abc' -O '/media/tim/Data1/tims_code/sphinx-tunes/source/_abcfiles/The Hole in the Wall.svg' -->
<g stroke-width="0.70">
<!-- title: The Hole in the Wall -->
</g>
<g stroke-width="0.70" style="font:20.00px Times">
<text x="350.80" y="22.00" text-anchor="middle">The Hole in the Wall</text>
</g>
<g stroke-width="0.70" style="font:20.00px Times">
<path class="stroke" stroke-width="1"
	d="M229.30 85.00v-24.00"/>
<path class="stroke" stroke-width="1"
	d="M402.80 85.00v-24.00"/>
<path class="stroke" stroke-width="1"
	d="M576.40 85.00v-24.00"/>
<path class="stroke" stroke-width="3"
	d="M690.10 85.00v-24.00"/>
<path class="stroke" stroke-width="1"
	d="M685.60 85.00v-24.00"/>
<defs>
<g id="rdots" class="fill">
	<circle cx="0" cy="-9" r="1.2"/>
	<circle cx="0" cy="-15" r="1.2"/>
</g>
</defs>
<use x="681.60" y="85.00" xlink:href="#rdots"/>
<path d="m10.00 85.00
	h681.60
	M10.00 79.00
	h681.60
	M10.00 73.00
	h681.60
	M10.00 67.00
	h681.60
	M10.00 61.00
	h681.60
	" class="stroke"/>
<defs>
<path id="utclef" class="fill" d="m-50 -90
	c-72 -41 -72 -158 52 -188
	150 -10 220 188 90 256
	-114 52 -275 0 -293 -136
	-15 -181 93 -229 220 -334
	88 -87 79 -133 62 -210
	-51 33 -94 105 -89 186
	17 267 36 374 49 574
	6 96 -19 134 -77 135
	-80 1 -126 -93 -61 -133
	85 -41 133 101 31 105
	23 17 92 37 90 -92
	-10 -223 -39 -342 -50 -617
	0 -90 0 -162 96 -232
	56 72 63 230 22 289
	-74 106 -257 168 -255 316
	9 153 148 185 252 133
	86 -65 29 -192 -80 -176
	-71 12 -105 67 -59 124"/>
<use id="tclef" transform="translate(0,6) scale(0.045)"
	xlink:href="#utclef"/>
</defs>
<use x="22.00" y="79.00" xlink:href="#tclef"/>
<defs>
<path id="usharp" class="fill" d="
	m136 -702
	v890
	h32
	v-890
	m128 840
	h32
	v-888
	h-32
	m-232 286
	v116
	l338 -96
	v-116
	m-338 442
	v116
	l338 -98
	v-114"/>
<use id="sh0" transform="translate(-4,5) scale(0.018)"
	xlink:href="#usharp"/>
</defs>
<use x="37.00" y="61.00" xlink:href="#sh0"/>
<g style="font:bold 16px serif"
	transform="translate(53.00,84.50) scale(1.2,1)">
	<text text-anchor="middle">2</text>
	<text y="-12" text-anchor="middle">3</text>
</g>
<defs>
<ellipse id="hd" rx="4.1" ry="2.9"
	transform="rotate(-20)" class="fill"/>
</defs>
<use x="71.00" y="73.00" xlink:href="#hd"/>
<circle class="fill" cx="78.70" cy="70.00" r="1.2"/>
<path d="M67.50 73.00v21.00" class="stroke"/>
<use x="102.20" y="70.00" xlink:href="#hd"/>
<path d="M98.70 70.00v21.00" class="stroke"/>
<path class="fill"
	d="M98.70 91.00c0.6 -5.6 9.6 -9 5.6 -18.4
	1.6 6 -1.3 11.6 -5.6 12.8
"/>
<path class="fill"
	d="M117.70 93.70l18.10 -2.30v-3.20l-18.10 2.30"/>
<use x="121.50" y="73.00" xlink:href="#hd"/>
<path d="M118.00 73.00v19.60" class="stroke"/>
<use x="139.00" y="70.00" xlink:href="#hd"/>
<path d="M135.50 70.00v20.40" class="stroke"/>
<use x="158.30" y="67.00" xlink:href="#hd"/>
<path d="M154.80 67.00v21.00" class="stroke"/>
<use x="182.70" y="76.00" xlink:href="#hd"/>
<path d="M186.20 76.00v-21.00" class="stroke"/>
<use x="209.90" y="67.00" xlink:href="#hd"/>
<path d="M206.40 67.00v21.00" class="stroke"/>
<use x="241.80" y="79.00" xlink:href="#hd"/>
<circle class="fill" cx="249.50" cy="76.00" r="1.2"/>
<path d="M245.30 79.00v-21.00" class="stroke"/>
<use x="273.00" y="76.00" xlink:href="#hd"/>
<path d="M276.50 76.00v-21.00" class="stroke"/>
<path class="fill"
	d="M276.50 55.00c0.6 5.6 9.6 9 5.6 18.4
	1.6 -6 -1.3 -11.6 -5.6 -12.8
"/>
<path class="fill"
	d="M295.80 57.70l18.10 -2.30v3.20l-18.10 2.30"/>
<use x="292.70" y="79.00" xlink:href="#hd"/>
<path d="M296.20 79.00v-20.40" class="stroke"/>
<use x="310.10" y="76.00" xlink:href="#hd"/>
<path d="M313.60 76.00v-19.60" class="stroke"/>
<use x="329.40" y="73.00" xlink:href="#hd"/>
<path d="M332.90 73.00v-21.00" class="stroke"/>
<use x="356.50" y="82.00" xlink:href="#hd"/>
<path d="M360.00 82.00v-21.00" class="stroke"/>
<use x="383.50" y="73.00" xlink:href="#hd"/>
<path d="M387.00 73.00v-21.00" class="stroke"/>
<use x="415.30" y="85.00" xlink:href="#hd"/>
<circle class="fill" cx="423.00" cy="82.00" r="1.2"/>
<path d="M418.80 85.00v-21.00" class="stroke"/>
<use x="446.60" y="82.00" xlink:href="#hd"/>
<path d="M450.10 82.00v-21.00" class="stroke"/>
<path class="fill"
	d="M450.10 61.00c0.6 5.6 9.6 9 5.6 18.4
	1.6 -6 -1.3 -11.6 -5.6 -12.8
"/>
<path class="fill"
	d="M469.40 63.70l18.10 -2.30v3.20l-18.10 2.30"/>
<use x="466.20" y="85.00" xlink:href="#hd"/>
<path d="M469.70 85.00v-20.40" class="stroke"/>
<use x="483.70" y="82.00" xlink:href="#hd"/>
<path d="M487.20 82.00v-19.60" class="stroke"/>
<use x="503.00" y="79.00" xlink:href="#hd"/>
<path d="M506.50 79.00v-21.00" class="stroke"/>
<use x="530.00" y="88.00" xlink:href="#hd"/>
<path d="M533.50 88.00v-21.00" class="stroke"/>
<use x="557.00" y="73.00" xlink:href="#hd"/>
<path d="M560.50 73.00v-21.00" class="stroke"/>
<defs>
<path id="Hd" class="fill" d="m3 -1.6
	c-1 -1.8 -7 1.4 -6 3.2
	1 1.8 7 -1.4 6 -3.2
	m0.5 -0.3
	c2 3.8 -5 7.6 -7 3.8
	-2 -3.8 5 -7.6 7 -3.8"/>
</defs>
<use x="589.40" y="79.00" xlink:href="#Hd"/>
<circle class="fill" cx="598.10" cy="76.00" r="1.2"/>
<path d="M592.90 79.00v-21.00" class="stroke"/>
<use x="633.10" y="82.00" xlink:href="#hd"/>
<path d="M636.60 82.00v-21.00" class="stroke"/>
<use x="660.20" y="79.00" xlink:href="#Hd"/>
<path d="M663.70 79.00v-21.00" class="stroke"/>
</g>
<g stroke-width="0.70" style="font:20.00px Times">
<path class="stroke" stroke-width="1"
	d="M219.00 155.00v-24.00"/>
<path class="stroke" stroke-width="1"
	d="M401.60 155.00v-24.00"/>
<path class="stroke" stroke-width="1"
	d="M578.10 155.00v-24.00"/>
<path class="stroke" stroke-width="1"
	d="M691.60 155.00v-24.00"/>
<path d="m10.00 155.00
	h681.60
	M10.00 149.00
	h681.60
	M10.00 143.00
	h681.60
	M10.00 137.00
	h681.60
	M10.00 131.00
	h681.60
	" class="stroke"/>
<use x="22.00" y="149.00" xlink:href="#tclef"/>
<use x="37.00" y="131.00" xlink:href="#sh0"/>
<use x="55.00" y="128.00" xlink:href="#hd"/>
<circle class="fill" cx="62.70" cy="128.00" r="1.2"/>
<path d="M51.50 128.00v21.00" class="stroke"/>
<use x="86.80" y="131.00" xlink:href="#hd"/>
<path d="M83.30 131.00v21.00" class="stroke"/>
<path class="fill"
	d="M83.30 152.00c0.6 -5.6 9.6 -9 5.6 -18.4
	1.6 6 -1.3 11.6 -5.6 12.8
"/>
<path class="fill"
	d="M102.70 154.70l18.50 -2.30v-3.20l-18.50 2.30"/>
<use x="106.60" y="134.00" xlink:href="#hd"/>
<path d="M103.10 134.00v19.60" class="stroke"/>
<use x="124.40" y="131.00" xlink:href="#hd"/>
<path d="M120.90 131.00v20.40" class="stroke"/>
<use x="144.10" y="128.00" xlink:href="#hd"/>
<path d="M140.60 128.00v21.00" class="stroke"/>
<use x="171.70" y="131.00" xlink:href="#hd"/>
<path d="M168.20 131.00v21.00" class="stroke"/>
<use x="199.30" y="134.00" xlink:href="#hd"/>
<path d="M195.80 134.00v21.00" class="stroke"/>
<use x="237.50" y="137.00" xlink:href="#hd"/>
<circle class="fill" cx="245.20" cy="134.00" r="1.2"/>
<use x="228.50" y="137.00" xlink:href="#sh0"/>
<path d="M234.00 137.00v21.00" class="stroke"/>
<use x="269.40" y="134.00" xlink:href="#hd"/>
<path d="M265.90 134.00v21.00" class="stroke"/>
<path class="fill"
	d="M265.90 155.00c0.6 -5.6 9.6 -9 5.6 -18.4
	1.6 6 -1.3 11.6 -5.6 12.8
"/>
<path class="fill"
	d="M285.20 157.70l18.50 -2.30v-3.20l-18.50 2.30"/>
<use x="289.10" y="137.00" xlink:href="#hd"/>
<path d="M285.60 137.00v19.60" class="stroke"/>
<use x="306.90" y="134.00" xlink:href="#hd"/>
<path d="M303.40 134.00v20.40" class="stroke"/>
<use x="326.60" y="131.00" xlink:href="#hd"/>
<path d="M323.10 131.00v21.00" class="stroke"/>
<use x="354.20" y="143.00" xlink:href="#hd"/>
<path d="M350.70 143.00v21.00" class="stroke"/>
<use x="381.80" y="131.00" xlink:href="#hd"/>
<path d="M378.30 131.00v21.00" class="stroke"/>
<use x="414.10" y="128.00" xlink:href="#hd"/>
<circle class="fill" cx="421.80" cy="128.00" r="1.2"/>
<path d="M410.60 128.00v21.00" class="stroke"/>
<use x="445.90" y="131.00" xlink:href="#hd"/>
<path d="M442.40 131.00v21.00" class="stroke"/>
<path class="fill"
	d="M442.40 152.00c0.6 -5.6 9.6 -9 5.6 -18.4
	1.6 6 -1.3 11.6 -5.6 12.8
"/>
<path class="fill"
	d="M461.80 154.70l18.50 -2.30v-3.20l-18.50 2.30"/>
<use x="465.60" y="134.00" xlink:href="#hd"/>
<path d="M462.10 134.00v19.60" class="stroke"/>
<use x="483.40" y="131.00" xlink:href="#hd"/>
<path d="M479.90 131.00v20.40" class="stroke"/>
<use x="503.10" y="128.00" xlink:href="#hd"/>
<path d="M499.60 128.00v21.00" class="stroke"/>
<use x="530.70" y="131.00" xlink:href="#hd"/>
<path d="M527.20 131.00v21.00" class="stroke"/>
<use x="558.30" y="134.00" xlink:href="#hd"/>
<path d="M554.80 134.00v21.00" class="stroke"/>
<use x="591.10" y="134.00" xlink:href="#Hd"/>
<circle class="fill" cx="599.80" cy="134.00" r="1.2"/>
<path d="M587.60 134.00v21.00" class="stroke"/>
<use x="636.30" y="137.00" xlink:href="#hd"/>
<use x="627.30" y="137.00" xlink:href="#sh0"/>
<path d="M632.80 137.00v21.00" class="stroke"/>
<use x="664.00" y="134.00" xlink:href="#Hd"/>
<path d="M660.50 134.00v21.00" class="stroke"/>
</g>
<g stroke-width="0.70" style="font:20.00px Times">
<path class="stroke" stroke-width="1"
	d="M223.40 225.00v-24.00"/>
<path class="stroke" stroke-width="1"
	d="M404.40 225.00v-24.00"/>
<path class="stroke" stroke-width="1"
	d="M573.00 225.00v-24.00"/>
<path class="stroke" stroke-width="1"
	d="M691.60 225.00v-24.00"/>
<path class="stroke" stroke-width="1"
	d="M688.60 225.00v-24.00"/>
<path d="m10.00 225.00
	h681.60
	M10.00 219.00
	h681.60
	M10.00 213.00
	h681.60
	M10.00 207.00
	h681.60
	M10.00 201.00
	h681.60
	" class="stroke"/>
<use x="22.00" y="219.00" xlink:href="#tclef"/>
<use x="37.00" y="201.00" xlink:href="#sh0"/>
<use x="55.00" y="225.00" xlink:href="#hd"/>
<circle class="fill" cx="62.70" cy="222.00" r="1.2"/>
<path d="M58.50 225.00v-21.00" class="stroke"/>
<use x="85.80" y="222.00" xlink:href="#hd"/>
<path d="M89.30 222.00v-21.00" class="stroke"/>
<path class="fill"
	d="M89.30 201.00c0.6 5.6 9.6 9 5.6 18.4
	1.6 -6 -1.3 -11.6 -5.6 -12.8
"/>
<path class="fill"
	d="M108.30 203.70l17.90 -2.30v3.20l-17.90 2.30"/>
<use x="105.10" y="225.00" xlink:href="#hd"/>
<path d="M108.60 225.00v-20.40" class="stroke"/>
<use x="122.30" y="222.00" xlink:href="#hd"/>
<path d="M125.80 222.00v-19.60" class="stroke"/>
<use x="141.40" y="219.00" xlink:href="#hd"/>
<path d="M144.90 219.00v-21.00" class="stroke"/>
<path class="fill"
	d="M171.20 200.70l17.90 -2.30v3.20l-17.90 2.30"/>
<use x="168.00" y="222.00" xlink:href="#hd"/>
<path d="M171.50 222.00v-20.40" class="stroke"/>
<use x="185.20" y="219.00" xlink:href="#hd"/>
<path d="M188.70 219.00v-19.60" class="stroke"/>
<use x="204.30" y="216.00" xlink:href="#hd"/>
<path d="M207.80 216.00v-21.00" class="stroke"/>
<use x="235.90" y="219.00" xlink:href="#hd"/>
<circle class="fill" cx="243.60" cy="216.00" r="1.2"/>
<path d="M239.40 219.00v-21.00" class="stroke"/>
<use x="266.70" y="216.00" xlink:href="#hd"/>
<path d="M270.20 216.00v-21.00" class="stroke"/>
<path class="fill"
	d="M270.20 195.00c0.6 5.6 9.6 9 5.6 18.4
	1.6 -6 -1.3 -11.6 -5.6 -12.8
"/>
<path class="fill"
	d="M289.20 197.70l17.90 -2.30v3.20l-17.90 2.30"/>
<use x="286.00" y="219.00" xlink:href="#hd"/>
<path d="M289.50 219.00v-20.40" class="stroke"/>
<use x="303.20" y="216.00" xlink:href="#hd"/>
<path d="M306.70 216.00v-19.60" class="stroke"/>
<use x="322.30" y="213.00" xlink:href="#hd"/>
<path d="M325.80 213.00v-21.00" class="stroke"/>
<path class="fill"
	d="M352.10 194.70l17.90 -2.30v3.20l-17.90 2.30"/>
<use x="348.90" y="216.00" xlink:href="#hd"/>
<path d="M352.40 216.00v-20.40" class="stroke"/>
<use x="366.10" y="213.00" xlink:href="#hd"/>
<path d="M369.60 213.00v-19.60" class="stroke"/>
<use x="385.40" y="210.00" xlink:href="#hd"/>
<path d="M381.90 210.00v21.00" class="stroke"/>
<use x="416.90" y="213.00" xlink:href="#hd"/>
<circle class="fill" cx="424.60" cy="210.00" r="1.2"/>
<path d="M413.40 213.00v21.00" class="stroke"/>
<use x="447.70" y="210.00" xlink:href="#hd"/>
<path d="M444.20 210.00v21.00" class="stroke"/>
<path class="fill"
	d="M444.20 231.00c0.6 -5.6 9.6 -9 5.6 -18.4
	1.6 6 -1.3 11.6 -5.6 12.8
"/>
<path class="fill"
	d="M462.90 233.70l17.90 -2.30v-3.20l-17.90 2.30"/>
<use x="466.80" y="213.00" xlink:href="#hd"/>
<path d="M463.30 213.00v19.60" class="stroke"/>
<use x="484.00" y="210.00" xlink:href="#hd"/>
<path d="M480.50 210.00v20.40" class="stroke"/>
<use x="503.00" y="207.00" xlink:href="#hd"/>
<path d="M499.50 207.00v21.00" class="stroke"/>
<use x="527.10" y="228.00" xlink:href="#hd"/>
<path d="M530.60 228.00v-21.00" class="stroke"/>
<use x="553.90" y="207.00" xlink:href="#hd"/>
<path d="M550.40 207.00v21.00" class="stroke"/>
<use x="586.00" y="213.00" xlink:href="#Hd"/>
<circle class="fill" cx="594.70" cy="210.00" r="1.2"/>
<path d="M582.50 213.00v21.00" class="stroke"/>
<path class="fill"
	d="M628.10 194.70l17.90 -2.30v3.20l-17.90 2.30"/>
<use x="624.90" y="216.00" xlink:href="#hd"/>
<path d="M628.40 216.00v-20.40" class="stroke"/>
<use x="642.10" y="213.00" xlink:href="#hd"/>
<path d="M645.60 213.00v-19.60" class="stroke"/>
<use x="661.20" y="219.00" xlink:href="#Hd"/>
<path d="M664.70 219.00v-21.00" class="stroke"/>
</g>
</svg>
