<?xml version="1.0" standalone="no"?>
<!DOCTYPE svg PUBLIC "-//W3C//DTD SVG 1.1//EN"
	"http://www.w3.org/Graphics/SVG/1.1/DTD/svg11.dtd">
<svg xmlns="http://www.w3.org/2000/svg" version="1.1"
	xmlns:xlink="http://www.w3.org/1999/xlink"
	color="black"
	width="701.60px" height="388.00px">
<style type="text/css">
.fill {fill: currentColor}
.stroke {stroke: currentColor; fill: none}
text{white-space: pre}
</style>
<title>/media/tim/DATADIR/tims_code/sphinx-tunes/source/_abcfiles/Arthur McBrid (1) tune 1</title>
<!-- Creator: abcm2ps-8.14.6 -->
<!-- CreationDate: Apr 11, 2021 20:48 -->
<!-- CommandLine: -g '/media/tim/DATADIR/tims_code/sphinx-tunes/source/_abcfiles/Arthur McBride.abc' -O '/media/tim/DATADIR/tims_code/sphinx-tunes/source/_abcfiles/Arthur McBride.svg' -->
<g stroke-width="0.70">
<!-- title: Arthur McBride -->
</g>
<g stroke-width="0.70" style="font:20.00px Times">
<text x="350.80" y="22.00" text-anchor="middle">Arthur McBride</text>
</g>
<g stroke-width="0.70" style="font:20.00px Times">
<path class="stroke" stroke-width="1"
	d="M98.30 85.00v-24.00"/>
<path class="stroke" stroke-width="1"
	d="M211.30 85.00v-24.00"/>
<path class="stroke" stroke-width="1"
	d="M346.60 85.00v-24.00"/>
<path class="stroke" stroke-width="1"
	d="M459.60 85.00v-24.00"/>
<path class="stroke" stroke-width="1"
	d="M572.60 85.00v-24.00"/>
<path class="stroke" stroke-width="1"
	d="M691.60 85.00v-24.00"/>
<path d="m10.00 85.00
	h681.60
	M10.00 79.00
	h681.60
	M10.00 73.00
	h681.60
	M10.00 67.00
	h681.60
	M10.00 61.00
	h681.60
	" class="stroke"/>
<defs>
<path id="utclef" class="fill" d="m-50 -90
	c-72 -41 -72 -158 52 -188
	150 -10 220 188 90 256
	-114 52 -275 0 -293 -136
	-15 -181 93 -229 220 -334
	88 -87 79 -133 62 -210
	-51 33 -94 105 -89 186
	17 267 36 374 49 574
	6 96 -19 134 -77 135
	-80 1 -126 -93 -61 -133
	85 -41 133 101 31 105
	23 17 92 37 90 -92
	-10 -223 -39 -342 -50 -617
	0 -90 0 -162 96 -232
	56 72 63 230 22 289
	-74 106 -257 168 -255 316
	9 153 148 185 252 133
	86 -65 29 -192 -80 -176
	-71 12 -105 67 -59 124"/>
<use id="tclef" transform="translate(0,6) scale(0.045)"
	xlink:href="#utclef"/>
</defs>
<use x="22.00" y="79.00" xlink:href="#tclef"/>
<defs>
<path id="usharp" class="fill" d="
	m136 -702
	v890
	h32
	v-890
	m128 840
	h32
	v-888
	h-32
	m-232 286
	v116
	l338 -96
	v-116
	m-338 442
	v116
	l338 -98
	v-114"/>
<use id="sh0" transform="translate(-4,5) scale(0.018)"
	xlink:href="#usharp"/>
</defs>
<use x="37.00" y="61.00" xlink:href="#sh0"/>
<g style="font:bold 16px serif"
	transform="translate(53.00,84.50) scale(1.2,1)">
	<text text-anchor="middle">4</text>
	<text y="-12" text-anchor="middle">3</text>
</g>
<defs>
<ellipse id="hd" rx="4.1" ry="2.9"
	transform="rotate(-20)" class="fill"/>
</defs>
<use x="71.00" y="79.00" xlink:href="#hd"/>
<path d="M74.50 79.00v-21.00" class="stroke"/>
<use x="112.10" y="79.00" xlink:href="#hd"/>
<circle class="fill" cx="119.80" cy="76.00" r="1.2"/>
<path d="M115.60 79.00v-21.00" class="stroke"/>
<use x="156.50" y="76.00" xlink:href="#hd"/>
<path d="M160.00 76.00v-21.00" class="stroke"/>
<path class="fill"
	d="M160.00 55.00c0.6 5.6 9.6 9 5.6 18.4
	1.6 -6 -1.3 -11.6 -5.6 -12.8
"/>
<use x="184.00" y="79.00" xlink:href="#hd"/>
<path d="M187.50 79.00v-21.00" class="stroke"/>
<use x="225.10" y="79.00" xlink:href="#hd"/>
<path d="M228.60 79.00v-21.00" class="stroke"/>
<path class="fill"
	d="M228.60 58.00c0.6 5.6 9.6 9 5.6 18.4
	1.6 -6 -1.3 -11.6 -5.6 -12.8
"/>
<use x="252.70" y="88.00" xlink:href="#hd"/>
<path d="M256.20 88.00v-21.00" class="stroke"/>
<path class="fill"
	d="M256.20 67.00c0.6 5.6 9.6 9 5.6 18.4
	1.6 -6 -1.3 -11.6 -5.6 -12.8
"/>
<use x="280.30" y="88.00" xlink:href="#hd"/>
<path d="M283.80 88.00v-21.00" class="stroke"/>
<use x="319.30" y="85.00" xlink:href="#hd"/>
<path d="M322.80 85.00v-21.00" class="stroke"/>
<use x="360.40" y="79.00" xlink:href="#hd"/>
<circle class="fill" cx="368.10" cy="76.00" r="1.2"/>
<path d="M363.90 79.00v-21.00" class="stroke"/>
<use x="404.70" y="76.00" xlink:href="#hd"/>
<path d="M408.20 76.00v-21.00" class="stroke"/>
<path class="fill"
	d="M408.20 55.00c0.6 5.6 9.6 9 5.6 18.4
	1.6 -6 -1.3 -11.6 -5.6 -12.8
"/>
<use x="432.30" y="79.00" xlink:href="#hd"/>
<path d="M435.80 79.00v-21.00" class="stroke"/>
<defs>
<path id="Hd" class="fill" d="m3 -1.6
	c-1 -1.8 -7 1.4 -6 3.2
	1 1.8 7 -1.4 6 -3.2
	m0.5 -0.3
	c2 3.8 -5 7.6 -7 3.8
	-2 -3.8 5 -7.6 7 -3.8"/>
</defs>
<use x="473.40" y="73.00" xlink:href="#Hd"/>
<path d="M476.90 73.00v-21.00" class="stroke"/>
<path class="fill"
	d="M524.70 88.00l25.50 0.00v-3.20l-25.50 -0.00"/>
<use x="528.50" y="67.00" xlink:href="#hd"/>
<path d="M525.00 67.00v20.00" class="stroke"/>
<use x="553.30" y="67.00" xlink:href="#hd"/>
<path d="M549.80 67.00v20.00" class="stroke"/>
<use x="586.40" y="64.00" xlink:href="#hd"/>
<path d="M582.90 64.00v21.00" class="stroke"/>
<use x="625.40" y="67.00" xlink:href="#hd"/>
<path d="M621.90 67.00v21.00" class="stroke"/>
<use x="664.30" y="70.00" xlink:href="#hd"/>
<path d="M660.80 70.00v21.00" class="stroke"/>
<path class="fill"
	d="M256.20 88.00c3.25 4.87 17.37 4.87 20.62 -0.00
	v0.22c-3.87 6.65 -16.75 6.65 -20.62 -0.22"/>
</g>
<g stroke-width="0.70" style="font:20.00px Times">
<path class="stroke" stroke-width="1"
	d="M139.30 155.00v-24.00"/>
<path class="stroke" stroke-width="1"
	d="M243.20 155.00v-24.00"/>
<path class="stroke" stroke-width="1"
	d="M322.20 155.00v-24.00"/>
<path class="stroke" stroke-width="1"
	d="M418.90 155.00v-24.00"/>
<path class="stroke" stroke-width="1"
	d="M515.70 155.00v-24.00"/>
<path class="stroke" stroke-width="1"
	d="M612.50 155.00v-24.00"/>
<path class="stroke" stroke-width="1"
	d="M691.60 155.00v-24.00"/>
<path d="m10.00 155.00
	h681.60
	M10.00 149.00
	h681.60
	M10.00 143.00
	h681.60
	M10.00 137.00
	h681.60
	M10.00 131.00
	h681.60
	" class="stroke"/>
<use x="22.00" y="149.00" xlink:href="#tclef"/>
<use x="37.00" y="131.00" xlink:href="#sh0"/>
<use x="55.00" y="143.00" xlink:href="#hd"/>
<path d="M51.50 143.00v21.00" class="stroke"/>
<use x="86.10" y="140.00" xlink:href="#hd"/>
<path d="M82.60 140.00v21.00" class="stroke"/>
<use x="117.20" y="143.00" xlink:href="#hd"/>
<path d="M113.70 143.00v21.00" class="stroke"/>
<use x="151.80" y="146.00" xlink:href="#hd"/>
<circle class="fill" cx="159.50" cy="146.00" r="1.2"/>
<path d="M155.30 146.00v-21.00" class="stroke"/>
<path class="fill"
	d="M190.70 122.70l40.60 4.70v3.20l-40.60 -4.70"/>
<use x="187.50" y="143.00" xlink:href="#hd"/>
<path d="M191.00 143.00v-19.30" class="stroke"/>
<use x="207.50" y="146.00" xlink:href="#hd"/>
<path d="M211.00 146.00v-20.00" class="stroke"/>
<use x="227.40" y="149.00" xlink:href="#hd"/>
<path d="M230.90 149.00v-20.70" class="stroke"/>
<use x="256.20" y="155.00" xlink:href="#Hd"/>
<path d="M259.70 155.00v-21.00" class="stroke"/>
<use x="300.10" y="149.00" xlink:href="#hd"/>
<path d="M303.60 149.00v-21.00" class="stroke"/>
<use x="334.70" y="149.00" xlink:href="#hd"/>
<path d="M338.20 149.00v-21.00" class="stroke"/>
<use x="365.80" y="158.00" xlink:href="#hd"/>
<path d="M369.30 158.00v-21.00" class="stroke"/>
<use x="396.90" y="155.00" xlink:href="#hd"/>
<path d="M400.40 155.00v-21.00" class="stroke"/>
<use x="431.40" y="149.00" xlink:href="#hd"/>
<path d="M434.90 149.00v-21.00" class="stroke"/>
<use x="462.60" y="158.00" xlink:href="#hd"/>
<path d="M466.10 158.00v-21.00" class="stroke"/>
<use x="493.70" y="155.00" xlink:href="#hd"/>
<path d="M497.20 155.00v-21.00" class="stroke"/>
<use x="528.20" y="149.00" xlink:href="#hd"/>
<path d="M531.70 149.00v-21.00" class="stroke"/>
<use x="559.40" y="146.00" xlink:href="#hd"/>
<path d="M562.90 146.00v-21.00" class="stroke"/>
<use x="590.50" y="149.00" xlink:href="#hd"/>
<path d="M594.00 149.00v-21.00" class="stroke"/>
<use x="625.50" y="143.00" xlink:href="#Hd"/>
<path d="M629.00 143.00v-21.00" class="stroke"/>
<use x="669.50" y="137.00" xlink:href="#hd"/>
<path d="M666.00 137.00v21.00" class="stroke"/>
</g>
<g stroke-width="0.70" style="font:20.00px Times">
<path class="stroke" stroke-width="1"
	d="M182.90 225.00v-24.00"/>
<path class="stroke" stroke-width="1"
	d="M320.30 225.00v-24.00"/>
<path class="stroke" stroke-width="1"
	d="M457.70 225.00v-24.00"/>
<path class="stroke" stroke-width="1"
	d="M574.60 225.00v-24.00"/>
<path class="stroke" stroke-width="1"
	d="M691.60 225.00v-24.00"/>
<path d="m10.00 225.00
	h681.60
	M10.00 219.00
	h681.60
	M10.00 213.00
	h681.60
	M10.00 207.00
	h681.60
	M10.00 201.00
	h681.60
	" class="stroke"/>
<use x="22.00" y="219.00" xlink:href="#tclef"/>
<use x="37.00" y="201.00" xlink:href="#sh0"/>
<use x="55.00" y="207.00" xlink:href="#hd"/>
<path d="M51.50 207.00v21.00" class="stroke"/>
<use x="102.40" y="210.00" xlink:href="#hd"/>
<path d="M98.90 210.00v21.00" class="stroke"/>
<use x="149.80" y="213.00" xlink:href="#hd"/>
<path d="M146.30 213.00v21.00" class="stroke"/>
<use x="199.70" y="216.00" xlink:href="#hd"/>
<circle class="fill" cx="207.40" cy="216.00" r="1.2"/>
<path d="M203.20 216.00v-21.00" class="stroke"/>
<use x="253.60" y="213.00" xlink:href="#hd"/>
<path d="M257.10 213.00v-21.00" class="stroke"/>
<path class="fill"
	d="M257.10 192.00c0.6 5.6 9.6 9 5.6 18.4
	1.6 -6 -1.3 -11.6 -5.6 -12.8
"/>
<use x="287.10" y="207.00" xlink:href="#hd"/>
<path d="M283.60 207.00v21.00" class="stroke"/>
<use x="337.10" y="204.00" xlink:href="#hd"/>
<circle class="fill" cx="344.80" cy="204.00" r="1.2"/>
<path d="M333.60 204.00v21.00" class="stroke"/>
<use x="391.00" y="201.00" xlink:href="#hd"/>
<path d="M387.50 201.00v21.00" class="stroke"/>
<path class="fill"
	d="M387.50 222.00c0.6 -5.6 9.6 -9 5.6 -18.4
	1.6 6 -1.3 11.6 -5.6 12.8
"/>
<use x="424.50" y="204.00" xlink:href="#hd"/>
<path d="M421.00 204.00v21.00" class="stroke"/>
<use x="474.40" y="207.00" xlink:href="#Hd"/>
<path d="M470.90 207.00v21.00" class="stroke"/>
<use x="541.50" y="213.00" xlink:href="#hd"/>
<path d="M538.00 213.00v21.00" class="stroke"/>
<use x="591.40" y="207.00" xlink:href="#Hd"/>
<path d="M587.90 207.00v21.00" class="stroke"/>
<use x="658.40" y="207.00" xlink:href="#hd"/>
<path d="M654.90 207.00v21.00" class="stroke"/>
</g>
<g stroke-width="0.70" style="font:20.00px Times">
<path class="stroke" stroke-width="1"
	d="M147.80 295.00v-24.00"/>
<path class="stroke" stroke-width="1"
	d="M253.00 295.00v-24.00"/>
<path class="stroke" stroke-width="1"
	d="M358.30 295.00v-24.00"/>
<path class="stroke" stroke-width="1"
	d="M463.60 295.00v-24.00"/>
<path class="stroke" stroke-width="1"
	d="M568.80 295.00v-24.00"/>
<path class="stroke" stroke-width="1"
	d="M691.60 295.00v-24.00"/>
<path d="m10.00 295.00
	h681.60
	M10.00 289.00
	h681.60
	M10.00 283.00
	h681.60
	M10.00 277.00
	h681.60
	M10.00 271.00
	h681.60
	" class="stroke"/>
<use x="22.00" y="289.00" xlink:href="#tclef"/>
<use x="37.00" y="271.00" xlink:href="#sh0"/>
<use x="55.00" y="283.00" xlink:href="#hd"/>
<path d="M51.50 283.00v21.00" class="stroke"/>
<use x="89.30" y="280.00" xlink:href="#hd"/>
<path d="M85.80 280.00v21.00" class="stroke"/>
<use x="123.60" y="277.00" xlink:href="#hd"/>
<path d="M120.10 277.00v21.00" class="stroke"/>
<use x="160.30" y="274.00" xlink:href="#hd"/>
<path d="M156.80 274.00v21.00" class="stroke"/>
<use x="194.60" y="274.00" xlink:href="#hd"/>
<path d="M191.10 274.00v21.00" class="stroke"/>
<use x="228.90" y="274.00" xlink:href="#hd"/>
<path d="M225.40 274.00v21.00" class="stroke"/>
<use x="265.50" y="277.00" xlink:href="#hd"/>
<path d="M262.00 277.00v21.00" class="stroke"/>
<defs>
<path id="r4" class="fill" d="m-1 -8.5
	l3.6 5.1 -2.1 5.2 2.2 4.3
	c-2.6 -2.3 -5.1 0 -2.4 2.6
	-4.8 -3 -1.5 -6.9 1.4 -4.1
	l-3.1 -4.5 1.9 -5.1 -1.5 -3.5"/>
</defs>
<use x="299.90" y="283.00" xlink:href="#r4"/>
<use x="334.20" y="283.00" xlink:href="#hd"/>
<path d="M330.70 283.00v21.00" class="stroke"/>
<use x="370.80" y="280.00" xlink:href="#hd"/>
<path d="M367.30 280.00v21.00" class="stroke"/>
<use x="405.10" y="277.00" xlink:href="#hd"/>
<path d="M401.60 277.00v21.00" class="stroke"/>
<use x="439.40" y="280.00" xlink:href="#hd"/>
<path d="M435.90 280.00v21.00" class="stroke"/>
<use x="476.10" y="283.00" xlink:href="#hd"/>
<path d="M472.60 283.00v21.00" class="stroke"/>
<use x="510.40" y="280.00" xlink:href="#hd"/>
<path d="M506.90 280.00v21.00" class="stroke"/>
<use x="544.70" y="283.00" xlink:href="#hd"/>
<path d="M541.20 283.00v21.00" class="stroke"/>
<use x="581.30" y="286.00" xlink:href="#hd"/>
<path d="M584.80 286.00v-21.00" class="stroke"/>
<use x="615.70" y="283.00" xlink:href="#hd"/>
<path d="M619.20 283.00v-21.00" class="stroke"/>
<use x="650.00" y="286.00" xlink:href="#hd"/>
<path d="M653.50 286.00v-21.00" class="stroke"/>
<path class="fill"
	d="M653.50 265.00c0.6 5.6 9.6 9 5.6 18.4
	1.6 -6 -1.3 -11.6 -5.6 -12.8
"/>
<use x="674.40" y="289.00" xlink:href="#hd"/>
<path d="M677.90 289.00v-21.00" class="stroke"/>
<path class="fill"
	d="M677.90 268.00c0.6 5.6 9.6 9 5.6 18.4
	1.6 -6 -1.3 -11.6 -5.6 -12.8
"/>
</g>
<g stroke-width="0.70" style="font:20.00px Times">
<path class="stroke" stroke-width="1"
	d="M110.80 365.00v-24.00"/>
<path class="stroke" stroke-width="1"
	d="M191.60 365.00v-24.00"/>
<path class="stroke" stroke-width="1"
	d="M275.00 365.00v-24.00"/>
<path class="stroke" stroke-width="1"
	d="M358.30 365.00v-24.00"/>
<path class="stroke" stroke-width="1"
	d="M438.70 365.00v-24.00"/>
<path class="stroke" stroke-width="1"
	d="M522.00 365.00v-24.00"/>
<path class="stroke" stroke-width="1"
	d="M605.40 365.00v-24.00"/>
<path class="stroke" stroke-width="1"
	d="M648.90 365.00v-24.00"/>
<path class="stroke" stroke-width="1"
	d="M691.60 365.00v-24.00"/>
<path class="stroke" stroke-width="1"
	d="M688.60 365.00v-24.00"/>
<path d="m10.00 365.00
	h681.60
	M10.00 359.00
	h681.60
	M10.00 353.00
	h681.60
	M10.00 347.00
	h681.60
	M10.00 341.00
	h681.60
	" class="stroke"/>
<use x="22.00" y="359.00" xlink:href="#tclef"/>
<use x="37.00" y="341.00" xlink:href="#sh0"/>
<use x="55.50" y="365.00" xlink:href="#Hd"/>
<path d="M59.00 365.00v-21.00" class="stroke"/>
<use x="91.90" y="359.00" xlink:href="#hd"/>
<path d="M95.40 359.00v-21.00" class="stroke"/>
<use x="123.30" y="359.00" xlink:href="#hd"/>
<circle class="fill" cx="131.00" cy="356.00" r="1.2"/>
<path d="M126.80 359.00v-21.00" class="stroke"/>
<use x="153.60" y="368.00" xlink:href="#hd"/>
<path d="M157.10 368.00v-21.00" class="stroke"/>
<path class="fill"
	d="M157.10 347.00c0.6 5.6 9.6 9 5.6 18.4
	1.6 -6 -1.3 -11.6 -5.6 -12.8
"/>
<use x="172.70" y="365.00" xlink:href="#hd"/>
<path d="M176.20 365.00v-21.00" class="stroke"/>
<use x="204.10" y="359.00" xlink:href="#hd"/>
<path d="M207.60 359.00v-21.00" class="stroke"/>
<use x="230.10" y="368.00" xlink:href="#hd"/>
<path d="M233.60 368.00v-21.00" class="stroke"/>
<use x="256.10" y="365.00" xlink:href="#hd"/>
<path d="M259.60 365.00v-21.00" class="stroke"/>
<use x="287.50" y="359.00" xlink:href="#hd"/>
<path d="M291.00 359.00v-21.00" class="stroke"/>
<use x="313.50" y="356.00" xlink:href="#hd"/>
<path d="M317.00 356.00v-21.00" class="stroke"/>
<use x="339.40" y="359.00" xlink:href="#hd"/>
<path d="M342.90 359.00v-21.00" class="stroke"/>
<use x="371.30" y="353.00" xlink:href="#Hd"/>
<path d="M374.80 353.00v-21.00" class="stroke"/>
<path class="fill"
	d="M404.20 368.00l17.60 0.00v-3.20l-17.60 -0.00"/>
<use x="408.00" y="347.00" xlink:href="#hd"/>
<path d="M404.50 347.00v20.00" class="stroke"/>
<use x="424.90" y="347.00" xlink:href="#hd"/>
<path d="M421.40 347.00v20.00" class="stroke"/>
<use x="451.20" y="347.00" xlink:href="#hd"/>
<path d="M447.70 347.00v21.00" class="stroke"/>
<use x="477.20" y="350.00" xlink:href="#hd"/>
<path d="M473.70 350.00v21.00" class="stroke"/>
<use x="503.10" y="353.00" xlink:href="#hd"/>
<path d="M499.60 353.00v21.00" class="stroke"/>
<use x="534.50" y="356.00" xlink:href="#hd"/>
<path d="M538.00 356.00v-21.00" class="stroke"/>
<use x="560.50" y="365.00" xlink:href="#hd"/>
<path d="M564.00 365.00v-21.00" class="stroke"/>
<use x="586.50" y="362.00" xlink:href="#hd"/>
<path d="M590.00 362.00v-21.00" class="stroke"/>
<use x="618.40" y="359.00" xlink:href="#Hd"/>
<circle class="fill" cx="627.10" cy="356.00" r="1.2"/>
<path d="M621.90 359.00v-21.00" class="stroke"/>
<use x="661.90" y="359.00" xlink:href="#Hd"/>
<path d="M665.40 359.00v-21.00" class="stroke"/>
</g>
</svg>
