<?xml version="1.0" standalone="no"?>
<!DOCTYPE svg PUBLIC "-//W3C//DTD SVG 1.1//EN"
	"http://www.w3.org/Graphics/SVG/1.1/DTD/svg11.dtd">
<svg xmlns="http://www.w3.org/2000/svg" version="1.1"
	xmlns:xlink="http://www.w3.org/1999/xlink"
	color="black"
	width="701.60px" height="1051.00px">
<style type="text/css">
.fill {fill: currentColor}
.stroke {stroke: currentColor; fill: none}
text{white-space: pre}
</style>
<title>/mnt/ed617834-7c4b-4156-8731-6c17b22f12c7/tims_code/sphinx-tunes/source/ (1) tune 1</title>
<!-- Creator: abcm2ps-8.14.6 -->
<!-- CreationDate: Aug 28, 2021 08:16 -->
<!-- CommandLine: -g '/mnt/ed617834-7c4b-4156-8731-6c17b22f12c7/tims_code/sphinx-tunes/source/_abcfiles/_Long Long Ago.abc' -O '/mnt/ed617834-7c4b-4156-8731-6c17b22f12c7/tims_code/sphinx-tunes/source/_abcfiles/Long Long Ago.svg' -->
<g stroke-width="0.70" style="font:italic 14.00px Times">
<text x="691.60" y="20.00" text-anchor="end">Trad, Variations by R Whinham Arr S. A. Fisher</text>
</g>
<g stroke-width="0.70" style="font:italic 14.00px Times">
<path class="stroke" stroke-width="1"
	d="M10.00 132.00v-83.00"/>
<path class="stroke" stroke-width="1"
	d="M92.80 73.00v-24.00"/>
<path class="stroke" stroke-width="1"
	d="M92.80 132.00v-59.00"/>
<path class="stroke" stroke-width="1"
	d="M241.10 73.00v-24.00"/>
<path class="stroke" stroke-width="1"
	d="M241.10 132.00v-59.00"/>
<path class="stroke" stroke-width="1"
	d="M387.70 73.00v-24.00"/>
<path class="stroke" stroke-width="1"
	d="M387.70 132.00v-59.00"/>
<path class="stroke" stroke-width="1"
	d="M547.60 73.00v-24.00"/>
<path class="stroke" stroke-width="1"
	d="M547.60 132.00v-59.00"/>
<path class="stroke" stroke-width="1"
	d="M691.60 73.00v-24.00"/>
<path class="stroke" stroke-width="1"
	d="M691.60 132.00v-59.00"/>
<path d="m10.00 73.00
	h681.60
	M10.00 67.00
	h681.60
	M10.00 61.00
	h681.60
	M10.00 55.00
	h681.60
	M10.00 49.00
	h681.60
	" class="stroke"/>
<path d="m10.00 132.00
	h681.60
	M10.00 126.00
	h681.60
	M10.00 120.00
	h681.60
	M10.00 114.00
	h681.60
	M10.00 108.00
	h681.60
	" class="stroke"/>
<defs>
<path id="utclef" class="fill" d="m-50 -90
	c-72 -41 -72 -158 52 -188
	150 -10 220 188 90 256
	-114 52 -275 0 -293 -136
	-15 -181 93 -229 220 -334
	88 -87 79 -133 62 -210
	-51 33 -94 105 -89 186
	17 267 36 374 49 574
	6 96 -19 134 -77 135
	-80 1 -126 -93 -61 -133
	85 -41 133 101 31 105
	23 17 92 37 90 -92
	-10 -223 -39 -342 -50 -617
	0 -90 0 -162 96 -232
	56 72 63 230 22 289
	-74 106 -257 168 -255 316
	9 153 148 185 252 133
	86 -65 29 -192 -80 -176
	-71 12 -105 67 -59 124"/>
<use id="tclef" transform="translate(0,6) scale(0.045)"
	xlink:href="#utclef"/>
</defs>
<use x="22.00" y="67.00" xlink:href="#tclef"/>
<defs>
<path id="usharp" class="fill" d="
	m136 -702
	v890
	h32
	v-890
	m128 840
	h32
	v-888
	h-32
	m-232 286
	v116
	l338 -96
	v-116
	m-338 442
	v116
	l338 -98
	v-114"/>
<use id="sh0" transform="translate(-4,5) scale(0.018)"
	xlink:href="#usharp"/>
</defs>
<use x="37.00" y="49.00" xlink:href="#sh0"/>
<g style="font:bold 16px serif"
	transform="translate(53.00,72.50) scale(1.2,1)">
	<text text-anchor="middle">4</text>
	<text y="-12" text-anchor="middle">2</text>
</g>
<defs>
<ellipse id="hd" rx="4.1" ry="2.9"
	transform="rotate(-20)" class="fill"/>
</defs>
<use x="71.00" y="76.00" xlink:href="#hd"/>
<path d="M74.50 76.00v-21.00" class="stroke"/>
<path class="fill"
	d="M74.50 55.00c0.6 5.6 9.6 9 5.6 18.4
	1.6 -6 -1.3 -11.6 -5.6 -12.8
"/>
<path class="fill"
	d="M111.50 41.00l48.40 0.00v3.20l-48.40 -0.00"/>
<path class="fill"
	d="M139.80 46.00l19.80 0.00v3.20l-19.80 -0.00"/>
<use x="108.30" y="67.00" xlink:href="#hd"/>
<path d="M111.80 67.00v-25.00" class="stroke"/>
<use x="136.30" y="67.00" xlink:href="#hd"/>
<path d="M139.80 67.00v-25.00" class="stroke"/>
<use x="156.00" y="64.00" xlink:href="#hd"/>
<path d="M159.50 64.00v-22.00" class="stroke"/>
<path class="fill"
	d="M174.20 81.00l48.40 0.00v-3.20l-48.40 -0.00"/>
<path class="fill"
	d="M202.50 76.00l19.80 0.00v-3.20l-19.80 -0.00"/>
<use x="178.00" y="61.00" xlink:href="#hd"/>
<path d="M174.50 61.00v19.00" class="stroke"/>
<use x="206.00" y="61.00" xlink:href="#hd"/>
<path d="M202.50 61.00v19.00" class="stroke"/>
<use x="225.70" y="58.00" xlink:href="#hd"/>
<path d="M222.20 58.00v22.00" class="stroke"/>
<path class="fill"
	d="M252.80 75.00l48.40 0.00v-3.20l-48.40 -0.00"/>
<path class="fill"
	d="M281.10 70.00l19.80 0.00v-3.20l-19.80 -0.00"/>
<use x="256.70" y="55.00" xlink:href="#hd"/>
<path d="M253.20 55.00v19.00" class="stroke"/>
<use x="284.60" y="52.00" xlink:href="#hd"/>
<path d="M281.10 52.00v22.00" class="stroke"/>
<use x="304.40" y="55.00" xlink:href="#hd"/>
<path d="M300.90 55.00v19.00" class="stroke"/>
<use x="326.40" y="61.00" xlink:href="#hd"/>
<path d="M322.90 61.00v21.00" class="stroke"/>
<path class="fill"
	d="M399.40 78.50l48.40 4.80v-3.20l-48.40 -4.80"/>
<path class="fill"
	d="M427.70 76.30l19.80 2.00v-3.20l-19.80 -2.00"/>
<use x="403.20" y="55.00" xlink:href="#hd"/>
<path d="M399.70 55.00v22.50" class="stroke"/>
<use x="431.20" y="58.00" xlink:href="#hd"/>
<path d="M427.70 58.00v22.30" class="stroke"/>
<use x="450.90" y="61.00" xlink:href="#hd"/>
<path d="M447.40 61.00v21.20" class="stroke"/>
<path class="fill"
	d="M476.10 44.70l40.20 7.60v3.20l-40.20 -7.60"/>
<use x="472.90" y="64.00" xlink:href="#hd"/>
<path d="M476.40 64.00v-18.20" class="stroke"/>
<use x="512.40" y="76.00" xlink:href="#hd"/>
<path d="M515.90 76.00v-22.70" class="stroke"/>
<path class="fill"
	d="M566.30 36.70l60.00 3.10v3.20l-60.00 -3.10"/>
<path class="fill"
	d="M606.20 43.80l19.80 1.00v3.20l-19.80 -1.00"/>
<use x="563.10" y="58.00" xlink:href="#hd"/>
<path d="M566.60 58.00v-20.30" class="stroke"/>
<use x="602.70" y="61.00" xlink:href="#hd"/>
<path d="M606.20 61.00v-21.20" class="stroke"/>
<use x="622.40" y="64.00" xlink:href="#hd"/>
<path d="M625.90 64.00v-23.20" class="stroke"/>
<path class="fill"
	d="M647.60 46.60l32.50 5.90v3.20l-32.50 -5.90"/>
<path class="fill"
	d="M672.70 56.10l7.00 1.30v3.20l-7.00 -1.30"/>
<use x="644.40" y="67.00" xlink:href="#hd"/>
<circle class="fill" cx="652.10" cy="64.00" r="1.2"/>
<path d="M647.90 67.00v-19.40" class="stroke"/>
<use x="676.20" y="76.00" xlink:href="#hd"/>
<path d="M679.70 76.00v-22.60" class="stroke"/>
<use x="22.00" y="126.00" xlink:href="#tclef"/>
<use x="37.00" y="108.00" xlink:href="#sh0"/>
<g style="font:bold 16px serif"
	transform="translate(53.00,131.50) scale(1.2,1)">
	<text text-anchor="middle">4</text>
	<text y="-12" text-anchor="middle">2</text>
</g>
<use x="71.00" y="129.00" xlink:href="#hd"/>
<path d="M74.50 129.00v-21.00" class="stroke"/>
<path class="fill"
	d="M74.50 108.00c0.6 5.6 9.6 9 5.6 18.4
	1.6 -6 -1.3 -11.6 -5.6 -12.8
"/>
<use x="108.30" y="120.00" xlink:href="#hd"/>
<path d="M111.80 120.00v-21.00" class="stroke"/>
<use x="178.00" y="114.00" xlink:href="#hd"/>
<path d="M174.50 114.00v21.00" class="stroke"/>
<use x="256.70" y="120.00" xlink:href="#hd"/>
<path d="M253.20 120.00v21.00" class="stroke"/>
<path class="fill"
	d="M322.50 137.70l40.20 4.70v-3.20l-40.20 -4.70"/>
<path class="fill"
	d="M322.90 132.70l19.80 2.30v-3.20l-19.80 -2.30"/>
<use x="326.40" y="114.00" xlink:href="#hd"/>
<path d="M322.90 114.00v22.70" class="stroke"/>
<use x="346.10" y="117.00" xlink:href="#hd"/>
<path d="M342.60 117.00v22.00" class="stroke"/>
<use x="365.90" y="120.00" xlink:href="#hd"/>
<path d="M362.40 120.00v21.30" class="stroke"/>
<path class="fill"
	d="M406.40 102.60l48.40 -4.80v3.20l-48.40 4.80"/>
<path class="fill"
	d="M434.70 104.80l19.80 -2.00v3.20l-19.80 2.00"/>
<use x="403.20" y="126.00" xlink:href="#hd"/>
<path d="M406.70 126.00v-22.40" class="stroke"/>
<use x="431.20" y="123.00" xlink:href="#hd"/>
<path d="M434.70 123.00v-22.20" class="stroke"/>
<use x="450.90" y="120.00" xlink:href="#hd"/>
<path d="M454.40 120.00v-21.20" class="stroke"/>
<path class="fill"
	d="M476.10 91.20l60.00 -7.10v3.20l-60.00 7.10"/>
<path class="fill"
	d="M476.40 96.10l59.30 -7.00v3.20l-59.30 7.00"/>
<defs>
<path id="hl" class="stroke" d="m-6 0h12"/>
</defs>
<use x="472.90" y="138.00" xlink:href="#hl"/>
<use x="472.90" y="138.00" xlink:href="#hd"/>
<path d="M476.40 138.00v-45.90" class="stroke"/>
<use x="492.70" y="111.00" xlink:href="#hd"/>
<path d="M496.20 111.00v-21.20" class="stroke"/>
<use x="512.40" y="114.00" xlink:href="#hd"/>
<path d="M515.90 114.00v-26.50" class="stroke"/>
<use x="532.20" y="120.00" xlink:href="#hd"/>
<path d="M535.70 120.00v-34.90" class="stroke"/>
<path class="fill"
	d="M566.30 100.10l60.00 0.00v3.20l-60.00 -0.00"/>
<path class="fill"
	d="M566.60 105.10l59.30 0.00v3.20l-59.30 -0.00"/>
<use x="563.10" y="123.00" xlink:href="#hd"/>
<path d="M566.60 123.00v-22.00" class="stroke"/>
<use x="582.90" y="129.00" xlink:href="#hd"/>
<path d="M586.40 129.00v-28.00" class="stroke"/>
<use x="602.70" y="126.00" xlink:href="#hd"/>
<path d="M606.20 126.00v-25.00" class="stroke"/>
<use x="622.40" y="123.00" xlink:href="#hd"/>
<path d="M625.90 123.00v-22.00" class="stroke"/>
<use x="644.40" y="120.00" xlink:href="#hd"/>
<path d="M647.90 120.00v-21.00" class="stroke"/>
</g>
<g stroke-width="0.70" style="font:italic 14.00px Times">
<path class="stroke" stroke-width="1"
	d="M10.00 260.00v-82.00"/>
<path class="stroke" stroke-width="1"
	d="M54.50 202.00v-24.00"/>
<path class="stroke" stroke-width="1"
	d="M54.50 260.00v-58.00"/>
<path class="stroke" stroke-width="1"
	d="M228.70 202.00v-24.00"/>
<path class="stroke" stroke-width="1"
	d="M228.70 260.00v-58.00"/>
<path class="stroke" stroke-width="1"
	d="M400.70 202.00v-24.00"/>
<path class="stroke" stroke-width="1"
	d="M400.70 260.00v-58.00"/>
<path class="stroke" stroke-width="1"
	d="M574.80 202.00v-24.00"/>
<path class="stroke" stroke-width="1"
	d="M574.80 260.00v-58.00"/>
<path class="stroke" stroke-width="1"
	d="M691.60 202.00v-24.00"/>
<path class="stroke" stroke-width="1"
	d="M688.60 202.00v-24.00"/>
<path class="stroke" stroke-width="1"
	d="M691.60 260.00v-58.00"/>
<path class="stroke" stroke-width="1"
	d="M688.60 260.00v-58.00"/>
<path d="m10.00 202.00
	h681.60
	M10.00 196.00
	h681.60
	M10.00 190.00
	h681.60
	M10.00 184.00
	h681.60
	M10.00 178.00
	h681.60
	" class="stroke"/>
<path d="m10.00 260.00
	h681.60
	M10.00 254.00
	h681.60
	M10.00 248.00
	h681.60
	M10.00 242.00
	h681.60
	M10.00 236.00
	h681.60
	" class="stroke"/>
<use x="22.00" y="196.00" xlink:href="#tclef"/>
<use x="37.00" y="178.00" xlink:href="#sh0"/>
<path class="fill"
	d="M75.90 170.00l56.70 0.00v3.20l-56.70 -0.00"/>
<path class="fill"
	d="M109.10 175.00l23.20 0.00v3.20l-23.20 -0.00"/>
<use x="72.70" y="196.00" xlink:href="#hd"/>
<path d="M76.20 196.00v-25.00" class="stroke"/>
<use x="105.60" y="196.00" xlink:href="#hd"/>
<path d="M109.10 196.00v-25.00" class="stroke"/>
<use x="128.80" y="193.00" xlink:href="#hd"/>
<path d="M132.30 193.00v-22.00" class="stroke"/>
<path class="fill"
	d="M150.70 210.00l56.70 0.00v-3.20l-56.70 -0.00"/>
<path class="fill"
	d="M183.90 205.00l23.20 0.00v-3.20l-23.20 -0.00"/>
<use x="154.60" y="190.00" xlink:href="#hd"/>
<path d="M151.10 190.00v19.00" class="stroke"/>
<use x="187.40" y="190.00" xlink:href="#hd"/>
<path d="M183.90 190.00v19.00" class="stroke"/>
<use x="210.60" y="187.00" xlink:href="#hd"/>
<path d="M207.10 187.00v22.00" class="stroke"/>
<path class="fill"
	d="M243.10 204.00l56.70 0.00v-3.20l-56.70 -0.00"/>
<path class="fill"
	d="M276.20 199.00l23.20 0.00v-3.20l-23.20 -0.00"/>
<use x="246.90" y="184.00" xlink:href="#hd"/>
<path d="M243.40 184.00v19.00" class="stroke"/>
<use x="279.70" y="181.00" xlink:href="#hd"/>
<path d="M276.20 181.00v22.00" class="stroke"/>
<use x="302.90" y="184.00" xlink:href="#hd"/>
<path d="M299.40 184.00v19.00" class="stroke"/>
<use x="328.70" y="190.00" xlink:href="#hd"/>
<path d="M325.20 190.00v21.00" class="stroke"/>
<path class="fill"
	d="M415.10 207.40l56.70 5.00v-3.20l-56.70 -5.00"/>
<path class="fill"
	d="M448.30 205.30l23.20 2.00v-3.20l-23.20 -2.00"/>
<use x="418.90" y="184.00" xlink:href="#hd"/>
<path d="M415.40 184.00v22.40" class="stroke"/>
<use x="451.80" y="187.00" xlink:href="#hd"/>
<path d="M448.30 187.00v22.30" class="stroke"/>
<use x="475.00" y="190.00" xlink:href="#hd"/>
<path d="M471.50 190.00v21.30" class="stroke"/>
<path class="fill"
	d="M503.90 165.80l56.70 0.00v3.20l-56.70 -0.00"/>
<path class="fill"
	d="M537.10 170.80l23.20 0.00v3.20l-23.20 -0.00"/>
<use x="500.80" y="193.00" xlink:href="#hd"/>
<path d="M504.30 193.00v-26.20" class="stroke"/>
<use x="533.60" y="190.00" xlink:href="#hd"/>
<path d="M537.10 190.00v-23.20" class="stroke"/>
<use x="556.80" y="193.00" xlink:href="#hd"/>
<path d="M560.30 193.00v-26.20" class="stroke"/>
<use x="593.10" y="196.00" xlink:href="#hd"/>
<circle class="fill" cx="600.80" cy="193.00" r="1.2"/>
<path d="M596.60 196.00v-21.00" class="stroke"/>
<use x="22.00" y="254.00" xlink:href="#tclef"/>
<use x="37.00" y="236.00" xlink:href="#sh0"/>
<use x="72.70" y="248.00" xlink:href="#hd"/>
<path d="M76.20 248.00v-21.00" class="stroke"/>
<use x="154.60" y="242.00" xlink:href="#hd"/>
<path d="M151.10 242.00v21.00" class="stroke"/>
<use x="246.90" y="248.00" xlink:href="#hd"/>
<path d="M243.40 248.00v21.00" class="stroke"/>
<path class="fill"
	d="M324.90 265.60l47.10 4.80v-3.20l-47.10 -4.80"/>
<path class="fill"
	d="M325.20 260.60l23.20 2.40v-3.20l-23.20 -2.40"/>
<use x="328.70" y="242.00" xlink:href="#hd"/>
<path d="M325.20 242.00v22.60" class="stroke"/>
<use x="351.90" y="245.00" xlink:href="#hd"/>
<path d="M348.40 245.00v22.00" class="stroke"/>
<use x="375.10" y="248.00" xlink:href="#hd"/>
<path d="M371.60 248.00v21.40" class="stroke"/>
<path class="fill"
	d="M422.10 230.70l56.70 -5.00v3.20l-56.70 5.00"/>
<path class="fill"
	d="M455.30 232.80l23.20 -2.00v3.20l-23.20 2.00"/>
<use x="418.90" y="254.00" xlink:href="#hd"/>
<path d="M422.40 254.00v-22.30" class="stroke"/>
<use x="451.80" y="251.00" xlink:href="#hd"/>
<path d="M455.30 251.00v-22.20" class="stroke"/>
<use x="475.00" y="248.00" xlink:href="#hd"/>
<path d="M478.50 248.00v-21.20" class="stroke"/>
<use x="500.80" y="242.00" xlink:href="#hd"/>
<path d="M497.30 242.00v21.00" class="stroke"/>
<path class="fill"
	d="M589.20 263.20l33.50 2.60v-3.20l-33.50 -2.60"/>
<use x="593.10" y="242.00" xlink:href="#hd"/>
<path d="M589.60 242.00v20.20" class="stroke"/>
<use x="625.90" y="245.00" xlink:href="#hd"/>
<path d="M622.40 245.00v19.80" class="stroke"/>
<use x="662.40" y="248.00" xlink:href="#hd"/>
<path d="M658.90 248.00v21.00" class="stroke"/>
<path class="fill"
	d="M658.90 269.00c0.6 -5.6 9.6 -9 5.6 -18.4
	1.6 6 -1.3 11.6 -5.6 12.8
"/>
</g>
<g stroke-width="0.70" style="font:italic 14.00px Times">
<path class="stroke" stroke-width="1"
	d="M10.00 388.00v-82.00"/>
<path class="stroke" stroke-width="1"
	d="M77.30 330.00v-24.00"/>
<path class="stroke" stroke-width="1"
	d="M77.30 388.00v-58.00"/>
<path class="stroke" stroke-width="1"
	d="M215.80 330.00v-24.00"/>
<path class="stroke" stroke-width="1"
	d="M215.80 388.00v-58.00"/>
<path class="stroke" stroke-width="1"
	d="M351.60 330.00v-24.00"/>
<path class="stroke" stroke-width="1"
	d="M351.60 388.00v-58.00"/>
<path class="stroke" stroke-width="1"
	d="M517.90 330.00v-24.00"/>
<path class="stroke" stroke-width="1"
	d="M517.90 388.00v-58.00"/>
<path class="stroke" stroke-width="1"
	d="M691.60 330.00v-24.00"/>
<path class="stroke" stroke-width="1"
	d="M691.60 388.00v-58.00"/>
<path d="m10.00 330.00
	h681.60
	M10.00 324.00
	h681.60
	M10.00 318.00
	h681.60
	M10.00 312.00
	h681.60
	M10.00 306.00
	h681.60
	" class="stroke"/>
<path d="m10.00 388.00
	h681.60
	M10.00 382.00
	h681.60
	M10.00 376.00
	h681.60
	M10.00 370.00
	h681.60
	M10.00 364.00
	h681.60
	" class="stroke"/>
<use x="22.00" y="324.00" xlink:href="#tclef"/>
<use x="37.00" y="306.00" xlink:href="#sh0"/>
<use x="55.00" y="333.00" xlink:href="#hd"/>
<path d="M58.50 333.00v-21.00" class="stroke"/>
<path class="fill"
	d="M58.50 312.00c0.6 5.6 9.6 9 5.6 18.4
	1.6 -6 -1.3 -11.6 -5.6 -12.8
"/>
<path class="fill"
	d="M89.40 335.40l49.70 4.80v-3.20l-49.70 -4.80"/>
<path class="fill"
	d="M118.50 333.30l20.30 2.00v-3.20l-20.30 -2.00"/>
<use x="93.30" y="312.00" xlink:href="#hd"/>
<path d="M89.80 312.00v22.50" class="stroke"/>
<use x="122.00" y="315.00" xlink:href="#hd"/>
<path d="M118.50 315.00v22.30" class="stroke"/>
<use x="142.20" y="318.00" xlink:href="#hd"/>
<path d="M138.70 318.00v21.30" class="stroke"/>
<path class="fill"
	d="M167.90 301.70l29.40 6.70v3.20l-29.40 -6.70"/>
<use x="164.80" y="321.00" xlink:href="#hd"/>
<path d="M168.30 321.00v-18.20" class="stroke"/>
<use x="193.50" y="333.00" xlink:href="#hd"/>
<path d="M197.00 333.00v-23.70" class="stroke"/>
<path class="fill"
	d="M234.90 293.00l49.70 4.80v3.20l-49.70 -4.80"/>
<path class="fill"
	d="M263.90 300.80l20.30 2.00v3.20l-20.30 -2.00"/>
<use x="231.70" y="315.00" xlink:href="#hd"/>
<path d="M235.20 315.00v-21.00" class="stroke"/>
<use x="260.40" y="318.00" xlink:href="#hd"/>
<path d="M263.90 318.00v-21.20" class="stroke"/>
<use x="280.70" y="321.00" xlink:href="#hd"/>
<path d="M284.20 321.00v-22.20" class="stroke"/>
<path class="fill"
	d="M306.40 303.50l33.30 5.90v3.20l-33.30 -5.90"/>
<path class="fill"
	d="M332.40 313.20l7.00 1.20v3.20l-7.00 -1.20"/>
<use x="303.20" y="324.00" xlink:href="#hd"/>
<circle class="fill" cx="310.90" cy="321.00" r="1.2"/>
<path d="M306.70 324.00v-19.40" class="stroke"/>
<use x="335.90" y="333.00" xlink:href="#hd"/>
<path d="M339.40 333.00v-22.60" class="stroke"/>
<path class="fill"
	d="M363.70 335.40l49.70 4.80v-3.20l-49.70 -4.80"/>
<path class="fill"
	d="M392.80 333.30l20.30 2.00v-3.20l-20.30 -2.00"/>
<use x="367.60" y="312.00" xlink:href="#hd"/>
<path d="M364.10 312.00v22.50" class="stroke"/>
<use x="396.30" y="315.00" xlink:href="#hd"/>
<path d="M392.80 315.00v22.30" class="stroke"/>
<use x="416.50" y="318.00" xlink:href="#hd"/>
<path d="M413.00 318.00v21.30" class="stroke"/>
<path class="fill"
	d="M442.20 298.70l21.00 5.70v3.20l-21.00 -5.70"/>
<path class="fill"
	d="M442.60 303.80l20.30 5.50v3.20l-20.30 -5.50"/>
<use x="439.10" y="321.00" xlink:href="#hd"/>
<path d="M442.60 321.00v-21.20" class="stroke"/>
<use x="459.40" y="333.00" xlink:href="#hd"/>
<path d="M462.90 333.00v-27.70" class="stroke"/>
<path class="fill"
	d="M485.00 296.00l21.00 -6.30v3.20l-21.00 6.30"/>
<path class="fill"
	d="M485.40 300.80l20.30 -6.00v3.20l-20.30 6.00"/>
<use x="481.90" y="327.00" xlink:href="#hd"/>
<path d="M485.40 327.00v-30.20" class="stroke"/>
<use x="502.20" y="312.00" xlink:href="#hd"/>
<path d="M505.70 312.00v-21.20" class="stroke"/>
<path class="fill"
	d="M530.00 332.00l61.50 0.00v-3.20l-61.50 -0.00"/>
<path class="fill"
	d="M570.90 327.00l20.30 0.00v-3.20l-20.30 -0.00"/>
<use x="533.90" y="309.00" xlink:href="#hd"/>
<path d="M530.40 309.00v22.00" class="stroke"/>
<use x="574.40" y="309.00" xlink:href="#hd"/>
<path d="M570.90 309.00v22.00" class="stroke"/>
<use x="594.70" y="312.00" xlink:href="#hd"/>
<path d="M591.20 312.00v19.00" class="stroke"/>
<path class="fill"
	d="M618.20 298.40l61.50 10.20v3.20l-61.50 -10.20"/>
<path class="fill"
	d="M672.30 312.40l7.00 1.20v3.20l-7.00 -1.20"/>
<use x="615.00" y="318.00" xlink:href="#hd"/>
<circle class="fill" cx="622.70" cy="315.00" r="1.2"/>
<path d="M618.50 318.00v-18.50" class="stroke"/>
<use x="675.80" y="333.00" xlink:href="#hd"/>
<path d="M679.30 333.00v-23.50" class="stroke"/>
<use x="22.00" y="382.00" xlink:href="#tclef"/>
<use x="37.00" y="364.00" xlink:href="#sh0"/>
<use x="55.00" y="385.00" xlink:href="#hd"/>
<path d="M58.50 385.00v-21.00" class="stroke"/>
<path class="fill"
	d="M58.50 364.00c0.6 5.6 9.6 9 5.6 18.4
	1.6 -6 -1.3 -11.6 -5.6 -12.8
"/>
<path class="fill"
	d="M96.40 367.60l49.70 -4.80v3.20l-49.70 4.80"/>
<path class="fill"
	d="M125.50 369.80l20.30 -2.00v3.20l-20.30 2.00"/>
<use x="93.30" y="391.00" xlink:href="#hd"/>
<path d="M96.80 391.00v-22.40" class="stroke"/>
<use x="122.00" y="388.00" xlink:href="#hd"/>
<path d="M125.50 388.00v-22.20" class="stroke"/>
<use x="142.20" y="385.00" xlink:href="#hd"/>
<path d="M145.70 385.00v-21.20" class="stroke"/>
<path class="fill"
	d="M167.90 372.80l29.40 -2.50v3.20l-29.40 2.50"/>
<use x="164.80" y="394.00" xlink:href="#hl"/>
<use x="164.80" y="394.00" xlink:href="#hd"/>
<path d="M168.30 394.00v-20.30" class="stroke"/>
<use x="193.50" y="391.00" xlink:href="#hd"/>
<path d="M197.00 391.00v-19.70" class="stroke"/>
<path class="fill"
	d="M234.90 351.00l49.70 4.80v3.20l-49.70 -4.80"/>
<path class="fill"
	d="M263.90 358.80l20.30 2.00v3.20l-20.30 -2.00"/>
<use x="231.70" y="373.00" xlink:href="#hd"/>
<path d="M235.20 373.00v-21.00" class="stroke"/>
<use x="260.40" y="376.00" xlink:href="#hd"/>
<path d="M263.90 376.00v-21.20" class="stroke"/>
<use x="280.70" y="379.00" xlink:href="#hd"/>
<path d="M284.20 379.00v-22.20" class="stroke"/>
<path class="fill"
	d="M306.40 351.80l33.30 0.00v3.20l-33.30 -0.00"/>
<path class="fill"
	d="M332.40 356.80l7.00 0.00v3.20l-7.00 -0.00"/>
<use x="303.20" y="376.00" xlink:href="#hd"/>
<circle class="fill" cx="310.90" cy="373.00" r="1.2"/>
<path d="M306.70 376.00v-23.20" class="stroke"/>
<use x="335.90" y="376.00" xlink:href="#hd"/>
<path d="M339.40 376.00v-23.20" class="stroke"/>
<path class="fill"
	d="M370.70 354.00l49.70 4.80v3.20l-49.70 -4.80"/>
<path class="fill"
	d="M399.80 361.80l20.30 2.00v3.20l-20.30 -2.00"/>
<use x="367.60" y="376.00" xlink:href="#hd"/>
<path d="M371.10 376.00v-21.00" class="stroke"/>
<use x="396.30" y="379.00" xlink:href="#hd"/>
<path d="M399.80 379.00v-21.20" class="stroke"/>
<use x="416.50" y="382.00" xlink:href="#hd"/>
<path d="M420.00 382.00v-22.20" class="stroke"/>
<path class="fill"
	d="M442.20 356.50l63.80 -5.70v3.20l-63.80 5.70"/>
<path class="fill"
	d="M485.40 357.60l20.30 -1.80v3.20l-20.30 1.80"/>
<use x="439.10" y="385.00" xlink:href="#hd"/>
<path d="M442.60 385.00v-27.50" class="stroke"/>
<use x="481.90" y="379.00" xlink:href="#hd"/>
<path d="M485.40 379.00v-25.40" class="stroke"/>
<use x="502.20" y="373.00" xlink:href="#hd"/>
<path d="M505.70 373.00v-21.20" class="stroke"/>
<path class="fill"
	d="M537.00 350.80l41.20 0.00v3.20l-41.20 -0.00"/>
<path class="fill"
	d="M537.40 355.80l20.30 0.00v3.20l-20.30 -0.00"/>
<use x="533.90" y="373.00" xlink:href="#hd"/>
<path d="M537.40 373.00v-21.20" class="stroke"/>
<use x="554.20" y="379.00" xlink:href="#hd"/>
<path d="M557.70 379.00v-27.20" class="stroke"/>
<use x="574.40" y="376.00" xlink:href="#hd"/>
<path d="M577.90 376.00v-24.20" class="stroke"/>
<path class="fill"
	d="M618.20 359.80l61.50 7.00v3.20l-61.50 -7.00"/>
<path class="fill"
	d="M618.50 364.80l60.80 6.90v3.20l-60.80 -6.90"/>
<use x="615.00" y="382.00" xlink:href="#hd"/>
<path d="M618.50 382.00v-21.20" class="stroke"/>
<use x="635.30" y="385.00" xlink:href="#hd"/>
<path d="M638.80 385.00v-21.90" class="stroke"/>
<use x="655.50" y="388.00" xlink:href="#hd"/>
<path d="M659.00 388.00v-22.60" class="stroke"/>
<use x="675.80" y="391.00" xlink:href="#hd"/>
<path d="M679.30 391.00v-23.30" class="stroke"/>
</g>
<g stroke-width="0.70" style="font:italic 14.00px Times">
<path class="stroke" stroke-width="1"
	d="M10.00 516.00v-82.00"/>
<path class="stroke" stroke-width="1"
	d="M54.50 458.00v-24.00"/>
<path class="stroke" stroke-width="1"
	d="M54.50 516.00v-58.00"/>
<path class="stroke" stroke-width="1"
	d="M225.00 458.00v-24.00"/>
<path class="stroke" stroke-width="1"
	d="M225.00 516.00v-58.00"/>
<path class="stroke" stroke-width="1"
	d="M393.50 458.00v-24.00"/>
<path class="stroke" stroke-width="1"
	d="M393.50 516.00v-58.00"/>
<path class="stroke" stroke-width="1"
	d="M564.00 458.00v-24.00"/>
<path class="stroke" stroke-width="1"
	d="M564.00 516.00v-58.00"/>
<path class="stroke" stroke-width="1"
	d="M691.60 458.00v-24.00"/>
<path class="stroke" stroke-width="1"
	d="M688.60 458.00v-24.00"/>
<path class="stroke" stroke-width="1"
	d="M691.60 516.00v-58.00"/>
<path class="stroke" stroke-width="1"
	d="M688.60 516.00v-58.00"/>
<path d="m10.00 458.00
	h681.60
	M10.00 452.00
	h681.60
	M10.00 446.00
	h681.60
	M10.00 440.00
	h681.60
	M10.00 434.00
	h681.60
	" class="stroke"/>
<path d="m10.00 516.00
	h681.60
	M10.00 510.00
	h681.60
	M10.00 504.00
	h681.60
	M10.00 498.00
	h681.60
	M10.00 492.00
	h681.60
	" class="stroke"/>
<use x="22.00" y="452.00" xlink:href="#tclef"/>
<use x="37.00" y="434.00" xlink:href="#sh0"/>
<path class="fill"
	d="M75.50 426.00l55.60 0.00v3.20l-55.60 -0.00"/>
<path class="fill"
	d="M108.00 431.00l22.70 0.00v3.20l-22.70 -0.00"/>
<use x="72.40" y="452.00" xlink:href="#hd"/>
<path d="M75.90 452.00v-25.00" class="stroke"/>
<use x="104.50" y="452.00" xlink:href="#hd"/>
<path d="M108.00 452.00v-25.00" class="stroke"/>
<use x="127.20" y="449.00" xlink:href="#hd"/>
<path d="M130.70 449.00v-22.00" class="stroke"/>
<path class="fill"
	d="M148.60 466.00l55.60 0.00v-3.20l-55.60 -0.00"/>
<path class="fill"
	d="M181.10 461.00l22.70 0.00v-3.20l-22.70 -0.00"/>
<use x="152.50" y="446.00" xlink:href="#hd"/>
<path d="M149.00 446.00v19.00" class="stroke"/>
<use x="184.60" y="446.00" xlink:href="#hd"/>
<path d="M181.10 446.00v19.00" class="stroke"/>
<use x="207.40" y="443.00" xlink:href="#hd"/>
<path d="M203.90 443.00v22.00" class="stroke"/>
<path class="fill"
	d="M239.10 460.00l55.60 0.00v-3.20l-55.60 -0.00"/>
<path class="fill"
	d="M271.50 455.00l22.70 0.00v-3.20l-22.70 -0.00"/>
<use x="242.90" y="440.00" xlink:href="#hd"/>
<path d="M239.40 440.00v19.00" class="stroke"/>
<use x="275.00" y="437.00" xlink:href="#hd"/>
<path d="M271.50 437.00v22.00" class="stroke"/>
<use x="297.80" y="440.00" xlink:href="#hd"/>
<path d="M294.30 440.00v19.00" class="stroke"/>
<use x="323.00" y="446.00" xlink:href="#hd"/>
<path d="M319.50 446.00v21.00" class="stroke"/>
<path class="fill"
	d="M407.50 463.40l55.60 4.90v-3.20l-55.60 -4.90"/>
<path class="fill"
	d="M440.00 461.30l22.70 2.00v-3.20l-22.70 -2.00"/>
<use x="411.30" y="440.00" xlink:href="#hd"/>
<path d="M407.80 440.00v22.40" class="stroke"/>
<use x="443.50" y="443.00" xlink:href="#hd"/>
<path d="M440.00 443.00v22.30" class="stroke"/>
<use x="466.20" y="446.00" xlink:href="#hd"/>
<path d="M462.70 446.00v21.30" class="stroke"/>
<path class="fill"
	d="M494.60 421.80l55.60 0.00v3.20l-55.60 -0.00"/>
<path class="fill"
	d="M527.10 426.80l22.70 0.00v3.20l-22.70 -0.00"/>
<use x="491.40" y="449.00" xlink:href="#hd"/>
<path d="M494.90 449.00v-26.20" class="stroke"/>
<use x="523.60" y="446.00" xlink:href="#hd"/>
<path d="M527.10 446.00v-23.20" class="stroke"/>
<use x="546.30" y="449.00" xlink:href="#hd"/>
<path d="M549.80 449.00v-26.20" class="stroke"/>
<use x="581.90" y="452.00" xlink:href="#hd"/>
<circle class="fill" cx="589.60" cy="449.00" r="1.2"/>
<path d="M585.40 452.00v-21.00" class="stroke"/>
<use x="22.00" y="510.00" xlink:href="#tclef"/>
<use x="37.00" y="492.00" xlink:href="#sh0"/>
<use x="72.40" y="504.00" xlink:href="#hd"/>
<path d="M75.90 504.00v-21.00" class="stroke"/>
<use x="152.50" y="498.00" xlink:href="#hd"/>
<path d="M149.00 498.00v21.00" class="stroke"/>
<use x="242.90" y="504.00" xlink:href="#hd"/>
<path d="M239.40 504.00v21.00" class="stroke"/>
<path class="fill"
	d="M319.20 521.60l46.10 4.80v-3.20l-46.10 -4.80"/>
<path class="fill"
	d="M319.50 516.60l22.70 2.40v-3.20l-22.70 -2.40"/>
<use x="323.00" y="498.00" xlink:href="#hd"/>
<path d="M319.50 498.00v22.60" class="stroke"/>
<use x="345.70" y="501.00" xlink:href="#hd"/>
<path d="M342.20 501.00v22.00" class="stroke"/>
<use x="368.50" y="504.00" xlink:href="#hd"/>
<path d="M365.00 504.00v21.40" class="stroke"/>
<path class="fill"
	d="M414.50 486.70l55.60 -4.90v3.20l-55.60 4.90"/>
<path class="fill"
	d="M447.00 488.80l22.70 -2.00v3.20l-22.70 2.00"/>
<use x="411.30" y="510.00" xlink:href="#hd"/>
<path d="M414.80 510.00v-22.30" class="stroke"/>
<use x="443.50" y="507.00" xlink:href="#hd"/>
<path d="M447.00 507.00v-22.20" class="stroke"/>
<use x="466.20" y="504.00" xlink:href="#hd"/>
<path d="M469.70 504.00v-21.20" class="stroke"/>
<use x="491.40" y="498.00" xlink:href="#hd"/>
<path d="M487.90 498.00v21.00" class="stroke"/>
<path class="fill"
	d="M578.00 523.90l46.10 0.00v-3.20l-46.10 -0.00"/>
<path class="fill"
	d="M578.40 518.90l22.70 0.00v-3.20l-22.70 -0.00"/>
<use x="581.90" y="498.00" xlink:href="#hd"/>
<path d="M578.40 498.00v25.00" class="stroke"/>
<use x="604.60" y="504.00" xlink:href="#hd"/>
<path d="M601.10 504.00v19.00" class="stroke"/>
<use x="627.30" y="501.00" xlink:href="#hd"/>
<path d="M623.80 501.00v22.00" class="stroke"/>
<use x="663.00" y="504.00" xlink:href="#hd"/>
<path d="M659.50 504.00v21.00" class="stroke"/>
<path class="fill"
	d="M659.50 525.00c0.6 -5.6 9.6 -9 5.6 -18.4
	1.6 6 -1.3 11.6 -5.6 12.8
"/>
</g>
<g stroke-width="0.70" style="font:italic 14.00px Times">
<path class="stroke" stroke-width="1"
	d="M10.00 644.00v-82.00"/>
<path class="stroke" stroke-width="1"
	d="M74.90 586.00v-24.00"/>
<path class="stroke" stroke-width="1"
	d="M74.90 644.00v-58.00"/>
<path class="stroke" stroke-width="1"
	d="M231.70 586.00v-24.00"/>
<path class="stroke" stroke-width="1"
	d="M231.70 644.00v-58.00"/>
<path class="stroke" stroke-width="1"
	d="M388.50 586.00v-24.00"/>
<path class="stroke" stroke-width="1"
	d="M388.50 644.00v-58.00"/>
<path class="stroke" stroke-width="1"
	d="M534.80 586.00v-24.00"/>
<path class="stroke" stroke-width="1"
	d="M534.80 644.00v-58.00"/>
<path class="stroke" stroke-width="1"
	d="M691.60 586.00v-24.00"/>
<path class="stroke" stroke-width="1"
	d="M691.60 644.00v-58.00"/>
<path d="m10.00 586.00
	h681.60
	M10.00 580.00
	h681.60
	M10.00 574.00
	h681.60
	M10.00 568.00
	h681.60
	M10.00 562.00
	h681.60
	" class="stroke"/>
<path d="m10.00 644.00
	h681.60
	M10.00 638.00
	h681.60
	M10.00 632.00
	h681.60
	M10.00 626.00
	h681.60
	M10.00 620.00
	h681.60
	" class="stroke"/>
<use x="22.00" y="580.00" xlink:href="#tclef"/>
<use x="37.00" y="562.00" xlink:href="#sh0"/>
<use x="55.00" y="589.00" xlink:href="#hd"/>
<path d="M58.50 589.00v-21.00" class="stroke"/>
<path class="fill"
	d="M58.50 568.00c0.6 5.6 9.6 9 5.6 18.4
	1.6 -6 -1.3 -11.6 -5.6 -12.8
"/>
<path class="fill"
	d="M92.30 554.00l54.90 0.00v3.20l-54.90 -0.00"/>
<path class="fill"
	d="M92.60 559.00l54.20 0.00v3.20l-54.20 -0.00"/>
<use x="89.10" y="580.00" xlink:href="#hd"/>
<path d="M92.60 580.00v-25.00" class="stroke"/>
<use x="107.20" y="589.00" xlink:href="#hd"/>
<path d="M110.70 589.00v-34.00" class="stroke"/>
<use x="125.30" y="580.00" xlink:href="#hd"/>
<path d="M128.80 580.00v-25.00" class="stroke"/>
<use x="143.30" y="577.00" xlink:href="#hd"/>
<path d="M146.80 577.00v-22.00" class="stroke"/>
<path class="fill"
	d="M166.60 549.80l54.90 0.00v3.20l-54.90 -0.00"/>
<path class="fill"
	d="M166.90 554.80l54.20 0.00v3.20l-54.20 -0.00"/>
<use x="163.40" y="574.00" xlink:href="#hd"/>
<path d="M166.90 574.00v-23.20" class="stroke"/>
<use x="181.50" y="589.00" xlink:href="#hd"/>
<path d="M185.00 589.00v-38.20" class="stroke"/>
<use x="199.60" y="580.00" xlink:href="#hd"/>
<path d="M203.10 580.00v-29.20" class="stroke"/>
<use x="217.70" y="574.00" xlink:href="#hd"/>
<path d="M221.20 574.00v-23.20" class="stroke"/>
<path class="fill"
	d="M242.10 594.00l54.90 0.00v-3.20l-54.90 -0.00"/>
<path class="fill"
	d="M242.40 589.00l54.20 0.00v-3.20l-54.20 -0.00"/>
<use x="245.90" y="568.00" xlink:href="#hd"/>
<path d="M242.40 568.00v25.00" class="stroke"/>
<use x="264.00" y="571.00" xlink:href="#hd"/>
<use x="255.00" y="571.00" xlink:href="#sh0"/>
<path d="M260.50 571.00v22.00" class="stroke"/>
<use x="282.10" y="565.00" xlink:href="#hd"/>
<path d="M278.60 565.00v28.00" class="stroke"/>
<use x="300.20" y="568.00" xlink:href="#hd"/>
<path d="M296.70 568.00v25.00" class="stroke"/>
<path class="fill"
	d="M323.40 549.80l54.90 0.00v3.20l-54.90 -0.00"/>
<path class="fill"
	d="M323.70 554.80l54.20 0.00v3.20l-54.20 -0.00"/>
<use x="320.20" y="574.00" xlink:href="#hd"/>
<path d="M323.70 574.00v-23.20" class="stroke"/>
<use x="338.30" y="589.00" xlink:href="#hd"/>
<path d="M341.80 589.00v-38.20" class="stroke"/>
<use x="356.40" y="580.00" xlink:href="#hd"/>
<path d="M359.90 580.00v-29.20" class="stroke"/>
<use x="374.50" y="574.00" xlink:href="#hd"/>
<path d="M378.00 574.00v-23.20" class="stroke"/>
<path class="fill"
	d="M398.90 591.50l44.30 4.70v-3.20l-44.30 -4.70"/>
<path class="fill"
	d="M424.80 589.30l18.10 1.90v-3.20l-18.10 -1.90"/>
<use x="402.70" y="568.00" xlink:href="#hd"/>
<path d="M399.20 568.00v22.50" class="stroke"/>
<use x="428.30" y="571.00" xlink:href="#hd"/>
<path d="M424.80 571.00v22.30" class="stroke"/>
<use x="446.40" y="574.00" xlink:href="#hd"/>
<path d="M442.90 574.00v21.20" class="stroke"/>
<path class="fill"
	d="M469.60 554.00l54.90 0.00v3.20l-54.90 -0.00"/>
<path class="fill"
	d="M470.00 559.00l54.20 0.00v3.20l-54.20 -0.00"/>
<use x="466.50" y="577.00" xlink:href="#hd"/>
<path d="M470.00 577.00v-22.00" class="stroke"/>
<use x="484.60" y="589.00" xlink:href="#hd"/>
<path d="M488.10 589.00v-34.00" class="stroke"/>
<use x="502.60" y="583.00" xlink:href="#hd"/>
<path d="M506.10 583.00v-28.00" class="stroke"/>
<use x="520.70" y="577.00" xlink:href="#hd"/>
<path d="M524.20 577.00v-22.00" class="stroke"/>
<path class="fill"
	d="M552.20 549.70l54.90 3.10v3.20l-54.90 -3.10"/>
<path class="fill"
	d="M588.60 556.80l18.10 1.00v3.20l-18.10 -1.00"/>
<use x="549.00" y="571.00" xlink:href="#hd"/>
<path d="M552.50 571.00v-20.30" class="stroke"/>
<use x="585.10" y="574.00" xlink:href="#hd"/>
<path d="M588.60 574.00v-21.20" class="stroke"/>
<use x="603.20" y="577.00" xlink:href="#hd"/>
<path d="M606.70 577.00v-23.20" class="stroke"/>
<path class="fill"
	d="M626.50 555.80l54.90 0.00v3.20l-54.90 -0.00"/>
<path class="fill"
	d="M626.80 560.80l54.20 0.00v3.20l-54.20 -0.00"/>
<use x="623.30" y="580.00" xlink:href="#hd"/>
<path d="M626.80 580.00v-23.20" class="stroke"/>
<use x="641.40" y="589.00" xlink:href="#hd"/>
<path d="M644.90 589.00v-32.20" class="stroke"/>
<use x="659.50" y="586.00" xlink:href="#hd"/>
<path d="M663.00 586.00v-29.20" class="stroke"/>
<use x="677.50" y="583.00" xlink:href="#hd"/>
<path d="M681.00 583.00v-26.20" class="stroke"/>
<use x="22.00" y="638.00" xlink:href="#tclef"/>
<use x="37.00" y="620.00" xlink:href="#sh0"/>
<use x="55.00" y="641.00" xlink:href="#hd"/>
<path d="M58.50 641.00v-21.00" class="stroke"/>
<path class="fill"
	d="M58.50 620.00c0.6 5.6 9.6 9 5.6 18.4
	1.6 -6 -1.3 -11.6 -5.6 -12.8
"/>
<use x="89.10" y="632.00" xlink:href="#hd"/>
<path d="M92.60 632.00v-21.00" class="stroke"/>
<use x="163.40" y="626.00" xlink:href="#hd"/>
<path d="M159.90 626.00v21.00" class="stroke"/>
<use x="245.90" y="632.00" xlink:href="#hd"/>
<path d="M242.40 632.00v21.00" class="stroke"/>
<path class="fill"
	d="M316.40 649.70l36.80 4.60v-3.20l-36.80 -4.60"/>
<path class="fill"
	d="M316.70 644.70l18.10 2.30v-3.20l-18.10 -2.30"/>
<use x="320.20" y="626.00" xlink:href="#hd"/>
<path d="M316.70 626.00v22.70" class="stroke"/>
<use x="338.30" y="629.00" xlink:href="#hd"/>
<path d="M334.80 629.00v22.00" class="stroke"/>
<use x="356.40" y="632.00" xlink:href="#hd"/>
<path d="M352.90 632.00v21.30" class="stroke"/>
<path class="fill"
	d="M405.90 614.50l44.30 -4.70v3.20l-44.30 4.70"/>
<path class="fill"
	d="M431.80 616.70l18.10 -1.90v3.20l-18.10 1.90"/>
<use x="402.70" y="638.00" xlink:href="#hd"/>
<path d="M406.20 638.00v-22.50" class="stroke"/>
<use x="428.30" y="635.00" xlink:href="#hd"/>
<path d="M431.80 635.00v-22.30" class="stroke"/>
<use x="446.40" y="632.00" xlink:href="#hd"/>
<path d="M449.90 632.00v-21.20" class="stroke"/>
<path class="fill"
	d="M462.60 651.90l54.90 0.00v-3.20l-54.90 -0.00"/>
<path class="fill"
	d="M463.00 646.90l54.20 0.00v-3.20l-54.20 -0.00"/>
<use x="466.50" y="629.00" xlink:href="#hd"/>
<path d="M463.00 629.00v22.00" class="stroke"/>
<use x="484.60" y="623.00" xlink:href="#hd"/>
<path d="M481.10 623.00v28.00" class="stroke"/>
<use x="502.60" y="626.00" xlink:href="#hd"/>
<path d="M499.10 626.00v25.00" class="stroke"/>
<use x="520.70" y="632.00" xlink:href="#hd"/>
<path d="M517.20 632.00v19.00" class="stroke"/>
<path class="fill"
	d="M552.20 612.10l54.90 0.00v3.20l-54.90 -0.00"/>
<path class="fill"
	d="M552.50 617.10l54.20 0.00v3.20l-54.20 -0.00"/>
<use x="549.00" y="635.00" xlink:href="#hd"/>
<path d="M552.50 635.00v-22.00" class="stroke"/>
<use x="567.10" y="641.00" xlink:href="#hd"/>
<path d="M570.60 641.00v-28.00" class="stroke"/>
<use x="585.10" y="638.00" xlink:href="#hd"/>
<path d="M588.60 638.00v-25.00" class="stroke"/>
<use x="603.20" y="635.00" xlink:href="#hd"/>
<path d="M606.70 635.00v-22.00" class="stroke"/>
<use x="623.30" y="632.00" xlink:href="#hd"/>
<path d="M626.80 632.00v-21.00" class="stroke"/>
</g>
<g stroke-width="0.70" style="font:italic 14.00px Times">
<path class="stroke" stroke-width="1"
	d="M10.00 772.00v-82.00"/>
<path class="stroke" stroke-width="1"
	d="M227.60 714.00v-24.00"/>
<path class="stroke" stroke-width="1"
	d="M227.60 772.00v-58.00"/>
<path class="stroke" stroke-width="1"
	d="M417.40 714.00v-24.00"/>
<path class="stroke" stroke-width="1"
	d="M417.40 772.00v-58.00"/>
<path class="stroke" stroke-width="1"
	d="M581.50 714.00v-24.00"/>
<path class="stroke" stroke-width="1"
	d="M581.50 772.00v-58.00"/>
<path class="stroke" stroke-width="1"
	d="M691.60 714.00v-24.00"/>
<path class="stroke" stroke-width="1"
	d="M688.60 714.00v-24.00"/>
<path class="stroke" stroke-width="1"
	d="M691.60 772.00v-58.00"/>
<path class="stroke" stroke-width="1"
	d="M688.60 772.00v-58.00"/>
<path d="m10.00 714.00
	h681.60
	M10.00 708.00
	h681.60
	M10.00 702.00
	h681.60
	M10.00 696.00
	h681.60
	M10.00 690.00
	h681.60
	" class="stroke"/>
<path d="m10.00 772.00
	h681.60
	M10.00 766.00
	h681.60
	M10.00 760.00
	h681.60
	M10.00 754.00
	h681.60
	M10.00 748.00
	h681.60
	" class="stroke"/>
<use x="22.00" y="708.00" xlink:href="#tclef"/>
<use x="37.00" y="690.00" xlink:href="#sh0"/>
<path class="fill"
	d="M58.20 682.00l66.30 0.00v3.20l-66.30 -0.00"/>
<path class="fill"
	d="M58.50 687.00l65.60 0.00v3.20l-65.60 -0.00"/>
<use x="55.00" y="708.00" xlink:href="#hd"/>
<path d="M58.50 708.00v-25.00" class="stroke"/>
<use x="76.90" y="717.00" xlink:href="#hd"/>
<path d="M80.40 717.00v-34.00" class="stroke"/>
<use x="98.80" y="708.00" xlink:href="#hd"/>
<path d="M102.30 708.00v-25.00" class="stroke"/>
<use x="120.60" y="705.00" xlink:href="#hd"/>
<path d="M124.10 705.00v-22.00" class="stroke"/>
<path class="fill"
	d="M148.10 677.80l66.30 0.00v3.20l-66.30 -0.00"/>
<path class="fill"
	d="M148.40 682.80l65.60 0.00v3.20l-65.60 -0.00"/>
<use x="144.90" y="702.00" xlink:href="#hd"/>
<path d="M148.40 702.00v-23.20" class="stroke"/>
<use x="166.80" y="717.00" xlink:href="#hd"/>
<path d="M170.30 717.00v-38.20" class="stroke"/>
<use x="188.70" y="708.00" xlink:href="#hd"/>
<path d="M192.20 708.00v-29.20" class="stroke"/>
<use x="210.60" y="702.00" xlink:href="#hd"/>
<path d="M214.10 702.00v-23.20" class="stroke"/>
<path class="fill"
	d="M240.90 722.00l66.30 0.00v-3.20l-66.30 -0.00"/>
<path class="fill"
	d="M241.30 717.00l65.60 0.00v-3.20l-65.60 -0.00"/>
<use x="244.80" y="696.00" xlink:href="#hd"/>
<path d="M241.30 696.00v25.00" class="stroke"/>
<use x="266.70" y="699.00" xlink:href="#hd"/>
<use x="257.70" y="699.00" xlink:href="#sh0"/>
<path d="M263.20 699.00v22.00" class="stroke"/>
<use x="288.50" y="693.00" xlink:href="#hd"/>
<path d="M285.00 693.00v28.00" class="stroke"/>
<use x="310.40" y="696.00" xlink:href="#hd"/>
<path d="M306.90 696.00v25.00" class="stroke"/>
<path class="fill"
	d="M337.90 677.80l66.30 0.00v3.20l-66.30 -0.00"/>
<path class="fill"
	d="M338.20 682.80l65.60 0.00v3.20l-65.60 -0.00"/>
<use x="334.70" y="702.00" xlink:href="#hd"/>
<path d="M338.20 702.00v-23.20" class="stroke"/>
<use x="356.60" y="717.00" xlink:href="#hd"/>
<path d="M360.10 717.00v-38.20" class="stroke"/>
<use x="378.50" y="708.00" xlink:href="#hd"/>
<path d="M382.00 708.00v-29.20" class="stroke"/>
<use x="400.30" y="702.00" xlink:href="#hd"/>
<path d="M403.80 702.00v-23.20" class="stroke"/>
<path class="fill"
	d="M430.70 722.80l53.50 4.40v-3.20l-53.50 -4.40"/>
<path class="fill"
	d="M462.00 720.40l21.90 1.80v-3.20l-21.90 -1.80"/>
<use x="434.60" y="696.00" xlink:href="#hd"/>
<path d="M431.10 696.00v25.80" class="stroke"/>
<use x="465.50" y="699.00" xlink:href="#hd"/>
<path d="M462.00 699.00v25.40" class="stroke"/>
<use x="487.40" y="705.00" xlink:href="#hd"/>
<path d="M483.90 705.00v21.20" class="stroke"/>
<path class="fill"
	d="M514.90 677.80l53.50 0.00v3.20l-53.50 -0.00"/>
<path class="fill"
	d="M546.10 682.80l21.90 0.00v3.20l-21.90 -0.00"/>
<use x="511.70" y="705.00" xlink:href="#hd"/>
<path d="M515.20 705.00v-26.20" class="stroke"/>
<use x="542.60" y="702.00" xlink:href="#hd"/>
<path d="M546.10 702.00v-23.20" class="stroke"/>
<use x="564.50" y="705.00" xlink:href="#hd"/>
<path d="M568.00 705.00v-26.20" class="stroke"/>
<use x="598.70" y="717.00" xlink:href="#hd"/>
<circle class="fill" cx="606.40" cy="717.00" r="1.2"/>
<path d="M602.20 717.00v-21.00" class="stroke"/>
<use x="22.00" y="766.00" xlink:href="#tclef"/>
<use x="37.00" y="748.00" xlink:href="#sh0"/>
<use x="55.00" y="760.00" xlink:href="#hd"/>
<path d="M58.50 760.00v-21.00" class="stroke"/>
<use x="144.90" y="775.00" xlink:href="#hd"/>
<path d="M148.40 775.00v-21.00" class="stroke"/>
<use x="244.80" y="760.00" xlink:href="#hd"/>
<path d="M248.30 760.00v-21.00" class="stroke"/>
<path class="fill"
	d="M330.90 777.60l44.40 4.80v-3.20l-44.40 -4.80"/>
<path class="fill"
	d="M331.20 772.60l21.90 2.40v-3.20l-21.90 -2.40"/>
<use x="334.70" y="754.00" xlink:href="#hd"/>
<path d="M331.20 754.00v22.60" class="stroke"/>
<use x="356.60" y="757.00" xlink:href="#hd"/>
<path d="M353.10 757.00v22.00" class="stroke"/>
<use x="378.50" y="760.00" xlink:href="#hd"/>
<path d="M375.00 760.00v21.40" class="stroke"/>
<path class="fill"
	d="M437.70 742.70l53.50 -4.90v3.20l-53.50 4.90"/>
<path class="fill"
	d="M469.00 744.80l21.90 -2.00v3.20l-21.90 2.00"/>
<use x="434.60" y="766.00" xlink:href="#hd"/>
<path d="M438.10 766.00v-22.30" class="stroke"/>
<use x="465.50" y="763.00" xlink:href="#hd"/>
<path d="M469.00 763.00v-22.20" class="stroke"/>
<use x="487.40" y="760.00" xlink:href="#hd"/>
<path d="M490.90 760.00v-21.20" class="stroke"/>
<use x="511.70" y="754.00" xlink:href="#hd"/>
<path d="M508.20 754.00v21.00" class="stroke"/>
<path class="fill"
	d="M594.90 775.20l31.60 2.60v-3.20l-31.60 -2.60"/>
<use x="598.70" y="754.00" xlink:href="#hd"/>
<path d="M595.20 754.00v20.20" class="stroke"/>
<use x="629.70" y="757.00" xlink:href="#hd"/>
<path d="M626.20 757.00v19.80" class="stroke"/>
<use x="664.10" y="760.00" xlink:href="#hd"/>
<path d="M660.60 760.00v21.00" class="stroke"/>
<path class="fill"
	d="M660.60 781.00c0.6 -5.6 9.6 -9 5.6 -18.4
	1.6 6 -1.3 11.6 -5.6 12.8
"/>
</g>
<g stroke-width="0.70" style="font:italic 14.00px Times">
<path class="stroke" stroke-width="1"
	d="M10.00 900.00v-82.00"/>
<path class="stroke" stroke-width="1"
	d="M75.60 842.00v-24.00"/>
<path class="stroke" stroke-width="1"
	d="M75.60 900.00v-58.00"/>
<path class="stroke" stroke-width="1"
	d="M227.40 842.00v-24.00"/>
<path class="stroke" stroke-width="1"
	d="M227.40 900.00v-58.00"/>
<path class="stroke" stroke-width="1"
	d="M379.20 842.00v-24.00"/>
<path class="stroke" stroke-width="1"
	d="M379.20 900.00v-58.00"/>
<path class="stroke" stroke-width="1"
	d="M530.90 842.00v-24.00"/>
<path class="stroke" stroke-width="1"
	d="M530.90 900.00v-58.00"/>
<path class="stroke" stroke-width="1"
	d="M691.60 842.00v-24.00"/>
<path class="stroke" stroke-width="1"
	d="M691.60 900.00v-58.00"/>
<path d="m10.00 842.00
	h681.60
	M10.00 836.00
	h681.60
	M10.00 830.00
	h681.60
	M10.00 824.00
	h681.60
	M10.00 818.00
	h681.60
	" class="stroke"/>
<path d="m10.00 900.00
	h681.60
	M10.00 894.00
	h681.60
	M10.00 888.00
	h681.60
	M10.00 882.00
	h681.60
	M10.00 876.00
	h681.60
	" class="stroke"/>
<use x="22.00" y="836.00" xlink:href="#tclef"/>
<use x="37.00" y="818.00" xlink:href="#sh0"/>
<use x="55.00" y="845.00" xlink:href="#hd"/>
<path d="M58.50 845.00v-21.00" class="stroke"/>
<path class="fill"
	d="M58.50 824.00c0.6 5.6 9.6 9 5.6 18.4
	1.6 -6 -1.3 -11.6 -5.6 -12.8
"/>
<path class="fill"
	d="M86.60 847.50l46.00 4.80v-3.20l-46.00 -4.80"/>
<path class="fill"
	d="M113.40 845.30l18.80 1.90v-3.20l-18.80 -1.90"/>
<use x="90.40" y="824.00" xlink:href="#hd"/>
<path d="M86.90 824.00v22.50" class="stroke"/>
<use x="116.90" y="827.00" xlink:href="#hd"/>
<path d="M113.40 827.00v22.30" class="stroke"/>
<use x="135.70" y="830.00" xlink:href="#hd"/>
<path d="M132.20 830.00v21.20" class="stroke"/>
<path class="fill"
	d="M159.70 810.00l57.00 0.00v3.20l-57.00 -0.00"/>
<path class="fill"
	d="M160.00 815.00l56.30 0.00v3.20l-56.30 -0.00"/>
<use x="156.50" y="833.00" xlink:href="#hd"/>
<path d="M160.00 833.00v-22.00" class="stroke"/>
<use x="175.30" y="845.00" xlink:href="#hd"/>
<path d="M178.80 845.00v-34.00" class="stroke"/>
<use x="194.10" y="839.00" xlink:href="#hd"/>
<path d="M197.60 839.00v-28.00" class="stroke"/>
<use x="212.80" y="833.00" xlink:href="#hd"/>
<path d="M216.30 833.00v-22.00" class="stroke"/>
<path class="fill"
	d="M245.30 805.00l46.00 4.80v3.20l-46.00 -4.80"/>
<path class="fill"
	d="M272.20 812.80l18.80 1.90v3.20l-18.80 -1.90"/>
<use x="242.20" y="827.00" xlink:href="#hd"/>
<path d="M245.70 827.00v-21.00" class="stroke"/>
<use x="268.70" y="830.00" xlink:href="#hd"/>
<path d="M272.20 830.00v-21.20" class="stroke"/>
<use x="287.50" y="833.00" xlink:href="#hd"/>
<path d="M291.00 833.00v-22.30" class="stroke"/>
<path class="fill"
	d="M311.50 812.00l57.00 -4.20v3.20l-57.00 4.20"/>
<path class="fill"
	d="M311.80 816.90l56.30 -4.10v3.20l-56.30 4.10"/>
<use x="308.30" y="836.00" xlink:href="#hd"/>
<path d="M311.80 836.00v-23.10" class="stroke"/>
<use x="327.10" y="845.00" xlink:href="#hd"/>
<path d="M330.60 845.00v-33.40" class="stroke"/>
<use x="345.80" y="836.00" xlink:href="#hd"/>
<path d="M349.30 836.00v-25.80" class="stroke"/>
<use x="364.60" y="830.00" xlink:href="#hd"/>
<path d="M368.10 830.00v-21.20" class="stroke"/>
<path class="fill"
	d="M390.10 847.50l46.00 4.80v-3.20l-46.00 -4.80"/>
<path class="fill"
	d="M417.00 845.30l18.80 1.90v-3.20l-18.80 -1.90"/>
<use x="393.90" y="824.00" xlink:href="#hd"/>
<path d="M390.40 824.00v22.50" class="stroke"/>
<use x="420.50" y="827.00" xlink:href="#hd"/>
<path d="M417.00 827.00v22.30" class="stroke"/>
<use x="439.20" y="830.00" xlink:href="#hd"/>
<path d="M435.70 830.00v21.20" class="stroke"/>
<path class="fill"
	d="M463.20 810.00l57.00 0.00v3.20l-57.00 -0.00"/>
<path class="fill"
	d="M463.60 815.00l56.30 0.00v3.20l-56.30 -0.00"/>
<use x="460.10" y="833.00" xlink:href="#hd"/>
<path d="M463.60 833.00v-22.00" class="stroke"/>
<use x="478.80" y="845.00" xlink:href="#hd"/>
<path d="M482.30 845.00v-34.00" class="stroke"/>
<use x="497.60" y="839.00" xlink:href="#hd"/>
<path d="M501.10 839.00v-28.00" class="stroke"/>
<use x="516.40" y="833.00" xlink:href="#hd"/>
<path d="M519.90 833.00v-22.00" class="stroke"/>
<path class="fill"
	d="M541.90 844.00l57.00 0.00v-3.20l-57.00 -0.00"/>
<path class="fill"
	d="M579.70 839.00l18.80 0.00v-3.20l-18.80 -0.00"/>
<use x="545.70" y="821.00" xlink:href="#hd"/>
<path d="M542.20 821.00v22.00" class="stroke"/>
<use x="583.20" y="821.00" xlink:href="#hd"/>
<path d="M579.70 821.00v22.00" class="stroke"/>
<use x="602.00" y="824.00" xlink:href="#hd"/>
<path d="M598.50 824.00v19.00" class="stroke"/>
<path class="fill"
	d="M623.90 810.50l57.00 9.90v3.20l-57.00 -9.90"/>
<path class="fill"
	d="M673.50 824.20l7.00 1.20v3.20l-7.00 -1.20"/>
<use x="620.70" y="830.00" xlink:href="#hd"/>
<circle class="fill" cx="628.40" cy="827.00" r="1.2"/>
<path d="M624.20 830.00v-18.40" class="stroke"/>
<use x="677.00" y="845.00" xlink:href="#hd"/>
<path d="M680.50 845.00v-23.60" class="stroke"/>
<use x="22.00" y="894.00" xlink:href="#tclef"/>
<use x="37.00" y="876.00" xlink:href="#sh0"/>
<use x="55.00" y="897.00" xlink:href="#hd"/>
<path d="M58.50 897.00v-21.00" class="stroke"/>
<path class="fill"
	d="M58.50 876.00c0.6 5.6 9.6 9 5.6 18.4
	1.6 -6 -1.3 -11.6 -5.6 -12.8
"/>
<path class="fill"
	d="M93.60 879.50l46.00 -4.80v3.20l-46.00 4.80"/>
<path class="fill"
	d="M120.40 881.70l18.80 -1.90v3.20l-18.80 1.90"/>
<use x="90.40" y="903.00" xlink:href="#hd"/>
<path d="M93.90 903.00v-22.50" class="stroke"/>
<use x="116.90" y="900.00" xlink:href="#hd"/>
<path d="M120.40 900.00v-22.30" class="stroke"/>
<use x="135.70" y="897.00" xlink:href="#hd"/>
<path d="M139.20 897.00v-21.20" class="stroke"/>
<path class="fill"
	d="M152.70 905.80l38.20 -2.60v-3.20l-38.20 2.60"/>
<use x="156.50" y="885.00" xlink:href="#hd"/>
<path d="M153.00 885.00v19.80" class="stroke"/>
<use x="194.10" y="882.00" xlink:href="#hd"/>
<path d="M190.60 882.00v20.20" class="stroke"/>
<path class="fill"
	d="M238.30 902.50l46.00 4.80v-3.20l-46.00 -4.80"/>
<path class="fill"
	d="M265.20 900.30l18.80 1.90v-3.20l-18.80 -1.90"/>
<use x="242.20" y="879.00" xlink:href="#hd"/>
<path d="M238.70 879.00v22.50" class="stroke"/>
<use x="268.70" y="882.00" xlink:href="#hd"/>
<path d="M265.20 882.00v22.30" class="stroke"/>
<use x="287.50" y="885.00" xlink:href="#hd"/>
<path d="M284.00 885.00v21.20" class="stroke"/>
<path class="fill"
	d="M304.50 911.00l57.00 0.00v-3.20l-57.00 -0.00"/>
<path class="fill"
	d="M354.10 906.00l7.00 0.00v-3.20l-7.00 -0.00"/>
<use x="308.30" y="888.00" xlink:href="#hd"/>
<circle class="fill" cx="316.00" cy="885.00" r="1.2"/>
<path d="M304.80 888.00v22.00" class="stroke"/>
<use x="364.60" y="888.00" xlink:href="#hd"/>
<path d="M361.10 888.00v22.00" class="stroke"/>
<path class="fill"
	d="M397.10 866.00l46.00 4.80v3.20l-46.00 -4.80"/>
<path class="fill"
	d="M424.00 873.80l18.80 1.90v3.20l-18.80 -1.90"/>
<use x="393.90" y="888.00" xlink:href="#hd"/>
<path d="M397.40 888.00v-21.00" class="stroke"/>
<use x="420.50" y="891.00" xlink:href="#hd"/>
<path d="M424.00 891.00v-21.20" class="stroke"/>
<use x="439.20" y="894.00" xlink:href="#hd"/>
<path d="M442.70 894.00v-22.30" class="stroke"/>
<path class="fill"
	d="M463.20 868.40l57.00 -5.60v3.20l-57.00 5.60"/>
<path class="fill"
	d="M501.10 869.70l18.80 -1.90v3.20l-18.80 1.90"/>
<use x="460.10" y="897.00" xlink:href="#hd"/>
<path d="M463.60 897.00v-27.60" class="stroke"/>
<use x="497.60" y="891.00" xlink:href="#hd"/>
<path d="M501.10 891.00v-25.30" class="stroke"/>
<use x="516.40" y="885.00" xlink:href="#hd"/>
<path d="M519.90 885.00v-21.20" class="stroke"/>
<path class="fill"
	d="M548.90 862.80l38.20 0.00v3.20l-38.20 -0.00"/>
<path class="fill"
	d="M549.20 867.80l18.80 0.00v3.20l-18.80 -0.00"/>
<use x="545.70" y="885.00" xlink:href="#hd"/>
<path d="M549.20 885.00v-21.20" class="stroke"/>
<use x="564.50" y="891.00" xlink:href="#hd"/>
<path d="M568.00 891.00v-27.20" class="stroke"/>
<use x="583.20" y="888.00" xlink:href="#hd"/>
<path d="M586.70 888.00v-24.20" class="stroke"/>
<path class="fill"
	d="M623.90 871.80l57.00 3.80v3.20l-57.00 -3.80"/>
<path class="fill"
	d="M624.20 876.80l56.30 3.70v3.20l-56.30 -3.70"/>
<use x="620.70" y="894.00" xlink:href="#hd"/>
<path d="M624.20 894.00v-21.20" class="stroke"/>
<use x="639.50" y="900.00" xlink:href="#hd"/>
<path d="M643.00 900.00v-26.00" class="stroke"/>
<use x="658.20" y="897.00" xlink:href="#hd"/>
<path d="M661.70 897.00v-21.70" class="stroke"/>
<use x="677.00" y="903.00" xlink:href="#hd"/>
<path d="M680.50 903.00v-26.50" class="stroke"/>
</g>
<g stroke-width="0.70" style="font:italic 14.00px Times">
<path class="stroke" stroke-width="1"
	d="M10.00 1028.00v-82.00"/>
<path class="stroke" stroke-width="1"
	d="M220.90 970.00v-24.00"/>
<path class="stroke" stroke-width="1"
	d="M220.90 1028.00v-58.00"/>
<path class="stroke" stroke-width="1"
	d="M403.40 970.00v-24.00"/>
<path class="stroke" stroke-width="1"
	d="M403.40 1028.00v-58.00"/>
<path class="stroke" stroke-width="1"
	d="M573.50 970.00v-24.00"/>
<path class="stroke" stroke-width="1"
	d="M573.50 1028.00v-58.00"/>
<path class="stroke" stroke-width="3"
	d="M690.10 970.00v-24.00"/>
<path class="stroke" stroke-width="1"
	d="M685.60 970.00v-24.00"/>
<path class="stroke" stroke-width="3"
	d="M690.10 1028.00v-58.00"/>
<path class="stroke" stroke-width="1"
	d="M685.60 1028.00v-58.00"/>
<path d="m10.00 970.00
	h681.60
	M10.00 964.00
	h681.60
	M10.00 958.00
	h681.60
	M10.00 952.00
	h681.60
	M10.00 946.00
	h681.60
	" class="stroke"/>
<path d="m10.00 1028.00
	h681.60
	M10.00 1022.00
	h681.60
	M10.00 1016.00
	h681.60
	M10.00 1010.00
	h681.60
	M10.00 1004.00
	h681.60
	" class="stroke"/>
<use x="22.00" y="964.00" xlink:href="#tclef"/>
<use x="37.00" y="946.00" xlink:href="#sh0"/>
<path class="fill"
	d="M58.20 938.00l63.80 0.00v3.20l-63.80 -0.00"/>
<path class="fill"
	d="M58.50 943.00l63.10 0.00v3.20l-63.10 -0.00"/>
<use x="55.00" y="964.00" xlink:href="#hd"/>
<path d="M58.50 964.00v-25.00" class="stroke"/>
<use x="76.00" y="973.00" xlink:href="#hd"/>
<path d="M79.50 973.00v-34.00" class="stroke"/>
<use x="97.10" y="964.00" xlink:href="#hd"/>
<path d="M100.60 964.00v-25.00" class="stroke"/>
<use x="118.10" y="961.00" xlink:href="#hd"/>
<path d="M121.60 961.00v-22.00" class="stroke"/>
<path class="fill"
	d="M144.60 933.80l63.80 0.00v3.20l-63.80 -0.00"/>
<path class="fill"
	d="M145.00 938.80l63.10 0.00v3.20l-63.10 -0.00"/>
<use x="141.50" y="958.00" xlink:href="#hd"/>
<path d="M145.00 958.00v-23.20" class="stroke"/>
<use x="162.50" y="973.00" xlink:href="#hd"/>
<path d="M166.00 973.00v-38.20" class="stroke"/>
<use x="183.50" y="964.00" xlink:href="#hd"/>
<path d="M187.00 964.00v-29.20" class="stroke"/>
<use x="204.60" y="958.00" xlink:href="#hd"/>
<path d="M208.10 958.00v-23.20" class="stroke"/>
<path class="fill"
	d="M233.60 978.00l63.80 0.00v-3.20l-63.80 -0.00"/>
<path class="fill"
	d="M233.90 973.00l63.10 0.00v-3.20l-63.10 -0.00"/>
<use x="237.40" y="952.00" xlink:href="#hd"/>
<path d="M233.90 952.00v25.00" class="stroke"/>
<use x="258.50" y="955.00" xlink:href="#hd"/>
<use x="249.50" y="955.00" xlink:href="#sh0"/>
<path d="M255.00 955.00v22.00" class="stroke"/>
<use x="279.50" y="949.00" xlink:href="#hd"/>
<path d="M276.00 949.00v28.00" class="stroke"/>
<use x="300.50" y="952.00" xlink:href="#hd"/>
<path d="M297.00 952.00v25.00" class="stroke"/>
<path class="fill"
	d="M327.10 933.80l63.80 0.00v3.20l-63.80 -0.00"/>
<path class="fill"
	d="M327.40 938.80l63.10 0.00v3.20l-63.10 -0.00"/>
<use x="323.90" y="958.00" xlink:href="#hd"/>
<path d="M327.40 958.00v-23.20" class="stroke"/>
<use x="344.90" y="973.00" xlink:href="#hd"/>
<path d="M348.40 973.00v-38.20" class="stroke"/>
<use x="366.00" y="964.00" xlink:href="#hd"/>
<path d="M369.50 964.00v-29.20" class="stroke"/>
<use x="387.00" y="958.00" xlink:href="#hd"/>
<path d="M390.50 958.00v-23.20" class="stroke"/>
<path class="fill"
	d="M416.00 975.40l51.50 4.90v-3.20l-51.50 -4.90"/>
<path class="fill"
	d="M446.10 973.30l21.00 2.00v-3.20l-21.00 -2.00"/>
<use x="419.90" y="952.00" xlink:href="#hd"/>
<path d="M416.40 952.00v22.50" class="stroke"/>
<use x="449.60" y="955.00" xlink:href="#hd"/>
<path d="M446.10 955.00v22.30" class="stroke"/>
<use x="470.70" y="958.00" xlink:href="#hd"/>
<path d="M467.20 958.00v21.30" class="stroke"/>
<path class="fill"
	d="M497.20 933.80l63.80 0.00v3.20l-63.80 -0.00"/>
<path class="fill"
	d="M497.50 938.80l63.10 0.00v3.20l-63.10 -0.00"/>
<use x="494.00" y="961.00" xlink:href="#hd"/>
<path d="M497.50 961.00v-26.20" class="stroke"/>
<use x="515.10" y="973.00" xlink:href="#hd"/>
<path d="M518.60 973.00v-38.20" class="stroke"/>
<use x="536.10" y="958.00" xlink:href="#hd"/>
<path d="M539.60 958.00v-23.20" class="stroke"/>
<use x="557.10" y="961.00" xlink:href="#hd"/>
<path d="M560.60 961.00v-26.20" class="stroke"/>
<use x="590.00" y="964.00" xlink:href="#hd"/>
<circle class="fill" cx="597.70" cy="961.00" r="1.2"/>
<path d="M593.50 964.00v-21.00" class="stroke"/>
<use x="22.00" y="1022.00" xlink:href="#tclef"/>
<use x="37.00" y="1004.00" xlink:href="#sh0"/>
<use x="55.00" y="1016.00" xlink:href="#hd"/>
<path d="M58.50 1016.00v-21.00" class="stroke"/>
<use x="141.50" y="1010.00" xlink:href="#hd"/>
<path d="M138.00 1010.00v21.00" class="stroke"/>
<use x="237.40" y="1016.00" xlink:href="#hd"/>
<path d="M233.90 1016.00v21.00" class="stroke"/>
<path class="fill"
	d="M320.10 1033.60l42.70 4.70v-3.20l-42.70 -4.70"/>
<path class="fill"
	d="M320.40 1028.70l21.00 2.30v-3.20l-21.00 -2.30"/>
<use x="323.90" y="1010.00" xlink:href="#hd"/>
<path d="M320.40 1010.00v22.70" class="stroke"/>
<use x="344.90" y="1013.00" xlink:href="#hd"/>
<path d="M341.40 1013.00v22.00" class="stroke"/>
<use x="366.00" y="1016.00" xlink:href="#hd"/>
<path d="M362.50 1016.00v21.30" class="stroke"/>
<path class="fill"
	d="M423.00 998.60l51.50 -4.90v3.20l-51.50 4.90"/>
<path class="fill"
	d="M453.10 1000.80l21.00 -2.00v3.20l-21.00 2.00"/>
<use x="419.90" y="1022.00" xlink:href="#hd"/>
<path d="M423.40 1022.00v-22.40" class="stroke"/>
<use x="449.60" y="1019.00" xlink:href="#hd"/>
<path d="M453.10 1019.00v-22.20" class="stroke"/>
<use x="470.70" y="1016.00" xlink:href="#hd"/>
<path d="M474.20 1016.00v-21.20" class="stroke"/>
<use x="494.00" y="1010.00" xlink:href="#hd"/>
<path d="M490.50 1010.00v21.00" class="stroke"/>
<path class="fill"
	d="M586.20 1035.90l42.70 0.00v-3.20l-42.70 -0.00"/>
<path class="fill"
	d="M586.50 1030.90l21.00 0.00v-3.20l-21.00 -0.00"/>
<use x="590.00" y="1010.00" xlink:href="#hd"/>
<path d="M586.50 1010.00v25.00" class="stroke"/>
<use x="611.10" y="1016.00" xlink:href="#hd"/>
<path d="M607.60 1016.00v19.00" class="stroke"/>
<use x="632.10" y="1013.00" xlink:href="#hd"/>
<path d="M628.60 1013.00v22.00" class="stroke"/>
<use x="665.10" y="1010.00" xlink:href="#hd"/>
<path d="M661.60 1010.00v21.00" class="stroke"/>
<path class="fill"
	d="M661.60 1031.00c0.6 -5.6 9.6 -9 5.6 -18.4
	1.6 6 -1.3 11.6 -5.6 12.8
"/>
</g>
</svg>
