<?xml version="1.0" standalone="no"?>
<!DOCTYPE svg PUBLIC "-//W3C//DTD SVG 1.1//EN"
	"http://www.w3.org/Graphics/SVG/1.1/DTD/svg11.dtd">
<svg xmlns="http://www.w3.org/2000/svg" version="1.1"
	xmlns:xlink="http://www.w3.org/1999/xlink"
	color="black"
	width="701.60px" height="292.00px">
<style type="text/css">
.fill {fill: currentColor}
.stroke {stroke: currentColor; fill: none}
text{white-space: pre}
</style>
<title>/mnt/ed617834-7c4b-4156-8731-6c17b22f12c7/tims_code/sphinx-tunes/source/ (1) tune 1</title>
<!-- Creator: abcm2ps-8.14.6 -->
<!-- CreationDate: Jul 31, 2021 22:34 -->
<!-- CommandLine: -g /mnt/ed617834-7c4b-4156-8731-6c17b22f12c7/tims_code/sphinx-tunes/source/_abcfiles/_Cavehill.abc -O /mnt/ed617834-7c4b-4156-8731-6c17b22f12c7/tims_code/sphinx-tunes/source/_abcfiles/Cavehill.svg -->
<g stroke-width="0.70">
<path class="stroke" stroke-width="1"
	d="M212.60 59.00v-24.00"/>
<path class="stroke" stroke-width="1"
	d="M379.70 59.00v-24.00"/>
<path class="stroke" stroke-width="1"
	d="M535.60 59.00v-24.00"/>
<path class="stroke" stroke-width="1"
	d="M691.60 59.00v-24.00"/>
<path d="m10.00 59.00
	h681.60
	M10.00 53.00
	h681.60
	M10.00 47.00
	h681.60
	M10.00 41.00
	h681.60
	M10.00 35.00
	h681.60
	" class="stroke"/>
<defs>
<path id="utclef" class="fill" d="m-50 -90
	c-72 -41 -72 -158 52 -188
	150 -10 220 188 90 256
	-114 52 -275 0 -293 -136
	-15 -181 93 -229 220 -334
	88 -87 79 -133 62 -210
	-51 33 -94 105 -89 186
	17 267 36 374 49 574
	6 96 -19 134 -77 135
	-80 1 -126 -93 -61 -133
	85 -41 133 101 31 105
	23 17 92 37 90 -92
	-10 -223 -39 -342 -50 -617
	0 -90 0 -162 96 -232
	56 72 63 230 22 289
	-74 106 -257 168 -255 316
	9 153 148 185 252 133
	86 -65 29 -192 -80 -176
	-71 12 -105 67 -59 124"/>
<use id="tclef" transform="translate(0,6) scale(0.045)"
	xlink:href="#utclef"/>
</defs>
<use x="22.00" y="53.00" xlink:href="#tclef"/>
<defs>
<path id="usharp" class="fill" d="
	m136 -702
	v890
	h32
	v-890
	m128 840
	h32
	v-888
	h-32
	m-232 286
	v116
	l338 -96
	v-116
	m-338 442
	v116
	l338 -98
	v-114"/>
<use id="sh0" transform="translate(-4,5) scale(0.018)"
	xlink:href="#usharp"/>
</defs>
<use x="37.00" y="35.00" xlink:href="#sh0"/>
<g style="font:bold 16px serif"
	transform="translate(53.00,58.50) scale(1.2,1)">
	<text text-anchor="middle">8</text>
	<text y="-12" text-anchor="middle">6</text>
</g>
<defs>
<ellipse id="hd" rx="4.1" ry="2.9"
	transform="rotate(-20)" class="fill"/>
</defs>
<use x="71.00" y="41.00" xlink:href="#hd"/>
<path d="M67.50 41.00v21.00" class="stroke"/>
<use x="111.70" y="47.00" xlink:href="#hd"/>
<path d="M108.20 47.00v21.00" class="stroke"/>
<path class="fill"
	d="M108.20 68.00c0.6 -5.6 9.6 -9 5.6 -18.4
	1.6 6 -1.3 11.6 -5.6 12.8
"/>
<path class="fill"
	d="M136.70 67.00l52.50 0.00v-3.20l-52.50 -0.00"/>
<use x="140.50" y="47.00" xlink:href="#hd"/>
<path d="M137.00 47.00v19.00" class="stroke"/>
<use x="166.50" y="44.00" xlink:href="#hd"/>
<path d="M163.00 44.00v22.00" class="stroke"/>
<use x="192.40" y="47.00" xlink:href="#hd"/>
<path d="M188.90 47.00v19.00" class="stroke"/>
<path class="fill"
	d="M223.10 61.50l52.50 -4.90v-3.20l-52.50 4.90"/>
<use x="227.00" y="41.00" xlink:href="#hd"/>
<path d="M223.50 41.00v19.40" class="stroke"/>
<use x="252.90" y="38.00" xlink:href="#hd"/>
<path d="M249.40 38.00v20.00" class="stroke"/>
<use x="278.80" y="35.00" xlink:href="#hd"/>
<path d="M275.30 35.00v20.60" class="stroke"/>
<path class="fill"
	d="M303.80 53.50l52.50 4.90v-3.20l-52.50 -4.90"/>
<use x="307.60" y="32.00" xlink:href="#hd"/>
<path d="M304.10 32.00v20.60" class="stroke"/>
<use x="333.60" y="35.00" xlink:href="#hd"/>
<path d="M330.10 35.00v20.00" class="stroke"/>
<use x="359.50" y="38.00" xlink:href="#hd"/>
<path d="M356.00 38.00v19.40" class="stroke"/>
<use x="394.10" y="41.00" xlink:href="#hd"/>
<path d="M390.60 41.00v21.00" class="stroke"/>
<use x="434.80" y="47.00" xlink:href="#hd"/>
<path d="M431.30 47.00v21.00" class="stroke"/>
<path class="fill"
	d="M431.30 68.00c0.6 -5.6 9.6 -9 5.6 -18.4
	1.6 6 -1.3 11.6 -5.6 12.8
"/>
<path class="fill"
	d="M459.80 67.00l52.50 0.00v-3.20l-52.50 -0.00"/>
<use x="463.60" y="47.00" xlink:href="#hd"/>
<path d="M460.10 47.00v19.00" class="stroke"/>
<use x="489.50" y="44.00" xlink:href="#hd"/>
<path d="M486.00 44.00v22.00" class="stroke"/>
<use x="515.50" y="47.00" xlink:href="#hd"/>
<path d="M512.00 47.00v19.00" class="stroke"/>
<use x="550.00" y="50.00" xlink:href="#hd"/>
<path d="M553.50 50.00v-21.00" class="stroke"/>
<use x="590.80" y="47.00" xlink:href="#hd"/>
<path d="M594.30 47.00v-21.00" class="stroke"/>
<path class="fill"
	d="M594.30 26.00c0.6 5.6 9.6 9 5.6 18.4
	1.6 -6 -1.3 -11.6 -5.6 -12.8
"/>
<path class="fill"
	d="M622.70 23.50l52.50 4.90v3.20l-52.50 -4.90"/>
<use x="619.60" y="44.00" xlink:href="#hd"/>
<path d="M623.10 44.00v-19.40" class="stroke"/>
<use x="645.50" y="47.00" xlink:href="#hd"/>
<path d="M649.00 47.00v-20.00" class="stroke"/>
<use x="671.40" y="50.00" xlink:href="#hd"/>
<path d="M674.90 50.00v-20.60" class="stroke"/>
</g>
<g stroke-width="0.70">
<path class="stroke" stroke-width="1"
	d="M212.90 129.00v-24.00"/>
<path class="stroke" stroke-width="1"
	d="M399.30 129.00v-24.00"/>
<path class="stroke" stroke-width="1"
	d="M582.50 129.00v-24.00"/>
<path class="stroke" stroke-width="3"
	d="M690.10 129.00v-24.00"/>
<path class="stroke" stroke-width="1"
	d="M685.60 129.00v-24.00"/>
<defs>
<g id="rdots" class="fill">
	<circle cx="0" cy="-9" r="1.2"/>
	<circle cx="0" cy="-15" r="1.2"/>
</g>
</defs>
<use x="681.60" y="129.00" xlink:href="#rdots"/>
<path d="m10.00 129.00
	h681.60
	M10.00 123.00
	h681.60
	M10.00 117.00
	h681.60
	M10.00 111.00
	h681.60
	M10.00 105.00
	h681.60
	" class="stroke"/>
<use x="22.00" y="123.00" xlink:href="#tclef"/>
<use x="37.00" y="105.00" xlink:href="#sh0"/>
<use x="55.00" y="111.00" xlink:href="#hd"/>
<path d="M51.50 111.00v21.00" class="stroke"/>
<use x="100.40" y="117.00" xlink:href="#hd"/>
<path d="M96.90 117.00v21.00" class="stroke"/>
<path class="fill"
	d="M96.90 138.00c0.6 -5.6 9.6 -9 5.6 -18.4
	1.6 6 -1.3 11.6 -5.6 12.8
"/>
<path class="fill"
	d="M128.70 137.00l58.50 0.00v-3.20l-58.50 -0.00"/>
<use x="132.60" y="117.00" xlink:href="#hd"/>
<path d="M129.10 117.00v19.00" class="stroke"/>
<use x="161.50" y="114.00" xlink:href="#hd"/>
<path d="M158.00 114.00v22.00" class="stroke"/>
<use x="190.40" y="117.00" xlink:href="#hd"/>
<path d="M186.90 117.00v19.00" class="stroke"/>
<path class="fill"
	d="M225.10 131.50l58.50 -5.00v-3.20l-58.50 5.00"/>
<use x="229.00" y="111.00" xlink:href="#hd"/>
<path d="M225.50 111.00v19.50" class="stroke"/>
<use x="257.90" y="108.00" xlink:href="#hd"/>
<path d="M254.40 108.00v20.00" class="stroke"/>
<use x="286.80" y="105.00" xlink:href="#hd"/>
<path d="M283.30 105.00v20.50" class="stroke"/>
<path class="fill"
	d="M315.10 123.50l58.50 5.00v-3.20l-58.50 -5.00"/>
<use x="318.90" y="102.00" xlink:href="#hd"/>
<path d="M315.40 102.00v20.50" class="stroke"/>
<use x="347.90" y="105.00" xlink:href="#hd"/>
<path d="M344.40 105.00v20.00" class="stroke"/>
<use x="376.80" y="108.00" xlink:href="#hd"/>
<path d="M373.30 108.00v19.50" class="stroke"/>
<path class="fill"
	d="M411.50 133.70l58.50 8.60v-3.20l-58.50 -8.60"/>
<use x="415.40" y="111.00" xlink:href="#hd"/>
<path d="M411.90 111.00v21.80" class="stroke"/>
<use x="444.30" y="117.00" xlink:href="#hd"/>
<path d="M440.80 117.00v20.00" class="stroke"/>
<use x="473.20" y="123.00" xlink:href="#hd"/>
<path d="M469.70 123.00v18.20" class="stroke"/>
<path class="fill"
	d="M505.30 110.50l58.50 -5.00v3.20l-58.50 5.00"/>
<use x="502.10" y="132.00" xlink:href="#hd"/>
<path d="M505.60 132.00v-20.50" class="stroke"/>
<use x="531.00" y="129.00" xlink:href="#hd"/>
<path d="M534.50 129.00v-20.00" class="stroke"/>
<use x="560.00" y="126.00" xlink:href="#hd"/>
<path d="M563.50 126.00v-19.50" class="stroke"/>
<use x="598.50" y="123.00" xlink:href="#hd"/>
<circle class="fill" cx="606.20" cy="120.00" r="1.2"/>
<path d="M602.00 123.00v-21.00" class="stroke"/>
<use x="650.20" y="123.00" xlink:href="#hd"/>
<circle class="fill" cx="657.90" cy="120.00" r="1.2"/>
<path d="M653.70 123.00v-21.00" class="stroke"/>
</g>
<g stroke-width="0.70">
<path class="stroke" stroke-width="1"
	d="M200.20 199.00v-24.00"/>
<path class="stroke" stroke-width="1"
	d="M360.20 199.00v-24.00"/>
<path class="stroke" stroke-width="1"
	d="M520.20 199.00v-24.00"/>
<path class="stroke" stroke-width="1"
	d="M691.60 199.00v-24.00"/>
<path d="m10.00 199.00
	h681.60
	M10.00 193.00
	h681.60
	M10.00 187.00
	h681.60
	M10.00 181.00
	h681.60
	M10.00 175.00
	h681.60
	" class="stroke"/>
<use x="22.00" y="193.00" xlink:href="#tclef"/>
<use x="37.00" y="175.00" xlink:href="#sh0"/>
<use x="55.00" y="202.00" xlink:href="#hd"/>
<path d="M58.50 202.00v-21.00" class="stroke"/>
<use x="96.80" y="193.00" xlink:href="#hd"/>
<path d="M100.30 193.00v-21.00" class="stroke"/>
<path class="fill"
	d="M100.30 172.00c0.6 5.6 9.6 9 5.6 18.4
	1.6 -6 -1.3 -11.6 -5.6 -12.8
"/>
<path class="fill"
	d="M129.50 172.00l53.90 0.00v3.20l-53.90 -0.00"/>
<use x="126.30" y="193.00" xlink:href="#hd"/>
<path d="M129.80 193.00v-20.00" class="stroke"/>
<use x="152.90" y="190.00" xlink:href="#hd"/>
<path d="M156.40 190.00v-17.00" class="stroke"/>
<use x="179.50" y="193.00" xlink:href="#hd"/>
<path d="M183.00 193.00v-20.00" class="stroke"/>
<use x="215.00" y="187.00" xlink:href="#hd"/>
<path d="M218.50 187.00v-21.00" class="stroke"/>
<use x="256.80" y="193.00" xlink:href="#hd"/>
<path d="M260.30 193.00v-21.00" class="stroke"/>
<path class="fill"
	d="M260.30 172.00c0.6 5.6 9.6 9 5.6 18.4
	1.6 -6 -1.3 -11.6 -5.6 -12.8
"/>
<path class="fill"
	d="M289.50 172.00l53.90 0.00v3.20l-53.90 -0.00"/>
<use x="286.30" y="193.00" xlink:href="#hd"/>
<path d="M289.80 193.00v-20.00" class="stroke"/>
<use x="312.90" y="190.00" xlink:href="#hd"/>
<path d="M316.40 190.00v-17.00" class="stroke"/>
<use x="339.50" y="193.00" xlink:href="#hd"/>
<path d="M343.00 193.00v-20.00" class="stroke"/>
<use x="375.00" y="199.00" xlink:href="#hd"/>
<path d="M378.50 199.00v-21.00" class="stroke"/>
<use x="416.70" y="190.00" xlink:href="#hd"/>
<path d="M420.20 190.00v-21.00" class="stroke"/>
<path class="fill"
	d="M420.20 169.00c0.6 5.6 9.6 9 5.6 18.4
	1.6 -6 -1.3 -11.6 -5.6 -12.8
"/>
<path class="fill"
	d="M449.50 167.80l53.90 0.00v3.20l-53.90 -0.00"/>
<use x="446.30" y="190.00" xlink:href="#hd"/>
<path d="M449.80 190.00v-21.20" class="stroke"/>
<use x="472.90" y="187.00" xlink:href="#hd"/>
<path d="M476.40 187.00v-18.20" class="stroke"/>
<use x="499.50" y="190.00" xlink:href="#hd"/>
<path d="M503.00 190.00v-21.20" class="stroke"/>
<path class="fill"
	d="M538.10 163.50l53.90 5.00v3.20l-53.90 -5.00"/>
<use x="535.00" y="184.00" xlink:href="#hd"/>
<path d="M538.50 184.00v-19.40" class="stroke"/>
<use x="561.60" y="187.00" xlink:href="#hd"/>
<path d="M565.10 187.00v-20.00" class="stroke"/>
<use x="588.20" y="190.00" xlink:href="#hd"/>
<path d="M591.70 190.00v-20.60" class="stroke"/>
<path class="fill"
	d="M620.90 172.50l53.90 5.00v3.20l-53.90 -5.00"/>
<use x="617.70" y="193.00" xlink:href="#hd"/>
<path d="M621.20 193.00v-19.40" class="stroke"/>
<use x="644.30" y="196.00" xlink:href="#hd"/>
<path d="M647.80 196.00v-20.00" class="stroke"/>
<use x="670.90" y="199.00" xlink:href="#hd"/>
<path d="M674.40 199.00v-20.60" class="stroke"/>
</g>
<g stroke-width="0.70">
<path class="stroke" stroke-width="1"
	d="M215.20 269.00v-24.00"/>
<path class="stroke" stroke-width="1"
	d="M391.70 269.00v-24.00"/>
<path class="stroke" stroke-width="1"
	d="M580.90 269.00v-24.00"/>
<path class="stroke" stroke-width="3"
	d="M690.10 269.00v-24.00"/>
<path class="stroke" stroke-width="1"
	d="M685.60 269.00v-24.00"/>
<use x="681.60" y="269.00" xlink:href="#rdots"/>
<path d="m10.00 269.00
	h681.60
	M10.00 263.00
	h681.60
	M10.00 257.00
	h681.60
	M10.00 251.00
	h681.60
	M10.00 245.00
	h681.60
	" class="stroke"/>
<use x="22.00" y="263.00" xlink:href="#tclef"/>
<use x="37.00" y="245.00" xlink:href="#sh0"/>
<use x="55.00" y="272.00" xlink:href="#hd"/>
<path d="M58.50 272.00v-21.00" class="stroke"/>
<use x="101.10" y="263.00" xlink:href="#hd"/>
<path d="M104.60 263.00v-21.00" class="stroke"/>
<path class="fill"
	d="M104.60 242.00c0.6 5.6 9.6 9 5.6 18.4
	1.6 -6 -1.3 -11.6 -5.6 -12.8
"/>
<path class="fill"
	d="M136.90 242.00l59.40 0.00v3.20l-59.40 -0.00"/>
<use x="133.70" y="263.00" xlink:href="#hd"/>
<path d="M137.20 263.00v-20.00" class="stroke"/>
<use x="163.00" y="260.00" xlink:href="#hd"/>
<path d="M166.50 260.00v-17.00" class="stroke"/>
<use x="192.40" y="263.00" xlink:href="#hd"/>
<path d="M195.90 263.00v-20.00" class="stroke"/>
<use x="231.50" y="257.00" xlink:href="#hd"/>
<path d="M235.00 257.00v-21.00" class="stroke"/>
<use x="277.60" y="263.00" xlink:href="#hd"/>
<path d="M281.10 263.00v-21.00" class="stroke"/>
<path class="fill"
	d="M281.10 242.00c0.6 5.6 9.6 9 5.6 18.4
	1.6 -6 -1.3 -11.6 -5.6 -12.8
"/>
<path class="fill"
	d="M313.40 242.00l59.40 0.00v3.20l-59.40 -0.00"/>
<use x="310.20" y="263.00" xlink:href="#hd"/>
<path d="M313.70 263.00v-20.00" class="stroke"/>
<use x="339.60" y="260.00" xlink:href="#hd"/>
<path d="M343.10 260.00v-17.00" class="stroke"/>
<use x="368.90" y="263.00" xlink:href="#hd"/>
<path d="M372.40 263.00v-20.00" class="stroke"/>
<path class="fill"
	d="M411.20 231.70l59.40 8.60v3.20l-59.40 -8.60"/>
<use x="408.00" y="251.00" xlink:href="#hd"/>
<path d="M411.50 251.00v-18.30" class="stroke"/>
<use x="437.40" y="257.00" xlink:href="#hd"/>
<path d="M440.90 257.00v-20.00" class="stroke"/>
<use x="466.70" y="263.00" xlink:href="#hd"/>
<path d="M470.20 263.00v-21.70" class="stroke"/>
<path class="fill"
	d="M502.50 250.50l59.40 -5.00v3.20l-59.40 5.00"/>
<use x="499.30" y="272.00" xlink:href="#hd"/>
<path d="M502.80 272.00v-20.50" class="stroke"/>
<use x="528.70" y="269.00" xlink:href="#hd"/>
<path d="M532.20 269.00v-20.00" class="stroke"/>
<use x="558.00" y="266.00" xlink:href="#hd"/>
<path d="M561.50 266.00v-19.50" class="stroke"/>
<use x="597.20" y="263.00" xlink:href="#hd"/>
<circle class="fill" cx="604.90" cy="260.00" r="1.2"/>
<path d="M600.70 263.00v-21.00" class="stroke"/>
<use x="649.60" y="263.00" xlink:href="#hd"/>
<circle class="fill" cx="657.30" cy="260.00" r="1.2"/>
<path d="M653.10 263.00v-21.00" class="stroke"/>
</g>
</svg>
