<?xml version="1.0" standalone="no"?>
<!DOCTYPE svg PUBLIC "-//W3C//DTD SVG 1.1//EN"
	"http://www.w3.org/Graphics/SVG/1.1/DTD/svg11.dtd">
<svg xmlns="http://www.w3.org/2000/svg" version="1.1"
	xmlns:xlink="http://www.w3.org/1999/xlink"
	color="black"
	width="701.60px" height="279.00px">
<style type="text/css">
.fill {fill: currentColor}
.stroke {stroke: currentColor; fill: none}
text{white-space: pre}
</style>
<title>/media/tim/Data1/tims_code/sphinx-tunes/source/_abcfiles/_Ashokan Farewe (0) tune 1</title>
<!-- Creator: abcm2ps-8.14.6 -->
<!-- CreationDate: Jul 30, 2023 12:21 -->
<!-- CommandLine: -g '/media/tim/Data1/tims_code/sphinx-tunes/source/_abcfiles/_Ashokan Farewell.abc' -O '/media/tim/Data1/tims_code/sphinx-tunes/source/_abcfiles/_Ashokan Farewell.svg' -->
<g stroke-width="0.70" style="font:italic 14.00px Times">
<text x="691.60" y="20.00" text-anchor="end">W-25</text>
</g>
<g stroke-width="0.70" style="font:italic 14.00px Times">
<text x="691.60" y="34.00" text-anchor="end">Jay Ungar</text>
</g>
<g stroke-width="0.70" style="font:italic 14.00px Times">
<path class="stroke" stroke-width="1"
	d="M100.40 92.00v-24.00"/>
<path class="stroke" stroke-width="1"
	d="M168.90 92.00v-24.00"/>
<path class="stroke" stroke-width="1"
	d="M226.10 92.00v-24.00"/>
<path class="stroke" stroke-width="1"
	d="M297.50 92.00v-24.00"/>
<path class="stroke" stroke-width="1"
	d="M359.80 92.00v-24.00"/>
<path class="stroke" stroke-width="1"
	d="M418.20 92.00v-24.00"/>
<path class="stroke" stroke-width="1"
	d="M475.50 92.00v-24.00"/>
<path class="stroke" stroke-width="1"
	d="M534.60 92.00v-24.00"/>
<path class="stroke" stroke-width="3"
	d="M598.40 92.00v-24.00"/>
<path class="stroke" stroke-width="1"
	d="M593.90 92.00v-24.00"/>
<defs>
<g id="rdots" class="fill">
	<circle cx="0" cy="-9" r="1.2"/>
	<circle cx="0" cy="-15" r="1.2"/>
</g>
</defs>
<use x="589.90" y="92.00" xlink:href="#rdots"/>
<path class="stroke" stroke-width="1"
	d="M658.30 92.00v-24.00"/>
<path class="stroke" stroke-width="3"
	d="M690.10 92.00v-24.00"/>
<path class="stroke" stroke-width="1"
	d="M685.60 92.00v-24.00"/>
<path d="m10.00 92.00
	h681.60
	M10.00 86.00
	h681.60
	M10.00 80.00
	h681.60
	M10.00 74.00
	h681.60
	M10.00 68.00
	h681.60
	" class="stroke"/>
</g>
<g stroke-width="0.70" style="font:13.00px Times">
<text x="479.50" y="53.40">1</text>
<path class="stroke"
	d="M475.50 42.00m0 20v-20h116.40v20"/>
<text x="603.90" y="53.40">2</text>
<path class="stroke"
	d="M599.90 42.00m0 20v-20h91.70v20"/>
<defs>
<path id="utclef" class="fill" d="m-50 -90
	c-72 -41 -72 -158 52 -188
	150 -10 220 188 90 256
	-114 52 -275 0 -293 -136
	-15 -181 93 -229 220 -334
	88 -87 79 -133 62 -210
	-51 33 -94 105 -89 186
	17 267 36 374 49 574
	6 96 -19 134 -77 135
	-80 1 -126 -93 -61 -133
	85 -41 133 101 31 105
	23 17 92 37 90 -92
	-10 -223 -39 -342 -50 -617
	0 -90 0 -162 96 -232
	56 72 63 230 22 289
	-74 106 -257 168 -255 316
	9 153 148 185 252 133
	86 -65 29 -192 -80 -176
	-71 12 -105 67 -59 124"/>
<use id="tclef" transform="translate(0,6) scale(0.045)"
	xlink:href="#utclef"/>
</defs>
<use x="22.00" y="86.00" xlink:href="#tclef"/>
<defs>
<path id="usharp" class="fill" d="
	m136 -702
	v890
	h32
	v-890
	m128 840
	h32
	v-888
	h-32
	m-232 286
	v116
	l338 -96
	v-116
	m-338 442
	v116
	l338 -98
	v-114"/>
<use id="sh0" transform="translate(-4,5) scale(0.018)"
	xlink:href="#usharp"/>
</defs>
<use x="37.00" y="68.00" xlink:href="#sh0"/>
<use x="42.50" y="77.00" xlink:href="#sh0"/>
<g style="font:bold 16px serif"
	transform="translate(58.50,91.50) scale(1.2,1)">
	<text text-anchor="middle">4</text>
	<text y="-12" text-anchor="middle">3</text>
</g>
<path class="fill"
	d="M72.70 102.50l12.10 -3.10v-3.20l-12.10 3.10"/>
<defs>
<ellipse id="hd" rx="4.1" ry="2.9"
	transform="rotate(-20)" class="fill"/>
</defs>
<use x="76.50" y="83.00" xlink:href="#hd"/>
<path d="M73.00 83.00v18.50" class="stroke"/>
<use x="87.90" y="77.00" xlink:href="#hd"/>
<path d="M84.40 77.00v21.50" class="stroke"/>
<use x="112.90" y="74.00" xlink:href="#hd"/>
<circle class="fill" cx="120.60" cy="71.00" r="1.2"/>
<path d="M109.40 74.00v21.00" class="stroke"/>
<use x="133.50" y="77.00" xlink:href="#hd"/>
<path d="M130.00 77.00v21.00" class="stroke"/>
<path class="fill"
	d="M130.00 98.00c0.6 -5.6 9.6 -9 5.6 -18.4
	1.6 6 -1.3 11.6 -5.6 12.8
"/>
<path class="fill"
	d="M148.10 59.50l12.10 2.10v3.20l-12.10 -2.10"/>
<use x="144.90" y="80.00" xlink:href="#hd"/>
<path d="M148.40 80.00v-19.50" class="stroke"/>
<use x="156.40" y="83.00" xlink:href="#hd"/>
<path d="M159.90 83.00v-20.50" class="stroke"/>
<defs>
<path id="Hd" class="fill" d="m3 -1.6
	c-1 -1.8 -7 1.4 -6 3.2
	1 1.8 7 -1.4 6 -3.2
	m0.5 -0.3
	c2 3.8 -5 7.6 -7 3.8
	-2 -3.8 5 -7.6 7 -3.8"/>
</defs>
<use x="181.90" y="89.00" xlink:href="#Hd"/>
<path d="M185.40 89.00v-21.00" class="stroke"/>
<path class="fill"
	d="M205.40 70.50l12.10 -2.10v3.20l-12.10 2.10"/>
<use x="202.20" y="92.00" xlink:href="#hd"/>
<path d="M205.70 92.00v-20.50" class="stroke"/>
<use x="213.60" y="89.00" xlink:href="#hd"/>
<path d="M217.10 89.00v-19.50" class="stroke"/>
<use x="238.60" y="86.00" xlink:href="#hd"/>
<circle class="fill" cx="246.30" cy="83.00" r="1.2"/>
<path d="M242.10 86.00v-21.00" class="stroke"/>
<use x="259.20" y="89.00" xlink:href="#hd"/>
<path d="M262.70 89.00v-21.00" class="stroke"/>
<path class="fill"
	d="M262.70 68.00c0.6 5.6 9.6 9 5.6 18.4
	1.6 -6 -1.3 -11.6 -5.6 -12.8
"/>
<path class="fill"
	d="M276.80 71.50l12.10 2.10v3.20l-12.10 -2.10"/>
<use x="273.60" y="92.00" xlink:href="#hd"/>
<path d="M277.10 92.00v-19.50" class="stroke"/>
<use x="285.00" y="95.00" xlink:href="#hd"/>
<path d="M288.50 95.00v-20.50" class="stroke"/>
<use x="310.00" y="80.00" xlink:href="#hd"/>
<path d="M313.50 80.00v-21.00" class="stroke"/>
<use x="326.70" y="74.00" xlink:href="#hd"/>
<circle class="fill" cx="334.40" cy="71.00" r="1.2"/>
<path d="M323.20 74.00v21.00" class="stroke"/>
<use x="347.30" y="80.00" xlink:href="#hd"/>
<path d="M343.80 80.00v21.00" class="stroke"/>
<path class="fill"
	d="M343.80 101.00c0.6 -5.6 9.6 -9 5.6 -18.4
	1.6 6 -1.3 11.6 -5.6 12.8
"/>
<use x="372.30" y="83.00" xlink:href="#hd"/>
<path d="M375.80 83.00v-21.00" class="stroke"/>
<use x="389.00" y="74.00" xlink:href="#hd"/>
<path d="M385.50 74.00v21.00" class="stroke"/>
<use x="404.40" y="68.00" xlink:href="#hd"/>
<path d="M400.90 68.00v21.00" class="stroke"/>
<defs>
<path id="hl" class="stroke" d="m-6 0h12"/>
</defs>
<use x="430.70" y="62.00" xlink:href="#hl"/>
<use x="430.70" y="62.00" xlink:href="#hd"/>
<path d="M427.20 62.00v21.00" class="stroke"/>
<use x="446.20" y="68.00" xlink:href="#hd"/>
<path d="M442.70 68.00v21.00" class="stroke"/>
<use x="461.70" y="74.00" xlink:href="#hd"/>
<path d="M458.20 74.00v21.00" class="stroke"/>
<use x="488.00" y="68.00" xlink:href="#hd"/>
<circle class="fill" cx="495.70" cy="65.00" r="1.2"/>
<path d="M484.50 68.00v21.00" class="stroke"/>
<use x="508.60" y="65.00" xlink:href="#hd"/>
<path d="M505.10 65.00v21.00" class="stroke"/>
<path class="fill"
	d="M505.10 86.00c0.6 -5.6 9.6 -9 5.6 -18.4
	1.6 6 -1.3 11.6 -5.6 12.8
"/>
<use x="520.80" y="68.00" xlink:href="#hd"/>
<path d="M517.30 68.00v21.00" class="stroke"/>
<use x="547.60" y="71.00" xlink:href="#Hd"/>
<path d="M544.10 71.00v21.00" class="stroke"/>
<path class="fill"
	d="M564.10 102.50l12.10 -3.10v-3.20l-12.10 3.10"/>
<use x="567.90" y="83.00" xlink:href="#hd"/>
<path d="M564.40 83.00v18.50" class="stroke"/>
<use x="579.40" y="77.00" xlink:href="#hd"/>
<path d="M575.90 77.00v21.50" class="stroke"/>
<use x="612.40" y="83.00" xlink:href="#hd"/>
<path d="M615.90 83.00v-21.00" class="stroke"/>
<use x="629.00" y="77.00" xlink:href="#hd"/>
<path d="M625.50 77.00v21.00" class="stroke"/>
<use x="644.50" y="71.00" xlink:href="#hd"/>
<path d="M641.00 71.00v21.00" class="stroke"/>
<use x="671.30" y="74.00" xlink:href="#Hd"/>
<path d="M667.80 74.00v21.00" class="stroke"/>
</g>
<g stroke-width="0.70" style="font:13.00px Times">
<path class="stroke" stroke-width="1"
	d="M91.10 162.00v-24.00"/>
<path class="stroke" stroke-width="1"
	d="M171.50 162.00v-24.00"/>
<path class="stroke" stroke-width="1"
	d="M235.70 162.00v-24.00"/>
<path class="stroke" stroke-width="1"
	d="M315.90 162.00v-24.00"/>
<path class="stroke" stroke-width="1"
	d="M396.30 162.00v-24.00"/>
<path class="stroke" stroke-width="1"
	d="M476.80 162.00v-24.00"/>
<path class="stroke" stroke-width="1"
	d="M544.50 162.00v-24.00"/>
<path class="stroke" stroke-width="1"
	d="M612.20 162.00v-24.00"/>
<path class="stroke" stroke-width="1"
	d="M691.60 162.00v-24.00"/>
<path d="m10.00 162.00
	h681.60
	M10.00 156.00
	h681.60
	M10.00 150.00
	h681.60
	M10.00 144.00
	h681.60
	M10.00 138.00
	h681.60
	" class="stroke"/>
<use x="22.00" y="156.00" xlink:href="#tclef"/>
<use x="37.00" y="138.00" xlink:href="#sh0"/>
<use x="42.50" y="147.00" xlink:href="#sh0"/>
<path class="fill"
	d="M63.70 137.60l17.50 -2.30v3.20l-17.50 2.30"/>
<use x="60.50" y="159.00" xlink:href="#hd"/>
<path d="M64.00 159.00v-20.40" class="stroke"/>
<use x="77.30" y="156.00" xlink:href="#hd"/>
<path d="M80.80 156.00v-19.60" class="stroke"/>
<use x="103.60" y="153.00" xlink:href="#hd"/>
<circle class="fill" cx="111.30" cy="153.00" r="1.2"/>
<path d="M107.10 153.00v-21.00" class="stroke"/>
<use x="133.60" y="159.00" xlink:href="#hd"/>
<path d="M137.10 159.00v-21.00" class="stroke"/>
<path class="fill"
	d="M137.10 138.00c0.6 5.6 9.6 9 5.6 18.4
	1.6 -6 -1.3 -11.6 -5.6 -12.8
"/>
<use x="152.70" y="165.00" xlink:href="#hd"/>
<path d="M156.20 165.00v-21.00" class="stroke"/>
<use x="184.50" y="144.00" xlink:href="#Hd"/>
<path d="M181.00 144.00v21.00" class="stroke"/>
<use x="216.90" y="153.00" xlink:href="#hd"/>
<path d="M220.40 153.00v-21.00" class="stroke"/>
<use x="248.20" y="150.00" xlink:href="#hd"/>
<circle class="fill" cx="255.90" cy="147.00" r="1.2"/>
<path d="M251.70 150.00v-21.00" class="stroke"/>
<use x="278.60" y="147.00" xlink:href="#hd"/>
<path d="M275.10 147.00v21.00" class="stroke"/>
<path class="fill"
	d="M275.10 168.00c0.6 -5.6 9.6 -9 5.6 -18.4
	1.6 6 -1.3 11.6 -5.6 12.8
"/>
<use x="297.10" y="144.00" xlink:href="#hd"/>
<path d="M293.60 144.00v21.00" class="stroke"/>
<use x="328.40" y="153.00" xlink:href="#hd"/>
<path d="M331.90 153.00v-21.00" class="stroke"/>
<path class="fill"
	d="M331.90 132.00c0.6 5.6 9.6 9 5.6 18.4
	1.6 -6 -1.3 -11.6 -5.6 -12.8
"/>
<use x="347.50" y="159.00" xlink:href="#hd"/>
<circle class="fill" cx="355.20" cy="159.00" r="1.2"/>
<path d="M351.00 159.00v-21.00" class="stroke"/>
<use x="377.60" y="162.00" xlink:href="#hd"/>
<path d="M381.10 162.00v-21.00" class="stroke"/>
<use x="408.80" y="159.00" xlink:href="#hd"/>
<circle class="fill" cx="416.50" cy="159.00" r="1.2"/>
<path d="M412.30 159.00v-21.00" class="stroke"/>
<use x="438.90" y="162.00" xlink:href="#hd"/>
<path d="M442.40 162.00v-21.00" class="stroke"/>
<path class="fill"
	d="M442.40 141.00c0.6 5.6 9.6 9 5.6 18.4
	1.6 -6 -1.3 -11.6 -5.6 -12.8
"/>
<use x="458.00" y="165.00" xlink:href="#hd"/>
<path d="M461.50 165.00v-21.00" class="stroke"/>
<use x="489.80" y="150.00" xlink:href="#Hd"/>
<path d="M493.30 150.00v-21.00" class="stroke"/>
<use x="525.70" y="156.00" xlink:href="#hd"/>
<path d="M529.20 156.00v-21.00" class="stroke"/>
<use x="557.50" y="153.00" xlink:href="#Hd"/>
<path d="M561.00 153.00v-21.00" class="stroke"/>
<use x="593.40" y="162.00" xlink:href="#hd"/>
<path d="M596.90 162.00v-21.00" class="stroke"/>
<use x="625.20" y="153.00" xlink:href="#Hd"/>
<path d="M628.70 153.00v-21.00" class="stroke"/>
<path class="fill"
	d="M664.20 138.40l17.50 2.30v3.20l-17.50 -2.30"/>
<use x="661.00" y="159.00" xlink:href="#hd"/>
<path d="M664.50 159.00v-19.60" class="stroke"/>
<use x="677.80" y="162.00" xlink:href="#hd"/>
<path d="M681.30 162.00v-20.40" class="stroke"/>
</g>
<g stroke-width="0.70" style="font:13.00px Times">
<path class="stroke" stroke-width="1"
	d="M140.20 232.00v-24.00"/>
<path class="stroke" stroke-width="1"
	d="M193.70 232.00v-24.00"/>
<path class="stroke" stroke-width="1"
	d="M282.10 232.00v-24.00"/>
<path class="stroke" stroke-width="1"
	d="M374.30 232.00v-24.00"/>
<path class="stroke" stroke-width="1"
	d="M466.60 232.00v-24.00"/>
<path class="stroke" stroke-width="1"
	d="M556.10 232.00v-24.00"/>
<path class="stroke" stroke-width="1"
	d="M644.90 232.00v-24.00"/>
<path class="stroke" stroke-width="3"
	d="M690.10 232.00v-24.00"/>
<path class="stroke" stroke-width="1"
	d="M685.60 232.00v-24.00"/>
<path d="m10.00 232.00
	h681.60
	M10.00 226.00
	h681.60
	M10.00 220.00
	h681.60
	M10.00 214.00
	h681.60
	M10.00 208.00
	h681.60
	" class="stroke"/>
<use x="22.00" y="226.00" xlink:href="#tclef"/>
<use x="37.00" y="208.00" xlink:href="#sh0"/>
<use x="42.50" y="217.00" xlink:href="#sh0"/>
<use x="60.50" y="235.00" xlink:href="#hd"/>
<path d="M64.00 235.00v-21.00" class="stroke"/>
<use x="89.90" y="229.00" xlink:href="#hd"/>
<path d="M93.40 229.00v-21.00" class="stroke"/>
<use x="119.20" y="223.00" xlink:href="#hd"/>
<path d="M122.70 223.00v-21.00" class="stroke"/>
<use x="159.70" y="217.00" xlink:href="#Hd"/>
<circle class="fill" cx="168.40" cy="217.00" r="1.2"/>
<defs>
<path id="unat" class="fill" d="
	m96 -750
	h-32
	v716
	l32 -8
	182 -54
	v282
	h32
	v-706
	l-34 10
	-180 50
	v-290
	m0 592
	v-190
	l182 -52
	v188"/>
<use id="nt0" transform="translate(-3,5) scale(0.018)"
	xlink:href="#unat"/>
</defs>
<use x="149.70" y="217.00" xlink:href="#nt0"/>
<path d="M156.20 217.00v21.00" class="stroke"/>
<use x="206.20" y="220.00" xlink:href="#hd"/>
<circle class="fill" cx="213.90" cy="217.00" r="1.2"/>
<path d="M202.70 220.00v21.00" class="stroke"/>
<use x="240.10" y="217.00" xlink:href="#hd"/>
<path d="M236.60 217.00v21.00" class="stroke"/>
<path class="fill"
	d="M236.60 238.00c0.6 -5.6 9.6 -9 5.6 -18.4
	1.6 6 -1.3 11.6 -5.6 12.8
"/>
<use x="261.10" y="214.00" xlink:href="#hd"/>
<path d="M257.60 214.00v21.00" class="stroke"/>
<use x="294.60" y="223.00" xlink:href="#hd"/>
<path d="M298.10 223.00v-21.00" class="stroke"/>
<use x="323.90" y="229.00" xlink:href="#hd"/>
<path d="M327.40 229.00v-21.00" class="stroke"/>
<use x="353.30" y="235.00" xlink:href="#hd"/>
<path d="M356.80 235.00v-21.00" class="stroke"/>
<use x="386.80" y="238.00" xlink:href="#hl"/>
<use x="386.80" y="244.00" xlink:href="#hl"/>
<use x="386.80" y="244.00" xlink:href="#hd"/>
<path d="M390.30 244.00v-24.00" class="stroke"/>
<use x="416.20" y="235.00" xlink:href="#hd"/>
<path d="M419.70 235.00v-21.00" class="stroke"/>
<use x="445.50" y="229.00" xlink:href="#hd"/>
<path d="M449.00 229.00v-21.00" class="stroke"/>
<use x="479.10" y="223.00" xlink:href="#hd"/>
<path d="M482.60 223.00v-21.00" class="stroke"/>
<use x="508.60" y="214.00" xlink:href="#hd"/>
<path d="M505.10 214.00v21.00" class="stroke"/>
<use x="535.10" y="229.00" xlink:href="#hd"/>
<path d="M538.60 229.00v-21.00" class="stroke"/>
<use x="568.60" y="232.00" xlink:href="#hd"/>
<circle class="fill" cx="576.30" cy="229.00" r="1.2"/>
<path d="M572.10 232.00v-21.00" class="stroke"/>
<use x="602.60" y="235.00" xlink:href="#hd"/>
<path d="M606.10 235.00v-21.00" class="stroke"/>
<path class="fill"
	d="M606.10 214.00c0.6 5.6 9.6 9 5.6 18.4
	1.6 -6 -1.3 -11.6 -5.6 -12.8
"/>
<use x="623.90" y="238.00" xlink:href="#hl"/>
<use x="623.90" y="238.00" xlink:href="#hd"/>
<path d="M627.40 238.00v-21.00" class="stroke"/>
<use x="657.90" y="235.00" xlink:href="#Hd"/>
<path d="M661.40 235.00v-21.00" class="stroke"/>
</g>
<g stroke-width="0.70" style="font:16.00px Times">
<text x="10.00" y="272.60">9/1/98.  From &quot;The Waltz Book&quot;, Bill Matthiesen.</text>
</g>
</svg>
