<?xml version="1.0" standalone="no"?>
<!DOCTYPE svg PUBLIC "-//W3C//DTD SVG 1.1//EN"
	"http://www.w3.org/Graphics/SVG/1.1/DTD/svg11.dtd">
<svg xmlns="http://www.w3.org/2000/svg" version="1.1"
	xmlns:xlink="http://www.w3.org/1999/xlink"
	color="black"
	width="701.60px" height="499.40px">
<style type="text/css">
.fill {fill: currentColor}
.stroke {stroke: currentColor; fill: none}
text{white-space: pre}
</style>
<title>/media/tim/Data1/tims_code/sphinx-tunes/source/_abcfiles/_Coventry Carol (3005) tune 1</title>
<!-- Creator: abcm2ps-8.14.6 -->
<!-- CreationDate: Jul 30, 2023 12:21 -->
<!-- CommandLine: -g '/media/tim/Data1/tims_code/sphinx-tunes/source/_abcfiles/_Coventry Carol.abc' -O '/media/tim/Data1/tims_code/sphinx-tunes/source/_abcfiles/_Coventry Carol.svg' -->
<g stroke-width="0.70" style="font:italic 14.00px Times">
<text x="691.60" y="20.00" text-anchor="end">Trad. 16th C. (England, Coventry)</text>
</g>
<g stroke-width="0.70" transform="scale(0.700)" style="font:italic 14.00px Times">
<defs>
<ellipse id="hd" rx="4.1" ry="2.9"
	transform="rotate(-20)" class="fill"/>
</defs>
<use x="102.29" y="58.43" xlink:href="#hd"/>
<path d="M105.79 58.43v-21.00" class="stroke"/>
</g>
<g stroke-width="0.70" style="font:bold 15.00px Times">
<text x="79.30" y="43.00">= 120</text>
<path class="stroke" stroke-width="1"
	d="M238.90 91.00v-24.00"/>
<path class="stroke" stroke-width="1"
	d="M392.40 91.00v-24.00"/>
<path class="stroke" stroke-width="1"
	d="M599.50 91.00v-24.00"/>
<path class="stroke" stroke-width="1"
	d="M691.60 91.00v-24.00"/>
<path d="m10.00 91.00
	h681.60
	M10.00 85.00
	h681.60
	M10.00 79.00
	h681.60
	M10.00 73.00
	h681.60
	M10.00 67.00
	h681.60
	" class="stroke"/>
</g>
<g stroke-width="0.70" style="font:12.00px Helvetica">
<text x="63.70" y="58.60">Em</text>
<text x="191.80" y="58.60">B</text>
<text x="253.50" y="58.60">Em</text>
<text x="410.90" y="58.60">B</text>
<text x="521.80" y="58.60">Em</text>
<text x="618.00" y="58.60">B</text>
<defs>
<path id="utclef" class="fill" d="m-50 -90
	c-72 -41 -72 -158 52 -188
	150 -10 220 188 90 256
	-114 52 -275 0 -293 -136
	-15 -181 93 -229 220 -334
	88 -87 79 -133 62 -210
	-51 33 -94 105 -89 186
	17 267 36 374 49 574
	6 96 -19 134 -77 135
	-80 1 -126 -93 -61 -133
	85 -41 133 101 31 105
	23 17 92 37 90 -92
	-10 -223 -39 -342 -50 -617
	0 -90 0 -162 96 -232
	56 72 63 230 22 289
	-74 106 -257 168 -255 316
	9 153 148 185 252 133
	86 -65 29 -192 -80 -176
	-71 12 -105 67 -59 124"/>
<use id="tclef" transform="translate(0,6) scale(0.045)"
	xlink:href="#utclef"/>
</defs>
<use x="22.00" y="85.00" xlink:href="#tclef"/>
<defs>
<path id="usharp" class="fill" d="
	m136 -702
	v890
	h32
	v-890
	m128 840
	h32
	v-888
	h-32
	m-232 286
	v116
	l338 -96
	v-116
	m-338 442
	v116
	l338 -98
	v-114"/>
<use id="sh0" transform="translate(-4,5) scale(0.018)"
	xlink:href="#usharp"/>
</defs>
<use x="37.00" y="67.00" xlink:href="#sh0"/>
<g style="font:bold 16px serif"
	transform="translate(53.00,90.50) scale(1.2,1)">
	<text text-anchor="middle">4</text>
	<text y="-12" text-anchor="middle">3</text>
</g>
<use x="71.00" y="91.00" xlink:href="#hd"/>
<path d="M74.50 91.00v-21.00" class="stroke"/>
<use x="133.20" y="91.00" xlink:href="#hd"/>
<path d="M136.70 91.00v-21.00" class="stroke"/>
<use x="195.40" y="94.00" xlink:href="#hd"/>
<use x="186.40" y="94.00" xlink:href="#sh0"/>
<path d="M198.90 94.00v-21.00" class="stroke"/>
<defs>
<path id="Hd" class="fill" d="m3 -1.6
	c-1 -1.8 -7 1.4 -6 3.2
	1 1.8 7 -1.4 6 -3.2
	m0.5 -0.3
	c2 3.8 -5 7.6 -7 3.8
	-2 -3.8 5 -7.6 7 -3.8"/>
</defs>
<use x="260.90" y="91.00" xlink:href="#Hd"/>
<path d="M264.40 91.00v-21.00" class="stroke"/>
<use x="348.90" y="85.00" xlink:href="#hd"/>
<path d="M352.40 85.00v-21.00" class="stroke"/>
<use x="414.40" y="88.00" xlink:href="#hd"/>
<circle class="fill" cx="422.10" cy="88.00" r="1.2"/>
<path d="M417.90 88.00v-21.00" class="stroke"/>
<use x="485.20" y="88.00" xlink:href="#hd"/>
<path d="M488.70 88.00v-21.00" class="stroke"/>
<path class="fill"
	d="M488.70 67.00c0.6 5.6 9.6 9 5.6 18.4
	1.6 -6 -1.3 -11.6 -5.6 -12.8
"/>
<path class="fill"
	d="M532.30 70.00l40.30 0.00v3.20l-40.30 -0.00"/>
<use x="529.10" y="91.00" xlink:href="#hd"/>
<path d="M532.60 91.00v-20.00" class="stroke"/>
<use x="568.70" y="91.00" xlink:href="#hd"/>
<path d="M572.20 91.00v-20.00" class="stroke"/>
<use x="621.50" y="94.00" xlink:href="#Hd"/>
<circle class="fill" cx="630.20" cy="94.00" r="1.2"/>
<use x="611.50" y="94.00" xlink:href="#sh0"/>
<path d="M625.00 94.00v-21.00" class="stroke"/>
</g>
<g stroke-width="0.70" style="font:12.00px Helvetica">
<path class="stroke" stroke-width="1"
	d="M213.50 166.00v-24.00"/>
<path class="stroke" stroke-width="1"
	d="M351.10 166.00v-24.00"/>
<path class="stroke" stroke-width="1"
	d="M496.00 166.00v-24.00"/>
<path class="stroke" stroke-width="1"
	d="M691.60 166.00v-24.00"/>
<path d="m10.00 166.00
	h681.60
	M10.00 160.00
	h681.60
	M10.00 154.00
	h681.60
	M10.00 148.00
	h681.60
	M10.00 142.00
	h681.60
	" class="stroke"/>
<text x="47.70" y="125.60">Em</text>
<text x="110.20" y="125.60">B</text>
<text x="165.10" y="125.60">Em</text>
<text x="230.40" y="125.60">D</text>
<text x="289.40" y="125.60">B</text>
<text x="364.50" y="125.60">Em</text>
<text x="451.40" y="125.60">B</text>
<text x="513.00" y="125.60">D</text>
<text x="617.80" y="125.60">Em</text>
<use x="22.00" y="160.00" xlink:href="#tclef"/>
<use x="37.00" y="142.00" xlink:href="#sh0"/>
<use x="55.00" y="166.00" xlink:href="#hd"/>
<path d="M58.50 166.00v-21.00" class="stroke"/>
<use x="113.70" y="163.00" xlink:href="#hd"/>
<path d="M117.20 163.00v-21.00" class="stroke"/>
<use x="172.40" y="160.00" xlink:href="#hd"/>
<path d="M175.90 160.00v-21.00" class="stroke"/>
<use x="234.30" y="157.00" xlink:href="#hd"/>
<path d="M237.80 157.00v-21.00" class="stroke"/>
<use x="293.00" y="163.00" xlink:href="#Hd"/>
<path d="M296.50 163.00v-21.00" class="stroke"/>
<use x="371.90" y="166.00" xlink:href="#Hd"/>
<path d="M375.40 166.00v-21.00" class="stroke"/>
<use x="454.90" y="154.00" xlink:href="#hd"/>
<path d="M458.40 154.00v-21.00" class="stroke"/>
<use x="516.80" y="157.00" xlink:href="#hd"/>
<circle class="fill" cx="524.50" cy="157.00" r="1.2"/>
<path d="M520.30 157.00v-21.00" class="stroke"/>
<use x="583.60" y="157.00" xlink:href="#hd"/>
<path d="M587.10 157.00v-21.00" class="stroke"/>
<path class="fill"
	d="M587.10 136.00c0.6 5.6 9.6 9 5.6 18.4
	1.6 -6 -1.3 -11.6 -5.6 -12.8
"/>
<path class="fill"
	d="M628.30 139.00l38.10 0.00v3.20l-38.10 -0.00"/>
<use x="625.10" y="160.00" xlink:href="#hd"/>
<path d="M628.60 160.00v-20.00" class="stroke"/>
<use x="662.50" y="160.00" xlink:href="#hd"/>
<path d="M666.00 160.00v-20.00" class="stroke"/>
<defs>
<g id="hld" class="fill">
	<circle cx="0" cy="-3" r="1.3"/>
	<path d="m-7.5 -1.5
		c0 -11.5 15 -11.5 15 0
		h-0.25
		c-1.25 -9 -13.25 -9 -14.5 0"/>
</g>
</defs>
<use x="371.90" y="140.00" xlink:href="#hld"/>
</g>
<g stroke-width="0.70" style="font:12.00px Helvetica">
<path class="stroke" stroke-width="1"
	d="M277.30 236.00v-24.00"/>
<path class="stroke" stroke-width="1"
	d="M536.30 236.00v-24.00"/>
<path class="stroke" stroke-width="1"
	d="M691.60 236.00v-24.00"/>
<path d="m10.00 236.00
	h681.60
	M10.00 230.00
	h681.60
	M10.00 224.00
	h681.60
	M10.00 218.00
	h681.60
	M10.00 212.00
	h681.60
	" class="stroke"/>
<text x="52.00" y="202.60">B</text>
<text x="196.60" y="202.60">Em</text>
<text x="310.90" y="202.60">B</text>
<text x="455.50" y="202.60">Em</text>
<text x="569.90" y="202.60">B</text>
<use x="22.00" y="230.00" xlink:href="#tclef"/>
<use x="37.00" y="212.00" xlink:href="#sh0"/>
<use x="55.50" y="233.00" xlink:href="#Hd"/>
<path d="M59.00 233.00v-21.00" class="stroke"/>
<use x="203.90" y="230.00" xlink:href="#hd"/>
<path d="M207.40 230.00v-21.00" class="stroke"/>
<use x="314.40" y="233.00" xlink:href="#Hd"/>
<use x="304.40" y="233.00" xlink:href="#sh0"/>
<path d="M317.90 233.00v-21.00" class="stroke"/>
<use x="462.90" y="236.00" xlink:href="#hd"/>
<path d="M466.40 236.00v-21.00" class="stroke"/>
<use x="573.40" y="239.00" xlink:href="#Hd"/>
<circle class="fill" cx="582.10" cy="239.00" r="1.2"/>
<use x="563.40" y="239.00" xlink:href="#sh0"/>
<path d="M576.90 239.00v-21.00" class="stroke"/>
</g>
<g stroke-width="0.70" style="font:12.00px Helvetica">
<path class="stroke" stroke-width="1"
	d="M54.50 318.00v-24.00"/>
<path class="stroke" stroke-width="1"
	d="M195.70 318.00v-24.00"/>
<path class="stroke" stroke-width="1"
	d="M297.40 318.00v-24.00"/>
<path class="stroke" stroke-width="1"
	d="M373.10 318.00v-24.00"/>
<path class="stroke" stroke-width="1"
	d="M370.10 318.00v-24.00"/>
<defs>
<g id="rdots" class="fill">
	<circle cx="0" cy="-9" r="1.2"/>
	<circle cx="0" cy="-15" r="1.2"/>
</g>
</defs>
<use x="366.10" y="318.00" xlink:href="#rdots"/>
<path class="stroke" stroke-width="1"
	d="M514.30 318.00v-24.00"/>
<path class="stroke" stroke-width="1"
	d="M616.00 318.00v-24.00"/>
<path class="stroke" stroke-width="3"
	d="M690.10 318.00v-24.00"/>
<path class="stroke" stroke-width="1"
	d="M685.60 318.00v-24.00"/>
<path d="m10.00 318.00
	h681.60
	M10.00 312.00
	h681.60
	M10.00 306.00
	h681.60
	M10.00 300.00
	h681.60
	M10.00 294.00
	h681.60
	" class="stroke"/>
<text x="71.20" y="272.60">Em</text>
<text x="118.40" y="272.60">B</text>
<text x="158.00" y="272.60">Em</text>
<text x="207.30" y="272.60">D</text>
<text x="250.90" y="272.60">B</text>
<text x="313.90" y="272.60">E</text>
<text x="389.80" y="272.60">Em</text>
<text x="437.00" y="272.60">B</text>
<text x="476.60" y="272.60">Em</text>
<text x="525.80" y="272.60">D</text>
<text x="569.50" y="272.60">B</text>
<text x="632.50" y="272.60">E</text>
</g>
<g stroke-width="0.70" style="font:13.00px Times">
<text x="58.50" y="272.40">1</text>
<path class="stroke"
	d="M54.50 261.00m0 20v-20h310.60v20"/>
<text x="377.10" y="272.40">2</text>
<path class="stroke"
	d="M373.10 261.00m0 20v-20h318.60v20"/>
<use x="22.00" y="312.00" xlink:href="#tclef"/>
<use x="37.00" y="294.00" xlink:href="#sh0"/>
<use x="78.60" y="318.00" xlink:href="#hd"/>
<path d="M82.10 318.00v-21.00" class="stroke"/>
<use x="122.00" y="315.00" xlink:href="#hd"/>
<path d="M125.50 315.00v-21.00" class="stroke"/>
<use x="165.30" y="312.00" xlink:href="#hd"/>
<path d="M168.80 312.00v-21.00" class="stroke"/>
<use x="211.10" y="309.00" xlink:href="#hd"/>
<path d="M214.60 309.00v-21.00" class="stroke"/>
<use x="254.50" y="315.00" xlink:href="#Hd"/>
<path d="M258.00 315.00v-21.00" class="stroke"/>
<use x="317.20" y="312.00" xlink:href="#Hd"/>
<circle class="fill" cx="325.90" cy="309.00" r="1.2"/>
<use x="307.20" y="312.00" xlink:href="#sh0"/>
<path d="M320.70 312.00v-21.00" class="stroke"/>
<use x="397.10" y="318.00" xlink:href="#hd"/>
<path d="M400.60 318.00v-21.00" class="stroke"/>
<use x="440.50" y="321.00" xlink:href="#hd"/>
<use x="431.50" y="321.00" xlink:href="#sh0"/>
<path d="M444.00 321.00v-21.00" class="stroke"/>
<use x="483.90" y="318.00" xlink:href="#hd"/>
<path d="M487.40 318.00v-21.00" class="stroke"/>
<use x="529.60" y="309.00" xlink:href="#hd"/>
<path d="M533.10 309.00v-21.00" class="stroke"/>
<use x="573.00" y="315.00" xlink:href="#Hd"/>
<path d="M576.50 315.00v-21.00" class="stroke"/>
<use x="635.70" y="312.00" xlink:href="#Hd"/>
<circle class="fill" cx="644.40" cy="309.00" r="1.2"/>
<use x="625.70" y="312.00" xlink:href="#sh0"/>
<path d="M639.20 312.00v-21.00" class="stroke"/>
<use x="317.20" y="287.00" xlink:href="#hld"/>
<use x="635.70" y="287.00" xlink:href="#hld"/>
</g>
<g stroke-width="0.70" style="font:16.00px Arial">
<text x="60.00" y="358.60">Lully, lullay, Thou little tiny Child,</text>
</g>
<g stroke-width="0.70" style="font:16.00px Arial">
<text x="60.00" y="376.20">Bye, bye, lully, lullay.</text>
</g>
<g stroke-width="0.70" style="font:16.00px Arial">
<text x="60.00" y="393.80">Lully, lullay, Thou little tiny Child,</text>
</g>
<g stroke-width="0.70" style="font:16.00px Arial">
<text x="60.00" y="411.40">Bye, bye, lully, lullay.</text>
</g>
<g stroke-width="0.70" style="font:16.00px Arial">
<text x="60.00" y="446.60">O sisters too, how may we do,</text>
</g>
<g stroke-width="0.70" style="font:16.00px Arial">
<text x="60.00" y="464.20">For to preserve this day</text>
</g>
<g stroke-width="0.70" style="font:16.00px Arial">
<text x="60.00" y="481.80">This poor Youngling for Whom we sing</text>
</g>
<g stroke-width="0.70" style="font:16.00px Arial">
<text x="60.00" y="499.40">Bye, bye, lully, lullay?</text>
</g>
</svg>
