<?xml version="1.0" standalone="no"?>
<!DOCTYPE svg PUBLIC "-//W3C//DTD SVG 1.1//EN"
	"http://www.w3.org/Graphics/SVG/1.1/DTD/svg11.dtd">
<svg xmlns="http://www.w3.org/2000/svg" version="1.1"
	xmlns:xlink="http://www.w3.org/1999/xlink"
	color="black"
	width="701.60px" height="516.00px">
<style type="text/css">
.fill {fill: currentColor}
.stroke {stroke: currentColor; fill: none}
text{white-space: pre}
</style>
<title>/media/tim/Data1/tims_code/sphinx-tunes/source/_abcfiles/_Dance of the G (1) tune 1</title>
<!-- Creator: abcm2ps-8.14.6 -->
<!-- CreationDate: Jul 30, 2023 12:21 -->
<!-- CommandLine: -g '/media/tim/Data1/tims_code/sphinx-tunes/source/_abcfiles/_Dance of the Gasket Rats.abc' -O '/media/tim/Data1/tims_code/sphinx-tunes/source/_abcfiles/_Dance of the Gasket Rats.svg' -->
<g stroke-width="0.70" style="font:italic 14.00px Times">
<text x="691.60" y="20.00" text-anchor="end">Jackie Tolliday-Bailey</text>
</g>
<g stroke-width="0.70" style="font:italic 14.00px Times">
<path class="stroke" stroke-width="1"
	d="M221.30 73.00v-24.00"/>
<path class="stroke" stroke-width="1"
	d="M378.50 73.00v-24.00"/>
<path class="stroke" stroke-width="1"
	d="M547.20 73.00v-24.00"/>
<path class="stroke" stroke-width="1"
	d="M691.60 73.00v-24.00"/>
<path d="m10.00 73.00
	h681.60
	M10.00 67.00
	h681.60
	M10.00 61.00
	h681.60
	M10.00 55.00
	h681.60
	M10.00 49.00
	h681.60
	" class="stroke"/>
<text style="font:italic 12px serif"
	x="572.90" y="86.70" text-anchor="middle">3</text>
<text style="font:italic 12px serif"
	x="621.20" y="95.70" text-anchor="middle">3</text>
<defs>
<path id="utclef" class="fill" d="m-50 -90
	c-72 -41 -72 -158 52 -188
	150 -10 220 188 90 256
	-114 52 -275 0 -293 -136
	-15 -181 93 -229 220 -334
	88 -87 79 -133 62 -210
	-51 33 -94 105 -89 186
	17 267 36 374 49 574
	6 96 -19 134 -77 135
	-80 1 -126 -93 -61 -133
	85 -41 133 101 31 105
	23 17 92 37 90 -92
	-10 -223 -39 -342 -50 -617
	0 -90 0 -162 96 -232
	56 72 63 230 22 289
	-74 106 -257 168 -255 316
	9 153 148 185 252 133
	86 -65 29 -192 -80 -176
	-71 12 -105 67 -59 124"/>
<use id="tclef" transform="translate(0,6) scale(0.045)"
	xlink:href="#utclef"/>
</defs>
<use x="22.00" y="67.00" xlink:href="#tclef"/>
<defs>
<path id="usharp" class="fill" d="
	m136 -702
	v890
	h32
	v-890
	m128 840
	h32
	v-888
	h-32
	m-232 286
	v116
	l338 -96
	v-116
	m-338 442
	v116
	l338 -98
	v-114"/>
<use id="sh0" transform="translate(-4,5) scale(0.018)"
	xlink:href="#usharp"/>
</defs>
<use x="37.00" y="49.00" xlink:href="#sh0"/>
<use x="42.50" y="58.00" xlink:href="#sh0"/>
<g style="font:bold 16px serif"
	transform="translate(58.50,72.50) scale(1.2,1)">
	<text text-anchor="middle">4</text>
	<text y="-12" text-anchor="middle">4</text>
</g>
<path class="fill"
	d="M79.70 41.80l59.90 0.00v3.20l-59.90 -0.00"/>
<defs>
<ellipse id="hd" rx="4.1" ry="2.9"
	transform="rotate(-20)" class="fill"/>
</defs>
<use x="76.50" y="70.00" xlink:href="#hd"/>
<path d="M80.00 70.00v-27.20" class="stroke"/>
<use x="96.30" y="61.00" xlink:href="#hd"/>
<path d="M99.80 61.00v-18.20" class="stroke"/>
<use x="116.00" y="61.00" xlink:href="#hd"/>
<path d="M119.50 61.00v-18.20" class="stroke"/>
<use x="135.80" y="64.00" xlink:href="#hd"/>
<path d="M139.30 64.00v-21.20" class="stroke"/>
<path class="fill"
	d="M154.00 81.70l20.40 -2.40v-3.20l-20.40 2.40"/>
<use x="157.80" y="61.00" xlink:href="#hd"/>
<path d="M154.30 61.00v19.70" class="stroke"/>
<use x="177.60" y="58.00" xlink:href="#hd"/>
<path d="M174.10 58.00v20.30" class="stroke"/>
<use x="199.50" y="55.00" xlink:href="#hd"/>
<path d="M196.00 55.00v21.00" class="stroke"/>
<path class="fill"
	d="M237.00 42.20l59.90 -6.40v3.20l-59.90 6.40"/>
<use x="233.80" y="70.00" xlink:href="#hd"/>
<path d="M237.30 70.00v-26.80" class="stroke"/>
<use x="253.60" y="61.00" xlink:href="#hd"/>
<path d="M257.10 61.00v-20.00" class="stroke"/>
<use x="273.30" y="61.00" xlink:href="#hd"/>
<path d="M276.80 61.00v-22.10" class="stroke"/>
<use x="293.10" y="55.00" xlink:href="#hd"/>
<path d="M296.60 55.00v-18.20" class="stroke"/>
<path class="fill"
	d="M318.10 38.10l20.40 3.90v3.20l-20.40 -3.90"/>
<use x="315.00" y="58.00" xlink:href="#hd"/>
<path d="M318.50 58.00v-18.90" class="stroke"/>
<use x="334.70" y="64.00" xlink:href="#hd"/>
<path d="M338.20 64.00v-21.10" class="stroke"/>
<use x="356.60" y="70.00" xlink:href="#hd"/>
<path d="M360.10 70.00v-21.00" class="stroke"/>
<path class="fill"
	d="M394.10 41.80l59.90 0.00v3.20l-59.90 -0.00"/>
<use x="391.00" y="70.00" xlink:href="#hd"/>
<path d="M394.50 70.00v-27.20" class="stroke"/>
<use x="410.70" y="61.00" xlink:href="#hd"/>
<path d="M414.20 61.00v-18.20" class="stroke"/>
<use x="430.50" y="61.00" xlink:href="#hd"/>
<path d="M434.00 61.00v-18.20" class="stroke"/>
<use x="450.30" y="64.00" xlink:href="#hd"/>
<path d="M453.80 64.00v-21.20" class="stroke"/>
<path class="fill"
	d="M468.40 81.00l59.90 -7.00v-3.20l-59.90 7.00"/>
<use x="472.30" y="61.00" xlink:href="#hd"/>
<path d="M468.80 61.00v19.00" class="stroke"/>
<use x="492.00" y="58.00" xlink:href="#hd"/>
<path d="M488.50 58.00v19.70" class="stroke"/>
<use x="511.80" y="55.00" xlink:href="#hd"/>
<path d="M508.30 55.00v20.30" class="stroke"/>
<use x="531.60" y="52.00" xlink:href="#hd"/>
<path d="M528.10 52.00v21.00" class="stroke"/>
<path class="fill"
	d="M555.90 70.80l31.70 4.40v-3.20l-31.70 -4.40"/>
<use x="559.70" y="49.00" xlink:href="#hd"/>
<path d="M556.20 49.00v20.80" class="stroke"/>
<use x="575.20" y="52.00" xlink:href="#hd"/>
<path d="M571.70 52.00v20.00" class="stroke"/>
<use x="590.80" y="55.00" xlink:href="#hd"/>
<path d="M587.30 55.00v19.20" class="stroke"/>
<path class="fill"
	d="M604.10 79.80l31.70 4.40v-3.20l-31.70 -4.40"/>
<use x="607.90" y="58.00" xlink:href="#hd"/>
<path d="M604.40 58.00v20.80" class="stroke"/>
<use x="623.50" y="61.00" xlink:href="#hd"/>
<path d="M620.00 61.00v20.00" class="stroke"/>
<use x="639.00" y="64.00" xlink:href="#hd"/>
<path d="M635.50 64.00v19.20" class="stroke"/>
<path class="fill"
	d="M652.30 82.00l20.40 0.00v-3.20l-20.40 -0.00"/>
<use x="656.20" y="61.00" xlink:href="#hd"/>
<path d="M652.70 61.00v20.00" class="stroke"/>
<use x="675.90" y="61.00" xlink:href="#hd"/>
<path d="M672.40 61.00v20.00" class="stroke"/>
</g>
<g stroke-width="0.70" style="font:italic 14.00px Times">
<path class="stroke" stroke-width="1"
	d="M211.80 143.00v-24.00"/>
<path class="stroke" stroke-width="1"
	d="M375.60 143.00v-24.00"/>
<path class="stroke" stroke-width="1"
	d="M539.50 143.00v-24.00"/>
<path class="stroke" stroke-width="1"
	d="M691.60 143.00v-24.00"/>
<path class="stroke" stroke-width="1"
	d="M688.60 143.00v-24.00"/>
<path d="m10.00 143.00
	h681.60
	M10.00 137.00
	h681.60
	M10.00 131.00
	h681.60
	M10.00 125.00
	h681.60
	M10.00 119.00
	h681.60
	" class="stroke"/>
<text style="font:italic 12px serif"
	x="565.80" y="156.70" text-anchor="middle">3</text>
<text style="font:italic 12px serif"
	x="616.10" y="165.70" text-anchor="middle">3</text>
<use x="22.00" y="137.00" xlink:href="#tclef"/>
<use x="37.00" y="119.00" xlink:href="#sh0"/>
<use x="42.50" y="128.00" xlink:href="#sh0"/>
<path class="fill"
	d="M56.70 137.20l62.70 0.00v-3.20l-62.70 -0.00"/>
<use x="60.50" y="119.00" xlink:href="#hd"/>
<path d="M57.00 119.00v17.20" class="stroke"/>
<defs>
<path id="hl" class="stroke" d="m-6 0h12"/>
</defs>
<use x="81.10" y="113.00" xlink:href="#hl"/>
<use x="81.10" y="110.00" xlink:href="#hd"/>
<path d="M77.60 110.00v26.20" class="stroke"/>
<use x="101.80" y="113.00" xlink:href="#hl"/>
<use x="101.80" y="110.00" xlink:href="#hd"/>
<path d="M98.30 110.00v26.20" class="stroke"/>
<use x="122.50" y="113.00" xlink:href="#hl"/>
<use x="122.50" y="113.00" xlink:href="#hd"/>
<path d="M119.00 113.00v23.20" class="stroke"/>
<path class="fill"
	d="M141.60 131.20l21.40 0.00v-3.20l-21.40 -0.00"/>
<use x="145.40" y="113.00" xlink:href="#hl"/>
<use x="145.40" y="110.00" xlink:href="#hd"/>
<path d="M141.90 110.00v20.20" class="stroke"/>
<use x="166.10" y="113.00" xlink:href="#hl"/>
<use x="166.10" y="107.00" xlink:href="#hl"/>
<use x="166.10" y="107.00" xlink:href="#hd"/>
<path d="M162.60 107.00v23.20" class="stroke"/>
<use x="189.10" y="113.00" xlink:href="#hl"/>
<use x="189.10" y="107.00" xlink:href="#hl"/>
<use x="189.10" y="104.00" xlink:href="#hd"/>
<path d="M185.60 104.00v27.00" class="stroke"/>
<path class="fill"
	d="M220.50 138.20l62.70 -4.20v-3.20l-62.70 4.20"/>
<use x="224.30" y="119.00" xlink:href="#hd"/>
<path d="M220.80 119.00v18.20" class="stroke"/>
<use x="245.00" y="113.00" xlink:href="#hl"/>
<use x="245.00" y="110.00" xlink:href="#hd"/>
<path d="M241.50 110.00v25.80" class="stroke"/>
<use x="265.70" y="113.00" xlink:href="#hl"/>
<use x="265.70" y="110.00" xlink:href="#hd"/>
<path d="M262.20 110.00v24.40" class="stroke"/>
<use x="286.30" y="113.00" xlink:href="#hl"/>
<use x="286.30" y="107.00" xlink:href="#hl"/>
<use x="286.30" y="104.00" xlink:href="#hd"/>
<path d="M282.80 104.00v29.00" class="stroke"/>
<path class="fill"
	d="M305.40 131.30l21.40 2.40v-3.20l-21.40 -2.40"/>
<use x="309.30" y="113.00" xlink:href="#hl"/>
<use x="309.30" y="107.00" xlink:href="#hl"/>
<use x="309.30" y="107.00" xlink:href="#hd"/>
<path d="M305.80 107.00v23.30" class="stroke"/>
<use x="330.00" y="113.00" xlink:href="#hl"/>
<use x="330.00" y="113.00" xlink:href="#hd"/>
<path d="M326.50 113.00v19.70" class="stroke"/>
<use x="352.90" y="119.00" xlink:href="#hd"/>
<path d="M349.40 119.00v21.00" class="stroke"/>
<path class="fill"
	d="M384.30 137.20l62.70 0.00v-3.20l-62.70 -0.00"/>
<use x="388.10" y="119.00" xlink:href="#hd"/>
<path d="M384.60 119.00v17.20" class="stroke"/>
<use x="408.80" y="113.00" xlink:href="#hl"/>
<use x="408.80" y="110.00" xlink:href="#hd"/>
<path d="M405.30 110.00v26.20" class="stroke"/>
<use x="429.40" y="113.00" xlink:href="#hl"/>
<use x="429.40" y="110.00" xlink:href="#hd"/>
<path d="M425.90 110.00v26.20" class="stroke"/>
<use x="450.10" y="113.00" xlink:href="#hl"/>
<use x="450.10" y="113.00" xlink:href="#hd"/>
<path d="M446.60 113.00v23.20" class="stroke"/>
<path class="fill"
	d="M469.20 131.20l21.40 0.00v-3.20l-21.40 -0.00"/>
<use x="473.10" y="113.00" xlink:href="#hl"/>
<use x="473.10" y="110.00" xlink:href="#hd"/>
<path d="M469.60 110.00v20.20" class="stroke"/>
<use x="493.80" y="113.00" xlink:href="#hl"/>
<use x="493.80" y="107.00" xlink:href="#hl"/>
<use x="493.80" y="107.00" xlink:href="#hd"/>
<path d="M490.30 107.00v23.20" class="stroke"/>
<use x="516.70" y="113.00" xlink:href="#hl"/>
<use x="516.70" y="107.00" xlink:href="#hl"/>
<use x="516.70" y="104.00" xlink:href="#hd"/>
<path d="M513.20 104.00v27.00" class="stroke"/>
<path class="fill"
	d="M548.10 140.80l33.00 4.50v-3.20l-33.00 -4.50"/>
<use x="552.00" y="119.00" xlink:href="#hd"/>
<path d="M548.50 119.00v20.80" class="stroke"/>
<use x="568.10" y="122.00" xlink:href="#hd"/>
<path d="M564.60 122.00v20.00" class="stroke"/>
<use x="584.30" y="125.00" xlink:href="#hd"/>
<path d="M580.80 125.00v19.20" class="stroke"/>
<path class="fill"
	d="M598.40 149.80l33.00 4.50v-3.20l-33.00 -4.50"/>
<use x="602.20" y="128.00" xlink:href="#hd"/>
<path d="M598.70 128.00v20.80" class="stroke"/>
<use x="618.40" y="131.00" xlink:href="#hd"/>
<path d="M614.90 131.00v20.00" class="stroke"/>
<use x="634.50" y="134.00" xlink:href="#hd"/>
<path d="M631.00 134.00v19.20" class="stroke"/>
<path class="fill"
	d="M648.60 152.00l21.30 0.00v-3.20l-21.30 -0.00"/>
<use x="652.50" y="131.00" xlink:href="#hd"/>
<path d="M649.00 131.00v20.00" class="stroke"/>
<use x="673.10" y="131.00" xlink:href="#hd"/>
<path d="M669.60 131.00v20.00" class="stroke"/>
</g>
<g stroke-width="0.70" style="font:italic 14.00px Times">
<path class="stroke" stroke-width="1"
	d="M208.80 213.00v-24.00"/>
<path class="stroke" stroke-width="1"
	d="M370.00 213.00v-24.00"/>
<path class="stroke" stroke-width="1"
	d="M530.80 213.00v-24.00"/>
<path class="stroke" stroke-width="1"
	d="M691.60 213.00v-24.00"/>
<path d="m10.00 213.00
	h681.60
	M10.00 207.00
	h681.60
	M10.00 201.00
	h681.60
	M10.00 195.00
	h681.60
	M10.00 189.00
	h681.60
	" class="stroke"/>
<use x="22.00" y="207.00" xlink:href="#tclef"/>
<use x="37.00" y="189.00" xlink:href="#sh0"/>
<use x="42.50" y="198.00" xlink:href="#sh0"/>
<path class="fill"
	d="M56.70 220.20l61.40 0.00v-3.20l-61.40 -0.00"/>
<use x="60.50" y="192.00" xlink:href="#hd"/>
<path d="M57.00 192.00v27.20" class="stroke"/>
<use x="80.80" y="201.00" xlink:href="#hd"/>
<path d="M77.30 201.00v18.20" class="stroke"/>
<use x="101.00" y="201.00" xlink:href="#hd"/>
<path d="M97.50 201.00v18.20" class="stroke"/>
<use x="121.30" y="192.00" xlink:href="#hd"/>
<path d="M117.80 192.00v27.20" class="stroke"/>
<path class="fill"
	d="M139.90 216.30l20.90 2.40v-3.20l-20.90 -2.40"/>
<use x="143.70" y="195.00" xlink:href="#hd"/>
<path d="M140.20 195.00v20.30" class="stroke"/>
<use x="164.00" y="198.00" xlink:href="#hd"/>
<path d="M160.50 198.00v19.70" class="stroke"/>
<use x="186.50" y="201.00" xlink:href="#hd"/>
<path d="M183.00 201.00v21.00" class="stroke"/>
<path class="fill"
	d="M224.50 181.80l61.40 0.00v3.20l-61.40 -0.00"/>
<use x="221.30" y="201.00" xlink:href="#hd"/>
<path d="M224.80 201.00v-18.20" class="stroke"/>
<use x="241.60" y="210.00" xlink:href="#hd"/>
<path d="M245.10 210.00v-27.20" class="stroke"/>
<use x="261.80" y="210.00" xlink:href="#hd"/>
<path d="M265.30 210.00v-27.20" class="stroke"/>
<use x="282.10" y="201.00" xlink:href="#hd"/>
<path d="M285.60 201.00v-18.20" class="stroke"/>
<path class="fill"
	d="M307.70 183.30l21.30 2.40v3.20l-21.30 -2.40"/>
<use x="304.50" y="204.00" xlink:href="#hd"/>
<path d="M308.00 204.00v-19.70" class="stroke"/>
<use x="325.10" y="207.00" xlink:href="#hd"/>
<use x="316.10" y="207.00" xlink:href="#sh0"/>
<path d="M328.60 207.00v-20.30" class="stroke"/>
<use x="347.60" y="210.00" xlink:href="#hd"/>
<path d="M351.10 210.00v-21.00" class="stroke"/>
<path class="fill"
	d="M378.60 220.20l61.40 0.00v-3.20l-61.40 -0.00"/>
<use x="382.50" y="192.00" xlink:href="#hd"/>
<path d="M379.00 192.00v27.20" class="stroke"/>
<use x="402.70" y="201.00" xlink:href="#hd"/>
<path d="M399.20 201.00v18.20" class="stroke"/>
<use x="423.00" y="201.00" xlink:href="#hd"/>
<path d="M419.50 201.00v18.20" class="stroke"/>
<use x="443.20" y="192.00" xlink:href="#hd"/>
<path d="M439.70 192.00v27.20" class="stroke"/>
<path class="fill"
	d="M461.90 216.30l20.90 2.40v-3.20l-20.90 -2.40"/>
<use x="465.70" y="195.00" xlink:href="#hd"/>
<path d="M462.20 195.00v20.30" class="stroke"/>
<use x="486.00" y="198.00" xlink:href="#hd"/>
<path d="M482.50 198.00v19.70" class="stroke"/>
<use x="508.40" y="201.00" xlink:href="#hd"/>
<path d="M504.90 201.00v21.00" class="stroke"/>
<path class="fill"
	d="M539.40 207.40l61.40 6.80v-3.20l-61.40 -6.80"/>
<use x="543.30" y="183.00" xlink:href="#hl"/>
<use x="543.30" y="180.00" xlink:href="#hd"/>
<path d="M539.80 180.00v26.50" class="stroke"/>
<use x="563.50" y="189.00" xlink:href="#hd"/>
<path d="M560.00 189.00v19.70" class="stroke"/>
<use x="583.80" y="192.00" xlink:href="#hd"/>
<path d="M580.30 192.00v19.00" class="stroke"/>
<use x="604.00" y="195.00" xlink:href="#hd"/>
<path d="M600.50 195.00v18.20" class="stroke"/>
<path class="fill"
	d="M622.70 218.70l20.90 -2.40v-3.20l-20.90 2.40"/>
<use x="626.50" y="198.00" xlink:href="#hd"/>
<path d="M623.00 198.00v19.70" class="stroke"/>
<use x="646.80" y="195.00" xlink:href="#hd"/>
<path d="M643.30 195.00v20.30" class="stroke"/>
<use x="669.20" y="201.00" xlink:href="#hd"/>
<path d="M665.70 201.00v21.00" class="stroke"/>
</g>
<g stroke-width="0.70" style="font:italic 14.00px Times">
<path class="stroke" stroke-width="1"
	d="M207.90 283.00v-24.00"/>
<path class="stroke" stroke-width="1"
	d="M379.40 283.00v-24.00"/>
<path class="stroke" stroke-width="1"
	d="M539.40 283.00v-24.00"/>
<path class="stroke" stroke-width="1"
	d="M691.60 283.00v-24.00"/>
<path class="stroke" stroke-width="1"
	d="M688.60 283.00v-24.00"/>
<path d="m10.00 283.00
	h681.60
	M10.00 277.00
	h681.60
	M10.00 271.00
	h681.60
	M10.00 265.00
	h681.60
	M10.00 259.00
	h681.60
	" class="stroke"/>
<use x="22.00" y="277.00" xlink:href="#tclef"/>
<use x="37.00" y="259.00" xlink:href="#sh0"/>
<use x="42.50" y="268.00" xlink:href="#sh0"/>
<path class="fill"
	d="M56.70 290.20l61.10 0.00v-3.20l-61.10 -0.00"/>
<use x="60.50" y="262.00" xlink:href="#hd"/>
<path d="M57.00 262.00v27.20" class="stroke"/>
<use x="80.60" y="271.00" xlink:href="#hd"/>
<path d="M77.10 271.00v18.20" class="stroke"/>
<use x="100.80" y="271.00" xlink:href="#hd"/>
<path d="M97.30 271.00v18.20" class="stroke"/>
<use x="120.90" y="262.00" xlink:href="#hd"/>
<path d="M117.40 262.00v27.20" class="stroke"/>
<path class="fill"
	d="M139.40 286.30l20.80 2.40v-3.20l-20.80 -2.40"/>
<use x="143.20" y="265.00" xlink:href="#hd"/>
<path d="M139.70 265.00v20.30" class="stroke"/>
<use x="163.40" y="268.00" xlink:href="#hd"/>
<path d="M159.90 268.00v19.70" class="stroke"/>
<use x="185.70" y="271.00" xlink:href="#hd"/>
<path d="M182.20 271.00v21.00" class="stroke"/>
<path class="fill"
	d="M223.60 261.00l61.10 -7.00v3.20l-61.10 7.00"/>
<use x="220.40" y="283.00" xlink:href="#hd"/>
<path d="M223.90 283.00v-21.00" class="stroke"/>
<use x="240.50" y="280.00" xlink:href="#hd"/>
<path d="M244.00 280.00v-20.30" class="stroke"/>
<use x="260.70" y="277.00" xlink:href="#hd"/>
<path d="M264.20 277.00v-19.70" class="stroke"/>
<use x="280.80" y="274.00" xlink:href="#hd"/>
<path d="M284.30 274.00v-19.00" class="stroke"/>
<path class="fill"
	d="M306.30 256.00l61.10 0.00v3.20l-61.10 -0.00"/>
<use x="303.10" y="283.00" xlink:href="#hd"/>
<path d="M306.60 283.00v-26.00" class="stroke"/>
<use x="323.30" y="274.00" xlink:href="#hd"/>
<path d="M326.80 274.00v-17.00" class="stroke"/>
<use x="343.40" y="277.00" xlink:href="#hd"/>
<path d="M346.90 277.00v-20.00" class="stroke"/>
<use x="363.50" y="280.00" xlink:href="#hd"/>
<path d="M367.00 280.00v-23.00" class="stroke"/>
<path class="fill"
	d="M395.10 264.80l61.10 0.00v3.20l-61.10 -0.00"/>
<use x="391.90" y="283.00" xlink:href="#hd"/>
<path d="M395.40 283.00v-17.20" class="stroke"/>
<use x="412.00" y="289.00" xlink:href="#hl"/>
<use x="412.00" y="292.00" xlink:href="#hd"/>
<path d="M415.50 292.00v-26.20" class="stroke"/>
<use x="432.20" y="289.00" xlink:href="#hl"/>
<use x="432.20" y="292.00" xlink:href="#hd"/>
<path d="M435.70 292.00v-26.20" class="stroke"/>
<use x="452.40" y="283.00" xlink:href="#hd"/>
<path d="M455.90 283.00v-17.20" class="stroke"/>
<path class="fill"
	d="M477.80 265.30l20.80 2.40v3.20l-20.80 -2.40"/>
<use x="474.70" y="286.00" xlink:href="#hd"/>
<path d="M478.20 286.00v-19.70" class="stroke"/>
<use x="494.80" y="289.00" xlink:href="#hl"/>
<use x="494.80" y="289.00" xlink:href="#hd"/>
<path d="M498.30 289.00v-20.30" class="stroke"/>
<use x="517.20" y="289.00" xlink:href="#hl"/>
<use x="517.20" y="292.00" xlink:href="#hd"/>
<path d="M520.70 292.00v-21.00" class="stroke"/>
<path class="fill"
	d="M555.10 261.00l61.10 -7.00v3.20l-61.10 7.00"/>
<use x="551.90" y="283.00" xlink:href="#hd"/>
<path d="M555.40 283.00v-21.00" class="stroke"/>
<use x="572.10" y="280.00" xlink:href="#hd"/>
<path d="M575.60 280.00v-20.30" class="stroke"/>
<use x="592.20" y="277.00" xlink:href="#hd"/>
<path d="M595.70 277.00v-19.70" class="stroke"/>
<use x="612.30" y="274.00" xlink:href="#hd"/>
<path d="M615.80 274.00v-19.00" class="stroke"/>
<use x="634.70" y="283.00" xlink:href="#hd"/>
<path d="M638.20 283.00v-21.00" class="stroke"/>
<use x="666.10" y="283.00" xlink:href="#hd"/>
<path d="M669.60 283.00v-21.00" class="stroke"/>
</g>
<g stroke-width="0.70" style="font:italic 14.00px Times">
<defs>
<g id="rdots" class="fill">
	<circle cx="0" cy="-9" r="1.2"/>
	<circle cx="0" cy="-15" r="1.2"/>
</g>
</defs>
<use x="67.00" y="353.00" xlink:href="#rdots"/>
<path class="stroke" stroke-width="1"
	d="M63.00 353.00v-24.00"/>
<path class="stroke" stroke-width="3"
	d="M58.50 353.00v-24.00"/>
<path class="stroke" stroke-width="1"
	d="M236.30 353.00v-24.00"/>
<path class="stroke" stroke-width="1"
	d="M404.60 353.00v-24.00"/>
<path class="stroke" stroke-width="1"
	d="M542.00 353.00v-24.00"/>
<path class="stroke" stroke-width="3"
	d="M690.10 353.00v-24.00"/>
<path class="stroke" stroke-width="1"
	d="M685.60 353.00v-24.00"/>
<use x="681.60" y="353.00" xlink:href="#rdots"/>
<path d="m10.00 353.00
	h681.60
	M10.00 347.00
	h681.60
	M10.00 341.00
	h681.60
	M10.00 335.00
	h681.60
	M10.00 329.00
	h681.60
	" class="stroke"/>
<use x="22.00" y="347.00" xlink:href="#tclef"/>
<use x="37.00" y="329.00" xlink:href="#sh0"/>
<use x="42.50" y="338.00" xlink:href="#sh0"/>
<path class="fill"
	d="M83.70 334.00l59.80 -7.00v3.20l-59.80 7.00"/>
<use x="80.50" y="356.00" xlink:href="#hd"/>
<path d="M84.00 356.00v-21.10" class="stroke"/>
<use x="100.20" y="353.00" xlink:href="#hd"/>
<path d="M103.70 353.00v-20.40" class="stroke"/>
<use x="119.90" y="350.00" xlink:href="#hd"/>
<path d="M123.40 350.00v-19.60" class="stroke"/>
<use x="139.60" y="347.00" xlink:href="#hd"/>
<path d="M143.10 347.00v-18.90" class="stroke"/>
<path class="fill"
	d="M164.70 326.00l59.80 0.00v3.20l-59.80 -0.00"/>
<use x="161.50" y="344.00" xlink:href="#hd"/>
<path d="M165.00 344.00v-17.00" class="stroke"/>
<use x="181.20" y="353.00" xlink:href="#hd"/>
<path d="M184.70 353.00v-26.00" class="stroke"/>
<use x="200.90" y="344.00" xlink:href="#hd"/>
<path d="M204.40 344.00v-17.00" class="stroke"/>
<use x="220.60" y="353.00" xlink:href="#hd"/>
<path d="M224.10 353.00v-26.00" class="stroke"/>
<path class="fill"
	d="M251.90 325.00l59.80 -7.00v3.20l-59.80 7.00"/>
<use x="248.80" y="347.00" xlink:href="#hd"/>
<path d="M252.30 347.00v-21.10" class="stroke"/>
<use x="268.50" y="344.00" xlink:href="#hd"/>
<path d="M272.00 344.00v-20.40" class="stroke"/>
<use x="288.20" y="341.00" xlink:href="#hd"/>
<path d="M291.70 341.00v-19.60" class="stroke"/>
<use x="307.90" y="338.00" xlink:href="#hd"/>
<path d="M311.40 338.00v-18.90" class="stroke"/>
<path class="fill"
	d="M326.00 353.20l59.80 0.00v-3.20l-59.80 -0.00"/>
<use x="329.90" y="335.00" xlink:href="#hd"/>
<path d="M326.40 335.00v17.20" class="stroke"/>
<use x="349.60" y="329.00" xlink:href="#hd"/>
<path d="M346.10 329.00v23.20" class="stroke"/>
<use x="369.30" y="332.00" xlink:href="#hd"/>
<path d="M365.80 332.00v20.20" class="stroke"/>
<use x="389.00" y="335.00" xlink:href="#hd"/>
<path d="M385.50 335.00v17.20" class="stroke"/>
<path class="fill"
	d="M420.30 323.00l20.40 0.00v3.20l-20.40 -0.00"/>
<use x="417.10" y="344.00" xlink:href="#hd"/>
<path d="M420.60 344.00v-20.00" class="stroke"/>
<use x="436.90" y="344.00" xlink:href="#hd"/>
<path d="M440.40 344.00v-20.00" class="stroke"/>
<use x="458.80" y="338.00" xlink:href="#hd"/>
<path d="M455.30 338.00v21.00" class="stroke"/>
<use x="489.50" y="332.00" xlink:href="#hd"/>
<path d="M486.00 332.00v21.00" class="stroke"/>
<use x="520.20" y="338.00" xlink:href="#hd"/>
<path d="M516.70 338.00v21.00" class="stroke"/>
<path class="fill"
	d="M557.70 315.80l59.80 0.00v3.20l-59.80 -0.00"/>
<use x="554.50" y="335.00" xlink:href="#hd"/>
<path d="M558.00 335.00v-18.20" class="stroke"/>
<use x="574.20" y="350.00" xlink:href="#hd"/>
<path d="M577.70 350.00v-33.20" class="stroke"/>
<use x="594.00" y="353.00" xlink:href="#hd"/>
<path d="M597.50 353.00v-36.20" class="stroke"/>
<use x="613.70" y="338.00" xlink:href="#hd"/>
<path d="M617.20 338.00v-21.20" class="stroke"/>
<use x="635.70" y="335.00" xlink:href="#hd"/>
<path d="M632.20 335.00v21.00" class="stroke"/>
<use x="666.40" y="335.00" xlink:href="#hd"/>
<path d="M662.90 335.00v21.00" class="stroke"/>
</g>
<g stroke-width="0.70" style="font:italic 14.00px Times">
<path class="stroke" stroke-width="1"
	d="M189.40 423.00v-24.00"/>
<path class="stroke" stroke-width="1"
	d="M382.40 423.00v-24.00"/>
<path class="stroke" stroke-width="1"
	d="M524.10 423.00v-24.00"/>
<path class="stroke" stroke-width="1"
	d="M691.60 423.00v-24.00"/>
<path d="m10.00 423.00
	h681.60
	M10.00 417.00
	h681.60
	M10.00 411.00
	h681.60
	M10.00 405.00
	h681.60
	M10.00 399.00
	h681.60
	" class="stroke"/>
<use x="22.00" y="417.00" xlink:href="#tclef"/>
<use x="37.00" y="399.00" xlink:href="#sh0"/>
<use x="42.50" y="408.00" xlink:href="#sh0"/>
<use x="60.50" y="402.00" xlink:href="#hd"/>
<path d="M57.00 402.00v21.00" class="stroke"/>
<use x="96.30" y="411.00" xlink:href="#hd"/>
<path d="M92.80 411.00v21.00" class="stroke"/>
<use x="128.50" y="417.00" xlink:href="#hd"/>
<path d="M132.00 417.00v-21.00" class="stroke"/>
<use x="164.30" y="423.00" xlink:href="#hd"/>
<path d="M167.80 423.00v-21.00" class="stroke"/>
<path class="fill"
	d="M205.40 385.80l69.20 5.90v3.20l-69.20 -5.90"/>
<use x="202.20" y="405.00" xlink:href="#hd"/>
<path d="M205.70 405.00v-18.20" class="stroke"/>
<use x="225.00" y="420.00" xlink:href="#hd"/>
<path d="M228.50 420.00v-31.30" class="stroke"/>
<use x="247.90" y="414.00" xlink:href="#hd"/>
<path d="M251.40 414.00v-23.30" class="stroke"/>
<use x="270.70" y="420.00" xlink:href="#hd"/>
<path d="M274.20 420.00v-27.40" class="stroke"/>
<path class="fill"
	d="M299.20 394.40l69.20 -3.90v3.20l-69.20 3.90"/>
<use x="296.00" y="423.00" xlink:href="#hd"/>
<path d="M299.50 423.00v-27.60" class="stroke"/>
<use x="318.90" y="417.00" xlink:href="#hd"/>
<path d="M322.40 417.00v-22.90" class="stroke"/>
<use x="341.70" y="411.00" xlink:href="#hd"/>
<path d="M345.20 411.00v-18.20" class="stroke"/>
<use x="364.50" y="417.00" xlink:href="#hd"/>
<path d="M368.00 417.00v-25.50" class="stroke"/>
<use x="395.10" y="402.00" xlink:href="#hd"/>
<path d="M391.60 402.00v21.00" class="stroke"/>
<use x="430.90" y="411.00" xlink:href="#hd"/>
<path d="M427.40 411.00v21.00" class="stroke"/>
<use x="463.10" y="417.00" xlink:href="#hd"/>
<path d="M466.60 417.00v-21.00" class="stroke"/>
<use x="498.90" y="423.00" xlink:href="#hd"/>
<path d="M502.40 423.00v-21.00" class="stroke"/>
<path class="fill"
	d="M540.00 385.80l69.20 5.90v3.20l-69.20 -5.90"/>
<use x="536.80" y="405.00" xlink:href="#hd"/>
<path d="M540.30 405.00v-18.20" class="stroke"/>
<use x="559.70" y="420.00" xlink:href="#hd"/>
<path d="M563.20 420.00v-31.30" class="stroke"/>
<use x="582.50" y="414.00" xlink:href="#hd"/>
<path d="M586.00 414.00v-23.30" class="stroke"/>
<use x="605.30" y="420.00" xlink:href="#hd"/>
<path d="M608.80 420.00v-27.40" class="stroke"/>
<use x="630.70" y="423.00" xlink:href="#hd"/>
<path d="M634.20 423.00v-21.00" class="stroke"/>
<use x="666.50" y="423.00" xlink:href="#hd"/>
<path d="M670.00 423.00v-21.00" class="stroke"/>
</g>
<g stroke-width="0.70" style="font:italic 14.00px Times">
<path class="stroke" stroke-width="1"
	d="M187.50 493.00v-24.00"/>
<path class="stroke" stroke-width="1"
	d="M352.80 493.00v-24.00"/>
<path class="stroke" stroke-width="1"
	d="M522.90 493.00v-24.00"/>
<path class="stroke" stroke-width="3"
	d="M690.10 493.00v-24.00"/>
<path class="stroke" stroke-width="1"
	d="M685.60 493.00v-24.00"/>
<path d="m10.00 493.00
	h681.60
	M10.00 487.00
	h681.60
	M10.00 481.00
	h681.60
	M10.00 475.00
	h681.60
	M10.00 469.00
	h681.60
	" class="stroke"/>
<use x="22.00" y="487.00" xlink:href="#tclef"/>
<use x="37.00" y="469.00" xlink:href="#sh0"/>
<use x="42.50" y="478.00" xlink:href="#sh0"/>
<use x="60.50" y="472.00" xlink:href="#hd"/>
<path d="M57.00 472.00v21.00" class="stroke"/>
<use x="95.80" y="481.00" xlink:href="#hd"/>
<path d="M92.30 481.00v21.00" class="stroke"/>
<use x="127.50" y="487.00" xlink:href="#hd"/>
<path d="M131.00 487.00v-21.00" class="stroke"/>
<use x="162.80" y="493.00" xlink:href="#hd"/>
<path d="M166.30 493.00v-21.00" class="stroke"/>
<path class="fill"
	d="M203.30 468.80l68.20 0.00v3.20l-68.20 -0.00"/>
<use x="200.10" y="487.00" xlink:href="#hd"/>
<path d="M203.60 487.00v-17.20" class="stroke"/>
<use x="222.60" y="493.00" xlink:href="#hd"/>
<path d="M226.10 493.00v-23.20" class="stroke"/>
<use x="245.10" y="493.00" xlink:href="#hd"/>
<path d="M248.60 493.00v-23.20" class="stroke"/>
<use x="267.60" y="487.00" xlink:href="#hd"/>
<path d="M271.10 487.00v-17.20" class="stroke"/>
<use x="292.70" y="484.00" xlink:href="#hd"/>
<use x="283.70" y="484.00" xlink:href="#sh0"/>
<path d="M296.20 484.00v-21.00" class="stroke"/>
<use x="328.00" y="481.00" xlink:href="#hd"/>
<path d="M331.50 481.00v-21.00" class="stroke"/>
<path class="fill"
	d="M361.50 500.20l68.20 0.00v-3.20l-68.20 -0.00"/>
<use x="365.40" y="472.00" xlink:href="#hd"/>
<path d="M361.90 472.00v27.20" class="stroke"/>
<use x="387.90" y="481.00" xlink:href="#hd"/>
<path d="M384.40 481.00v18.20" class="stroke"/>
<use x="410.40" y="472.00" xlink:href="#hd"/>
<path d="M406.90 472.00v27.20" class="stroke"/>
<use x="432.90" y="481.00" xlink:href="#hd"/>
<path d="M429.40 481.00v18.20" class="stroke"/>
<path class="fill"
	d="M454.00 495.70l23.20 -2.40v-3.20l-23.20 2.40"/>
<use x="457.90" y="475.00" xlink:href="#hd"/>
<path d="M454.40 475.00v19.70" class="stroke"/>
<use x="480.40" y="472.00" xlink:href="#hd"/>
<path d="M476.90 472.00v20.30" class="stroke"/>
<use x="505.30" y="481.00" xlink:href="#hd"/>
<path d="M501.80 481.00v21.00" class="stroke"/>
<path class="fill"
	d="M501.80 502.00c0.6 -5.6 9.6 -9 5.6 -18.4
	1.6 6 -1.3 11.6 -5.6 12.8
"/>
<path class="fill"
	d="M538.70 468.80l68.20 0.00v3.20l-68.20 -0.00"/>
<use x="535.50" y="487.00" xlink:href="#hd"/>
<path d="M539.00 487.00v-17.20" class="stroke"/>
<use x="558.00" y="493.00" xlink:href="#hd"/>
<path d="M561.50 493.00v-23.20" class="stroke"/>
<use x="580.50" y="490.00" xlink:href="#hd"/>
<path d="M584.00 490.00v-20.20" class="stroke"/>
<use x="603.00" y="487.00" xlink:href="#hd"/>
<path d="M606.50 487.00v-17.20" class="stroke"/>
<use x="628.00" y="493.00" xlink:href="#hd"/>
<path d="M631.50 493.00v-21.00" class="stroke"/>
<use x="663.30" y="493.00" xlink:href="#hd"/>
<path d="M666.80 493.00v-21.00" class="stroke"/>
</g>
</svg>
