<?xml version="1.0" standalone="no"?>
<!DOCTYPE svg PUBLIC "-//W3C//DTD SVG 1.1//EN"
	"http://www.w3.org/Graphics/SVG/1.1/DTD/svg11.dtd">
<svg xmlns="http://www.w3.org/2000/svg" version="1.1"
	xmlns:xlink="http://www.w3.org/1999/xlink"
	color="black"
	width="701.60px" height="166.00px">
<style type="text/css">
.fill {fill: currentColor}
.stroke {stroke: currentColor; fill: none}
text{white-space: pre}
</style>
<title>/media/tim/Data1/tims_code/sphinx-tunes/source/_abcfiles/_Devon.abc (1) tune 1</title>
<!-- Creator: abcm2ps-8.14.6 -->
<!-- CreationDate: Jul 30, 2023 12:21 -->
<!-- CommandLine: -g /media/tim/Data1/tims_code/sphinx-tunes/source/_abcfiles/_Devon.abc -O /media/tim/Data1/tims_code/sphinx-tunes/source/_abcfiles/_Devon.svg -->
<g stroke-width="0.70" style="font:italic 14.00px Times">
<text x="691.60" y="20.00" text-anchor="end">Jackie Tolliday-Bailey</text>
</g>
<g stroke-width="0.70" style="font:italic 14.00px Times">
<path class="stroke" stroke-width="1"
	d="M92.60 73.00v-24.00"/>
<path class="stroke" stroke-width="1"
	d="M173.00 73.00v-24.00"/>
<path class="stroke" stroke-width="1"
	d="M253.30 73.00v-24.00"/>
<path class="stroke" stroke-width="1"
	d="M333.60 73.00v-24.00"/>
<path class="stroke" stroke-width="1"
	d="M413.90 73.00v-24.00"/>
<path class="stroke" stroke-width="1"
	d="M494.30 73.00v-24.00"/>
<path class="stroke" stroke-width="1"
	d="M550.40 73.00v-24.00"/>
<path class="stroke" stroke-width="1"
	d="M628.60 73.00v-24.00"/>
<path class="stroke" stroke-width="1"
	d="M691.60 73.00v-24.00"/>
<path class="stroke" stroke-width="1"
	d="M688.60 73.00v-24.00"/>
<path d="m10.00 73.00
	h681.60
	M10.00 67.00
	h681.60
	M10.00 61.00
	h681.60
	M10.00 55.00
	h681.60
	M10.00 49.00
	h681.60
	" class="stroke"/>
<defs>
<path id="utclef" class="fill" d="m-50 -90
	c-72 -41 -72 -158 52 -188
	150 -10 220 188 90 256
	-114 52 -275 0 -293 -136
	-15 -181 93 -229 220 -334
	88 -87 79 -133 62 -210
	-51 33 -94 105 -89 186
	17 267 36 374 49 574
	6 96 -19 134 -77 135
	-80 1 -126 -93 -61 -133
	85 -41 133 101 31 105
	23 17 92 37 90 -92
	-10 -223 -39 -342 -50 -617
	0 -90 0 -162 96 -232
	56 72 63 230 22 289
	-74 106 -257 168 -255 316
	9 153 148 185 252 133
	86 -65 29 -192 -80 -176
	-71 12 -105 67 -59 124"/>
<use id="tclef" transform="translate(0,6) scale(0.045)"
	xlink:href="#utclef"/>
</defs>
<use x="22.00" y="67.00" xlink:href="#tclef"/>
<defs>
<path id="usharp" class="fill" d="
	m136 -702
	v890
	h32
	v-890
	m128 840
	h32
	v-888
	h-32
	m-232 286
	v116
	l338 -96
	v-116
	m-338 442
	v116
	l338 -98
	v-114"/>
<use id="sh0" transform="translate(-4,5) scale(0.018)"
	xlink:href="#usharp"/>
</defs>
<use x="37.00" y="49.00" xlink:href="#sh0"/>
<g style="font:bold 16px serif"
	transform="translate(53.00,72.50) scale(1.2,1)">
	<text text-anchor="middle">4</text>
	<text y="-12" text-anchor="middle">4</text>
</g>
<path class="fill"
	d="M74.20 46.50l9.80 1.90v3.20l-9.80 -1.90"/>
<defs>
<ellipse id="hd" rx="4.1" ry="2.9"
	transform="rotate(-20)" class="fill"/>
</defs>
<use x="71.00" y="67.00" xlink:href="#hd"/>
<path d="M74.50 67.00v-19.40" class="stroke"/>
<use x="80.10" y="70.00" xlink:href="#hd"/>
<path d="M83.60 70.00v-20.60" class="stroke"/>
<use x="105.10" y="73.00" xlink:href="#hd"/>
<path d="M108.60 73.00v-21.00" class="stroke"/>
<path class="fill"
	d="M117.90 51.50l9.80 -1.90v3.20l-9.80 1.90"/>
<use x="114.70" y="73.00" xlink:href="#hd"/>
<path d="M118.20 73.00v-20.60" class="stroke"/>
<use x="123.90" y="70.00" xlink:href="#hd"/>
<path d="M127.40 70.00v-19.40" class="stroke"/>
<path class="fill"
	d="M136.20 46.00l28.10 0.00v3.20l-28.10 -0.00"/>
<use x="133.10" y="67.00" xlink:href="#hd"/>
<path d="M136.60 67.00v-20.00" class="stroke"/>
<use x="142.20" y="70.00" xlink:href="#hd"/>
<path d="M145.70 70.00v-23.00" class="stroke"/>
<use x="151.30" y="67.00" xlink:href="#hd"/>
<path d="M154.80 67.00v-20.00" class="stroke"/>
<use x="160.50" y="64.00" xlink:href="#hd"/>
<path d="M164.00 64.00v-17.00" class="stroke"/>
<path class="fill"
	d="M188.60 37.50l28.10 4.00v3.20l-28.10 -4.00"/>
<use x="185.50" y="61.00" xlink:href="#hd"/>
<path d="M189.00 61.00v-22.50" class="stroke"/>
<use x="194.60" y="58.00" xlink:href="#hd"/>
<path d="M198.10 58.00v-18.20" class="stroke"/>
<use x="203.70" y="61.00" xlink:href="#hd"/>
<path d="M207.20 61.00v-19.90" class="stroke"/>
<use x="212.80" y="70.00" xlink:href="#hd"/>
<path d="M216.30 70.00v-27.60" class="stroke"/>
<use x="222.10" y="73.00" xlink:href="#hd"/>
<path d="M225.60 73.00v-21.00" class="stroke"/>
<path class="fill"
	d="M234.80 47.60l9.80 2.80v3.20l-9.80 -2.80"/>
<use x="231.70" y="67.00" xlink:href="#hd"/>
<path d="M235.20 67.00v-18.30" class="stroke"/>
<use x="240.80" y="73.00" xlink:href="#hd"/>
<path d="M244.30 73.00v-21.70" class="stroke"/>
<use x="265.80" y="70.00" xlink:href="#hd"/>
<path d="M269.30 70.00v-21.00" class="stroke"/>
<path class="fill"
	d="M278.50 48.50l9.80 -1.90v3.20l-9.80 1.90"/>
<use x="275.40" y="70.00" xlink:href="#hd"/>
<path d="M278.90 70.00v-20.60" class="stroke"/>
<use x="284.50" y="67.00" xlink:href="#hd"/>
<path d="M288.00 67.00v-19.40" class="stroke"/>
<path class="fill"
	d="M296.90 46.00l28.10 0.00v3.20l-28.10 -0.00"/>
<use x="293.70" y="64.00" xlink:href="#hd"/>
<path d="M297.20 64.00v-17.00" class="stroke"/>
<use x="302.90" y="70.00" xlink:href="#hd"/>
<path d="M306.40 70.00v-23.00" class="stroke"/>
<use x="312.00" y="76.00" xlink:href="#hd"/>
<path d="M315.50 76.00v-29.00" class="stroke"/>
<use x="321.10" y="70.00" xlink:href="#hd"/>
<path d="M324.60 70.00v-23.00" class="stroke"/>
<path class="fill"
	d="M349.30 44.70l28.10 5.60v3.20l-28.10 -5.60"/>
<use x="346.10" y="64.00" xlink:href="#hd"/>
<path d="M349.60 64.00v-18.20" class="stroke"/>
<use x="355.20" y="67.00" xlink:href="#hd"/>
<path d="M358.70 67.00v-19.40" class="stroke"/>
<use x="364.40" y="70.00" xlink:href="#hd"/>
<path d="M367.90 70.00v-20.60" class="stroke"/>
<use x="373.50" y="73.00" xlink:href="#hd"/>
<path d="M377.00 73.00v-21.80" class="stroke"/>
<use x="382.70" y="76.00" xlink:href="#hd"/>
<path d="M386.20 76.00v-21.00" class="stroke"/>
<path class="fill"
	d="M395.50 46.50l9.80 1.90v3.20l-9.80 -1.90"/>
<use x="392.30" y="67.00" xlink:href="#hd"/>
<path d="M395.80 67.00v-19.40" class="stroke"/>
<use x="401.40" y="70.00" xlink:href="#hd"/>
<path d="M404.90 70.00v-20.60" class="stroke"/>
<use x="426.40" y="73.00" xlink:href="#hd"/>
<path d="M429.90 73.00v-21.00" class="stroke"/>
<path class="fill"
	d="M439.20 51.50l9.80 -1.90v3.20l-9.80 1.90"/>
<use x="436.00" y="73.00" xlink:href="#hd"/>
<path d="M439.50 73.00v-20.60" class="stroke"/>
<use x="445.20" y="70.00" xlink:href="#hd"/>
<path d="M448.70 70.00v-19.40" class="stroke"/>
<path class="fill"
	d="M457.50 46.00l28.10 0.00v3.20l-28.10 -0.00"/>
<use x="454.40" y="67.00" xlink:href="#hd"/>
<path d="M457.90 67.00v-20.00" class="stroke"/>
<use x="463.50" y="70.00" xlink:href="#hd"/>
<path d="M467.00 70.00v-23.00" class="stroke"/>
<use x="472.60" y="67.00" xlink:href="#hd"/>
<path d="M476.10 67.00v-20.00" class="stroke"/>
<use x="481.80" y="64.00" xlink:href="#hd"/>
<path d="M485.30 64.00v-17.00" class="stroke"/>
<use x="506.80" y="61.00" xlink:href="#hd"/>
<path d="M510.30 61.00v-21.00" class="stroke"/>
<use x="518.70" y="52.00" xlink:href="#hd"/>
<path d="M515.20 52.00v21.00" class="stroke"/>
<use x="528.30" y="52.00" xlink:href="#hd"/>
<path d="M524.80 52.00v21.00" class="stroke"/>
<use x="537.90" y="61.00" xlink:href="#hd"/>
<path d="M534.40 61.00v21.00" class="stroke"/>
<use x="562.90" y="58.00" xlink:href="#hd"/>
<circle class="fill" cx="570.60" cy="58.00" r="1.2"/>
<path d="M559.40 58.00v21.00" class="stroke"/>
<use x="579.60" y="61.00" xlink:href="#hd"/>
<path d="M576.10 61.00v21.00" class="stroke"/>
<path class="fill"
	d="M576.10 82.00c0.6 -5.6 9.6 -9 5.6 -18.4
	1.6 6 -1.3 11.6 -5.6 12.8
"/>
<path class="fill"
	d="M591.90 44.70l28.10 4.80v3.20l-28.10 -4.80"/>
<use x="588.70" y="64.00" xlink:href="#hd"/>
<path d="M592.20 64.00v-18.20" class="stroke"/>
<use x="597.80" y="67.00" xlink:href="#hd"/>
<path d="M601.30 67.00v-19.70" class="stroke"/>
<use x="607.00" y="70.00" xlink:href="#hd"/>
<path d="M610.50 70.00v-21.10" class="stroke"/>
<use x="616.10" y="76.00" xlink:href="#hd"/>
<path d="M619.60 76.00v-25.60" class="stroke"/>
<path class="fill"
	d="M644.20 48.80l28.10 0.00v3.20l-28.10 -0.00"/>
<use x="641.10" y="73.00" xlink:href="#hd"/>
<path d="M644.60 73.00v-23.20" class="stroke"/>
<use x="650.20" y="70.00" xlink:href="#hd"/>
<path d="M653.70 70.00v-20.20" class="stroke"/>
<use x="659.30" y="67.00" xlink:href="#hd"/>
<path d="M662.80 67.00v-17.20" class="stroke"/>
<use x="668.50" y="70.00" xlink:href="#hd"/>
<path d="M672.00 70.00v-20.20" class="stroke"/>
<defs>
<path id="Hd" class="fill" d="m3 -1.6
	c-1 -1.8 -7 1.4 -6 3.2
	1 1.8 7 -1.4 6 -3.2
	m0.5 -0.3
	c2 3.8 -5 7.6 -7 3.8
	-2 -3.8 5 -7.6 7 -3.8"/>
</defs>
<use x="678.10" y="73.00" xlink:href="#Hd"/>
<path d="M681.60 73.00v-21.00" class="stroke"/>
</g>
<g stroke-width="0.70" style="font:italic 14.00px Times">
<path class="stroke" stroke-width="1"
	d="M129.70 143.00v-24.00"/>
<path class="stroke" stroke-width="1"
	d="M213.10 143.00v-24.00"/>
<path class="stroke" stroke-width="1"
	d="M300.80 143.00v-24.00"/>
<path class="stroke" stroke-width="1"
	d="M373.20 143.00v-24.00"/>
<path class="stroke" stroke-width="1"
	d="M460.40 143.00v-24.00"/>
<path class="stroke" stroke-width="1"
	d="M543.70 143.00v-24.00"/>
<path class="stroke" stroke-width="1"
	d="M616.40 143.00v-24.00"/>
<path class="stroke" stroke-width="3"
	d="M690.10 143.00v-24.00"/>
<path class="stroke" stroke-width="1"
	d="M685.60 143.00v-24.00"/>
<path d="m10.00 143.00
	h681.60
	M10.00 137.00
	h681.60
	M10.00 131.00
	h681.60
	M10.00 125.00
	h681.60
	M10.00 119.00
	h681.60
	" class="stroke"/>
<use x="22.00" y="137.00" xlink:href="#tclef"/>
<use x="37.00" y="119.00" xlink:href="#sh0"/>
<use x="55.00" y="131.00" xlink:href="#hd"/>
<path d="M58.50 131.00v-21.00" class="stroke"/>
<use x="70.60" y="122.00" xlink:href="#hd"/>
<path d="M67.10 122.00v21.00" class="stroke"/>
<path class="fill"
	d="M81.30 140.00l32.70 0.00v-3.20l-32.70 -0.00"/>
<use x="85.10" y="122.00" xlink:href="#hd"/>
<path d="M81.60 122.00v17.00" class="stroke"/>
<use x="95.80" y="119.00" xlink:href="#hd"/>
<path d="M92.30 119.00v20.00" class="stroke"/>
<use x="106.50" y="116.00" xlink:href="#hd"/>
<path d="M103.00 116.00v23.00" class="stroke"/>
<use x="117.20" y="119.00" xlink:href="#hd"/>
<path d="M113.70 119.00v20.00" class="stroke"/>
<path class="fill"
	d="M138.30 143.20l32.70 0.00v-3.20l-32.70 -0.00"/>
<use x="142.20" y="122.00" xlink:href="#hd"/>
<path d="M138.70 122.00v20.20" class="stroke"/>
<use x="152.90" y="119.00" xlink:href="#hd"/>
<path d="M149.40 119.00v23.20" class="stroke"/>
<use x="163.50" y="122.00" xlink:href="#hd"/>
<path d="M160.00 122.00v20.20" class="stroke"/>
<use x="174.20" y="125.00" xlink:href="#hd"/>
<path d="M170.70 125.00v17.20" class="stroke"/>
<use x="185.70" y="131.00" xlink:href="#hd"/>
<path d="M182.20 131.00v21.00" class="stroke"/>
<use x="200.20" y="131.00" xlink:href="#hd"/>
<path d="M196.70 131.00v21.00" class="stroke"/>
<use x="225.60" y="128.00" xlink:href="#hd"/>
<circle class="fill" cx="233.30" cy="128.00" r="1.2"/>
<path d="M222.10 128.00v21.00" class="stroke"/>
<use x="244.80" y="131.00" xlink:href="#hd"/>
<path d="M241.30 131.00v21.00" class="stroke"/>
<path class="fill"
	d="M241.30 152.00c0.6 -5.6 9.6 -9 5.6 -18.4
	1.6 6 -1.3 11.6 -5.6 12.8
"/>
<path class="fill"
	d="M252.40 153.20l32.70 0.00v-3.20l-32.70 -0.00"/>
<use x="256.30" y="134.00" xlink:href="#hd"/>
<path d="M252.80 134.00v18.20" class="stroke"/>
<use x="266.90" y="131.00" xlink:href="#hd"/>
<path d="M263.40 131.00v21.20" class="stroke"/>
<use x="277.60" y="128.00" xlink:href="#hd"/>
<path d="M274.10 128.00v24.20" class="stroke"/>
<use x="288.30" y="134.00" xlink:href="#hd"/>
<path d="M284.80 134.00v18.20" class="stroke"/>
<path class="fill"
	d="M316.50 108.80l32.70 0.00v3.20l-32.70 -0.00"/>
<use x="313.30" y="131.00" xlink:href="#hd"/>
<path d="M316.80 131.00v-21.20" class="stroke"/>
<use x="324.00" y="128.00" xlink:href="#hd"/>
<path d="M327.50 128.00v-18.20" class="stroke"/>
<use x="334.70" y="131.00" xlink:href="#hd"/>
<path d="M338.20 131.00v-21.20" class="stroke"/>
<use x="345.40" y="137.00" xlink:href="#hd"/>
<path d="M348.90 137.00v-27.20" class="stroke"/>
<use x="357.00" y="143.00" xlink:href="#Hd"/>
<path d="M360.50 143.00v-21.00" class="stroke"/>
<use x="385.70" y="131.00" xlink:href="#hd"/>
<path d="M389.20 131.00v-21.00" class="stroke"/>
<use x="401.30" y="122.00" xlink:href="#hd"/>
<path d="M397.80 122.00v21.00" class="stroke"/>
<path class="fill"
	d="M412.00 140.00l32.70 0.00v-3.20l-32.70 -0.00"/>
<use x="415.80" y="122.00" xlink:href="#hd"/>
<path d="M412.30 122.00v17.00" class="stroke"/>
<use x="426.50" y="119.00" xlink:href="#hd"/>
<path d="M423.00 119.00v20.00" class="stroke"/>
<use x="437.20" y="116.00" xlink:href="#hd"/>
<path d="M433.70 116.00v23.00" class="stroke"/>
<use x="447.90" y="119.00" xlink:href="#hd"/>
<path d="M444.40 119.00v20.00" class="stroke"/>
<path class="fill"
	d="M469.00 143.20l32.70 0.00v-3.20l-32.70 -0.00"/>
<use x="472.90" y="122.00" xlink:href="#hd"/>
<path d="M469.40 122.00v20.20" class="stroke"/>
<use x="483.50" y="119.00" xlink:href="#hd"/>
<path d="M480.00 119.00v23.20" class="stroke"/>
<use x="494.20" y="122.00" xlink:href="#hd"/>
<path d="M490.70 122.00v20.20" class="stroke"/>
<use x="504.90" y="125.00" xlink:href="#hd"/>
<path d="M501.40 125.00v17.20" class="stroke"/>
<use x="516.30" y="131.00" xlink:href="#hd"/>
<path d="M512.80 131.00v21.00" class="stroke"/>
<use x="530.90" y="131.00" xlink:href="#hd"/>
<path d="M527.40 131.00v21.00" class="stroke"/>
<use x="556.20" y="134.00" xlink:href="#hd"/>
<circle class="fill" cx="563.90" cy="134.00" r="1.2"/>
<path d="M559.70 134.00v-21.00" class="stroke"/>
<use x="575.50" y="137.00" xlink:href="#hd"/>
<path d="M579.00 137.00v-21.00" class="stroke"/>
<path class="fill"
	d="M579.00 116.00c0.6 5.6 9.6 9 5.6 18.4
	1.6 -6 -1.3 -11.6 -5.6 -12.8
"/>
<use x="589.00" y="140.00" xlink:href="#hd"/>
<path d="M592.50 140.00v-21.00" class="stroke"/>
<use x="603.50" y="146.00" xlink:href="#hd"/>
<path d="M607.00 146.00v-21.00" class="stroke"/>
<path class="fill"
	d="M632.10 118.80l32.70 0.00v3.20l-32.70 -0.00"/>
<use x="628.90" y="143.00" xlink:href="#hd"/>
<path d="M632.40 143.00v-23.20" class="stroke"/>
<use x="639.60" y="140.00" xlink:href="#hd"/>
<path d="M643.10 140.00v-20.20" class="stroke"/>
<use x="650.30" y="137.00" xlink:href="#hd"/>
<path d="M653.80 137.00v-17.20" class="stroke"/>
<use x="661.00" y="140.00" xlink:href="#hd"/>
<path d="M664.50 140.00v-20.20" class="stroke"/>
<use x="672.60" y="143.00" xlink:href="#Hd"/>
<path d="M676.10 143.00v-21.00" class="stroke"/>
</g>
</svg>
