<?xml version="1.0" standalone="no"?>
<!DOCTYPE svg PUBLIC "-//W3C//DTD SVG 1.1//EN"
	"http://www.w3.org/Graphics/SVG/1.1/DTD/svg11.dtd">
<svg xmlns="http://www.w3.org/2000/svg" version="1.1"
	xmlns:xlink="http://www.w3.org/1999/xlink"
	color="black"
	width="738.20px" height="292.00px">
<style type="text/css">
.fill {fill: currentColor}
.stroke {stroke: currentColor; fill: none}
text{white-space: pre}
</style>
<title>/media/tim/Data1/tims_code/sphinx-tunes/source/_abcfiles/_Enrico.abc (2) tune 2</title>
<!-- Creator: abcm2ps-8.14.6 -->
<!-- CreationDate: Jul 30, 2023 12:21 -->
<!-- CommandLine: -g /media/tim/Data1/tims_code/sphinx-tunes/source/_abcfiles/_Enrico.abc -O /media/tim/Data1/tims_code/sphinx-tunes/source/_abcfiles/_Enrico.svg -->
<g stroke-width="0.70">
<defs>
<g id="rdots" class="fill">
	<circle cx="0" cy="-9" r="1.2"/>
	<circle cx="0" cy="-15" r="1.2"/>
</g>
</defs>
<use x="87.00" y="59.00" xlink:href="#rdots"/>
<path class="stroke" stroke-width="1"
	d="M83.00 59.00v-24.00"/>
<path class="stroke" stroke-width="3"
	d="M78.50 59.00v-24.00"/>
<path class="stroke" stroke-width="1"
	d="M135.80 59.00v-24.00"/>
<path class="stroke" stroke-width="1"
	d="M286.10 59.00v-24.00"/>
<path class="stroke" stroke-width="1"
	d="M431.70 59.00v-24.00"/>
<path class="stroke" stroke-width="1"
	d="M571.20 59.00v-24.00"/>
<path class="stroke" stroke-width="1"
	d="M728.20 59.00v-24.00"/>
<path d="m10.00 59.00
	h718.20
	M10.00 53.00
	h718.20
	M10.00 47.00
	h718.20
	M10.00 41.00
	h718.20
	M10.00 35.00
	h718.20
	" class="stroke"/>
<defs>
<path id="utclef" class="fill" d="m-50 -90
	c-72 -41 -72 -158 52 -188
	150 -10 220 188 90 256
	-114 52 -275 0 -293 -136
	-15 -181 93 -229 220 -334
	88 -87 79 -133 62 -210
	-51 33 -94 105 -89 186
	17 267 36 374 49 574
	6 96 -19 134 -77 135
	-80 1 -126 -93 -61 -133
	85 -41 133 101 31 105
	23 17 92 37 90 -92
	-10 -223 -39 -342 -50 -617
	0 -90 0 -162 96 -232
	56 72 63 230 22 289
	-74 106 -257 168 -255 316
	9 153 148 185 252 133
	86 -65 29 -192 -80 -176
	-71 12 -105 67 -59 124"/>
<use id="tclef" transform="translate(0,6) scale(0.045)"
	xlink:href="#utclef"/>
</defs>
<use x="22.00" y="53.00" xlink:href="#tclef"/>
<defs>
<path id="usharp" class="fill" d="
	m136 -702
	v890
	h32
	v-890
	m128 840
	h32
	v-888
	h-32
	m-232 286
	v116
	l338 -96
	v-116
	m-338 442
	v116
	l338 -98
	v-114"/>
<use id="sh0" transform="translate(-4,5) scale(0.018)"
	xlink:href="#usharp"/>
</defs>
<use x="37.00" y="35.00" xlink:href="#sh0"/>
<use x="42.50" y="44.00" xlink:href="#sh0"/>
<g style="font:bold 16px serif"
	transform="translate(58.50,58.50) scale(1.2,1)">
	<text text-anchor="middle">4</text>
	<text y="-12" text-anchor="middle">4</text>
</g>
<path class="fill"
	d="M103.70 29.30l20.30 2.40v3.20l-20.30 -2.40"/>
<defs>
<ellipse id="hd" rx="4.1" ry="2.9"
	transform="rotate(-20)" class="fill"/>
</defs>
<use x="100.50" y="50.00" xlink:href="#hd"/>
<path d="M104.00 50.00v-19.60" class="stroke"/>
<use x="120.20" y="53.00" xlink:href="#hd"/>
<path d="M123.70 53.00v-20.40" class="stroke"/>
<use x="148.30" y="56.00" xlink:href="#hd"/>
<path d="M151.80 56.00v-21.00" class="stroke"/>
<path class="fill"
	d="M182.00 30.10l20.30 3.90v3.20l-20.30 -3.90"/>
<use x="178.80" y="50.00" xlink:href="#hd"/>
<path d="M182.30 50.00v-18.90" class="stroke"/>
<use x="198.50" y="56.00" xlink:href="#hd"/>
<path d="M202.00 56.00v-21.10" class="stroke"/>
<use x="220.30" y="59.00" xlink:href="#hd"/>
<path d="M223.80 59.00v-21.00" class="stroke"/>
<path class="fill"
	d="M254.00 29.30l20.30 2.40v3.20l-20.30 -2.40"/>
<use x="250.80" y="50.00" xlink:href="#hd"/>
<path d="M254.30 50.00v-19.60" class="stroke"/>
<use x="270.50" y="53.00" xlink:href="#hd"/>
<path d="M274.00 53.00v-20.40" class="stroke"/>
<path class="fill"
	d="M301.80 34.80l59.60 0.00v3.20l-59.60 -0.00"/>
<use x="298.60" y="56.00" xlink:href="#hd"/>
<path d="M302.10 56.00v-20.20" class="stroke"/>
<use x="318.30" y="53.00" xlink:href="#hd"/>
<path d="M321.80 53.00v-17.20" class="stroke"/>
<use x="337.90" y="59.00" xlink:href="#hd"/>
<path d="M341.40 59.00v-23.20" class="stroke"/>
<use x="357.60" y="56.00" xlink:href="#hd"/>
<path d="M361.10 56.00v-20.20" class="stroke"/>
<use x="379.30" y="62.00" xlink:href="#hd"/>
<path d="M382.80 62.00v-21.00" class="stroke"/>
<use x="409.90" y="50.00" xlink:href="#hd"/>
<path d="M413.40 50.00v-21.00" class="stroke"/>
<use x="444.20" y="47.00" xlink:href="#hd"/>
<path d="M447.70 47.00v-21.00" class="stroke"/>
<use x="474.90" y="44.00" xlink:href="#hd"/>
<path d="M471.40 44.00v21.00" class="stroke"/>
<use x="505.40" y="41.00" xlink:href="#hd"/>
<path d="M501.90 41.00v21.00" class="stroke"/>
<path class="fill"
	d="M532.10 59.30l20.30 2.40v-3.20l-20.30 -2.40"/>
<use x="536.00" y="38.00" xlink:href="#hd"/>
<path d="M532.50 38.00v20.40" class="stroke"/>
<use x="555.60" y="41.00" xlink:href="#hd"/>
<path d="M552.10 41.00v19.60" class="stroke"/>
<path class="fill"
	d="M579.90 66.20l59.60 0.00v-3.20l-59.60 -0.00"/>
<use x="583.70" y="44.00" xlink:href="#hd"/>
<path d="M580.20 44.00v21.20" class="stroke"/>
<use x="603.40" y="41.00" xlink:href="#hd"/>
<path d="M599.90 41.00v24.20" class="stroke"/>
<use x="623.10" y="47.00" xlink:href="#hd"/>
<path d="M619.60 47.00v18.20" class="stroke"/>
<use x="642.70" y="44.00" xlink:href="#hd"/>
<path d="M639.20 44.00v21.20" class="stroke"/>
<use x="662.40" y="50.00" xlink:href="#hd"/>
<path d="M665.90 50.00v-21.00" class="stroke"/>
<path class="fill"
	d="M696.10 29.30l20.30 2.40v3.20l-20.30 -2.40"/>
<use x="692.90" y="50.00" xlink:href="#hd"/>
<path d="M696.40 50.00v-19.60" class="stroke"/>
<use x="712.60" y="53.00" xlink:href="#hd"/>
<path d="M716.10 53.00v-20.40" class="stroke"/>
</g>
<g stroke-width="0.70">
<path class="stroke" stroke-width="1"
	d="M226.20 129.00v-24.00"/>
<path class="stroke" stroke-width="1"
	d="M399.30 129.00v-24.00"/>
<path class="stroke" stroke-width="1"
	d="M598.50 129.00v-24.00"/>
<path class="stroke" stroke-width="3"
	d="M726.70 129.00v-24.00"/>
<path class="stroke" stroke-width="1"
	d="M722.20 129.00v-24.00"/>
<use x="718.20" y="129.00" xlink:href="#rdots"/>
<path d="m10.00 129.00
	h718.20
	M10.00 123.00
	h718.20
	M10.00 117.00
	h718.20
	M10.00 111.00
	h718.20
	M10.00 105.00
	h718.20
	" class="stroke"/>
<use x="22.00" y="123.00" xlink:href="#tclef"/>
<use x="37.00" y="105.00" xlink:href="#sh0"/>
<use x="42.50" y="114.00" xlink:href="#sh0"/>
<use x="60.50" y="126.00" xlink:href="#hd"/>
<path d="M64.00 126.00v-21.00" class="stroke"/>
<path class="fill"
	d="M100.60 100.00l24.30 4.10v3.20l-24.30 -4.10"/>
<use x="97.50" y="120.00" xlink:href="#hd"/>
<path d="M101.00 120.00v-19.00" class="stroke"/>
<use x="121.10" y="126.00" xlink:href="#hd"/>
<path d="M124.60 126.00v-21.00" class="stroke"/>
<use x="147.30" y="129.00" xlink:href="#hd"/>
<path d="M150.80 129.00v-21.00" class="stroke"/>
<path class="fill"
	d="M187.40 99.30l24.30 2.50v3.20l-24.30 -2.50"/>
<use x="184.20" y="120.00" xlink:href="#hd"/>
<path d="M187.70 120.00v-19.70" class="stroke"/>
<use x="207.80" y="123.00" xlink:href="#hd"/>
<path d="M211.30 123.00v-20.30" class="stroke"/>
<path class="fill"
	d="M242.50 104.80l71.40 0.00v3.20l-71.40 -0.00"/>
<use x="239.40" y="126.00" xlink:href="#hd"/>
<path d="M242.90 126.00v-20.20" class="stroke"/>
<use x="263.00" y="123.00" xlink:href="#hd"/>
<path d="M266.50 123.00v-17.20" class="stroke"/>
<use x="286.50" y="129.00" xlink:href="#hd"/>
<path d="M290.00 129.00v-23.20" class="stroke"/>
<use x="310.10" y="126.00" xlink:href="#hd"/>
<path d="M313.60 126.00v-20.20" class="stroke"/>
<use x="336.30" y="132.00" xlink:href="#hd"/>
<path d="M339.80 132.00v-21.00" class="stroke"/>
<use x="373.30" y="120.00" xlink:href="#hd"/>
<path d="M376.80 120.00v-21.00" class="stroke"/>
<path class="fill"
	d="M408.60 137.10l71.40 -7.20v-3.20l-71.40 7.20"/>
<use x="412.40" y="117.00" xlink:href="#hd"/>
<path d="M408.90 117.00v19.10" class="stroke"/>
<use x="436.00" y="114.00" xlink:href="#hd"/>
<path d="M432.50 114.00v19.70" class="stroke"/>
<use x="459.60" y="111.00" xlink:href="#hd"/>
<path d="M456.10 111.00v20.30" class="stroke"/>
<use x="483.20" y="108.00" xlink:href="#hd"/>
<path d="M479.70 108.00v20.90" class="stroke"/>
<path class="fill"
	d="M505.50 126.90l71.40 7.20v-3.20l-71.40 -7.20"/>
<use x="509.40" y="105.00" xlink:href="#hd"/>
<path d="M505.90 105.00v20.90" class="stroke"/>
<use x="532.90" y="108.00" xlink:href="#hd"/>
<path d="M529.40 108.00v20.30" class="stroke"/>
<use x="556.50" y="111.00" xlink:href="#hd"/>
<path d="M553.00 111.00v19.70" class="stroke"/>
<use x="580.10" y="114.00" xlink:href="#hd"/>
<path d="M576.60 114.00v19.10" class="stroke"/>
<use x="611.70" y="111.00" xlink:href="#hd"/>
<path d="M608.20 111.00v21.00" class="stroke"/>
<path class="fill"
	d="M644.80 132.30l24.30 2.50v-3.20l-24.30 -2.50"/>
<use x="648.60" y="111.00" xlink:href="#hd"/>
<path d="M645.10 111.00v20.30" class="stroke"/>
<use x="672.20" y="114.00" xlink:href="#hd"/>
<path d="M668.70 114.00v19.70" class="stroke"/>
<use x="698.40" y="111.00" xlink:href="#hd"/>
<path d="M694.90 111.00v21.00" class="stroke"/>
</g>
<g stroke-width="0.70">
<use x="67.00" y="199.00" xlink:href="#rdots"/>
<path class="stroke" stroke-width="1"
	d="M63.00 199.00v-24.00"/>
<path class="stroke" stroke-width="3"
	d="M58.50 199.00v-24.00"/>
<path class="stroke" stroke-width="1"
	d="M95.30 199.00v-24.00"/>
<path class="stroke" stroke-width="1"
	d="M253.50 199.00v-24.00"/>
<path class="stroke" stroke-width="1"
	d="M411.70 199.00v-24.00"/>
<path class="stroke" stroke-width="1"
	d="M570.00 199.00v-24.00"/>
<path class="stroke" stroke-width="1"
	d="M728.20 199.00v-24.00"/>
<path d="m10.00 199.00
	h718.20
	M10.00 193.00
	h718.20
	M10.00 187.00
	h718.20
	M10.00 181.00
	h718.20
	M10.00 175.00
	h718.20
	" class="stroke"/>
<use x="22.00" y="193.00" xlink:href="#tclef"/>
<use x="37.00" y="175.00" xlink:href="#sh0"/>
<use x="42.50" y="184.00" xlink:href="#sh0"/>
<use x="80.50" y="178.00" xlink:href="#hd"/>
<path d="M77.00 178.00v21.00" class="stroke"/>
<path class="fill"
	d="M77.00 199.00c0.6 -5.6 9.6 -9 5.6 -18.4
	1.6 6 -1.3 11.6 -5.6 12.8
"/>
<path class="fill"
	d="M103.90 193.20l56.00 0.00v-3.20l-56.00 -0.00"/>
<use x="107.80" y="175.00" xlink:href="#hd"/>
<path d="M104.30 175.00v17.20" class="stroke"/>
<use x="126.20" y="172.00" xlink:href="#hd"/>
<path d="M122.70 172.00v20.20" class="stroke"/>
<use x="144.60" y="175.00" xlink:href="#hd"/>
<path d="M141.10 175.00v17.20" class="stroke"/>
<use x="163.00" y="172.00" xlink:href="#hd"/>
<path d="M159.50 172.00v20.20" class="stroke"/>
<path class="fill"
	d="M179.60 196.00l56.00 0.00v-3.20l-56.00 -0.00"/>
<use x="183.40" y="178.00" xlink:href="#hd"/>
<path d="M179.90 178.00v17.00" class="stroke"/>
<use x="201.90" y="175.00" xlink:href="#hd"/>
<path d="M198.40 175.00v20.00" class="stroke"/>
<use x="220.30" y="178.00" xlink:href="#hd"/>
<path d="M216.80 178.00v17.00" class="stroke"/>
<use x="238.70" y="175.00" xlink:href="#hd"/>
<path d="M235.20 175.00v20.00" class="stroke"/>
<path class="fill"
	d="M262.20 193.20l56.00 0.00v-3.20l-56.00 -0.00"/>
<use x="266.00" y="175.00" xlink:href="#hd"/>
<path d="M262.50 175.00v17.20" class="stroke"/>
<use x="284.40" y="172.00" xlink:href="#hd"/>
<path d="M280.90 172.00v20.20" class="stroke"/>
<use x="302.90" y="175.00" xlink:href="#hd"/>
<path d="M299.40 175.00v17.20" class="stroke"/>
<use x="321.30" y="172.00" xlink:href="#hd"/>
<path d="M317.80 172.00v20.20" class="stroke"/>
<path class="fill"
	d="M337.80 196.00l56.00 0.00v-3.20l-56.00 -0.00"/>
<use x="341.70" y="178.00" xlink:href="#hd"/>
<path d="M338.20 178.00v17.00" class="stroke"/>
<use x="360.10" y="175.00" xlink:href="#hd"/>
<path d="M356.60 175.00v20.00" class="stroke"/>
<use x="378.50" y="178.00" xlink:href="#hd"/>
<path d="M375.00 178.00v17.00" class="stroke"/>
<use x="397.00" y="175.00" xlink:href="#hd"/>
<path d="M393.50 175.00v20.00" class="stroke"/>
<path class="fill"
	d="M420.40 199.20l56.00 0.00v-3.20l-56.00 -0.00"/>
<use x="424.20" y="181.00" xlink:href="#hd"/>
<path d="M420.70 181.00v17.20" class="stroke"/>
<use x="442.70" y="178.00" xlink:href="#hd"/>
<path d="M439.20 178.00v20.20" class="stroke"/>
<use x="461.10" y="181.00" xlink:href="#hd"/>
<path d="M457.60 181.00v17.20" class="stroke"/>
<use x="479.50" y="178.00" xlink:href="#hd"/>
<path d="M476.00 178.00v20.20" class="stroke"/>
<path class="fill"
	d="M496.10 202.00l56.00 0.00v-3.20l-56.00 -0.00"/>
<use x="499.90" y="184.00" xlink:href="#hd"/>
<path d="M496.40 184.00v17.00" class="stroke"/>
<use x="518.30" y="181.00" xlink:href="#hd"/>
<path d="M514.80 181.00v20.00" class="stroke"/>
<use x="536.80" y="184.00" xlink:href="#hd"/>
<path d="M533.30 184.00v17.00" class="stroke"/>
<use x="555.20" y="181.00" xlink:href="#hd"/>
<path d="M551.70 181.00v20.00" class="stroke"/>
<path class="fill"
	d="M578.60 199.20l56.00 0.00v-3.20l-56.00 -0.00"/>
<use x="582.50" y="181.00" xlink:href="#hd"/>
<path d="M579.00 181.00v17.20" class="stroke"/>
<use x="600.90" y="178.00" xlink:href="#hd"/>
<path d="M597.40 178.00v20.20" class="stroke"/>
<use x="619.30" y="181.00" xlink:href="#hd"/>
<path d="M615.80 181.00v17.20" class="stroke"/>
<use x="637.80" y="178.00" xlink:href="#hd"/>
<path d="M634.30 178.00v20.20" class="stroke"/>
<path class="fill"
	d="M654.30 202.00l56.00 0.00v-3.20l-56.00 -0.00"/>
<use x="658.20" y="184.00" xlink:href="#hd"/>
<path d="M654.70 184.00v17.00" class="stroke"/>
<use x="676.60" y="181.00" xlink:href="#hd"/>
<path d="M673.10 181.00v20.00" class="stroke"/>
<use x="695.00" y="184.00" xlink:href="#hd"/>
<path d="M691.50 184.00v17.00" class="stroke"/>
<use x="713.40" y="181.00" xlink:href="#hd"/>
<path d="M709.90 181.00v20.00" class="stroke"/>
</g>
<g stroke-width="0.70">
<path class="stroke" stroke-width="1"
	d="M234.30 269.00v-24.00"/>
<path class="stroke" stroke-width="1"
	d="M420.60 269.00v-24.00"/>
<path class="stroke" stroke-width="1"
	d="M606.90 269.00v-24.00"/>
<path class="stroke" stroke-width="3"
	d="M726.70 269.00v-24.00"/>
<path class="stroke" stroke-width="1"
	d="M722.20 269.00v-24.00"/>
<use x="718.20" y="269.00" xlink:href="#rdots"/>
<path d="m10.00 269.00
	h718.20
	M10.00 263.00
	h718.20
	M10.00 257.00
	h718.20
	M10.00 251.00
	h718.20
	M10.00 245.00
	h718.20
	" class="stroke"/>
<use x="22.00" y="263.00" xlink:href="#tclef"/>
<use x="37.00" y="245.00" xlink:href="#sh0"/>
<use x="42.50" y="254.00" xlink:href="#sh0"/>
<path class="fill"
	d="M63.70 237.50l66.70 0.00v3.20l-66.70 -0.00"/>
<use x="60.50" y="260.00" xlink:href="#hd"/>
<path d="M64.00 260.00v-21.50" class="stroke"/>
<use x="82.50" y="257.00" xlink:href="#hd"/>
<path d="M86.00 257.00v-18.50" class="stroke"/>
<use x="104.50" y="260.00" xlink:href="#hd"/>
<path d="M108.00 260.00v-21.50" class="stroke"/>
<use x="126.60" y="257.00" xlink:href="#hd"/>
<path d="M130.10 257.00v-18.50" class="stroke"/>
<path class="fill"
	d="M154.20 242.00l66.70 0.00v3.20l-66.70 -0.00"/>
<use x="151.00" y="263.00" xlink:href="#hd"/>
<path d="M154.50 263.00v-20.00" class="stroke"/>
<use x="173.00" y="260.00" xlink:href="#hd"/>
<path d="M176.50 260.00v-17.00" class="stroke"/>
<use x="195.10" y="263.00" xlink:href="#hd"/>
<path d="M198.60 263.00v-20.00" class="stroke"/>
<use x="217.10" y="260.00" xlink:href="#hd"/>
<path d="M220.60 260.00v-17.00" class="stroke"/>
<path class="fill"
	d="M250.00 237.50l66.70 0.00v3.20l-66.70 -0.00"/>
<use x="246.80" y="260.00" xlink:href="#hd"/>
<path d="M250.30 260.00v-21.50" class="stroke"/>
<use x="268.80" y="257.00" xlink:href="#hd"/>
<path d="M272.30 257.00v-18.50" class="stroke"/>
<use x="290.80" y="260.00" xlink:href="#hd"/>
<path d="M294.30 260.00v-21.50" class="stroke"/>
<use x="312.90" y="257.00" xlink:href="#hd"/>
<path d="M316.40 257.00v-18.50" class="stroke"/>
<path class="fill"
	d="M340.50 242.00l66.70 0.00v3.20l-66.70 -0.00"/>
<use x="337.30" y="263.00" xlink:href="#hd"/>
<path d="M340.80 263.00v-20.00" class="stroke"/>
<use x="359.30" y="260.00" xlink:href="#hd"/>
<path d="M362.80 260.00v-17.00" class="stroke"/>
<use x="381.40" y="263.00" xlink:href="#hd"/>
<path d="M384.90 263.00v-20.00" class="stroke"/>
<use x="403.40" y="260.00" xlink:href="#hd"/>
<path d="M406.90 260.00v-17.00" class="stroke"/>
<path class="fill"
	d="M429.30 277.10l66.70 -7.10v-3.20l-66.70 7.10"/>
<use x="433.10" y="257.00" xlink:href="#hd"/>
<path d="M429.60 257.00v19.00" class="stroke"/>
<use x="455.10" y="254.00" xlink:href="#hd"/>
<path d="M451.60 254.00v19.70" class="stroke"/>
<use x="477.10" y="251.00" xlink:href="#hd"/>
<path d="M473.60 251.00v20.30" class="stroke"/>
<use x="499.20" y="248.00" xlink:href="#hd"/>
<path d="M495.70 248.00v21.00" class="stroke"/>
<path class="fill"
	d="M519.80 266.90l66.70 7.10v-3.20l-66.70 -7.10"/>
<use x="523.60" y="245.00" xlink:href="#hd"/>
<path d="M520.10 245.00v21.00" class="stroke"/>
<use x="545.60" y="248.00" xlink:href="#hd"/>
<path d="M542.10 248.00v20.30" class="stroke"/>
<use x="567.70" y="251.00" xlink:href="#hd"/>
<path d="M564.20 251.00v19.70" class="stroke"/>
<use x="589.70" y="254.00" xlink:href="#hd"/>
<path d="M586.20 254.00v19.00" class="stroke"/>
<use x="619.40" y="251.00" xlink:href="#hd"/>
<path d="M615.90 251.00v21.00" class="stroke"/>
<path class="fill"
	d="M650.10 272.30l22.70 2.40v-3.20l-22.70 -2.40"/>
<use x="653.90" y="251.00" xlink:href="#hd"/>
<path d="M650.40 251.00v20.30" class="stroke"/>
<use x="675.90" y="254.00" xlink:href="#hd"/>
<path d="M672.40 254.00v19.70" class="stroke"/>
<use x="700.40" y="251.00" xlink:href="#hd"/>
<path d="M696.90 251.00v21.00" class="stroke"/>
</g>
</svg>
