<?xml version="1.0" standalone="no"?>
<!DOCTYPE svg PUBLIC "-//W3C//DTD SVG 1.1//EN"
	"http://www.w3.org/Graphics/SVG/1.1/DTD/svg11.dtd">
<svg xmlns="http://www.w3.org/2000/svg" version="1.1"
	xmlns:xlink="http://www.w3.org/1999/xlink"
	color="black"
	width="701.60px" height="454.00px">
<style type="text/css">
.fill {fill: currentColor}
.stroke {stroke: currentColor; fill: none}
text{white-space: pre}
</style>
<title>/media/tim/Data1/tims_code/sphinx-tunes/source/_abcfiles/_Fj√ lln√ ss Po (1) tune 1</title>
<!-- Creator: abcm2ps-8.14.6 -->
<!-- CreationDate: Jul 30, 2023 12:21 -->
<!-- CommandLine: -g '/media/tim/Data1/tims_code/sphinx-tunes/source/_abcfiles/_Fj√§lln√§ss Polska & Stublick Mazurka B Parts.abc' -O '/media/tim/Data1/tims_code/sphinx-tunes/source/_abcfiles/_Fj√§lln√§ss Polska & Stublick Mazurka B Parts.svg' -->
<g stroke-width="0.70" style="font:italic 14.00px Times">
<text x="691.60" y="20.00" text-anchor="end">Trad</text>
</g>
<g stroke-width="0.70" style="font:bold 15.00px Times">
<text x="77.50" y="43.00">Allegro</text>
</g>
<g stroke-width="0.70" transform="scale(0.700)" style="font:bold 15.00px Times">
<defs>
<ellipse id="hd" rx="4.1" ry="2.9"
	transform="rotate(-20)" class="fill"/>
</defs>
<use x="190.73" y="58.43" xlink:href="#hd"/>
<path d="M194.23 58.43v-21.00" class="stroke"/>
</g>
<g stroke-width="0.70" style="font:bold 15.00px Times">
<text x="141.21" y="43.00">= 120</text>
<defs>
<g id="rdots" class="fill">
	<circle cx="0" cy="-9" r="1.2"/>
	<circle cx="0" cy="-15" r="1.2"/>
</g>
</defs>
<use x="81.50" y="81.00" xlink:href="#rdots"/>
<path class="stroke" stroke-width="1"
	d="M77.50 81.00v-24.00"/>
<path class="stroke" stroke-width="3"
	d="M73.00 81.00v-24.00"/>
<path class="stroke" stroke-width="1"
	d="M191.50 81.00v-24.00"/>
<path class="stroke" stroke-width="1"
	d="M346.30 81.00v-24.00"/>
<path class="stroke" stroke-width="1"
	d="M530.30 81.00v-24.00"/>
<path class="stroke" stroke-width="1"
	d="M691.60 81.00v-24.00"/>
<path d="m10.00 81.00
	h681.60
	M10.00 75.00
	h681.60
	M10.00 69.00
	h681.60
	M10.00 63.00
	h681.60
	M10.00 57.00
	h681.60
	" class="stroke"/>
<text style="font:italic 12px serif"
	x="493.60" y="48.00" text-anchor="middle">3</text>
<defs>
<path id="utclef" class="fill" d="m-50 -90
	c-72 -41 -72 -158 52 -188
	150 -10 220 188 90 256
	-114 52 -275 0 -293 -136
	-15 -181 93 -229 220 -334
	88 -87 79 -133 62 -210
	-51 33 -94 105 -89 186
	17 267 36 374 49 574
	6 96 -19 134 -77 135
	-80 1 -126 -93 -61 -133
	85 -41 133 101 31 105
	23 17 92 37 90 -92
	-10 -223 -39 -342 -50 -617
	0 -90 0 -162 96 -232
	56 72 63 230 22 289
	-74 106 -257 168 -255 316
	9 153 148 185 252 133
	86 -65 29 -192 -80 -176
	-71 12 -105 67 -59 124"/>
<use id="tclef" transform="translate(0,6) scale(0.045)"
	xlink:href="#utclef"/>
</defs>
<use x="22.00" y="75.00" xlink:href="#tclef"/>
<defs>
<path id="uflat" class="fill" d="
	m100 -746
	h32
	v734
	l-32 4
	m32 -332
	c46 -72 152 -90 208 -20
	100 110 -120 326 -208 348
	m0 -28
	c54 0 200 -206 130 -290
	-50 -60 -130 -4 -130 34"/>
<use id="ft0" transform="translate(-3.5,3.5) scale(0.018)"
	xlink:href="#uflat"/>
</defs>
<use x="37.00" y="69.00" xlink:href="#ft0"/>
<g style="font:bold 16px serif"
	transform="translate(53.00,80.50) scale(1.2,1)">
	<text text-anchor="middle">4</text>
	<text y="-12" text-anchor="middle">3</text>
</g>
<defs>
<path id="hl" class="stroke" d="m-6 0h12"/>
</defs>
<use x="98.10" y="87.00" xlink:href="#hl"/>
<defs>
<path id="Hd" class="fill" d="m3 -1.6
	c-1 -1.8 -7 1.4 -6 3.2
	1 1.8 7 -1.4 6 -3.2
	m0.5 -0.3
	c2 3.8 -5 7.6 -7 3.8
	-2 -3.8 5 -7.6 7 -3.8"/>
</defs>
<use x="98.10" y="87.00" xlink:href="#Hd"/>
<path d="M101.60 87.00v-21.00" class="stroke"/>
<use x="160.60" y="87.00" xlink:href="#hl"/>
<use x="160.60" y="87.00" xlink:href="#hd"/>
<path d="M164.10 87.00v-21.00" class="stroke"/>
<path class="fill"
	d="M210.30 64.40l32.70 -2.60v3.20l-32.70 2.60"/>
<path class="fill"
	d="M235.70 67.40l7.00 -0.60v3.20l-7.00 0.60"/>
<use x="207.20" y="87.00" xlink:href="#hl"/>
<use x="207.20" y="87.00" xlink:href="#hd"/>
<circle class="fill" cx="214.90" cy="84.00" r="1.2"/>
<path d="M210.70 87.00v-21.70" class="stroke"/>
<use x="239.20" y="84.00" xlink:href="#hd"/>
<path d="M242.70 84.00v-21.20" class="stroke"/>
<path class="fill"
	d="M264.40 57.60l32.70 5.90v3.20l-32.70 -5.90"/>
<path class="fill"
	d="M289.80 67.10l7.00 1.30v3.20l-7.00 -1.30"/>
<use x="261.30" y="78.00" xlink:href="#hd"/>
<circle class="fill" cx="269.00" cy="78.00" r="1.2"/>
<path d="M264.80 78.00v-19.40" class="stroke"/>
<use x="293.30" y="87.00" xlink:href="#hl"/>
<use x="293.30" y="87.00" xlink:href="#hd"/>
<path d="M296.80 87.00v-22.60" class="stroke"/>
<use x="315.30" y="72.00" xlink:href="#hd"/>
<path d="M318.80 72.00v-21.00" class="stroke"/>
<use x="361.90" y="69.00" xlink:href="#hd"/>
<path d="M365.40 69.00v-21.00" class="stroke"/>
<path class="fill"
	d="M409.20 48.20l32.70 2.60v3.20l-32.70 -2.60"/>
<use x="406.10" y="69.00" xlink:href="#hd"/>
<circle class="fill" cx="413.80" cy="66.00" r="1.2"/>
<path d="M409.60 69.00v-19.80" class="stroke"/>
<use x="438.10" y="72.00" xlink:href="#hd"/>
<path d="M441.60 72.00v-20.20" class="stroke"/>
<path class="fill"
	d="M472.50 54.00l44.60 0.00v3.20l-44.60 -0.00"/>
<use x="469.30" y="75.00" xlink:href="#hd"/>
<path d="M472.80 75.00v-20.00" class="stroke"/>
<use x="491.30" y="78.00" xlink:href="#hd"/>
<path d="M494.80 78.00v-23.00" class="stroke"/>
<use x="513.20" y="75.00" xlink:href="#hd"/>
<path d="M516.70 75.00v-20.00" class="stroke"/>
<use x="545.90" y="72.00" xlink:href="#hd"/>
<path d="M549.40 72.00v-21.00" class="stroke"/>
<path class="fill"
	d="M593.20 44.80l32.70 4.50v3.20l-32.70 -4.50"/>
<path class="fill"
	d="M618.60 53.20l7.00 1.00v3.20l-7.00 -1.00"/>
<use x="590.10" y="66.00" xlink:href="#hd"/>
<circle class="fill" cx="597.80" cy="66.00" r="1.2"/>
<path d="M593.60 66.00v-20.20" class="stroke"/>
<use x="622.10" y="72.00" xlink:href="#hd"/>
<path d="M625.60 72.00v-21.80" class="stroke"/>
<path class="fill"
	d="M647.30 57.60l32.70 5.90v3.20l-32.70 -5.90"/>
<path class="fill"
	d="M672.60 67.10l7.00 1.30v3.20l-7.00 -1.30"/>
<use x="644.10" y="78.00" xlink:href="#hd"/>
<circle class="fill" cx="651.80" cy="78.00" r="1.2"/>
<path d="M647.60 78.00v-19.40" class="stroke"/>
<use x="676.10" y="87.00" xlink:href="#hl"/>
<use x="676.10" y="87.00" xlink:href="#hd"/>
<path d="M679.60 87.00v-22.60" class="stroke"/>
</g>
<g stroke-width="0.70" style="font:bold 15.00px Times">
<path class="stroke" stroke-width="1"
	d="M54.50 151.00v-24.00"/>
<path class="stroke" stroke-width="1"
	d="M179.10 151.00v-24.00"/>
<path class="stroke" stroke-width="1"
	d="M355.90 151.00v-24.00"/>
<path class="stroke" stroke-width="1"
	d="M566.10 151.00v-24.00"/>
<path class="stroke" stroke-width="3"
	d="M690.10 151.00v-24.00"/>
<path class="stroke" stroke-width="1"
	d="M685.60 151.00v-24.00"/>
<use x="681.60" y="151.00" xlink:href="#rdots"/>
<path d="m10.00 151.00
	h681.60
	M10.00 145.00
	h681.60
	M10.00 139.00
	h681.60
	M10.00 133.00
	h681.60
	M10.00 127.00
	h681.60
	" class="stroke"/>
<text style="font:italic 12px serif"
	x="523.90" y="118.00" text-anchor="middle">3</text>
<use x="22.00" y="145.00" xlink:href="#tclef"/>
<use x="37.00" y="139.00" xlink:href="#ft0"/>
<use x="72.40" y="157.00" xlink:href="#hl"/>
<use x="72.40" y="157.00" xlink:href="#Hd"/>
<path d="M75.90 157.00v-21.00" class="stroke"/>
<use x="143.80" y="157.00" xlink:href="#hl"/>
<use x="143.80" y="157.00" xlink:href="#hd"/>
<path d="M147.30 157.00v-21.00" class="stroke"/>
<path class="fill"
	d="M200.10 134.40l37.20 -2.60v3.20l-37.20 2.60"/>
<path class="fill"
	d="M230.00 137.30l7.00 -0.50v3.20l-7.00 0.50"/>
<use x="197.00" y="157.00" xlink:href="#hl"/>
<use x="197.00" y="157.00" xlink:href="#hd"/>
<circle class="fill" cx="204.70" cy="154.00" r="1.2"/>
<path d="M200.50 157.00v-21.60" class="stroke"/>
<use x="233.50" y="154.00" xlink:href="#hd"/>
<path d="M237.00 154.00v-21.20" class="stroke"/>
<path class="fill"
	d="M261.90 127.40l37.20 6.10v3.20l-37.20 -6.10"/>
<path class="fill"
	d="M291.80 137.40l7.00 1.20v3.20l-7.00 -1.20"/>
<use x="258.80" y="148.00" xlink:href="#hd"/>
<circle class="fill" cx="266.50" cy="148.00" r="1.2"/>
<path d="M262.30 148.00v-19.50" class="stroke"/>
<use x="295.30" y="157.00" xlink:href="#hl"/>
<use x="295.30" y="157.00" xlink:href="#hd"/>
<path d="M298.80 157.00v-22.50" class="stroke"/>
<use x="320.60" y="142.00" xlink:href="#hd"/>
<path d="M324.10 142.00v-21.00" class="stroke"/>
<use x="373.80" y="139.00" xlink:href="#hd"/>
<path d="M377.30 139.00v-21.00" class="stroke"/>
<path class="fill"
	d="M427.40 118.20l37.20 2.60v3.20l-37.20 -2.60"/>
<use x="424.20" y="139.00" xlink:href="#hd"/>
<circle class="fill" cx="431.90" cy="136.00" r="1.2"/>
<path d="M427.70 139.00v-19.80" class="stroke"/>
<use x="460.80" y="142.00" xlink:href="#hd"/>
<path d="M464.30 142.00v-20.20" class="stroke"/>
<path class="fill"
	d="M499.70 124.00l50.80 0.00v3.20l-50.80 -0.00"/>
<use x="496.50" y="145.00" xlink:href="#hd"/>
<path d="M500.00 145.00v-20.00" class="stroke"/>
<use x="521.60" y="148.00" xlink:href="#hd"/>
<path d="M525.10 148.00v-23.00" class="stroke"/>
<use x="546.60" y="145.00" xlink:href="#hd"/>
<path d="M550.10 145.00v-20.00" class="stroke"/>
<use x="584.00" y="142.00" xlink:href="#hd"/>
<path d="M587.50 142.00v-21.00" class="stroke"/>
<use x="634.50" y="148.00" xlink:href="#Hd"/>
<path d="M638.00 148.00v-21.00" class="stroke"/>
</g>
<g stroke-width="0.70" style="font:bold 15.00px Times">
<use x="61.50" y="221.00" xlink:href="#rdots"/>
<path class="stroke" stroke-width="1"
	d="M57.50 221.00v-24.00"/>
<path class="stroke" stroke-width="3"
	d="M53.00 221.00v-24.00"/>
<path class="stroke" stroke-width="1"
	d="M236.80 221.00v-24.00"/>
<path class="stroke" stroke-width="1"
	d="M393.20 221.00v-24.00"/>
<path class="stroke" stroke-width="1"
	d="M565.00 221.00v-24.00"/>
<path class="stroke" stroke-width="1"
	d="M691.60 221.00v-24.00"/>
<path d="m10.00 221.00
	h681.60
	M10.00 215.00
	h681.60
	M10.00 209.00
	h681.60
	M10.00 203.00
	h681.60
	M10.00 197.00
	h681.60
	" class="stroke"/>
<use x="22.00" y="215.00" xlink:href="#tclef"/>
<use x="37.00" y="209.00" xlink:href="#ft0"/>
<use x="79.40" y="212.00" xlink:href="#hd"/>
<path d="M82.90 212.00v-21.00" class="stroke"/>
<path class="fill"
	d="M130.20 201.80l35.20 -6.00v3.20l-35.20 6.00"/>
<path class="fill"
	d="M158.10 202.00l7.00 -1.20v3.20l-7.00 1.20"/>
<use x="127.10" y="227.00" xlink:href="#hl"/>
<use x="127.10" y="227.00" xlink:href="#hd"/>
<circle class="fill" cx="134.80" cy="224.00" r="1.2"/>
<path d="M130.60 227.00v-24.30" class="stroke"/>
<use x="161.60" y="218.00" xlink:href="#hd"/>
<path d="M165.10 218.00v-21.20" class="stroke"/>
<path class="fill"
	d="M188.70 190.70l35.20 4.50v3.20l-35.20 -4.50"/>
<path class="fill"
	d="M216.60 199.30l7.00 0.90v3.20l-7.00 -0.90"/>
<use x="185.50" y="212.00" xlink:href="#hd"/>
<circle class="fill" cx="193.20" cy="212.00" r="1.2"/>
<path d="M189.00 212.00v-20.20" class="stroke"/>
<use x="220.10" y="218.00" xlink:href="#hd"/>
<path d="M223.60 218.00v-21.80" class="stroke"/>
<use x="253.60" y="209.00" xlink:href="#hd"/>
<path d="M257.10 209.00v-21.00" class="stroke"/>
<path class="fill"
	d="M304.50 193.20l35.20 2.60v3.20l-35.20 -2.60"/>
<path class="fill"
	d="M332.40 200.30l7.00 0.50v3.20l-7.00 -0.50"/>
<use x="301.30" y="215.00" xlink:href="#hd"/>
<circle class="fill" cx="309.00" cy="212.00" r="1.2"/>
<path d="M304.80 215.00v-20.80" class="stroke"/>
<use x="335.90" y="218.00" xlink:href="#hd"/>
<path d="M339.40 218.00v-21.20" class="stroke"/>
<use x="359.80" y="224.00" xlink:href="#hd"/>
<path d="M363.30 224.00v-21.00" class="stroke"/>
<use x="410.00" y="206.00" xlink:href="#hd"/>
<path d="M406.50 206.00v21.00" class="stroke"/>
<path class="fill"
	d="M453.90 228.80l35.20 -2.60v-3.20l-35.20 2.60"/>
<path class="fill"
	d="M481.80 221.70l7.00 -0.50v-3.20l-7.00 0.50"/>
<use x="457.70" y="206.00" xlink:href="#hd"/>
<circle class="fill" cx="465.40" cy="206.00" r="1.2"/>
<path d="M454.20 206.00v21.80" class="stroke"/>
<use x="492.30" y="203.00" xlink:href="#hd"/>
<path d="M488.80 203.00v22.20" class="stroke"/>
<path class="fill"
	d="M516.90 185.50l35.20 6.00v3.20l-35.20 -6.00"/>
<path class="fill"
	d="M544.80 195.30l7.00 1.20v3.20l-7.00 -1.20"/>
<use x="513.80" y="206.00" xlink:href="#hd"/>
<circle class="fill" cx="521.50" cy="206.00" r="1.2"/>
<path d="M517.30 206.00v-19.50" class="stroke"/>
<use x="548.30" y="215.00" xlink:href="#hd"/>
<path d="M551.80 215.00v-22.50" class="stroke"/>
<path class="fill"
	d="M585.10 195.40l35.20 -2.60v3.20l-35.20 2.60"/>
<path class="fill"
	d="M613.00 198.30l7.00 -0.50v3.20l-7.00 0.50"/>
<use x="581.90" y="218.00" xlink:href="#hd"/>
<circle class="fill" cx="589.60" cy="218.00" r="1.2"/>
<path d="M585.40 218.00v-21.60" class="stroke"/>
<use x="616.50" y="215.00" xlink:href="#hd"/>
<path d="M620.00 215.00v-21.20" class="stroke"/>
<path class="fill"
	d="M643.50 199.20l35.20 2.60v3.20l-35.20 -2.60"/>
<path class="fill"
	d="M671.40 206.30l7.00 0.50v3.20l-7.00 -0.50"/>
<use x="640.30" y="221.00" xlink:href="#hd"/>
<circle class="fill" cx="648.00" cy="218.00" r="1.2"/>
<path d="M643.80 221.00v-20.80" class="stroke"/>
<use x="674.90" y="224.00" xlink:href="#hd"/>
<path d="M678.40 224.00v-21.20" class="stroke"/>
</g>
<g stroke-width="0.70" style="font:bold 15.00px Times">
<path class="stroke" stroke-width="1"
	d="M54.50 291.00v-24.00"/>
<path class="stroke" stroke-width="1"
	d="M228.50 291.00v-24.00"/>
<path class="stroke" stroke-width="1"
	d="M384.70 291.00v-24.00"/>
<path class="stroke" stroke-width="1"
	d="M573.20 291.00v-24.00"/>
<path class="stroke" stroke-width="3"
	d="M690.10 291.00v-24.00"/>
<path class="stroke" stroke-width="1"
	d="M685.60 291.00v-24.00"/>
<use x="681.60" y="291.00" xlink:href="#rdots"/>
<path d="m10.00 291.00
	h681.60
	M10.00 285.00
	h681.60
	M10.00 279.00
	h681.60
	M10.00 273.00
	h681.60
	M10.00 267.00
	h681.60
	" class="stroke"/>
<text style="font:italic 12px serif"
	x="533.40" y="258.00" text-anchor="middle">3</text>
<use x="22.00" y="285.00" xlink:href="#tclef"/>
<use x="37.00" y="279.00" xlink:href="#ft0"/>
<use x="71.40" y="282.00" xlink:href="#hd"/>
<path d="M74.90 282.00v-21.00" class="stroke"/>
<path class="fill"
	d="M122.10 271.80l35.20 -6.00v3.20l-35.20 6.00"/>
<path class="fill"
	d="M150.00 272.00l7.00 -1.20v3.20l-7.00 1.20"/>
<use x="119.00" y="297.00" xlink:href="#hl"/>
<use x="119.00" y="297.00" xlink:href="#hd"/>
<circle class="fill" cx="126.70" cy="294.00" r="1.2"/>
<path d="M122.50 297.00v-24.30" class="stroke"/>
<use x="153.50" y="288.00" xlink:href="#hd"/>
<path d="M157.00 288.00v-21.20" class="stroke"/>
<path class="fill"
	d="M180.50 260.70l35.20 4.50v3.20l-35.20 -4.50"/>
<path class="fill"
	d="M208.30 269.30l7.00 0.90v3.20l-7.00 -0.90"/>
<use x="177.30" y="282.00" xlink:href="#hd"/>
<circle class="fill" cx="185.00" cy="282.00" r="1.2"/>
<path d="M180.80 282.00v-20.20" class="stroke"/>
<use x="211.80" y="288.00" xlink:href="#hd"/>
<path d="M215.30 288.00v-21.80" class="stroke"/>
<use x="245.30" y="279.00" xlink:href="#hd"/>
<path d="M248.80 279.00v-21.00" class="stroke"/>
<path class="fill"
	d="M296.10 263.20l35.20 2.60v3.20l-35.20 -2.60"/>
<path class="fill"
	d="M324.00 270.30l7.00 0.50v3.20l-7.00 -0.50"/>
<use x="293.00" y="285.00" xlink:href="#hd"/>
<circle class="fill" cx="300.70" cy="282.00" r="1.2"/>
<path d="M296.50 285.00v-20.80" class="stroke"/>
<use x="327.50" y="288.00" xlink:href="#hd"/>
<path d="M331.00 288.00v-21.20" class="stroke"/>
<use x="351.30" y="285.00" xlink:href="#hd"/>
<path d="M354.80 285.00v-21.00" class="stroke"/>
<use x="401.50" y="279.00" xlink:href="#hd"/>
<path d="M405.00 279.00v-21.00" class="stroke"/>
<path class="fill"
	d="M452.30 257.20l35.20 2.60v3.20l-35.20 -2.60"/>
<path class="fill"
	d="M480.20 264.30l7.00 0.50v3.20l-7.00 -0.50"/>
<use x="449.10" y="279.00" xlink:href="#hd"/>
<circle class="fill" cx="456.80" cy="276.00" r="1.2"/>
<path d="M452.60 279.00v-20.80" class="stroke"/>
<use x="483.70" y="282.00" xlink:href="#hd"/>
<path d="M487.20 282.00v-21.20" class="stroke"/>
<path class="fill"
	d="M510.60 264.00l48.00 0.00v3.20l-48.00 -0.00"/>
<use x="507.50" y="285.00" xlink:href="#hd"/>
<path d="M511.00 285.00v-20.00" class="stroke"/>
<use x="531.10" y="288.00" xlink:href="#hd"/>
<path d="M534.60 288.00v-23.00" class="stroke"/>
<use x="554.80" y="285.00" xlink:href="#hd"/>
<path d="M558.30 285.00v-20.00" class="stroke"/>
<use x="590.00" y="282.00" xlink:href="#hd"/>
<path d="M593.50 282.00v-21.00" class="stroke"/>
<use x="637.70" y="288.00" xlink:href="#Hd"/>
<path d="M641.20 288.00v-21.00" class="stroke"/>
</g>
<g stroke-width="0.70" style="font:bold 15.00px Times">
<use x="61.50" y="361.00" xlink:href="#rdots"/>
<path class="stroke" stroke-width="1"
	d="M57.50 361.00v-24.00"/>
<path class="stroke" stroke-width="3"
	d="M53.00 361.00v-24.00"/>
<path class="stroke" stroke-width="1"
	d="M226.20 361.00v-24.00"/>
<path class="stroke" stroke-width="1"
	d="M373.10 361.00v-24.00"/>
<path class="stroke" stroke-width="1"
	d="M534.60 361.00v-24.00"/>
<path class="stroke" stroke-width="1"
	d="M691.60 361.00v-24.00"/>
<path d="m10.00 361.00
	h681.60
	M10.00 355.00
	h681.60
	M10.00 349.00
	h681.60
	M10.00 343.00
	h681.60
	M10.00 337.00
	h681.60
	" class="stroke"/>
<use x="22.00" y="355.00" xlink:href="#tclef"/>
<use x="37.00" y="349.00" xlink:href="#ft0"/>
<use x="78.40" y="352.00" xlink:href="#hd"/>
<path d="M81.90 352.00v-21.00" class="stroke"/>
<path class="fill"
	d="M126.30 329.40l33.20 -2.60v3.20l-33.20 2.60"/>
<path class="fill"
	d="M152.10 332.30l7.00 -0.50v3.20l-7.00 0.50"/>
<use x="123.20" y="352.00" xlink:href="#hd"/>
<circle class="fill" cx="130.90" cy="352.00" r="1.2"/>
<path d="M126.70 352.00v-21.70" class="stroke"/>
<use x="155.60" y="349.00" xlink:href="#hd"/>
<path d="M159.10 349.00v-21.20" class="stroke"/>
<path class="fill"
	d="M181.20 330.20l33.20 2.60v3.20l-33.20 -2.60"/>
<path class="fill"
	d="M207.00 337.20l7.00 0.50v3.20l-7.00 -0.50"/>
<use x="178.10" y="352.00" xlink:href="#hd"/>
<circle class="fill" cx="185.80" cy="352.00" r="1.2"/>
<path d="M181.60 352.00v-20.80" class="stroke"/>
<use x="210.50" y="355.00" xlink:href="#hd"/>
<path d="M214.00 355.00v-21.20" class="stroke"/>
<use x="242.10" y="358.00" xlink:href="#hd"/>
<path d="M245.60 358.00v-21.00" class="stroke"/>
<path class="fill"
	d="M290.00 336.20l33.20 2.60v3.20l-33.20 -2.60"/>
<path class="fill"
	d="M315.90 343.20l7.00 0.50v3.20l-7.00 -0.50"/>
<use x="286.90" y="358.00" xlink:href="#hd"/>
<circle class="fill" cx="294.60" cy="358.00" r="1.2"/>
<path d="M290.40 358.00v-20.80" class="stroke"/>
<use x="319.40" y="361.00" xlink:href="#hd"/>
<path d="M322.90 361.00v-21.20" class="stroke"/>
<use x="341.80" y="364.00" xlink:href="#hd"/>
<path d="M345.30 364.00v-21.00" class="stroke"/>
<use x="389.00" y="343.00" xlink:href="#hd"/>
<path d="M385.50 343.00v21.00" class="stroke"/>
<path class="fill"
	d="M430.00 368.80l33.20 -2.60v-3.20l-33.20 2.60"/>
<path class="fill"
	d="M455.80 361.80l7.00 -0.50v-3.20l-7.00 0.50"/>
<use x="433.80" y="346.00" xlink:href="#hd"/>
<circle class="fill" cx="441.50" cy="346.00" r="1.2"/>
<path d="M430.30 346.00v21.80" class="stroke"/>
<use x="466.30" y="343.00" xlink:href="#hd"/>
<path d="M462.80 343.00v22.20" class="stroke"/>
<path class="fill"
	d="M489.60 325.50l33.20 5.90v3.20l-33.20 -5.90"/>
<path class="fill"
	d="M515.40 335.10l7.00 1.20v3.20l-7.00 -1.20"/>
<use x="486.50" y="346.00" xlink:href="#hd"/>
<circle class="fill" cx="494.20" cy="346.00" r="1.2"/>
<path d="M490.00 346.00v-19.40" class="stroke"/>
<use x="518.90" y="355.00" xlink:href="#hd"/>
<path d="M522.40 355.00v-22.60" class="stroke"/>
<path class="fill"
	d="M553.60 337.20l33.20 -4.50v3.20l-33.20 4.50"/>
<path class="fill"
	d="M579.40 338.70l7.00 -0.90v3.20l-7.00 0.90"/>
<use x="550.50" y="361.00" xlink:href="#hd"/>
<circle class="fill" cx="558.20" cy="358.00" r="1.2"/>
<path d="M554.00 361.00v-22.80" class="stroke"/>
<use x="582.90" y="355.00" xlink:href="#hd"/>
<path d="M586.40 355.00v-21.20" class="stroke"/>
<path class="fill"
	d="M608.50 339.20l33.20 2.60v3.20l-33.20 -2.60"/>
<path class="fill"
	d="M634.30 346.20l7.00 0.50v3.20l-7.00 -0.50"/>
<use x="605.30" y="361.00" xlink:href="#hd"/>
<circle class="fill" cx="613.00" cy="358.00" r="1.2"/>
<path d="M608.80 361.00v-20.80" class="stroke"/>
<use x="637.80" y="364.00" xlink:href="#hd"/>
<path d="M641.30 364.00v-21.20" class="stroke"/>
<use x="660.20" y="367.00" xlink:href="#hl"/>
<use x="660.20" y="367.00" xlink:href="#hd"/>
<path d="M663.70 367.00v-21.00" class="stroke"/>
</g>
<g stroke-width="0.70" style="font:bold 15.00px Times">
<path class="stroke" stroke-width="1"
	d="M54.50 431.00v-24.00"/>
<path class="stroke" stroke-width="1"
	d="M181.20 431.00v-24.00"/>
<path class="stroke" stroke-width="1"
	d="M360.90 431.00v-24.00"/>
<path class="stroke" stroke-width="1"
	d="M564.00 431.00v-24.00"/>
<path class="stroke" stroke-width="3"
	d="M690.10 431.00v-24.00"/>
<path class="stroke" stroke-width="1"
	d="M685.60 431.00v-24.00"/>
<use x="681.60" y="431.00" xlink:href="#rdots"/>
<path d="m10.00 431.00
	h681.60
	M10.00 425.00
	h681.60
	M10.00 419.00
	h681.60
	M10.00 413.00
	h681.60
	M10.00 407.00
	h681.60
	" class="stroke"/>
<text style="font:italic 12px serif"
	x="521.00" y="398.00" text-anchor="middle">3</text>
<use x="22.00" y="425.00" xlink:href="#tclef"/>
<use x="37.00" y="419.00" xlink:href="#ft0"/>
<use x="72.70" y="437.00" xlink:href="#hl"/>
<use x="72.70" y="437.00" xlink:href="#Hd"/>
<path d="M76.20 437.00v-21.00" class="stroke"/>
<use x="145.30" y="437.00" xlink:href="#hl"/>
<use x="145.30" y="437.00" xlink:href="#hd"/>
<path d="M148.80 437.00v-21.00" class="stroke"/>
<path class="fill"
	d="M202.50 414.40l37.90 -2.60v3.20l-37.90 2.60"/>
<path class="fill"
	d="M233.00 417.30l7.00 -0.50v3.20l-7.00 0.50"/>
<use x="199.30" y="437.00" xlink:href="#hl"/>
<use x="199.30" y="437.00" xlink:href="#hd"/>
<circle class="fill" cx="207.00" cy="434.00" r="1.2"/>
<path d="M202.80 437.00v-21.60" class="stroke"/>
<use x="236.50" y="434.00" xlink:href="#hd"/>
<path d="M240.00 434.00v-21.20" class="stroke"/>
<path class="fill"
	d="M265.30 407.40l37.90 6.20v3.20l-37.90 -6.20"/>
<path class="fill"
	d="M295.90 417.40l7.00 1.10v3.20l-7.00 -1.10"/>
<use x="262.20" y="428.00" xlink:href="#hd"/>
<circle class="fill" cx="269.90" cy="428.00" r="1.2"/>
<path d="M265.70 428.00v-19.50" class="stroke"/>
<use x="299.40" y="437.00" xlink:href="#hl"/>
<use x="299.40" y="437.00" xlink:href="#hd"/>
<path d="M302.90 437.00v-22.50" class="stroke"/>
<use x="325.00" y="422.00" xlink:href="#hd"/>
<path d="M328.50 422.00v-21.00" class="stroke"/>
<use x="379.10" y="419.00" xlink:href="#hd"/>
<path d="M382.60 419.00v-21.00" class="stroke"/>
<path class="fill"
	d="M433.60 397.20l37.90 2.60v3.20l-37.90 -2.60"/>
<path class="fill"
	d="M464.10 404.30l7.00 0.50v3.20l-7.00 -0.50"/>
<use x="430.40" y="419.00" xlink:href="#hd"/>
<circle class="fill" cx="438.10" cy="416.00" r="1.2"/>
<path d="M433.90 419.00v-20.80" class="stroke"/>
<use x="467.60" y="422.00" xlink:href="#hd"/>
<path d="M471.10 422.00v-21.20" class="stroke"/>
<path class="fill"
	d="M496.40 404.00l51.70 0.00v3.20l-51.70 -0.00"/>
<use x="493.20" y="425.00" xlink:href="#hd"/>
<path d="M496.70 425.00v-20.00" class="stroke"/>
<use x="518.70" y="428.00" xlink:href="#hd"/>
<path d="M522.20 428.00v-23.00" class="stroke"/>
<use x="544.20" y="425.00" xlink:href="#hd"/>
<path d="M547.70 425.00v-20.00" class="stroke"/>
<use x="582.20" y="422.00" xlink:href="#hd"/>
<path d="M585.70 422.00v-21.00" class="stroke"/>
<use x="633.50" y="428.00" xlink:href="#Hd"/>
<path d="M637.00 428.00v-21.00" class="stroke"/>
</g>
</svg>
