<?xml version="1.0" standalone="no"?>
<!DOCTYPE svg PUBLIC "-//W3C//DTD SVG 1.1//EN"
	"http://www.w3.org/Graphics/SVG/1.1/DTD/svg11.dtd">
<svg xmlns="http://www.w3.org/2000/svg" version="1.1"
	xmlns:xlink="http://www.w3.org/1999/xlink"
	color="black"
	width="701.60px" height="773.60px">
<style type="text/css">
.fill {fill: currentColor}
.stroke {stroke: currentColor; fill: none}
text{white-space: pre}
</style>
<title>/media/tim/Data1/tims_code/sphinx-tunes/source/_abcfiles/_Good King Wenc (370) tune 1</title>
<!-- Creator: abcm2ps-8.14.6 -->
<!-- CreationDate: Jul 30, 2023 12:21 -->
<!-- CommandLine: -g '/media/tim/Data1/tims_code/sphinx-tunes/source/_abcfiles/_Good King Wenceslas.abc' -O '/media/tim/Data1/tims_code/sphinx-tunes/source/_abcfiles/_Good King Wenceslas.svg' -->
<g stroke-width="0.70" transform="scale(0.700)">
<defs>
<path id="Hd" class="fill" d="m3 -1.6
	c-1 -1.8 -7 1.4 -6 3.2
	1 1.8 7 -1.4 6 -3.2
	m0.5 -0.3
	c2 3.8 -5 7.6 -7 3.8
	-2 -3.8 5 -7.6 7 -3.8"/>
</defs>
<use x="111.57" y="38.43" xlink:href="#Hd"/>
<path d="M115.07 38.43v-21.00" class="stroke"/>
</g>
<g stroke-width="0.70" style="font:bold 15.00px Times">
<text x="85.80" y="29.00">= 100</text>
<path class="stroke" stroke-width="1"
	d="M77.50 78.00v-24.00"/>
<path class="stroke" stroke-width="3"
	d="M73.00 78.00v-24.00"/>
<path class="stroke" stroke-width="1"
	d="M252.70 78.00v-24.00"/>
<path class="stroke" stroke-width="1"
	d="M397.20 78.00v-24.00"/>
<path class="stroke" stroke-width="1"
	d="M572.40 78.00v-24.00"/>
<path class="stroke" stroke-width="1"
	d="M691.60 78.00v-24.00"/>
<path d="m10.00 78.00
	h681.60
	M10.00 72.00
	h681.60
	M10.00 66.00
	h681.60
	M10.00 60.00
	h681.60
	M10.00 54.00
	h681.60
	" class="stroke"/>
</g>
<g stroke-width="0.70" style="font:12.00px Helvetica">
<text x="89.00" y="44.60">G</text>
<text x="175.70" y="44.60">C</text>
<text x="264.10" y="44.60">G</text>
<text x="409.00" y="44.60">C</text>
<text x="492.50" y="44.60">D7</text>
<text x="583.80" y="44.60">G</text>
<defs>
<path id="utclef" class="fill" d="m-50 -90
	c-72 -41 -72 -158 52 -188
	150 -10 220 188 90 256
	-114 52 -275 0 -293 -136
	-15 -181 93 -229 220 -334
	88 -87 79 -133 62 -210
	-51 33 -94 105 -89 186
	17 267 36 374 49 574
	6 96 -19 134 -77 135
	-80 1 -126 -93 -61 -133
	85 -41 133 101 31 105
	23 17 92 37 90 -92
	-10 -223 -39 -342 -50 -617
	0 -90 0 -162 96 -232
	56 72 63 230 22 289
	-74 106 -257 168 -255 316
	9 153 148 185 252 133
	86 -65 29 -192 -80 -176
	-71 12 -105 67 -59 124"/>
<use id="tclef" transform="translate(0,6) scale(0.045)"
	xlink:href="#utclef"/>
</defs>
<use x="22.00" y="72.00" xlink:href="#tclef"/>
<defs>
<path id="usharp" class="fill" d="
	m136 -702
	v890
	h32
	v-890
	m128 840
	h32
	v-888
	h-32
	m-232 286
	v116
	l338 -96
	v-116
	m-338 442
	v116
	l338 -98
	v-114"/>
<use id="sh0" transform="translate(-4,5) scale(0.018)"
	xlink:href="#usharp"/>
</defs>
<use x="37.00" y="54.00" xlink:href="#sh0"/>
<g style="font:bold 16px serif"
	transform="translate(53.00,77.50) scale(1.2,1)">
	<text text-anchor="middle">2</text>
	<text y="-12" text-anchor="middle">2</text>
</g>
<defs>
<ellipse id="hd" rx="4.1" ry="2.9"
	transform="rotate(-20)" class="fill"/>
</defs>
<use x="92.80" y="72.00" xlink:href="#hd"/>
<path d="M96.30 72.00v-21.00" class="stroke"/>
<use x="136.00" y="72.00" xlink:href="#hd"/>
<path d="M139.50 72.00v-21.00" class="stroke"/>
<use x="179.20" y="72.00" xlink:href="#hd"/>
<path d="M182.70 72.00v-21.00" class="stroke"/>
<use x="222.40" y="69.00" xlink:href="#hd"/>
<path d="M225.90 69.00v-21.00" class="stroke"/>
<use x="268.00" y="72.00" xlink:href="#hd"/>
<path d="M271.50 72.00v-21.00" class="stroke"/>
<use x="311.20" y="72.00" xlink:href="#hd"/>
<path d="M314.70 72.00v-21.00" class="stroke"/>
<use x="354.40" y="81.00" xlink:href="#Hd"/>
<path d="M357.90 81.00v-21.00" class="stroke"/>
<use x="412.50" y="78.00" xlink:href="#hd"/>
<path d="M416.00 78.00v-21.00" class="stroke"/>
<use x="455.70" y="81.00" xlink:href="#hd"/>
<path d="M459.20 81.00v-21.00" class="stroke"/>
<use x="498.90" y="78.00" xlink:href="#hd"/>
<path d="M502.40 78.00v-21.00" class="stroke"/>
<use x="542.10" y="75.00" xlink:href="#hd"/>
<path d="M545.60 75.00v-21.00" class="stroke"/>
<use x="587.70" y="72.00" xlink:href="#Hd"/>
<path d="M591.20 72.00v-21.00" class="stroke"/>
<use x="648.80" y="72.00" xlink:href="#Hd"/>
<path d="M652.30 72.00v-21.00" class="stroke"/>
</g>
<g stroke-width="0.70" style="font:12.00px Helvetica">
<path class="stroke" stroke-width="1"
	d="M225.00 148.00v-24.00"/>
<path class="stroke" stroke-width="1"
	d="M378.60 148.00v-24.00"/>
<path class="stroke" stroke-width="1"
	d="M564.80 148.00v-24.00"/>
<path class="stroke" stroke-width="1"
	d="M691.60 148.00v-24.00"/>
<path d="m10.00 148.00
	h681.60
	M10.00 142.00
	h681.60
	M10.00 136.00
	h681.60
	M10.00 130.00
	h681.60
	M10.00 124.00
	h681.60
	" class="stroke"/>
<text x="47.70" y="114.60">Em</text>
<text x="143.40" y="114.60">C</text>
<text x="237.40" y="114.60">G</text>
<text x="329.30" y="114.60">D</text>
<text x="391.30" y="114.60">C</text>
<text x="480.30" y="114.60">D7</text>
<text x="577.30" y="114.60">G</text>
<use x="22.00" y="142.00" xlink:href="#tclef"/>
<use x="37.00" y="124.00" xlink:href="#sh0"/>
<use x="55.00" y="142.00" xlink:href="#hd"/>
<path d="M58.50 142.00v-21.00" class="stroke"/>
<use x="100.90" y="142.00" xlink:href="#hd"/>
<path d="M104.40 142.00v-21.00" class="stroke"/>
<use x="146.90" y="142.00" xlink:href="#hd"/>
<path d="M150.40 142.00v-21.00" class="stroke"/>
<use x="192.80" y="139.00" xlink:href="#hd"/>
<path d="M196.30 139.00v-21.00" class="stroke"/>
<use x="241.20" y="142.00" xlink:href="#hd"/>
<path d="M244.70 142.00v-21.00" class="stroke"/>
<use x="287.20" y="142.00" xlink:href="#hd"/>
<path d="M290.70 142.00v-21.00" class="stroke"/>
<use x="333.10" y="151.00" xlink:href="#Hd"/>
<path d="M336.60 151.00v-21.00" class="stroke"/>
<use x="394.90" y="148.00" xlink:href="#hd"/>
<path d="M398.40 148.00v-21.00" class="stroke"/>
<use x="440.80" y="151.00" xlink:href="#hd"/>
<path d="M444.30 151.00v-21.00" class="stroke"/>
<use x="486.70" y="148.00" xlink:href="#hd"/>
<path d="M490.20 148.00v-21.00" class="stroke"/>
<use x="532.70" y="145.00" xlink:href="#hd"/>
<path d="M536.20 145.00v-21.00" class="stroke"/>
<use x="581.10" y="142.00" xlink:href="#Hd"/>
<path d="M584.60 142.00v-21.00" class="stroke"/>
<use x="646.10" y="142.00" xlink:href="#Hd"/>
<path d="M649.60 142.00v-21.00" class="stroke"/>
</g>
<g stroke-width="0.70" style="font:12.00px Helvetica">
<path class="stroke" stroke-width="1"
	d="M221.60 222.00v-24.00"/>
<path class="stroke" stroke-width="1"
	d="M376.30 222.00v-24.00"/>
<path class="stroke" stroke-width="1"
	d="M563.90 222.00v-24.00"/>
<path class="stroke" stroke-width="1"
	d="M691.60 222.00v-24.00"/>
<path d="m10.00 222.00
	h681.60
	M10.00 216.00
	h681.60
	M10.00 210.00
	h681.60
	M10.00 204.00
	h681.60
	M10.00 198.00
	h681.60
	" class="stroke"/>
<text x="51.20" y="182.60">G</text>
<text x="231.50" y="182.60">D7</text>
<text x="323.20" y="182.60">Em</text>
<text x="389.20" y="182.60">C</text>
<text x="478.80" y="182.60">D7</text>
<text x="576.50" y="182.60">G</text>
<use x="22.00" y="216.00" xlink:href="#tclef"/>
<use x="37.00" y="198.00" xlink:href="#sh0"/>
<use x="55.00" y="204.00" xlink:href="#hd"/>
<path d="M51.50 204.00v21.00" class="stroke"/>
<use x="101.30" y="207.00" xlink:href="#hd"/>
<path d="M97.80 207.00v21.00" class="stroke"/>
<use x="147.50" y="210.00" xlink:href="#hd"/>
<path d="M144.00 210.00v21.00" class="stroke"/>
<use x="189.20" y="213.00" xlink:href="#hd"/>
<path d="M192.70 213.00v-21.00" class="stroke"/>
<use x="238.00" y="210.00" xlink:href="#hd"/>
<path d="M241.50 210.00v-21.00" class="stroke"/>
<use x="284.20" y="213.00" xlink:href="#hd"/>
<path d="M287.70 213.00v-21.00" class="stroke"/>
<use x="330.50" y="216.00" xlink:href="#Hd"/>
<path d="M334.00 216.00v-21.00" class="stroke"/>
<use x="392.70" y="222.00" xlink:href="#hd"/>
<path d="M396.20 222.00v-21.00" class="stroke"/>
<use x="439.00" y="225.00" xlink:href="#hd"/>
<path d="M442.50 225.00v-21.00" class="stroke"/>
<use x="485.30" y="222.00" xlink:href="#hd"/>
<path d="M488.80 222.00v-21.00" class="stroke"/>
<use x="531.50" y="219.00" xlink:href="#hd"/>
<path d="M535.00 219.00v-21.00" class="stroke"/>
<use x="580.30" y="216.00" xlink:href="#Hd"/>
<path d="M583.80 216.00v-21.00" class="stroke"/>
<use x="645.80" y="216.00" xlink:href="#Hd"/>
<path d="M649.30 216.00v-21.00" class="stroke"/>
</g>
<g stroke-width="0.70" style="font:12.00px Helvetica">
<path class="stroke" stroke-width="1"
	d="M204.90 293.00v-24.00"/>
<path class="stroke" stroke-width="1"
	d="M340.40 293.00v-24.00"/>
<path class="stroke" stroke-width="1"
	d="M500.60 293.00v-24.00"/>
<path class="stroke" stroke-width="1"
	d="M612.40 293.00v-24.00"/>
<path class="stroke" stroke-width="3"
	d="M690.10 293.00v-24.00"/>
<path class="stroke" stroke-width="1"
	d="M685.60 293.00v-24.00"/>
<path d="m10.00 293.00
	h681.60
	M10.00 287.00
	h681.60
	M10.00 281.00
	h681.60
	M10.00 275.00
	h681.60
	M10.00 269.00
	h681.60
	" class="stroke"/>
<text x="51.20" y="256.60">D</text>
<text x="211.90" y="256.60">Em</text>
<text x="293.80" y="256.60">D7</text>
<text x="351.00" y="256.60">G</text>
<text x="507.60" y="256.60">Em</text>
<text x="568.80" y="256.60">C</text>
<text x="623.00" y="256.60">G</text>
<use x="22.00" y="287.00" xlink:href="#tclef"/>
<use x="37.00" y="269.00" xlink:href="#sh0"/>
<use x="55.00" y="296.00" xlink:href="#hd"/>
<path d="M58.50 296.00v-21.00" class="stroke"/>
<use x="95.50" y="296.00" xlink:href="#hd"/>
<path d="M99.00 296.00v-21.00" class="stroke"/>
<use x="136.00" y="293.00" xlink:href="#hd"/>
<path d="M139.50 293.00v-21.00" class="stroke"/>
<use x="176.60" y="290.00" xlink:href="#hd"/>
<path d="M180.10 290.00v-21.00" class="stroke"/>
<use x="219.30" y="287.00" xlink:href="#hd"/>
<path d="M222.80 287.00v-21.00" class="stroke"/>
<use x="259.80" y="287.00" xlink:href="#hd"/>
<path d="M263.30 287.00v-21.00" class="stroke"/>
<use x="300.30" y="284.00" xlink:href="#Hd"/>
<path d="M303.80 284.00v-21.00" class="stroke"/>
<use x="354.80" y="275.00" xlink:href="#hd"/>
<path d="M351.30 275.00v21.00" class="stroke"/>
<use x="395.30" y="278.00" xlink:href="#hd"/>
<path d="M391.80 278.00v21.00" class="stroke"/>
<use x="435.80" y="281.00" xlink:href="#hd"/>
<path d="M432.30 281.00v21.00" class="stroke"/>
<use x="472.30" y="284.00" xlink:href="#hd"/>
<path d="M475.80 284.00v-21.00" class="stroke"/>
<use x="515.00" y="287.00" xlink:href="#Hd"/>
<path d="M518.50 287.00v-21.00" class="stroke"/>
<use x="572.30" y="278.00" xlink:href="#Hd"/>
<path d="M568.80 278.00v21.00" class="stroke"/>
<defs>
<path id="HD" class="fill" d="m-2.7 -1.4
	c1.5 -2.8 6.9 0 5.3 2.7
	-1.5 2.8 -6.9 0 -5.3 -2.7
	m8.3 1.4
	c0 -1.5 -2.2 -3 -5.6 -3
	-3.4 0 -5.6 1.5 -5.6 3
	0 1.5 2.2 3 5.6 3
	3.4 0 5.6 -1.5 5.6 -3"/>
</defs>
<use x="627.80" y="287.00" xlink:href="#HD"/>
</g>
<g stroke-width="0.70" style="font:16.00px Arial">
<text x="60.00" y="333.60">Good King Wenceslas looked out</text>
<text x="375.80" y="333.60">Bring me flesh and bring me wine</text>
</g>
<g stroke-width="0.70" style="font:16.00px Arial">
<text x="60.00" y="351.20">On the Feast of Stephen</text>
<text x="375.80" y="351.20">Bring me pine logs hither</text>
</g>
<g stroke-width="0.70" style="font:16.00px Arial">
<text x="60.00" y="368.80">When the snow lay round about</text>
<text x="375.80" y="368.80">Thou and I shall see him dine</text>
</g>
<g stroke-width="0.70" style="font:16.00px Arial">
<text x="60.00" y="386.40">Deep and crisp and even</text>
<text x="375.80" y="386.40">When we bear them thither.</text>
</g>
<g stroke-width="0.70" style="font:16.00px Arial">
<text x="60.00" y="404.00">Brightly shone the moon that night</text>
<text x="375.80" y="404.00">Page and monarch, forth they went</text>
</g>
<g stroke-width="0.70" style="font:16.00px Arial">
<text x="60.00" y="421.60">Though the frost was cruel</text>
<text x="375.80" y="421.60">Forth they went together</text>
</g>
<g stroke-width="0.70" style="font:16.00px Arial">
<text x="60.00" y="439.20">When a poor man came in sight</text>
<text x="375.80" y="439.20">Through the rude winds wild lament</text>
</g>
<g stroke-width="0.70" style="font:16.00px Arial">
<text x="60.00" y="456.80">Gathering winter fuel</text>
<text x="375.80" y="456.80">And the bitter weather</text>
</g>
<g stroke-width="0.70" style="font:16.00px Arial">
<text x="60.00" y="492.00">Hither, page, and stand by me,</text>
<text x="375.80" y="492.00">Sire, the night is darker now</text>
</g>
<g stroke-width="0.70" style="font:16.00px Arial">
<text x="60.00" y="509.60">If thou knowst it, telling</text>
<text x="375.80" y="509.60">And the wind blows stronger</text>
</g>
<g stroke-width="0.70" style="font:16.00px Arial">
<text x="60.00" y="527.20">Yonder peasant, who is he?</text>
<text x="375.80" y="527.20">Fails my heart, I know not how</text>
</g>
<g stroke-width="0.70" style="font:16.00px Arial">
<text x="60.00" y="544.80">Where and what his dwelling?</text>
<text x="375.80" y="544.80">I can go no longer.</text>
</g>
<g stroke-width="0.70" style="font:16.00px Arial">
<text x="60.00" y="562.40">Sire, he lives a good league hence,</text>
<text x="375.80" y="562.40">Mark my footsteps, good my page</text>
</g>
<g stroke-width="0.70" style="font:16.00px Arial">
<text x="60.00" y="580.00">Underneath the mountain</text>
<text x="375.80" y="580.00">Tread thou in them boldly</text>
</g>
<g stroke-width="0.70" style="font:16.00px Arial">
<text x="60.00" y="597.60">Right against the forest fence</text>
<text x="375.80" y="597.60">Thou shall find the winters rage</text>
</g>
<g stroke-width="0.70" style="font:16.00px Arial">
<text x="60.00" y="615.20">By Saint Agnes fountain.</text>
<text x="375.80" y="615.20">Freeze thy blood less coldly.</text>
</g>
<g stroke-width="0.70" style="font:16.00px Arial">
<text x="239.50" y="650.40">In his masters step he trod</text>
</g>
<g stroke-width="0.70" style="font:16.00px Arial">
<text x="239.50" y="668.00">Where the snow lay dinted</text>
</g>
<g stroke-width="0.70" style="font:16.00px Arial">
<text x="239.50" y="685.60">Heat was in the very sod</text>
</g>
<g stroke-width="0.70" style="font:16.00px Arial">
<text x="239.50" y="703.20">Which the Saint had printed</text>
</g>
<g stroke-width="0.70" style="font:16.00px Arial">
<text x="239.50" y="720.80">Therefore, Christian men, be sure</text>
</g>
<g stroke-width="0.70" style="font:16.00px Arial">
<text x="239.50" y="738.40">Wealth or rank possessing</text>
</g>
<g stroke-width="0.70" style="font:16.00px Arial">
<text x="239.50" y="756.00">Ye, who now will bless the poor</text>
</g>
<g stroke-width="0.70" style="font:16.00px Arial">
<text x="239.50" y="773.60">Shall yourselves find blessing.</text>
</g>
</svg>
