<?xml version="1.0" standalone="no"?>
<!DOCTYPE svg PUBLIC "-//W3C//DTD SVG 1.1//EN"
	"http://www.w3.org/Graphics/SVG/1.1/DTD/svg11.dtd">
<svg xmlns="http://www.w3.org/2000/svg" version="1.1"
	xmlns:xlink="http://www.w3.org/1999/xlink"
	color="black"
	width="701.60px" height="166.00px">
<style type="text/css">
.fill {fill: currentColor}
.stroke {stroke: currentColor; fill: none}
text{white-space: pre}
</style>
<title>/media/tim/Data1/tims_code/sphinx-tunes/source/_abcfiles/_King of the Mo (1) tune 1</title>
<!-- Creator: abcm2ps-8.14.6 -->
<!-- CreationDate: Jul 30, 2023 12:21 -->
<!-- CommandLine: -g '/media/tim/Data1/tims_code/sphinx-tunes/source/_abcfiles/_King of the Moors.abc' -O '/media/tim/Data1/tims_code/sphinx-tunes/source/_abcfiles/_King of the Moors.svg' -->
<g stroke-width="0.70" style="font:italic 14.00px Times">
<text x="691.60" y="20.00" text-anchor="end">Jackie Tolliday-Bailey</text>
</g>
<g stroke-width="0.70" style="font:italic 14.00px Times">
<path class="stroke" stroke-width="1"
	d="M80.00 73.00v-24.00"/>
<path class="stroke" stroke-width="1"
	d="M156.30 73.00v-24.00"/>
<path class="stroke" stroke-width="1"
	d="M234.10 73.00v-24.00"/>
<path class="stroke" stroke-width="1"
	d="M310.30 73.00v-24.00"/>
<path class="stroke" stroke-width="1"
	d="M378.90 73.00v-24.00"/>
<path class="stroke" stroke-width="1"
	d="M394.90 73.00v-24.00"/>
<path class="stroke" stroke-width="1"
	d="M471.20 73.00v-24.00"/>
<path class="stroke" stroke-width="1"
	d="M546.00 73.00v-24.00"/>
<path class="stroke" stroke-width="1"
	d="M621.10 73.00v-24.00"/>
<path class="stroke" stroke-width="1"
	d="M691.60 73.00v-24.00"/>
<path d="m10.00 73.00
	h681.60
	M10.00 67.00
	h681.60
	M10.00 61.00
	h681.60
	M10.00 55.00
	h681.60
	M10.00 49.00
	h681.60
	" class="stroke"/>
<defs>
<path id="utclef" class="fill" d="m-50 -90
	c-72 -41 -72 -158 52 -188
	150 -10 220 188 90 256
	-114 52 -275 0 -293 -136
	-15 -181 93 -229 220 -334
	88 -87 79 -133 62 -210
	-51 33 -94 105 -89 186
	17 267 36 374 49 574
	6 96 -19 134 -77 135
	-80 1 -126 -93 -61 -133
	85 -41 133 101 31 105
	23 17 92 37 90 -92
	-10 -223 -39 -342 -50 -617
	0 -90 0 -162 96 -232
	56 72 63 230 22 289
	-74 106 -257 168 -255 316
	9 153 148 185 252 133
	86 -65 29 -192 -80 -176
	-71 12 -105 67 -59 124"/>
<use id="tclef" transform="translate(0,6) scale(0.045)"
	xlink:href="#utclef"/>
</defs>
<use x="22.00" y="67.00" xlink:href="#tclef"/>
<defs>
<path id="uflat" class="fill" d="
	m100 -746
	h32
	v734
	l-32 4
	m32 -332
	c46 -72 152 -90 208 -20
	100 110 -120 326 -208 348
	m0 -28
	c54 0 200 -206 130 -290
	-50 -60 -130 -4 -130 34"/>
<use id="ft0" transform="translate(-3.5,3.5) scale(0.018)"
	xlink:href="#uflat"/>
</defs>
<use x="37.00" y="61.00" xlink:href="#ft0"/>
<use x="42.50" y="52.00" xlink:href="#ft0"/>
<g style="font:bold 16px serif"
	transform="translate(58.50,72.50) scale(1.2,1)">
	<text text-anchor="middle">4</text>
	<text y="-12" text-anchor="middle">4</text>
</g>
<defs>
<ellipse id="hd" rx="4.1" ry="2.9"
	transform="rotate(-20)" class="fill"/>
</defs>
<use x="92.50" y="76.00" xlink:href="#hd"/>
<path d="M96.00 76.00v-21.00" class="stroke"/>
<defs>
<path id="hl" class="stroke" d="m-6 0h12"/>
</defs>
<use x="106.40" y="79.00" xlink:href="#hl"/>
<use x="106.40" y="85.00" xlink:href="#hl"/>
<use x="106.40" y="88.00" xlink:href="#hd"/>
<path d="M109.90 88.00v-27.00" class="stroke"/>
<path class="fill"
	d="M124.30 60.50l11.90 -2.10v3.20l-11.90 2.10"/>
<use x="121.10" y="79.00" xlink:href="#hl"/>
<use x="121.10" y="82.00" xlink:href="#hd"/>
<path d="M124.60 82.00v-20.50" class="stroke"/>
<use x="132.30" y="79.00" xlink:href="#hl"/>
<use x="132.30" y="79.00" xlink:href="#hd"/>
<path d="M135.80 79.00v-19.50" class="stroke"/>
<use x="143.50" y="76.00" xlink:href="#hd"/>
<path d="M147.00 76.00v-21.00" class="stroke"/>
<use x="168.80" y="79.00" xlink:href="#hl"/>
<use x="168.80" y="79.00" xlink:href="#hd"/>
<path d="M172.30 79.00v-21.00" class="stroke"/>
<use x="183.50" y="79.00" xlink:href="#hl"/>
<use x="183.50" y="82.00" xlink:href="#hd"/>
<path d="M187.00 82.00v-21.00" class="stroke"/>
<path class="fill"
	d="M201.30 60.80l11.90 0.00v3.20l-11.90 -0.00"/>
<use x="198.10" y="79.00" xlink:href="#hl"/>
<use x="198.10" y="85.00" xlink:href="#hl"/>
<use x="198.10" y="85.00" xlink:href="#hd"/>
<path d="M201.60 85.00v-23.20" class="stroke"/>
<use x="209.30" y="79.00" xlink:href="#hl"/>
<use x="209.30" y="82.00" xlink:href="#hd"/>
<path d="M212.80 82.00v-20.20" class="stroke"/>
<use x="221.20" y="79.00" xlink:href="#hl"/>
<use x="221.20" y="79.00" xlink:href="#hd"/>
<path d="M224.70 79.00v-21.00" class="stroke"/>
<use x="246.60" y="76.00" xlink:href="#hd"/>
<path d="M250.10 76.00v-21.00" class="stroke"/>
<use x="260.50" y="79.00" xlink:href="#hl"/>
<use x="260.50" y="85.00" xlink:href="#hl"/>
<use x="260.50" y="88.00" xlink:href="#hd"/>
<path d="M264.00 88.00v-27.00" class="stroke"/>
<path class="fill"
	d="M278.30 60.50l11.90 -2.10v3.20l-11.90 2.10"/>
<use x="275.20" y="79.00" xlink:href="#hl"/>
<use x="275.20" y="82.00" xlink:href="#hd"/>
<path d="M278.70 82.00v-20.50" class="stroke"/>
<use x="286.40" y="79.00" xlink:href="#hl"/>
<use x="286.40" y="79.00" xlink:href="#hd"/>
<path d="M289.90 79.00v-19.50" class="stroke"/>
<use x="297.50" y="76.00" xlink:href="#hd"/>
<path d="M301.00 76.00v-21.00" class="stroke"/>
<use x="322.80" y="79.00" xlink:href="#hl"/>
<use x="322.80" y="79.00" xlink:href="#hd"/>
<path d="M326.30 79.00v-21.00" class="stroke"/>
<use x="337.50" y="79.00" xlink:href="#hl"/>
<use x="337.50" y="82.00" xlink:href="#hd"/>
<path d="M341.00 82.00v-21.00" class="stroke"/>
<use x="352.20" y="79.00" xlink:href="#hl"/>
<use x="352.20" y="85.00" xlink:href="#hl"/>
<use x="352.20" y="85.00" xlink:href="#hd"/>
<path d="M355.70 85.00v-24.00" class="stroke"/>
<use x="366.10" y="76.00" xlink:href="#hd"/>
<path d="M369.60 76.00v-21.00" class="stroke"/>
<use x="407.40" y="76.00" xlink:href="#hd"/>
<path d="M410.90 76.00v-21.00" class="stroke"/>
<use x="421.40" y="79.00" xlink:href="#hl"/>
<use x="421.40" y="85.00" xlink:href="#hl"/>
<use x="421.40" y="88.00" xlink:href="#hd"/>
<path d="M424.90 88.00v-27.00" class="stroke"/>
<path class="fill"
	d="M439.20 60.50l11.90 -2.10v3.20l-11.90 2.10"/>
<use x="436.00" y="79.00" xlink:href="#hl"/>
<use x="436.00" y="82.00" xlink:href="#hd"/>
<path d="M439.50 82.00v-20.50" class="stroke"/>
<use x="447.20" y="79.00" xlink:href="#hl"/>
<use x="447.20" y="79.00" xlink:href="#hd"/>
<path d="M450.70 79.00v-19.50" class="stroke"/>
<use x="458.40" y="76.00" xlink:href="#hd"/>
<path d="M461.90 76.00v-21.00" class="stroke"/>
<use x="483.70" y="79.00" xlink:href="#hl"/>
<use x="483.70" y="79.00" xlink:href="#hd"/>
<path d="M487.20 79.00v-21.00" class="stroke"/>
<use x="497.60" y="76.00" xlink:href="#hd"/>
<path d="M501.10 76.00v-21.00" class="stroke"/>
<path class="fill"
	d="M514.70 52.50l11.20 2.00v3.20l-11.20 -2.00"/>
<use x="511.60" y="73.00" xlink:href="#hd"/>
<path d="M515.10 73.00v-19.50" class="stroke"/>
<use x="522.10" y="76.00" xlink:href="#hd"/>
<path d="M525.60 76.00v-20.50" class="stroke"/>
<use x="533.20" y="79.00" xlink:href="#hl"/>
<use x="533.20" y="79.00" xlink:href="#hd"/>
<path d="M536.70 79.00v-21.00" class="stroke"/>
<use x="558.50" y="55.00" xlink:href="#hd"/>
<path d="M555.00 55.00v21.00" class="stroke"/>
<use x="571.50" y="67.00" xlink:href="#hd"/>
<path d="M575.00 67.00v-21.00" class="stroke"/>
<path class="fill"
	d="M582.80 81.50l11.20 -2.00v-3.20l-11.20 2.00"/>
<use x="586.70" y="61.00" xlink:href="#hd"/>
<path d="M583.20 61.00v19.50" class="stroke"/>
<use x="597.10" y="58.00" xlink:href="#hd"/>
<path d="M593.60 58.00v20.50" class="stroke"/>
<use x="608.30" y="55.00" xlink:href="#hd"/>
<path d="M604.80 55.00v21.00" class="stroke"/>
<path class="fill"
	d="M629.80 83.20l32.10 0.00v-3.20l-32.10 -0.00"/>
<use x="633.60" y="58.00" xlink:href="#hd"/>
<path d="M630.10 58.00v24.20" class="stroke"/>
<use x="644.10" y="61.00" xlink:href="#hd"/>
<path d="M640.60 61.00v21.20" class="stroke"/>
<use x="654.60" y="64.00" xlink:href="#hd"/>
<path d="M651.10 64.00v18.20" class="stroke"/>
<use x="665.10" y="61.00" xlink:href="#hd"/>
<path d="M661.60 61.00v21.20" class="stroke"/>
<defs>
<path id="Hd" class="fill" d="m3 -1.6
	c-1 -1.8 -7 1.4 -6 3.2
	1 1.8 7 -1.4 6 -3.2
	m0.5 -0.3
	c2 3.8 -5 7.6 -7 3.8
	-2 -3.8 5 -7.6 7 -3.8"/>
</defs>
<use x="675.80" y="67.00" xlink:href="#Hd"/>
<path d="M679.30 67.00v-21.00" class="stroke"/>
</g>
<g stroke-width="0.70" style="font:italic 14.00px Times">
<path class="stroke" stroke-width="1"
	d="M236.70 143.00v-24.00"/>
<path d="m10.00 143.00
	h280.90
	M10.00 137.00
	h280.90
	M10.00 131.00
	h280.90
	M10.00 125.00
	h280.90
	M10.00 119.00
	h280.90
	" class="stroke"/>
<use x="22.00" y="137.00" xlink:href="#tclef"/>
<use x="37.00" y="131.00" xlink:href="#ft0"/>
<use x="42.50" y="122.00" xlink:href="#ft0"/>
<use x="60.50" y="125.00" xlink:href="#hd"/>
<path d="M57.00 125.00v21.00" class="stroke"/>
<use x="100.50" y="116.00" xlink:href="#hd"/>
<path d="M97.00 116.00v21.00" class="stroke"/>
<path class="fill"
	d="M136.70 137.20l77.10 0.00v-3.20l-77.10 -0.00"/>
<use x="140.50" y="116.00" xlink:href="#hd"/>
<path d="M137.00 116.00v20.20" class="stroke"/>
<use x="166.00" y="119.00" xlink:href="#hd"/>
<path d="M162.50 119.00v17.20" class="stroke"/>
<use x="191.40" y="116.00" xlink:href="#hd"/>
<path d="M187.90 116.00v20.20" class="stroke"/>
<use x="216.90" y="113.00" xlink:href="#hl"/>
<use x="216.90" y="113.00" xlink:href="#hd"/>
<path d="M213.40 113.00v23.20" class="stroke"/>
<use x="250.90" y="113.00" xlink:href="#hl"/>
<use x="250.90" y="110.00" xlink:href="#hd"/>
<path d="M247.40 110.00v21.00" class="stroke"/>
</g>
</svg>
