<?xml version="1.0" standalone="no"?>
<!DOCTYPE svg PUBLIC "-//W3C//DTD SVG 1.1//EN"
	"http://www.w3.org/Graphics/SVG/1.1/DTD/svg11.dtd">
<svg xmlns="http://www.w3.org/2000/svg" version="1.1"
	xmlns:xlink="http://www.w3.org/1999/xlink"
	color="black"
	width="701.60px" height="316.00px">
<style type="text/css">
.fill {fill: currentColor}
.stroke {stroke: currentColor; fill: none}
text{white-space: pre}
</style>
<title>/media/tim/Data1/tims_code/sphinx-tunes/source/_abcfiles/_le_petit_chien (1) tune 1</title>
<!-- Creator: abcm2ps-8.14.6 -->
<!-- CreationDate: Jul 30, 2023 12:21 -->
<!-- CommandLine: -g /media/tim/Data1/tims_code/sphinx-tunes/source/_abcfiles/_le_petit_chien.abc -O /media/tim/Data1/tims_code/sphinx-tunes/source/_abcfiles/_le_petit_chien.svg -->
<g stroke-width="0.70" style="font:italic 14.00px Times">
<text x="691.60" y="20.00" text-anchor="end">Andy Cutting</text>
</g>
<g stroke-width="0.70" style="font:italic 14.00px Times">
<path class="stroke" stroke-width="1"
	d="M229.10 73.00v-24.00"/>
<path class="stroke" stroke-width="1"
	d="M396.50 73.00v-24.00"/>
<path class="stroke" stroke-width="1"
	d="M552.40 73.00v-24.00"/>
<path class="stroke" stroke-width="1"
	d="M691.60 73.00v-24.00"/>
<path d="m10.00 73.00
	h681.60
	M10.00 67.00
	h681.60
	M10.00 61.00
	h681.60
	M10.00 55.00
	h681.60
	M10.00 49.00
	h681.60
	" class="stroke"/>
<defs>
<path id="utclef" class="fill" d="m-50 -90
	c-72 -41 -72 -158 52 -188
	150 -10 220 188 90 256
	-114 52 -275 0 -293 -136
	-15 -181 93 -229 220 -334
	88 -87 79 -133 62 -210
	-51 33 -94 105 -89 186
	17 267 36 374 49 574
	6 96 -19 134 -77 135
	-80 1 -126 -93 -61 -133
	85 -41 133 101 31 105
	23 17 92 37 90 -92
	-10 -223 -39 -342 -50 -617
	0 -90 0 -162 96 -232
	56 72 63 230 22 289
	-74 106 -257 168 -255 316
	9 153 148 185 252 133
	86 -65 29 -192 -80 -176
	-71 12 -105 67 -59 124"/>
<use id="tclef" transform="translate(0,6) scale(0.045)"
	xlink:href="#utclef"/>
</defs>
<use x="22.00" y="67.00" xlink:href="#tclef"/>
<defs>
<path id="usharp" class="fill" d="
	m136 -702
	v890
	h32
	v-890
	m128 840
	h32
	v-888
	h-32
	m-232 286
	v116
	l338 -96
	v-116
	m-338 442
	v116
	l338 -98
	v-114"/>
<use id="sh0" transform="translate(-4,5) scale(0.018)"
	xlink:href="#usharp"/>
</defs>
<use x="37.00" y="49.00" xlink:href="#sh0"/>
<use x="42.50" y="58.00" xlink:href="#sh0"/>
<g style="font:bold 16px serif"
	transform="translate(58.50,72.50) scale(1.2,1)">
	<text text-anchor="middle">2</text>
	<text y="-12" text-anchor="middle">2</text>
</g>
<defs>
<ellipse id="hd" rx="4.1" ry="2.9"
	transform="rotate(-20)" class="fill"/>
</defs>
<use x="76.50" y="61.00" xlink:href="#hd"/>
<path d="M73.00 61.00v21.00" class="stroke"/>
<path class="fill"
	d="M105.10 81.70l21.40 -2.40v-3.20l-21.40 2.40"/>
<use x="108.90" y="61.00" xlink:href="#hd"/>
<path d="M105.40 61.00v19.70" class="stroke"/>
<use x="129.70" y="58.00" xlink:href="#hd"/>
<path d="M126.20 58.00v20.30" class="stroke"/>
<path class="fill"
	d="M153.60 41.80l63.00 0.00v3.20l-63.00 -0.00"/>
<use x="150.40" y="61.00" xlink:href="#hd"/>
<path d="M153.90 61.00v-18.20" class="stroke"/>
<use x="171.20" y="64.00" xlink:href="#hd"/>
<path d="M174.70 64.00v-21.20" class="stroke"/>
<use x="191.90" y="70.00" xlink:href="#hd"/>
<path d="M195.40 70.00v-27.20" class="stroke"/>
<use x="212.70" y="64.00" xlink:href="#hd"/>
<path d="M216.20 64.00v-21.20" class="stroke"/>
<use x="241.60" y="61.00" xlink:href="#hd"/>
<path d="M245.10 61.00v-21.00" class="stroke"/>
<path class="fill"
	d="M277.10 42.70l21.40 -2.40v3.20l-21.40 2.40"/>
<use x="274.00" y="64.00" xlink:href="#hd"/>
<path d="M277.50 64.00v-20.30" class="stroke"/>
<use x="294.70" y="61.00" xlink:href="#hd"/>
<path d="M298.20 61.00v-19.70" class="stroke"/>
<path class="fill"
	d="M314.00 77.00l63.00 7.10v-3.20l-63.00 -7.10"/>
<use x="317.90" y="55.00" xlink:href="#hd"/>
<path d="M314.40 55.00v21.00" class="stroke"/>
<use x="338.60" y="58.00" xlink:href="#hd"/>
<path d="M335.10 58.00v20.30" class="stroke"/>
<use x="359.40" y="61.00" xlink:href="#hd"/>
<path d="M355.90 61.00v19.70" class="stroke"/>
<use x="380.10" y="64.00" xlink:href="#hd"/>
<path d="M376.60 64.00v19.00" class="stroke"/>
<use x="409.00" y="52.00" xlink:href="#hd"/>
<path d="M405.50 52.00v21.00" class="stroke"/>
<use x="441.40" y="52.00" xlink:href="#hd"/>
<path d="M437.90 52.00v21.00" class="stroke"/>
<path class="fill"
	d="M470.00 77.00l63.00 7.10v-3.20l-63.00 -7.10"/>
<use x="473.80" y="55.00" xlink:href="#hd"/>
<path d="M470.30 55.00v21.00" class="stroke"/>
<use x="494.60" y="58.00" xlink:href="#hd"/>
<path d="M491.10 58.00v20.30" class="stroke"/>
<use x="515.30" y="61.00" xlink:href="#hd"/>
<path d="M511.80 61.00v19.70" class="stroke"/>
<use x="536.10" y="64.00" xlink:href="#hd"/>
<path d="M532.60 64.00v19.00" class="stroke"/>
<path class="fill"
	d="M561.10 75.70l21.40 -2.40v-3.20l-21.40 2.40"/>
<use x="564.90" y="55.00" xlink:href="#hd"/>
<path d="M561.40 55.00v19.70" class="stroke"/>
<use x="585.70" y="52.00" xlink:href="#hd"/>
<path d="M582.20 52.00v20.30" class="stroke"/>
<defs>
<path id="Hd" class="fill" d="m3 -1.6
	c-1 -1.8 -7 1.4 -6 3.2
	1 1.8 7 -1.4 6 -3.2
	m0.5 -0.3
	c2 3.8 -5 7.6 -7 3.8
	-2 -3.8 5 -7.6 7 -3.8"/>
</defs>
<use x="608.70" y="58.00" xlink:href="#Hd"/>
<path d="M605.20 58.00v21.00" class="stroke"/>
<path class="fill"
	d="M650.60 76.30l21.40 2.40v-3.20l-21.40 -2.40"/>
<use x="654.50" y="55.00" xlink:href="#hd"/>
<path d="M651.00 55.00v20.30" class="stroke"/>
<use x="675.20" y="58.00" xlink:href="#hd"/>
<path d="M671.70 58.00v19.70" class="stroke"/>
</g>
<g stroke-width="0.70" style="font:italic 14.00px Times">
<path class="stroke" stroke-width="1"
	d="M178.90 148.00v-24.00"/>
<path class="stroke" stroke-width="1"
	d="M311.80 148.00v-24.00"/>
<path class="stroke" stroke-width="1"
	d="M434.90 148.00v-24.00"/>
<path class="stroke" stroke-width="3"
	d="M550.30 148.00v-24.00"/>
<path class="stroke" stroke-width="1"
	d="M545.80 148.00v-24.00"/>
<defs>
<g id="rdots" class="fill">
	<circle cx="0" cy="-9" r="1.2"/>
	<circle cx="0" cy="-15" r="1.2"/>
</g>
</defs>
<use x="541.80" y="148.00" xlink:href="#rdots"/>
<path class="stroke" stroke-width="1"
	d="M661.80 148.00v-24.00"/>
<path d="m10.00 148.00
	h681.60
	M10.00 142.00
	h681.60
	M10.00 136.00
	h681.60
	M10.00 130.00
	h681.60
	M10.00 124.00
	h681.60
	" class="stroke"/>
<path class="fill"
	d="M466.50 122.80c2.33 -3.14 12.47 -0.26 14.80 4.20
	v-0.21c-2.78 -6.25 -12.03 -9.12 -14.80 -3.99"/>
</g>
<g stroke-width="0.70" style="font:13.00px Times">
<text x="438.90" y="109.40">1</text>
<path class="stroke"
	d="M434.90 98.00m0 20v-20h108.90v20"/>
<text x="555.80" y="109.40">2</text>
<path class="stroke"
	d="M551.80 98.00m0 20v-20h135.80"/>
<use x="22.00" y="142.00" xlink:href="#tclef"/>
<use x="37.00" y="124.00" xlink:href="#sh0"/>
<use x="42.50" y="133.00" xlink:href="#sh0"/>
<use x="60.50" y="136.00" xlink:href="#hd"/>
<path d="M57.00 136.00v21.00" class="stroke"/>
<path class="fill"
	d="M81.00 156.60l16.80 -2.30v-3.20l-16.80 2.30"/>
<use x="84.90" y="136.00" xlink:href="#hd"/>
<path d="M81.40 136.00v19.60" class="stroke"/>
<use x="101.00" y="133.00" xlink:href="#hd"/>
<path d="M97.50 133.00v20.40" class="stroke"/>
<path class="fill"
	d="M120.30 116.80l49.00 0.00v3.20l-49.00 -0.00"/>
<use x="117.10" y="136.00" xlink:href="#hd"/>
<path d="M120.60 136.00v-18.20" class="stroke"/>
<use x="133.20" y="139.00" xlink:href="#hd"/>
<path d="M136.70 139.00v-21.20" class="stroke"/>
<use x="149.30" y="145.00" xlink:href="#hd"/>
<path d="M152.80 145.00v-27.20" class="stroke"/>
<use x="165.40" y="139.00" xlink:href="#hd"/>
<path d="M168.90 139.00v-21.20" class="stroke"/>
<use x="191.40" y="136.00" xlink:href="#hd"/>
<path d="M194.90 136.00v-21.00" class="stroke"/>
<path class="fill"
	d="M218.90 117.60l16.80 -2.30v3.20l-16.80 2.30"/>
<use x="215.80" y="139.00" xlink:href="#hd"/>
<path d="M219.30 139.00v-20.40" class="stroke"/>
<use x="231.90" y="136.00" xlink:href="#hd"/>
<path d="M235.40 136.00v-19.60" class="stroke"/>
<path class="fill"
	d="M246.20 152.20l49.00 6.60v-3.20l-49.00 -6.60"/>
<use x="250.00" y="130.00" xlink:href="#hd"/>
<path d="M246.50 130.00v21.20" class="stroke"/>
<use x="266.10" y="133.00" xlink:href="#hd"/>
<path d="M262.60 133.00v20.40" class="stroke"/>
<use x="282.20" y="136.00" xlink:href="#hd"/>
<path d="M278.70 136.00v19.60" class="stroke"/>
<use x="298.30" y="139.00" xlink:href="#hd"/>
<path d="M294.80 139.00v18.80" class="stroke"/>
<use x="324.30" y="127.00" xlink:href="#hd"/>
<path d="M320.80 127.00v21.00" class="stroke"/>
<use x="348.70" y="127.00" xlink:href="#hd"/>
<path d="M345.20 127.00v21.00" class="stroke"/>
<path class="fill"
	d="M369.30 152.20l49.00 6.60v-3.20l-49.00 -6.60"/>
<use x="373.10" y="130.00" xlink:href="#hd"/>
<path d="M369.60 130.00v21.20" class="stroke"/>
<use x="389.20" y="133.00" xlink:href="#hd"/>
<path d="M385.70 133.00v20.40" class="stroke"/>
<use x="405.30" y="136.00" xlink:href="#hd"/>
<path d="M401.80 136.00v19.60" class="stroke"/>
<use x="421.40" y="139.00" xlink:href="#hd"/>
<path d="M417.90 139.00v18.80" class="stroke"/>
<path class="fill"
	d="M443.60 150.60l16.80 -2.30v-3.20l-16.80 2.30"/>
<use x="447.40" y="130.00" xlink:href="#hd"/>
<path d="M443.90 130.00v19.60" class="stroke"/>
<use x="463.50" y="127.00" xlink:href="#hd"/>
<path d="M460.00 127.00v20.40" class="stroke"/>
<use x="481.30" y="133.00" xlink:href="#Hd"/>
<path d="M477.80 133.00v21.00" class="stroke"/>
<path class="fill"
	d="M511.40 151.40l16.80 2.30v-3.20l-16.80 -2.30"/>
<use x="515.20" y="130.00" xlink:href="#hd"/>
<path d="M511.70 130.00v20.40" class="stroke"/>
<use x="531.30" y="133.00" xlink:href="#hd"/>
<path d="M527.80 133.00v19.60" class="stroke"/>
<path class="fill"
	d="M560.50 150.60l16.80 -2.30v-3.20l-16.80 2.30"/>
<use x="564.30" y="130.00" xlink:href="#hd"/>
<path d="M560.80 130.00v19.60" class="stroke"/>
<use x="580.40" y="127.00" xlink:href="#hd"/>
<path d="M576.90 127.00v20.40" class="stroke"/>
<use x="598.20" y="133.00" xlink:href="#Hd"/>
<path d="M594.70 133.00v21.00" class="stroke"/>
<path class="fill"
	d="M628.30 150.60l16.80 -2.30v-3.20l-16.80 2.30"/>
<use x="632.20" y="130.00" xlink:href="#hd"/>
<path d="M628.70 130.00v19.60" class="stroke"/>
<use x="648.30" y="127.00" xlink:href="#hd"/>
<path d="M644.80 127.00v20.40" class="stroke"/>
<use x="672.80" y="124.00" xlink:href="#sh0"/>
<defs>
<path id="unat" class="fill" d="
	m96 -750
	h-32
	v716
	l32 -8
	182 -54
	v282
	h32
	v-706
	l-34 10
	-180 50
	v-290
	m0 592
	v-190
	l182 -52
	v188"/>
<use id="nt0" transform="translate(-3,5) scale(0.018)"
	xlink:href="#unat"/>
</defs>
<use x="680.30" y="133.00" xlink:href="#nt0"/>
</g>
<g stroke-width="0.70" style="font:13.00px Times">
<path class="stroke" stroke-width="1"
	d="M54.50 218.00v-24.00"/>
<path class="stroke" stroke-width="1"
	d="M203.20 218.00v-24.00"/>
<path class="stroke" stroke-width="1"
	d="M366.00 218.00v-24.00"/>
<path class="stroke" stroke-width="1"
	d="M519.90 218.00v-24.00"/>
<path class="stroke" stroke-width="1"
	d="M691.60 218.00v-24.00"/>
<path d="m10.00 218.00
	h681.60
	M10.00 212.00
	h681.60
	M10.00 206.00
	h681.60
	M10.00 200.00
	h681.60
	M10.00 194.00
	h681.60
	" class="stroke"/>
<use x="22.00" y="212.00" xlink:href="#tclef"/>
<use x="37.00" y="194.00" xlink:href="#sh0"/>
<use x="67.00" y="206.00" xlink:href="#hd"/>
<path d="M63.50 206.00v21.00" class="stroke"/>
<use x="98.50" y="206.00" xlink:href="#hd"/>
<path d="M95.00 206.00v21.00" class="stroke"/>
<path class="fill"
	d="M130.00 189.00l61.10 7.00v3.20l-61.10 -7.00"/>
<use x="126.80" y="209.00" xlink:href="#hd"/>
<path d="M130.30 209.00v-19.00" class="stroke"/>
<use x="147.00" y="212.00" xlink:href="#hd"/>
<path d="M150.50 212.00v-19.70" class="stroke"/>
<use x="167.10" y="215.00" xlink:href="#hd"/>
<path d="M170.60 215.00v-20.30" class="stroke"/>
<use x="187.30" y="218.00" xlink:href="#hd"/>
<path d="M190.80 218.00v-21.00" class="stroke"/>
<use x="215.70" y="209.00" xlink:href="#hd"/>
<path d="M219.20 209.00v-21.00" class="stroke"/>
<path class="fill"
	d="M250.30 190.70l20.80 -2.40v3.20l-20.80 2.40"/>
<use x="247.10" y="212.00" xlink:href="#hd"/>
<path d="M250.60 212.00v-20.30" class="stroke"/>
<use x="267.30" y="209.00" xlink:href="#hd"/>
<path d="M270.80 209.00v-19.70" class="stroke"/>
<path class="fill"
	d="M292.80 186.80l61.10 5.00v3.20l-61.10 -5.00"/>
<use x="289.60" y="206.00" xlink:href="#hd"/>
<path d="M293.10 206.00v-18.20" class="stroke"/>
<use x="309.80" y="212.00" xlink:href="#hd"/>
<path d="M313.30 212.00v-22.50" class="stroke"/>
<use x="329.90" y="218.00" xlink:href="#hd"/>
<path d="M333.40 218.00v-26.90" class="stroke"/>
<use x="350.10" y="215.00" xlink:href="#hd"/>
<path d="M353.60 215.00v-22.20" class="stroke"/>
<use x="378.50" y="212.00" xlink:href="#hd"/>
<path d="M382.00 212.00v-21.00" class="stroke"/>
<path class="fill"
	d="M413.10 194.30l20.80 2.40v3.20l-20.80 -2.40"/>
<use x="409.90" y="215.00" xlink:href="#hd"/>
<path d="M413.40 215.00v-19.70" class="stroke"/>
<use x="430.10" y="218.00" xlink:href="#hd"/>
<path d="M433.60 218.00v-20.30" class="stroke"/>
<use x="452.40" y="209.00" xlink:href="#hd"/>
<path d="M455.90 209.00v-21.00" class="stroke"/>
<path class="fill"
	d="M487.10 191.30l20.80 2.40v3.20l-20.80 -2.40"/>
<use x="483.90" y="212.00" xlink:href="#hd"/>
<path d="M487.40 212.00v-19.70" class="stroke"/>
<use x="504.10" y="215.00" xlink:href="#hd"/>
<path d="M507.60 215.00v-20.30" class="stroke"/>
<path class="fill"
	d="M535.60 196.00l61.10 -7.00v3.20l-61.10 7.00"/>
<use x="532.40" y="218.00" xlink:href="#hd"/>
<path d="M535.90 218.00v-21.00" class="stroke"/>
<use x="552.60" y="215.00" xlink:href="#hd"/>
<path d="M556.10 215.00v-20.30" class="stroke"/>
<use x="572.70" y="212.00" xlink:href="#hd"/>
<path d="M576.20 212.00v-19.70" class="stroke"/>
<use x="592.90" y="209.00" xlink:href="#hd"/>
<path d="M596.40 209.00v-19.00" class="stroke"/>
<path class="fill"
	d="M618.40 194.00l61.10 -4.20v3.20l-61.10 4.20"/>
<use x="615.30" y="215.00" xlink:href="#hd"/>
<path d="M618.80 215.00v-20.00" class="stroke"/>
<use x="635.40" y="221.00" xlink:href="#hd"/>
<path d="M638.90 221.00v-27.40" class="stroke"/>
<use x="655.60" y="212.00" xlink:href="#hd"/>
<path d="M659.10 212.00v-19.80" class="stroke"/>
<use x="675.70" y="209.00" xlink:href="#hd"/>
<path d="M679.20 209.00v-18.20" class="stroke"/>
</g>
<g stroke-width="0.70" style="font:13.00px Times">
<path class="stroke" stroke-width="1"
	d="M175.30 293.00v-24.00"/>
<path class="stroke" stroke-width="1"
	d="M305.20 293.00v-24.00"/>
<path class="stroke" stroke-width="1"
	d="M435.00 293.00v-24.00"/>
<path class="stroke" stroke-width="3"
	d="M550.30 293.00v-24.00"/>
<path class="stroke" stroke-width="1"
	d="M545.80 293.00v-24.00"/>
<use x="541.80" y="293.00" xlink:href="#rdots"/>
<path class="stroke" stroke-width="3"
	d="M690.10 293.00v-24.00"/>
<path class="stroke" stroke-width="1"
	d="M685.60 293.00v-24.00"/>
<path d="m10.00 293.00
	h681.60
	M10.00 287.00
	h681.60
	M10.00 281.00
	h681.60
	M10.00 275.00
	h681.60
	M10.00 269.00
	h681.60
	" class="stroke"/>
<text x="58.50" y="254.40"></text>
<path class="stroke"
	d="M54.50 243.00h380.50v20"/>
<text x="439.00" y="254.40">1</text>
<path class="stroke"
	d="M435.00 243.00m0 20v-20h108.70v20"/>
<text x="555.80" y="254.40">2</text>
<path class="stroke"
	d="M551.80 243.00m0 20v-20h139.80v20"/>
<use x="22.00" y="287.00" xlink:href="#tclef"/>
<use x="37.00" y="269.00" xlink:href="#sh0"/>
<use x="67.00" y="281.00" xlink:href="#hd"/>
<path d="M70.50 281.00v-21.00" class="stroke"/>
<use x="91.00" y="281.00" xlink:href="#hd"/>
<path d="M94.50 281.00v-21.00" class="stroke"/>
<path class="fill"
	d="M118.20 264.20l47.90 6.60v3.20l-47.90 -6.60"/>
<use x="115.10" y="284.00" xlink:href="#hd"/>
<path d="M118.60 284.00v-18.80" class="stroke"/>
<use x="130.80" y="287.00" xlink:href="#hd"/>
<path d="M134.30 287.00v-19.60" class="stroke"/>
<use x="146.60" y="290.00" xlink:href="#hd"/>
<path d="M150.10 290.00v-20.40" class="stroke"/>
<use x="162.30" y="293.00" xlink:href="#hd"/>
<path d="M165.80 293.00v-21.20" class="stroke"/>
<use x="187.80" y="284.00" xlink:href="#hd"/>
<path d="M191.30 284.00v-21.00" class="stroke"/>
<path class="fill"
	d="M215.00 265.60l16.40 -2.30v3.20l-16.40 2.30"/>
<use x="211.80" y="287.00" xlink:href="#hd"/>
<path d="M215.30 287.00v-20.40" class="stroke"/>
<use x="227.60" y="284.00" xlink:href="#hd"/>
<path d="M231.10 284.00v-19.60" class="stroke"/>
<path class="fill"
	d="M248.10 261.80l47.90 4.80v3.20l-47.90 -4.80"/>
<use x="244.90" y="281.00" xlink:href="#hd"/>
<path d="M248.40 281.00v-18.20" class="stroke"/>
<use x="260.70" y="287.00" xlink:href="#hd"/>
<path d="M264.20 287.00v-22.60" class="stroke"/>
<use x="276.40" y="293.00" xlink:href="#hd"/>
<path d="M279.90 293.00v-27.00" class="stroke"/>
<use x="292.20" y="290.00" xlink:href="#hd"/>
<path d="M295.70 290.00v-22.50" class="stroke"/>
<use x="317.70" y="287.00" xlink:href="#hd"/>
<path d="M321.20 287.00v-21.00" class="stroke"/>
<path class="fill"
	d="M344.90 269.40l16.40 2.30v3.20l-16.40 -2.30"/>
<use x="341.70" y="290.00" xlink:href="#hd"/>
<path d="M345.20 290.00v-19.60" class="stroke"/>
<use x="357.50" y="293.00" xlink:href="#hd"/>
<path d="M361.00 293.00v-20.40" class="stroke"/>
<path class="fill"
	d="M378.00 267.80l47.90 -6.60v3.20l-47.90 6.60"/>
<use x="374.80" y="290.00" xlink:href="#hd"/>
<path d="M378.30 290.00v-21.20" class="stroke"/>
<use x="390.60" y="287.00" xlink:href="#hd"/>
<path d="M394.10 287.00v-20.40" class="stroke"/>
<use x="406.30" y="284.00" xlink:href="#hd"/>
<path d="M409.80 284.00v-19.60" class="stroke"/>
<use x="422.10" y="281.00" xlink:href="#hd"/>
<path d="M425.60 281.00v-18.80" class="stroke"/>
<use x="447.50" y="290.00" xlink:href="#hd"/>
<path d="M451.00 290.00v-21.00" class="stroke"/>
<use x="471.60" y="293.00" xlink:href="#hd"/>
<circle class="fill" cx="479.30" cy="290.00" r="1.2"/>
<path d="M475.10 293.00v-21.00" class="stroke"/>
<path class="fill"
	d="M502.90 268.20l32.20 -4.40v3.20l-32.20 4.40"/>
<use x="499.80" y="290.00" xlink:href="#hd"/>
<path d="M503.30 290.00v-20.80" class="stroke"/>
<use x="515.50" y="287.00" xlink:href="#hd"/>
<path d="M519.00 287.00v-20.00" class="stroke"/>
<use x="531.30" y="284.00" xlink:href="#hd"/>
<path d="M534.80 284.00v-19.20" class="stroke"/>
<path class="fill"
	d="M567.40 267.20l47.90 6.60v3.20l-47.90 -6.60"/>
<use x="564.30" y="287.00" xlink:href="#hd"/>
<path d="M567.80 287.00v-18.80" class="stroke"/>
<use x="580.00" y="290.00" xlink:href="#hd"/>
<path d="M583.50 290.00v-19.60" class="stroke"/>
<use x="595.80" y="293.00" xlink:href="#hd"/>
<path d="M599.30 293.00v-20.40" class="stroke"/>
<use x="611.50" y="296.00" xlink:href="#hd"/>
<path d="M615.00 296.00v-21.20" class="stroke"/>
<path class="fill"
	d="M632.00 271.40l47.90 -5.50v3.20l-47.90 5.50"/>
<defs>
<path id="hl" class="stroke" d="m-6 0h12"/>
</defs>
<use x="628.90" y="299.00" xlink:href="#hl"/>
<use x="628.90" y="302.00" xlink:href="#hd"/>
<path d="M632.40 302.00v-29.60" class="stroke"/>
<use x="644.60" y="290.00" xlink:href="#hd"/>
<path d="M648.10 290.00v-19.40" class="stroke"/>
<use x="660.40" y="287.00" xlink:href="#hd"/>
<path d="M663.90 287.00v-18.20" class="stroke"/>
<use x="676.10" y="290.00" xlink:href="#hd"/>
<path d="M679.60 290.00v-23.00" class="stroke"/>
</g>
</svg>
