<?xml version="1.0" standalone="no"?>
<!DOCTYPE svg PUBLIC "-//W3C//DTD SVG 1.1//EN"
	"http://www.w3.org/Graphics/SVG/1.1/DTD/svg11.dtd">
<svg xmlns="http://www.w3.org/2000/svg" version="1.1"
	xmlns:xlink="http://www.w3.org/1999/xlink"
	color="black"
	width="701.60px" height="934.00px">
<style type="text/css">
.fill {fill: currentColor}
.stroke {stroke: currentColor; fill: none}
text{white-space: pre}
</style>
<title>/media/tim/Data1/tims_code/sphinx-tunes/source/_abcfiles/_lichfieldmille (1) tune 1</title>
<!-- Creator: abcm2ps-8.14.6 -->
<!-- CreationDate: Jul 30, 2023 12:21 -->
<!-- CommandLine: -g /media/tim/Data1/tims_code/sphinx-tunes/source/_abcfiles/_lichfieldmilleysbequest_0.abc -O /media/tim/Data1/tims_code/sphinx-tunes/source/_abcfiles/_lichfieldmilleysbequest_0.svg -->
<g stroke-width="0.70" style="font:15.00px Times">
<text x="10.00" y="9.00">A(AB)5</text>
</g>
<g stroke-width="0.70" style="font:15.00px Times">
<text x="61.00" y="51.00">A</text>
<path class="stroke" stroke-width="1"
	d="M241.20 91.00v-24.00"/>
<path class="stroke" stroke-width="1"
	d="M396.40 91.00v-24.00"/>
<path class="stroke" stroke-width="1"
	d="M581.40 91.00v-24.00"/>
<path class="stroke" stroke-width="1"
	d="M691.60 91.00v-24.00"/>
<path d="m10.00 91.00
	h681.60
	M10.00 85.00
	h681.60
	M10.00 79.00
	h681.60
	M10.00 73.00
	h681.60
	M10.00 67.00
	h681.60
	" class="stroke"/>
<defs>
<path id="utclef" class="fill" d="m-50 -90
	c-72 -41 -72 -158 52 -188
	150 -10 220 188 90 256
	-114 52 -275 0 -293 -136
	-15 -181 93 -229 220 -334
	88 -87 79 -133 62 -210
	-51 33 -94 105 -89 186
	17 267 36 374 49 574
	6 96 -19 134 -77 135
	-80 1 -126 -93 -61 -133
	85 -41 133 101 31 105
	23 17 92 37 90 -92
	-10 -223 -39 -342 -50 -617
	0 -90 0 -162 96 -232
	56 72 63 230 22 289
	-74 106 -257 168 -255 316
	9 153 148 185 252 133
	86 -65 29 -192 -80 -176
	-71 12 -105 67 -59 124"/>
<use id="tclef" transform="translate(0,6) scale(0.045)"
	xlink:href="#utclef"/>
</defs>
<use x="22.00" y="85.00" xlink:href="#tclef"/>
<defs>
<path id="usharp" class="fill" d="
	m136 -702
	v890
	h32
	v-890
	m128 840
	h32
	v-888
	h-32
	m-232 286
	v116
	l338 -96
	v-116
	m-338 442
	v116
	l338 -98
	v-114"/>
<use id="sh0" transform="translate(-4,5) scale(0.018)"
	xlink:href="#usharp"/>
</defs>
<use x="37.00" y="67.00" xlink:href="#sh0"/>
<g style="font:bold 16px serif"
	transform="translate(53.00,90.50) scale(1.2,1)">
	<text text-anchor="middle">4</text>
	<text y="-12" text-anchor="middle">4</text>
</g>
<defs>
<ellipse id="hd" rx="4.1" ry="2.9"
	transform="rotate(-20)" class="fill"/>
</defs>
<use x="71.00" y="85.00" xlink:href="#hd"/>
<path d="M74.50 85.00v-21.00" class="stroke"/>
<path class="fill"
	d="M116.20 63.80l27.50 -2.50v3.20l-27.50 2.50"/>
<use x="113.10" y="85.00" xlink:href="#hd"/>
<path d="M116.60 85.00v-20.30" class="stroke"/>
<use x="139.90" y="82.00" xlink:href="#hd"/>
<path d="M143.40 82.00v-19.70" class="stroke"/>
<use x="169.60" y="79.00" xlink:href="#hd"/>
<path d="M173.10 79.00v-21.00" class="stroke"/>
<use x="211.70" y="85.00" xlink:href="#hd"/>
<path d="M215.20 85.00v-21.00" class="stroke"/>
<use x="256.10" y="91.00" xlink:href="#hd"/>
<path d="M259.60 91.00v-21.00" class="stroke"/>
<path class="fill"
	d="M294.30 97.00l27.50 0.00v-3.20l-27.50 -0.00"/>
<use x="298.10" y="76.00" xlink:href="#hd"/>
<path d="M294.60 76.00v20.00" class="stroke"/>
<use x="324.90" y="76.00" xlink:href="#hd"/>
<path d="M321.40 76.00v20.00" class="stroke"/>
<defs>
<path id="Hd" class="fill" d="m3 -1.6
	c-1 -1.8 -7 1.4 -6 3.2
	1 1.8 7 -1.4 6 -3.2
	m0.5 -0.3
	c2 3.8 -5 7.6 -7 3.8
	-2 -3.8 5 -7.6 7 -3.8"/>
</defs>
<use x="354.70" y="76.00" xlink:href="#Hd"/>
<path d="M351.20 76.00v21.00" class="stroke"/>
<use x="411.30" y="94.00" xlink:href="#hd"/>
<path d="M414.80 94.00v-21.00" class="stroke"/>
<path class="fill"
	d="M456.50 72.80l27.50 -2.50v3.20l-27.50 2.50"/>
<use x="453.30" y="94.00" xlink:href="#hd"/>
<path d="M456.80 94.00v-20.30" class="stroke"/>
<use x="480.10" y="91.00" xlink:href="#hd"/>
<path d="M483.60 91.00v-19.70" class="stroke"/>
<use x="509.90" y="88.00" xlink:href="#hd"/>
<path d="M513.40 88.00v-21.00" class="stroke"/>
<use x="552.00" y="76.00" xlink:href="#hd"/>
<path d="M548.50 76.00v21.00" class="stroke"/>
<use x="596.30" y="79.00" xlink:href="#Hd"/>
<path d="M592.80 79.00v21.00" class="stroke"/>
<use x="649.90" y="82.00" xlink:href="#Hd"/>
<path d="M653.40 82.00v-21.00" class="stroke"/>
</g>
<g stroke-width="0.70" style="font:15.00px Times">
<path class="stroke" stroke-width="1"
	d="M221.50 161.00v-24.00"/>
<path class="stroke" stroke-width="1"
	d="M373.30 161.00v-24.00"/>
<path class="stroke" stroke-width="1"
	d="M572.20 161.00v-24.00"/>
<path class="stroke" stroke-width="1"
	d="M691.60 161.00v-24.00"/>
<path class="stroke" stroke-width="1"
	d="M688.60 161.00v-24.00"/>
<path d="m10.00 161.00
	h681.60
	M10.00 155.00
	h681.60
	M10.00 149.00
	h681.60
	M10.00 143.00
	h681.60
	M10.00 137.00
	h681.60
	" class="stroke"/>
<use x="22.00" y="155.00" xlink:href="#tclef"/>
<use x="37.00" y="137.00" xlink:href="#sh0"/>
<use x="55.00" y="155.00" xlink:href="#hd"/>
<path d="M58.50 155.00v-21.00" class="stroke"/>
<path class="fill"
	d="M99.30 133.80l26.90 -2.50v3.20l-26.90 2.50"/>
<use x="96.20" y="155.00" xlink:href="#hd"/>
<path d="M99.70 155.00v-20.30" class="stroke"/>
<use x="122.40" y="152.00" xlink:href="#hd"/>
<path d="M125.90 152.00v-19.70" class="stroke"/>
<use x="151.50" y="149.00" xlink:href="#hd"/>
<path d="M155.00 149.00v-21.00" class="stroke"/>
<use x="192.70" y="155.00" xlink:href="#hd"/>
<path d="M196.20 155.00v-21.00" class="stroke"/>
<use x="236.10" y="161.00" xlink:href="#hd"/>
<path d="M239.60 161.00v-21.00" class="stroke"/>
<path class="fill"
	d="M273.40 167.00l26.90 0.00v-3.20l-26.90 -0.00"/>
<use x="277.20" y="146.00" xlink:href="#hd"/>
<path d="M273.70 146.00v20.00" class="stroke"/>
<use x="303.40" y="146.00" xlink:href="#hd"/>
<path d="M299.90 146.00v20.00" class="stroke"/>
<use x="332.60" y="146.00" xlink:href="#Hd"/>
<path d="M329.10 146.00v21.00" class="stroke"/>
<use x="387.90" y="164.00" xlink:href="#hd"/>
<path d="M391.40 164.00v-21.00" class="stroke"/>
<path class="fill"
	d="M432.20 142.80l26.90 -2.50v3.20l-26.90 2.50"/>
<use x="429.10" y="164.00" xlink:href="#hd"/>
<path d="M432.60 164.00v-20.30" class="stroke"/>
<use x="455.30" y="161.00" xlink:href="#hd"/>
<path d="M458.80 161.00v-19.70" class="stroke"/>
<use x="484.40" y="158.00" xlink:href="#hd"/>
<path d="M487.90 158.00v-21.00" class="stroke"/>
<path class="fill"
	d="M528.70 133.80l26.90 -2.50v3.20l-26.90 2.50"/>
<use x="525.60" y="155.00" xlink:href="#hd"/>
<path d="M529.10 155.00v-20.30" class="stroke"/>
<use x="551.80" y="152.00" xlink:href="#hd"/>
<path d="M555.30 152.00v-19.70" class="stroke"/>
<use x="586.70" y="152.00" xlink:href="#Hd"/>
<path d="M590.20 152.00v-21.00" class="stroke"/>
<use x="645.00" y="155.00" xlink:href="#Hd"/>
<path d="M648.50 155.00v-21.00" class="stroke"/>
</g>
<g stroke-width="0.70" style="font:15.00px Times">
<text x="45.00" y="201.00">B</text>
<path class="stroke" stroke-width="1"
	d="M221.60 241.00v-24.00"/>
<path class="stroke" stroke-width="1"
	d="M384.80 241.00v-24.00"/>
<path class="stroke" stroke-width="1"
	d="M583.80 241.00v-24.00"/>
<path class="stroke" stroke-width="1"
	d="M691.60 241.00v-24.00"/>
<path d="m10.00 241.00
	h681.60
	M10.00 235.00
	h681.60
	M10.00 229.00
	h681.60
	M10.00 223.00
	h681.60
	M10.00 217.00
	h681.60
	" class="stroke"/>
<use x="22.00" y="235.00" xlink:href="#tclef"/>
<use x="37.00" y="217.00" xlink:href="#sh0"/>
<use x="55.00" y="223.00" xlink:href="#hd"/>
<path d="M51.50 223.00v21.00" class="stroke"/>
<path class="fill"
	d="M92.40 244.00l26.90 0.00v-3.20l-26.90 -0.00"/>
<use x="96.20" y="223.00" xlink:href="#hd"/>
<path d="M92.70 223.00v20.00" class="stroke"/>
<use x="122.40" y="223.00" xlink:href="#hd"/>
<path d="M118.90 223.00v20.00" class="stroke"/>
<use x="151.60" y="226.00" xlink:href="#hd"/>
<path d="M148.10 226.00v21.00" class="stroke"/>
<use x="192.80" y="226.00" xlink:href="#hd"/>
<path d="M189.30 226.00v21.00" class="stroke"/>
<path class="fill"
	d="M232.30 248.20l79.40 0.00v-3.20l-79.40 -0.00"/>
<use x="236.20" y="229.00" xlink:href="#hd"/>
<path d="M232.70 229.00v18.20" class="stroke"/>
<use x="262.40" y="226.00" xlink:href="#hd"/>
<path d="M258.90 226.00v21.20" class="stroke"/>
<use x="288.60" y="223.00" xlink:href="#hd"/>
<path d="M285.10 223.00v24.20" class="stroke"/>
<use x="314.90" y="229.00" xlink:href="#hd"/>
<path d="M311.40 229.00v18.20" class="stroke"/>
<use x="344.00" y="226.00" xlink:href="#Hd"/>
<path d="M340.50 226.00v21.00" class="stroke"/>
<use x="399.40" y="223.00" xlink:href="#hd"/>
<path d="M395.90 223.00v21.00" class="stroke"/>
<path class="fill"
	d="M436.70 244.00l26.90 0.00v-3.20l-26.90 -0.00"/>
<use x="440.60" y="223.00" xlink:href="#hd"/>
<path d="M437.10 223.00v20.00" class="stroke"/>
<use x="466.80" y="223.00" xlink:href="#hd"/>
<path d="M463.30 223.00v20.00" class="stroke"/>
<use x="495.90" y="226.00" xlink:href="#hd"/>
<path d="M492.40 226.00v21.00" class="stroke"/>
<path class="fill"
	d="M533.30 247.00l26.90 0.00v-3.20l-26.90 -0.00"/>
<use x="537.10" y="226.00" xlink:href="#hd"/>
<path d="M533.60 226.00v20.00" class="stroke"/>
<use x="563.40" y="226.00" xlink:href="#hd"/>
<path d="M559.90 226.00v20.00" class="stroke"/>
<use x="598.30" y="229.00" xlink:href="#Hd"/>
<path d="M594.80 229.00v21.00" class="stroke"/>
<use x="650.80" y="232.00" xlink:href="#Hd"/>
<path d="M654.30 232.00v-21.00" class="stroke"/>
</g>
<g stroke-width="0.70" style="font:15.00px Times">
<path class="stroke" stroke-width="1"
	d="M221.50 311.00v-24.00"/>
<path class="stroke" stroke-width="1"
	d="M373.30 311.00v-24.00"/>
<path class="stroke" stroke-width="1"
	d="M572.20 311.00v-24.00"/>
<path class="stroke" stroke-width="1"
	d="M691.60 311.00v-24.00"/>
<path class="stroke" stroke-width="1"
	d="M688.60 311.00v-24.00"/>
<path d="m10.00 311.00
	h681.60
	M10.00 305.00
	h681.60
	M10.00 299.00
	h681.60
	M10.00 293.00
	h681.60
	M10.00 287.00
	h681.60
	" class="stroke"/>
<use x="22.00" y="305.00" xlink:href="#tclef"/>
<use x="37.00" y="287.00" xlink:href="#sh0"/>
<use x="55.00" y="305.00" xlink:href="#hd"/>
<path d="M58.50 305.00v-21.00" class="stroke"/>
<path class="fill"
	d="M99.30 283.80l26.90 -2.50v3.20l-26.90 2.50"/>
<use x="96.20" y="305.00" xlink:href="#hd"/>
<path d="M99.70 305.00v-20.30" class="stroke"/>
<use x="122.40" y="302.00" xlink:href="#hd"/>
<path d="M125.90 302.00v-19.70" class="stroke"/>
<use x="151.50" y="299.00" xlink:href="#hd"/>
<path d="M155.00 299.00v-21.00" class="stroke"/>
<use x="192.70" y="305.00" xlink:href="#hd"/>
<path d="M196.20 305.00v-21.00" class="stroke"/>
<use x="236.10" y="311.00" xlink:href="#hd"/>
<path d="M239.60 311.00v-21.00" class="stroke"/>
<path class="fill"
	d="M273.40 317.00l26.90 0.00v-3.20l-26.90 -0.00"/>
<use x="277.20" y="296.00" xlink:href="#hd"/>
<path d="M273.70 296.00v20.00" class="stroke"/>
<use x="303.40" y="296.00" xlink:href="#hd"/>
<path d="M299.90 296.00v20.00" class="stroke"/>
<use x="332.60" y="296.00" xlink:href="#Hd"/>
<path d="M329.10 296.00v21.00" class="stroke"/>
<use x="387.90" y="314.00" xlink:href="#hd"/>
<path d="M391.40 314.00v-21.00" class="stroke"/>
<path class="fill"
	d="M432.20 292.80l26.90 -2.50v3.20l-26.90 2.50"/>
<use x="429.10" y="314.00" xlink:href="#hd"/>
<path d="M432.60 314.00v-20.30" class="stroke"/>
<use x="455.30" y="311.00" xlink:href="#hd"/>
<path d="M458.80 311.00v-19.70" class="stroke"/>
<use x="484.40" y="308.00" xlink:href="#hd"/>
<path d="M487.90 308.00v-21.00" class="stroke"/>
<path class="fill"
	d="M528.70 283.80l26.90 -2.50v3.20l-26.90 2.50"/>
<use x="525.60" y="305.00" xlink:href="#hd"/>
<path d="M529.10 305.00v-20.30" class="stroke"/>
<use x="551.80" y="302.00" xlink:href="#hd"/>
<path d="M555.30 302.00v-19.70" class="stroke"/>
<use x="586.70" y="302.00" xlink:href="#Hd"/>
<path d="M590.20 302.00v-21.00" class="stroke"/>
<use x="645.00" y="305.00" xlink:href="#Hd"/>
<path d="M648.50 305.00v-21.00" class="stroke"/>
</g>
<g stroke-width="0.70" style="font:15.00px Times">
<text x="45.00" y="351.00">A2</text>
<path class="stroke" stroke-width="1"
	d="M245.30 391.00v-24.00"/>
<path class="stroke" stroke-width="1"
	d="M393.10 391.00v-24.00"/>
<path class="stroke" stroke-width="1"
	d="M586.70 391.00v-24.00"/>
<path class="stroke" stroke-width="1"
	d="M691.60 391.00v-24.00"/>
<path d="m10.00 391.00
	h681.60
	M10.00 385.00
	h681.60
	M10.00 379.00
	h681.60
	M10.00 373.00
	h681.60
	M10.00 367.00
	h681.60
	" class="stroke"/>
<use x="22.00" y="385.00" xlink:href="#tclef"/>
<use x="37.00" y="367.00" xlink:href="#sh0"/>
<use x="55.00" y="385.00" xlink:href="#hd"/>
<path d="M58.50 385.00v-21.00" class="stroke"/>
<path class="fill"
	d="M98.20 363.70l26.20 -2.50v3.20l-26.20 2.50"/>
<use x="95.10" y="385.00" xlink:href="#hd"/>
<path d="M98.60 385.00v-20.30" class="stroke"/>
<use x="120.60" y="382.00" xlink:href="#hd"/>
<path d="M124.10 382.00v-19.70" class="stroke"/>
<path class="fill"
	d="M152.10 358.80l77.20 7.40v3.20l-77.20 -7.40"/>
<use x="148.90" y="379.00" xlink:href="#hd"/>
<path d="M152.40 379.00v-19.10" class="stroke"/>
<use x="174.50" y="382.00" xlink:href="#hd"/>
<path d="M178.00 382.00v-19.70" class="stroke"/>
<use x="200.00" y="385.00" xlink:href="#hd"/>
<path d="M203.50 385.00v-20.30" class="stroke"/>
<use x="225.50" y="388.00" xlink:href="#hd"/>
<path d="M229.00 388.00v-20.90" class="stroke"/>
<use x="259.50" y="391.00" xlink:href="#hd"/>
<path d="M263.00 391.00v-21.00" class="stroke"/>
<path class="fill"
	d="M295.70 397.00l26.20 0.00v-3.20l-26.20 -0.00"/>
<use x="299.60" y="376.00" xlink:href="#hd"/>
<path d="M296.10 376.00v20.00" class="stroke"/>
<use x="325.10" y="376.00" xlink:href="#hd"/>
<path d="M321.60 376.00v20.00" class="stroke"/>
<use x="353.50" y="376.00" xlink:href="#Hd"/>
<path d="M350.00 376.00v21.00" class="stroke"/>
<use x="407.30" y="394.00" xlink:href="#hd"/>
<path d="M410.80 394.00v-21.00" class="stroke"/>
<path class="fill"
	d="M450.60 372.70l26.20 -2.50v3.20l-26.20 2.50"/>
<use x="447.40" y="394.00" xlink:href="#hd"/>
<path d="M450.90 394.00v-20.30" class="stroke"/>
<use x="472.90" y="391.00" xlink:href="#hd"/>
<path d="M476.40 391.00v-19.70" class="stroke"/>
<use x="501.30" y="388.00" xlink:href="#hd"/>
<path d="M504.80 388.00v-21.00" class="stroke"/>
<path class="fill"
	d="M537.50 399.10l26.20 -4.20v-3.20l-26.20 4.20"/>
<use x="541.30" y="379.00" xlink:href="#hd"/>
<path d="M537.80 379.00v19.00" class="stroke"/>
<use x="566.90" y="373.00" xlink:href="#hd"/>
<path d="M563.40 373.00v21.00" class="stroke"/>
<use x="600.90" y="379.00" xlink:href="#Hd"/>
<path d="M597.40 379.00v21.00" class="stroke"/>
<use x="651.90" y="382.00" xlink:href="#Hd"/>
<path d="M655.40 382.00v-21.00" class="stroke"/>
</g>
<g stroke-width="0.70" style="font:15.00px Times">
<path class="stroke" stroke-width="1"
	d="M238.90 461.00v-24.00"/>
<path class="stroke" stroke-width="1"
	d="M381.70 461.00v-24.00"/>
<path class="stroke" stroke-width="1"
	d="M579.30 461.00v-24.00"/>
<path class="stroke" stroke-width="1"
	d="M691.60 461.00v-24.00"/>
<path class="stroke" stroke-width="1"
	d="M688.60 461.00v-24.00"/>
<path d="m10.00 461.00
	h681.60
	M10.00 455.00
	h681.60
	M10.00 449.00
	h681.60
	M10.00 443.00
	h681.60
	M10.00 437.00
	h681.60
	" class="stroke"/>
<use x="22.00" y="455.00" xlink:href="#tclef"/>
<use x="37.00" y="437.00" xlink:href="#sh0"/>
<use x="55.00" y="455.00" xlink:href="#hd"/>
<path d="M58.50 455.00v-21.00" class="stroke"/>
<path class="fill"
	d="M96.90 433.70l25.30 -2.50v3.20l-25.30 2.50"/>
<use x="93.70" y="455.00" xlink:href="#hd"/>
<path d="M97.20 455.00v-20.30" class="stroke"/>
<use x="118.40" y="452.00" xlink:href="#hd"/>
<path d="M121.90 452.00v-19.70" class="stroke"/>
<path class="fill"
	d="M148.90 428.80l74.60 7.30v3.20l-74.60 -7.30"/>
<use x="145.70" y="449.00" xlink:href="#hd"/>
<path d="M149.20 449.00v-19.10" class="stroke"/>
<use x="170.40" y="452.00" xlink:href="#hd"/>
<path d="M173.90 452.00v-19.70" class="stroke"/>
<use x="195.00" y="455.00" xlink:href="#hd"/>
<path d="M198.50 455.00v-20.30" class="stroke"/>
<use x="219.70" y="458.00" xlink:href="#hd"/>
<path d="M223.20 458.00v-20.90" class="stroke"/>
<use x="252.60" y="461.00" xlink:href="#hd"/>
<path d="M256.10 461.00v-21.00" class="stroke"/>
<path class="fill"
	d="M287.50 467.00l25.30 0.00v-3.20l-25.30 -0.00"/>
<use x="291.30" y="446.00" xlink:href="#hd"/>
<path d="M287.80 446.00v20.00" class="stroke"/>
<use x="316.00" y="446.00" xlink:href="#hd"/>
<path d="M312.50 446.00v20.00" class="stroke"/>
<use x="343.40" y="446.00" xlink:href="#Hd"/>
<path d="M339.90 446.00v21.00" class="stroke"/>
<use x="395.40" y="464.00" xlink:href="#hd"/>
<path d="M398.90 464.00v-21.00" class="stroke"/>
<path class="fill"
	d="M437.30 442.70l25.30 -2.50v3.20l-25.30 2.50"/>
<use x="434.10" y="464.00" xlink:href="#hd"/>
<path d="M437.60 464.00v-20.30" class="stroke"/>
<use x="458.80" y="461.00" xlink:href="#hd"/>
<path d="M462.30 461.00v-19.70" class="stroke"/>
<path class="fill"
	d="M489.30 436.20l74.60 -7.30v3.20l-74.60 7.30"/>
<use x="486.20" y="458.00" xlink:href="#hd"/>
<path d="M489.70 458.00v-20.90" class="stroke"/>
<use x="510.80" y="455.00" xlink:href="#hd"/>
<path d="M514.30 455.00v-20.30" class="stroke"/>
<use x="535.50" y="452.00" xlink:href="#hd"/>
<path d="M539.00 452.00v-19.70" class="stroke"/>
<use x="560.10" y="449.00" xlink:href="#hd"/>
<path d="M563.60 449.00v-19.10" class="stroke"/>
<use x="593.00" y="452.00" xlink:href="#Hd"/>
<path d="M596.50 452.00v-21.00" class="stroke"/>
<use x="647.80" y="455.00" xlink:href="#Hd"/>
<path d="M651.30 455.00v-21.00" class="stroke"/>
</g>
<g stroke-width="0.70" style="font:15.00px Times">
<text x="45.00" y="501.00">B2</text>
<path class="stroke" stroke-width="1"
	d="M235.20 541.00v-24.00"/>
<path class="stroke" stroke-width="1"
	d="M391.80 541.00v-24.00"/>
<path class="stroke" stroke-width="1"
	d="M586.20 541.00v-24.00"/>
<path class="stroke" stroke-width="1"
	d="M691.60 541.00v-24.00"/>
<path d="m10.00 541.00
	h681.60
	M10.00 535.00
	h681.60
	M10.00 529.00
	h681.60
	M10.00 523.00
	h681.60
	M10.00 517.00
	h681.60
	" class="stroke"/>
<use x="22.00" y="535.00" xlink:href="#tclef"/>
<use x="37.00" y="517.00" xlink:href="#sh0"/>
<use x="55.00" y="523.00" xlink:href="#hd"/>
<path d="M51.50 523.00v21.00" class="stroke"/>
<path class="fill"
	d="M91.40 544.00l26.30 0.00v-3.20l-26.30 -0.00"/>
<use x="95.30" y="523.00" xlink:href="#hd"/>
<path d="M91.80 523.00v20.00" class="stroke"/>
<use x="120.90" y="523.00" xlink:href="#hd"/>
<path d="M117.40 523.00v20.00" class="stroke"/>
<use x="149.40" y="526.00" xlink:href="#hd"/>
<path d="M145.90 526.00v21.00" class="stroke"/>
<path class="fill"
	d="M185.80 547.00l26.30 0.00v-3.20l-26.30 -0.00"/>
<use x="189.60" y="526.00" xlink:href="#hd"/>
<path d="M186.10 526.00v20.00" class="stroke"/>
<use x="215.20" y="526.00" xlink:href="#hd"/>
<path d="M211.70 526.00v20.00" class="stroke"/>
<path class="fill"
	d="M245.60 548.20l77.60 0.00v-3.20l-77.60 -0.00"/>
<use x="249.40" y="529.00" xlink:href="#hd"/>
<path d="M245.90 529.00v18.20" class="stroke"/>
<use x="275.00" y="526.00" xlink:href="#hd"/>
<path d="M271.50 526.00v21.20" class="stroke"/>
<use x="300.70" y="523.00" xlink:href="#hd"/>
<path d="M297.20 523.00v24.20" class="stroke"/>
<use x="326.30" y="529.00" xlink:href="#hd"/>
<path d="M322.80 529.00v18.20" class="stroke"/>
<use x="351.90" y="532.00" xlink:href="#Hd"/>
<path d="M355.40 532.00v-21.00" class="stroke"/>
<use x="406.10" y="523.00" xlink:href="#hd"/>
<path d="M402.60 523.00v21.00" class="stroke"/>
<path class="fill"
	d="M442.50 544.00l26.30 0.00v-3.20l-26.30 -0.00"/>
<use x="446.30" y="523.00" xlink:href="#hd"/>
<path d="M442.80 523.00v20.00" class="stroke"/>
<use x="471.90" y="523.00" xlink:href="#hd"/>
<path d="M468.40 523.00v20.00" class="stroke"/>
<use x="500.40" y="526.00" xlink:href="#hd"/>
<path d="M496.90 526.00v21.00" class="stroke"/>
<path class="fill"
	d="M536.80 547.00l26.30 0.00v-3.20l-26.30 -0.00"/>
<use x="540.70" y="526.00" xlink:href="#hd"/>
<path d="M537.20 526.00v20.00" class="stroke"/>
<use x="566.30" y="526.00" xlink:href="#hd"/>
<path d="M562.80 526.00v20.00" class="stroke"/>
<use x="600.50" y="529.00" xlink:href="#Hd"/>
<path d="M597.00 529.00v21.00" class="stroke"/>
<use x="651.70" y="532.00" xlink:href="#Hd"/>
<path d="M655.20 532.00v-21.00" class="stroke"/>
</g>
<g stroke-width="0.70" style="font:15.00px Times">
<path class="stroke" stroke-width="1"
	d="M221.50 611.00v-24.00"/>
<path class="stroke" stroke-width="1"
	d="M373.30 611.00v-24.00"/>
<path class="stroke" stroke-width="1"
	d="M572.20 611.00v-24.00"/>
<path class="stroke" stroke-width="1"
	d="M691.60 611.00v-24.00"/>
<path class="stroke" stroke-width="1"
	d="M688.60 611.00v-24.00"/>
<path d="m10.00 611.00
	h681.60
	M10.00 605.00
	h681.60
	M10.00 599.00
	h681.60
	M10.00 593.00
	h681.60
	M10.00 587.00
	h681.60
	" class="stroke"/>
<use x="22.00" y="605.00" xlink:href="#tclef"/>
<use x="37.00" y="587.00" xlink:href="#sh0"/>
<use x="55.00" y="605.00" xlink:href="#hd"/>
<path d="M58.50 605.00v-21.00" class="stroke"/>
<path class="fill"
	d="M99.30 583.80l26.90 -2.50v3.20l-26.90 2.50"/>
<use x="96.20" y="605.00" xlink:href="#hd"/>
<path d="M99.70 605.00v-20.30" class="stroke"/>
<use x="122.40" y="602.00" xlink:href="#hd"/>
<path d="M125.90 602.00v-19.70" class="stroke"/>
<use x="151.50" y="599.00" xlink:href="#hd"/>
<path d="M155.00 599.00v-21.00" class="stroke"/>
<use x="192.70" y="605.00" xlink:href="#hd"/>
<path d="M196.20 605.00v-21.00" class="stroke"/>
<use x="236.10" y="611.00" xlink:href="#hd"/>
<path d="M239.60 611.00v-21.00" class="stroke"/>
<path class="fill"
	d="M273.40 617.00l26.90 0.00v-3.20l-26.90 -0.00"/>
<use x="277.20" y="596.00" xlink:href="#hd"/>
<path d="M273.70 596.00v20.00" class="stroke"/>
<use x="303.40" y="596.00" xlink:href="#hd"/>
<path d="M299.90 596.00v20.00" class="stroke"/>
<use x="332.60" y="596.00" xlink:href="#Hd"/>
<path d="M329.10 596.00v21.00" class="stroke"/>
<use x="387.90" y="614.00" xlink:href="#hd"/>
<path d="M391.40 614.00v-21.00" class="stroke"/>
<path class="fill"
	d="M432.20 592.80l26.90 -2.50v3.20l-26.90 2.50"/>
<use x="429.10" y="614.00" xlink:href="#hd"/>
<path d="M432.60 614.00v-20.30" class="stroke"/>
<use x="455.30" y="611.00" xlink:href="#hd"/>
<path d="M458.80 611.00v-19.70" class="stroke"/>
<use x="484.40" y="608.00" xlink:href="#hd"/>
<path d="M487.90 608.00v-21.00" class="stroke"/>
<path class="fill"
	d="M521.70 617.20l26.90 2.50v-3.20l-26.90 -2.50"/>
<use x="525.60" y="596.00" xlink:href="#hd"/>
<path d="M522.10 596.00v20.30" class="stroke"/>
<use x="551.80" y="599.00" xlink:href="#hd"/>
<path d="M548.30 599.00v19.70" class="stroke"/>
<use x="586.70" y="602.00" xlink:href="#Hd"/>
<path d="M590.20 602.00v-21.00" class="stroke"/>
<use x="645.00" y="605.00" xlink:href="#Hd"/>
<path d="M648.50 605.00v-21.00" class="stroke"/>
</g>
<g stroke-width="0.70" style="font:15.00px Times">
<text x="45.00" y="651.00">A3</text>
<path class="stroke" stroke-width="1"
	d="M243.90 691.00v-24.00"/>
<path class="stroke" stroke-width="1"
	d="M386.60 691.00v-24.00"/>
<path class="stroke" stroke-width="1"
	d="M591.80 691.00v-24.00"/>
<path class="stroke" stroke-width="1"
	d="M691.60 691.00v-24.00"/>
<path d="m10.00 691.00
	h681.60
	M10.00 685.00
	h681.60
	M10.00 679.00
	h681.60
	M10.00 673.00
	h681.60
	M10.00 667.00
	h681.60
	" class="stroke"/>
<use x="22.00" y="685.00" xlink:href="#tclef"/>
<use x="37.00" y="667.00" xlink:href="#sh0"/>
<path class="fill"
	d="M51.20 688.90l73.50 7.30v-3.20l-73.50 -7.30"/>
<use x="55.00" y="667.00" xlink:href="#hd"/>
<path d="M51.50 667.00v20.90" class="stroke"/>
<use x="79.30" y="670.00" xlink:href="#hd"/>
<path d="M75.80 670.00v20.30" class="stroke"/>
<use x="103.60" y="673.00" xlink:href="#hd"/>
<path d="M100.10 673.00v19.70" class="stroke"/>
<use x="127.90" y="676.00" xlink:href="#hd"/>
<path d="M124.40 676.00v19.10" class="stroke"/>
<path class="fill"
	d="M155.30 658.90l73.50 7.30v3.20l-73.50 -7.30"/>
<use x="152.20" y="679.00" xlink:href="#hd"/>
<path d="M155.70 679.00v-19.10" class="stroke"/>
<use x="176.40" y="682.00" xlink:href="#hd"/>
<path d="M179.90 682.00v-19.70" class="stroke"/>
<use x="200.70" y="685.00" xlink:href="#hd"/>
<path d="M204.20 685.00v-20.30" class="stroke"/>
<use x="225.00" y="688.00" xlink:href="#hd"/>
<path d="M228.50 688.00v-20.90" class="stroke"/>
<use x="257.50" y="691.00" xlink:href="#hd"/>
<path d="M261.00 691.00v-21.00" class="stroke"/>
<path class="fill"
	d="M291.80 698.90l42.10 0.00v-3.20l-42.10 -0.00"/>
<path class="fill"
	d="M316.40 693.90l17.20 0.00v-3.20l-17.20 -0.00"/>
<use x="295.60" y="676.00" xlink:href="#hd"/>
<path d="M292.10 676.00v22.00" class="stroke"/>
<use x="319.90" y="676.00" xlink:href="#hd"/>
<path d="M316.40 676.00v22.00" class="stroke"/>
<use x="337.10" y="673.00" xlink:href="#hd"/>
<path d="M333.60 673.00v25.00" class="stroke"/>
<use x="356.10" y="679.00" xlink:href="#hd"/>
<circle class="fill" cx="363.80" cy="676.00" r="1.2"/>
<path d="M352.60 679.00v21.00" class="stroke"/>
<path class="fill"
	d="M403.30 672.10l73.50 -7.30v3.20l-73.50 7.30"/>
<use x="400.10" y="694.00" xlink:href="#hd"/>
<path d="M403.60 694.00v-20.90" class="stroke"/>
<use x="424.40" y="691.00" xlink:href="#hd"/>
<path d="M427.90 691.00v-20.30" class="stroke"/>
<use x="448.70" y="688.00" xlink:href="#hd"/>
<path d="M452.20 688.00v-19.70" class="stroke"/>
<use x="473.00" y="685.00" xlink:href="#hd"/>
<path d="M476.50 685.00v-19.10" class="stroke"/>
<path class="fill"
	d="M496.10 702.10l73.50 -7.30v-3.20l-73.50 7.30"/>
<use x="500.00" y="682.00" xlink:href="#hd"/>
<path d="M496.50 682.00v19.10" class="stroke"/>
<use x="524.30" y="679.00" xlink:href="#hd"/>
<path d="M520.80 679.00v19.70" class="stroke"/>
<use x="548.50" y="676.00" xlink:href="#hd"/>
<path d="M545.00 676.00v20.30" class="stroke"/>
<use x="572.80" y="673.00" xlink:href="#hd"/>
<path d="M569.30 673.00v20.90" class="stroke"/>
<use x="605.30" y="679.00" xlink:href="#Hd"/>
<path d="M601.80 679.00v21.00" class="stroke"/>
<use x="653.80" y="682.00" xlink:href="#Hd"/>
<path d="M657.30 682.00v-21.00" class="stroke"/>
</g>
<g stroke-width="0.70" style="font:15.00px Times">
<path class="stroke" stroke-width="1"
	d="M241.20 761.00v-24.00"/>
<path class="stroke" stroke-width="1"
	d="M379.80 761.00v-24.00"/>
<path class="stroke" stroke-width="1"
	d="M582.00 761.00v-24.00"/>
<path class="stroke" stroke-width="1"
	d="M691.60 761.00v-24.00"/>
<path class="stroke" stroke-width="1"
	d="M688.60 761.00v-24.00"/>
<path d="m10.00 761.00
	h681.60
	M10.00 755.00
	h681.60
	M10.00 749.00
	h681.60
	M10.00 743.00
	h681.60
	M10.00 737.00
	h681.60
	" class="stroke"/>
<use x="22.00" y="755.00" xlink:href="#tclef"/>
<use x="37.00" y="737.00" xlink:href="#sh0"/>
<path class="fill"
	d="M51.20 758.90l72.50 7.30v-3.20l-72.50 -7.30"/>
<use x="55.00" y="737.00" xlink:href="#hd"/>
<path d="M51.50 737.00v20.90" class="stroke"/>
<use x="78.90" y="740.00" xlink:href="#hd"/>
<path d="M75.40 740.00v20.30" class="stroke"/>
<use x="102.90" y="743.00" xlink:href="#hd"/>
<path d="M99.40 743.00v19.70" class="stroke"/>
<use x="126.80" y="746.00" xlink:href="#hd"/>
<path d="M123.30 746.00v19.10" class="stroke"/>
<path class="fill"
	d="M153.90 728.90l72.50 7.30v3.20l-72.50 -7.30"/>
<use x="150.70" y="749.00" xlink:href="#hd"/>
<path d="M154.20 749.00v-19.10" class="stroke"/>
<use x="174.70" y="752.00" xlink:href="#hd"/>
<path d="M178.20 752.00v-19.70" class="stroke"/>
<use x="198.60" y="755.00" xlink:href="#hd"/>
<path d="M202.10 755.00v-20.30" class="stroke"/>
<use x="222.50" y="758.00" xlink:href="#hd"/>
<path d="M226.00 758.00v-20.90" class="stroke"/>
<use x="254.50" y="761.00" xlink:href="#hd"/>
<path d="M258.00 761.00v-21.00" class="stroke"/>
<path class="fill"
	d="M288.30 767.00l24.60 0.00v-3.20l-24.60 -0.00"/>
<use x="292.10" y="746.00" xlink:href="#hd"/>
<path d="M288.60 746.00v20.00" class="stroke"/>
<use x="316.00" y="746.00" xlink:href="#hd"/>
<path d="M312.50 746.00v20.00" class="stroke"/>
<use x="342.60" y="746.00" xlink:href="#Hd"/>
<path d="M339.10 746.00v21.00" class="stroke"/>
<path class="fill"
	d="M396.30 742.10l72.50 -7.30v3.20l-72.50 7.30"/>
<use x="393.20" y="764.00" xlink:href="#hd"/>
<path d="M396.70 764.00v-20.90" class="stroke"/>
<use x="417.10" y="761.00" xlink:href="#hd"/>
<path d="M420.60 761.00v-20.30" class="stroke"/>
<use x="441.00" y="758.00" xlink:href="#hd"/>
<path d="M444.50 758.00v-19.70" class="stroke"/>
<use x="465.00" y="755.00" xlink:href="#hd"/>
<path d="M468.50 755.00v-19.10" class="stroke"/>
<path class="fill"
	d="M494.70 726.80l72.50 0.00v3.20l-72.50 -0.00"/>
<use x="491.60" y="752.00" xlink:href="#hd"/>
<path d="M495.10 752.00v-24.20" class="stroke"/>
<use x="515.50" y="749.00" xlink:href="#hd"/>
<path d="M519.00 749.00v-21.20" class="stroke"/>
<use x="539.40" y="746.00" xlink:href="#hd"/>
<path d="M542.90 746.00v-18.20" class="stroke"/>
<use x="563.40" y="749.00" xlink:href="#hd"/>
<path d="M566.90 749.00v-21.20" class="stroke"/>
<use x="595.40" y="752.00" xlink:href="#Hd"/>
<path d="M598.90 752.00v-21.00" class="stroke"/>
<defs>
<path id="ghd" class="fill" d="m2.2 -1.5
	c-1.32 -2.31 -5.94 0.33 -4.62 2.64
	1.32 2.31 5.94 -0.33 4.62 -2.64"/>
</defs>
<use x="636.60" y="758.00" xlink:href="#ghd"/>
<path d="M638.90 758.00v-15.00" class="stroke"/>
<path class="fill"
	d="M638.90 743.00c0.6 3.4 5.6 3.8 3 10
	1.2 -4.4 -1.4 -7 -3 -7
"/>
<path class="stroke"
	d="M636.60 763.00c2.30 2.40 9.20 0.60 11.50 -3.00"/>
<use x="649.10" y="755.00" xlink:href="#Hd"/>
<path d="M652.60 755.00v-21.00" class="stroke"/>
</g>
<g stroke-width="0.70" style="font:15.00px Times">
<text x="45.00" y="801.00">B3</text>
<path class="stroke" stroke-width="1"
	d="M245.40 841.00v-24.00"/>
<path class="stroke" stroke-width="1"
	d="M398.50 841.00v-24.00"/>
<path class="stroke" stroke-width="1"
	d="M588.60 841.00v-24.00"/>
<path class="stroke" stroke-width="1"
	d="M691.60 841.00v-24.00"/>
<path d="m10.00 841.00
	h681.60
	M10.00 835.00
	h681.60
	M10.00 829.00
	h681.60
	M10.00 823.00
	h681.60
	M10.00 817.00
	h681.60
	" class="stroke"/>
<use x="22.00" y="835.00" xlink:href="#tclef"/>
<use x="37.00" y="817.00" xlink:href="#sh0"/>
<use x="55.00" y="823.00" xlink:href="#hd"/>
<path d="M51.50 823.00v21.00" class="stroke"/>
<path class="fill"
	d="M90.50 843.70l25.70 -2.50v-3.20l-25.70 2.50"/>
<use x="94.30" y="823.00" xlink:href="#hd"/>
<path d="M90.80 823.00v19.70" class="stroke"/>
<use x="119.40" y="820.00" xlink:href="#hd"/>
<path d="M115.90 820.00v20.30" class="stroke"/>
<path class="fill"
	d="M143.40 844.50l50.80 4.90v-3.20l-50.80 -4.90"/>
<use x="147.20" y="823.00" xlink:href="#hd"/>
<path d="M143.70 823.00v20.60" class="stroke"/>
<use x="172.30" y="826.00" xlink:href="#hd"/>
<path d="M168.80 826.00v20.00" class="stroke"/>
<use x="197.40" y="829.00" xlink:href="#hd"/>
<circle class="fill" cx="205.10" cy="826.00" r="1.2"/>
<path d="M193.90 829.00v19.40" class="stroke"/>
<defs>
<path id="r8e" class="fill" d="m 0 0
	c-1.5 1.5 -2.4 2 -3.6 2
	2.4 -2.8 -2.8 -4 -2.8 -1.2
	c0 2.7 4.3 2.4 5.9 0.6"/>
<g id="r8">
	<path d="m3.3 -4l-3.4 9.6" class="stroke"/>
	<use x="3.4" y="-4" xlink:href="#r8e"/>
</g>
</defs>
<use x="225.90" y="829.00" xlink:href="#r8"/>
<path class="fill"
	d="M255.50 851.20l75.90 0.00v-3.20l-75.90 -0.00"/>
<use x="259.30" y="829.00" xlink:href="#hd"/>
<path d="M255.80 829.00v21.20" class="stroke"/>
<use x="284.40" y="826.00" xlink:href="#hd"/>
<path d="M280.90 826.00v24.20" class="stroke"/>
<use x="309.40" y="829.00" xlink:href="#hd"/>
<path d="M305.90 829.00v21.20" class="stroke"/>
<use x="334.50" y="832.00" xlink:href="#hd"/>
<path d="M331.00 832.00v18.20" class="stroke"/>
<use x="359.50" y="835.00" xlink:href="#Hd"/>
<path d="M363.00 835.00v-21.00" class="stroke"/>
<use x="412.40" y="823.00" xlink:href="#hd"/>
<path d="M408.90 823.00v21.00" class="stroke"/>
<path class="fill"
	d="M448.00 844.00l25.70 0.00v-3.20l-25.70 -0.00"/>
<use x="451.80" y="823.00" xlink:href="#hd"/>
<path d="M448.30 823.00v20.00" class="stroke"/>
<use x="476.80" y="823.00" xlink:href="#hd"/>
<path d="M473.30 823.00v20.00" class="stroke"/>
<use x="504.70" y="826.00" xlink:href="#hd"/>
<path d="M501.20 826.00v21.00" class="stroke"/>
<path class="fill"
	d="M540.20 847.00l25.70 0.00v-3.20l-25.70 -0.00"/>
<use x="544.00" y="826.00" xlink:href="#hd"/>
<path d="M540.50 826.00v20.00" class="stroke"/>
<use x="569.10" y="826.00" xlink:href="#hd"/>
<path d="M565.60 826.00v20.00" class="stroke"/>
<use x="602.50" y="829.00" xlink:href="#Hd"/>
<path d="M599.00 829.00v21.00" class="stroke"/>
<use x="652.60" y="832.00" xlink:href="#Hd"/>
<path d="M656.10 832.00v-21.00" class="stroke"/>
</g>
<g stroke-width="0.70" style="font:15.00px Times">
<path class="stroke" stroke-width="1"
	d="M221.50 911.00v-24.00"/>
<path class="stroke" stroke-width="1"
	d="M373.30 911.00v-24.00"/>
<path class="stroke" stroke-width="1"
	d="M572.20 911.00v-24.00"/>
<path class="stroke" stroke-width="1"
	d="M691.60 911.00v-24.00"/>
<path class="stroke" stroke-width="1"
	d="M688.60 911.00v-24.00"/>
<path d="m10.00 911.00
	h681.60
	M10.00 905.00
	h681.60
	M10.00 899.00
	h681.60
	M10.00 893.00
	h681.60
	M10.00 887.00
	h681.60
	" class="stroke"/>
<use x="22.00" y="905.00" xlink:href="#tclef"/>
<use x="37.00" y="887.00" xlink:href="#sh0"/>
<use x="55.00" y="905.00" xlink:href="#hd"/>
<path d="M58.50 905.00v-21.00" class="stroke"/>
<path class="fill"
	d="M99.30 883.80l26.90 -2.50v3.20l-26.90 2.50"/>
<use x="96.20" y="905.00" xlink:href="#hd"/>
<path d="M99.70 905.00v-20.30" class="stroke"/>
<use x="122.40" y="902.00" xlink:href="#hd"/>
<path d="M125.90 902.00v-19.70" class="stroke"/>
<use x="151.50" y="899.00" xlink:href="#hd"/>
<path d="M155.00 899.00v-21.00" class="stroke"/>
<use x="192.70" y="905.00" xlink:href="#hd"/>
<path d="M196.20 905.00v-21.00" class="stroke"/>
<use x="236.10" y="911.00" xlink:href="#hd"/>
<path d="M239.60 911.00v-21.00" class="stroke"/>
<path class="fill"
	d="M273.40 917.00l26.90 0.00v-3.20l-26.90 -0.00"/>
<use x="277.20" y="896.00" xlink:href="#hd"/>
<path d="M273.70 896.00v20.00" class="stroke"/>
<use x="303.40" y="896.00" xlink:href="#hd"/>
<path d="M299.90 896.00v20.00" class="stroke"/>
<use x="332.60" y="896.00" xlink:href="#Hd"/>
<path d="M329.10 896.00v21.00" class="stroke"/>
<use x="387.90" y="914.00" xlink:href="#hd"/>
<path d="M391.40 914.00v-21.00" class="stroke"/>
<path class="fill"
	d="M432.20 892.80l26.90 -2.50v3.20l-26.90 2.50"/>
<use x="429.10" y="914.00" xlink:href="#hd"/>
<path d="M432.60 914.00v-20.30" class="stroke"/>
<use x="455.30" y="911.00" xlink:href="#hd"/>
<path d="M458.80 911.00v-19.70" class="stroke"/>
<use x="484.40" y="908.00" xlink:href="#hd"/>
<path d="M487.90 908.00v-21.00" class="stroke"/>
<path class="fill"
	d="M521.70 917.20l26.90 2.50v-3.20l-26.90 -2.50"/>
<use x="525.60" y="896.00" xlink:href="#hd"/>
<path d="M522.10 896.00v20.30" class="stroke"/>
<use x="551.80" y="899.00" xlink:href="#hd"/>
<path d="M548.30 899.00v19.70" class="stroke"/>
<use x="586.70" y="902.00" xlink:href="#Hd"/>
<path d="M590.20 902.00v-21.00" class="stroke"/>
<use x="645.00" y="905.00" xlink:href="#Hd"/>
<path d="M648.50 905.00v-21.00" class="stroke"/>
</g>
</svg>
