<?xml version="1.0" standalone="no"?>
<!DOCTYPE svg PUBLIC "-//W3C//DTD SVG 1.1//EN"
	"http://www.w3.org/Graphics/SVG/1.1/DTD/svg11.dtd">
<svg xmlns="http://www.w3.org/2000/svg" version="1.1"
	xmlns:xlink="http://www.w3.org/1999/xlink"
	color="black"
	width="701.60px" height="712.00px">
<style type="text/css">
.fill {fill: currentColor}
.stroke {stroke: currentColor; fill: none}
text{white-space: pre}
</style>
<title>/media/tim/Data1/tims_code/sphinx-tunes/source/_abcfiles/_Nutting_Girl.a (1) tune 1</title>
<!-- Creator: abcm2ps-8.14.6 -->
<!-- CreationDate: Jul 30, 2023 12:21 -->
<!-- CommandLine: -g /media/tim/Data1/tims_code/sphinx-tunes/source/_abcfiles/_Nutting_Girl.abc -O /media/tim/Data1/tims_code/sphinx-tunes/source/_abcfiles/_Nutting_Girl.svg -->
<g stroke-width="0.70">
<path class="stroke" stroke-width="1"
	d="M109.10 59.00v-24.00"/>
<path class="stroke" stroke-width="1"
	d="M281.50 59.00v-24.00"/>
<path class="stroke" stroke-width="1"
	d="M420.60 59.00v-24.00"/>
<path class="stroke" stroke-width="1"
	d="M571.40 59.00v-24.00"/>
<path class="stroke" stroke-width="1"
	d="M691.60 59.00v-24.00"/>
<path d="m10.00 59.00
	h681.60
	M10.00 53.00
	h681.60
	M10.00 47.00
	h681.60
	M10.00 41.00
	h681.60
	M10.00 35.00
	h681.60
	" class="stroke"/>
<defs>
<path id="utclef" class="fill" d="m-50 -90
	c-72 -41 -72 -158 52 -188
	150 -10 220 188 90 256
	-114 52 -275 0 -293 -136
	-15 -181 93 -229 220 -334
	88 -87 79 -133 62 -210
	-51 33 -94 105 -89 186
	17 267 36 374 49 574
	6 96 -19 134 -77 135
	-80 1 -126 -93 -61 -133
	85 -41 133 101 31 105
	23 17 92 37 90 -92
	-10 -223 -39 -342 -50 -617
	0 -90 0 -162 96 -232
	56 72 63 230 22 289
	-74 106 -257 168 -255 316
	9 153 148 185 252 133
	86 -65 29 -192 -80 -176
	-71 12 -105 67 -59 124"/>
<use id="tclef" transform="translate(0,6) scale(0.045)"
	xlink:href="#utclef"/>
</defs>
<use x="22.00" y="53.00" xlink:href="#tclef"/>
<defs>
<path id="usharp" class="fill" d="
	m136 -702
	v890
	h32
	v-890
	m128 840
	h32
	v-888
	h-32
	m-232 286
	v116
	l338 -96
	v-116
	m-338 442
	v116
	l338 -98
	v-114"/>
<use id="sh0" transform="translate(-4,5) scale(0.018)"
	xlink:href="#usharp"/>
</defs>
<use x="37.00" y="35.00" xlink:href="#sh0"/>
<g style="font:bold 16px serif"
	transform="translate(53.00,58.50) scale(1.2,1)">
	<text text-anchor="middle">4</text>
	<text y="-12" text-anchor="middle">4</text>
</g>
<path class="fill"
	d="M74.20 25.30l26.30 2.50v3.20l-26.30 -2.50"/>
<path class="fill"
	d="M93.10 32.10l7.00 0.70v3.20l-7.00 -0.70"/>
<defs>
<ellipse id="hd" rx="4.1" ry="2.9"
	transform="rotate(-20)" class="fill"/>
</defs>
<use x="71.00" y="47.00" xlink:href="#hd"/>
<circle class="fill" cx="78.70" cy="44.00" r="1.2"/>
<path d="M74.50 47.00v-20.70" class="stroke"/>
<use x="96.60" y="50.00" xlink:href="#hd"/>
<path d="M100.10 50.00v-21.30" class="stroke"/>
<use x="121.70" y="53.00" xlink:href="#hd"/>
<path d="M125.20 53.00v-21.00" class="stroke"/>
<path class="fill"
	d="M160.00 30.30l26.30 -2.50v3.20l-26.30 2.50"/>
<path class="fill"
	d="M179.00 33.50l7.00 -0.70v3.20l-7.00 0.70"/>
<use x="156.80" y="53.00" xlink:href="#hd"/>
<circle class="fill" cx="164.50" cy="50.00" r="1.2"/>
<path d="M160.30 53.00v-21.80" class="stroke"/>
<use x="182.50" y="50.00" xlink:href="#hd"/>
<path d="M186.00 50.00v-21.20" class="stroke"/>
<path class="fill"
	d="M203.30 25.30l26.30 2.50v3.20l-26.30 -2.50"/>
<path class="fill"
	d="M222.20 32.10l7.00 0.70v3.20l-7.00 -0.70"/>
<use x="200.10" y="47.00" xlink:href="#hd"/>
<circle class="fill" cx="207.80" cy="44.00" r="1.2"/>
<path d="M203.60 47.00v-20.70" class="stroke"/>
<use x="225.70" y="50.00" xlink:href="#hd"/>
<path d="M229.20 50.00v-21.30" class="stroke"/>
<path class="fill"
	d="M246.50 28.90l26.30 -4.20v3.20l-26.30 4.20"/>
<path class="fill"
	d="M265.50 30.90l7.00 -1.10v3.20l-7.00 1.10"/>
<use x="243.40" y="53.00" xlink:href="#hd"/>
<circle class="fill" cx="251.10" cy="50.00" r="1.2"/>
<path d="M246.90 53.00v-23.10" class="stroke"/>
<use x="269.00" y="47.00" xlink:href="#hd"/>
<path d="M272.50 47.00v-21.20" class="stroke"/>
<use x="294.10" y="41.00" xlink:href="#hd"/>
<path d="M290.60 41.00v21.00" class="stroke"/>
<use x="329.20" y="44.00" xlink:href="#hd"/>
<path d="M325.70 44.00v21.00" class="stroke"/>
<use x="360.80" y="50.00" xlink:href="#hd"/>
<path d="M364.30 50.00v-21.00" class="stroke"/>
<use x="395.90" y="56.00" xlink:href="#hd"/>
<path d="M399.40 56.00v-21.00" class="stroke"/>
<use x="433.20" y="53.00" xlink:href="#hd"/>
<path d="M436.70 53.00v-21.00" class="stroke"/>
<path class="fill"
	d="M464.50 69.70l26.30 -2.50v-3.20l-26.30 2.50"/>
<path class="fill"
	d="M483.50 62.90l7.00 -0.70v-3.20l-7.00 0.70"/>
<use x="468.30" y="47.00" xlink:href="#hd"/>
<circle class="fill" cx="476.00" cy="44.00" r="1.2"/>
<path d="M464.80 47.00v21.70" class="stroke"/>
<use x="494.00" y="44.00" xlink:href="#hd"/>
<path d="M490.50 44.00v22.30" class="stroke"/>
<use x="511.60" y="41.00" xlink:href="#hd"/>
<path d="M508.10 41.00v21.00" class="stroke"/>
<use x="546.70" y="32.00" xlink:href="#hd"/>
<path d="M543.20 32.00v21.00" class="stroke"/>
<defs>
<path id="Hd" class="fill" d="m3 -1.6
	c-1 -1.8 -7 1.4 -6 3.2
	1 1.8 7 -1.4 6 -3.2
	m0.5 -0.3
	c2 3.8 -5 7.6 -7 3.8
	-2 -3.8 5 -7.6 7 -3.8"/>
</defs>
<use x="584.40" y="41.00" xlink:href="#Hd"/>
<path d="M580.90 41.00v21.00" class="stroke"/>
<use x="634.00" y="41.00" xlink:href="#hd"/>
<circle class="fill" cx="641.70" cy="38.00" r="1.2"/>
<path d="M630.50 41.00v21.00" class="stroke"/>
<use x="674.00" y="47.00" xlink:href="#hd"/>
<path d="M670.50 47.00v21.00" class="stroke"/>
<path class="fill"
	d="M670.50 68.00c0.6 -5.6 9.6 -9 5.6 -18.4
	1.6 6 -1.3 11.6 -5.6 12.8
"/>
</g>
<g stroke-width="0.70">
<path class="stroke" stroke-width="1"
	d="M233.70 129.00v-24.00"/>
<path class="stroke" stroke-width="1"
	d="M426.60 129.00v-24.00"/>
<path class="stroke" stroke-width="1"
	d="M584.60 129.00v-24.00"/>
<path class="stroke" stroke-width="1"
	d="M691.60 129.00v-24.00"/>
<path class="stroke" stroke-width="1"
	d="M688.60 129.00v-24.00"/>
<path d="m10.00 129.00
	h681.60
	M10.00 123.00
	h681.60
	M10.00 117.00
	h681.60
	M10.00 111.00
	h681.60
	M10.00 105.00
	h681.60
	" class="stroke"/>
<use x="22.00" y="123.00" xlink:href="#tclef"/>
<use x="37.00" y="105.00" xlink:href="#sh0"/>
<path class="fill"
	d="M51.20 136.80l29.60 -2.50v-3.20l-29.60 2.50"/>
<path class="fill"
	d="M73.40 129.90l7.00 -0.60v-3.20l-7.00 0.60"/>
<use x="55.00" y="114.00" xlink:href="#hd"/>
<circle class="fill" cx="62.70" cy="114.00" r="1.2"/>
<path d="M51.50 114.00v21.70" class="stroke"/>
<use x="83.90" y="111.00" xlink:href="#hd"/>
<path d="M80.40 111.00v22.30" class="stroke"/>
<path class="fill"
	d="M100.10 131.90l29.60 4.30v-3.20l-29.60 -4.30"/>
<path class="fill"
	d="M122.40 130.20l7.00 1.00v-3.20l-7.00 -1.00"/>
<use x="103.90" y="108.00" xlink:href="#hd"/>
<circle class="fill" cx="111.60" cy="108.00" r="1.2"/>
<path d="M100.40 108.00v23.00" class="stroke"/>
<use x="132.90" y="114.00" xlink:href="#hd"/>
<path d="M129.40 114.00v21.20" class="stroke"/>
<use x="150.80" y="120.00" xlink:href="#hd"/>
<path d="M154.30 120.00v-21.00" class="stroke"/>
<path class="fill"
	d="M187.00 139.80l29.60 -2.50v-3.20l-29.60 2.50"/>
<path class="fill"
	d="M209.20 132.90l7.00 -0.60v-3.20l-7.00 0.60"/>
<use x="190.80" y="117.00" xlink:href="#hd"/>
<circle class="fill" cx="198.50" cy="114.00" r="1.2"/>
<path d="M187.30 117.00v21.70" class="stroke"/>
<use x="219.70" y="114.00" xlink:href="#hd"/>
<path d="M216.20 114.00v22.30" class="stroke"/>
<path class="fill"
	d="M244.00 139.80l29.60 -2.50v-3.20l-29.60 2.50"/>
<path class="fill"
	d="M266.30 132.90l7.00 -0.60v-3.20l-7.00 0.60"/>
<use x="247.90" y="117.00" xlink:href="#hd"/>
<circle class="fill" cx="255.60" cy="114.00" r="1.2"/>
<path d="M244.40 117.00v21.70" class="stroke"/>
<use x="276.80" y="114.00" xlink:href="#hd"/>
<path d="M273.30 114.00v22.30" class="stroke"/>
<path class="fill"
	d="M292.90 134.90l29.60 4.30v-3.20l-29.60 -4.30"/>
<path class="fill"
	d="M315.20 133.20l7.00 1.00v-3.20l-7.00 -1.00"/>
<use x="296.80" y="111.00" xlink:href="#hd"/>
<circle class="fill" cx="304.50" cy="108.00" r="1.2"/>
<path d="M293.30 111.00v23.00" class="stroke"/>
<use x="325.70" y="117.00" xlink:href="#hd"/>
<path d="M322.20 117.00v21.20" class="stroke"/>
<use x="343.70" y="123.00" xlink:href="#hd"/>
<path d="M347.20 123.00v-21.00" class="stroke"/>
<path class="fill"
	d="M386.80 97.30l29.60 -2.50v3.20l-29.60 2.50"/>
<path class="fill"
	d="M409.10 100.40l7.00 -0.60v3.20l-7.00 0.60"/>
<use x="383.70" y="120.00" xlink:href="#hd"/>
<circle class="fill" cx="391.40" cy="120.00" r="1.2"/>
<path d="M387.20 120.00v-21.70" class="stroke"/>
<use x="412.60" y="117.00" xlink:href="#hd"/>
<path d="M416.10 117.00v-21.20" class="stroke"/>
<use x="440.70" y="114.00" xlink:href="#hd"/>
<path d="M437.20 114.00v21.00" class="stroke"/>
<use x="476.70" y="120.00" xlink:href="#hd"/>
<path d="M480.20 120.00v-21.00" class="stroke"/>
<use x="516.60" y="123.00" xlink:href="#hd"/>
<path d="M520.10 123.00v-21.00" class="stroke"/>
<use x="556.60" y="126.00" xlink:href="#hd"/>
<path d="M560.10 126.00v-21.00" class="stroke"/>
<use x="598.70" y="123.00" xlink:href="#Hd"/>
<path d="M602.20 123.00v-21.00" class="stroke"/>
<use x="655.20" y="123.00" xlink:href="#hd"/>
<circle class="fill" cx="662.90" cy="120.00" r="1.2"/>
<path d="M658.70 123.00v-21.00" class="stroke"/>
</g>
<g stroke-width="0.70">
<path class="stroke" stroke-width="1"
	d="M99.80 199.00v-24.00"/>
<path class="stroke" stroke-width="1"
	d="M294.00 199.00v-24.00"/>
<path class="stroke" stroke-width="1"
	d="M488.10 199.00v-24.00"/>
<path class="stroke" stroke-width="1"
	d="M691.60 199.00v-24.00"/>
<path d="m10.00 199.00
	h681.60
	M10.00 193.00
	h681.60
	M10.00 187.00
	h681.60
	M10.00 181.00
	h681.60
	M10.00 175.00
	h681.60
	" class="stroke"/>
<use x="22.00" y="193.00" xlink:href="#tclef"/>
<use x="37.00" y="175.00" xlink:href="#sh0"/>
<path class="fill"
	d="M58.20 165.20l30.90 2.60v3.20l-30.90 -2.60"/>
<path class="fill"
	d="M81.70 172.20l7.00 0.60v3.20l-7.00 -0.60"/>
<use x="55.00" y="187.00" xlink:href="#hd"/>
<circle class="fill" cx="62.70" cy="184.00" r="1.2"/>
<path d="M58.50 187.00v-20.80" class="stroke"/>
<use x="85.20" y="190.00" xlink:href="#hd"/>
<path d="M88.70 190.00v-21.20" class="stroke"/>
<use x="114.60" y="193.00" xlink:href="#hd"/>
<path d="M118.10 193.00v-21.00" class="stroke"/>
<use x="156.30" y="172.00" xlink:href="#hd"/>
<path d="M152.80 172.00v21.00" class="stroke"/>
<path class="fill"
	d="M194.20 195.90l30.90 4.40v-3.20l-30.90 -4.40"/>
<path class="fill"
	d="M217.80 194.20l7.00 1.00v-3.20l-7.00 -1.00"/>
<use x="198.00" y="172.00" xlink:href="#hd"/>
<circle class="fill" cx="205.70" cy="172.00" r="1.2"/>
<path d="M194.50 172.00v22.90" class="stroke"/>
<use x="228.30" y="178.00" xlink:href="#hd"/>
<path d="M224.80 178.00v21.20" class="stroke"/>
<path class="fill"
	d="M245.30 197.80l30.90 -2.60v-3.20l-30.90 2.60"/>
<path class="fill"
	d="M268.90 190.80l7.00 -0.60v-3.20l-7.00 0.60"/>
<use x="249.10" y="175.00" xlink:href="#hd"/>
<circle class="fill" cx="256.80" cy="172.00" r="1.2"/>
<path d="M245.60 175.00v21.80" class="stroke"/>
<use x="279.40" y="172.00" xlink:href="#hd"/>
<path d="M275.90 172.00v22.20" class="stroke"/>
<path class="fill"
	d="M304.90 198.20l30.90 2.60v-3.20l-30.90 -2.60"/>
<path class="fill"
	d="M328.50 195.20l7.00 0.60v-3.20l-7.00 -0.60"/>
<use x="308.70" y="175.00" xlink:href="#hd"/>
<circle class="fill" cx="316.40" cy="172.00" r="1.2"/>
<path d="M305.20 175.00v22.20" class="stroke"/>
<use x="339.00" y="178.00" xlink:href="#hd"/>
<path d="M335.50 178.00v21.80" class="stroke"/>
<use x="359.80" y="181.00" xlink:href="#hd"/>
<path d="M356.30 181.00v21.00" class="stroke"/>
<use x="401.50" y="181.00" xlink:href="#hd"/>
<path d="M398.00 181.00v21.00" class="stroke"/>
<path class="fill"
	d="M439.40 209.80l30.90 -2.60v-3.20l-30.90 2.60"/>
<path class="fill"
	d="M463.00 202.80l7.00 -0.60v-3.20l-7.00 0.60"/>
<use x="443.30" y="187.00" xlink:href="#hd"/>
<circle class="fill" cx="451.00" cy="184.00" r="1.2"/>
<path d="M439.80 187.00v21.80" class="stroke"/>
<use x="473.50" y="184.00" xlink:href="#hd"/>
<path d="M470.00 184.00v22.20" class="stroke"/>
<use x="502.90" y="181.00" xlink:href="#hd"/>
<path d="M499.40 181.00v21.00" class="stroke"/>
<path class="fill"
	d="M540.70 200.80l30.90 -2.60v-3.20l-30.90 2.60"/>
<path class="fill"
	d="M564.30 193.80l7.00 -0.60v-3.20l-7.00 0.60"/>
<use x="544.60" y="178.00" xlink:href="#hd"/>
<circle class="fill" cx="552.30" cy="178.00" r="1.2"/>
<path d="M541.10 178.00v21.80" class="stroke"/>
<use x="574.80" y="175.00" xlink:href="#hd"/>
<path d="M571.30 175.00v22.20" class="stroke"/>
<path class="fill"
	d="M591.80 195.20l30.90 2.60v-3.20l-30.90 -2.60"/>
<path class="fill"
	d="M615.40 192.20l7.00 0.60v-3.20l-7.00 -0.60"/>
<use x="595.70" y="172.00" xlink:href="#hd"/>
<circle class="fill" cx="603.40" cy="172.00" r="1.2"/>
<path d="M592.20 172.00v22.20" class="stroke"/>
<use x="625.90" y="175.00" xlink:href="#hd"/>
<path d="M622.40 175.00v21.80" class="stroke"/>
<path class="fill"
	d="M642.90 198.20l30.90 2.60v-3.20l-30.90 -2.60"/>
<path class="fill"
	d="M666.50 195.20l7.00 0.60v-3.20l-7.00 -0.60"/>
<use x="646.80" y="175.00" xlink:href="#hd"/>
<circle class="fill" cx="654.50" cy="172.00" r="1.2"/>
<path d="M643.30 175.00v22.20" class="stroke"/>
<use x="677.00" y="178.00" xlink:href="#hd"/>
<path d="M673.50 178.00v21.80" class="stroke"/>
</g>
<g stroke-width="0.70">
<path class="stroke" stroke-width="1"
	d="M184.10 269.00v-24.00"/>
<path class="stroke" stroke-width="1"
	d="M352.30 269.00v-24.00"/>
<path class="stroke" stroke-width="1"
	d="M520.60 269.00v-24.00"/>
<path class="stroke" stroke-width="1"
	d="M691.60 269.00v-24.00"/>
<path d="m10.00 269.00
	h681.60
	M10.00 263.00
	h681.60
	M10.00 257.00
	h681.60
	M10.00 251.00
	h681.60
	M10.00 245.00
	h681.60
	" class="stroke"/>
<use x="22.00" y="263.00" xlink:href="#tclef"/>
<use x="37.00" y="245.00" xlink:href="#sh0"/>
<use x="55.50" y="245.00" xlink:href="#Hd"/>
<path d="M52.00 245.00v21.00" class="stroke"/>
<use x="115.20" y="245.00" xlink:href="#hd"/>
<circle class="fill" cx="122.90" cy="242.00" r="1.2"/>
<path d="M111.70 245.00v21.00" class="stroke"/>
<use x="163.20" y="248.00" xlink:href="#hd"/>
<path d="M159.70 248.00v21.00" class="stroke"/>
<path class="fill"
	d="M159.70 269.00c0.6 -5.6 9.6 -9 5.6 -18.4
	1.6 6 -1.3 11.6 -5.6 12.8
"/>
<use x="199.00" y="251.00" xlink:href="#hd"/>
<path d="M195.50 251.00v21.00" class="stroke"/>
<use x="241.20" y="242.00" xlink:href="#hd"/>
<path d="M237.70 242.00v21.00" class="stroke"/>
<use x="283.40" y="242.00" xlink:href="#hd"/>
<circle class="fill" cx="291.10" cy="242.00" r="1.2"/>
<path d="M279.90 242.00v21.00" class="stroke"/>
<use x="331.50" y="245.00" xlink:href="#hd"/>
<path d="M328.00 245.00v21.00" class="stroke"/>
<path class="fill"
	d="M328.00 266.00c0.6 -5.6 9.6 -9 5.6 -18.4
	1.6 6 -1.3 11.6 -5.6 12.8
"/>
<use x="367.30" y="248.00" xlink:href="#hd"/>
<path d="M363.80 248.00v21.00" class="stroke"/>
<use x="409.50" y="251.00" xlink:href="#hd"/>
<path d="M406.00 251.00v21.00" class="stroke"/>
<use x="451.70" y="251.00" xlink:href="#hd"/>
<circle class="fill" cx="459.40" cy="248.00" r="1.2"/>
<path d="M448.20 251.00v21.00" class="stroke"/>
<use x="499.70" y="257.00" xlink:href="#hd"/>
<path d="M496.20 257.00v21.00" class="stroke"/>
<path class="fill"
	d="M496.20 278.00c0.6 -5.6 9.6 -9 5.6 -18.4
	1.6 6 -1.3 11.6 -5.6 12.8
"/>
<use x="535.50" y="260.00" xlink:href="#hd"/>
<path d="M539.00 260.00v-21.00" class="stroke"/>
<use x="577.70" y="257.00" xlink:href="#hd"/>
<path d="M581.20 257.00v-21.00" class="stroke"/>
<use x="619.90" y="254.00" xlink:href="#hd"/>
<path d="M616.40 254.00v21.00" class="stroke"/>
<use x="662.10" y="251.00" xlink:href="#hd"/>
<path d="M658.60 251.00v21.00" class="stroke"/>
</g>
<g stroke-width="0.70">
<path class="stroke" stroke-width="1"
	d="M276.10 339.00v-24.00"/>
<path class="stroke" stroke-width="1"
	d="M505.60 339.00v-24.00"/>
<path class="stroke" stroke-width="1"
	d="M691.60 339.00v-24.00"/>
<path d="m10.00 339.00
	h681.60
	M10.00 333.00
	h681.60
	M10.00 327.00
	h681.60
	M10.00 321.00
	h681.60
	M10.00 315.00
	h681.60
	" class="stroke"/>
<use x="22.00" y="333.00" xlink:href="#tclef"/>
<use x="37.00" y="315.00" xlink:href="#sh0"/>
<path class="fill"
	d="M51.20 340.80l34.80 -2.60v-3.20l-34.80 2.60"/>
<path class="fill"
	d="M78.60 333.70l7.00 -0.50v-3.20l-7.00 0.50"/>
<use x="55.00" y="318.00" xlink:href="#hd"/>
<circle class="fill" cx="62.70" cy="318.00" r="1.2"/>
<path d="M51.50 318.00v21.80" class="stroke"/>
<use x="89.10" y="315.00" xlink:href="#hd"/>
<path d="M85.60 315.00v22.20" class="stroke"/>
<path class="fill"
	d="M108.80 335.70l34.80 4.50v-3.20l-34.80 -4.50"/>
<path class="fill"
	d="M136.20 334.30l7.00 0.90v-3.20l-7.00 -0.90"/>
<use x="112.60" y="312.00" xlink:href="#hd"/>
<circle class="fill" cx="120.30" cy="312.00" r="1.2"/>
<path d="M109.10 312.00v22.80" class="stroke"/>
<use x="146.70" y="318.00" xlink:href="#hd"/>
<path d="M143.20 318.00v21.20" class="stroke"/>
<path class="fill"
	d="M166.40 344.20l34.80 2.60v-3.20l-34.80 -2.60"/>
<path class="fill"
	d="M193.80 341.30l7.00 0.50v-3.20l-7.00 -0.50"/>
<use x="170.20" y="321.00" xlink:href="#hd"/>
<circle class="fill" cx="177.90" cy="318.00" r="1.2"/>
<path d="M166.70 321.00v22.20" class="stroke"/>
<use x="204.30" y="324.00" xlink:href="#hd"/>
<path d="M200.80 324.00v21.80" class="stroke"/>
<path class="fill"
	d="M228.70 305.20l34.80 2.60v3.20l-34.80 -2.60"/>
<path class="fill"
	d="M256.10 312.30l7.00 0.50v3.20l-7.00 -0.50"/>
<use x="225.50" y="327.00" xlink:href="#hd"/>
<circle class="fill" cx="233.20" cy="324.00" r="1.2"/>
<path d="M229.00 327.00v-20.80" class="stroke"/>
<use x="259.60" y="330.00" xlink:href="#hd"/>
<path d="M263.10 330.00v-21.20" class="stroke"/>
<use x="292.70" y="333.00" xlink:href="#hd"/>
<path d="M296.20 333.00v-21.00" class="stroke"/>
<path class="fill"
	d="M342.90 310.40l34.80 -2.60v3.20l-34.80 2.60"/>
<path class="fill"
	d="M370.40 313.30l7.00 -0.50v3.20l-7.00 0.50"/>
<use x="339.80" y="333.00" xlink:href="#hd"/>
<circle class="fill" cx="347.50" cy="330.00" r="1.2"/>
<path d="M343.30 333.00v-21.60" class="stroke"/>
<use x="373.90" y="330.00" xlink:href="#hd"/>
<path d="M377.40 330.00v-21.20" class="stroke"/>
<path class="fill"
	d="M400.50 305.20l34.80 2.60v3.20l-34.80 -2.60"/>
<path class="fill"
	d="M428.00 312.30l7.00 0.50v3.20l-7.00 -0.50"/>
<use x="397.40" y="327.00" xlink:href="#hd"/>
<circle class="fill" cx="405.10" cy="324.00" r="1.2"/>
<path d="M400.90 327.00v-20.80" class="stroke"/>
<use x="431.50" y="330.00" xlink:href="#hd"/>
<path d="M435.00 330.00v-21.20" class="stroke"/>
<path class="fill"
	d="M458.20 309.30l34.80 -4.50v3.20l-34.80 4.50"/>
<path class="fill"
	d="M485.60 310.70l7.00 -0.90v3.20l-7.00 0.90"/>
<use x="455.00" y="333.00" xlink:href="#hd"/>
<circle class="fill" cx="462.70" cy="330.00" r="1.2"/>
<path d="M458.50 333.00v-22.80" class="stroke"/>
<use x="489.10" y="327.00" xlink:href="#hd"/>
<path d="M492.60 327.00v-21.20" class="stroke"/>
<use x="522.20" y="321.00" xlink:href="#hd"/>
<path d="M518.70 321.00v21.00" class="stroke"/>
<use x="569.30" y="324.00" xlink:href="#hd"/>
<path d="M565.80 324.00v21.00" class="stroke"/>
<use x="611.60" y="330.00" xlink:href="#hd"/>
<path d="M615.10 330.00v-21.00" class="stroke"/>
<use x="658.70" y="336.00" xlink:href="#hd"/>
<path d="M662.20 336.00v-21.00" class="stroke"/>
</g>
<g stroke-width="0.70">
<path class="stroke" stroke-width="1"
	d="M260.60 409.00v-24.00"/>
<path class="stroke" stroke-width="1"
	d="M438.80 409.00v-24.00"/>
<path class="stroke" stroke-width="1"
	d="M691.60 409.00v-24.00"/>
<path d="m10.00 409.00
	h681.60
	M10.00 403.00
	h681.60
	M10.00 397.00
	h681.60
	M10.00 391.00
	h681.60
	M10.00 385.00
	h681.60
	" class="stroke"/>
<use x="22.00" y="403.00" xlink:href="#tclef"/>
<use x="37.00" y="385.00" xlink:href="#sh0"/>
<use x="55.00" y="403.00" xlink:href="#hd"/>
<path d="M58.50 403.00v-21.00" class="stroke"/>
<path class="fill"
	d="M103.50 419.80l38.60 -2.60v-3.20l-38.60 2.60"/>
<path class="fill"
	d="M134.80 412.70l7.00 -0.50v-3.20l-7.00 0.50"/>
<use x="107.40" y="397.00" xlink:href="#hd"/>
<circle class="fill" cx="115.10" cy="394.00" r="1.2"/>
<path d="M103.90 397.00v21.80" class="stroke"/>
<use x="145.30" y="394.00" xlink:href="#hd"/>
<path d="M141.80 394.00v22.20" class="stroke"/>
<use x="171.50" y="391.00" xlink:href="#hd"/>
<path d="M168.00 391.00v21.00" class="stroke"/>
<use x="223.90" y="382.00" xlink:href="#hd"/>
<path d="M220.40 382.00v21.00" class="stroke"/>
<use x="279.10" y="391.00" xlink:href="#Hd"/>
<path d="M275.60 391.00v21.00" class="stroke"/>
<use x="353.20" y="391.00" xlink:href="#hd"/>
<circle class="fill" cx="360.90" cy="388.00" r="1.2"/>
<path d="M349.70 391.00v21.00" class="stroke"/>
<use x="412.80" y="397.00" xlink:href="#hd"/>
<path d="M409.30 397.00v21.00" class="stroke"/>
<path class="fill"
	d="M409.30 418.00c0.6 -5.6 9.6 -9 5.6 -18.4
	1.6 6 -1.3 11.6 -5.6 12.8
"/>
<path class="fill"
	d="M453.40 416.80l38.60 -2.60v-3.20l-38.60 2.60"/>
<path class="fill"
	d="M484.70 409.70l7.00 -0.50v-3.20l-7.00 0.50"/>
<use x="457.30" y="394.00" xlink:href="#hd"/>
<circle class="fill" cx="465.00" cy="394.00" r="1.2"/>
<path d="M453.80 394.00v21.80" class="stroke"/>
<use x="495.20" y="391.00" xlink:href="#hd"/>
<path d="M491.70 391.00v22.20" class="stroke"/>
<path class="fill"
	d="M517.60 411.70l38.60 4.60v-3.20l-38.60 -4.60"/>
<path class="fill"
	d="M548.90 410.40l7.00 0.80v-3.20l-7.00 -0.80"/>
<use x="521.40" y="388.00" xlink:href="#hd"/>
<circle class="fill" cx="529.10" cy="388.00" r="1.2"/>
<path d="M517.90 388.00v22.70" class="stroke"/>
<use x="559.40" y="394.00" xlink:href="#hd"/>
<path d="M555.90 394.00v21.30" class="stroke"/>
<use x="582.90" y="400.00" xlink:href="#hd"/>
<path d="M586.40 400.00v-21.00" class="stroke"/>
<path class="fill"
	d="M631.50 419.80l38.60 -2.60v-3.20l-38.60 2.60"/>
<path class="fill"
	d="M662.80 412.70l7.00 -0.50v-3.20l-7.00 0.50"/>
<use x="635.30" y="397.00" xlink:href="#hd"/>
<circle class="fill" cx="643.00" cy="394.00" r="1.2"/>
<path d="M631.80 397.00v21.80" class="stroke"/>
<use x="673.30" y="394.00" xlink:href="#hd"/>
<path d="M669.80 394.00v22.20" class="stroke"/>
</g>
<g stroke-width="0.70">
<path class="stroke" stroke-width="1"
	d="M311.40 479.00v-24.00"/>
<path class="stroke" stroke-width="1"
	d="M538.00 479.00v-24.00"/>
<path class="stroke" stroke-width="1"
	d="M691.60 479.00v-24.00"/>
<path class="stroke" stroke-width="1"
	d="M688.60 479.00v-24.00"/>
<path d="m10.00 479.00
	h681.60
	M10.00 473.00
	h681.60
	M10.00 467.00
	h681.60
	M10.00 461.00
	h681.60
	M10.00 455.00
	h681.60
	" class="stroke"/>
<use x="22.00" y="473.00" xlink:href="#tclef"/>
<use x="37.00" y="455.00" xlink:href="#sh0"/>
<path class="fill"
	d="M51.20 489.80l42.20 -2.70v-3.20l-42.20 2.70"/>
<path class="fill"
	d="M86.00 482.60l7.00 -0.40v-3.20l-7.00 0.40"/>
<use x="55.00" y="467.00" xlink:href="#hd"/>
<circle class="fill" cx="62.70" cy="464.00" r="1.2"/>
<path d="M51.50 467.00v21.80" class="stroke"/>
<use x="96.50" y="464.00" xlink:href="#hd"/>
<path d="M93.00 464.00v22.20" class="stroke"/>
<path class="fill"
	d="M121.30 484.60l42.20 4.70v-3.20l-42.20 -4.70"/>
<path class="fill"
	d="M156.20 483.50l7.00 0.80v-3.20l-7.00 -0.80"/>
<use x="125.20" y="461.00" xlink:href="#hd"/>
<circle class="fill" cx="132.90" cy="458.00" r="1.2"/>
<path d="M121.70 461.00v22.70" class="stroke"/>
<use x="166.70" y="467.00" xlink:href="#hd"/>
<path d="M163.20 467.00v21.30" class="stroke"/>
<use x="192.50" y="473.00" xlink:href="#hd"/>
<path d="M196.00 473.00v-21.00" class="stroke"/>
<path class="fill"
	d="M253.00 447.40l42.20 -2.70v3.20l-42.20 2.70"/>
<path class="fill"
	d="M287.80 450.20l7.00 -0.40v3.20l-7.00 0.40"/>
<use x="249.80" y="470.00" xlink:href="#hd"/>
<circle class="fill" cx="257.50" cy="470.00" r="1.2"/>
<path d="M253.30 470.00v-21.60" class="stroke"/>
<use x="291.30" y="467.00" xlink:href="#hd"/>
<path d="M294.80 467.00v-21.20" class="stroke"/>
<use x="331.70" y="464.00" xlink:href="#hd"/>
<path d="M328.20 464.00v21.00" class="stroke"/>
<use x="383.30" y="470.00" xlink:href="#hd"/>
<path d="M386.80 470.00v-21.00" class="stroke"/>
<use x="440.60" y="473.00" xlink:href="#hd"/>
<path d="M444.10 473.00v-21.00" class="stroke"/>
<use x="497.90" y="476.00" xlink:href="#hd"/>
<path d="M501.40 476.00v-21.00" class="stroke"/>
<use x="558.30" y="473.00" xlink:href="#Hd"/>
<path d="M561.80 473.00v-21.00" class="stroke"/>
<use x="639.40" y="473.00" xlink:href="#hd"/>
<circle class="fill" cx="647.10" cy="470.00" r="1.2"/>
<path d="M642.90 473.00v-21.00" class="stroke"/>
</g>
<g stroke-width="0.70">
<path class="stroke" stroke-width="1"
	d="M95.10 549.00v-24.00"/>
<path class="stroke" stroke-width="1"
	d="M221.60 549.00v-24.00"/>
<path class="stroke" stroke-width="1"
	d="M360.00 549.00v-24.00"/>
<path class="stroke" stroke-width="1"
	d="M462.50 549.00v-24.00"/>
<path class="stroke" stroke-width="1"
	d="M565.10 549.00v-24.00"/>
<path class="stroke" stroke-width="1"
	d="M691.60 549.00v-24.00"/>
<path d="m10.00 549.00
	h681.60
	M10.00 543.00
	h681.60
	M10.00 537.00
	h681.60
	M10.00 531.00
	h681.60
	M10.00 525.00
	h681.60
	" class="stroke"/>
<use x="22.00" y="543.00" xlink:href="#tclef"/>
<use x="37.00" y="525.00" xlink:href="#sh0"/>
<path class="fill"
	d="M58.20 515.20l27.70 2.50v3.20l-27.70 -2.50"/>
<path class="fill"
	d="M78.50 522.10l7.00 0.60v3.20l-7.00 -0.60"/>
<use x="55.00" y="537.00" xlink:href="#hd"/>
<circle class="fill" cx="62.70" cy="534.00" r="1.2"/>
<path d="M58.50 537.00v-20.70" class="stroke"/>
<use x="82.00" y="540.00" xlink:href="#hd"/>
<path d="M85.50 540.00v-21.30" class="stroke"/>
<use x="108.30" y="543.00" xlink:href="#Hd"/>
<path d="M111.80 543.00v-21.00" class="stroke"/>
<use x="160.80" y="543.00" xlink:href="#hd"/>
<circle class="fill" cx="168.50" cy="540.00" r="1.2"/>
<path d="M164.30 543.00v-21.00" class="stroke"/>
<defs>
<path id="hl" class="stroke" d="m-6 0h12"/>
</defs>
<use x="203.10" y="519.00" xlink:href="#hl"/>
<use x="203.10" y="519.00" xlink:href="#hd"/>
<path d="M199.60 519.00v21.00" class="stroke"/>
<path class="fill"
	d="M199.60 540.00c0.6 -5.6 9.6 -9 5.6 -18.4
	1.6 6 -1.3 11.6 -5.6 12.8
"/>
<use x="234.80" y="537.00" xlink:href="#hd"/>
<circle class="fill" cx="242.50" cy="534.00" r="1.2"/>
<path d="M231.30 537.00v21.00" class="stroke"/>
<use x="272.90" y="540.00" xlink:href="#hd"/>
<path d="M276.40 540.00v-21.00" class="stroke"/>
<path class="fill"
	d="M276.40 519.00c0.6 5.6 9.6 9 5.6 18.4
	1.6 -6 -1.3 -11.6 -5.6 -12.8
"/>
<use x="299.20" y="543.00" xlink:href="#hd"/>
<circle class="fill" cx="306.90" cy="540.00" r="1.2"/>
<path d="M302.70 543.00v-21.00" class="stroke"/>
<use x="341.50" y="537.00" xlink:href="#hd"/>
<path d="M345.00 537.00v-21.00" class="stroke"/>
<path class="fill"
	d="M345.00 516.00c0.6 5.6 9.6 9 5.6 18.4
	1.6 -6 -1.3 -11.6 -5.6 -12.8
"/>
<use x="373.20" y="531.00" xlink:href="#Hd"/>
<path d="M369.70 531.00v21.00" class="stroke"/>
<use x="425.70" y="534.00" xlink:href="#Hd"/>
<path d="M422.20 534.00v21.00" class="stroke"/>
<use x="475.80" y="540.00" xlink:href="#Hd"/>
<path d="M479.30 540.00v-21.00" class="stroke"/>
<use x="528.30" y="546.00" xlink:href="#Hd"/>
<path d="M531.80 546.00v-21.00" class="stroke"/>
<use x="578.30" y="543.00" xlink:href="#Hd"/>
<path d="M581.80 543.00v-21.00" class="stroke"/>
<use x="630.80" y="537.00" xlink:href="#hd"/>
<circle class="fill" cx="638.50" cy="534.00" r="1.2"/>
<path d="M634.30 537.00v-21.00" class="stroke"/>
<use x="673.10" y="534.00" xlink:href="#hd"/>
<path d="M669.60 534.00v21.00" class="stroke"/>
<path class="fill"
	d="M669.60 555.00c0.6 -5.6 9.6 -9 5.6 -18.4
	1.6 6 -1.3 11.6 -5.6 12.8
"/>
</g>
<g stroke-width="0.70">
<path class="stroke" stroke-width="1"
	d="M175.50 619.00v-24.00"/>
<path class="stroke" stroke-width="1"
	d="M313.10 619.00v-24.00"/>
<path class="stroke" stroke-width="1"
	d="M450.80 619.00v-24.00"/>
<path class="stroke" stroke-width="1"
	d="M691.60 619.00v-24.00"/>
<path d="m10.00 619.00
	h681.60
	M10.00 613.00
	h681.60
	M10.00 607.00
	h681.60
	M10.00 601.00
	h681.60
	M10.00 595.00
	h681.60
	" class="stroke"/>
<use x="22.00" y="613.00" xlink:href="#tclef"/>
<use x="37.00" y="595.00" xlink:href="#sh0"/>
<use x="55.50" y="601.00" xlink:href="#Hd"/>
<path d="M52.00 601.00v21.00" class="stroke"/>
<use x="126.10" y="592.00" xlink:href="#Hd"/>
<path d="M122.60 592.00v21.00" class="stroke"/>
<use x="193.10" y="601.00" xlink:href="#Hd"/>
<path d="M189.60 601.00v21.00" class="stroke"/>
<use x="263.70" y="601.00" xlink:href="#Hd"/>
<path d="M260.20 601.00v21.00" class="stroke"/>
<use x="330.80" y="601.00" xlink:href="#Hd"/>
<path d="M327.30 601.00v21.00" class="stroke"/>
<use x="401.40" y="607.00" xlink:href="#Hd"/>
<path d="M397.90 607.00v21.00" class="stroke"/>
<path class="fill"
	d="M464.60 626.80l36.80 -2.60v-3.20l-36.80 2.60"/>
<path class="fill"
	d="M494.10 619.70l7.00 -0.50v-3.20l-7.00 0.50"/>
<use x="468.40" y="604.00" xlink:href="#hd"/>
<circle class="fill" cx="476.10" cy="604.00" r="1.2"/>
<path d="M464.90 604.00v21.80" class="stroke"/>
<use x="504.60" y="601.00" xlink:href="#hd"/>
<path d="M501.10 601.00v22.20" class="stroke"/>
<path class="fill"
	d="M525.70 621.70l36.80 4.60v-3.20l-36.80 -4.60"/>
<path class="fill"
	d="M555.20 620.40l7.00 0.90v-3.20l-7.00 -0.90"/>
<use x="529.50" y="598.00" xlink:href="#hd"/>
<circle class="fill" cx="537.20" cy="598.00" r="1.2"/>
<path d="M526.00 598.00v22.70" class="stroke"/>
<use x="565.70" y="604.00" xlink:href="#hd"/>
<path d="M562.20 604.00v21.30" class="stroke"/>
<use x="588.10" y="610.00" xlink:href="#hd"/>
<path d="M591.60 610.00v-21.00" class="stroke"/>
<path class="fill"
	d="M634.20 629.80l36.80 -2.60v-3.20l-36.80 2.60"/>
<path class="fill"
	d="M663.60 622.70l7.00 -0.50v-3.20l-7.00 0.50"/>
<use x="638.00" y="607.00" xlink:href="#hd"/>
<circle class="fill" cx="645.70" cy="604.00" r="1.2"/>
<path d="M634.50 607.00v21.80" class="stroke"/>
<use x="674.10" y="604.00" xlink:href="#hd"/>
<path d="M670.60 604.00v22.20" class="stroke"/>
</g>
<g stroke-width="0.70">
<path class="stroke" stroke-width="1"
	d="M311.40 689.00v-24.00"/>
<path class="stroke" stroke-width="1"
	d="M538.00 689.00v-24.00"/>
<path class="stroke" stroke-width="1"
	d="M691.60 689.00v-24.00"/>
<path class="stroke" stroke-width="1"
	d="M688.60 689.00v-24.00"/>
<path d="m10.00 689.00
	h681.60
	M10.00 683.00
	h681.60
	M10.00 677.00
	h681.60
	M10.00 671.00
	h681.60
	M10.00 665.00
	h681.60
	" class="stroke"/>
<use x="22.00" y="683.00" xlink:href="#tclef"/>
<use x="37.00" y="665.00" xlink:href="#sh0"/>
<path class="fill"
	d="M51.20 699.80l42.20 -2.70v-3.20l-42.20 2.70"/>
<path class="fill"
	d="M86.00 692.60l7.00 -0.40v-3.20l-7.00 0.40"/>
<use x="55.00" y="677.00" xlink:href="#hd"/>
<circle class="fill" cx="62.70" cy="674.00" r="1.2"/>
<path d="M51.50 677.00v21.80" class="stroke"/>
<use x="96.50" y="674.00" xlink:href="#hd"/>
<path d="M93.00 674.00v22.20" class="stroke"/>
<path class="fill"
	d="M121.30 694.60l42.20 4.70v-3.20l-42.20 -4.70"/>
<path class="fill"
	d="M156.20 693.50l7.00 0.80v-3.20l-7.00 -0.80"/>
<use x="125.20" y="671.00" xlink:href="#hd"/>
<circle class="fill" cx="132.90" cy="668.00" r="1.2"/>
<path d="M121.70 671.00v22.70" class="stroke"/>
<use x="166.70" y="677.00" xlink:href="#hd"/>
<path d="M163.20 677.00v21.30" class="stroke"/>
<use x="192.50" y="683.00" xlink:href="#hd"/>
<path d="M196.00 683.00v-21.00" class="stroke"/>
<path class="fill"
	d="M253.00 657.40l42.20 -2.70v3.20l-42.20 2.70"/>
<path class="fill"
	d="M287.80 660.20l7.00 -0.40v3.20l-7.00 0.40"/>
<use x="249.80" y="680.00" xlink:href="#hd"/>
<circle class="fill" cx="257.50" cy="680.00" r="1.2"/>
<path d="M253.30 680.00v-21.60" class="stroke"/>
<use x="291.30" y="677.00" xlink:href="#hd"/>
<path d="M294.80 677.00v-21.20" class="stroke"/>
<use x="331.70" y="674.00" xlink:href="#hd"/>
<path d="M328.20 674.00v21.00" class="stroke"/>
<use x="383.30" y="680.00" xlink:href="#hd"/>
<path d="M386.80 680.00v-21.00" class="stroke"/>
<use x="440.60" y="683.00" xlink:href="#hd"/>
<path d="M444.10 683.00v-21.00" class="stroke"/>
<use x="497.90" y="686.00" xlink:href="#hd"/>
<path d="M501.40 686.00v-21.00" class="stroke"/>
<use x="558.30" y="683.00" xlink:href="#Hd"/>
<path d="M561.80 683.00v-21.00" class="stroke"/>
<use x="639.40" y="683.00" xlink:href="#hd"/>
<circle class="fill" cx="647.10" cy="680.00" r="1.2"/>
<path d="M642.90 683.00v-21.00" class="stroke"/>
</g>
</svg>
