<?xml version="1.0" standalone="no"?>
<!DOCTYPE svg PUBLIC "-//W3C//DTD SVG 1.1//EN"
	"http://www.w3.org/Graphics/SVG/1.1/DTD/svg11.dtd">
<svg xmlns="http://www.w3.org/2000/svg" version="1.1"
	xmlns:xlink="http://www.w3.org/1999/xlink"
	color="black"
	width="701.60px" height="446.00px">
<style type="text/css">
.fill {fill: currentColor}
.stroke {stroke: currentColor; fill: none}
text{white-space: pre}
</style>
<title>/media/tim/Data1/tims_code/sphinx-tunes/source/_abcfiles/_Phoenix.abc (1) tune 1</title>
<!-- Creator: abcm2ps-8.14.6 -->
<!-- CreationDate: Jul 30, 2023 12:21 -->
<!-- CommandLine: -g /media/tim/Data1/tims_code/sphinx-tunes/source/_abcfiles/_Phoenix.abc -O /media/tim/Data1/tims_code/sphinx-tunes/source/_abcfiles/_Phoenix.svg -->
<g stroke-width="0.70" style="font:italic 14.00px Times">
<text x="691.60" y="20.00" text-anchor="end">Jackie Tolliday-Bailey</text>
</g>
<g stroke-width="0.70" style="font:italic 14.00px Times">
<path class="stroke" stroke-width="1"
	d="M234.60 73.00v-24.00"/>
<path class="stroke" stroke-width="1"
	d="M391.80 73.00v-24.00"/>
<path class="stroke" stroke-width="1"
	d="M541.70 73.00v-24.00"/>
<path class="stroke" stroke-width="1"
	d="M691.60 73.00v-24.00"/>
<path d="m10.00 73.00
	h681.60
	M10.00 67.00
	h681.60
	M10.00 61.00
	h681.60
	M10.00 55.00
	h681.60
	M10.00 49.00
	h681.60
	" class="stroke"/>
<defs>
<path id="utclef" class="fill" d="m-50 -90
	c-72 -41 -72 -158 52 -188
	150 -10 220 188 90 256
	-114 52 -275 0 -293 -136
	-15 -181 93 -229 220 -334
	88 -87 79 -133 62 -210
	-51 33 -94 105 -89 186
	17 267 36 374 49 574
	6 96 -19 134 -77 135
	-80 1 -126 -93 -61 -133
	85 -41 133 101 31 105
	23 17 92 37 90 -92
	-10 -223 -39 -342 -50 -617
	0 -90 0 -162 96 -232
	56 72 63 230 22 289
	-74 106 -257 168 -255 316
	9 153 148 185 252 133
	86 -65 29 -192 -80 -176
	-71 12 -105 67 -59 124"/>
<use id="tclef" transform="translate(0,6) scale(0.045)"
	xlink:href="#utclef"/>
</defs>
<use x="22.00" y="67.00" xlink:href="#tclef"/>
<defs>
<path id="usharp" class="fill" d="
	m136 -702
	v890
	h32
	v-890
	m128 840
	h32
	v-888
	h-32
	m-232 286
	v116
	l338 -96
	v-116
	m-338 442
	v116
	l338 -98
	v-114"/>
<use id="sh0" transform="translate(-4,5) scale(0.018)"
	xlink:href="#usharp"/>
</defs>
<use x="37.00" y="49.00" xlink:href="#sh0"/>
<use x="42.50" y="58.00" xlink:href="#sh0"/>
<g style="font:bold 16px serif"
	transform="translate(58.50,72.50) scale(1.2,1)">
	<text text-anchor="middle">4</text>
	<text y="-12" text-anchor="middle">6</text>
</g>
<path class="fill"
	d="M72.70 70.00l54.40 0.00v-3.20l-54.40 -0.00"/>
<defs>
<ellipse id="hd" rx="4.1" ry="2.9"
	transform="rotate(-20)" class="fill"/>
</defs>
<use x="76.50" y="49.00" xlink:href="#hd"/>
<path d="M73.00 49.00v20.00" class="stroke"/>
<use x="103.30" y="46.00" xlink:href="#hd"/>
<path d="M99.80 46.00v23.00" class="stroke"/>
<use x="130.20" y="49.00" xlink:href="#hd"/>
<path d="M126.70 49.00v20.00" class="stroke"/>
<path class="fill"
	d="M156.20 73.20l54.40 0.00v-3.20l-54.40 -0.00"/>
<use x="160.00" y="52.00" xlink:href="#hd"/>
<path d="M156.50 52.00v20.20" class="stroke"/>
<use x="186.80" y="49.00" xlink:href="#hd"/>
<path d="M183.30 49.00v23.20" class="stroke"/>
<use x="213.70" y="52.00" xlink:href="#hd"/>
<path d="M210.20 52.00v20.20" class="stroke"/>
<path class="fill"
	d="M245.60 76.00l54.40 0.00v-3.20l-54.40 -0.00"/>
<use x="249.50" y="55.00" xlink:href="#hd"/>
<path d="M246.00 55.00v20.00" class="stroke"/>
<use x="276.30" y="52.00" xlink:href="#hd"/>
<path d="M272.80 52.00v23.00" class="stroke"/>
<use x="303.10" y="55.00" xlink:href="#hd"/>
<path d="M299.60 55.00v20.00" class="stroke"/>
<use x="333.00" y="58.00" xlink:href="#hd"/>
<path d="M329.50 58.00v21.00" class="stroke"/>
<use x="370.90" y="70.00" xlink:href="#hd"/>
<path d="M374.40 70.00v-21.00" class="stroke"/>
<path class="fill"
	d="M374.40 49.00c0.6 5.6 9.6 9 5.6 18.4
	1.6 -6 -1.3 -11.6 -5.6 -12.8
"/>
<use x="406.70" y="61.00" xlink:href="#hd"/>
<path d="M410.20 61.00v-21.00" class="stroke"/>
<use x="448.80" y="58.00" xlink:href="#hd"/>
<path d="M445.30 58.00v21.00" class="stroke"/>
<path class="fill"
	d="M445.30 79.00c0.6 -5.6 9.6 -9 5.6 -18.4
	1.6 6 -1.3 11.6 -5.6 12.8
"/>
<use x="478.70" y="55.00" xlink:href="#hd"/>
<path d="M475.20 55.00v21.00" class="stroke"/>
<use x="520.80" y="52.00" xlink:href="#hd"/>
<path d="M517.30 52.00v21.00" class="stroke"/>
<path class="fill"
	d="M517.30 73.00c0.6 -5.6 9.6 -9 5.6 -18.4
	1.6 6 -1.3 11.6 -5.6 12.8
"/>
<use x="556.60" y="49.00" xlink:href="#hd"/>
<path d="M553.10 49.00v21.00" class="stroke"/>
<use x="598.80" y="52.00" xlink:href="#hd"/>
<path d="M595.30 52.00v21.00" class="stroke"/>
<path class="fill"
	d="M595.30 73.00c0.6 -5.6 9.6 -9 5.6 -18.4
	1.6 6 -1.3 11.6 -5.6 12.8
"/>
<use x="628.60" y="55.00" xlink:href="#hd"/>
<path d="M625.10 55.00v21.00" class="stroke"/>
<use x="670.70" y="58.00" xlink:href="#hd"/>
<path d="M667.20 58.00v21.00" class="stroke"/>
<path class="fill"
	d="M667.20 79.00c0.6 -5.6 9.6 -9 5.6 -18.4
	1.6 6 -1.3 11.6 -5.6 12.8
"/>
</g>
<g stroke-width="0.70" style="font:italic 14.00px Times">
<path class="stroke" stroke-width="1"
	d="M249.60 143.00v-24.00"/>
<path class="stroke" stroke-width="1"
	d="M437.60 143.00v-24.00"/>
<path class="stroke" stroke-width="1"
	d="M616.90 143.00v-24.00"/>
<path class="stroke" stroke-width="1"
	d="M691.60 143.00v-24.00"/>
<path d="m10.00 143.00
	h681.60
	M10.00 137.00
	h681.60
	M10.00 131.00
	h681.60
	M10.00 125.00
	h681.60
	M10.00 119.00
	h681.60
	" class="stroke"/>
<use x="22.00" y="137.00" xlink:href="#tclef"/>
<use x="37.00" y="119.00" xlink:href="#sh0"/>
<use x="42.50" y="128.00" xlink:href="#sh0"/>
<path class="fill"
	d="M56.70 140.00l64.90 0.00v-3.20l-64.90 -0.00"/>
<use x="60.50" y="119.00" xlink:href="#hd"/>
<path d="M57.00 119.00v20.00" class="stroke"/>
<use x="92.60" y="116.00" xlink:href="#hd"/>
<path d="M89.10 116.00v23.00" class="stroke"/>
<use x="124.70" y="119.00" xlink:href="#hd"/>
<path d="M121.20 119.00v20.00" class="stroke"/>
<path class="fill"
	d="M156.50 143.20l64.90 0.00v-3.20l-64.90 -0.00"/>
<use x="160.40" y="122.00" xlink:href="#hd"/>
<path d="M156.90 122.00v20.20" class="stroke"/>
<use x="192.50" y="119.00" xlink:href="#hd"/>
<path d="M189.00 119.00v23.20" class="stroke"/>
<use x="224.60" y="122.00" xlink:href="#hd"/>
<path d="M221.10 122.00v20.20" class="stroke"/>
<path class="fill"
	d="M263.60 146.00l64.90 0.00v-3.20l-64.90 -0.00"/>
<use x="267.40" y="125.00" xlink:href="#hd"/>
<path d="M263.90 125.00v20.00" class="stroke"/>
<use x="299.50" y="122.00" xlink:href="#hd"/>
<path d="M296.00 122.00v23.00" class="stroke"/>
<use x="331.60" y="125.00" xlink:href="#hd"/>
<path d="M328.10 125.00v20.00" class="stroke"/>
<use x="367.30" y="128.00" xlink:href="#hd"/>
<path d="M363.80 128.00v21.00" class="stroke"/>
<use x="412.70" y="140.00" xlink:href="#hd"/>
<path d="M416.20 140.00v-21.00" class="stroke"/>
<path class="fill"
	d="M416.20 119.00c0.6 5.6 9.6 9 5.6 18.4
	1.6 -6 -1.3 -11.6 -5.6 -12.8
"/>
<use x="455.50" y="131.00" xlink:href="#hd"/>
<path d="M459.00 131.00v-21.00" class="stroke"/>
<use x="505.90" y="128.00" xlink:href="#hd"/>
<path d="M502.40 128.00v21.00" class="stroke"/>
<path class="fill"
	d="M502.40 149.00c0.6 -5.6 9.6 -9 5.6 -18.4
	1.6 6 -1.3 11.6 -5.6 12.8
"/>
<use x="541.60" y="125.00" xlink:href="#hd"/>
<path d="M538.10 125.00v21.00" class="stroke"/>
<use x="592.00" y="122.00" xlink:href="#hd"/>
<path d="M588.50 122.00v21.00" class="stroke"/>
<path class="fill"
	d="M588.50 143.00c0.6 -5.6 9.6 -9 5.6 -18.4
	1.6 6 -1.3 11.6 -5.6 12.8
"/>
<defs>
<path id="Hd" class="fill" d="m3 -1.6
	c-1 -1.8 -7 1.4 -6 3.2
	1 1.8 7 -1.4 6 -3.2
	m0.5 -0.3
	c2 3.8 -5 7.6 -7 3.8
	-2 -3.8 5 -7.6 7 -3.8"/>
</defs>
<use x="634.80" y="119.00" xlink:href="#Hd"/>
<circle class="fill" cx="643.50" cy="116.00" r="1.2"/>
<path d="M631.30 119.00v21.00" class="stroke"/>
</g>
<g stroke-width="0.70" style="font:italic 14.00px Times">
<path class="stroke" stroke-width="1"
	d="M215.20 213.00v-24.00"/>
<path class="stroke" stroke-width="1"
	d="M398.20 213.00v-24.00"/>
<path class="stroke" stroke-width="1"
	d="M544.90 213.00v-24.00"/>
<path class="stroke" stroke-width="1"
	d="M691.60 213.00v-24.00"/>
<path d="m10.00 213.00
	h681.60
	M10.00 207.00
	h681.60
	M10.00 201.00
	h681.60
	M10.00 195.00
	h681.60
	M10.00 189.00
	h681.60
	" class="stroke"/>
<use x="22.00" y="207.00" xlink:href="#tclef"/>
<use x="37.00" y="189.00" xlink:href="#sh0"/>
<use x="42.50" y="198.00" xlink:href="#sh0"/>
<path class="fill"
	d="M56.70 210.00l53.20 0.00v-3.20l-53.20 -0.00"/>
<use x="60.50" y="189.00" xlink:href="#hd"/>
<path d="M57.00 189.00v20.00" class="stroke"/>
<use x="86.80" y="186.00" xlink:href="#hd"/>
<path d="M83.30 186.00v23.00" class="stroke"/>
<use x="113.00" y="189.00" xlink:href="#hd"/>
<path d="M109.50 189.00v20.00" class="stroke"/>
<path class="fill"
	d="M138.40 213.20l53.20 0.00v-3.20l-53.20 -0.00"/>
<use x="142.20" y="192.00" xlink:href="#hd"/>
<path d="M138.70 192.00v20.20" class="stroke"/>
<use x="168.50" y="189.00" xlink:href="#hd"/>
<path d="M165.00 189.00v23.20" class="stroke"/>
<use x="194.70" y="192.00" xlink:href="#hd"/>
<path d="M191.20 192.00v20.20" class="stroke"/>
<path class="fill"
	d="M225.90 216.00l53.20 0.00v-3.20l-53.20 -0.00"/>
<use x="229.80" y="195.00" xlink:href="#hd"/>
<path d="M226.30 195.00v20.00" class="stroke"/>
<use x="256.00" y="192.00" xlink:href="#hd"/>
<path d="M252.50 192.00v23.00" class="stroke"/>
<use x="282.30" y="195.00" xlink:href="#hd"/>
<path d="M278.80 195.00v20.00" class="stroke"/>
<use x="311.50" y="198.00" xlink:href="#hd"/>
<path d="M308.00 198.00v21.00" class="stroke"/>
<use x="348.60" y="210.00" xlink:href="#hd"/>
<path d="M352.10 210.00v-21.00" class="stroke"/>
<path class="fill"
	d="M352.10 189.00c0.6 5.6 9.6 9 5.6 18.4
	1.6 -6 -1.3 -11.6 -5.6 -12.8
"/>
<use x="377.80" y="189.00" xlink:href="#hd"/>
<path d="M374.30 189.00v21.00" class="stroke"/>
<path class="fill"
	d="M374.30 210.00c0.6 -5.6 9.6 -9 5.6 -18.4
	1.6 6 -1.3 11.6 -5.6 12.8
"/>
<use x="412.80" y="186.00" xlink:href="#hd"/>
<path d="M409.30 186.00v21.00" class="stroke"/>
<use x="454.00" y="192.00" xlink:href="#hd"/>
<path d="M450.50 192.00v21.00" class="stroke"/>
<path class="fill"
	d="M450.50 213.00c0.6 -5.6 9.6 -9 5.6 -18.4
	1.6 6 -1.3 11.6 -5.6 12.8
"/>
<use x="483.20" y="189.00" xlink:href="#hd"/>
<path d="M479.70 189.00v21.00" class="stroke"/>
<use x="524.50" y="186.00" xlink:href="#hd"/>
<path d="M521.00 186.00v21.00" class="stroke"/>
<path class="fill"
	d="M521.00 207.00c0.6 -5.6 9.6 -9 5.6 -18.4
	1.6 6 -1.3 11.6 -5.6 12.8
"/>
<use x="559.50" y="189.00" xlink:href="#hd"/>
<path d="M556.00 189.00v21.00" class="stroke"/>
<use x="600.70" y="192.00" xlink:href="#hd"/>
<path d="M597.20 192.00v21.00" class="stroke"/>
<path class="fill"
	d="M597.20 213.00c0.6 -5.6 9.6 -9 5.6 -18.4
	1.6 6 -1.3 11.6 -5.6 12.8
"/>
<use x="629.90" y="195.00" xlink:href="#hd"/>
<path d="M626.40 195.00v21.00" class="stroke"/>
<use x="671.20" y="198.00" xlink:href="#hd"/>
<path d="M667.70 198.00v21.00" class="stroke"/>
<path class="fill"
	d="M667.70 219.00c0.6 -5.6 9.6 -9 5.6 -18.4
	1.6 6 -1.3 11.6 -5.6 12.8
"/>
</g>
<g stroke-width="0.70" style="font:italic 14.00px Times">
<path class="stroke" stroke-width="1"
	d="M249.60 283.00v-24.00"/>
<path class="stroke" stroke-width="1"
	d="M437.60 283.00v-24.00"/>
<path class="stroke" stroke-width="1"
	d="M616.90 283.00v-24.00"/>
<path class="stroke" stroke-width="1"
	d="M691.60 283.00v-24.00"/>
<path d="m10.00 283.00
	h681.60
	M10.00 277.00
	h681.60
	M10.00 271.00
	h681.60
	M10.00 265.00
	h681.60
	M10.00 259.00
	h681.60
	" class="stroke"/>
<use x="22.00" y="277.00" xlink:href="#tclef"/>
<use x="37.00" y="259.00" xlink:href="#sh0"/>
<use x="42.50" y="268.00" xlink:href="#sh0"/>
<path class="fill"
	d="M56.70 280.00l64.90 0.00v-3.20l-64.90 -0.00"/>
<use x="60.50" y="259.00" xlink:href="#hd"/>
<path d="M57.00 259.00v20.00" class="stroke"/>
<use x="92.60" y="256.00" xlink:href="#hd"/>
<path d="M89.10 256.00v23.00" class="stroke"/>
<use x="124.70" y="259.00" xlink:href="#hd"/>
<path d="M121.20 259.00v20.00" class="stroke"/>
<path class="fill"
	d="M156.50 283.20l64.90 0.00v-3.20l-64.90 -0.00"/>
<use x="160.40" y="262.00" xlink:href="#hd"/>
<path d="M156.90 262.00v20.20" class="stroke"/>
<use x="192.50" y="259.00" xlink:href="#hd"/>
<path d="M189.00 259.00v23.20" class="stroke"/>
<use x="224.60" y="262.00" xlink:href="#hd"/>
<path d="M221.10 262.00v20.20" class="stroke"/>
<path class="fill"
	d="M263.60 286.00l64.90 0.00v-3.20l-64.90 -0.00"/>
<use x="267.40" y="265.00" xlink:href="#hd"/>
<path d="M263.90 265.00v20.00" class="stroke"/>
<use x="299.50" y="262.00" xlink:href="#hd"/>
<path d="M296.00 262.00v23.00" class="stroke"/>
<use x="331.60" y="265.00" xlink:href="#hd"/>
<path d="M328.10 265.00v20.00" class="stroke"/>
<use x="367.30" y="268.00" xlink:href="#hd"/>
<path d="M363.80 268.00v21.00" class="stroke"/>
<use x="412.70" y="280.00" xlink:href="#hd"/>
<path d="M416.20 280.00v-21.00" class="stroke"/>
<path class="fill"
	d="M416.20 259.00c0.6 5.6 9.6 9 5.6 18.4
	1.6 -6 -1.3 -11.6 -5.6 -12.8
"/>
<use x="455.50" y="271.00" xlink:href="#hd"/>
<path d="M459.00 271.00v-21.00" class="stroke"/>
<use x="505.90" y="268.00" xlink:href="#hd"/>
<path d="M502.40 268.00v21.00" class="stroke"/>
<path class="fill"
	d="M502.40 289.00c0.6 -5.6 9.6 -9 5.6 -18.4
	1.6 6 -1.3 11.6 -5.6 12.8
"/>
<use x="541.60" y="265.00" xlink:href="#hd"/>
<path d="M538.10 265.00v21.00" class="stroke"/>
<use x="592.00" y="262.00" xlink:href="#hd"/>
<path d="M588.50 262.00v21.00" class="stroke"/>
<path class="fill"
	d="M588.50 283.00c0.6 -5.6 9.6 -9 5.6 -18.4
	1.6 6 -1.3 11.6 -5.6 12.8
"/>
<use x="634.80" y="271.00" xlink:href="#Hd"/>
<circle class="fill" cx="643.50" cy="268.00" r="1.2"/>
<path d="M631.30 271.00v21.00" class="stroke"/>
</g>
<g stroke-width="0.70" style="font:italic 14.00px Times">
<defs>
<g id="rdots" class="fill">
	<circle cx="0" cy="-9" r="1.2"/>
	<circle cx="0" cy="-15" r="1.2"/>
</g>
</defs>
<use x="67.00" y="353.00" xlink:href="#rdots"/>
<path class="stroke" stroke-width="1"
	d="M63.00 353.00v-24.00"/>
<path class="stroke" stroke-width="3"
	d="M58.50 353.00v-24.00"/>
<path class="stroke" stroke-width="1"
	d="M229.30 353.00v-24.00"/>
<path class="stroke" stroke-width="1"
	d="M377.70 353.00v-24.00"/>
<path class="stroke" stroke-width="1"
	d="M539.00 353.00v-24.00"/>
<path class="stroke" stroke-width="1"
	d="M691.60 353.00v-24.00"/>
<path d="m10.00 353.00
	h681.60
	M10.00 347.00
	h681.60
	M10.00 341.00
	h681.60
	M10.00 335.00
	h681.60
	M10.00 329.00
	h681.60
	" class="stroke"/>
<use x="22.00" y="347.00" xlink:href="#tclef"/>
<use x="37.00" y="329.00" xlink:href="#sh0"/>
<use x="42.50" y="338.00" xlink:href="#sh0"/>
<path class="fill"
	d="M79.30 359.20l55.30 0.00v-3.20l-55.30 -0.00"/>
<use x="83.20" y="338.00" xlink:href="#hd"/>
<path d="M79.70 338.00v20.20" class="stroke"/>
<use x="110.50" y="335.00" xlink:href="#hd"/>
<path d="M107.00 335.00v23.20" class="stroke"/>
<use x="137.80" y="338.00" xlink:href="#hd"/>
<path d="M134.30 338.00v20.20" class="stroke"/>
<use x="165.20" y="350.00" xlink:href="#hd"/>
<path d="M168.70 350.00v-21.00" class="stroke"/>
<use x="208.10" y="338.00" xlink:href="#hd"/>
<path d="M204.60 338.00v21.00" class="stroke"/>
<path class="fill"
	d="M204.60 359.00c0.6 -5.6 9.6 -9 5.6 -18.4
	1.6 6 -1.3 11.6 -5.6 12.8
"/>
<use x="244.50" y="335.00" xlink:href="#hd"/>
<path d="M241.00 335.00v21.00" class="stroke"/>
<use x="287.40" y="338.00" xlink:href="#hd"/>
<path d="M283.90 338.00v21.00" class="stroke"/>
<path class="fill"
	d="M283.90 359.00c0.6 -5.6 9.6 -9 5.6 -18.4
	1.6 6 -1.3 11.6 -5.6 12.8
"/>
<use x="317.80" y="341.00" xlink:href="#hd"/>
<path d="M314.30 341.00v21.00" class="stroke"/>
<use x="356.40" y="344.00" xlink:href="#hd"/>
<path d="M359.90 344.00v-21.00" class="stroke"/>
<path class="fill"
	d="M359.90 323.00c0.6 5.6 9.6 9 5.6 18.4
	1.6 -6 -1.3 -11.6 -5.6 -12.8
"/>
<path class="fill"
	d="M389.00 361.00l55.30 0.00v-3.20l-55.30 -0.00"/>
<use x="392.80" y="341.00" xlink:href="#hd"/>
<path d="M389.30 341.00v19.00" class="stroke"/>
<use x="420.20" y="338.00" xlink:href="#hd"/>
<path d="M416.70 338.00v22.00" class="stroke"/>
<use x="447.50" y="341.00" xlink:href="#hd"/>
<path d="M444.00 341.00v19.00" class="stroke"/>
<use x="474.80" y="350.00" xlink:href="#hd"/>
<path d="M478.30 350.00v-21.00" class="stroke"/>
<use x="517.70" y="341.00" xlink:href="#hd"/>
<path d="M521.20 341.00v-21.00" class="stroke"/>
<path class="fill"
	d="M521.20 320.00c0.6 5.6 9.6 9 5.6 18.4
	1.6 -6 -1.3 -11.6 -5.6 -12.8
"/>
<use x="554.20" y="338.00" xlink:href="#hd"/>
<path d="M550.70 338.00v21.00" class="stroke"/>
<use x="597.10" y="341.00" xlink:href="#hd"/>
<path d="M593.60 341.00v21.00" class="stroke"/>
<path class="fill"
	d="M593.60 362.00c0.6 -5.6 9.6 -9 5.6 -18.4
	1.6 6 -1.3 11.6 -5.6 12.8
"/>
<use x="627.40" y="335.00" xlink:href="#hd"/>
<path d="M623.90 335.00v21.00" class="stroke"/>
<use x="670.30" y="338.00" xlink:href="#hd"/>
<path d="M666.80 338.00v21.00" class="stroke"/>
<path class="fill"
	d="M666.80 359.00c0.6 -5.6 9.6 -9 5.6 -18.4
	1.6 6 -1.3 11.6 -5.6 12.8
"/>
</g>
<g stroke-width="0.70" style="font:italic 14.00px Times">
<path class="stroke" stroke-width="1"
	d="M238.70 423.00v-24.00"/>
<path class="stroke" stroke-width="1"
	d="M419.60 423.00v-24.00"/>
<path class="stroke" stroke-width="1"
	d="M605.70 423.00v-24.00"/>
<path class="stroke" stroke-width="3"
	d="M690.10 423.00v-24.00"/>
<path class="stroke" stroke-width="1"
	d="M685.60 423.00v-24.00"/>
<use x="681.60" y="423.00" xlink:href="#rdots"/>
<path d="m10.00 423.00
	h681.60
	M10.00 417.00
	h681.60
	M10.00 411.00
	h681.60
	M10.00 405.00
	h681.60
	M10.00 399.00
	h681.60
	" class="stroke"/>
<use x="22.00" y="417.00" xlink:href="#tclef"/>
<use x="37.00" y="399.00" xlink:href="#sh0"/>
<use x="42.50" y="408.00" xlink:href="#sh0"/>
<path class="fill"
	d="M56.70 429.20l67.30 0.00v-3.20l-67.30 -0.00"/>
<use x="60.50" y="408.00" xlink:href="#hd"/>
<path d="M57.00 408.00v20.20" class="stroke"/>
<use x="93.80" y="405.00" xlink:href="#hd"/>
<path d="M90.30 405.00v23.20" class="stroke"/>
<use x="127.10" y="408.00" xlink:href="#hd"/>
<path d="M123.60 408.00v20.20" class="stroke"/>
<use x="160.50" y="420.00" xlink:href="#hd"/>
<path d="M164.00 420.00v-21.00" class="stroke"/>
<use x="212.80" y="408.00" xlink:href="#hd"/>
<path d="M209.30 408.00v21.00" class="stroke"/>
<path class="fill"
	d="M209.30 429.00c0.6 -5.6 9.6 -9 5.6 -18.4
	1.6 6 -1.3 11.6 -5.6 12.8
"/>
<use x="257.20" y="405.00" xlink:href="#hd"/>
<path d="M253.70 405.00v21.00" class="stroke"/>
<use x="309.50" y="408.00" xlink:href="#hd"/>
<path d="M306.00 408.00v21.00" class="stroke"/>
<path class="fill"
	d="M306.00 429.00c0.6 -5.6 9.6 -9 5.6 -18.4
	1.6 6 -1.3 11.6 -5.6 12.8
"/>
<use x="346.60" y="411.00" xlink:href="#hd"/>
<path d="M343.10 411.00v21.00" class="stroke"/>
<use x="393.70" y="417.00" xlink:href="#hd"/>
<path d="M397.20 417.00v-21.00" class="stroke"/>
<path class="fill"
	d="M397.20 396.00c0.6 5.6 9.6 9 5.6 18.4
	1.6 -6 -1.3 -11.6 -5.6 -12.8
"/>
<use x="438.10" y="411.00" xlink:href="#hd"/>
<path d="M441.60 411.00v-21.00" class="stroke"/>
<use x="490.40" y="408.00" xlink:href="#hd"/>
<path d="M486.90 408.00v21.00" class="stroke"/>
<path class="fill"
	d="M486.90 429.00c0.6 -5.6 9.6 -9 5.6 -18.4
	1.6 6 -1.3 11.6 -5.6 12.8
"/>
<use x="527.40" y="405.00" xlink:href="#hd"/>
<path d="M523.90 405.00v21.00" class="stroke"/>
<use x="579.80" y="408.00" xlink:href="#hd"/>
<path d="M576.30 408.00v21.00" class="stroke"/>
<path class="fill"
	d="M576.30 429.00c0.6 -5.6 9.6 -9 5.6 -18.4
	1.6 6 -1.3 11.6 -5.6 12.8
"/>
<use x="624.20" y="411.00" xlink:href="#Hd"/>
<circle class="fill" cx="632.90" cy="408.00" r="1.2"/>
<path d="M620.70 411.00v21.00" class="stroke"/>
</g>
</svg>
