<?xml version="1.0" standalone="no"?>
<!DOCTYPE svg PUBLIC "-//W3C//DTD SVG 1.1//EN"
	"http://www.w3.org/Graphics/SVG/1.1/DTD/svg11.dtd">
<svg xmlns="http://www.w3.org/2000/svg" version="1.1"
	xmlns:xlink="http://www.w3.org/1999/xlink"
	color="black"
	width="701.60px" height="432.00px">
<style type="text/css">
.fill {fill: currentColor}
.stroke {stroke: currentColor; fill: none}
text{white-space: pre}
</style>
<title>/media/tim/Data1/tims_code/sphinx-tunes/source/_abcfiles/_rats.abc (16) tune 16</title>
<!-- Creator: abcm2ps-8.14.6 -->
<!-- CreationDate: Jul 30, 2023 12:21 -->
<!-- CommandLine: -g /media/tim/Data1/tims_code/sphinx-tunes/source/_abcfiles/_rats.abc -O /media/tim/Data1/tims_code/sphinx-tunes/source/_abcfiles/_rats.svg -->
<g stroke-width="0.70">
<path class="stroke" stroke-width="1"
	d="M234.60 59.00v-24.00"/>
<path class="stroke" stroke-width="1"
	d="M391.80 59.00v-24.00"/>
<path class="stroke" stroke-width="1"
	d="M541.70 59.00v-24.00"/>
<path class="stroke" stroke-width="1"
	d="M691.60 59.00v-24.00"/>
<path d="m10.00 59.00
	h681.60
	M10.00 53.00
	h681.60
	M10.00 47.00
	h681.60
	M10.00 41.00
	h681.60
	M10.00 35.00
	h681.60
	" class="stroke"/>
<defs>
<path id="utclef" class="fill" d="m-50 -90
	c-72 -41 -72 -158 52 -188
	150 -10 220 188 90 256
	-114 52 -275 0 -293 -136
	-15 -181 93 -229 220 -334
	88 -87 79 -133 62 -210
	-51 33 -94 105 -89 186
	17 267 36 374 49 574
	6 96 -19 134 -77 135
	-80 1 -126 -93 -61 -133
	85 -41 133 101 31 105
	23 17 92 37 90 -92
	-10 -223 -39 -342 -50 -617
	0 -90 0 -162 96 -232
	56 72 63 230 22 289
	-74 106 -257 168 -255 316
	9 153 148 185 252 133
	86 -65 29 -192 -80 -176
	-71 12 -105 67 -59 124"/>
<use id="tclef" transform="translate(0,6) scale(0.045)"
	xlink:href="#utclef"/>
</defs>
<use x="22.00" y="53.00" xlink:href="#tclef"/>
<defs>
<path id="usharp" class="fill" d="
	m136 -702
	v890
	h32
	v-890
	m128 840
	h32
	v-888
	h-32
	m-232 286
	v116
	l338 -96
	v-116
	m-338 442
	v116
	l338 -98
	v-114"/>
<use id="sh0" transform="translate(-4,5) scale(0.018)"
	xlink:href="#usharp"/>
</defs>
<use x="37.00" y="35.00" xlink:href="#sh0"/>
<use x="42.50" y="44.00" xlink:href="#sh0"/>
<g style="font:bold 16px serif"
	transform="translate(58.50,58.50) scale(1.2,1)">
	<text text-anchor="middle">4</text>
	<text y="-12" text-anchor="middle">4</text>
</g>
<path class="fill"
	d="M72.70 56.00l54.40 0.00v-3.20l-54.40 -0.00"/>
<defs>
<ellipse id="hd" rx="4.1" ry="2.9"
	transform="rotate(-20)" class="fill"/>
</defs>
<use x="76.50" y="35.00" xlink:href="#hd"/>
<path d="M73.00 35.00v20.00" class="stroke"/>
<use x="103.30" y="32.00" xlink:href="#hd"/>
<path d="M99.80 32.00v23.00" class="stroke"/>
<use x="130.20" y="35.00" xlink:href="#hd"/>
<path d="M126.70 35.00v20.00" class="stroke"/>
<path class="fill"
	d="M156.20 59.20l54.40 0.00v-3.20l-54.40 -0.00"/>
<use x="160.00" y="38.00" xlink:href="#hd"/>
<path d="M156.50 38.00v20.20" class="stroke"/>
<use x="186.80" y="35.00" xlink:href="#hd"/>
<path d="M183.30 35.00v23.20" class="stroke"/>
<use x="213.70" y="38.00" xlink:href="#hd"/>
<path d="M210.20 38.00v20.20" class="stroke"/>
<path class="fill"
	d="M245.60 62.00l54.40 0.00v-3.20l-54.40 -0.00"/>
<use x="249.50" y="41.00" xlink:href="#hd"/>
<path d="M246.00 41.00v20.00" class="stroke"/>
<use x="276.30" y="38.00" xlink:href="#hd"/>
<path d="M272.80 38.00v23.00" class="stroke"/>
<use x="303.10" y="41.00" xlink:href="#hd"/>
<path d="M299.60 41.00v20.00" class="stroke"/>
<use x="333.00" y="44.00" xlink:href="#hd"/>
<path d="M329.50 44.00v21.00" class="stroke"/>
<use x="370.90" y="56.00" xlink:href="#hd"/>
<path d="M374.40 56.00v-21.00" class="stroke"/>
<path class="fill"
	d="M374.40 35.00c0.6 5.6 9.6 9 5.6 18.4
	1.6 -6 -1.3 -11.6 -5.6 -12.8
"/>
<use x="406.70" y="47.00" xlink:href="#hd"/>
<path d="M410.20 47.00v-21.00" class="stroke"/>
<use x="448.80" y="44.00" xlink:href="#hd"/>
<path d="M445.30 44.00v21.00" class="stroke"/>
<path class="fill"
	d="M445.30 65.00c0.6 -5.6 9.6 -9 5.6 -18.4
	1.6 6 -1.3 11.6 -5.6 12.8
"/>
<use x="478.70" y="41.00" xlink:href="#hd"/>
<path d="M475.20 41.00v21.00" class="stroke"/>
<use x="520.80" y="38.00" xlink:href="#hd"/>
<path d="M517.30 38.00v21.00" class="stroke"/>
<path class="fill"
	d="M517.30 59.00c0.6 -5.6 9.6 -9 5.6 -18.4
	1.6 6 -1.3 11.6 -5.6 12.8
"/>
<use x="556.60" y="35.00" xlink:href="#hd"/>
<path d="M553.10 35.00v21.00" class="stroke"/>
<use x="598.80" y="38.00" xlink:href="#hd"/>
<path d="M595.30 38.00v21.00" class="stroke"/>
<path class="fill"
	d="M595.30 59.00c0.6 -5.6 9.6 -9 5.6 -18.4
	1.6 6 -1.3 11.6 -5.6 12.8
"/>
<use x="628.60" y="41.00" xlink:href="#hd"/>
<path d="M625.10 41.00v21.00" class="stroke"/>
<use x="670.70" y="44.00" xlink:href="#hd"/>
<path d="M667.20 44.00v21.00" class="stroke"/>
<path class="fill"
	d="M667.20 65.00c0.6 -5.6 9.6 -9 5.6 -18.4
	1.6 6 -1.3 11.6 -5.6 12.8
"/>
</g>
<g stroke-width="0.70">
<path class="stroke" stroke-width="1"
	d="M249.60 129.00v-24.00"/>
<path class="stroke" stroke-width="1"
	d="M437.60 129.00v-24.00"/>
<path class="stroke" stroke-width="1"
	d="M616.90 129.00v-24.00"/>
<path class="stroke" stroke-width="1"
	d="M691.60 129.00v-24.00"/>
<path d="m10.00 129.00
	h681.60
	M10.00 123.00
	h681.60
	M10.00 117.00
	h681.60
	M10.00 111.00
	h681.60
	M10.00 105.00
	h681.60
	" class="stroke"/>
<use x="22.00" y="123.00" xlink:href="#tclef"/>
<use x="37.00" y="105.00" xlink:href="#sh0"/>
<use x="42.50" y="114.00" xlink:href="#sh0"/>
<path class="fill"
	d="M56.70 126.00l64.90 0.00v-3.20l-64.90 -0.00"/>
<use x="60.50" y="105.00" xlink:href="#hd"/>
<path d="M57.00 105.00v20.00" class="stroke"/>
<use x="92.60" y="102.00" xlink:href="#hd"/>
<path d="M89.10 102.00v23.00" class="stroke"/>
<use x="124.70" y="105.00" xlink:href="#hd"/>
<path d="M121.20 105.00v20.00" class="stroke"/>
<path class="fill"
	d="M156.50 129.20l64.90 0.00v-3.20l-64.90 -0.00"/>
<use x="160.40" y="108.00" xlink:href="#hd"/>
<path d="M156.90 108.00v20.20" class="stroke"/>
<use x="192.50" y="105.00" xlink:href="#hd"/>
<path d="M189.00 105.00v23.20" class="stroke"/>
<use x="224.60" y="108.00" xlink:href="#hd"/>
<path d="M221.10 108.00v20.20" class="stroke"/>
<path class="fill"
	d="M263.60 132.00l64.90 0.00v-3.20l-64.90 -0.00"/>
<use x="267.40" y="111.00" xlink:href="#hd"/>
<path d="M263.90 111.00v20.00" class="stroke"/>
<use x="299.50" y="108.00" xlink:href="#hd"/>
<path d="M296.00 108.00v23.00" class="stroke"/>
<use x="331.60" y="111.00" xlink:href="#hd"/>
<path d="M328.10 111.00v20.00" class="stroke"/>
<use x="367.30" y="114.00" xlink:href="#hd"/>
<path d="M363.80 114.00v21.00" class="stroke"/>
<use x="412.70" y="126.00" xlink:href="#hd"/>
<path d="M416.20 126.00v-21.00" class="stroke"/>
<path class="fill"
	d="M416.20 105.00c0.6 5.6 9.6 9 5.6 18.4
	1.6 -6 -1.3 -11.6 -5.6 -12.8
"/>
<use x="455.50" y="117.00" xlink:href="#hd"/>
<path d="M459.00 117.00v-21.00" class="stroke"/>
<use x="505.90" y="114.00" xlink:href="#hd"/>
<path d="M502.40 114.00v21.00" class="stroke"/>
<path class="fill"
	d="M502.40 135.00c0.6 -5.6 9.6 -9 5.6 -18.4
	1.6 6 -1.3 11.6 -5.6 12.8
"/>
<use x="541.60" y="111.00" xlink:href="#hd"/>
<path d="M538.10 111.00v21.00" class="stroke"/>
<use x="592.00" y="108.00" xlink:href="#hd"/>
<path d="M588.50 108.00v21.00" class="stroke"/>
<path class="fill"
	d="M588.50 129.00c0.6 -5.6 9.6 -9 5.6 -18.4
	1.6 6 -1.3 11.6 -5.6 12.8
"/>
<defs>
<path id="Hd" class="fill" d="m3 -1.6
	c-1 -1.8 -7 1.4 -6 3.2
	1 1.8 7 -1.4 6 -3.2
	m0.5 -0.3
	c2 3.8 -5 7.6 -7 3.8
	-2 -3.8 5 -7.6 7 -3.8"/>
</defs>
<use x="634.80" y="105.00" xlink:href="#Hd"/>
<circle class="fill" cx="643.50" cy="102.00" r="1.2"/>
<path d="M631.30 105.00v21.00" class="stroke"/>
</g>
<g stroke-width="0.70">
<path class="stroke" stroke-width="1"
	d="M221.60 199.00v-24.00"/>
<path class="stroke" stroke-width="1"
	d="M386.10 199.00v-24.00"/>
<path class="stroke" stroke-width="1"
	d="M538.80 199.00v-24.00"/>
<path class="stroke" stroke-width="1"
	d="M691.60 199.00v-24.00"/>
<path d="m10.00 199.00
	h681.60
	M10.00 193.00
	h681.60
	M10.00 187.00
	h681.60
	M10.00 181.00
	h681.60
	M10.00 175.00
	h681.60
	" class="stroke"/>
<use x="22.00" y="193.00" xlink:href="#tclef"/>
<use x="37.00" y="175.00" xlink:href="#sh0"/>
<use x="42.50" y="184.00" xlink:href="#sh0"/>
<path class="fill"
	d="M56.70 196.00l55.40 0.00v-3.20l-55.40 -0.00"/>
<use x="60.50" y="175.00" xlink:href="#hd"/>
<path d="M57.00 175.00v20.00" class="stroke"/>
<use x="87.90" y="172.00" xlink:href="#hd"/>
<path d="M84.40 172.00v23.00" class="stroke"/>
<use x="115.20" y="175.00" xlink:href="#hd"/>
<path d="M111.70 175.00v20.00" class="stroke"/>
<path class="fill"
	d="M141.80 199.20l55.40 0.00v-3.20l-55.40 -0.00"/>
<use x="145.60" y="178.00" xlink:href="#hd"/>
<path d="M142.10 178.00v20.20" class="stroke"/>
<use x="172.90" y="175.00" xlink:href="#hd"/>
<path d="M169.40 175.00v23.20" class="stroke"/>
<use x="200.30" y="178.00" xlink:href="#hd"/>
<path d="M196.80 178.00v20.20" class="stroke"/>
<path class="fill"
	d="M232.90 202.00l55.40 0.00v-3.20l-55.40 -0.00"/>
<use x="236.80" y="181.00" xlink:href="#hd"/>
<path d="M233.30 181.00v20.00" class="stroke"/>
<use x="264.10" y="178.00" xlink:href="#hd"/>
<path d="M260.60 178.00v23.00" class="stroke"/>
<use x="291.50" y="181.00" xlink:href="#hd"/>
<path d="M288.00 181.00v20.00" class="stroke"/>
<use x="321.80" y="184.00" xlink:href="#hd"/>
<path d="M318.30 184.00v21.00" class="stroke"/>
<use x="364.80" y="175.00" xlink:href="#hd"/>
<path d="M361.30 175.00v21.00" class="stroke"/>
<path class="fill"
	d="M361.30 196.00c0.6 -5.6 9.6 -9 5.6 -18.4
	1.6 6 -1.3 11.6 -5.6 12.8
"/>
<use x="401.30" y="172.00" xlink:href="#hd"/>
<path d="M397.80 172.00v21.00" class="stroke"/>
<use x="444.20" y="178.00" xlink:href="#hd"/>
<path d="M440.70 178.00v21.00" class="stroke"/>
<path class="fill"
	d="M440.70 199.00c0.6 -5.6 9.6 -9 5.6 -18.4
	1.6 6 -1.3 11.6 -5.6 12.8
"/>
<use x="474.60" y="175.00" xlink:href="#hd"/>
<path d="M471.10 175.00v21.00" class="stroke"/>
<use x="517.60" y="172.00" xlink:href="#hd"/>
<path d="M514.10 172.00v21.00" class="stroke"/>
<path class="fill"
	d="M514.10 193.00c0.6 -5.6 9.6 -9 5.6 -18.4
	1.6 6 -1.3 11.6 -5.6 12.8
"/>
<use x="554.00" y="175.00" xlink:href="#hd"/>
<path d="M550.50 175.00v21.00" class="stroke"/>
<use x="597.00" y="178.00" xlink:href="#hd"/>
<path d="M593.50 178.00v21.00" class="stroke"/>
<path class="fill"
	d="M593.50 199.00c0.6 -5.6 9.6 -9 5.6 -18.4
	1.6 6 -1.3 11.6 -5.6 12.8
"/>
<use x="627.40" y="181.00" xlink:href="#hd"/>
<path d="M623.90 181.00v21.00" class="stroke"/>
<use x="670.30" y="184.00" xlink:href="#hd"/>
<path d="M666.80 184.00v21.00" class="stroke"/>
<path class="fill"
	d="M666.80 205.00c0.6 -5.6 9.6 -9 5.6 -18.4
	1.6 6 -1.3 11.6 -5.6 12.8
"/>
</g>
<g stroke-width="0.70">
<path class="stroke" stroke-width="1"
	d="M247.20 269.00v-24.00"/>
<path class="stroke" stroke-width="1"
	d="M432.80 269.00v-24.00"/>
<path class="stroke" stroke-width="1"
	d="M609.90 269.00v-24.00"/>
<path class="stroke" stroke-width="1"
	d="M691.60 269.00v-24.00"/>
<path class="stroke" stroke-width="1"
	d="M688.60 269.00v-24.00"/>
<path d="m10.00 269.00
	h681.60
	M10.00 263.00
	h681.60
	M10.00 257.00
	h681.60
	M10.00 251.00
	h681.60
	M10.00 245.00
	h681.60
	" class="stroke"/>
<use x="22.00" y="263.00" xlink:href="#tclef"/>
<use x="37.00" y="245.00" xlink:href="#sh0"/>
<use x="42.50" y="254.00" xlink:href="#sh0"/>
<path class="fill"
	d="M56.70 266.00l64.10 0.00v-3.20l-64.10 -0.00"/>
<use x="60.50" y="245.00" xlink:href="#hd"/>
<path d="M57.00 245.00v20.00" class="stroke"/>
<use x="92.20" y="242.00" xlink:href="#hd"/>
<path d="M88.70 242.00v23.00" class="stroke"/>
<use x="123.90" y="245.00" xlink:href="#hd"/>
<path d="M120.40 245.00v20.00" class="stroke"/>
<path class="fill"
	d="M155.30 269.20l64.10 0.00v-3.20l-64.10 -0.00"/>
<use x="159.10" y="248.00" xlink:href="#hd"/>
<path d="M155.60 248.00v20.20" class="stroke"/>
<use x="190.80" y="245.00" xlink:href="#hd"/>
<path d="M187.30 245.00v23.20" class="stroke"/>
<use x="222.50" y="248.00" xlink:href="#hd"/>
<path d="M219.00 248.00v20.20" class="stroke"/>
<path class="fill"
	d="M260.90 272.00l64.10 0.00v-3.20l-64.10 -0.00"/>
<use x="264.80" y="251.00" xlink:href="#hd"/>
<path d="M261.30 251.00v20.00" class="stroke"/>
<use x="296.50" y="248.00" xlink:href="#hd"/>
<path d="M293.00 248.00v23.00" class="stroke"/>
<use x="328.20" y="251.00" xlink:href="#hd"/>
<path d="M324.70 251.00v20.00" class="stroke"/>
<use x="363.40" y="254.00" xlink:href="#hd"/>
<path d="M359.90 254.00v21.00" class="stroke"/>
<use x="408.20" y="266.00" xlink:href="#hd"/>
<path d="M411.70 266.00v-21.00" class="stroke"/>
<path class="fill"
	d="M411.70 245.00c0.6 5.6 9.6 9 5.6 18.4
	1.6 -6 -1.3 -11.6 -5.6 -12.8
"/>
<use x="450.40" y="257.00" xlink:href="#hd"/>
<path d="M453.90 257.00v-21.00" class="stroke"/>
<use x="500.20" y="254.00" xlink:href="#hd"/>
<path d="M496.70 254.00v21.00" class="stroke"/>
<path class="fill"
	d="M496.70 275.00c0.6 -5.6 9.6 -9 5.6 -18.4
	1.6 6 -1.3 11.6 -5.6 12.8
"/>
<use x="535.40" y="251.00" xlink:href="#hd"/>
<path d="M531.90 251.00v21.00" class="stroke"/>
<use x="585.20" y="254.00" xlink:href="#hd"/>
<path d="M581.70 254.00v21.00" class="stroke"/>
<path class="fill"
	d="M581.70 275.00c0.6 -5.6 9.6 -9 5.6 -18.4
	1.6 6 -1.3 11.6 -5.6 12.8
"/>
<use x="627.50" y="257.00" xlink:href="#Hd"/>
<circle class="fill" cx="636.20" cy="254.00" r="1.2"/>
<path d="M624.00 257.00v21.00" class="stroke"/>
</g>
<g stroke-width="0.70">
<path class="stroke" stroke-width="1"
	d="M212.10 339.00v-24.00"/>
<path class="stroke" stroke-width="1"
	d="M366.00 339.00v-24.00"/>
<path class="stroke" stroke-width="1"
	d="M533.30 339.00v-24.00"/>
<path class="stroke" stroke-width="1"
	d="M691.60 339.00v-24.00"/>
<path d="m10.00 339.00
	h681.60
	M10.00 333.00
	h681.60
	M10.00 327.00
	h681.60
	M10.00 321.00
	h681.60
	M10.00 315.00
	h681.60
	" class="stroke"/>
<use x="22.00" y="333.00" xlink:href="#tclef"/>
<use x="37.00" y="315.00" xlink:href="#sh0"/>
<use x="42.50" y="324.00" xlink:href="#sh0"/>
<path class="fill"
	d="M56.70 345.20l57.40 0.00v-3.20l-57.40 -0.00"/>
<use x="60.50" y="324.00" xlink:href="#hd"/>
<path d="M57.00 324.00v20.20" class="stroke"/>
<use x="88.80" y="321.00" xlink:href="#hd"/>
<path d="M85.30 321.00v23.20" class="stroke"/>
<use x="117.20" y="324.00" xlink:href="#hd"/>
<path d="M113.70 324.00v20.20" class="stroke"/>
<use x="145.50" y="336.00" xlink:href="#hd"/>
<path d="M149.00 336.00v-21.00" class="stroke"/>
<use x="190.00" y="324.00" xlink:href="#hd"/>
<path d="M186.50 324.00v21.00" class="stroke"/>
<path class="fill"
	d="M186.50 345.00c0.6 -5.6 9.6 -9 5.6 -18.4
	1.6 6 -1.3 11.6 -5.6 12.8
"/>
<use x="227.80" y="321.00" xlink:href="#hd"/>
<path d="M224.30 321.00v21.00" class="stroke"/>
<use x="272.40" y="324.00" xlink:href="#hd"/>
<path d="M268.90 324.00v21.00" class="stroke"/>
<path class="fill"
	d="M268.90 345.00c0.6 -5.6 9.6 -9 5.6 -18.4
	1.6 6 -1.3 11.6 -5.6 12.8
"/>
<use x="303.80" y="327.00" xlink:href="#hd"/>
<path d="M300.30 327.00v21.00" class="stroke"/>
<use x="343.90" y="330.00" xlink:href="#hd"/>
<path d="M347.40 330.00v-21.00" class="stroke"/>
<path class="fill"
	d="M347.40 309.00c0.6 5.6 9.6 9 5.6 18.4
	1.6 -6 -1.3 -11.6 -5.6 -12.8
"/>
<path class="fill"
	d="M377.90 347.00l57.40 0.00v-3.20l-57.40 -0.00"/>
<use x="381.70" y="327.00" xlink:href="#hd"/>
<path d="M378.20 327.00v19.00" class="stroke"/>
<use x="410.00" y="324.00" xlink:href="#hd"/>
<path d="M406.50 324.00v22.00" class="stroke"/>
<use x="438.40" y="327.00" xlink:href="#hd"/>
<path d="M434.90 327.00v19.00" class="stroke"/>
<use x="466.70" y="336.00" xlink:href="#hd"/>
<path d="M470.20 336.00v-21.00" class="stroke"/>
<use x="511.20" y="327.00" xlink:href="#hd"/>
<path d="M514.70 327.00v-21.00" class="stroke"/>
<path class="fill"
	d="M514.70 306.00c0.6 5.6 9.6 9 5.6 18.4
	1.6 -6 -1.3 -11.6 -5.6 -12.8
"/>
<use x="549.00" y="324.00" xlink:href="#hd"/>
<path d="M545.50 324.00v21.00" class="stroke"/>
<use x="593.50" y="327.00" xlink:href="#hd"/>
<path d="M590.00 327.00v21.00" class="stroke"/>
<path class="fill"
	d="M590.00 348.00c0.6 -5.6 9.6 -9 5.6 -18.4
	1.6 6 -1.3 11.6 -5.6 12.8
"/>
<use x="625.00" y="321.00" xlink:href="#hd"/>
<path d="M621.50 321.00v21.00" class="stroke"/>
<use x="669.60" y="327.00" xlink:href="#hd"/>
<path d="M666.10 327.00v21.00" class="stroke"/>
<path class="fill"
	d="M666.10 348.00c0.6 -5.6 9.6 -9 5.6 -18.4
	1.6 6 -1.3 11.6 -5.6 12.8
"/>
</g>
<g stroke-width="0.70">
<path class="stroke" stroke-width="1"
	d="M238.70 409.00v-24.00"/>
<path class="stroke" stroke-width="1"
	d="M419.60 409.00v-24.00"/>
<path class="stroke" stroke-width="1"
	d="M605.70 409.00v-24.00"/>
<path class="stroke" stroke-width="3"
	d="M690.10 409.00v-24.00"/>
<path class="stroke" stroke-width="1"
	d="M685.60 409.00v-24.00"/>
<defs>
<g id="rdots" class="fill">
	<circle cx="0" cy="-9" r="1.2"/>
	<circle cx="0" cy="-15" r="1.2"/>
</g>
</defs>
<use x="681.60" y="409.00" xlink:href="#rdots"/>
<path d="m10.00 409.00
	h681.60
	M10.00 403.00
	h681.60
	M10.00 397.00
	h681.60
	M10.00 391.00
	h681.60
	M10.00 385.00
	h681.60
	" class="stroke"/>
<use x="22.00" y="403.00" xlink:href="#tclef"/>
<use x="37.00" y="385.00" xlink:href="#sh0"/>
<use x="42.50" y="394.00" xlink:href="#sh0"/>
<path class="fill"
	d="M56.70 415.20l67.30 0.00v-3.20l-67.30 -0.00"/>
<use x="60.50" y="394.00" xlink:href="#hd"/>
<path d="M57.00 394.00v20.20" class="stroke"/>
<use x="93.80" y="391.00" xlink:href="#hd"/>
<path d="M90.30 391.00v23.20" class="stroke"/>
<use x="127.10" y="394.00" xlink:href="#hd"/>
<path d="M123.60 394.00v20.20" class="stroke"/>
<use x="160.50" y="406.00" xlink:href="#hd"/>
<path d="M164.00 406.00v-21.00" class="stroke"/>
<use x="212.80" y="394.00" xlink:href="#hd"/>
<path d="M209.30 394.00v21.00" class="stroke"/>
<path class="fill"
	d="M209.30 415.00c0.6 -5.6 9.6 -9 5.6 -18.4
	1.6 6 -1.3 11.6 -5.6 12.8
"/>
<use x="257.20" y="391.00" xlink:href="#hd"/>
<path d="M253.70 391.00v21.00" class="stroke"/>
<use x="309.50" y="394.00" xlink:href="#hd"/>
<path d="M306.00 394.00v21.00" class="stroke"/>
<path class="fill"
	d="M306.00 415.00c0.6 -5.6 9.6 -9 5.6 -18.4
	1.6 6 -1.3 11.6 -5.6 12.8
"/>
<use x="346.60" y="397.00" xlink:href="#hd"/>
<path d="M343.10 397.00v21.00" class="stroke"/>
<use x="393.70" y="400.00" xlink:href="#hd"/>
<path d="M397.20 400.00v-21.00" class="stroke"/>
<path class="fill"
	d="M397.20 379.00c0.6 5.6 9.6 9 5.6 18.4
	1.6 -6 -1.3 -11.6 -5.6 -12.8
"/>
<use x="438.10" y="397.00" xlink:href="#hd"/>
<path d="M441.60 397.00v-21.00" class="stroke"/>
<use x="490.40" y="394.00" xlink:href="#hd"/>
<path d="M486.90 394.00v21.00" class="stroke"/>
<path class="fill"
	d="M486.90 415.00c0.6 -5.6 9.6 -9 5.6 -18.4
	1.6 6 -1.3 11.6 -5.6 12.8
"/>
<use x="527.40" y="391.00" xlink:href="#hd"/>
<path d="M523.90 391.00v21.00" class="stroke"/>
<use x="579.80" y="394.00" xlink:href="#hd"/>
<path d="M576.30 394.00v21.00" class="stroke"/>
<path class="fill"
	d="M576.30 415.00c0.6 -5.6 9.6 -9 5.6 -18.4
	1.6 6 -1.3 11.6 -5.6 12.8
"/>
<use x="624.20" y="397.00" xlink:href="#Hd"/>
<circle class="fill" cx="632.90" cy="394.00" r="1.2"/>
<path d="M620.70 397.00v21.00" class="stroke"/>
</g>
</svg>
