<?xml version="1.0" standalone="no"?>
<!DOCTYPE svg PUBLIC "-//W3C//DTD SVG 1.1//EN"
	"http://www.w3.org/Graphics/SVG/1.1/DTD/svg11.dtd">
<svg xmlns="http://www.w3.org/2000/svg" version="1.1"
	xmlns:xlink="http://www.w3.org/1999/xlink"
	color="black"
	width="701.60px" height="292.00px">
<style type="text/css">
.fill {fill: currentColor}
.stroke {stroke: currentColor; fill: none}
text{white-space: pre}
</style>
<title>/media/tim/Data1/tims_code/sphinx-tunes/source/_abcfiles/_rats.abc (13) tune 13</title>
<!-- Creator: abcm2ps-8.14.6 -->
<!-- CreationDate: Jul 30, 2023 12:21 -->
<!-- CommandLine: -g /media/tim/Data1/tims_code/sphinx-tunes/source/_abcfiles/_rats.abc -O /media/tim/Data1/tims_code/sphinx-tunes/source/_abcfiles/_rats.svg -->
<g stroke-width="0.70">
<path class="stroke" stroke-width="1"
	d="M244.70 59.00v-24.00"/>
<path class="stroke" stroke-width="1"
	d="M377.80 59.00v-24.00"/>
<path class="stroke" stroke-width="1"
	d="M558.50 59.00v-24.00"/>
<path class="stroke" stroke-width="1"
	d="M691.60 59.00v-24.00"/>
<path d="m10.00 59.00
	h681.60
	M10.00 53.00
	h681.60
	M10.00 47.00
	h681.60
	M10.00 41.00
	h681.60
	M10.00 35.00
	h681.60
	" class="stroke"/>
<defs>
<path id="utclef" class="fill" d="m-50 -90
	c-72 -41 -72 -158 52 -188
	150 -10 220 188 90 256
	-114 52 -275 0 -293 -136
	-15 -181 93 -229 220 -334
	88 -87 79 -133 62 -210
	-51 33 -94 105 -89 186
	17 267 36 374 49 574
	6 96 -19 134 -77 135
	-80 1 -126 -93 -61 -133
	85 -41 133 101 31 105
	23 17 92 37 90 -92
	-10 -223 -39 -342 -50 -617
	0 -90 0 -162 96 -232
	56 72 63 230 22 289
	-74 106 -257 168 -255 316
	9 153 148 185 252 133
	86 -65 29 -192 -80 -176
	-71 12 -105 67 -59 124"/>
<use id="tclef" transform="translate(0,6) scale(0.045)"
	xlink:href="#utclef"/>
</defs>
<use x="22.00" y="53.00" xlink:href="#tclef"/>
<defs>
<path id="uflat" class="fill" d="
	m100 -746
	h32
	v734
	l-32 4
	m32 -332
	c46 -72 152 -90 208 -20
	100 110 -120 326 -208 348
	m0 -28
	c54 0 200 -206 130 -290
	-50 -60 -130 -4 -130 34"/>
<use id="ft0" transform="translate(-3.5,3.5) scale(0.018)"
	xlink:href="#uflat"/>
</defs>
<use x="37.00" y="47.00" xlink:href="#ft0"/>
<use x="42.50" y="38.00" xlink:href="#ft0"/>
<g style="font:bold 16px serif"
	transform="translate(58.50,58.50) scale(1.2,1)">
	<text text-anchor="middle">4</text>
	<text y="-12" text-anchor="middle">4</text>
</g>
<path class="fill"
	d="M79.70 46.80l64.60 0.00v3.20l-64.60 -0.00"/>
<defs>
<path id="hl" class="stroke" d="m-6 0h12"/>
</defs>
<use x="76.50" y="65.00" xlink:href="#hl"/>
<use x="76.50" y="71.00" xlink:href="#hl"/>
<defs>
<ellipse id="hd" rx="4.1" ry="2.9"
	transform="rotate(-20)" class="fill"/>
</defs>
<use x="76.50" y="74.00" xlink:href="#hd"/>
<path d="M80.00 74.00v-26.20" class="stroke"/>
<use x="97.80" y="65.00" xlink:href="#hl"/>
<use x="97.80" y="71.00" xlink:href="#hl"/>
<use x="97.80" y="71.00" xlink:href="#hd"/>
<path d="M101.30 71.00v-23.20" class="stroke"/>
<use x="119.10" y="65.00" xlink:href="#hl"/>
<use x="119.10" y="68.00" xlink:href="#hd"/>
<path d="M122.60 68.00v-20.20" class="stroke"/>
<use x="140.40" y="65.00" xlink:href="#hl"/>
<use x="140.40" y="71.00" xlink:href="#hl"/>
<use x="140.40" y="71.00" xlink:href="#hd"/>
<path d="M143.90 71.00v-23.20" class="stroke"/>
<path class="fill"
	d="M167.20 46.80l64.60 0.00v3.20l-64.60 -0.00"/>
<use x="164.10" y="65.00" xlink:href="#hl"/>
<use x="164.10" y="71.00" xlink:href="#hl"/>
<use x="164.10" y="74.00" xlink:href="#hd"/>
<path d="M167.60 74.00v-26.20" class="stroke"/>
<use x="185.40" y="65.00" xlink:href="#hl"/>
<use x="185.40" y="71.00" xlink:href="#hl"/>
<use x="185.40" y="71.00" xlink:href="#hd"/>
<path d="M188.90 71.00v-23.20" class="stroke"/>
<use x="206.70" y="65.00" xlink:href="#hl"/>
<use x="206.70" y="68.00" xlink:href="#hd"/>
<path d="M210.20 68.00v-20.20" class="stroke"/>
<use x="228.00" y="65.00" xlink:href="#hl"/>
<use x="228.00" y="71.00" xlink:href="#hl"/>
<use x="228.00" y="71.00" xlink:href="#hd"/>
<path d="M231.50 71.00v-23.20" class="stroke"/>
<path class="fill"
	d="M260.40 46.80l64.60 0.00v3.20l-64.60 -0.00"/>
<use x="257.20" y="65.00" xlink:href="#hl"/>
<use x="257.20" y="71.00" xlink:href="#hl"/>
<use x="257.20" y="74.00" xlink:href="#hd"/>
<path d="M260.70 74.00v-26.20" class="stroke"/>
<use x="278.50" y="65.00" xlink:href="#hl"/>
<use x="278.50" y="71.00" xlink:href="#hl"/>
<use x="278.50" y="71.00" xlink:href="#hd"/>
<path d="M282.00 71.00v-23.20" class="stroke"/>
<use x="299.80" y="65.00" xlink:href="#hl"/>
<use x="299.80" y="68.00" xlink:href="#hd"/>
<path d="M303.30 68.00v-20.20" class="stroke"/>
<use x="321.20" y="65.00" xlink:href="#hl"/>
<use x="321.20" y="71.00" xlink:href="#hl"/>
<use x="321.20" y="71.00" xlink:href="#hd"/>
<path d="M324.70 71.00v-23.20" class="stroke"/>
<defs>
<path id="Hd" class="fill" d="m3 -1.6
	c-1 -1.8 -7 1.4 -6 3.2
	1 1.8 7 -1.4 6 -3.2
	m0.5 -0.3
	c2 3.8 -5 7.6 -7 3.8
	-2 -3.8 5 -7.6 7 -3.8"/>
</defs>
<use x="344.80" y="62.00" xlink:href="#Hd"/>
<path d="M348.30 62.00v-21.00" class="stroke"/>
<path class="fill"
	d="M393.40 46.80l64.60 0.00v3.20l-64.60 -0.00"/>
<use x="390.30" y="65.00" xlink:href="#hl"/>
<use x="390.30" y="71.00" xlink:href="#hl"/>
<use x="390.30" y="71.00" xlink:href="#hd"/>
<path d="M393.80 71.00v-23.20" class="stroke"/>
<use x="411.60" y="65.00" xlink:href="#hl"/>
<use x="411.60" y="68.00" xlink:href="#hd"/>
<path d="M415.10 68.00v-20.20" class="stroke"/>
<use x="432.90" y="65.00" xlink:href="#hl"/>
<use x="432.90" y="65.00" xlink:href="#hd"/>
<path d="M436.40 65.00v-17.20" class="stroke"/>
<use x="454.20" y="65.00" xlink:href="#hl"/>
<use x="454.20" y="68.00" xlink:href="#hd"/>
<path d="M457.70 68.00v-20.20" class="stroke"/>
<path class="fill"
	d="M481.00 46.80l64.60 0.00v3.20l-64.60 -0.00"/>
<use x="477.80" y="65.00" xlink:href="#hl"/>
<use x="477.80" y="71.00" xlink:href="#hl"/>
<use x="477.80" y="71.00" xlink:href="#hd"/>
<path d="M481.30 71.00v-23.20" class="stroke"/>
<use x="499.20" y="65.00" xlink:href="#hl"/>
<use x="499.20" y="68.00" xlink:href="#hd"/>
<path d="M502.70 68.00v-20.20" class="stroke"/>
<use x="520.50" y="65.00" xlink:href="#hl"/>
<use x="520.50" y="65.00" xlink:href="#hd"/>
<path d="M524.00 65.00v-17.20" class="stroke"/>
<use x="541.80" y="65.00" xlink:href="#hl"/>
<use x="541.80" y="68.00" xlink:href="#hd"/>
<path d="M545.30 68.00v-20.20" class="stroke"/>
<path class="fill"
	d="M574.20 46.80l64.60 0.00v3.20l-64.60 -0.00"/>
<use x="571.00" y="65.00" xlink:href="#hl"/>
<use x="571.00" y="71.00" xlink:href="#hl"/>
<use x="571.00" y="71.00" xlink:href="#hd"/>
<path d="M574.50 71.00v-23.20" class="stroke"/>
<use x="592.30" y="65.00" xlink:href="#hl"/>
<use x="592.30" y="68.00" xlink:href="#hd"/>
<path d="M595.80 68.00v-20.20" class="stroke"/>
<use x="613.60" y="65.00" xlink:href="#hl"/>
<use x="613.60" y="65.00" xlink:href="#hd"/>
<path d="M617.10 65.00v-17.20" class="stroke"/>
<use x="634.90" y="65.00" xlink:href="#hl"/>
<use x="634.90" y="68.00" xlink:href="#hd"/>
<path d="M638.40 68.00v-20.20" class="stroke"/>
<use x="658.60" y="65.00" xlink:href="#hl"/>
<use x="658.60" y="71.00" xlink:href="#hl"/>
<use x="658.60" y="71.00" xlink:href="#Hd"/>
<path d="M662.10 71.00v-24.00" class="stroke"/>
</g>
<g stroke-width="0.70">
<path class="stroke" stroke-width="1"
	d="M242.80 129.00v-24.00"/>
<path class="stroke" stroke-width="1"
	d="M375.20 129.00v-24.00"/>
<path class="stroke" stroke-width="1"
	d="M554.70 129.00v-24.00"/>
<path class="stroke" stroke-width="1"
	d="M691.60 129.00v-24.00"/>
<path class="stroke" stroke-width="1"
	d="M688.60 129.00v-24.00"/>
<path d="m10.00 129.00
	h681.60
	M10.00 123.00
	h681.60
	M10.00 117.00
	h681.60
	M10.00 111.00
	h681.60
	M10.00 105.00
	h681.60
	" class="stroke"/>
<use x="22.00" y="123.00" xlink:href="#tclef"/>
<use x="37.00" y="117.00" xlink:href="#ft0"/>
<use x="42.50" y="108.00" xlink:href="#ft0"/>
<defs>
<path id="r8e" class="fill" d="m 0 0
	c-1.5 1.5 -2.4 2 -3.6 2
	2.4 -2.8 -2.8 -4 -2.8 -1.2
	c0 2.7 4.3 2.4 5.9 0.6"/>
<g id="r16">
	<path d="m3.3 -4l-4 15.6" class="stroke"/>
	<use x="3.4" y="-4" xlink:href="#r8e"/>
	<use x="1.9" y="2" xlink:href="#r8e"/>
</g>
</defs>
<use x="60.50" y="117.00" xlink:href="#r16"/>
<path class="fill"
	d="M78.70 116.80l64.30 0.00v3.20l-64.30 -0.00"/>
<use x="75.50" y="135.00" xlink:href="#hl"/>
<use x="75.50" y="141.00" xlink:href="#hl"/>
<use x="75.50" y="144.00" xlink:href="#hd"/>
<path d="M79.00 144.00v-26.20" class="stroke"/>
<use x="96.70" y="135.00" xlink:href="#hl"/>
<use x="96.70" y="141.00" xlink:href="#hl"/>
<use x="96.70" y="141.00" xlink:href="#hd"/>
<path d="M100.20 141.00v-23.20" class="stroke"/>
<use x="117.90" y="135.00" xlink:href="#hl"/>
<use x="117.90" y="138.00" xlink:href="#hd"/>
<path d="M121.40 138.00v-20.20" class="stroke"/>
<use x="139.10" y="135.00" xlink:href="#hl"/>
<use x="139.10" y="141.00" xlink:href="#hl"/>
<use x="139.10" y="141.00" xlink:href="#hd"/>
<path d="M142.60 141.00v-23.20" class="stroke"/>
<path class="fill"
	d="M165.80 116.80l64.30 0.00v3.20l-64.30 -0.00"/>
<use x="162.60" y="135.00" xlink:href="#hl"/>
<use x="162.60" y="141.00" xlink:href="#hl"/>
<use x="162.60" y="144.00" xlink:href="#hd"/>
<path d="M166.10 144.00v-26.20" class="stroke"/>
<use x="183.80" y="135.00" xlink:href="#hl"/>
<use x="183.80" y="141.00" xlink:href="#hl"/>
<use x="183.80" y="141.00" xlink:href="#hd"/>
<path d="M187.30 141.00v-23.20" class="stroke"/>
<use x="205.00" y="135.00" xlink:href="#hl"/>
<use x="205.00" y="138.00" xlink:href="#hd"/>
<path d="M208.50 138.00v-20.20" class="stroke"/>
<use x="226.20" y="135.00" xlink:href="#hl"/>
<use x="226.20" y="141.00" xlink:href="#hl"/>
<use x="226.20" y="141.00" xlink:href="#hd"/>
<path d="M229.70 141.00v-23.20" class="stroke"/>
<path class="fill"
	d="M258.40 116.80l64.30 0.00v3.20l-64.30 -0.00"/>
<use x="255.30" y="135.00" xlink:href="#hl"/>
<use x="255.30" y="141.00" xlink:href="#hl"/>
<use x="255.30" y="144.00" xlink:href="#hd"/>
<path d="M258.80 144.00v-26.20" class="stroke"/>
<use x="276.50" y="135.00" xlink:href="#hl"/>
<use x="276.50" y="141.00" xlink:href="#hl"/>
<use x="276.50" y="141.00" xlink:href="#hd"/>
<path d="M280.00 141.00v-23.20" class="stroke"/>
<use x="297.70" y="135.00" xlink:href="#hl"/>
<use x="297.70" y="138.00" xlink:href="#hd"/>
<path d="M301.20 138.00v-20.20" class="stroke"/>
<use x="318.90" y="135.00" xlink:href="#hl"/>
<use x="318.90" y="141.00" xlink:href="#hl"/>
<use x="318.90" y="141.00" xlink:href="#hd"/>
<path d="M322.40 141.00v-23.20" class="stroke"/>
<use x="342.30" y="132.00" xlink:href="#Hd"/>
<path d="M345.80 132.00v-21.00" class="stroke"/>
<path class="fill"
	d="M390.90 91.80l64.10 0.00v3.20l-64.10 -0.00"/>
<use x="387.70" y="111.00" xlink:href="#hd"/>
<path d="M391.20 111.00v-18.20" class="stroke"/>
<use x="408.90" y="132.00" xlink:href="#hd"/>
<path d="M412.40 132.00v-39.20" class="stroke"/>
<use x="430.00" y="126.00" xlink:href="#hd"/>
<path d="M433.50 126.00v-33.20" class="stroke"/>
<use x="451.10" y="120.00" xlink:href="#hd"/>
<path d="M454.60 120.00v-27.20" class="stroke"/>
<path class="fill"
	d="M477.80 94.80l64.10 5.80v3.20l-64.10 -5.80"/>
<use x="474.60" y="114.00" xlink:href="#hd"/>
<path d="M478.10 114.00v-18.20" class="stroke"/>
<use x="495.80" y="117.00" xlink:href="#hd"/>
<path d="M499.30 117.00v-19.30" class="stroke"/>
<use x="516.90" y="120.00" xlink:href="#hd"/>
<path d="M520.40 120.00v-20.40" class="stroke"/>
<use x="538.10" y="126.00" xlink:href="#hd"/>
<path d="M541.60 126.00v-24.50" class="stroke"/>
<path class="fill"
	d="M570.30 97.40l64.10 -3.80v3.20l-64.10 3.80"/>
<use x="567.20" y="126.00" xlink:href="#hd"/>
<path d="M570.70 126.00v-27.70" class="stroke"/>
<use x="588.30" y="120.00" xlink:href="#hd"/>
<path d="M591.80 120.00v-22.90" class="stroke"/>
<use x="609.50" y="114.00" xlink:href="#hd"/>
<path d="M613.00 114.00v-18.20" class="stroke"/>
<use x="630.60" y="120.00" xlink:href="#hd"/>
<path d="M634.10 120.00v-25.50" class="stroke"/>
<use x="654.10" y="123.00" xlink:href="#Hd"/>
<path d="M657.60 123.00v-21.00" class="stroke"/>
</g>
<g stroke-width="0.70">
<path class="stroke" stroke-width="1"
	d="M203.00 199.00v-24.00"/>
<path class="stroke" stroke-width="1"
	d="M358.10 199.00v-24.00"/>
<path class="stroke" stroke-width="1"
	d="M513.10 199.00v-24.00"/>
<path class="stroke" stroke-width="1"
	d="M691.60 199.00v-24.00"/>
<path d="m10.00 199.00
	h681.60
	M10.00 193.00
	h681.60
	M10.00 187.00
	h681.60
	M10.00 181.00
	h681.60
	M10.00 175.00
	h681.60
	" class="stroke"/>
<use x="22.00" y="193.00" xlink:href="#tclef"/>
<use x="37.00" y="187.00" xlink:href="#ft0"/>
<use x="42.50" y="178.00" xlink:href="#ft0"/>
<path class="fill"
	d="M63.70 171.00l63.80 -7.10v3.20l-63.80 7.10"/>
<use x="60.50" y="193.00" xlink:href="#hd"/>
<path d="M64.00 193.00v-21.00" class="stroke"/>
<use x="81.50" y="190.00" xlink:href="#hd"/>
<path d="M85.00 190.00v-20.30" class="stroke"/>
<use x="102.50" y="187.00" xlink:href="#hd"/>
<path d="M106.00 187.00v-19.70" class="stroke"/>
<use x="123.60" y="184.00" xlink:href="#hd"/>
<path d="M127.10 184.00v-19.00" class="stroke"/>
<use x="147.00" y="181.00" xlink:href="#hd"/>
<path d="M143.50 181.00v21.00" class="stroke"/>
<defs>
<path id="r4" class="fill" d="m-1 -8.5
	l3.6 5.1 -2.1 5.2 2.2 4.3
	c-2.6 -2.3 -5.1 0 -2.4 2.6
	-4.8 -3 -1.5 -6.9 1.4 -4.1
	l-3.1 -4.5 1.9 -5.1 -1.5 -3.5"/>
</defs>
<use x="179.80" y="187.00" xlink:href="#r4"/>
<path class="fill"
	d="M218.70 174.00l63.80 -7.10v3.20l-63.80 7.10"/>
<use x="215.50" y="196.00" xlink:href="#hd"/>
<path d="M219.00 196.00v-21.00" class="stroke"/>
<use x="236.60" y="193.00" xlink:href="#hd"/>
<path d="M240.10 193.00v-20.30" class="stroke"/>
<use x="257.60" y="190.00" xlink:href="#hd"/>
<path d="M261.10 190.00v-19.70" class="stroke"/>
<use x="278.60" y="187.00" xlink:href="#hd"/>
<path d="M282.10 187.00v-19.00" class="stroke"/>
<use x="302.00" y="184.00" xlink:href="#hd"/>
<path d="M298.50 184.00v21.00" class="stroke"/>
<use x="334.90" y="187.00" xlink:href="#r4"/>
<path class="fill"
	d="M373.70 171.00l63.80 -7.10v3.20l-63.80 7.10"/>
<use x="370.60" y="193.00" xlink:href="#hd"/>
<path d="M374.10 193.00v-21.00" class="stroke"/>
<use x="391.60" y="190.00" xlink:href="#hd"/>
<path d="M395.10 190.00v-20.30" class="stroke"/>
<use x="412.60" y="187.00" xlink:href="#hd"/>
<path d="M416.10 187.00v-19.70" class="stroke"/>
<use x="433.60" y="184.00" xlink:href="#hd"/>
<path d="M437.10 184.00v-19.00" class="stroke"/>
<use x="457.10" y="181.00" xlink:href="#hd"/>
<path d="M453.60 181.00v21.00" class="stroke"/>
<use x="489.90" y="187.00" xlink:href="#r4"/>
<path class="fill"
	d="M521.80 202.00l63.80 0.00v-3.20l-63.80 -0.00"/>
<use x="525.60" y="181.00" xlink:href="#hd"/>
<path d="M522.10 181.00v20.00" class="stroke"/>
<use x="546.60" y="178.00" xlink:href="#hd"/>
<path d="M543.10 178.00v23.00" class="stroke"/>
<use x="567.70" y="181.00" xlink:href="#hd"/>
<path d="M564.20 181.00v20.00" class="stroke"/>
<use x="588.70" y="184.00" xlink:href="#hd"/>
<path d="M585.20 184.00v17.00" class="stroke"/>
<path class="fill"
	d="M608.20 203.00l63.80 7.10v-3.20l-63.80 -7.10"/>
<use x="612.00" y="181.00" xlink:href="#hd"/>
<path d="M608.50 181.00v21.00" class="stroke"/>
<use x="633.00" y="184.00" xlink:href="#hd"/>
<path d="M629.50 184.00v20.30" class="stroke"/>
<use x="654.10" y="187.00" xlink:href="#hd"/>
<path d="M650.60 187.00v19.70" class="stroke"/>
<use x="675.10" y="190.00" xlink:href="#hd"/>
<path d="M671.60 190.00v19.00" class="stroke"/>
</g>
<g stroke-width="0.70">
<path class="stroke" stroke-width="1"
	d="M213.80 269.00v-24.00"/>
<path class="stroke" stroke-width="1"
	d="M379.80 269.00v-24.00"/>
<path class="stroke" stroke-width="1"
	d="M545.80 269.00v-24.00"/>
<path class="stroke" stroke-width="3"
	d="M690.10 269.00v-24.00"/>
<path class="stroke" stroke-width="1"
	d="M685.60 269.00v-24.00"/>
<path d="m10.00 269.00
	h681.60
	M10.00 263.00
	h681.60
	M10.00 257.00
	h681.60
	M10.00 251.00
	h681.60
	M10.00 245.00
	h681.60
	" class="stroke"/>
<use x="22.00" y="263.00" xlink:href="#tclef"/>
<use x="37.00" y="257.00" xlink:href="#ft0"/>
<use x="42.50" y="248.00" xlink:href="#ft0"/>
<path class="fill"
	d="M63.70 241.10l68.50 -7.20v3.20l-68.50 7.20"/>
<use x="60.50" y="263.00" xlink:href="#hd"/>
<path d="M64.00 263.00v-20.90" class="stroke"/>
<use x="83.10" y="260.00" xlink:href="#hd"/>
<path d="M86.60 260.00v-20.30" class="stroke"/>
<use x="105.70" y="257.00" xlink:href="#hd"/>
<path d="M109.20 257.00v-19.70" class="stroke"/>
<use x="128.30" y="254.00" xlink:href="#hd"/>
<path d="M131.80 254.00v-19.10" class="stroke"/>
<use x="153.50" y="251.00" xlink:href="#hd"/>
<path d="M150.00 251.00v21.00" class="stroke"/>
<use x="188.90" y="257.00" xlink:href="#r4"/>
<path class="fill"
	d="M229.60 244.10l68.50 -7.20v3.20l-68.50 7.20"/>
<use x="226.50" y="266.00" xlink:href="#hd"/>
<path d="M230.00 266.00v-20.90" class="stroke"/>
<use x="249.10" y="263.00" xlink:href="#hd"/>
<path d="M252.60 263.00v-20.30" class="stroke"/>
<use x="271.70" y="260.00" xlink:href="#hd"/>
<path d="M275.20 260.00v-19.70" class="stroke"/>
<use x="294.30" y="257.00" xlink:href="#hd"/>
<path d="M297.80 257.00v-19.10" class="stroke"/>
<use x="319.50" y="254.00" xlink:href="#hd"/>
<path d="M316.00 254.00v21.00" class="stroke"/>
<use x="354.90" y="257.00" xlink:href="#r4"/>
<path class="fill"
	d="M395.60 241.10l68.50 -7.20v3.20l-68.50 7.20"/>
<use x="392.50" y="263.00" xlink:href="#hd"/>
<path d="M396.00 263.00v-20.90" class="stroke"/>
<use x="415.10" y="260.00" xlink:href="#hd"/>
<path d="M418.60 260.00v-20.30" class="stroke"/>
<use x="437.70" y="257.00" xlink:href="#hd"/>
<path d="M441.20 257.00v-19.70" class="stroke"/>
<use x="460.30" y="254.00" xlink:href="#hd"/>
<path d="M463.80 254.00v-19.10" class="stroke"/>
<use x="485.40" y="251.00" xlink:href="#hd"/>
<path d="M481.90 251.00v21.00" class="stroke"/>
<use x="520.90" y="257.00" xlink:href="#r4"/>
<path class="fill"
	d="M561.60 234.80l68.50 0.00v3.20l-68.50 -0.00"/>
<use x="558.40" y="254.00" xlink:href="#hd"/>
<path d="M561.90 254.00v-18.20" class="stroke"/>
<use x="581.10" y="266.00" xlink:href="#hd"/>
<path d="M584.60 266.00v-30.20" class="stroke"/>
<use x="603.70" y="254.00" xlink:href="#hd"/>
<path d="M607.20 254.00v-18.20" class="stroke"/>
<use x="626.30" y="260.00" xlink:href="#hd"/>
<path d="M629.80 260.00v-24.20" class="stroke"/>
<use x="651.40" y="263.00" xlink:href="#Hd"/>
<path d="M654.90 263.00v-21.00" class="stroke"/>
</g>
</svg>
