<?xml version="1.0" standalone="no"?>
<!DOCTYPE svg PUBLIC "-//W3C//DTD SVG 1.1//EN"
	"http://www.w3.org/Graphics/SVG/1.1/DTD/svg11.dtd">
<svg xmlns="http://www.w3.org/2000/svg" version="1.1"
	xmlns:xlink="http://www.w3.org/1999/xlink"
	color="black"
	width="701.60px" height="292.00px">
<style type="text/css">
.fill {fill: currentColor}
.stroke {stroke: currentColor; fill: none}
text{white-space: pre}
</style>
<title>/media/tim/Data1/tims_code/sphinx-tunes/source/_abcfiles/_rats.abc (19) tune 19</title>
<!-- Creator: abcm2ps-8.14.6 -->
<!-- CreationDate: Jul 30, 2023 12:21 -->
<!-- CommandLine: -g /media/tim/Data1/tims_code/sphinx-tunes/source/_abcfiles/_rats.abc -O /media/tim/Data1/tims_code/sphinx-tunes/source/_abcfiles/_rats.svg -->
<g stroke-width="0.70">
<path class="stroke" stroke-width="1"
	d="M95.50 59.00v-24.00"/>
<path class="stroke" stroke-width="1"
	d="M228.00 59.00v-24.00"/>
<path class="stroke" stroke-width="1"
	d="M392.00 59.00v-24.00"/>
<path class="stroke" stroke-width="1"
	d="M524.50 59.00v-24.00"/>
<path class="stroke" stroke-width="1"
	d="M691.60 59.00v-24.00"/>
<path d="m10.00 59.00
	h681.60
	M10.00 53.00
	h681.60
	M10.00 47.00
	h681.60
	M10.00 41.00
	h681.60
	M10.00 35.00
	h681.60
	" class="stroke"/>
<defs>
<path id="utclef" class="fill" d="m-50 -90
	c-72 -41 -72 -158 52 -188
	150 -10 220 188 90 256
	-114 52 -275 0 -293 -136
	-15 -181 93 -229 220 -334
	88 -87 79 -133 62 -210
	-51 33 -94 105 -89 186
	17 267 36 374 49 574
	6 96 -19 134 -77 135
	-80 1 -126 -93 -61 -133
	85 -41 133 101 31 105
	23 17 92 37 90 -92
	-10 -223 -39 -342 -50 -617
	0 -90 0 -162 96 -232
	56 72 63 230 22 289
	-74 106 -257 168 -255 316
	9 153 148 185 252 133
	86 -65 29 -192 -80 -176
	-71 12 -105 67 -59 124"/>
<use id="tclef" transform="translate(0,6) scale(0.045)"
	xlink:href="#utclef"/>
</defs>
<use x="22.00" y="53.00" xlink:href="#tclef"/>
<g style="font:bold 16px serif"
	transform="translate(40.50,58.50) scale(1.2,1)">
	<text text-anchor="middle">4</text>
	<text y="-12" text-anchor="middle">4</text>
</g>
<path class="fill"
	d="M54.70 65.30l21.40 2.40v-3.20l-21.40 -2.40"/>
<defs>
<ellipse id="hd" rx="4.1" ry="2.9"
	transform="rotate(-20)" class="fill"/>
</defs>
<use x="58.50" y="44.00" xlink:href="#hd"/>
<path d="M55.00 44.00v20.30" class="stroke"/>
<use x="79.20" y="47.00" xlink:href="#hd"/>
<path d="M75.70 47.00v19.70" class="stroke"/>
<use x="108.00" y="50.00" xlink:href="#hd"/>
<path d="M111.50 50.00v-21.00" class="stroke"/>
<use x="140.40" y="59.00" xlink:href="#hd"/>
<path d="M143.90 59.00v-21.00" class="stroke"/>
<defs>
<path id="hl" class="stroke" d="m-6 0h12"/>
</defs>
<use x="172.80" y="65.00" xlink:href="#hl"/>
<use x="172.80" y="65.00" xlink:href="#hd"/>
<path d="M176.30 65.00v-21.00" class="stroke"/>
<use x="205.20" y="59.00" xlink:href="#hd"/>
<path d="M208.70 59.00v-21.00" class="stroke"/>
<path class="fill"
	d="M243.70 27.80l62.80 0.00v3.20l-62.80 -0.00"/>
<use x="240.50" y="50.00" xlink:href="#hd"/>
<path d="M244.00 50.00v-21.20" class="stroke"/>
<use x="261.20" y="53.00" xlink:href="#hd"/>
<path d="M264.70 53.00v-24.20" class="stroke"/>
<use x="282.00" y="50.00" xlink:href="#hd"/>
<path d="M285.50 50.00v-21.20" class="stroke"/>
<use x="302.70" y="47.00" xlink:href="#hd"/>
<path d="M306.20 47.00v-18.20" class="stroke"/>
<use x="325.80" y="44.00" xlink:href="#hd"/>
<path d="M322.30 44.00v21.00" class="stroke"/>
<path class="fill"
	d="M358.10 26.30l21.40 2.40v3.20l-21.40 -2.40"/>
<use x="354.90" y="47.00" xlink:href="#hd"/>
<path d="M358.40 47.00v-19.70" class="stroke"/>
<use x="375.70" y="50.00" xlink:href="#hd"/>
<path d="M379.20 50.00v-20.30" class="stroke"/>
<use x="404.50" y="53.00" xlink:href="#hd"/>
<path d="M408.00 53.00v-21.00" class="stroke"/>
<use x="436.80" y="62.00" xlink:href="#hd"/>
<path d="M440.30 62.00v-21.00" class="stroke"/>
<use x="469.20" y="65.00" xlink:href="#hl"/>
<use x="469.20" y="68.00" xlink:href="#hd"/>
<path d="M472.70 68.00v-21.00" class="stroke"/>
<use x="501.60" y="62.00" xlink:href="#hd"/>
<path d="M505.10 62.00v-21.00" class="stroke"/>
<path class="fill"
	d="M540.10 24.80l62.80 0.00v3.20l-62.80 -0.00"/>
<use x="537.00" y="47.00" xlink:href="#hd"/>
<path d="M540.50 47.00v-21.20" class="stroke"/>
<use x="557.70" y="44.00" xlink:href="#hd"/>
<path d="M561.20 44.00v-18.20" class="stroke"/>
<use x="578.40" y="47.00" xlink:href="#hd"/>
<path d="M581.90 47.00v-21.20" class="stroke"/>
<use x="599.10" y="50.00" xlink:href="#hd"/>
<path d="M602.60 50.00v-24.20" class="stroke"/>
<use x="622.10" y="53.00" xlink:href="#hd"/>
<path d="M625.60 53.00v-21.00" class="stroke"/>
<path class="fill"
	d="M650.70 65.30l21.40 2.40v-3.20l-21.40 -2.40"/>
<use x="654.60" y="44.00" xlink:href="#hd"/>
<path d="M651.10 44.00v20.30" class="stroke"/>
<use x="675.30" y="47.00" xlink:href="#hd"/>
<path d="M671.80 47.00v19.70" class="stroke"/>
</g>
<g stroke-width="0.70">
<path class="stroke" stroke-width="1"
	d="M178.00 129.00v-24.00"/>
<path class="stroke" stroke-width="1"
	d="M356.00 129.00v-24.00"/>
<path class="stroke" stroke-width="1"
	d="M510.00 129.00v-24.00"/>
<path class="stroke" stroke-width="1"
	d="M691.60 129.00v-24.00"/>
<path d="m10.00 129.00
	h681.60
	M10.00 123.00
	h681.60
	M10.00 117.00
	h681.60
	M10.00 111.00
	h681.60
	M10.00 105.00
	h681.60
	" class="stroke"/>
<use x="22.00" y="123.00" xlink:href="#tclef"/>
<use x="46.50" y="120.00" xlink:href="#hd"/>
<path d="M50.00 120.00v-21.00" class="stroke"/>
<use x="82.00" y="129.00" xlink:href="#hd"/>
<path d="M85.50 129.00v-21.00" class="stroke"/>
<use x="117.50" y="135.00" xlink:href="#hl"/>
<use x="117.50" y="135.00" xlink:href="#hd"/>
<path d="M121.00 135.00v-21.00" class="stroke"/>
<use x="153.00" y="129.00" xlink:href="#hd"/>
<path d="M156.50 129.00v-21.00" class="stroke"/>
<path class="fill"
	d="M193.80 97.80l68.60 0.00v3.20l-68.60 -0.00"/>
<use x="190.60" y="120.00" xlink:href="#hd"/>
<path d="M194.10 120.00v-21.20" class="stroke"/>
<use x="213.30" y="123.00" xlink:href="#hd"/>
<path d="M216.80 123.00v-24.20" class="stroke"/>
<use x="235.90" y="120.00" xlink:href="#hd"/>
<path d="M239.40 120.00v-21.20" class="stroke"/>
<use x="258.60" y="117.00" xlink:href="#hd"/>
<path d="M262.10 117.00v-18.20" class="stroke"/>
<use x="283.70" y="114.00" xlink:href="#hd"/>
<path d="M280.20 114.00v21.00" class="stroke"/>
<path class="fill"
	d="M318.90 96.30l23.30 2.40v3.20l-23.30 -2.40"/>
<use x="315.70" y="117.00" xlink:href="#hd"/>
<path d="M319.20 117.00v-19.70" class="stroke"/>
<use x="338.40" y="120.00" xlink:href="#hd"/>
<path d="M341.90 120.00v-20.30" class="stroke"/>
<use x="368.70" y="123.00" xlink:href="#hd"/>
<path d="M372.20 123.00v-21.00" class="stroke"/>
<path class="fill"
	d="M400.40 135.00l23.30 0.00v-3.20l-23.30 -0.00"/>
<use x="404.20" y="114.00" xlink:href="#hd"/>
<path d="M400.70 114.00v20.00" class="stroke"/>
<use x="426.90" y="114.00" xlink:href="#hd"/>
<path d="M423.40 114.00v20.00" class="stroke"/>
<use x="449.50" y="123.00" xlink:href="#hd"/>
<path d="M453.00 123.00v-21.00" class="stroke"/>
<use x="485.10" y="114.00" xlink:href="#hd"/>
<path d="M481.60 114.00v21.00" class="stroke"/>
<path class="fill"
	d="M525.80 97.80l68.60 0.00v3.20l-68.60 -0.00"/>
<use x="522.60" y="117.00" xlink:href="#hd"/>
<path d="M526.10 117.00v-18.20" class="stroke"/>
<use x="545.30" y="120.00" xlink:href="#hd"/>
<path d="M548.80 120.00v-21.20" class="stroke"/>
<use x="567.90" y="123.00" xlink:href="#hd"/>
<path d="M571.40 123.00v-24.20" class="stroke"/>
<use x="590.60" y="117.00" xlink:href="#hd"/>
<path d="M594.10 117.00v-18.20" class="stroke"/>
<use x="615.70" y="120.00" xlink:href="#hd"/>
<path d="M619.20 120.00v-21.00" class="stroke"/>
<path class="fill"
	d="M647.40 135.30l23.30 2.40v-3.20l-23.30 -2.40"/>
<use x="651.30" y="114.00" xlink:href="#hd"/>
<path d="M647.80 114.00v20.30" class="stroke"/>
<use x="673.90" y="117.00" xlink:href="#hd"/>
<path d="M670.40 117.00v19.70" class="stroke"/>
</g>
<g stroke-width="0.70">
<path class="stroke" stroke-width="1"
	d="M194.00 199.00v-24.00"/>
<path class="stroke" stroke-width="1"
	d="M364.40 199.00v-24.00"/>
<path class="stroke" stroke-width="1"
	d="M521.10 199.00v-24.00"/>
<path class="stroke" stroke-width="1"
	d="M691.60 199.00v-24.00"/>
<path d="m10.00 199.00
	h681.60
	M10.00 193.00
	h681.60
	M10.00 187.00
	h681.60
	M10.00 181.00
	h681.60
	M10.00 175.00
	h681.60
	" class="stroke"/>
<use x="22.00" y="193.00" xlink:href="#tclef"/>
<use x="46.50" y="190.00" xlink:href="#hd"/>
<path d="M50.00 190.00v-21.00" class="stroke"/>
<path class="fill"
	d="M79.10 189.70l23.90 -2.50v-3.20l-23.90 2.50"/>
<use x="82.90" y="169.00" xlink:href="#hl"/>
<use x="82.90" y="169.00" xlink:href="#hd"/>
<path d="M79.40 169.00v19.70" class="stroke"/>
<use x="106.20" y="169.00" xlink:href="#hl"/>
<use x="106.20" y="166.00" xlink:href="#hd"/>
<path d="M102.70 166.00v20.30" class="stroke"/>
<use x="132.00" y="169.00" xlink:href="#hl"/>
<use x="132.00" y="169.00" xlink:href="#hd"/>
<path d="M128.50 169.00v21.00" class="stroke"/>
<use x="168.40" y="178.00" xlink:href="#hd"/>
<path d="M164.90 178.00v21.00" class="stroke"/>
<path class="fill"
	d="M203.10 190.00l70.40 0.00v-3.20l-70.40 -0.00"/>
<use x="206.90" y="169.00" xlink:href="#hl"/>
<use x="206.90" y="169.00" xlink:href="#hd"/>
<path d="M203.40 169.00v20.00" class="stroke"/>
<use x="230.20" y="169.00" xlink:href="#hl"/>
<use x="230.20" y="166.00" xlink:href="#hd"/>
<path d="M226.70 166.00v23.00" class="stroke"/>
<use x="253.40" y="169.00" xlink:href="#hl"/>
<use x="253.40" y="169.00" xlink:href="#hd"/>
<path d="M249.90 169.00v20.00" class="stroke"/>
<use x="276.60" y="172.00" xlink:href="#hd"/>
<path d="M273.10 172.00v17.00" class="stroke"/>
<use x="302.40" y="169.00" xlink:href="#hl"/>
<use x="302.40" y="169.00" xlink:href="#hd"/>
<path d="M298.90 169.00v21.00" class="stroke"/>
<use x="338.80" y="178.00" xlink:href="#hd"/>
<path d="M335.30 178.00v21.00" class="stroke"/>
<use x="377.30" y="193.00" xlink:href="#hd"/>
<path d="M380.80 193.00v-21.00" class="stroke"/>
<path class="fill"
	d="M409.90 192.70l23.90 -2.50v-3.20l-23.90 2.50"/>
<use x="413.80" y="172.00" xlink:href="#hd"/>
<path d="M410.30 172.00v19.70" class="stroke"/>
<use x="437.00" y="169.00" xlink:href="#hl"/>
<use x="437.00" y="169.00" xlink:href="#hd"/>
<path d="M433.50 169.00v20.30" class="stroke"/>
<use x="462.80" y="172.00" xlink:href="#hd"/>
<path d="M459.30 172.00v21.00" class="stroke"/>
<use x="495.60" y="193.00" xlink:href="#hd"/>
<path d="M499.10 193.00v-21.00" class="stroke"/>
<path class="fill"
	d="M530.30 193.20l70.40 0.00v-3.20l-70.40 -0.00"/>
<use x="534.10" y="172.00" xlink:href="#hd"/>
<path d="M530.60 172.00v20.20" class="stroke"/>
<use x="557.30" y="169.00" xlink:href="#hl"/>
<use x="557.30" y="169.00" xlink:href="#hd"/>
<path d="M553.80 169.00v23.20" class="stroke"/>
<use x="580.50" y="172.00" xlink:href="#hd"/>
<path d="M577.00 172.00v20.20" class="stroke"/>
<use x="603.80" y="175.00" xlink:href="#hd"/>
<defs>
<path id="usharp" class="fill" d="
	m136 -702
	v890
	h32
	v-890
	m128 840
	h32
	v-888
	h-32
	m-232 286
	v116
	l338 -96
	v-116
	m-338 442
	v116
	l338 -98
	v-114"/>
<use id="sh0" transform="translate(-4,5) scale(0.018)"
	xlink:href="#usharp"/>
</defs>
<use x="594.80" y="175.00" xlink:href="#sh0"/>
<path d="M600.30 175.00v17.20" class="stroke"/>
<use x="629.60" y="172.00" xlink:href="#hd"/>
<path d="M626.10 172.00v21.00" class="stroke"/>
<use x="666.10" y="172.00" xlink:href="#hd"/>
<path d="M662.60 172.00v21.00" class="stroke"/>
</g>
<g stroke-width="0.70">
<path class="stroke" stroke-width="1"
	d="M205.20 269.00v-24.00"/>
<path class="stroke" stroke-width="1"
	d="M388.50 269.00v-24.00"/>
<path class="stroke" stroke-width="1"
	d="M543.60 269.00v-24.00"/>
<path class="stroke" stroke-width="3"
	d="M690.10 269.00v-24.00"/>
<path class="stroke" stroke-width="1"
	d="M685.60 269.00v-24.00"/>
<path d="m10.00 269.00
	h681.60
	M10.00 263.00
	h681.60
	M10.00 257.00
	h681.60
	M10.00 251.00
	h681.60
	M10.00 245.00
	h681.60
	" class="stroke"/>
<use x="22.00" y="263.00" xlink:href="#tclef"/>
<use x="46.50" y="260.00" xlink:href="#hd"/>
<path d="M50.00 260.00v-21.00" class="stroke"/>
<path class="fill"
	d="M81.90 260.30l25.70 2.50v-3.20l-25.70 -2.50"/>
<use x="85.70" y="239.00" xlink:href="#hl"/>
<use x="85.70" y="239.00" xlink:href="#hd"/>
<path d="M82.20 239.00v20.30" class="stroke"/>
<use x="110.70" y="242.00" xlink:href="#hd"/>
<path d="M107.20 242.00v19.70" class="stroke"/>
<use x="138.50" y="239.00" xlink:href="#hl"/>
<use x="138.50" y="239.00" xlink:href="#hd"/>
<path d="M135.00 239.00v21.00" class="stroke"/>
<use x="177.70" y="248.00" xlink:href="#hd"/>
<path d="M174.20 248.00v21.00" class="stroke"/>
<path class="fill"
	d="M215.20 260.00l75.60 0.00v-3.20l-75.60 -0.00"/>
<use x="219.10" y="239.00" xlink:href="#hl"/>
<use x="219.10" y="239.00" xlink:href="#hd"/>
<path d="M215.60 239.00v20.00" class="stroke"/>
<use x="244.10" y="239.00" xlink:href="#hl"/>
<use x="244.10" y="236.00" xlink:href="#hd"/>
<path d="M240.60 236.00v23.00" class="stroke"/>
<use x="269.00" y="239.00" xlink:href="#hl"/>
<use x="269.00" y="239.00" xlink:href="#hd"/>
<path d="M265.50 239.00v20.00" class="stroke"/>
<use x="294.00" y="242.00" xlink:href="#hd"/>
<path d="M290.50 242.00v17.00" class="stroke"/>
<use x="321.80" y="239.00" xlink:href="#hl"/>
<use x="321.80" y="239.00" xlink:href="#hd"/>
<path d="M318.30 239.00v21.00" class="stroke"/>
<use x="361.00" y="248.00" xlink:href="#hd"/>
<path d="M357.50 248.00v21.00" class="stroke"/>
<use x="402.40" y="254.00" xlink:href="#hd"/>
<path d="M398.90 254.00v21.00" class="stroke"/>
<use x="437.70" y="260.00" xlink:href="#hd"/>
<path d="M441.20 260.00v-21.00" class="stroke"/>
<use x="476.90" y="269.00" xlink:href="#hd"/>
<path d="M480.40 269.00v-21.00" class="stroke"/>
<use x="516.10" y="260.00" xlink:href="#hd"/>
<path d="M519.60 260.00v-21.00" class="stroke"/>
<path class="fill"
	d="M560.70 234.80l75.60 0.00v3.20l-75.60 -0.00"/>
<use x="557.50" y="257.00" xlink:href="#hd"/>
<path d="M561.00 257.00v-21.20" class="stroke"/>
<use x="582.50" y="260.00" xlink:href="#hd"/>
<path d="M586.00 260.00v-24.20" class="stroke"/>
<use x="607.50" y="257.00" xlink:href="#hd"/>
<path d="M611.00 257.00v-21.20" class="stroke"/>
<use x="632.40" y="254.00" xlink:href="#hd"/>
<path d="M635.90 254.00v-18.20" class="stroke"/>
<use x="660.20" y="260.00" xlink:href="#hd"/>
<path d="M663.70 260.00v-21.00" class="stroke"/>
</g>
</svg>
