<?xml version="1.0" standalone="no"?>
<!DOCTYPE svg PUBLIC "-//W3C//DTD SVG 1.1//EN"
	"http://www.w3.org/Graphics/SVG/1.1/DTD/svg11.dtd">
<svg xmlns="http://www.w3.org/2000/svg" version="1.1"
	xmlns:xlink="http://www.w3.org/1999/xlink"
	color="black"
	width="701.60px" height="502.00px">
<style type="text/css">
.fill {fill: currentColor}
.stroke {stroke: currentColor; fill: none}
text{white-space: pre}
</style>
<title>/media/tim/Data1/tims_code/sphinx-tunes/source/_abcfiles/_rats.abc (3) tune 3</title>
<!-- Creator: abcm2ps-8.14.6 -->
<!-- CreationDate: Jul 30, 2023 12:21 -->
<!-- CommandLine: -g /media/tim/Data1/tims_code/sphinx-tunes/source/_abcfiles/_rats.abc -O /media/tim/Data1/tims_code/sphinx-tunes/source/_abcfiles/_rats.svg -->
<g stroke-width="0.70">
<path class="stroke" stroke-width="1"
	d="M211.60 59.00v-24.00"/>
<path class="stroke" stroke-width="1"
	d="M359.10 59.00v-24.00"/>
<path class="stroke" stroke-width="1"
	d="M517.40 59.00v-24.00"/>
<path class="stroke" stroke-width="1"
	d="M691.60 59.00v-24.00"/>
<path d="m10.00 59.00
	h681.60
	M10.00 53.00
	h681.60
	M10.00 47.00
	h681.60
	M10.00 41.00
	h681.60
	M10.00 35.00
	h681.60
	" class="stroke"/>
<defs>
<path id="utclef" class="fill" d="m-50 -90
	c-72 -41 -72 -158 52 -188
	150 -10 220 188 90 256
	-114 52 -275 0 -293 -136
	-15 -181 93 -229 220 -334
	88 -87 79 -133 62 -210
	-51 33 -94 105 -89 186
	17 267 36 374 49 574
	6 96 -19 134 -77 135
	-80 1 -126 -93 -61 -133
	85 -41 133 101 31 105
	23 17 92 37 90 -92
	-10 -223 -39 -342 -50 -617
	0 -90 0 -162 96 -232
	56 72 63 230 22 289
	-74 106 -257 168 -255 316
	9 153 148 185 252 133
	86 -65 29 -192 -80 -176
	-71 12 -105 67 -59 124"/>
<use id="tclef" transform="translate(0,6) scale(0.045)"
	xlink:href="#utclef"/>
</defs>
<use x="22.00" y="53.00" xlink:href="#tclef"/>
<defs>
<path id="uflat" class="fill" d="
	m100 -746
	h32
	v734
	l-32 4
	m32 -332
	c46 -72 152 -90 208 -20
	100 110 -120 326 -208 348
	m0 -28
	c54 0 200 -206 130 -290
	-50 -60 -130 -4 -130 34"/>
<use id="ft0" transform="translate(-3.5,3.5) scale(0.018)"
	xlink:href="#uflat"/>
</defs>
<use x="37.00" y="47.00" xlink:href="#ft0"/>
<use x="42.50" y="38.00" xlink:href="#ft0"/>
<g style="font:bold 16px serif"
	transform="translate(58.50,58.50) scale(1.2,1)">
	<text text-anchor="middle">4</text>
	<text y="-12" text-anchor="middle">4</text>
</g>
<path class="fill"
	d="M79.70 34.80l56.00 0.00v3.20l-56.00 -0.00"/>
<defs>
<ellipse id="hd" rx="4.1" ry="2.9"
	transform="rotate(-20)" class="fill"/>
</defs>
<use x="76.50" y="62.00" xlink:href="#hd"/>
<path d="M80.00 62.00v-26.20" class="stroke"/>
<use x="94.90" y="53.00" xlink:href="#hd"/>
<path d="M98.40 53.00v-17.20" class="stroke"/>
<use x="113.40" y="53.00" xlink:href="#hd"/>
<path d="M116.90 53.00v-17.20" class="stroke"/>
<use x="131.80" y="56.00" xlink:href="#hd"/>
<path d="M135.30 56.00v-20.20" class="stroke"/>
<path class="fill"
	d="M155.40 31.70l19.10 -2.30v3.20l-19.10 2.30"/>
<use x="152.20" y="53.00" xlink:href="#hd"/>
<path d="M155.70 53.00v-20.40" class="stroke"/>
<use x="170.70" y="50.00" xlink:href="#hd"/>
<path d="M174.20 50.00v-19.60" class="stroke"/>
<use x="191.10" y="47.00" xlink:href="#hd"/>
<path d="M194.60 47.00v-21.00" class="stroke"/>
<path class="fill"
	d="M227.20 34.10l56.00 -6.30v3.20l-56.00 6.30"/>
<use x="224.10" y="62.00" xlink:href="#hd"/>
<path d="M227.60 62.00v-26.90" class="stroke"/>
<use x="242.50" y="53.00" xlink:href="#hd"/>
<path d="M246.00 53.00v-20.00" class="stroke"/>
<use x="260.90" y="53.00" xlink:href="#hd"/>
<path d="M264.40 53.00v-22.10" class="stroke"/>
<use x="279.40" y="47.00" xlink:href="#hd"/>
<path d="M282.90 47.00v-18.20" class="stroke"/>
<path class="fill"
	d="M303.00 30.10l19.10 3.80v3.20l-19.10 -3.80"/>
<use x="299.80" y="50.00" xlink:href="#hd"/>
<path d="M303.30 50.00v-18.80" class="stroke"/>
<use x="318.20" y="56.00" xlink:href="#hd"/>
<path d="M321.70 56.00v-21.20" class="stroke"/>
<use x="338.70" y="62.00" xlink:href="#hd"/>
<path d="M342.20 62.00v-21.00" class="stroke"/>
<path class="fill"
	d="M374.80 34.80l56.00 0.00v3.20l-56.00 -0.00"/>
<use x="371.60" y="62.00" xlink:href="#hd"/>
<path d="M375.10 62.00v-26.20" class="stroke"/>
<use x="390.10" y="53.00" xlink:href="#hd"/>
<path d="M393.60 53.00v-17.20" class="stroke"/>
<use x="408.50" y="53.00" xlink:href="#hd"/>
<path d="M412.00 53.00v-17.20" class="stroke"/>
<use x="426.90" y="56.00" xlink:href="#hd"/>
<path d="M430.40 56.00v-20.20" class="stroke"/>
<path class="fill"
	d="M450.50 30.90l56.00 -6.90v3.20l-56.00 6.90"/>
<use x="447.40" y="53.00" xlink:href="#hd"/>
<path d="M450.90 53.00v-21.10" class="stroke"/>
<use x="465.80" y="50.00" xlink:href="#hd"/>
<path d="M469.30 50.00v-20.40" class="stroke"/>
<use x="484.20" y="47.00" xlink:href="#hd"/>
<path d="M487.70 47.00v-19.60" class="stroke"/>
<use x="502.70" y="44.00" xlink:href="#hd"/>
<path d="M506.20 44.00v-18.90" class="stroke"/>
<path class="fill"
	d="M526.10 62.70l37.60 4.60v-3.20l-37.60 -4.60"/>
<use x="529.90" y="41.00" xlink:href="#hd"/>
<path d="M526.40 41.00v20.70" class="stroke"/>
<use x="548.40" y="44.00" xlink:href="#hd"/>
<path d="M544.90 44.00v20.00" class="stroke"/>
<use x="566.80" y="47.00" xlink:href="#hd"/>
<path d="M563.30 47.00v19.30" class="stroke"/>
<path class="fill"
	d="M588.40 29.70l37.60 4.60v3.20l-37.60 -4.60"/>
<use x="585.20" y="50.00" xlink:href="#hd"/>
<path d="M588.70 50.00v-19.30" class="stroke"/>
<use x="603.70" y="53.00" xlink:href="#hd"/>
<path d="M607.20 53.00v-20.00" class="stroke"/>
<use x="622.10" y="56.00" xlink:href="#hd"/>
<path d="M625.60 56.00v-20.70" class="stroke"/>
<use x="642.50" y="53.00" xlink:href="#hd"/>
<path d="M646.00 53.00v-21.00" class="stroke"/>
<use x="671.10" y="53.00" xlink:href="#hd"/>
<path d="M674.60 53.00v-21.00" class="stroke"/>
</g>
<g stroke-width="0.70">
<path class="stroke" stroke-width="1"
	d="M201.20 129.00v-24.00"/>
<path class="stroke" stroke-width="1"
	d="M354.40 129.00v-24.00"/>
<path class="stroke" stroke-width="1"
	d="M507.70 129.00v-24.00"/>
<path class="stroke" stroke-width="1"
	d="M691.60 129.00v-24.00"/>
<path class="stroke" stroke-width="1"
	d="M688.60 129.00v-24.00"/>
<path d="m10.00 129.00
	h681.60
	M10.00 123.00
	h681.60
	M10.00 117.00
	h681.60
	M10.00 111.00
	h681.60
	M10.00 105.00
	h681.60
	" class="stroke"/>
<use x="22.00" y="123.00" xlink:href="#tclef"/>
<use x="37.00" y="117.00" xlink:href="#ft0"/>
<use x="42.50" y="108.00" xlink:href="#ft0"/>
<path class="fill"
	d="M56.70 129.20l58.30 0.00v-3.20l-58.30 -0.00"/>
<use x="60.50" y="111.00" xlink:href="#hd"/>
<path d="M57.00 111.00v17.20" class="stroke"/>
<use x="79.70" y="102.00" xlink:href="#hd"/>
<path d="M76.20 102.00v26.20" class="stroke"/>
<use x="98.90" y="102.00" xlink:href="#hd"/>
<path d="M95.40 102.00v26.20" class="stroke"/>
<use x="118.10" y="105.00" xlink:href="#hd"/>
<path d="M114.60 105.00v23.20" class="stroke"/>
<path class="fill"
	d="M135.60 122.70l19.90 -2.40v-3.20l-19.90 2.40"/>
<use x="139.40" y="102.00" xlink:href="#hd"/>
<path d="M135.90 102.00v19.60" class="stroke"/>
<defs>
<path id="hl" class="stroke" d="m-6 0h12"/>
</defs>
<use x="158.60" y="99.00" xlink:href="#hl"/>
<use x="158.60" y="99.00" xlink:href="#hd"/>
<path d="M155.10 99.00v20.40" class="stroke"/>
<use x="180.00" y="99.00" xlink:href="#hl"/>
<use x="180.00" y="96.00" xlink:href="#hd"/>
<path d="M176.50 96.00v21.00" class="stroke"/>
<path class="fill"
	d="M209.90 130.20l58.30 -6.40v-3.20l-58.30 6.40"/>
<use x="213.70" y="111.00" xlink:href="#hd"/>
<path d="M210.20 111.00v18.20" class="stroke"/>
<use x="232.90" y="102.00" xlink:href="#hd"/>
<path d="M229.40 102.00v25.10" class="stroke"/>
<use x="252.10" y="102.00" xlink:href="#hd"/>
<path d="M248.60 102.00v23.00" class="stroke"/>
<use x="271.30" y="99.00" xlink:href="#hl"/>
<use x="271.30" y="96.00" xlink:href="#hd"/>
<path d="M267.80 96.00v26.90" class="stroke"/>
<path class="fill"
	d="M288.90 121.10l19.90 3.80v-3.20l-19.90 -3.80"/>
<use x="292.70" y="99.00" xlink:href="#hl"/>
<use x="292.70" y="99.00" xlink:href="#hd"/>
<path d="M289.20 99.00v21.20" class="stroke"/>
<use x="311.90" y="105.00" xlink:href="#hd"/>
<path d="M308.40 105.00v18.80" class="stroke"/>
<use x="333.20" y="111.00" xlink:href="#hd"/>
<path d="M329.70 111.00v21.00" class="stroke"/>
<path class="fill"
	d="M363.10 129.20l58.30 0.00v-3.20l-58.30 -0.00"/>
<use x="366.90" y="111.00" xlink:href="#hd"/>
<path d="M363.40 111.00v17.20" class="stroke"/>
<use x="386.20" y="102.00" xlink:href="#hd"/>
<path d="M382.70 102.00v26.20" class="stroke"/>
<use x="405.40" y="102.00" xlink:href="#hd"/>
<path d="M401.90 102.00v26.20" class="stroke"/>
<use x="424.60" y="105.00" xlink:href="#hd"/>
<path d="M421.10 105.00v23.20" class="stroke"/>
<path class="fill"
	d="M442.00 122.70l19.90 -2.40v-3.20l-19.90 2.40"/>
<use x="445.90" y="102.00" xlink:href="#hd"/>
<path d="M442.40 102.00v19.60" class="stroke"/>
<use x="465.10" y="99.00" xlink:href="#hl"/>
<use x="465.10" y="99.00" xlink:href="#hd"/>
<path d="M461.60 99.00v20.40" class="stroke"/>
<use x="486.40" y="99.00" xlink:href="#hl"/>
<use x="486.40" y="96.00" xlink:href="#hd"/>
<path d="M482.90 96.00v21.00" class="stroke"/>
<path class="fill"
	d="M516.30 132.70l39.10 4.70v-3.20l-39.10 -4.70"/>
<use x="520.20" y="111.00" xlink:href="#hd"/>
<path d="M516.70 111.00v20.70" class="stroke"/>
<use x="539.40" y="114.00" xlink:href="#hd"/>
<path d="M535.90 114.00v20.00" class="stroke"/>
<use x="558.60" y="117.00" xlink:href="#hd"/>
<path d="M555.10 117.00v19.30" class="stroke"/>
<path class="fill"
	d="M581.00 99.70l39.10 4.70v3.20l-39.10 -4.70"/>
<use x="577.80" y="120.00" xlink:href="#hd"/>
<path d="M581.30 120.00v-19.30" class="stroke"/>
<use x="597.00" y="123.00" xlink:href="#hd"/>
<path d="M600.50 123.00v-20.00" class="stroke"/>
<use x="616.20" y="126.00" xlink:href="#hd"/>
<path d="M619.70 126.00v-20.70" class="stroke"/>
<use x="637.50" y="123.00" xlink:href="#hd"/>
<path d="M641.00 123.00v-21.00" class="stroke"/>
<use x="667.40" y="123.00" xlink:href="#hd"/>
<path d="M670.90 123.00v-21.00" class="stroke"/>
</g>
<g stroke-width="0.70">
<path class="stroke" stroke-width="1"
	d="M209.50 199.00v-24.00"/>
<path class="stroke" stroke-width="1"
	d="M370.90 199.00v-24.00"/>
<path class="stroke" stroke-width="1"
	d="M532.40 199.00v-24.00"/>
<path class="stroke" stroke-width="1"
	d="M691.60 199.00v-24.00"/>
<path d="m10.00 199.00
	h681.60
	M10.00 193.00
	h681.60
	M10.00 187.00
	h681.60
	M10.00 181.00
	h681.60
	M10.00 175.00
	h681.60
	" class="stroke"/>
<use x="22.00" y="193.00" xlink:href="#tclef"/>
<use x="37.00" y="187.00" xlink:href="#ft0"/>
<use x="42.50" y="178.00" xlink:href="#ft0"/>
<path class="fill"
	d="M63.70 164.80l61.70 0.00v3.20l-61.70 -0.00"/>
<use x="60.50" y="184.00" xlink:href="#hd"/>
<path d="M64.00 184.00v-18.20" class="stroke"/>
<use x="80.80" y="193.00" xlink:href="#hd"/>
<path d="M84.30 193.00v-27.20" class="stroke"/>
<use x="101.20" y="193.00" xlink:href="#hd"/>
<path d="M104.70 193.00v-27.20" class="stroke"/>
<use x="121.50" y="184.00" xlink:href="#hd"/>
<path d="M125.00 184.00v-18.20" class="stroke"/>
<path class="fill"
	d="M147.30 166.30l21.00 2.40v3.20l-21.00 -2.40"/>
<use x="144.10" y="187.00" xlink:href="#hd"/>
<path d="M147.60 187.00v-19.70" class="stroke"/>
<use x="164.40" y="190.00" xlink:href="#hd"/>
<path d="M167.90 190.00v-20.30" class="stroke"/>
<use x="187.00" y="193.00" xlink:href="#hd"/>
<path d="M190.50 193.00v-21.00" class="stroke"/>
<path class="fill"
	d="M225.10 174.80l61.70 0.00v3.20l-61.70 -0.00"/>
<use x="222.00" y="193.00" xlink:href="#hd"/>
<path d="M225.50 193.00v-17.20" class="stroke"/>
<use x="242.30" y="202.00" xlink:href="#hd"/>
<path d="M245.80 202.00v-26.20" class="stroke"/>
<use x="262.60" y="202.00" xlink:href="#hd"/>
<path d="M266.10 202.00v-26.20" class="stroke"/>
<use x="283.00" y="193.00" xlink:href="#hd"/>
<path d="M286.50 193.00v-17.20" class="stroke"/>
<path class="fill"
	d="M308.70 175.30l21.00 2.40v3.20l-21.00 -2.40"/>
<use x="305.50" y="196.00" xlink:href="#hd"/>
<path d="M309.00 196.00v-19.70" class="stroke"/>
<use x="325.90" y="199.00" xlink:href="#hd"/>
<path d="M329.40 199.00v-20.30" class="stroke"/>
<use x="348.50" y="202.00" xlink:href="#hd"/>
<path d="M352.00 202.00v-21.00" class="stroke"/>
<path class="fill"
	d="M386.60 164.80l61.70 0.00v3.20l-61.70 -0.00"/>
<use x="383.40" y="184.00" xlink:href="#hd"/>
<path d="M386.90 184.00v-18.20" class="stroke"/>
<use x="403.80" y="193.00" xlink:href="#hd"/>
<path d="M407.30 193.00v-27.20" class="stroke"/>
<use x="424.10" y="193.00" xlink:href="#hd"/>
<path d="M427.60 193.00v-27.20" class="stroke"/>
<use x="444.40" y="184.00" xlink:href="#hd"/>
<path d="M447.90 184.00v-18.20" class="stroke"/>
<path class="fill"
	d="M470.20 166.30l21.00 2.40v3.20l-21.00 -2.40"/>
<use x="467.00" y="187.00" xlink:href="#hd"/>
<path d="M470.50 187.00v-19.70" class="stroke"/>
<use x="487.30" y="190.00" xlink:href="#hd"/>
<path d="M490.80 190.00v-20.30" class="stroke"/>
<use x="509.90" y="193.00" xlink:href="#hd"/>
<path d="M513.40 193.00v-21.00" class="stroke"/>
<path class="fill"
	d="M541.00 199.40l61.70 6.80v-3.20l-61.70 -6.80"/>
<use x="544.90" y="172.00" xlink:href="#hd"/>
<path d="M541.40 172.00v26.50" class="stroke"/>
<use x="565.20" y="181.00" xlink:href="#hd"/>
<path d="M561.70 181.00v19.70" class="stroke"/>
<use x="585.60" y="184.00" xlink:href="#hd"/>
<path d="M582.10 184.00v19.00" class="stroke"/>
<use x="605.90" y="187.00" xlink:href="#hd"/>
<path d="M602.40 187.00v18.20" class="stroke"/>
<path class="fill"
	d="M629.40 168.70l21.00 -2.40v3.20l-21.00 2.40"/>
<use x="626.20" y="190.00" xlink:href="#hd"/>
<path d="M629.70 190.00v-20.30" class="stroke"/>
<use x="646.60" y="187.00" xlink:href="#hd"/>
<path d="M650.10 187.00v-19.70" class="stroke"/>
<use x="669.10" y="193.00" xlink:href="#hd"/>
<path d="M672.60 193.00v-21.00" class="stroke"/>
</g>
<g stroke-width="0.70">
<path class="stroke" stroke-width="1"
	d="M207.90 269.00v-24.00"/>
<path class="stroke" stroke-width="1"
	d="M379.30 269.00v-24.00"/>
<path class="stroke" stroke-width="1"
	d="M539.60 269.00v-24.00"/>
<path class="stroke" stroke-width="1"
	d="M691.60 269.00v-24.00"/>
<path class="stroke" stroke-width="1"
	d="M688.60 269.00v-24.00"/>
<path d="m10.00 269.00
	h681.60
	M10.00 263.00
	h681.60
	M10.00 257.00
	h681.60
	M10.00 251.00
	h681.60
	M10.00 245.00
	h681.60
	" class="stroke"/>
<use x="22.00" y="263.00" xlink:href="#tclef"/>
<use x="37.00" y="257.00" xlink:href="#ft0"/>
<use x="42.50" y="248.00" xlink:href="#ft0"/>
<path class="fill"
	d="M63.70 234.80l61.10 0.00v3.20l-61.10 -0.00"/>
<use x="60.50" y="254.00" xlink:href="#hd"/>
<path d="M64.00 254.00v-18.20" class="stroke"/>
<use x="80.60" y="263.00" xlink:href="#hd"/>
<path d="M84.10 263.00v-27.20" class="stroke"/>
<use x="100.80" y="263.00" xlink:href="#hd"/>
<path d="M104.30 263.00v-27.20" class="stroke"/>
<use x="120.90" y="254.00" xlink:href="#hd"/>
<path d="M124.40 254.00v-18.20" class="stroke"/>
<path class="fill"
	d="M146.40 236.30l20.80 2.40v3.20l-20.80 -2.40"/>
<use x="143.20" y="257.00" xlink:href="#hd"/>
<path d="M146.70 257.00v-19.70" class="stroke"/>
<use x="163.30" y="260.00" xlink:href="#hd"/>
<path d="M166.80 260.00v-20.30" class="stroke"/>
<use x="185.70" y="263.00" xlink:href="#hd"/>
<path d="M189.20 263.00v-21.00" class="stroke"/>
<path class="fill"
	d="M223.50 253.00l61.10 -7.00v3.20l-61.10 7.00"/>
<use x="220.40" y="275.00" xlink:href="#hl"/>
<use x="220.40" y="275.00" xlink:href="#hd"/>
<path d="M223.90 275.00v-21.00" class="stroke"/>
<use x="240.50" y="272.00" xlink:href="#hd"/>
<path d="M244.00 272.00v-20.30" class="stroke"/>
<use x="260.60" y="269.00" xlink:href="#hd"/>
<path d="M264.10 269.00v-19.70" class="stroke"/>
<use x="280.80" y="266.00" xlink:href="#hd"/>
<path d="M284.30 266.00v-19.00" class="stroke"/>
<path class="fill"
	d="M306.30 248.00l61.10 0.00v3.20l-61.10 -0.00"/>
<use x="303.10" y="275.00" xlink:href="#hl"/>
<use x="303.10" y="275.00" xlink:href="#hd"/>
<path d="M306.60 275.00v-26.00" class="stroke"/>
<use x="323.20" y="266.00" xlink:href="#hd"/>
<path d="M326.70 266.00v-17.00" class="stroke"/>
<use x="343.40" y="269.00" xlink:href="#hd"/>
<path d="M346.90 269.00v-20.00" class="stroke"/>
<use x="363.50" y="272.00" xlink:href="#hd"/>
<path d="M367.00 272.00v-23.00" class="stroke"/>
<path class="fill"
	d="M395.00 256.80l61.20 0.00v3.20l-61.20 -0.00"/>
<use x="391.80" y="275.00" xlink:href="#hl"/>
<use x="391.80" y="275.00" xlink:href="#hd"/>
<path d="M395.30 275.00v-17.20" class="stroke"/>
<use x="412.00" y="275.00" xlink:href="#hl"/>
<use x="412.00" y="281.00" xlink:href="#hl"/>
<use x="412.00" y="284.00" xlink:href="#hd"/>
<path d="M415.50 284.00v-26.20" class="stroke"/>
<use x="432.20" y="275.00" xlink:href="#hl"/>
<use x="432.20" y="281.00" xlink:href="#hl"/>
<use x="432.20" y="284.00" xlink:href="#hd"/>
<path d="M435.70 284.00v-26.20" class="stroke"/>
<use x="452.40" y="275.00" xlink:href="#hl"/>
<use x="452.40" y="275.00" xlink:href="#hd"/>
<path d="M455.90 275.00v-17.20" class="stroke"/>
<path class="fill"
	d="M478.00 256.80l20.90 0.00v3.20l-20.90 -0.00"/>
<use x="474.80" y="275.00" xlink:href="#hl"/>
<use x="474.80" y="278.00" xlink:href="#hd"/>
<path d="M478.30 278.00v-20.20" class="stroke"/>
<use x="495.00" y="275.00" xlink:href="#hl"/>
<use x="495.00" y="281.00" xlink:href="#hl"/>
<use x="495.00" y="281.00" xlink:href="#hd"/>
<path d="M498.50 281.00v-23.20" class="stroke"/>
<use x="517.40" y="275.00" xlink:href="#hl"/>
<use x="517.40" y="281.00" xlink:href="#hl"/>
<use x="517.40" y="284.00" xlink:href="#hd"/>
<path d="M520.90 284.00v-27.00" class="stroke"/>
<path class="fill"
	d="M555.20 253.00l61.10 -7.00v3.20l-61.10 7.00"/>
<use x="552.10" y="275.00" xlink:href="#hl"/>
<use x="552.10" y="275.00" xlink:href="#hd"/>
<path d="M555.60 275.00v-21.00" class="stroke"/>
<use x="572.20" y="272.00" xlink:href="#hd"/>
<path d="M575.70 272.00v-20.30" class="stroke"/>
<use x="592.30" y="269.00" xlink:href="#hd"/>
<path d="M595.80 269.00v-19.70" class="stroke"/>
<use x="612.50" y="266.00" xlink:href="#hd"/>
<path d="M616.00 266.00v-19.00" class="stroke"/>
<use x="634.80" y="275.00" xlink:href="#hl"/>
<use x="634.80" y="275.00" xlink:href="#hd"/>
<path d="M638.30 275.00v-21.00" class="stroke"/>
<use x="666.30" y="275.00" xlink:href="#hl"/>
<use x="666.30" y="275.00" xlink:href="#hd"/>
<path d="M669.80 275.00v-21.00" class="stroke"/>
</g>
<g stroke-width="0.70">
<path class="stroke" stroke-width="1"
	d="M222.60 339.00v-24.00"/>
<path class="stroke" stroke-width="1"
	d="M397.20 339.00v-24.00"/>
<path class="stroke" stroke-width="1"
	d="M536.60 339.00v-24.00"/>
<path class="stroke" stroke-width="3"
	d="M690.10 339.00v-24.00"/>
<path class="stroke" stroke-width="1"
	d="M685.60 339.00v-24.00"/>
<defs>
<g id="rdots" class="fill">
	<circle cx="0" cy="-9" r="1.2"/>
	<circle cx="0" cy="-15" r="1.2"/>
</g>
</defs>
<use x="681.60" y="339.00" xlink:href="#rdots"/>
<path d="m10.00 339.00
	h681.60
	M10.00 333.00
	h681.60
	M10.00 327.00
	h681.60
	M10.00 321.00
	h681.60
	M10.00 315.00
	h681.60
	" class="stroke"/>
<use x="22.00" y="333.00" xlink:href="#tclef"/>
<use x="37.00" y="327.00" xlink:href="#ft0"/>
<use x="42.50" y="318.00" xlink:href="#ft0"/>
<path class="fill"
	d="M63.70 326.00l62.30 -7.00v3.20l-62.30 7.00"/>
<use x="60.50" y="345.00" xlink:href="#hl"/>
<use x="60.50" y="348.00" xlink:href="#hd"/>
<path d="M64.00 348.00v-21.00" class="stroke"/>
<use x="81.10" y="345.00" xlink:href="#hl"/>
<use x="81.10" y="345.00" xlink:href="#hd"/>
<path d="M84.60 345.00v-20.30" class="stroke"/>
<use x="101.60" y="342.00" xlink:href="#hd"/>
<path d="M105.10 342.00v-19.70" class="stroke"/>
<use x="122.10" y="339.00" xlink:href="#hd"/>
<path d="M125.60 339.00v-19.00" class="stroke"/>
<path class="fill"
	d="M148.00 318.00l62.20 0.00v3.20l-62.20 -0.00"/>
<use x="144.90" y="336.00" xlink:href="#hd"/>
<path d="M148.40 336.00v-17.00" class="stroke"/>
<use x="165.40" y="345.00" xlink:href="#hl"/>
<use x="165.40" y="345.00" xlink:href="#hd"/>
<path d="M168.90 345.00v-26.00" class="stroke"/>
<use x="185.90" y="336.00" xlink:href="#hd"/>
<path d="M189.40 336.00v-17.00" class="stroke"/>
<use x="206.40" y="345.00" xlink:href="#hl"/>
<use x="206.40" y="345.00" xlink:href="#hd"/>
<path d="M209.90 345.00v-26.00" class="stroke"/>
<path class="fill"
	d="M238.20 317.00l62.20 -7.00v3.20l-62.20 7.00"/>
<use x="235.10" y="339.00" xlink:href="#hd"/>
<path d="M238.60 339.00v-21.00" class="stroke"/>
<use x="255.60" y="336.00" xlink:href="#hd"/>
<path d="M259.10 336.00v-20.30" class="stroke"/>
<use x="276.10" y="333.00" xlink:href="#hd"/>
<path d="M279.60 333.00v-19.70" class="stroke"/>
<use x="296.60" y="330.00" xlink:href="#hd"/>
<path d="M300.10 330.00v-19.00" class="stroke"/>
<path class="fill"
	d="M315.60 346.20l62.20 0.00v-3.20l-62.20 -0.00"/>
<use x="319.50" y="327.00" xlink:href="#hd"/>
<path d="M316.00 327.00v18.20" class="stroke"/>
<use x="340.00" y="321.00" xlink:href="#hd"/>
<path d="M336.50 321.00v24.20" class="stroke"/>
<use x="360.50" y="324.00" xlink:href="#hd"/>
<path d="M357.00 324.00v21.20" class="stroke"/>
<use x="381.00" y="327.00" xlink:href="#hd"/>
<path d="M377.50 327.00v18.20" class="stroke"/>
<path class="fill"
	d="M412.90 314.80l21.20 0.00v3.20l-21.20 -0.00"/>
<use x="409.70" y="336.00" xlink:href="#hd"/>
<path d="M413.20 336.00v-20.20" class="stroke"/>
<use x="430.20" y="336.00" xlink:href="#hd"/>
<path d="M433.70 336.00v-20.20" class="stroke"/>
<use x="453.00" y="330.00" xlink:href="#hd"/>
<path d="M456.50 330.00v-21.00" class="stroke"/>
<use x="485.10" y="324.00" xlink:href="#hd"/>
<path d="M481.60 324.00v21.00" class="stroke"/>
<use x="514.00" y="330.00" xlink:href="#hd"/>
<path d="M517.50 330.00v-21.00" class="stroke"/>
<path class="fill"
	d="M545.30 349.20l62.20 0.00v-3.20l-62.20 -0.00"/>
<use x="549.10" y="327.00" xlink:href="#hd"/>
<path d="M545.60 327.00v21.20" class="stroke"/>
<use x="569.70" y="321.00" xlink:href="#hd"/>
<path d="M566.20 321.00v27.20" class="stroke"/>
<use x="590.20" y="324.00" xlink:href="#hd"/>
<path d="M586.70 324.00v24.20" class="stroke"/>
<use x="610.70" y="330.00" xlink:href="#hd"/>
<path d="M607.20 330.00v18.20" class="stroke"/>
<use x="633.50" y="327.00" xlink:href="#hd"/>
<path d="M630.00 327.00v21.00" class="stroke"/>
<use x="665.50" y="327.00" xlink:href="#hd"/>
<path d="M662.00 327.00v21.00" class="stroke"/>
</g>
<g stroke-width="0.70">
<path class="stroke" stroke-width="1"
	d="M240.60 409.00v-24.00"/>
<path class="stroke" stroke-width="1"
	d="M382.30 409.00v-24.00"/>
<path class="stroke" stroke-width="1"
	d="M549.90 409.00v-24.00"/>
<path class="stroke" stroke-width="1"
	d="M691.60 409.00v-24.00"/>
<path d="m10.00 409.00
	h681.60
	M10.00 403.00
	h681.60
	M10.00 397.00
	h681.60
	M10.00 391.00
	h681.60
	M10.00 385.00
	h681.60
	" class="stroke"/>
<use x="22.00" y="403.00" xlink:href="#tclef"/>
<use x="37.00" y="397.00" xlink:href="#ft0"/>
<use x="42.50" y="388.00" xlink:href="#ft0"/>
<path class="fill"
	d="M63.70 389.40l69.20 -3.90v3.20l-69.20 3.90"/>
<use x="60.50" y="415.00" xlink:href="#hl"/>
<use x="60.50" y="418.00" xlink:href="#hd"/>
<path d="M64.00 418.00v-27.60" class="stroke"/>
<use x="83.30" y="412.00" xlink:href="#hd"/>
<path d="M86.80 412.00v-22.90" class="stroke"/>
<use x="106.20" y="406.00" xlink:href="#hd"/>
<path d="M109.70 406.00v-18.20" class="stroke"/>
<use x="129.00" y="412.00" xlink:href="#hd"/>
<path d="M132.50 412.00v-25.50" class="stroke"/>
<path class="fill"
	d="M157.50 386.40l69.20 -3.90v3.20l-69.20 3.90"/>
<use x="154.30" y="415.00" xlink:href="#hl"/>
<use x="154.30" y="415.00" xlink:href="#hd"/>
<path d="M157.80 415.00v-27.60" class="stroke"/>
<use x="177.20" y="409.00" xlink:href="#hd"/>
<path d="M180.70 409.00v-22.90" class="stroke"/>
<use x="200.00" y="403.00" xlink:href="#hd"/>
<path d="M203.50 403.00v-18.20" class="stroke"/>
<use x="222.80" y="409.00" xlink:href="#hd"/>
<path d="M226.30 409.00v-25.50" class="stroke"/>
<use x="253.40" y="394.00" xlink:href="#hd"/>
<path d="M249.90 394.00v21.00" class="stroke"/>
<use x="285.60" y="403.00" xlink:href="#hd"/>
<path d="M289.10 403.00v-21.00" class="stroke"/>
<use x="321.40" y="409.00" xlink:href="#hd"/>
<path d="M324.90 409.00v-21.00" class="stroke"/>
<use x="357.20" y="415.00" xlink:href="#hl"/>
<use x="357.20" y="415.00" xlink:href="#hd"/>
<path d="M360.70 415.00v-21.00" class="stroke"/>
<path class="fill"
	d="M398.30 389.40l69.20 -3.90v3.20l-69.20 3.90"/>
<use x="395.10" y="415.00" xlink:href="#hl"/>
<use x="395.10" y="418.00" xlink:href="#hd"/>
<path d="M398.60 418.00v-27.60" class="stroke"/>
<use x="418.00" y="412.00" xlink:href="#hd"/>
<path d="M421.50 412.00v-22.90" class="stroke"/>
<use x="440.80" y="406.00" xlink:href="#hd"/>
<path d="M444.30 406.00v-18.20" class="stroke"/>
<use x="463.60" y="412.00" xlink:href="#hd"/>
<path d="M467.10 412.00v-25.50" class="stroke"/>
<use x="489.00" y="415.00" xlink:href="#hl"/>
<use x="489.00" y="415.00" xlink:href="#hd"/>
<path d="M492.50 415.00v-21.00" class="stroke"/>
<use x="524.80" y="415.00" xlink:href="#hl"/>
<use x="524.80" y="415.00" xlink:href="#hd"/>
<path d="M528.30 415.00v-21.00" class="stroke"/>
<use x="562.70" y="394.00" xlink:href="#hd"/>
<path d="M559.20 394.00v21.00" class="stroke"/>
<use x="594.90" y="403.00" xlink:href="#hd"/>
<path d="M598.40 403.00v-21.00" class="stroke"/>
<use x="630.70" y="409.00" xlink:href="#hd"/>
<path d="M634.20 409.00v-21.00" class="stroke"/>
<use x="666.50" y="415.00" xlink:href="#hl"/>
<use x="666.50" y="415.00" xlink:href="#hd"/>
<path d="M670.00 415.00v-21.00" class="stroke"/>
</g>
<g stroke-width="0.70">
<path class="stroke" stroke-width="1"
	d="M254.70 479.00v-24.00"/>
<path class="stroke" stroke-width="1"
	d="M477.00 479.00v-24.00"/>
<path class="stroke" stroke-width="3"
	d="M690.10 479.00v-24.00"/>
<path class="stroke" stroke-width="1"
	d="M685.60 479.00v-24.00"/>
<path d="m10.00 479.00
	h681.60
	M10.00 473.00
	h681.60
	M10.00 467.00
	h681.60
	M10.00 461.00
	h681.60
	M10.00 455.00
	h681.60
	" class="stroke"/>
<use x="22.00" y="473.00" xlink:href="#tclef"/>
<use x="37.00" y="467.00" xlink:href="#ft0"/>
<use x="42.50" y="458.00" xlink:href="#ft0"/>
<path class="fill"
	d="M63.70 460.80l86.60 0.00v3.20l-86.60 -0.00"/>
<use x="60.50" y="479.00" xlink:href="#hd"/>
<path d="M64.00 479.00v-17.20" class="stroke"/>
<use x="89.10" y="485.00" xlink:href="#hl"/>
<use x="89.10" y="485.00" xlink:href="#hd"/>
<path d="M92.60 485.00v-23.20" class="stroke"/>
<use x="117.80" y="485.00" xlink:href="#hl"/>
<use x="117.80" y="485.00" xlink:href="#hd"/>
<path d="M121.30 485.00v-23.20" class="stroke"/>
<use x="146.40" y="479.00" xlink:href="#hd"/>
<path d="M149.90 479.00v-17.20" class="stroke"/>
<use x="178.20" y="476.00" xlink:href="#hd"/>
<defs>
<path id="usharp" class="fill" d="
	m136 -702
	v890
	h32
	v-890
	m128 840
	h32
	v-888
	h-32
	m-232 286
	v116
	l338 -96
	v-116
	m-338 442
	v116
	l338 -98
	v-114"/>
<use id="sh0" transform="translate(-4,5) scale(0.018)"
	xlink:href="#usharp"/>
</defs>
<use x="169.20" y="476.00" xlink:href="#sh0"/>
<path d="M181.70 476.00v-21.00" class="stroke"/>
<use x="223.20" y="473.00" xlink:href="#hd"/>
<path d="M226.70 473.00v-21.00" class="stroke"/>
<path class="fill"
	d="M273.70 444.80l86.60 0.00v3.20l-86.60 -0.00"/>
<use x="270.60" y="464.00" xlink:href="#hd"/>
<path d="M274.10 464.00v-18.20" class="stroke"/>
<use x="299.20" y="473.00" xlink:href="#hd"/>
<path d="M302.70 473.00v-27.20" class="stroke"/>
<use x="327.80" y="464.00" xlink:href="#hd"/>
<path d="M331.30 464.00v-18.20" class="stroke"/>
<use x="356.50" y="473.00" xlink:href="#hd"/>
<path d="M360.00 473.00v-27.20" class="stroke"/>
<path class="fill"
	d="M384.40 487.80l29.30 -2.50v-3.20l-29.30 2.50"/>
<use x="388.30" y="467.00" xlink:href="#hd"/>
<path d="M384.80 467.00v19.70" class="stroke"/>
<use x="416.90" y="464.00" xlink:href="#hd"/>
<path d="M413.40 464.00v20.30" class="stroke"/>
<use x="445.60" y="473.00" xlink:href="#hd"/>
<path d="M449.10 473.00v-21.00" class="stroke"/>
<path class="fill"
	d="M496.10 460.80l86.60 0.00v3.20l-86.60 -0.00"/>
<use x="492.90" y="479.00" xlink:href="#hd"/>
<path d="M496.40 479.00v-17.20" class="stroke"/>
<use x="521.60" y="485.00" xlink:href="#hl"/>
<use x="521.60" y="485.00" xlink:href="#hd"/>
<path d="M525.10 485.00v-23.20" class="stroke"/>
<use x="550.20" y="482.00" xlink:href="#hd"/>
<path d="M553.70 482.00v-20.20" class="stroke"/>
<use x="578.80" y="479.00" xlink:href="#hd"/>
<path d="M582.30 479.00v-17.20" class="stroke"/>
<use x="610.70" y="485.00" xlink:href="#hl"/>
<use x="610.70" y="485.00" xlink:href="#hd"/>
<path d="M614.20 485.00v-21.00" class="stroke"/>
<use x="655.60" y="485.00" xlink:href="#hl"/>
<use x="655.60" y="485.00" xlink:href="#hd"/>
<path d="M659.10 485.00v-21.00" class="stroke"/>
</g>
</svg>
