<?xml version="1.0" standalone="no"?>
<!DOCTYPE svg PUBLIC "-//W3C//DTD SVG 1.1//EN"
	"http://www.w3.org/Graphics/SVG/1.1/DTD/svg11.dtd">
<svg xmlns="http://www.w3.org/2000/svg" version="1.1"
	xmlns:xlink="http://www.w3.org/1999/xlink"
	color="black"
	width="701.60px" height="292.00px">
<style type="text/css">
.fill {fill: currentColor}
.stroke {stroke: currentColor; fill: none}
text{white-space: pre}
</style>
<title>/media/tim/Data1/tims_code/sphinx-tunes/source/_abcfiles/_rats.abc (11) tune 11</title>
<!-- Creator: abcm2ps-8.14.6 -->
<!-- CreationDate: Jul 30, 2023 12:21 -->
<!-- CommandLine: -g /media/tim/Data1/tims_code/sphinx-tunes/source/_abcfiles/_rats.abc -O /media/tim/Data1/tims_code/sphinx-tunes/source/_abcfiles/_rats.svg -->
<g stroke-width="0.70">
<path class="stroke" stroke-width="1"
	d="M223.70 59.00v-24.00"/>
<path class="stroke" stroke-width="1"
	d="M383.90 59.00v-24.00"/>
<path class="stroke" stroke-width="1"
	d="M544.00 59.00v-24.00"/>
<path class="stroke" stroke-width="1"
	d="M691.60 59.00v-24.00"/>
<path d="m10.00 59.00
	h681.60
	M10.00 53.00
	h681.60
	M10.00 47.00
	h681.60
	M10.00 41.00
	h681.60
	M10.00 35.00
	h681.60
	" class="stroke"/>
<defs>
<path id="utclef" class="fill" d="m-50 -90
	c-72 -41 -72 -158 52 -188
	150 -10 220 188 90 256
	-114 52 -275 0 -293 -136
	-15 -181 93 -229 220 -334
	88 -87 79 -133 62 -210
	-51 33 -94 105 -89 186
	17 267 36 374 49 574
	6 96 -19 134 -77 135
	-80 1 -126 -93 -61 -133
	85 -41 133 101 31 105
	23 17 92 37 90 -92
	-10 -223 -39 -342 -50 -617
	0 -90 0 -162 96 -232
	56 72 63 230 22 289
	-74 106 -257 168 -255 316
	9 153 148 185 252 133
	86 -65 29 -192 -80 -176
	-71 12 -105 67 -59 124"/>
<use id="tclef" transform="translate(0,6) scale(0.045)"
	xlink:href="#utclef"/>
</defs>
<use x="22.00" y="53.00" xlink:href="#tclef"/>
<defs>
<path id="uflat" class="fill" d="
	m100 -746
	h32
	v734
	l-32 4
	m32 -332
	c46 -72 152 -90 208 -20
	100 110 -120 326 -208 348
	m0 -28
	c54 0 200 -206 130 -290
	-50 -60 -130 -4 -130 34"/>
<use id="ft0" transform="translate(-3.5,3.5) scale(0.018)"
	xlink:href="#uflat"/>
</defs>
<use x="37.00" y="47.00" xlink:href="#ft0"/>
<use x="42.50" y="38.00" xlink:href="#ft0"/>
<g style="font:bold 16px serif"
	transform="translate(58.50,58.50) scale(1.2,1)">
	<text text-anchor="middle">4</text>
	<text y="-12" text-anchor="middle">4</text>
</g>
<defs>
<ellipse id="hd" rx="4.1" ry="2.9"
	transform="rotate(-20)" class="fill"/>
</defs>
<use x="76.50" y="62.00" xlink:href="#hd"/>
<path d="M80.00 62.00v-21.00" class="stroke"/>
<defs>
<path id="hl" class="stroke" d="m-6 0h12"/>
</defs>
<use x="112.80" y="65.00" xlink:href="#hl"/>
<use x="112.80" y="71.00" xlink:href="#hl"/>
<use x="112.80" y="74.00" xlink:href="#hd"/>
<path d="M116.30 74.00v-27.00" class="stroke"/>
<path class="fill"
	d="M152.40 46.70l23.90 -2.50v3.20l-23.90 2.50"/>
<use x="149.20" y="65.00" xlink:href="#hl"/>
<use x="149.20" y="68.00" xlink:href="#hd"/>
<path d="M152.70 68.00v-20.30" class="stroke"/>
<use x="172.40" y="65.00" xlink:href="#hl"/>
<use x="172.40" y="65.00" xlink:href="#hd"/>
<path d="M175.90 65.00v-19.70" class="stroke"/>
<use x="198.10" y="62.00" xlink:href="#hd"/>
<path d="M201.60 62.00v-21.00" class="stroke"/>
<use x="236.70" y="65.00" xlink:href="#hl"/>
<use x="236.70" y="65.00" xlink:href="#hd"/>
<path d="M240.20 65.00v-21.00" class="stroke"/>
<use x="273.00" y="65.00" xlink:href="#hl"/>
<use x="273.00" y="68.00" xlink:href="#hd"/>
<path d="M276.50 68.00v-21.00" class="stroke"/>
<path class="fill"
	d="M312.50 46.80l23.90 0.00v3.20l-23.90 -0.00"/>
<use x="309.40" y="65.00" xlink:href="#hl"/>
<use x="309.40" y="71.00" xlink:href="#hl"/>
<use x="309.40" y="71.00" xlink:href="#hd"/>
<path d="M312.90 71.00v-23.20" class="stroke"/>
<use x="332.60" y="65.00" xlink:href="#hl"/>
<use x="332.60" y="68.00" xlink:href="#hd"/>
<path d="M336.10 68.00v-20.20" class="stroke"/>
<use x="358.40" y="65.00" xlink:href="#hl"/>
<use x="358.40" y="65.00" xlink:href="#hd"/>
<path d="M361.90 65.00v-21.00" class="stroke"/>
<use x="396.90" y="62.00" xlink:href="#hd"/>
<path d="M400.40 62.00v-21.00" class="stroke"/>
<use x="433.20" y="65.00" xlink:href="#hl"/>
<use x="433.20" y="71.00" xlink:href="#hl"/>
<use x="433.20" y="74.00" xlink:href="#hd"/>
<path d="M436.70 74.00v-27.00" class="stroke"/>
<path class="fill"
	d="M472.70 46.70l23.90 -2.50v3.20l-23.90 2.50"/>
<use x="469.60" y="65.00" xlink:href="#hl"/>
<use x="469.60" y="68.00" xlink:href="#hd"/>
<path d="M473.10 68.00v-20.30" class="stroke"/>
<use x="492.80" y="65.00" xlink:href="#hl"/>
<use x="492.80" y="65.00" xlink:href="#hd"/>
<path d="M496.30 65.00v-19.70" class="stroke"/>
<use x="518.50" y="62.00" xlink:href="#hd"/>
<path d="M522.00 62.00v-21.00" class="stroke"/>
<use x="557.00" y="65.00" xlink:href="#hl"/>
<use x="557.00" y="65.00" xlink:href="#hd"/>
<path d="M560.50 65.00v-21.00" class="stroke"/>
<use x="593.40" y="65.00" xlink:href="#hl"/>
<use x="593.40" y="68.00" xlink:href="#hd"/>
<path d="M596.90 68.00v-21.00" class="stroke"/>
<use x="629.70" y="65.00" xlink:href="#hl"/>
<use x="629.70" y="71.00" xlink:href="#hl"/>
<use x="629.70" y="71.00" xlink:href="#hd"/>
<path d="M633.20 71.00v-24.00" class="stroke"/>
<use x="666.10" y="62.00" xlink:href="#hd"/>
<path d="M669.60 62.00v-21.00" class="stroke"/>
</g>
<g stroke-width="0.70">
<path class="stroke" stroke-width="1"
	d="M212.60 129.00v-24.00"/>
<path class="stroke" stroke-width="1"
	d="M378.10 129.00v-24.00"/>
<path class="stroke" stroke-width="1"
	d="M539.80 129.00v-24.00"/>
<path class="stroke" stroke-width="1"
	d="M691.60 129.00v-24.00"/>
<path class="stroke" stroke-width="1"
	d="M688.60 129.00v-24.00"/>
<path d="m10.00 129.00
	h681.60
	M10.00 123.00
	h681.60
	M10.00 117.00
	h681.60
	M10.00 111.00
	h681.60
	M10.00 105.00
	h681.60
	" class="stroke"/>
<use x="22.00" y="123.00" xlink:href="#tclef"/>
<use x="37.00" y="117.00" xlink:href="#ft0"/>
<use x="42.50" y="108.00" xlink:href="#ft0"/>
<use x="60.50" y="132.00" xlink:href="#hd"/>
<path d="M64.00 132.00v-21.00" class="stroke"/>
<use x="98.10" y="135.00" xlink:href="#hl"/>
<use x="98.10" y="141.00" xlink:href="#hl"/>
<use x="98.10" y="144.00" xlink:href="#hd"/>
<path d="M101.60 144.00v-27.00" class="stroke"/>
<path class="fill"
	d="M138.80 116.70l24.60 -2.50v3.20l-24.60 2.50"/>
<use x="135.70" y="135.00" xlink:href="#hl"/>
<use x="135.70" y="138.00" xlink:href="#hd"/>
<path d="M139.20 138.00v-20.30" class="stroke"/>
<use x="159.70" y="135.00" xlink:href="#hl"/>
<use x="159.70" y="135.00" xlink:href="#hd"/>
<path d="M163.20 135.00v-19.70" class="stroke"/>
<use x="186.30" y="132.00" xlink:href="#hd"/>
<path d="M189.80 132.00v-21.00" class="stroke"/>
<use x="226.00" y="135.00" xlink:href="#hl"/>
<use x="226.00" y="135.00" xlink:href="#hd"/>
<path d="M229.50 135.00v-21.00" class="stroke"/>
<use x="263.60" y="132.00" xlink:href="#hd"/>
<path d="M267.10 132.00v-21.00" class="stroke"/>
<path class="fill"
	d="M304.30 108.30l24.60 2.50v3.20l-24.60 -2.50"/>
<use x="301.20" y="129.00" xlink:href="#hd"/>
<path d="M304.70 129.00v-19.70" class="stroke"/>
<use x="325.10" y="132.00" xlink:href="#hd"/>
<path d="M328.60 132.00v-20.30" class="stroke"/>
<use x="351.70" y="135.00" xlink:href="#hl"/>
<use x="351.70" y="135.00" xlink:href="#hd"/>
<path d="M355.20 135.00v-21.00" class="stroke"/>
<use x="391.50" y="111.00" xlink:href="#hd"/>
<path d="M388.00 111.00v21.00" class="stroke"/>
<use x="425.30" y="123.00" xlink:href="#hd"/>
<path d="M428.80 123.00v-21.00" class="stroke"/>
<path class="fill"
	d="M459.10 137.70l24.60 -2.50v-3.20l-24.60 2.50"/>
<use x="462.90" y="117.00" xlink:href="#hd"/>
<path d="M459.40 117.00v19.70" class="stroke"/>
<use x="486.90" y="114.00" xlink:href="#hd"/>
<path d="M483.40 114.00v20.30" class="stroke"/>
<use x="513.50" y="111.00" xlink:href="#hd"/>
<path d="M510.00 111.00v21.00" class="stroke"/>
<path class="fill"
	d="M549.40 139.20l72.60 0.00v-3.20l-72.60 -0.00"/>
<use x="553.20" y="114.00" xlink:href="#hd"/>
<path d="M549.70 114.00v24.20" class="stroke"/>
<use x="577.20" y="117.00" xlink:href="#hd"/>
<path d="M573.70 117.00v21.20" class="stroke"/>
<use x="601.10" y="120.00" xlink:href="#hd"/>
<path d="M597.60 120.00v18.20" class="stroke"/>
<use x="625.10" y="117.00" xlink:href="#hd"/>
<path d="M621.60 117.00v21.20" class="stroke"/>
<defs>
<path id="Hd" class="fill" d="m3 -1.6
	c-1 -1.8 -7 1.4 -6 3.2
	1 1.8 7 -1.4 6 -3.2
	m0.5 -0.3
	c2 3.8 -5 7.6 -7 3.8
	-2 -3.8 5 -7.6 7 -3.8"/>
</defs>
<use x="649.00" y="123.00" xlink:href="#Hd"/>
<path d="M652.50 123.00v-21.00" class="stroke"/>
</g>
<g stroke-width="0.70">
<path class="stroke" stroke-width="1"
	d="M220.20 199.00v-24.00"/>
<path class="stroke" stroke-width="1"
	d="M379.60 199.00v-24.00"/>
<path class="stroke" stroke-width="1"
	d="M552.30 199.00v-24.00"/>
<path class="stroke" stroke-width="1"
	d="M691.60 199.00v-24.00"/>
<path d="m10.00 199.00
	h681.60
	M10.00 193.00
	h681.60
	M10.00 187.00
	h681.60
	M10.00 181.00
	h681.60
	M10.00 175.00
	h681.60
	" class="stroke"/>
<use x="22.00" y="193.00" xlink:href="#tclef"/>
<use x="37.00" y="187.00" xlink:href="#ft0"/>
<use x="42.50" y="178.00" xlink:href="#ft0"/>
<use x="60.50" y="181.00" xlink:href="#hd"/>
<path d="M57.00 181.00v21.00" class="stroke"/>
<use x="96.70" y="172.00" xlink:href="#hd"/>
<path d="M93.20 172.00v21.00" class="stroke"/>
<path class="fill"
	d="M129.00 193.20l69.90 0.00v-3.20l-69.90 -0.00"/>
<use x="132.90" y="172.00" xlink:href="#hd"/>
<path d="M129.40 172.00v20.20" class="stroke"/>
<use x="156.00" y="175.00" xlink:href="#hd"/>
<path d="M152.50 175.00v17.20" class="stroke"/>
<use x="179.00" y="172.00" xlink:href="#hd"/>
<path d="M175.50 172.00v20.20" class="stroke"/>
<use x="202.10" y="169.00" xlink:href="#hl"/>
<use x="202.10" y="169.00" xlink:href="#hd"/>
<path d="M198.60 169.00v23.20" class="stroke"/>
<use x="233.10" y="169.00" xlink:href="#hl"/>
<use x="233.10" y="166.00" xlink:href="#hd"/>
<path d="M229.60 166.00v21.00" class="stroke"/>
<path class="fill"
	d="M265.50 193.20l23.80 0.00v-3.20l-23.80 -0.00"/>
<use x="269.30" y="172.00" xlink:href="#hd"/>
<path d="M265.80 172.00v20.20" class="stroke"/>
<use x="292.40" y="172.00" xlink:href="#hd"/>
<path d="M288.90 172.00v20.20" class="stroke"/>
<use x="318.00" y="169.00" xlink:href="#hl"/>
<use x="318.00" y="166.00" xlink:href="#hd"/>
<path d="M314.50 166.00v21.00" class="stroke"/>
<use x="354.20" y="172.00" xlink:href="#hd"/>
<path d="M350.70 172.00v21.00" class="stroke"/>
<use x="392.60" y="184.00" xlink:href="#hd"/>
<path d="M389.10 184.00v21.00" class="stroke"/>
<use x="428.80" y="175.00" xlink:href="#hd"/>
<path d="M425.30 175.00v21.00" class="stroke"/>
<path class="fill"
	d="M461.10 196.00l69.90 0.00v-3.20l-69.90 -0.00"/>
<use x="464.90" y="175.00" xlink:href="#hd"/>
<path d="M461.40 175.00v20.00" class="stroke"/>
<use x="488.00" y="178.00" xlink:href="#hd"/>
<path d="M484.50 178.00v17.00" class="stroke"/>
<use x="511.10" y="175.00" xlink:href="#hd"/>
<path d="M507.60 175.00v20.00" class="stroke"/>
<use x="534.20" y="172.00" xlink:href="#hd"/>
<path d="M530.70 172.00v23.00" class="stroke"/>
<use x="570.80" y="169.00" xlink:href="#hl"/>
<use x="570.80" y="169.00" xlink:href="#hd"/>
<use x="561.80" y="169.00" xlink:href="#ft0"/>
<path d="M567.30 169.00v21.00" class="stroke"/>
<path class="fill"
	d="M603.10 190.30l23.80 2.50v-3.20l-23.80 -2.50"/>
<use x="607.00" y="169.00" xlink:href="#hl"/>
<use x="607.00" y="169.00" xlink:href="#hd"/>
<path d="M603.50 169.00v20.30" class="stroke"/>
<use x="630.10" y="172.00" xlink:href="#hd"/>
<path d="M626.60 172.00v19.70" class="stroke"/>
<use x="655.70" y="175.00" xlink:href="#Hd"/>
<path d="M652.20 175.00v21.00" class="stroke"/>
</g>
<g stroke-width="0.70">
<path class="stroke" stroke-width="1"
	d="M227.20 269.00v-24.00"/>
<path class="stroke" stroke-width="1"
	d="M393.70 269.00v-24.00"/>
<path class="stroke" stroke-width="1"
	d="M559.70 269.00v-24.00"/>
<path class="stroke" stroke-width="3"
	d="M690.10 269.00v-24.00"/>
<path class="stroke" stroke-width="1"
	d="M685.60 269.00v-24.00"/>
<path d="m10.00 269.00
	h681.60
	M10.00 263.00
	h681.60
	M10.00 257.00
	h681.60
	M10.00 251.00
	h681.60
	M10.00 245.00
	h681.60
	" class="stroke"/>
<use x="22.00" y="263.00" xlink:href="#tclef"/>
<use x="37.00" y="257.00" xlink:href="#ft0"/>
<use x="42.50" y="248.00" xlink:href="#ft0"/>
<use x="60.50" y="251.00" xlink:href="#hd"/>
<path d="M57.00 251.00v21.00" class="stroke"/>
<use x="98.30" y="242.00" xlink:href="#hd"/>
<path d="M94.80 242.00v21.00" class="stroke"/>
<path class="fill"
	d="M132.30 263.20l73.00 0.00v-3.20l-73.00 -0.00"/>
<use x="136.10" y="242.00" xlink:href="#hd"/>
<path d="M132.60 242.00v20.20" class="stroke"/>
<use x="160.20" y="245.00" xlink:href="#hd"/>
<path d="M156.70 245.00v17.20" class="stroke"/>
<use x="184.30" y="242.00" xlink:href="#hd"/>
<path d="M180.80 242.00v20.20" class="stroke"/>
<use x="208.40" y="239.00" xlink:href="#hl"/>
<use x="208.40" y="239.00" xlink:href="#hd"/>
<path d="M204.90 239.00v23.20" class="stroke"/>
<use x="240.70" y="239.00" xlink:href="#hl"/>
<use x="240.70" y="236.00" xlink:href="#hd"/>
<path d="M237.20 236.00v21.00" class="stroke"/>
<path class="fill"
	d="M274.60 263.20l24.80 0.00v-3.20l-24.80 -0.00"/>
<use x="278.50" y="242.00" xlink:href="#hd"/>
<path d="M275.00 242.00v20.20" class="stroke"/>
<use x="302.60" y="242.00" xlink:href="#hd"/>
<path d="M299.10 242.00v20.20" class="stroke"/>
<use x="329.30" y="251.00" xlink:href="#hd"/>
<path d="M325.80 251.00v21.00" class="stroke"/>
<use x="367.20" y="242.00" xlink:href="#hd"/>
<path d="M363.70 242.00v21.00" class="stroke"/>
<use x="407.10" y="245.00" xlink:href="#hd"/>
<path d="M403.60 245.00v21.00" class="stroke"/>
<use x="444.90" y="251.00" xlink:href="#hd"/>
<path d="M441.40 251.00v21.00" class="stroke"/>
<use x="482.80" y="254.00" xlink:href="#hd"/>
<path d="M479.30 254.00v21.00" class="stroke"/>
<path class="fill"
	d="M520.00 242.00l24.80 0.00v3.20l-24.80 -0.00"/>
<use x="516.80" y="263.00" xlink:href="#hd"/>
<path d="M520.30 263.00v-20.00" class="stroke"/>
<use x="540.90" y="263.00" xlink:href="#hd"/>
<path d="M544.40 263.00v-20.00" class="stroke"/>
<use x="573.10" y="266.00" xlink:href="#hd"/>
<path d="M576.60 266.00v-21.00" class="stroke"/>
<use x="610.90" y="260.00" xlink:href="#hd"/>
<path d="M614.40 260.00v-21.00" class="stroke"/>
<use x="648.80" y="263.00" xlink:href="#Hd"/>
<path d="M652.30 263.00v-21.00" class="stroke"/>
</g>
</svg>
