<?xml version="1.0" standalone="no"?>
<!DOCTYPE svg PUBLIC "-//W3C//DTD SVG 1.1//EN"
	"http://www.w3.org/Graphics/SVG/1.1/DTD/svg11.dtd">
<svg xmlns="http://www.w3.org/2000/svg" version="1.1"
	xmlns:xlink="http://www.w3.org/1999/xlink"
	color="black"
	width="701.60px" height="292.00px">
<style type="text/css">
.fill {fill: currentColor}
.stroke {stroke: currentColor; fill: none}
text{white-space: pre}
</style>
<title>/media/tim/Data1/tims_code/sphinx-tunes/source/_abcfiles/_rats.abc (2) tune 2</title>
<!-- Creator: abcm2ps-8.14.6 -->
<!-- CreationDate: Jul 30, 2023 12:21 -->
<!-- CommandLine: -g /media/tim/Data1/tims_code/sphinx-tunes/source/_abcfiles/_rats.abc -O /media/tim/Data1/tims_code/sphinx-tunes/source/_abcfiles/_rats.svg -->
<g stroke-width="0.70">
<path class="stroke" stroke-width="1"
	d="M205.20 59.00v-24.00"/>
<path class="stroke" stroke-width="1"
	d="M400.60 59.00v-24.00"/>
<path class="stroke" stroke-width="1"
	d="M547.70 59.00v-24.00"/>
<path class="stroke" stroke-width="1"
	d="M691.60 59.00v-24.00"/>
<path d="m10.00 59.00
	h681.60
	M10.00 53.00
	h681.60
	M10.00 47.00
	h681.60
	M10.00 41.00
	h681.60
	M10.00 35.00
	h681.60
	" class="stroke"/>
<defs>
<path id="utclef" class="fill" d="m-50 -90
	c-72 -41 -72 -158 52 -188
	150 -10 220 188 90 256
	-114 52 -275 0 -293 -136
	-15 -181 93 -229 220 -334
	88 -87 79 -133 62 -210
	-51 33 -94 105 -89 186
	17 267 36 374 49 574
	6 96 -19 134 -77 135
	-80 1 -126 -93 -61 -133
	85 -41 133 101 31 105
	23 17 92 37 90 -92
	-10 -223 -39 -342 -50 -617
	0 -90 0 -162 96 -232
	56 72 63 230 22 289
	-74 106 -257 168 -255 316
	9 153 148 185 252 133
	86 -65 29 -192 -80 -176
	-71 12 -105 67 -59 124"/>
<use id="tclef" transform="translate(0,6) scale(0.045)"
	xlink:href="#utclef"/>
</defs>
<use x="22.00" y="53.00" xlink:href="#tclef"/>
<defs>
<path id="usharp" class="fill" d="
	m136 -702
	v890
	h32
	v-890
	m128 840
	h32
	v-888
	h-32
	m-232 286
	v116
	l338 -96
	v-116
	m-338 442
	v116
	l338 -98
	v-114"/>
<use id="sh0" transform="translate(-4,5) scale(0.018)"
	xlink:href="#usharp"/>
</defs>
<use x="37.00" y="35.00" xlink:href="#sh0"/>
<g style="font:bold 16px serif"
	transform="translate(53.00,58.50) scale(1.2,1)">
	<text text-anchor="middle">4</text>
	<text y="-12" text-anchor="middle">4</text>
</g>
<defs>
<ellipse id="hd" rx="4.1" ry="2.9"
	transform="rotate(-20)" class="fill"/>
</defs>
<use x="71.00" y="53.00" xlink:href="#hd"/>
<path d="M74.50 53.00v-21.00" class="stroke"/>
<use x="107.20" y="47.00" xlink:href="#hd"/>
<path d="M110.70 47.00v-21.00" class="stroke"/>
<use x="143.50" y="56.00" xlink:href="#hd"/>
<path d="M147.00 56.00v-21.00" class="stroke"/>
<use x="179.70" y="47.00" xlink:href="#hd"/>
<path d="M183.20 47.00v-21.00" class="stroke"/>
<path class="fill"
	d="M221.30 32.00l70.00 0.00v3.20l-70.00 -0.00"/>
<use x="218.10" y="53.00" xlink:href="#hd"/>
<path d="M221.60 53.00v-20.00" class="stroke"/>
<use x="241.20" y="56.00" xlink:href="#hd"/>
<path d="M244.70 56.00v-23.00" class="stroke"/>
<use x="264.30" y="53.00" xlink:href="#hd"/>
<path d="M267.80 53.00v-20.00" class="stroke"/>
<use x="287.50" y="50.00" xlink:href="#hd"/>
<path d="M291.00 50.00v-17.00" class="stroke"/>
<path class="fill"
	d="M316.30 27.80l70.00 0.00v3.20l-70.00 -0.00"/>
<use x="313.10" y="47.00" xlink:href="#hd"/>
<path d="M316.60 47.00v-18.20" class="stroke"/>
<use x="336.30" y="50.00" xlink:href="#hd"/>
<path d="M339.80 50.00v-21.20" class="stroke"/>
<use x="359.40" y="53.00" xlink:href="#hd"/>
<path d="M362.90 53.00v-24.20" class="stroke"/>
<use x="382.50" y="47.00" xlink:href="#hd"/>
<path d="M386.00 47.00v-18.20" class="stroke"/>
<use x="413.50" y="53.00" xlink:href="#hd"/>
<path d="M417.00 53.00v-21.00" class="stroke"/>
<use x="449.70" y="47.00" xlink:href="#hd"/>
<path d="M453.20 47.00v-21.00" class="stroke"/>
<use x="486.00" y="56.00" xlink:href="#hd"/>
<path d="M489.50 56.00v-21.00" class="stroke"/>
<use x="522.20" y="47.00" xlink:href="#hd"/>
<path d="M525.70 47.00v-21.00" class="stroke"/>
<path class="fill"
	d="M563.80 34.80l70.00 0.00v3.20l-70.00 -0.00"/>
<use x="560.60" y="53.00" xlink:href="#hd"/>
<path d="M564.10 53.00v-17.20" class="stroke"/>
<use x="583.70" y="56.00" xlink:href="#hd"/>
<path d="M587.20 56.00v-20.20" class="stroke"/>
<use x="606.90" y="59.00" xlink:href="#hd"/>
<path d="M610.40 59.00v-23.20" class="stroke"/>
<use x="630.00" y="56.00" xlink:href="#hd"/>
<path d="M633.50 56.00v-20.20" class="stroke"/>
<defs>
<path id="Hd" class="fill" d="m3 -1.6
	c-1 -1.8 -7 1.4 -6 3.2
	1 1.8 7 -1.4 6 -3.2
	m0.5 -0.3
	c2 3.8 -5 7.6 -7 3.8
	-2 -3.8 5 -7.6 7 -3.8"/>
</defs>
<use x="655.70" y="59.00" xlink:href="#Hd"/>
<path d="M659.20 59.00v-21.00" class="stroke"/>
</g>
<g stroke-width="0.70">
<path class="stroke" stroke-width="1"
	d="M191.60 129.00v-24.00"/>
<path class="stroke" stroke-width="1"
	d="M390.30 129.00v-24.00"/>
<path class="stroke" stroke-width="1"
	d="M540.00 129.00v-24.00"/>
<path class="stroke" stroke-width="1"
	d="M691.60 129.00v-24.00"/>
<path class="stroke" stroke-width="1"
	d="M688.60 129.00v-24.00"/>
<path d="m10.00 129.00
	h681.60
	M10.00 123.00
	h681.60
	M10.00 117.00
	h681.60
	M10.00 111.00
	h681.60
	M10.00 105.00
	h681.60
	" class="stroke"/>
<use x="22.00" y="123.00" xlink:href="#tclef"/>
<use x="37.00" y="105.00" xlink:href="#sh0"/>
<use x="55.00" y="123.00" xlink:href="#hd"/>
<path d="M58.50 123.00v-21.00" class="stroke"/>
<defs>
<path id="hl" class="stroke" d="m-6 0h12"/>
</defs>
<use x="91.90" y="135.00" xlink:href="#hl"/>
<use x="91.90" y="138.00" xlink:href="#hd"/>
<path d="M95.40 138.00v-21.00" class="stroke"/>
<use x="128.80" y="126.00" xlink:href="#hd"/>
<path d="M132.30 126.00v-21.00" class="stroke"/>
<use x="165.70" y="135.00" xlink:href="#hl"/>
<use x="165.70" y="138.00" xlink:href="#hd"/>
<path d="M169.20 138.00v-21.00" class="stroke"/>
<path class="fill"
	d="M207.90 102.00l71.20 0.00v3.20l-71.20 -0.00"/>
<use x="204.70" y="123.00" xlink:href="#hd"/>
<path d="M208.20 123.00v-20.00" class="stroke"/>
<use x="228.20" y="126.00" xlink:href="#hd"/>
<path d="M231.70 126.00v-23.00" class="stroke"/>
<use x="251.70" y="123.00" xlink:href="#hd"/>
<path d="M255.20 123.00v-20.00" class="stroke"/>
<use x="275.30" y="120.00" xlink:href="#hd"/>
<path d="M278.80 120.00v-17.00" class="stroke"/>
<path class="fill"
	d="M304.50 96.90l71.20 7.20v3.20l-71.20 -7.20"/>
<use x="301.40" y="117.00" xlink:href="#hd"/>
<path d="M304.90 117.00v-19.10" class="stroke"/>
<use x="324.90" y="120.00" xlink:href="#hd"/>
<path d="M328.40 120.00v-19.70" class="stroke"/>
<use x="348.40" y="123.00" xlink:href="#hd"/>
<path d="M351.90 123.00v-20.30" class="stroke"/>
<use x="372.00" y="126.00" xlink:href="#hd"/>
<path d="M375.50 126.00v-20.90" class="stroke"/>
<use x="403.40" y="123.00" xlink:href="#hd"/>
<path d="M406.90 123.00v-21.00" class="stroke"/>
<use x="440.30" y="135.00" xlink:href="#hl"/>
<use x="440.30" y="138.00" xlink:href="#hd"/>
<path d="M443.80 138.00v-21.00" class="stroke"/>
<use x="477.20" y="126.00" xlink:href="#hd"/>
<path d="M480.70 126.00v-21.00" class="stroke"/>
<use x="514.10" y="135.00" xlink:href="#hl"/>
<use x="514.10" y="138.00" xlink:href="#hd"/>
<path d="M517.60 138.00v-21.00" class="stroke"/>
<path class="fill"
	d="M556.30 104.80l71.20 0.00v3.20l-71.20 -0.00"/>
<use x="553.10" y="129.00" xlink:href="#hd"/>
<path d="M556.60 129.00v-23.20" class="stroke"/>
<use x="576.60" y="126.00" xlink:href="#hd"/>
<path d="M580.10 126.00v-20.20" class="stroke"/>
<use x="600.20" y="123.00" xlink:href="#hd"/>
<path d="M603.70 123.00v-17.20" class="stroke"/>
<use x="623.70" y="126.00" xlink:href="#hd"/>
<path d="M627.20 126.00v-20.20" class="stroke"/>
<use x="649.80" y="129.00" xlink:href="#Hd"/>
<path d="M653.30 129.00v-21.00" class="stroke"/>
</g>
<g stroke-width="0.70">
<path class="stroke" stroke-width="1"
	d="M222.50 199.00v-24.00"/>
<path class="stroke" stroke-width="1"
	d="M378.80 199.00v-24.00"/>
<path class="stroke" stroke-width="1"
	d="M558.90 199.00v-24.00"/>
<path class="stroke" stroke-width="1"
	d="M691.60 199.00v-24.00"/>
<path d="m10.00 199.00
	h681.60
	M10.00 193.00
	h681.60
	M10.00 187.00
	h681.60
	M10.00 181.00
	h681.60
	M10.00 175.00
	h681.60
	" class="stroke"/>
<use x="22.00" y="193.00" xlink:href="#tclef"/>
<use x="37.00" y="175.00" xlink:href="#sh0"/>
<path class="fill"
	d="M51.20 198.00l64.30 -7.10v-3.20l-64.30 7.10"/>
<use x="55.00" y="178.00" xlink:href="#hd"/>
<path d="M51.50 178.00v19.00" class="stroke"/>
<use x="76.20" y="175.00" xlink:href="#hd"/>
<path d="M72.70 175.00v19.70" class="stroke"/>
<use x="97.40" y="172.00" xlink:href="#hd"/>
<path d="M93.90 172.00v20.30" class="stroke"/>
<use x="118.70" y="169.00" xlink:href="#hl"/>
<use x="118.70" y="169.00" xlink:href="#hd"/>
<path d="M115.20 169.00v21.00" class="stroke"/>
<path class="fill"
	d="M138.40 197.20l64.30 9.00v-3.20l-64.30 -9.00"/>
<use x="142.20" y="169.00" xlink:href="#hl"/>
<use x="142.20" y="166.00" xlink:href="#hd"/>
<path d="M138.70 166.00v30.30" class="stroke"/>
<use x="163.50" y="172.00" xlink:href="#hd"/>
<path d="M160.00 172.00v27.20" class="stroke"/>
<use x="184.70" y="178.00" xlink:href="#hd"/>
<path d="M181.20 178.00v24.20" class="stroke"/>
<use x="205.90" y="187.00" xlink:href="#hd"/>
<path d="M202.40 187.00v18.20" class="stroke"/>
<path class="fill"
	d="M231.20 198.00l64.30 -7.10v-3.20l-64.30 7.10"/>
<use x="235.00" y="178.00" xlink:href="#hd"/>
<path d="M231.50 178.00v19.00" class="stroke"/>
<use x="256.30" y="175.00" xlink:href="#hd"/>
<path d="M252.80 175.00v19.70" class="stroke"/>
<use x="277.50" y="172.00" xlink:href="#hd"/>
<path d="M274.00 172.00v20.30" class="stroke"/>
<use x="298.70" y="169.00" xlink:href="#hl"/>
<use x="298.70" y="169.00" xlink:href="#hd"/>
<path d="M295.20 169.00v21.00" class="stroke"/>
<use x="322.30" y="175.00" xlink:href="#hd"/>
<path d="M318.80 175.00v21.00" class="stroke"/>
<use x="355.50" y="187.00" xlink:href="#hd"/>
<path d="M352.00 187.00v21.00" class="stroke"/>
<path class="fill"
	d="M387.50 198.00l64.30 -7.10v-3.20l-64.30 7.10"/>
<use x="391.30" y="178.00" xlink:href="#hd"/>
<path d="M387.80 178.00v19.00" class="stroke"/>
<use x="412.60" y="175.00" xlink:href="#hd"/>
<path d="M409.10 175.00v19.70" class="stroke"/>
<use x="433.80" y="172.00" xlink:href="#hd"/>
<path d="M430.30 172.00v20.30" class="stroke"/>
<use x="455.00" y="169.00" xlink:href="#hl"/>
<use x="455.00" y="169.00" xlink:href="#hd"/>
<path d="M451.50 169.00v21.00" class="stroke"/>
<path class="fill"
	d="M474.80 197.20l64.30 9.00v-3.20l-64.30 -9.00"/>
<use x="478.60" y="169.00" xlink:href="#hl"/>
<use x="478.60" y="166.00" xlink:href="#hd"/>
<path d="M475.10 166.00v30.30" class="stroke"/>
<use x="499.80" y="172.00" xlink:href="#hd"/>
<path d="M496.30 172.00v27.20" class="stroke"/>
<use x="521.00" y="178.00" xlink:href="#hd"/>
<path d="M517.50 178.00v24.20" class="stroke"/>
<use x="542.30" y="187.00" xlink:href="#hd"/>
<path d="M538.80 187.00v18.20" class="stroke"/>
<path class="fill"
	d="M567.60 196.00l64.30 0.00v-3.20l-64.30 -0.00"/>
<use x="571.40" y="178.00" xlink:href="#hd"/>
<path d="M567.90 178.00v17.00" class="stroke"/>
<use x="592.60" y="175.00" xlink:href="#hd"/>
<path d="M589.10 175.00v20.00" class="stroke"/>
<use x="613.80" y="172.00" xlink:href="#hd"/>
<path d="M610.30 172.00v23.00" class="stroke"/>
<use x="635.10" y="178.00" xlink:href="#hd"/>
<path d="M631.60 178.00v17.00" class="stroke"/>
<use x="658.60" y="175.00" xlink:href="#Hd"/>
<path d="M655.10 175.00v21.00" class="stroke"/>
</g>
<g stroke-width="0.70">
<path class="stroke" stroke-width="1"
	d="M226.50 269.00v-24.00"/>
<path class="stroke" stroke-width="1"
	d="M362.20 269.00v-24.00"/>
<path class="stroke" stroke-width="1"
	d="M551.10 269.00v-24.00"/>
<path class="stroke" stroke-width="3"
	d="M690.10 269.00v-24.00"/>
<path class="stroke" stroke-width="1"
	d="M685.60 269.00v-24.00"/>
<path d="m10.00 269.00
	h681.60
	M10.00 263.00
	h681.60
	M10.00 257.00
	h681.60
	M10.00 251.00
	h681.60
	M10.00 245.00
	h681.60
	" class="stroke"/>
<use x="22.00" y="263.00" xlink:href="#tclef"/>
<use x="37.00" y="245.00" xlink:href="#sh0"/>
<path class="fill"
	d="M51.20 268.10l65.90 -7.10v-3.20l-65.90 7.10"/>
<use x="55.00" y="248.00" xlink:href="#hd"/>
<path d="M51.50 248.00v19.00" class="stroke"/>
<use x="76.70" y="245.00" xlink:href="#hd"/>
<path d="M73.20 245.00v19.70" class="stroke"/>
<use x="98.50" y="242.00" xlink:href="#hd"/>
<path d="M95.00 242.00v20.30" class="stroke"/>
<use x="120.20" y="239.00" xlink:href="#hl"/>
<use x="120.20" y="239.00" xlink:href="#hd"/>
<path d="M116.70 239.00v21.00" class="stroke"/>
<path class="fill"
	d="M140.50 267.20l65.90 9.10v-3.20l-65.90 -9.10"/>
<use x="144.30" y="239.00" xlink:href="#hl"/>
<use x="144.30" y="236.00" xlink:href="#hd"/>
<path d="M140.80 236.00v30.20" class="stroke"/>
<use x="166.10" y="242.00" xlink:href="#hd"/>
<path d="M162.60 242.00v27.20" class="stroke"/>
<use x="187.80" y="248.00" xlink:href="#hd"/>
<path d="M184.30 248.00v24.20" class="stroke"/>
<use x="209.50" y="257.00" xlink:href="#hd"/>
<path d="M206.00 257.00v18.20" class="stroke"/>
<path class="fill"
	d="M242.20 231.80l65.90 6.90v3.20l-65.90 -6.90"/>
<use x="239.00" y="251.00" xlink:href="#hd"/>
<path d="M242.50 251.00v-18.20" class="stroke"/>
<use x="260.80" y="257.00" xlink:href="#hd"/>
<path d="M264.30 257.00v-21.90" class="stroke"/>
<use x="282.50" y="260.00" xlink:href="#hd"/>
<path d="M286.00 260.00v-22.60" class="stroke"/>
<use x="304.20" y="266.00" xlink:href="#hd"/>
<path d="M307.70 266.00v-26.40" class="stroke"/>
<use x="328.40" y="257.00" xlink:href="#Hd"/>
<path d="M331.90 257.00v-21.00" class="stroke"/>
<path class="fill"
	d="M377.80 234.80l65.90 0.00v3.20l-65.90 -0.00"/>
<use x="374.70" y="257.00" xlink:href="#hd"/>
<path d="M378.20 257.00v-21.20" class="stroke"/>
<use x="396.40" y="254.00" xlink:href="#hd"/>
<path d="M399.90 254.00v-18.20" class="stroke"/>
<use x="418.10" y="257.00" xlink:href="#hd"/>
<path d="M421.60 257.00v-21.20" class="stroke"/>
<use x="439.80" y="260.00" xlink:href="#hd"/>
<path d="M443.30 260.00v-24.20" class="stroke"/>
<path class="fill"
	d="M467.10 237.00l22.40 4.00v3.20l-22.40 -4.00"/>
<use x="464.00" y="257.00" xlink:href="#hd"/>
<path d="M467.50 257.00v-18.90" class="stroke"/>
<use x="485.70" y="263.00" xlink:href="#hd"/>
<path d="M489.20 263.00v-21.10" class="stroke"/>
<use x="509.80" y="269.00" xlink:href="#hd"/>
<path d="M513.30 269.00v-21.00" class="stroke"/>
<path class="fill"
	d="M513.30 248.00c0.6 5.6 9.6 9 5.6 18.4
	1.6 -6 -1.3 -11.6 -5.6 -12.8
"/>
<use x="534.00" y="275.00" xlink:href="#hl"/>
<use x="534.00" y="278.00" xlink:href="#hd"/>
<path d="M537.50 278.00v-21.00" class="stroke"/>
<path class="fill"
	d="M537.50 257.00c0.6 5.6 9.6 9 5.6 18.4
	1.6 -6 -1.3 -11.6 -5.6 -12.8
"/>
<path class="fill"
	d="M566.80 231.80l65.90 5.80v3.20l-65.90 -5.80"/>
<use x="563.60" y="251.00" xlink:href="#hd"/>
<path d="M567.10 251.00v-18.20" class="stroke"/>
<use x="585.40" y="257.00" xlink:href="#hd"/>
<path d="M588.90 257.00v-22.30" class="stroke"/>
<use x="607.10" y="260.00" xlink:href="#hd"/>
<path d="M610.60 260.00v-23.30" class="stroke"/>
<use x="628.80" y="263.00" xlink:href="#hd"/>
<path d="M632.30 263.00v-24.40" class="stroke"/>
<use x="653.00" y="269.00" xlink:href="#Hd"/>
<path d="M656.50 269.00v-21.00" class="stroke"/>
</g>
</svg>
