<?xml version="1.0" standalone="no"?>
<!DOCTYPE svg PUBLIC "-//W3C//DTD SVG 1.1//EN"
	"http://www.w3.org/Graphics/SVG/1.1/DTD/svg11.dtd">
<svg xmlns="http://www.w3.org/2000/svg" version="1.1"
	xmlns:xlink="http://www.w3.org/1999/xlink"
	color="black"
	width="701.60px" height="292.00px">
<style type="text/css">
.fill {fill: currentColor}
.stroke {stroke: currentColor; fill: none}
text{white-space: pre}
</style>
<title>/media/tim/Data1/tims_code/sphinx-tunes/source/_abcfiles/_rats.abc (14) tune 14</title>
<!-- Creator: abcm2ps-8.14.6 -->
<!-- CreationDate: Jul 30, 2023 12:21 -->
<!-- CommandLine: -g /media/tim/Data1/tims_code/sphinx-tunes/source/_abcfiles/_rats.abc -O /media/tim/Data1/tims_code/sphinx-tunes/source/_abcfiles/_rats.svg -->
<g stroke-width="0.70">
<path class="stroke" stroke-width="1"
	d="M231.90 59.00v-24.00"/>
<path class="stroke" stroke-width="1"
	d="M368.90 59.00v-24.00"/>
<path class="stroke" stroke-width="1"
	d="M554.70 59.00v-24.00"/>
<path class="stroke" stroke-width="1"
	d="M691.60 59.00v-24.00"/>
<path d="m10.00 59.00
	h681.60
	M10.00 53.00
	h681.60
	M10.00 47.00
	h681.60
	M10.00 41.00
	h681.60
	M10.00 35.00
	h681.60
	" class="stroke"/>
<defs>
<path id="utclef" class="fill" d="m-50 -90
	c-72 -41 -72 -158 52 -188
	150 -10 220 188 90 256
	-114 52 -275 0 -293 -136
	-15 -181 93 -229 220 -334
	88 -87 79 -133 62 -210
	-51 33 -94 105 -89 186
	17 267 36 374 49 574
	6 96 -19 134 -77 135
	-80 1 -126 -93 -61 -133
	85 -41 133 101 31 105
	23 17 92 37 90 -92
	-10 -223 -39 -342 -50 -617
	0 -90 0 -162 96 -232
	56 72 63 230 22 289
	-74 106 -257 168 -255 316
	9 153 148 185 252 133
	86 -65 29 -192 -80 -176
	-71 12 -105 67 -59 124"/>
<use id="tclef" transform="translate(0,6) scale(0.045)"
	xlink:href="#utclef"/>
</defs>
<use x="22.00" y="53.00" xlink:href="#tclef"/>
<g style="font:bold 16px serif"
	transform="translate(40.50,58.50) scale(1.2,1)">
	<text text-anchor="middle">4</text>
	<text y="-12" text-anchor="middle">4</text>
</g>
<path class="fill"
	d="M61.70 46.80l66.60 0.00v3.20l-66.60 -0.00"/>
<defs>
<path id="hl" class="stroke" d="m-6 0h12"/>
</defs>
<use x="58.50" y="65.00" xlink:href="#hl"/>
<use x="58.50" y="71.00" xlink:href="#hl"/>
<defs>
<ellipse id="hd" rx="4.1" ry="2.9"
	transform="rotate(-20)" class="fill"/>
</defs>
<use x="58.50" y="71.00" xlink:href="#hd"/>
<path d="M62.00 71.00v-23.20" class="stroke"/>
<use x="80.50" y="65.00" xlink:href="#hl"/>
<use x="80.50" y="68.00" xlink:href="#hd"/>
<path d="M84.00 68.00v-20.20" class="stroke"/>
<use x="102.50" y="65.00" xlink:href="#hl"/>
<use x="102.50" y="65.00" xlink:href="#hd"/>
<path d="M106.00 65.00v-17.20" class="stroke"/>
<use x="124.40" y="65.00" xlink:href="#hl"/>
<use x="124.40" y="68.00" xlink:href="#hd"/>
<path d="M127.90 68.00v-20.20" class="stroke"/>
<path class="fill"
	d="M152.00 46.80l66.60 0.00v3.20l-66.60 -0.00"/>
<use x="148.80" y="65.00" xlink:href="#hl"/>
<use x="148.80" y="71.00" xlink:href="#hl"/>
<use x="148.80" y="71.00" xlink:href="#hd"/>
<path d="M152.30 71.00v-23.20" class="stroke"/>
<use x="170.80" y="65.00" xlink:href="#hl"/>
<use x="170.80" y="68.00" xlink:href="#hd"/>
<path d="M174.30 68.00v-20.20" class="stroke"/>
<use x="192.80" y="65.00" xlink:href="#hl"/>
<use x="192.80" y="65.00" xlink:href="#hd"/>
<path d="M196.30 65.00v-17.20" class="stroke"/>
<use x="214.80" y="65.00" xlink:href="#hl"/>
<use x="214.80" y="68.00" xlink:href="#hd"/>
<path d="M218.30 68.00v-20.20" class="stroke"/>
<path class="fill"
	d="M247.60 46.80l66.60 0.00v3.20l-66.60 -0.00"/>
<use x="244.40" y="65.00" xlink:href="#hl"/>
<use x="244.40" y="71.00" xlink:href="#hl"/>
<use x="244.40" y="71.00" xlink:href="#hd"/>
<path d="M247.90 71.00v-23.20" class="stroke"/>
<use x="266.40" y="65.00" xlink:href="#hl"/>
<use x="266.40" y="68.00" xlink:href="#hd"/>
<path d="M269.90 68.00v-20.20" class="stroke"/>
<use x="288.40" y="65.00" xlink:href="#hl"/>
<use x="288.40" y="65.00" xlink:href="#hd"/>
<path d="M291.90 65.00v-17.20" class="stroke"/>
<use x="310.40" y="65.00" xlink:href="#hl"/>
<use x="310.40" y="68.00" xlink:href="#hd"/>
<path d="M313.90 68.00v-20.20" class="stroke"/>
<defs>
<path id="Hd" class="fill" d="m3 -1.6
	c-1 -1.8 -7 1.4 -6 3.2
	1 1.8 7 -1.4 6 -3.2
	m0.5 -0.3
	c2 3.8 -5 7.6 -7 3.8
	-2 -3.8 5 -7.6 7 -3.8"/>
</defs>
<use x="334.80" y="59.00" xlink:href="#Hd"/>
<path d="M338.30 59.00v-21.00" class="stroke"/>
<path class="fill"
	d="M384.50 44.00l66.60 0.00v3.20l-66.60 -0.00"/>
<use x="381.40" y="65.00" xlink:href="#hl"/>
<use x="381.40" y="68.00" xlink:href="#hd"/>
<path d="M384.90 68.00v-23.00" class="stroke"/>
<use x="403.40" y="65.00" xlink:href="#hl"/>
<use x="403.40" y="65.00" xlink:href="#hd"/>
<path d="M406.90 65.00v-20.00" class="stroke"/>
<use x="425.30" y="62.00" xlink:href="#hd"/>
<path d="M428.80 62.00v-17.00" class="stroke"/>
<use x="447.30" y="65.00" xlink:href="#hl"/>
<use x="447.30" y="65.00" xlink:href="#hd"/>
<path d="M450.80 65.00v-20.00" class="stroke"/>
<path class="fill"
	d="M474.80 44.00l66.60 0.00v3.20l-66.60 -0.00"/>
<use x="471.70" y="65.00" xlink:href="#hl"/>
<use x="471.70" y="68.00" xlink:href="#hd"/>
<path d="M475.20 68.00v-23.00" class="stroke"/>
<use x="493.60" y="65.00" xlink:href="#hl"/>
<use x="493.60" y="65.00" xlink:href="#hd"/>
<path d="M497.10 65.00v-20.00" class="stroke"/>
<use x="515.60" y="62.00" xlink:href="#hd"/>
<path d="M519.10 62.00v-17.00" class="stroke"/>
<use x="537.50" y="65.00" xlink:href="#hl"/>
<use x="537.50" y="65.00" xlink:href="#hd"/>
<path d="M541.00 65.00v-20.00" class="stroke"/>
<path class="fill"
	d="M570.40 44.00l66.60 0.00v3.20l-66.60 -0.00"/>
<use x="567.20" y="65.00" xlink:href="#hl"/>
<use x="567.20" y="68.00" xlink:href="#hd"/>
<path d="M570.70 68.00v-23.00" class="stroke"/>
<use x="589.20" y="65.00" xlink:href="#hl"/>
<use x="589.20" y="65.00" xlink:href="#hd"/>
<path d="M592.70 65.00v-20.00" class="stroke"/>
<use x="611.10" y="62.00" xlink:href="#hd"/>
<path d="M614.60 62.00v-17.00" class="stroke"/>
<use x="633.10" y="65.00" xlink:href="#hl"/>
<use x="633.10" y="65.00" xlink:href="#hd"/>
<path d="M636.60 65.00v-20.00" class="stroke"/>
<use x="657.50" y="65.00" xlink:href="#hl"/>
<use x="657.50" y="68.00" xlink:href="#Hd"/>
<path d="M661.00 68.00v-21.00" class="stroke"/>
</g>
<g stroke-width="0.70">
<path class="stroke" stroke-width="1"
	d="M233.00 129.00v-24.00"/>
<path class="stroke" stroke-width="1"
	d="M368.20 129.00v-24.00"/>
<path class="stroke" stroke-width="1"
	d="M551.60 129.00v-24.00"/>
<path class="stroke" stroke-width="1"
	d="M691.60 129.00v-24.00"/>
<path class="stroke" stroke-width="1"
	d="M688.60 129.00v-24.00"/>
<path d="m10.00 129.00
	h681.60
	M10.00 123.00
	h681.60
	M10.00 117.00
	h681.60
	M10.00 111.00
	h681.60
	M10.00 105.00
	h681.60
	" class="stroke"/>
<use x="22.00" y="123.00" xlink:href="#tclef"/>
<defs>
<path id="r8e" class="fill" d="m 0 0
	c-1.5 1.5 -2.4 2 -3.6 2
	2.4 -2.8 -2.8 -4 -2.8 -1.2
	c0 2.7 4.3 2.4 5.9 0.6"/>
<g id="r16">
	<path d="m3.3 -4l-4 15.6" class="stroke"/>
	<use x="3.4" y="-4" xlink:href="#r8e"/>
	<use x="1.9" y="2" xlink:href="#r8e"/>
</g>
</defs>
<use x="46.50" y="117.00" xlink:href="#r16"/>
<path class="fill"
	d="M65.00 116.80l65.70 0.00v3.20l-65.70 -0.00"/>
<use x="61.90" y="135.00" xlink:href="#hl"/>
<use x="61.90" y="141.00" xlink:href="#hl"/>
<use x="61.90" y="141.00" xlink:href="#hd"/>
<path d="M65.40 141.00v-23.20" class="stroke"/>
<use x="83.50" y="135.00" xlink:href="#hl"/>
<use x="83.50" y="138.00" xlink:href="#hd"/>
<path d="M87.00 138.00v-20.20" class="stroke"/>
<use x="105.20" y="135.00" xlink:href="#hl"/>
<use x="105.20" y="135.00" xlink:href="#hd"/>
<path d="M108.70 135.00v-17.20" class="stroke"/>
<use x="126.90" y="135.00" xlink:href="#hl"/>
<use x="126.90" y="138.00" xlink:href="#hd"/>
<path d="M130.40 138.00v-20.20" class="stroke"/>
<path class="fill"
	d="M154.10 116.80l65.70 0.00v3.20l-65.70 -0.00"/>
<use x="151.00" y="135.00" xlink:href="#hl"/>
<use x="151.00" y="141.00" xlink:href="#hl"/>
<use x="151.00" y="141.00" xlink:href="#hd"/>
<path d="M154.50 141.00v-23.20" class="stroke"/>
<use x="172.70" y="135.00" xlink:href="#hl"/>
<use x="172.70" y="138.00" xlink:href="#hd"/>
<path d="M176.20 138.00v-20.20" class="stroke"/>
<use x="194.30" y="135.00" xlink:href="#hl"/>
<use x="194.30" y="135.00" xlink:href="#hd"/>
<path d="M197.80 135.00v-17.20" class="stroke"/>
<use x="216.00" y="135.00" xlink:href="#hl"/>
<use x="216.00" y="138.00" xlink:href="#hd"/>
<path d="M219.50 138.00v-20.20" class="stroke"/>
<path class="fill"
	d="M248.60 116.80l65.70 0.00v3.20l-65.70 -0.00"/>
<use x="245.50" y="135.00" xlink:href="#hl"/>
<use x="245.50" y="141.00" xlink:href="#hl"/>
<use x="245.50" y="141.00" xlink:href="#hd"/>
<path d="M249.00 141.00v-23.20" class="stroke"/>
<use x="267.10" y="135.00" xlink:href="#hl"/>
<use x="267.10" y="138.00" xlink:href="#hd"/>
<path d="M270.60 138.00v-20.20" class="stroke"/>
<use x="288.80" y="135.00" xlink:href="#hl"/>
<use x="288.80" y="135.00" xlink:href="#hd"/>
<path d="M292.30 135.00v-17.20" class="stroke"/>
<use x="310.50" y="135.00" xlink:href="#hl"/>
<use x="310.50" y="138.00" xlink:href="#hd"/>
<path d="M314.00 138.00v-20.20" class="stroke"/>
<use x="334.60" y="129.00" xlink:href="#Hd"/>
<path d="M338.10 129.00v-21.00" class="stroke"/>
<path class="fill"
	d="M383.90 88.80l65.60 0.00v3.20l-65.60 -0.00"/>
<use x="380.70" y="108.00" xlink:href="#hd"/>
<path d="M384.20 108.00v-18.20" class="stroke"/>
<use x="402.40" y="129.00" xlink:href="#hd"/>
<path d="M405.90 129.00v-39.20" class="stroke"/>
<use x="424.00" y="123.00" xlink:href="#hd"/>
<path d="M427.50 123.00v-33.20" class="stroke"/>
<use x="445.70" y="117.00" xlink:href="#hd"/>
<path d="M449.20 117.00v-27.20" class="stroke"/>
<path class="fill"
	d="M472.90 91.80l65.60 5.80v3.20l-65.60 -5.80"/>
<use x="469.70" y="111.00" xlink:href="#hd"/>
<path d="M473.20 111.00v-18.20" class="stroke"/>
<use x="491.40" y="114.00" xlink:href="#hd"/>
<path d="M494.90 114.00v-19.30" class="stroke"/>
<use x="513.00" y="117.00" xlink:href="#hd"/>
<path d="M516.50 117.00v-20.40" class="stroke"/>
<use x="534.70" y="123.00" xlink:href="#hd"/>
<path d="M538.20 123.00v-24.40" class="stroke"/>
<path class="fill"
	d="M567.30 94.40l65.60 -3.90v3.20l-65.60 3.90"/>
<use x="564.10" y="123.00" xlink:href="#hd"/>
<path d="M567.60 123.00v-27.70" class="stroke"/>
<use x="585.80" y="117.00" xlink:href="#hd"/>
<path d="M589.30 117.00v-22.90" class="stroke"/>
<use x="607.40" y="111.00" xlink:href="#hd"/>
<path d="M610.90 111.00v-18.20" class="stroke"/>
<use x="629.10" y="117.00" xlink:href="#hd"/>
<path d="M632.60 117.00v-25.50" class="stroke"/>
<use x="653.20" y="120.00" xlink:href="#Hd"/>
<path d="M656.70 120.00v-21.00" class="stroke"/>
</g>
<g stroke-width="0.70">
<path class="stroke" stroke-width="1"
	d="M192.40 199.00v-24.00"/>
<path class="stroke" stroke-width="1"
	d="M350.80 199.00v-24.00"/>
<path class="stroke" stroke-width="1"
	d="M509.20 199.00v-24.00"/>
<path class="stroke" stroke-width="1"
	d="M691.60 199.00v-24.00"/>
<path d="m10.00 199.00
	h681.60
	M10.00 193.00
	h681.60
	M10.00 187.00
	h681.60
	M10.00 181.00
	h681.60
	M10.00 175.00
	h681.60
	" class="stroke"/>
<use x="22.00" y="193.00" xlink:href="#tclef"/>
<path class="fill"
	d="M42.70 210.10l65.30 -7.10v-3.20l-65.30 7.10"/>
<use x="46.50" y="190.00" xlink:href="#hd"/>
<path d="M43.00 190.00v19.00" class="stroke"/>
<use x="68.00" y="187.00" xlink:href="#hd"/>
<path d="M64.50 187.00v19.70" class="stroke"/>
<use x="89.50" y="184.00" xlink:href="#hd"/>
<path d="M86.00 184.00v20.30" class="stroke"/>
<use x="111.10" y="181.00" xlink:href="#hd"/>
<path d="M107.60 181.00v21.00" class="stroke"/>
<use x="135.00" y="178.00" xlink:href="#hd"/>
<path d="M131.50 178.00v21.00" class="stroke"/>
<defs>
<path id="r4" class="fill" d="m-1 -8.5
	l3.6 5.1 -2.1 5.2 2.2 4.3
	c-2.6 -2.3 -5.1 0 -2.4 2.6
	-4.8 -3 -1.5 -6.9 1.4 -4.1
	l-3.1 -4.5 1.9 -5.1 -1.5 -3.5"/>
</defs>
<use x="168.70" y="187.00" xlink:href="#r4"/>
<path class="fill"
	d="M208.10 171.10l65.30 -7.10v3.20l-65.30 7.10"/>
<use x="204.90" y="193.00" xlink:href="#hd"/>
<path d="M208.40 193.00v-21.00" class="stroke"/>
<use x="226.40" y="190.00" xlink:href="#hd"/>
<path d="M229.90 190.00v-20.30" class="stroke"/>
<use x="247.90" y="187.00" xlink:href="#hd"/>
<path d="M251.40 187.00v-19.70" class="stroke"/>
<use x="269.50" y="184.00" xlink:href="#hd"/>
<path d="M273.00 184.00v-19.00" class="stroke"/>
<use x="293.40" y="181.00" xlink:href="#hd"/>
<path d="M289.90 181.00v21.00" class="stroke"/>
<use x="327.10" y="187.00" xlink:href="#r4"/>
<path class="fill"
	d="M359.50 210.10l65.30 -7.10v-3.20l-65.30 7.10"/>
<use x="363.30" y="190.00" xlink:href="#hd"/>
<path d="M359.80 190.00v19.00" class="stroke"/>
<use x="384.90" y="187.00" xlink:href="#hd"/>
<path d="M381.40 187.00v19.70" class="stroke"/>
<use x="406.40" y="184.00" xlink:href="#hd"/>
<path d="M402.90 184.00v20.30" class="stroke"/>
<use x="427.90" y="181.00" xlink:href="#hd"/>
<path d="M424.40 181.00v21.00" class="stroke"/>
<use x="451.80" y="178.00" xlink:href="#hd"/>
<path d="M448.30 178.00v21.00" class="stroke"/>
<use x="485.50" y="187.00" xlink:href="#r4"/>
<path class="fill"
	d="M517.90 199.20l65.30 0.00v-3.20l-65.30 -0.00"/>
<use x="521.70" y="178.00" xlink:href="#hd"/>
<path d="M518.20 178.00v20.20" class="stroke"/>
<use x="543.20" y="175.00" xlink:href="#hd"/>
<path d="M539.70 175.00v23.20" class="stroke"/>
<use x="564.80" y="178.00" xlink:href="#hd"/>
<path d="M561.30 178.00v20.20" class="stroke"/>
<use x="586.30" y="181.00" xlink:href="#hd"/>
<path d="M582.80 181.00v17.20" class="stroke"/>
<path class="fill"
	d="M606.30 199.90l65.30 7.10v-3.20l-65.30 -7.10"/>
<use x="610.20" y="178.00" xlink:href="#hd"/>
<path d="M606.70 178.00v21.00" class="stroke"/>
<use x="631.70" y="181.00" xlink:href="#hd"/>
<path d="M628.20 181.00v20.30" class="stroke"/>
<use x="653.20" y="184.00" xlink:href="#hd"/>
<path d="M649.70 184.00v19.70" class="stroke"/>
<use x="674.80" y="187.00" xlink:href="#hd"/>
<path d="M671.30 187.00v19.00" class="stroke"/>
</g>
<g stroke-width="0.70">
<path class="stroke" stroke-width="1"
	d="M203.90 269.00v-24.00"/>
<path class="stroke" stroke-width="1"
	d="M374.20 269.00v-24.00"/>
<path class="stroke" stroke-width="1"
	d="M544.50 269.00v-24.00"/>
<path class="stroke" stroke-width="3"
	d="M690.10 269.00v-24.00"/>
<path class="stroke" stroke-width="1"
	d="M685.60 269.00v-24.00"/>
<path d="m10.00 269.00
	h681.60
	M10.00 263.00
	h681.60
	M10.00 257.00
	h681.60
	M10.00 251.00
	h681.60
	M10.00 245.00
	h681.60
	" class="stroke"/>
<use x="22.00" y="263.00" xlink:href="#tclef"/>
<path class="fill"
	d="M42.70 280.10l70.30 -7.20v-3.20l-70.30 7.20"/>
<use x="46.50" y="260.00" xlink:href="#hd"/>
<path d="M43.00 260.00v19.10" class="stroke"/>
<use x="69.70" y="257.00" xlink:href="#hd"/>
<path d="M66.20 257.00v19.70" class="stroke"/>
<use x="92.90" y="254.00" xlink:href="#hd"/>
<path d="M89.40 254.00v20.30" class="stroke"/>
<use x="116.10" y="251.00" xlink:href="#hd"/>
<path d="M112.60 251.00v20.90" class="stroke"/>
<use x="141.90" y="248.00" xlink:href="#hd"/>
<path d="M138.40 248.00v21.00" class="stroke"/>
<use x="178.30" y="257.00" xlink:href="#r4"/>
<path class="fill"
	d="M220.00 241.10l70.30 -7.20v3.20l-70.30 7.20"/>
<use x="216.80" y="263.00" xlink:href="#hd"/>
<path d="M220.30 263.00v-20.90" class="stroke"/>
<use x="240.00" y="260.00" xlink:href="#hd"/>
<path d="M243.50 260.00v-20.30" class="stroke"/>
<use x="263.20" y="257.00" xlink:href="#hd"/>
<path d="M266.70 257.00v-19.70" class="stroke"/>
<use x="286.50" y="254.00" xlink:href="#hd"/>
<path d="M290.00 254.00v-19.10" class="stroke"/>
<use x="312.30" y="251.00" xlink:href="#hd"/>
<path d="M308.80 251.00v21.00" class="stroke"/>
<use x="348.70" y="257.00" xlink:href="#r4"/>
<path class="fill"
	d="M383.30 280.10l70.30 -7.20v-3.20l-70.30 7.20"/>
<use x="387.20" y="260.00" xlink:href="#hd"/>
<path d="M383.70 260.00v19.10" class="stroke"/>
<use x="410.40" y="257.00" xlink:href="#hd"/>
<path d="M406.90 257.00v19.70" class="stroke"/>
<use x="433.60" y="254.00" xlink:href="#hd"/>
<path d="M430.10 254.00v20.30" class="stroke"/>
<use x="456.80" y="251.00" xlink:href="#hd"/>
<path d="M453.30 251.00v20.90" class="stroke"/>
<use x="482.60" y="248.00" xlink:href="#hd"/>
<path d="M479.10 248.00v21.00" class="stroke"/>
<use x="519.00" y="257.00" xlink:href="#r4"/>
<path class="fill"
	d="M553.60 282.20l70.30 0.00v-3.20l-70.30 -0.00"/>
<use x="557.50" y="251.00" xlink:href="#hd"/>
<path d="M554.00 251.00v30.20" class="stroke"/>
<use x="580.70" y="263.00" xlink:href="#hd"/>
<path d="M577.20 263.00v18.20" class="stroke"/>
<use x="603.90" y="251.00" xlink:href="#hd"/>
<path d="M600.40 251.00v30.20" class="stroke"/>
<use x="627.10" y="257.00" xlink:href="#hd"/>
<path d="M623.60 257.00v24.20" class="stroke"/>
<use x="650.30" y="260.00" xlink:href="#Hd"/>
<path d="M653.80 260.00v-21.00" class="stroke"/>
</g>
</svg>
