<?xml version="1.0" standalone="no"?>
<!DOCTYPE svg PUBLIC "-//W3C//DTD SVG 1.1//EN"
	"http://www.w3.org/Graphics/SVG/1.1/DTD/svg11.dtd">
<svg xmlns="http://www.w3.org/2000/svg" version="1.1"
	xmlns:xlink="http://www.w3.org/1999/xlink"
	color="black"
	width="701.60px" height="292.00px">
<style type="text/css">
.fill {fill: currentColor}
.stroke {stroke: currentColor; fill: none}
text{white-space: pre}
</style>
<title>/media/tim/Data1/tims_code/sphinx-tunes/source/_abcfiles/_rats.abc (7) tune 7</title>
<!-- Creator: abcm2ps-8.14.6 -->
<!-- CreationDate: Jul 30, 2023 12:21 -->
<!-- CommandLine: -g /media/tim/Data1/tims_code/sphinx-tunes/source/_abcfiles/_rats.abc -O /media/tim/Data1/tims_code/sphinx-tunes/source/_abcfiles/_rats.svg -->
<g stroke-width="0.70">
<path class="stroke" stroke-width="1"
	d="M107.40 59.00v-24.00"/>
<path class="stroke" stroke-width="1"
	d="M237.40 59.00v-24.00"/>
<path class="stroke" stroke-width="1"
	d="M401.40 59.00v-24.00"/>
<path class="stroke" stroke-width="1"
	d="M527.50 59.00v-24.00"/>
<path class="stroke" stroke-width="1"
	d="M691.60 59.00v-24.00"/>
<path d="m10.00 59.00
	h681.60
	M10.00 53.00
	h681.60
	M10.00 47.00
	h681.60
	M10.00 41.00
	h681.60
	M10.00 35.00
	h681.60
	" class="stroke"/>
<defs>
<path id="utclef" class="fill" d="m-50 -90
	c-72 -41 -72 -158 52 -188
	150 -10 220 188 90 256
	-114 52 -275 0 -293 -136
	-15 -181 93 -229 220 -334
	88 -87 79 -133 62 -210
	-51 33 -94 105 -89 186
	17 267 36 374 49 574
	6 96 -19 134 -77 135
	-80 1 -126 -93 -61 -133
	85 -41 133 101 31 105
	23 17 92 37 90 -92
	-10 -223 -39 -342 -50 -617
	0 -90 0 -162 96 -232
	56 72 63 230 22 289
	-74 106 -257 168 -255 316
	9 153 148 185 252 133
	86 -65 29 -192 -80 -176
	-71 12 -105 67 -59 124"/>
<use id="tclef" transform="translate(0,6) scale(0.045)"
	xlink:href="#utclef"/>
</defs>
<use x="22.00" y="53.00" xlink:href="#tclef"/>
<defs>
<path id="uflat" class="fill" d="
	m100 -746
	h32
	v734
	l-32 4
	m32 -332
	c46 -72 152 -90 208 -20
	100 110 -120 326 -208 348
	m0 -28
	c54 0 200 -206 130 -290
	-50 -60 -130 -4 -130 34"/>
<use id="ft0" transform="translate(-3.5,3.5) scale(0.018)"
	xlink:href="#uflat"/>
</defs>
<use x="37.00" y="47.00" xlink:href="#ft0"/>
<g style="font:bold 16px serif"
	transform="translate(53.00,58.50) scale(1.2,1)">
	<text text-anchor="middle">4</text>
	<text y="-12" text-anchor="middle">4</text>
</g>
<path class="fill"
	d="M67.20 50.30l21.00 2.40v-3.20l-21.00 -2.40"/>
<defs>
<path id="hl" class="stroke" d="m-6 0h12"/>
</defs>
<use x="71.00" y="29.00" xlink:href="#hl"/>
<defs>
<ellipse id="hd" rx="4.1" ry="2.9"
	transform="rotate(-20)" class="fill"/>
</defs>
<use x="71.00" y="29.00" xlink:href="#hd"/>
<path d="M67.50 29.00v20.30" class="stroke"/>
<use x="91.30" y="32.00" xlink:href="#hd"/>
<path d="M87.80 32.00v19.70" class="stroke"/>
<use x="119.90" y="35.00" xlink:href="#hd"/>
<path d="M116.40 35.00v21.00" class="stroke"/>
<use x="151.60" y="41.00" xlink:href="#hd"/>
<path d="M148.10 41.00v21.00" class="stroke"/>
<use x="183.20" y="41.00" xlink:href="#hd"/>
<path d="M179.70 41.00v21.00" class="stroke"/>
<use x="214.90" y="35.00" xlink:href="#hd"/>
<path d="M211.40 35.00v21.00" class="stroke"/>
<path class="fill"
	d="M246.00 62.00l61.60 0.00v-3.20l-61.60 -0.00"/>
<use x="249.90" y="38.00" xlink:href="#hd"/>
<path d="M246.40 38.00v23.00" class="stroke"/>
<use x="270.20" y="41.00" xlink:href="#hd"/>
<path d="M266.70 41.00v20.00" class="stroke"/>
<use x="290.50" y="44.00" xlink:href="#hd"/>
<path d="M287.00 44.00v17.00" class="stroke"/>
<use x="310.90" y="41.00" xlink:href="#hd"/>
<path d="M307.40 41.00v20.00" class="stroke"/>
<use x="333.40" y="38.00" xlink:href="#hd"/>
<path d="M329.90 38.00v21.00" class="stroke"/>
<path class="fill"
	d="M361.20 62.30l21.00 2.40v-3.20l-21.00 -2.40"/>
<use x="365.10" y="41.00" xlink:href="#hd"/>
<path d="M361.60 41.00v20.30" class="stroke"/>
<use x="385.40" y="44.00" xlink:href="#hd"/>
<path d="M381.90 44.00v19.70" class="stroke"/>
<use x="413.90" y="41.00" xlink:href="#hd"/>
<path d="M410.40 41.00v21.00" class="stroke"/>
<use x="442.50" y="50.00" xlink:href="#hd"/>
<path d="M446.00 50.00v-21.00" class="stroke"/>
<use x="474.20" y="50.00" xlink:href="#hd"/>
<circle class="fill" cx="481.90" cy="50.00" r="1.2"/>
<path d="M477.70 50.00v-21.00" class="stroke"/>
<use x="510.50" y="50.00" xlink:href="#hd"/>
<path d="M514.00 50.00v-21.00" class="stroke"/>
<path class="fill"
	d="M514.00 29.00c0.6 5.6 9.6 9 5.6 18.4
	1.6 -6 -1.3 -11.6 -5.6 -12.8
"/>
<path class="fill"
	d="M543.20 34.80l61.60 0.00v3.20l-61.60 -0.00"/>
<use x="540.00" y="53.00" xlink:href="#hd"/>
<path d="M543.50 53.00v-17.20" class="stroke"/>
<use x="560.40" y="56.00" xlink:href="#hd"/>
<path d="M563.90 56.00v-20.20" class="stroke"/>
<use x="580.70" y="59.00" xlink:href="#hd"/>
<path d="M584.20 59.00v-23.20" class="stroke"/>
<use x="601.00" y="56.00" xlink:href="#hd"/>
<path d="M604.50 56.00v-20.20" class="stroke"/>
<use x="623.50" y="53.00" xlink:href="#hd"/>
<path d="M627.00 53.00v-21.00" class="stroke"/>
<path class="fill"
	d="M658.40 35.30l21.00 2.40v3.20l-21.00 -2.40"/>
<use x="655.20" y="56.00" xlink:href="#hd"/>
<path d="M658.70 56.00v-19.70" class="stroke"/>
<use x="675.50" y="59.00" xlink:href="#hd"/>
<path d="M679.00 59.00v-20.30" class="stroke"/>
</g>
<g stroke-width="0.70">
<path class="stroke" stroke-width="1"
	d="M212.20 129.00v-24.00"/>
<path class="stroke" stroke-width="1"
	d="M410.70 129.00v-24.00"/>
<path class="stroke" stroke-width="1"
	d="M608.60 129.00v-24.00"/>
<path class="stroke" stroke-width="1"
	d="M691.60 129.00v-24.00"/>
<path class="stroke" stroke-width="1"
	d="M688.60 129.00v-24.00"/>
<path d="m10.00 129.00
	h681.60
	M10.00 123.00
	h681.60
	M10.00 117.00
	h681.60
	M10.00 111.00
	h681.60
	M10.00 105.00
	h681.60
	" class="stroke"/>
<use x="22.00" y="123.00" xlink:href="#tclef"/>
<use x="37.00" y="117.00" xlink:href="#ft0"/>
<use x="55.00" y="132.00" xlink:href="#hd"/>
<path d="M58.50 132.00v-21.00" class="stroke"/>
<use x="97.50" y="111.00" xlink:href="#hd"/>
<path d="M94.00 111.00v21.00" class="stroke"/>
<use x="140.00" y="111.00" xlink:href="#hd"/>
<path d="M136.50 111.00v21.00" class="stroke"/>
<use x="182.50" y="105.00" xlink:href="#hd"/>
<path d="M179.00 105.00v21.00" class="stroke"/>
<path class="fill"
	d="M223.40 132.00l81.80 0.00v-3.20l-81.80 -0.00"/>
<use x="227.20" y="108.00" xlink:href="#hd"/>
<path d="M223.70 108.00v23.00" class="stroke"/>
<use x="254.30" y="111.00" xlink:href="#hd"/>
<path d="M250.80 111.00v20.00" class="stroke"/>
<use x="281.30" y="114.00" xlink:href="#hd"/>
<path d="M277.80 114.00v17.00" class="stroke"/>
<use x="308.40" y="111.00" xlink:href="#hd"/>
<path d="M304.90 111.00v20.00" class="stroke"/>
<use x="338.40" y="108.00" xlink:href="#hd"/>
<path d="M334.90 108.00v21.00" class="stroke"/>
<use x="380.90" y="108.00" xlink:href="#hd"/>
<path d="M377.40 108.00v21.00" class="stroke"/>
<use x="425.70" y="111.00" xlink:href="#hd"/>
<path d="M422.20 111.00v21.00" class="stroke"/>
<use x="463.90" y="120.00" xlink:href="#hd"/>
<path d="M467.40 120.00v-21.00" class="stroke"/>
<path class="fill"
	d="M509.60 103.80l81.80 6.00v3.20l-81.80 -6.00"/>
<use x="506.40" y="123.00" xlink:href="#hd"/>
<path d="M509.90 123.00v-18.20" class="stroke"/>
<use x="533.50" y="126.00" xlink:href="#hd"/>
<path d="M537.00 126.00v-19.20" class="stroke"/>
<use x="560.50" y="129.00" xlink:href="#hd"/>
<path d="M564.00 129.00v-20.20" class="stroke"/>
<use x="587.60" y="135.00" xlink:href="#hl"/>
<use x="587.60" y="135.00" xlink:href="#hd"/>
<path d="M591.10 135.00v-24.20" class="stroke"/>
<defs>
<path id="HD" class="fill" d="m-2.7 -1.4
	c1.5 -2.8 6.9 0 5.3 2.7
	-1.5 2.8 -6.9 0 -5.3 -2.7
	m8.3 1.4
	c0 -1.5 -2.2 -3 -5.6 -3
	-3.4 0 -5.6 1.5 -5.6 3
	0 1.5 2.2 3 5.6 3
	3.4 0 5.6 -1.5 5.6 -3"/>
</defs>
<use x="624.60" y="132.00" xlink:href="#HD"/>
</g>
<g stroke-width="0.70">
<path class="stroke" stroke-width="1"
	d="M224.70 199.00v-24.00"/>
<path class="stroke" stroke-width="1"
	d="M362.10 199.00v-24.00"/>
<path class="stroke" stroke-width="1"
	d="M560.50 199.00v-24.00"/>
<path class="stroke" stroke-width="1"
	d="M691.60 199.00v-24.00"/>
<path d="m10.00 199.00
	h681.60
	M10.00 193.00
	h681.60
	M10.00 187.00
	h681.60
	M10.00 181.00
	h681.60
	M10.00 175.00
	h681.60
	" class="stroke"/>
<use x="22.00" y="193.00" xlink:href="#tclef"/>
<use x="37.00" y="187.00" xlink:href="#ft0"/>
<use x="55.00" y="169.00" xlink:href="#hl"/>
<use x="55.00" y="169.00" xlink:href="#hd"/>
<path d="M51.50 169.00v21.00" class="stroke"/>
<use x="96.10" y="169.00" xlink:href="#hl"/>
<use x="96.10" y="169.00" xlink:href="#hd"/>
<path d="M92.60 169.00v21.00" class="stroke"/>
<use x="137.20" y="169.00" xlink:href="#hl"/>
<use x="137.20" y="169.00" xlink:href="#hd"/>
<path d="M133.70 169.00v21.00" class="stroke"/>
<path class="fill"
	d="M174.40 193.20l26.80 2.50v-3.20l-26.80 -2.50"/>
<use x="178.20" y="172.00" xlink:href="#hd"/>
<path d="M174.70 172.00v20.30" class="stroke"/>
<use x="204.40" y="175.00" xlink:href="#hd"/>
<path d="M200.90 175.00v19.70" class="stroke"/>
<use x="239.30" y="172.00" xlink:href="#hd"/>
<path d="M235.80 172.00v21.00" class="stroke"/>
<use x="280.40" y="178.00" xlink:href="#hd"/>
<path d="M276.90 178.00v21.00" class="stroke"/>
<defs>
<path id="Hd" class="fill" d="m3 -1.6
	c-1 -1.8 -7 1.4 -6 3.2
	1 1.8 7 -1.4 6 -3.2
	m0.5 -0.3
	c2 3.8 -5 7.6 -7 3.8
	-2 -3.8 5 -7.6 7 -3.8"/>
</defs>
<use x="321.40" y="184.00" xlink:href="#Hd"/>
<path d="M317.90 184.00v21.00" class="stroke"/>
<use x="376.70" y="175.00" xlink:href="#hd"/>
<path d="M373.20 175.00v21.00" class="stroke"/>
<path class="fill"
	d="M413.90 195.80l26.80 -2.50v-3.20l-26.80 2.50"/>
<use x="417.70" y="175.00" xlink:href="#hd"/>
<path d="M414.20 175.00v19.70" class="stroke"/>
<use x="443.90" y="172.00" xlink:href="#hd"/>
<path d="M440.40 172.00v20.30" class="stroke"/>
<use x="473.00" y="175.00" xlink:href="#hd"/>
<path d="M469.50 175.00v21.00" class="stroke"/>
<path class="fill"
	d="M510.20 199.20l26.80 2.50v-3.20l-26.80 -2.50"/>
<use x="514.00" y="178.00" xlink:href="#hd"/>
<path d="M510.50 178.00v20.30" class="stroke"/>
<use x="540.20" y="181.00" xlink:href="#hd"/>
<path d="M536.70 181.00v19.70" class="stroke"/>
<use x="575.10" y="178.00" xlink:href="#hd"/>
<circle class="fill" cx="582.80" cy="178.00" r="1.2"/>
<path d="M571.60 178.00v21.00" class="stroke"/>
<use x="621.80" y="175.00" xlink:href="#hd"/>
<path d="M618.30 175.00v21.00" class="stroke"/>
<path class="fill"
	d="M618.30 196.00c0.6 -5.6 9.6 -9 5.6 -18.4
	1.6 6 -1.3 11.6 -5.6 12.8
"/>
<use x="650.90" y="178.00" xlink:href="#Hd"/>
<path d="M647.40 178.00v21.00" class="stroke"/>
</g>
<g stroke-width="0.70">
<path class="stroke" stroke-width="1"
	d="M228.80 269.00v-24.00"/>
<path class="stroke" stroke-width="1"
	d="M392.20 269.00v-24.00"/>
<path class="stroke" stroke-width="1"
	d="M596.10 269.00v-24.00"/>
<path class="stroke" stroke-width="3"
	d="M690.10 269.00v-24.00"/>
<path class="stroke" stroke-width="1"
	d="M685.60 269.00v-24.00"/>
<path d="m10.00 269.00
	h681.60
	M10.00 263.00
	h681.60
	M10.00 257.00
	h681.60
	M10.00 251.00
	h681.60
	M10.00 245.00
	h681.60
	" class="stroke"/>
<use x="22.00" y="263.00" xlink:href="#tclef"/>
<use x="37.00" y="257.00" xlink:href="#ft0"/>
<use x="55.50" y="251.00" xlink:href="#Hd"/>
<path d="M52.00 251.00v21.00" class="stroke"/>
<use x="124.60" y="251.00" xlink:href="#hd"/>
<path d="M121.10 251.00v21.00" class="stroke"/>
<path class="fill"
	d="M169.70 275.20l31.80 2.60v-3.20l-31.80 -2.60"/>
<use x="173.50" y="254.00" xlink:href="#hd"/>
<path d="M170.00 254.00v20.20" class="stroke"/>
<use x="204.60" y="257.00" xlink:href="#hd"/>
<path d="M201.10 257.00v19.80" class="stroke"/>
<use x="246.10" y="260.00" xlink:href="#hd"/>
<path d="M249.60 260.00v-21.00" class="stroke"/>
<use x="294.90" y="266.00" xlink:href="#hd"/>
<path d="M298.40 266.00v-21.00" class="stroke"/>
<use x="343.80" y="272.00" xlink:href="#Hd"/>
<path d="M347.30 272.00v-21.00" class="stroke"/>
<use x="409.50" y="275.00" xlink:href="#hl"/>
<use x="409.50" y="275.00" xlink:href="#Hd"/>
<path d="M413.00 275.00v-21.00" class="stroke"/>
<path class="fill"
	d="M481.80 250.80l94.00 0.00v3.20l-94.00 -0.00"/>
<use x="478.60" y="275.00" xlink:href="#hl"/>
<use x="478.60" y="275.00" xlink:href="#hd"/>
<path d="M482.10 275.00v-23.20" class="stroke"/>
<use x="509.70" y="275.00" xlink:href="#hl"/>
<use x="509.70" y="281.00" xlink:href="#hl"/>
<use x="509.70" y="281.00" xlink:href="#hd"/>
<path d="M513.20 281.00v-29.20" class="stroke"/>
<use x="540.80" y="275.00" xlink:href="#hl"/>
<use x="540.80" y="275.00" xlink:href="#hd"/>
<path d="M544.30 275.00v-23.20" class="stroke"/>
<use x="571.90" y="269.00" xlink:href="#hd"/>
<path d="M575.40 269.00v-17.20" class="stroke"/>
<use x="614.40" y="272.00" xlink:href="#HD"/>
<path class="fill"
	d="M413.00 275.00c9.17 5.62 52.97 5.62 62.13 -0.00
	v0.26c-11.03 7.36 -51.10 7.36 -62.13 -0.26"/>
</g>
</svg>
