<?xml version="1.0" standalone="no"?>
<!DOCTYPE svg PUBLIC "-//W3C//DTD SVG 1.1//EN"
	"http://www.w3.org/Graphics/SVG/1.1/DTD/svg11.dtd">
<svg xmlns="http://www.w3.org/2000/svg" version="1.1"
	xmlns:xlink="http://www.w3.org/1999/xlink"
	color="black"
	width="701.60px" height="292.00px">
<style type="text/css">
.fill {fill: currentColor}
.stroke {stroke: currentColor; fill: none}
text{white-space: pre}
</style>
<title>/media/tim/Data1/tims_code/sphinx-tunes/source/_abcfiles/_rats.abc (8) tune 8</title>
<!-- Creator: abcm2ps-8.14.6 -->
<!-- CreationDate: Jul 30, 2023 12:21 -->
<!-- CommandLine: -g /media/tim/Data1/tims_code/sphinx-tunes/source/_abcfiles/_rats.abc -O /media/tim/Data1/tims_code/sphinx-tunes/source/_abcfiles/_rats.svg -->
<g stroke-width="0.70">
<path class="stroke" stroke-width="1"
	d="M107.30 59.00v-24.00"/>
<path class="stroke" stroke-width="1"
	d="M236.90 59.00v-24.00"/>
<path class="stroke" stroke-width="1"
	d="M400.30 59.00v-24.00"/>
<path class="stroke" stroke-width="1"
	d="M528.10 59.00v-24.00"/>
<path class="stroke" stroke-width="1"
	d="M691.60 59.00v-24.00"/>
<path d="m10.00 59.00
	h681.60
	M10.00 53.00
	h681.60
	M10.00 47.00
	h681.60
	M10.00 41.00
	h681.60
	M10.00 35.00
	h681.60
	" class="stroke"/>
<defs>
<path id="utclef" class="fill" d="m-50 -90
	c-72 -41 -72 -158 52 -188
	150 -10 220 188 90 256
	-114 52 -275 0 -293 -136
	-15 -181 93 -229 220 -334
	88 -87 79 -133 62 -210
	-51 33 -94 105 -89 186
	17 267 36 374 49 574
	6 96 -19 134 -77 135
	-80 1 -126 -93 -61 -133
	85 -41 133 101 31 105
	23 17 92 37 90 -92
	-10 -223 -39 -342 -50 -617
	0 -90 0 -162 96 -232
	56 72 63 230 22 289
	-74 106 -257 168 -255 316
	9 153 148 185 252 133
	86 -65 29 -192 -80 -176
	-71 12 -105 67 -59 124"/>
<use id="tclef" transform="translate(0,6) scale(0.045)"
	xlink:href="#utclef"/>
</defs>
<use x="22.00" y="53.00" xlink:href="#tclef"/>
<defs>
<path id="usharp" class="fill" d="
	m136 -702
	v890
	h32
	v-890
	m128 840
	h32
	v-888
	h-32
	m-232 286
	v116
	l338 -96
	v-116
	m-338 442
	v116
	l338 -98
	v-114"/>
<use id="sh0" transform="translate(-4,5) scale(0.018)"
	xlink:href="#usharp"/>
</defs>
<use x="37.00" y="35.00" xlink:href="#sh0"/>
<g style="font:bold 16px serif"
	transform="translate(53.00,58.50) scale(1.2,1)">
	<text text-anchor="middle">4</text>
	<text y="-12" text-anchor="middle">4</text>
</g>
<path class="fill"
	d="M67.20 47.30l21.00 2.40v-3.20l-21.00 -2.40"/>
<defs>
<path id="hl" class="stroke" d="m-6 0h12"/>
</defs>
<use x="71.00" y="29.00" xlink:href="#hl"/>
<defs>
<ellipse id="hd" rx="4.1" ry="2.9"
	transform="rotate(-20)" class="fill"/>
</defs>
<use x="71.00" y="26.00" xlink:href="#hd"/>
<path d="M67.50 26.00v20.30" class="stroke"/>
<use x="91.30" y="29.00" xlink:href="#hl"/>
<use x="91.30" y="29.00" xlink:href="#hd"/>
<path d="M87.80 29.00v19.70" class="stroke"/>
<use x="119.80" y="32.00" xlink:href="#hd"/>
<path d="M116.30 32.00v21.00" class="stroke"/>
<use x="151.40" y="38.00" xlink:href="#hd"/>
<path d="M147.90 38.00v21.00" class="stroke"/>
<use x="182.90" y="38.00" xlink:href="#hd"/>
<path d="M179.40 38.00v21.00" class="stroke"/>
<use x="214.50" y="32.00" xlink:href="#hd"/>
<path d="M211.00 32.00v21.00" class="stroke"/>
<path class="fill"
	d="M245.50 59.20l61.40 0.00v-3.20l-61.40 -0.00"/>
<use x="249.40" y="35.00" xlink:href="#hd"/>
<path d="M245.90 35.00v23.20" class="stroke"/>
<use x="269.60" y="38.00" xlink:href="#hd"/>
<path d="M266.10 38.00v20.20" class="stroke"/>
<use x="289.80" y="41.00" xlink:href="#hd"/>
<path d="M286.30 41.00v17.20" class="stroke"/>
<use x="310.10" y="38.00" xlink:href="#hd"/>
<path d="M306.60 38.00v20.20" class="stroke"/>
<use x="332.50" y="35.00" xlink:href="#hd"/>
<path d="M329.00 35.00v21.00" class="stroke"/>
<path class="fill"
	d="M360.20 59.30l20.90 2.40v-3.20l-20.90 -2.40"/>
<use x="364.10" y="38.00" xlink:href="#hd"/>
<path d="M360.60 38.00v20.30" class="stroke"/>
<use x="384.30" y="41.00" xlink:href="#hd"/>
<path d="M380.80 41.00v19.70" class="stroke"/>
<use x="412.80" y="38.00" xlink:href="#hd"/>
<path d="M409.30 38.00v21.00" class="stroke"/>
<use x="444.40" y="47.00" xlink:href="#hd"/>
<path d="M440.90 47.00v21.00" class="stroke"/>
<use x="475.90" y="47.00" xlink:href="#hd"/>
<circle class="fill" cx="483.60" cy="44.00" r="1.2"/>
<path d="M472.40 47.00v21.00" class="stroke"/>
<use x="512.10" y="47.00" xlink:href="#hd"/>
<path d="M508.60 47.00v21.00" class="stroke"/>
<path class="fill"
	d="M508.60 68.00c0.6 -5.6 9.6 -9 5.6 -18.4
	1.6 6 -1.3 11.6 -5.6 12.8
"/>
<path class="fill"
	d="M543.80 32.00l61.40 0.00v3.20l-61.40 -0.00"/>
<use x="540.60" y="50.00" xlink:href="#hd"/>
<path d="M544.10 50.00v-17.00" class="stroke"/>
<use x="560.90" y="53.00" xlink:href="#hd"/>
<path d="M564.40 53.00v-20.00" class="stroke"/>
<use x="581.10" y="56.00" xlink:href="#hd"/>
<path d="M584.60 56.00v-23.00" class="stroke"/>
<use x="601.40" y="53.00" xlink:href="#hd"/>
<path d="M604.90 53.00v-20.00" class="stroke"/>
<use x="623.80" y="50.00" xlink:href="#hd"/>
<path d="M627.30 50.00v-21.00" class="stroke"/>
<path class="fill"
	d="M658.50 32.30l20.90 2.40v3.20l-20.90 -2.40"/>
<use x="655.40" y="53.00" xlink:href="#hd"/>
<path d="M658.90 53.00v-19.70" class="stroke"/>
<use x="675.60" y="56.00" xlink:href="#hd"/>
<path d="M679.10 56.00v-20.30" class="stroke"/>
</g>
<g stroke-width="0.70">
<path class="stroke" stroke-width="1"
	d="M212.20 129.00v-24.00"/>
<path class="stroke" stroke-width="1"
	d="M410.70 129.00v-24.00"/>
<path class="stroke" stroke-width="1"
	d="M608.60 129.00v-24.00"/>
<path class="stroke" stroke-width="1"
	d="M691.60 129.00v-24.00"/>
<path class="stroke" stroke-width="1"
	d="M688.60 129.00v-24.00"/>
<path d="m10.00 129.00
	h681.60
	M10.00 123.00
	h681.60
	M10.00 117.00
	h681.60
	M10.00 111.00
	h681.60
	M10.00 105.00
	h681.60
	" class="stroke"/>
<use x="22.00" y="123.00" xlink:href="#tclef"/>
<use x="37.00" y="105.00" xlink:href="#sh0"/>
<use x="55.00" y="129.00" xlink:href="#hd"/>
<path d="M58.50 129.00v-21.00" class="stroke"/>
<use x="97.50" y="108.00" xlink:href="#hd"/>
<path d="M94.00 108.00v21.00" class="stroke"/>
<use x="140.00" y="108.00" xlink:href="#hd"/>
<path d="M136.50 108.00v21.00" class="stroke"/>
<use x="182.50" y="102.00" xlink:href="#hd"/>
<path d="M179.00 102.00v21.00" class="stroke"/>
<path class="fill"
	d="M223.40 129.20l81.80 0.00v-3.20l-81.80 -0.00"/>
<use x="227.20" y="105.00" xlink:href="#hd"/>
<path d="M223.70 105.00v23.20" class="stroke"/>
<use x="254.30" y="108.00" xlink:href="#hd"/>
<path d="M250.80 108.00v20.20" class="stroke"/>
<use x="281.30" y="111.00" xlink:href="#hd"/>
<path d="M277.80 111.00v17.20" class="stroke"/>
<use x="308.40" y="108.00" xlink:href="#hd"/>
<path d="M304.90 108.00v20.20" class="stroke"/>
<use x="338.40" y="105.00" xlink:href="#hd"/>
<path d="M334.90 105.00v21.00" class="stroke"/>
<use x="380.90" y="105.00" xlink:href="#hd"/>
<path d="M377.40 105.00v21.00" class="stroke"/>
<use x="425.70" y="108.00" xlink:href="#hd"/>
<path d="M422.20 108.00v21.00" class="stroke"/>
<use x="468.20" y="117.00" xlink:href="#hd"/>
<path d="M464.70 117.00v21.00" class="stroke"/>
<path class="fill"
	d="M509.60 100.80l81.80 6.00v3.20l-81.80 -6.00"/>
<use x="506.40" y="120.00" xlink:href="#hd"/>
<path d="M509.90 120.00v-18.20" class="stroke"/>
<use x="533.50" y="123.00" xlink:href="#hd"/>
<path d="M537.00 123.00v-19.20" class="stroke"/>
<use x="560.50" y="126.00" xlink:href="#hd"/>
<path d="M564.00 126.00v-20.20" class="stroke"/>
<use x="587.60" y="132.00" xlink:href="#hd"/>
<path d="M591.10 132.00v-24.20" class="stroke"/>
<defs>
<path id="HD" class="fill" d="m-2.7 -1.4
	c1.5 -2.8 6.9 0 5.3 2.7
	-1.5 2.8 -6.9 0 -5.3 -2.7
	m8.3 1.4
	c0 -1.5 -2.2 -3 -5.6 -3
	-3.4 0 -5.6 1.5 -5.6 3
	0 1.5 2.2 3 5.6 3
	3.4 0 5.6 -1.5 5.6 -3"/>
</defs>
<use x="624.60" y="129.00" xlink:href="#HD"/>
</g>
<g stroke-width="0.70">
<path class="stroke" stroke-width="1"
	d="M224.70 199.00v-24.00"/>
<path class="stroke" stroke-width="1"
	d="M362.10 199.00v-24.00"/>
<path class="stroke" stroke-width="1"
	d="M560.50 199.00v-24.00"/>
<path class="stroke" stroke-width="1"
	d="M691.60 199.00v-24.00"/>
<path d="m10.00 199.00
	h681.60
	M10.00 193.00
	h681.60
	M10.00 187.00
	h681.60
	M10.00 181.00
	h681.60
	M10.00 175.00
	h681.60
	" class="stroke"/>
<use x="22.00" y="193.00" xlink:href="#tclef"/>
<use x="37.00" y="175.00" xlink:href="#sh0"/>
<use x="55.00" y="169.00" xlink:href="#hl"/>
<use x="55.00" y="166.00" xlink:href="#hd"/>
<path d="M51.50 166.00v21.00" class="stroke"/>
<use x="96.10" y="169.00" xlink:href="#hl"/>
<use x="96.10" y="166.00" xlink:href="#hd"/>
<path d="M92.60 166.00v21.00" class="stroke"/>
<use x="137.20" y="169.00" xlink:href="#hl"/>
<use x="137.20" y="166.00" xlink:href="#hd"/>
<path d="M133.70 166.00v21.00" class="stroke"/>
<path class="fill"
	d="M174.40 190.20l26.80 2.50v-3.20l-26.80 -2.50"/>
<use x="178.20" y="169.00" xlink:href="#hl"/>
<use x="178.20" y="169.00" xlink:href="#hd"/>
<path d="M174.70 169.00v20.30" class="stroke"/>
<use x="204.40" y="172.00" xlink:href="#hd"/>
<path d="M200.90 172.00v19.70" class="stroke"/>
<use x="239.30" y="169.00" xlink:href="#hl"/>
<use x="239.30" y="169.00" xlink:href="#hd"/>
<path d="M235.80 169.00v21.00" class="stroke"/>
<use x="280.40" y="175.00" xlink:href="#hd"/>
<path d="M276.90 175.00v21.00" class="stroke"/>
<defs>
<path id="Hd" class="fill" d="m3 -1.6
	c-1 -1.8 -7 1.4 -6 3.2
	1 1.8 7 -1.4 6 -3.2
	m0.5 -0.3
	c2 3.8 -5 7.6 -7 3.8
	-2 -3.8 5 -7.6 7 -3.8"/>
</defs>
<use x="321.40" y="181.00" xlink:href="#Hd"/>
<path d="M317.90 181.00v21.00" class="stroke"/>
<use x="376.70" y="172.00" xlink:href="#hd"/>
<path d="M373.20 172.00v21.00" class="stroke"/>
<path class="fill"
	d="M413.90 192.80l26.80 -2.50v-3.20l-26.80 2.50"/>
<use x="417.70" y="172.00" xlink:href="#hd"/>
<path d="M414.20 172.00v19.70" class="stroke"/>
<use x="443.90" y="169.00" xlink:href="#hl"/>
<use x="443.90" y="169.00" xlink:href="#hd"/>
<path d="M440.40 169.00v20.30" class="stroke"/>
<use x="473.00" y="172.00" xlink:href="#hd"/>
<path d="M469.50 172.00v21.00" class="stroke"/>
<path class="fill"
	d="M510.20 196.20l26.80 2.50v-3.20l-26.80 -2.50"/>
<use x="514.00" y="175.00" xlink:href="#hd"/>
<path d="M510.50 175.00v20.30" class="stroke"/>
<use x="540.20" y="178.00" xlink:href="#hd"/>
<path d="M536.70 178.00v19.70" class="stroke"/>
<use x="575.10" y="175.00" xlink:href="#hd"/>
<circle class="fill" cx="582.80" cy="172.00" r="1.2"/>
<path d="M571.60 175.00v21.00" class="stroke"/>
<use x="621.80" y="172.00" xlink:href="#hd"/>
<path d="M618.30 172.00v21.00" class="stroke"/>
<path class="fill"
	d="M618.30 193.00c0.6 -5.6 9.6 -9 5.6 -18.4
	1.6 6 -1.3 11.6 -5.6 12.8
"/>
<use x="650.90" y="175.00" xlink:href="#Hd"/>
<path d="M647.40 175.00v21.00" class="stroke"/>
</g>
<g stroke-width="0.70">
<path class="stroke" stroke-width="1"
	d="M230.10 269.00v-24.00"/>
<path class="stroke" stroke-width="1"
	d="M389.90 269.00v-24.00"/>
<path class="stroke" stroke-width="1"
	d="M595.40 269.00v-24.00"/>
<path class="stroke" stroke-width="3"
	d="M690.10 269.00v-24.00"/>
<path class="stroke" stroke-width="1"
	d="M685.60 269.00v-24.00"/>
<path d="m10.00 269.00
	h681.60
	M10.00 263.00
	h681.60
	M10.00 257.00
	h681.60
	M10.00 251.00
	h681.60
	M10.00 245.00
	h681.60
	" class="stroke"/>
<use x="22.00" y="263.00" xlink:href="#tclef"/>
<use x="37.00" y="245.00" xlink:href="#sh0"/>
<use x="55.50" y="248.00" xlink:href="#Hd"/>
<path d="M52.00 248.00v21.00" class="stroke"/>
<use x="125.20" y="248.00" xlink:href="#hd"/>
<path d="M121.70 248.00v21.00" class="stroke"/>
<path class="fill"
	d="M170.60 272.20l32.00 2.60v-3.20l-32.00 -2.60"/>
<use x="174.40" y="251.00" xlink:href="#hd"/>
<path d="M170.90 251.00v20.20" class="stroke"/>
<use x="205.80" y="254.00" xlink:href="#hd"/>
<path d="M202.30 254.00v19.80" class="stroke"/>
<use x="247.60" y="257.00" xlink:href="#hd"/>
<path d="M244.10 257.00v21.00" class="stroke"/>
<use x="291.90" y="263.00" xlink:href="#hd"/>
<path d="M295.40 263.00v-21.00" class="stroke"/>
<use x="341.10" y="269.00" xlink:href="#Hd"/>
<path d="M344.60 269.00v-21.00" class="stroke"/>
<use x="407.30" y="272.00" xlink:href="#Hd"/>
<path d="M410.80 272.00v-21.00" class="stroke"/>
<path class="fill"
	d="M480.10 250.80l94.70 -4.00v3.20l-94.70 4.00"/>
<use x="477.00" y="272.00" xlink:href="#hd"/>
<path d="M480.50 272.00v-20.20" class="stroke"/>
<use x="508.30" y="275.00" xlink:href="#hl"/>
<use x="508.30" y="278.00" xlink:href="#hd"/>
<path d="M511.80 278.00v-27.60" class="stroke"/>
<use x="539.70" y="272.00" xlink:href="#hd"/>
<path d="M543.20 272.00v-22.90" class="stroke"/>
<use x="571.00" y="266.00" xlink:href="#hd"/>
<path d="M574.50 266.00v-18.20" class="stroke"/>
<use x="613.80" y="269.00" xlink:href="#HD"/>
<path class="fill"
	d="M410.80 272.00c9.23 5.63 53.44 5.63 62.67 -0.00
	v0.26c-11.11 7.37 -51.56 7.37 -62.67 -0.26"/>
</g>
</svg>
