<?xml version="1.0" standalone="no"?>
<!DOCTYPE svg PUBLIC "-//W3C//DTD SVG 1.1//EN"
	"http://www.w3.org/Graphics/SVG/1.1/DTD/svg11.dtd">
<svg xmlns="http://www.w3.org/2000/svg" version="1.1"
	xmlns:xlink="http://www.w3.org/1999/xlink"
	color="black"
	width="701.60px" height="96.00px">
<style type="text/css">
.fill {fill: currentColor}
.stroke {stroke: currentColor; fill: none}
text{white-space: pre}
</style>
<title>/media/tim/Data1/tims_code/sphinx-tunes/source/_abcfiles/_Sweet Child O&apos; (2) tune 1</title>
<!-- Creator: abcm2ps-8.14.6 -->
<!-- CreationDate: Jul 30, 2023 12:21 -->
<!-- CommandLine: -g '/media/tim/Data1/tims_code/sphinx-tunes/source/_abcfiles/_Sweet Child O' Mine.abc' -O '/media/tim/Data1/tims_code/sphinx-tunes/source/_abcfiles/_Sweet Child O' Mine.svg' -->
<g stroke-width="0.70" style="font:italic 14.00px Times">
<text x="691.60" y="20.00" text-anchor="end">Axel Rose</text>
</g>
<g stroke-width="0.70" style="font:italic 14.00px Times">
<path class="stroke" stroke-width="1"
	d="M220.90 73.00v-24.00"/>
<path class="stroke" stroke-width="1"
	d="M377.80 73.00v-24.00"/>
<path class="stroke" stroke-width="1"
	d="M534.70 73.00v-24.00"/>
<path class="stroke" stroke-width="1"
	d="M691.60 73.00v-24.00"/>
<path d="m10.00 73.00
	h681.60
	M10.00 67.00
	h681.60
	M10.00 61.00
	h681.60
	M10.00 55.00
	h681.60
	M10.00 49.00
	h681.60
	" class="stroke"/>
<defs>
<path id="utclef" class="fill" d="m-50 -90
	c-72 -41 -72 -158 52 -188
	150 -10 220 188 90 256
	-114 52 -275 0 -293 -136
	-15 -181 93 -229 220 -334
	88 -87 79 -133 62 -210
	-51 33 -94 105 -89 186
	17 267 36 374 49 574
	6 96 -19 134 -77 135
	-80 1 -126 -93 -61 -133
	85 -41 133 101 31 105
	23 17 92 37 90 -92
	-10 -223 -39 -342 -50 -617
	0 -90 0 -162 96 -232
	56 72 63 230 22 289
	-74 106 -257 168 -255 316
	9 153 148 185 252 133
	86 -65 29 -192 -80 -176
	-71 12 -105 67 -59 124"/>
<use id="tclef" transform="translate(0,6) scale(0.045)"
	xlink:href="#utclef"/>
</defs>
<use x="22.00" y="67.00" xlink:href="#tclef"/>
<defs>
<path id="usharp" class="fill" d="
	m136 -702
	v890
	h32
	v-890
	m128 840
	h32
	v-888
	h-32
	m-232 286
	v116
	l338 -96
	v-116
	m-338 442
	v116
	l338 -98
	v-114"/>
<use id="sh0" transform="translate(-4,5) scale(0.018)"
	xlink:href="#usharp"/>
</defs>
<use x="37.00" y="49.00" xlink:href="#sh0"/>
<use x="42.50" y="58.00" xlink:href="#sh0"/>
<g style="font:bold 16px serif"
	transform="translate(58.50,72.50) scale(1.2,1)">
	<text text-anchor="middle">4</text>
	<text y="-12" text-anchor="middle">4</text>
</g>
<defs>
<path id="r8e" class="fill" d="m 0 0
	c-1.5 1.5 -2.4 2 -3.6 2
	2.4 -2.8 -2.8 -4 -2.8 -1.2
	c0 2.7 4.3 2.4 5.9 0.6"/>
<g id="r8">
	<path d="m3.3 -4l-3.4 9.6" class="stroke"/>
	<use x="3.4" y="-4" xlink:href="#r8e"/>
</g>
</defs>
<use x="76.50" y="61.00" xlink:href="#r8"/>
<path class="fill"
	d="M92.60 81.00l36.70 5.20v-3.20l-36.70 -5.20"/>
<defs>
<ellipse id="hd" rx="4.1" ry="2.9"
	transform="rotate(-20)" class="fill"/>
</defs>
<use x="96.40" y="55.00" xlink:href="#hd"/>
<path d="M92.90 55.00v25.10" class="stroke"/>
<use x="114.50" y="64.00" xlink:href="#hd"/>
<path d="M111.00 64.00v18.60" class="stroke"/>
<use x="132.50" y="67.00" xlink:href="#hd"/>
<path d="M129.00 67.00v18.20" class="stroke"/>
<path class="fill"
	d="M148.60 81.30l54.70 5.60v-3.20l-54.70 -5.60"/>
<use x="152.40" y="46.00" xlink:href="#hd"/>
<path d="M148.90 46.00v34.30" class="stroke"/>
<use x="170.40" y="64.00" xlink:href="#hd"/>
<path d="M166.90 64.00v18.20" class="stroke"/>
<use x="188.40" y="49.00" xlink:href="#hd"/>
<path d="M184.90 49.00v35.10" class="stroke"/>
<use x="206.50" y="64.00" xlink:href="#hd"/>
<path d="M203.00 64.00v21.90" class="stroke"/>
<use x="233.40" y="61.00" xlink:href="#r8"/>
<path class="fill"
	d="M249.50 81.00l36.70 5.20v-3.20l-36.70 -5.20"/>
<use x="253.30" y="55.00" xlink:href="#hd"/>
<path d="M249.80 55.00v25.10" class="stroke"/>
<use x="271.40" y="64.00" xlink:href="#hd"/>
<path d="M267.90 64.00v18.60" class="stroke"/>
<use x="289.40" y="67.00" xlink:href="#hd"/>
<path d="M285.90 67.00v18.20" class="stroke"/>
<path class="fill"
	d="M305.50 81.30l54.70 5.60v-3.20l-54.70 -5.60"/>
<use x="309.30" y="46.00" xlink:href="#hd"/>
<path d="M305.80 46.00v34.30" class="stroke"/>
<use x="327.30" y="64.00" xlink:href="#hd"/>
<path d="M323.80 64.00v18.20" class="stroke"/>
<use x="345.30" y="49.00" xlink:href="#hd"/>
<path d="M341.80 49.00v35.10" class="stroke"/>
<use x="363.40" y="64.00" xlink:href="#hd"/>
<path d="M359.90 64.00v21.90" class="stroke"/>
<use x="390.30" y="61.00" xlink:href="#r8"/>
<path class="fill"
	d="M406.40 81.00l36.70 5.20v-3.20l-36.70 -5.20"/>
<use x="410.20" y="55.00" xlink:href="#hd"/>
<path d="M406.70 55.00v25.10" class="stroke"/>
<use x="428.30" y="64.00" xlink:href="#hd"/>
<path d="M424.80 64.00v18.60" class="stroke"/>
<use x="446.30" y="67.00" xlink:href="#hd"/>
<path d="M442.80 67.00v18.20" class="stroke"/>
<path class="fill"
	d="M462.40 81.30l54.70 5.60v-3.20l-54.70 -5.60"/>
<use x="466.20" y="46.00" xlink:href="#hd"/>
<path d="M462.70 46.00v34.30" class="stroke"/>
<use x="484.20" y="64.00" xlink:href="#hd"/>
<path d="M480.70 64.00v18.20" class="stroke"/>
<use x="502.20" y="49.00" xlink:href="#hd"/>
<path d="M498.70 49.00v35.10" class="stroke"/>
<use x="520.30" y="64.00" xlink:href="#hd"/>
<path d="M516.80 64.00v21.90" class="stroke"/>
<use x="547.20" y="61.00" xlink:href="#r8"/>
<path class="fill"
	d="M563.30 81.00l36.70 5.20v-3.20l-36.70 -5.20"/>
<use x="567.10" y="55.00" xlink:href="#hd"/>
<path d="M563.60 55.00v25.10" class="stroke"/>
<use x="585.20" y="64.00" xlink:href="#hd"/>
<path d="M581.70 64.00v18.60" class="stroke"/>
<use x="603.20" y="67.00" xlink:href="#hd"/>
<path d="M599.70 67.00v18.20" class="stroke"/>
<path class="fill"
	d="M619.30 81.30l54.70 5.60v-3.20l-54.70 -5.60"/>
<use x="623.10" y="46.00" xlink:href="#hd"/>
<path d="M619.60 46.00v34.30" class="stroke"/>
<use x="641.10" y="64.00" xlink:href="#hd"/>
<path d="M637.60 64.00v18.20" class="stroke"/>
<use x="659.10" y="49.00" xlink:href="#hd"/>
<path d="M655.60 49.00v35.10" class="stroke"/>
<use x="677.20" y="64.00" xlink:href="#hd"/>
<path d="M673.70 64.00v21.90" class="stroke"/>
</g>
</svg>
