<?xml version="1.0" standalone="no"?>
<!DOCTYPE svg PUBLIC "-//W3C//DTD SVG 1.1//EN"
	"http://www.w3.org/Graphics/SVG/1.1/DTD/svg11.dtd">
<svg xmlns="http://www.w3.org/2000/svg" version="1.1"
	xmlns:xlink="http://www.w3.org/1999/xlink"
	color="black"
	width="701.60px" height="106.00px">
<style type="text/css">
.fill {fill: currentColor}
.stroke {stroke: currentColor; fill: none}
text{white-space: pre}
</style>
<title>/media/tim/Data1/tims_code/sphinx-tunes/source/_abcfiles/_theory_sheet.a (4) tune 5</title>
<!-- Creator: abcm2ps-8.14.6 -->
<!-- CreationDate: Jul 30, 2023 12:21 -->
<!-- CommandLine: -g /media/tim/Data1/tims_code/sphinx-tunes/source/_abcfiles/_theory_sheet.abc -O /media/tim/Data1/tims_code/sphinx-tunes/source/_abcfiles/_theory_sheet.svg -->
<g stroke-width="0.70" style="font:16.00px Times">
<text x="10.00" y="29.60">(A Minor)</text>
</g>
<g stroke-width="0.70" style="font:16.00px Times">
<path class="stroke" stroke-width="1"
	d="M119.60 83.00v-24.00"/>
<path class="stroke" stroke-width="1"
	d="M471.10 83.00v-24.00"/>
<path class="stroke" stroke-width="1"
	d="M691.60 83.00v-24.00"/>
<path d="m10.00 83.00
	h681.60
	M10.00 77.00
	h681.60
	M10.00 71.00
	h681.60
	M10.00 65.00
	h681.60
	M10.00 59.00
	h681.60
	" class="stroke"/>
</g>
<g stroke-width="0.70" style="font:12.00px Helvetica">
<text x="259.80" y="50.60">R4</text>
<defs>
<path id="utclef" class="fill" d="m-50 -90
	c-72 -41 -72 -158 52 -188
	150 -10 220 188 90 256
	-114 52 -275 0 -293 -136
	-15 -181 93 -229 220 -334
	88 -87 79 -133 62 -210
	-51 33 -94 105 -89 186
	17 267 36 374 49 574
	6 96 -19 134 -77 135
	-80 1 -126 -93 -61 -133
	85 -41 133 101 31 105
	23 17 92 37 90 -92
	-10 -223 -39 -342 -50 -617
	0 -90 0 -162 96 -232
	56 72 63 230 22 289
	-74 106 -257 168 -255 316
	9 153 148 185 252 133
	86 -65 29 -192 -80 -176
	-71 12 -105 67 -59 124"/>
<use id="tclef" transform="translate(0,6) scale(0.045)"
	xlink:href="#utclef"/>
</defs>
<use x="22.00" y="77.00" xlink:href="#tclef"/>
<g style="font:bold 16px serif"
	transform="translate(40.50,82.50) scale(1.2,1)">
	<text text-anchor="middle">4</text>
	<text y="-12" text-anchor="middle">4</text>
</g>
<defs>
<rect id="r1" class="fill"
	x="-3.5" y="-6" width="7" height="3"/>
</defs>
<use x="80.00" y="71.00" xlink:href="#r1"/>
<defs>
<path id="hl" class="stroke" d="m-6 0h12"/>
</defs>
<use x="135.00" y="89.00" xlink:href="#hl"/>
<defs>
<ellipse id="hd" rx="4.1" ry="2.9"
	transform="rotate(-20)" class="fill"/>
</defs>
<use x="135.00" y="89.00" xlink:href="#hd"/>
<path d="M138.50 89.00v-21.00" class="stroke"/>
<use x="178.70" y="86.00" xlink:href="#hd"/>
<path d="M182.20 86.00v-21.00" class="stroke"/>
<use x="222.30" y="83.00" xlink:href="#hd"/>
<path d="M225.80 83.00v-21.00" class="stroke"/>
<use x="266.00" y="80.00" xlink:href="#hd"/>
<path d="M269.50 80.00v-21.00" class="stroke"/>
<use x="309.60" y="77.00" xlink:href="#hd"/>
<path d="M313.10 77.00v-21.00" class="stroke"/>
<use x="353.20" y="74.00" xlink:href="#hd"/>
<path d="M356.70 74.00v-21.00" class="stroke"/>
<use x="396.90" y="71.00" xlink:href="#hd"/>
<path d="M400.40 71.00v-21.00" class="stroke"/>
<use x="440.50" y="68.00" xlink:href="#hd"/>
<path d="M437.00 68.00v21.00" class="stroke"/>
<use x="486.50" y="65.00" xlink:href="#hd"/>
<path d="M483.00 65.00v21.00" class="stroke"/>
<use x="530.10" y="62.00" xlink:href="#hd"/>
<path d="M526.60 62.00v21.00" class="stroke"/>
<use x="573.80" y="59.00" xlink:href="#hd"/>
<path d="M570.30 59.00v21.00" class="stroke"/>
<use x="617.40" y="56.00" xlink:href="#hd"/>
<path d="M613.90 56.00v21.00" class="stroke"/>
<use x="661.10" y="53.00" xlink:href="#hl"/>
<use x="661.10" y="53.00" xlink:href="#hd"/>
<path d="M657.60 53.00v21.00" class="stroke"/>
</g>
</svg>
