<?xml version="1.0" standalone="no"?>
<!DOCTYPE svg PUBLIC "-//W3C//DTD SVG 1.1//EN"
	"http://www.w3.org/Graphics/SVG/1.1/DTD/svg11.dtd">
<svg xmlns="http://www.w3.org/2000/svg" version="1.1"
	xmlns:xlink="http://www.w3.org/1999/xlink"
	color="black"
	width="701.60px" height="292.00px">
<style type="text/css">
.fill {fill: currentColor}
.stroke {stroke: currentColor; fill: none}
text{white-space: pre}
</style>
<title>/media/tim/Data1/tims_code/sphinx-tunes/source/_abcfiles/_The Lakes of P (1) tune 1</title>
<!-- Creator: abcm2ps-8.14.6 -->
<!-- CreationDate: Jul 30, 2023 12:21 -->
<!-- CommandLine: -g '/media/tim/Data1/tims_code/sphinx-tunes/source/_abcfiles/_The Lakes of Ponchartrain.abc' -O '/media/tim/Data1/tims_code/sphinx-tunes/source/_abcfiles/_The Lakes of Ponchartrain.svg' -->
<g stroke-width="0.70">
<defs>
<g id="rdots" class="fill">
	<circle cx="0" cy="-9" r="1.2"/>
	<circle cx="0" cy="-15" r="1.2"/>
</g>
</defs>
<use x="81.50" y="59.00" xlink:href="#rdots"/>
<path class="stroke" stroke-width="1"
	d="M77.50 59.00v-24.00"/>
<path class="stroke" stroke-width="3"
	d="M73.00 59.00v-24.00"/>
<path class="stroke" stroke-width="1"
	d="M114.80 59.00v-24.00"/>
<path class="stroke" stroke-width="1"
	d="M185.90 59.00v-24.00"/>
<path class="stroke" stroke-width="1"
	d="M269.10 59.00v-24.00"/>
<path class="stroke" stroke-width="1"
	d="M353.40 59.00v-24.00"/>
<path class="stroke" stroke-width="1"
	d="M420.50 59.00v-24.00"/>
<path class="stroke" stroke-width="1"
	d="M504.70 59.00v-24.00"/>
<path class="stroke" stroke-width="1"
	d="M575.50 59.00v-24.00"/>
<path class="stroke" stroke-width="1"
	d="M620.50 59.00v-24.00"/>
<path class="stroke" stroke-width="1"
	d="M691.60 59.00v-24.00"/>
<path d="m10.00 59.00
	h681.60
	M10.00 53.00
	h681.60
	M10.00 47.00
	h681.60
	M10.00 41.00
	h681.60
	M10.00 35.00
	h681.60
	" class="stroke"/>
<path class="fill"
	d="M588.50 59.00c6.99 4.21 38.01 4.21 45.00 -0.00
	v0.24c-8.34 5.96 -36.66 5.96 -45.00 -0.24"/>
<defs>
<path id="utclef" class="fill" d="m-50 -90
	c-72 -41 -72 -158 52 -188
	150 -10 220 188 90 256
	-114 52 -275 0 -293 -136
	-15 -181 93 -229 220 -334
	88 -87 79 -133 62 -210
	-51 33 -94 105 -89 186
	17 267 36 374 49 574
	6 96 -19 134 -77 135
	-80 1 -126 -93 -61 -133
	85 -41 133 101 31 105
	23 17 92 37 90 -92
	-10 -223 -39 -342 -50 -617
	0 -90 0 -162 96 -232
	56 72 63 230 22 289
	-74 106 -257 168 -255 316
	9 153 148 185 252 133
	86 -65 29 -192 -80 -176
	-71 12 -105 67 -59 124"/>
<use id="tclef" transform="translate(0,6) scale(0.045)"
	xlink:href="#utclef"/>
</defs>
<use x="22.00" y="53.00" xlink:href="#tclef"/>
<defs>
<path id="usharp" class="fill" d="
	m136 -702
	v890
	h32
	v-890
	m128 840
	h32
	v-888
	h-32
	m-232 286
	v116
	l338 -96
	v-116
	m-338 442
	v116
	l338 -98
	v-114"/>
<use id="sh0" transform="translate(-4,5) scale(0.018)"
	xlink:href="#usharp"/>
</defs>
<use x="37.00" y="35.00" xlink:href="#sh0"/>
<g style="font:bold 16px serif"
	transform="translate(53.00,58.50) scale(1.2,1)">
	<text text-anchor="middle">4</text>
	<text y="-12" text-anchor="middle">3</text>
</g>
<defs>
<ellipse id="hd" rx="4.1" ry="2.9"
	transform="rotate(-20)" class="fill"/>
</defs>
<use x="95.00" y="62.00" xlink:href="#hd"/>
<path d="M98.50 62.00v-21.00" class="stroke"/>
<defs>
<path id="Hd" class="fill" d="m3 -1.6
	c-1 -1.8 -7 1.4 -6 3.2
	1 1.8 7 -1.4 6 -3.2
	m0.5 -0.3
	c2 3.8 -5 7.6 -7 3.8
	-2 -3.8 5 -7.6 7 -3.8"/>
</defs>
<use x="127.80" y="53.00" xlink:href="#Hd"/>
<path d="M131.30 53.00v-21.00" class="stroke"/>
<use x="166.10" y="38.00" xlink:href="#hd"/>
<path d="M162.60 38.00v21.00" class="stroke"/>
<use x="198.90" y="41.00" xlink:href="#Hd"/>
<path d="M195.40 41.00v21.00" class="stroke"/>
<path class="fill"
	d="M233.10 59.30l18.40 2.30v-3.20l-18.40 -2.30"/>
<use x="236.90" y="38.00" xlink:href="#hd"/>
<path d="M233.40 38.00v20.40" class="stroke"/>
<use x="254.60" y="41.00" xlink:href="#hd"/>
<path d="M251.10 41.00v19.60" class="stroke"/>
<use x="281.60" y="47.00" xlink:href="#hd"/>
<path d="M278.10 47.00v21.00" class="stroke"/>
<use x="306.20" y="50.00" xlink:href="#hd"/>
<path d="M309.70 50.00v-21.00" class="stroke"/>
<use x="333.60" y="41.00" xlink:href="#hd"/>
<path d="M330.10 41.00v21.00" class="stroke"/>
<use x="366.40" y="47.00" xlink:href="#Hd"/>
<path d="M362.90 47.00v21.00" class="stroke"/>
<use x="400.70" y="50.00" xlink:href="#hd"/>
<path d="M404.20 50.00v-21.00" class="stroke"/>
<use x="433.00" y="53.00" xlink:href="#hd"/>
<path d="M436.50 53.00v-21.00" class="stroke"/>
<path class="fill"
	d="M436.50 32.00c0.6 5.6 9.6 9 5.6 18.4
	1.6 -6 -1.3 -11.6 -5.6 -12.8
"/>
<use x="453.20" y="59.00" xlink:href="#hd"/>
<circle class="fill" cx="460.90" cy="56.00" r="1.2"/>
<path d="M456.70 59.00v-21.00" class="stroke"/>
<use x="484.90" y="56.00" xlink:href="#hd"/>
<path d="M488.40 56.00v-21.00" class="stroke"/>
<use x="517.70" y="53.00" xlink:href="#Hd"/>
<path d="M521.20 53.00v-21.00" class="stroke"/>
<use x="555.70" y="53.00" xlink:href="#hd"/>
<path d="M559.20 53.00v-21.00" class="stroke"/>
<use x="588.50" y="53.00" xlink:href="#Hd"/>
<circle class="fill" cx="597.20" cy="50.00" r="1.2"/>
<path d="M592.00 53.00v-21.00" class="stroke"/>
<use x="633.50" y="53.00" xlink:href="#Hd"/>
<path d="M637.00 53.00v-21.00" class="stroke"/>
<use x="671.80" y="41.00" xlink:href="#hd"/>
<path d="M668.30 41.00v21.00" class="stroke"/>
</g>
<g stroke-width="0.70">
<path class="stroke" stroke-width="1"
	d="M121.30 129.00v-24.00"/>
<path class="stroke" stroke-width="1"
	d="M217.80 129.00v-24.00"/>
<path class="stroke" stroke-width="1"
	d="M296.60 129.00v-24.00"/>
<path class="stroke" stroke-width="1"
	d="M393.20 129.00v-24.00"/>
<path class="stroke" stroke-width="1"
	d="M467.60 129.00v-24.00"/>
<path class="stroke" stroke-width="1"
	d="M564.30 129.00v-24.00"/>
<path class="stroke" stroke-width="1"
	d="M612.80 129.00v-24.00"/>
<path class="stroke" stroke-width="1"
	d="M691.60 129.00v-24.00"/>
<path d="m10.00 129.00
	h681.60
	M10.00 123.00
	h681.60
	M10.00 117.00
	h681.60
	M10.00 111.00
	h681.60
	M10.00 105.00
	h681.60
	" class="stroke"/>
<path class="fill"
	d="M577.30 102.00c7.46 -4.25 41.06 -4.25 48.52 -0.00
	v-0.25c-8.91 -6.01 -39.61 -6.01 -48.52 0.25"/>
<use x="22.00" y="123.00" xlink:href="#tclef"/>
<use x="37.00" y="105.00" xlink:href="#sh0"/>
<use x="55.50" y="111.00" xlink:href="#Hd"/>
<path d="M52.00 111.00v21.00" class="stroke"/>
<use x="99.20" y="117.00" xlink:href="#hd"/>
<path d="M95.70 117.00v21.00" class="stroke"/>
<use x="133.80" y="111.00" xlink:href="#hd"/>
<path d="M130.30 111.00v21.00" class="stroke"/>
<use x="164.80" y="108.00" xlink:href="#hd"/>
<path d="M161.30 108.00v21.00" class="stroke"/>
<use x="195.80" y="105.00" xlink:href="#hd"/>
<path d="M192.30 105.00v21.00" class="stroke"/>
<use x="230.80" y="102.00" xlink:href="#Hd"/>
<path d="M227.30 102.00v21.00" class="stroke"/>
<use x="274.60" y="102.00" xlink:href="#hd"/>
<path d="M271.10 102.00v21.00" class="stroke"/>
<use x="309.10" y="105.00" xlink:href="#hd"/>
<path d="M305.60 105.00v21.00" class="stroke"/>
<use x="340.10" y="108.00" xlink:href="#hd"/>
<path d="M336.60 108.00v21.00" class="stroke"/>
<use x="371.10" y="111.00" xlink:href="#hd"/>
<path d="M367.60 111.00v21.00" class="stroke"/>
<use x="406.20" y="117.00" xlink:href="#Hd"/>
<path d="M402.70 117.00v21.00" class="stroke"/>
<use x="445.60" y="120.00" xlink:href="#hd"/>
<path d="M449.10 120.00v-21.00" class="stroke"/>
<use x="480.10" y="117.00" xlink:href="#hd"/>
<path d="M483.60 117.00v-21.00" class="stroke"/>
<use x="511.30" y="114.00" xlink:href="#hd"/>
<path d="M507.80 114.00v21.00" class="stroke"/>
<use x="542.30" y="111.00" xlink:href="#hd"/>
<path d="M538.80 111.00v21.00" class="stroke"/>
<use x="577.30" y="108.00" xlink:href="#Hd"/>
<circle class="fill" cx="586.00" cy="108.00" r="1.2"/>
<path d="M573.80 108.00v21.00" class="stroke"/>
<use x="625.80" y="108.00" xlink:href="#Hd"/>
<path d="M622.30 108.00v21.00" class="stroke"/>
<use x="669.60" y="108.00" xlink:href="#hd"/>
<path d="M666.10 108.00v21.00" class="stroke"/>
</g>
<g stroke-width="0.70">
<path class="stroke" stroke-width="1"
	d="M121.80 199.00v-24.00"/>
<path class="stroke" stroke-width="1"
	d="M219.00 199.00v-24.00"/>
<path class="stroke" stroke-width="1"
	d="M298.30 199.00v-24.00"/>
<path class="stroke" stroke-width="1"
	d="M395.60 199.00v-24.00"/>
<path class="stroke" stroke-width="1"
	d="M470.50 199.00v-24.00"/>
<path class="stroke" stroke-width="1"
	d="M567.90 199.00v-24.00"/>
<path class="stroke" stroke-width="1"
	d="M616.70 199.00v-24.00"/>
<path class="stroke" stroke-width="1"
	d="M691.60 199.00v-24.00"/>
<path d="m10.00 199.00
	h681.60
	M10.00 193.00
	h681.60
	M10.00 187.00
	h681.60
	M10.00 181.00
	h681.60
	M10.00 175.00
	h681.60
	" class="stroke"/>
<path class="fill"
	d="M580.90 172.00c7.49 -4.26 41.29 -4.26 48.78 -0.00
	v-0.25c-8.95 -6.01 -39.83 -6.01 -48.78 0.25"/>
<use x="22.00" y="193.00" xlink:href="#tclef"/>
<use x="37.00" y="175.00" xlink:href="#sh0"/>
<use x="55.50" y="181.00" xlink:href="#Hd"/>
<path d="M52.00 181.00v21.00" class="stroke"/>
<use x="99.60" y="187.00" xlink:href="#hd"/>
<path d="M96.10 187.00v21.00" class="stroke"/>
<use x="134.30" y="181.00" xlink:href="#hd"/>
<path d="M130.80 181.00v21.00" class="stroke"/>
<use x="165.60" y="178.00" xlink:href="#hd"/>
<path d="M162.10 178.00v21.00" class="stroke"/>
<use x="196.80" y="175.00" xlink:href="#hd"/>
<path d="M193.30 175.00v21.00" class="stroke"/>
<use x="232.00" y="172.00" xlink:href="#Hd"/>
<path d="M228.50 172.00v21.00" class="stroke"/>
<use x="276.10" y="172.00" xlink:href="#hd"/>
<path d="M272.60 172.00v21.00" class="stroke"/>
<use x="310.80" y="175.00" xlink:href="#hd"/>
<path d="M307.30 175.00v21.00" class="stroke"/>
<use x="342.10" y="178.00" xlink:href="#hd"/>
<path d="M338.60 178.00v21.00" class="stroke"/>
<use x="373.40" y="181.00" xlink:href="#hd"/>
<path d="M369.90 181.00v21.00" class="stroke"/>
<use x="408.60" y="187.00" xlink:href="#Hd"/>
<path d="M405.10 187.00v21.00" class="stroke"/>
<use x="448.30" y="190.00" xlink:href="#hd"/>
<path d="M451.80 190.00v-21.00" class="stroke"/>
<use x="483.00" y="187.00" xlink:href="#hd"/>
<path d="M486.50 187.00v-21.00" class="stroke"/>
<use x="514.40" y="184.00" xlink:href="#hd"/>
<path d="M510.90 184.00v21.00" class="stroke"/>
<use x="545.70" y="181.00" xlink:href="#hd"/>
<path d="M542.20 181.00v21.00" class="stroke"/>
<use x="580.90" y="178.00" xlink:href="#Hd"/>
<circle class="fill" cx="589.60" cy="178.00" r="1.2"/>
<path d="M577.40 178.00v21.00" class="stroke"/>
<use x="629.70" y="178.00" xlink:href="#Hd"/>
<path d="M626.20 178.00v21.00" class="stroke"/>
<use x="669.40" y="193.00" xlink:href="#hd"/>
<path d="M672.90 193.00v-21.00" class="stroke"/>
</g>
<g stroke-width="0.70">
<path class="stroke" stroke-width="1"
	d="M126.90 269.00v-24.00"/>
<path class="stroke" stroke-width="1"
	d="M225.90 269.00v-24.00"/>
<path class="stroke" stroke-width="1"
	d="M326.20 269.00v-24.00"/>
<path class="stroke" stroke-width="1"
	d="M405.80 269.00v-24.00"/>
<path class="stroke" stroke-width="1"
	d="M504.60 269.00v-24.00"/>
<path class="stroke" stroke-width="1"
	d="M588.90 269.00v-24.00"/>
<path class="stroke" stroke-width="1"
	d="M640.10 269.00v-24.00"/>
<path class="stroke" stroke-width="3"
	d="M690.10 269.00v-24.00"/>
<path class="stroke" stroke-width="1"
	d="M685.60 269.00v-24.00"/>
<use x="681.60" y="269.00" xlink:href="#rdots"/>
<path d="m10.00 269.00
	h681.60
	M10.00 263.00
	h681.60
	M10.00 257.00
	h681.60
	M10.00 251.00
	h681.60
	M10.00 245.00
	h681.60
	" class="stroke"/>
<path class="fill"
	d="M601.90 269.00c7.82 4.29 43.47 4.29 51.28 -0.00
	v0.25c-9.36 6.04 -41.93 6.04 -51.28 -0.25"/>
<use x="22.00" y="263.00" xlink:href="#tclef"/>
<use x="37.00" y="245.00" xlink:href="#sh0"/>
<use x="55.50" y="263.00" xlink:href="#Hd"/>
<path d="M59.00 263.00v-21.00" class="stroke"/>
<use x="103.10" y="248.00" xlink:href="#hd"/>
<path d="M99.60 248.00v21.00" class="stroke"/>
<use x="139.90" y="251.00" xlink:href="#Hd"/>
<path d="M136.40 251.00v21.00" class="stroke"/>
<path class="fill"
	d="M183.60 269.30l22.20 2.40v-3.20l-22.20 -2.40"/>
<use x="187.40" y="248.00" xlink:href="#hd"/>
<path d="M183.90 248.00v20.30" class="stroke"/>
<use x="208.90" y="251.00" xlink:href="#hd"/>
<path d="M205.40 251.00v19.70" class="stroke"/>
<use x="238.40" y="257.00" xlink:href="#hd"/>
<path d="M234.90 257.00v21.00" class="stroke"/>
<use x="268.70" y="260.00" xlink:href="#hd"/>
<path d="M272.20 260.00v-21.00" class="stroke"/>
<use x="302.40" y="251.00" xlink:href="#hd"/>
<path d="M298.90 251.00v21.00" class="stroke"/>
<use x="339.20" y="257.00" xlink:href="#Hd"/>
<path d="M335.70 257.00v21.00" class="stroke"/>
<use x="382.00" y="260.00" xlink:href="#hd"/>
<path d="M385.50 260.00v-21.00" class="stroke"/>
<use x="418.30" y="263.00" xlink:href="#hd"/>
<path d="M421.80 263.00v-21.00" class="stroke"/>
<path class="fill"
	d="M421.80 242.00c0.6 5.6 9.6 9 5.6 18.4
	1.6 -6 -1.3 -11.6 -5.6 -12.8
"/>
<use x="442.30" y="269.00" xlink:href="#hd"/>
<circle class="fill" cx="450.00" cy="266.00" r="1.2"/>
<path d="M445.80 269.00v-21.00" class="stroke"/>
<use x="480.80" y="266.00" xlink:href="#hd"/>
<path d="M484.30 266.00v-21.00" class="stroke"/>
<use x="517.60" y="263.00" xlink:href="#Hd"/>
<path d="M521.10 263.00v-21.00" class="stroke"/>
<use x="565.10" y="263.00" xlink:href="#hd"/>
<path d="M568.60 263.00v-21.00" class="stroke"/>
<use x="601.90" y="263.00" xlink:href="#Hd"/>
<circle class="fill" cx="610.60" cy="260.00" r="1.2"/>
<path d="M605.40 263.00v-21.00" class="stroke"/>
<use x="653.10" y="263.00" xlink:href="#Hd"/>
<path d="M656.60 263.00v-21.00" class="stroke"/>
</g>
</svg>
