<?xml version="1.0" standalone="no"?>
<!DOCTYPE svg PUBLIC "-//W3C//DTD SVG 1.1//EN"
	"http://www.w3.org/Graphics/SVG/1.1/DTD/svg11.dtd">
<svg xmlns="http://www.w3.org/2000/svg" version="1.1"
	xmlns:xlink="http://www.w3.org/1999/xlink"
	color="black"
	width="828.44px" height="433.00px">
<style type="text/css">
.fill {fill: currentColor}
.stroke {stroke: currentColor; fill: none}
text{white-space: pre}
</style>
<title>/media/tim/Data1/tims_code/sphinx-tunes/source/_abcfiles/_the_road_to_th (1) tune 1</title>
<!-- Creator: abcm2ps-8.14.6 -->
<!-- CreationDate: Jul 30, 2023 12:21 -->
<!-- CommandLine: -g /media/tim/Data1/tims_code/sphinx-tunes/source/_abcfiles/_the_road_to_the_north.abc -O /media/tim/Data1/tims_code/sphinx-tunes/source/_abcfiles/_the_road_to_the_north.svg -->
<g stroke-width="0.70">
<path class="stroke" stroke-width="1"
	d="M124.50 59.00v-24.00"/>
<path class="stroke" stroke-width="1"
	d="M326.40 59.00v-24.00"/>
<path class="stroke" stroke-width="1"
	d="M450.80 59.00v-24.00"/>
<path class="stroke" stroke-width="1"
	d="M632.40 59.00v-24.00"/>
<path class="stroke" stroke-width="1"
	d="M818.40 59.00v-24.00"/>
<path d="m10.00 59.00
	h808.40
	M10.00 53.00
	h808.40
	M10.00 47.00
	h808.40
	M10.00 41.00
	h808.40
	M10.00 35.00
	h808.40
	" class="stroke"/>
<defs>
<path id="utclef" class="fill" d="m-50 -90
	c-72 -41 -72 -158 52 -188
	150 -10 220 188 90 256
	-114 52 -275 0 -293 -136
	-15 -181 93 -229 220 -334
	88 -87 79 -133 62 -210
	-51 33 -94 105 -89 186
	17 267 36 374 49 574
	6 96 -19 134 -77 135
	-80 1 -126 -93 -61 -133
	85 -41 133 101 31 105
	23 17 92 37 90 -92
	-10 -223 -39 -342 -50 -617
	0 -90 0 -162 96 -232
	56 72 63 230 22 289
	-74 106 -257 168 -255 316
	9 153 148 185 252 133
	86 -65 29 -192 -80 -176
	-71 12 -105 67 -59 124"/>
<use id="tclef" transform="translate(0,6) scale(0.045)"
	xlink:href="#utclef"/>
</defs>
<use x="22.00" y="53.00" xlink:href="#tclef"/>
<defs>
<path id="usharp" class="fill" d="
	m136 -702
	v890
	h32
	v-890
	m128 840
	h32
	v-888
	h-32
	m-232 286
	v116
	l338 -96
	v-116
	m-338 442
	v116
	l338 -98
	v-114"/>
<use id="sh0" transform="translate(-4,5) scale(0.018)"
	xlink:href="#usharp"/>
</defs>
<use x="37.00" y="35.00" xlink:href="#sh0"/>
<use x="42.50" y="44.00" xlink:href="#sh0"/>
<g style="font:bold 16px serif"
	transform="translate(58.50,58.50) scale(1.2,1)">
	<text text-anchor="middle">4</text>
	<text y="-12" text-anchor="middle">4</text>
</g>
<path class="fill"
	d="M72.70 50.20l27.70 2.50v-3.20l-27.70 -2.50"/>
<defs>
<path id="hl" class="stroke" d="m-6 0h12"/>
</defs>
<use x="76.50" y="29.00" xlink:href="#hl"/>
<defs>
<ellipse id="hd" rx="4.1" ry="2.9"
	transform="rotate(-20)" class="fill"/>
</defs>
<use x="76.50" y="29.00" xlink:href="#hd"/>
<path d="M73.00 29.00v20.30" class="stroke"/>
<use x="103.50" y="32.00" xlink:href="#hd"/>
<path d="M100.00 32.00v19.70" class="stroke"/>
<use x="139.50" y="35.00" xlink:href="#hd"/>
<path d="M136.00 35.00v21.00" class="stroke"/>
<use x="181.90" y="41.00" xlink:href="#hd"/>
<path d="M178.40 41.00v21.00" class="stroke"/>
<path class="fill"
	d="M220.50 62.00l81.70 0.00v-3.20l-81.70 -0.00"/>
<use x="224.30" y="44.00" xlink:href="#hd"/>
<path d="M220.80 44.00v17.00" class="stroke"/>
<use x="251.30" y="41.00" xlink:href="#hd"/>
<path d="M247.80 41.00v20.00" class="stroke"/>
<use x="278.30" y="38.00" xlink:href="#hd"/>
<path d="M274.80 38.00v23.00" class="stroke"/>
<use x="305.30" y="44.00" xlink:href="#hd"/>
<path d="M301.80 44.00v17.00" class="stroke"/>
<defs>
<path id="Hd" class="fill" d="m3 -1.6
	c-1 -1.8 -7 1.4 -6 3.2
	1 1.8 7 -1.4 6 -3.2
	m0.5 -0.3
	c2 3.8 -5 7.6 -7 3.8
	-2 -3.8 5 -7.6 7 -3.8"/>
</defs>
<use x="341.40" y="41.00" xlink:href="#Hd"/>
<circle class="fill" cx="350.10" cy="38.00" r="1.2"/>
<path d="M337.90 41.00v21.00" class="stroke"/>
<path class="fill"
	d="M406.00 28.80l27.70 -2.50v3.20l-27.70 2.50"/>
<use x="402.80" y="50.00" xlink:href="#hd"/>
<path d="M406.30 50.00v-20.30" class="stroke"/>
<use x="429.80" y="47.00" xlink:href="#hd"/>
<path d="M433.30 47.00v-19.70" class="stroke"/>
<use x="470.40" y="44.00" xlink:href="#Hd"/>
<defs>
<path id="unat" class="fill" d="
	m96 -750
	h-32
	v716
	l32 -8
	182 -54
	v282
	h32
	v-706
	l-34 10
	-180 50
	v-290
	m0 592
	v-190
	l182 -52
	v188"/>
<use id="nt0" transform="translate(-3,5) scale(0.018)"
	xlink:href="#unat"/>
</defs>
<use x="460.40" y="44.00" xlink:href="#nt0"/>
<path d="M466.90 44.00v21.00" class="stroke"/>
<path class="fill"
	d="M526.60 66.20l81.70 0.00v-3.20l-81.70 -0.00"/>
<use x="530.40" y="44.00" xlink:href="#hd"/>
<path d="M526.90 44.00v21.20" class="stroke"/>
<use x="557.40" y="47.00" xlink:href="#hd"/>
<path d="M553.90 47.00v18.20" class="stroke"/>
<use x="584.40" y="44.00" xlink:href="#hd"/>
<path d="M580.90 44.00v21.20" class="stroke"/>
<use x="611.40" y="41.00" xlink:href="#hd"/>
<path d="M607.90 41.00v24.20" class="stroke"/>
<use x="647.40" y="47.00" xlink:href="#hd"/>
<path d="M643.90 47.00v21.00" class="stroke"/>
<use x="685.60" y="53.00" xlink:href="#hd"/>
<path d="M689.10 53.00v-21.00" class="stroke"/>
<use x="728.00" y="50.00" xlink:href="#hd"/>
<path d="M731.50 50.00v-21.00" class="stroke"/>
<path class="fill"
	d="M766.60 50.20l27.70 2.50v-3.20l-27.70 -2.50"/>
<use x="770.40" y="29.00" xlink:href="#hl"/>
<use x="770.40" y="29.00" xlink:href="#hd"/>
<path d="M766.90 29.00v20.30" class="stroke"/>
<use x="797.40" y="32.00" xlink:href="#hd"/>
<path d="M793.90 32.00v19.70" class="stroke"/>
</g>
<g stroke-width="0.70">
<path class="stroke" stroke-width="1"
	d="M253.90 129.00v-24.00"/>
<path class="stroke" stroke-width="1"
	d="M458.50 129.00v-24.00"/>
<path class="stroke" stroke-width="1"
	d="M682.50 129.00v-24.00"/>
<path class="stroke" stroke-width="1"
	d="M818.40 129.00v-24.00"/>
<path d="m10.00 129.00
	h808.40
	M10.00 123.00
	h808.40
	M10.00 117.00
	h808.40
	M10.00 111.00
	h808.40
	M10.00 105.00
	h808.40
	" class="stroke"/>
<use x="22.00" y="123.00" xlink:href="#tclef"/>
<use x="37.00" y="105.00" xlink:href="#sh0"/>
<use x="42.50" y="114.00" xlink:href="#sh0"/>
<use x="60.50" y="105.00" xlink:href="#hd"/>
<path d="M57.00 105.00v21.00" class="stroke"/>
<use x="104.40" y="111.00" xlink:href="#hd"/>
<path d="M100.90 111.00v21.00" class="stroke"/>
<path class="fill"
	d="M144.50 132.00l84.50 0.00v-3.20l-84.50 -0.00"/>
<use x="148.30" y="114.00" xlink:href="#hd"/>
<path d="M144.80 114.00v17.00" class="stroke"/>
<use x="176.30" y="111.00" xlink:href="#hd"/>
<path d="M172.80 111.00v20.00" class="stroke"/>
<use x="204.20" y="108.00" xlink:href="#hd"/>
<path d="M200.70 108.00v23.00" class="stroke"/>
<use x="232.20" y="114.00" xlink:href="#hd"/>
<path d="M228.70 114.00v17.00" class="stroke"/>
<use x="269.40" y="111.00" xlink:href="#hd"/>
<path d="M265.90 111.00v21.00" class="stroke"/>
<use x="309.00" y="120.00" xlink:href="#hd"/>
<path d="M312.50 120.00v-21.00" class="stroke"/>
<path class="fill"
	d="M356.00 102.00l84.50 0.00v3.20l-84.50 -0.00"/>
<use x="352.90" y="126.00" xlink:href="#hd"/>
<path d="M356.40 126.00v-23.00" class="stroke"/>
<use x="380.80" y="123.00" xlink:href="#hd"/>
<path d="M384.30 123.00v-20.00" class="stroke"/>
<use x="408.80" y="120.00" xlink:href="#hd"/>
<path d="M412.30 120.00v-17.00" class="stroke"/>
<use x="436.70" y="126.00" xlink:href="#hd"/>
<path d="M440.20 126.00v-23.00" class="stroke"/>
<path class="fill"
	d="M470.20 149.20l84.50 -10.00v-3.20l-84.50 10.00"/>
<use x="474.00" y="132.00" xlink:href="#hd"/>
<path d="M470.50 132.00v16.20" class="stroke"/>
<use x="502.00" y="99.00" xlink:href="#hl"/>
<use x="502.00" y="99.00" xlink:href="#hd"/>
<path d="M498.50 99.00v45.90" class="stroke"/>
<use x="529.90" y="102.00" xlink:href="#hd"/>
<path d="M526.40 102.00v39.60" class="stroke"/>
<use x="557.90" y="105.00" xlink:href="#hd"/>
<path d="M554.40 105.00v33.30" class="stroke"/>
<use x="588.90" y="108.00" xlink:href="#hd"/>
<path d="M585.40 108.00v21.00" class="stroke"/>
<path class="fill"
	d="M629.00 132.20l28.60 2.50v-3.20l-28.60 -2.50"/>
<use x="632.80" y="111.00" xlink:href="#hd"/>
<path d="M629.30 111.00v20.30" class="stroke"/>
<use x="660.80" y="114.00" xlink:href="#hd"/>
<path d="M657.30 114.00v19.70" class="stroke"/>
<use x="698.10" y="111.00" xlink:href="#Hd"/>
<circle class="fill" cx="706.80" cy="108.00" r="1.2"/>
<path d="M694.60 111.00v21.00" class="stroke"/>
<path class="fill"
	d="M764.90 120.20l28.60 2.50v-3.20l-28.60 -2.50"/>
<use x="768.70" y="99.00" xlink:href="#hl"/>
<use x="768.70" y="99.00" xlink:href="#hd"/>
<path d="M765.20 99.00v20.30" class="stroke"/>
<use x="796.70" y="102.00" xlink:href="#hd"/>
<path d="M793.20 102.00v19.70" class="stroke"/>
</g>
<g stroke-width="0.70">
<path class="stroke" stroke-width="1"
	d="M269.70 200.00v-24.00"/>
<path class="stroke" stroke-width="1"
	d="M409.00 200.00v-24.00"/>
<path class="stroke" stroke-width="1"
	d="M610.20 200.00v-24.00"/>
<path class="stroke" stroke-width="1"
	d="M818.40 200.00v-24.00"/>
<path d="m10.00 200.00
	h808.40
	M10.00 194.00
	h808.40
	M10.00 188.00
	h808.40
	M10.00 182.00
	h808.40
	M10.00 176.00
	h808.40
	" class="stroke"/>
<use x="22.00" y="194.00" xlink:href="#tclef"/>
<use x="37.00" y="176.00" xlink:href="#sh0"/>
<use x="42.50" y="185.00" xlink:href="#sh0"/>
<use x="60.50" y="176.00" xlink:href="#hd"/>
<path d="M57.00 176.00v21.00" class="stroke"/>
<use x="108.00" y="182.00" xlink:href="#hd"/>
<path d="M104.50 182.00v21.00" class="stroke"/>
<path class="fill"
	d="M151.60 203.00l91.40 0.00v-3.20l-91.40 -0.00"/>
<use x="155.50" y="185.00" xlink:href="#hd"/>
<path d="M152.00 185.00v17.00" class="stroke"/>
<use x="185.70" y="182.00" xlink:href="#hd"/>
<path d="M182.20 182.00v20.00" class="stroke"/>
<use x="215.90" y="179.00" xlink:href="#hd"/>
<path d="M212.40 179.00v23.00" class="stroke"/>
<use x="246.20" y="185.00" xlink:href="#hd"/>
<path d="M242.70 185.00v17.00" class="stroke"/>
<use x="286.50" y="182.00" xlink:href="#Hd"/>
<circle class="fill" cx="295.20" cy="179.00" r="1.2"/>
<path d="M283.00 182.00v21.00" class="stroke"/>
<path class="fill"
	d="M358.40 169.80l30.90 -2.60v3.20l-30.90 2.60"/>
<use x="355.30" y="191.00" xlink:href="#hd"/>
<path d="M358.80 191.00v-20.20" class="stroke"/>
<use x="385.50" y="188.00" xlink:href="#hd"/>
<path d="M389.00 188.00v-19.80" class="stroke"/>
<use x="428.80" y="185.00" xlink:href="#Hd"/>
<use x="418.80" y="185.00" xlink:href="#nt0"/>
<path d="M425.30 185.00v21.00" class="stroke"/>
<path class="fill"
	d="M492.10 207.20l91.40 0.00v-3.20l-91.40 -0.00"/>
<use x="496.00" y="185.00" xlink:href="#hd"/>
<path d="M492.50 185.00v21.20" class="stroke"/>
<use x="526.20" y="188.00" xlink:href="#hd"/>
<path d="M522.70 188.00v18.20" class="stroke"/>
<use x="556.40" y="185.00" xlink:href="#hd"/>
<path d="M552.90 185.00v21.20" class="stroke"/>
<use x="586.70" y="182.00" xlink:href="#hd"/>
<path d="M583.20 182.00v24.20" class="stroke"/>
<use x="627.00" y="188.00" xlink:href="#hd"/>
<path d="M623.50 188.00v21.00" class="stroke"/>
<use x="669.70" y="194.00" xlink:href="#hd"/>
<path d="M673.20 194.00v-21.00" class="stroke"/>
<use x="717.20" y="191.00" xlink:href="#hd"/>
<path d="M720.70 191.00v-21.00" class="stroke"/>
<path class="fill"
	d="M767.90 175.80l30.90 -2.60v3.20l-30.90 2.60"/>
<use x="764.70" y="197.00" xlink:href="#hd"/>
<path d="M768.20 197.00v-20.20" class="stroke"/>
<use x="794.90" y="194.00" xlink:href="#hd"/>
<path d="M798.40 194.00v-19.80" class="stroke"/>
</g>
<g stroke-width="0.70">
<path class="stroke" stroke-width="1"
	d="M291.20 270.00v-24.00"/>
<path class="stroke" stroke-width="1"
	d="M457.00 270.00v-24.00"/>
<path class="stroke" stroke-width="1"
	d="M730.50 270.00v-24.00"/>
<path class="stroke" stroke-width="1"
	d="M818.40 270.00v-24.00"/>
<path class="stroke" stroke-width="1"
	d="M815.40 270.00v-24.00"/>
<path d="m10.00 270.00
	h808.40
	M10.00 264.00
	h808.40
	M10.00 258.00
	h808.40
	M10.00 252.00
	h808.40
	M10.00 246.00
	h808.40
	" class="stroke"/>
<use x="22.00" y="264.00" xlink:href="#tclef"/>
<use x="37.00" y="246.00" xlink:href="#sh0"/>
<use x="42.50" y="255.00" xlink:href="#sh0"/>
<use x="60.50" y="261.00" xlink:href="#hd"/>
<path d="M64.00 261.00v-21.00" class="stroke"/>
<use x="114.10" y="252.00" xlink:href="#hd"/>
<path d="M110.60 252.00v21.00" class="stroke"/>
<path class="fill"
	d="M165.50 235.80l103.00 6.20v3.20l-103.00 -6.20"/>
<use x="162.30" y="255.00" xlink:href="#hd"/>
<use x="153.30" y="255.00" xlink:href="#nt0"/>
<path d="M165.80 255.00v-18.20" class="stroke"/>
<use x="196.40" y="261.00" xlink:href="#hd"/>
<path d="M199.90 261.00v-22.10" class="stroke"/>
<use x="230.50" y="264.00" xlink:href="#hd"/>
<path d="M234.00 264.00v-23.10" class="stroke"/>
<use x="264.60" y="267.00" xlink:href="#hd"/>
<path d="M268.10 267.00v-24.00" class="stroke"/>
<use x="310.10" y="264.00" xlink:href="#Hd"/>
<circle class="fill" cx="318.80" cy="261.00" r="1.2"/>
<path d="M313.60 264.00v-21.00" class="stroke"/>
<path class="fill"
	d="M399.60 245.80l34.80 -2.60v3.20l-34.80 2.60"/>
<use x="396.40" y="267.00" xlink:href="#hd"/>
<path d="M399.90 267.00v-20.20" class="stroke"/>
<use x="430.50" y="264.00" xlink:href="#hd"/>
<path d="M434.00 264.00v-19.80" class="stroke"/>
<path class="fill"
	d="M472.20 280.20l103.00 -6.60v-3.20l-103.00 6.60"/>
<use x="476.00" y="261.00" xlink:href="#hd"/>
<path d="M472.50 261.00v18.20" class="stroke"/>
<use x="510.10" y="240.00" xlink:href="#hl"/>
<use x="510.10" y="240.00" xlink:href="#hd"/>
<path d="M506.60 240.00v37.00" class="stroke"/>
<use x="544.20" y="243.00" xlink:href="#hd"/>
<path d="M540.70 243.00v31.80" class="stroke"/>
<use x="578.30" y="246.00" xlink:href="#hd"/>
<path d="M574.80 246.00v26.60" class="stroke"/>
<use x="616.30" y="249.00" xlink:href="#hd"/>
<path d="M612.80 249.00v21.00" class="stroke"/>
<path class="fill"
	d="M666.00 273.20l34.80 2.60v-3.20l-34.80 -2.60"/>
<use x="669.80" y="252.00" xlink:href="#hd"/>
<path d="M666.30 252.00v20.20" class="stroke"/>
<use x="703.90" y="255.00" xlink:href="#hd"/>
<path d="M700.40 255.00v19.80" class="stroke"/>
<use x="749.40" y="252.00" xlink:href="#Hd"/>
<circle class="fill" cx="758.10" cy="249.00" r="1.2"/>
<path d="M745.90 252.00v21.00" class="stroke"/>
</g>
<g stroke-width="0.70">
<defs>
<g id="rdots" class="fill">
	<circle cx="0" cy="-9" r="1.2"/>
	<circle cx="0" cy="-15" r="1.2"/>
</g>
</defs>
<use x="67.00" y="340.00" xlink:href="#rdots"/>
<path class="stroke" stroke-width="1"
	d="M63.00 340.00v-24.00"/>
<path class="stroke" stroke-width="3"
	d="M58.50 340.00v-24.00"/>
<path class="stroke" stroke-width="1"
	d="M136.40 340.00v-24.00"/>
<path class="stroke" stroke-width="1"
	d="M342.90 340.00v-24.00"/>
<path class="stroke" stroke-width="1"
	d="M465.50 340.00v-24.00"/>
<path class="stroke" stroke-width="1"
	d="M675.90 340.00v-24.00"/>
<path class="stroke" stroke-width="1"
	d="M818.40 340.00v-24.00"/>
<path d="m10.00 340.00
	h808.40
	M10.00 334.00
	h808.40
	M10.00 328.00
	h808.40
	M10.00 322.00
	h808.40
	M10.00 316.00
	h808.40
	" class="stroke"/>
<use x="22.00" y="334.00" xlink:href="#tclef"/>
<use x="37.00" y="316.00" xlink:href="#sh0"/>
<use x="42.50" y="325.00" xlink:href="#sh0"/>
<path class="fill"
	d="M87.40 315.80l30.00 -2.50v3.20l-30.00 2.50"/>
<use x="84.30" y="337.00" xlink:href="#hd"/>
<path d="M87.80 337.00v-20.30" class="stroke"/>
<use x="113.60" y="334.00" xlink:href="#hd"/>
<path d="M117.10 334.00v-19.70" class="stroke"/>
<use x="152.70" y="331.00" xlink:href="#hd"/>
<path d="M156.20 331.00v-21.00" class="stroke"/>
<use x="198.70" y="322.00" xlink:href="#hd"/>
<path d="M195.20 322.00v21.00" class="stroke"/>
<use x="244.70" y="322.00" xlink:href="#hd"/>
<path d="M241.20 322.00v21.00" class="stroke"/>
<path class="fill"
	d="M286.90 345.80l30.00 -2.50v-3.20l-30.00 2.50"/>
<use x="290.80" y="325.00" xlink:href="#hd"/>
<path d="M287.30 325.00v19.70" class="stroke"/>
<use x="320.10" y="322.00" xlink:href="#hd"/>
<path d="M316.60 322.00v20.30" class="stroke"/>
<use x="359.20" y="319.00" xlink:href="#Hd"/>
<circle class="fill" cx="367.90" cy="319.00" r="1.2"/>
<path d="M355.70 319.00v21.00" class="stroke"/>
<use x="433.30" y="322.00" xlink:href="#hd"/>
<path d="M429.80 322.00v21.00" class="stroke"/>
<path class="fill"
	d="M477.90 351.30l88.60 -7.50v-3.20l-88.60 7.50"/>
<use x="481.80" y="331.00" xlink:href="#hd"/>
<path d="M478.30 331.00v19.20" class="stroke"/>
<use x="511.10" y="328.00" xlink:href="#hd"/>
<path d="M507.60 328.00v19.70" class="stroke"/>
<use x="540.40" y="325.00" xlink:href="#hd"/>
<use x="531.40" y="325.00" xlink:href="#nt0"/>
<path d="M536.90 325.00v20.30" class="stroke"/>
<use x="569.70" y="322.00" xlink:href="#hd"/>
<path d="M566.20 322.00v20.80" class="stroke"/>
<use x="602.30" y="328.00" xlink:href="#hd"/>
<path d="M598.80 328.00v21.00" class="stroke"/>
<use x="643.70" y="334.00" xlink:href="#hd"/>
<path d="M647.20 334.00v-21.00" class="stroke"/>
<use x="692.20" y="331.00" xlink:href="#Hd"/>
<circle class="fill" cx="700.90" cy="331.00" r="1.2"/>
<path d="M695.70 331.00v-21.00" class="stroke"/>
<path class="fill"
	d="M769.50 315.80l30.00 -2.50v3.20l-30.00 2.50"/>
<use x="766.30" y="337.00" xlink:href="#hd"/>
<path d="M769.80 337.00v-20.30" class="stroke"/>
<use x="795.60" y="334.00" xlink:href="#hd"/>
<path d="M799.10 334.00v-19.70" class="stroke"/>
</g>
<g stroke-width="0.70">
<path class="stroke" stroke-width="1"
	d="M265.30 410.00v-24.00"/>
<path class="stroke" stroke-width="1"
	d="M499.80 410.00v-24.00"/>
<path class="stroke" stroke-width="1"
	d="M737.10 410.00v-24.00"/>
<path class="stroke" stroke-width="3"
	d="M816.90 410.00v-24.00"/>
<path class="stroke" stroke-width="1"
	d="M812.40 410.00v-24.00"/>
<use x="808.40" y="410.00" xlink:href="#rdots"/>
<path d="m10.00 410.00
	h808.40
	M10.00 404.00
	h808.40
	M10.00 398.00
	h808.40
	M10.00 392.00
	h808.40
	M10.00 386.00
	h808.40
	" class="stroke"/>
<use x="22.00" y="404.00" xlink:href="#tclef"/>
<use x="37.00" y="386.00" xlink:href="#sh0"/>
<use x="42.50" y="395.00" xlink:href="#sh0"/>
<use x="60.50" y="401.00" xlink:href="#hd"/>
<path d="M64.00 401.00v-21.00" class="stroke"/>
<use x="110.10" y="392.00" xlink:href="#hd"/>
<path d="M106.60 392.00v21.00" class="stroke"/>
<use x="159.60" y="392.00" xlink:href="#hd"/>
<path d="M156.10 392.00v21.00" class="stroke"/>
<path class="fill"
	d="M205.40 415.80l32.20 -2.60v-3.20l-32.20 2.60"/>
<use x="209.20" y="395.00" xlink:href="#hd"/>
<path d="M205.70 395.00v19.80" class="stroke"/>
<use x="240.80" y="392.00" xlink:href="#hd"/>
<path d="M237.30 392.00v20.20" class="stroke"/>
<use x="282.90" y="389.00" xlink:href="#hd"/>
<path d="M279.40 389.00v21.00" class="stroke"/>
<path class="fill"
	d="M328.60 413.20l32.20 2.60v-3.20l-32.20 -2.60"/>
<use x="332.40" y="392.00" xlink:href="#hd"/>
<path d="M328.90 392.00v20.20" class="stroke"/>
<use x="364.00" y="395.00" xlink:href="#hd"/>
<path d="M360.50 395.00v19.80" class="stroke"/>
<use x="399.10" y="392.00" xlink:href="#hd"/>
<path d="M395.60 392.00v21.00" class="stroke"/>
<path class="fill"
	d="M446.90 379.80l32.20 -2.60v3.20l-32.20 2.60"/>
<use x="443.70" y="401.00" xlink:href="#hd"/>
<path d="M447.20 401.00v-20.20" class="stroke"/>
<use x="475.30" y="398.00" xlink:href="#hd"/>
<path d="M478.80 398.00v-19.80" class="stroke"/>
<use x="518.70" y="395.00" xlink:href="#hd"/>
<use x="509.70" y="395.00" xlink:href="#nt0"/>
<path d="M515.20 395.00v21.00" class="stroke"/>
<use x="568.20" y="383.00" xlink:href="#hd"/>
<path d="M564.70 383.00v21.00" class="stroke"/>
<path class="fill"
	d="M614.00 407.70l95.40 7.60v-3.20l-95.40 -7.60"/>
<use x="617.80" y="386.00" xlink:href="#hd"/>
<path d="M614.30 386.00v20.70" class="stroke"/>
<use x="649.40" y="389.00" xlink:href="#hd"/>
<path d="M645.90 389.00v20.20" class="stroke"/>
<use x="680.90" y="392.00" xlink:href="#hd"/>
<path d="M677.40 392.00v19.80" class="stroke"/>
<use x="712.50" y="395.00" xlink:href="#hd"/>
<use x="703.50" y="395.00" xlink:href="#sh0"/>
<path d="M709.00 395.00v19.30" class="stroke"/>
<use x="754.60" y="392.00" xlink:href="#Hd"/>
<circle class="fill" cx="763.30" cy="389.00" r="1.2"/>
<path d="M751.10 392.00v21.00" class="stroke"/>
</g>
</svg>
