<?xml version="1.0" standalone="no"?>
<!DOCTYPE svg PUBLIC "-//W3C//DTD SVG 1.1//EN"
	"http://www.w3.org/Graphics/SVG/1.1/DTD/svg11.dtd">
<svg xmlns="http://www.w3.org/2000/svg" version="1.1"
	xmlns:xlink="http://www.w3.org/1999/xlink"
	color="black"
	width="701.60px" height="1042.80px">
<style type="text/css">
.fill {fill: currentColor}
.stroke {stroke: currentColor; fill: none}
text{white-space: pre}
</style>
<title>/media/tim/Data1/tims_code/sphinx-tunes/source/_abcfiles/_The First Noel (1) tune 1</title>
<!-- Creator: abcm2ps-8.14.6 -->
<!-- CreationDate: Jul 30, 2023 12:21 -->
<!-- CommandLine: -g '/media/tim/Data1/tims_code/sphinx-tunes/source/_abcfiles/_The First Noel.abc' -O '/media/tim/Data1/tims_code/sphinx-tunes/source/_abcfiles/_The First Noel.svg' -->
<g stroke-width="0.70" style="font:italic 14.00px Times">
<text x="691.60" y="20.00" text-anchor="end">Traditional</text>
</g>
<g stroke-width="0.70" transform="scale(0.700)" style="font:italic 14.00px Times">
<defs>
<ellipse id="hd" rx="4.1" ry="2.9"
	transform="rotate(-20)" class="fill"/>
</defs>
<use x="110.14" y="58.43" xlink:href="#hd"/>
<path d="M113.64 58.43v-21.00" class="stroke"/>
</g>
<g stroke-width="0.70" style="font:bold 15.00px Times">
<text x="84.80" y="43.00">= 80</text>
<path class="stroke" stroke-width="1"
	d="M129.10 81.00v-24.00"/>
<path class="stroke" stroke-width="1"
	d="M280.50 81.00v-24.00"/>
<path class="stroke" stroke-width="1"
	d="M415.10 81.00v-24.00"/>
<path class="stroke" stroke-width="1"
	d="M556.90 81.00v-24.00"/>
<path class="stroke" stroke-width="1"
	d="M691.60 81.00v-24.00"/>
<path d="m10.00 81.00
	h681.60
	M10.00 75.00
	h681.60
	M10.00 69.00
	h681.60
	M10.00 63.00
	h681.60
	M10.00 57.00
	h681.60
	" class="stroke"/>
</g>
<g stroke-width="0.70" style="font:12.00px Helvetica">
<text x="141.70" y="44.60">D</text>
<text x="427.70" y="44.60">G</text>
<text x="569.50" y="44.60">D</text>
<defs>
<path id="utclef" class="fill" d="m-50 -90
	c-72 -41 -72 -158 52 -188
	150 -10 220 188 90 256
	-114 52 -275 0 -293 -136
	-15 -181 93 -229 220 -334
	88 -87 79 -133 62 -210
	-51 33 -94 105 -89 186
	17 267 36 374 49 574
	6 96 -19 134 -77 135
	-80 1 -126 -93 -61 -133
	85 -41 133 101 31 105
	23 17 92 37 90 -92
	-10 -223 -39 -342 -50 -617
	0 -90 0 -162 96 -232
	56 72 63 230 22 289
	-74 106 -257 168 -255 316
	9 153 148 185 252 133
	86 -65 29 -192 -80 -176
	-71 12 -105 67 -59 124"/>
<use id="tclef" transform="translate(0,6) scale(0.045)"
	xlink:href="#utclef"/>
</defs>
<use x="22.00" y="75.00" xlink:href="#tclef"/>
<defs>
<path id="usharp" class="fill" d="
	m136 -702
	v890
	h32
	v-890
	m128 840
	h32
	v-888
	h-32
	m-232 286
	v116
	l338 -96
	v-116
	m-338 442
	v116
	l338 -98
	v-114"/>
<use id="sh0" transform="translate(-4,5) scale(0.018)"
	xlink:href="#usharp"/>
</defs>
<use x="37.00" y="57.00" xlink:href="#sh0"/>
<use x="42.50" y="66.00" xlink:href="#sh0"/>
<g style="font:bold 16px serif"
	transform="translate(58.50,80.50) scale(1.2,1)">
	<text text-anchor="middle">4</text>
	<text y="-12" text-anchor="middle">3</text>
</g>
<path class="fill"
	d="M79.70 57.20l30.20 2.60v3.20l-30.20 -2.60"/>
<use x="76.50" y="78.00" xlink:href="#hd"/>
<path d="M80.00 78.00v-19.70" class="stroke"/>
<use x="106.10" y="81.00" xlink:href="#hd"/>
<path d="M109.60 81.00v-20.30" class="stroke"/>
<use x="145.50" y="84.00" xlink:href="#hd"/>
<circle class="fill" cx="153.20" cy="84.00" r="1.2"/>
<path d="M149.00 84.00v-21.00" class="stroke"/>
<path class="fill"
	d="M201.50 59.50l59.80 -5.00v3.20l-59.80 5.00"/>
<use x="198.30" y="81.00" xlink:href="#hd"/>
<path d="M201.80 81.00v-20.50" class="stroke"/>
<use x="227.90" y="78.00" xlink:href="#hd"/>
<path d="M231.40 78.00v-20.00" class="stroke"/>
<use x="257.50" y="75.00" xlink:href="#hd"/>
<path d="M261.00 75.00v-19.50" class="stroke"/>
<defs>
<path id="Hd" class="fill" d="m3 -1.6
	c-1 -1.8 -7 1.4 -6 3.2
	1 1.8 7 -1.4 6 -3.2
	m0.5 -0.3
	c2 3.8 -5 7.6 -7 3.8
	-2 -3.8 5 -7.6 7 -3.8"/>
</defs>
<use x="296.90" y="72.00" xlink:href="#Hd"/>
<path d="M300.40 72.00v-21.00" class="stroke"/>
<path class="fill"
	d="M358.70 89.80l30.20 -2.60v-3.20l-30.20 2.60"/>
<use x="362.60" y="69.00" xlink:href="#hd"/>
<path d="M359.10 69.00v19.70" class="stroke"/>
<use x="392.10" y="66.00" xlink:href="#hd"/>
<path d="M388.60 66.00v20.30" class="stroke"/>
<use x="431.60" y="63.00" xlink:href="#hd"/>
<path d="M428.10 63.00v21.00" class="stroke"/>
<use x="478.00" y="66.00" xlink:href="#hd"/>
<path d="M474.50 66.00v21.00" class="stroke"/>
<use x="524.40" y="69.00" xlink:href="#hd"/>
<path d="M520.90 69.00v21.00" class="stroke"/>
<use x="573.30" y="72.00" xlink:href="#Hd"/>
<path d="M576.80 72.00v-21.00" class="stroke"/>
<path class="fill"
	d="M635.20 89.80l30.20 -2.60v-3.20l-30.20 2.60"/>
<use x="639.00" y="69.00" xlink:href="#hd"/>
<path d="M635.50 69.00v19.70" class="stroke"/>
<use x="668.60" y="66.00" xlink:href="#hd"/>
<path d="M665.10 66.00v20.30" class="stroke"/>
</g>
<g stroke-width="0.70" style="font:12.00px Helvetica">
<path class="stroke" stroke-width="1"
	d="M207.30 152.00v-24.00"/>
<path class="stroke" stroke-width="1"
	d="M373.30 152.00v-24.00"/>
<path class="stroke" stroke-width="1"
	d="M533.90 152.00v-24.00"/>
<path class="stroke" stroke-width="1"
	d="M691.60 152.00v-24.00"/>
<path d="m10.00 152.00
	h681.60
	M10.00 146.00
	h681.60
	M10.00 140.00
	h681.60
	M10.00 134.00
	h681.60
	M10.00 128.00
	h681.60
	" class="stroke"/>
<text x="56.70" y="115.60">G</text>
<text x="222.70" y="115.60">D</text>
<text x="388.70" y="115.60">D</text>
<text x="489.40" y="115.60">A7</text>
<text x="549.30" y="115.60">D</text>
<use x="22.00" y="146.00" xlink:href="#tclef"/>
<use x="37.00" y="128.00" xlink:href="#sh0"/>
<use x="42.50" y="137.00" xlink:href="#sh0"/>
<use x="60.50" y="134.00" xlink:href="#hd"/>
<path d="M57.00 134.00v21.00" class="stroke"/>
<use x="114.90" y="137.00" xlink:href="#hd"/>
<path d="M111.40 137.00v21.00" class="stroke"/>
<use x="169.20" y="140.00" xlink:href="#hd"/>
<path d="M165.70 140.00v21.00" class="stroke"/>
<use x="226.50" y="143.00" xlink:href="#hd"/>
<path d="M230.00 143.00v-21.00" class="stroke"/>
<use x="280.90" y="140.00" xlink:href="#hd"/>
<path d="M284.40 140.00v-21.00" class="stroke"/>
<use x="335.30" y="137.00" xlink:href="#hd"/>
<path d="M331.80 137.00v21.00" class="stroke"/>
<use x="392.50" y="134.00" xlink:href="#hd"/>
<path d="M389.00 134.00v21.00" class="stroke"/>
<use x="441.50" y="143.00" xlink:href="#hd"/>
<path d="M445.00 143.00v-21.00" class="stroke"/>
<use x="495.80" y="146.00" xlink:href="#hd"/>
<path d="M499.30 146.00v-21.00" class="stroke"/>
<use x="553.10" y="149.00" xlink:href="#Hd"/>
<path d="M556.60 149.00v-21.00" class="stroke"/>
<path class="fill"
	d="M633.20 128.20l35.30 2.60v3.20l-35.30 -2.60"/>
<use x="630.10" y="149.00" xlink:href="#hd"/>
<path d="M633.60 149.00v-19.80" class="stroke"/>
<use x="664.70" y="152.00" xlink:href="#hd"/>
<path d="M668.20 152.00v-20.20" class="stroke"/>
</g>
<g stroke-width="0.70" style="font:12.00px Helvetica">
<path class="stroke" stroke-width="1"
	d="M216.50 223.00v-24.00"/>
<path class="stroke" stroke-width="1"
	d="M372.10 223.00v-24.00"/>
<path class="stroke" stroke-width="1"
	d="M536.00 223.00v-24.00"/>
<path class="stroke" stroke-width="1"
	d="M691.60 223.00v-24.00"/>
<path d="m10.00 223.00
	h681.60
	M10.00 217.00
	h681.60
	M10.00 211.00
	h681.60
	M10.00 205.00
	h681.60
	M10.00 199.00
	h681.60
	" class="stroke"/>
<text x="231.60" y="186.60">D</text>
<text x="387.30" y="186.60">G</text>
<text x="551.10" y="186.60">D</text>
<use x="22.00" y="217.00" xlink:href="#tclef"/>
<use x="37.00" y="199.00" xlink:href="#sh0"/>
<use x="42.50" y="208.00" xlink:href="#sh0"/>
<use x="60.50" y="226.00" xlink:href="#hd"/>
<circle class="fill" cx="68.20" cy="226.00" r="1.2"/>
<path d="M64.00 226.00v-21.00" class="stroke"/>
<path class="fill"
	d="M124.70 201.60l69.00 -5.20v3.20l-69.00 5.20"/>
<use x="121.60" y="223.00" xlink:href="#hd"/>
<path d="M125.10 223.00v-20.40" class="stroke"/>
<use x="155.70" y="220.00" xlink:href="#hd"/>
<path d="M159.20 220.00v-20.00" class="stroke"/>
<use x="189.90" y="217.00" xlink:href="#hd"/>
<path d="M193.40 217.00v-19.60" class="stroke"/>
<use x="235.50" y="214.00" xlink:href="#Hd"/>
<path d="M239.00 214.00v-21.00" class="stroke"/>
<path class="fill"
	d="M307.50 231.80l34.80 -2.60v-3.20l-34.80 2.60"/>
<use x="311.40" y="211.00" xlink:href="#hd"/>
<path d="M307.90 211.00v19.80" class="stroke"/>
<use x="345.50" y="208.00" xlink:href="#hd"/>
<path d="M342.00 208.00v20.20" class="stroke"/>
<use x="391.10" y="205.00" xlink:href="#hd"/>
<path d="M387.60 205.00v21.00" class="stroke"/>
<use x="444.70" y="208.00" xlink:href="#hd"/>
<path d="M441.20 208.00v21.00" class="stroke"/>
<use x="498.40" y="211.00" xlink:href="#hd"/>
<path d="M494.90 211.00v21.00" class="stroke"/>
<use x="554.90" y="214.00" xlink:href="#Hd"/>
<path d="M558.40 214.00v-21.00" class="stroke"/>
<path class="fill"
	d="M627.00 231.80l34.80 -2.60v-3.20l-34.80 2.60"/>
<use x="630.90" y="211.00" xlink:href="#hd"/>
<path d="M627.40 211.00v19.80" class="stroke"/>
<use x="665.00" y="208.00" xlink:href="#hd"/>
<path d="M661.50 208.00v20.20" class="stroke"/>
</g>
<g stroke-width="0.70" style="font:12.00px Helvetica">
<path class="stroke" stroke-width="1"
	d="M227.70 294.00v-24.00"/>
<path class="stroke" stroke-width="1"
	d="M416.70 294.00v-24.00"/>
<path class="stroke" stroke-width="1"
	d="M599.60 294.00v-24.00"/>
<path class="stroke" stroke-width="1"
	d="M691.60 294.00v-24.00"/>
<path class="stroke" stroke-width="1"
	d="M688.60 294.00v-24.00"/>
<path d="m10.00 294.00
	h681.60
	M10.00 288.00
	h681.60
	M10.00 282.00
	h681.60
	M10.00 276.00
	h681.60
	M10.00 270.00
	h681.60
	" class="stroke"/>
<text x="56.70" y="257.60">G</text>
<text x="245.80" y="257.60">D</text>
<text x="549.80" y="257.60">A7</text>
<text x="617.70" y="257.60">D</text>
<use x="22.00" y="288.00" xlink:href="#tclef"/>
<use x="37.00" y="270.00" xlink:href="#sh0"/>
<use x="42.50" y="279.00" xlink:href="#sh0"/>
<use x="60.50" y="276.00" xlink:href="#hd"/>
<path d="M57.00 276.00v21.00" class="stroke"/>
<use x="122.40" y="279.00" xlink:href="#hd"/>
<path d="M118.90 279.00v21.00" class="stroke"/>
<use x="184.30" y="282.00" xlink:href="#hd"/>
<path d="M180.80 282.00v21.00" class="stroke"/>
<use x="249.60" y="285.00" xlink:href="#hd"/>
<path d="M253.10 285.00v-21.00" class="stroke"/>
<use x="311.50" y="282.00" xlink:href="#hd"/>
<path d="M315.00 282.00v-21.00" class="stroke"/>
<use x="373.40" y="279.00" xlink:href="#hd"/>
<path d="M369.90 279.00v21.00" class="stroke"/>
<use x="438.60" y="276.00" xlink:href="#hd"/>
<path d="M435.10 276.00v21.00" class="stroke"/>
<use x="494.40" y="285.00" xlink:href="#hd"/>
<path d="M497.90 285.00v-21.00" class="stroke"/>
<use x="556.30" y="288.00" xlink:href="#hd"/>
<path d="M559.80 288.00v-21.00" class="stroke"/>
<use x="621.50" y="291.00" xlink:href="#Hd"/>
<path d="M625.00 291.00v-21.00" class="stroke"/>
</g>
<g stroke-width="0.70" style="font:12.00px Helvetica">
<path class="stroke" stroke-width="1"
	d="M124.00 365.00v-24.00"/>
<path class="stroke" stroke-width="1"
	d="M307.10 365.00v-24.00"/>
<path class="stroke" stroke-width="1"
	d="M469.90 365.00v-24.00"/>
<path class="stroke" stroke-width="1"
	d="M608.50 365.00v-24.00"/>
<path class="stroke" stroke-width="1"
	d="M691.60 365.00v-24.00"/>
<path d="m10.00 365.00
	h681.60
	M10.00 359.00
	h681.60
	M10.00 353.00
	h681.60
	M10.00 347.00
	h681.60
	M10.00 341.00
	h681.60
	" class="stroke"/>
<text x="140.10" y="328.60">D</text>
<text x="486.00" y="328.60">G</text>
<text x="624.50" y="328.60">D</text>
<use x="22.00" y="359.00" xlink:href="#tclef"/>
<use x="37.00" y="341.00" xlink:href="#sh0"/>
<use x="42.50" y="350.00" xlink:href="#sh0"/>
<path class="fill"
	d="M63.70 341.20l36.40 2.60v3.20l-36.40 -2.60"/>
<use x="60.50" y="362.00" xlink:href="#hd"/>
<path d="M64.00 362.00v-19.80" class="stroke"/>
<use x="96.20" y="365.00" xlink:href="#hd"/>
<path d="M99.70 365.00v-20.20" class="stroke"/>
<use x="143.90" y="368.00" xlink:href="#hd"/>
<circle class="fill" cx="151.60" cy="368.00" r="1.2"/>
<path d="M147.40 368.00v-21.00" class="stroke"/>
<path class="fill"
	d="M211.00 343.60l72.20 -5.20v3.20l-72.20 5.20"/>
<use x="207.80" y="365.00" xlink:href="#hd"/>
<path d="M211.30 365.00v-20.40" class="stroke"/>
<use x="243.50" y="362.00" xlink:href="#hd"/>
<path d="M247.00 362.00v-20.00" class="stroke"/>
<use x="279.30" y="359.00" xlink:href="#hd"/>
<path d="M282.80 359.00v-19.60" class="stroke"/>
<use x="326.90" y="356.00" xlink:href="#Hd"/>
<path d="M330.40 356.00v-21.00" class="stroke"/>
<path class="fill"
	d="M402.50 368.20l36.40 2.60v-3.20l-36.40 -2.60"/>
<use x="406.40" y="347.00" xlink:href="#hd"/>
<path d="M402.90 347.00v20.20" class="stroke"/>
<use x="442.10" y="350.00" xlink:href="#hd"/>
<path d="M438.60 350.00v19.80" class="stroke"/>
<use x="489.80" y="353.00" xlink:href="#Hd"/>
<path d="M486.30 353.00v21.00" class="stroke"/>
<use x="569.20" y="353.00" xlink:href="#hd"/>
<path d="M565.70 353.00v21.00" class="stroke"/>
<use x="628.30" y="356.00" xlink:href="#Hd"/>
<circle class="fill" cx="637.00" cy="356.00" r="1.2"/>
<path d="M631.80 356.00v-21.00" class="stroke"/>
</g>
<g stroke-width="0.70" style="font:12.00px Helvetica">
<path class="stroke" stroke-width="1"
	d="M227.70 439.00v-24.00"/>
<path class="stroke" stroke-width="1"
	d="M416.70 439.00v-24.00"/>
<path class="stroke" stroke-width="1"
	d="M599.60 439.00v-24.00"/>
<path class="stroke" stroke-width="1"
	d="M691.60 439.00v-24.00"/>
<path class="stroke" stroke-width="1"
	d="M688.60 439.00v-24.00"/>
<path d="m10.00 439.00
	h681.60
	M10.00 433.00
	h681.60
	M10.00 427.00
	h681.60
	M10.00 421.00
	h681.60
	M10.00 415.00
	h681.60
	" class="stroke"/>
<text x="56.70" y="399.60">D</text>
<text x="307.70" y="399.60">G</text>
<text x="366.90" y="399.60">A7</text>
<text x="434.80" y="399.60">D</text>
<text x="549.80" y="399.60">A7</text>
<text x="617.70" y="399.60">D</text>
<use x="22.00" y="433.00" xlink:href="#tclef"/>
<use x="37.00" y="415.00" xlink:href="#sh0"/>
<use x="42.50" y="424.00" xlink:href="#sh0"/>
<use x="60.50" y="421.00" xlink:href="#hd"/>
<path d="M57.00 421.00v21.00" class="stroke"/>
<use x="122.40" y="424.00" xlink:href="#hd"/>
<path d="M118.90 424.00v21.00" class="stroke"/>
<use x="184.30" y="427.00" xlink:href="#hd"/>
<path d="M180.80 427.00v21.00" class="stroke"/>
<use x="249.60" y="430.00" xlink:href="#hd"/>
<path d="M253.10 430.00v-21.00" class="stroke"/>
<use x="311.50" y="427.00" xlink:href="#hd"/>
<path d="M315.00 427.00v-21.00" class="stroke"/>
<use x="373.40" y="424.00" xlink:href="#hd"/>
<path d="M369.90 424.00v21.00" class="stroke"/>
<use x="438.60" y="421.00" xlink:href="#hd"/>
<path d="M435.10 421.00v21.00" class="stroke"/>
<use x="494.40" y="430.00" xlink:href="#hd"/>
<path d="M497.90 430.00v-21.00" class="stroke"/>
<use x="556.30" y="433.00" xlink:href="#hd"/>
<path d="M559.80 433.00v-21.00" class="stroke"/>
<use x="621.50" y="436.00" xlink:href="#Hd"/>
<path d="M625.00 436.00v-21.00" class="stroke"/>
</g>
<g stroke-width="0.70" style="font:16.00px Arial">
<text x="60.00" y="479.60">The First Noel the angel did say</text>
</g>
<g stroke-width="0.70" style="font:16.00px Arial">
<text x="60.00" y="497.20">Was to certain poor shepherds</text>
</g>
<g stroke-width="0.70" style="font:16.00px Arial">
<text x="60.00" y="514.80">in fields as they lay;</text>
</g>
<g stroke-width="0.70" style="font:16.00px Arial">
<text x="60.00" y="532.40">In fields as they lay, keeping their sheep,</text>
</g>
<g stroke-width="0.70" style="font:16.00px Arial">
<text x="60.00" y="550.00">On a cold winter&apos;s night that was so deep.</text>
</g>
<g stroke-width="0.70" style="font:16.00px Arial">
<text x="60.00" y="585.20">Noel, Noel, Noel, Noel,</text>
</g>
<g stroke-width="0.70" style="font:16.00px Arial">
<text x="60.00" y="602.80">Born is the King of Israel.</text>
</g>
<g stroke-width="0.70" style="font:16.00px Arial">
<text x="60.00" y="638.00">They looked up and saw a star</text>
</g>
<g stroke-width="0.70" style="font:16.00px Arial">
<text x="60.00" y="655.60">Shining in the east beyond them far,</text>
</g>
<g stroke-width="0.70" style="font:16.00px Arial">
<text x="60.00" y="673.20">And to the earth it gave great light,</text>
</g>
<g stroke-width="0.70" style="font:16.00px Arial">
<text x="60.00" y="690.80">And so it continued both day and night.</text>
</g>
<g stroke-width="0.70" style="font:16.00px Arial">
<text x="60.00" y="726.00">And by the light of that same star</text>
</g>
<g stroke-width="0.70" style="font:16.00px Arial">
<text x="60.00" y="743.60">Three wise men came from country far;</text>
</g>
<g stroke-width="0.70" style="font:16.00px Arial">
<text x="60.00" y="761.20">To seek for a king was their intent,</text>
</g>
<g stroke-width="0.70" style="font:16.00px Arial">
<text x="60.00" y="778.80">And to follow the star wherever it went.</text>
</g>
<g stroke-width="0.70" style="font:16.00px Arial">
<text x="60.00" y="814.00">This star drew nigh to the northwest,</text>
</g>
<g stroke-width="0.70" style="font:16.00px Arial">
<text x="60.00" y="831.60">O&apos;er Bethlehem it took it rest,</text>
</g>
<g stroke-width="0.70" style="font:16.00px Arial">
<text x="60.00" y="849.20">And there it did both stop and stay</text>
</g>
<g stroke-width="0.70" style="font:16.00px Arial">
<text x="60.00" y="866.80">Right over the place where Jesus lay.</text>
</g>
<g stroke-width="0.70" style="font:16.00px Arial">
<text x="60.00" y="902.00">Then entered in those wise men three</text>
</g>
<g stroke-width="0.70" style="font:16.00px Arial">
<text x="60.00" y="919.60">Full reverently upon their knee,</text>
</g>
<g stroke-width="0.70" style="font:16.00px Arial">
<text x="60.00" y="937.20">and offered there in his presence</text>
</g>
<g stroke-width="0.70" style="font:16.00px Arial">
<text x="60.00" y="954.80">Their gold, and myrrh, and frankincense.</text>
</g>
<g stroke-width="0.70" style="font:16.00px Arial">
<text x="60.00" y="990.00">Then let us all with one accord</text>
</g>
<g stroke-width="0.70" style="font:16.00px Arial">
<text x="60.00" y="1007.60">Sing praises to our heavenly Lord;</text>
</g>
<g stroke-width="0.70" style="font:16.00px Arial">
<text x="60.00" y="1025.20">That hath made heaven and earth of naught,</text>
</g>
<g stroke-width="0.70" style="font:16.00px Arial">
<text x="60.00" y="1042.80">And with his blood mankind hath bought</text>
</g>
</svg>
