<?xml version="1.0" standalone="no"?>
<!DOCTYPE svg PUBLIC "-//W3C//DTD SVG 1.1//EN"
	"http://www.w3.org/Graphics/SVG/1.1/DTD/svg11.dtd">
<svg xmlns="http://www.w3.org/2000/svg" version="1.1"
	xmlns:xlink="http://www.w3.org/1999/xlink"
	color="black"
	width="701.60px" height="447.00px">
<style type="text/css">
.fill {fill: currentColor}
.stroke {stroke: currentColor; fill: none}
text{white-space: pre}
</style>
<title>/media/tim/Data1/tims_code/sphinx-tunes/source/_abcfiles/_Whinhams ft Ba (2) tune 1</title>
<!-- Creator: abcm2ps-8.14.6 -->
<!-- CreationDate: Jul 30, 2023 12:21 -->
<!-- CommandLine: -g '/media/tim/Data1/tims_code/sphinx-tunes/source/_abcfiles/_Whinhams ft Ballantine.abc' -O '/media/tim/Data1/tims_code/sphinx-tunes/source/_abcfiles/_Whinhams ft Ballantine.svg' -->
<g stroke-width="0.70" style="font:italic 14.00px Times">
<text x="691.60" y="20.00" text-anchor="end">From Billy Balantine&apos;s Manuscript</text>
</g>
<g stroke-width="0.70" style="font:italic 14.00px Times">
<path class="stroke" stroke-width="1"
	d="M102.80 73.00v-24.00"/>
<path class="stroke" stroke-width="1"
	d="M257.60 73.00v-24.00"/>
<path class="stroke" stroke-width="1"
	d="M407.50 73.00v-24.00"/>
<path class="stroke" stroke-width="1"
	d="M562.30 73.00v-24.00"/>
<path class="stroke" stroke-width="3"
	d="M690.10 73.00v-24.00"/>
<path class="stroke" stroke-width="1"
	d="M685.60 73.00v-24.00"/>
<defs>
<g id="rdots" class="fill">
	<circle cx="0" cy="-9" r="1.2"/>
	<circle cx="0" cy="-15" r="1.2"/>
</g>
</defs>
<use x="681.60" y="73.00" xlink:href="#rdots"/>
<path d="m10.00 73.00
	h681.60
	M10.00 67.00
	h681.60
	M10.00 61.00
	h681.60
	M10.00 55.00
	h681.60
	M10.00 49.00
	h681.60
	" class="stroke"/>
<text style="font:italic 12px serif"
	x="82.90" y="43.60" text-anchor="middle">3</text>
<text style="font:italic 12px serif"
	x="586.70" y="38.60" text-anchor="middle">3</text>
<defs>
<path id="utclef" class="fill" d="m-50 -90
	c-72 -41 -72 -158 52 -188
	150 -10 220 188 90 256
	-114 52 -275 0 -293 -136
	-15 -181 93 -229 220 -334
	88 -87 79 -133 62 -210
	-51 33 -94 105 -89 186
	17 267 36 374 49 574
	6 96 -19 134 -77 135
	-80 1 -126 -93 -61 -133
	85 -41 133 101 31 105
	23 17 92 37 90 -92
	-10 -223 -39 -342 -50 -617
	0 -90 0 -162 96 -232
	56 72 63 230 22 289
	-74 106 -257 168 -255 316
	9 153 148 185 252 133
	86 -65 29 -192 -80 -176
	-71 12 -105 67 -59 124"/>
<use id="tclef" transform="translate(0,6) scale(0.045)"
	xlink:href="#utclef"/>
</defs>
<use x="22.00" y="67.00" xlink:href="#tclef"/>
<defs>
<path id="usharp" class="fill" d="
	m136 -702
	v890
	h32
	v-890
	m128 840
	h32
	v-888
	h-32
	m-232 286
	v116
	l338 -96
	v-116
	m-338 442
	v116
	l338 -98
	v-114"/>
<use id="sh0" transform="translate(-4,5) scale(0.018)"
	xlink:href="#usharp"/>
</defs>
<use x="37.00" y="49.00" xlink:href="#sh0"/>
<defs>
<path id="csig" class="fill" d="
	m6 -5.3
	c0.9 0 2.3 0.7 2.4 2.2
	-1.2 -2 -3.6 0.1 -1.6 1.7
	2 1 3.8 -3.5 -0.8 -4.7
	-2 -0.4 -6.4 1.3 -5.8 7
	0.4 6.4 7.9 6.8 9.1 0.7
	-2.3 5.6 -6.7 5.1 -6.8 0
	-0.5 -4.4 0.7 -7.5 3.5 -6.9"/>
<g id="ctsig">
	<use xlink:href="#csig"/>
	<path d="m5 8v-16" class="stroke"/>
</g>
</defs>
<use x="48.00" y="61.00" xlink:href="#ctsig"/>
<path class="fill"
	d="M74.20 51.60l19.90 -3.80v3.20l-19.90 3.80"/>
<path class="fill"
	d="M74.50 56.50l19.30 -3.70v3.20l-19.30 3.70"/>
<defs>
<ellipse id="hd" rx="4.1" ry="2.9"
	transform="rotate(-20)" class="fill"/>
</defs>
<use x="71.00" y="76.00" xlink:href="#hd"/>
<path d="M74.50 76.00v-23.50" class="stroke"/>
<use x="80.60" y="73.00" xlink:href="#hd"/>
<path d="M84.10 73.00v-22.40" class="stroke"/>
<use x="90.30" y="70.00" xlink:href="#hd"/>
<path d="M93.80 70.00v-21.20" class="stroke"/>
<path class="fill"
	d="M118.40 36.80l36.40 0.00v3.20l-36.40 -0.00"/>
<path class="fill"
	d="M118.80 41.80l35.70 0.00v3.20l-35.70 -0.00"/>
<use x="115.30" y="67.00" xlink:href="#hd"/>
<path d="M118.80 67.00v-29.20" class="stroke"/>
<use x="127.20" y="64.00" xlink:href="#hd"/>
<path d="M130.70 64.00v-26.20" class="stroke"/>
<use x="139.10" y="61.00" xlink:href="#hd"/>
<path d="M142.60 61.00v-23.20" class="stroke"/>
<use x="151.00" y="64.00" xlink:href="#hd"/>
<path d="M154.50 64.00v-26.20" class="stroke"/>
<path class="fill"
	d="M167.20 47.70l16.90 4.40v3.20l-16.90 -4.40"/>
<use x="164.00" y="67.00" xlink:href="#hd"/>
<path d="M167.50 67.00v-18.20" class="stroke"/>
<use x="180.30" y="76.00" xlink:href="#hd"/>
<path d="M183.80 76.00v-22.90" class="stroke"/>
<path class="fill"
	d="M201.30 42.80l28.80 0.00v3.20l-28.80 -0.00"/>
<path class="fill"
	d="M217.80 47.80l11.90 0.00v3.20l-11.90 -0.00"/>
<use x="198.10" y="70.00" xlink:href="#hd"/>
<path d="M201.60 70.00v-26.20" class="stroke"/>
<use x="214.30" y="67.00" xlink:href="#hd"/>
<path d="M217.80 67.00v-23.20" class="stroke"/>
<use x="226.20" y="70.00" xlink:href="#hd"/>
<path d="M229.70 70.00v-26.20" class="stroke"/>
<use x="239.30" y="76.00" xlink:href="#hd"/>
<path d="M242.80 76.00v-21.00" class="stroke"/>
<path class="fill"
	d="M273.20 42.80l28.80 0.00v3.20l-28.80 -0.00"/>
<path class="fill"
	d="M289.80 47.80l11.90 0.00v3.20l-11.90 -0.00"/>
<use x="270.10" y="73.00" xlink:href="#hd"/>
<path d="M273.60 73.00v-29.20" class="stroke"/>
<use x="286.30" y="67.00" xlink:href="#hd"/>
<path d="M289.80 67.00v-23.20" class="stroke"/>
<use x="298.20" y="73.00" xlink:href="#hd"/>
<path d="M301.70 73.00v-29.20" class="stroke"/>
<path class="fill"
	d="M314.40 52.20l16.90 -4.40v3.20l-16.90 4.40"/>
<use x="311.30" y="76.00" xlink:href="#hd"/>
<path d="M314.80 76.00v-22.90" class="stroke"/>
<use x="327.50" y="67.00" xlink:href="#hd"/>
<path d="M331.00 67.00v-18.20" class="stroke"/>
<path class="fill"
	d="M348.50 40.70l49.30 6.20v3.20l-49.30 -6.20"/>
<use x="345.30" y="61.00" xlink:href="#hd"/>
<path d="M348.80 61.00v-19.30" class="stroke"/>
<use x="361.50" y="64.00" xlink:href="#hd"/>
<path d="M365.00 64.00v-20.20" class="stroke"/>
<use x="377.70" y="64.00" xlink:href="#hd"/>
<path d="M381.20 64.00v-18.20" class="stroke"/>
<use x="394.00" y="76.00" xlink:href="#hd"/>
<path d="M397.50 76.00v-28.20" class="stroke"/>
<path class="fill"
	d="M423.20 36.80l36.40 0.00v3.20l-36.40 -0.00"/>
<path class="fill"
	d="M423.50 41.80l35.70 0.00v3.20l-35.70 -0.00"/>
<use x="420.00" y="67.00" xlink:href="#hd"/>
<path d="M423.50 67.00v-29.20" class="stroke"/>
<use x="431.90" y="64.00" xlink:href="#hd"/>
<path d="M435.40 64.00v-26.20" class="stroke"/>
<use x="443.80" y="61.00" xlink:href="#hd"/>
<path d="M447.30 61.00v-23.20" class="stroke"/>
<use x="455.70" y="64.00" xlink:href="#hd"/>
<path d="M459.20 64.00v-26.20" class="stroke"/>
<path class="fill"
	d="M472.00 47.70l16.90 4.40v3.20l-16.90 -4.40"/>
<use x="468.80" y="67.00" xlink:href="#hd"/>
<path d="M472.30 67.00v-18.20" class="stroke"/>
<use x="485.00" y="76.00" xlink:href="#hd"/>
<path d="M488.50 76.00v-22.90" class="stroke"/>
<path class="fill"
	d="M506.00 42.80l28.80 0.00v3.20l-28.80 -0.00"/>
<path class="fill"
	d="M522.60 47.80l11.90 0.00v3.20l-11.90 -0.00"/>
<use x="502.90" y="73.00" xlink:href="#hd"/>
<path d="M506.40 73.00v-29.20" class="stroke"/>
<use x="519.10" y="67.00" xlink:href="#hd"/>
<path d="M522.60 67.00v-23.20" class="stroke"/>
<use x="531.00" y="73.00" xlink:href="#hd"/>
<path d="M534.50 73.00v-29.20" class="stroke"/>
<use x="544.00" y="76.00" xlink:href="#hd"/>
<path d="M547.50 76.00v-21.00" class="stroke"/>
<path class="fill"
	d="M578.00 48.60l19.90 -3.80v3.20l-19.90 3.80"/>
<path class="fill"
	d="M578.30 53.50l19.30 -3.70v3.20l-19.30 3.70"/>
<use x="574.80" y="73.00" xlink:href="#hd"/>
<path d="M578.30 73.00v-23.50" class="stroke"/>
<use x="584.40" y="70.00" xlink:href="#hd"/>
<path d="M587.90 70.00v-22.40" class="stroke"/>
<use x="594.10" y="67.00" xlink:href="#hd"/>
<path d="M597.60 67.00v-21.20" class="stroke"/>
<path class="fill"
	d="M607.80 41.20l16.90 -5.50v3.20l-16.90 5.50"/>
<use x="604.60" y="70.00" xlink:href="#hd"/>
<path d="M608.10 70.00v-27.90" class="stroke"/>
<use x="620.80" y="55.00" xlink:href="#hd"/>
<path d="M624.30 55.00v-18.20" class="stroke"/>
<path class="fill"
	d="M641.80 41.80l33.10 3.00v3.20l-33.10 -3.00"/>
<use x="638.70" y="61.00" xlink:href="#hd"/>
<path d="M642.20 61.00v-18.20" class="stroke"/>
<use x="654.90" y="67.00" xlink:href="#hd"/>
<path d="M658.40 67.00v-22.70" class="stroke"/>
<use x="671.10" y="67.00" xlink:href="#hd"/>
<path d="M674.60 67.00v-21.30" class="stroke"/>
</g>
<g stroke-width="0.70" style="font:italic 14.00px Times">
<path class="stroke" stroke-width="1"
	d="M86.80 143.00v-24.00"/>
<path class="stroke" stroke-width="1"
	d="M229.80 143.00v-24.00"/>
<path class="stroke" stroke-width="1"
	d="M407.60 143.00v-24.00"/>
<path class="stroke" stroke-width="1"
	d="M550.60 143.00v-24.00"/>
<path class="stroke" stroke-width="3"
	d="M690.10 143.00v-24.00"/>
<path class="stroke" stroke-width="1"
	d="M685.60 143.00v-24.00"/>
<use x="681.60" y="143.00" xlink:href="#rdots"/>
<path d="m10.00 143.00
	h681.60
	M10.00 137.00
	h681.60
	M10.00 131.00
	h681.60
	M10.00 125.00
	h681.60
	M10.00 119.00
	h681.60
	" class="stroke"/>
<text style="font:italic 12px serif"
	x="62.40" y="161.40" text-anchor="middle">3</text>
<use x="22.00" y="137.00" xlink:href="#tclef"/>
<use x="37.00" y="119.00" xlink:href="#sh0"/>
<path class="fill"
	d="M51.20 147.30l20.00 -3.80v-3.20l-20.00 3.80"/>
<path class="fill"
	d="M51.50 142.20l19.30 -3.70v-3.20l-19.30 3.70"/>
<use x="55.00" y="125.00" xlink:href="#hd"/>
<path d="M51.50 125.00v21.20" class="stroke"/>
<use x="64.70" y="122.00" xlink:href="#hd"/>
<path d="M61.20 122.00v22.30" class="stroke"/>
<use x="74.30" y="119.00" xlink:href="#hd"/>
<path d="M70.80 119.00v23.50" class="stroke"/>
<path class="fill"
	d="M95.50 156.20l50.10 0.00v-3.20l-50.10 -0.00"/>
<use x="99.30" y="116.00" xlink:href="#hd"/>
<path d="M95.80 116.00v39.20" class="stroke"/>
<use x="115.80" y="137.00" xlink:href="#hd"/>
<path d="M112.30 137.00v18.20" class="stroke"/>
<use x="132.20" y="131.00" xlink:href="#hd"/>
<path d="M128.70 131.00v24.20" class="stroke"/>
<use x="148.70" y="116.00" xlink:href="#hd"/>
<path d="M145.20 116.00v39.20" class="stroke"/>
<path class="fill"
	d="M163.00 153.20l50.10 0.00v-3.20l-50.10 -0.00"/>
<use x="166.80" y="119.00" xlink:href="#hd"/>
<path d="M163.30 119.00v33.20" class="stroke"/>
<use x="183.30" y="134.00" xlink:href="#hd"/>
<path d="M179.80 134.00v18.20" class="stroke"/>
<use x="199.80" y="128.00" xlink:href="#hd"/>
<path d="M196.30 128.00v24.20" class="stroke"/>
<use x="216.20" y="122.00" xlink:href="#hd"/>
<path d="M212.70 122.00v30.20" class="stroke"/>
<path class="fill"
	d="M238.50 153.70l50.10 3.70v-3.20l-50.10 -3.70"/>
<use x="242.30" y="125.00" xlink:href="#hd"/>
<path d="M238.80 125.00v27.70" class="stroke"/>
<use x="258.80" y="131.00" xlink:href="#hd"/>
<path d="M255.30 131.00v23.00" class="stroke"/>
<use x="275.20" y="137.00" xlink:href="#hd"/>
<path d="M271.70 137.00v18.20" class="stroke"/>
<use x="291.70" y="131.00" xlink:href="#hd"/>
<path d="M288.20 131.00v25.40" class="stroke"/>
<path class="fill"
	d="M306.00 156.20l36.70 0.00v-3.20l-36.70 -0.00"/>
<path class="fill"
	d="M306.30 151.20l36.00 0.00v-3.20l-36.00 -0.00"/>
<use x="309.80" y="128.00" xlink:href="#hd"/>
<path d="M306.30 128.00v27.20" class="stroke"/>
<use x="321.80" y="131.00" xlink:href="#hd"/>
<path d="M318.30 131.00v24.20" class="stroke"/>
<use x="333.90" y="134.00" xlink:href="#hd"/>
<path d="M330.40 134.00v21.20" class="stroke"/>
<use x="345.90" y="131.00" xlink:href="#hd"/>
<path d="M342.40 131.00v24.20" class="stroke"/>
<path class="fill"
	d="M355.20 150.30l36.70 -6.10v-3.20l-36.70 6.10"/>
<path class="fill"
	d="M355.60 145.20l36.00 -6.00v-3.20l-36.00 6.00"/>
<use x="359.10" y="128.00" xlink:href="#hd"/>
<path d="M355.60 128.00v21.20" class="stroke"/>
<use x="371.10" y="125.00" xlink:href="#hd"/>
<path d="M367.60 125.00v22.20" class="stroke"/>
<use x="383.10" y="122.00" xlink:href="#hd"/>
<path d="M379.60 122.00v23.20" class="stroke"/>
<use x="395.10" y="119.00" xlink:href="#hd"/>
<path d="M391.60 119.00v24.20" class="stroke"/>
<path class="fill"
	d="M416.30 156.20l50.10 0.00v-3.20l-50.10 -0.00"/>
<use x="420.10" y="116.00" xlink:href="#hd"/>
<path d="M416.60 116.00v39.20" class="stroke"/>
<use x="436.60" y="137.00" xlink:href="#hd"/>
<path d="M433.10 137.00v18.20" class="stroke"/>
<use x="453.00" y="131.00" xlink:href="#hd"/>
<path d="M449.50 131.00v24.20" class="stroke"/>
<use x="469.50" y="116.00" xlink:href="#hd"/>
<path d="M466.00 116.00v39.20" class="stroke"/>
<path class="fill"
	d="M483.80 153.20l50.10 0.00v-3.20l-50.10 -0.00"/>
<use x="487.60" y="119.00" xlink:href="#hd"/>
<path d="M484.10 119.00v33.20" class="stroke"/>
<use x="504.10" y="134.00" xlink:href="#hd"/>
<path d="M500.60 134.00v18.20" class="stroke"/>
<use x="520.50" y="128.00" xlink:href="#hd"/>
<path d="M517.00 128.00v24.20" class="stroke"/>
<use x="537.00" y="122.00" xlink:href="#hd"/>
<path d="M533.50 122.00v30.20" class="stroke"/>
<path class="fill"
	d="M559.30 156.70l17.10 6.60v-3.20l-17.10 -6.60"/>
<use x="563.10" y="116.00" xlink:href="#hd"/>
<path d="M559.60 116.00v39.80" class="stroke"/>
<use x="579.60" y="146.00" xlink:href="#hd"/>
<path d="M576.10 146.00v16.20" class="stroke"/>
<path class="fill"
	d="M593.90 159.30l29.20 -7.10v-3.20l-29.20 7.10"/>
<path class="fill"
	d="M610.70 150.20l12.00 -2.90v-3.20l-12.00 2.90"/>
<use x="597.70" y="140.00" xlink:href="#hd"/>
<path d="M594.20 140.00v18.20" class="stroke"/>
<use x="614.20" y="116.00" xlink:href="#hd"/>
<path d="M610.70 116.00v38.20" class="stroke"/>
<use x="626.20" y="119.00" xlink:href="#hd"/>
<path d="M622.70 119.00v32.30" class="stroke"/>
<path class="fill"
	d="M641.30 111.80l33.60 3.00v3.20l-33.60 -3.00"/>
<use x="638.20" y="131.00" xlink:href="#hd"/>
<path d="M641.70 131.00v-18.20" class="stroke"/>
<use x="654.60" y="137.00" xlink:href="#hd"/>
<path d="M658.10 137.00v-22.70" class="stroke"/>
<use x="671.10" y="137.00" xlink:href="#hd"/>
<path d="M674.60 137.00v-21.20" class="stroke"/>
</g>
<g stroke-width="0.70" style="font:italic 14.00px Times">
<path class="stroke" stroke-width="1"
	d="M85.90 214.00v-24.00"/>
<path class="stroke" stroke-width="1"
	d="M237.90 214.00v-24.00"/>
<path class="stroke" stroke-width="1"
	d="M409.50 214.00v-24.00"/>
<path class="stroke" stroke-width="1"
	d="M558.00 214.00v-24.00"/>
<path class="stroke" stroke-width="3"
	d="M690.10 214.00v-24.00"/>
<path class="stroke" stroke-width="1"
	d="M685.60 214.00v-24.00"/>
<use x="681.60" y="214.00" xlink:href="#rdots"/>
<path d="m10.00 214.00
	h681.60
	M10.00 208.00
	h681.60
	M10.00 202.00
	h681.60
	M10.00 196.00
	h681.60
	M10.00 190.00
	h681.60
	" class="stroke"/>
<text style="font:italic 12px serif"
	x="66.50" y="184.50" text-anchor="middle">3</text>
<text style="font:italic 12px serif"
	x="390.10" y="182.50" text-anchor="middle">3</text>
<use x="22.00" y="208.00" xlink:href="#tclef"/>
<use x="37.00" y="190.00" xlink:href="#sh0"/>
<path class="fill"
	d="M58.20 192.50l19.10 -3.80v3.20l-19.10 3.80"/>
<path class="fill"
	d="M58.50 197.40l18.40 -3.60v3.20l-18.40 3.60"/>
<use x="55.00" y="217.00" xlink:href="#hd"/>
<path d="M58.50 217.00v-23.60" class="stroke"/>
<use x="64.20" y="214.00" xlink:href="#hd"/>
<path d="M67.70 214.00v-22.40" class="stroke"/>
<use x="73.40" y="211.00" xlink:href="#hd"/>
<path d="M76.90 211.00v-21.20" class="stroke"/>
<use x="98.40" y="208.00" xlink:href="#hd"/>
<path d="M101.90 208.00v-21.00" class="stroke"/>
<path class="fill"
	d="M101.90 187.00c0.6 5.6 9.6 9 5.6 18.4
	1.6 -6 -1.3 -11.6 -5.6 -12.8
"/>
<use x="116.00" y="202.00" xlink:href="#hd"/>
<path d="M119.50 202.00v-21.00" class="stroke"/>
<path class="fill"
	d="M119.50 181.00c0.6 5.6 9.6 9 5.6 18.4
	1.6 -6 -1.3 -11.6 -5.6 -12.8
"/>
<path class="fill"
	d="M136.70 176.80l34.40 0.00v3.20l-34.40 -0.00"/>
<path class="fill"
	d="M137.00 181.80l33.80 0.00v3.20l-33.80 -0.00"/>
<use x="133.50" y="202.00" xlink:href="#hd"/>
<path d="M137.00 202.00v-24.20" class="stroke"/>
<use x="144.80" y="199.00" xlink:href="#hd"/>
<path d="M148.30 199.00v-21.20" class="stroke"/>
<use x="156.00" y="202.00" xlink:href="#hd"/>
<path d="M159.50 202.00v-24.20" class="stroke"/>
<use x="167.30" y="205.00" xlink:href="#hd"/>
<path d="M170.80 205.00v-27.20" class="stroke"/>
<path class="fill"
	d="M182.70 189.80l46.00 0.00v3.20l-46.00 -0.00"/>
<use x="179.60" y="208.00" xlink:href="#hd"/>
<path d="M183.10 208.00v-17.20" class="stroke"/>
<use x="194.70" y="214.00" xlink:href="#hd"/>
<path d="M198.20 214.00v-23.20" class="stroke"/>
<use x="209.80" y="214.00" xlink:href="#hd"/>
<path d="M213.30 214.00v-23.20" class="stroke"/>
<use x="224.90" y="208.00" xlink:href="#hd"/>
<path d="M228.40 208.00v-17.20" class="stroke"/>
<path class="fill"
	d="M253.50 188.70l15.80 -3.50v3.20l-15.80 3.50"/>
<use x="250.40" y="211.00" xlink:href="#hd"/>
<path d="M253.90 211.00v-21.30" class="stroke"/>
<use x="265.50" y="205.00" xlink:href="#hd"/>
<path d="M269.00 205.00v-18.70" class="stroke"/>
<path class="fill"
	d="M285.20 193.00l27.10 -4.20v3.20l-27.10 4.20"/>
<path class="fill"
	d="M300.70 195.60l11.30 -1.80v3.20l-11.30 1.80"/>
<use x="282.10" y="217.00" xlink:href="#hd"/>
<path d="M285.60 217.00v-23.10" class="stroke"/>
<use x="297.20" y="214.00" xlink:href="#hd"/>
<path d="M300.70 214.00v-22.40" class="stroke"/>
<use x="308.40" y="211.00" xlink:href="#hd"/>
<path d="M311.90 211.00v-21.20" class="stroke"/>
<path class="fill"
	d="M323.90 182.70l34.40 -6.00v3.20l-34.40 6.00"/>
<path class="fill"
	d="M324.20 187.70l33.80 -5.90v3.20l-33.80 5.90"/>
<use x="320.70" y="208.00" xlink:href="#hd"/>
<path d="M324.20 208.00v-24.30" class="stroke"/>
<use x="332.00" y="205.00" xlink:href="#hd"/>
<path d="M335.50 205.00v-23.30" class="stroke"/>
<use x="343.20" y="202.00" xlink:href="#hd"/>
<path d="M346.70 202.00v-22.20" class="stroke"/>
<use x="354.50" y="199.00" xlink:href="#hd"/>
<path d="M358.00 199.00v-21.20" class="stroke"/>
<use x="367.30" y="196.00" xlink:href="#hd"/>
<path d="M363.80 196.00v23.00" class="stroke"/>
<path class="fill"
	d="M363.80 219.00c0.9 -3.7 9.1 -6.4 6 -12.4
	1 5.4 -4.2 8.4 -6 8.4
M363.80 213.60c0.9 -3.7 9.1 -6.4 6 -12.4
	1 5.4 -4.2 8.4 -6 8.4
"/>
<path class="fill"
	d="M381.70 192.50l19.10 -3.80v3.20l-19.10 3.80"/>
<path class="fill"
	d="M382.00 197.40l18.40 -3.60v3.20l-18.40 3.60"/>
<use x="378.50" y="217.00" xlink:href="#hd"/>
<path d="M382.00 217.00v-23.60" class="stroke"/>
<use x="387.80" y="214.00" xlink:href="#hd"/>
<path d="M391.30 214.00v-22.40" class="stroke"/>
<use x="397.00" y="211.00" xlink:href="#hd"/>
<path d="M400.50 211.00v-21.20" class="stroke"/>
<path class="fill"
	d="M425.10 185.70l15.80 -3.50v3.20l-15.80 3.50"/>
<use x="422.00" y="208.00" xlink:href="#hd"/>
<path d="M425.50 208.00v-21.30" class="stroke"/>
<use x="437.10" y="202.00" xlink:href="#hd"/>
<path d="M440.60 202.00v-18.70" class="stroke"/>
<path class="fill"
	d="M456.80 176.80l34.40 0.00v3.20l-34.40 -0.00"/>
<path class="fill"
	d="M457.20 181.80l33.80 0.00v3.20l-33.80 -0.00"/>
<use x="453.70" y="202.00" xlink:href="#hd"/>
<path d="M457.20 202.00v-24.20" class="stroke"/>
<use x="464.90" y="199.00" xlink:href="#hd"/>
<path d="M468.40 199.00v-21.20" class="stroke"/>
<use x="476.20" y="202.00" xlink:href="#hd"/>
<path d="M479.70 202.00v-24.20" class="stroke"/>
<use x="487.40" y="205.00" xlink:href="#hd"/>
<path d="M490.90 205.00v-27.20" class="stroke"/>
<path class="fill"
	d="M502.90 189.80l46.00 0.00v3.20l-46.00 -0.00"/>
<use x="499.70" y="208.00" xlink:href="#hd"/>
<path d="M503.20 208.00v-17.20" class="stroke"/>
<use x="514.80" y="214.00" xlink:href="#hd"/>
<path d="M518.30 214.00v-23.20" class="stroke"/>
<use x="529.90" y="214.00" xlink:href="#hd"/>
<path d="M533.40 214.00v-23.20" class="stroke"/>
<use x="545.10" y="208.00" xlink:href="#hd"/>
<path d="M548.60 208.00v-17.20" class="stroke"/>
<path class="fill"
	d="M573.70 188.70l15.80 -3.50v3.20l-15.80 3.50"/>
<use x="570.50" y="211.00" xlink:href="#hd"/>
<path d="M574.00 211.00v-21.30" class="stroke"/>
<use x="585.60" y="205.00" xlink:href="#hd"/>
<path d="M589.10 205.00v-18.70" class="stroke"/>
<path class="fill"
	d="M605.40 193.00l27.10 -4.20v3.20l-27.10 4.20"/>
<path class="fill"
	d="M620.80 195.60l11.30 -1.80v3.20l-11.30 1.80"/>
<use x="602.20" y="217.00" xlink:href="#hd"/>
<path d="M605.70 217.00v-23.10" class="stroke"/>
<use x="617.30" y="214.00" xlink:href="#hd"/>
<path d="M620.80 214.00v-22.40" class="stroke"/>
<use x="628.60" y="211.00" xlink:href="#hd"/>
<path d="M632.10 211.00v-21.20" class="stroke"/>
<path class="fill"
	d="M644.00 187.00l30.90 0.00v3.20l-30.90 -0.00"/>
<use x="640.90" y="208.00" xlink:href="#hd"/>
<path d="M644.40 208.00v-20.00" class="stroke"/>
<use x="656.00" y="208.00" xlink:href="#hd"/>
<path d="M659.50 208.00v-20.00" class="stroke"/>
<use x="671.10" y="208.00" xlink:href="#hd"/>
<path d="M674.60 208.00v-20.00" class="stroke"/>
</g>
<g stroke-width="0.70" style="font:italic 14.00px Times">
<path class="stroke" stroke-width="1"
	d="M95.10 284.00v-24.00"/>
<path class="stroke" stroke-width="1"
	d="M227.10 284.00v-24.00"/>
<path class="stroke" stroke-width="1"
	d="M370.50 284.00v-24.00"/>
<path class="stroke" stroke-width="1"
	d="M524.90 284.00v-24.00"/>
<path class="stroke" stroke-width="3"
	d="M690.10 284.00v-24.00"/>
<path class="stroke" stroke-width="1"
	d="M685.60 284.00v-24.00"/>
<use x="681.60" y="284.00" xlink:href="#rdots"/>
<path d="m10.00 284.00
	h681.60
	M10.00 278.00
	h681.60
	M10.00 272.00
	h681.60
	M10.00 266.00
	h681.60
	M10.00 260.00
	h681.60
	" class="stroke"/>
<text style="font:italic 12px serif"
	x="66.50" y="306.00" text-anchor="middle">3</text>
<use x="22.00" y="278.00" xlink:href="#tclef"/>
<use x="37.00" y="260.00" xlink:href="#sh0"/>
<path class="fill"
	d="M51.20 292.00l28.30 0.00v-3.20l-28.30 -0.00"/>
<path class="fill"
	d="M51.50 287.00l27.60 0.00v-3.20l-27.60 -0.00"/>
<use x="55.00" y="272.00" xlink:href="#hd"/>
<path d="M51.50 272.00v19.00" class="stroke"/>
<use x="64.60" y="269.00" xlink:href="#hd"/>
<path d="M61.10 269.00v22.00" class="stroke"/>
<use x="82.60" y="269.00" xlink:href="#hd"/>
<use x="73.60" y="269.00" xlink:href="#sh0"/>
<path d="M79.10 269.00v22.00" class="stroke"/>
<path class="fill"
	d="M103.80 292.80l49.60 -4.80v-3.20l-49.60 4.80"/>
<use x="107.60" y="266.00" xlink:href="#hd"/>
<path d="M104.10 266.00v25.80" class="stroke"/>
<use x="123.90" y="272.00" xlink:href="#hd"/>
<path d="M120.40 272.00v18.20" class="stroke"/>
<use x="140.20" y="266.00" xlink:href="#hd"/>
<path d="M136.70 266.00v22.60" class="stroke"/>
<use x="156.50" y="257.00" xlink:href="#hd"/>
<path d="M153.00 257.00v30.00" class="stroke"/>
<path class="fill"
	d="M170.60 281.40l17.00 2.30v-3.20l-17.00 -2.30"/>
<use x="174.50" y="260.00" xlink:href="#hd"/>
<path d="M171.00 260.00v20.40" class="stroke"/>
<use x="190.80" y="263.00" xlink:href="#hd"/>
<path d="M187.30 263.00v19.60" class="stroke"/>
<use x="208.70" y="263.00" xlink:href="#hd"/>
<path d="M205.20 263.00v21.00" class="stroke"/>
<path class="fill"
	d="M235.70 300.30l49.60 -10.50v-3.20l-49.60 10.50"/>
<use x="239.60" y="281.00" xlink:href="#hd"/>
<path d="M236.10 281.00v18.20" class="stroke"/>
<use x="255.90" y="275.00" xlink:href="#hd"/>
<path d="M252.40 275.00v20.70" class="stroke"/>
<use x="272.20" y="269.00" xlink:href="#hd"/>
<path d="M268.70 269.00v23.30" class="stroke"/>
<use x="288.50" y="263.00" xlink:href="#hd"/>
<path d="M285.00 263.00v25.80" class="stroke"/>
<path class="fill"
	d="M302.60 284.40l17.00 2.30v-3.20l-17.00 -2.30"/>
<use x="306.40" y="263.00" xlink:href="#hd"/>
<path d="M302.90 263.00v20.40" class="stroke"/>
<use x="322.70" y="266.00" xlink:href="#hd"/>
<path d="M319.20 266.00v19.60" class="stroke"/>
<use x="340.70" y="266.00" xlink:href="#hd"/>
<path d="M337.20 266.00v21.00" class="stroke"/>
<path class="fill"
	d="M337.20 287.00c0.6 -5.6 9.6 -9 5.6 -18.4
	1.6 6 -1.3 11.6 -5.6 12.8
"/>
<defs>
<path id="r8e" class="fill" d="m 0 0
	c-1.5 1.5 -2.4 2 -3.6 2
	2.4 -2.8 -2.8 -4 -2.8 -1.2
	c0 2.7 4.3 2.4 5.9 0.6"/>
<g id="r8">
	<path d="m3.3 -4l-3.4 9.6" class="stroke"/>
	<use x="3.4" y="-4" xlink:href="#r8e"/>
</g>
</defs>
<use x="357.00" y="272.00" xlink:href="#r8"/>
<path class="fill"
	d="M379.20 292.80l49.60 -4.80v-3.20l-49.60 4.80"/>
<use x="383.00" y="266.00" xlink:href="#hd"/>
<path d="M379.50 266.00v25.80" class="stroke"/>
<use x="399.30" y="272.00" xlink:href="#hd"/>
<path d="M395.80 272.00v18.20" class="stroke"/>
<use x="415.60" y="266.00" xlink:href="#hd"/>
<path d="M412.10 266.00v22.60" class="stroke"/>
<use x="431.90" y="257.00" xlink:href="#hd"/>
<path d="M428.40 257.00v30.00" class="stroke"/>
<path class="fill"
	d="M446.00 281.40l17.00 2.30v-3.20l-17.00 -2.30"/>
<use x="449.90" y="260.00" xlink:href="#hd"/>
<path d="M446.40 260.00v20.40" class="stroke"/>
<use x="466.20" y="263.00" xlink:href="#hd"/>
<path d="M462.70 263.00v19.60" class="stroke"/>
<path class="fill"
	d="M480.30 294.60l28.90 5.70v-3.20l-28.90 -5.70"/>
<path class="fill"
	d="M496.90 292.80l11.90 2.40v-3.20l-11.90 -2.40"/>
<use x="484.10" y="263.00" xlink:href="#hd"/>
<path d="M480.60 263.00v30.60" class="stroke"/>
<use x="500.40" y="275.00" xlink:href="#hd"/>
<path d="M496.90 275.00v21.80" class="stroke"/>
<use x="512.40" y="278.00" xlink:href="#hd"/>
<path d="M508.90 278.00v21.20" class="stroke"/>
<path class="fill"
	d="M540.50 255.80l36.40 -6.10v3.20l-36.40 6.10"/>
<path class="fill"
	d="M540.90 260.80l35.80 -6.00v3.20l-35.80 6.00"/>
<use x="537.40" y="281.00" xlink:href="#hd"/>
<path d="M540.90 281.00v-24.20" class="stroke"/>
<use x="549.30" y="278.00" xlink:href="#hd"/>
<path d="M552.80 278.00v-23.20" class="stroke"/>
<use x="561.20" y="275.00" xlink:href="#hd"/>
<path d="M564.70 275.00v-22.20" class="stroke"/>
<use x="573.10" y="272.00" xlink:href="#hd"/>
<path d="M576.60 272.00v-21.20" class="stroke"/>
<path class="fill"
	d="M582.80 291.30l36.40 -6.10v-3.20l-36.40 6.10"/>
<path class="fill"
	d="M583.10 286.20l35.80 -6.00v-3.20l-35.80 6.00"/>
<use x="586.60" y="269.00" xlink:href="#hd"/>
<path d="M583.10 269.00v21.20" class="stroke"/>
<use x="598.50" y="266.00" xlink:href="#hd"/>
<path d="M595.00 266.00v22.20" class="stroke"/>
<use x="610.40" y="263.00" xlink:href="#hd"/>
<path d="M606.90 263.00v23.20" class="stroke"/>
<use x="622.40" y="260.00" xlink:href="#hd"/>
<path d="M618.90 260.00v24.20" class="stroke"/>
<path class="fill"
	d="M631.60 278.20l17.00 0.00v-3.20l-17.00 -0.00"/>
<use x="635.50" y="257.00" xlink:href="#hd"/>
<path d="M632.00 257.00v20.20" class="stroke"/>
<use x="651.80" y="257.00" xlink:href="#hd"/>
<path d="M648.30 257.00v20.20" class="stroke"/>
<use x="669.70" y="257.00" xlink:href="#hd"/>
<path d="M666.20 257.00v21.00" class="stroke"/>
</g>
<g stroke-width="0.70" style="font:italic 14.00px Times">
<path class="stroke" stroke-width="1"
	d="M203.70 354.00v-24.00"/>
<path class="stroke" stroke-width="1"
	d="M365.00 354.00v-24.00"/>
<path class="stroke" stroke-width="1"
	d="M507.20 354.00v-24.00"/>
<path class="stroke" stroke-width="1"
	d="M691.60 354.00v-24.00"/>
<path d="m10.00 354.00
	h681.60
	M10.00 348.00
	h681.60
	M10.00 342.00
	h681.60
	M10.00 336.00
	h681.60
	M10.00 330.00
	h681.60
	" class="stroke"/>
<text style="font:italic 12px serif"
	x="177.90" y="370.40" text-anchor="middle">3</text>
<text style="font:italic 12px serif"
	x="339.20" y="376.00" text-anchor="middle">3</text>
<use x="22.00" y="348.00" xlink:href="#tclef"/>
<use x="37.00" y="330.00" xlink:href="#sh0"/>
<path class="fill"
	d="M51.20 361.20l58.80 -6.70v-3.20l-58.80 6.70"/>
<use x="55.00" y="342.00" xlink:href="#hd"/>
<path d="M51.50 342.00v18.20" class="stroke"/>
<use x="74.40" y="339.00" xlink:href="#hd"/>
<path d="M70.90 339.00v19.00" class="stroke"/>
<use x="93.70" y="336.00" xlink:href="#hd"/>
<path d="M90.20 336.00v19.80" class="stroke"/>
<use x="113.10" y="327.00" xlink:href="#hd"/>
<path d="M109.60 327.00v26.50" class="stroke"/>
<use x="134.60" y="336.00" xlink:href="#hd"/>
<circle class="fill" cx="142.30" cy="333.00" r="1.2"/>
<path d="M131.10 336.00v21.00" class="stroke"/>
<path class="fill"
	d="M165.40 358.30l22.60 -4.00v-3.20l-22.60 4.00"/>
<path class="fill"
	d="M165.70 353.20l21.90 -3.90v-3.20l-21.90 3.90"/>
<use x="169.20" y="336.00" xlink:href="#hd"/>
<path d="M165.70 336.00v21.20" class="stroke"/>
<use x="180.20" y="333.00" xlink:href="#hd"/>
<path d="M176.70 333.00v22.30" class="stroke"/>
<use x="191.20" y="330.00" xlink:href="#hd"/>
<path d="M187.70 330.00v23.30" class="stroke"/>
<path class="fill"
	d="M219.30 326.00l58.80 -7.00v3.20l-58.80 7.00"/>
<use x="216.20" y="348.00" xlink:href="#hd"/>
<path d="M219.70 348.00v-21.10" class="stroke"/>
<use x="235.50" y="345.00" xlink:href="#hd"/>
<path d="M239.00 345.00v-20.40" class="stroke"/>
<use x="254.90" y="342.00" xlink:href="#hd"/>
<path d="M258.40 342.00v-19.60" class="stroke"/>
<use x="274.30" y="339.00" xlink:href="#hd"/>
<path d="M277.80 339.00v-18.90" class="stroke"/>
<use x="295.70" y="342.00" xlink:href="#hd"/>
<circle class="fill" cx="303.40" cy="339.00" r="1.2"/>
<path d="M299.20 342.00v-21.00" class="stroke"/>
<path class="fill"
	d="M326.70 362.00l22.60 0.00v-3.20l-22.60 -0.00"/>
<path class="fill"
	d="M327.10 357.00l21.90 0.00v-3.20l-21.90 -0.00"/>
<use x="330.60" y="342.00" xlink:href="#hd"/>
<path d="M327.10 342.00v19.00" class="stroke"/>
<use x="341.50" y="339.00" xlink:href="#hd"/>
<path d="M338.00 339.00v22.00" class="stroke"/>
<use x="352.50" y="342.00" xlink:href="#hd"/>
<path d="M349.00 342.00v19.00" class="stroke"/>
<path class="fill"
	d="M373.60 364.20l58.80 0.00v-3.20l-58.80 -0.00"/>
<use x="377.50" y="345.00" xlink:href="#hd"/>
<path d="M374.00 345.00v18.20" class="stroke"/>
<use x="396.90" y="342.00" xlink:href="#hd"/>
<path d="M393.40 342.00v21.20" class="stroke"/>
<use x="416.20" y="339.00" xlink:href="#hd"/>
<path d="M412.70 339.00v24.20" class="stroke"/>
<use x="435.60" y="345.00" xlink:href="#hd"/>
<path d="M432.10 345.00v18.20" class="stroke"/>
<use x="457.10" y="330.00" xlink:href="#hd"/>
<circle class="fill" cx="464.80" cy="327.00" r="1.2"/>
<path d="M453.60 330.00v21.00" class="stroke"/>
<use x="491.70" y="333.00" xlink:href="#hd"/>
<path d="M488.20 333.00v21.00" class="stroke"/>
<path class="fill"
	d="M488.20 354.00c0.6 -5.6 9.6 -9 5.6 -18.4
	1.6 6 -1.3 11.6 -5.6 12.8
"/>
<path class="fill"
	d="M515.80 357.00l59.40 0.00v-3.20l-59.40 -0.00"/>
<use x="519.70" y="333.00" xlink:href="#hd"/>
<path d="M516.20 333.00v23.00" class="stroke"/>
<use x="539.00" y="336.00" xlink:href="#hd"/>
<path d="M535.50 336.00v20.00" class="stroke"/>
<use x="559.00" y="339.00" xlink:href="#hd"/>
<use x="550.00" y="339.00" xlink:href="#sh0"/>
<path d="M555.50 339.00v17.00" class="stroke"/>
<use x="578.40" y="333.00" xlink:href="#hd"/>
<path d="M574.90 333.00v23.00" class="stroke"/>
<path class="fill"
	d="M596.00 360.20l42.30 0.00v-3.20l-42.30 -0.00"/>
<path class="fill"
	d="M596.30 355.20l41.60 0.00v-3.20l-41.60 -0.00"/>
<use x="599.80" y="336.00" xlink:href="#hd"/>
<path d="M596.30 336.00v23.20" class="stroke"/>
<use x="613.70" y="336.00" xlink:href="#hd"/>
<path d="M610.20 336.00v23.20" class="stroke"/>
<use x="627.60" y="336.00" xlink:href="#hd"/>
<path d="M624.10 336.00v23.20" class="stroke"/>
<use x="641.40" y="336.00" xlink:href="#hd"/>
<path d="M637.90 336.00v23.20" class="stroke"/>
<use x="656.80" y="336.00" xlink:href="#hd"/>
<path d="M653.30 336.00v21.00" class="stroke"/>
<path class="fill"
	d="M653.30 357.00c0.6 -5.6 9.6 -9 5.6 -18.4
	1.6 6 -1.3 11.6 -5.6 12.8
"/>
<use x="676.20" y="342.00" xlink:href="#r8"/>
</g>
<g stroke-width="0.70" style="font:italic 14.00px Times">
<path class="stroke" stroke-width="1"
	d="M273.70 424.00v-24.00"/>
<path class="stroke" stroke-width="1"
	d="M511.10 424.00v-24.00"/>
<path class="stroke" stroke-width="3"
	d="M690.10 424.00v-24.00"/>
<path class="stroke" stroke-width="1"
	d="M685.60 424.00v-24.00"/>
<path d="m10.00 424.00
	h681.60
	M10.00 418.00
	h681.60
	M10.00 412.00
	h681.60
	M10.00 406.00
	h681.60
	M10.00 400.00
	h681.60
	" class="stroke"/>
<text style="font:italic 12px serif"
	x="246.40" y="394.70" text-anchor="middle">3</text>
<use x="22.00" y="418.00" xlink:href="#tclef"/>
<use x="37.00" y="400.00" xlink:href="#sh0"/>
<path class="fill"
	d="M51.20 431.20l91.10 -7.30v-3.20l-91.10 7.30"/>
<use x="55.00" y="412.00" xlink:href="#hd"/>
<path d="M51.50 412.00v18.20" class="stroke"/>
<use x="85.10" y="409.00" xlink:href="#hd"/>
<path d="M81.60 409.00v18.80" class="stroke"/>
<use x="115.30" y="406.00" xlink:href="#hd"/>
<path d="M111.80 406.00v19.40" class="stroke"/>
<use x="145.40" y="397.00" xlink:href="#hd"/>
<path d="M141.90 397.00v25.90" class="stroke"/>
<use x="178.90" y="406.00" xlink:href="#hd"/>
<circle class="fill" cx="186.60" cy="403.00" r="1.2"/>
<path d="M175.40 406.00v21.00" class="stroke"/>
<path class="fill"
	d="M230.60 403.30l33.90 -4.50v3.20l-33.90 4.50"/>
<path class="fill"
	d="M231.00 408.20l33.30 -4.40v3.20l-33.30 4.40"/>
<use x="227.50" y="427.00" xlink:href="#hd"/>
<path d="M231.00 427.00v-22.80" class="stroke"/>
<use x="244.10" y="424.00" xlink:href="#hd"/>
<path d="M247.60 424.00v-22.00" class="stroke"/>
<use x="260.70" y="421.00" xlink:href="#hd"/>
<path d="M264.20 421.00v-21.20" class="stroke"/>
<path class="fill"
	d="M286.60 434.20l91.10 -6.90v-3.20l-91.10 6.90"/>
<use x="290.40" y="415.00" xlink:href="#hd"/>
<path d="M286.90 415.00v18.20" class="stroke"/>
<use x="320.60" y="409.00" xlink:href="#hd"/>
<path d="M317.10 409.00v21.90" class="stroke"/>
<use x="350.70" y="400.00" xlink:href="#hd"/>
<path d="M347.20 400.00v28.60" class="stroke"/>
<use x="380.80" y="403.00" xlink:href="#hd"/>
<path d="M377.30 403.00v23.30" class="stroke"/>
<path class="fill"
	d="M410.50 424.20l30.80 2.60v-3.20l-30.80 -2.60"/>
<use x="414.30" y="403.00" xlink:href="#hd"/>
<path d="M410.80 403.00v20.20" class="stroke"/>
<use x="444.50" y="406.00" xlink:href="#hd"/>
<path d="M441.00 406.00v19.80" class="stroke"/>
<use x="478.00" y="406.00" xlink:href="#hd"/>
<path d="M474.50 406.00v21.00" class="stroke"/>
<path class="fill"
	d="M524.00 427.70l91.10 7.60v-3.20l-91.10 -7.60"/>
<use x="527.90" y="406.00" xlink:href="#hd"/>
<path d="M524.40 406.00v20.70" class="stroke"/>
<use x="558.00" y="409.00" xlink:href="#hd"/>
<path d="M554.50 409.00v20.20" class="stroke"/>
<use x="588.20" y="412.00" xlink:href="#hd"/>
<path d="M584.70 412.00v19.80" class="stroke"/>
<use x="618.30" y="415.00" xlink:href="#hd"/>
<path d="M614.80 415.00v19.30" class="stroke"/>
<use x="648.50" y="427.00" xlink:href="#hd"/>
<circle class="fill" cx="656.20" cy="427.00" r="1.2"/>
<path d="M652.00 427.00v-21.00" class="stroke"/>
</g>
</svg>
