<?xml version="1.0" standalone="no"?>
<!DOCTYPE svg PUBLIC "-//W3C//DTD SVG 1.1//EN"
	"http://www.w3.org/Graphics/SVG/1.1/DTD/svg11.dtd">
<svg xmlns="http://www.w3.org/2000/svg" version="1.1"
	xmlns:xlink="http://www.w3.org/1999/xlink"
	color="black"
	width="701.60px" height="595.86px">
<style type="text/css">
.fill {fill: currentColor}
.stroke {stroke: currentColor; fill: none}
text{white-space: pre}
</style>
<title>/media/tim/Data1/tims_code/sphinx-tunes/source/_abcfiles/_William Woods. (1) tune 1</title>
<!-- Creator: abcm2ps-8.14.6 -->
<!-- CreationDate: Jul 30, 2023 12:21 -->
<!-- CommandLine: -g '/media/tim/Data1/tims_code/sphinx-tunes/source/_abcfiles/_William Woods.abc' -O '/media/tim/Data1/tims_code/sphinx-tunes/source/_abcfiles/_William Woods.svg' -->
<g stroke-width="0.70" style="font:italic 14.00px Times">
<text x="691.60" y="20.00" text-anchor="end">Chris Ormiston</text>
</g>
<g stroke-width="0.70" style="font:italic 14.00px Times">
<defs>
<g id="rdots" class="fill">
	<circle cx="0" cy="-9" r="1.2"/>
	<circle cx="0" cy="-15" r="1.2"/>
</g>
</defs>
<use x="119.00" y="73.00" xlink:href="#rdots"/>
<path class="stroke" stroke-width="1"
	d="M115.00 73.00v-24.00"/>
<path class="stroke" stroke-width="3"
	d="M110.50 73.00v-24.00"/>
<path class="stroke" stroke-width="1"
	d="M264.00 73.00v-24.00"/>
<path class="stroke" stroke-width="1"
	d="M407.60 73.00v-24.00"/>
<path class="stroke" stroke-width="1"
	d="M558.60 73.00v-24.00"/>
<path class="stroke" stroke-width="1"
	d="M691.60 73.00v-24.00"/>
<path d="m10.00 73.00
	h681.60
	M10.00 67.00
	h681.60
	M10.00 61.00
	h681.60
	M10.00 55.00
	h681.60
	M10.00 49.00
	h681.60
	" class="stroke"/>
<text style="font:italic 12px serif"
	x="87.60" y="45.70" text-anchor="middle">3</text>
<text style="font:italic 12px serif"
	x="667.10" y="45.70" text-anchor="middle">3</text>
<defs>
<path id="utclef" class="fill" d="m-50 -90
	c-72 -41 -72 -158 52 -188
	150 -10 220 188 90 256
	-114 52 -275 0 -293 -136
	-15 -181 93 -229 220 -334
	88 -87 79 -133 62 -210
	-51 33 -94 105 -89 186
	17 267 36 374 49 574
	6 96 -19 134 -77 135
	-80 1 -126 -93 -61 -133
	85 -41 133 101 31 105
	23 17 92 37 90 -92
	-10 -223 -39 -342 -50 -617
	0 -90 0 -162 96 -232
	56 72 63 230 22 289
	-74 106 -257 168 -255 316
	9 153 148 185 252 133
	86 -65 29 -192 -80 -176
	-71 12 -105 67 -59 124"/>
<use id="tclef" transform="translate(0,6) scale(0.045)"
	xlink:href="#utclef"/>
</defs>
<use x="22.00" y="67.00" xlink:href="#tclef"/>
<defs>
<path id="usharp" class="fill" d="
	m136 -702
	v890
	h32
	v-890
	m128 840
	h32
	v-888
	h-32
	m-232 286
	v116
	l338 -96
	v-116
	m-338 442
	v116
	l338 -98
	v-114"/>
<use id="sh0" transform="translate(-4,5) scale(0.018)"
	xlink:href="#usharp"/>
</defs>
<use x="37.00" y="49.00" xlink:href="#sh0"/>
<defs>
<path id="csig" class="fill" d="
	m6 -5.3
	c0.9 0 2.3 0.7 2.4 2.2
	-1.2 -2 -3.6 0.1 -1.6 1.7
	2 1 3.8 -3.5 -0.8 -4.7
	-2 -0.4 -6.4 1.3 -5.8 7
	0.4 6.4 7.9 6.8 9.1 0.7
	-2.3 5.6 -6.7 5.1 -6.8 0
	-0.5 -4.4 0.7 -7.5 3.5 -6.9"/>
<g id="ctsig">
	<use xlink:href="#csig"/>
	<path d="m5 8v-16" class="stroke"/>
</g>
</defs>
<use x="48.00" y="61.00" xlink:href="#ctsig"/>
<path class="fill"
	d="M74.20 54.20l29.20 -4.30v3.20l-29.20 4.30"/>
<defs>
<ellipse id="hd" rx="4.1" ry="2.9"
	transform="rotate(-20)" class="fill"/>
</defs>
<use x="71.00" y="76.00" xlink:href="#hd"/>
<path d="M74.50 76.00v-20.90" class="stroke"/>
<use x="85.30" y="73.00" xlink:href="#hd"/>
<path d="M88.80 73.00v-20.00" class="stroke"/>
<use x="99.50" y="70.00" xlink:href="#hd"/>
<path d="M103.00 70.00v-19.10" class="stroke"/>
<path class="fill"
	d="M135.70 42.70l22.00 -4.00v3.20l-22.00 4.00"/>
<path class="fill"
	d="M150.30 45.10l7.00 -1.30v3.20l-7.00 1.30"/>
<use x="132.50" y="67.00" xlink:href="#hd"/>
<circle class="fill" cx="140.20" cy="64.00" r="1.2"/>
<path d="M136.00 67.00v-23.40" class="stroke"/>
<use x="153.80" y="61.00" xlink:href="#hd"/>
<path d="M157.30 61.00v-21.20" class="stroke"/>
<path class="fill"
	d="M164.70 79.30l22.00 4.00v-3.20l-22.00 -4.00"/>
<path class="fill"
	d="M179.30 76.90l7.00 1.30v-3.20l-7.00 -1.30"/>
<use x="168.50" y="55.00" xlink:href="#hd"/>
<circle class="fill" cx="176.20" cy="52.00" r="1.2"/>
<path d="M165.00 55.00v23.40" class="stroke"/>
<use x="189.80" y="61.00" xlink:href="#hd"/>
<path d="M186.30 61.00v21.20" class="stroke"/>
<use x="202.90" y="67.00" xlink:href="#hd"/>
<path d="M206.40 67.00v-21.00" class="stroke"/>
<path class="fill"
	d="M233.40 45.30l22.00 2.40v3.20l-22.00 -2.40"/>
<path class="fill"
	d="M248.00 51.90l7.00 0.80v3.20l-7.00 -0.80"/>
<use x="230.20" y="67.00" xlink:href="#hd"/>
<circle class="fill" cx="237.90" cy="64.00" r="1.2"/>
<path d="M233.70 67.00v-20.70" class="stroke"/>
<use x="251.50" y="70.00" xlink:href="#hd"/>
<path d="M255.00 70.00v-21.30" class="stroke"/>
<path class="fill"
	d="M279.70 36.80l56.30 0.00v3.20l-56.30 -0.00"/>
<path class="fill"
	d="M294.30 41.80l7.00 0.00v3.20l-7.00 -0.00"/>
<path class="fill"
	d="M328.60 41.80l7.00 0.00v3.20l-7.00 -0.00"/>
<use x="276.50" y="73.00" xlink:href="#hd"/>
<circle class="fill" cx="284.20" cy="70.00" r="1.2"/>
<path d="M280.00 73.00v-35.20" class="stroke"/>
<use x="297.80" y="67.00" xlink:href="#hd"/>
<path d="M301.30 67.00v-29.20" class="stroke"/>
<use x="310.80" y="58.00" xlink:href="#hd"/>
<circle class="fill" cx="318.50" cy="58.00" r="1.2"/>
<path d="M314.30 58.00v-20.20" class="stroke"/>
<use x="332.10" y="73.00" xlink:href="#hd"/>
<path d="M335.60 73.00v-35.20" class="stroke"/>
<use x="346.50" y="76.00" xlink:href="#hd"/>
<path d="M350.00 76.00v-21.00" class="stroke"/>
<path class="fill"
	d="M377.00 44.20l22.00 -2.40v3.20l-22.00 2.40"/>
<path class="fill"
	d="M391.60 47.60l7.00 -0.80v3.20l-7.00 0.80"/>
<use x="373.80" y="67.00" xlink:href="#hd"/>
<circle class="fill" cx="381.50" cy="64.00" r="1.2"/>
<path d="M377.30 67.00v-21.90" class="stroke"/>
<use x="395.10" y="64.00" xlink:href="#hd"/>
<path d="M398.60 64.00v-21.20" class="stroke"/>
<path class="fill"
	d="M423.30 35.80l56.30 0.00v3.20l-56.30 -0.00"/>
<path class="fill"
	d="M437.90 40.80l7.00 0.00v3.20l-7.00 -0.00"/>
<path class="fill"
	d="M472.30 40.80l7.00 0.00v3.20l-7.00 -0.00"/>
<use x="420.10" y="61.00" xlink:href="#hd"/>
<circle class="fill" cx="427.80" cy="58.00" r="1.2"/>
<path d="M423.60 61.00v-24.20" class="stroke"/>
<use x="441.40" y="67.00" xlink:href="#hd"/>
<path d="M444.90 67.00v-30.20" class="stroke"/>
<use x="454.50" y="55.00" xlink:href="#hd"/>
<circle class="fill" cx="462.20" cy="52.00" r="1.2"/>
<path d="M458.00 55.00v-18.20" class="stroke"/>
<use x="475.80" y="67.00" xlink:href="#hd"/>
<path d="M479.30 67.00v-30.20" class="stroke"/>
<path class="fill"
	d="M486.60 82.30l56.30 6.90v-3.20l-56.30 -6.90"/>
<path class="fill"
	d="M501.30 79.10l7.00 0.90v-3.20l-7.00 -0.90"/>
<path class="fill"
	d="M535.60 83.30l7.00 0.90v-3.20l-7.00 -0.90"/>
<use x="490.50" y="52.00" xlink:href="#hd"/>
<circle class="fill" cx="498.20" cy="52.00" r="1.2"/>
<path d="M487.00 52.00v29.40" class="stroke"/>
<use x="511.80" y="55.00" xlink:href="#hd"/>
<path d="M508.30 55.00v29.00" class="stroke"/>
<use x="524.80" y="61.00" xlink:href="#hd"/>
<circle class="fill" cx="532.50" cy="58.00" r="1.2"/>
<path d="M521.30 61.00v24.60" class="stroke"/>
<use x="546.10" y="67.00" xlink:href="#hd"/>
<path d="M542.60 67.00v21.20" class="stroke"/>
<use x="571.10" y="61.00" xlink:href="#hd"/>
<path d="M567.60 61.00v21.00" class="stroke"/>
<use x="595.90" y="64.00" xlink:href="#hd"/>
<path d="M599.40 64.00v-21.00" class="stroke"/>
<use x="623.20" y="64.00" xlink:href="#hd"/>
<path d="M626.70 64.00v-21.00" class="stroke"/>
<path class="fill"
	d="M653.70 54.20l29.20 -4.30v3.20l-29.20 4.30"/>
<use x="650.60" y="76.00" xlink:href="#hd"/>
<path d="M654.10 76.00v-20.90" class="stroke"/>
<use x="664.80" y="73.00" xlink:href="#hd"/>
<path d="M668.30 73.00v-20.00" class="stroke"/>
<use x="679.10" y="70.00" xlink:href="#hd"/>
<path d="M682.60 70.00v-19.10" class="stroke"/>
</g>
<g stroke-width="0.70" style="font:italic 14.00px Times">
<path class="stroke" stroke-width="1"
	d="M218.60 143.00v-24.00"/>
<path class="stroke" stroke-width="1"
	d="M395.10 143.00v-24.00"/>
<path class="stroke" stroke-width="1"
	d="M576.40 143.00v-24.00"/>
<path class="stroke" stroke-width="3"
	d="M690.10 143.00v-24.00"/>
<path class="stroke" stroke-width="1"
	d="M685.60 143.00v-24.00"/>
<use x="681.60" y="143.00" xlink:href="#rdots"/>
<path d="m10.00 143.00
	h681.60
	M10.00 137.00
	h681.60
	M10.00 131.00
	h681.60
	M10.00 125.00
	h681.60
	M10.00 119.00
	h681.60
	" class="stroke"/>
<use x="22.00" y="137.00" xlink:href="#tclef"/>
<use x="37.00" y="119.00" xlink:href="#sh0"/>
<path class="fill"
	d="M58.20 108.10l70.20 -3.70v3.20l-70.20 3.70"/>
<path class="fill"
	d="M78.00 112.00l7.00 -0.40v3.20l-7.00 0.40"/>
<path class="fill"
	d="M121.00 109.80l7.00 -0.40v3.20l-7.00 0.40"/>
<use x="55.00" y="137.00" xlink:href="#hd"/>
<circle class="fill" cx="62.70" cy="134.00" r="1.2"/>
<path d="M58.50 137.00v-27.90" class="stroke"/>
<use x="81.50" y="131.00" xlink:href="#hd"/>
<path d="M85.00 131.00v-23.30" class="stroke"/>
<use x="98.00" y="125.00" xlink:href="#hd"/>
<circle class="fill" cx="105.70" cy="122.00" r="1.2"/>
<path d="M101.50 125.00v-18.20" class="stroke"/>
<use x="124.50" y="131.00" xlink:href="#hd"/>
<path d="M128.00 131.00v-25.60" class="stroke"/>
<use x="142.80" y="137.00" xlink:href="#hd"/>
<path d="M146.30 137.00v-21.00" class="stroke"/>
<path class="fill"
	d="M182.30 115.20l27.20 2.50v3.20l-27.20 -2.50"/>
<path class="fill"
	d="M202.20 122.10l7.00 0.60v3.20l-7.00 -0.60"/>
<use x="179.20" y="137.00" xlink:href="#hd"/>
<circle class="fill" cx="186.90" cy="134.00" r="1.2"/>
<path d="M182.70 137.00v-20.70" class="stroke"/>
<use x="205.70" y="140.00" xlink:href="#hd"/>
<path d="M209.20 140.00v-21.30" class="stroke"/>
<path class="fill"
	d="M234.70 106.80l70.20 0.00v3.20l-70.20 -0.00"/>
<path class="fill"
	d="M254.60 111.80l7.00 0.00v3.20l-7.00 -0.00"/>
<path class="fill"
	d="M297.60 111.80l7.00 0.00v3.20l-7.00 -0.00"/>
<use x="231.60" y="143.00" xlink:href="#hd"/>
<circle class="fill" cx="239.30" cy="140.00" r="1.2"/>
<path d="M235.10 143.00v-35.20" class="stroke"/>
<use x="258.10" y="137.00" xlink:href="#hd"/>
<path d="M261.60 137.00v-29.20" class="stroke"/>
<use x="274.50" y="128.00" xlink:href="#hd"/>
<circle class="fill" cx="282.20" cy="128.00" r="1.2"/>
<path d="M278.00 128.00v-20.20" class="stroke"/>
<use x="301.10" y="143.00" xlink:href="#hd"/>
<path d="M304.60 143.00v-35.20" class="stroke"/>
<use x="319.30" y="146.00" xlink:href="#hd"/>
<path d="M322.80 146.00v-21.00" class="stroke"/>
<path class="fill"
	d="M358.90 114.30l27.20 -2.50v3.20l-27.20 2.50"/>
<path class="fill"
	d="M378.80 117.40l7.00 -0.60v3.20l-7.00 0.60"/>
<use x="355.80" y="137.00" xlink:href="#hd"/>
<circle class="fill" cx="363.50" cy="134.00" r="1.2"/>
<path d="M359.30 137.00v-21.80" class="stroke"/>
<use x="382.30" y="134.00" xlink:href="#hd"/>
<path d="M385.80 134.00v-21.20" class="stroke"/>
<path class="fill"
	d="M404.30 151.00l70.20 0.00v-3.20l-70.20 -0.00"/>
<path class="fill"
	d="M424.20 146.00l7.00 0.00v-3.20l-7.00 -0.00"/>
<path class="fill"
	d="M467.10 146.00l7.00 0.00v-3.20l-7.00 -0.00"/>
<use x="408.10" y="131.00" xlink:href="#hd"/>
<circle class="fill" cx="415.80" cy="128.00" r="1.2"/>
<path d="M404.60 131.00v19.00" class="stroke"/>
<use x="434.70" y="122.00" xlink:href="#hd"/>
<path d="M431.20 122.00v28.00" class="stroke"/>
<use x="451.10" y="125.00" xlink:href="#hd"/>
<circle class="fill" cx="458.80" cy="122.00" r="1.2"/>
<path d="M447.60 125.00v25.00" class="stroke"/>
<use x="477.60" y="128.00" xlink:href="#hd"/>
<path d="M474.10 128.00v22.00" class="stroke"/>
<path class="fill"
	d="M497.20 109.90l70.20 4.90v3.20l-70.20 -4.90"/>
<path class="fill"
	d="M517.10 116.30l7.00 0.50v3.20l-7.00 -0.50"/>
<path class="fill"
	d="M560.10 119.30l7.00 0.50v3.20l-7.00 -0.50"/>
<use x="494.10" y="131.00" xlink:href="#hd"/>
<circle class="fill" cx="501.80" cy="128.00" r="1.2"/>
<path d="M497.60 131.00v-20.10" class="stroke"/>
<use x="520.60" y="134.00" xlink:href="#hd"/>
<path d="M524.10 134.00v-21.20" class="stroke"/>
<use x="537.10" y="137.00" xlink:href="#hd"/>
<circle class="fill" cx="544.80" cy="134.00" r="1.2"/>
<path d="M540.60 137.00v-23.00" class="stroke"/>
<use x="563.60" y="140.00" xlink:href="#hd"/>
<path d="M567.10 140.00v-24.20" class="stroke"/>
<use x="589.40" y="134.00" xlink:href="#hd"/>
<path d="M592.90 134.00v-21.00" class="stroke"/>
<use x="625.90" y="137.00" xlink:href="#hd"/>
<path d="M629.40 137.00v-21.00" class="stroke"/>
<use x="662.30" y="137.00" xlink:href="#hd"/>
<path d="M665.80 137.00v-21.00" class="stroke"/>
</g>
<g stroke-width="0.70" style="font:italic 14.00px Times">
<path class="stroke" stroke-width="1"
	d="M89.80 213.00v-24.00"/>
<path class="stroke" stroke-width="1"
	d="M240.00 213.00v-24.00"/>
<path class="stroke" stroke-width="1"
	d="M388.80 213.00v-24.00"/>
<path class="stroke" stroke-width="1"
	d="M551.40 213.00v-24.00"/>
<path class="stroke" stroke-width="1"
	d="M691.60 213.00v-24.00"/>
<path d="m10.00 213.00
	h681.60
	M10.00 207.00
	h681.60
	M10.00 201.00
	h681.60
	M10.00 195.00
	h681.60
	M10.00 189.00
	h681.60
	" class="stroke"/>
<text style="font:italic 12px serif"
	x="666.40" y="185.70" text-anchor="middle">3</text>
<use x="22.00" y="207.00" xlink:href="#tclef"/>
<use x="37.00" y="189.00" xlink:href="#sh0"/>
<path class="fill"
	d="M58.20 182.30l22.90 2.40v3.20l-22.90 -2.40"/>
<path class="fill"
	d="M73.80 188.90l7.00 0.70v3.20l-7.00 -0.70"/>
<use x="55.00" y="204.00" xlink:href="#hd"/>
<circle class="fill" cx="62.70" cy="204.00" r="1.2"/>
<path d="M58.50 204.00v-20.70" class="stroke"/>
<use x="77.30" y="207.00" xlink:href="#hd"/>
<path d="M80.80 207.00v-21.30" class="stroke"/>
<path class="fill"
	d="M105.40 178.20l58.90 -3.90v3.20l-58.90 3.90"/>
<path class="fill"
	d="M121.00 182.20l7.00 -0.50v3.20l-7.00 0.50"/>
<path class="fill"
	d="M157.00 179.80l7.00 -0.50v3.20l-7.00 0.50"/>
<use x="102.30" y="210.00" xlink:href="#hd"/>
<circle class="fill" cx="110.00" cy="210.00" r="1.2"/>
<path d="M105.80 210.00v-30.80" class="stroke"/>
<use x="124.50" y="204.00" xlink:href="#hd"/>
<path d="M128.00 204.00v-26.30" class="stroke"/>
<use x="138.20" y="195.00" xlink:href="#hd"/>
<circle class="fill" cx="145.90" cy="192.00" r="1.2"/>
<path d="M141.70 195.00v-18.20" class="stroke"/>
<use x="160.50" y="204.00" xlink:href="#hd"/>
<path d="M164.00 204.00v-28.70" class="stroke"/>
<use x="175.60" y="210.00" xlink:href="#hd"/>
<path d="M179.10 210.00v-21.00" class="stroke"/>
<path class="fill"
	d="M201.40 218.30l22.90 2.40v-3.20l-22.90 -2.40"/>
<path class="fill"
	d="M217.00 214.90l7.00 0.70v-3.20l-7.00 -0.70"/>
<use x="205.20" y="195.00" xlink:href="#hd"/>
<circle class="fill" cx="212.90" cy="192.00" r="1.2"/>
<path d="M201.70 195.00v22.30" class="stroke"/>
<use x="227.50" y="198.00" xlink:href="#hd"/>
<path d="M224.00 198.00v21.70" class="stroke"/>
<path class="fill"
	d="M248.60 221.00l58.90 0.00v-3.20l-58.90 -0.00"/>
<path class="fill"
	d="M264.20 216.00l7.00 0.00v-3.20l-7.00 -0.00"/>
<path class="fill"
	d="M300.20 216.00l7.00 0.00v-3.20l-7.00 -0.00"/>
<use x="252.50" y="201.00" xlink:href="#hd"/>
<circle class="fill" cx="260.20" cy="198.00" r="1.2"/>
<path d="M249.00 201.00v19.00" class="stroke"/>
<use x="274.70" y="198.00" xlink:href="#hd"/>
<path d="M271.20 198.00v22.00" class="stroke"/>
<use x="288.50" y="195.00" xlink:href="#hd"/>
<circle class="fill" cx="296.20" cy="192.00" r="1.2"/>
<path d="M285.00 195.00v25.00" class="stroke"/>
<use x="310.70" y="201.00" xlink:href="#hd"/>
<path d="M307.20 201.00v19.00" class="stroke"/>
<use x="324.40" y="207.00" xlink:href="#hd"/>
<path d="M327.90 207.00v-21.00" class="stroke"/>
<path class="fill"
	d="M350.20 215.30l22.90 2.40v-3.20l-22.90 -2.40"/>
<path class="fill"
	d="M365.80 211.90l7.00 0.70v-3.20l-7.00 -0.70"/>
<use x="354.00" y="192.00" xlink:href="#hd"/>
<circle class="fill" cx="361.70" cy="192.00" r="1.2"/>
<path d="M350.50 192.00v22.30" class="stroke"/>
<use x="376.30" y="195.00" xlink:href="#hd"/>
<path d="M372.80 195.00v21.70" class="stroke"/>
<path class="fill"
	d="M403.40 219.10l58.90 -4.90v-3.20l-58.90 4.90"/>
<path class="fill"
	d="M419.00 212.80l7.00 -0.60v-3.20l-7.00 0.60"/>
<path class="fill"
	d="M455.00 209.80l7.00 -0.60v-3.20l-7.00 0.60"/>
<use x="407.30" y="198.00" xlink:href="#hd"/>
<circle class="fill" cx="415.00" cy="198.00" r="1.2"/>
<use x="398.30" y="198.00" xlink:href="#sh0"/>
<path d="M403.80 198.00v20.00" class="stroke"/>
<use x="429.50" y="195.00" xlink:href="#hd"/>
<path d="M426.00 195.00v21.20" class="stroke"/>
<use x="443.20" y="192.00" xlink:href="#hd"/>
<circle class="fill" cx="450.90" cy="192.00" r="1.2"/>
<path d="M439.70 192.00v23.10" class="stroke"/>
<use x="465.50" y="189.00" xlink:href="#hd"/>
<path d="M462.00 189.00v24.20" class="stroke"/>
<path class="fill"
	d="M476.80 218.30l58.90 8.00v-3.20l-58.90 -8.00"/>
<path class="fill"
	d="M492.40 215.40l7.00 0.90v-3.20l-7.00 -0.90"/>
<path class="fill"
	d="M528.40 220.30l7.00 0.90v-3.20l-7.00 -0.90"/>
<use x="480.60" y="186.00" xlink:href="#hd"/>
<circle class="fill" cx="488.30" cy="186.00" r="1.2"/>
<path d="M477.10 186.00v31.30" class="stroke"/>
<use x="502.90" y="192.00" xlink:href="#hd"/>
<path d="M499.40 192.00v28.30" class="stroke"/>
<use x="516.60" y="198.00" xlink:href="#hd"/>
<circle class="fill" cx="524.30" cy="198.00" r="1.2"/>
<path d="M513.10 198.00v24.20" class="stroke"/>
<use x="538.90" y="204.00" xlink:href="#hd"/>
<path d="M535.40 204.00v21.20" class="stroke"/>
<use x="563.90" y="192.00" xlink:href="#hd"/>
<path d="M560.40 192.00v21.00" class="stroke"/>
<use x="593.20" y="195.00" xlink:href="#hd"/>
<path d="M589.70 195.00v21.00" class="stroke"/>
<use x="622.50" y="195.00" xlink:href="#hd"/>
<path d="M619.00 195.00v21.00" class="stroke"/>
<path class="fill"
	d="M652.20 194.20l30.70 -4.40v3.20l-30.70 4.40"/>
<use x="649.00" y="216.00" xlink:href="#hd"/>
<path d="M652.50 216.00v-20.90" class="stroke"/>
<use x="664.10" y="213.00" xlink:href="#hd"/>
<path d="M667.60 213.00v-20.00" class="stroke"/>
<use x="679.10" y="210.00" xlink:href="#hd"/>
<path d="M682.60 210.00v-19.10" class="stroke"/>
</g>
<g stroke-width="0.70" style="font:italic 14.00px Times">
<path class="stroke" stroke-width="1"
	d="M218.60 283.00v-24.00"/>
<path class="stroke" stroke-width="1"
	d="M395.10 283.00v-24.00"/>
<path class="stroke" stroke-width="1"
	d="M576.40 283.00v-24.00"/>
<path class="stroke" stroke-width="3"
	d="M690.10 283.00v-24.00"/>
<path class="stroke" stroke-width="1"
	d="M685.60 283.00v-24.00"/>
<use x="681.60" y="283.00" xlink:href="#rdots"/>
<path d="m10.00 283.00
	h681.60
	M10.00 277.00
	h681.60
	M10.00 271.00
	h681.60
	M10.00 265.00
	h681.60
	M10.00 259.00
	h681.60
	" class="stroke"/>
<use x="22.00" y="277.00" xlink:href="#tclef"/>
<use x="37.00" y="259.00" xlink:href="#sh0"/>
<path class="fill"
	d="M58.20 248.10l70.20 -3.70v3.20l-70.20 3.70"/>
<path class="fill"
	d="M78.00 252.00l7.00 -0.40v3.20l-7.00 0.40"/>
<path class="fill"
	d="M121.00 249.80l7.00 -0.40v3.20l-7.00 0.40"/>
<use x="55.00" y="277.00" xlink:href="#hd"/>
<circle class="fill" cx="62.70" cy="274.00" r="1.2"/>
<path d="M58.50 277.00v-27.90" class="stroke"/>
<use x="81.50" y="271.00" xlink:href="#hd"/>
<path d="M85.00 271.00v-23.30" class="stroke"/>
<use x="98.00" y="265.00" xlink:href="#hd"/>
<circle class="fill" cx="105.70" cy="262.00" r="1.2"/>
<path d="M101.50 265.00v-18.20" class="stroke"/>
<use x="124.50" y="271.00" xlink:href="#hd"/>
<path d="M128.00 271.00v-25.60" class="stroke"/>
<use x="142.80" y="277.00" xlink:href="#hd"/>
<path d="M146.30 277.00v-21.00" class="stroke"/>
<path class="fill"
	d="M182.30 255.20l27.20 2.50v3.20l-27.20 -2.50"/>
<path class="fill"
	d="M202.20 262.10l7.00 0.60v3.20l-7.00 -0.60"/>
<use x="179.20" y="277.00" xlink:href="#hd"/>
<circle class="fill" cx="186.90" cy="274.00" r="1.2"/>
<path d="M182.70 277.00v-20.70" class="stroke"/>
<use x="205.70" y="280.00" xlink:href="#hd"/>
<path d="M209.20 280.00v-21.30" class="stroke"/>
<path class="fill"
	d="M234.70 246.80l70.20 0.00v3.20l-70.20 -0.00"/>
<path class="fill"
	d="M254.60 251.80l7.00 0.00v3.20l-7.00 -0.00"/>
<path class="fill"
	d="M297.60 251.80l7.00 0.00v3.20l-7.00 -0.00"/>
<use x="231.60" y="283.00" xlink:href="#hd"/>
<circle class="fill" cx="239.30" cy="280.00" r="1.2"/>
<path d="M235.10 283.00v-35.20" class="stroke"/>
<use x="258.10" y="277.00" xlink:href="#hd"/>
<path d="M261.60 277.00v-29.20" class="stroke"/>
<use x="274.50" y="268.00" xlink:href="#hd"/>
<circle class="fill" cx="282.20" cy="268.00" r="1.2"/>
<path d="M278.00 268.00v-20.20" class="stroke"/>
<use x="301.10" y="283.00" xlink:href="#hd"/>
<path d="M304.60 283.00v-35.20" class="stroke"/>
<use x="319.30" y="286.00" xlink:href="#hd"/>
<path d="M322.80 286.00v-21.00" class="stroke"/>
<path class="fill"
	d="M358.90 254.30l27.20 -2.50v3.20l-27.20 2.50"/>
<path class="fill"
	d="M378.80 257.40l7.00 -0.60v3.20l-7.00 0.60"/>
<use x="355.80" y="277.00" xlink:href="#hd"/>
<circle class="fill" cx="363.50" cy="274.00" r="1.2"/>
<path d="M359.30 277.00v-21.80" class="stroke"/>
<use x="382.30" y="274.00" xlink:href="#hd"/>
<path d="M385.80 274.00v-21.20" class="stroke"/>
<path class="fill"
	d="M404.30 291.00l70.20 0.00v-3.20l-70.20 -0.00"/>
<path class="fill"
	d="M424.20 286.00l7.00 0.00v-3.20l-7.00 -0.00"/>
<path class="fill"
	d="M467.10 286.00l7.00 0.00v-3.20l-7.00 -0.00"/>
<use x="408.10" y="271.00" xlink:href="#hd"/>
<circle class="fill" cx="415.80" cy="268.00" r="1.2"/>
<path d="M404.60 271.00v19.00" class="stroke"/>
<use x="434.70" y="262.00" xlink:href="#hd"/>
<path d="M431.20 262.00v28.00" class="stroke"/>
<use x="451.10" y="265.00" xlink:href="#hd"/>
<circle class="fill" cx="458.80" cy="262.00" r="1.2"/>
<path d="M447.60 265.00v25.00" class="stroke"/>
<use x="477.60" y="268.00" xlink:href="#hd"/>
<path d="M474.10 268.00v22.00" class="stroke"/>
<path class="fill"
	d="M497.20 249.90l70.20 4.90v3.20l-70.20 -4.90"/>
<path class="fill"
	d="M517.10 256.30l7.00 0.50v3.20l-7.00 -0.50"/>
<path class="fill"
	d="M560.10 259.30l7.00 0.50v3.20l-7.00 -0.50"/>
<use x="494.10" y="271.00" xlink:href="#hd"/>
<circle class="fill" cx="501.80" cy="268.00" r="1.2"/>
<path d="M497.60 271.00v-20.10" class="stroke"/>
<use x="520.60" y="274.00" xlink:href="#hd"/>
<path d="M524.10 274.00v-21.20" class="stroke"/>
<use x="537.10" y="277.00" xlink:href="#hd"/>
<circle class="fill" cx="544.80" cy="274.00" r="1.2"/>
<path d="M540.60 277.00v-23.00" class="stroke"/>
<use x="563.60" y="280.00" xlink:href="#hd"/>
<path d="M567.10 280.00v-24.20" class="stroke"/>
<use x="589.40" y="274.00" xlink:href="#hd"/>
<path d="M592.90 274.00v-21.00" class="stroke"/>
<use x="625.90" y="277.00" xlink:href="#hd"/>
<path d="M629.40 277.00v-21.00" class="stroke"/>
<use x="662.30" y="277.00" xlink:href="#hd"/>
<path d="M665.80 277.00v-21.00" class="stroke"/>
</g>
<g stroke-width="0.70" style="font:italic 14.00px Times">
<use x="100.40" y="353.00" xlink:href="#rdots"/>
<path class="stroke" stroke-width="1"
	d="M96.40 353.00v-24.00"/>
<path class="stroke" stroke-width="3"
	d="M91.90 353.00v-24.00"/>
<path class="stroke" stroke-width="1"
	d="M248.60 353.00v-24.00"/>
<path class="stroke" stroke-width="1"
	d="M389.80 353.00v-24.00"/>
<path class="stroke" stroke-width="1"
	d="M537.10 353.00v-24.00"/>
<path class="stroke" stroke-width="1"
	d="M691.60 353.00v-24.00"/>
<path d="m10.00 353.00
	h681.60
	M10.00 347.00
	h681.60
	M10.00 341.00
	h681.60
	M10.00 335.00
	h681.60
	M10.00 329.00
	h681.60
	" class="stroke"/>
<text style="font:italic 12px serif"
	x="70.30" y="325.60" text-anchor="middle">3</text>
<text style="font:italic 12px serif"
	x="564.80" y="316.00" text-anchor="middle">3</text>
<text style="font:italic 12px serif"
	x="604.80" y="323.40" text-anchor="middle">3</text>
<text style="font:italic 12px serif"
	x="668.40" y="325.60" text-anchor="middle">3</text>
<use x="22.00" y="347.00" xlink:href="#tclef"/>
<use x="37.00" y="329.00" xlink:href="#sh0"/>
<path class="fill"
	d="M58.20 334.10l26.60 -4.20v3.20l-26.60 4.20"/>
<use x="55.00" y="356.00" xlink:href="#hd"/>
<path d="M58.50 356.00v-20.90" class="stroke"/>
<use x="68.00" y="353.00" xlink:href="#hd"/>
<path d="M71.50 353.00v-20.00" class="stroke"/>
<use x="80.90" y="350.00" xlink:href="#hd"/>
<path d="M84.40 350.00v-19.10" class="stroke"/>
<path class="fill"
	d="M117.10 314.50l58.30 -4.90v3.20l-58.30 4.90"/>
<path class="fill"
	d="M130.20 318.40l7.00 -0.60v3.20l-7.00 0.60"/>
<path class="fill"
	d="M168.00 315.20l7.00 -0.60v3.20l-7.00 0.60"/>
<use x="113.90" y="347.00" xlink:href="#hd"/>
<circle class="fill" cx="121.60" cy="344.00" r="1.2"/>
<path d="M117.40 347.00v-31.50" class="stroke"/>
<use x="133.70" y="335.00" xlink:href="#hd"/>
<path d="M137.20 335.00v-21.20" class="stroke"/>
<use x="151.70" y="338.00" xlink:href="#hd"/>
<circle class="fill" cx="159.40" cy="338.00" r="1.2"/>
<use x="142.70" y="338.00" xlink:href="#sh0"/>
<path d="M155.20 338.00v-25.70" class="stroke"/>
<use x="171.50" y="335.00" xlink:href="#hd"/>
<path d="M175.00 335.00v-24.40" class="stroke"/>
<path class="fill"
	d="M187.70 316.80l52.30 0.00v3.20l-52.30 -0.00"/>
<path class="fill"
	d="M200.90 321.80l7.00 0.00v3.20l-7.00 -0.00"/>
<path class="fill"
	d="M232.60 321.80l7.00 0.00v3.20l-7.00 -0.00"/>
<use x="184.50" y="341.00" xlink:href="#hd"/>
<circle class="fill" cx="192.20" cy="338.00" r="1.2"/>
<path d="M188.00 341.00v-23.20" class="stroke"/>
<use x="204.40" y="347.00" xlink:href="#hd"/>
<path d="M207.90 347.00v-29.20" class="stroke"/>
<use x="216.30" y="344.00" xlink:href="#hd"/>
<circle class="fill" cx="224.00" cy="344.00" r="1.2"/>
<path d="M219.80 344.00v-26.20" class="stroke"/>
<use x="236.10" y="341.00" xlink:href="#hd"/>
<path d="M239.60 341.00v-23.20" class="stroke"/>
<path class="fill"
	d="M264.30 317.00l52.30 4.70v3.20l-52.30 -4.70"/>
<path class="fill"
	d="M277.40 323.20l7.00 0.60v3.20l-7.00 -0.60"/>
<path class="fill"
	d="M309.20 326.00l7.00 0.60v3.20l-7.00 -0.60"/>
<use x="261.10" y="338.00" xlink:href="#hd"/>
<circle class="fill" cx="268.80" cy="338.00" r="1.2"/>
<path d="M264.60 338.00v-20.00" class="stroke"/>
<use x="280.90" y="341.00" xlink:href="#hd"/>
<path d="M284.40 341.00v-21.20" class="stroke"/>
<use x="292.90" y="344.00" xlink:href="#hd"/>
<circle class="fill" cx="300.60" cy="344.00" r="1.2"/>
<path d="M296.40 344.00v-23.10" class="stroke"/>
<use x="312.70" y="347.00" xlink:href="#hd"/>
<path d="M316.20 347.00v-24.30" class="stroke"/>
<path class="fill"
	d="M328.90 327.00l52.30 0.00v3.20l-52.30 -0.00"/>
<path class="fill"
	d="M342.10 332.00l7.00 0.00v3.20l-7.00 -0.00"/>
<path class="fill"
	d="M373.80 332.00l7.00 0.00v3.20l-7.00 -0.00"/>
<use x="325.70" y="350.00" xlink:href="#hd"/>
<circle class="fill" cx="333.40" cy="350.00" r="1.2"/>
<path d="M329.20 350.00v-22.00" class="stroke"/>
<use x="345.60" y="356.00" xlink:href="#hd"/>
<path d="M349.10 356.00v-28.00" class="stroke"/>
<use x="357.50" y="353.00" xlink:href="#hd"/>
<circle class="fill" cx="365.20" cy="350.00" r="1.2"/>
<path d="M361.00 353.00v-25.00" class="stroke"/>
<use x="377.30" y="350.00" xlink:href="#hd"/>
<path d="M380.80 350.00v-22.00" class="stroke"/>
<path class="fill"
	d="M405.50 314.50l58.30 -4.90v3.20l-58.30 4.90"/>
<path class="fill"
	d="M418.60 318.40l7.00 -0.60v3.20l-7.00 0.60"/>
<path class="fill"
	d="M456.40 315.20l7.00 -0.60v3.20l-7.00 0.60"/>
<use x="402.30" y="347.00" xlink:href="#hd"/>
<circle class="fill" cx="410.00" cy="344.00" r="1.2"/>
<path d="M405.80 347.00v-31.50" class="stroke"/>
<use x="422.10" y="335.00" xlink:href="#hd"/>
<path d="M425.60 335.00v-21.20" class="stroke"/>
<use x="440.10" y="338.00" xlink:href="#hd"/>
<circle class="fill" cx="447.80" cy="338.00" r="1.2"/>
<use x="431.10" y="338.00" xlink:href="#sh0"/>
<path d="M443.60 338.00v-25.70" class="stroke"/>
<use x="459.90" y="335.00" xlink:href="#hd"/>
<path d="M463.40 335.00v-24.40" class="stroke"/>
<path class="fill"
	d="M476.10 316.80l52.30 0.00v3.20l-52.30 -0.00"/>
<path class="fill"
	d="M489.30 321.80l7.00 0.00v3.20l-7.00 -0.00"/>
<path class="fill"
	d="M521.10 321.80l7.00 0.00v3.20l-7.00 -0.00"/>
<use x="473.00" y="341.00" xlink:href="#hd"/>
<circle class="fill" cx="480.70" cy="338.00" r="1.2"/>
<path d="M476.50 341.00v-23.20" class="stroke"/>
<use x="492.80" y="347.00" xlink:href="#hd"/>
<path d="M496.30 347.00v-29.20" class="stroke"/>
<use x="504.70" y="338.00" xlink:href="#hd"/>
<circle class="fill" cx="512.40" cy="338.00" r="1.2"/>
<path d="M508.20 338.00v-20.20" class="stroke"/>
<use x="524.60" y="341.00" xlink:href="#hd"/>
<path d="M528.10 341.00v-23.20" class="stroke"/>
<path class="fill"
	d="M552.70 321.80l26.60 0.00v3.20l-26.60 -0.00"/>
<use x="549.60" y="344.00" xlink:href="#hd"/>
<path d="M553.10 344.00v-21.20" class="stroke"/>
<use x="562.50" y="341.00" xlink:href="#hd"/>
<path d="M566.00 341.00v-18.20" class="stroke"/>
<use x="575.50" y="344.00" xlink:href="#hd"/>
<path d="M579.00 344.00v-21.20" class="stroke"/>
<path class="fill"
	d="M592.70 326.90l26.60 4.20v3.20l-26.60 -4.20"/>
<use x="589.60" y="347.00" xlink:href="#hd"/>
<path d="M593.10 347.00v-19.00" class="stroke"/>
<use x="602.50" y="350.00" xlink:href="#hd"/>
<path d="M606.00 350.00v-20.00" class="stroke"/>
<use x="615.50" y="353.00" xlink:href="#hd"/>
<path d="M619.00 353.00v-21.00" class="stroke"/>
<use x="629.60" y="356.00" xlink:href="#hd"/>
<path d="M633.10 356.00v-21.00" class="stroke"/>
<path class="fill"
	d="M656.40 334.10l26.60 -4.20v3.20l-26.60 4.20"/>
<use x="653.20" y="356.00" xlink:href="#hd"/>
<path d="M656.70 356.00v-20.90" class="stroke"/>
<use x="666.10" y="353.00" xlink:href="#hd"/>
<path d="M669.60 353.00v-20.00" class="stroke"/>
<use x="679.10" y="350.00" xlink:href="#hd"/>
<path d="M682.60 350.00v-19.10" class="stroke"/>
</g>
<g stroke-width="0.70" style="font:italic 14.00px Times">
<path class="stroke" stroke-width="1"
	d="M217.70 423.00v-24.00"/>
<path class="stroke" stroke-width="1"
	d="M390.30 423.00v-24.00"/>
<path class="stroke" stroke-width="1"
	d="M569.10 423.00v-24.00"/>
<path class="stroke" stroke-width="3"
	d="M690.10 423.00v-24.00"/>
<path class="stroke" stroke-width="1"
	d="M685.60 423.00v-24.00"/>
<use x="681.60" y="423.00" xlink:href="#rdots"/>
<path d="m10.00 423.00
	h681.60
	M10.00 417.00
	h681.60
	M10.00 411.00
	h681.60
	M10.00 405.00
	h681.60
	M10.00 399.00
	h681.60
	" class="stroke"/>
<use x="22.00" y="417.00" xlink:href="#tclef"/>
<use x="37.00" y="399.00" xlink:href="#sh0"/>
<path class="fill"
	d="M58.20 384.70l68.50 -5.20v3.20l-68.50 5.20"/>
<path class="fill"
	d="M76.40 388.30l7.00 -0.50v3.20l-7.00 0.50"/>
<path class="fill"
	d="M119.30 385.10l7.00 -0.50v3.20l-7.00 0.50"/>
<use x="55.00" y="417.00" xlink:href="#hd"/>
<circle class="fill" cx="62.70" cy="414.00" r="1.2"/>
<path d="M58.50 417.00v-31.30" class="stroke"/>
<use x="79.90" y="405.00" xlink:href="#hd"/>
<path d="M83.40 405.00v-21.20" class="stroke"/>
<use x="97.90" y="408.00" xlink:href="#hd"/>
<circle class="fill" cx="105.60" cy="408.00" r="1.2"/>
<use x="88.90" y="408.00" xlink:href="#sh0"/>
<path d="M101.40 408.00v-25.60" class="stroke"/>
<use x="122.80" y="405.00" xlink:href="#hd"/>
<path d="M126.30 405.00v-24.50" class="stroke"/>
<path class="fill"
	d="M143.10 386.80l65.90 0.00v3.20l-65.90 -0.00"/>
<path class="fill"
	d="M161.30 391.80l7.00 0.00v3.20l-7.00 -0.00"/>
<path class="fill"
	d="M201.70 391.80l7.00 0.00v3.20l-7.00 -0.00"/>
<use x="139.90" y="411.00" xlink:href="#hd"/>
<circle class="fill" cx="147.60" cy="408.00" r="1.2"/>
<path d="M143.40 411.00v-23.20" class="stroke"/>
<use x="164.80" y="417.00" xlink:href="#hd"/>
<path d="M168.30 417.00v-29.20" class="stroke"/>
<use x="180.20" y="414.00" xlink:href="#hd"/>
<circle class="fill" cx="187.90" cy="414.00" r="1.2"/>
<path d="M183.70 414.00v-26.20" class="stroke"/>
<use x="205.20" y="411.00" xlink:href="#hd"/>
<path d="M208.70 411.00v-23.20" class="stroke"/>
<path class="fill"
	d="M233.30 386.90l65.90 4.90v3.20l-65.90 -4.90"/>
<path class="fill"
	d="M251.60 393.30l7.00 0.50v3.20l-7.00 -0.50"/>
<path class="fill"
	d="M291.90 396.30l7.00 0.50v3.20l-7.00 -0.50"/>
<use x="230.20" y="408.00" xlink:href="#hd"/>
<circle class="fill" cx="237.90" cy="408.00" r="1.2"/>
<path d="M233.70 408.00v-20.00" class="stroke"/>
<use x="255.10" y="411.00" xlink:href="#hd"/>
<path d="M258.60 411.00v-21.20" class="stroke"/>
<use x="270.50" y="414.00" xlink:href="#hd"/>
<circle class="fill" cx="278.20" cy="414.00" r="1.2"/>
<path d="M274.00 414.00v-23.10" class="stroke"/>
<use x="295.40" y="417.00" xlink:href="#hd"/>
<path d="M298.90 417.00v-24.20" class="stroke"/>
<path class="fill"
	d="M315.70 397.00l65.90 0.00v3.20l-65.90 -0.00"/>
<path class="fill"
	d="M333.90 402.00l7.00 0.00v3.20l-7.00 -0.00"/>
<path class="fill"
	d="M374.30 402.00l7.00 0.00v3.20l-7.00 -0.00"/>
<use x="312.50" y="420.00" xlink:href="#hd"/>
<circle class="fill" cx="320.20" cy="420.00" r="1.2"/>
<path d="M316.00 420.00v-22.00" class="stroke"/>
<use x="337.40" y="426.00" xlink:href="#hd"/>
<path d="M340.90 426.00v-28.00" class="stroke"/>
<use x="352.80" y="423.00" xlink:href="#hd"/>
<circle class="fill" cx="360.50" cy="420.00" r="1.2"/>
<path d="M356.30 423.00v-25.00" class="stroke"/>
<use x="377.80" y="420.00" xlink:href="#hd"/>
<path d="M381.30 420.00v-22.00" class="stroke"/>
<path class="fill"
	d="M405.90 384.80l65.20 -5.30v3.20l-65.20 5.30"/>
<path class="fill"
	d="M424.20 388.40l7.00 -0.60v3.20l-7.00 0.60"/>
<use x="402.80" y="417.00" xlink:href="#hd"/>
<circle class="fill" cx="410.50" cy="414.00" r="1.2"/>
<path d="M406.30 417.00v-31.20" class="stroke"/>
<use x="427.70" y="405.00" xlink:href="#hd"/>
<path d="M431.20 405.00v-21.20" class="stroke"/>
<use x="445.70" y="408.00" xlink:href="#hd"/>
<use x="436.70" y="408.00" xlink:href="#sh0"/>
<path d="M449.20 408.00v-25.60" class="stroke"/>
<use x="467.30" y="405.00" xlink:href="#hd"/>
<path d="M470.80 405.00v-24.40" class="stroke"/>
<path class="fill"
	d="M487.50 431.00l65.90 0.00v-3.20l-65.90 -0.00"/>
<path class="fill"
	d="M505.80 426.00l7.00 0.00v-3.20l-7.00 -0.00"/>
<path class="fill"
	d="M546.10 426.00l7.00 0.00v-3.20l-7.00 -0.00"/>
<use x="491.40" y="408.00" xlink:href="#hd"/>
<circle class="fill" cx="499.10" cy="408.00" r="1.2"/>
<path d="M487.90 408.00v22.00" class="stroke"/>
<use x="516.30" y="402.00" xlink:href="#hd"/>
<path d="M512.80 402.00v28.00" class="stroke"/>
<use x="531.70" y="405.00" xlink:href="#hd"/>
<circle class="fill" cx="539.40" cy="402.00" r="1.2"/>
<path d="M528.20 405.00v25.00" class="stroke"/>
<use x="556.60" y="408.00" xlink:href="#hd"/>
<path d="M553.10 408.00v22.00" class="stroke"/>
<path class="fill"
	d="M584.80 389.90l65.90 4.90v3.20l-65.90 -4.90"/>
<path class="fill"
	d="M603.10 396.30l7.00 0.50v3.20l-7.00 -0.50"/>
<path class="fill"
	d="M643.40 399.30l7.00 0.50v3.20l-7.00 -0.50"/>
<use x="581.60" y="411.00" xlink:href="#hd"/>
<circle class="fill" cx="589.30" cy="408.00" r="1.2"/>
<path d="M585.10 411.00v-20.00" class="stroke"/>
<use x="606.60" y="414.00" xlink:href="#hd"/>
<path d="M610.10 414.00v-21.20" class="stroke"/>
<use x="622.00" y="417.00" xlink:href="#hd"/>
<circle class="fill" cx="629.70" cy="414.00" r="1.2"/>
<path d="M625.50 417.00v-23.10" class="stroke"/>
<use x="646.90" y="420.00" xlink:href="#hd"/>
<path d="M650.40 420.00v-24.20" class="stroke"/>
<use x="664.00" y="417.00" xlink:href="#hd"/>
<path d="M667.50 417.00v-21.00" class="stroke"/>
</g>
<g stroke-width="0.70" style="font:italic 14.00px Times">
<use x="100.90" y="502.90" xlink:href="#rdots"/>
<path class="stroke" stroke-width="1"
	d="M96.90 502.90v-24.00"/>
<path class="stroke" stroke-width="3"
	d="M92.40 502.90v-24.00"/>
<path class="stroke" stroke-width="1"
	d="M243.20 502.90v-24.00"/>
<path class="stroke" stroke-width="1"
	d="M392.00 502.90v-24.00"/>
<path class="stroke" stroke-width="1"
	d="M533.20 502.90v-24.00"/>
<path class="stroke" stroke-width="1"
	d="M691.60 502.90v-24.00"/>
<path d="m10.00 502.90
	h681.60
	M10.00 496.90
	h681.60
	M10.00 490.90
	h681.60
	M10.00 484.90
	h681.60
	M10.00 478.90
	h681.60
	" class="stroke"/>
<text style="font:italic 12px serif"
	x="65.90" y="517.30" text-anchor="middle">3</text>
<path class="stroke"
	d="M352.10 458.00v-3l34.90 -4.00v3"/>
<rect x="362.50" y="447.00" width="14.00" height="12" fill="white"/>
<text style="font:italic 12px serif"
	x="369.50" y="457.00" text-anchor="middle">3</text>
<text style="font:italic 12px serif"
	x="561.30" y="465.90" text-anchor="middle">3</text>
<text style="font:italic 12px serif"
	x="602.10" y="473.30" text-anchor="middle">3</text>
<text style="font:italic 12px serif"
	x="663.60" y="517.30" text-anchor="middle">3</text>
<use x="22.00" y="496.90" xlink:href="#tclef"/>
<use x="37.00" y="478.90" xlink:href="#sh0"/>
<path class="fill"
	d="M51.20 505.00l27.10 -4.20v-3.20l-27.10 4.20"/>
<use x="55.00" y="484.90" xlink:href="#hd"/>
<path d="M51.50 484.90v19.10" class="stroke"/>
<use x="68.20" y="481.90" xlink:href="#hd"/>
<path d="M64.70 481.90v20.00" class="stroke"/>
<use x="81.40" y="478.90" xlink:href="#hd"/>
<path d="M77.90 478.90v20.90" class="stroke"/>
<path class="fill"
	d="M110.60 503.20l52.70 3.90v-3.20l-52.70 -3.90"/>
<path class="fill"
	d="M123.90 499.20l7.00 0.50v-3.20l-7.00 -0.50"/>
<path class="fill"
	d="M156.00 501.50l7.00 0.50v-3.20l-7.00 -0.50"/>
<use x="114.40" y="475.90" xlink:href="#hd"/>
<circle class="fill" cx="122.10" cy="475.90" r="1.2"/>
<path d="M110.90 475.90v26.40" class="stroke"/>
<use x="134.40" y="478.90" xlink:href="#hd"/>
<path d="M130.90 478.90v24.90" class="stroke"/>
<use x="146.50" y="475.90" xlink:href="#hd"/>
<circle class="fill" cx="154.20" cy="475.90" r="1.2"/>
<path d="M143.00 475.90v28.70" class="stroke"/>
<use x="166.50" y="484.90" xlink:href="#hd"/>
<path d="M163.00 484.90v21.20" class="stroke"/>
<path class="fill"
	d="M181.80 466.60l52.70 0.00v3.20l-52.70 -0.00"/>
<path class="fill"
	d="M195.10 471.60l7.00 0.00v3.20l-7.00 -0.00"/>
<path class="fill"
	d="M227.20 471.60l7.00 0.00v3.20l-7.00 -0.00"/>
<use x="178.60" y="490.90" xlink:href="#hd"/>
<circle class="fill" cx="186.30" cy="487.90" r="1.2"/>
<path d="M182.10 490.90v-23.20" class="stroke"/>
<use x="198.60" y="496.90" xlink:href="#hd"/>
<path d="M202.10 496.90v-29.20" class="stroke"/>
<use x="210.70" y="493.90" xlink:href="#hd"/>
<circle class="fill" cx="218.40" cy="493.90" r="1.2"/>
<path d="M214.20 493.90v-26.20" class="stroke"/>
<use x="230.70" y="490.90" xlink:href="#hd"/>
<path d="M234.20 490.90v-23.20" class="stroke"/>
<path class="fill"
	d="M258.80 466.80l52.70 4.70v3.20l-52.70 -4.70"/>
<path class="fill"
	d="M272.10 473.00l7.00 0.60v3.20l-7.00 -0.60"/>
<path class="fill"
	d="M304.20 475.90l7.00 0.60v3.20l-7.00 -0.60"/>
<use x="255.70" y="487.90" xlink:href="#hd"/>
<circle class="fill" cx="263.40" cy="487.90" r="1.2"/>
<path d="M259.20 487.90v-20.00" class="stroke"/>
<use x="275.60" y="490.90" xlink:href="#hd"/>
<path d="M279.10 490.90v-21.20" class="stroke"/>
<use x="287.80" y="493.90" xlink:href="#hd"/>
<circle class="fill" cx="295.50" cy="493.90" r="1.2"/>
<path d="M291.30 493.90v-23.10" class="stroke"/>
<use x="307.70" y="496.90" xlink:href="#hd"/>
<path d="M311.20 496.90v-24.30" class="stroke"/>
<path class="fill"
	d="M324.20 469.80l59.20 -10.20v3.20l-59.20 10.20"/>
<path class="fill"
	d="M337.50 472.50l7.00 -1.20v3.20l-7.00 1.20"/>
<use x="321.00" y="499.90" xlink:href="#hd"/>
<circle class="fill" cx="328.70" cy="499.90" r="1.2"/>
<path d="M324.50 499.90v-29.10" class="stroke"/>
<use x="341.00" y="505.90" xlink:href="#hd"/>
<path d="M344.50 505.90v-38.50" class="stroke"/>
<use x="353.10" y="484.90" xlink:href="#hd"/>
<path d="M356.60 484.90v-19.60" class="stroke"/>
<use x="366.30" y="481.90" xlink:href="#hd"/>
<path d="M369.80 481.90v-18.90" class="stroke"/>
<use x="379.50" y="478.90" xlink:href="#hd"/>
<path d="M383.00 478.90v-18.20" class="stroke"/>
<path class="fill"
	d="M400.70 503.20l52.70 3.90v-3.20l-52.70 -3.90"/>
<path class="fill"
	d="M414.00 499.20l7.00 0.50v-3.20l-7.00 -0.50"/>
<path class="fill"
	d="M446.10 501.50l7.00 0.50v-3.20l-7.00 -0.50"/>
<use x="404.50" y="475.90" xlink:href="#hd"/>
<circle class="fill" cx="412.20" cy="475.90" r="1.2"/>
<path d="M401.00 475.90v26.40" class="stroke"/>
<use x="424.50" y="478.90" xlink:href="#hd"/>
<path d="M421.00 478.90v24.90" class="stroke"/>
<use x="436.60" y="475.90" xlink:href="#hd"/>
<circle class="fill" cx="444.30" cy="475.90" r="1.2"/>
<path d="M433.10 475.90v28.70" class="stroke"/>
<use x="456.60" y="484.90" xlink:href="#hd"/>
<path d="M453.10 484.90v21.20" class="stroke"/>
<path class="fill"
	d="M471.90 466.60l52.70 0.00v3.20l-52.70 -0.00"/>
<path class="fill"
	d="M485.20 471.60l7.00 0.00v3.20l-7.00 -0.00"/>
<path class="fill"
	d="M517.20 471.60l7.00 0.00v3.20l-7.00 -0.00"/>
<use x="468.70" y="490.90" xlink:href="#hd"/>
<circle class="fill" cx="476.40" cy="487.90" r="1.2"/>
<path d="M472.20 490.90v-23.20" class="stroke"/>
<use x="488.70" y="496.90" xlink:href="#hd"/>
<path d="M492.20 496.90v-29.20" class="stroke"/>
<use x="500.80" y="487.90" xlink:href="#hd"/>
<circle class="fill" cx="508.50" cy="487.90" r="1.2"/>
<path d="M504.30 487.90v-20.20" class="stroke"/>
<use x="520.70" y="490.90" xlink:href="#hd"/>
<path d="M524.20 490.90v-23.20" class="stroke"/>
<path class="fill"
	d="M548.90 471.70l27.10 0.00v3.20l-27.10 -0.00"/>
<use x="545.70" y="493.90" xlink:href="#hd"/>
<path d="M549.20 493.90v-21.20" class="stroke"/>
<use x="559.00" y="490.90" xlink:href="#hd"/>
<path d="M562.50 490.90v-18.20" class="stroke"/>
<use x="572.20" y="493.90" xlink:href="#hd"/>
<path d="M575.70 493.90v-21.20" class="stroke"/>
<path class="fill"
	d="M589.80 476.70l27.10 4.20v3.20l-27.10 -4.20"/>
<use x="586.60" y="496.90" xlink:href="#hd"/>
<path d="M590.10 496.90v-19.10" class="stroke"/>
<use x="599.80" y="499.90" xlink:href="#hd"/>
<path d="M603.30 499.90v-20.00" class="stroke"/>
<use x="613.00" y="502.90" xlink:href="#hd"/>
<path d="M616.50 502.90v-20.90" class="stroke"/>
<use x="627.50" y="505.90" xlink:href="#hd"/>
<path d="M631.00 505.90v-21.00" class="stroke"/>
<path class="fill"
	d="M648.90 505.00l27.10 -4.20v-3.20l-27.10 4.20"/>
<use x="652.70" y="484.90" xlink:href="#hd"/>
<path d="M649.20 484.90v19.10" class="stroke"/>
<use x="665.90" y="481.90" xlink:href="#hd"/>
<path d="M662.40 481.90v20.00" class="stroke"/>
<use x="679.10" y="478.90" xlink:href="#hd"/>
<path d="M675.60 478.90v20.90" class="stroke"/>
</g>
<g stroke-width="0.70" style="font:italic 14.00px Times">
<path class="stroke" stroke-width="1"
	d="M224.30 572.86v-24.00"/>
<path class="stroke" stroke-width="1"
	d="M395.50 572.86v-24.00"/>
<path class="stroke" stroke-width="1"
	d="M570.10 572.86v-24.00"/>
<path class="stroke" stroke-width="3"
	d="M690.10 572.86v-24.00"/>
<path class="stroke" stroke-width="1"
	d="M685.60 572.86v-24.00"/>
<use x="681.60" y="572.86" xlink:href="#rdots"/>
<path d="m10.00 572.86
	h681.60
	M10.00 566.86
	h681.60
	M10.00 560.86
	h681.60
	M10.00 554.86
	h681.60
	M10.00 548.86
	h681.60
	" class="stroke"/>
<path class="stroke"
	d="M132.70 544.26v-3l41.60 -6.00v3"/>
<rect x="146.50" y="532.26" width="14.00" height="12" fill="white"/>
<text style="font:italic 12px serif"
	x="153.50" y="542.26" text-anchor="middle">3</text>
<use x="22.00" y="566.86" xlink:href="#tclef"/>
<use x="37.00" y="548.86" xlink:href="#sh0"/>
<path class="fill"
	d="M58.20 536.66l65.30 0.00v3.20l-65.30 -0.00"/>
<path class="fill"
	d="M76.20 541.66l7.00 0.00v3.20l-7.00 -0.00"/>
<path class="fill"
	d="M116.20 541.66l7.00 0.00v3.20l-7.00 -0.00"/>
<use x="55.00" y="566.86" xlink:href="#hd"/>
<circle class="fill" cx="62.70" cy="563.86" r="1.2"/>
<path d="M58.50 566.86v-29.20" class="stroke"/>
<use x="79.70" y="560.86" xlink:href="#hd"/>
<path d="M83.20 560.86v-23.20" class="stroke"/>
<use x="95.00" y="563.86" xlink:href="#hd"/>
<circle class="fill" cx="102.70" cy="563.86" r="1.2"/>
<path d="M98.50 563.86v-26.20" class="stroke"/>
<use x="119.70" y="566.86" xlink:href="#hd"/>
<path d="M123.20 566.86v-29.20" class="stroke"/>
<path class="fill"
	d="M132.90 574.86l75.80 0.00v-3.20l-75.80 -0.00"/>
<path class="fill"
	d="M201.30 569.86l7.00 0.00v-3.20l-7.00 -0.00"/>
<use x="136.70" y="551.86" xlink:href="#hd"/>
<path d="M133.20 551.86v22.00" class="stroke"/>
<use x="153.50" y="548.86" xlink:href="#hd"/>
<path d="M150.00 548.86v25.00" class="stroke"/>
<use x="170.30" y="545.86" xlink:href="#hd"/>
<path d="M166.80 545.86v28.00" class="stroke"/>
<use x="187.10" y="554.86" xlink:href="#hd"/>
<circle class="fill" cx="194.80" cy="551.86" r="1.2"/>
<path d="M183.60 554.86v19.00" class="stroke"/>
<use x="211.80" y="545.86" xlink:href="#hd"/>
<path d="M208.30 545.86v28.00" class="stroke"/>
<path class="fill"
	d="M240.00 536.76l65.30 4.90v3.20l-65.30 -4.90"/>
<path class="fill"
	d="M258.00 543.16l7.00 0.50v3.20l-7.00 -0.50"/>
<path class="fill"
	d="M298.00 546.16l7.00 0.50v3.20l-7.00 -0.50"/>
<use x="236.80" y="557.86" xlink:href="#hd"/>
<circle class="fill" cx="244.50" cy="557.86" r="1.2"/>
<path d="M240.30 557.86v-20.00" class="stroke"/>
<use x="261.50" y="560.86" xlink:href="#hd"/>
<path d="M265.00 560.86v-21.20" class="stroke"/>
<use x="276.80" y="563.86" xlink:href="#hd"/>
<circle class="fill" cx="284.50" cy="563.86" r="1.2"/>
<path d="M280.30 563.86v-23.10" class="stroke"/>
<use x="301.50" y="566.86" xlink:href="#hd"/>
<path d="M305.00 566.86v-24.20" class="stroke"/>
<path class="fill"
	d="M321.50 546.86l65.30 0.00v3.20l-65.30 -0.00"/>
<path class="fill"
	d="M339.60 551.86l7.00 0.00v3.20l-7.00 -0.00"/>
<path class="fill"
	d="M379.50 551.86l7.00 0.00v3.20l-7.00 -0.00"/>
<use x="318.40" y="569.86" xlink:href="#hd"/>
<circle class="fill" cx="326.10" cy="569.86" r="1.2"/>
<path d="M321.90 569.86v-22.00" class="stroke"/>
<use x="343.10" y="575.86" xlink:href="#hd"/>
<path d="M346.60 575.86v-28.00" class="stroke"/>
<use x="358.30" y="572.86" xlink:href="#hd"/>
<circle class="fill" cx="366.00" cy="569.86" r="1.2"/>
<path d="M361.80 572.86v-25.00" class="stroke"/>
<use x="383.00" y="569.86" xlink:href="#hd"/>
<path d="M386.50 569.86v-22.00" class="stroke"/>
<path class="fill"
	d="M411.20 534.56l68.60 -5.10v3.20l-68.60 5.10"/>
<path class="fill"
	d="M436.20 537.66l43.20 -3.20v3.20l-43.20 3.20"/>
<use x="408.00" y="566.86" xlink:href="#hd"/>
<circle class="fill" cx="415.70" cy="563.86" r="1.2"/>
<path d="M411.50 566.86v-31.40" class="stroke"/>
<use x="432.70" y="554.86" xlink:href="#hd"/>
<circle class="fill" cx="440.40" cy="551.86" r="1.2"/>
<path d="M436.20 554.86v-21.20" class="stroke"/>
<use x="458.20" y="557.86" xlink:href="#hd"/>
<circle class="fill" cx="465.90" cy="557.86" r="1.2"/>
<use x="449.20" y="557.86" xlink:href="#sh0"/>
<path d="M461.70 557.86v-26.10" class="stroke"/>
<use x="475.90" y="554.86" xlink:href="#hd"/>
<path d="M479.40 554.86v-24.40" class="stroke"/>
<path class="fill"
	d="M489.10 580.86l65.30 0.00v-3.20l-65.30 -0.00"/>
<path class="fill"
	d="M507.20 575.86l7.00 0.00v-3.20l-7.00 -0.00"/>
<path class="fill"
	d="M547.10 575.86l7.00 0.00v-3.20l-7.00 -0.00"/>
<use x="493.00" y="557.86" xlink:href="#hd"/>
<circle class="fill" cx="500.70" cy="557.86" r="1.2"/>
<path d="M489.50 557.86v22.00" class="stroke"/>
<use x="517.70" y="551.86" xlink:href="#hd"/>
<path d="M514.20 551.86v28.00" class="stroke"/>
<use x="532.90" y="554.86" xlink:href="#hd"/>
<circle class="fill" cx="540.60" cy="551.86" r="1.2"/>
<path d="M529.40 554.86v25.00" class="stroke"/>
<use x="557.60" y="557.86" xlink:href="#hd"/>
<path d="M554.10 557.86v22.00" class="stroke"/>
<path class="fill"
	d="M585.80 539.76l65.30 4.90v3.20l-65.30 -4.90"/>
<path class="fill"
	d="M603.80 546.16l7.00 0.50v3.20l-7.00 -0.50"/>
<path class="fill"
	d="M643.80 549.16l7.00 0.50v3.20l-7.00 -0.50"/>
<use x="582.60" y="560.86" xlink:href="#hd"/>
<circle class="fill" cx="590.30" cy="557.86" r="1.2"/>
<path d="M586.10 560.86v-20.00" class="stroke"/>
<use x="607.30" y="563.86" xlink:href="#hd"/>
<path d="M610.80 563.86v-21.20" class="stroke"/>
<use x="622.60" y="566.86" xlink:href="#hd"/>
<circle class="fill" cx="630.30" cy="563.86" r="1.2"/>
<path d="M626.10 566.86v-23.10" class="stroke"/>
<use x="647.30" y="569.86" xlink:href="#hd"/>
<path d="M650.80 569.86v-24.20" class="stroke"/>
<use x="664.20" y="566.86" xlink:href="#hd"/>
<path d="M667.70 566.86v-21.00" class="stroke"/>
</g>
</svg>
