<?xml version="1.0" standalone="no"?>
<!DOCTYPE svg PUBLIC "-//W3C//DTD SVG 1.1//EN"
	"http://www.w3.org/Graphics/SVG/1.1/DTD/svg11.dtd">
<svg xmlns="http://www.w3.org/2000/svg" version="1.1"
	xmlns:xlink="http://www.w3.org/1999/xlink"
	color="black"
	width="701.60px" height="318.00px">
<style type="text/css">
.fill {fill: currentColor}
.stroke {stroke: currentColor; fill: none}
text{white-space: pre}
</style>
<title>/media/tim/Data1/tims_code/sphinx-tunes/source/_abcfiles/appleblossom.ab (2) tune 2</title>
<!-- Creator: abcm2ps-8.14.6 -->
<!-- CreationDate: Jul 30, 2023 12:21 -->
<!-- CommandLine: -g /media/tim/Data1/tims_code/sphinx-tunes/source/_abcfiles/appleblossom.abc -O /media/tim/Data1/tims_code/sphinx-tunes/source/_abcfiles/appleblossom.svg -->
<g stroke-width="0.70">
<!-- title: Castles in the Air -->
</g>
<g stroke-width="0.70" style="font:20.00px Times">
<text x="350.80" y="22.00" text-anchor="middle">Castles in the Air</text>
</g>
<g stroke-width="0.70" style="font:20.00px Times">
<defs>
<g id="rdots" class="fill">
	<circle cx="0" cy="-9" r="1.2"/>
	<circle cx="0" cy="-15" r="1.2"/>
</g>
</defs>
<use x="81.50" y="85.00" xlink:href="#rdots"/>
<path class="stroke" stroke-width="1"
	d="M77.50 85.00v-24.00"/>
<path class="stroke" stroke-width="3"
	d="M73.00 85.00v-24.00"/>
<path class="stroke" stroke-width="1"
	d="M148.80 85.00v-24.00"/>
<path class="stroke" stroke-width="1"
	d="M326.50 85.00v-24.00"/>
<path class="stroke" stroke-width="1"
	d="M498.40 85.00v-24.00"/>
<path class="stroke" stroke-width="1"
	d="M691.60 85.00v-24.00"/>
<path d="m10.00 85.00
	h681.60
	M10.00 79.00
	h681.60
	M10.00 73.00
	h681.60
	M10.00 67.00
	h681.60
	M10.00 61.00
	h681.60
	" class="stroke"/>
<text style="font:italic 12px serif"
	x="117.30" y="57.70" text-anchor="middle">3</text>
<defs>
<path id="utclef" class="fill" d="m-50 -90
	c-72 -41 -72 -158 52 -188
	150 -10 220 188 90 256
	-114 52 -275 0 -293 -136
	-15 -181 93 -229 220 -334
	88 -87 79 -133 62 -210
	-51 33 -94 105 -89 186
	17 267 36 374 49 574
	6 96 -19 134 -77 135
	-80 1 -126 -93 -61 -133
	85 -41 133 101 31 105
	23 17 92 37 90 -92
	-10 -223 -39 -342 -50 -617
	0 -90 0 -162 96 -232
	56 72 63 230 22 289
	-74 106 -257 168 -255 316
	9 153 148 185 252 133
	86 -65 29 -192 -80 -176
	-71 12 -105 67 -59 124"/>
<use id="tclef" transform="translate(0,6) scale(0.045)"
	xlink:href="#utclef"/>
</defs>
<use x="22.00" y="79.00" xlink:href="#tclef"/>
<defs>
<path id="usharp" class="fill" d="
	m136 -702
	v890
	h32
	v-890
	m128 840
	h32
	v-888
	h-32
	m-232 286
	v116
	l338 -96
	v-116
	m-338 442
	v116
	l338 -98
	v-114"/>
<use id="sh0" transform="translate(-4,5) scale(0.018)"
	xlink:href="#usharp"/>
</defs>
<use x="37.00" y="61.00" xlink:href="#sh0"/>
<g style="font:bold 16px serif"
	transform="translate(53.00,84.50) scale(1.2,1)">
	<text text-anchor="middle">4</text>
	<text y="-12" text-anchor="middle">4</text>
</g>
<path class="fill"
	d="M99.20 66.30l38.60 -4.60v3.20l-38.60 4.60"/>
<defs>
<ellipse id="hd" rx="4.1" ry="2.9"
	transform="rotate(-20)" class="fill"/>
</defs>
<use x="96.10" y="88.00" xlink:href="#hd"/>
<path d="M99.60 88.00v-20.70" class="stroke"/>
<use x="115.00" y="85.00" xlink:href="#hd"/>
<path d="M118.50 85.00v-20.00" class="stroke"/>
<use x="134.00" y="82.00" xlink:href="#hd"/>
<path d="M137.50 82.00v-19.30" class="stroke"/>
<use x="162.40" y="79.00" xlink:href="#hd"/>
<path d="M165.90 79.00v-21.00" class="stroke"/>
<path class="fill"
	d="M203.60 55.00l28.40 -4.30v3.20l-28.40 4.30"/>
<path class="fill"
	d="M224.70 56.90l7.00 -1.10v3.20l-7.00 1.10"/>
<use x="200.50" y="79.00" xlink:href="#hd"/>
<circle class="fill" cx="208.20" cy="76.00" r="1.2"/>
<path d="M204.00 79.00v-23.00" class="stroke"/>
<use x="228.20" y="73.00" xlink:href="#hd"/>
<path d="M231.70 73.00v-21.20" class="stroke"/>
<use x="247.30" y="88.00" xlink:href="#hd"/>
<path d="M250.80 88.00v-21.00" class="stroke"/>
<path class="fill"
	d="M288.50 64.00l28.40 -4.30v3.20l-28.40 4.30"/>
<path class="fill"
	d="M309.50 65.90l7.00 -1.10v3.20l-7.00 1.10"/>
<use x="285.30" y="88.00" xlink:href="#hd"/>
<circle class="fill" cx="293.00" cy="88.00" r="1.2"/>
<path d="M288.80 88.00v-23.00" class="stroke"/>
<use x="313.00" y="82.00" xlink:href="#hd"/>
<path d="M316.50 82.00v-21.20" class="stroke"/>
<path class="fill"
	d="M343.20 57.20l28.40 2.50v3.20l-28.40 -2.50"/>
<path class="fill"
	d="M364.20 64.10l7.00 0.60v3.20l-7.00 -0.60"/>
<use x="340.00" y="79.00" xlink:href="#hd"/>
<circle class="fill" cx="347.70" cy="76.00" r="1.2"/>
<path d="M343.50 79.00v-20.70" class="stroke"/>
<use x="367.70" y="82.00" xlink:href="#hd"/>
<path d="M371.20 82.00v-21.30" class="stroke"/>
<path class="fill"
	d="M390.00 56.30l28.40 -2.50v3.20l-28.40 2.50"/>
<path class="fill"
	d="M411.00 59.40l7.00 -0.60v3.20l-7.00 0.60"/>
<use x="386.80" y="79.00" xlink:href="#hd"/>
<circle class="fill" cx="394.50" cy="76.00" r="1.2"/>
<path d="M390.30 79.00v-21.70" class="stroke"/>
<use x="414.50" y="76.00" xlink:href="#hd"/>
<path d="M418.00 76.00v-21.20" class="stroke"/>
<use x="433.60" y="73.00" xlink:href="#hd"/>
<path d="M437.10 73.00v-21.00" class="stroke"/>
<use x="471.70" y="73.00" xlink:href="#hd"/>
<path d="M475.20 73.00v-21.00" class="stroke"/>
<path class="fill"
	d="M508.20 93.20l28.40 2.50v-3.20l-28.40 -2.50"/>
<path class="fill"
	d="M529.20 90.10l7.00 0.60v-3.20l-7.00 -0.60"/>
<use x="512.00" y="70.00" xlink:href="#hd"/>
<circle class="fill" cx="519.70" cy="70.00" r="1.2"/>
<path d="M508.50 70.00v22.30" class="stroke"/>
<use x="539.70" y="73.00" xlink:href="#hd"/>
<path d="M536.20 73.00v21.70" class="stroke"/>
<path class="fill"
	d="M555.00 92.10l28.40 -4.30v-3.20l-28.40 4.30"/>
<path class="fill"
	d="M576.00 84.00l7.00 -1.10v-3.20l-7.00 1.10"/>
<use x="558.80" y="70.00" xlink:href="#hd"/>
<circle class="fill" cx="566.50" cy="70.00" r="1.2"/>
<path d="M555.30 70.00v21.10" class="stroke"/>
<use x="586.50" y="64.00" xlink:href="#hd"/>
<path d="M583.00 64.00v22.90" class="stroke"/>
<path class="fill"
	d="M601.70 91.00l28.40 4.30v-3.20l-28.40 -4.30"/>
<path class="fill"
	d="M622.80 89.10l7.00 1.10v-3.20l-7.00 -1.10"/>
<use x="605.60" y="67.00" xlink:href="#hd"/>
<circle class="fill" cx="613.30" cy="64.00" r="1.2"/>
<path d="M602.10 67.00v23.00" class="stroke"/>
<use x="633.30" y="73.00" xlink:href="#hd"/>
<path d="M629.80 73.00v21.20" class="stroke"/>
<path class="fill"
	d="M653.60 54.20l28.40 2.50v3.20l-28.40 -2.50"/>
<path class="fill"
	d="M674.70 61.10l7.00 0.60v3.20l-7.00 -0.60"/>
<use x="650.50" y="76.00" xlink:href="#hd"/>
<circle class="fill" cx="658.20" cy="76.00" r="1.2"/>
<path d="M654.00 76.00v-20.70" class="stroke"/>
<use x="678.20" y="79.00" xlink:href="#hd"/>
<path d="M681.70 79.00v-21.30" class="stroke"/>
</g>
<g stroke-width="0.70" style="font:20.00px Times">
<path class="stroke" stroke-width="1"
	d="M187.20 155.00v-24.00"/>
<path class="stroke" stroke-width="1"
	d="M316.30 155.00v-24.00"/>
<path class="stroke" stroke-width="1"
	d="M439.90 155.00v-24.00"/>
<path class="stroke" stroke-width="1"
	d="M584.90 155.00v-24.00"/>
<path class="stroke" stroke-width="3"
	d="M690.10 155.00v-24.00"/>
<path class="stroke" stroke-width="1"
	d="M685.60 155.00v-24.00"/>
<use x="681.60" y="155.00" xlink:href="#rdots"/>
<path d="m10.00 155.00
	h681.60
	M10.00 149.00
	h681.60
	M10.00 143.00
	h681.60
	M10.00 137.00
	h681.60
	M10.00 131.00
	h681.60
	" class="stroke"/>
<text style="font:italic 12px serif"
	x="163.60" y="127.60" text-anchor="middle">3</text>
<use x="22.00" y="149.00" xlink:href="#tclef"/>
<use x="37.00" y="131.00" xlink:href="#sh0"/>
<path class="fill"
	d="M58.20 123.60l12.90 -2.10v3.20l-12.90 2.10"/>
<path class="fill"
	d="M65.50 127.40l-7.00 1.20v3.20l7.00 -1.20"/>
<use x="55.00" y="146.00" xlink:href="#hd"/>
<path d="M58.50 146.00v-21.50" class="stroke"/>
<use x="67.20" y="143.00" xlink:href="#hd"/>
<circle class="fill" cx="74.90" cy="140.00" r="1.2"/>
<path d="M70.70 143.00v-20.50" class="stroke"/>
<path class="fill"
	d="M92.40 124.30l20.70 2.40v3.20l-20.70 -2.40"/>
<path class="fill"
	d="M105.70 130.80l7.00 0.80v3.20l-7.00 -0.80"/>
<use x="89.20" y="146.00" xlink:href="#hd"/>
<circle class="fill" cx="96.90" cy="146.00" r="1.2"/>
<path d="M92.70 146.00v-20.70" class="stroke"/>
<use x="109.20" y="149.00" xlink:href="#hd"/>
<path d="M112.70 149.00v-21.30" class="stroke"/>
<use x="122.70" y="155.00" xlink:href="#hd"/>
<path d="M126.20 155.00v-21.00" class="stroke"/>
<path class="fill"
	d="M151.10 136.10l27.40 -4.20v3.20l-27.40 4.20"/>
<use x="148.00" y="158.00" xlink:href="#hd"/>
<path d="M151.50 158.00v-20.90" class="stroke"/>
<use x="161.30" y="155.00" xlink:href="#hd"/>
<path d="M164.80 155.00v-20.00" class="stroke"/>
<use x="174.70" y="152.00" xlink:href="#hd"/>
<path d="M178.20 152.00v-19.10" class="stroke"/>
<use x="199.70" y="149.00" xlink:href="#hd"/>
<path d="M203.20 149.00v-21.00" class="stroke"/>
<path class="fill"
	d="M228.20 124.60l20.70 -3.90v3.20l-20.70 3.90"/>
<path class="fill"
	d="M241.50 127.10l7.00 -1.30v3.20l-7.00 1.30"/>
<use x="225.00" y="149.00" xlink:href="#hd"/>
<circle class="fill" cx="232.70" cy="146.00" r="1.2"/>
<path d="M228.50 149.00v-23.40" class="stroke"/>
<use x="245.00" y="143.00" xlink:href="#hd"/>
<path d="M248.50 143.00v-21.20" class="stroke"/>
<use x="258.50" y="158.00" xlink:href="#hd"/>
<path d="M262.00 158.00v-21.00" class="stroke"/>
<path class="fill"
	d="M286.90 133.60l20.70 -3.90v3.20l-20.70 3.90"/>
<path class="fill"
	d="M300.30 136.10l7.00 -1.30v3.20l-7.00 1.30"/>
<use x="283.80" y="158.00" xlink:href="#hd"/>
<circle class="fill" cx="291.50" cy="158.00" r="1.2"/>
<path d="M287.30 158.00v-23.40" class="stroke"/>
<use x="303.80" y="152.00" xlink:href="#hd"/>
<path d="M307.30 152.00v-21.20" class="stroke"/>
<path class="fill"
	d="M332.00 127.30l20.70 2.40v3.20l-20.70 -2.40"/>
<path class="fill"
	d="M345.40 133.80l7.00 0.80v3.20l-7.00 -0.80"/>
<use x="328.80" y="149.00" xlink:href="#hd"/>
<circle class="fill" cx="336.50" cy="146.00" r="1.2"/>
<path d="M332.30 149.00v-20.70" class="stroke"/>
<use x="348.90" y="152.00" xlink:href="#hd"/>
<path d="M352.40 152.00v-21.30" class="stroke"/>
<path class="fill"
	d="M365.50 126.10l20.70 -2.40v3.20l-20.70 2.40"/>
<path class="fill"
	d="M378.80 129.60l7.00 -0.80v3.20l-7.00 0.80"/>
<use x="362.30" y="149.00" xlink:href="#hd"/>
<circle class="fill" cx="370.00" cy="146.00" r="1.2"/>
<path d="M365.80 149.00v-21.90" class="stroke"/>
<use x="382.30" y="146.00" xlink:href="#hd"/>
<path d="M385.80 146.00v-21.20" class="stroke"/>
<use x="395.80" y="143.00" xlink:href="#hd"/>
<path d="M399.30 143.00v-21.00" class="stroke"/>
<use x="421.10" y="143.00" xlink:href="#hd"/>
<path d="M424.60 143.00v-21.00" class="stroke"/>
<path class="fill"
	d="M448.50 162.70l20.70 -2.40v-3.20l-20.70 2.40"/>
<path class="fill"
	d="M461.90 156.20l7.00 -0.80v-3.20l-7.00 0.80"/>
<use x="452.40" y="140.00" xlink:href="#hd"/>
<circle class="fill" cx="460.10" cy="140.00" r="1.2"/>
<path d="M448.90 140.00v21.70" class="stroke"/>
<use x="472.40" y="137.00" xlink:href="#hd"/>
<path d="M468.90 137.00v22.30" class="stroke"/>
<path class="fill"
	d="M482.00 156.30l12.90 -3.20v-3.20l-12.90 3.20"/>
<path class="fill"
	d="M489.30 149.50l-7.00 1.70v-3.20l7.00 -1.70"/>
<use x="485.80" y="134.00" xlink:href="#hd"/>
<path d="M482.30 134.00v21.20" class="stroke"/>
<use x="498.10" y="128.00" xlink:href="#hd"/>
<circle class="fill" cx="505.80" cy="128.00" r="1.2"/>
<path d="M494.60 128.00v24.20" class="stroke"/>
<path class="fill"
	d="M516.20 161.40l20.70 3.90v-3.20l-20.70 -3.90"/>
<path class="fill"
	d="M529.60 158.90l7.00 1.30v-3.20l-7.00 -1.30"/>
<use x="520.00" y="137.00" xlink:href="#hd"/>
<circle class="fill" cx="527.70" cy="134.00" r="1.2"/>
<path d="M516.50 137.00v23.40" class="stroke"/>
<use x="540.10" y="143.00" xlink:href="#hd"/>
<path d="M536.60 143.00v21.20" class="stroke"/>
<path class="fill"
	d="M555.50 126.10l20.70 -2.40v3.20l-20.70 2.40"/>
<path class="fill"
	d="M568.90 129.60l7.00 -0.80v3.20l-7.00 0.80"/>
<use x="552.30" y="149.00" xlink:href="#hd"/>
<circle class="fill" cx="560.00" cy="146.00" r="1.2"/>
<path d="M555.80 149.00v-21.90" class="stroke"/>
<use x="572.40" y="146.00" xlink:href="#hd"/>
<path d="M575.90 146.00v-21.20" class="stroke"/>
<path class="fill"
	d="M593.50 165.70l20.70 -2.40v-3.20l-20.70 2.40"/>
<path class="fill"
	d="M606.90 159.20l7.00 -0.80v-3.20l-7.00 0.80"/>
<use x="597.40" y="143.00" xlink:href="#hd"/>
<circle class="fill" cx="605.10" cy="140.00" r="1.2"/>
<path d="M593.90 143.00v21.70" class="stroke"/>
<use x="617.40" y="140.00" xlink:href="#hd"/>
<path d="M613.90 140.00v22.30" class="stroke"/>
<path class="fill"
	d="M632.80 121.30l20.70 2.40v3.20l-20.70 -2.40"/>
<path class="fill"
	d="M646.20 127.80l7.00 0.80v3.20l-7.00 -0.80"/>
<use x="629.60" y="143.00" xlink:href="#hd"/>
<circle class="fill" cx="637.30" cy="140.00" r="1.2"/>
<path d="M633.10 143.00v-20.70" class="stroke"/>
<use x="649.70" y="146.00" xlink:href="#hd"/>
<path d="M653.20 146.00v-21.30" class="stroke"/>
<use x="663.10" y="149.00" xlink:href="#hd"/>
<path d="M666.60 149.00v-21.00" class="stroke"/>
</g>
<g stroke-width="0.70" style="font:20.00px Times">
<use x="61.50" y="225.00" xlink:href="#rdots"/>
<path class="stroke" stroke-width="1"
	d="M57.50 225.00v-24.00"/>
<path class="stroke" stroke-width="3"
	d="M53.00 225.00v-24.00"/>
<path class="stroke" stroke-width="1"
	d="M132.60 225.00v-24.00"/>
<path class="stroke" stroke-width="1"
	d="M305.50 225.00v-24.00"/>
<path class="stroke" stroke-width="1"
	d="M487.40 225.00v-24.00"/>
<path class="stroke" stroke-width="1"
	d="M691.60 225.00v-24.00"/>
<path d="m10.00 225.00
	h681.60
	M10.00 219.00
	h681.60
	M10.00 213.00
	h681.60
	M10.00 207.00
	h681.60
	M10.00 201.00
	h681.60
	" class="stroke"/>
<text style="font:italic 12px serif"
	x="94.60" y="245.30" text-anchor="middle">3</text>
<use x="22.00" y="219.00" xlink:href="#tclef"/>
<use x="37.00" y="201.00" xlink:href="#sh0"/>
<path class="fill"
	d="M73.00 233.30l40.80 -4.70v-3.20l-40.80 4.70"/>
<use x="76.80" y="213.00" xlink:href="#hd"/>
<path d="M73.30 213.00v19.30" class="stroke"/>
<use x="96.90" y="210.00" xlink:href="#hd"/>
<path d="M93.40 210.00v20.00" class="stroke"/>
<use x="116.90" y="207.00" xlink:href="#hd"/>
<path d="M113.40 207.00v20.70" class="stroke"/>
<use x="146.90" y="204.00" xlink:href="#hd"/>
<path d="M143.40 204.00v21.00" class="stroke"/>
<path class="fill"
	d="M183.40 226.20l30.00 -4.40v-3.20l-30.00 4.40"/>
<path class="fill"
	d="M206.00 217.90l7.00 -1.00v-3.20l-7.00 1.00"/>
<use x="187.30" y="204.00" xlink:href="#hd"/>
<circle class="fill" cx="195.00" cy="204.00" r="1.2"/>
<path d="M183.80 204.00v21.10" class="stroke"/>
<use x="216.50" y="198.00" xlink:href="#hd"/>
<path d="M213.00 198.00v22.90" class="stroke"/>
<use x="236.80" y="207.00" xlink:href="#hd"/>
<path d="M233.30 207.00v21.00" class="stroke"/>
<use x="277.20" y="207.00" xlink:href="#hd"/>
<path d="M273.70 207.00v21.00" class="stroke"/>
<path class="fill"
	d="M315.90 233.20l30.00 2.50v-3.20l-30.00 -2.50"/>
<path class="fill"
	d="M338.50 230.10l7.00 0.60v-3.20l-7.00 -0.60"/>
<use x="319.80" y="210.00" xlink:href="#hd"/>
<circle class="fill" cx="327.50" cy="210.00" r="1.2"/>
<path d="M316.30 210.00v22.30" class="stroke"/>
<use x="349.00" y="213.00" xlink:href="#hd"/>
<path d="M345.50 213.00v21.70" class="stroke"/>
<path class="fill"
	d="M365.40 232.80l30.00 -2.50v-3.20l-30.00 2.50"/>
<path class="fill"
	d="M388.00 225.90l7.00 -0.60v-3.20l-7.00 0.60"/>
<use x="369.20" y="210.00" xlink:href="#hd"/>
<circle class="fill" cx="376.90" cy="210.00" r="1.2"/>
<path d="M365.70 210.00v21.70" class="stroke"/>
<use x="398.50" y="207.00" xlink:href="#hd"/>
<path d="M395.00 207.00v22.30" class="stroke"/>
<use x="418.70" y="213.00" xlink:href="#hd"/>
<path d="M415.20 213.00v21.00" class="stroke"/>
<use x="459.10" y="213.00" xlink:href="#hd"/>
<path d="M455.60 213.00v21.00" class="stroke"/>
<path class="fill"
	d="M497.90 233.20l30.00 2.50v-3.20l-30.00 -2.50"/>
<path class="fill"
	d="M520.50 230.10l7.00 0.60v-3.20l-7.00 -0.60"/>
<use x="501.70" y="210.00" xlink:href="#hd"/>
<circle class="fill" cx="509.40" cy="210.00" r="1.2"/>
<path d="M498.20 210.00v22.30" class="stroke"/>
<use x="531.00" y="213.00" xlink:href="#hd"/>
<path d="M527.50 213.00v21.70" class="stroke"/>
<path class="fill"
	d="M547.40 232.20l30.00 -4.40v-3.20l-30.00 4.40"/>
<path class="fill"
	d="M570.00 223.90l7.00 -1.00v-3.20l-7.00 1.00"/>
<use x="551.20" y="210.00" xlink:href="#hd"/>
<circle class="fill" cx="558.90" cy="210.00" r="1.2"/>
<path d="M547.70 210.00v21.10" class="stroke"/>
<use x="580.50" y="204.00" xlink:href="#hd"/>
<path d="M577.00 204.00v22.90" class="stroke"/>
<path class="fill"
	d="M596.90 230.90l30.00 4.40v-3.20l-30.00 -4.40"/>
<path class="fill"
	d="M619.50 229.20l7.00 1.00v-3.20l-7.00 -1.00"/>
<use x="600.70" y="207.00" xlink:href="#hd"/>
<circle class="fill" cx="608.40" cy="204.00" r="1.2"/>
<path d="M597.20 207.00v22.90" class="stroke"/>
<use x="630.00" y="213.00" xlink:href="#hd"/>
<path d="M626.50 213.00v21.20" class="stroke"/>
<path class="fill"
	d="M651.30 194.20l30.00 2.50v3.20l-30.00 -2.50"/>
<path class="fill"
	d="M674.00 201.10l7.00 0.60v3.20l-7.00 -0.60"/>
<use x="648.20" y="216.00" xlink:href="#hd"/>
<circle class="fill" cx="655.90" cy="216.00" r="1.2"/>
<path d="M651.70 216.00v-20.70" class="stroke"/>
<use x="677.50" y="219.00" xlink:href="#hd"/>
<path d="M681.00 219.00v-21.30" class="stroke"/>
</g>
<g stroke-width="0.70" style="font:20.00px Times">
<path class="stroke" stroke-width="1"
	d="M188.10 295.00v-24.00"/>
<path class="stroke" stroke-width="1"
	d="M323.70 295.00v-24.00"/>
<path class="stroke" stroke-width="1"
	d="M446.90 295.00v-24.00"/>
<path class="stroke" stroke-width="1"
	d="M591.30 295.00v-24.00"/>
<path class="stroke" stroke-width="3"
	d="M690.10 295.00v-24.00"/>
<path class="stroke" stroke-width="1"
	d="M685.60 295.00v-24.00"/>
<use x="681.60" y="295.00" xlink:href="#rdots"/>
<path d="m10.00 295.00
	h681.60
	M10.00 289.00
	h681.60
	M10.00 283.00
	h681.60
	M10.00 277.00
	h681.60
	M10.00 271.00
	h681.60
	" class="stroke"/>
<text style="font:italic 12px serif"
	x="300.20" y="267.60" text-anchor="middle">3</text>
<use x="22.00" y="289.00" xlink:href="#tclef"/>
<use x="37.00" y="271.00" xlink:href="#sh0"/>
<path class="fill"
	d="M58.20 263.60l12.90 -2.10v3.20l-12.90 2.10"/>
<path class="fill"
	d="M65.50 267.40l-7.00 1.20v3.20l7.00 -1.20"/>
<use x="55.00" y="286.00" xlink:href="#hd"/>
<path d="M58.50 286.00v-21.50" class="stroke"/>
<use x="67.20" y="283.00" xlink:href="#hd"/>
<circle class="fill" cx="74.90" cy="280.00" r="1.2"/>
<path d="M70.70 283.00v-20.50" class="stroke"/>
<path class="fill"
	d="M92.20 264.30l20.60 2.40v3.20l-20.60 -2.40"/>
<path class="fill"
	d="M105.50 270.80l7.00 0.80v3.20l-7.00 -0.80"/>
<use x="89.00" y="286.00" xlink:href="#hd"/>
<circle class="fill" cx="96.70" cy="286.00" r="1.2"/>
<path d="M92.50 286.00v-20.70" class="stroke"/>
<use x="109.00" y="289.00" xlink:href="#hd"/>
<path d="M112.50 289.00v-21.30" class="stroke"/>
<path class="fill"
	d="M125.50 263.90l20.60 -6.20v3.20l-20.60 6.20"/>
<path class="fill"
	d="M138.80 264.90l7.00 -2.10v3.20l-7.00 2.10"/>
<use x="122.40" y="295.00" xlink:href="#hd"/>
<circle class="fill" cx="130.10" cy="292.00" r="1.2"/>
<path d="M125.90 295.00v-30.20" class="stroke"/>
<use x="142.30" y="280.00" xlink:href="#hd"/>
<path d="M145.80 280.00v-21.20" class="stroke"/>
<path class="fill"
	d="M158.80 261.30l20.60 2.40v3.20l-20.60 -2.40"/>
<path class="fill"
	d="M172.10 267.80l7.00 0.80v3.20l-7.00 -0.80"/>
<use x="155.70" y="283.00" xlink:href="#hd"/>
<circle class="fill" cx="163.40" cy="280.00" r="1.2"/>
<path d="M159.20 283.00v-20.70" class="stroke"/>
<use x="175.60" y="286.00" xlink:href="#hd"/>
<path d="M179.10 286.00v-21.30" class="stroke"/>
<use x="200.60" y="289.00" xlink:href="#hd"/>
<path d="M204.10 289.00v-21.00" class="stroke"/>
<path class="fill"
	d="M229.10 264.60l20.60 -3.90v3.20l-20.60 3.90"/>
<path class="fill"
	d="M242.40 267.10l7.00 -1.30v3.20l-7.00 1.30"/>
<use x="225.90" y="289.00" xlink:href="#hd"/>
<circle class="fill" cx="233.60" cy="286.00" r="1.2"/>
<path d="M229.40 289.00v-23.50" class="stroke"/>
<use x="245.90" y="283.00" xlink:href="#hd"/>
<path d="M249.40 283.00v-21.20" class="stroke"/>
<use x="259.30" y="298.00" xlink:href="#hd"/>
<path d="M262.80 298.00v-21.00" class="stroke"/>
<path class="fill"
	d="M287.80 276.10l27.30 -4.20v3.20l-27.30 4.20"/>
<use x="284.60" y="298.00" xlink:href="#hd"/>
<path d="M288.10 298.00v-20.90" class="stroke"/>
<use x="297.90" y="295.00" xlink:href="#hd"/>
<path d="M301.40 295.00v-20.00" class="stroke"/>
<use x="311.20" y="292.00" xlink:href="#hd"/>
<path d="M314.70 292.00v-19.10" class="stroke"/>
<path class="fill"
	d="M339.40 267.30l20.60 2.40v3.20l-20.60 -2.40"/>
<path class="fill"
	d="M352.60 273.80l7.00 0.80v3.20l-7.00 -0.80"/>
<use x="336.20" y="289.00" xlink:href="#hd"/>
<circle class="fill" cx="343.90" cy="286.00" r="1.2"/>
<path d="M339.70 289.00v-20.70" class="stroke"/>
<use x="356.10" y="292.00" xlink:href="#hd"/>
<path d="M359.60 292.00v-21.30" class="stroke"/>
<path class="fill"
	d="M372.70 266.10l20.60 -2.40v3.20l-20.60 2.40"/>
<path class="fill"
	d="M386.00 269.60l7.00 -0.80v3.20l-7.00 0.80"/>
<use x="369.50" y="289.00" xlink:href="#hd"/>
<circle class="fill" cx="377.20" cy="286.00" r="1.2"/>
<path d="M373.00 289.00v-21.90" class="stroke"/>
<use x="389.50" y="286.00" xlink:href="#hd"/>
<path d="M393.00 286.00v-21.20" class="stroke"/>
<use x="402.80" y="283.00" xlink:href="#hd"/>
<path d="M406.30 283.00v-21.00" class="stroke"/>
<use x="428.20" y="283.00" xlink:href="#hd"/>
<path d="M431.70 283.00v-21.00" class="stroke"/>
<path class="fill"
	d="M455.50 302.70l20.60 -2.40v-3.20l-20.60 2.40"/>
<path class="fill"
	d="M468.80 296.20l7.00 -0.80v-3.20l-7.00 0.80"/>
<use x="459.40" y="280.00" xlink:href="#hd"/>
<circle class="fill" cx="467.10" cy="280.00" r="1.2"/>
<path d="M455.90 280.00v21.70" class="stroke"/>
<use x="479.30" y="277.00" xlink:href="#hd"/>
<path d="M475.80 277.00v22.30" class="stroke"/>
<path class="fill"
	d="M488.90 296.30l12.90 -3.20v-3.20l-12.90 3.20"/>
<path class="fill"
	d="M496.20 289.50l-7.00 1.70v-3.20l7.00 -1.70"/>
<use x="492.70" y="274.00" xlink:href="#hd"/>
<path d="M489.20 274.00v21.20" class="stroke"/>
<use x="504.90" y="268.00" xlink:href="#hd"/>
<circle class="fill" cx="512.60" cy="268.00" r="1.2"/>
<path d="M501.40 268.00v24.20" class="stroke"/>
<path class="fill"
	d="M522.90 301.40l20.60 3.90v-3.20l-20.60 -3.90"/>
<path class="fill"
	d="M536.20 298.90l7.00 1.30v-3.20l-7.00 -1.30"/>
<use x="526.70" y="277.00" xlink:href="#hd"/>
<circle class="fill" cx="534.40" cy="274.00" r="1.2"/>
<path d="M523.20 277.00v23.50" class="stroke"/>
<use x="546.70" y="283.00" xlink:href="#hd"/>
<path d="M543.20 283.00v21.20" class="stroke"/>
<path class="fill"
	d="M562.00 266.10l20.60 -2.40v3.20l-20.60 2.40"/>
<path class="fill"
	d="M575.30 269.60l7.00 -0.80v3.20l-7.00 0.80"/>
<use x="558.90" y="289.00" xlink:href="#hd"/>
<circle class="fill" cx="566.60" cy="286.00" r="1.2"/>
<path d="M562.40 289.00v-21.90" class="stroke"/>
<use x="578.80" y="286.00" xlink:href="#hd"/>
<path d="M582.30 286.00v-21.20" class="stroke"/>
<path class="fill"
	d="M600.00 305.70l20.60 -2.40v-3.20l-20.60 2.40"/>
<path class="fill"
	d="M613.20 299.20l7.00 -0.80v-3.20l-7.00 0.80"/>
<use x="603.80" y="283.00" xlink:href="#hd"/>
<circle class="fill" cx="611.50" cy="280.00" r="1.2"/>
<path d="M600.30 283.00v21.70" class="stroke"/>
<use x="623.70" y="280.00" xlink:href="#hd"/>
<path d="M620.20 280.00v22.30" class="stroke"/>
<path class="fill"
	d="M639.10 261.30l20.60 2.40v3.20l-20.60 -2.40"/>
<path class="fill"
	d="M652.30 267.80l7.00 0.80v3.20l-7.00 -0.80"/>
<use x="635.90" y="283.00" xlink:href="#hd"/>
<circle class="fill" cx="643.60" cy="280.00" r="1.2"/>
<path d="M639.40 283.00v-20.70" class="stroke"/>
<use x="655.80" y="286.00" xlink:href="#hd"/>
<path d="M659.30 286.00v-21.30" class="stroke"/>
<use x="669.20" y="289.00" xlink:href="#hd"/>
<path d="M672.70 289.00v-21.00" class="stroke"/>
</g>
</svg>
