<?xml version="1.0" standalone="no"?>
<!DOCTYPE svg PUBLIC "-//W3C//DTD SVG 1.1//EN"
	"http://www.w3.org/Graphics/SVG/1.1/DTD/svg11.dtd">
<svg xmlns="http://www.w3.org/2000/svg" version="1.1"
	xmlns:xlink="http://www.w3.org/1999/xlink"
	color="black"
	width="701.60px" height="292.00px">
<style type="text/css">
.fill {fill: currentColor}
.stroke {stroke: currentColor; fill: none}
text{white-space: pre}
</style>
<title>/mnt/ed617834-7c4b-4156-8731-6c17b22f12c7/tims_code/sphinx-tunes/source/ (1) tune 1</title>
<!-- Creator: abcm2ps-8.14.6 -->
<!-- CreationDate: Aug  1, 2021 16:34 -->
<!-- CommandLine: -g '/mnt/ed617834-7c4b-4156-8731-6c17b22f12c7/tims_code/sphinx-tunes/source/_abcfiles/_Apple Blossom.abc' -O '/mnt/ed617834-7c4b-4156-8731-6c17b22f12c7/tims_code/sphinx-tunes/source/_abcfiles/Apple Blossom.svg' -->
<g stroke-width="0.70">
<path class="stroke" stroke-width="1"
	d="M114.60 59.00v-24.00"/>
<path class="stroke" stroke-width="1"
	d="M263.20 59.00v-24.00"/>
<path class="stroke" stroke-width="1"
	d="M401.90 59.00v-24.00"/>
<path class="stroke" stroke-width="1"
	d="M542.90 59.00v-24.00"/>
<path class="stroke" stroke-width="1"
	d="M691.60 59.00v-24.00"/>
<path d="m10.00 59.00
	h681.60
	M10.00 53.00
	h681.60
	M10.00 47.00
	h681.60
	M10.00 41.00
	h681.60
	M10.00 35.00
	h681.60
	" class="stroke"/>
<text style="font:italic 12px serif"
	x="91.60" y="31.60" text-anchor="middle">3</text>
<text style="font:italic 12px serif"
	x="206.80" y="23.40" text-anchor="middle">3</text>
<text style="font:italic 12px serif"
	x="374.30" y="73.40" text-anchor="middle">3</text>
<text style="font:italic 12px serif"
	x="570.50" y="23.40" text-anchor="middle">3</text>
<defs>
<path id="utclef" class="fill" d="m-50 -90
	c-72 -41 -72 -158 52 -188
	150 -10 220 188 90 256
	-114 52 -275 0 -293 -136
	-15 -181 93 -229 220 -334
	88 -87 79 -133 62 -210
	-51 33 -94 105 -89 186
	17 267 36 374 49 574
	6 96 -19 134 -77 135
	-80 1 -126 -93 -61 -133
	85 -41 133 101 31 105
	23 17 92 37 90 -92
	-10 -223 -39 -342 -50 -617
	0 -90 0 -162 96 -232
	56 72 63 230 22 289
	-74 106 -257 168 -255 316
	9 153 148 185 252 133
	86 -65 29 -192 -80 -176
	-71 12 -105 67 -59 124"/>
<use id="tclef" transform="translate(0,6) scale(0.045)"
	xlink:href="#utclef"/>
</defs>
<use x="22.00" y="53.00" xlink:href="#tclef"/>
<defs>
<path id="usharp" class="fill" d="
	m136 -702
	v890
	h32
	v-890
	m128 840
	h32
	v-888
	h-32
	m-232 286
	v116
	l338 -96
	v-116
	m-338 442
	v116
	l338 -98
	v-114"/>
<use id="sh0" transform="translate(-4,5) scale(0.018)"
	xlink:href="#usharp"/>
</defs>
<use x="37.00" y="35.00" xlink:href="#sh0"/>
<use x="42.50" y="44.00" xlink:href="#sh0"/>
<g style="font:bold 16px serif"
	transform="translate(58.50,58.50) scale(1.2,1)">
	<text text-anchor="middle">4</text>
	<text y="-12" text-anchor="middle">4</text>
</g>
<path class="fill"
	d="M79.70 40.10l26.20 -4.20v3.20l-26.20 4.20"/>
<defs>
<ellipse id="hd" rx="4.1" ry="2.9"
	transform="rotate(-20)" class="fill"/>
</defs>
<use x="76.50" y="62.00" xlink:href="#hd"/>
<path d="M80.00 62.00v-21.00" class="stroke"/>
<use x="89.30" y="59.00" xlink:href="#hd"/>
<path d="M92.80 59.00v-20.00" class="stroke"/>
<use x="102.10" y="56.00" xlink:href="#hd"/>
<path d="M105.60 56.00v-19.00" class="stroke"/>
<path class="fill"
	d="M130.20 31.30l20.20 2.40v3.20l-20.20 -2.40"/>
<path class="fill"
	d="M143.00 37.80l7.00 0.80v3.20l-7.00 -0.80"/>
<use x="127.10" y="53.00" xlink:href="#hd"/>
<circle class="fill" cx="134.80" cy="50.00" r="1.2"/>
<path d="M130.60 53.00v-20.60" class="stroke"/>
<use x="146.50" y="56.00" xlink:href="#hd"/>
<path d="M150.00 56.00v-21.40" class="stroke"/>
<path class="fill"
	d="M162.60 30.10l20.20 -2.40v3.20l-20.20 2.40"/>
<path class="fill"
	d="M175.40 33.60l7.00 -0.80v3.20l-7.00 0.80"/>
<use x="159.40" y="53.00" xlink:href="#hd"/>
<circle class="fill" cx="167.10" cy="50.00" r="1.2"/>
<path d="M162.90 53.00v-21.90" class="stroke"/>
<use x="178.90" y="50.00" xlink:href="#hd"/>
<path d="M182.40 50.00v-21.20" class="stroke"/>
<path class="fill"
	d="M194.90 26.90l26.20 4.20v3.20l-26.20 -4.20"/>
<use x="191.70" y="47.00" xlink:href="#hd"/>
<path d="M195.20 47.00v-19.00" class="stroke"/>
<use x="204.50" y="50.00" xlink:href="#hd"/>
<path d="M208.00 50.00v-20.00" class="stroke"/>
<use x="217.30" y="53.00" xlink:href="#hd"/>
<path d="M220.80 53.00v-21.00" class="stroke"/>
<path class="fill"
	d="M234.40 27.10l20.20 -2.40v3.20l-20.20 2.40"/>
<path class="fill"
	d="M247.20 30.60l7.00 -0.80v3.20l-7.00 0.80"/>
<use x="231.20" y="50.00" xlink:href="#hd"/>
<circle class="fill" cx="238.90" cy="50.00" r="1.2"/>
<path d="M234.70 50.00v-21.90" class="stroke"/>
<use x="250.70" y="47.00" xlink:href="#hd"/>
<path d="M254.20 47.00v-21.20" class="stroke"/>
<path class="fill"
	d="M271.90 67.30l20.20 2.40v-3.20l-20.20 -2.40"/>
<path class="fill"
	d="M284.70 63.80l7.00 0.80v-3.20l-7.00 -0.80"/>
<use x="275.70" y="44.00" xlink:href="#hd"/>
<circle class="fill" cx="283.40" cy="44.00" r="1.2"/>
<path d="M272.20 44.00v22.40" class="stroke"/>
<use x="295.20" y="47.00" xlink:href="#hd"/>
<path d="M291.70 47.00v21.60" class="stroke"/>
<path class="fill"
	d="M304.20 65.90l20.20 -3.80v-3.20l-20.20 3.80"/>
<path class="fill"
	d="M317.00 58.50l7.00 -1.30v-3.20l-7.00 1.30"/>
<use x="308.10" y="44.00" xlink:href="#hd"/>
<circle class="fill" cx="315.80" cy="44.00" r="1.2"/>
<path d="M304.60 44.00v20.90" class="stroke"/>
<use x="327.50" y="38.00" xlink:href="#hd"/>
<path d="M324.00 38.00v23.10" class="stroke"/>
<use x="340.40" y="41.00" xlink:href="#hd"/>
<path d="M336.90 41.00v21.00" class="stroke"/>
<path class="fill"
	d="M360.00 61.10l26.20 -4.20v-3.20l-26.20 4.20"/>
<use x="363.80" y="41.00" xlink:href="#hd"/>
<path d="M360.30 41.00v19.00" class="stroke"/>
<use x="376.60" y="38.00" xlink:href="#hd"/>
<path d="M373.10 38.00v20.00" class="stroke"/>
<use x="389.40" y="35.00" xlink:href="#hd"/>
<path d="M385.90 35.00v21.00" class="stroke"/>
<path class="fill"
	d="M410.60 58.40l20.20 4.80v-3.20l-20.20 -4.80"/>
<path class="fill"
	d="M423.40 56.50l7.00 1.70v-3.20l-7.00 -1.70"/>
<use x="414.40" y="32.00" xlink:href="#hd"/>
<circle class="fill" cx="422.10" cy="32.00" r="1.2"/>
<path d="M410.90 32.00v25.50" class="stroke"/>
<use x="433.90" y="41.00" xlink:href="#hd"/>
<path d="M430.40 41.00v21.20" class="stroke"/>
<path class="fill"
	d="M448.80 26.10l20.20 3.80v3.20l-20.20 -3.80"/>
<path class="fill"
	d="M461.70 33.50l7.00 1.30v3.20l-7.00 -1.30"/>
<use x="445.70" y="47.00" xlink:href="#hd"/>
<circle class="fill" cx="453.40" cy="44.00" r="1.2"/>
<path d="M449.20 47.00v-19.90" class="stroke"/>
<use x="465.20" y="53.00" xlink:href="#hd"/>
<path d="M468.70 53.00v-22.10" class="stroke"/>
<path class="fill"
	d="M474.80 65.90l20.20 -3.80v-3.20l-20.20 3.80"/>
<path class="fill"
	d="M487.60 58.50l7.00 -1.30v-3.20l-7.00 1.30"/>
<use x="478.60" y="44.00" xlink:href="#hd"/>
<circle class="fill" cx="486.30" cy="44.00" r="1.2"/>
<path d="M475.10 44.00v20.90" class="stroke"/>
<use x="498.10" y="38.00" xlink:href="#hd"/>
<path d="M494.60 38.00v23.10" class="stroke"/>
<path class="fill"
	d="M507.10 64.30l20.20 2.40v-3.20l-20.20 -2.40"/>
<path class="fill"
	d="M519.90 60.80l7.00 0.80v-3.20l-7.00 -0.80"/>
<use x="511.00" y="41.00" xlink:href="#hd"/>
<circle class="fill" cx="518.70" cy="38.00" r="1.2"/>
<path d="M507.50 41.00v22.40" class="stroke"/>
<use x="530.40" y="44.00" xlink:href="#hd"/>
<path d="M526.90 44.00v21.60" class="stroke"/>
<path class="fill"
	d="M558.60 26.90l26.20 4.20v3.20l-26.20 -4.20"/>
<use x="555.40" y="47.00" xlink:href="#hd"/>
<path d="M558.90 47.00v-19.00" class="stroke"/>
<use x="568.20" y="50.00" xlink:href="#hd"/>
<path d="M571.70 50.00v-20.00" class="stroke"/>
<use x="581.00" y="53.00" xlink:href="#hd"/>
<path d="M584.50 53.00v-21.00" class="stroke"/>
<path class="fill"
	d="M598.10 29.10l20.20 3.80v3.20l-20.20 -3.80"/>
<path class="fill"
	d="M610.90 36.50l7.00 1.30v3.20l-7.00 -1.30"/>
<use x="595.00" y="50.00" xlink:href="#hd"/>
<circle class="fill" cx="602.70" cy="50.00" r="1.2"/>
<path d="M598.50 50.00v-19.90" class="stroke"/>
<use x="614.40" y="56.00" xlink:href="#hd"/>
<path d="M617.90 56.00v-22.10" class="stroke"/>
<path class="fill"
	d="M630.40 39.10l20.20 -2.40v3.20l-20.20 2.40"/>
<path class="fill"
	d="M643.30 42.60l7.00 -0.80v3.20l-7.00 0.80"/>
<use x="627.30" y="62.00" xlink:href="#hd"/>
<circle class="fill" cx="635.00" cy="62.00" r="1.2"/>
<path d="M630.80 62.00v-21.90" class="stroke"/>
<use x="646.80" y="59.00" xlink:href="#hd"/>
<path d="M650.30 59.00v-21.20" class="stroke"/>
<path class="fill"
	d="M662.80 35.10l20.20 3.80v3.20l-20.20 -3.80"/>
<path class="fill"
	d="M675.60 42.50l7.00 1.30v3.20l-7.00 -1.30"/>
<use x="659.60" y="56.00" xlink:href="#hd"/>
<circle class="fill" cx="667.30" cy="56.00" r="1.2"/>
<path d="M663.10 56.00v-19.90" class="stroke"/>
<use x="679.10" y="62.00" xlink:href="#hd"/>
<path d="M682.60 62.00v-22.10" class="stroke"/>
</g>
<g stroke-width="0.70">
<path class="stroke" stroke-width="1"
	d="M228.80 129.00v-24.00"/>
<path class="stroke" stroke-width="1"
	d="M400.40 129.00v-24.00"/>
<path class="stroke" stroke-width="1"
	d="M569.20 129.00v-24.00"/>
<path class="stroke" stroke-width="3"
	d="M690.10 129.00v-24.00"/>
<path class="stroke" stroke-width="1"
	d="M685.60 129.00v-24.00"/>
<defs>
<g id="rdots" class="fill">
	<circle cx="0" cy="-9" r="1.2"/>
	<circle cx="0" cy="-15" r="1.2"/>
</g>
</defs>
<use x="681.60" y="129.00" xlink:href="#rdots"/>
<path d="m10.00 129.00
	h681.60
	M10.00 123.00
	h681.60
	M10.00 117.00
	h681.60
	M10.00 111.00
	h681.60
	M10.00 105.00
	h681.60
	" class="stroke"/>
<text style="font:italic 12px serif"
	x="160.10" y="93.30" text-anchor="middle">3</text>
<text style="font:italic 12px serif"
	x="368.70" y="143.30" text-anchor="middle">3</text>
<text style="font:italic 12px serif"
	x="632.80" y="95.70" text-anchor="middle">3</text>
<use x="22.00" y="123.00" xlink:href="#tclef"/>
<use x="37.00" y="105.00" xlink:href="#sh0"/>
<use x="42.50" y="114.00" xlink:href="#sh0"/>
<path class="fill"
	d="M63.70 101.30l24.70 2.50v3.20l-24.70 -2.50"/>
<path class="fill"
	d="M81.00 108.00l7.00 0.70v3.20l-7.00 -0.70"/>
<use x="60.50" y="123.00" xlink:href="#hd"/>
<circle class="fill" cx="68.20" cy="120.00" r="1.2"/>
<path d="M64.00 123.00v-20.70" class="stroke"/>
<use x="84.50" y="126.00" xlink:href="#hd"/>
<path d="M88.00 126.00v-21.30" class="stroke"/>
<path class="fill"
	d="M104.10 100.20l24.70 -2.50v3.20l-24.70 2.50"/>
<path class="fill"
	d="M121.50 103.50l7.00 -0.70v3.20l-7.00 0.70"/>
<use x="101.00" y="123.00" xlink:href="#hd"/>
<circle class="fill" cx="108.70" cy="120.00" r="1.2"/>
<path d="M104.50 123.00v-21.80" class="stroke"/>
<use x="125.00" y="120.00" xlink:href="#hd"/>
<path d="M128.50 120.00v-21.20" class="stroke"/>
<path class="fill"
	d="M144.60 96.80l33.40 4.50v3.20l-33.40 -4.50"/>
<use x="141.40" y="117.00" xlink:href="#hd"/>
<path d="M144.90 117.00v-19.20" class="stroke"/>
<use x="157.80" y="120.00" xlink:href="#hd"/>
<path d="M161.30 120.00v-20.00" class="stroke"/>
<use x="174.10" y="123.00" xlink:href="#hd"/>
<path d="M177.60 123.00v-20.80" class="stroke"/>
<path class="fill"
	d="M195.40 97.20l24.70 -2.50v3.20l-24.70 2.50"/>
<path class="fill"
	d="M212.80 100.50l7.00 -0.70v3.20l-7.00 0.70"/>
<use x="192.30" y="120.00" xlink:href="#hd"/>
<circle class="fill" cx="200.00" cy="120.00" r="1.2"/>
<path d="M195.80 120.00v-21.80" class="stroke"/>
<use x="216.30" y="117.00" xlink:href="#hd"/>
<path d="M219.80 117.00v-21.20" class="stroke"/>
<path class="fill"
	d="M237.40 137.30l24.70 2.50v-3.20l-24.70 -2.50"/>
<path class="fill"
	d="M254.80 134.00l7.00 0.70v-3.20l-7.00 -0.70"/>
<use x="241.30" y="114.00" xlink:href="#hd"/>
<circle class="fill" cx="249.00" cy="114.00" r="1.2"/>
<path d="M237.80 114.00v22.30" class="stroke"/>
<use x="265.30" y="117.00" xlink:href="#hd"/>
<path d="M261.80 117.00v21.70" class="stroke"/>
<path class="fill"
	d="M277.90 136.10l24.70 -4.10v-3.20l-24.70 4.10"/>
<path class="fill"
	d="M295.20 128.20l7.00 -1.20v-3.20l-7.00 1.20"/>
<use x="281.70" y="114.00" xlink:href="#hd"/>
<circle class="fill" cx="289.40" cy="114.00" r="1.2"/>
<path d="M278.20 114.00v21.00" class="stroke"/>
<use x="305.70" y="108.00" xlink:href="#hd"/>
<path d="M302.20 108.00v23.00" class="stroke"/>
<use x="322.20" y="111.00" xlink:href="#hd"/>
<path d="M318.70 111.00v21.00" class="stroke"/>
<path class="fill"
	d="M350.90 131.20l33.40 -4.50v-3.20l-33.40 4.50"/>
<use x="354.70" y="111.00" xlink:href="#hd"/>
<path d="M351.20 111.00v19.20" class="stroke"/>
<use x="371.00" y="108.00" xlink:href="#hd"/>
<path d="M367.50 108.00v20.00" class="stroke"/>
<use x="387.40" y="105.00" xlink:href="#hd"/>
<path d="M383.90 105.00v20.80" class="stroke"/>
<path class="fill"
	d="M409.00 128.00l24.70 5.30v-3.20l-24.70 -5.30"/>
<path class="fill"
	d="M426.40 126.70l7.00 1.50v-3.20l-7.00 -1.50"/>
<use x="412.90" y="102.00" xlink:href="#hd"/>
<circle class="fill" cx="420.60" cy="102.00" r="1.2"/>
<path d="M409.40 102.00v25.10" class="stroke"/>
<use x="436.90" y="111.00" xlink:href="#hd"/>
<path d="M433.40 111.00v21.20" class="stroke"/>
<path class="fill"
	d="M454.90 95.90l24.70 4.10v3.20l-24.70 -4.10"/>
<path class="fill"
	d="M472.20 103.80l7.00 1.20v3.20l-7.00 -1.20"/>
<use x="451.70" y="117.00" xlink:href="#hd"/>
<circle class="fill" cx="459.40" cy="114.00" r="1.2"/>
<path d="M455.20 117.00v-20.00" class="stroke"/>
<use x="475.70" y="123.00" xlink:href="#hd"/>
<path d="M479.20 123.00v-22.00" class="stroke"/>
<path class="fill"
	d="M495.30 92.90l24.70 4.10v3.20l-24.70 -4.10"/>
<path class="fill"
	d="M512.70 100.80l7.00 1.20v3.20l-7.00 -1.20"/>
<use x="492.20" y="114.00" xlink:href="#hd"/>
<circle class="fill" cx="499.90" cy="114.00" r="1.2"/>
<path d="M495.70 114.00v-20.00" class="stroke"/>
<use x="516.20" y="120.00" xlink:href="#hd"/>
<path d="M519.70 120.00v-22.00" class="stroke"/>
<path class="fill"
	d="M535.80 104.90l24.70 4.10v3.20l-24.70 -4.10"/>
<path class="fill"
	d="M553.20 112.80l7.00 1.20v3.20l-7.00 -1.20"/>
<use x="532.70" y="126.00" xlink:href="#hd"/>
<circle class="fill" cx="540.40" cy="126.00" r="1.2"/>
<path d="M536.20 126.00v-20.00" class="stroke"/>
<use x="556.70" y="132.00" xlink:href="#hd"/>
<path d="M560.20 132.00v-22.00" class="stroke"/>
<use x="581.70" y="123.00" xlink:href="#hd"/>
<path d="M585.20 123.00v-21.00" class="stroke"/>
<path class="fill"
	d="M617.30 104.20l33.40 -4.50v3.20l-33.40 4.50"/>
<use x="614.20" y="126.00" xlink:href="#hd"/>
<path d="M617.70 126.00v-20.80" class="stroke"/>
<use x="630.50" y="123.00" xlink:href="#hd"/>
<path d="M634.00 123.00v-20.00" class="stroke"/>
<use x="646.90" y="120.00" xlink:href="#hd"/>
<path d="M650.40 120.00v-19.20" class="stroke"/>
<use x="665.00" y="123.00" xlink:href="#hd"/>
<path d="M668.50 123.00v-21.00" class="stroke"/>
</g>
<g stroke-width="0.70">
<path class="stroke" stroke-width="1"
	d="M79.40 199.00v-24.00"/>
<path class="stroke" stroke-width="1"
	d="M234.10 199.00v-24.00"/>
<path class="stroke" stroke-width="1"
	d="M391.70 199.00v-24.00"/>
<path class="stroke" stroke-width="1"
	d="M537.40 199.00v-24.00"/>
<path class="stroke" stroke-width="1"
	d="M691.60 199.00v-24.00"/>
<path d="m10.00 199.00
	h681.60
	M10.00 193.00
	h681.60
	M10.00 187.00
	h681.60
	M10.00 181.00
	h681.60
	M10.00 175.00
	h681.60
	" class="stroke"/>
<text style="font:italic 12px serif"
	x="137.20" y="213.40" text-anchor="middle">3</text>
<text style="font:italic 12px serif"
	x="257.70" y="212.60" text-anchor="middle">3</text>
<text style="font:italic 12px serif"
	x="363.50" y="216.00" text-anchor="middle">3</text>
<text style="font:italic 12px serif"
	x="565.60" y="163.40" text-anchor="middle">3</text>
<use x="22.00" y="193.00" xlink:href="#tclef"/>
<use x="37.00" y="175.00" xlink:href="#sh0"/>
<use x="42.50" y="184.00" xlink:href="#sh0"/>
<use x="60.50" y="202.00" xlink:href="#hd"/>
<path d="M64.00 202.00v-21.00" class="stroke"/>
<path class="fill"
	d="M95.00 168.60l20.90 -3.90v3.20l-20.90 3.90"/>
<path class="fill"
	d="M108.60 171.10l7.00 -1.30v3.20l-7.00 1.30"/>
<use x="91.90" y="193.00" xlink:href="#hd"/>
<circle class="fill" cx="99.60" cy="190.00" r="1.2"/>
<path d="M95.40 193.00v-23.40" class="stroke"/>
<use x="112.10" y="187.00" xlink:href="#hd"/>
<path d="M115.60 187.00v-21.20" class="stroke"/>
<path class="fill"
	d="M122.20 201.10l27.50 -4.30v-3.20l-27.50 4.30"/>
<use x="126.10" y="181.00" xlink:href="#hd"/>
<path d="M122.60 181.00v19.10" class="stroke"/>
<use x="139.50" y="178.00" xlink:href="#hd"/>
<path d="M136.00 178.00v20.00" class="stroke"/>
<use x="152.90" y="175.00" xlink:href="#hd"/>
<path d="M149.40 175.00v20.90" class="stroke"/>
<path class="fill"
	d="M163.80 198.40l20.90 4.90v-3.20l-20.90 -4.90"/>
<path class="fill"
	d="M177.40 196.60l7.00 1.60v-3.20l-7.00 -1.60"/>
<use x="167.60" y="172.00" xlink:href="#hd"/>
<circle class="fill" cx="175.30" cy="172.00" r="1.2"/>
<path d="M164.10 172.00v25.40" class="stroke"/>
<use x="187.90" y="181.00" xlink:href="#hd"/>
<path d="M184.40 181.00v21.20" class="stroke"/>
<path class="fill"
	d="M197.50 206.30l20.90 -6.20v-3.20l-20.90 6.20"/>
<path class="fill"
	d="M211.10 197.20l7.00 -2.10v-3.20l-7.00 2.10"/>
<use x="201.30" y="187.00" xlink:href="#hd"/>
<circle class="fill" cx="209.00" cy="184.00" r="1.2"/>
<path d="M197.80 187.00v18.20" class="stroke"/>
<use x="221.60" y="172.00" xlink:href="#hd"/>
<path d="M218.10 172.00v27.20" class="stroke"/>
<path class="fill"
	d="M242.70 196.90l27.50 4.30v-3.20l-27.50 -4.30"/>
<use x="246.60" y="175.00" xlink:href="#hd"/>
<path d="M243.10 175.00v20.90" class="stroke"/>
<use x="260.00" y="178.00" xlink:href="#hd"/>
<path d="M256.50 178.00v20.00" class="stroke"/>
<use x="273.40" y="181.00" xlink:href="#hd"/>
<path d="M269.90 181.00v19.10" class="stroke"/>
<path class="fill"
	d="M284.30 202.10l26.20 4.20v-3.20l-26.20 -4.20"/>
<path class="fill"
	d="M303.10 200.10l7.00 1.10v-3.20l-7.00 -1.10"/>
<use x="288.10" y="178.00" xlink:href="#hd"/>
<circle class="fill" cx="295.80" cy="178.00" r="1.2"/>
<path d="M284.60 178.00v23.10" class="stroke"/>
<use x="313.60" y="184.00" xlink:href="#hd"/>
<use x="304.60" y="184.00" xlink:href="#sh0"/>
<path d="M310.10 184.00v21.20" class="stroke"/>
<use x="327.10" y="181.00" xlink:href="#hd"/>
<path d="M323.60 181.00v21.00" class="stroke"/>
<path class="fill"
	d="M348.50 202.00l27.50 0.00v-3.20l-27.50 -0.00"/>
<use x="352.30" y="181.00" xlink:href="#hd"/>
<path d="M348.80 181.00v20.00" class="stroke"/>
<use x="365.80" y="178.00" xlink:href="#hd"/>
<path d="M362.30 178.00v23.00" class="stroke"/>
<use x="379.20" y="181.00" xlink:href="#hd"/>
<path d="M375.70 181.00v20.00" class="stroke"/>
<path class="fill"
	d="M400.30 198.40l20.90 4.90v-3.20l-20.90 -4.90"/>
<path class="fill"
	d="M413.90 196.60l7.00 1.60v-3.20l-7.00 -1.60"/>
<use x="404.20" y="172.00" xlink:href="#hd"/>
<circle class="fill" cx="411.90" cy="172.00" r="1.2"/>
<path d="M400.70 172.00v25.40" class="stroke"/>
<use x="424.40" y="181.00" xlink:href="#hd"/>
<path d="M420.90 181.00v21.20" class="stroke"/>
<path class="fill"
	d="M439.90 166.10l20.90 3.90v3.20l-20.90 -3.90"/>
<path class="fill"
	d="M453.40 173.60l7.00 1.30v3.20l-7.00 -1.30"/>
<use x="436.70" y="187.00" xlink:href="#hd"/>
<circle class="fill" cx="444.40" cy="184.00" r="1.2"/>
<path d="M440.20 187.00v-19.90" class="stroke"/>
<use x="456.90" y="193.00" xlink:href="#hd"/>
<path d="M460.40 193.00v-22.10" class="stroke"/>
<path class="fill"
	d="M467.10 205.90l20.90 -3.90v-3.20l-20.90 3.90"/>
<path class="fill"
	d="M480.70 198.40l7.00 -1.30v-3.20l-7.00 1.30"/>
<use x="470.90" y="184.00" xlink:href="#hd"/>
<circle class="fill" cx="478.60" cy="184.00" r="1.2"/>
<path d="M467.40 184.00v20.90" class="stroke"/>
<use x="491.20" y="178.00" xlink:href="#hd"/>
<path d="M487.70 178.00v23.10" class="stroke"/>
<path class="fill"
	d="M500.80 204.30l20.90 2.40v-3.20l-20.90 -2.40"/>
<path class="fill"
	d="M514.40 200.90l7.00 0.80v-3.20l-7.00 -0.80"/>
<use x="504.70" y="181.00" xlink:href="#hd"/>
<circle class="fill" cx="512.40" cy="178.00" r="1.2"/>
<path d="M501.20 181.00v22.30" class="stroke"/>
<use x="524.90" y="184.00" xlink:href="#hd"/>
<path d="M521.40 184.00v21.70" class="stroke"/>
<path class="fill"
	d="M553.00 166.90l27.50 4.30v3.20l-27.50 -4.30"/>
<use x="549.90" y="187.00" xlink:href="#hd"/>
<path d="M553.40 187.00v-19.10" class="stroke"/>
<use x="563.30" y="190.00" xlink:href="#hd"/>
<path d="M566.80 190.00v-20.00" class="stroke"/>
<use x="576.70" y="193.00" xlink:href="#hd"/>
<path d="M580.20 193.00v-20.90" class="stroke"/>
<path class="fill"
	d="M594.60 169.10l20.90 3.90v3.20l-20.90 -3.90"/>
<path class="fill"
	d="M608.20 176.60l7.00 1.30v3.20l-7.00 -1.30"/>
<use x="591.40" y="190.00" xlink:href="#hd"/>
<circle class="fill" cx="599.10" cy="190.00" r="1.2"/>
<path d="M594.90 190.00v-19.90" class="stroke"/>
<use x="611.70" y="196.00" xlink:href="#hd"/>
<path d="M615.20 196.00v-22.10" class="stroke"/>
<path class="fill"
	d="M628.30 179.20l20.90 -2.40v3.20l-20.90 2.40"/>
<path class="fill"
	d="M641.90 182.60l7.00 -0.80v3.20l-7.00 0.80"/>
<use x="625.10" y="202.00" xlink:href="#hd"/>
<circle class="fill" cx="632.80" cy="202.00" r="1.2"/>
<path d="M628.60 202.00v-21.90" class="stroke"/>
<use x="645.40" y="199.00" xlink:href="#hd"/>
<path d="M648.90 199.00v-21.20" class="stroke"/>
<path class="fill"
	d="M662.00 175.10l20.90 3.90v3.20l-20.90 -3.90"/>
<path class="fill"
	d="M675.60 182.60l7.00 1.30v3.20l-7.00 -1.30"/>
<use x="658.90" y="196.00" xlink:href="#hd"/>
<circle class="fill" cx="666.60" cy="196.00" r="1.2"/>
<path d="M662.40 196.00v-19.90" class="stroke"/>
<use x="679.10" y="202.00" xlink:href="#hd"/>
<path d="M682.60 202.00v-22.10" class="stroke"/>
</g>
<g stroke-width="0.70">
<path class="stroke" stroke-width="1"
	d="M228.80 269.00v-24.00"/>
<path class="stroke" stroke-width="1"
	d="M400.40 269.00v-24.00"/>
<path class="stroke" stroke-width="1"
	d="M569.20 269.00v-24.00"/>
<path class="stroke" stroke-width="3"
	d="M690.10 269.00v-24.00"/>
<path class="stroke" stroke-width="1"
	d="M685.60 269.00v-24.00"/>
<use x="681.60" y="269.00" xlink:href="#rdots"/>
<path d="m10.00 269.00
	h681.60
	M10.00 263.00
	h681.60
	M10.00 257.00
	h681.60
	M10.00 251.00
	h681.60
	M10.00 245.00
	h681.60
	" class="stroke"/>
<text style="font:italic 12px serif"
	x="160.10" y="233.30" text-anchor="middle">3</text>
<text style="font:italic 12px serif"
	x="368.70" y="283.30" text-anchor="middle">3</text>
<text style="font:italic 12px serif"
	x="632.80" y="235.70" text-anchor="middle">3</text>
<use x="22.00" y="263.00" xlink:href="#tclef"/>
<use x="37.00" y="245.00" xlink:href="#sh0"/>
<use x="42.50" y="254.00" xlink:href="#sh0"/>
<path class="fill"
	d="M63.70 241.30l24.70 2.50v3.20l-24.70 -2.50"/>
<path class="fill"
	d="M81.00 248.00l7.00 0.70v3.20l-7.00 -0.70"/>
<use x="60.50" y="263.00" xlink:href="#hd"/>
<circle class="fill" cx="68.20" cy="260.00" r="1.2"/>
<path d="M64.00 263.00v-20.70" class="stroke"/>
<use x="84.50" y="266.00" xlink:href="#hd"/>
<path d="M88.00 266.00v-21.30" class="stroke"/>
<path class="fill"
	d="M104.10 240.20l24.70 -2.50v3.20l-24.70 2.50"/>
<path class="fill"
	d="M121.50 243.50l7.00 -0.70v3.20l-7.00 0.70"/>
<use x="101.00" y="263.00" xlink:href="#hd"/>
<circle class="fill" cx="108.70" cy="260.00" r="1.2"/>
<path d="M104.50 263.00v-21.80" class="stroke"/>
<use x="125.00" y="260.00" xlink:href="#hd"/>
<path d="M128.50 260.00v-21.20" class="stroke"/>
<path class="fill"
	d="M144.60 236.80l33.40 4.50v3.20l-33.40 -4.50"/>
<use x="141.40" y="257.00" xlink:href="#hd"/>
<path d="M144.90 257.00v-19.20" class="stroke"/>
<use x="157.80" y="260.00" xlink:href="#hd"/>
<path d="M161.30 260.00v-20.00" class="stroke"/>
<use x="174.10" y="263.00" xlink:href="#hd"/>
<path d="M177.60 263.00v-20.80" class="stroke"/>
<path class="fill"
	d="M195.40 237.20l24.70 -2.50v3.20l-24.70 2.50"/>
<path class="fill"
	d="M212.80 240.50l7.00 -0.70v3.20l-7.00 0.70"/>
<use x="192.30" y="260.00" xlink:href="#hd"/>
<circle class="fill" cx="200.00" cy="260.00" r="1.2"/>
<path d="M195.80 260.00v-21.80" class="stroke"/>
<use x="216.30" y="257.00" xlink:href="#hd"/>
<path d="M219.80 257.00v-21.20" class="stroke"/>
<path class="fill"
	d="M237.40 277.30l24.70 2.50v-3.20l-24.70 -2.50"/>
<path class="fill"
	d="M254.80 274.00l7.00 0.70v-3.20l-7.00 -0.70"/>
<use x="241.30" y="254.00" xlink:href="#hd"/>
<circle class="fill" cx="249.00" cy="254.00" r="1.2"/>
<path d="M237.80 254.00v22.30" class="stroke"/>
<use x="265.30" y="257.00" xlink:href="#hd"/>
<path d="M261.80 257.00v21.70" class="stroke"/>
<path class="fill"
	d="M277.90 276.10l24.70 -4.10v-3.20l-24.70 4.10"/>
<path class="fill"
	d="M295.20 268.20l7.00 -1.20v-3.20l-7.00 1.20"/>
<use x="281.70" y="254.00" xlink:href="#hd"/>
<circle class="fill" cx="289.40" cy="254.00" r="1.2"/>
<path d="M278.20 254.00v21.00" class="stroke"/>
<use x="305.70" y="248.00" xlink:href="#hd"/>
<path d="M302.20 248.00v23.00" class="stroke"/>
<use x="322.20" y="251.00" xlink:href="#hd"/>
<path d="M318.70 251.00v21.00" class="stroke"/>
<path class="fill"
	d="M350.90 271.20l33.40 -4.50v-3.20l-33.40 4.50"/>
<use x="354.70" y="251.00" xlink:href="#hd"/>
<path d="M351.20 251.00v19.20" class="stroke"/>
<use x="371.00" y="248.00" xlink:href="#hd"/>
<path d="M367.50 248.00v20.00" class="stroke"/>
<use x="387.40" y="245.00" xlink:href="#hd"/>
<path d="M383.90 245.00v20.80" class="stroke"/>
<path class="fill"
	d="M409.00 268.00l24.70 5.30v-3.20l-24.70 -5.30"/>
<path class="fill"
	d="M426.40 266.70l7.00 1.50v-3.20l-7.00 -1.50"/>
<use x="412.90" y="242.00" xlink:href="#hd"/>
<circle class="fill" cx="420.60" cy="242.00" r="1.2"/>
<path d="M409.40 242.00v25.10" class="stroke"/>
<use x="436.90" y="251.00" xlink:href="#hd"/>
<path d="M433.40 251.00v21.20" class="stroke"/>
<path class="fill"
	d="M454.90 235.90l24.70 4.10v3.20l-24.70 -4.10"/>
<path class="fill"
	d="M472.20 243.80l7.00 1.20v3.20l-7.00 -1.20"/>
<use x="451.70" y="257.00" xlink:href="#hd"/>
<circle class="fill" cx="459.40" cy="254.00" r="1.2"/>
<path d="M455.20 257.00v-20.00" class="stroke"/>
<use x="475.70" y="263.00" xlink:href="#hd"/>
<path d="M479.20 263.00v-22.00" class="stroke"/>
<path class="fill"
	d="M495.30 232.90l24.70 4.10v3.20l-24.70 -4.10"/>
<path class="fill"
	d="M512.70 240.80l7.00 1.20v3.20l-7.00 -1.20"/>
<use x="492.20" y="254.00" xlink:href="#hd"/>
<circle class="fill" cx="499.90" cy="254.00" r="1.2"/>
<path d="M495.70 254.00v-20.00" class="stroke"/>
<use x="516.20" y="260.00" xlink:href="#hd"/>
<path d="M519.70 260.00v-22.00" class="stroke"/>
<path class="fill"
	d="M535.80 244.90l24.70 4.10v3.20l-24.70 -4.10"/>
<path class="fill"
	d="M553.20 252.80l7.00 1.20v3.20l-7.00 -1.20"/>
<use x="532.70" y="266.00" xlink:href="#hd"/>
<circle class="fill" cx="540.40" cy="266.00" r="1.2"/>
<path d="M536.20 266.00v-20.00" class="stroke"/>
<use x="556.70" y="272.00" xlink:href="#hd"/>
<path d="M560.20 272.00v-22.00" class="stroke"/>
<use x="581.70" y="263.00" xlink:href="#hd"/>
<path d="M585.20 263.00v-21.00" class="stroke"/>
<path class="fill"
	d="M617.30 244.20l33.40 -4.50v3.20l-33.40 4.50"/>
<use x="614.20" y="266.00" xlink:href="#hd"/>
<path d="M617.70 266.00v-20.80" class="stroke"/>
<use x="630.50" y="263.00" xlink:href="#hd"/>
<path d="M634.00 263.00v-20.00" class="stroke"/>
<use x="646.90" y="260.00" xlink:href="#hd"/>
<path d="M650.40 260.00v-19.20" class="stroke"/>
<use x="665.00" y="263.00" xlink:href="#hd"/>
<path d="M668.50 263.00v-21.00" class="stroke"/>
</g>
</svg>
