<?xml version="1.0" standalone="no"?>
<!DOCTYPE svg PUBLIC "-//W3C//DTD SVG 1.1//EN"
	"http://www.w3.org/Graphics/SVG/1.1/DTD/svg11.dtd">
<svg xmlns="http://www.w3.org/2000/svg" version="1.1"
	xmlns:xlink="http://www.w3.org/1999/xlink"
	color="black"
	width="701.60px" height="248.00px">
<style type="text/css">
.fill {fill: currentColor}
.stroke {stroke: currentColor; fill: none}
text{white-space: pre}
</style>
<title>/media/tim/Data1/tims_code/sphinx-tunes/source/_abcfiles/banish_misfortu (1) tune 1</title>
<!-- Creator: abcm2ps-8.14.6 -->
<!-- CreationDate: Jul 30, 2023 12:21 -->
<!-- CommandLine: -g /media/tim/Data1/tims_code/sphinx-tunes/source/_abcfiles/banish_misfortune.abc -O /media/tim/Data1/tims_code/sphinx-tunes/source/_abcfiles/banish_misfortune.svg -->
<g stroke-width="0.70">
<!-- title: Banish Misfortune -->
</g>
<g stroke-width="0.70" style="font:20.00px Times">
<text x="350.80" y="22.00" text-anchor="middle">Banish Misfortune</text>
</g>
<g stroke-width="0.70" style="font:20.00px Times">
<path class="stroke" stroke-width="1"
	d="M138.40 85.00v-24.00"/>
<path class="stroke" stroke-width="1"
	d="M212.10 85.00v-24.00"/>
<path class="stroke" stroke-width="1"
	d="M287.60 85.00v-24.00"/>
<path class="stroke" stroke-width="1"
	d="M368.10 85.00v-24.00"/>
<path class="stroke" stroke-width="1"
	d="M448.70 85.00v-24.00"/>
<path class="stroke" stroke-width="1"
	d="M530.60 85.00v-24.00"/>
<path class="stroke" stroke-width="1"
	d="M610.50 85.00v-24.00"/>
<path class="stroke" stroke-width="3"
	d="M690.10 85.00v-24.00"/>
<path class="stroke" stroke-width="1"
	d="M685.60 85.00v-24.00"/>
<defs>
<g id="rdots" class="fill">
	<circle cx="0" cy="-9" r="1.2"/>
	<circle cx="0" cy="-15" r="1.2"/>
</g>
</defs>
<use x="681.60" y="85.00" xlink:href="#rdots"/>
<path d="m10.00 85.00
	h681.60
	M10.00 79.00
	h681.60
	M10.00 73.00
	h681.60
	M10.00 67.00
	h681.60
	M10.00 61.00
	h681.60
	" class="stroke"/>
<defs>
<path id="utclef" class="fill" d="m-50 -90
	c-72 -41 -72 -158 52 -188
	150 -10 220 188 90 256
	-114 52 -275 0 -293 -136
	-15 -181 93 -229 220 -334
	88 -87 79 -133 62 -210
	-51 33 -94 105 -89 186
	17 267 36 374 49 574
	6 96 -19 134 -77 135
	-80 1 -126 -93 -61 -133
	85 -41 133 101 31 105
	23 17 92 37 90 -92
	-10 -223 -39 -342 -50 -617
	0 -90 0 -162 96 -232
	56 72 63 230 22 289
	-74 106 -257 168 -255 316
	9 153 148 185 252 133
	86 -65 29 -192 -80 -176
	-71 12 -105 67 -59 124"/>
<use id="tclef" transform="translate(0,6) scale(0.045)"
	xlink:href="#utclef"/>
</defs>
<use x="22.00" y="79.00" xlink:href="#tclef"/>
<defs>
<path id="usharp" class="fill" d="
	m136 -702
	v890
	h32
	v-890
	m128 840
	h32
	v-888
	h-32
	m-232 286
	v116
	l338 -96
	v-116
	m-338 442
	v116
	l338 -98
	v-114"/>
<use id="sh0" transform="translate(-4,5) scale(0.018)"
	xlink:href="#usharp"/>
</defs>
<use x="37.00" y="61.00" xlink:href="#sh0"/>
<g style="font:bold 16px serif"
	transform="translate(53.00,84.50) scale(1.2,1)">
	<text text-anchor="middle">8</text>
	<text y="-12" text-anchor="middle">6</text>
</g>
<path class="fill"
	d="M67.20 83.00l22.60 4.00v-3.20l-22.60 -4.00"/>
<defs>
<ellipse id="hd" rx="4.1" ry="2.9"
	transform="rotate(-20)" class="fill"/>
</defs>
<use x="71.00" y="61.00" xlink:href="#hd"/>
<path d="M67.50 61.00v21.10" class="stroke"/>
<use x="82.00" y="64.00" xlink:href="#hd"/>
<path d="M78.50 64.00v20.00" class="stroke"/>
<use x="93.00" y="67.00" xlink:href="#hd"/>
<path d="M89.50 67.00v18.90" class="stroke"/>
<path class="fill"
	d="M107.10 50.70l22.60 3.70v3.20l-22.60 -3.70"/>
<use x="103.90" y="70.00" xlink:href="#hd"/>
<path d="M107.40 70.00v-18.20" class="stroke"/>
<use x="114.90" y="76.00" xlink:href="#hd"/>
<path d="M118.40 76.00v-22.40" class="stroke"/>
<use x="125.90" y="79.00" xlink:href="#hd"/>
<path d="M129.40 79.00v-23.60" class="stroke"/>
<use x="150.90" y="76.00" xlink:href="#hd"/>
<path d="M154.40 76.00v-21.00" class="stroke"/>
<use x="166.70" y="67.00" xlink:href="#hd"/>
<path d="M163.20 67.00v21.00" class="stroke"/>
<path class="fill"
	d="M163.20 88.00c0.6 -5.6 9.6 -9 5.6 -18.4
	1.6 6 -1.3 11.6 -5.6 12.8
"/>
<path class="fill"
	d="M180.80 50.70l22.60 3.70v3.20l-22.60 -3.70"/>
<use x="177.60" y="70.00" xlink:href="#hd"/>
<path d="M181.10 70.00v-18.20" class="stroke"/>
<use x="188.60" y="76.00" xlink:href="#hd"/>
<path d="M192.10 76.00v-22.40" class="stroke"/>
<use x="199.60" y="79.00" xlink:href="#hd"/>
<path d="M203.10 79.00v-23.60" class="stroke"/>
<use x="224.60" y="82.00" xlink:href="#hd"/>
<path d="M228.10 82.00v-21.00" class="stroke"/>
<use x="239.00" y="88.00" xlink:href="#hd"/>
<path d="M242.50 88.00v-21.00" class="stroke"/>
<path class="fill"
	d="M242.50 67.00c0.6 5.6 9.6 9 5.6 18.4
	1.6 -6 -1.3 -11.6 -5.6 -12.8
"/>
<path class="fill"
	d="M256.30 66.80l22.60 0.00v3.20l-22.60 -0.00"/>
<use x="253.10" y="88.00" xlink:href="#hd"/>
<path d="M256.60 88.00v-20.20" class="stroke"/>
<use x="264.10" y="85.00" xlink:href="#hd"/>
<path d="M267.60 85.00v-17.20" class="stroke"/>
<use x="275.10" y="88.00" xlink:href="#hd"/>
<path d="M278.60 88.00v-20.20" class="stroke"/>
<path class="fill"
	d="M303.20 60.80l22.60 0.00v3.20l-22.60 -0.00"/>
<use x="300.10" y="82.00" xlink:href="#hd"/>
<path d="M303.60 82.00v-20.20" class="stroke"/>
<use x="311.10" y="85.00" xlink:href="#hd"/>
<path d="M314.60 85.00v-23.20" class="stroke"/>
<use x="322.00" y="82.00" xlink:href="#hd"/>
<path d="M325.50 82.00v-20.20" class="stroke"/>
<path class="fill"
	d="M336.80 58.00l22.60 0.00v3.20l-22.60 -0.00"/>
<use x="333.70" y="79.00" xlink:href="#hd"/>
<path d="M337.20 79.00v-20.00" class="stroke"/>
<use x="344.60" y="82.00" xlink:href="#hd"/>
<path d="M348.10 82.00v-23.00" class="stroke"/>
<use x="355.60" y="79.00" xlink:href="#hd"/>
<path d="M359.10 79.00v-20.00" class="stroke"/>
<path class="fill"
	d="M383.80 54.80l22.60 0.00v3.20l-22.60 -0.00"/>
<use x="380.60" y="76.00" xlink:href="#hd"/>
<path d="M384.10 76.00v-20.20" class="stroke"/>
<use x="391.60" y="79.00" xlink:href="#hd"/>
<path d="M395.10 79.00v-23.20" class="stroke"/>
<use x="402.60" y="76.00" xlink:href="#hd"/>
<path d="M406.10 76.00v-20.20" class="stroke"/>
<path class="fill"
	d="M417.40 50.70l22.60 3.70v3.20l-22.60 -3.70"/>
<use x="414.20" y="70.00" xlink:href="#hd"/>
<path d="M417.70 70.00v-18.20" class="stroke"/>
<use x="425.20" y="76.00" xlink:href="#hd"/>
<path d="M428.70 76.00v-22.40" class="stroke"/>
<use x="436.20" y="79.00" xlink:href="#hd"/>
<path d="M439.70 79.00v-23.60" class="stroke"/>
<path class="fill"
	d="M464.30 54.80l22.60 0.00v3.20l-22.60 -0.00"/>
<use x="461.20" y="76.00" xlink:href="#hd"/>
<path d="M464.70 76.00v-20.20" class="stroke"/>
<use x="472.10" y="79.00" xlink:href="#hd"/>
<path d="M475.60 79.00v-23.20" class="stroke"/>
<use x="483.10" y="76.00" xlink:href="#hd"/>
<path d="M486.60 76.00v-20.20" class="stroke"/>
<path class="fill"
	d="M492.30 90.00l22.60 -4.00v-3.20l-22.60 4.00"/>
<use x="496.10" y="70.00" xlink:href="#hd"/>
<path d="M492.60 70.00v18.90" class="stroke"/>
<use x="507.10" y="67.00" xlink:href="#hd"/>
<path d="M503.60 67.00v20.00" class="stroke"/>
<use x="518.10" y="64.00" xlink:href="#hd"/>
<path d="M514.60 64.00v21.10" class="stroke"/>
<path class="fill"
	d="M539.30 83.00l22.60 4.00v-3.20l-22.60 -4.00"/>
<use x="543.10" y="61.00" xlink:href="#hd"/>
<path d="M539.60 61.00v21.10" class="stroke"/>
<use x="554.10" y="64.00" xlink:href="#hd"/>
<path d="M550.60 64.00v20.00" class="stroke"/>
<use x="565.10" y="67.00" xlink:href="#hd"/>
<path d="M561.60 67.00v18.90" class="stroke"/>
<path class="fill"
	d="M579.20 50.70l22.60 3.70v3.20l-22.60 -3.70"/>
<use x="576.00" y="70.00" xlink:href="#hd"/>
<path d="M579.50 70.00v-18.20" class="stroke"/>
<use x="587.00" y="76.00" xlink:href="#hd"/>
<path d="M590.50 76.00v-22.40" class="stroke"/>
<use x="598.00" y="79.00" xlink:href="#hd"/>
<path d="M601.50 79.00v-23.60" class="stroke"/>
<path class="fill"
	d="M619.10 95.20l29.70 -2.50v-3.20l-29.70 2.50"/>
<use x="623.00" y="76.00" xlink:href="#hd"/>
<path d="M619.50 76.00v18.20" class="stroke"/>
<use x="634.00" y="67.00" xlink:href="#hd"/>
<path d="M630.50 67.00v26.30" class="stroke"/>
<use x="652.00" y="70.00" xlink:href="#hd"/>
<use x="643.00" y="70.00" xlink:href="#sh0"/>
<path d="M648.50 70.00v21.70" class="stroke"/>
<use x="663.60" y="67.00" xlink:href="#hd"/>
<circle class="fill" cx="671.30" cy="64.00" r="1.2"/>
<path d="M660.10 67.00v21.00" class="stroke"/>
</g>
<g stroke-width="0.70" style="font:20.00px Times">
<path class="stroke" stroke-width="1"
	d="M127.50 155.00v-24.00"/>
<path class="stroke" stroke-width="1"
	d="M206.60 155.00v-24.00"/>
<path class="stroke" stroke-width="1"
	d="M285.60 155.00v-24.00"/>
<path class="stroke" stroke-width="1"
	d="M364.70 155.00v-24.00"/>
<path class="stroke" stroke-width="1"
	d="M443.70 155.00v-24.00"/>
<path class="stroke" stroke-width="1"
	d="M522.80 155.00v-24.00"/>
<path class="stroke" stroke-width="1"
	d="M608.00 155.00v-24.00"/>
<path class="stroke" stroke-width="3"
	d="M690.10 155.00v-24.00"/>
<path class="stroke" stroke-width="1"
	d="M685.60 155.00v-24.00"/>
<use x="681.60" y="155.00" xlink:href="#rdots"/>
<path d="m10.00 155.00
	h681.60
	M10.00 149.00
	h681.60
	M10.00 143.00
	h681.60
	M10.00 137.00
	h681.60
	M10.00 131.00
	h681.60
	" class="stroke"/>
<use x="22.00" y="149.00" xlink:href="#tclef"/>
<use x="37.00" y="131.00" xlink:href="#sh0"/>
<use x="55.00" y="131.00" xlink:href="#hd"/>
<path d="M51.50 131.00v21.00" class="stroke"/>
<use x="71.90" y="137.00" xlink:href="#hd"/>
<path d="M68.40 137.00v21.00" class="stroke"/>
<path class="fill"
	d="M68.40 158.00c0.6 -5.6 9.6 -9 5.6 -18.4
	1.6 6 -1.3 11.6 -5.6 12.8
"/>
<path class="fill"
	d="M81.10 158.00l30.70 0.00v-3.20l-30.70 -0.00"/>
<use x="84.90" y="137.00" xlink:href="#hd"/>
<path d="M81.40 137.00v20.00" class="stroke"/>
<use x="102.90" y="140.00" xlink:href="#hd"/>
<use x="93.90" y="140.00" xlink:href="#sh0"/>
<path d="M99.40 140.00v17.00" class="stroke"/>
<use x="115.00" y="137.00" xlink:href="#hd"/>
<path d="M111.50 137.00v20.00" class="stroke"/>
<use x="140.00" y="131.00" xlink:href="#hd"/>
<path d="M136.50 131.00v21.00" class="stroke"/>
<use x="156.90" y="128.00" xlink:href="#hd"/>
<path d="M153.40 128.00v21.00" class="stroke"/>
<path class="fill"
	d="M153.40 149.00c0.6 -5.6 9.6 -9 5.6 -18.4
	1.6 6 -1.3 11.6 -5.6 12.8
"/>
<path class="fill"
	d="M166.10 146.90l24.80 4.10v-3.20l-24.80 -4.10"/>
<defs>
<path id="hl" class="stroke" d="m-6 0h12"/>
</defs>
<use x="169.90" y="125.00" xlink:href="#hl"/>
<use x="169.90" y="125.00" xlink:href="#hd"/>
<path d="M166.40 125.00v21.00" class="stroke"/>
<use x="182.00" y="128.00" xlink:href="#hd"/>
<path d="M178.50 128.00v20.00" class="stroke"/>
<use x="194.10" y="131.00" xlink:href="#hd"/>
<path d="M190.60 131.00v19.00" class="stroke"/>
<use x="219.10" y="134.00" xlink:href="#hd"/>
<path d="M215.60 134.00v21.00" class="stroke"/>
<use x="236.00" y="140.00" xlink:href="#hd"/>
<path d="M232.50 140.00v21.00" class="stroke"/>
<path class="fill"
	d="M232.50 161.00c0.6 -5.6 9.6 -9 5.6 -18.4
	1.6 6 -1.3 11.6 -5.6 12.8
"/>
<path class="fill"
	d="M245.20 162.20l24.80 0.00v-3.20l-24.80 -0.00"/>
<use x="249.00" y="140.00" xlink:href="#hd"/>
<path d="M245.50 140.00v21.20" class="stroke"/>
<use x="261.10" y="143.00" xlink:href="#hd"/>
<path d="M257.60 143.00v18.20" class="stroke"/>
<use x="273.10" y="140.00" xlink:href="#hd"/>
<path d="M269.60 140.00v21.20" class="stroke"/>
<use x="298.10" y="134.00" xlink:href="#hd"/>
<path d="M294.60 134.00v21.00" class="stroke"/>
<use x="315.00" y="131.00" xlink:href="#hd"/>
<path d="M311.50 131.00v21.00" class="stroke"/>
<path class="fill"
	d="M311.50 152.00c0.6 -5.6 9.6 -9 5.6 -18.4
	1.6 6 -1.3 11.6 -5.6 12.8
"/>
<path class="fill"
	d="M324.20 149.90l24.80 4.10v-3.20l-24.80 -4.10"/>
<use x="328.10" y="128.00" xlink:href="#hd"/>
<path d="M324.60 128.00v21.00" class="stroke"/>
<use x="340.10" y="131.00" xlink:href="#hd"/>
<path d="M336.60 131.00v20.00" class="stroke"/>
<use x="352.20" y="134.00" xlink:href="#hd"/>
<path d="M348.70 134.00v19.00" class="stroke"/>
<use x="377.20" y="131.00" xlink:href="#hd"/>
<path d="M373.70 131.00v21.00" class="stroke"/>
<use x="394.10" y="128.00" xlink:href="#hd"/>
<path d="M390.60 128.00v21.00" class="stroke"/>
<path class="fill"
	d="M390.60 149.00c0.6 -5.6 9.6 -9 5.6 -18.4
	1.6 6 -1.3 11.6 -5.6 12.8
"/>
<path class="fill"
	d="M403.30 146.90l24.80 4.10v-3.20l-24.80 -4.10"/>
<use x="407.10" y="125.00" xlink:href="#hl"/>
<use x="407.10" y="125.00" xlink:href="#hd"/>
<path d="M403.60 125.00v21.00" class="stroke"/>
<use x="419.20" y="128.00" xlink:href="#hd"/>
<path d="M415.70 128.00v20.00" class="stroke"/>
<use x="431.20" y="131.00" xlink:href="#hd"/>
<path d="M427.70 131.00v19.00" class="stroke"/>
<use x="456.20" y="134.00" xlink:href="#hd"/>
<path d="M452.70 134.00v21.00" class="stroke"/>
<use x="473.20" y="131.00" xlink:href="#hd"/>
<path d="M469.70 131.00v21.00" class="stroke"/>
<path class="fill"
	d="M469.70 152.00c0.6 -5.6 9.6 -9 5.6 -18.4
	1.6 6 -1.3 11.6 -5.6 12.8
"/>
<path class="fill"
	d="M482.30 149.90l24.80 4.10v-3.20l-24.80 -4.10"/>
<use x="486.20" y="128.00" xlink:href="#hd"/>
<path d="M482.70 128.00v21.00" class="stroke"/>
<use x="498.20" y="131.00" xlink:href="#hd"/>
<path d="M494.70 131.00v20.00" class="stroke"/>
<use x="510.30" y="134.00" xlink:href="#hd"/>
<path d="M506.80 134.00v19.00" class="stroke"/>
<path class="fill"
	d="M531.40 152.90l24.80 4.10v-3.20l-24.80 -4.10"/>
<use x="535.30" y="131.00" xlink:href="#hd"/>
<path d="M531.80 131.00v21.00" class="stroke"/>
<use x="547.30" y="134.00" xlink:href="#hd"/>
<path d="M543.80 134.00v20.00" class="stroke"/>
<use x="559.40" y="137.00" xlink:href="#hd"/>
<path d="M555.90 137.00v19.00" class="stroke"/>
<path class="fill"
	d="M574.60 120.70l24.80 3.80v3.20l-24.80 -3.80"/>
<use x="571.40" y="140.00" xlink:href="#hd"/>
<path d="M574.90 140.00v-18.20" class="stroke"/>
<use x="583.50" y="146.00" xlink:href="#hd"/>
<path d="M587.00 146.00v-22.30" class="stroke"/>
<use x="595.50" y="149.00" xlink:href="#hd"/>
<path d="M599.00 149.00v-23.50" class="stroke"/>
<path class="fill"
	d="M616.70 165.20l30.70 -2.60v-3.20l-30.70 2.60"/>
<use x="620.50" y="146.00" xlink:href="#hd"/>
<path d="M617.00 146.00v18.20" class="stroke"/>
<use x="632.60" y="137.00" xlink:href="#hd"/>
<path d="M629.10 137.00v26.20" class="stroke"/>
<use x="650.60" y="140.00" xlink:href="#hd"/>
<use x="641.60" y="140.00" xlink:href="#sh0"/>
<path d="M647.10 140.00v21.60" class="stroke"/>
<use x="663.60" y="137.00" xlink:href="#hd"/>
<circle class="fill" cx="671.30" cy="134.00" r="1.2"/>
<path d="M660.10 137.00v21.00" class="stroke"/>
</g>
<g stroke-width="0.70" style="font:20.00px Times">
<path class="stroke" stroke-width="1"
	d="M116.30 225.00v-24.00"/>
<path class="stroke" stroke-width="1"
	d="M190.00 225.00v-24.00"/>
<path class="stroke" stroke-width="1"
	d="M278.10 225.00v-24.00"/>
<path class="stroke" stroke-width="1"
	d="M360.70 225.00v-24.00"/>
<path class="stroke" stroke-width="1"
	d="M431.20 225.00v-24.00"/>
<path class="stroke" stroke-width="1"
	d="M520.20 225.00v-24.00"/>
<path class="stroke" stroke-width="1"
	d="M607.20 225.00v-24.00"/>
<path class="stroke" stroke-width="3"
	d="M690.10 225.00v-24.00"/>
<path class="stroke" stroke-width="1"
	d="M685.60 225.00v-24.00"/>
<use x="681.60" y="225.00" xlink:href="#rdots"/>
<path d="m10.00 225.00
	h681.60
	M10.00 219.00
	h681.60
	M10.00 213.00
	h681.60
	M10.00 207.00
	h681.60
	M10.00 201.00
	h681.60
	" class="stroke"/>
<use x="22.00" y="219.00" xlink:href="#tclef"/>
<use x="37.00" y="201.00" xlink:href="#sh0"/>
<use x="55.00" y="201.00" xlink:href="#hd"/>
<path d="M51.50 201.00v21.00" class="stroke"/>
<use x="72.70" y="198.00" xlink:href="#hd"/>
<path d="M69.20 198.00v21.00" class="stroke"/>
<path class="fill"
	d="M69.20 219.00c0.6 -5.6 9.6 -9 5.6 -18.4
	1.6 6 -1.3 11.6 -5.6 12.8
"/>
<use x="86.10" y="204.00" xlink:href="#hd"/>
<path d="M82.60 204.00v21.00" class="stroke"/>
<use x="103.80" y="201.00" xlink:href="#hd"/>
<path d="M100.30 201.00v21.00" class="stroke"/>
<path class="fill"
	d="M100.30 222.00c0.6 -5.6 9.6 -9 5.6 -18.4
	1.6 6 -1.3 11.6 -5.6 12.8
"/>
<use x="128.80" y="207.00" xlink:href="#hd"/>
<path d="M125.30 207.00v21.00" class="stroke"/>
<use x="146.40" y="204.00" xlink:href="#hd"/>
<path d="M142.90 204.00v21.00" class="stroke"/>
<path class="fill"
	d="M142.90 225.00c0.6 -5.6 9.6 -9 5.6 -18.4
	1.6 6 -1.3 11.6 -5.6 12.8
"/>
<use x="159.90" y="210.00" xlink:href="#hd"/>
<path d="M156.40 210.00v21.00" class="stroke"/>
<use x="177.50" y="207.00" xlink:href="#hd"/>
<path d="M174.00 207.00v21.00" class="stroke"/>
<path class="fill"
	d="M174.00 228.00c0.6 -5.6 9.6 -9 5.6 -18.4
	1.6 6 -1.3 11.6 -5.6 12.8
"/>
<path class="fill"
	d="M205.70 193.80l25.50 0.00v3.20l-25.50 -0.00"/>
<use x="202.50" y="216.00" xlink:href="#hd"/>
<path d="M206.00 216.00v-21.20" class="stroke"/>
<use x="215.00" y="213.00" xlink:href="#hd"/>
<path d="M218.50 213.00v-18.20" class="stroke"/>
<use x="227.40" y="216.00" xlink:href="#hd"/>
<path d="M230.90 216.00v-21.20" class="stroke"/>
<path class="fill"
	d="M244.00 198.00l25.50 0.00v3.20l-25.50 -0.00"/>
<use x="240.80" y="219.00" xlink:href="#hd"/>
<path d="M244.30 219.00v-20.00" class="stroke"/>
<use x="253.20" y="216.00" xlink:href="#hd"/>
<path d="M256.70 216.00v-17.00" class="stroke"/>
<use x="265.60" y="219.00" xlink:href="#hd"/>
<path d="M269.10 219.00v-20.00" class="stroke"/>
<use x="290.60" y="222.00" xlink:href="#hd"/>
<path d="M294.10 222.00v-21.00" class="stroke"/>
<use x="308.30" y="222.00" xlink:href="#hd"/>
<path d="M311.80 222.00v-21.00" class="stroke"/>
<path class="fill"
	d="M311.80 201.00c0.6 5.6 9.6 9 5.6 18.4
	1.6 -6 -1.3 -11.6 -5.6 -12.8
"/>
<path class="fill"
	d="M326.50 199.70l25.50 3.90v3.20l-25.50 -3.90"/>
<use x="323.30" y="219.00" xlink:href="#hd"/>
<path d="M326.80 219.00v-18.20" class="stroke"/>
<use x="335.80" y="225.00" xlink:href="#hd"/>
<path d="M339.30 225.00v-22.30" class="stroke"/>
<use x="348.20" y="228.00" xlink:href="#hd"/>
<path d="M351.70 228.00v-23.40" class="stroke"/>
<use x="373.20" y="210.00" xlink:href="#hd"/>
<circle class="fill" cx="380.90" cy="210.00" r="1.2"/>
<path d="M369.70 210.00v21.00" class="stroke"/>
<path class="fill"
	d="M397.00 190.70l25.50 3.90v3.20l-25.50 -3.90"/>
<use x="393.90" y="210.00" xlink:href="#hd"/>
<path d="M397.40 210.00v-18.20" class="stroke"/>
<use x="406.30" y="216.00" xlink:href="#hd"/>
<path d="M409.80 216.00v-22.30" class="stroke"/>
<use x="418.70" y="219.00" xlink:href="#hd"/>
<path d="M422.20 219.00v-23.40" class="stroke"/>
<path class="fill"
	d="M446.90 194.80l25.50 0.00v3.20l-25.50 -0.00"/>
<use x="443.70" y="216.00" xlink:href="#hd"/>
<path d="M447.20 216.00v-20.20" class="stroke"/>
<use x="456.10" y="219.00" xlink:href="#hd"/>
<path d="M459.60 219.00v-23.20" class="stroke"/>
<use x="468.50" y="216.00" xlink:href="#hd"/>
<path d="M472.00 216.00v-20.20" class="stroke"/>
<path class="fill"
	d="M479.00 230.10l25.50 -4.20v-3.20l-25.50 4.20"/>
<use x="482.90" y="210.00" xlink:href="#hd"/>
<path d="M479.40 210.00v19.00" class="stroke"/>
<use x="495.30" y="207.00" xlink:href="#hd"/>
<path d="M491.80 207.00v20.00" class="stroke"/>
<use x="507.70" y="204.00" xlink:href="#hd"/>
<path d="M504.20 204.00v21.00" class="stroke"/>
<path class="fill"
	d="M528.80 222.90l25.50 4.20v-3.20l-25.50 -4.20"/>
<use x="532.70" y="201.00" xlink:href="#hd"/>
<path d="M529.20 201.00v21.00" class="stroke"/>
<use x="545.10" y="204.00" xlink:href="#hd"/>
<path d="M541.60 204.00v20.00" class="stroke"/>
<use x="557.50" y="207.00" xlink:href="#hd"/>
<path d="M554.00 207.00v19.00" class="stroke"/>
<path class="fill"
	d="M573.10 190.70l25.50 3.90v3.20l-25.50 -3.90"/>
<use x="569.90" y="210.00" xlink:href="#hd"/>
<path d="M573.40 210.00v-18.20" class="stroke"/>
<use x="582.30" y="216.00" xlink:href="#hd"/>
<path d="M585.80 216.00v-22.30" class="stroke"/>
<use x="594.70" y="219.00" xlink:href="#hd"/>
<path d="M598.20 219.00v-23.40" class="stroke"/>
<path class="fill"
	d="M615.90 235.20l31.10 -2.60v-3.20l-31.10 2.60"/>
<use x="619.70" y="216.00" xlink:href="#hd"/>
<path d="M616.20 216.00v18.20" class="stroke"/>
<use x="632.20" y="207.00" xlink:href="#hd"/>
<path d="M628.70 207.00v26.10" class="stroke"/>
<use x="650.20" y="210.00" xlink:href="#hd"/>
<use x="641.20" y="210.00" xlink:href="#sh0"/>
<path d="M646.70 210.00v21.60" class="stroke"/>
<use x="663.60" y="207.00" xlink:href="#hd"/>
<circle class="fill" cx="671.30" cy="204.00" r="1.2"/>
<path d="M660.10 207.00v21.00" class="stroke"/>
</g>
</svg>
