<?xml version="1.0" standalone="no"?>
<!DOCTYPE svg PUBLIC "-//W3C//DTD SVG 1.1//EN"
	"http://www.w3.org/Graphics/SVG/1.1/DTD/svg11.dtd">
<svg xmlns="http://www.w3.org/2000/svg" version="1.1"
	xmlns:xlink="http://www.w3.org/1999/xlink"
	color="black"
	width="701.60px" height="332.00px">
<style type="text/css">
.fill {fill: currentColor}
.stroke {stroke: currentColor; fill: none}
text{white-space: pre}
</style>
<title>/media/tim/Data1/tims_code/sphinx-tunes/source/_abcfiles/Bellingham Boat (2514) tune 1</title>
<!-- Creator: abcm2ps-8.14.6 -->
<!-- CreationDate: Jul 30, 2023 12:21 -->
<!-- CommandLine: -g '/media/tim/Data1/tims_code/sphinx-tunes/source/_abcfiles/Bellingham Boat.abc' -O '/media/tim/Data1/tims_code/sphinx-tunes/source/_abcfiles/Bellingham Boat.svg' -->
<g stroke-width="0.70">
<!-- title: Bellingham Boat -->
</g>
<g stroke-width="0.70" style="font:20.00px Times">
<text x="350.80" y="22.00" text-anchor="middle">Bellingham Boat</text>
</g>
<g stroke-width="0.70" style="font:italic 14.00px Times">
<text x="691.60" y="46.00" text-anchor="end">England</text>
</g>
<g stroke-width="0.70" style="font:italic 14.00px Times">
<path class="stroke" stroke-width="1"
	d="M114.10 99.00v-24.00"/>
<path class="stroke" stroke-width="1"
	d="M233.80 99.00v-24.00"/>
<path class="stroke" stroke-width="1"
	d="M379.50 99.00v-24.00"/>
<path class="stroke" stroke-width="1"
	d="M535.50 99.00v-24.00"/>
<path class="stroke" stroke-width="1"
	d="M691.60 99.00v-24.00"/>
<path d="m10.00 99.00
	h681.60
	M10.00 93.00
	h681.60
	M10.00 87.00
	h681.60
	M10.00 81.00
	h681.60
	M10.00 75.00
	h681.60
	" class="stroke"/>
<defs>
<path id="utclef" class="fill" d="m-50 -90
	c-72 -41 -72 -158 52 -188
	150 -10 220 188 90 256
	-114 52 -275 0 -293 -136
	-15 -181 93 -229 220 -334
	88 -87 79 -133 62 -210
	-51 33 -94 105 -89 186
	17 267 36 374 49 574
	6 96 -19 134 -77 135
	-80 1 -126 -93 -61 -133
	85 -41 133 101 31 105
	23 17 92 37 90 -92
	-10 -223 -39 -342 -50 -617
	0 -90 0 -162 96 -232
	56 72 63 230 22 289
	-74 106 -257 168 -255 316
	9 153 148 185 252 133
	86 -65 29 -192 -80 -176
	-71 12 -105 67 -59 124"/>
<use id="tclef" transform="translate(0,6) scale(0.045)"
	xlink:href="#utclef"/>
</defs>
<use x="22.00" y="93.00" xlink:href="#tclef"/>
<defs>
<path id="usharp" class="fill" d="
	m136 -702
	v890
	h32
	v-890
	m128 840
	h32
	v-888
	h-32
	m-232 286
	v116
	l338 -96
	v-116
	m-338 442
	v116
	l338 -98
	v-114"/>
<use id="sh0" transform="translate(-4,5) scale(0.018)"
	xlink:href="#usharp"/>
</defs>
<use x="37.00" y="75.00" xlink:href="#sh0"/>
<g style="font:bold 16px serif"
	transform="translate(53.00,98.50) scale(1.2,1)">
	<text text-anchor="middle">8</text>
	<text y="-12" text-anchor="middle">6</text>
</g>
<path class="fill"
	d="M67.20 107.70l24.90 -2.50v-3.20l-24.90 2.50"/>
<defs>
<ellipse id="hd" rx="4.1" ry="2.9"
	transform="rotate(-20)" class="fill"/>
</defs>
<use x="71.00" y="87.00" xlink:href="#hd"/>
<path d="M67.50 87.00v19.70" class="stroke"/>
<use x="95.20" y="84.00" xlink:href="#hd"/>
<path d="M91.70 84.00v20.30" class="stroke"/>
<use x="127.60" y="81.00" xlink:href="#hd"/>
<circle class="fill" cx="135.30" cy="78.00" r="1.2"/>
<path d="M124.10 81.00v21.00" class="stroke"/>
<path class="fill"
	d="M169.70 64.70l49.10 8.10v3.20l-49.10 -8.10"/>
<use x="166.50" y="84.00" xlink:href="#hd"/>
<path d="M170.00 84.00v-18.20" class="stroke"/>
<use x="190.70" y="90.00" xlink:href="#hd"/>
<path d="M194.20 90.00v-20.20" class="stroke"/>
<use x="214.90" y="96.00" xlink:href="#hd"/>
<path d="M218.40 96.00v-22.20" class="stroke"/>
<path class="fill"
	d="M250.50 72.00l49.10 0.00v3.20l-49.10 -0.00"/>
<use x="247.30" y="90.00" xlink:href="#hd"/>
<path d="M250.80 90.00v-17.00" class="stroke"/>
<use x="271.50" y="93.00" xlink:href="#hd"/>
<path d="M275.00 93.00v-20.00" class="stroke"/>
<use x="295.70" y="93.00" xlink:href="#hd"/>
<path d="M299.20 93.00v-20.00" class="stroke"/>
<use x="322.60" y="93.00" xlink:href="#hd"/>
<path d="M326.10 93.00v-21.00" class="stroke"/>
<use x="360.60" y="87.00" xlink:href="#hd"/>
<path d="M364.10 87.00v-21.00" class="stroke"/>
<path class="fill"
	d="M364.10 66.00c0.6 5.6 9.6 9 5.6 18.4
	1.6 -6 -1.3 -11.6 -5.6 -12.8
"/>
<path class="fill"
	d="M389.10 105.20l49.10 0.00v-3.20l-49.10 -0.00"/>
<use x="393.00" y="81.00" xlink:href="#hd"/>
<path d="M389.50 81.00v23.20" class="stroke"/>
<use x="417.20" y="84.00" xlink:href="#hd"/>
<path d="M413.70 84.00v20.20" class="stroke"/>
<use x="441.40" y="84.00" xlink:href="#hd"/>
<path d="M437.90 84.00v20.20" class="stroke"/>
<path class="fill"
	d="M464.40 107.00l49.10 0.00v-3.20l-49.10 -0.00"/>
<use x="468.30" y="84.00" xlink:href="#hd"/>
<path d="M464.80 84.00v22.00" class="stroke"/>
<use x="492.50" y="87.00" xlink:href="#hd"/>
<path d="M489.00 87.00v19.00" class="stroke"/>
<use x="516.70" y="87.00" xlink:href="#hd"/>
<path d="M513.20 87.00v19.00" class="stroke"/>
<path class="fill"
	d="M552.20 67.80l49.10 0.00v3.20l-49.10 -0.00"/>
<use x="549.00" y="87.00" xlink:href="#hd"/>
<path d="M552.50 87.00v-18.20" class="stroke"/>
<use x="573.20" y="90.00" xlink:href="#hd"/>
<path d="M576.70 90.00v-21.20" class="stroke"/>
<use x="597.40" y="90.00" xlink:href="#hd"/>
<path d="M600.90 90.00v-21.20" class="stroke"/>
<path class="fill"
	d="M627.50 68.40l49.10 -4.90v3.20l-49.10 4.90"/>
<use x="624.30" y="90.00" xlink:href="#hd"/>
<path d="M627.80 90.00v-20.60" class="stroke"/>
<use x="648.50" y="87.00" xlink:href="#hd"/>
<path d="M652.00 87.00v-20.00" class="stroke"/>
<use x="672.70" y="84.00" xlink:href="#hd"/>
<path d="M676.20 84.00v-19.40" class="stroke"/>
</g>
<g stroke-width="0.70" style="font:italic 14.00px Times">
<path class="stroke" stroke-width="1"
	d="M227.20 169.00v-24.00"/>
<path class="stroke" stroke-width="1"
	d="M406.50 169.00v-24.00"/>
<path class="stroke" stroke-width="1"
	d="M595.30 169.00v-24.00"/>
<path class="stroke" stroke-width="3"
	d="M690.10 169.00v-24.00"/>
<path class="stroke" stroke-width="1"
	d="M685.60 169.00v-24.00"/>
<defs>
<g id="rdots" class="fill">
	<circle cx="0" cy="-9" r="1.2"/>
	<circle cx="0" cy="-15" r="1.2"/>
</g>
</defs>
<use x="681.60" y="169.00" xlink:href="#rdots"/>
<path d="m10.00 169.00
	h681.60
	M10.00 163.00
	h681.60
	M10.00 157.00
	h681.60
	M10.00 151.00
	h681.60
	M10.00 145.00
	h681.60
	" class="stroke"/>
<use x="22.00" y="163.00" xlink:href="#tclef"/>
<use x="37.00" y="145.00" xlink:href="#sh0"/>
<path class="fill"
	d="M51.20 172.00l60.30 0.00v-3.20l-60.30 -0.00"/>
<use x="55.00" y="151.00" xlink:href="#hd"/>
<path d="M51.50 151.00v20.00" class="stroke"/>
<use x="84.80" y="148.00" xlink:href="#hd"/>
<path d="M81.30 148.00v23.00" class="stroke"/>
<use x="114.60" y="151.00" xlink:href="#hd"/>
<path d="M111.10 151.00v20.00" class="stroke"/>
<path class="fill"
	d="M147.60 134.70l60.30 8.70v3.20l-60.30 -8.70"/>
<use x="144.40" y="154.00" xlink:href="#hd"/>
<path d="M147.90 154.00v-18.30" class="stroke"/>
<use x="174.20" y="160.00" xlink:href="#hd"/>
<path d="M177.70 160.00v-20.00" class="stroke"/>
<use x="204.00" y="166.00" xlink:href="#hd"/>
<path d="M207.50 166.00v-21.70" class="stroke"/>
<path class="fill"
	d="M246.90 142.00l60.30 0.00v3.20l-60.30 -0.00"/>
<use x="243.80" y="160.00" xlink:href="#hd"/>
<path d="M247.30 160.00v-17.00" class="stroke"/>
<use x="273.60" y="163.00" xlink:href="#hd"/>
<path d="M277.10 163.00v-20.00" class="stroke"/>
<use x="303.40" y="163.00" xlink:href="#hd"/>
<path d="M306.90 163.00v-20.00" class="stroke"/>
<use x="336.50" y="163.00" xlink:href="#hd"/>
<path d="M340.00 163.00v-21.00" class="stroke"/>
<use x="383.30" y="154.00" xlink:href="#hd"/>
<path d="M379.80 154.00v21.00" class="stroke"/>
<path class="fill"
	d="M379.80 175.00c0.6 -5.6 9.6 -9 5.6 -18.4
	1.6 6 -1.3 11.6 -5.6 12.8
"/>
<path class="fill"
	d="M419.20 176.20l60.30 0.00v-3.20l-60.30 -0.00"/>
<use x="423.10" y="157.00" xlink:href="#hd"/>
<path d="M419.60 157.00v18.20" class="stroke"/>
<use x="452.90" y="151.00" xlink:href="#hd"/>
<path d="M449.40 151.00v24.20" class="stroke"/>
<use x="482.70" y="157.00" xlink:href="#hd"/>
<path d="M479.20 157.00v18.20" class="stroke"/>
<path class="fill"
	d="M515.60 134.70l60.30 8.70v3.20l-60.30 -8.70"/>
<use x="512.50" y="154.00" xlink:href="#hd"/>
<path d="M516.00 154.00v-18.30" class="stroke"/>
<use x="542.30" y="160.00" xlink:href="#hd"/>
<path d="M545.80 160.00v-20.00" class="stroke"/>
<use x="572.10" y="166.00" xlink:href="#hd"/>
<path d="M575.60 166.00v-21.70" class="stroke"/>
<use x="611.80" y="163.00" xlink:href="#hd"/>
<circle class="fill" cx="619.50" cy="160.00" r="1.2"/>
<path d="M615.30 163.00v-21.00" class="stroke"/>
<use x="665.10" y="163.00" xlink:href="#hd"/>
<path d="M668.60 163.00v-21.00" class="stroke"/>
<path class="fill"
	d="M668.60 142.00c0.6 5.6 9.6 9 5.6 18.4
	1.6 -6 -1.3 -11.6 -5.6 -12.8
"/>
</g>
<g stroke-width="0.70" style="font:italic 14.00px Times">
<path class="stroke" stroke-width="1"
	d="M113.50 239.00v-24.00"/>
<path class="stroke" stroke-width="1"
	d="M311.30 239.00v-24.00"/>
<path class="stroke" stroke-width="1"
	d="M479.70 239.00v-24.00"/>
<path class="stroke" stroke-width="1"
	d="M691.60 239.00v-24.00"/>
<path d="m10.00 239.00
	h681.60
	M10.00 233.00
	h681.60
	M10.00 227.00
	h681.60
	M10.00 221.00
	h681.60
	M10.00 215.00
	h681.60
	" class="stroke"/>
<use x="22.00" y="233.00" xlink:href="#tclef"/>
<use x="37.00" y="215.00" xlink:href="#sh0"/>
<path class="fill"
	d="M51.20 247.80l33.60 -2.60v-3.20l-33.60 2.60"/>
<use x="55.00" y="227.00" xlink:href="#hd"/>
<path d="M51.50 227.00v19.80" class="stroke"/>
<use x="87.90" y="224.00" xlink:href="#hd"/>
<path d="M84.40 224.00v20.20" class="stroke"/>
<use x="131.70" y="221.00" xlink:href="#hd"/>
<path d="M128.20 221.00v21.00" class="stroke"/>
<use x="183.40" y="221.00" xlink:href="#hd"/>
<path d="M179.90 221.00v21.00" class="stroke"/>
<path class="fill"
	d="M179.90 242.00c0.6 -5.6 9.6 -9 5.6 -18.4
	1.6 6 -1.3 11.6 -5.6 12.8
"/>
<path class="fill"
	d="M216.10 241.60l66.50 -5.10v-3.20l-66.50 5.10"/>
<use x="219.90" y="221.00" xlink:href="#hd"/>
<path d="M216.40 221.00v19.50" class="stroke"/>
<use x="252.80" y="218.00" xlink:href="#hd"/>
<path d="M249.30 218.00v20.00" class="stroke"/>
<use x="285.70" y="215.00" xlink:href="#hd"/>
<path d="M282.20 215.00v20.50" class="stroke"/>
<use x="329.50" y="212.00" xlink:href="#hd"/>
<circle class="fill" cx="337.20" cy="212.00" r="1.2"/>
<path d="M326.00 212.00v21.00" class="stroke"/>
<path class="fill"
	d="M384.50 233.40l66.50 5.10v-3.20l-66.50 -5.10"/>
<use x="388.30" y="212.00" xlink:href="#hd"/>
<path d="M384.80 212.00v20.50" class="stroke"/>
<use x="421.20" y="215.00" xlink:href="#hd"/>
<path d="M417.70 215.00v20.00" class="stroke"/>
<use x="454.10" y="218.00" xlink:href="#hd"/>
<path d="M450.60 218.00v19.50" class="stroke"/>
<path class="fill"
	d="M494.10 240.20l66.50 -7.10v-3.20l-66.50 7.10"/>
<use x="497.90" y="221.00" xlink:href="#hd"/>
<path d="M494.40 221.00v18.20" class="stroke"/>
<defs>
<path id="hl" class="stroke" d="m-6 0h12"/>
</defs>
<use x="530.80" y="209.00" xlink:href="#hl"/>
<use x="530.80" y="206.00" xlink:href="#hd"/>
<path d="M527.30 206.00v29.70" class="stroke"/>
<use x="563.70" y="209.00" xlink:href="#hl"/>
<use x="563.70" y="206.00" xlink:href="#hd"/>
<path d="M560.20 206.00v26.10" class="stroke"/>
<path class="fill"
	d="M596.40 243.20l66.50 -7.10v-3.20l-66.50 7.10"/>
<use x="600.30" y="224.00" xlink:href="#hd"/>
<path d="M596.80 224.00v18.20" class="stroke"/>
<use x="633.10" y="209.00" xlink:href="#hl"/>
<use x="633.10" y="209.00" xlink:href="#hd"/>
<path d="M629.60 209.00v29.70" class="stroke"/>
<use x="666.00" y="209.00" xlink:href="#hl"/>
<use x="666.00" y="209.00" xlink:href="#hd"/>
<path d="M662.50 209.00v26.10" class="stroke"/>
</g>
<g stroke-width="0.70" style="font:italic 14.00px Times">
<path class="stroke" stroke-width="1"
	d="M200.20 309.00v-24.00"/>
<path class="stroke" stroke-width="1"
	d="M326.50 309.00v-24.00"/>
<path class="stroke" stroke-width="1"
	d="M452.80 309.00v-24.00"/>
<path class="stroke" stroke-width="1"
	d="M611.80 309.00v-24.00"/>
<path class="stroke" stroke-width="3"
	d="M690.10 309.00v-24.00"/>
<path class="stroke" stroke-width="1"
	d="M685.60 309.00v-24.00"/>
<use x="681.60" y="309.00" xlink:href="#rdots"/>
<path d="m10.00 309.00
	h681.60
	M10.00 303.00
	h681.60
	M10.00 297.00
	h681.60
	M10.00 291.00
	h681.60
	M10.00 285.00
	h681.60
	" class="stroke"/>
<use x="22.00" y="303.00" xlink:href="#tclef"/>
<use x="37.00" y="285.00" xlink:href="#sh0"/>
<path class="fill"
	d="M51.20 316.20l50.00 -6.70v-3.20l-50.00 6.70"/>
<use x="55.00" y="297.00" xlink:href="#hd"/>
<path d="M51.50 297.00v18.20" class="stroke"/>
<use x="79.70" y="282.00" xlink:href="#hd"/>
<path d="M76.20 282.00v29.90" class="stroke"/>
<use x="104.30" y="282.00" xlink:href="#hd"/>
<path d="M100.80 282.00v26.60" class="stroke"/>
<path class="fill"
	d="M127.90 320.40l50.00 -4.90v-3.20l-50.00 4.90"/>
<use x="131.70" y="300.00" xlink:href="#hd"/>
<path d="M128.20 300.00v19.40" class="stroke"/>
<use x="156.40" y="297.00" xlink:href="#hd"/>
<path d="M152.90 297.00v20.00" class="stroke"/>
<use x="181.00" y="294.00" xlink:href="#hd"/>
<path d="M177.50 294.00v20.60" class="stroke"/>
<use x="213.90" y="291.00" xlink:href="#hd"/>
<circle class="fill" cx="221.60" cy="288.00" r="1.2"/>
<path d="M210.40 291.00v21.00" class="stroke"/>
<path class="fill"
	d="M254.20 310.20l50.00 -4.50v-3.20l-50.00 4.50"/>
<use x="258.00" y="291.00" xlink:href="#hd"/>
<path d="M254.50 291.00v18.20" class="stroke"/>
<use x="282.70" y="288.00" xlink:href="#hd"/>
<path d="M279.20 288.00v19.00" class="stroke"/>
<use x="307.30" y="282.00" xlink:href="#hd"/>
<path d="M303.80 282.00v22.80" class="stroke"/>
<use x="340.30" y="285.00" xlink:href="#hd"/>
<circle class="fill" cx="348.00" cy="282.00" r="1.2"/>
<path d="M336.80 285.00v21.00" class="stroke"/>
<path class="fill"
	d="M380.50 306.00l50.00 0.00v-3.20l-50.00 -0.00"/>
<use x="384.30" y="285.00" xlink:href="#hd"/>
<path d="M380.80 285.00v20.00" class="stroke"/>
<use x="409.00" y="288.00" xlink:href="#hd"/>
<path d="M405.50 288.00v17.00" class="stroke"/>
<use x="433.70" y="285.00" xlink:href="#hd"/>
<path d="M430.20 285.00v20.00" class="stroke"/>
<path class="fill"
	d="M462.70 302.10l50.00 8.20v-3.20l-50.00 -8.20"/>
<use x="466.60" y="279.00" xlink:href="#hl"/>
<use x="466.60" y="279.00" xlink:href="#hd"/>
<path d="M463.10 279.00v22.10" class="stroke"/>
<use x="491.20" y="285.00" xlink:href="#hd"/>
<path d="M487.70 285.00v20.20" class="stroke"/>
<use x="515.90" y="291.00" xlink:href="#hd"/>
<path d="M512.40 291.00v18.20" class="stroke"/>
<path class="fill"
	d="M539.40 305.10l50.00 8.20v-3.20l-50.00 -8.20"/>
<use x="543.30" y="282.00" xlink:href="#hd"/>
<path d="M539.80 282.00v22.10" class="stroke"/>
<use x="567.90" y="288.00" xlink:href="#hd"/>
<path d="M564.40 288.00v20.20" class="stroke"/>
<use x="592.60" y="294.00" xlink:href="#hd"/>
<use x="583.60" y="294.00" xlink:href="#sh0"/>
<path d="M589.10 294.00v18.20" class="stroke"/>
<use x="625.60" y="291.00" xlink:href="#hd"/>
<circle class="fill" cx="633.30" cy="288.00" r="1.2"/>
<path d="M622.10 291.00v21.00" class="stroke"/>
<use x="669.60" y="291.00" xlink:href="#hd"/>
<path d="M666.10 291.00v21.00" class="stroke"/>
<path class="fill"
	d="M666.10 312.00c0.6 -5.6 9.6 -9 5.6 -18.4
	1.6 6 -1.3 11.6 -5.6 12.8
"/>
</g>
</svg>
