<?xml version="1.0" standalone="no"?>
<!DOCTYPE svg PUBLIC "-//W3C//DTD SVG 1.1//EN"
	"http://www.w3.org/Graphics/SVG/1.1/DTD/svg11.dtd">
<svg xmlns="http://www.w3.org/2000/svg" version="1.1"
	xmlns:xlink="http://www.w3.org/1999/xlink"
	color="black"
	width="701.60px" height="254.00px">
<style type="text/css">
.fill {fill: currentColor}
.stroke {stroke: currentColor; fill: none}
text{white-space: pre}
</style>
<title>/media/tim/Data1/tims_code/sphinx-tunes/source/_abcfiles/Cadair_Idris.ab (1) tune 1</title>
<!-- Creator: abcm2ps-8.14.6 -->
<!-- CreationDate: Jul 30, 2023 12:21 -->
<!-- CommandLine: -g /media/tim/Data1/tims_code/sphinx-tunes/source/_abcfiles/Cadair_Idris.abc -O /media/tim/Data1/tims_code/sphinx-tunes/source/_abcfiles/Cadair_Idris.svg -->
<g stroke-width="0.70">
<!-- title: The Heights of Cadair Idris -->
</g>
<g stroke-width="0.70" style="font:20.00px Times">
<text x="350.80" y="22.00" text-anchor="middle">The Heights of Cadair Idris</text>
</g>
<g stroke-width="0.70" style="font:20.00px Times">
<path class="stroke" stroke-width="1"
	d="M89.00 85.00v-24.00"/>
<path class="stroke" stroke-width="1"
	d="M168.40 85.00v-24.00"/>
<path class="stroke" stroke-width="1"
	d="M246.00 85.00v-24.00"/>
<path class="stroke" stroke-width="1"
	d="M336.70 85.00v-24.00"/>
<path class="stroke" stroke-width="1"
	d="M416.10 85.00v-24.00"/>
<path class="stroke" stroke-width="1"
	d="M493.00 85.00v-24.00"/>
<path class="stroke" stroke-width="1"
	d="M570.00 85.00v-24.00"/>
<path class="stroke" stroke-width="1"
	d="M649.30 85.00v-24.00"/>
<path class="stroke" stroke-width="3"
	d="M690.10 85.00v-24.00"/>
<path class="stroke" stroke-width="1"
	d="M685.60 85.00v-24.00"/>
<defs>
<g id="rdots" class="fill">
	<circle cx="0" cy="-9" r="1.2"/>
	<circle cx="0" cy="-15" r="1.2"/>
</g>
</defs>
<use x="681.60" y="85.00" xlink:href="#rdots"/>
<path d="m10.00 85.00
	h681.60
	M10.00 79.00
	h681.60
	M10.00 73.00
	h681.60
	M10.00 67.00
	h681.60
	M10.00 61.00
	h681.60
	" class="stroke"/>
</g>
<g stroke-width="0.70" style="font:12.00px Helvetica">
<text x="97.70" y="49.60">G</text>
<text x="255.00" y="49.60">C</text>
<text x="345.40" y="49.60">D</text>
<text x="424.70" y="49.60">G</text>
<text x="502.00" y="49.60">C</text>
<text x="578.60" y="49.60">G</text>
<text x="627.50" y="49.60">D</text>
<text x="658.50" y="49.60">G</text>
<defs>
<path id="utclef" class="fill" d="m-50 -90
	c-72 -41 -72 -158 52 -188
	150 -10 220 188 90 256
	-114 52 -275 0 -293 -136
	-15 -181 93 -229 220 -334
	88 -87 79 -133 62 -210
	-51 33 -94 105 -89 186
	17 267 36 374 49 574
	6 96 -19 134 -77 135
	-80 1 -126 -93 -61 -133
	85 -41 133 101 31 105
	23 17 92 37 90 -92
	-10 -223 -39 -342 -50 -617
	0 -90 0 -162 96 -232
	56 72 63 230 22 289
	-74 106 -257 168 -255 316
	9 153 148 185 252 133
	86 -65 29 -192 -80 -176
	-71 12 -105 67 -59 124"/>
<use id="tclef" transform="translate(0,6) scale(0.045)"
	xlink:href="#utclef"/>
</defs>
<use x="22.00" y="79.00" xlink:href="#tclef"/>
<defs>
<path id="usharp" class="fill" d="
	m136 -702
	v890
	h32
	v-890
	m128 840
	h32
	v-888
	h-32
	m-232 286
	v116
	l338 -96
	v-116
	m-338 442
	v116
	l338 -98
	v-114"/>
<use id="sh0" transform="translate(-4,5) scale(0.018)"
	xlink:href="#usharp"/>
</defs>
<use x="37.00" y="61.00" xlink:href="#sh0"/>
<g style="font:bold 16px serif"
	transform="translate(53.00,84.50) scale(1.2,1)">
	<text text-anchor="middle">4</text>
	<text y="-12" text-anchor="middle">3</text>
</g>
<defs>
<ellipse id="hd" rx="4.1" ry="2.9"
	transform="rotate(-20)" class="fill"/>
</defs>
<use x="71.00" y="67.00" xlink:href="#hd"/>
<path d="M67.50 67.00v21.00" class="stroke"/>
<use x="101.50" y="58.00" xlink:href="#hd"/>
<path d="M98.00 58.00v21.00" class="stroke"/>
<use x="125.90" y="67.00" xlink:href="#hd"/>
<path d="M122.40 67.00v21.00" class="stroke"/>
<use x="150.30" y="73.00" xlink:href="#hd"/>
<path d="M146.80 73.00v21.00" class="stroke"/>
<use x="180.90" y="79.00" xlink:href="#hd"/>
<circle class="fill" cx="188.60" cy="76.00" r="1.2"/>
<path d="M184.40 79.00v-21.00" class="stroke"/>
<use x="209.60" y="76.00" xlink:href="#hd"/>
<path d="M213.10 76.00v-21.00" class="stroke"/>
<path class="fill"
	d="M213.10 55.00c0.6 5.6 9.6 9 5.6 18.4
	1.6 -6 -1.3 -11.6 -5.6 -12.8
"/>
<use x="228.00" y="73.00" xlink:href="#hd"/>
<path d="M231.50 73.00v-21.00" class="stroke"/>
<use x="258.50" y="70.00" xlink:href="#hd"/>
<path d="M255.00 70.00v21.00" class="stroke"/>
<use x="282.90" y="64.00" xlink:href="#hd"/>
<path d="M279.40 64.00v21.00" class="stroke"/>
<path class="fill"
	d="M303.50 76.40l16.70 2.30v-3.20l-16.70 -2.30"/>
<defs>
<path id="hl" class="stroke" d="m-6 0h12"/>
</defs>
<use x="307.30" y="55.00" xlink:href="#hl"/>
<use x="307.30" y="55.00" xlink:href="#hd"/>
<path d="M303.80 55.00v20.40" class="stroke"/>
<use x="323.40" y="58.00" xlink:href="#hd"/>
<path d="M319.90 58.00v19.60" class="stroke"/>
<use x="349.20" y="61.00" xlink:href="#hd"/>
<path d="M345.70 61.00v21.00" class="stroke"/>
<use x="373.60" y="67.00" xlink:href="#hd"/>
<path d="M370.10 67.00v21.00" class="stroke"/>
<use x="398.00" y="61.00" xlink:href="#hd"/>
<path d="M394.50 61.00v21.00" class="stroke"/>
<use x="428.60" y="58.00" xlink:href="#hd"/>
<circle class="fill" cx="436.30" cy="58.00" r="1.2"/>
<path d="M425.10 58.00v21.00" class="stroke"/>
<use x="457.30" y="67.00" xlink:href="#hd"/>
<path d="M453.80 67.00v21.00" class="stroke"/>
<path class="fill"
	d="M453.80 88.00c0.6 -5.6 9.6 -9 5.6 -18.4
	1.6 6 -1.3 11.6 -5.6 12.8
"/>
<use x="475.00" y="73.00" xlink:href="#hd"/>
<path d="M471.50 73.00v21.00" class="stroke"/>
<use x="505.50" y="70.00" xlink:href="#hd"/>
<circle class="fill" cx="513.20" cy="70.00" r="1.2"/>
<path d="M502.00 70.00v21.00" class="stroke"/>
<use x="534.30" y="67.00" xlink:href="#hd"/>
<path d="M530.80 67.00v21.00" class="stroke"/>
<path class="fill"
	d="M530.80 88.00c0.6 -5.6 9.6 -9 5.6 -18.4
	1.6 6 -1.3 11.6 -5.6 12.8
"/>
<use x="551.90" y="64.00" xlink:href="#hd"/>
<path d="M548.40 64.00v21.00" class="stroke"/>
<use x="582.50" y="67.00" xlink:href="#hd"/>
<path d="M579.00 67.00v21.00" class="stroke"/>
<use x="606.90" y="58.00" xlink:href="#hd"/>
<path d="M603.40 58.00v21.00" class="stroke"/>
<use x="631.30" y="61.00" xlink:href="#hd"/>
<path d="M627.80 61.00v21.00" class="stroke"/>
<defs>
<path id="Hd" class="fill" d="m3 -1.6
	c-1 -1.8 -7 1.4 -6 3.2
	1 1.8 7 -1.4 6 -3.2
	m0.5 -0.3
	c2 3.8 -5 7.6 -7 3.8
	-2 -3.8 5 -7.6 7 -3.8"/>
</defs>
<use x="662.30" y="58.00" xlink:href="#Hd"/>
<path d="M658.80 58.00v21.00" class="stroke"/>
</g>
<g stroke-width="0.70" style="font:12.00px Helvetica">
<path class="stroke" stroke-width="1"
	d="M82.30 161.00v-24.00"/>
<path class="stroke" stroke-width="1"
	d="M156.20 161.00v-24.00"/>
<path class="stroke" stroke-width="1"
	d="M230.10 161.00v-24.00"/>
<path class="stroke" stroke-width="1"
	d="M312.60 161.00v-24.00"/>
<path class="stroke" stroke-width="1"
	d="M397.10 161.00v-24.00"/>
<path class="stroke" stroke-width="1"
	d="M471.00 161.00v-24.00"/>
<path class="stroke" stroke-width="1"
	d="M544.90 161.00v-24.00"/>
<path class="stroke" stroke-width="1"
	d="M618.80 161.00v-24.00"/>
<path class="stroke" stroke-width="1"
	d="M691.60 161.00v-24.00"/>
<path class="stroke" stroke-width="1"
	d="M688.60 161.00v-24.00"/>
<path d="m10.00 161.00
	h681.60
	M10.00 155.00
	h681.60
	M10.00 149.00
	h681.60
	M10.00 143.00
	h681.60
	M10.00 137.00
	h681.60
	" class="stroke"/>
<text x="91.00" y="119.60">G</text>
<text x="164.90" y="119.60">D</text>
<text x="239.10" y="119.60">C</text>
<text x="321.30" y="119.60">D</text>
<text x="405.80" y="119.60">G</text>
<text x="479.70" y="119.60">D</text>
<text x="551.00" y="119.60">A7</text>
<text x="628.00" y="119.60">D</text>
<use x="22.00" y="155.00" xlink:href="#tclef"/>
<use x="37.00" y="137.00" xlink:href="#sh0"/>
<path class="fill"
	d="M51.20 154.60l15.50 -2.20v-3.20l-15.50 2.20"/>
<use x="55.00" y="134.00" xlink:href="#hd"/>
<path d="M51.50 134.00v19.60" class="stroke"/>
<use x="69.80" y="131.00" xlink:href="#hl"/>
<use x="69.80" y="131.00" xlink:href="#hd"/>
<path d="M66.30 131.00v20.40" class="stroke"/>
<use x="94.80" y="131.00" xlink:href="#hl"/>
<use x="94.80" y="128.00" xlink:href="#hd"/>
<path d="M91.30 128.00v21.00" class="stroke"/>
<use x="117.10" y="134.00" xlink:href="#hd"/>
<path d="M113.60 134.00v21.00" class="stroke"/>
<use x="139.50" y="131.00" xlink:href="#hl"/>
<use x="139.50" y="128.00" xlink:href="#hd"/>
<path d="M136.00 128.00v21.00" class="stroke"/>
<use x="168.70" y="131.00" xlink:href="#hl"/>
<use x="168.70" y="131.00" xlink:href="#hd"/>
<path d="M165.20 131.00v21.00" class="stroke"/>
<use x="191.10" y="137.00" xlink:href="#hd"/>
<path d="M187.60 137.00v21.00" class="stroke"/>
<use x="213.40" y="143.00" xlink:href="#hd"/>
<path d="M209.90 143.00v21.00" class="stroke"/>
<use x="242.60" y="140.00" xlink:href="#hd"/>
<circle class="fill" cx="250.30" cy="140.00" r="1.2"/>
<path d="M239.10 140.00v21.00" class="stroke"/>
<use x="269.10" y="137.00" xlink:href="#hd"/>
<path d="M265.60 137.00v21.00" class="stroke"/>
<path class="fill"
	d="M265.60 158.00c0.6 -5.6 9.6 -9 5.6 -18.4
	1.6 6 -1.3 11.6 -5.6 12.8
"/>
<path class="fill"
	d="M281.50 154.60l15.50 -2.20v-3.20l-15.50 2.20"/>
<use x="285.30" y="134.00" xlink:href="#hd"/>
<path d="M281.80 134.00v19.60" class="stroke"/>
<use x="300.10" y="131.00" xlink:href="#hl"/>
<use x="300.10" y="131.00" xlink:href="#hd"/>
<path d="M296.60 131.00v20.40" class="stroke"/>
<use x="325.10" y="137.00" xlink:href="#hd"/>
<path d="M321.60 137.00v21.00" class="stroke"/>
<use x="347.50" y="143.00" xlink:href="#hd"/>
<path d="M344.00 143.00v21.00" class="stroke"/>
<path class="fill"
	d="M366.00 154.60l15.50 -2.20v-3.20l-15.50 2.20"/>
<use x="369.80" y="134.00" xlink:href="#hd"/>
<path d="M366.30 134.00v19.60" class="stroke"/>
<use x="384.60" y="131.00" xlink:href="#hl"/>
<use x="384.60" y="131.00" xlink:href="#hd"/>
<path d="M381.10 131.00v20.40" class="stroke"/>
<use x="409.60" y="131.00" xlink:href="#hl"/>
<use x="409.60" y="128.00" xlink:href="#hd"/>
<path d="M406.10 128.00v21.00" class="stroke"/>
<use x="432.00" y="134.00" xlink:href="#hd"/>
<path d="M428.50 134.00v21.00" class="stroke"/>
<use x="454.40" y="131.00" xlink:href="#hl"/>
<use x="454.40" y="128.00" xlink:href="#hd"/>
<path d="M450.90 128.00v21.00" class="stroke"/>
<use x="483.50" y="131.00" xlink:href="#hl"/>
<use x="483.50" y="131.00" xlink:href="#hd"/>
<path d="M480.00 131.00v21.00" class="stroke"/>
<use x="505.90" y="137.00" xlink:href="#hd"/>
<path d="M502.40 137.00v21.00" class="stroke"/>
<use x="528.30" y="143.00" xlink:href="#hd"/>
<path d="M524.80 143.00v21.00" class="stroke"/>
<use x="557.40" y="134.00" xlink:href="#hd"/>
<path d="M553.90 134.00v21.00" class="stroke"/>
<use x="579.80" y="137.00" xlink:href="#hd"/>
<path d="M576.30 137.00v21.00" class="stroke"/>
<use x="602.20" y="140.00" xlink:href="#hd"/>
<path d="M598.70 140.00v21.00" class="stroke"/>
<use x="631.80" y="143.00" xlink:href="#Hd"/>
<path d="M628.30 143.00v21.00" class="stroke"/>
<path class="fill"
	d="M659.10 160.60l15.50 -2.20v-3.20l-15.50 2.20"/>
<use x="663.00" y="140.00" xlink:href="#hd"/>
<path d="M659.50 140.00v19.60" class="stroke"/>
<use x="677.70" y="137.00" xlink:href="#hd"/>
<path d="M674.20 137.00v20.40" class="stroke"/>
</g>
<g stroke-width="0.70" style="font:12.00px Helvetica">
<path class="stroke" stroke-width="1"
	d="M136.20 231.00v-24.00"/>
<path class="stroke" stroke-width="1"
	d="M217.90 231.00v-24.00"/>
<path class="stroke" stroke-width="1"
	d="M314.10 231.00v-24.00"/>
<path class="stroke" stroke-width="1"
	d="M398.50 231.00v-24.00"/>
<path class="stroke" stroke-width="1"
	d="M482.90 231.00v-24.00"/>
<path class="stroke" stroke-width="1"
	d="M564.10 231.00v-24.00"/>
<path class="stroke" stroke-width="1"
	d="M648.40 231.00v-24.00"/>
<path class="stroke" stroke-width="1"
	d="M691.60 231.00v-24.00"/>
<path class="stroke" stroke-width="1"
	d="M688.60 231.00v-24.00"/>
<path d="m10.00 231.00
	h681.60
	M10.00 225.00
	h681.60
	M10.00 219.00
	h681.60
	M10.00 213.00
	h681.60
	M10.00 207.00
	h681.60
	" class="stroke"/>
<text x="51.20" y="195.60">G</text>
<text x="226.80" y="195.60">C</text>
<text x="322.80" y="195.60">D</text>
<text x="407.20" y="195.60">G</text>
<text x="491.90" y="195.60">C</text>
<text x="572.80" y="195.60">G</text>
<text x="625.50" y="195.60">D</text>
<text x="657.60" y="195.60">G</text>
<use x="22.00" y="225.00" xlink:href="#tclef"/>
<use x="37.00" y="207.00" xlink:href="#sh0"/>
<use x="55.00" y="204.00" xlink:href="#hd"/>
<path d="M51.50 204.00v21.00" class="stroke"/>
<use x="81.40" y="213.00" xlink:href="#hd"/>
<path d="M77.90 213.00v21.00" class="stroke"/>
<path class="fill"
	d="M108.40 198.30l17.80 2.30v3.20l-17.80 -2.30"/>
<use x="105.20" y="219.00" xlink:href="#hd"/>
<path d="M108.70 219.00v-19.60" class="stroke"/>
<use x="122.40" y="222.00" xlink:href="#hd"/>
<path d="M125.90 222.00v-20.40" class="stroke"/>
<use x="148.70" y="225.00" xlink:href="#hd"/>
<circle class="fill" cx="156.40" cy="222.00" r="1.2"/>
<path d="M152.20 225.00v-21.00" class="stroke"/>
<use x="179.40" y="222.00" xlink:href="#hd"/>
<path d="M182.90 222.00v-21.00" class="stroke"/>
<path class="fill"
	d="M182.90 201.00c0.6 5.6 9.6 9 5.6 18.4
	1.6 -6 -1.3 -11.6 -5.6 -12.8
"/>
<use x="198.80" y="219.00" xlink:href="#hd"/>
<path d="M202.30 219.00v-21.00" class="stroke"/>
<use x="230.40" y="216.00" xlink:href="#hd"/>
<path d="M226.90 216.00v21.00" class="stroke"/>
<use x="256.70" y="210.00" xlink:href="#hd"/>
<path d="M253.20 210.00v21.00" class="stroke"/>
<path class="fill"
	d="M279.30 222.30l17.80 2.30v-3.20l-17.80 -2.30"/>
<use x="283.10" y="201.00" xlink:href="#hl"/>
<use x="283.10" y="201.00" xlink:href="#hd"/>
<path d="M279.60 201.00v20.40" class="stroke"/>
<use x="300.30" y="204.00" xlink:href="#hd"/>
<path d="M296.80 204.00v19.60" class="stroke"/>
<use x="326.60" y="207.00" xlink:href="#hd"/>
<path d="M323.10 207.00v21.00" class="stroke"/>
<use x="353.00" y="213.00" xlink:href="#hd"/>
<path d="M349.50 213.00v21.00" class="stroke"/>
<use x="379.40" y="207.00" xlink:href="#hd"/>
<path d="M375.90 207.00v21.00" class="stroke"/>
<use x="411.00" y="204.00" xlink:href="#hd"/>
<path d="M407.50 204.00v21.00" class="stroke"/>
<use x="437.40" y="213.00" xlink:href="#hd"/>
<path d="M433.90 213.00v21.00" class="stroke"/>
<use x="463.80" y="219.00" xlink:href="#hd"/>
<path d="M460.30 219.00v21.00" class="stroke"/>
<use x="495.40" y="216.00" xlink:href="#hd"/>
<circle class="fill" cx="503.10" cy="216.00" r="1.2"/>
<path d="M491.90 216.00v21.00" class="stroke"/>
<use x="526.00" y="213.00" xlink:href="#hd"/>
<path d="M522.50 213.00v21.00" class="stroke"/>
<path class="fill"
	d="M522.50 234.00c0.6 -5.6 9.6 -9 5.6 -18.4
	1.6 6 -1.3 11.6 -5.6 12.8
"/>
<use x="545.00" y="210.00" xlink:href="#hd"/>
<path d="M541.50 210.00v21.00" class="stroke"/>
<use x="576.60" y="213.00" xlink:href="#hd"/>
<path d="M573.10 213.00v21.00" class="stroke"/>
<use x="603.00" y="204.00" xlink:href="#hd"/>
<path d="M599.50 204.00v21.00" class="stroke"/>
<use x="629.40" y="207.00" xlink:href="#hd"/>
<path d="M625.90 207.00v21.00" class="stroke"/>
<use x="661.40" y="204.00" xlink:href="#Hd"/>
<path d="M657.90 204.00v21.00" class="stroke"/>
</g>
</svg>
