<?xml version="1.0" standalone="no"?>
<!DOCTYPE svg PUBLIC "-//W3C//DTD SVG 1.1//EN"
	"http://www.w3.org/Graphics/SVG/1.1/DTD/svg11.dtd">
<svg xmlns="http://www.w3.org/2000/svg" version="1.1"
	xmlns:xlink="http://www.w3.org/1999/xlink"
	color="black"
	width="701.60px" height="1068.80px">
<style type="text/css">
.fill {fill: currentColor}
.stroke {stroke: currentColor; fill: none}
text{white-space: pre}
</style>
<title>/media/tim/Data1/tims_code/sphinx-tunes/source/_abcfiles/CarolBook.abc (1) tune 5</title>
<!-- Creator: abcm2ps-8.14.6 -->
<!-- CreationDate: Jul 30, 2023 12:21 -->
<!-- CommandLine: -g /media/tim/Data1/tims_code/sphinx-tunes/source/_abcfiles/CarolBook.abc -O /media/tim/Data1/tims_code/sphinx-tunes/source/_abcfiles/CarolBook.svg -->
<g stroke-width="0.70">
<!-- title: First Noel -->
</g>
<g stroke-width="0.70" style="font:20.00px Times">
<text x="350.80" y="22.00" text-anchor="middle">First Noel</text>
</g>
<g stroke-width="0.70" style="font:italic 14.00px Times">
<text x="691.60" y="46.00" text-anchor="end">Traditional</text>
</g>
<g stroke-width="0.70" transform="scale(0.700)" style="font:italic 14.00px Times">
<defs>
<ellipse id="hd" rx="4.1" ry="2.9"
	transform="rotate(-20)" class="fill"/>
</defs>
<use x="110.14" y="95.57" xlink:href="#hd"/>
<path d="M113.64 95.57v-21.00" class="stroke"/>
</g>
<g stroke-width="0.70" style="font:bold 15.00px Times">
<text x="84.80" y="69.00">= 80</text>
<path class="stroke" stroke-width="1"
	d="M129.10 107.00v-24.00"/>
<path class="stroke" stroke-width="1"
	d="M280.50 107.00v-24.00"/>
<path class="stroke" stroke-width="1"
	d="M415.10 107.00v-24.00"/>
<path class="stroke" stroke-width="1"
	d="M556.90 107.00v-24.00"/>
<path class="stroke" stroke-width="1"
	d="M691.60 107.00v-24.00"/>
<path d="m10.00 107.00
	h681.60
	M10.00 101.00
	h681.60
	M10.00 95.00
	h681.60
	M10.00 89.00
	h681.60
	M10.00 83.00
	h681.60
	" class="stroke"/>
</g>
<g stroke-width="0.70" style="font:12.00px Helvetica">
<text x="141.70" y="70.60">D</text>
<text x="427.70" y="70.60">G</text>
<text x="569.50" y="70.60">D</text>
<defs>
<path id="utclef" class="fill" d="m-50 -90
	c-72 -41 -72 -158 52 -188
	150 -10 220 188 90 256
	-114 52 -275 0 -293 -136
	-15 -181 93 -229 220 -334
	88 -87 79 -133 62 -210
	-51 33 -94 105 -89 186
	17 267 36 374 49 574
	6 96 -19 134 -77 135
	-80 1 -126 -93 -61 -133
	85 -41 133 101 31 105
	23 17 92 37 90 -92
	-10 -223 -39 -342 -50 -617
	0 -90 0 -162 96 -232
	56 72 63 230 22 289
	-74 106 -257 168 -255 316
	9 153 148 185 252 133
	86 -65 29 -192 -80 -176
	-71 12 -105 67 -59 124"/>
<use id="tclef" transform="translate(0,6) scale(0.045)"
	xlink:href="#utclef"/>
</defs>
<use x="22.00" y="101.00" xlink:href="#tclef"/>
<defs>
<path id="usharp" class="fill" d="
	m136 -702
	v890
	h32
	v-890
	m128 840
	h32
	v-888
	h-32
	m-232 286
	v116
	l338 -96
	v-116
	m-338 442
	v116
	l338 -98
	v-114"/>
<use id="sh0" transform="translate(-4,5) scale(0.018)"
	xlink:href="#usharp"/>
</defs>
<use x="37.00" y="83.00" xlink:href="#sh0"/>
<use x="42.50" y="92.00" xlink:href="#sh0"/>
<g style="font:bold 16px serif"
	transform="translate(58.50,106.50) scale(1.2,1)">
	<text text-anchor="middle">4</text>
	<text y="-12" text-anchor="middle">3</text>
</g>
<path class="fill"
	d="M79.70 83.20l30.20 2.60v3.20l-30.20 -2.60"/>
<use x="76.50" y="104.00" xlink:href="#hd"/>
<path d="M80.00 104.00v-19.70" class="stroke"/>
<use x="106.10" y="107.00" xlink:href="#hd"/>
<path d="M109.60 107.00v-20.30" class="stroke"/>
<use x="145.50" y="110.00" xlink:href="#hd"/>
<circle class="fill" cx="153.20" cy="110.00" r="1.2"/>
<path d="M149.00 110.00v-21.00" class="stroke"/>
<path class="fill"
	d="M201.50 85.50l59.80 -5.00v3.20l-59.80 5.00"/>
<use x="198.30" y="107.00" xlink:href="#hd"/>
<path d="M201.80 107.00v-20.50" class="stroke"/>
<use x="227.90" y="104.00" xlink:href="#hd"/>
<path d="M231.40 104.00v-20.00" class="stroke"/>
<use x="257.50" y="101.00" xlink:href="#hd"/>
<path d="M261.00 101.00v-19.50" class="stroke"/>
<defs>
<path id="Hd" class="fill" d="m3 -1.6
	c-1 -1.8 -7 1.4 -6 3.2
	1 1.8 7 -1.4 6 -3.2
	m0.5 -0.3
	c2 3.8 -5 7.6 -7 3.8
	-2 -3.8 5 -7.6 7 -3.8"/>
</defs>
<use x="296.90" y="98.00" xlink:href="#Hd"/>
<path d="M300.40 98.00v-21.00" class="stroke"/>
<path class="fill"
	d="M358.70 115.80l30.20 -2.60v-3.20l-30.20 2.60"/>
<use x="362.60" y="95.00" xlink:href="#hd"/>
<path d="M359.10 95.00v19.70" class="stroke"/>
<use x="392.10" y="92.00" xlink:href="#hd"/>
<path d="M388.60 92.00v20.30" class="stroke"/>
<use x="431.60" y="89.00" xlink:href="#hd"/>
<path d="M428.10 89.00v21.00" class="stroke"/>
<use x="478.00" y="92.00" xlink:href="#hd"/>
<path d="M474.50 92.00v21.00" class="stroke"/>
<use x="524.40" y="95.00" xlink:href="#hd"/>
<path d="M520.90 95.00v21.00" class="stroke"/>
<use x="573.30" y="98.00" xlink:href="#Hd"/>
<path d="M576.80 98.00v-21.00" class="stroke"/>
<path class="fill"
	d="M635.20 115.80l30.20 -2.60v-3.20l-30.20 2.60"/>
<use x="639.00" y="95.00" xlink:href="#hd"/>
<path d="M635.50 95.00v19.70" class="stroke"/>
<use x="668.60" y="92.00" xlink:href="#hd"/>
<path d="M665.10 92.00v20.30" class="stroke"/>
</g>
<g stroke-width="0.70" style="font:12.00px Helvetica">
<path class="stroke" stroke-width="1"
	d="M207.30 178.00v-24.00"/>
<path class="stroke" stroke-width="1"
	d="M373.30 178.00v-24.00"/>
<path class="stroke" stroke-width="1"
	d="M533.90 178.00v-24.00"/>
<path class="stroke" stroke-width="1"
	d="M691.60 178.00v-24.00"/>
<path d="m10.00 178.00
	h681.60
	M10.00 172.00
	h681.60
	M10.00 166.00
	h681.60
	M10.00 160.00
	h681.60
	M10.00 154.00
	h681.60
	" class="stroke"/>
<text x="56.70" y="141.60">G</text>
<text x="222.70" y="141.60">D</text>
<text x="388.70" y="141.60">D</text>
<text x="489.40" y="141.60">A7</text>
<text x="549.30" y="141.60">D</text>
<use x="22.00" y="172.00" xlink:href="#tclef"/>
<use x="37.00" y="154.00" xlink:href="#sh0"/>
<use x="42.50" y="163.00" xlink:href="#sh0"/>
<use x="60.50" y="160.00" xlink:href="#hd"/>
<path d="M57.00 160.00v21.00" class="stroke"/>
<use x="114.90" y="163.00" xlink:href="#hd"/>
<path d="M111.40 163.00v21.00" class="stroke"/>
<use x="169.20" y="166.00" xlink:href="#hd"/>
<path d="M165.70 166.00v21.00" class="stroke"/>
<use x="226.50" y="169.00" xlink:href="#hd"/>
<path d="M230.00 169.00v-21.00" class="stroke"/>
<use x="280.90" y="166.00" xlink:href="#hd"/>
<path d="M284.40 166.00v-21.00" class="stroke"/>
<use x="335.30" y="163.00" xlink:href="#hd"/>
<path d="M331.80 163.00v21.00" class="stroke"/>
<use x="392.50" y="160.00" xlink:href="#hd"/>
<path d="M389.00 160.00v21.00" class="stroke"/>
<use x="441.50" y="169.00" xlink:href="#hd"/>
<path d="M445.00 169.00v-21.00" class="stroke"/>
<use x="495.80" y="172.00" xlink:href="#hd"/>
<path d="M499.30 172.00v-21.00" class="stroke"/>
<use x="553.10" y="175.00" xlink:href="#Hd"/>
<path d="M556.60 175.00v-21.00" class="stroke"/>
<path class="fill"
	d="M633.20 154.20l35.30 2.60v3.20l-35.30 -2.60"/>
<use x="630.10" y="175.00" xlink:href="#hd"/>
<path d="M633.60 175.00v-19.80" class="stroke"/>
<use x="664.70" y="178.00" xlink:href="#hd"/>
<path d="M668.20 178.00v-20.20" class="stroke"/>
</g>
<g stroke-width="0.70" style="font:12.00px Helvetica">
<path class="stroke" stroke-width="1"
	d="M216.50 249.00v-24.00"/>
<path class="stroke" stroke-width="1"
	d="M372.10 249.00v-24.00"/>
<path class="stroke" stroke-width="1"
	d="M536.00 249.00v-24.00"/>
<path class="stroke" stroke-width="1"
	d="M691.60 249.00v-24.00"/>
<path d="m10.00 249.00
	h681.60
	M10.00 243.00
	h681.60
	M10.00 237.00
	h681.60
	M10.00 231.00
	h681.60
	M10.00 225.00
	h681.60
	" class="stroke"/>
<text x="231.60" y="212.60">D</text>
<text x="387.30" y="212.60">G</text>
<text x="551.10" y="212.60">D</text>
<use x="22.00" y="243.00" xlink:href="#tclef"/>
<use x="37.00" y="225.00" xlink:href="#sh0"/>
<use x="42.50" y="234.00" xlink:href="#sh0"/>
<use x="60.50" y="252.00" xlink:href="#hd"/>
<circle class="fill" cx="68.20" cy="252.00" r="1.2"/>
<path d="M64.00 252.00v-21.00" class="stroke"/>
<path class="fill"
	d="M124.70 227.60l69.00 -5.20v3.20l-69.00 5.20"/>
<use x="121.60" y="249.00" xlink:href="#hd"/>
<path d="M125.10 249.00v-20.40" class="stroke"/>
<use x="155.70" y="246.00" xlink:href="#hd"/>
<path d="M159.20 246.00v-20.00" class="stroke"/>
<use x="189.90" y="243.00" xlink:href="#hd"/>
<path d="M193.40 243.00v-19.60" class="stroke"/>
<use x="235.50" y="240.00" xlink:href="#Hd"/>
<path d="M239.00 240.00v-21.00" class="stroke"/>
<path class="fill"
	d="M307.50 257.80l34.80 -2.60v-3.20l-34.80 2.60"/>
<use x="311.40" y="237.00" xlink:href="#hd"/>
<path d="M307.90 237.00v19.80" class="stroke"/>
<use x="345.50" y="234.00" xlink:href="#hd"/>
<path d="M342.00 234.00v20.20" class="stroke"/>
<use x="391.10" y="231.00" xlink:href="#hd"/>
<path d="M387.60 231.00v21.00" class="stroke"/>
<use x="444.70" y="234.00" xlink:href="#hd"/>
<path d="M441.20 234.00v21.00" class="stroke"/>
<use x="498.40" y="237.00" xlink:href="#hd"/>
<path d="M494.90 237.00v21.00" class="stroke"/>
<use x="554.90" y="240.00" xlink:href="#Hd"/>
<path d="M558.40 240.00v-21.00" class="stroke"/>
<path class="fill"
	d="M627.00 257.80l34.80 -2.60v-3.20l-34.80 2.60"/>
<use x="630.90" y="237.00" xlink:href="#hd"/>
<path d="M627.40 237.00v19.80" class="stroke"/>
<use x="665.00" y="234.00" xlink:href="#hd"/>
<path d="M661.50 234.00v20.20" class="stroke"/>
</g>
<g stroke-width="0.70" style="font:12.00px Helvetica">
<path class="stroke" stroke-width="1"
	d="M227.70 320.00v-24.00"/>
<path class="stroke" stroke-width="1"
	d="M416.70 320.00v-24.00"/>
<path class="stroke" stroke-width="1"
	d="M599.60 320.00v-24.00"/>
<path class="stroke" stroke-width="1"
	d="M691.60 320.00v-24.00"/>
<path class="stroke" stroke-width="1"
	d="M688.60 320.00v-24.00"/>
<path d="m10.00 320.00
	h681.60
	M10.00 314.00
	h681.60
	M10.00 308.00
	h681.60
	M10.00 302.00
	h681.60
	M10.00 296.00
	h681.60
	" class="stroke"/>
<text x="56.70" y="283.60">G</text>
<text x="245.80" y="283.60">D</text>
<text x="549.80" y="283.60">A7</text>
<text x="617.70" y="283.60">D</text>
<use x="22.00" y="314.00" xlink:href="#tclef"/>
<use x="37.00" y="296.00" xlink:href="#sh0"/>
<use x="42.50" y="305.00" xlink:href="#sh0"/>
<use x="60.50" y="302.00" xlink:href="#hd"/>
<path d="M57.00 302.00v21.00" class="stroke"/>
<use x="122.40" y="305.00" xlink:href="#hd"/>
<path d="M118.90 305.00v21.00" class="stroke"/>
<use x="184.30" y="308.00" xlink:href="#hd"/>
<path d="M180.80 308.00v21.00" class="stroke"/>
<use x="249.60" y="311.00" xlink:href="#hd"/>
<path d="M253.10 311.00v-21.00" class="stroke"/>
<use x="311.50" y="308.00" xlink:href="#hd"/>
<path d="M315.00 308.00v-21.00" class="stroke"/>
<use x="373.40" y="305.00" xlink:href="#hd"/>
<path d="M369.90 305.00v21.00" class="stroke"/>
<use x="438.60" y="302.00" xlink:href="#hd"/>
<path d="M435.10 302.00v21.00" class="stroke"/>
<use x="494.40" y="311.00" xlink:href="#hd"/>
<path d="M497.90 311.00v-21.00" class="stroke"/>
<use x="556.30" y="314.00" xlink:href="#hd"/>
<path d="M559.80 314.00v-21.00" class="stroke"/>
<use x="621.50" y="317.00" xlink:href="#Hd"/>
<path d="M625.00 317.00v-21.00" class="stroke"/>
</g>
<g stroke-width="0.70" style="font:12.00px Helvetica">
<path class="stroke" stroke-width="1"
	d="M124.00 391.00v-24.00"/>
<path class="stroke" stroke-width="1"
	d="M307.10 391.00v-24.00"/>
<path class="stroke" stroke-width="1"
	d="M469.90 391.00v-24.00"/>
<path class="stroke" stroke-width="1"
	d="M608.50 391.00v-24.00"/>
<path class="stroke" stroke-width="1"
	d="M691.60 391.00v-24.00"/>
<path d="m10.00 391.00
	h681.60
	M10.00 385.00
	h681.60
	M10.00 379.00
	h681.60
	M10.00 373.00
	h681.60
	M10.00 367.00
	h681.60
	" class="stroke"/>
<text x="140.10" y="354.60">D</text>
<text x="486.00" y="354.60">G</text>
<text x="624.50" y="354.60">D</text>
<use x="22.00" y="385.00" xlink:href="#tclef"/>
<use x="37.00" y="367.00" xlink:href="#sh0"/>
<use x="42.50" y="376.00" xlink:href="#sh0"/>
<path class="fill"
	d="M63.70 367.20l36.40 2.60v3.20l-36.40 -2.60"/>
<use x="60.50" y="388.00" xlink:href="#hd"/>
<path d="M64.00 388.00v-19.80" class="stroke"/>
<use x="96.20" y="391.00" xlink:href="#hd"/>
<path d="M99.70 391.00v-20.20" class="stroke"/>
<use x="143.90" y="394.00" xlink:href="#hd"/>
<circle class="fill" cx="151.60" cy="394.00" r="1.2"/>
<path d="M147.40 394.00v-21.00" class="stroke"/>
<path class="fill"
	d="M211.00 369.60l72.20 -5.20v3.20l-72.20 5.20"/>
<use x="207.80" y="391.00" xlink:href="#hd"/>
<path d="M211.30 391.00v-20.40" class="stroke"/>
<use x="243.50" y="388.00" xlink:href="#hd"/>
<path d="M247.00 388.00v-20.00" class="stroke"/>
<use x="279.30" y="385.00" xlink:href="#hd"/>
<path d="M282.80 385.00v-19.60" class="stroke"/>
<use x="326.90" y="382.00" xlink:href="#Hd"/>
<path d="M330.40 382.00v-21.00" class="stroke"/>
<path class="fill"
	d="M402.50 394.20l36.40 2.60v-3.20l-36.40 -2.60"/>
<use x="406.40" y="373.00" xlink:href="#hd"/>
<path d="M402.90 373.00v20.20" class="stroke"/>
<use x="442.10" y="376.00" xlink:href="#hd"/>
<path d="M438.60 376.00v19.80" class="stroke"/>
<use x="489.80" y="379.00" xlink:href="#Hd"/>
<path d="M486.30 379.00v21.00" class="stroke"/>
<use x="569.20" y="379.00" xlink:href="#hd"/>
<path d="M565.70 379.00v21.00" class="stroke"/>
<use x="628.30" y="382.00" xlink:href="#Hd"/>
<circle class="fill" cx="637.00" cy="382.00" r="1.2"/>
<path d="M631.80 382.00v-21.00" class="stroke"/>
</g>
<g stroke-width="0.70" style="font:12.00px Helvetica">
<path class="stroke" stroke-width="1"
	d="M227.70 465.00v-24.00"/>
<path class="stroke" stroke-width="1"
	d="M416.70 465.00v-24.00"/>
<path class="stroke" stroke-width="1"
	d="M599.60 465.00v-24.00"/>
<path class="stroke" stroke-width="1"
	d="M691.60 465.00v-24.00"/>
<path class="stroke" stroke-width="1"
	d="M688.60 465.00v-24.00"/>
<path d="m10.00 465.00
	h681.60
	M10.00 459.00
	h681.60
	M10.00 453.00
	h681.60
	M10.00 447.00
	h681.60
	M10.00 441.00
	h681.60
	" class="stroke"/>
<text x="56.70" y="425.60">D</text>
<text x="307.70" y="425.60">G</text>
<text x="366.90" y="425.60">A7</text>
<text x="434.80" y="425.60">D</text>
<text x="549.80" y="425.60">A7</text>
<text x="617.70" y="425.60">D</text>
<use x="22.00" y="459.00" xlink:href="#tclef"/>
<use x="37.00" y="441.00" xlink:href="#sh0"/>
<use x="42.50" y="450.00" xlink:href="#sh0"/>
<use x="60.50" y="447.00" xlink:href="#hd"/>
<path d="M57.00 447.00v21.00" class="stroke"/>
<use x="122.40" y="450.00" xlink:href="#hd"/>
<path d="M118.90 450.00v21.00" class="stroke"/>
<use x="184.30" y="453.00" xlink:href="#hd"/>
<path d="M180.80 453.00v21.00" class="stroke"/>
<use x="249.60" y="456.00" xlink:href="#hd"/>
<path d="M253.10 456.00v-21.00" class="stroke"/>
<use x="311.50" y="453.00" xlink:href="#hd"/>
<path d="M315.00 453.00v-21.00" class="stroke"/>
<use x="373.40" y="450.00" xlink:href="#hd"/>
<path d="M369.90 450.00v21.00" class="stroke"/>
<use x="438.60" y="447.00" xlink:href="#hd"/>
<path d="M435.10 447.00v21.00" class="stroke"/>
<use x="494.40" y="456.00" xlink:href="#hd"/>
<path d="M497.90 456.00v-21.00" class="stroke"/>
<use x="556.30" y="459.00" xlink:href="#hd"/>
<path d="M559.80 459.00v-21.00" class="stroke"/>
<use x="621.50" y="462.00" xlink:href="#Hd"/>
<path d="M625.00 462.00v-21.00" class="stroke"/>
</g>
<g stroke-width="0.70" style="font:16.00px Arial">
<text x="60.00" y="505.60">The First Noel the angel did say</text>
</g>
<g stroke-width="0.70" style="font:16.00px Arial">
<text x="60.00" y="523.20">Was to certain poor shepherds</text>
</g>
<g stroke-width="0.70" style="font:16.00px Arial">
<text x="60.00" y="540.80">in fields as they lay;</text>
</g>
<g stroke-width="0.70" style="font:16.00px Arial">
<text x="60.00" y="558.40">In fields as they lay, keeping their sheep,</text>
</g>
<g stroke-width="0.70" style="font:16.00px Arial">
<text x="60.00" y="576.00">On a cold winter&apos;s night that was so deep.</text>
</g>
<g stroke-width="0.70" style="font:16.00px Arial">
<text x="60.00" y="611.20">Noel, Noel, Noel, Noel,</text>
</g>
<g stroke-width="0.70" style="font:16.00px Arial">
<text x="60.00" y="628.80">Born is the King of Israel.</text>
</g>
<g stroke-width="0.70" style="font:16.00px Arial">
<text x="60.00" y="664.00">They looked up and saw a star</text>
</g>
<g stroke-width="0.70" style="font:16.00px Arial">
<text x="60.00" y="681.60">Shining in the east beyond them far,</text>
</g>
<g stroke-width="0.70" style="font:16.00px Arial">
<text x="60.00" y="699.20">And to the earth it gave great light,</text>
</g>
<g stroke-width="0.70" style="font:16.00px Arial">
<text x="60.00" y="716.80">And so it continued both day and night.</text>
</g>
<g stroke-width="0.70" style="font:16.00px Arial">
<text x="60.00" y="752.00">And by the light of that same star</text>
</g>
<g stroke-width="0.70" style="font:16.00px Arial">
<text x="60.00" y="769.60">Three wise men came from country far;</text>
</g>
<g stroke-width="0.70" style="font:16.00px Arial">
<text x="60.00" y="787.20">To seek for a king was their intent,</text>
</g>
<g stroke-width="0.70" style="font:16.00px Arial">
<text x="60.00" y="804.80">And to follow the star wherever it went.</text>
</g>
<g stroke-width="0.70" style="font:16.00px Arial">
<text x="60.00" y="840.00">This star drew nigh to the northwest,</text>
</g>
<g stroke-width="0.70" style="font:16.00px Arial">
<text x="60.00" y="857.60">O&apos;er Bethlehem it took it rest,</text>
</g>
<g stroke-width="0.70" style="font:16.00px Arial">
<text x="60.00" y="875.20">And there it did both stop and stay</text>
</g>
<g stroke-width="0.70" style="font:16.00px Arial">
<text x="60.00" y="892.80">Right over the place where Jesus lay.</text>
</g>
<g stroke-width="0.70" style="font:16.00px Arial">
<text x="60.00" y="928.00">Then entered in those wise men three</text>
</g>
<g stroke-width="0.70" style="font:16.00px Arial">
<text x="60.00" y="945.60">Full reverently upon their knee,</text>
</g>
<g stroke-width="0.70" style="font:16.00px Arial">
<text x="60.00" y="963.20">and offered there in his presence</text>
</g>
<g stroke-width="0.70" style="font:16.00px Arial">
<text x="60.00" y="980.80">Their gold, and myrrh, and frankincense.</text>
</g>
<g stroke-width="0.70" style="font:16.00px Arial">
<text x="60.00" y="1016.00">Then let us all with one accord</text>
</g>
<g stroke-width="0.70" style="font:16.00px Arial">
<text x="60.00" y="1033.60">Sing praises to our heavenly Lord;</text>
</g>
<g stroke-width="0.70" style="font:16.00px Arial">
<text x="60.00" y="1051.20">That hath made heaven and earth of naught,</text>
</g>
<g stroke-width="0.70" style="font:16.00px Arial">
<text x="60.00" y="1068.80">And with his blood mankind hath bought</text>
</g>
</svg>
