<?xml version="1.0" standalone="no"?>
<!DOCTYPE svg PUBLIC "-//W3C//DTD SVG 1.1//EN"
	"http://www.w3.org/Graphics/SVG/1.1/DTD/svg11.dtd">
<svg xmlns="http://www.w3.org/2000/svg" version="1.1"
	xmlns:xlink="http://www.w3.org/1999/xlink"
	color="black"
	width="701.60px" height="564.40px">
<style type="text/css">
.fill {fill: currentColor}
.stroke {stroke: currentColor; fill: none}
text{white-space: pre}
</style>
<title>/media/tim/Data1/tims_code/sphinx-tunes/source/_abcfiles/CarolBook.abc (1) tune 9</title>
<!-- Creator: abcm2ps-8.14.6 -->
<!-- CreationDate: Jul 30, 2023 12:21 -->
<!-- CommandLine: -g /media/tim/Data1/tims_code/sphinx-tunes/source/_abcfiles/CarolBook.abc -O /media/tim/Data1/tims_code/sphinx-tunes/source/_abcfiles/CarolBook.svg -->
<g stroke-width="0.70">
<!-- title: Il est Né -->
</g>
<g stroke-width="0.70" style="font:20.00px Times">
<text x="350.80" y="22.00" text-anchor="middle">Il est Né</text>
</g>
<g stroke-width="0.70" style="font:20.00px Times">
<path class="stroke" stroke-width="1"
	d="M224.40 85.00v-24.00"/>
<path class="stroke" stroke-width="1"
	d="M348.70 85.00v-24.00"/>
<path class="stroke" stroke-width="1"
	d="M528.20 85.00v-24.00"/>
<path class="stroke" stroke-width="1"
	d="M691.60 85.00v-24.00"/>
<path d="m10.00 85.00
	h681.60
	M10.00 79.00
	h681.60
	M10.00 73.00
	h681.60
	M10.00 67.00
	h681.60
	M10.00 61.00
	h681.60
	" class="stroke"/>
<defs>
<path id="utclef" class="fill" d="m-50 -90
	c-72 -41 -72 -158 52 -188
	150 -10 220 188 90 256
	-114 52 -275 0 -293 -136
	-15 -181 93 -229 220 -334
	88 -87 79 -133 62 -210
	-51 33 -94 105 -89 186
	17 267 36 374 49 574
	6 96 -19 134 -77 135
	-80 1 -126 -93 -61 -133
	85 -41 133 101 31 105
	23 17 92 37 90 -92
	-10 -223 -39 -342 -50 -617
	0 -90 0 -162 96 -232
	56 72 63 230 22 289
	-74 106 -257 168 -255 316
	9 153 148 185 252 133
	86 -65 29 -192 -80 -176
	-71 12 -105 67 -59 124"/>
<use id="tclef" transform="translate(0,6) scale(0.045)"
	xlink:href="#utclef"/>
</defs>
<use x="22.00" y="79.00" xlink:href="#tclef"/>
<defs>
<path id="usharp" class="fill" d="
	m136 -702
	v890
	h32
	v-890
	m128 840
	h32
	v-888
	h-32
	m-232 286
	v116
	l338 -96
	v-116
	m-338 442
	v116
	l338 -98
	v-114"/>
<use id="sh0" transform="translate(-4,5) scale(0.018)"
	xlink:href="#usharp"/>
</defs>
<use x="37.00" y="61.00" xlink:href="#sh0"/>
<defs>
<path id="csig" class="fill" d="
	m6 -5.3
	c0.9 0 2.3 0.7 2.4 2.2
	-1.2 -2 -3.6 0.1 -1.6 1.7
	2 1 3.8 -3.5 -0.8 -4.7
	-2 -0.4 -6.4 1.3 -5.8 7
	0.4 6.4 7.9 6.8 9.1 0.7
	-2.3 5.6 -6.7 5.1 -6.8 0
	-0.5 -4.4 0.7 -7.5 3.5 -6.9"/>
<g id="ctsig">
	<use xlink:href="#csig"/>
	<path d="m5 8v-16" class="stroke"/>
</g>
</defs>
<use x="48.00" y="73.00" xlink:href="#ctsig"/>
<defs>
<ellipse id="hd" rx="4.1" ry="2.9"
	transform="rotate(-20)" class="fill"/>
</defs>
<use x="71.00" y="88.00" xlink:href="#hd"/>
<path d="M74.50 88.00v-21.00" class="stroke"/>
<use x="108.10" y="79.00" xlink:href="#hd"/>
<path d="M111.60 79.00v-21.00" class="stroke"/>
<use x="145.20" y="79.00" xlink:href="#hd"/>
<path d="M148.70 79.00v-21.00" class="stroke"/>
<path class="fill"
	d="M185.50 53.00l24.30 4.10v3.20l-24.30 -4.10"/>
<use x="182.30" y="73.00" xlink:href="#hd"/>
<path d="M185.80 73.00v-19.00" class="stroke"/>
<use x="206.00" y="79.00" xlink:href="#hd"/>
<path d="M209.50 79.00v-21.00" class="stroke"/>
<use x="237.70" y="88.00" xlink:href="#hd"/>
<path d="M241.20 88.00v-21.00" class="stroke"/>
<use x="274.80" y="79.00" xlink:href="#hd"/>
<path d="M278.30 79.00v-21.00" class="stroke"/>
<defs>
<path id="Hd" class="fill" d="m3 -1.6
	c-1 -1.8 -7 1.4 -6 3.2
	1 1.8 7 -1.4 6 -3.2
	m0.5 -0.3
	c2 3.8 -5 7.6 -7 3.8
	-2 -3.8 5 -7.6 7 -3.8"/>
</defs>
<use x="311.90" y="79.00" xlink:href="#Hd"/>
<path d="M315.40 79.00v-21.00" class="stroke"/>
<use x="361.90" y="79.00" xlink:href="#hd"/>
<path d="M365.40 79.00v-21.00" class="stroke"/>
<path class="fill"
	d="M402.20 57.70l24.30 -2.50v3.20l-24.30 2.50"/>
<use x="399.00" y="79.00" xlink:href="#hd"/>
<path d="M402.50 79.00v-20.30" class="stroke"/>
<use x="422.70" y="76.00" xlink:href="#hd"/>
<path d="M426.20 76.00v-19.70" class="stroke"/>
<use x="448.90" y="73.00" xlink:href="#hd"/>
<path d="M452.40 73.00v-21.00" class="stroke"/>
<path class="fill"
	d="M482.20 91.30l24.30 2.50v-3.20l-24.30 -2.50"/>
<use x="486.10" y="70.00" xlink:href="#hd"/>
<path d="M482.60 70.00v20.30" class="stroke"/>
<use x="509.70" y="73.00" xlink:href="#hd"/>
<path d="M506.20 73.00v19.70" class="stroke"/>
<use x="541.40" y="76.00" xlink:href="#hd"/>
<path d="M544.90 76.00v-21.00" class="stroke"/>
<use x="578.50" y="79.00" xlink:href="#hd"/>
<path d="M582.00 79.00v-21.00" class="stroke"/>
<path class="fill"
	d="M618.80 56.00l24.30 4.10v3.20l-24.30 -4.10"/>
<use x="615.60" y="76.00" xlink:href="#hd"/>
<path d="M619.10 76.00v-19.00" class="stroke"/>
<use x="639.30" y="82.00" xlink:href="#hd"/>
<path d="M642.80 82.00v-21.00" class="stroke"/>
<use x="665.60" y="88.00" xlink:href="#hd"/>
<path d="M669.10 88.00v-21.00" class="stroke"/>
</g>
<g stroke-width="0.70" style="font:20.00px Times">
<path class="stroke" stroke-width="1"
	d="M216.00 155.00v-24.00"/>
<path class="stroke" stroke-width="1"
	d="M371.40 155.00v-24.00"/>
<path class="stroke" stroke-width="1"
	d="M559.60 155.00v-24.00"/>
<path class="stroke" stroke-width="3"
	d="M690.10 155.00v-24.00"/>
<path class="stroke" stroke-width="1"
	d="M685.60 155.00v-24.00"/>
<defs>
<g id="rdots" class="fill">
	<circle cx="0" cy="-9" r="1.2"/>
	<circle cx="0" cy="-15" r="1.2"/>
</g>
</defs>
<use x="681.60" y="155.00" xlink:href="#rdots"/>
<path d="m10.00 155.00
	h681.60
	M10.00 149.00
	h681.60
	M10.00 143.00
	h681.60
	M10.00 137.00
	h681.60
	M10.00 131.00
	h681.60
	" class="stroke"/>
<use x="22.00" y="149.00" xlink:href="#tclef"/>
<use x="37.00" y="131.00" xlink:href="#sh0"/>
<use x="55.00" y="158.00" xlink:href="#hd"/>
<path d="M58.50 158.00v-21.00" class="stroke"/>
<use x="94.00" y="149.00" xlink:href="#hd"/>
<path d="M97.50 149.00v-21.00" class="stroke"/>
<use x="132.90" y="149.00" xlink:href="#hd"/>
<path d="M136.40 149.00v-21.00" class="stroke"/>
<path class="fill"
	d="M175.00 122.90l25.50 4.20v3.20l-25.50 -4.20"/>
<use x="171.90" y="143.00" xlink:href="#hd"/>
<path d="M175.40 143.00v-19.00" class="stroke"/>
<use x="196.70" y="149.00" xlink:href="#hd"/>
<path d="M200.20 149.00v-21.00" class="stroke"/>
<use x="229.80" y="158.00" xlink:href="#hd"/>
<path d="M233.30 158.00v-21.00" class="stroke"/>
<use x="268.80" y="149.00" xlink:href="#hd"/>
<path d="M272.30 149.00v-21.00" class="stroke"/>
<use x="307.70" y="149.00" xlink:href="#hd"/>
<circle class="fill" cx="315.40" cy="146.00" r="1.2"/>
<path d="M311.20 149.00v-21.00" class="stroke"/>
<use x="352.10" y="158.00" xlink:href="#hd"/>
<path d="M355.60 158.00v-21.00" class="stroke"/>
<path class="fill"
	d="M355.60 137.00c0.6 5.6 9.6 9 5.6 18.4
	1.6 -6 -1.3 -11.6 -5.6 -12.8
"/>
<use x="385.20" y="149.00" xlink:href="#hd"/>
<path d="M388.70 149.00v-21.00" class="stroke"/>
<path class="fill"
	d="M427.30 127.70l25.50 -2.50v3.20l-25.50 2.50"/>
<use x="424.20" y="149.00" xlink:href="#hd"/>
<path d="M427.70 149.00v-20.30" class="stroke"/>
<use x="449.00" y="146.00" xlink:href="#hd"/>
<path d="M452.50 146.00v-19.70" class="stroke"/>
<use x="476.50" y="143.00" xlink:href="#hd"/>
<path d="M480.00 143.00v-21.00" class="stroke"/>
<path class="fill"
	d="M511.70 161.30l25.50 2.50v-3.20l-25.50 -2.50"/>
<use x="515.50" y="140.00" xlink:href="#hd"/>
<path d="M512.00 140.00v20.30" class="stroke"/>
<use x="540.30" y="143.00" xlink:href="#hd"/>
<path d="M536.80 143.00v19.70" class="stroke"/>
<use x="573.40" y="146.00" xlink:href="#hd"/>
<path d="M576.90 146.00v-21.00" class="stroke"/>
<use x="612.40" y="137.00" xlink:href="#hd"/>
<path d="M608.90 137.00v21.00" class="stroke"/>
<use x="647.50" y="149.00" xlink:href="#Hd"/>
<path d="M651.00 149.00v-21.00" class="stroke"/>
</g>
<g stroke-width="0.70" style="font:20.00px Times">
<use x="61.50" y="225.00" xlink:href="#rdots"/>
<path class="stroke" stroke-width="1"
	d="M57.50 225.00v-24.00"/>
<path class="stroke" stroke-width="3"
	d="M53.00 225.00v-24.00"/>
<path class="stroke" stroke-width="1"
	d="M236.00 225.00v-24.00"/>
<path class="stroke" stroke-width="1"
	d="M365.30 225.00v-24.00"/>
<path class="stroke" stroke-width="1"
	d="M538.70 225.00v-24.00"/>
<path class="stroke" stroke-width="1"
	d="M691.60 225.00v-24.00"/>
<path d="m10.00 225.00
	h681.60
	M10.00 219.00
	h681.60
	M10.00 213.00
	h681.60
	M10.00 207.00
	h681.60
	M10.00 201.00
	h681.60
	" class="stroke"/>
<use x="22.00" y="219.00" xlink:href="#tclef"/>
<use x="37.00" y="201.00" xlink:href="#sh0"/>
<use x="76.20" y="213.00" xlink:href="#hd"/>
<path d="M79.70 213.00v-21.00" class="stroke"/>
<use x="114.90" y="210.00" xlink:href="#hd"/>
<path d="M111.40 210.00v21.00" class="stroke"/>
<use x="153.50" y="207.00" xlink:href="#hd"/>
<path d="M150.00 207.00v21.00" class="stroke"/>
<path class="fill"
	d="M188.30 231.30l25.30 2.50v-3.20l-25.30 -2.50"/>
<use x="192.20" y="210.00" xlink:href="#hd"/>
<path d="M188.70 210.00v20.30" class="stroke"/>
<use x="216.80" y="213.00" xlink:href="#hd"/>
<path d="M213.30 213.00v19.70" class="stroke"/>
<use x="249.70" y="210.00" xlink:href="#hd"/>
<path d="M246.20 210.00v21.00" class="stroke"/>
<use x="288.30" y="204.00" xlink:href="#hd"/>
<path d="M284.80 204.00v21.00" class="stroke"/>
<use x="327.00" y="207.00" xlink:href="#Hd"/>
<path d="M323.50 207.00v21.00" class="stroke"/>
<use x="379.00" y="213.00" xlink:href="#hd"/>
<path d="M375.50 213.00v21.00" class="stroke"/>
<use x="417.60" y="210.00" xlink:href="#hd"/>
<path d="M414.10 210.00v21.00" class="stroke"/>
<use x="456.30" y="207.00" xlink:href="#hd"/>
<path d="M452.80 207.00v21.00" class="stroke"/>
<path class="fill"
	d="M491.10 225.30l25.30 2.50v-3.20l-25.30 -2.50"/>
<use x="494.90" y="204.00" xlink:href="#hd"/>
<path d="M491.40 204.00v20.30" class="stroke"/>
<use x="519.60" y="207.00" xlink:href="#hd"/>
<path d="M516.10 207.00v19.70" class="stroke"/>
<use x="552.40" y="210.00" xlink:href="#hd"/>
<path d="M548.90 210.00v21.00" class="stroke"/>
<use x="591.10" y="213.00" xlink:href="#hd"/>
<path d="M587.60 213.00v21.00" class="stroke"/>
<use x="629.70" y="213.00" xlink:href="#hd"/>
<path d="M626.20 213.00v21.00" class="stroke"/>
<use x="664.50" y="216.00" xlink:href="#hd"/>
<path d="M668.00 216.00v-21.00" class="stroke"/>
</g>
<g stroke-width="0.70" style="font:20.00px Times">
<path class="stroke" stroke-width="1"
	d="M212.90 295.00v-24.00"/>
<path class="stroke" stroke-width="1"
	d="M365.30 295.00v-24.00"/>
<path class="stroke" stroke-width="1"
	d="M536.70 295.00v-24.00"/>
<path class="stroke" stroke-width="3"
	d="M690.10 295.00v-24.00"/>
<path class="stroke" stroke-width="1"
	d="M685.60 295.00v-24.00"/>
<use x="681.60" y="295.00" xlink:href="#rdots"/>
<path d="m10.00 295.00
	h681.60
	M10.00 289.00
	h681.60
	M10.00 283.00
	h681.60
	M10.00 277.00
	h681.60
	M10.00 271.00
	h681.60
	" class="stroke"/>
<use x="22.00" y="289.00" xlink:href="#tclef"/>
<use x="37.00" y="271.00" xlink:href="#sh0"/>
<use x="55.00" y="283.00" xlink:href="#hd"/>
<path d="M58.50 283.00v-21.00" class="stroke"/>
<use x="93.20" y="280.00" xlink:href="#hd"/>
<path d="M89.70 280.00v21.00" class="stroke"/>
<use x="131.40" y="277.00" xlink:href="#hd"/>
<path d="M127.90 277.00v21.00" class="stroke"/>
<path class="fill"
	d="M165.70 301.30l25.00 2.50v-3.20l-25.00 -2.50"/>
<use x="169.60" y="280.00" xlink:href="#hd"/>
<path d="M166.10 280.00v20.30" class="stroke"/>
<use x="193.90" y="283.00" xlink:href="#hd"/>
<path d="M190.40 283.00v19.70" class="stroke"/>
<use x="226.40" y="280.00" xlink:href="#hd"/>
<path d="M222.90 280.00v21.00" class="stroke"/>
<use x="264.60" y="274.00" xlink:href="#hd"/>
<path d="M261.10 274.00v21.00" class="stroke"/>
<use x="302.80" y="277.00" xlink:href="#hd"/>
<circle class="fill" cx="310.50" cy="274.00" r="1.2"/>
<path d="M299.30 277.00v21.00" class="stroke"/>
<use x="346.30" y="280.00" xlink:href="#hd"/>
<path d="M342.80 280.00v21.00" class="stroke"/>
<path class="fill"
	d="M342.80 301.00c0.6 -5.6 9.6 -9 5.6 -18.4
	1.6 6 -1.3 11.6 -5.6 12.8
"/>
<use x="378.80" y="283.00" xlink:href="#hd"/>
<path d="M375.30 283.00v21.00" class="stroke"/>
<use x="417.00" y="280.00" xlink:href="#hd"/>
<path d="M413.50 280.00v21.00" class="stroke"/>
<use x="455.20" y="277.00" xlink:href="#hd"/>
<path d="M451.70 277.00v21.00" class="stroke"/>
<path class="fill"
	d="M489.50 295.30l25.00 2.50v-3.20l-25.00 -2.50"/>
<use x="493.40" y="274.00" xlink:href="#hd"/>
<path d="M489.90 274.00v20.30" class="stroke"/>
<use x="517.70" y="277.00" xlink:href="#hd"/>
<path d="M514.20 277.00v19.70" class="stroke"/>
<use x="550.20" y="280.00" xlink:href="#hd"/>
<path d="M546.70 280.00v21.00" class="stroke"/>
<use x="588.40" y="283.00" xlink:href="#hd"/>
<path d="M584.90 283.00v21.00" class="stroke"/>
<use x="626.60" y="283.00" xlink:href="#hd"/>
<path d="M623.10 283.00v21.00" class="stroke"/>
<use x="661.00" y="286.00" xlink:href="#hd"/>
<path d="M664.50 286.00v-21.00" class="stroke"/>
</g>
<g stroke-width="0.70" style="font:16.00px Arial">
<text x="60.00" y="335.60">Il est né le divin enfant</text>
<text x="375.80" y="335.60">Une étable est son logement</text>
</g>
<g stroke-width="0.70" style="font:16.00px Arial">
<text x="60.00" y="353.20">Jouez hautbois, résonnez musettes</text>
<text x="375.80" y="353.20">Un peu de paille est sa couchette</text>
</g>
<g stroke-width="0.70" style="font:16.00px Arial">
<text x="60.00" y="370.80">Il est né le divin enfant</text>
<text x="375.80" y="370.80">Une étable est son logement</text>
</g>
<g stroke-width="0.70" style="font:16.00px Arial">
<text x="60.00" y="388.40">Chantons tous son avènement</text>
<text x="375.80" y="388.40">Pour un Dieu quel abaissement</text>
</g>
<g stroke-width="0.70" style="font:16.00px Arial">
<text x="60.00" y="423.60">Depuis plus de quatre mille ans</text>
<text x="375.80" y="423.60">Partez ô rois de l&apos;orient</text>
</g>
<g stroke-width="0.70" style="font:16.00px Arial">
<text x="60.00" y="441.20">Nous le promettaient les prophètes</text>
<text x="375.80" y="441.20">Venez vous unir à nos fêtes</text>
</g>
<g stroke-width="0.70" style="font:16.00px Arial">
<text x="60.00" y="458.80">Depuis plus de quatre mille ans</text>
<text x="375.80" y="458.80">Partez ô rois de l&apos;orient</text>
</g>
<g stroke-width="0.70" style="font:16.00px Arial">
<text x="60.00" y="476.40">Nous attendions cet heureux temps</text>
<text x="375.80" y="476.40">Venez adorer cet enfant</text>
</g>
<g stroke-width="0.70" style="font:16.00px Arial">
<text x="239.50" y="511.60">Ô Jésus, ô Roi tout puissant</text>
</g>
<g stroke-width="0.70" style="font:16.00px Arial">
<text x="239.50" y="529.20">Tout petit enfant que vous êtes</text>
</g>
<g stroke-width="0.70" style="font:16.00px Arial">
<text x="239.50" y="546.80">Ô Jésus, ô Roi tout puissant</text>
</g>
<g stroke-width="0.70" style="font:16.00px Arial">
<text x="239.50" y="564.40">Régnez sur nous entièrement</text>
</g>
</svg>
