<?xml version="1.0" standalone="no"?>
<!DOCTYPE svg PUBLIC "-//W3C//DTD SVG 1.1//EN"
	"http://www.w3.org/Graphics/SVG/1.1/DTD/svg11.dtd">
<svg xmlns="http://www.w3.org/2000/svg" version="1.1"
	xmlns:xlink="http://www.w3.org/1999/xlink"
	color="black"
	width="701.60px" height="318.00px">
<style type="text/css">
.fill {fill: currentColor}
.stroke {stroke: currentColor; fill: none}
text{white-space: pre}
</style>
<title>/media/tim/Data1/tims_code/sphinx-tunes/source/_abcfiles/Cavehill.abc (1) tune 1</title>
<!-- Creator: abcm2ps-8.14.6 -->
<!-- CreationDate: Jul 30, 2023 12:21 -->
<!-- CommandLine: -g /media/tim/Data1/tims_code/sphinx-tunes/source/_abcfiles/Cavehill.abc -O /media/tim/Data1/tims_code/sphinx-tunes/source/_abcfiles/Cavehill.svg -->
<g stroke-width="0.70">
<!-- title: Cavehill -->
</g>
<g stroke-width="0.70" style="font:20.00px Times">
<text x="350.80" y="22.00" text-anchor="middle">Cavehill</text>
</g>
<g stroke-width="0.70" style="font:20.00px Times">
<path class="stroke" stroke-width="1"
	d="M212.60 85.00v-24.00"/>
<path class="stroke" stroke-width="1"
	d="M379.70 85.00v-24.00"/>
<path class="stroke" stroke-width="1"
	d="M535.60 85.00v-24.00"/>
<path class="stroke" stroke-width="1"
	d="M691.60 85.00v-24.00"/>
<path d="m10.00 85.00
	h681.60
	M10.00 79.00
	h681.60
	M10.00 73.00
	h681.60
	M10.00 67.00
	h681.60
	M10.00 61.00
	h681.60
	" class="stroke"/>
<defs>
<path id="utclef" class="fill" d="m-50 -90
	c-72 -41 -72 -158 52 -188
	150 -10 220 188 90 256
	-114 52 -275 0 -293 -136
	-15 -181 93 -229 220 -334
	88 -87 79 -133 62 -210
	-51 33 -94 105 -89 186
	17 267 36 374 49 574
	6 96 -19 134 -77 135
	-80 1 -126 -93 -61 -133
	85 -41 133 101 31 105
	23 17 92 37 90 -92
	-10 -223 -39 -342 -50 -617
	0 -90 0 -162 96 -232
	56 72 63 230 22 289
	-74 106 -257 168 -255 316
	9 153 148 185 252 133
	86 -65 29 -192 -80 -176
	-71 12 -105 67 -59 124"/>
<use id="tclef" transform="translate(0,6) scale(0.045)"
	xlink:href="#utclef"/>
</defs>
<use x="22.00" y="79.00" xlink:href="#tclef"/>
<defs>
<path id="usharp" class="fill" d="
	m136 -702
	v890
	h32
	v-890
	m128 840
	h32
	v-888
	h-32
	m-232 286
	v116
	l338 -96
	v-116
	m-338 442
	v116
	l338 -98
	v-114"/>
<use id="sh0" transform="translate(-4,5) scale(0.018)"
	xlink:href="#usharp"/>
</defs>
<use x="37.00" y="61.00" xlink:href="#sh0"/>
<g style="font:bold 16px serif"
	transform="translate(53.00,84.50) scale(1.2,1)">
	<text text-anchor="middle">8</text>
	<text y="-12" text-anchor="middle">6</text>
</g>
<defs>
<ellipse id="hd" rx="4.1" ry="2.9"
	transform="rotate(-20)" class="fill"/>
</defs>
<use x="71.00" y="67.00" xlink:href="#hd"/>
<path d="M67.50 67.00v21.00" class="stroke"/>
<use x="111.70" y="73.00" xlink:href="#hd"/>
<path d="M108.20 73.00v21.00" class="stroke"/>
<path class="fill"
	d="M108.20 94.00c0.6 -5.6 9.6 -9 5.6 -18.4
	1.6 6 -1.3 11.6 -5.6 12.8
"/>
<path class="fill"
	d="M136.70 93.00l52.50 0.00v-3.20l-52.50 -0.00"/>
<use x="140.50" y="73.00" xlink:href="#hd"/>
<path d="M137.00 73.00v19.00" class="stroke"/>
<use x="166.50" y="70.00" xlink:href="#hd"/>
<path d="M163.00 70.00v22.00" class="stroke"/>
<use x="192.40" y="73.00" xlink:href="#hd"/>
<path d="M188.90 73.00v19.00" class="stroke"/>
<path class="fill"
	d="M223.10 87.50l52.50 -4.90v-3.20l-52.50 4.90"/>
<use x="227.00" y="67.00" xlink:href="#hd"/>
<path d="M223.50 67.00v19.40" class="stroke"/>
<use x="252.90" y="64.00" xlink:href="#hd"/>
<path d="M249.40 64.00v20.00" class="stroke"/>
<use x="278.80" y="61.00" xlink:href="#hd"/>
<path d="M275.30 61.00v20.60" class="stroke"/>
<path class="fill"
	d="M303.80 79.50l52.50 4.90v-3.20l-52.50 -4.90"/>
<use x="307.60" y="58.00" xlink:href="#hd"/>
<path d="M304.10 58.00v20.60" class="stroke"/>
<use x="333.60" y="61.00" xlink:href="#hd"/>
<path d="M330.10 61.00v20.00" class="stroke"/>
<use x="359.50" y="64.00" xlink:href="#hd"/>
<path d="M356.00 64.00v19.40" class="stroke"/>
<use x="394.10" y="67.00" xlink:href="#hd"/>
<path d="M390.60 67.00v21.00" class="stroke"/>
<use x="434.80" y="73.00" xlink:href="#hd"/>
<path d="M431.30 73.00v21.00" class="stroke"/>
<path class="fill"
	d="M431.30 94.00c0.6 -5.6 9.6 -9 5.6 -18.4
	1.6 6 -1.3 11.6 -5.6 12.8
"/>
<path class="fill"
	d="M459.80 93.00l52.50 0.00v-3.20l-52.50 -0.00"/>
<use x="463.60" y="73.00" xlink:href="#hd"/>
<path d="M460.10 73.00v19.00" class="stroke"/>
<use x="489.50" y="70.00" xlink:href="#hd"/>
<path d="M486.00 70.00v22.00" class="stroke"/>
<use x="515.50" y="73.00" xlink:href="#hd"/>
<path d="M512.00 73.00v19.00" class="stroke"/>
<use x="550.00" y="76.00" xlink:href="#hd"/>
<path d="M553.50 76.00v-21.00" class="stroke"/>
<use x="590.80" y="73.00" xlink:href="#hd"/>
<path d="M594.30 73.00v-21.00" class="stroke"/>
<path class="fill"
	d="M594.30 52.00c0.6 5.6 9.6 9 5.6 18.4
	1.6 -6 -1.3 -11.6 -5.6 -12.8
"/>
<path class="fill"
	d="M622.70 49.50l52.50 4.90v3.20l-52.50 -4.90"/>
<use x="619.60" y="70.00" xlink:href="#hd"/>
<path d="M623.10 70.00v-19.40" class="stroke"/>
<use x="645.50" y="73.00" xlink:href="#hd"/>
<path d="M649.00 73.00v-20.00" class="stroke"/>
<use x="671.40" y="76.00" xlink:href="#hd"/>
<path d="M674.90 76.00v-20.60" class="stroke"/>
</g>
<g stroke-width="0.70" style="font:20.00px Times">
<path class="stroke" stroke-width="1"
	d="M212.90 155.00v-24.00"/>
<path class="stroke" stroke-width="1"
	d="M399.30 155.00v-24.00"/>
<path class="stroke" stroke-width="1"
	d="M582.50 155.00v-24.00"/>
<path class="stroke" stroke-width="3"
	d="M690.10 155.00v-24.00"/>
<path class="stroke" stroke-width="1"
	d="M685.60 155.00v-24.00"/>
<defs>
<g id="rdots" class="fill">
	<circle cx="0" cy="-9" r="1.2"/>
	<circle cx="0" cy="-15" r="1.2"/>
</g>
</defs>
<use x="681.60" y="155.00" xlink:href="#rdots"/>
<path d="m10.00 155.00
	h681.60
	M10.00 149.00
	h681.60
	M10.00 143.00
	h681.60
	M10.00 137.00
	h681.60
	M10.00 131.00
	h681.60
	" class="stroke"/>
<use x="22.00" y="149.00" xlink:href="#tclef"/>
<use x="37.00" y="131.00" xlink:href="#sh0"/>
<use x="55.00" y="137.00" xlink:href="#hd"/>
<path d="M51.50 137.00v21.00" class="stroke"/>
<use x="100.40" y="143.00" xlink:href="#hd"/>
<path d="M96.90 143.00v21.00" class="stroke"/>
<path class="fill"
	d="M96.90 164.00c0.6 -5.6 9.6 -9 5.6 -18.4
	1.6 6 -1.3 11.6 -5.6 12.8
"/>
<path class="fill"
	d="M128.70 163.00l58.50 0.00v-3.20l-58.50 -0.00"/>
<use x="132.60" y="143.00" xlink:href="#hd"/>
<path d="M129.10 143.00v19.00" class="stroke"/>
<use x="161.50" y="140.00" xlink:href="#hd"/>
<path d="M158.00 140.00v22.00" class="stroke"/>
<use x="190.40" y="143.00" xlink:href="#hd"/>
<path d="M186.90 143.00v19.00" class="stroke"/>
<path class="fill"
	d="M225.10 157.50l58.50 -5.00v-3.20l-58.50 5.00"/>
<use x="229.00" y="137.00" xlink:href="#hd"/>
<path d="M225.50 137.00v19.50" class="stroke"/>
<use x="257.90" y="134.00" xlink:href="#hd"/>
<path d="M254.40 134.00v20.00" class="stroke"/>
<use x="286.80" y="131.00" xlink:href="#hd"/>
<path d="M283.30 131.00v20.50" class="stroke"/>
<path class="fill"
	d="M315.10 149.50l58.50 5.00v-3.20l-58.50 -5.00"/>
<use x="318.90" y="128.00" xlink:href="#hd"/>
<path d="M315.40 128.00v20.50" class="stroke"/>
<use x="347.90" y="131.00" xlink:href="#hd"/>
<path d="M344.40 131.00v20.00" class="stroke"/>
<use x="376.80" y="134.00" xlink:href="#hd"/>
<path d="M373.30 134.00v19.50" class="stroke"/>
<path class="fill"
	d="M411.50 159.70l58.50 8.60v-3.20l-58.50 -8.60"/>
<use x="415.40" y="137.00" xlink:href="#hd"/>
<path d="M411.90 137.00v21.80" class="stroke"/>
<use x="444.30" y="143.00" xlink:href="#hd"/>
<path d="M440.80 143.00v20.00" class="stroke"/>
<use x="473.20" y="149.00" xlink:href="#hd"/>
<path d="M469.70 149.00v18.20" class="stroke"/>
<path class="fill"
	d="M505.30 136.50l58.50 -5.00v3.20l-58.50 5.00"/>
<use x="502.10" y="158.00" xlink:href="#hd"/>
<path d="M505.60 158.00v-20.50" class="stroke"/>
<use x="531.00" y="155.00" xlink:href="#hd"/>
<path d="M534.50 155.00v-20.00" class="stroke"/>
<use x="560.00" y="152.00" xlink:href="#hd"/>
<path d="M563.50 152.00v-19.50" class="stroke"/>
<use x="598.50" y="149.00" xlink:href="#hd"/>
<circle class="fill" cx="606.20" cy="146.00" r="1.2"/>
<path d="M602.00 149.00v-21.00" class="stroke"/>
<use x="650.20" y="149.00" xlink:href="#hd"/>
<circle class="fill" cx="657.90" cy="146.00" r="1.2"/>
<path d="M653.70 149.00v-21.00" class="stroke"/>
</g>
<g stroke-width="0.70" style="font:20.00px Times">
<path class="stroke" stroke-width="1"
	d="M200.20 225.00v-24.00"/>
<path class="stroke" stroke-width="1"
	d="M360.20 225.00v-24.00"/>
<path class="stroke" stroke-width="1"
	d="M520.20 225.00v-24.00"/>
<path class="stroke" stroke-width="1"
	d="M691.60 225.00v-24.00"/>
<path d="m10.00 225.00
	h681.60
	M10.00 219.00
	h681.60
	M10.00 213.00
	h681.60
	M10.00 207.00
	h681.60
	M10.00 201.00
	h681.60
	" class="stroke"/>
<use x="22.00" y="219.00" xlink:href="#tclef"/>
<use x="37.00" y="201.00" xlink:href="#sh0"/>
<use x="55.00" y="228.00" xlink:href="#hd"/>
<path d="M58.50 228.00v-21.00" class="stroke"/>
<use x="96.80" y="219.00" xlink:href="#hd"/>
<path d="M100.30 219.00v-21.00" class="stroke"/>
<path class="fill"
	d="M100.30 198.00c0.6 5.6 9.6 9 5.6 18.4
	1.6 -6 -1.3 -11.6 -5.6 -12.8
"/>
<path class="fill"
	d="M129.50 198.00l53.90 0.00v3.20l-53.90 -0.00"/>
<use x="126.30" y="219.00" xlink:href="#hd"/>
<path d="M129.80 219.00v-20.00" class="stroke"/>
<use x="152.90" y="216.00" xlink:href="#hd"/>
<path d="M156.40 216.00v-17.00" class="stroke"/>
<use x="179.50" y="219.00" xlink:href="#hd"/>
<path d="M183.00 219.00v-20.00" class="stroke"/>
<use x="215.00" y="213.00" xlink:href="#hd"/>
<path d="M218.50 213.00v-21.00" class="stroke"/>
<use x="256.80" y="219.00" xlink:href="#hd"/>
<path d="M260.30 219.00v-21.00" class="stroke"/>
<path class="fill"
	d="M260.30 198.00c0.6 5.6 9.6 9 5.6 18.4
	1.6 -6 -1.3 -11.6 -5.6 -12.8
"/>
<path class="fill"
	d="M289.50 198.00l53.90 0.00v3.20l-53.90 -0.00"/>
<use x="286.30" y="219.00" xlink:href="#hd"/>
<path d="M289.80 219.00v-20.00" class="stroke"/>
<use x="312.90" y="216.00" xlink:href="#hd"/>
<path d="M316.40 216.00v-17.00" class="stroke"/>
<use x="339.50" y="219.00" xlink:href="#hd"/>
<path d="M343.00 219.00v-20.00" class="stroke"/>
<use x="375.00" y="225.00" xlink:href="#hd"/>
<path d="M378.50 225.00v-21.00" class="stroke"/>
<use x="416.70" y="216.00" xlink:href="#hd"/>
<path d="M420.20 216.00v-21.00" class="stroke"/>
<path class="fill"
	d="M420.20 195.00c0.6 5.6 9.6 9 5.6 18.4
	1.6 -6 -1.3 -11.6 -5.6 -12.8
"/>
<path class="fill"
	d="M449.50 193.80l53.90 0.00v3.20l-53.90 -0.00"/>
<use x="446.30" y="216.00" xlink:href="#hd"/>
<path d="M449.80 216.00v-21.20" class="stroke"/>
<use x="472.90" y="213.00" xlink:href="#hd"/>
<path d="M476.40 213.00v-18.20" class="stroke"/>
<use x="499.50" y="216.00" xlink:href="#hd"/>
<path d="M503.00 216.00v-21.20" class="stroke"/>
<path class="fill"
	d="M538.10 189.50l53.90 5.00v3.20l-53.90 -5.00"/>
<use x="535.00" y="210.00" xlink:href="#hd"/>
<path d="M538.50 210.00v-19.40" class="stroke"/>
<use x="561.60" y="213.00" xlink:href="#hd"/>
<path d="M565.10 213.00v-20.00" class="stroke"/>
<use x="588.20" y="216.00" xlink:href="#hd"/>
<path d="M591.70 216.00v-20.60" class="stroke"/>
<path class="fill"
	d="M620.90 198.50l53.90 5.00v3.20l-53.90 -5.00"/>
<use x="617.70" y="219.00" xlink:href="#hd"/>
<path d="M621.20 219.00v-19.40" class="stroke"/>
<use x="644.30" y="222.00" xlink:href="#hd"/>
<path d="M647.80 222.00v-20.00" class="stroke"/>
<use x="670.90" y="225.00" xlink:href="#hd"/>
<path d="M674.40 225.00v-20.60" class="stroke"/>
</g>
<g stroke-width="0.70" style="font:20.00px Times">
<path class="stroke" stroke-width="1"
	d="M215.20 295.00v-24.00"/>
<path class="stroke" stroke-width="1"
	d="M391.70 295.00v-24.00"/>
<path class="stroke" stroke-width="1"
	d="M580.90 295.00v-24.00"/>
<path class="stroke" stroke-width="3"
	d="M690.10 295.00v-24.00"/>
<path class="stroke" stroke-width="1"
	d="M685.60 295.00v-24.00"/>
<use x="681.60" y="295.00" xlink:href="#rdots"/>
<path d="m10.00 295.00
	h681.60
	M10.00 289.00
	h681.60
	M10.00 283.00
	h681.60
	M10.00 277.00
	h681.60
	M10.00 271.00
	h681.60
	" class="stroke"/>
<use x="22.00" y="289.00" xlink:href="#tclef"/>
<use x="37.00" y="271.00" xlink:href="#sh0"/>
<use x="55.00" y="298.00" xlink:href="#hd"/>
<path d="M58.50 298.00v-21.00" class="stroke"/>
<use x="101.10" y="289.00" xlink:href="#hd"/>
<path d="M104.60 289.00v-21.00" class="stroke"/>
<path class="fill"
	d="M104.60 268.00c0.6 5.6 9.6 9 5.6 18.4
	1.6 -6 -1.3 -11.6 -5.6 -12.8
"/>
<path class="fill"
	d="M136.90 268.00l59.40 0.00v3.20l-59.40 -0.00"/>
<use x="133.70" y="289.00" xlink:href="#hd"/>
<path d="M137.20 289.00v-20.00" class="stroke"/>
<use x="163.00" y="286.00" xlink:href="#hd"/>
<path d="M166.50 286.00v-17.00" class="stroke"/>
<use x="192.40" y="289.00" xlink:href="#hd"/>
<path d="M195.90 289.00v-20.00" class="stroke"/>
<use x="231.50" y="283.00" xlink:href="#hd"/>
<path d="M235.00 283.00v-21.00" class="stroke"/>
<use x="277.60" y="289.00" xlink:href="#hd"/>
<path d="M281.10 289.00v-21.00" class="stroke"/>
<path class="fill"
	d="M281.10 268.00c0.6 5.6 9.6 9 5.6 18.4
	1.6 -6 -1.3 -11.6 -5.6 -12.8
"/>
<path class="fill"
	d="M313.40 268.00l59.40 0.00v3.20l-59.40 -0.00"/>
<use x="310.20" y="289.00" xlink:href="#hd"/>
<path d="M313.70 289.00v-20.00" class="stroke"/>
<use x="339.60" y="286.00" xlink:href="#hd"/>
<path d="M343.10 286.00v-17.00" class="stroke"/>
<use x="368.90" y="289.00" xlink:href="#hd"/>
<path d="M372.40 289.00v-20.00" class="stroke"/>
<path class="fill"
	d="M411.20 257.70l59.40 8.60v3.20l-59.40 -8.60"/>
<use x="408.00" y="277.00" xlink:href="#hd"/>
<path d="M411.50 277.00v-18.30" class="stroke"/>
<use x="437.40" y="283.00" xlink:href="#hd"/>
<path d="M440.90 283.00v-20.00" class="stroke"/>
<use x="466.70" y="289.00" xlink:href="#hd"/>
<path d="M470.20 289.00v-21.70" class="stroke"/>
<path class="fill"
	d="M502.50 276.50l59.40 -5.00v3.20l-59.40 5.00"/>
<use x="499.30" y="298.00" xlink:href="#hd"/>
<path d="M502.80 298.00v-20.50" class="stroke"/>
<use x="528.70" y="295.00" xlink:href="#hd"/>
<path d="M532.20 295.00v-20.00" class="stroke"/>
<use x="558.00" y="292.00" xlink:href="#hd"/>
<path d="M561.50 292.00v-19.50" class="stroke"/>
<use x="597.20" y="289.00" xlink:href="#hd"/>
<circle class="fill" cx="604.90" cy="286.00" r="1.2"/>
<path d="M600.70 289.00v-21.00" class="stroke"/>
<use x="649.60" y="289.00" xlink:href="#hd"/>
<circle class="fill" cx="657.30" cy="286.00" r="1.2"/>
<path d="M653.10 289.00v-21.00" class="stroke"/>
</g>
</svg>
