<?xml version="1.0" standalone="no"?>
<!DOCTYPE svg PUBLIC "-//W3C//DTD SVG 1.1//EN"
	"http://www.w3.org/Graphics/SVG/1.1/DTD/svg11.dtd">
<svg xmlns="http://www.w3.org/2000/svg" version="1.1"
	xmlns:xlink="http://www.w3.org/1999/xlink"
	color="black"
	width="701.60px" height="166.00px">
<style type="text/css">
.fill {fill: currentColor}
.stroke {stroke: currentColor; fill: none}
text{white-space: pre}
</style>
<title>/mnt/ed617834-7c4b-4156-8731-6c17b22f12c7/tims_code/sphinx-tunes/source/ (1) tune 1</title>
<!-- Creator: abcm2ps-8.14.6 -->
<!-- CreationDate: Aug 19, 2021 19:29 -->
<!-- CommandLine: -g '/mnt/ed617834-7c4b-4156-8731-6c17b22f12c7/tims_code/sphinx-tunes/source/_abcfiles/_Concerning Hobbits.abc' -O '/mnt/ed617834-7c4b-4156-8731-6c17b22f12c7/tims_code/sphinx-tunes/source/_abcfiles/Concerning Hobbits.svg' -->
<g stroke-width="0.70" style="font:italic 14.00px Times">
<text x="691.60" y="20.00" text-anchor="end">Howard Shore</text>
</g>
<g stroke-width="0.70" style="font:italic 14.00px Times">
<defs>
<g id="rdots" class="fill">
	<circle cx="0" cy="-9" r="1.2"/>
	<circle cx="0" cy="-15" r="1.2"/>
</g>
</defs>
<use x="110.40" y="73.00" xlink:href="#rdots"/>
<path class="stroke" stroke-width="1"
	d="M106.40 73.00v-24.00"/>
<path class="stroke" stroke-width="3"
	d="M101.90 73.00v-24.00"/>
<path class="stroke" stroke-width="1"
	d="M239.40 73.00v-24.00"/>
<path class="stroke" stroke-width="1"
	d="M339.90 73.00v-24.00"/>
<path class="stroke" stroke-width="1"
	d="M443.70 73.00v-24.00"/>
<path class="stroke" stroke-width="1"
	d="M564.50 73.00v-24.00"/>
<path class="stroke" stroke-width="1"
	d="M691.60 73.00v-24.00"/>
<path d="m10.00 73.00
	h681.60
	M10.00 67.00
	h681.60
	M10.00 61.00
	h681.60
	M10.00 55.00
	h681.60
	M10.00 49.00
	h681.60
	" class="stroke"/>
<defs>
<path id="utclef" class="fill" d="m-50 -90
	c-72 -41 -72 -158 52 -188
	150 -10 220 188 90 256
	-114 52 -275 0 -293 -136
	-15 -181 93 -229 220 -334
	88 -87 79 -133 62 -210
	-51 33 -94 105 -89 186
	17 267 36 374 49 574
	6 96 -19 134 -77 135
	-80 1 -126 -93 -61 -133
	85 -41 133 101 31 105
	23 17 92 37 90 -92
	-10 -223 -39 -342 -50 -617
	0 -90 0 -162 96 -232
	56 72 63 230 22 289
	-74 106 -257 168 -255 316
	9 153 148 185 252 133
	86 -65 29 -192 -80 -176
	-71 12 -105 67 -59 124"/>
<use id="tclef" transform="translate(0,6) scale(0.045)"
	xlink:href="#utclef"/>
</defs>
<use x="22.00" y="67.00" xlink:href="#tclef"/>
<defs>
<path id="usharp" class="fill" d="
	m136 -702
	v890
	h32
	v-890
	m128 840
	h32
	v-888
	h-32
	m-232 286
	v116
	l338 -96
	v-116
	m-338 442
	v116
	l338 -98
	v-114"/>
<use id="sh0" transform="translate(-4,5) scale(0.018)"
	xlink:href="#usharp"/>
</defs>
<use x="37.00" y="49.00" xlink:href="#sh0"/>
<g style="font:bold 16px serif"
	transform="translate(53.00,72.50) scale(1.2,1)">
	<text text-anchor="middle">4</text>
	<text y="-12" text-anchor="middle">4</text>
</g>
<path class="fill"
	d="M74.20 44.10l20.60 -2.40v3.20l-20.60 2.40"/>
<path class="fill"
	d="M87.40 47.60l7.00 -0.80v3.20l-7.00 0.80"/>
<defs>
<ellipse id="hd" rx="4.1" ry="2.9"
	transform="rotate(-20)" class="fill"/>
</defs>
<use x="71.00" y="67.00" xlink:href="#hd"/>
<circle class="fill" cx="78.70" cy="64.00" r="1.2"/>
<path d="M74.50 67.00v-21.90" class="stroke"/>
<use x="90.90" y="64.00" xlink:href="#hd"/>
<path d="M94.40 64.00v-21.20" class="stroke"/>
<use x="123.90" y="61.00" xlink:href="#hd"/>
<path d="M127.40 61.00v-21.00" class="stroke"/>
<use x="149.40" y="55.00" xlink:href="#hd"/>
<path d="M145.90 55.00v21.00" class="stroke"/>
<path class="fill"
	d="M175.30 40.40l17.20 2.30v3.20l-17.20 -2.30"/>
<use x="172.20" y="61.00" xlink:href="#hd"/>
<path d="M175.70 61.00v-19.60" class="stroke"/>
<use x="188.70" y="64.00" xlink:href="#hd"/>
<path d="M192.20 64.00v-20.40" class="stroke"/>
<path class="fill"
	d="M210.10 44.10l20.60 -2.40v3.20l-20.60 2.40"/>
<path class="fill"
	d="M223.40 47.60l7.00 -0.80v3.20l-7.00 0.80"/>
<use x="206.90" y="67.00" xlink:href="#hd"/>
<circle class="fill" cx="214.60" cy="64.00" r="1.2"/>
<path d="M210.40 67.00v-21.90" class="stroke"/>
<use x="226.90" y="64.00" xlink:href="#hd"/>
<path d="M230.40 64.00v-21.20" class="stroke"/>
<defs>
<path id="Hd" class="fill" d="m3 -1.6
	c-1 -1.8 -7 1.4 -6 3.2
	1 1.8 7 -1.4 6 -3.2
	m0.5 -0.3
	c2 3.8 -5 7.6 -7 3.8
	-2 -3.8 5 -7.6 7 -3.8"/>
</defs>
<use x="252.40" y="67.00" xlink:href="#Hd"/>
<path d="M255.90 67.00v-21.00" class="stroke"/>
<defs>
<path id="r8e" class="fill" d="m 0 0
	c-1.5 1.5 -2.4 2 -3.6 2
	2.4 -2.8 -2.8 -4 -2.8 -1.2
	c0 2.7 4.3 2.4 5.9 0.6"/>
<g id="r8">
	<path d="m3.3 -4l-3.4 9.6" class="stroke"/>
	<use x="3.4" y="-4" xlink:href="#r8e"/>
</g>
</defs>
<use x="284.00" y="61.00" xlink:href="#r8"/>
<use x="300.50" y="61.00" xlink:href="#hd"/>
<path d="M304.00 61.00v-21.00" class="stroke"/>
<use x="326.00" y="55.00" xlink:href="#hd"/>
<path d="M322.50 55.00v21.00" class="stroke"/>
<path class="fill"
	d="M322.50 76.00c0.6 -5.6 9.6 -9 5.6 -18.4
	1.6 6 -1.3 11.6 -5.6 12.8
"/>
<use x="352.40" y="52.00" xlink:href="#hd"/>
<circle class="fill" cx="360.10" cy="52.00" r="1.2"/>
<path d="M348.90 52.00v21.00" class="stroke"/>
<use x="382.00" y="46.00" xlink:href="#hd"/>
<path d="M378.50 46.00v21.00" class="stroke"/>
<path class="fill"
	d="M378.50 67.00c0.6 -5.6 9.6 -9 5.6 -18.4
	1.6 6 -1.3 11.6 -5.6 12.8
"/>
<use x="400.20" y="49.00" xlink:href="#hd"/>
<circle class="fill" cx="407.90" cy="46.00" r="1.2"/>
<path d="M396.70 49.00v21.00" class="stroke"/>
<use x="429.90" y="55.00" xlink:href="#hd"/>
<path d="M426.40 55.00v21.00" class="stroke"/>
<path class="fill"
	d="M426.40 76.00c0.6 -5.6 9.6 -9 5.6 -18.4
	1.6 6 -1.3 11.6 -5.6 12.8
"/>
<use x="456.20" y="61.00" xlink:href="#hd"/>
<circle class="fill" cx="463.90" cy="58.00" r="1.2"/>
<path d="M452.70 61.00v21.00" class="stroke"/>
<path class="fill"
	d="M482.00 81.40l12.80 2.10v-3.20l-12.80 -2.10"/>
<path class="fill"
	d="M482.40 76.50l12.20 2.00v-3.20l-12.20 -2.00"/>
<use x="485.90" y="58.00" xlink:href="#hd"/>
<path d="M482.40 58.00v22.50" class="stroke"/>
<use x="498.00" y="61.00" xlink:href="#hd"/>
<path d="M494.50 61.00v21.50" class="stroke"/>
<use x="510.20" y="64.00" xlink:href="#hd"/>
<circle class="fill" cx="517.90" cy="64.00" r="1.2"/>
<path d="M513.70 64.00v-21.00" class="stroke"/>
<path class="fill"
	d="M543.00 43.90l12.80 -2.10v3.20l-12.80 2.10"/>
<path class="fill"
	d="M543.30 48.80l12.20 -2.00v3.20l-12.20 2.00"/>
<use x="539.80" y="67.00" xlink:href="#hd"/>
<path d="M543.30 67.00v-22.20" class="stroke"/>
<use x="552.00" y="64.00" xlink:href="#hd"/>
<path d="M555.50 64.00v-21.20" class="stroke"/>
<use x="577.00" y="61.00" xlink:href="#hd"/>
<path d="M580.50 61.00v-21.00" class="stroke"/>
<use x="602.50" y="55.00" xlink:href="#hd"/>
<path d="M599.00 55.00v21.00" class="stroke"/>
<path class="fill"
	d="M628.40 38.70l12.80 2.10v3.20l-12.80 -2.10"/>
<path class="fill"
	d="M635.70 45.00l-7.00 -1.20v3.20l7.00 1.20"/>
<use x="625.20" y="61.00" xlink:href="#hd"/>
<path d="M628.70 61.00v-21.20" class="stroke"/>
<use x="637.40" y="64.00" xlink:href="#hd"/>
<circle class="fill" cx="645.10" cy="64.00" r="1.2"/>
<path d="M640.90 64.00v-22.20" class="stroke"/>
<path class="fill"
	d="M662.30 44.10l20.60 -2.40v3.20l-20.60 2.40"/>
<path class="fill"
	d="M675.60 47.60l7.00 -0.80v3.20l-7.00 0.80"/>
<use x="659.20" y="67.00" xlink:href="#hd"/>
<circle class="fill" cx="666.90" cy="64.00" r="1.2"/>
<path d="M662.70 67.00v-21.90" class="stroke"/>
<use x="679.10" y="64.00" xlink:href="#hd"/>
<path d="M682.60 64.00v-21.20" class="stroke"/>
</g>
<g stroke-width="0.70" style="font:italic 14.00px Times">
<path class="stroke" stroke-width="1"
	d="M180.40 143.00v-24.00"/>
<path class="stroke" stroke-width="1"
	d="M307.60 143.00v-24.00"/>
<path class="stroke" stroke-width="1"
	d="M466.60 143.00v-24.00"/>
<path class="stroke" stroke-width="1"
	d="M593.80 143.00v-24.00"/>
<path class="stroke" stroke-width="1"
	d="M691.60 143.00v-24.00"/>
<path d="m10.00 143.00
	h681.60
	M10.00 137.00
	h681.60
	M10.00 131.00
	h681.60
	M10.00 125.00
	h681.60
	M10.00 119.00
	h681.60
	" class="stroke"/>
<use x="22.00" y="137.00" xlink:href="#tclef"/>
<use x="37.00" y="119.00" xlink:href="#sh0"/>
<use x="55.50" y="137.00" xlink:href="#Hd"/>
<path d="M59.00 137.00v-21.00" class="stroke"/>
<use x="102.10" y="131.00" xlink:href="#r8"/>
<use x="125.50" y="131.00" xlink:href="#hd"/>
<path d="M129.00 131.00v-21.00" class="stroke"/>
<use x="162.20" y="125.00" xlink:href="#hd"/>
<path d="M158.70 125.00v21.00" class="stroke"/>
<path class="fill"
	d="M158.70 146.00c0.6 -5.6 9.6 -9 5.6 -18.4
	1.6 6 -1.3 11.6 -5.6 12.8
"/>
<use x="193.40" y="122.00" xlink:href="#Hd"/>
<path d="M189.90 122.00v21.00" class="stroke"/>
<use x="245.20" y="125.00" xlink:href="#hd"/>
<path d="M241.70 125.00v21.00" class="stroke"/>
<use x="281.90" y="131.00" xlink:href="#hd"/>
<path d="M278.40 131.00v21.00" class="stroke"/>
<use x="320.60" y="131.00" xlink:href="#hd"/>
<circle class="fill" cx="328.30" cy="128.00" r="1.2"/>
<path d="M317.10 131.00v21.00" class="stroke"/>
<path class="fill"
	d="M358.50 151.40l17.20 2.30v-3.20l-17.20 -2.30"/>
<path class="fill"
	d="M358.90 146.40l16.50 2.20v-3.20l-16.50 -2.20"/>
<use x="362.40" y="128.00" xlink:href="#hd"/>
<path d="M358.90 128.00v22.40" class="stroke"/>
<use x="378.90" y="131.00" xlink:href="#hd"/>
<path d="M375.40 131.00v21.60" class="stroke"/>
<use x="395.40" y="134.00" xlink:href="#hd"/>
<circle class="fill" cx="403.10" cy="134.00" r="1.2"/>
<path d="M398.90 134.00v-21.00" class="stroke"/>
<path class="fill"
	d="M440.40 114.00l17.20 -2.30v3.20l-17.20 2.30"/>
<path class="fill"
	d="M440.70 119.00l16.50 -2.20v3.20l-16.50 2.20"/>
<use x="437.20" y="137.00" xlink:href="#hd"/>
<path d="M440.70 137.00v-22.00" class="stroke"/>
<use x="453.70" y="134.00" xlink:href="#hd"/>
<path d="M457.20 134.00v-21.20" class="stroke"/>
<use x="479.70" y="137.00" xlink:href="#hd"/>
<path d="M483.20 137.00v-21.00" class="stroke"/>
<use x="516.30" y="131.00" xlink:href="#Hd"/>
<path d="M519.80 131.00v-21.00" class="stroke"/>
<use x="568.10" y="134.00" xlink:href="#hd"/>
<path d="M571.60 134.00v-21.00" class="stroke"/>
<use x="606.90" y="137.00" xlink:href="#Hd"/>
<circle class="fill" cx="615.60" cy="134.00" r="1.2"/>
<path d="M610.40 137.00v-21.00" class="stroke"/>
<defs>
<path id="r4" class="fill" d="m-1 -8.5
	l3.6 5.1 -2.1 5.2 2.2 4.3
	c-2.6 -2.3 -5.1 0 -2.4 2.6
	-4.8 -3 -1.5 -6.9 1.4 -4.1
	l-3.1 -4.5 1.9 -5.1 -1.5 -3.5"/>
</defs>
<use x="665.90" y="131.00" xlink:href="#r4"/>
</g>
</svg>
