<?xml version="1.0" standalone="no"?>
<!DOCTYPE svg PUBLIC "-//W3C//DTD SVG 1.1//EN"
	"http://www.w3.org/Graphics/SVG/1.1/DTD/svg11.dtd">
<svg xmlns="http://www.w3.org/2000/svg" version="1.1"
	xmlns:xlink="http://www.w3.org/1999/xlink"
	color="black"
	width="701.60px" height="704.00px">
<style type="text/css">
.fill {fill: currentColor}
.stroke {stroke: currentColor; fill: none}
text{white-space: pre}
</style>
<title>/media/tim/Data1/tims_code/sphinx-tunes/source/_abcfiles/Da Slockit Ligh (1) tune 1</title>
<!-- Creator: abcm2ps-8.14.6 -->
<!-- CreationDate: Jul 30, 2023 12:21 -->
<!-- CommandLine: -g '/media/tim/Data1/tims_code/sphinx-tunes/source/_abcfiles/Da Slockit Light.abc' -O '/media/tim/Data1/tims_code/sphinx-tunes/source/_abcfiles/Da Slockit Light.svg' -->
<g stroke-width="0.70">
<!-- title: Da Slockit Light -->
</g>
<g stroke-width="0.70" style="font:20.00px Times">
<text x="350.80" y="22.00" text-anchor="middle">Da Slockit Light</text>
</g>
<g stroke-width="0.70" style="font:italic 14.00px Times">
<text x="691.60" y="46.00" text-anchor="end">Tom Anderson</text>
</g>
<g stroke-width="0.70" style="font:italic 14.00px Times">
<path class="stroke" stroke-width="1"
	d="M10.00 157.00v-82.00"/>
<path class="stroke" stroke-width="1"
	d="M110.90 99.00v-24.00"/>
<path class="stroke" stroke-width="1"
	d="M110.90 157.00v-58.00"/>
<path class="stroke" stroke-width="1"
	d="M230.50 99.00v-24.00"/>
<path class="stroke" stroke-width="1"
	d="M230.50 157.00v-58.00"/>
<path class="stroke" stroke-width="1"
	d="M372.70 99.00v-24.00"/>
<path class="stroke" stroke-width="1"
	d="M372.70 157.00v-58.00"/>
<path class="stroke" stroke-width="1"
	d="M527.70 99.00v-24.00"/>
<path class="stroke" stroke-width="1"
	d="M527.70 157.00v-58.00"/>
<path class="stroke" stroke-width="1"
	d="M691.60 99.00v-24.00"/>
<path class="stroke" stroke-width="1"
	d="M691.60 157.00v-58.00"/>
<path d="m10.00 99.00
	h681.60
	M10.00 93.00
	h681.60
	M10.00 87.00
	h681.60
	M10.00 81.00
	h681.60
	M10.00 75.00
	h681.60
	" class="stroke"/>
<path d="m10.00 157.00
	h681.60
	M10.00 151.00
	h681.60
	M10.00 145.00
	h681.60
	M10.00 139.00
	h681.60
	M10.00 133.00
	h681.60
	" class="stroke"/>
<defs>
<path id="utclef" class="fill" d="m-50 -90
	c-72 -41 -72 -158 52 -188
	150 -10 220 188 90 256
	-114 52 -275 0 -293 -136
	-15 -181 93 -229 220 -334
	88 -87 79 -133 62 -210
	-51 33 -94 105 -89 186
	17 267 36 374 49 574
	6 96 -19 134 -77 135
	-80 1 -126 -93 -61 -133
	85 -41 133 101 31 105
	23 17 92 37 90 -92
	-10 -223 -39 -342 -50 -617
	0 -90 0 -162 96 -232
	56 72 63 230 22 289
	-74 106 -257 168 -255 316
	9 153 148 185 252 133
	86 -65 29 -192 -80 -176
	-71 12 -105 67 -59 124"/>
<use id="tclef" transform="translate(0,6) scale(0.045)"
	xlink:href="#utclef"/>
</defs>
<use x="22.00" y="93.00" xlink:href="#tclef"/>
<defs>
<path id="usharp" class="fill" d="
	m136 -702
	v890
	h32
	v-890
	m128 840
	h32
	v-888
	h-32
	m-232 286
	v116
	l338 -96
	v-116
	m-338 442
	v116
	l338 -98
	v-114"/>
<use id="sh0" transform="translate(-4,5) scale(0.018)"
	xlink:href="#usharp"/>
</defs>
<use x="37.00" y="75.00" xlink:href="#sh0"/>
<use x="42.50" y="84.00" xlink:href="#sh0"/>
<g style="font:bold 16px serif"
	transform="translate(58.50,98.50) scale(1.2,1)">
	<text text-anchor="middle">4</text>
	<text y="-12" text-anchor="middle">4</text>
</g>
<path class="fill"
	d="M79.70 75.30l19.80 2.40v3.20l-19.80 -2.40"/>
<defs>
<ellipse id="hd" rx="4.1" ry="2.9"
	transform="rotate(-20)" class="fill"/>
</defs>
<use x="76.50" y="96.00" xlink:href="#hd"/>
<path d="M80.00 96.00v-19.60" class="stroke"/>
<use x="95.70" y="99.00" xlink:href="#hd"/>
<path d="M99.20 99.00v-20.40" class="stroke"/>
<use x="123.40" y="102.00" xlink:href="#hd"/>
<circle class="fill" cx="131.10" cy="102.00" r="1.2"/>
<path d="M126.90 102.00v-21.00" class="stroke"/>
<use x="157.90" y="96.00" xlink:href="#hd"/>
<path d="M161.40 96.00v-21.00" class="stroke"/>
<path class="fill"
	d="M161.40 75.00c0.6 5.6 9.6 9 5.6 18.4
	1.6 -6 -1.3 -11.6 -5.6 -12.8
"/>
<use x="179.40" y="90.00" xlink:href="#hd"/>
<path d="M182.90 90.00v-21.00" class="stroke"/>
<use x="209.30" y="81.00" xlink:href="#hd"/>
<path d="M205.80 81.00v21.00" class="stroke"/>
<path class="fill"
	d="M239.20 97.00l58.10 6.90v-3.20l-58.10 -6.90"/>
<use x="243.00" y="75.00" xlink:href="#hd"/>
<path d="M239.50 75.00v21.10" class="stroke"/>
<use x="262.20" y="78.00" xlink:href="#hd"/>
<path d="M258.70 78.00v20.40" class="stroke"/>
<use x="281.30" y="81.00" xlink:href="#hd"/>
<path d="M277.80 81.00v19.60" class="stroke"/>
<use x="300.50" y="84.00" xlink:href="#hd"/>
<path d="M297.00 84.00v18.90" class="stroke"/>
<use x="321.70" y="81.00" xlink:href="#hd"/>
<path d="M318.20 81.00v21.00" class="stroke"/>
<use x="351.40" y="90.00" xlink:href="#hd"/>
<path d="M354.90 90.00v-21.00" class="stroke"/>
<use x="385.20" y="87.00" xlink:href="#hd"/>
<path d="M388.70 87.00v-21.00" class="stroke"/>
<use x="425.50" y="81.00" xlink:href="#hd"/>
<path d="M422.00 81.00v21.00" class="stroke"/>
<use x="466.10" y="90.00" xlink:href="#hd"/>
<path d="M469.60 90.00v-21.00" class="stroke"/>
<use x="506.50" y="81.00" xlink:href="#hd"/>
<path d="M503.00 81.00v21.00" class="stroke"/>
<path class="fill"
	d="M543.30 67.00l58.10 6.90v3.20l-58.10 -6.90"/>
<use x="540.20" y="87.00" xlink:href="#hd"/>
<path d="M543.70 87.00v-18.90" class="stroke"/>
<use x="559.30" y="90.00" xlink:href="#hd"/>
<path d="M562.80 90.00v-19.60" class="stroke"/>
<use x="578.50" y="93.00" xlink:href="#hd"/>
<path d="M582.00 93.00v-20.40" class="stroke"/>
<use x="597.70" y="96.00" xlink:href="#hd"/>
<path d="M601.20 96.00v-21.10" class="stroke"/>
<path class="fill"
	d="M622.00 74.80l58.10 0.00v3.20l-58.10 -0.00"/>
<use x="618.90" y="99.00" xlink:href="#hd"/>
<path d="M622.40 99.00v-23.20" class="stroke"/>
<use x="638.00" y="93.00" xlink:href="#hd"/>
<path d="M641.50 93.00v-17.20" class="stroke"/>
<use x="657.20" y="96.00" xlink:href="#hd"/>
<path d="M660.70 96.00v-20.20" class="stroke"/>
<use x="676.30" y="99.00" xlink:href="#hd"/>
<path d="M679.80 99.00v-23.20" class="stroke"/>
<use x="22.00" y="151.00" xlink:href="#tclef"/>
<use x="37.00" y="133.00" xlink:href="#sh0"/>
<use x="42.50" y="142.00" xlink:href="#sh0"/>
<g style="font:bold 16px serif"
	transform="translate(58.50,156.50) scale(1.2,1)">
	<text text-anchor="middle">4</text>
	<text y="-12" text-anchor="middle">4</text>
</g>
<path class="fill"
	d="M72.70 162.50l19.80 4.80v-3.20l-19.80 -4.80"/>
<use x="76.50" y="139.00" xlink:href="#hd"/>
<path d="M73.00 139.00v22.60" class="stroke"/>
<use x="95.70" y="148.00" xlink:href="#hd"/>
<path d="M92.20 148.00v18.20" class="stroke"/>
<use x="123.40" y="154.00" xlink:href="#hd"/>
<circle class="fill" cx="131.10" cy="154.00" r="1.2"/>
<path d="M126.90 154.00v-21.00" class="stroke"/>
<use x="157.90" y="139.00" xlink:href="#hd"/>
<path d="M154.40 139.00v21.00" class="stroke"/>
<path class="fill"
	d="M154.40 160.00c0.6 -5.6 9.6 -9 5.6 -18.4
	1.6 6 -1.3 11.6 -5.6 12.8
"/>
<use x="179.40" y="154.00" xlink:href="#hd"/>
<path d="M182.90 154.00v-21.00" class="stroke"/>
<use x="209.30" y="151.00" xlink:href="#hd"/>
<path d="M212.80 151.00v-21.00" class="stroke"/>
<path class="fill"
	d="M246.20 128.00l58.10 6.90v3.20l-58.10 -6.90"/>
<use x="243.00" y="148.00" xlink:href="#hd"/>
<path d="M246.50 148.00v-18.90" class="stroke"/>
<use x="262.20" y="151.00" xlink:href="#hd"/>
<path d="M265.70 151.00v-19.60" class="stroke"/>
<use x="281.30" y="154.00" xlink:href="#hd"/>
<path d="M284.80 154.00v-20.40" class="stroke"/>
<use x="300.50" y="157.00" xlink:href="#hd"/>
<path d="M304.00 157.00v-21.10" class="stroke"/>
<use x="321.70" y="154.00" xlink:href="#hd"/>
<path d="M325.20 154.00v-21.00" class="stroke"/>
<use x="351.40" y="160.00" xlink:href="#hd"/>
<path d="M354.90 160.00v-21.00" class="stroke"/>
<path class="fill"
	d="M388.30 129.00l60.20 -6.90v3.20l-60.20 6.90"/>
<use x="385.20" y="151.00" xlink:href="#hd"/>
<path d="M388.70 151.00v-21.10" class="stroke"/>
<use x="404.30" y="148.00" xlink:href="#hd"/>
<path d="M407.80 148.00v-20.30" class="stroke"/>
<use x="425.50" y="145.00" xlink:href="#hd"/>
<path d="M429.00 145.00v-19.70" class="stroke"/>
<use x="444.70" y="142.00" xlink:href="#hd"/>
<path d="M448.20 142.00v-18.90" class="stroke"/>
<path class="fill"
	d="M462.20 159.70l19.80 -2.40v-3.20l-19.80 2.40"/>
<use x="466.10" y="139.00" xlink:href="#hd"/>
<path d="M462.60 139.00v19.60" class="stroke"/>
<use x="485.20" y="136.00" xlink:href="#hd"/>
<path d="M481.70 136.00v20.40" class="stroke"/>
<use x="506.50" y="133.00" xlink:href="#hd"/>
<path d="M503.00 133.00v21.00" class="stroke"/>
<path class="fill"
	d="M536.30 152.00l58.10 6.90v-3.20l-58.10 -6.90"/>
<use x="540.20" y="130.00" xlink:href="#hd"/>
<path d="M536.70 130.00v21.10" class="stroke"/>
<use x="559.30" y="133.00" xlink:href="#hd"/>
<path d="M555.80 133.00v20.40" class="stroke"/>
<use x="578.50" y="136.00" xlink:href="#hd"/>
<path d="M575.00 136.00v19.60" class="stroke"/>
<use x="597.70" y="139.00" xlink:href="#hd"/>
<path d="M594.20 139.00v18.90" class="stroke"/>
<path class="fill"
	d="M622.00 122.00l58.10 6.90v3.20l-58.10 -6.90"/>
<use x="618.90" y="142.00" xlink:href="#hd"/>
<path d="M622.40 142.00v-18.90" class="stroke"/>
<use x="638.00" y="145.00" xlink:href="#hd"/>
<path d="M641.50 145.00v-19.60" class="stroke"/>
<use x="657.20" y="148.00" xlink:href="#hd"/>
<path d="M660.70 148.00v-20.40" class="stroke"/>
<use x="676.30" y="151.00" xlink:href="#hd"/>
<path d="M679.80 151.00v-21.10" class="stroke"/>
</g>
<g stroke-width="0.70" style="font:italic 14.00px Times">
<path class="stroke" stroke-width="1"
	d="M10.00 285.00v-82.00"/>
<path class="stroke" stroke-width="1"
	d="M206.70 227.00v-24.00"/>
<path class="stroke" stroke-width="1"
	d="M206.70 285.00v-58.00"/>
<path class="stroke" stroke-width="1"
	d="M399.30 227.00v-24.00"/>
<path class="stroke" stroke-width="1"
	d="M399.30 285.00v-58.00"/>
<path class="stroke" stroke-width="1"
	d="M623.90 227.00v-24.00"/>
<path class="stroke" stroke-width="1"
	d="M623.90 285.00v-58.00"/>
<path class="stroke" stroke-width="3"
	d="M690.10 227.00v-24.00"/>
<path class="stroke" stroke-width="1"
	d="M685.60 227.00v-24.00"/>
<defs>
<g id="rdots" class="fill">
	<circle cx="0" cy="-9" r="1.2"/>
	<circle cx="0" cy="-15" r="1.2"/>
</g>
</defs>
<use x="681.60" y="227.00" xlink:href="#rdots"/>
<path class="stroke" stroke-width="3"
	d="M690.10 285.00v-58.00"/>
<path class="stroke" stroke-width="1"
	d="M685.60 285.00v-58.00"/>
<use x="681.60" y="285.00" xlink:href="#rdots"/>
<path d="m10.00 227.00
	h681.60
	M10.00 221.00
	h681.60
	M10.00 215.00
	h681.60
	M10.00 209.00
	h681.60
	M10.00 203.00
	h681.60
	" class="stroke"/>
<path d="m10.00 285.00
	h681.60
	M10.00 279.00
	h681.60
	M10.00 273.00
	h681.60
	M10.00 267.00
	h681.60
	M10.00 261.00
	h681.60
	" class="stroke"/>
<use x="22.00" y="221.00" xlink:href="#tclef"/>
<use x="37.00" y="203.00" xlink:href="#sh0"/>
<use x="42.50" y="212.00" xlink:href="#sh0"/>
<use x="60.50" y="230.00" xlink:href="#hd"/>
<circle class="fill" cx="68.20" cy="230.00" r="1.2"/>
<path d="M64.00 230.00v-21.00" class="stroke"/>
<use x="107.40" y="224.00" xlink:href="#hd"/>
<path d="M110.90 224.00v-21.00" class="stroke"/>
<path class="fill"
	d="M110.90 203.00c0.6 5.6 9.6 9 5.6 18.4
	1.6 -6 -1.3 -11.6 -5.6 -12.8
"/>
<use x="136.60" y="218.00" xlink:href="#hd"/>
<path d="M140.10 218.00v-21.00" class="stroke"/>
<use x="177.80" y="209.00" xlink:href="#hd"/>
<path d="M174.30 209.00v21.00" class="stroke"/>
<path class="fill"
	d="M217.40 224.80l79.40 7.40v-3.20l-79.40 -7.40"/>
<use x="221.30" y="203.00" xlink:href="#hd"/>
<path d="M217.80 203.00v20.80" class="stroke"/>
<use x="247.50" y="206.00" xlink:href="#hd"/>
<path d="M244.00 206.00v20.30" class="stroke"/>
<use x="273.80" y="209.00" xlink:href="#hd"/>
<path d="M270.30 209.00v19.70" class="stroke"/>
<use x="300.00" y="212.00" xlink:href="#hd"/>
<path d="M296.50 212.00v19.20" class="stroke"/>
<use x="329.20" y="209.00" xlink:href="#hd"/>
<path d="M325.70 209.00v21.00" class="stroke"/>
<use x="370.40" y="218.00" xlink:href="#hd"/>
<path d="M373.90 218.00v-21.00" class="stroke"/>
<use x="413.90" y="215.00" xlink:href="#hd"/>
<path d="M417.40 215.00v-21.00" class="stroke"/>
<use x="469.30" y="221.00" xlink:href="#hd"/>
<path d="M472.80 221.00v-21.00" class="stroke"/>
<path class="fill"
	d="M527.90 197.80l79.40 7.40v3.20l-79.40 -7.40"/>
<use x="524.70" y="218.00" xlink:href="#hd"/>
<path d="M528.20 218.00v-19.20" class="stroke"/>
<use x="551.00" y="221.00" xlink:href="#hd"/>
<path d="M554.50 221.00v-19.70" class="stroke"/>
<use x="577.20" y="224.00" xlink:href="#hd"/>
<path d="M580.70 224.00v-20.30" class="stroke"/>
<use x="603.50" y="227.00" xlink:href="#hd"/>
<path d="M607.00 227.00v-20.80" class="stroke"/>
<defs>
<path id="Hd" class="fill" d="m3 -1.6
	c-1 -1.8 -7 1.4 -6 3.2
	1 1.8 7 -1.4 6 -3.2
	m0.5 -0.3
	c2 3.8 -5 7.6 -7 3.8
	-2 -3.8 5 -7.6 7 -3.8"/>
</defs>
<use x="638.50" y="230.00" xlink:href="#Hd"/>
<circle class="fill" cx="647.20" cy="230.00" r="1.2"/>
<path d="M642.00 230.00v-21.00" class="stroke"/>
<use x="22.00" y="279.00" xlink:href="#tclef"/>
<use x="37.00" y="261.00" xlink:href="#sh0"/>
<use x="42.50" y="270.00" xlink:href="#sh0"/>
<use x="60.50" y="282.00" xlink:href="#hd"/>
<circle class="fill" cx="68.20" cy="282.00" r="1.2"/>
<path d="M64.00 282.00v-21.00" class="stroke"/>
<use x="107.40" y="267.00" xlink:href="#hd"/>
<path d="M103.90 267.00v21.00" class="stroke"/>
<path class="fill"
	d="M103.90 288.00c0.6 -5.6 9.6 -9 5.6 -18.4
	1.6 6 -1.3 11.6 -5.6 12.8
"/>
<use x="136.60" y="282.00" xlink:href="#hd"/>
<path d="M140.10 282.00v-21.00" class="stroke"/>
<use x="177.80" y="279.00" xlink:href="#hd"/>
<path d="M181.30 279.00v-21.00" class="stroke"/>
<path class="fill"
	d="M224.40 255.80l79.40 7.40v3.20l-79.40 -7.40"/>
<use x="221.30" y="276.00" xlink:href="#hd"/>
<path d="M224.80 276.00v-19.20" class="stroke"/>
<use x="247.50" y="279.00" xlink:href="#hd"/>
<path d="M251.00 279.00v-19.70" class="stroke"/>
<use x="273.80" y="282.00" xlink:href="#hd"/>
<path d="M277.30 282.00v-20.30" class="stroke"/>
<use x="300.00" y="285.00" xlink:href="#hd"/>
<path d="M303.50 285.00v-20.80" class="stroke"/>
<use x="329.20" y="282.00" xlink:href="#hd"/>
<path d="M332.70 282.00v-21.00" class="stroke"/>
<use x="370.40" y="288.00" xlink:href="#hd"/>
<path d="M373.90 288.00v-21.00" class="stroke"/>
<path class="fill"
	d="M417.00 253.80l82.40 -6.00v3.20l-82.40 6.00"/>
<use x="413.90" y="279.00" xlink:href="#hd"/>
<path d="M417.40 279.00v-24.30" class="stroke"/>
<use x="440.10" y="276.00" xlink:href="#hd"/>
<path d="M443.60 276.00v-23.20" class="stroke"/>
<use x="469.30" y="273.00" xlink:href="#hd"/>
<path d="M472.80 273.00v-22.30" class="stroke"/>
<use x="495.60" y="267.00" xlink:href="#hd"/>
<path d="M499.10 267.00v-18.20" class="stroke"/>
<path class="fill"
	d="M527.90 249.80l79.40 7.40v3.20l-79.40 -7.40"/>
<use x="524.70" y="270.00" xlink:href="#hd"/>
<path d="M528.20 270.00v-19.20" class="stroke"/>
<use x="551.00" y="273.00" xlink:href="#hd"/>
<path d="M554.50 273.00v-19.70" class="stroke"/>
<use x="577.20" y="276.00" xlink:href="#hd"/>
<path d="M580.70 276.00v-20.30" class="stroke"/>
<use x="603.50" y="279.00" xlink:href="#hd"/>
<path d="M607.00 279.00v-20.80" class="stroke"/>
<use x="638.50" y="282.00" xlink:href="#Hd"/>
<circle class="fill" cx="647.20" cy="282.00" r="1.2"/>
<path d="M642.00 282.00v-21.00" class="stroke"/>
</g>
<g stroke-width="0.70" style="font:italic 14.00px Times">
<path class="stroke" stroke-width="1"
	d="M10.00 413.00v-82.00"/>
<path class="stroke" stroke-width="1"
	d="M82.40 355.00v-24.00"/>
<path class="stroke" stroke-width="1"
	d="M82.40 413.00v-58.00"/>
<path class="stroke" stroke-width="1"
	d="M236.10 355.00v-24.00"/>
<path class="stroke" stroke-width="1"
	d="M236.10 413.00v-58.00"/>
<path class="stroke" stroke-width="1"
	d="M381.40 355.00v-24.00"/>
<path class="stroke" stroke-width="1"
	d="M381.40 413.00v-58.00"/>
<path class="stroke" stroke-width="1"
	d="M519.80 355.00v-24.00"/>
<path class="stroke" stroke-width="1"
	d="M519.80 413.00v-58.00"/>
<path class="stroke" stroke-width="1"
	d="M691.60 355.00v-24.00"/>
<path class="stroke" stroke-width="1"
	d="M691.60 413.00v-58.00"/>
<path d="m10.00 355.00
	h681.60
	M10.00 349.00
	h681.60
	M10.00 343.00
	h681.60
	M10.00 337.00
	h681.60
	M10.00 331.00
	h681.60
	" class="stroke"/>
<path d="m10.00 413.00
	h681.60
	M10.00 407.00
	h681.60
	M10.00 401.00
	h681.60
	M10.00 395.00
	h681.60
	M10.00 389.00
	h681.60
	" class="stroke"/>
<use x="22.00" y="349.00" xlink:href="#tclef"/>
<use x="37.00" y="331.00" xlink:href="#sh0"/>
<use x="42.50" y="340.00" xlink:href="#sh0"/>
<use x="60.50" y="328.00" xlink:href="#hd"/>
<path d="M57.00 328.00v21.00" class="stroke"/>
<use x="94.90" y="331.00" xlink:href="#hd"/>
<path d="M91.40 331.00v21.00" class="stroke"/>
<defs>
<path id="hl" class="stroke" d="m-6 0h12"/>
</defs>
<use x="136.70" y="325.00" xlink:href="#hl"/>
<use x="136.70" y="325.00" xlink:href="#hd"/>
<path d="M133.20 325.00v21.00" class="stroke"/>
<use x="167.60" y="334.00" xlink:href="#hd"/>
<circle class="fill" cx="175.30" cy="334.00" r="1.2"/>
<path d="M164.10 334.00v21.00" class="stroke"/>
<use x="220.40" y="340.00" xlink:href="#hd"/>
<path d="M216.90 340.00v21.00" class="stroke"/>
<path class="fill"
	d="M216.90 361.00c0.6 -5.6 9.6 -9 5.6 -18.4
	1.6 6 -1.3 11.6 -5.6 12.8
"/>
<use x="248.60" y="337.00" xlink:href="#hd"/>
<circle class="fill" cx="256.30" cy="334.00" r="1.2"/>
<path d="M245.10 337.00v21.00" class="stroke"/>
<use x="284.10" y="334.00" xlink:href="#hd"/>
<path d="M280.60 334.00v21.00" class="stroke"/>
<path class="fill"
	d="M280.60 355.00c0.6 -5.6 9.6 -9 5.6 -18.4
	1.6 6 -1.3 11.6 -5.6 12.8
"/>
<path class="fill"
	d="M302.40 359.00l60.20 7.00v-3.20l-60.20 -7.00"/>
<use x="306.20" y="337.00" xlink:href="#hd"/>
<path d="M302.70 337.00v21.00" class="stroke"/>
<use x="326.10" y="340.00" xlink:href="#hd"/>
<path d="M322.60 340.00v20.30" class="stroke"/>
<use x="345.90" y="343.00" xlink:href="#hd"/>
<path d="M342.40 343.00v19.70" class="stroke"/>
<use x="365.70" y="346.00" xlink:href="#hd"/>
<path d="M362.20 346.00v19.00" class="stroke"/>
<use x="393.90" y="331.00" xlink:href="#hd"/>
<path d="M390.40 331.00v21.00" class="stroke"/>
<use x="435.70" y="325.00" xlink:href="#hl"/>
<use x="435.70" y="325.00" xlink:href="#hd"/>
<path d="M432.20 325.00v21.00" class="stroke"/>
<use x="466.60" y="334.00" xlink:href="#hd"/>
<path d="M463.10 334.00v21.00" class="stroke"/>
<use x="497.90" y="328.00" xlink:href="#hd"/>
<use x="488.90" y="328.00" xlink:href="#sh0"/>
<path d="M494.40 328.00v25.00" class="stroke"/>
<use x="497.90" y="334.00" xlink:href="#hd"/>
<use x="532.80" y="325.00" xlink:href="#hl"/>
<use x="532.80" y="325.00" xlink:href="#Hd"/>
<path d="M529.30 325.00v21.00" class="stroke"/>
<use x="614.30" y="325.00" xlink:href="#hl"/>
<use x="614.30" y="325.00" xlink:href="#hd"/>
<path d="M610.80 325.00v21.00" class="stroke"/>
<use x="656.10" y="328.00" xlink:href="#hd"/>
<defs>
<path id="unat" class="fill" d="
	m96 -750
	h-32
	v716
	l32 -8
	182 -54
	v282
	h32
	v-706
	l-34 10
	-180 50
	v-290
	m0 592
	v-190
	l182 -52
	v188"/>
<use id="nt0" transform="translate(-3,5) scale(0.018)"
	xlink:href="#unat"/>
</defs>
<use x="647.10" y="328.00" xlink:href="#nt0"/>
<path d="M652.60 328.00v21.00" class="stroke"/>
<path class="fill"
	d="M536.30 325.00c10.57 -5.84 63.88 -5.84 74.46 -0.00
	v-0.27c-12.81 -7.57 -61.65 -7.57 -74.46 0.27"/>
<use x="22.00" y="407.00" xlink:href="#tclef"/>
<use x="37.00" y="389.00" xlink:href="#sh0"/>
<use x="42.50" y="398.00" xlink:href="#sh0"/>
<use x="60.50" y="401.00" xlink:href="#hd"/>
<path d="M64.00 401.00v-21.00" class="stroke"/>
<path class="fill"
	d="M98.10 383.30l20.50 2.40v3.20l-20.50 -2.40"/>
<use x="94.90" y="404.00" xlink:href="#hd"/>
<path d="M98.40 404.00v-19.70" class="stroke"/>
<use x="114.70" y="407.00" xlink:href="#hd"/>
<path d="M118.20 407.00v-20.30" class="stroke"/>
<use x="136.70" y="410.00" xlink:href="#hd"/>
<path d="M140.20 410.00v-21.00" class="stroke"/>
<use x="167.60" y="407.00" xlink:href="#hd"/>
<path d="M171.10 407.00v-21.00" class="stroke"/>
<use x="198.50" y="404.00" xlink:href="#hd"/>
<path d="M202.00 404.00v-21.00" class="stroke"/>
<use x="248.60" y="410.00" xlink:href="#hd"/>
<circle class="fill" cx="256.30" cy="410.00" r="1.2"/>
<path d="M252.10 410.00v-21.00" class="stroke"/>
<use x="284.10" y="407.00" xlink:href="#hd"/>
<path d="M287.60 407.00v-21.00" class="stroke"/>
<path class="fill"
	d="M287.60 386.00c0.6 5.6 9.6 9 5.6 18.4
	1.6 -6 -1.3 -11.6 -5.6 -12.8
"/>
<path class="fill"
	d="M309.40 386.10l60.20 0.00v3.20l-60.20 -0.00"/>
<use x="306.20" y="410.00" xlink:href="#hd"/>
<path d="M309.70 410.00v-23.00" class="stroke"/>
<use x="326.10" y="404.00" xlink:href="#hd"/>
<path d="M329.60 404.00v-17.00" class="stroke"/>
<use x="345.90" y="407.00" xlink:href="#hd"/>
<path d="M349.40 407.00v-20.00" class="stroke"/>
<use x="365.70" y="410.00" xlink:href="#hd"/>
<path d="M369.20 410.00v-23.00" class="stroke"/>
<path class="fill"
	d="M397.10 383.30l20.50 2.40v3.20l-20.50 -2.40"/>
<use x="393.90" y="404.00" xlink:href="#hd"/>
<path d="M397.40 404.00v-19.70" class="stroke"/>
<use x="413.70" y="407.00" xlink:href="#hd"/>
<path d="M417.20 407.00v-20.30" class="stroke"/>
<use x="435.70" y="410.00" xlink:href="#hd"/>
<path d="M439.20 410.00v-21.00" class="stroke"/>
<use x="466.60" y="413.00" xlink:href="#hd"/>
<path d="M470.10 413.00v-21.00" class="stroke"/>
<use x="497.90" y="401.00" xlink:href="#hd"/>
<path d="M501.40 401.00v-21.00" class="stroke"/>
<path class="fill"
	d="M536.00 378.80l60.20 0.00v3.20l-60.20 -0.00"/>
<use x="532.80" y="404.00" xlink:href="#hd"/>
<path d="M536.30 404.00v-24.20" class="stroke"/>
<use x="552.70" y="401.00" xlink:href="#hd"/>
<path d="M556.20 401.00v-21.20" class="stroke"/>
<use x="572.50" y="398.00" xlink:href="#hd"/>
<path d="M576.00 398.00v-18.20" class="stroke"/>
<use x="592.30" y="401.00" xlink:href="#hd"/>
<path d="M595.80 401.00v-21.20" class="stroke"/>
<path class="fill"
	d="M617.50 384.00l62.30 7.00v3.20l-62.30 -7.00"/>
<use x="614.30" y="404.00" xlink:href="#hd"/>
<path d="M617.80 404.00v-19.00" class="stroke"/>
<use x="634.10" y="407.00" xlink:href="#hd"/>
<path d="M637.60 407.00v-19.70" class="stroke"/>
<use x="656.10" y="410.00" xlink:href="#hd"/>
<path d="M659.60 410.00v-20.30" class="stroke"/>
<use x="675.90" y="413.00" xlink:href="#hd"/>
<path d="M679.40 413.00v-21.00" class="stroke"/>
</g>
<g stroke-width="0.70" style="font:italic 14.00px Times">
<path class="stroke" stroke-width="1"
	d="M10.00 541.00v-82.00"/>
<path class="stroke" stroke-width="1"
	d="M205.50 483.00v-24.00"/>
<path class="stroke" stroke-width="1"
	d="M205.50 541.00v-58.00"/>
<path class="stroke" stroke-width="1"
	d="M365.00 483.00v-24.00"/>
<path class="stroke" stroke-width="1"
	d="M365.00 541.00v-58.00"/>
<path class="stroke" stroke-width="1"
	d="M553.60 483.00v-24.00"/>
<path class="stroke" stroke-width="1"
	d="M553.60 541.00v-58.00"/>
<path class="stroke" stroke-width="1"
	d="M691.60 483.00v-24.00"/>
<path d="m10.00 483.00
	h681.60
	M10.00 477.00
	h681.60
	M10.00 471.00
	h681.60
	M10.00 465.00
	h681.60
	M10.00 459.00
	h681.60
	" class="stroke"/>
<path d="m10.00 541.00
	h681.60
	M10.00 535.00
	h681.60
	M10.00 529.00
	h681.60
	M10.00 523.00
	h681.60
	M10.00 517.00
	h681.60
	" class="stroke"/>
<use x="22.00" y="477.00" xlink:href="#tclef"/>
<use x="37.00" y="459.00" xlink:href="#sh0"/>
<use x="42.50" y="468.00" xlink:href="#sh0"/>
<use x="60.50" y="459.00" xlink:href="#hd"/>
<path d="M57.00 459.00v21.00" class="stroke"/>
<use x="94.90" y="453.00" xlink:href="#hl"/>
<use x="94.90" y="453.00" xlink:href="#hd"/>
<path d="M91.40 453.00v21.00" class="stroke"/>
<use x="129.40" y="462.00" xlink:href="#hd"/>
<circle class="fill" cx="137.10" cy="462.00" r="1.2"/>
<path d="M125.90 462.00v21.00" class="stroke"/>
<use x="188.20" y="468.00" xlink:href="#hd"/>
<path d="M184.70 468.00v21.00" class="stroke"/>
<path class="fill"
	d="M184.70 489.00c0.6 -5.6 9.6 -9 5.6 -18.4
	1.6 6 -1.3 11.6 -5.6 12.8
"/>
<use x="218.00" y="465.00" xlink:href="#hd"/>
<circle class="fill" cx="225.70" cy="462.00" r="1.2"/>
<path d="M214.50 465.00v21.00" class="stroke"/>
<use x="257.30" y="462.00" xlink:href="#hd"/>
<path d="M253.80 462.00v21.00" class="stroke"/>
<path class="fill"
	d="M253.80 483.00c0.6 -5.6 9.6 -9 5.6 -18.4
	1.6 6 -1.3 11.6 -5.6 12.8
"/>
<path class="fill"
	d="M278.00 486.90l66.70 7.10v-3.20l-66.70 -7.10"/>
<use x="281.80" y="465.00" xlink:href="#hd"/>
<path d="M278.30 465.00v21.00" class="stroke"/>
<use x="303.80" y="468.00" xlink:href="#hd"/>
<path d="M300.30 468.00v20.30" class="stroke"/>
<use x="325.80" y="471.00" xlink:href="#hd"/>
<path d="M322.30 471.00v19.70" class="stroke"/>
<use x="347.80" y="474.00" xlink:href="#hd"/>
<path d="M344.30 474.00v19.00" class="stroke"/>
<use x="377.50" y="471.00" xlink:href="#hd"/>
<path d="M374.00 471.00v21.00" class="stroke"/>
<use x="424.00" y="477.00" xlink:href="#hd"/>
<path d="M427.50 477.00v-21.00" class="stroke"/>
<path class="fill"
	d="M473.60 453.90l66.70 7.10v3.20l-66.70 -7.10"/>
<use x="470.40" y="474.00" xlink:href="#hd"/>
<path d="M473.90 474.00v-19.00" class="stroke"/>
<use x="492.40" y="477.00" xlink:href="#hd"/>
<path d="M495.90 477.00v-19.70" class="stroke"/>
<use x="514.40" y="480.00" xlink:href="#hd"/>
<path d="M517.90 480.00v-20.30" class="stroke"/>
<use x="536.40" y="483.00" xlink:href="#hd"/>
<path d="M539.90 483.00v-21.00" class="stroke"/>
<use x="566.60" y="486.00" xlink:href="#Hd"/>
<path d="M570.10 486.00v-21.00" class="stroke"/>
<use x="615.50" y="486.00" xlink:href="#hd"/>
<circle class="fill" cx="623.20" cy="486.00" r="1.2"/>
<path d="M619.00 486.00v-21.00" class="stroke"/>
<use x="674.40" y="456.00" xlink:href="#hd"/>
<path d="M670.90 456.00v21.00" class="stroke"/>
<path class="fill"
	d="M670.90 477.00c0.6 -5.6 9.6 -9 5.6 -18.4
	1.6 6 -1.3 11.6 -5.6 12.8
"/>
<path class="fill"
	d="M570.10 486.00c6.56 5.25 35.31 5.25 41.87 -0.00
	v0.24c-7.82 7.01 -34.05 7.01 -41.87 -0.24"/>
<use x="22.00" y="535.00" xlink:href="#tclef"/>
<use x="37.00" y="517.00" xlink:href="#sh0"/>
<use x="42.50" y="526.00" xlink:href="#sh0"/>
<use x="60.50" y="544.00" xlink:href="#hd"/>
<path d="M64.00 544.00v-21.00" class="stroke"/>
<use x="94.90" y="538.00" xlink:href="#hd"/>
<path d="M98.40 538.00v-21.00" class="stroke"/>
<use x="129.40" y="532.00" xlink:href="#hd"/>
<path d="M132.90 532.00v-21.00" class="stroke"/>
<use x="163.80" y="535.00" xlink:href="#hd"/>
<path d="M167.30 535.00v-21.00" class="stroke"/>
<use x="218.00" y="538.00" xlink:href="#hd"/>
<circle class="fill" cx="225.70" cy="538.00" r="1.2"/>
<path d="M221.50 538.00v-21.00" class="stroke"/>
<use x="257.30" y="535.00" xlink:href="#hd"/>
<path d="M260.80 535.00v-21.00" class="stroke"/>
<path class="fill"
	d="M260.80 514.00c0.6 5.6 9.6 9 5.6 18.4
	1.6 -6 -1.3 -11.6 -5.6 -12.8
"/>
<path class="fill"
	d="M285.00 514.10l66.70 0.00v3.20l-66.70 -0.00"/>
<use x="281.80" y="538.00" xlink:href="#hd"/>
<path d="M285.30 538.00v-23.00" class="stroke"/>
<use x="303.80" y="532.00" xlink:href="#hd"/>
<path d="M307.30 532.00v-17.00" class="stroke"/>
<use x="325.80" y="535.00" xlink:href="#hd"/>
<path d="M329.30 535.00v-20.00" class="stroke"/>
<use x="347.80" y="538.00" xlink:href="#hd"/>
<path d="M351.30 538.00v-23.00" class="stroke"/>
<path class="fill"
	d="M380.70 509.60l69.10 -5.80v3.20l-69.10 5.80"/>
<use x="377.50" y="535.00" xlink:href="#hd"/>
<path d="M381.00 535.00v-24.40" class="stroke"/>
<use x="399.50" y="532.00" xlink:href="#hd"/>
<path d="M403.00 532.00v-23.30" class="stroke"/>
<use x="424.00" y="529.00" xlink:href="#hd"/>
<path d="M427.50 529.00v-22.30" class="stroke"/>
<use x="446.00" y="523.00" xlink:href="#hd"/>
<path d="M449.50 523.00v-18.20" class="stroke"/>
<path class="fill"
	d="M473.60 505.90l66.70 7.10v3.20l-66.70 -7.10"/>
<use x="470.40" y="526.00" xlink:href="#hd"/>
<path d="M473.90 526.00v-19.00" class="stroke"/>
<use x="492.40" y="529.00" xlink:href="#hd"/>
<path d="M495.90 529.00v-19.70" class="stroke"/>
<use x="514.40" y="532.00" xlink:href="#hd"/>
<path d="M517.90 532.00v-20.30" class="stroke"/>
<use x="536.40" y="535.00" xlink:href="#hd"/>
<path d="M539.90 535.00v-21.00" class="stroke"/>
<use x="566.60" y="538.00" xlink:href="#Hd"/>
<circle class="fill" cx="575.30" cy="538.00" r="1.2"/>
<path d="M570.10 538.00v-21.00" class="stroke"/>
<use x="649.80" y="529.00" xlink:href="#hd"/>
<path d="M653.30 529.00v-21.00" class="stroke"/>
</g>
<g stroke-width="0.70" style="font:italic 14.00px Times">
<path class="stroke" stroke-width="1"
	d="M190.90 611.00v-24.00"/>
<path class="stroke" stroke-width="1"
	d="M356.40 611.00v-24.00"/>
<path class="stroke" stroke-width="1"
	d="M498.40 611.00v-24.00"/>
<path class="stroke" stroke-width="1"
	d="M691.60 611.00v-24.00"/>
<path d="m10.00 611.00
	h681.60
	M10.00 605.00
	h681.60
	M10.00 599.00
	h681.60
	M10.00 593.00
	h681.60
	M10.00 587.00
	h681.60
	" class="stroke"/>
<use x="22.00" y="605.00" xlink:href="#tclef"/>
<use x="37.00" y="587.00" xlink:href="#sh0"/>
<use x="42.50" y="596.00" xlink:href="#sh0"/>
<use x="60.50" y="587.00" xlink:href="#hd"/>
<path d="M57.00 587.00v21.00" class="stroke"/>
<use x="96.30" y="581.00" xlink:href="#hl"/>
<use x="96.30" y="581.00" xlink:href="#hd"/>
<path d="M92.80 581.00v21.00" class="stroke"/>
<use x="132.20" y="590.00" xlink:href="#hd"/>
<circle class="fill" cx="139.90" cy="590.00" r="1.2"/>
<path d="M128.70 590.00v21.00" class="stroke"/>
<use x="173.10" y="596.00" xlink:href="#hd"/>
<path d="M169.60 596.00v21.00" class="stroke"/>
<path class="fill"
	d="M169.60 617.00c0.6 -5.6 9.6 -9 5.6 -18.4
	1.6 6 -1.3 11.6 -5.6 12.8
"/>
<use x="203.70" y="593.00" xlink:href="#hd"/>
<circle class="fill" cx="211.40" cy="590.00" r="1.2"/>
<path d="M200.20 593.00v21.00" class="stroke"/>
<use x="244.60" y="590.00" xlink:href="#hd"/>
<path d="M241.10 590.00v21.00" class="stroke"/>
<path class="fill"
	d="M241.10 611.00c0.6 -5.6 9.6 -9 5.6 -18.4
	1.6 6 -1.3 11.6 -5.6 12.8
"/>
<path class="fill"
	d="M266.10 614.90l69.30 7.20v-3.20l-69.30 -7.20"/>
<use x="270.00" y="593.00" xlink:href="#hd"/>
<path d="M266.50 593.00v20.90" class="stroke"/>
<use x="292.80" y="596.00" xlink:href="#hd"/>
<path d="M289.30 596.00v20.30" class="stroke"/>
<use x="315.70" y="599.00" xlink:href="#hd"/>
<path d="M312.20 599.00v19.70" class="stroke"/>
<use x="338.60" y="602.00" xlink:href="#hd"/>
<path d="M335.10 602.00v19.10" class="stroke"/>
<use x="369.20" y="599.00" xlink:href="#hd"/>
<path d="M365.70 599.00v21.00" class="stroke"/>
<use x="405.10" y="593.00" xlink:href="#hd"/>
<path d="M401.60 593.00v21.00" class="stroke"/>
<use x="437.30" y="602.00" xlink:href="#hd"/>
<path d="M440.80 602.00v-21.00" class="stroke"/>
<use x="473.20" y="593.00" xlink:href="#hd"/>
<path d="M469.70 593.00v21.00" class="stroke"/>
<path class="fill"
	d="M514.30 578.90l69.30 7.20v3.20l-69.30 -7.20"/>
<use x="511.20" y="599.00" xlink:href="#hd"/>
<path d="M514.70 599.00v-19.10" class="stroke"/>
<use x="534.00" y="602.00" xlink:href="#hd"/>
<path d="M537.50 602.00v-19.70" class="stroke"/>
<use x="556.90" y="605.00" xlink:href="#hd"/>
<path d="M560.40 605.00v-20.30" class="stroke"/>
<use x="579.80" y="608.00" xlink:href="#hd"/>
<path d="M583.30 608.00v-20.90" class="stroke"/>
<path class="fill"
	d="M608.30 586.80l69.30 0.00v3.20l-69.30 -0.00"/>
<use x="605.20" y="611.00" xlink:href="#hd"/>
<path d="M608.70 611.00v-23.20" class="stroke"/>
<use x="628.00" y="605.00" xlink:href="#hd"/>
<path d="M631.50 605.00v-17.20" class="stroke"/>
<use x="650.90" y="608.00" xlink:href="#hd"/>
<path d="M654.40 608.00v-20.20" class="stroke"/>
<use x="673.70" y="611.00" xlink:href="#hd"/>
<path d="M677.20 611.00v-23.20" class="stroke"/>
</g>
<g stroke-width="0.70" style="font:italic 14.00px Times">
<path class="stroke" stroke-width="1"
	d="M206.30 681.00v-24.00"/>
<path class="stroke" stroke-width="1"
	d="M394.30 681.00v-24.00"/>
<path class="stroke" stroke-width="1"
	d="M590.10 681.00v-24.00"/>
<path class="stroke" stroke-width="1"
	d="M691.60 681.00v-24.00"/>
<path d="m10.00 681.00
	h681.60
	M10.00 675.00
	h681.60
	M10.00 669.00
	h681.60
	M10.00 663.00
	h681.60
	M10.00 657.00
	h681.60
	" class="stroke"/>
<use x="22.00" y="675.00" xlink:href="#tclef"/>
<use x="37.00" y="657.00" xlink:href="#sh0"/>
<use x="42.50" y="666.00" xlink:href="#sh0"/>
<use x="60.50" y="684.00" xlink:href="#hd"/>
<circle class="fill" cx="68.20" cy="684.00" r="1.2"/>
<path d="M64.00 684.00v-21.00" class="stroke"/>
<use x="107.30" y="678.00" xlink:href="#hd"/>
<path d="M110.80 678.00v-21.00" class="stroke"/>
<path class="fill"
	d="M110.80 657.00c0.6 5.6 9.6 9 5.6 18.4
	1.6 -6 -1.3 -11.6 -5.6 -12.8
"/>
<use x="136.40" y="672.00" xlink:href="#hd"/>
<path d="M139.90 672.00v-21.00" class="stroke"/>
<use x="177.50" y="663.00" xlink:href="#hd"/>
<path d="M174.00 663.00v21.00" class="stroke"/>
<path class="fill"
	d="M217.00 678.80l79.20 7.40v-3.20l-79.20 -7.40"/>
<use x="220.90" y="657.00" xlink:href="#hd"/>
<path d="M217.40 657.00v20.80" class="stroke"/>
<use x="247.10" y="660.00" xlink:href="#hd"/>
<path d="M243.60 660.00v20.30" class="stroke"/>
<use x="273.30" y="663.00" xlink:href="#hd"/>
<path d="M269.80 663.00v19.70" class="stroke"/>
<use x="299.40" y="666.00" xlink:href="#hd"/>
<path d="M295.90 666.00v19.20" class="stroke"/>
<use x="328.50" y="663.00" xlink:href="#hd"/>
<path d="M325.00 663.00v21.00" class="stroke"/>
<use x="365.50" y="672.00" xlink:href="#hd"/>
<path d="M369.00 672.00v-21.00" class="stroke"/>
<use x="408.90" y="669.00" xlink:href="#hd"/>
<path d="M412.40 669.00v-21.00" class="stroke"/>
<use x="450.00" y="675.00" xlink:href="#hd"/>
<path d="M453.50 675.00v-21.00" class="stroke"/>
<path class="fill"
	d="M494.30 651.80l79.20 7.40v3.20l-79.20 -7.40"/>
<use x="491.10" y="672.00" xlink:href="#hd"/>
<path d="M494.60 672.00v-19.20" class="stroke"/>
<use x="517.30" y="675.00" xlink:href="#hd"/>
<path d="M520.80 675.00v-19.70" class="stroke"/>
<use x="543.50" y="678.00" xlink:href="#hd"/>
<path d="M547.00 678.00v-20.30" class="stroke"/>
<use x="569.70" y="681.00" xlink:href="#hd"/>
<path d="M573.20 681.00v-20.80" class="stroke"/>
<use x="604.60" y="684.00" xlink:href="#Hd"/>
<path d="M608.10 684.00v-21.00" class="stroke"/>
<use x="662.80" y="684.00" xlink:href="#hd"/>
<path d="M666.30 684.00v-21.00" class="stroke"/>
<path class="fill"
	d="M608.10 684.00c7.81 5.42 43.39 5.42 51.19 -0.00
	v0.25c-9.34 7.17 -41.85 7.17 -51.19 -0.25"/>
</g>
</svg>
