<?xml version="1.0" standalone="no"?>
<!DOCTYPE svg PUBLIC "-//W3C//DTD SVG 1.1//EN"
	"http://www.w3.org/Graphics/SVG/1.1/DTD/svg11.dtd">
<svg xmlns="http://www.w3.org/2000/svg" version="1.1"
	xmlns:xlink="http://www.w3.org/1999/xlink"
	color="black"
	width="701.60px" height="678.00px">
<style type="text/css">
.fill {fill: currentColor}
.stroke {stroke: currentColor; fill: none}
text{white-space: pre}
</style>
<title>/mnt/ed617834-7c4b-4156-8731-6c17b22f12c7/tims_code/sphinx-tunes/source/ (1) tune 1</title>
<!-- Creator: abcm2ps-8.14.6 -->
<!-- CreationDate: Aug  1, 2021 16:39 -->
<!-- CommandLine: -g '/mnt/ed617834-7c4b-4156-8731-6c17b22f12c7/tims_code/sphinx-tunes/source/_abcfiles/_Da Slockit Light.abc' -O '/mnt/ed617834-7c4b-4156-8731-6c17b22f12c7/tims_code/sphinx-tunes/source/_abcfiles/Da Slockit Light.svg' -->
<g stroke-width="0.70" style="font:italic 14.00px Times">
<text x="691.60" y="20.00" text-anchor="end">Tom Anderson</text>
</g>
<g stroke-width="0.70" style="font:italic 14.00px Times">
<path class="stroke" stroke-width="1"
	d="M10.00 131.00v-82.00"/>
<path class="stroke" stroke-width="1"
	d="M110.90 73.00v-24.00"/>
<path class="stroke" stroke-width="1"
	d="M110.90 131.00v-58.00"/>
<path class="stroke" stroke-width="1"
	d="M230.50 73.00v-24.00"/>
<path class="stroke" stroke-width="1"
	d="M230.50 131.00v-58.00"/>
<path class="stroke" stroke-width="1"
	d="M372.70 73.00v-24.00"/>
<path class="stroke" stroke-width="1"
	d="M372.70 131.00v-58.00"/>
<path class="stroke" stroke-width="1"
	d="M527.70 73.00v-24.00"/>
<path class="stroke" stroke-width="1"
	d="M527.70 131.00v-58.00"/>
<path class="stroke" stroke-width="1"
	d="M691.60 73.00v-24.00"/>
<path class="stroke" stroke-width="1"
	d="M691.60 131.00v-58.00"/>
<path d="m10.00 73.00
	h681.60
	M10.00 67.00
	h681.60
	M10.00 61.00
	h681.60
	M10.00 55.00
	h681.60
	M10.00 49.00
	h681.60
	" class="stroke"/>
<path d="m10.00 131.00
	h681.60
	M10.00 125.00
	h681.60
	M10.00 119.00
	h681.60
	M10.00 113.00
	h681.60
	M10.00 107.00
	h681.60
	" class="stroke"/>
<defs>
<path id="utclef" class="fill" d="m-50 -90
	c-72 -41 -72 -158 52 -188
	150 -10 220 188 90 256
	-114 52 -275 0 -293 -136
	-15 -181 93 -229 220 -334
	88 -87 79 -133 62 -210
	-51 33 -94 105 -89 186
	17 267 36 374 49 574
	6 96 -19 134 -77 135
	-80 1 -126 -93 -61 -133
	85 -41 133 101 31 105
	23 17 92 37 90 -92
	-10 -223 -39 -342 -50 -617
	0 -90 0 -162 96 -232
	56 72 63 230 22 289
	-74 106 -257 168 -255 316
	9 153 148 185 252 133
	86 -65 29 -192 -80 -176
	-71 12 -105 67 -59 124"/>
<use id="tclef" transform="translate(0,6) scale(0.045)"
	xlink:href="#utclef"/>
</defs>
<use x="22.00" y="67.00" xlink:href="#tclef"/>
<defs>
<path id="usharp" class="fill" d="
	m136 -702
	v890
	h32
	v-890
	m128 840
	h32
	v-888
	h-32
	m-232 286
	v116
	l338 -96
	v-116
	m-338 442
	v116
	l338 -98
	v-114"/>
<use id="sh0" transform="translate(-4,5) scale(0.018)"
	xlink:href="#usharp"/>
</defs>
<use x="37.00" y="49.00" xlink:href="#sh0"/>
<use x="42.50" y="58.00" xlink:href="#sh0"/>
<g style="font:bold 16px serif"
	transform="translate(58.50,72.50) scale(1.2,1)">
	<text text-anchor="middle">4</text>
	<text y="-12" text-anchor="middle">4</text>
</g>
<path class="fill"
	d="M79.70 49.30l19.80 2.40v3.20l-19.80 -2.40"/>
<defs>
<ellipse id="hd" rx="4.1" ry="2.9"
	transform="rotate(-20)" class="fill"/>
</defs>
<use x="76.50" y="70.00" xlink:href="#hd"/>
<path d="M80.00 70.00v-19.60" class="stroke"/>
<use x="95.70" y="73.00" xlink:href="#hd"/>
<path d="M99.20 73.00v-20.40" class="stroke"/>
<use x="123.40" y="76.00" xlink:href="#hd"/>
<circle class="fill" cx="131.10" cy="76.00" r="1.2"/>
<path d="M126.90 76.00v-21.00" class="stroke"/>
<use x="157.90" y="70.00" xlink:href="#hd"/>
<path d="M161.40 70.00v-21.00" class="stroke"/>
<path class="fill"
	d="M161.40 49.00c0.6 5.6 9.6 9 5.6 18.4
	1.6 -6 -1.3 -11.6 -5.6 -12.8
"/>
<use x="179.40" y="64.00" xlink:href="#hd"/>
<path d="M182.90 64.00v-21.00" class="stroke"/>
<use x="209.30" y="55.00" xlink:href="#hd"/>
<path d="M205.80 55.00v21.00" class="stroke"/>
<path class="fill"
	d="M239.20 71.00l58.10 6.90v-3.20l-58.10 -6.90"/>
<use x="243.00" y="49.00" xlink:href="#hd"/>
<path d="M239.50 49.00v21.10" class="stroke"/>
<use x="262.20" y="52.00" xlink:href="#hd"/>
<path d="M258.70 52.00v20.40" class="stroke"/>
<use x="281.30" y="55.00" xlink:href="#hd"/>
<path d="M277.80 55.00v19.60" class="stroke"/>
<use x="300.50" y="58.00" xlink:href="#hd"/>
<path d="M297.00 58.00v18.90" class="stroke"/>
<use x="321.70" y="55.00" xlink:href="#hd"/>
<path d="M318.20 55.00v21.00" class="stroke"/>
<use x="351.40" y="64.00" xlink:href="#hd"/>
<path d="M354.90 64.00v-21.00" class="stroke"/>
<use x="385.20" y="61.00" xlink:href="#hd"/>
<path d="M388.70 61.00v-21.00" class="stroke"/>
<use x="425.50" y="55.00" xlink:href="#hd"/>
<path d="M422.00 55.00v21.00" class="stroke"/>
<use x="466.10" y="64.00" xlink:href="#hd"/>
<path d="M469.60 64.00v-21.00" class="stroke"/>
<use x="506.50" y="55.00" xlink:href="#hd"/>
<path d="M503.00 55.00v21.00" class="stroke"/>
<path class="fill"
	d="M543.30 41.00l58.10 6.90v3.20l-58.10 -6.90"/>
<use x="540.20" y="61.00" xlink:href="#hd"/>
<path d="M543.70 61.00v-18.90" class="stroke"/>
<use x="559.30" y="64.00" xlink:href="#hd"/>
<path d="M562.80 64.00v-19.60" class="stroke"/>
<use x="578.50" y="67.00" xlink:href="#hd"/>
<path d="M582.00 67.00v-20.40" class="stroke"/>
<use x="597.70" y="70.00" xlink:href="#hd"/>
<path d="M601.20 70.00v-21.10" class="stroke"/>
<path class="fill"
	d="M622.00 48.80l58.10 0.00v3.20l-58.10 -0.00"/>
<use x="618.90" y="73.00" xlink:href="#hd"/>
<path d="M622.40 73.00v-23.20" class="stroke"/>
<use x="638.00" y="67.00" xlink:href="#hd"/>
<path d="M641.50 67.00v-17.20" class="stroke"/>
<use x="657.20" y="70.00" xlink:href="#hd"/>
<path d="M660.70 70.00v-20.20" class="stroke"/>
<use x="676.30" y="73.00" xlink:href="#hd"/>
<path d="M679.80 73.00v-23.20" class="stroke"/>
<use x="22.00" y="125.00" xlink:href="#tclef"/>
<use x="37.00" y="107.00" xlink:href="#sh0"/>
<use x="42.50" y="116.00" xlink:href="#sh0"/>
<g style="font:bold 16px serif"
	transform="translate(58.50,130.50) scale(1.2,1)">
	<text text-anchor="middle">4</text>
	<text y="-12" text-anchor="middle">4</text>
</g>
<path class="fill"
	d="M72.70 136.50l19.80 4.80v-3.20l-19.80 -4.80"/>
<use x="76.50" y="113.00" xlink:href="#hd"/>
<path d="M73.00 113.00v22.60" class="stroke"/>
<use x="95.70" y="122.00" xlink:href="#hd"/>
<path d="M92.20 122.00v18.20" class="stroke"/>
<use x="123.40" y="128.00" xlink:href="#hd"/>
<circle class="fill" cx="131.10" cy="128.00" r="1.2"/>
<path d="M126.90 128.00v-21.00" class="stroke"/>
<use x="157.90" y="113.00" xlink:href="#hd"/>
<path d="M154.40 113.00v21.00" class="stroke"/>
<path class="fill"
	d="M154.40 134.00c0.6 -5.6 9.6 -9 5.6 -18.4
	1.6 6 -1.3 11.6 -5.6 12.8
"/>
<use x="179.40" y="128.00" xlink:href="#hd"/>
<path d="M182.90 128.00v-21.00" class="stroke"/>
<use x="209.30" y="125.00" xlink:href="#hd"/>
<path d="M212.80 125.00v-21.00" class="stroke"/>
<path class="fill"
	d="M246.20 102.00l58.10 6.90v3.20l-58.10 -6.90"/>
<use x="243.00" y="122.00" xlink:href="#hd"/>
<path d="M246.50 122.00v-18.90" class="stroke"/>
<use x="262.20" y="125.00" xlink:href="#hd"/>
<path d="M265.70 125.00v-19.60" class="stroke"/>
<use x="281.30" y="128.00" xlink:href="#hd"/>
<path d="M284.80 128.00v-20.40" class="stroke"/>
<use x="300.50" y="131.00" xlink:href="#hd"/>
<path d="M304.00 131.00v-21.10" class="stroke"/>
<use x="321.70" y="128.00" xlink:href="#hd"/>
<path d="M325.20 128.00v-21.00" class="stroke"/>
<use x="351.40" y="134.00" xlink:href="#hd"/>
<path d="M354.90 134.00v-21.00" class="stroke"/>
<path class="fill"
	d="M388.30 103.00l60.20 -6.90v3.20l-60.20 6.90"/>
<use x="385.20" y="125.00" xlink:href="#hd"/>
<path d="M388.70 125.00v-21.10" class="stroke"/>
<use x="404.30" y="122.00" xlink:href="#hd"/>
<path d="M407.80 122.00v-20.30" class="stroke"/>
<use x="425.50" y="119.00" xlink:href="#hd"/>
<path d="M429.00 119.00v-19.70" class="stroke"/>
<use x="444.70" y="116.00" xlink:href="#hd"/>
<path d="M448.20 116.00v-18.90" class="stroke"/>
<path class="fill"
	d="M462.20 133.70l19.80 -2.40v-3.20l-19.80 2.40"/>
<use x="466.10" y="113.00" xlink:href="#hd"/>
<path d="M462.60 113.00v19.60" class="stroke"/>
<use x="485.20" y="110.00" xlink:href="#hd"/>
<path d="M481.70 110.00v20.40" class="stroke"/>
<use x="506.50" y="107.00" xlink:href="#hd"/>
<path d="M503.00 107.00v21.00" class="stroke"/>
<path class="fill"
	d="M536.30 126.00l58.10 6.90v-3.20l-58.10 -6.90"/>
<use x="540.20" y="104.00" xlink:href="#hd"/>
<path d="M536.70 104.00v21.10" class="stroke"/>
<use x="559.30" y="107.00" xlink:href="#hd"/>
<path d="M555.80 107.00v20.40" class="stroke"/>
<use x="578.50" y="110.00" xlink:href="#hd"/>
<path d="M575.00 110.00v19.60" class="stroke"/>
<use x="597.70" y="113.00" xlink:href="#hd"/>
<path d="M594.20 113.00v18.90" class="stroke"/>
<path class="fill"
	d="M622.00 96.00l58.10 6.90v3.20l-58.10 -6.90"/>
<use x="618.90" y="116.00" xlink:href="#hd"/>
<path d="M622.40 116.00v-18.90" class="stroke"/>
<use x="638.00" y="119.00" xlink:href="#hd"/>
<path d="M641.50 119.00v-19.60" class="stroke"/>
<use x="657.20" y="122.00" xlink:href="#hd"/>
<path d="M660.70 122.00v-20.40" class="stroke"/>
<use x="676.30" y="125.00" xlink:href="#hd"/>
<path d="M679.80 125.00v-21.10" class="stroke"/>
</g>
<g stroke-width="0.70" style="font:italic 14.00px Times">
<path class="stroke" stroke-width="1"
	d="M10.00 259.00v-82.00"/>
<path class="stroke" stroke-width="1"
	d="M206.70 201.00v-24.00"/>
<path class="stroke" stroke-width="1"
	d="M206.70 259.00v-58.00"/>
<path class="stroke" stroke-width="1"
	d="M399.30 201.00v-24.00"/>
<path class="stroke" stroke-width="1"
	d="M399.30 259.00v-58.00"/>
<path class="stroke" stroke-width="1"
	d="M623.90 201.00v-24.00"/>
<path class="stroke" stroke-width="1"
	d="M623.90 259.00v-58.00"/>
<path class="stroke" stroke-width="3"
	d="M690.10 201.00v-24.00"/>
<path class="stroke" stroke-width="1"
	d="M685.60 201.00v-24.00"/>
<defs>
<g id="rdots" class="fill">
	<circle cx="0" cy="-9" r="1.2"/>
	<circle cx="0" cy="-15" r="1.2"/>
</g>
</defs>
<use x="681.60" y="201.00" xlink:href="#rdots"/>
<path class="stroke" stroke-width="3"
	d="M690.10 259.00v-58.00"/>
<path class="stroke" stroke-width="1"
	d="M685.60 259.00v-58.00"/>
<use x="681.60" y="259.00" xlink:href="#rdots"/>
<path d="m10.00 201.00
	h681.60
	M10.00 195.00
	h681.60
	M10.00 189.00
	h681.60
	M10.00 183.00
	h681.60
	M10.00 177.00
	h681.60
	" class="stroke"/>
<path d="m10.00 259.00
	h681.60
	M10.00 253.00
	h681.60
	M10.00 247.00
	h681.60
	M10.00 241.00
	h681.60
	M10.00 235.00
	h681.60
	" class="stroke"/>
<use x="22.00" y="195.00" xlink:href="#tclef"/>
<use x="37.00" y="177.00" xlink:href="#sh0"/>
<use x="42.50" y="186.00" xlink:href="#sh0"/>
<use x="60.50" y="204.00" xlink:href="#hd"/>
<circle class="fill" cx="68.20" cy="204.00" r="1.2"/>
<path d="M64.00 204.00v-21.00" class="stroke"/>
<use x="107.40" y="198.00" xlink:href="#hd"/>
<path d="M110.90 198.00v-21.00" class="stroke"/>
<path class="fill"
	d="M110.90 177.00c0.6 5.6 9.6 9 5.6 18.4
	1.6 -6 -1.3 -11.6 -5.6 -12.8
"/>
<use x="136.60" y="192.00" xlink:href="#hd"/>
<path d="M140.10 192.00v-21.00" class="stroke"/>
<use x="177.80" y="183.00" xlink:href="#hd"/>
<path d="M174.30 183.00v21.00" class="stroke"/>
<path class="fill"
	d="M217.40 198.80l79.40 7.40v-3.20l-79.40 -7.40"/>
<use x="221.30" y="177.00" xlink:href="#hd"/>
<path d="M217.80 177.00v20.80" class="stroke"/>
<use x="247.50" y="180.00" xlink:href="#hd"/>
<path d="M244.00 180.00v20.30" class="stroke"/>
<use x="273.80" y="183.00" xlink:href="#hd"/>
<path d="M270.30 183.00v19.70" class="stroke"/>
<use x="300.00" y="186.00" xlink:href="#hd"/>
<path d="M296.50 186.00v19.20" class="stroke"/>
<use x="329.20" y="183.00" xlink:href="#hd"/>
<path d="M325.70 183.00v21.00" class="stroke"/>
<use x="370.40" y="192.00" xlink:href="#hd"/>
<path d="M373.90 192.00v-21.00" class="stroke"/>
<use x="413.90" y="189.00" xlink:href="#hd"/>
<path d="M417.40 189.00v-21.00" class="stroke"/>
<use x="469.30" y="195.00" xlink:href="#hd"/>
<path d="M472.80 195.00v-21.00" class="stroke"/>
<path class="fill"
	d="M527.90 171.80l79.40 7.40v3.20l-79.40 -7.40"/>
<use x="524.70" y="192.00" xlink:href="#hd"/>
<path d="M528.20 192.00v-19.20" class="stroke"/>
<use x="551.00" y="195.00" xlink:href="#hd"/>
<path d="M554.50 195.00v-19.70" class="stroke"/>
<use x="577.20" y="198.00" xlink:href="#hd"/>
<path d="M580.70 198.00v-20.30" class="stroke"/>
<use x="603.50" y="201.00" xlink:href="#hd"/>
<path d="M607.00 201.00v-20.80" class="stroke"/>
<defs>
<path id="Hd" class="fill" d="m3 -1.6
	c-1 -1.8 -7 1.4 -6 3.2
	1 1.8 7 -1.4 6 -3.2
	m0.5 -0.3
	c2 3.8 -5 7.6 -7 3.8
	-2 -3.8 5 -7.6 7 -3.8"/>
</defs>
<use x="638.50" y="204.00" xlink:href="#Hd"/>
<circle class="fill" cx="647.20" cy="204.00" r="1.2"/>
<path d="M642.00 204.00v-21.00" class="stroke"/>
<use x="22.00" y="253.00" xlink:href="#tclef"/>
<use x="37.00" y="235.00" xlink:href="#sh0"/>
<use x="42.50" y="244.00" xlink:href="#sh0"/>
<use x="60.50" y="256.00" xlink:href="#hd"/>
<circle class="fill" cx="68.20" cy="256.00" r="1.2"/>
<path d="M64.00 256.00v-21.00" class="stroke"/>
<use x="107.40" y="241.00" xlink:href="#hd"/>
<path d="M103.90 241.00v21.00" class="stroke"/>
<path class="fill"
	d="M103.90 262.00c0.6 -5.6 9.6 -9 5.6 -18.4
	1.6 6 -1.3 11.6 -5.6 12.8
"/>
<use x="136.60" y="256.00" xlink:href="#hd"/>
<path d="M140.10 256.00v-21.00" class="stroke"/>
<use x="177.80" y="253.00" xlink:href="#hd"/>
<path d="M181.30 253.00v-21.00" class="stroke"/>
<path class="fill"
	d="M224.40 229.80l79.40 7.40v3.20l-79.40 -7.40"/>
<use x="221.30" y="250.00" xlink:href="#hd"/>
<path d="M224.80 250.00v-19.20" class="stroke"/>
<use x="247.50" y="253.00" xlink:href="#hd"/>
<path d="M251.00 253.00v-19.70" class="stroke"/>
<use x="273.80" y="256.00" xlink:href="#hd"/>
<path d="M277.30 256.00v-20.30" class="stroke"/>
<use x="300.00" y="259.00" xlink:href="#hd"/>
<path d="M303.50 259.00v-20.80" class="stroke"/>
<use x="329.20" y="256.00" xlink:href="#hd"/>
<path d="M332.70 256.00v-21.00" class="stroke"/>
<use x="370.40" y="262.00" xlink:href="#hd"/>
<path d="M373.90 262.00v-21.00" class="stroke"/>
<path class="fill"
	d="M417.00 227.80l82.40 -6.00v3.20l-82.40 6.00"/>
<use x="413.90" y="253.00" xlink:href="#hd"/>
<path d="M417.40 253.00v-24.30" class="stroke"/>
<use x="440.10" y="250.00" xlink:href="#hd"/>
<path d="M443.60 250.00v-23.20" class="stroke"/>
<use x="469.30" y="247.00" xlink:href="#hd"/>
<path d="M472.80 247.00v-22.30" class="stroke"/>
<use x="495.60" y="241.00" xlink:href="#hd"/>
<path d="M499.10 241.00v-18.20" class="stroke"/>
<path class="fill"
	d="M527.90 223.80l79.40 7.40v3.20l-79.40 -7.40"/>
<use x="524.70" y="244.00" xlink:href="#hd"/>
<path d="M528.20 244.00v-19.20" class="stroke"/>
<use x="551.00" y="247.00" xlink:href="#hd"/>
<path d="M554.50 247.00v-19.70" class="stroke"/>
<use x="577.20" y="250.00" xlink:href="#hd"/>
<path d="M580.70 250.00v-20.30" class="stroke"/>
<use x="603.50" y="253.00" xlink:href="#hd"/>
<path d="M607.00 253.00v-20.80" class="stroke"/>
<use x="638.50" y="256.00" xlink:href="#Hd"/>
<circle class="fill" cx="647.20" cy="256.00" r="1.2"/>
<path d="M642.00 256.00v-21.00" class="stroke"/>
</g>
<g stroke-width="0.70" style="font:italic 14.00px Times">
<path class="stroke" stroke-width="1"
	d="M10.00 387.00v-82.00"/>
<path class="stroke" stroke-width="1"
	d="M82.40 329.00v-24.00"/>
<path class="stroke" stroke-width="1"
	d="M82.40 387.00v-58.00"/>
<path class="stroke" stroke-width="1"
	d="M236.10 329.00v-24.00"/>
<path class="stroke" stroke-width="1"
	d="M236.10 387.00v-58.00"/>
<path class="stroke" stroke-width="1"
	d="M381.40 329.00v-24.00"/>
<path class="stroke" stroke-width="1"
	d="M381.40 387.00v-58.00"/>
<path class="stroke" stroke-width="1"
	d="M519.80 329.00v-24.00"/>
<path class="stroke" stroke-width="1"
	d="M519.80 387.00v-58.00"/>
<path class="stroke" stroke-width="1"
	d="M691.60 329.00v-24.00"/>
<path class="stroke" stroke-width="1"
	d="M691.60 387.00v-58.00"/>
<path d="m10.00 329.00
	h681.60
	M10.00 323.00
	h681.60
	M10.00 317.00
	h681.60
	M10.00 311.00
	h681.60
	M10.00 305.00
	h681.60
	" class="stroke"/>
<path d="m10.00 387.00
	h681.60
	M10.00 381.00
	h681.60
	M10.00 375.00
	h681.60
	M10.00 369.00
	h681.60
	M10.00 363.00
	h681.60
	" class="stroke"/>
<use x="22.00" y="323.00" xlink:href="#tclef"/>
<use x="37.00" y="305.00" xlink:href="#sh0"/>
<use x="42.50" y="314.00" xlink:href="#sh0"/>
<use x="60.50" y="302.00" xlink:href="#hd"/>
<path d="M57.00 302.00v21.00" class="stroke"/>
<use x="94.90" y="305.00" xlink:href="#hd"/>
<path d="M91.40 305.00v21.00" class="stroke"/>
<defs>
<path id="hl" class="stroke" d="m-6 0h12"/>
</defs>
<use x="136.70" y="299.00" xlink:href="#hl"/>
<use x="136.70" y="299.00" xlink:href="#hd"/>
<path d="M133.20 299.00v21.00" class="stroke"/>
<use x="167.60" y="308.00" xlink:href="#hd"/>
<circle class="fill" cx="175.30" cy="308.00" r="1.2"/>
<path d="M164.10 308.00v21.00" class="stroke"/>
<use x="220.40" y="314.00" xlink:href="#hd"/>
<path d="M216.90 314.00v21.00" class="stroke"/>
<path class="fill"
	d="M216.90 335.00c0.6 -5.6 9.6 -9 5.6 -18.4
	1.6 6 -1.3 11.6 -5.6 12.8
"/>
<use x="248.60" y="311.00" xlink:href="#hd"/>
<circle class="fill" cx="256.30" cy="308.00" r="1.2"/>
<path d="M245.10 311.00v21.00" class="stroke"/>
<use x="284.10" y="308.00" xlink:href="#hd"/>
<path d="M280.60 308.00v21.00" class="stroke"/>
<path class="fill"
	d="M280.60 329.00c0.6 -5.6 9.6 -9 5.6 -18.4
	1.6 6 -1.3 11.6 -5.6 12.8
"/>
<path class="fill"
	d="M302.40 333.00l60.20 7.00v-3.20l-60.20 -7.00"/>
<use x="306.20" y="311.00" xlink:href="#hd"/>
<path d="M302.70 311.00v21.00" class="stroke"/>
<use x="326.10" y="314.00" xlink:href="#hd"/>
<path d="M322.60 314.00v20.30" class="stroke"/>
<use x="345.90" y="317.00" xlink:href="#hd"/>
<path d="M342.40 317.00v19.70" class="stroke"/>
<use x="365.70" y="320.00" xlink:href="#hd"/>
<path d="M362.20 320.00v19.00" class="stroke"/>
<use x="393.90" y="305.00" xlink:href="#hd"/>
<path d="M390.40 305.00v21.00" class="stroke"/>
<use x="435.70" y="299.00" xlink:href="#hl"/>
<use x="435.70" y="299.00" xlink:href="#hd"/>
<path d="M432.20 299.00v21.00" class="stroke"/>
<use x="466.60" y="308.00" xlink:href="#hd"/>
<path d="M463.10 308.00v21.00" class="stroke"/>
<use x="497.90" y="302.00" xlink:href="#hd"/>
<use x="488.90" y="302.00" xlink:href="#sh0"/>
<path d="M494.40 302.00v25.00" class="stroke"/>
<use x="497.90" y="308.00" xlink:href="#hd"/>
<use x="532.80" y="299.00" xlink:href="#hl"/>
<use x="532.80" y="299.00" xlink:href="#Hd"/>
<path d="M529.30 299.00v21.00" class="stroke"/>
<use x="614.30" y="299.00" xlink:href="#hl"/>
<use x="614.30" y="299.00" xlink:href="#hd"/>
<path d="M610.80 299.00v21.00" class="stroke"/>
<use x="656.10" y="302.00" xlink:href="#hd"/>
<defs>
<path id="unat" class="fill" d="
	m96 -750
	h-32
	v716
	l32 -8
	182 -54
	v282
	h32
	v-706
	l-34 10
	-180 50
	v-290
	m0 592
	v-190
	l182 -52
	v188"/>
<use id="nt0" transform="translate(-3,5) scale(0.018)"
	xlink:href="#unat"/>
</defs>
<use x="647.10" y="302.00" xlink:href="#nt0"/>
<path d="M652.60 302.00v21.00" class="stroke"/>
<path class="fill"
	d="M536.30 299.00c10.57 -5.84 63.88 -5.84 74.46 -0.00
	v-0.27c-12.81 -7.57 -61.65 -7.57 -74.46 0.27"/>
<use x="22.00" y="381.00" xlink:href="#tclef"/>
<use x="37.00" y="363.00" xlink:href="#sh0"/>
<use x="42.50" y="372.00" xlink:href="#sh0"/>
<use x="60.50" y="375.00" xlink:href="#hd"/>
<path d="M64.00 375.00v-21.00" class="stroke"/>
<path class="fill"
	d="M98.10 357.30l20.50 2.40v3.20l-20.50 -2.40"/>
<use x="94.90" y="378.00" xlink:href="#hd"/>
<path d="M98.40 378.00v-19.70" class="stroke"/>
<use x="114.70" y="381.00" xlink:href="#hd"/>
<path d="M118.20 381.00v-20.30" class="stroke"/>
<use x="136.70" y="384.00" xlink:href="#hd"/>
<path d="M140.20 384.00v-21.00" class="stroke"/>
<use x="167.60" y="381.00" xlink:href="#hd"/>
<path d="M171.10 381.00v-21.00" class="stroke"/>
<use x="198.50" y="378.00" xlink:href="#hd"/>
<path d="M202.00 378.00v-21.00" class="stroke"/>
<use x="248.60" y="384.00" xlink:href="#hd"/>
<circle class="fill" cx="256.30" cy="384.00" r="1.2"/>
<path d="M252.10 384.00v-21.00" class="stroke"/>
<use x="284.10" y="381.00" xlink:href="#hd"/>
<path d="M287.60 381.00v-21.00" class="stroke"/>
<path class="fill"
	d="M287.60 360.00c0.6 5.6 9.6 9 5.6 18.4
	1.6 -6 -1.3 -11.6 -5.6 -12.8
"/>
<path class="fill"
	d="M309.40 360.10l60.20 0.00v3.20l-60.20 -0.00"/>
<use x="306.20" y="384.00" xlink:href="#hd"/>
<path d="M309.70 384.00v-23.00" class="stroke"/>
<use x="326.10" y="378.00" xlink:href="#hd"/>
<path d="M329.60 378.00v-17.00" class="stroke"/>
<use x="345.90" y="381.00" xlink:href="#hd"/>
<path d="M349.40 381.00v-20.00" class="stroke"/>
<use x="365.70" y="384.00" xlink:href="#hd"/>
<path d="M369.20 384.00v-23.00" class="stroke"/>
<path class="fill"
	d="M397.10 357.30l20.50 2.40v3.20l-20.50 -2.40"/>
<use x="393.90" y="378.00" xlink:href="#hd"/>
<path d="M397.40 378.00v-19.70" class="stroke"/>
<use x="413.70" y="381.00" xlink:href="#hd"/>
<path d="M417.20 381.00v-20.30" class="stroke"/>
<use x="435.70" y="384.00" xlink:href="#hd"/>
<path d="M439.20 384.00v-21.00" class="stroke"/>
<use x="466.60" y="387.00" xlink:href="#hd"/>
<path d="M470.10 387.00v-21.00" class="stroke"/>
<use x="497.90" y="375.00" xlink:href="#hd"/>
<path d="M501.40 375.00v-21.00" class="stroke"/>
<path class="fill"
	d="M536.00 352.80l60.20 0.00v3.20l-60.20 -0.00"/>
<use x="532.80" y="378.00" xlink:href="#hd"/>
<path d="M536.30 378.00v-24.20" class="stroke"/>
<use x="552.70" y="375.00" xlink:href="#hd"/>
<path d="M556.20 375.00v-21.20" class="stroke"/>
<use x="572.50" y="372.00" xlink:href="#hd"/>
<path d="M576.00 372.00v-18.20" class="stroke"/>
<use x="592.30" y="375.00" xlink:href="#hd"/>
<path d="M595.80 375.00v-21.20" class="stroke"/>
<path class="fill"
	d="M617.50 358.00l62.30 7.00v3.20l-62.30 -7.00"/>
<use x="614.30" y="378.00" xlink:href="#hd"/>
<path d="M617.80 378.00v-19.00" class="stroke"/>
<use x="634.10" y="381.00" xlink:href="#hd"/>
<path d="M637.60 381.00v-19.70" class="stroke"/>
<use x="656.10" y="384.00" xlink:href="#hd"/>
<path d="M659.60 384.00v-20.30" class="stroke"/>
<use x="675.90" y="387.00" xlink:href="#hd"/>
<path d="M679.40 387.00v-21.00" class="stroke"/>
</g>
<g stroke-width="0.70" style="font:italic 14.00px Times">
<path class="stroke" stroke-width="1"
	d="M10.00 515.00v-82.00"/>
<path class="stroke" stroke-width="1"
	d="M205.50 457.00v-24.00"/>
<path class="stroke" stroke-width="1"
	d="M205.50 515.00v-58.00"/>
<path class="stroke" stroke-width="1"
	d="M365.00 457.00v-24.00"/>
<path class="stroke" stroke-width="1"
	d="M365.00 515.00v-58.00"/>
<path class="stroke" stroke-width="1"
	d="M553.60 457.00v-24.00"/>
<path class="stroke" stroke-width="1"
	d="M553.60 515.00v-58.00"/>
<path class="stroke" stroke-width="1"
	d="M691.60 457.00v-24.00"/>
<path d="m10.00 457.00
	h681.60
	M10.00 451.00
	h681.60
	M10.00 445.00
	h681.60
	M10.00 439.00
	h681.60
	M10.00 433.00
	h681.60
	" class="stroke"/>
<path d="m10.00 515.00
	h681.60
	M10.00 509.00
	h681.60
	M10.00 503.00
	h681.60
	M10.00 497.00
	h681.60
	M10.00 491.00
	h681.60
	" class="stroke"/>
<use x="22.00" y="451.00" xlink:href="#tclef"/>
<use x="37.00" y="433.00" xlink:href="#sh0"/>
<use x="42.50" y="442.00" xlink:href="#sh0"/>
<use x="60.50" y="433.00" xlink:href="#hd"/>
<path d="M57.00 433.00v21.00" class="stroke"/>
<use x="94.90" y="427.00" xlink:href="#hl"/>
<use x="94.90" y="427.00" xlink:href="#hd"/>
<path d="M91.40 427.00v21.00" class="stroke"/>
<use x="129.40" y="436.00" xlink:href="#hd"/>
<circle class="fill" cx="137.10" cy="436.00" r="1.2"/>
<path d="M125.90 436.00v21.00" class="stroke"/>
<use x="188.20" y="442.00" xlink:href="#hd"/>
<path d="M184.70 442.00v21.00" class="stroke"/>
<path class="fill"
	d="M184.70 463.00c0.6 -5.6 9.6 -9 5.6 -18.4
	1.6 6 -1.3 11.6 -5.6 12.8
"/>
<use x="218.00" y="439.00" xlink:href="#hd"/>
<circle class="fill" cx="225.70" cy="436.00" r="1.2"/>
<path d="M214.50 439.00v21.00" class="stroke"/>
<use x="257.30" y="436.00" xlink:href="#hd"/>
<path d="M253.80 436.00v21.00" class="stroke"/>
<path class="fill"
	d="M253.80 457.00c0.6 -5.6 9.6 -9 5.6 -18.4
	1.6 6 -1.3 11.6 -5.6 12.8
"/>
<path class="fill"
	d="M278.00 460.90l66.70 7.10v-3.20l-66.70 -7.10"/>
<use x="281.80" y="439.00" xlink:href="#hd"/>
<path d="M278.30 439.00v21.00" class="stroke"/>
<use x="303.80" y="442.00" xlink:href="#hd"/>
<path d="M300.30 442.00v20.30" class="stroke"/>
<use x="325.80" y="445.00" xlink:href="#hd"/>
<path d="M322.30 445.00v19.70" class="stroke"/>
<use x="347.80" y="448.00" xlink:href="#hd"/>
<path d="M344.30 448.00v19.00" class="stroke"/>
<use x="377.50" y="445.00" xlink:href="#hd"/>
<path d="M374.00 445.00v21.00" class="stroke"/>
<use x="424.00" y="451.00" xlink:href="#hd"/>
<path d="M427.50 451.00v-21.00" class="stroke"/>
<path class="fill"
	d="M473.60 427.90l66.70 7.10v3.20l-66.70 -7.10"/>
<use x="470.40" y="448.00" xlink:href="#hd"/>
<path d="M473.90 448.00v-19.00" class="stroke"/>
<use x="492.40" y="451.00" xlink:href="#hd"/>
<path d="M495.90 451.00v-19.70" class="stroke"/>
<use x="514.40" y="454.00" xlink:href="#hd"/>
<path d="M517.90 454.00v-20.30" class="stroke"/>
<use x="536.40" y="457.00" xlink:href="#hd"/>
<path d="M539.90 457.00v-21.00" class="stroke"/>
<use x="566.60" y="460.00" xlink:href="#Hd"/>
<path d="M570.10 460.00v-21.00" class="stroke"/>
<use x="615.50" y="460.00" xlink:href="#hd"/>
<circle class="fill" cx="623.20" cy="460.00" r="1.2"/>
<path d="M619.00 460.00v-21.00" class="stroke"/>
<use x="674.40" y="430.00" xlink:href="#hd"/>
<path d="M670.90 430.00v21.00" class="stroke"/>
<path class="fill"
	d="M670.90 451.00c0.6 -5.6 9.6 -9 5.6 -18.4
	1.6 6 -1.3 11.6 -5.6 12.8
"/>
<path class="fill"
	d="M570.10 460.00c6.56 5.25 35.31 5.25 41.87 -0.00
	v0.24c-7.82 7.01 -34.05 7.01 -41.87 -0.24"/>
<use x="22.00" y="509.00" xlink:href="#tclef"/>
<use x="37.00" y="491.00" xlink:href="#sh0"/>
<use x="42.50" y="500.00" xlink:href="#sh0"/>
<use x="60.50" y="518.00" xlink:href="#hd"/>
<path d="M64.00 518.00v-21.00" class="stroke"/>
<use x="94.90" y="512.00" xlink:href="#hd"/>
<path d="M98.40 512.00v-21.00" class="stroke"/>
<use x="129.40" y="506.00" xlink:href="#hd"/>
<path d="M132.90 506.00v-21.00" class="stroke"/>
<use x="163.80" y="509.00" xlink:href="#hd"/>
<path d="M167.30 509.00v-21.00" class="stroke"/>
<use x="218.00" y="512.00" xlink:href="#hd"/>
<circle class="fill" cx="225.70" cy="512.00" r="1.2"/>
<path d="M221.50 512.00v-21.00" class="stroke"/>
<use x="257.30" y="509.00" xlink:href="#hd"/>
<path d="M260.80 509.00v-21.00" class="stroke"/>
<path class="fill"
	d="M260.80 488.00c0.6 5.6 9.6 9 5.6 18.4
	1.6 -6 -1.3 -11.6 -5.6 -12.8
"/>
<path class="fill"
	d="M285.00 488.10l66.70 0.00v3.20l-66.70 -0.00"/>
<use x="281.80" y="512.00" xlink:href="#hd"/>
<path d="M285.30 512.00v-23.00" class="stroke"/>
<use x="303.80" y="506.00" xlink:href="#hd"/>
<path d="M307.30 506.00v-17.00" class="stroke"/>
<use x="325.80" y="509.00" xlink:href="#hd"/>
<path d="M329.30 509.00v-20.00" class="stroke"/>
<use x="347.80" y="512.00" xlink:href="#hd"/>
<path d="M351.30 512.00v-23.00" class="stroke"/>
<path class="fill"
	d="M380.70 483.60l69.10 -5.80v3.20l-69.10 5.80"/>
<use x="377.50" y="509.00" xlink:href="#hd"/>
<path d="M381.00 509.00v-24.40" class="stroke"/>
<use x="399.50" y="506.00" xlink:href="#hd"/>
<path d="M403.00 506.00v-23.30" class="stroke"/>
<use x="424.00" y="503.00" xlink:href="#hd"/>
<path d="M427.50 503.00v-22.30" class="stroke"/>
<use x="446.00" y="497.00" xlink:href="#hd"/>
<path d="M449.50 497.00v-18.20" class="stroke"/>
<path class="fill"
	d="M473.60 479.90l66.70 7.10v3.20l-66.70 -7.10"/>
<use x="470.40" y="500.00" xlink:href="#hd"/>
<path d="M473.90 500.00v-19.00" class="stroke"/>
<use x="492.40" y="503.00" xlink:href="#hd"/>
<path d="M495.90 503.00v-19.70" class="stroke"/>
<use x="514.40" y="506.00" xlink:href="#hd"/>
<path d="M517.90 506.00v-20.30" class="stroke"/>
<use x="536.40" y="509.00" xlink:href="#hd"/>
<path d="M539.90 509.00v-21.00" class="stroke"/>
<use x="566.60" y="512.00" xlink:href="#Hd"/>
<circle class="fill" cx="575.30" cy="512.00" r="1.2"/>
<path d="M570.10 512.00v-21.00" class="stroke"/>
<use x="649.80" y="503.00" xlink:href="#hd"/>
<path d="M653.30 503.00v-21.00" class="stroke"/>
</g>
<g stroke-width="0.70" style="font:italic 14.00px Times">
<path class="stroke" stroke-width="1"
	d="M190.90 585.00v-24.00"/>
<path class="stroke" stroke-width="1"
	d="M356.40 585.00v-24.00"/>
<path class="stroke" stroke-width="1"
	d="M498.40 585.00v-24.00"/>
<path class="stroke" stroke-width="1"
	d="M691.60 585.00v-24.00"/>
<path d="m10.00 585.00
	h681.60
	M10.00 579.00
	h681.60
	M10.00 573.00
	h681.60
	M10.00 567.00
	h681.60
	M10.00 561.00
	h681.60
	" class="stroke"/>
<use x="22.00" y="579.00" xlink:href="#tclef"/>
<use x="37.00" y="561.00" xlink:href="#sh0"/>
<use x="42.50" y="570.00" xlink:href="#sh0"/>
<use x="60.50" y="561.00" xlink:href="#hd"/>
<path d="M57.00 561.00v21.00" class="stroke"/>
<use x="96.30" y="555.00" xlink:href="#hl"/>
<use x="96.30" y="555.00" xlink:href="#hd"/>
<path d="M92.80 555.00v21.00" class="stroke"/>
<use x="132.20" y="564.00" xlink:href="#hd"/>
<circle class="fill" cx="139.90" cy="564.00" r="1.2"/>
<path d="M128.70 564.00v21.00" class="stroke"/>
<use x="173.10" y="570.00" xlink:href="#hd"/>
<path d="M169.60 570.00v21.00" class="stroke"/>
<path class="fill"
	d="M169.60 591.00c0.6 -5.6 9.6 -9 5.6 -18.4
	1.6 6 -1.3 11.6 -5.6 12.8
"/>
<use x="203.70" y="567.00" xlink:href="#hd"/>
<circle class="fill" cx="211.40" cy="564.00" r="1.2"/>
<path d="M200.20 567.00v21.00" class="stroke"/>
<use x="244.60" y="564.00" xlink:href="#hd"/>
<path d="M241.10 564.00v21.00" class="stroke"/>
<path class="fill"
	d="M241.10 585.00c0.6 -5.6 9.6 -9 5.6 -18.4
	1.6 6 -1.3 11.6 -5.6 12.8
"/>
<path class="fill"
	d="M266.10 588.90l69.30 7.20v-3.20l-69.30 -7.20"/>
<use x="270.00" y="567.00" xlink:href="#hd"/>
<path d="M266.50 567.00v20.90" class="stroke"/>
<use x="292.80" y="570.00" xlink:href="#hd"/>
<path d="M289.30 570.00v20.30" class="stroke"/>
<use x="315.70" y="573.00" xlink:href="#hd"/>
<path d="M312.20 573.00v19.70" class="stroke"/>
<use x="338.60" y="576.00" xlink:href="#hd"/>
<path d="M335.10 576.00v19.10" class="stroke"/>
<use x="369.20" y="573.00" xlink:href="#hd"/>
<path d="M365.70 573.00v21.00" class="stroke"/>
<use x="405.10" y="567.00" xlink:href="#hd"/>
<path d="M401.60 567.00v21.00" class="stroke"/>
<use x="437.30" y="576.00" xlink:href="#hd"/>
<path d="M440.80 576.00v-21.00" class="stroke"/>
<use x="473.20" y="567.00" xlink:href="#hd"/>
<path d="M469.70 567.00v21.00" class="stroke"/>
<path class="fill"
	d="M514.30 552.90l69.30 7.20v3.20l-69.30 -7.20"/>
<use x="511.20" y="573.00" xlink:href="#hd"/>
<path d="M514.70 573.00v-19.10" class="stroke"/>
<use x="534.00" y="576.00" xlink:href="#hd"/>
<path d="M537.50 576.00v-19.70" class="stroke"/>
<use x="556.90" y="579.00" xlink:href="#hd"/>
<path d="M560.40 579.00v-20.30" class="stroke"/>
<use x="579.80" y="582.00" xlink:href="#hd"/>
<path d="M583.30 582.00v-20.90" class="stroke"/>
<path class="fill"
	d="M608.30 560.80l69.30 0.00v3.20l-69.30 -0.00"/>
<use x="605.20" y="585.00" xlink:href="#hd"/>
<path d="M608.70 585.00v-23.20" class="stroke"/>
<use x="628.00" y="579.00" xlink:href="#hd"/>
<path d="M631.50 579.00v-17.20" class="stroke"/>
<use x="650.90" y="582.00" xlink:href="#hd"/>
<path d="M654.40 582.00v-20.20" class="stroke"/>
<use x="673.70" y="585.00" xlink:href="#hd"/>
<path d="M677.20 585.00v-23.20" class="stroke"/>
</g>
<g stroke-width="0.70" style="font:italic 14.00px Times">
<path class="stroke" stroke-width="1"
	d="M206.30 655.00v-24.00"/>
<path class="stroke" stroke-width="1"
	d="M394.30 655.00v-24.00"/>
<path class="stroke" stroke-width="1"
	d="M590.10 655.00v-24.00"/>
<path class="stroke" stroke-width="1"
	d="M691.60 655.00v-24.00"/>
<path d="m10.00 655.00
	h681.60
	M10.00 649.00
	h681.60
	M10.00 643.00
	h681.60
	M10.00 637.00
	h681.60
	M10.00 631.00
	h681.60
	" class="stroke"/>
<use x="22.00" y="649.00" xlink:href="#tclef"/>
<use x="37.00" y="631.00" xlink:href="#sh0"/>
<use x="42.50" y="640.00" xlink:href="#sh0"/>
<use x="60.50" y="658.00" xlink:href="#hd"/>
<circle class="fill" cx="68.20" cy="658.00" r="1.2"/>
<path d="M64.00 658.00v-21.00" class="stroke"/>
<use x="107.30" y="652.00" xlink:href="#hd"/>
<path d="M110.80 652.00v-21.00" class="stroke"/>
<path class="fill"
	d="M110.80 631.00c0.6 5.6 9.6 9 5.6 18.4
	1.6 -6 -1.3 -11.6 -5.6 -12.8
"/>
<use x="136.40" y="646.00" xlink:href="#hd"/>
<path d="M139.90 646.00v-21.00" class="stroke"/>
<use x="177.50" y="637.00" xlink:href="#hd"/>
<path d="M174.00 637.00v21.00" class="stroke"/>
<path class="fill"
	d="M217.00 652.80l79.20 7.40v-3.20l-79.20 -7.40"/>
<use x="220.90" y="631.00" xlink:href="#hd"/>
<path d="M217.40 631.00v20.80" class="stroke"/>
<use x="247.10" y="634.00" xlink:href="#hd"/>
<path d="M243.60 634.00v20.30" class="stroke"/>
<use x="273.30" y="637.00" xlink:href="#hd"/>
<path d="M269.80 637.00v19.70" class="stroke"/>
<use x="299.40" y="640.00" xlink:href="#hd"/>
<path d="M295.90 640.00v19.20" class="stroke"/>
<use x="328.50" y="637.00" xlink:href="#hd"/>
<path d="M325.00 637.00v21.00" class="stroke"/>
<use x="365.50" y="646.00" xlink:href="#hd"/>
<path d="M369.00 646.00v-21.00" class="stroke"/>
<use x="408.90" y="643.00" xlink:href="#hd"/>
<path d="M412.40 643.00v-21.00" class="stroke"/>
<use x="450.00" y="649.00" xlink:href="#hd"/>
<path d="M453.50 649.00v-21.00" class="stroke"/>
<path class="fill"
	d="M494.30 625.80l79.20 7.40v3.20l-79.20 -7.40"/>
<use x="491.10" y="646.00" xlink:href="#hd"/>
<path d="M494.60 646.00v-19.20" class="stroke"/>
<use x="517.30" y="649.00" xlink:href="#hd"/>
<path d="M520.80 649.00v-19.70" class="stroke"/>
<use x="543.50" y="652.00" xlink:href="#hd"/>
<path d="M547.00 652.00v-20.30" class="stroke"/>
<use x="569.70" y="655.00" xlink:href="#hd"/>
<path d="M573.20 655.00v-20.80" class="stroke"/>
<use x="604.60" y="658.00" xlink:href="#Hd"/>
<path d="M608.10 658.00v-21.00" class="stroke"/>
<use x="662.80" y="658.00" xlink:href="#hd"/>
<path d="M666.30 658.00v-21.00" class="stroke"/>
<path class="fill"
	d="M608.10 658.00c7.81 5.42 43.39 5.42 51.19 -0.00
	v0.25c-9.34 7.17 -41.85 7.17 -51.19 -0.25"/>
</g>
</svg>
