<?xml version="1.0" standalone="no"?>
<!DOCTYPE svg PUBLIC "-//W3C//DTD SVG 1.1//EN"
	"http://www.w3.org/Graphics/SVG/1.1/DTD/svg11.dtd">
<svg xmlns="http://www.w3.org/2000/svg" version="1.1"
	xmlns:xlink="http://www.w3.org/1999/xlink"
	color="black"
	width="701.60px" height="318.00px">
<style type="text/css">
.fill {fill: currentColor}
.stroke {stroke: currentColor; fill: none}
text{white-space: pre}
</style>
<title>/media/tim/Data1/tims_code/sphinx-tunes/source/_abcfiles/Doom.abc (1) tune 1</title>
<!-- Creator: abcm2ps-8.14.6 -->
<!-- CreationDate: Jul 30, 2023 12:21 -->
<!-- CommandLine: -g /media/tim/Data1/tims_code/sphinx-tunes/source/_abcfiles/Doom.abc -O /media/tim/Data1/tims_code/sphinx-tunes/source/_abcfiles/Doom.svg -->
<g stroke-width="0.70">
<!-- title: Doom -->
</g>
<g stroke-width="0.70" style="font:20.00px Times">
<text x="350.80" y="22.00" text-anchor="middle">Doom</text>
</g>
<g stroke-width="0.70" style="font:20.00px Times">
<path class="stroke" stroke-width="1"
	d="M195.20 85.00v-24.00"/>
<path class="stroke" stroke-width="1"
	d="M358.80 85.00v-24.00"/>
<path class="stroke" stroke-width="1"
	d="M525.20 85.00v-24.00"/>
<path class="stroke" stroke-width="1"
	d="M691.60 85.00v-24.00"/>
<path d="m10.00 85.00
	h681.60
	M10.00 79.00
	h681.60
	M10.00 73.00
	h681.60
	M10.00 67.00
	h681.60
	M10.00 61.00
	h681.60
	" class="stroke"/>
<defs>
<path id="utclef" class="fill" d="m-50 -90
	c-72 -41 -72 -158 52 -188
	150 -10 220 188 90 256
	-114 52 -275 0 -293 -136
	-15 -181 93 -229 220 -334
	88 -87 79 -133 62 -210
	-51 33 -94 105 -89 186
	17 267 36 374 49 574
	6 96 -19 134 -77 135
	-80 1 -126 -93 -61 -133
	85 -41 133 101 31 105
	23 17 92 37 90 -92
	-10 -223 -39 -342 -50 -617
	0 -90 0 -162 96 -232
	56 72 63 230 22 289
	-74 106 -257 168 -255 316
	9 153 148 185 252 133
	86 -65 29 -192 -80 -176
	-71 12 -105 67 -59 124"/>
<use id="tclef" transform="translate(0,6) scale(0.045)"
	xlink:href="#utclef"/>
</defs>
<use x="22.00" y="79.00" xlink:href="#tclef"/>
<defs>
<path id="usharp" class="fill" d="
	m136 -702
	v890
	h32
	v-890
	m128 840
	h32
	v-888
	h-32
	m-232 286
	v116
	l338 -96
	v-116
	m-338 442
	v116
	l338 -98
	v-114"/>
<use id="sh0" transform="translate(-4,5) scale(0.018)"
	xlink:href="#usharp"/>
</defs>
<use x="37.00" y="61.00" xlink:href="#sh0"/>
<use x="42.50" y="70.00" xlink:href="#sh0"/>
<g style="font:bold 16px serif"
	transform="translate(58.50,84.50) scale(1.2,1)">
	<text text-anchor="middle">4</text>
	<text y="-12" text-anchor="middle">3</text>
</g>
<defs>
<ellipse id="hd" rx="4.1" ry="2.9"
	transform="rotate(-20)" class="fill"/>
</defs>
<use x="76.50" y="61.00" xlink:href="#hd"/>
<circle class="fill" cx="84.20" cy="58.00" r="1.2"/>
<path d="M73.00 61.00v21.00" class="stroke"/>
<use x="121.90" y="64.00" xlink:href="#hd"/>
<path d="M118.40 64.00v21.00" class="stroke"/>
<path class="fill"
	d="M118.40 85.00c0.6 -5.6 9.6 -9 5.6 -18.4
	1.6 6 -1.3 11.6 -5.6 12.8
"/>
<path class="fill"
	d="M146.20 87.10l26.10 -4.20v-3.20l-26.10 4.20"/>
<use x="150.10" y="67.00" xlink:href="#hd"/>
<path d="M146.60 67.00v19.00" class="stroke"/>
<use x="175.50" y="61.00" xlink:href="#hd"/>
<path d="M172.00 61.00v21.00" class="stroke"/>
<path class="fill"
	d="M205.50 85.90l26.10 4.20v-3.20l-26.10 -4.20"/>
<use x="209.30" y="64.00" xlink:href="#hd"/>
<path d="M205.80 64.00v21.00" class="stroke"/>
<use x="234.70" y="70.00" xlink:href="#hd"/>
<path d="M231.20 70.00v19.00" class="stroke"/>
<path class="fill"
	d="M259.10 96.10l26.10 -4.20v-3.20l-26.10 4.20"/>
<use x="262.90" y="76.00" xlink:href="#hd"/>
<path d="M259.40 76.00v19.00" class="stroke"/>
<use x="288.30" y="70.00" xlink:href="#hd"/>
<path d="M284.80 70.00v21.00" class="stroke"/>
<path class="fill"
	d="M316.80 52.30l26.10 2.50v3.20l-26.10 -2.50"/>
<use x="313.70" y="73.00" xlink:href="#hd"/>
<path d="M317.20 73.00v-19.70" class="stroke"/>
<use x="339.00" y="76.00" xlink:href="#hd"/>
<path d="M342.50 76.00v-20.30" class="stroke"/>
<path class="fill"
	d="M376.10 57.10l26.10 -4.20v3.20l-26.10 4.20"/>
<use x="372.90" y="79.00" xlink:href="#hd"/>
<path d="M376.40 79.00v-21.00" class="stroke"/>
<use x="398.30" y="73.00" xlink:href="#hd"/>
<path d="M401.80 73.00v-19.00" class="stroke"/>
<path class="fill"
	d="M429.60 47.70l26.10 7.10v3.20l-26.10 -7.10"/>
<use x="426.50" y="67.00" xlink:href="#hd"/>
<path d="M430.00 67.00v-18.20" class="stroke"/>
<use x="451.90" y="82.00" xlink:href="#hd"/>
<path d="M455.40 82.00v-26.30" class="stroke"/>
<path class="fill"
	d="M476.20 93.10l26.10 -4.20v-3.20l-26.10 4.20"/>
<use x="480.10" y="73.00" xlink:href="#hd"/>
<path d="M476.60 73.00v19.00" class="stroke"/>
<use x="505.50" y="67.00" xlink:href="#hd"/>
<path d="M502.00 67.00v21.00" class="stroke"/>
<path class="fill"
	d="M535.50 96.10l26.10 -4.20v-3.20l-26.10 4.20"/>
<use x="539.30" y="76.00" xlink:href="#hd"/>
<path d="M535.80 76.00v19.00" class="stroke"/>
<use x="564.70" y="70.00" xlink:href="#hd"/>
<path d="M561.20 70.00v21.00" class="stroke"/>
<path class="fill"
	d="M589.00 88.90l26.10 6.30v-3.20l-26.10 -6.30"/>
<use x="592.90" y="64.00" xlink:href="#hd"/>
<path d="M589.40 64.00v24.00" class="stroke"/>
<use x="618.30" y="76.00" xlink:href="#hd"/>
<path d="M614.80 76.00v18.20" class="stroke"/>
<path class="fill"
	d="M642.60 75.70l26.10 -2.50v-3.20l-26.10 2.50"/>
<defs>
<path id="hl" class="stroke" d="m-6 0h12"/>
</defs>
<use x="646.50" y="55.00" xlink:href="#hl"/>
<use x="646.50" y="55.00" xlink:href="#hd"/>
<path d="M643.00 55.00v19.70" class="stroke"/>
<use x="671.90" y="55.00" xlink:href="#hl"/>
<use x="671.90" y="52.00" xlink:href="#hd"/>
<path d="M668.40 52.00v20.30" class="stroke"/>
</g>
<g stroke-width="0.70" style="font:20.00px Times">
<path class="stroke" stroke-width="1"
	d="M184.50 155.00v-24.00"/>
<path class="stroke" stroke-width="1"
	d="M355.40 155.00v-24.00"/>
<path class="stroke" stroke-width="1"
	d="M529.20 155.00v-24.00"/>
<path class="stroke" stroke-width="3"
	d="M690.10 155.00v-24.00"/>
<path class="stroke" stroke-width="1"
	d="M685.60 155.00v-24.00"/>
<defs>
<g id="rdots" class="fill">
	<circle cx="0" cy="-9" r="1.2"/>
	<circle cx="0" cy="-15" r="1.2"/>
</g>
</defs>
<use x="681.60" y="155.00" xlink:href="#rdots"/>
<path d="m10.00 155.00
	h681.60
	M10.00 149.00
	h681.60
	M10.00 143.00
	h681.60
	M10.00 137.00
	h681.60
	M10.00 131.00
	h681.60
	" class="stroke"/>
<use x="22.00" y="149.00" xlink:href="#tclef"/>
<use x="37.00" y="131.00" xlink:href="#sh0"/>
<use x="42.50" y="140.00" xlink:href="#sh0"/>
<use x="60.50" y="131.00" xlink:href="#hd"/>
<circle class="fill" cx="68.20" cy="128.00" r="1.2"/>
<path d="M57.00 131.00v21.00" class="stroke"/>
<use x="107.90" y="134.00" xlink:href="#hd"/>
<path d="M104.40 134.00v21.00" class="stroke"/>
<path class="fill"
	d="M104.40 155.00c0.6 -5.6 9.6 -9 5.6 -18.4
	1.6 6 -1.3 11.6 -5.6 12.8
"/>
<path class="fill"
	d="M133.50 157.10l27.20 -4.20v-3.20l-27.20 4.20"/>
<use x="137.40" y="137.00" xlink:href="#hd"/>
<path d="M133.90 137.00v19.10" class="stroke"/>
<use x="163.90" y="131.00" xlink:href="#hd"/>
<path d="M160.40 131.00v20.90" class="stroke"/>
<path class="fill"
	d="M195.40 155.90l27.20 4.20v-3.20l-27.20 -4.20"/>
<use x="199.20" y="134.00" xlink:href="#hd"/>
<path d="M195.70 134.00v20.90" class="stroke"/>
<use x="225.70" y="140.00" xlink:href="#hd"/>
<path d="M222.20 140.00v19.10" class="stroke"/>
<path class="fill"
	d="M251.40 166.10l27.20 -4.20v-3.20l-27.20 4.20"/>
<use x="255.20" y="146.00" xlink:href="#hd"/>
<path d="M251.70 146.00v19.10" class="stroke"/>
<use x="281.70" y="140.00" xlink:href="#hd"/>
<path d="M278.20 140.00v20.90" class="stroke"/>
<path class="fill"
	d="M311.40 122.20l27.20 2.50v3.20l-27.20 -2.50"/>
<use x="308.20" y="143.00" xlink:href="#hd"/>
<path d="M311.70 143.00v-19.70" class="stroke"/>
<use x="334.70" y="146.00" xlink:href="#hd"/>
<path d="M338.20 146.00v-20.30" class="stroke"/>
<path class="fill"
	d="M373.30 128.20l27.20 2.50v3.20l-27.20 -2.50"/>
<use x="370.10" y="149.00" xlink:href="#hd"/>
<path d="M373.60 149.00v-19.70" class="stroke"/>
<use x="396.60" y="152.00" xlink:href="#hd"/>
<path d="M400.10 152.00v-20.30" class="stroke"/>
<path class="fill"
	d="M429.20 123.00l27.20 -8.30v3.20l-27.20 8.30"/>
<use x="426.10" y="155.00" xlink:href="#hd"/>
<path d="M429.60 155.00v-31.10" class="stroke"/>
<use x="452.60" y="134.00" xlink:href="#hd"/>
<path d="M456.10 134.00v-18.20" class="stroke"/>
<path class="fill"
	d="M478.20 152.90l27.20 4.20v-3.20l-27.20 -4.20"/>
<use x="482.00" y="131.00" xlink:href="#hd"/>
<path d="M478.50 131.00v20.90" class="stroke"/>
<use x="508.60" y="137.00" xlink:href="#hd"/>
<path d="M505.10 137.00v19.10" class="stroke"/>
<use x="543.90" y="143.00" xlink:href="#hd"/>
<path d="M540.40 143.00v21.00" class="stroke"/>
<path class="fill"
	d="M581.70 149.20l27.20 2.50v-3.20l-27.20 -2.50"/>
<use x="585.50" y="128.00" xlink:href="#hd"/>
<path d="M582.00 128.00v20.30" class="stroke"/>
<use x="612.10" y="131.00" xlink:href="#hd"/>
<path d="M608.60 131.00v19.70" class="stroke"/>
<path class="fill"
	d="M637.70 154.10l27.20 -4.20v-3.20l-27.20 4.20"/>
<use x="641.50" y="134.00" xlink:href="#hd"/>
<path d="M638.00 134.00v19.10" class="stroke"/>
<use x="668.00" y="128.00" xlink:href="#hd"/>
<path d="M664.50 128.00v20.90" class="stroke"/>
</g>
<g stroke-width="0.70" style="font:20.00px Times">
<path class="stroke" stroke-width="1"
	d="M228.10 225.00v-24.00"/>
<path class="stroke" stroke-width="1"
	d="M374.30 225.00v-24.00"/>
<path class="stroke" stroke-width="1"
	d="M523.60 225.00v-24.00"/>
<path class="stroke" stroke-width="1"
	d="M691.60 225.00v-24.00"/>
<path d="m10.00 225.00
	h681.60
	M10.00 219.00
	h681.60
	M10.00 213.00
	h681.60
	M10.00 207.00
	h681.60
	M10.00 201.00
	h681.60
	" class="stroke"/>
<use x="22.00" y="219.00" xlink:href="#tclef"/>
<use x="37.00" y="201.00" xlink:href="#sh0"/>
<use x="42.50" y="210.00" xlink:href="#sh0"/>
<path class="fill"
	d="M56.70 228.90l28.60 4.30v-3.20l-28.60 -4.30"/>
<use x="60.50" y="207.00" xlink:href="#hd"/>
<path d="M57.00 207.00v20.90" class="stroke"/>
<use x="88.40" y="213.00" xlink:href="#hd"/>
<path d="M84.90 213.00v19.10" class="stroke"/>
<path class="fill"
	d="M115.60 222.20l28.60 2.50v-3.20l-28.60 -2.50"/>
<use x="119.50" y="201.00" xlink:href="#hd"/>
<path d="M116.00 201.00v20.30" class="stroke"/>
<use x="147.40" y="204.00" xlink:href="#hd"/>
<path d="M143.90 204.00v19.70" class="stroke"/>
<path class="fill"
	d="M174.60 228.20l28.60 2.50v-3.20l-28.60 -2.50"/>
<use x="178.50" y="207.00" xlink:href="#hd"/>
<path d="M175.00 207.00v20.30" class="stroke"/>
<use x="206.40" y="210.00" xlink:href="#hd"/>
<path d="M202.90 210.00v19.70" class="stroke"/>
<use x="243.60" y="216.00" xlink:href="#hd"/>
<circle class="fill" cx="251.30" cy="216.00" r="1.2"/>
<path d="M247.10 216.00v-21.00" class="stroke"/>
<use x="293.60" y="219.00" xlink:href="#hd"/>
<path d="M297.10 219.00v-21.00" class="stroke"/>
<path class="fill"
	d="M297.10 198.00c0.6 5.6 9.6 9 5.6 18.4
	1.6 -6 -1.3 -11.6 -5.6 -12.8
"/>
<path class="fill"
	d="M327.80 194.80l28.60 -2.50v3.20l-28.60 2.50"/>
<use x="324.60" y="216.00" xlink:href="#hd"/>
<path d="M328.10 216.00v-20.30" class="stroke"/>
<use x="352.60" y="213.00" xlink:href="#hd"/>
<path d="M356.10 213.00v-19.70" class="stroke"/>
<use x="392.90" y="210.00" xlink:href="#hd"/>
<circle class="fill" cx="400.60" cy="210.00" r="1.2"/>
<defs>
<path id="unat" class="fill" d="
	m96 -750
	h-32
	v716
	l32 -8
	182 -54
	v282
	h32
	v-706
	l-34 10
	-180 50
	v-290
	m0 592
	v-190
	l182 -52
	v188"/>
<use id="nt0" transform="translate(-3,5) scale(0.018)"
	xlink:href="#unat"/>
</defs>
<use x="383.90" y="210.00" xlink:href="#nt0"/>
<path d="M389.40 210.00v21.00" class="stroke"/>
<use x="442.90" y="213.00" xlink:href="#hd"/>
<path d="M439.40 213.00v21.00" class="stroke"/>
<path class="fill"
	d="M439.40 234.00c0.6 -5.6 9.6 -9 5.6 -18.4
	1.6 6 -1.3 11.6 -5.6 12.8
"/>
<path class="fill"
	d="M470.10 236.10l28.60 -4.30v-3.20l-28.60 4.30"/>
<use x="473.90" y="216.00" xlink:href="#hd"/>
<path d="M470.40 216.00v19.10" class="stroke"/>
<use x="501.80" y="210.00" xlink:href="#hd"/>
<path d="M498.30 210.00v20.90" class="stroke"/>
<path class="fill"
	d="M542.20 192.90l28.60 4.30v3.20l-28.60 -4.30"/>
<use x="539.10" y="213.00" xlink:href="#hd"/>
<path d="M542.60 213.00v-19.10" class="stroke"/>
<use x="567.00" y="219.00" xlink:href="#hd"/>
<path d="M570.50 219.00v-20.90" class="stroke"/>
<use x="598.10" y="225.00" xlink:href="#hd"/>
<path d="M601.60 225.00v-21.00" class="stroke"/>
<path class="fill"
	d="M638.10 227.80l28.60 -2.50v-3.20l-28.60 2.50"/>
<use x="641.90" y="207.00" xlink:href="#hd"/>
<path d="M638.40 207.00v19.70" class="stroke"/>
<use x="669.90" y="204.00" xlink:href="#hd"/>
<path d="M666.40 204.00v20.30" class="stroke"/>
</g>
<g stroke-width="0.70" style="font:20.00px Times">
<path class="stroke" stroke-width="1"
	d="M263.40 295.00v-24.00"/>
<path class="stroke" stroke-width="1"
	d="M382.70 295.00v-24.00"/>
<path class="stroke" stroke-width="1"
	d="M604.40 295.00v-24.00"/>
<path class="stroke" stroke-width="3"
	d="M690.10 295.00v-24.00"/>
<path class="stroke" stroke-width="1"
	d="M685.60 295.00v-24.00"/>
<use x="681.60" y="295.00" xlink:href="#rdots"/>
<path d="m10.00 295.00
	h681.60
	M10.00 289.00
	h681.60
	M10.00 283.00
	h681.60
	M10.00 277.00
	h681.60
	M10.00 271.00
	h681.60
	" class="stroke"/>
<use x="22.00" y="289.00" xlink:href="#tclef"/>
<use x="37.00" y="271.00" xlink:href="#sh0"/>
<use x="42.50" y="280.00" xlink:href="#sh0"/>
<path class="fill"
	d="M56.70 295.10l34.50 7.20v-3.20l-34.50 -7.20"/>
<use x="60.50" y="271.00" xlink:href="#hd"/>
<path d="M57.00 271.00v23.20" class="stroke"/>
<use x="94.30" y="283.00" xlink:href="#hd"/>
<path d="M90.80 283.00v18.20" class="stroke"/>
<path class="fill"
	d="M128.10 294.20l34.50 8.10v-3.20l-34.50 -8.10"/>
<use x="131.90" y="268.00" xlink:href="#hd"/>
<path d="M128.40 268.00v25.30" class="stroke"/>
<use x="165.70" y="283.00" xlink:href="#hd"/>
<path d="M162.20 283.00v18.20" class="stroke"/>
<path class="fill"
	d="M199.50 285.80l34.50 -2.60v-3.20l-34.50 2.60"/>
<use x="203.30" y="265.00" xlink:href="#hl"/>
<use x="203.30" y="265.00" xlink:href="#hd"/>
<path d="M199.80 265.00v19.80" class="stroke"/>
<use x="237.10" y="265.00" xlink:href="#hl"/>
<use x="237.10" y="262.00" xlink:href="#hd"/>
<path d="M233.60 262.00v20.20" class="stroke"/>
<use x="282.20" y="271.00" xlink:href="#hd"/>
<path d="M278.70 271.00v21.00" class="stroke"/>
<defs>
<path id="Hd" class="fill" d="m3 -1.6
	c-1 -1.8 -7 1.4 -6 3.2
	1 1.8 7 -1.4 6 -3.2
	m0.5 -0.3
	c2 3.8 -5 7.6 -7 3.8
	-2 -3.8 5 -7.6 7 -3.8"/>
</defs>
<use x="330.00" y="292.00" xlink:href="#Hd"/>
<path d="M333.50 292.00v-34.00" class="stroke"/>
<use x="330.00" y="277.00" xlink:href="#Hd"/>
<path class="fill"
	d="M397.60 295.20l34.50 2.60v-3.20l-34.50 -2.60"/>
<use x="401.40" y="274.00" xlink:href="#hd"/>
<path d="M397.90 274.00v20.20" class="stroke"/>
<use x="435.30" y="277.00" xlink:href="#hd"/>
<path d="M431.80 277.00v19.80" class="stroke"/>
<path class="fill"
	d="M469.00 300.30l34.50 -4.50v-3.20l-34.50 4.50"/>
<use x="472.90" y="280.00" xlink:href="#hd"/>
<path d="M469.40 280.00v19.20" class="stroke"/>
<use x="506.70" y="274.00" xlink:href="#hd"/>
<path d="M503.20 274.00v20.80" class="stroke"/>
<path class="fill"
	d="M540.40 292.70l34.50 4.50v-3.20l-34.50 -4.50"/>
<use x="544.30" y="271.00" xlink:href="#hd"/>
<path d="M540.80 271.00v20.80" class="stroke"/>
<use x="578.10" y="277.00" xlink:href="#hd"/>
<path d="M574.60 277.00v19.20" class="stroke"/>
<use x="623.20" y="283.00" xlink:href="#Hd"/>
<circle class="fill" cx="631.90" cy="280.00" r="1.2"/>
<path d="M619.70 283.00v21.00" class="stroke"/>
</g>
</svg>
