<?xml version="1.0" standalone="no"?>
<!DOCTYPE svg PUBLIC "-//W3C//DTD SVG 1.1//EN"
	"http://www.w3.org/Graphics/SVG/1.1/DTD/svg11.dtd">
<svg xmlns="http://www.w3.org/2000/svg" version="1.1"
	xmlns:xlink="http://www.w3.org/1999/xlink"
	color="black"
	width="701.60px" height="332.00px">
<style type="text/css">
.fill {fill: currentColor}
.stroke {stroke: currentColor; fill: none}
text{white-space: pre}
</style>
<title>/media/tim/Data1/tims_code/sphinx-tunes/source/_abcfiles/foo.abc (2) tune 2</title>
<!-- Creator: abcm2ps-8.14.6 -->
<!-- CreationDate: Jul 30, 2023 12:21 -->
<!-- CommandLine: -g /media/tim/Data1/tims_code/sphinx-tunes/source/_abcfiles/foo.abc -O /media/tim/Data1/tims_code/sphinx-tunes/source/_abcfiles/foo.svg -->
<g stroke-width="0.70">
<!-- title: Major Russel Cairns -->
</g>
<g stroke-width="0.70" style="font:20.00px Times">
<text x="350.80" y="22.00" text-anchor="middle">Major Russel Cairns</text>
</g>
<g stroke-width="0.70" style="font:italic 14.00px Times">
<text x="691.60" y="46.00" text-anchor="end">G.G. Armstrong</text>
</g>
<g stroke-width="0.70" style="font:italic 14.00px Times">
<path class="stroke" stroke-width="1"
	d="M90.70 99.00v-24.00"/>
<path class="stroke" stroke-width="1"
	d="M242.60 99.00v-24.00"/>
<path class="stroke" stroke-width="1"
	d="M390.50 99.00v-24.00"/>
<path class="stroke" stroke-width="1"
	d="M542.50 99.00v-24.00"/>
<path class="stroke" stroke-width="1"
	d="M691.60 99.00v-24.00"/>
<path d="m10.00 99.00
	h681.60
	M10.00 93.00
	h681.60
	M10.00 87.00
	h681.60
	M10.00 81.00
	h681.60
	M10.00 75.00
	h681.60
	" class="stroke"/>
<defs>
<path id="utclef" class="fill" d="m-50 -90
	c-72 -41 -72 -158 52 -188
	150 -10 220 188 90 256
	-114 52 -275 0 -293 -136
	-15 -181 93 -229 220 -334
	88 -87 79 -133 62 -210
	-51 33 -94 105 -89 186
	17 267 36 374 49 574
	6 96 -19 134 -77 135
	-80 1 -126 -93 -61 -133
	85 -41 133 101 31 105
	23 17 92 37 90 -92
	-10 -223 -39 -342 -50 -617
	0 -90 0 -162 96 -232
	56 72 63 230 22 289
	-74 106 -257 168 -255 316
	9 153 148 185 252 133
	86 -65 29 -192 -80 -176
	-71 12 -105 67 -59 124"/>
<use id="tclef" transform="translate(0,6) scale(0.045)"
	xlink:href="#utclef"/>
</defs>
<use x="22.00" y="93.00" xlink:href="#tclef"/>
<defs>
<path id="usharp" class="fill" d="
	m136 -702
	v890
	h32
	v-890
	m128 840
	h32
	v-888
	h-32
	m-232 286
	v116
	l338 -96
	v-116
	m-338 442
	v116
	l338 -98
	v-114"/>
<use id="sh0" transform="translate(-4,5) scale(0.018)"
	xlink:href="#usharp"/>
</defs>
<use x="37.00" y="75.00" xlink:href="#sh0"/>
<g style="font:bold 16px serif"
	transform="translate(53.00,98.50) scale(1.2,1)">
	<text text-anchor="middle">8</text>
	<text y="-12" text-anchor="middle">6</text>
</g>
<defs>
<ellipse id="hd" rx="4.1" ry="2.9"
	transform="rotate(-20)" class="fill"/>
</defs>
<use x="71.00" y="93.00" xlink:href="#hd"/>
<path d="M74.50 93.00v-21.00" class="stroke"/>
<path class="fill"
	d="M74.50 72.00c0.6 5.6 9.6 9 5.6 18.4
	1.6 -6 -1.3 -11.6 -5.6 -12.8
"/>
<path class="fill"
	d="M107.90 60.20l51.20 3.20v3.20l-51.20 -3.20"/>
<use x="104.70" y="87.00" xlink:href="#hd"/>
<path d="M108.20 87.00v-25.80" class="stroke"/>
<use x="130.00" y="81.00" xlink:href="#hd"/>
<path d="M133.50 81.00v-18.20" class="stroke"/>
<use x="155.20" y="93.00" xlink:href="#hd"/>
<path d="M158.70 93.00v-28.60" class="stroke"/>
<use x="183.30" y="72.00" xlink:href="#hd"/>
<path d="M179.80 72.00v21.00" class="stroke"/>
<use x="222.90" y="78.00" xlink:href="#hd"/>
<path d="M219.40 78.00v21.00" class="stroke"/>
<path class="fill"
	d="M219.40 99.00c0.6 -5.6 9.6 -9 5.6 -18.4
	1.6 6 -1.3 11.6 -5.6 12.8
"/>
<path class="fill"
	d="M252.80 104.00l51.20 8.20v-3.20l-51.20 -8.20"/>
<use x="256.60" y="81.00" xlink:href="#hd"/>
<path d="M253.10 81.00v22.10" class="stroke"/>
<use x="281.90" y="87.00" xlink:href="#hd"/>
<path d="M278.40 87.00v20.10" class="stroke"/>
<use x="307.10" y="93.00" xlink:href="#hd"/>
<path d="M303.60 93.00v18.20" class="stroke"/>
<use x="335.20" y="87.00" xlink:href="#hd"/>
<path d="M331.70 87.00v21.00" class="stroke"/>
<use x="370.90" y="93.00" xlink:href="#hd"/>
<path d="M374.40 93.00v-21.00" class="stroke"/>
<path class="fill"
	d="M374.40 72.00c0.6 5.6 9.6 9 5.6 18.4
	1.6 -6 -1.3 -11.6 -5.6 -12.8
"/>
<path class="fill"
	d="M407.70 60.20l51.20 3.20v3.20l-51.20 -3.20"/>
<use x="404.60" y="87.00" xlink:href="#hd"/>
<path d="M408.10 87.00v-25.80" class="stroke"/>
<use x="429.80" y="81.00" xlink:href="#hd"/>
<path d="M433.30 81.00v-18.20" class="stroke"/>
<use x="455.10" y="93.00" xlink:href="#hd"/>
<path d="M458.60 93.00v-28.60" class="stroke"/>
<use x="483.20" y="72.00" xlink:href="#hd"/>
<path d="M479.70 72.00v21.00" class="stroke"/>
<use x="522.80" y="78.00" xlink:href="#hd"/>
<path d="M519.30 78.00v21.00" class="stroke"/>
<path class="fill"
	d="M519.30 99.00c0.6 -5.6 9.6 -9 5.6 -18.4
	1.6 6 -1.3 11.6 -5.6 12.8
"/>
<path class="fill"
	d="M552.70 104.00l51.20 8.20v-3.20l-51.20 -8.20"/>
<use x="556.50" y="81.00" xlink:href="#hd"/>
<path d="M553.00 81.00v22.10" class="stroke"/>
<use x="581.80" y="87.00" xlink:href="#hd"/>
<path d="M578.30 87.00v20.10" class="stroke"/>
<use x="607.00" y="93.00" xlink:href="#hd"/>
<path d="M603.50 93.00v18.20" class="stroke"/>
<use x="632.30" y="90.00" xlink:href="#hd"/>
<path d="M635.80 90.00v-21.00" class="stroke"/>
<use x="671.90" y="93.00" xlink:href="#hd"/>
<path d="M675.40 93.00v-21.00" class="stroke"/>
<path class="fill"
	d="M675.40 72.00c0.6 5.6 9.6 9 5.6 18.4
	1.6 -6 -1.3 -11.6 -5.6 -12.8
"/>
</g>
<g stroke-width="0.70" style="font:italic 14.00px Times">
<path class="stroke" stroke-width="1"
	d="M204.80 169.00v-24.00"/>
<path class="stroke" stroke-width="1"
	d="M391.40 169.00v-24.00"/>
<path class="stroke" stroke-width="1"
	d="M568.30 169.00v-24.00"/>
<path class="stroke" stroke-width="3"
	d="M690.10 169.00v-24.00"/>
<path class="stroke" stroke-width="1"
	d="M685.60 169.00v-24.00"/>
<defs>
<g id="rdots" class="fill">
	<circle cx="0" cy="-9" r="1.2"/>
	<circle cx="0" cy="-15" r="1.2"/>
</g>
</defs>
<use x="681.60" y="169.00" xlink:href="#rdots"/>
<path d="m10.00 169.00
	h681.60
	M10.00 163.00
	h681.60
	M10.00 157.00
	h681.60
	M10.00 151.00
	h681.60
	M10.00 145.00
	h681.60
	" class="stroke"/>
<use x="22.00" y="163.00" xlink:href="#tclef"/>
<use x="37.00" y="145.00" xlink:href="#sh0"/>
<path class="fill"
	d="M58.20 130.20l55.60 3.20v3.20l-55.60 -3.20"/>
<use x="55.00" y="157.00" xlink:href="#hd"/>
<path d="M58.50 157.00v-25.80" class="stroke"/>
<use x="82.40" y="151.00" xlink:href="#hd"/>
<path d="M85.90 151.00v-18.20" class="stroke"/>
<use x="109.90" y="163.00" xlink:href="#hd"/>
<path d="M113.40 163.00v-28.60" class="stroke"/>
<use x="140.40" y="142.00" xlink:href="#hd"/>
<path d="M136.90 142.00v21.00" class="stroke"/>
<use x="183.50" y="148.00" xlink:href="#hd"/>
<path d="M180.00 148.00v21.00" class="stroke"/>
<path class="fill"
	d="M180.00 169.00c0.6 -5.6 9.6 -9 5.6 -18.4
	1.6 6 -1.3 11.6 -5.6 12.8
"/>
<defs>
<path id="r8e" class="fill" d="m 0 0
	c-1.5 1.5 -2.4 2 -3.6 2
	2.4 -2.8 -2.8 -4 -2.8 -1.2
	c0 2.7 4.3 2.4 5.9 0.6"/>
<g id="r16">
	<path d="m3.3 -4l-4 15.6" class="stroke"/>
	<use x="3.4" y="-4" xlink:href="#r8e"/>
	<use x="1.9" y="2" xlink:href="#r8e"/>
</g>
</defs>
<use x="220.10" y="157.00" xlink:href="#r16"/>
<path class="fill"
	d="M237.80 173.80l55.60 8.50v-3.20l-55.60 -8.50"/>
<use x="241.60" y="151.00" xlink:href="#hd"/>
<path d="M238.10 151.00v21.90" class="stroke"/>
<use x="269.10" y="157.00" xlink:href="#hd"/>
<path d="M265.60 157.00v20.00" class="stroke"/>
<use x="296.50" y="163.00" xlink:href="#hd"/>
<path d="M293.00 163.00v18.20" class="stroke"/>
<use x="327.00" y="154.00" xlink:href="#hd"/>
<path d="M323.50 154.00v21.00" class="stroke"/>
<use x="370.10" y="154.00" xlink:href="#hd"/>
<path d="M366.60 154.00v21.00" class="stroke"/>
<path class="fill"
	d="M366.60 175.00c0.6 -5.6 9.6 -9 5.6 -18.4
	1.6 6 -1.3 11.6 -5.6 12.8
"/>
<path class="fill"
	d="M402.80 176.20l55.60 -6.90v-3.20l-55.60 6.90"/>
<use x="406.70" y="157.00" xlink:href="#hd"/>
<path d="M403.20 157.00v18.20" class="stroke"/>
<use x="434.10" y="151.00" xlink:href="#hd"/>
<path d="M430.60 151.00v20.80" class="stroke"/>
<use x="461.60" y="142.00" xlink:href="#hd"/>
<path d="M458.10 142.00v26.40" class="stroke"/>
<path class="fill"
	d="M488.20 173.30l55.60 -8.50v-3.20l-55.60 8.50"/>
<use x="492.10" y="154.00" xlink:href="#hd"/>
<path d="M488.60 154.00v18.20" class="stroke"/>
<use x="519.50" y="148.00" xlink:href="#hd"/>
<path d="M516.00 148.00v20.00" class="stroke"/>
<use x="546.90" y="142.00" xlink:href="#hd"/>
<path d="M543.40 142.00v21.90" class="stroke"/>
<use x="583.50" y="160.00" xlink:href="#hd"/>
<path d="M587.00 160.00v-21.00" class="stroke"/>
<use x="626.60" y="145.00" xlink:href="#hd"/>
<path d="M623.10 145.00v21.00" class="stroke"/>
<path class="fill"
	d="M623.10 166.00c0.6 -5.6 9.6 -9 5.6 -18.4
	1.6 6 -1.3 11.6 -5.6 12.8
"/>
<use x="657.10" y="142.00" xlink:href="#hd"/>
<path d="M653.60 142.00v21.00" class="stroke"/>
</g>
<g stroke-width="0.70" style="font:italic 14.00px Times">
<path class="stroke" stroke-width="1"
	d="M76.20 239.00v-24.00"/>
<path class="stroke" stroke-width="1"
	d="M228.80 239.00v-24.00"/>
<path class="stroke" stroke-width="1"
	d="M404.80 239.00v-24.00"/>
<path class="stroke" stroke-width="1"
	d="M557.30 239.00v-24.00"/>
<path class="stroke" stroke-width="1"
	d="M691.60 239.00v-24.00"/>
<path d="m10.00 239.00
	h681.60
	M10.00 233.00
	h681.60
	M10.00 227.00
	h681.60
	M10.00 221.00
	h681.60
	M10.00 215.00
	h681.60
	" class="stroke"/>
<use x="22.00" y="233.00" xlink:href="#tclef"/>
<use x="37.00" y="215.00" xlink:href="#sh0"/>
<use x="55.00" y="215.00" xlink:href="#hd"/>
<path d="M51.50 215.00v21.00" class="stroke"/>
<path class="fill"
	d="M51.50 236.00c0.6 -5.6 9.6 -9 5.6 -18.4
	1.6 6 -1.3 11.6 -5.6 12.8
"/>
<use x="91.40" y="212.00" xlink:href="#hd"/>
<path d="M87.90 212.00v21.00" class="stroke"/>
<defs>
<path id="hl" class="stroke" d="m-6 0h12"/>
</defs>
<use x="134.30" y="209.00" xlink:href="#hl"/>
<use x="134.30" y="206.00" xlink:href="#hd"/>
<path d="M130.80 206.00v21.00" class="stroke"/>
<path class="fill"
	d="M130.80 227.00c0.6 -5.6 9.6 -9 5.6 -18.4
	1.6 6 -1.3 11.6 -5.6 12.8
"/>
<use x="164.60" y="215.00" xlink:href="#hd"/>
<path d="M161.10 215.00v21.00" class="stroke"/>
<use x="207.50" y="209.00" xlink:href="#hl"/>
<use x="207.50" y="209.00" xlink:href="#hd"/>
<path d="M204.00 209.00v21.00" class="stroke"/>
<path class="fill"
	d="M204.00 230.00c0.6 -5.6 9.6 -9 5.6 -18.4
	1.6 6 -1.3 11.6 -5.6 12.8
"/>
<path class="fill"
	d="M240.10 238.50l55.30 -5.00v-3.20l-55.30 5.00"/>
<use x="243.90" y="218.00" xlink:href="#hd"/>
<path d="M240.40 218.00v19.50" class="stroke"/>
<use x="271.30" y="215.00" xlink:href="#hd"/>
<path d="M267.80 215.00v20.00" class="stroke"/>
<use x="298.60" y="212.00" xlink:href="#hd"/>
<path d="M295.10 212.00v20.50" class="stroke"/>
<path class="fill"
	d="M325.10 243.80l55.30 8.40v-3.20l-55.30 -8.40"/>
<use x="328.90" y="221.00" xlink:href="#hd"/>
<path d="M325.40 221.00v21.90" class="stroke"/>
<use x="356.20" y="227.00" xlink:href="#hd"/>
<path d="M352.70 227.00v20.00" class="stroke"/>
<use x="383.50" y="233.00" xlink:href="#hd"/>
<path d="M380.00 233.00v18.20" class="stroke"/>
<use x="419.90" y="212.00" xlink:href="#hd"/>
<path d="M416.40 212.00v21.00" class="stroke"/>
<use x="462.80" y="209.00" xlink:href="#hl"/>
<use x="462.80" y="206.00" xlink:href="#hd"/>
<path d="M459.30 206.00v21.00" class="stroke"/>
<path class="fill"
	d="M459.30 227.00c0.6 -5.6 9.6 -9 5.6 -18.4
	1.6 6 -1.3 11.6 -5.6 12.8
"/>
<use x="493.20" y="215.00" xlink:href="#hd"/>
<path d="M489.70 215.00v21.00" class="stroke"/>
<use x="536.10" y="209.00" xlink:href="#hl"/>
<use x="536.10" y="209.00" xlink:href="#hd"/>
<path d="M532.60 209.00v21.00" class="stroke"/>
<path class="fill"
	d="M532.60 230.00c0.6 -5.6 9.6 -9 5.6 -18.4
	1.6 6 -1.3 11.6 -5.6 12.8
"/>
<path class="fill"
	d="M568.60 238.50l55.30 -5.00v-3.20l-55.30 5.00"/>
<use x="572.50" y="218.00" xlink:href="#hd"/>
<path d="M569.00 218.00v19.50" class="stroke"/>
<use x="599.80" y="215.00" xlink:href="#hd"/>
<path d="M596.30 215.00v20.00" class="stroke"/>
<use x="627.10" y="212.00" xlink:href="#hd"/>
<path d="M623.60 212.00v20.50" class="stroke"/>
<use x="657.40" y="221.00" xlink:href="#hd"/>
<circle class="fill" cx="665.10" cy="218.00" r="1.2"/>
<path d="M653.90 221.00v21.00" class="stroke"/>
</g>
<g stroke-width="0.70" style="font:italic 14.00px Times">
<path class="stroke" stroke-width="1"
	d="M197.90 309.00v-24.00"/>
<path class="stroke" stroke-width="1"
	d="M380.90 309.00v-24.00"/>
<path class="stroke" stroke-width="1"
	d="M564.00 309.00v-24.00"/>
<path class="stroke" stroke-width="3"
	d="M690.10 309.00v-24.00"/>
<path class="stroke" stroke-width="1"
	d="M685.60 309.00v-24.00"/>
<use x="681.60" y="309.00" xlink:href="#rdots"/>
<path d="m10.00 309.00
	h681.60
	M10.00 303.00
	h681.60
	M10.00 297.00
	h681.60
	M10.00 291.00
	h681.60
	M10.00 285.00
	h681.60
	" class="stroke"/>
<use x="22.00" y="303.00" xlink:href="#tclef"/>
<use x="37.00" y="285.00" xlink:href="#sh0"/>
<use x="55.00" y="282.00" xlink:href="#hd"/>
<path d="M51.50 282.00v21.00" class="stroke"/>
<use x="99.60" y="279.00" xlink:href="#hl"/>
<use x="99.60" y="276.00" xlink:href="#hd"/>
<path d="M96.10 276.00v21.00" class="stroke"/>
<path class="fill"
	d="M96.10 297.00c0.6 -5.6 9.6 -9 5.6 -18.4
	1.6 6 -1.3 11.6 -5.6 12.8
"/>
<use x="131.20" y="285.00" xlink:href="#hd"/>
<path d="M127.70 285.00v21.00" class="stroke"/>
<use x="175.80" y="279.00" xlink:href="#hl"/>
<use x="175.80" y="279.00" xlink:href="#hd"/>
<path d="M172.30 279.00v21.00" class="stroke"/>
<path class="fill"
	d="M172.30 300.00c0.6 -5.6 9.6 -9 5.6 -18.4
	1.6 6 -1.3 11.6 -5.6 12.8
"/>
<path class="fill"
	d="M209.80 308.50l57.50 -5.00v-3.20l-57.50 5.00"/>
<use x="213.60" y="288.00" xlink:href="#hd"/>
<path d="M210.10 288.00v19.50" class="stroke"/>
<use x="242.10" y="285.00" xlink:href="#hd"/>
<path d="M238.60 285.00v20.00" class="stroke"/>
<use x="270.50" y="282.00" xlink:href="#hd"/>
<path d="M267.00 282.00v20.50" class="stroke"/>
<path class="fill"
	d="M298.20 313.70l57.50 8.50v-3.20l-57.50 -8.50"/>
<use x="302.00" y="291.00" xlink:href="#hd"/>
<path d="M298.50 291.00v21.80" class="stroke"/>
<use x="330.40" y="297.00" xlink:href="#hd"/>
<path d="M326.90 297.00v20.00" class="stroke"/>
<use x="358.80" y="303.00" xlink:href="#hd"/>
<path d="M355.30 303.00v18.20" class="stroke"/>
<path class="fill"
	d="M392.90 313.30l57.50 -8.50v-3.20l-57.50 8.50"/>
<use x="396.70" y="294.00" xlink:href="#hd"/>
<path d="M393.20 294.00v18.20" class="stroke"/>
<use x="425.10" y="288.00" xlink:href="#hd"/>
<path d="M421.60 288.00v20.00" class="stroke"/>
<use x="453.50" y="282.00" xlink:href="#hd"/>
<path d="M450.00 282.00v21.80" class="stroke"/>
<path class="fill"
	d="M481.20 316.20l57.50 -6.90v-3.20l-57.50 6.90"/>
<use x="485.10" y="297.00" xlink:href="#hd"/>
<path d="M481.60 297.00v18.20" class="stroke"/>
<use x="513.50" y="291.00" xlink:href="#hd"/>
<path d="M510.00 291.00v20.80" class="stroke"/>
<use x="541.90" y="282.00" xlink:href="#hd"/>
<path d="M538.40 282.00v26.40" class="stroke"/>
<use x="579.70" y="300.00" xlink:href="#hd"/>
<path d="M583.20 300.00v-21.00" class="stroke"/>
<use x="624.40" y="285.00" xlink:href="#hd"/>
<path d="M620.90 285.00v21.00" class="stroke"/>
<path class="fill"
	d="M620.90 306.00c0.6 -5.6 9.6 -9 5.6 -18.4
	1.6 6 -1.3 11.6 -5.6 12.8
"/>
<use x="655.90" y="282.00" xlink:href="#hd"/>
<path d="M652.40 282.00v21.00" class="stroke"/>
</g>
</svg>
