<?xml version="1.0" standalone="no"?>
<!DOCTYPE svg PUBLIC "-//W3C//DTD SVG 1.1//EN"
	"http://www.w3.org/Graphics/SVG/1.1/DTD/svg11.dtd">
<svg xmlns="http://www.w3.org/2000/svg" version="1.1"
	xmlns:xlink="http://www.w3.org/1999/xlink"
	color="black"
	width="701.60px" height="806.00px">
<style type="text/css">
.fill {fill: currentColor}
.stroke {stroke: currentColor; fill: none}
text{white-space: pre}
</style>
<title>/media/tim/Data1/tims_code/sphinx-tunes/source/_abcfiles/Gelasma.abc (1) tune 1</title>
<!-- Creator: abcm2ps-8.14.6 -->
<!-- CreationDate: Jul 30, 2023 12:21 -->
<!-- CommandLine: -g /media/tim/Data1/tims_code/sphinx-tunes/source/_abcfiles/Gelasma.abc -O /media/tim/Data1/tims_code/sphinx-tunes/source/_abcfiles/Gelasma.svg -->
<g stroke-width="0.70">
<!-- title: Galasma -->
</g>
<g stroke-width="0.70" style="font:20.00px Times">
<text x="350.80" y="22.00" text-anchor="middle">Galasma</text>
</g>
<g stroke-width="0.70" style="font:italic 14.00px Times">
<text x="691.60" y="46.00" text-anchor="end">Trad Cornish as played by Neil Davey (Arr. James Dumbleton)</text>
</g>
<g stroke-width="0.70" style="font:italic 14.00px Times">
<path class="stroke" stroke-width="1"
	d="M10.00 216.00v-140.00"/>
<path class="stroke" stroke-width="1"
	d="M220.30 100.00v-24.00"/>
<path class="stroke" stroke-width="1"
	d="M220.30 158.00v-58.00"/>
<path class="stroke" stroke-width="1"
	d="M220.30 216.00v-58.00"/>
<path class="stroke" stroke-width="1"
	d="M377.70 100.00v-24.00"/>
<path class="stroke" stroke-width="1"
	d="M377.70 158.00v-58.00"/>
<path class="stroke" stroke-width="1"
	d="M377.70 216.00v-58.00"/>
<path class="stroke" stroke-width="1"
	d="M541.20 100.00v-24.00"/>
<path class="stroke" stroke-width="1"
	d="M541.20 158.00v-58.00"/>
<path class="stroke" stroke-width="1"
	d="M541.20 216.00v-58.00"/>
<path class="stroke" stroke-width="1"
	d="M691.60 100.00v-24.00"/>
<path class="stroke" stroke-width="1"
	d="M691.60 158.00v-58.00"/>
<path class="stroke" stroke-width="1"
	d="M691.60 216.00v-58.00"/>
<path d="m10.00 100.00
	h681.60
	M10.00 94.00
	h681.60
	M10.00 88.00
	h681.60
	M10.00 82.00
	h681.60
	M10.00 76.00
	h681.60
	" class="stroke"/>
<path d="m10.00 158.00
	h681.60
	M10.00 152.00
	h681.60
	M10.00 146.00
	h681.60
	M10.00 140.00
	h681.60
	M10.00 134.00
	h681.60
	" class="stroke"/>
<path d="m10.00 216.00
	h681.60
	M10.00 210.00
	h681.60
	M10.00 204.00
	h681.60
	M10.00 198.00
	h681.60
	M10.00 192.00
	h681.60
	" class="stroke"/>
</g>
<g stroke-width="0.70" style="font:12.00px Helvetica">
<text x="64.20" y="63.60">Em</text>
<text x="229.40" y="63.60">D</text>
<text x="383.40" y="63.60">Em</text>
<text x="551.40" y="63.60">D</text>
<defs>
<path id="utclef" class="fill" d="m-50 -90
	c-72 -41 -72 -158 52 -188
	150 -10 220 188 90 256
	-114 52 -275 0 -293 -136
	-15 -181 93 -229 220 -334
	88 -87 79 -133 62 -210
	-51 33 -94 105 -89 186
	17 267 36 374 49 574
	6 96 -19 134 -77 135
	-80 1 -126 -93 -61 -133
	85 -41 133 101 31 105
	23 17 92 37 90 -92
	-10 -223 -39 -342 -50 -617
	0 -90 0 -162 96 -232
	56 72 63 230 22 289
	-74 106 -257 168 -255 316
	9 153 148 185 252 133
	86 -65 29 -192 -80 -176
	-71 12 -105 67 -59 124"/>
<use id="tclef" transform="translate(0,6) scale(0.045)"
	xlink:href="#utclef"/>
</defs>
<use x="22.00" y="94.00" xlink:href="#tclef"/>
<defs>
<path id="usharp" class="fill" d="
	m136 -702
	v890
	h32
	v-890
	m128 840
	h32
	v-888
	h-32
	m-232 286
	v116
	l338 -96
	v-116
	m-338 442
	v116
	l338 -98
	v-114"/>
<use id="sh0" transform="translate(-4,5) scale(0.018)"
	xlink:href="#usharp"/>
</defs>
<use x="37.00" y="76.00" xlink:href="#sh0"/>
<defs>
<path id="csig" class="fill" d="
	m6 -5.3
	c0.9 0 2.3 0.7 2.4 2.2
	-1.2 -2 -3.6 0.1 -1.6 1.7
	2 1 3.8 -3.5 -0.8 -4.7
	-2 -0.4 -6.4 1.3 -5.8 7
	0.4 6.4 7.9 6.8 9.1 0.7
	-2.3 5.6 -6.7 5.1 -6.8 0
	-0.5 -4.4 0.7 -7.5 3.5 -6.9"/>
</defs>
<use x="48.00" y="88.00" xlink:href="#csig"/>
<defs>
<ellipse id="hd" rx="4.1" ry="2.9"
	transform="rotate(-20)" class="fill"/>
</defs>
<use x="71.50" y="100.00" xlink:href="#hd"/>
<path d="M75.00 100.00v-21.00" class="stroke"/>
<path class="fill"
	d="M114.80 68.70l18.70 5.30v3.20l-18.70 -5.30"/>
<use x="111.60" y="88.00" xlink:href="#hd"/>
<path d="M115.10 88.00v-18.20" class="stroke"/>
<use x="129.70" y="100.00" xlink:href="#hd"/>
<path d="M133.20 100.00v-25.00" class="stroke"/>
<use x="149.70" y="88.00" xlink:href="#hd"/>
<circle class="fill" cx="157.40" cy="85.00" r="1.2"/>
<path d="M153.20 88.00v-21.00" class="stroke"/>
<use x="203.20" y="94.00" xlink:href="#hd"/>
<path d="M206.70 94.00v-21.00" class="stroke"/>
<path class="fill"
	d="M206.70 73.00c0.6 5.6 9.6 9 5.6 18.4
	1.6 -6 -1.3 -11.6 -5.6 -12.8
"/>
<use x="233.30" y="91.00" xlink:href="#hd"/>
<path d="M236.80 91.00v-21.00" class="stroke"/>
<path class="fill"
	d="M276.50 69.70l18.70 -2.30v3.20l-18.70 2.30"/>
<use x="273.40" y="91.00" xlink:href="#hd"/>
<path d="M276.90 91.00v-20.40" class="stroke"/>
<use x="291.40" y="88.00" xlink:href="#hd"/>
<path d="M294.90 88.00v-19.60" class="stroke"/>
<path class="fill"
	d="M314.70 70.30l18.70 2.30v3.20l-18.70 -2.30"/>
<use x="311.50" y="91.00" xlink:href="#hd"/>
<path d="M315.00 91.00v-19.60" class="stroke"/>
<use x="329.60" y="94.00" xlink:href="#hd"/>
<path d="M333.10 94.00v-20.40" class="stroke"/>
<use x="349.60" y="97.00" xlink:href="#hd"/>
<path d="M353.10 97.00v-21.00" class="stroke"/>
<use x="390.70" y="100.00" xlink:href="#hd"/>
<path d="M394.20 100.00v-21.00" class="stroke"/>
<path class="fill"
	d="M434.00 68.70l18.70 5.30v3.20l-18.70 -5.30"/>
<use x="430.80" y="88.00" xlink:href="#hd"/>
<path d="M434.30 88.00v-18.20" class="stroke"/>
<use x="448.90" y="100.00" xlink:href="#hd"/>
<path d="M452.40 100.00v-25.00" class="stroke"/>
<use x="468.90" y="88.00" xlink:href="#hd"/>
<path d="M472.40 88.00v-21.00" class="stroke"/>
<path class="fill"
	d="M512.20 70.30l18.70 2.30v3.20l-18.70 -2.30"/>
<use x="509.10" y="91.00" xlink:href="#hd"/>
<path d="M512.60 91.00v-19.60" class="stroke"/>
<use x="527.10" y="94.00" xlink:href="#hd"/>
<path d="M530.60 94.00v-20.40" class="stroke"/>
<use x="555.20" y="100.00" xlink:href="#hd"/>
<path d="M558.70 100.00v-21.00" class="stroke"/>
<use x="595.30" y="103.00" xlink:href="#hd"/>
<path d="M598.80 103.00v-21.00" class="stroke"/>
<defs>
<path id="Hd" class="fill" d="m3 -1.6
	c-1 -1.8 -7 1.4 -6 3.2
	1 1.8 7 -1.4 6 -3.2
	m0.5 -0.3
	c2 3.8 -5 7.6 -7 3.8
	-2 -3.8 5 -7.6 7 -3.8"/>
</defs>
<use x="635.40" y="103.00" xlink:href="#Hd"/>
<path d="M638.90 103.00v-21.00" class="stroke"/>
<use x="22.00" y="152.00" xlink:href="#tclef"/>
<use x="37.00" y="134.00" xlink:href="#sh0"/>
<use x="48.00" y="146.00" xlink:href="#csig"/>
<use x="71.50" y="137.00" xlink:href="#hd"/>
<circle class="fill" cx="79.20" cy="137.00" r="1.2"/>
<path d="M68.00 137.00v21.00" class="stroke"/>
<use x="129.70" y="134.00" xlink:href="#hd"/>
<path d="M126.20 134.00v21.00" class="stroke"/>
<path class="fill"
	d="M126.20 155.00c0.6 -5.6 9.6 -9 5.6 -18.4
	1.6 6 -1.3 11.6 -5.6 12.8
"/>
<use x="149.70" y="140.00" xlink:href="#hd"/>
<circle class="fill" cx="157.40" cy="137.00" r="1.2"/>
<path d="M146.20 140.00v21.00" class="stroke"/>
<use x="203.20" y="137.00" xlink:href="#hd"/>
<path d="M199.70 137.00v21.00" class="stroke"/>
<path class="fill"
	d="M199.70 158.00c0.6 -5.6 9.6 -9 5.6 -18.4
	1.6 6 -1.3 11.6 -5.6 12.8
"/>
<use x="233.30" y="149.00" xlink:href="#Hd"/>
<circle class="fill" cx="242.00" cy="149.00" r="1.2"/>
<path d="M236.80 149.00v-21.00" class="stroke"/>
<use x="349.60" y="146.00" xlink:href="#hd"/>
<path d="M353.10 146.00v-21.00" class="stroke"/>
<use x="390.70" y="152.00" xlink:href="#hd"/>
<circle class="fill" cx="398.40" cy="149.00" r="1.2"/>
<path d="M394.20 152.00v-21.00" class="stroke"/>
<use x="448.90" y="149.00" xlink:href="#hd"/>
<path d="M452.40 149.00v-21.00" class="stroke"/>
<path class="fill"
	d="M452.40 128.00c0.6 5.6 9.6 9 5.6 18.4
	1.6 -6 -1.3 -11.6 -5.6 -12.8
"/>
<use x="468.90" y="146.00" xlink:href="#hd"/>
<circle class="fill" cx="476.60" cy="143.00" r="1.2"/>
<path d="M472.40 146.00v-21.00" class="stroke"/>
<use x="527.10" y="140.00" xlink:href="#hd"/>
<path d="M523.60 140.00v21.00" class="stroke"/>
<path class="fill"
	d="M523.60 161.00c0.6 -5.6 9.6 -9 5.6 -18.4
	1.6 6 -1.3 11.6 -5.6 12.8
"/>
<defs>
<path id="HD" class="fill" d="m-2.7 -1.4
	c1.5 -2.8 6.9 0 5.3 2.7
	-1.5 2.8 -6.9 0 -5.3 -2.7
	m8.3 1.4
	c0 -1.5 -2.2 -3 -5.6 -3
	-3.4 0 -5.6 1.5 -5.6 3
	0 1.5 2.2 3 5.6 3
	3.4 0 5.6 -1.5 5.6 -3"/>
</defs>
<use x="556.20" y="149.00" xlink:href="#HD"/>
<use x="22.00" y="210.00" xlink:href="#tclef"/>
<use x="37.00" y="192.00" xlink:href="#sh0"/>
<use x="48.00" y="204.00" xlink:href="#csig"/>
<use x="71.50" y="201.00" xlink:href="#Hd"/>
<path d="M68.00 201.00v21.00" class="stroke"/>
<use x="149.70" y="195.00" xlink:href="#Hd"/>
<path d="M146.20 195.00v21.00" class="stroke"/>
<use x="233.30" y="198.00" xlink:href="#Hd"/>
<path d="M229.80 198.00v21.00" class="stroke"/>
<use x="311.50" y="204.00" xlink:href="#Hd"/>
<path d="M308.00 204.00v21.00" class="stroke"/>
<use x="390.70" y="201.00" xlink:href="#Hd"/>
<path d="M387.20 201.00v21.00" class="stroke"/>
<use x="468.90" y="216.00" xlink:href="#Hd"/>
<path d="M472.40 216.00v-21.00" class="stroke"/>
<use x="556.20" y="198.00" xlink:href="#HD"/>
</g>
<g stroke-width="0.70" style="font:12.00px Helvetica">
<path class="stroke" stroke-width="1"
	d="M10.00 403.00v-140.00"/>
<path class="stroke" stroke-width="1"
	d="M204.20 287.00v-24.00"/>
<path class="stroke" stroke-width="1"
	d="M204.20 345.00v-58.00"/>
<path class="stroke" stroke-width="1"
	d="M204.20 403.00v-58.00"/>
<path class="stroke" stroke-width="1"
	d="M361.70 287.00v-24.00"/>
<path class="stroke" stroke-width="1"
	d="M361.70 345.00v-58.00"/>
<path class="stroke" stroke-width="1"
	d="M361.70 403.00v-58.00"/>
<path class="stroke" stroke-width="1"
	d="M526.10 287.00v-24.00"/>
<path class="stroke" stroke-width="1"
	d="M526.10 345.00v-58.00"/>
<path class="stroke" stroke-width="1"
	d="M526.10 403.00v-58.00"/>
<path class="stroke" stroke-width="1"
	d="M691.60 287.00v-24.00"/>
<path class="stroke" stroke-width="1"
	d="M688.60 287.00v-24.00"/>
<path class="stroke" stroke-width="1"
	d="M691.60 345.00v-58.00"/>
<path class="stroke" stroke-width="1"
	d="M688.60 345.00v-58.00"/>
<path class="stroke" stroke-width="1"
	d="M691.60 403.00v-58.00"/>
<path class="stroke" stroke-width="1"
	d="M688.60 403.00v-58.00"/>
<path d="m10.00 287.00
	h681.60
	M10.00 281.00
	h681.60
	M10.00 275.00
	h681.60
	M10.00 269.00
	h681.60
	M10.00 263.00
	h681.60
	" class="stroke"/>
<path d="m10.00 345.00
	h681.60
	M10.00 339.00
	h681.60
	M10.00 333.00
	h681.60
	M10.00 327.00
	h681.60
	M10.00 321.00
	h681.60
	" class="stroke"/>
<path d="m10.00 403.00
	h681.60
	M10.00 397.00
	h681.60
	M10.00 391.00
	h681.60
	M10.00 385.00
	h681.60
	M10.00 379.00
	h681.60
	" class="stroke"/>
<text x="48.20" y="250.60">Em</text>
<text x="213.40" y="250.60">D</text>
<text x="367.40" y="250.60">Em</text>
<text x="451.10" y="250.60">D</text>
<text x="531.80" y="250.60">Em</text>
<use x="22.00" y="281.00" xlink:href="#tclef"/>
<use x="37.00" y="263.00" xlink:href="#sh0"/>
<use x="55.50" y="287.00" xlink:href="#hd"/>
<path d="M59.00 287.00v-21.00" class="stroke"/>
<path class="fill"
	d="M98.80 255.70l18.70 5.30v3.20l-18.70 -5.30"/>
<use x="95.60" y="275.00" xlink:href="#hd"/>
<path d="M99.10 275.00v-18.20" class="stroke"/>
<use x="113.70" y="287.00" xlink:href="#hd"/>
<path d="M117.20 287.00v-25.00" class="stroke"/>
<use x="133.70" y="275.00" xlink:href="#hd"/>
<circle class="fill" cx="141.40" cy="272.00" r="1.2"/>
<path d="M137.20 275.00v-21.00" class="stroke"/>
<use x="187.20" y="281.00" xlink:href="#hd"/>
<path d="M190.70 281.00v-21.00" class="stroke"/>
<path class="fill"
	d="M190.70 260.00c0.6 5.6 9.6 9 5.6 18.4
	1.6 -6 -1.3 -11.6 -5.6 -12.8
"/>
<use x="217.30" y="278.00" xlink:href="#hd"/>
<path d="M220.80 278.00v-21.00" class="stroke"/>
<path class="fill"
	d="M260.50 256.70l18.70 -2.30v3.20l-18.70 2.30"/>
<use x="257.40" y="278.00" xlink:href="#hd"/>
<path d="M260.90 278.00v-20.40" class="stroke"/>
<use x="275.40" y="275.00" xlink:href="#hd"/>
<path d="M278.90 275.00v-19.60" class="stroke"/>
<path class="fill"
	d="M298.70 257.30l18.70 2.30v3.20l-18.70 -2.30"/>
<use x="295.50" y="278.00" xlink:href="#hd"/>
<path d="M299.00 278.00v-19.60" class="stroke"/>
<use x="313.50" y="281.00" xlink:href="#hd"/>
<path d="M317.00 281.00v-20.40" class="stroke"/>
<use x="333.60" y="284.00" xlink:href="#hd"/>
<path d="M337.10 284.00v-21.00" class="stroke"/>
<use x="374.70" y="287.00" xlink:href="#hd"/>
<path d="M378.20 287.00v-21.00" class="stroke"/>
<use x="414.80" y="287.00" xlink:href="#hd"/>
<path d="M418.30 287.00v-21.00" class="stroke"/>
<path class="fill"
	d="M458.10 266.00l54.80 0.00v3.20l-54.80 -0.00"/>
<use x="454.90" y="290.00" xlink:href="#hd"/>
<path d="M458.40 290.00v-23.00" class="stroke"/>
<use x="473.00" y="287.00" xlink:href="#hd"/>
<path d="M476.50 287.00v-20.00" class="stroke"/>
<use x="491.10" y="284.00" xlink:href="#hd"/>
<path d="M494.60 284.00v-17.00" class="stroke"/>
<use x="509.10" y="290.00" xlink:href="#hd"/>
<path d="M512.60 290.00v-23.00" class="stroke"/>
<use x="539.10" y="287.00" xlink:href="#Hd"/>
<path d="M542.60 287.00v-21.00" class="stroke"/>
<use x="619.40" y="281.00" xlink:href="#hd"/>
<path d="M622.90 281.00v-21.00" class="stroke"/>
<use x="659.50" y="278.00" xlink:href="#hd"/>
<path d="M663.00 278.00v-21.00" class="stroke"/>
<use x="22.00" y="339.00" xlink:href="#tclef"/>
<use x="37.00" y="321.00" xlink:href="#sh0"/>
<use x="55.50" y="324.00" xlink:href="#hd"/>
<circle class="fill" cx="63.20" cy="324.00" r="1.2"/>
<path d="M52.00 324.00v21.00" class="stroke"/>
<use x="113.70" y="321.00" xlink:href="#hd"/>
<path d="M110.20 321.00v21.00" class="stroke"/>
<path class="fill"
	d="M110.20 342.00c0.6 -5.6 9.6 -9 5.6 -18.4
	1.6 6 -1.3 11.6 -5.6 12.8
"/>
<use x="133.70" y="327.00" xlink:href="#hd"/>
<circle class="fill" cx="141.40" cy="324.00" r="1.2"/>
<path d="M130.20 327.00v21.00" class="stroke"/>
<use x="187.20" y="324.00" xlink:href="#hd"/>
<path d="M183.70 324.00v21.00" class="stroke"/>
<path class="fill"
	d="M183.70 345.00c0.6 -5.6 9.6 -9 5.6 -18.4
	1.6 6 -1.3 11.6 -5.6 12.8
"/>
<use x="217.30" y="336.00" xlink:href="#Hd"/>
<circle class="fill" cx="226.00" cy="336.00" r="1.2"/>
<path d="M220.80 336.00v-21.00" class="stroke"/>
<use x="333.60" y="333.00" xlink:href="#hd"/>
<path d="M337.10 333.00v-21.00" class="stroke"/>
<use x="374.70" y="339.00" xlink:href="#hd"/>
<circle class="fill" cx="382.40" cy="336.00" r="1.2"/>
<path d="M378.20 339.00v-21.00" class="stroke"/>
<use x="434.90" y="336.00" xlink:href="#hd"/>
<path d="M438.40 336.00v-21.00" class="stroke"/>
<path class="fill"
	d="M438.40 315.00c0.6 5.6 9.6 9 5.6 18.4
	1.6 -6 -1.3 -11.6 -5.6 -12.8
"/>
<use x="454.90" y="345.00" xlink:href="#hd"/>
<circle class="fill" cx="462.60" cy="342.00" r="1.2"/>
<path d="M458.40 345.00v-21.00" class="stroke"/>
<use x="509.10" y="348.00" xlink:href="#hd"/>
<path d="M512.60 348.00v-21.00" class="stroke"/>
<path class="fill"
	d="M512.60 327.00c0.6 5.6 9.6 9 5.6 18.4
	1.6 -6 -1.3 -11.6 -5.6 -12.8
"/>
<use x="539.10" y="345.00" xlink:href="#Hd"/>
<circle class="fill" cx="547.80" cy="342.00" r="1.2"/>
<path d="M542.60 345.00v-21.00" class="stroke"/>
<defs>
<path id="r4" class="fill" d="m-1 -8.5
	l3.6 5.1 -2.1 5.2 2.2 4.3
	c-2.6 -2.3 -5.1 0 -2.4 2.6
	-4.8 -3 -1.5 -6.9 1.4 -4.1
	l-3.1 -4.5 1.9 -5.1 -1.5 -3.5"/>
</defs>
<use x="659.50" y="333.00" xlink:href="#r4"/>
<use x="22.00" y="397.00" xlink:href="#tclef"/>
<use x="37.00" y="379.00" xlink:href="#sh0"/>
<use x="55.50" y="388.00" xlink:href="#Hd"/>
<path d="M52.00 388.00v21.00" class="stroke"/>
<use x="133.70" y="382.00" xlink:href="#Hd"/>
<path d="M130.20 382.00v21.00" class="stroke"/>
<use x="217.30" y="406.00" xlink:href="#Hd"/>
<path d="M220.80 406.00v-21.00" class="stroke"/>
<use x="295.50" y="391.00" xlink:href="#Hd"/>
<path d="M299.00 391.00v-21.00" class="stroke"/>
<use x="374.70" y="388.00" xlink:href="#Hd"/>
<path d="M371.20 388.00v21.00" class="stroke"/>
<use x="454.90" y="391.00" xlink:href="#Hd"/>
<path d="M451.40 391.00v21.00" class="stroke"/>
<use x="539.10" y="388.00" xlink:href="#Hd"/>
<circle class="fill" cx="547.80" cy="388.00" r="1.2"/>
<path d="M535.60 388.00v21.00" class="stroke"/>
<use x="659.50" y="391.00" xlink:href="#r4"/>
</g>
<g stroke-width="0.70" style="font:12.00px Helvetica">
<path class="stroke" stroke-width="1"
	d="M10.00 593.00v-140.00"/>
<path class="stroke" stroke-width="1"
	d="M203.40 477.00v-24.00"/>
<path class="stroke" stroke-width="1"
	d="M203.40 535.00v-58.00"/>
<path class="stroke" stroke-width="1"
	d="M203.40 593.00v-58.00"/>
<path class="stroke" stroke-width="1"
	d="M366.50 477.00v-24.00"/>
<path class="stroke" stroke-width="1"
	d="M366.50 535.00v-58.00"/>
<path class="stroke" stroke-width="1"
	d="M366.50 593.00v-58.00"/>
<path class="stroke" stroke-width="1"
	d="M528.50 477.00v-24.00"/>
<path class="stroke" stroke-width="1"
	d="M528.50 535.00v-58.00"/>
<path class="stroke" stroke-width="1"
	d="M528.50 593.00v-58.00"/>
<path class="stroke" stroke-width="1"
	d="M691.60 477.00v-24.00"/>
<path class="stroke" stroke-width="1"
	d="M691.60 535.00v-58.00"/>
<path class="stroke" stroke-width="1"
	d="M691.60 593.00v-58.00"/>
<path d="m10.00 477.00
	h681.60
	M10.00 471.00
	h681.60
	M10.00 465.00
	h681.60
	M10.00 459.00
	h681.60
	M10.00 453.00
	h681.60
	" class="stroke"/>
<path d="m10.00 535.00
	h681.60
	M10.00 529.00
	h681.60
	M10.00 523.00
	h681.60
	M10.00 517.00
	h681.60
	M10.00 511.00
	h681.60
	" class="stroke"/>
<path d="m10.00 593.00
	h681.60
	M10.00 587.00
	h681.60
	M10.00 581.00
	h681.60
	M10.00 575.00
	h681.60
	M10.00 569.00
	h681.60
	" class="stroke"/>
<text x="52.70" y="437.60">G</text>
<text x="213.60" y="437.60">D</text>
<text x="372.20" y="437.60">Em</text>
<text x="534.90" y="437.60">Bm</text>
<use x="22.00" y="471.00" xlink:href="#tclef"/>
<use x="37.00" y="453.00" xlink:href="#sh0"/>
<use x="56.50" y="465.00" xlink:href="#Hd"/>
<path d="M60.00 465.00v-21.00" class="stroke"/>
<path class="fill"
	d="M137.00 444.30l19.70 2.40v3.20l-19.70 -2.40"/>
<use x="133.80" y="465.00" xlink:href="#hd"/>
<path d="M137.30 465.00v-19.60" class="stroke"/>
<use x="152.80" y="468.00" xlink:href="#hd"/>
<path d="M156.30 468.00v-20.40" class="stroke"/>
<use x="173.90" y="471.00" xlink:href="#hd"/>
<path d="M177.40 471.00v-21.00" class="stroke"/>
<use x="217.50" y="468.00" xlink:href="#Hd"/>
<circle class="fill" cx="226.20" cy="468.00" r="1.2"/>
<path d="M221.00 468.00v-21.00" class="stroke"/>
<path class="fill"
	d="M335.90 444.30l19.70 2.40v3.20l-19.70 -2.40"/>
<use x="332.70" y="465.00" xlink:href="#hd"/>
<path d="M336.20 465.00v-19.60" class="stroke"/>
<use x="351.70" y="468.00" xlink:href="#hd"/>
<path d="M355.20 468.00v-20.40" class="stroke"/>
<use x="379.50" y="471.00" xlink:href="#hd"/>
<circle class="fill" cx="387.20" cy="468.00" r="1.2"/>
<path d="M383.00 471.00v-21.00" class="stroke"/>
<use x="435.70" y="477.00" xlink:href="#hd"/>
<path d="M439.20 477.00v-21.00" class="stroke"/>
<path class="fill"
	d="M439.20 456.00c0.6 5.6 9.6 9 5.6 18.4
	1.6 -6 -1.3 -11.6 -5.6 -12.8
"/>
<use x="456.80" y="471.00" xlink:href="#hd"/>
<path d="M460.30 471.00v-21.00" class="stroke"/>
<use x="499.00" y="468.00" xlink:href="#hd"/>
<path d="M502.50 468.00v-21.00" class="stroke"/>
<use x="542.60" y="465.00" xlink:href="#hd"/>
<circle class="fill" cx="550.30" cy="462.00" r="1.2"/>
<path d="M546.10 465.00v-21.00" class="stroke"/>
<use x="598.80" y="480.00" xlink:href="#hd"/>
<path d="M602.30 480.00v-21.00" class="stroke"/>
<path class="fill"
	d="M602.30 459.00c0.6 5.6 9.6 9 5.6 18.4
	1.6 -6 -1.3 -11.6 -5.6 -12.8
"/>
<use x="619.90" y="471.00" xlink:href="#hd"/>
<path d="M623.40 471.00v-21.00" class="stroke"/>
<use x="662.10" y="468.00" xlink:href="#hd"/>
<path d="M665.60 468.00v-21.00" class="stroke"/>
<use x="22.00" y="529.00" xlink:href="#tclef"/>
<use x="37.00" y="511.00" xlink:href="#sh0"/>
<use x="56.50" y="508.00" xlink:href="#hd"/>
<circle class="fill" cx="64.20" cy="508.00" r="1.2"/>
<path d="M53.00 508.00v21.00" class="stroke"/>
<use x="112.70" y="514.00" xlink:href="#hd"/>
<path d="M109.20 514.00v21.00" class="stroke"/>
<path class="fill"
	d="M109.20 535.00c0.6 -5.6 9.6 -9 5.6 -18.4
	1.6 6 -1.3 11.6 -5.6 12.8
"/>
<use x="133.80" y="517.00" xlink:href="#Hd"/>
<path d="M130.30 517.00v21.00" class="stroke"/>
<use x="217.50" y="511.00" xlink:href="#hd"/>
<circle class="fill" cx="225.20" cy="508.00" r="1.2"/>
<path d="M214.00 511.00v21.00" class="stroke"/>
<use x="273.70" y="514.00" xlink:href="#hd"/>
<path d="M270.20 514.00v21.00" class="stroke"/>
<path class="fill"
	d="M270.20 535.00c0.6 -5.6 9.6 -9 5.6 -18.4
	1.6 6 -1.3 11.6 -5.6 12.8
"/>
<use x="294.80" y="517.00" xlink:href="#Hd"/>
<path d="M291.30 517.00v21.00" class="stroke"/>
<use x="379.50" y="523.00" xlink:href="#Hd"/>
<circle class="fill" cx="388.20" cy="520.00" r="1.2"/>
<path d="M376.00 523.00v21.00" class="stroke"/>
<use x="499.00" y="526.00" xlink:href="#hd"/>
<path d="M502.50 526.00v-21.00" class="stroke"/>
<use x="543.60" y="532.00" xlink:href="#HD"/>
<use x="22.00" y="587.00" xlink:href="#tclef"/>
<use x="37.00" y="569.00" xlink:href="#sh0"/>
<use x="57.50" y="572.00" xlink:href="#HD"/>
<use x="218.50" y="575.00" xlink:href="#HD"/>
<use x="379.50" y="578.00" xlink:href="#Hd"/>
<path d="M376.00 578.00v21.00" class="stroke"/>
<use x="456.80" y="578.00" xlink:href="#hd"/>
<path d="M453.30 578.00v21.00" class="stroke"/>
<use x="499.00" y="581.00" xlink:href="#hd"/>
<path d="M495.50 581.00v21.00" class="stroke"/>
<use x="543.60" y="587.00" xlink:href="#HD"/>
</g>
<g stroke-width="0.70" style="font:12.00px Helvetica">
<path class="stroke" stroke-width="1"
	d="M10.00 783.00v-140.00"/>
<path class="stroke" stroke-width="1"
	d="M205.20 667.00v-24.00"/>
<path class="stroke" stroke-width="1"
	d="M205.20 725.00v-58.00"/>
<path class="stroke" stroke-width="1"
	d="M205.20 783.00v-58.00"/>
<path class="stroke" stroke-width="1"
	d="M370.00 667.00v-24.00"/>
<path class="stroke" stroke-width="1"
	d="M370.00 725.00v-58.00"/>
<path class="stroke" stroke-width="1"
	d="M370.00 783.00v-58.00"/>
<path class="stroke" stroke-width="1"
	d="M541.00 667.00v-24.00"/>
<path class="stroke" stroke-width="1"
	d="M541.00 725.00v-58.00"/>
<path class="stroke" stroke-width="1"
	d="M541.00 783.00v-58.00"/>
<path class="stroke" stroke-width="3"
	d="M690.10 667.00v-24.00"/>
<path class="stroke" stroke-width="1"
	d="M685.60 667.00v-24.00"/>
<path class="stroke" stroke-width="3"
	d="M690.10 725.00v-58.00"/>
<path class="stroke" stroke-width="1"
	d="M685.60 725.00v-58.00"/>
<path class="stroke" stroke-width="3"
	d="M690.10 783.00v-58.00"/>
<path class="stroke" stroke-width="1"
	d="M685.60 783.00v-58.00"/>
<path d="m10.00 667.00
	h681.60
	M10.00 661.00
	h681.60
	M10.00 655.00
	h681.60
	M10.00 649.00
	h681.60
	M10.00 643.00
	h681.60
	" class="stroke"/>
<path d="m10.00 725.00
	h681.60
	M10.00 719.00
	h681.60
	M10.00 713.00
	h681.60
	M10.00 707.00
	h681.60
	M10.00 701.00
	h681.60
	" class="stroke"/>
<path d="m10.00 783.00
	h681.60
	M10.00 777.00
	h681.60
	M10.00 771.00
	h681.60
	M10.00 765.00
	h681.60
	M10.00 759.00
	h681.60
	" class="stroke"/>
<text x="52.70" y="627.60">G</text>
<text x="215.40" y="627.60">D</text>
<text x="375.70" y="627.60">Em</text>
<text x="464.60" y="627.60">D</text>
<text x="547.70" y="627.60">Em</text>
<use x="22.00" y="661.00" xlink:href="#tclef"/>
<use x="37.00" y="643.00" xlink:href="#sh0"/>
<use x="56.50" y="655.00" xlink:href="#Hd"/>
<path d="M60.00 655.00v-21.00" class="stroke"/>
<path class="fill"
	d="M137.90 634.30l19.90 2.40v3.20l-19.90 -2.40"/>
<use x="134.70" y="655.00" xlink:href="#hd"/>
<path d="M138.20 655.00v-19.60" class="stroke"/>
<use x="154.00" y="658.00" xlink:href="#hd"/>
<path d="M157.50 658.00v-20.40" class="stroke"/>
<use x="175.30" y="661.00" xlink:href="#hd"/>
<path d="M178.80 661.00v-21.00" class="stroke"/>
<use x="219.20" y="658.00" xlink:href="#Hd"/>
<circle class="fill" cx="227.90" cy="658.00" r="1.2"/>
<path d="M222.70 658.00v-21.00" class="stroke"/>
<path class="fill"
	d="M339.00 634.30l19.90 2.40v3.20l-19.90 -2.40"/>
<use x="335.90" y="655.00" xlink:href="#hd"/>
<path d="M339.40 655.00v-19.60" class="stroke"/>
<use x="355.10" y="658.00" xlink:href="#hd"/>
<path d="M358.60 658.00v-20.40" class="stroke"/>
<use x="383.10" y="670.00" xlink:href="#hd"/>
<path d="M386.60 670.00v-21.00" class="stroke"/>
<use x="425.70" y="667.00" xlink:href="#hd"/>
<path d="M429.20 667.00v-21.00" class="stroke"/>
<path class="fill"
	d="M471.60 642.80l58.30 0.00v3.20l-58.30 -0.00"/>
<use x="468.40" y="664.00" xlink:href="#hd"/>
<path d="M471.90 664.00v-20.20" class="stroke"/>
<use x="487.60" y="661.00" xlink:href="#hd"/>
<path d="M491.10 661.00v-17.20" class="stroke"/>
<use x="506.80" y="664.00" xlink:href="#hd"/>
<path d="M510.30 664.00v-20.20" class="stroke"/>
<use x="526.00" y="670.00" xlink:href="#hd"/>
<path d="M529.50 670.00v-26.20" class="stroke"/>
<use x="556.00" y="667.00" xlink:href="#HD"/>
<use x="22.00" y="719.00" xlink:href="#tclef"/>
<use x="37.00" y="701.00" xlink:href="#sh0"/>
<use x="56.50" y="698.00" xlink:href="#hd"/>
<circle class="fill" cx="64.20" cy="698.00" r="1.2"/>
<path d="M53.00 698.00v21.00" class="stroke"/>
<use x="113.40" y="704.00" xlink:href="#hd"/>
<path d="M109.90 704.00v21.00" class="stroke"/>
<path class="fill"
	d="M109.90 725.00c0.6 -5.6 9.6 -9 5.6 -18.4
	1.6 6 -1.3 11.6 -5.6 12.8
"/>
<use x="134.70" y="707.00" xlink:href="#Hd"/>
<path d="M131.20 707.00v21.00" class="stroke"/>
<use x="219.20" y="701.00" xlink:href="#hd"/>
<circle class="fill" cx="226.90" cy="698.00" r="1.2"/>
<path d="M215.70 701.00v21.00" class="stroke"/>
<use x="276.10" y="704.00" xlink:href="#hd"/>
<path d="M272.60 704.00v21.00" class="stroke"/>
<path class="fill"
	d="M272.60 725.00c0.6 -5.6 9.6 -9 5.6 -18.4
	1.6 6 -1.3 11.6 -5.6 12.8
"/>
<use x="297.50" y="707.00" xlink:href="#Hd"/>
<path d="M294.00 707.00v21.00" class="stroke"/>
<use x="383.10" y="713.00" xlink:href="#Hd"/>
<path d="M379.60 713.00v21.00" class="stroke"/>
<use x="468.40" y="716.00" xlink:href="#Hd"/>
<path d="M471.90 716.00v-21.00" class="stroke"/>
<use x="556.00" y="725.00" xlink:href="#HD"/>
<use x="22.00" y="777.00" xlink:href="#tclef"/>
<use x="37.00" y="759.00" xlink:href="#sh0"/>
<use x="57.50" y="762.00" xlink:href="#HD"/>
<use x="220.20" y="765.00" xlink:href="#HD"/>
<use x="383.10" y="768.00" xlink:href="#Hd"/>
<path d="M379.60 768.00v21.00" class="stroke"/>
<use x="468.40" y="771.00" xlink:href="#Hd"/>
<path d="M464.90 771.00v21.00" class="stroke"/>
<use x="556.00" y="768.00" xlink:href="#HD"/>
</g>
</svg>
