<?xml version="1.0" standalone="no"?>
<!DOCTYPE svg PUBLIC "-//W3C//DTD SVG 1.1//EN"
	"http://www.w3.org/Graphics/SVG/1.1/DTD/svg11.dtd">
<svg xmlns="http://www.w3.org/2000/svg" version="1.1"
	xmlns:xlink="http://www.w3.org/1999/xlink"
	color="black"
	width="701.60px" height="929.40px">
<style type="text/css">
.fill {fill: currentColor}
.stroke {stroke: currentColor; fill: none}
text{white-space: pre}
</style>
<title>/media/tim/Data1/tims_code/sphinx-tunes/source/_abcfiles/God Rest Ye Mer (2) tune 1</title>
<!-- Creator: abcm2ps-8.14.6 -->
<!-- CreationDate: Jul 30, 2023 12:21 -->
<!-- CommandLine: -g '/media/tim/Data1/tims_code/sphinx-tunes/source/_abcfiles/God Rest Ye Merry Gentlemen.abc' -O '/media/tim/Data1/tims_code/sphinx-tunes/source/_abcfiles/God Rest Ye Merry Gentlemen.svg' -->
<g stroke-width="0.70">
<!-- title: God Rest Ye Merry, Gentlemen -->
</g>
<g stroke-width="0.70" style="font:20.00px Times">
<text x="350.80" y="22.00" text-anchor="middle">God Rest Ye Merry, Gentlemen</text>
</g>
<g stroke-width="0.70" style="font:italic 14.00px Times">
<text x="691.60" y="46.00" text-anchor="end">Traditional</text>
</g>
<g stroke-width="0.70" style="font:italic 14.00px Times">
<path class="stroke" stroke-width="1"
	d="M101.30 103.00v-24.00"/>
<path class="stroke" stroke-width="1"
	d="M276.70 103.00v-24.00"/>
<path class="stroke" stroke-width="1"
	d="M452.10 103.00v-24.00"/>
<path class="stroke" stroke-width="1"
	d="M627.50 103.00v-24.00"/>
<path class="stroke" stroke-width="1"
	d="M691.60 103.00v-24.00"/>
<path d="m10.00 103.00
	h681.60
	M10.00 97.00
	h681.60
	M10.00 91.00
	h681.60
	M10.00 85.00
	h681.60
	M10.00 79.00
	h681.60
	" class="stroke"/>
<path class="fill"
	d="M203.10 97.00c6.55 4.49 35.23 5.93 41.77 2.10
	v0.24c-7.80 5.59 -33.97 4.15 -41.77 -2.34"/>
</g>
<g stroke-width="0.70" style="font:12.00px Helvetica">
<text x="109.30" y="63.60">Em</text>
<text x="639.30" y="63.60">B</text>
<defs>
<path id="utclef" class="fill" d="m-50 -90
	c-72 -41 -72 -158 52 -188
	150 -10 220 188 90 256
	-114 52 -275 0 -293 -136
	-15 -181 93 -229 220 -334
	88 -87 79 -133 62 -210
	-51 33 -94 105 -89 186
	17 267 36 374 49 574
	6 96 -19 134 -77 135
	-80 1 -126 -93 -61 -133
	85 -41 133 101 31 105
	23 17 92 37 90 -92
	-10 -223 -39 -342 -50 -617
	0 -90 0 -162 96 -232
	56 72 63 230 22 289
	-74 106 -257 168 -255 316
	9 153 148 185 252 133
	86 -65 29 -192 -80 -176
	-71 12 -105 67 -59 124"/>
<use id="tclef" transform="translate(0,6) scale(0.045)"
	xlink:href="#utclef"/>
</defs>
<use x="22.00" y="97.00" xlink:href="#tclef"/>
<defs>
<path id="usharp" class="fill" d="
	m136 -702
	v890
	h32
	v-890
	m128 840
	h32
	v-888
	h-32
	m-232 286
	v116
	l338 -96
	v-116
	m-338 442
	v116
	l338 -98
	v-114"/>
<use id="sh0" transform="translate(-4,5) scale(0.018)"
	xlink:href="#usharp"/>
</defs>
<use x="37.00" y="79.00" xlink:href="#sh0"/>
<g style="font:bold 16px serif"
	transform="translate(53.00,102.50) scale(1.2,1)">
	<text text-anchor="middle">4</text>
	<text y="-12" text-anchor="middle">4</text>
</g>
<defs>
<ellipse id="hd" rx="4.1" ry="2.9"
	transform="rotate(-20)" class="fill"/>
</defs>
<use x="71.00" y="103.00" xlink:href="#hd"/>
<path d="M74.50 103.00v-21.00" class="stroke"/>
<use x="116.60" y="103.00" xlink:href="#hd"/>
<path d="M120.10 103.00v-21.00" class="stroke"/>
<use x="159.90" y="91.00" xlink:href="#hd"/>
<path d="M163.40 91.00v-21.00" class="stroke"/>
<use x="203.10" y="91.00" xlink:href="#hd"/>
<path d="M206.60 91.00v-21.00" class="stroke"/>
<use x="246.40" y="94.00" xlink:href="#hd"/>
<path d="M249.90 94.00v-21.00" class="stroke"/>
<use x="292.00" y="97.00" xlink:href="#hd"/>
<path d="M295.50 97.00v-21.00" class="stroke"/>
<use x="335.30" y="100.00" xlink:href="#hd"/>
<path d="M338.80 100.00v-21.00" class="stroke"/>
<use x="378.60" y="103.00" xlink:href="#hd"/>
<path d="M382.10 103.00v-21.00" class="stroke"/>
<use x="421.80" y="106.00" xlink:href="#hd"/>
<path d="M425.30 106.00v-21.00" class="stroke"/>
<use x="467.40" y="103.00" xlink:href="#hd"/>
<path d="M470.90 103.00v-21.00" class="stroke"/>
<use x="510.70" y="100.00" xlink:href="#hd"/>
<path d="M514.20 100.00v-21.00" class="stroke"/>
<use x="554.00" y="97.00" xlink:href="#hd"/>
<path d="M557.50 97.00v-21.00" class="stroke"/>
<use x="597.20" y="94.00" xlink:href="#hd"/>
<path d="M600.70 94.00v-21.00" class="stroke"/>
<defs>
<path id="Hd" class="fill" d="m3 -1.6
	c-1 -1.8 -7 1.4 -6 3.2
	1 1.8 7 -1.4 6 -3.2
	m0.5 -0.3
	c2 3.8 -5 7.6 -7 3.8
	-2 -3.8 5 -7.6 7 -3.8"/>
</defs>
<use x="642.80" y="91.00" xlink:href="#Hd"/>
<circle class="fill" cx="651.50" cy="88.00" r="1.2"/>
<path d="M646.30 91.00v-21.00" class="stroke"/>
</g>
<g stroke-width="0.70" style="font:12.00px Helvetica">
<path class="stroke" stroke-width="1"
	d="M86.10 177.00v-24.00"/>
<path class="stroke" stroke-width="1"
	d="M266.00 177.00v-24.00"/>
<path class="stroke" stroke-width="1"
	d="M445.90 177.00v-24.00"/>
<path class="stroke" stroke-width="1"
	d="M625.90 177.00v-24.00"/>
<path class="stroke" stroke-width="1"
	d="M691.60 177.00v-24.00"/>
<path d="m10.00 177.00
	h681.60
	M10.00 171.00
	h681.60
	M10.00 165.00
	h681.60
	M10.00 159.00
	h681.60
	M10.00 153.00
	h681.60
	" class="stroke"/>
<path class="fill"
	d="M281.70 177.00c6.70 4.51 36.19 5.95 42.89 2.10
	v0.24c-7.99 5.61 -34.90 4.16 -42.89 -2.34"/>
<text x="94.40" y="137.60">Em</text>
<text x="638.10" y="137.60">B</text>
<use x="22.00" y="171.00" xlink:href="#tclef"/>
<use x="37.00" y="153.00" xlink:href="#sh0"/>
<use x="55.00" y="177.00" xlink:href="#hd"/>
<path d="M58.50 177.00v-21.00" class="stroke"/>
<use x="101.80" y="177.00" xlink:href="#hd"/>
<path d="M105.30 177.00v-21.00" class="stroke"/>
<use x="146.20" y="165.00" xlink:href="#hd"/>
<path d="M149.70 165.00v-21.00" class="stroke"/>
<use x="190.50" y="165.00" xlink:href="#hd"/>
<path d="M194.00 165.00v-21.00" class="stroke"/>
<use x="234.90" y="168.00" xlink:href="#hd"/>
<path d="M238.40 168.00v-21.00" class="stroke"/>
<use x="281.70" y="171.00" xlink:href="#hd"/>
<path d="M285.20 171.00v-21.00" class="stroke"/>
<use x="326.10" y="174.00" xlink:href="#hd"/>
<path d="M329.60 174.00v-21.00" class="stroke"/>
<use x="370.50" y="177.00" xlink:href="#hd"/>
<path d="M374.00 177.00v-21.00" class="stroke"/>
<use x="414.90" y="180.00" xlink:href="#hd"/>
<path d="M418.40 180.00v-21.00" class="stroke"/>
<use x="461.60" y="177.00" xlink:href="#hd"/>
<path d="M465.10 177.00v-21.00" class="stroke"/>
<use x="506.00" y="174.00" xlink:href="#hd"/>
<path d="M509.50 174.00v-21.00" class="stroke"/>
<use x="550.40" y="171.00" xlink:href="#hd"/>
<path d="M553.90 171.00v-21.00" class="stroke"/>
<use x="594.80" y="168.00" xlink:href="#hd"/>
<path d="M598.30 168.00v-21.00" class="stroke"/>
<use x="641.60" y="165.00" xlink:href="#Hd"/>
<circle class="fill" cx="650.30" cy="162.00" r="1.2"/>
<path d="M645.10 165.00v-21.00" class="stroke"/>
</g>
<g stroke-width="0.70" style="font:12.00px Helvetica">
<path class="stroke" stroke-width="1"
	d="M86.80 248.00v-24.00"/>
<path class="stroke" stroke-width="1"
	d="M266.50 248.00v-24.00"/>
<path class="stroke" stroke-width="1"
	d="M446.20 248.00v-24.00"/>
<path class="stroke" stroke-width="1"
	d="M630.50 248.00v-24.00"/>
<path class="stroke" stroke-width="1"
	d="M691.60 248.00v-24.00"/>
<path d="m10.00 248.00
	h681.60
	M10.00 242.00
	h681.60
	M10.00 236.00
	h681.60
	M10.00 230.00
	h681.60
	M10.00 224.00
	h681.60
	" class="stroke"/>
<text x="95.00" y="211.60">Am</text>
<text x="274.60" y="211.60">Bm7</text>
<text x="367.40" y="211.60">B7</text>
<text x="455.00" y="211.60">Em</text>
<text x="642.80" y="211.60">D</text>
<use x="22.00" y="242.00" xlink:href="#tclef"/>
<use x="37.00" y="224.00" xlink:href="#sh0"/>
<use x="55.00" y="236.00" xlink:href="#hd"/>
<path d="M58.50 236.00v-21.00" class="stroke"/>
<use x="102.90" y="233.00" xlink:href="#hd"/>
<path d="M99.40 233.00v21.00" class="stroke"/>
<use x="143.80" y="239.00" xlink:href="#hd"/>
<path d="M147.30 239.00v-21.00" class="stroke"/>
<use x="189.30" y="236.00" xlink:href="#hd"/>
<path d="M192.80 236.00v-21.00" class="stroke"/>
<use x="234.70" y="233.00" xlink:href="#hd"/>
<path d="M231.20 233.00v21.00" class="stroke"/>
<use x="282.60" y="230.00" xlink:href="#hd"/>
<path d="M279.10 230.00v21.00" class="stroke"/>
<use x="328.10" y="227.00" xlink:href="#hd"/>
<path d="M324.60 227.00v21.00" class="stroke"/>
<use x="373.50" y="236.00" xlink:href="#hd"/>
<path d="M370.00 236.00v21.00" class="stroke"/>
<use x="414.40" y="239.00" xlink:href="#hd"/>
<path d="M417.90 239.00v-21.00" class="stroke"/>
<use x="462.30" y="242.00" xlink:href="#hd"/>
<path d="M465.80 242.00v-21.00" class="stroke"/>
<use x="507.80" y="248.00" xlink:href="#hd"/>
<path d="M511.30 248.00v-21.00" class="stroke"/>
<use x="553.20" y="245.00" xlink:href="#hd"/>
<path d="M556.70 245.00v-21.00" class="stroke"/>
<use x="598.70" y="242.00" xlink:href="#hd"/>
<path d="M602.20 242.00v-21.00" class="stroke"/>
<use x="646.60" y="239.00" xlink:href="#Hd"/>
<path d="M650.10 239.00v-21.00" class="stroke"/>
</g>
<g stroke-width="0.70" style="font:12.00px Helvetica">
<path class="stroke" stroke-width="1"
	d="M130.80 322.00v-24.00"/>
<path class="stroke" stroke-width="1"
	d="M285.40 322.00v-24.00"/>
<path class="stroke" stroke-width="1"
	d="M461.70 322.00v-24.00"/>
<path class="stroke" stroke-width="1"
	d="M631.70 322.00v-24.00"/>
<path class="stroke" stroke-width="1"
	d="M691.60 322.00v-24.00"/>
<path d="m10.00 322.00
	h681.60
	M10.00 316.00
	h681.60
	M10.00 310.00
	h681.60
	M10.00 304.00
	h681.60
	M10.00 298.00
	h681.60
	" class="stroke"/>
<path class="fill"
	d="M56.50 321.10c6.73 3.85 36.36 2.41 43.08 -2.10
	v0.24c-8.02 6.27 -35.06 7.71 -43.08 1.86"/>
<path class="fill"
	d="M301.20 304.00c6.00 -4.78 32.12 -7.65 38.12 -4.20
	v-0.24c-7.15 -5.22 -30.97 -2.34 -38.12 4.44"/>
<text x="142.70" y="282.60">G</text>
<text x="206.10" y="282.60">C</text>
<text x="295.00" y="282.60">B7</text>
<text x="470.10" y="282.60">Em</text>
<text x="643.60" y="282.60">D</text>
<use x="22.00" y="316.00" xlink:href="#tclef"/>
<use x="37.00" y="298.00" xlink:href="#sh0"/>
<use x="55.00" y="316.00" xlink:href="#hd"/>
<path d="M58.50 316.00v-21.00" class="stroke"/>
<use x="99.60" y="313.00" xlink:href="#hd"/>
<path d="M103.10 313.00v-21.00" class="stroke"/>
<use x="146.60" y="310.00" xlink:href="#Hd"/>
<path d="M150.10 310.00v-21.00" class="stroke"/>
<use x="209.60" y="307.00" xlink:href="#hd"/>
<path d="M206.10 307.00v21.00" class="stroke"/>
<use x="254.20" y="310.00" xlink:href="#hd"/>
<path d="M250.70 310.00v21.00" class="stroke"/>
<use x="301.20" y="310.00" xlink:href="#hd"/>
<path d="M297.70 310.00v21.00" class="stroke"/>
<use x="341.30" y="313.00" xlink:href="#hd"/>
<path d="M344.80 313.00v-21.00" class="stroke"/>
<use x="385.90" y="316.00" xlink:href="#hd"/>
<path d="M389.40 316.00v-21.00" class="stroke"/>
<use x="430.50" y="319.00" xlink:href="#hd"/>
<path d="M434.00 319.00v-21.00" class="stroke"/>
<use x="477.50" y="322.00" xlink:href="#Hd"/>
<path d="M481.00 322.00v-21.00" class="stroke"/>
<path class="fill"
	d="M543.70 295.20l29.10 2.50v3.20l-29.10 -2.50"/>
<use x="540.50" y="316.00" xlink:href="#hd"/>
<path d="M544.00 316.00v-19.70" class="stroke"/>
<use x="568.90" y="319.00" xlink:href="#hd"/>
<path d="M572.40 319.00v-20.30" class="stroke"/>
<use x="600.50" y="322.00" xlink:href="#hd"/>
<path d="M604.00 322.00v-21.00" class="stroke"/>
<use x="647.40" y="313.00" xlink:href="#Hd"/>
<path d="M650.90 313.00v-21.00" class="stroke"/>
</g>
<g stroke-width="0.70" style="font:12.00px Helvetica">
<path class="stroke" stroke-width="1"
	d="M150.40 396.00v-24.00"/>
<path class="stroke" stroke-width="1"
	d="M377.70 396.00v-24.00"/>
<path class="stroke" stroke-width="1"
	d="M599.50 396.00v-24.00"/>
<path class="stroke" stroke-width="3"
	d="M690.10 396.00v-24.00"/>
<path class="stroke" stroke-width="1"
	d="M685.60 396.00v-24.00"/>
<path d="m10.00 396.00
	h681.60
	M10.00 390.00
	h681.60
	M10.00 384.00
	h681.60
	M10.00 378.00
	h681.60
	M10.00 372.00
	h681.60
	" class="stroke"/>
<path class="fill"
	d="M56.50 395.10c8.24 4.02 46.35 2.55 54.59 -2.10
	v0.25c-9.88 6.40 -44.71 7.87 -54.59 1.85"/>
<path class="fill"
	d="M178.20 370.80c7.40 -3.60 40.69 -0.70 48.09 4.20
	v-0.25c-8.84 -6.65 -39.25 -9.55 -48.09 -3.95"/>
<path class="fill"
	d="M397.60 378.00c7.45 -4.90 41.03 -7.81 48.48 -4.20
	v-0.25c-8.91 -5.36 -39.58 -2.45 -48.48 4.45"/>
<text x="166.40" y="356.60">G</text>
<text x="391.40" y="356.60">B7</text>
<text x="612.00" y="356.60">Em</text>
<use x="22.00" y="390.00" xlink:href="#tclef"/>
<use x="37.00" y="372.00" xlink:href="#sh0"/>
<use x="55.00" y="390.00" xlink:href="#hd"/>
<path d="M58.50 390.00v-21.00" class="stroke"/>
<use x="111.10" y="387.00" xlink:href="#hd"/>
<path d="M114.60 387.00v-21.00" class="stroke"/>
<use x="170.20" y="384.00" xlink:href="#hd"/>
<path d="M173.70 384.00v-21.00" class="stroke"/>
<use x="226.30" y="381.00" xlink:href="#hd"/>
<path d="M222.80 381.00v21.00" class="stroke"/>
<use x="282.40" y="378.00" xlink:href="#hd"/>
<path d="M278.90 378.00v21.00" class="stroke"/>
<use x="338.50" y="375.00" xlink:href="#hd"/>
<path d="M335.00 375.00v21.00" class="stroke"/>
<use x="397.60" y="384.00" xlink:href="#hd"/>
<path d="M394.10 384.00v21.00" class="stroke"/>
<use x="448.10" y="387.00" xlink:href="#hd"/>
<path d="M451.60 387.00v-21.00" class="stroke"/>
<use x="504.20" y="390.00" xlink:href="#hd"/>
<path d="M507.70 390.00v-21.00" class="stroke"/>
<use x="560.20" y="393.00" xlink:href="#hd"/>
<path d="M563.70 393.00v-21.00" class="stroke"/>
<use x="619.40" y="396.00" xlink:href="#Hd"/>
<circle class="fill" cx="628.10" cy="393.00" r="1.2"/>
<path d="M622.90 396.00v-21.00" class="stroke"/>
</g>
<g stroke-width="0.70" style="font:16.00px Arial">
<text x="60.00" y="436.60">God rest ye merry gentlemen</text>
<text x="375.80" y="436.60">In Bethlehem, in Israel</text>
</g>
<g stroke-width="0.70" style="font:16.00px Arial">
<text x="60.00" y="454.20">Let nothing you dismay</text>
<text x="375.80" y="454.20">This blessed Babe was born</text>
</g>
<g stroke-width="0.70" style="font:16.00px Arial">
<text x="60.00" y="471.80">Remember Christ our Savior</text>
<text x="375.80" y="471.80">And laid within a manger</text>
</g>
<g stroke-width="0.70" style="font:16.00px Arial">
<text x="60.00" y="489.40">Was born on Christmas Day</text>
<text x="375.80" y="489.40">Upon this blessed morn</text>
</g>
<g stroke-width="0.70" style="font:16.00px Arial">
<text x="60.00" y="507.00">To save us all from Satan&apos;s pow&apos;r</text>
<text x="375.80" y="507.00">The which His Mother Mary</text>
</g>
<g stroke-width="0.70" style="font:16.00px Arial">
<text x="60.00" y="524.60">When we were gone astray</text>
<text x="375.80" y="524.60">Did nothing take in scorn</text>
</g>
<g stroke-width="0.70" style="font:16.00px Arial">
<text x="60.00" y="542.20">Oh tidings of comfort and joy</text>
<text x="375.80" y="542.20">Oh tidings of comfort and joy</text>
</g>
<g stroke-width="0.70" style="font:16.00px Arial">
<text x="60.00" y="559.80">Comfort and Joy</text>
<text x="375.80" y="559.80">Comfort and Joy</text>
</g>
<g stroke-width="0.70" style="font:16.00px Arial">
<text x="60.00" y="577.40">Oh tidings of comfort and joy</text>
<text x="375.80" y="577.40">Oh tidings of comfort and joy</text>
</g>
<g stroke-width="0.70" style="font:16.00px Arial">
<text x="60.00" y="612.60">God rest ye merry gentlemen</text>
<text x="375.80" y="612.60">Fear not then, said the Angel</text>
</g>
<g stroke-width="0.70" style="font:16.00px Arial">
<text x="60.00" y="630.20">Let nothing you dismay</text>
<text x="375.80" y="630.20">Let nothing you affright</text>
</g>
<g stroke-width="0.70" style="font:16.00px Arial">
<text x="60.00" y="647.80">Remember Christ our Savior</text>
<text x="375.80" y="647.80">This day is born a Savior</text>
</g>
<g stroke-width="0.70" style="font:16.00px Arial">
<text x="60.00" y="665.40">Was born on Christmas Day</text>
<text x="375.80" y="665.40">Of a pure Virgin bright</text>
</g>
<g stroke-width="0.70" style="font:16.00px Arial">
<text x="60.00" y="683.00">To save us all from Satan&apos;s pow&apos;r</text>
<text x="375.80" y="683.00">To free all those who trust in Him</text>
</g>
<g stroke-width="0.70" style="font:16.00px Arial">
<text x="60.00" y="700.60">When we were gone astray</text>
<text x="375.80" y="700.60">From Satan&apos;s pow&apos;r and might</text>
</g>
<g stroke-width="0.70" style="font:16.00px Arial">
<text x="60.00" y="718.20">Oh tidings of comfort and joy</text>
<text x="375.80" y="718.20">Oh tidings of comfort and joy</text>
</g>
<g stroke-width="0.70" style="font:16.00px Arial">
<text x="60.00" y="735.80">Comfort and Joy</text>
<text x="375.80" y="735.80">Comfort and Joy</text>
</g>
<g stroke-width="0.70" style="font:16.00px Arial">
<text x="60.00" y="753.40">Oh tidings of comfort and joy</text>
<text x="375.80" y="753.40">Oh tidings of comfort and joy</text>
</g>
<g stroke-width="0.70" style="font:16.00px Arial">
<text x="239.50" y="788.60">God rest ye merry gentlemen</text>
</g>
<g stroke-width="0.70" style="font:16.00px Arial">
<text x="239.50" y="806.20">Let nothing you dismay</text>
</g>
<g stroke-width="0.70" style="font:16.00px Arial">
<text x="239.50" y="823.80">Remember Christ our Savior</text>
</g>
<g stroke-width="0.70" style="font:16.00px Arial">
<text x="239.50" y="841.40">Was born on Christmas Day</text>
</g>
<g stroke-width="0.70" style="font:16.00px Arial">
<text x="239.50" y="859.00">To save us all from Satan&apos;s pow&apos;r</text>
</g>
<g stroke-width="0.70" style="font:16.00px Arial">
<text x="239.50" y="876.60">When we were gone astray</text>
</g>
<g stroke-width="0.70" style="font:16.00px Arial">
<text x="239.50" y="894.20">Oh tidings of comfort and joy</text>
</g>
<g stroke-width="0.70" style="font:16.00px Arial">
<text x="239.50" y="911.80">Comfort and Joy</text>
</g>
<g stroke-width="0.70" style="font:16.00px Arial">
<text x="239.50" y="929.40">Oh tidings of comfort and joy</text>
</g>
</svg>
