<?xml version="1.0" standalone="no"?>
<!DOCTYPE svg PUBLIC "-//W3C//DTD SVG 1.1//EN"
	"http://www.w3.org/Graphics/SVG/1.1/DTD/svg11.dtd">
<svg xmlns="http://www.w3.org/2000/svg" version="1.1"
	xmlns:xlink="http://www.w3.org/1999/xlink"
	color="black"
	width="701.60px" height="292.00px">
<style type="text/css">
.fill {fill: currentColor}
.stroke {stroke: currentColor; fill: none}
text{white-space: pre}
</style>
<title>/mnt/ed617834-7c4b-4156-8731-6c17b22f12c7/tims_code/sphinx-tunes/source/ (1) tune 1</title>
<!-- Creator: abcm2ps-8.14.6 -->
<!-- CreationDate: Aug  1, 2021 16:43 -->
<!-- CommandLine: -g '/mnt/ed617834-7c4b-4156-8731-6c17b22f12c7/tims_code/sphinx-tunes/source/_abcfiles/_Hooligan's Jig.abc' -O '/mnt/ed617834-7c4b-4156-8731-6c17b22f12c7/tims_code/sphinx-tunes/source/_abcfiles/Hooligan's Jig.svg' -->
<g stroke-width="0.70">
<defs>
<g id="rdots" class="fill">
	<circle cx="0" cy="-9" r="1.2"/>
	<circle cx="0" cy="-15" r="1.2"/>
</g>
</defs>
<use x="81.50" y="59.00" xlink:href="#rdots"/>
<path class="stroke" stroke-width="1"
	d="M77.50 59.00v-24.00"/>
<path class="stroke" stroke-width="3"
	d="M73.00 59.00v-24.00"/>
<path class="stroke" stroke-width="1"
	d="M238.00 59.00v-24.00"/>
<path class="stroke" stroke-width="1"
	d="M393.60 59.00v-24.00"/>
<path class="stroke" stroke-width="1"
	d="M549.10 59.00v-24.00"/>
<path class="stroke" stroke-width="1"
	d="M691.60 59.00v-24.00"/>
<path d="m10.00 59.00
	h681.60
	M10.00 53.00
	h681.60
	M10.00 47.00
	h681.60
	M10.00 41.00
	h681.60
	M10.00 35.00
	h681.60
	" class="stroke"/>
<defs>
<path id="utclef" class="fill" d="m-50 -90
	c-72 -41 -72 -158 52 -188
	150 -10 220 188 90 256
	-114 52 -275 0 -293 -136
	-15 -181 93 -229 220 -334
	88 -87 79 -133 62 -210
	-51 33 -94 105 -89 186
	17 267 36 374 49 574
	6 96 -19 134 -77 135
	-80 1 -126 -93 -61 -133
	85 -41 133 101 31 105
	23 17 92 37 90 -92
	-10 -223 -39 -342 -50 -617
	0 -90 0 -162 96 -232
	56 72 63 230 22 289
	-74 106 -257 168 -255 316
	9 153 148 185 252 133
	86 -65 29 -192 -80 -176
	-71 12 -105 67 -59 124"/>
<use id="tclef" transform="translate(0,6) scale(0.045)"
	xlink:href="#utclef"/>
</defs>
<use x="22.00" y="53.00" xlink:href="#tclef"/>
<defs>
<path id="usharp" class="fill" d="
	m136 -702
	v890
	h32
	v-890
	m128 840
	h32
	v-888
	h-32
	m-232 286
	v116
	l338 -96
	v-116
	m-338 442
	v116
	l338 -98
	v-114"/>
<use id="sh0" transform="translate(-4,5) scale(0.018)"
	xlink:href="#usharp"/>
</defs>
<use x="37.00" y="35.00" xlink:href="#sh0"/>
<g style="font:bold 16px serif"
	transform="translate(53.00,58.50) scale(1.2,1)">
	<text text-anchor="middle">8</text>
	<text y="-12" text-anchor="middle">6</text>
</g>
<path class="fill"
	d="M99.10 32.00l48.90 0.00v3.20l-48.90 -0.00"/>
<defs>
<ellipse id="hd" rx="4.1" ry="2.9"
	transform="rotate(-20)" class="fill"/>
</defs>
<use x="96.00" y="53.00" xlink:href="#hd"/>
<path d="M99.50 53.00v-20.00" class="stroke"/>
<use x="120.10" y="50.00" xlink:href="#hd"/>
<path d="M123.60 50.00v-17.00" class="stroke"/>
<use x="144.20" y="53.00" xlink:href="#hd"/>
<path d="M147.70 53.00v-20.00" class="stroke"/>
<path class="fill"
	d="M174.10 27.80l48.90 0.00v3.20l-48.90 -0.00"/>
<use x="171.00" y="47.00" xlink:href="#hd"/>
<path d="M174.50 47.00v-18.20" class="stroke"/>
<use x="195.10" y="53.00" xlink:href="#hd"/>
<path d="M198.60 53.00v-24.20" class="stroke"/>
<use x="219.20" y="47.00" xlink:href="#hd"/>
<path d="M222.70 47.00v-18.20" class="stroke"/>
<path class="fill"
	d="M247.70 62.00l48.90 0.00v-3.20l-48.90 -0.00"/>
<use x="251.50" y="41.00" xlink:href="#hd"/>
<path d="M248.00 41.00v20.00" class="stroke"/>
<use x="275.60" y="38.00" xlink:href="#hd"/>
<path d="M272.10 38.00v23.00" class="stroke"/>
<use x="299.70" y="41.00" xlink:href="#hd"/>
<path d="M296.20 41.00v20.00" class="stroke"/>
<path class="fill"
	d="M322.70 64.10l48.90 8.10v-3.20l-48.90 -8.10"/>
<use x="326.50" y="41.00" xlink:href="#hd"/>
<path d="M323.00 41.00v22.20" class="stroke"/>
<use x="350.60" y="47.00" xlink:href="#hd"/>
<path d="M347.10 47.00v20.20" class="stroke"/>
<use x="374.80" y="53.00" xlink:href="#hd"/>
<path d="M371.30 53.00v18.20" class="stroke"/>
<path class="fill"
	d="M403.20 66.20l48.90 0.00v-3.20l-48.90 -0.00"/>
<use x="407.00" y="44.00" xlink:href="#hd"/>
<path d="M403.50 44.00v21.20" class="stroke"/>
<use x="431.20" y="47.00" xlink:href="#hd"/>
<path d="M427.70 47.00v18.20" class="stroke"/>
<use x="455.30" y="44.00" xlink:href="#hd"/>
<path d="M451.80 44.00v21.20" class="stroke"/>
<path class="fill"
	d="M478.20 56.00l48.90 0.00v-3.20l-48.90 -0.00"/>
<use x="482.10" y="38.00" xlink:href="#hd"/>
<path d="M478.60 38.00v17.00" class="stroke"/>
<use x="506.20" y="32.00" xlink:href="#hd"/>
<path d="M502.70 32.00v23.00" class="stroke"/>
<use x="530.30" y="38.00" xlink:href="#hd"/>
<path d="M526.80 38.00v17.00" class="stroke"/>
<path class="fill"
	d="M558.70 64.10l48.90 8.10v-3.20l-48.90 -8.10"/>
<use x="562.60" y="41.00" xlink:href="#hd"/>
<path d="M559.10 41.00v22.20" class="stroke"/>
<use x="586.70" y="47.00" xlink:href="#hd"/>
<path d="M583.20 47.00v20.20" class="stroke"/>
<use x="610.80" y="53.00" xlink:href="#hd"/>
<path d="M607.30 53.00v18.20" class="stroke"/>
<use x="634.90" y="50.00" xlink:href="#hd"/>
<path d="M638.40 50.00v-21.00" class="stroke"/>
<use x="672.70" y="62.00" xlink:href="#hd"/>
<path d="M676.20 62.00v-21.00" class="stroke"/>
<path class="fill"
	d="M676.20 41.00c0.6 5.6 9.6 9 5.6 18.4
	1.6 -6 -1.3 -11.6 -5.6 -12.8
"/>
</g>
<g stroke-width="0.70">
<path class="stroke" stroke-width="1"
	d="M224.50 129.00v-24.00"/>
<path class="stroke" stroke-width="1"
	d="M397.60 129.00v-24.00"/>
<path class="stroke" stroke-width="1"
	d="M583.00 129.00v-24.00"/>
<path class="stroke" stroke-width="3"
	d="M690.10 129.00v-24.00"/>
<path class="stroke" stroke-width="1"
	d="M685.60 129.00v-24.00"/>
<use x="681.60" y="129.00" xlink:href="#rdots"/>
<path d="m10.00 129.00
	h681.60
	M10.00 123.00
	h681.60
	M10.00 117.00
	h681.60
	M10.00 111.00
	h681.60
	M10.00 105.00
	h681.60
	" class="stroke"/>
<use x="22.00" y="123.00" xlink:href="#tclef"/>
<use x="37.00" y="105.00" xlink:href="#sh0"/>
<path class="fill"
	d="M58.20 102.00l58.20 0.00v3.20l-58.20 -0.00"/>
<use x="55.00" y="123.00" xlink:href="#hd"/>
<path d="M58.50 123.00v-20.00" class="stroke"/>
<use x="83.80" y="120.00" xlink:href="#hd"/>
<path d="M87.30 120.00v-17.00" class="stroke"/>
<use x="112.60" y="123.00" xlink:href="#hd"/>
<path d="M116.10 123.00v-20.00" class="stroke"/>
<path class="fill"
	d="M147.70 97.80l58.20 0.00v3.20l-58.20 -0.00"/>
<use x="144.50" y="117.00" xlink:href="#hd"/>
<path d="M148.00 117.00v-18.20" class="stroke"/>
<use x="173.30" y="123.00" xlink:href="#hd"/>
<path d="M176.80 123.00v-24.20" class="stroke"/>
<use x="202.10" y="117.00" xlink:href="#hd"/>
<path d="M205.60 117.00v-18.20" class="stroke"/>
<path class="fill"
	d="M236.60 132.00l58.20 0.00v-3.20l-58.20 -0.00"/>
<use x="240.50" y="111.00" xlink:href="#hd"/>
<path d="M237.00 111.00v20.00" class="stroke"/>
<use x="269.20" y="108.00" xlink:href="#hd"/>
<path d="M265.70 108.00v23.00" class="stroke"/>
<use x="298.00" y="111.00" xlink:href="#hd"/>
<path d="M294.50 111.00v20.00" class="stroke"/>
<use x="330.00" y="117.00" xlink:href="#hd"/>
<path d="M326.50 117.00v21.00" class="stroke"/>
<use x="375.20" y="102.00" xlink:href="#hd"/>
<path d="M371.70 102.00v21.00" class="stroke"/>
<path class="fill"
	d="M371.70 123.00c0.6 -5.6 9.6 -9 5.6 -18.4
	1.6 6 -1.3 11.6 -5.6 12.8
"/>
<path class="fill"
	d="M409.70 126.50l58.20 5.00v-3.20l-58.20 -5.00"/>
<use x="413.50" y="105.00" xlink:href="#hd"/>
<path d="M410.00 105.00v20.50" class="stroke"/>
<use x="442.30" y="108.00" xlink:href="#hd"/>
<path d="M438.80 108.00v20.00" class="stroke"/>
<use x="471.10" y="111.00" xlink:href="#hd"/>
<path d="M467.60 111.00v19.50" class="stroke"/>
<path class="fill"
	d="M499.20 135.50l58.20 5.00v-3.20l-58.20 -5.00"/>
<use x="503.10" y="114.00" xlink:href="#hd"/>
<path d="M499.60 114.00v20.50" class="stroke"/>
<use x="531.90" y="117.00" xlink:href="#hd"/>
<path d="M528.40 117.00v20.00" class="stroke"/>
<use x="560.60" y="120.00" xlink:href="#hd"/>
<path d="M557.10 120.00v19.50" class="stroke"/>
<use x="599.00" y="123.00" xlink:href="#hd"/>
<circle class="fill" cx="606.70" cy="120.00" r="1.2"/>
<path d="M602.50 123.00v-21.00" class="stroke"/>
<use x="650.40" y="123.00" xlink:href="#hd"/>
<circle class="fill" cx="658.10" cy="120.00" r="1.2"/>
<path d="M653.90 123.00v-21.00" class="stroke"/>
</g>
<g stroke-width="0.70">
<use x="61.50" y="199.00" xlink:href="#rdots"/>
<path class="stroke" stroke-width="1"
	d="M57.50 199.00v-24.00"/>
<path class="stroke" stroke-width="3"
	d="M53.00 199.00v-24.00"/>
<path class="stroke" stroke-width="1"
	d="M222.40 199.00v-24.00"/>
<path class="stroke" stroke-width="1"
	d="M371.70 199.00v-24.00"/>
<path class="stroke" stroke-width="1"
	d="M531.70 199.00v-24.00"/>
<path class="stroke" stroke-width="1"
	d="M691.60 199.00v-24.00"/>
<path d="m10.00 199.00
	h681.60
	M10.00 193.00
	h681.60
	M10.00 187.00
	h681.60
	M10.00 181.00
	h681.60
	M10.00 175.00
	h681.60
	" class="stroke"/>
<use x="22.00" y="193.00" xlink:href="#tclef"/>
<use x="37.00" y="175.00" xlink:href="#sh0"/>
<path class="fill"
	d="M72.50 202.00l50.30 0.00v-3.20l-50.30 -0.00"/>
<use x="76.30" y="181.00" xlink:href="#hd"/>
<path d="M72.80 181.00v20.00" class="stroke"/>
<use x="101.10" y="178.00" xlink:href="#hd"/>
<path d="M97.60 178.00v23.00" class="stroke"/>
<use x="125.90" y="181.00" xlink:href="#hd"/>
<path d="M122.40 181.00v20.00" class="stroke"/>
<path class="fill"
	d="M149.70 207.40l50.30 -4.90v-3.20l-50.30 4.90"/>
<use x="153.50" y="187.00" xlink:href="#hd"/>
<path d="M150.00 187.00v19.40" class="stroke"/>
<use x="178.30" y="184.00" xlink:href="#hd"/>
<path d="M174.80 184.00v20.00" class="stroke"/>
<use x="203.10" y="181.00" xlink:href="#hd"/>
<path d="M199.60 181.00v20.60" class="stroke"/>
<path class="fill"
	d="M232.40 202.00l50.30 0.00v-3.20l-50.30 -0.00"/>
<use x="236.30" y="178.00" xlink:href="#hd"/>
<path d="M232.80 178.00v23.00" class="stroke"/>
<use x="261.10" y="184.00" xlink:href="#hd"/>
<path d="M257.60 184.00v17.00" class="stroke"/>
<use x="285.90" y="178.00" xlink:href="#hd"/>
<path d="M282.40 178.00v23.00" class="stroke"/>
<use x="313.40" y="178.00" xlink:href="#hd"/>
<path d="M309.90 178.00v21.00" class="stroke"/>
<use x="352.40" y="178.00" xlink:href="#hd"/>
<path d="M348.90 178.00v21.00" class="stroke"/>
<path class="fill"
	d="M348.90 199.00c0.6 -5.6 9.6 -9 5.6 -18.4
	1.6 6 -1.3 11.6 -5.6 12.8
"/>
<path class="fill"
	d="M381.70 196.00l50.30 0.00v-3.20l-50.30 -0.00"/>
<use x="385.50" y="175.00" xlink:href="#hd"/>
<path d="M382.00 175.00v20.00" class="stroke"/>
<use x="410.30" y="172.00" xlink:href="#hd"/>
<path d="M406.80 172.00v23.00" class="stroke"/>
<use x="435.10" y="175.00" xlink:href="#hd"/>
<path d="M431.60 175.00v20.00" class="stroke"/>
<path class="fill"
	d="M458.90 201.40l50.30 -4.90v-3.20l-50.30 4.90"/>
<use x="462.70" y="181.00" xlink:href="#hd"/>
<path d="M459.20 181.00v19.40" class="stroke"/>
<use x="487.50" y="178.00" xlink:href="#hd"/>
<path d="M484.00 178.00v20.00" class="stroke"/>
<use x="512.30" y="175.00" xlink:href="#hd"/>
<path d="M508.80 175.00v20.60" class="stroke"/>
<path class="fill"
	d="M541.60 204.00l50.30 4.50v-3.20l-50.30 -4.50"/>
<use x="545.50" y="172.00" xlink:href="#hd"/>
<path d="M542.00 172.00v31.00" class="stroke"/>
<use x="570.30" y="187.00" xlink:href="#hd"/>
<path d="M566.80 187.00v18.20" class="stroke"/>
<use x="595.10" y="181.00" xlink:href="#hd"/>
<path d="M591.60 181.00v26.40" class="stroke"/>
<path class="fill"
	d="M618.80 193.60l50.30 4.90v-3.20l-50.30 -4.90"/>
<use x="622.70" y="172.00" xlink:href="#hd"/>
<path d="M619.20 172.00v20.60" class="stroke"/>
<use x="647.50" y="175.00" xlink:href="#hd"/>
<path d="M644.00 175.00v20.00" class="stroke"/>
<use x="672.30" y="178.00" xlink:href="#hd"/>
<path d="M668.80 178.00v19.40" class="stroke"/>
</g>
<g stroke-width="0.70">
<path class="stroke" stroke-width="1"
	d="M221.20 269.00v-24.00"/>
<path class="stroke" stroke-width="1"
	d="M403.20 269.00v-24.00"/>
<path class="stroke" stroke-width="1"
	d="M585.10 269.00v-24.00"/>
<path class="stroke" stroke-width="1"
	d="M691.60 269.00v-24.00"/>
<path class="stroke" stroke-width="1"
	d="M688.60 269.00v-24.00"/>
<use x="684.60" y="269.00" xlink:href="#rdots"/>
<path d="m10.00 269.00
	h681.60
	M10.00 263.00
	h681.60
	M10.00 257.00
	h681.60
	M10.00 251.00
	h681.60
	M10.00 245.00
	h681.60
	" class="stroke"/>
<use x="22.00" y="263.00" xlink:href="#tclef"/>
<use x="37.00" y="245.00" xlink:href="#sh0"/>
<path class="fill"
	d="M51.20 272.00l57.10 0.00v-3.20l-57.10 -0.00"/>
<use x="55.00" y="251.00" xlink:href="#hd"/>
<path d="M51.50 251.00v20.00" class="stroke"/>
<use x="83.20" y="248.00" xlink:href="#hd"/>
<path d="M79.70 248.00v23.00" class="stroke"/>
<use x="111.50" y="251.00" xlink:href="#hd"/>
<path d="M108.00 251.00v20.00" class="stroke"/>
<path class="fill"
	d="M139.00 277.50l57.10 -5.00v-3.20l-57.10 5.00"/>
<use x="142.80" y="257.00" xlink:href="#hd"/>
<path d="M139.30 257.00v19.50" class="stroke"/>
<use x="171.10" y="254.00" xlink:href="#hd"/>
<path d="M167.60 254.00v20.00" class="stroke"/>
<use x="199.30" y="251.00" xlink:href="#hd"/>
<path d="M195.80 251.00v20.50" class="stroke"/>
<path class="fill"
	d="M233.10 272.00l57.10 0.00v-3.20l-57.10 -0.00"/>
<use x="236.90" y="248.00" xlink:href="#hd"/>
<path d="M233.40 248.00v23.00" class="stroke"/>
<use x="265.10" y="254.00" xlink:href="#hd"/>
<path d="M261.60 254.00v17.00" class="stroke"/>
<use x="293.40" y="248.00" xlink:href="#hd"/>
<path d="M289.90 248.00v23.00" class="stroke"/>
<path class="fill"
	d="M320.90 263.50l57.10 5.00v-3.20l-57.10 -5.00"/>
<use x="324.70" y="242.00" xlink:href="#hd"/>
<path d="M321.20 242.00v20.50" class="stroke"/>
<use x="353.00" y="245.00" xlink:href="#hd"/>
<path d="M349.50 245.00v20.00" class="stroke"/>
<use x="381.20" y="248.00" xlink:href="#hd"/>
<path d="M377.70 248.00v19.50" class="stroke"/>
<path class="fill"
	d="M415.00 272.00l57.10 0.00v-3.20l-57.10 -0.00"/>
<use x="418.80" y="251.00" xlink:href="#hd"/>
<path d="M415.30 251.00v20.00" class="stroke"/>
<use x="447.10" y="248.00" xlink:href="#hd"/>
<path d="M443.60 248.00v23.00" class="stroke"/>
<use x="475.30" y="251.00" xlink:href="#hd"/>
<path d="M471.80 251.00v20.00" class="stroke"/>
<path class="fill"
	d="M502.80 275.50l57.10 5.00v-3.20l-57.10 -5.00"/>
<use x="506.70" y="254.00" xlink:href="#hd"/>
<path d="M503.20 254.00v20.50" class="stroke"/>
<use x="534.90" y="257.00" xlink:href="#hd"/>
<path d="M531.40 257.00v20.00" class="stroke"/>
<use x="563.10" y="260.00" xlink:href="#hd"/>
<path d="M559.60 260.00v19.50" class="stroke"/>
<use x="600.80" y="263.00" xlink:href="#hd"/>
<circle class="fill" cx="608.50" cy="260.00" r="1.2"/>
<path d="M604.30 263.00v-21.00" class="stroke"/>
<use x="651.20" y="263.00" xlink:href="#hd"/>
<circle class="fill" cx="658.90" cy="260.00" r="1.2"/>
<path d="M654.70 263.00v-21.00" class="stroke"/>
</g>
</svg>
