<?xml version="1.0" standalone="no"?>
<!DOCTYPE svg PUBLIC "-//W3C//DTD SVG 1.1//EN"
	"http://www.w3.org/Graphics/SVG/1.1/DTD/svg11.dtd">
<svg xmlns="http://www.w3.org/2000/svg" version="1.1"
	xmlns:xlink="http://www.w3.org/1999/xlink"
	color="black"
	width="701.60px" height="246.00px">
<style type="text/css">
.fill {fill: currentColor}
.stroke {stroke: currentColor; fill: none}
text{white-space: pre}
</style>
<title>/mnt/ed617834-7c4b-4156-8731-6c17b22f12c7/tims_code/sphinx-tunes/source/ (1) tune 1</title>
<!-- Creator: abcm2ps-8.14.6 -->
<!-- CreationDate: Aug  4, 2021 07:54 -->
<!-- CommandLine: -g '/mnt/ed617834-7c4b-4156-8731-6c17b22f12c7/tims_code/sphinx-tunes/source/_abcfiles/_House of the Rising Sun.abc' -O '/mnt/ed617834-7c4b-4156-8731-6c17b22f12c7/tims_code/sphinx-tunes/source/_abcfiles/House of the Rising Sun.svg' -->
<g stroke-width="0.70" style="font:italic 14.00px Times">
<text x="691.60" y="20.00" text-anchor="end">Trad/Arr as Jig - The Animals</text>
</g>
<g stroke-width="0.70" style="font:italic 14.00px Times">
<path class="stroke" stroke-width="1"
	d="M215.90 73.00v-24.00"/>
<path class="stroke" stroke-width="1"
	d="M374.40 73.00v-24.00"/>
<path class="stroke" stroke-width="1"
	d="M533.00 73.00v-24.00"/>
<path class="stroke" stroke-width="1"
	d="M691.60 73.00v-24.00"/>
<path d="m10.00 73.00
	h681.60
	M10.00 67.00
	h681.60
	M10.00 61.00
	h681.60
	M10.00 55.00
	h681.60
	M10.00 49.00
	h681.60
	" class="stroke"/>
<defs>
<path id="utclef" class="fill" d="m-50 -90
	c-72 -41 -72 -158 52 -188
	150 -10 220 188 90 256
	-114 52 -275 0 -293 -136
	-15 -181 93 -229 220 -334
	88 -87 79 -133 62 -210
	-51 33 -94 105 -89 186
	17 267 36 374 49 574
	6 96 -19 134 -77 135
	-80 1 -126 -93 -61 -133
	85 -41 133 101 31 105
	23 17 92 37 90 -92
	-10 -223 -39 -342 -50 -617
	0 -90 0 -162 96 -232
	56 72 63 230 22 289
	-74 106 -257 168 -255 316
	9 153 148 185 252 133
	86 -65 29 -192 -80 -176
	-71 12 -105 67 -59 124"/>
<use id="tclef" transform="translate(0,6) scale(0.045)"
	xlink:href="#utclef"/>
</defs>
<use x="22.00" y="67.00" xlink:href="#tclef"/>
<defs>
<path id="usharp" class="fill" d="
	m136 -702
	v890
	h32
	v-890
	m128 840
	h32
	v-888
	h-32
	m-232 286
	v116
	l338 -96
	v-116
	m-338 442
	v116
	l338 -98
	v-114"/>
<use id="sh0" transform="translate(-4,5) scale(0.018)"
	xlink:href="#usharp"/>
</defs>
<use x="37.00" y="49.00" xlink:href="#sh0"/>
<g style="font:bold 16px serif"
	transform="translate(53.00,72.50) scale(1.2,1)">
	<text text-anchor="middle">8</text>
	<text y="-12" text-anchor="middle">6</text>
</g>
<path class="fill"
	d="M67.20 92.30l49.90 -9.90v-3.20l-49.90 9.90"/>
<defs>
<ellipse id="hd" rx="4.1" ry="2.9"
	transform="rotate(-20)" class="fill"/>
</defs>
<use x="71.00" y="73.00" xlink:href="#hd"/>
<path d="M67.50 73.00v18.20" class="stroke"/>
<use x="95.60" y="52.00" xlink:href="#hd"/>
<path d="M92.10 52.00v34.30" class="stroke"/>
<use x="120.20" y="46.00" xlink:href="#hd"/>
<path d="M116.70 46.00v35.40" class="stroke"/>
<path class="fill"
	d="M143.70 63.10l49.90 8.20v-3.20l-49.90 -8.20"/>
<defs>
<path id="hl" class="stroke" d="m-6 0h12"/>
</defs>
<use x="147.50" y="43.00" xlink:href="#hl"/>
<use x="147.50" y="40.00" xlink:href="#hd"/>
<path d="M144.00 40.00v22.10" class="stroke"/>
<use x="172.10" y="46.00" xlink:href="#hd"/>
<path d="M168.60 46.00v20.20" class="stroke"/>
<use x="196.70" y="52.00" xlink:href="#hd"/>
<path d="M193.20 52.00v18.20" class="stroke"/>
<path class="fill"
	d="M225.70 86.30l49.90 -8.40v-3.20l-49.90 8.40"/>
<use x="229.60" y="67.00" xlink:href="#hd"/>
<path d="M226.10 67.00v18.20" class="stroke"/>
<use x="254.20" y="55.00" xlink:href="#hd"/>
<path d="M250.70 55.00v26.00" class="stroke"/>
<use x="278.80" y="46.00" xlink:href="#hd"/>
<path d="M275.30 46.00v30.90" class="stroke"/>
<path class="fill"
	d="M302.20 67.90l49.90 6.70v-3.20l-49.90 -6.70"/>
<use x="306.10" y="43.00" xlink:href="#hl"/>
<use x="306.10" y="40.00" xlink:href="#hd"/>
<path d="M302.60 40.00v26.90" class="stroke"/>
<use x="330.70" y="52.00" xlink:href="#hd"/>
<path d="M327.20 52.00v18.20" class="stroke"/>
<use x="355.30" y="55.00" xlink:href="#hd"/>
<path d="M351.80 55.00v18.50" class="stroke"/>
<path class="fill"
	d="M384.30 83.30l49.90 -8.40v-3.20l-49.90 8.40"/>
<use x="388.10" y="64.00" xlink:href="#hd"/>
<path d="M384.60 64.00v18.20" class="stroke"/>
<use x="412.70" y="52.00" xlink:href="#hd"/>
<path d="M409.20 52.00v26.00" class="stroke"/>
<use x="437.30" y="43.00" xlink:href="#hl"/>
<use x="437.30" y="43.00" xlink:href="#hd"/>
<path d="M433.80 43.00v30.90" class="stroke"/>
<path class="fill"
	d="M460.80 65.60l49.90 5.60v-3.20l-49.90 -5.60"/>
<use x="464.70" y="43.00" xlink:href="#hl"/>
<use x="464.70" y="37.00" xlink:href="#hl"/>
<use x="464.70" y="37.00" xlink:href="#hd"/>
<use x="455.70" y="37.00" xlink:href="#sh0"/>
<path d="M461.20 37.00v27.60" class="stroke"/>
<use x="489.30" y="43.00" xlink:href="#hl"/>
<use x="489.30" y="43.00" xlink:href="#hd"/>
<path d="M485.80 43.00v24.40" class="stroke"/>
<use x="513.90" y="52.00" xlink:href="#hd"/>
<path d="M510.40 52.00v18.20" class="stroke"/>
<path class="fill"
	d="M542.90 77.30l49.90 -8.20v-3.20l-49.90 8.20"/>
<use x="546.70" y="58.00" xlink:href="#hd"/>
<path d="M543.20 58.00v18.20" class="stroke"/>
<use x="571.30" y="52.00" xlink:href="#hd"/>
<path d="M567.80 52.00v20.20" class="stroke"/>
<use x="595.90" y="46.00" xlink:href="#hd"/>
<path d="M592.40 46.00v22.10" class="stroke"/>
<path class="fill"
	d="M619.40 63.10l49.90 8.20v-3.20l-49.90 -8.20"/>
<use x="623.30" y="43.00" xlink:href="#hl"/>
<use x="623.30" y="37.00" xlink:href="#hl"/>
<use x="623.30" y="37.00" xlink:href="#hd"/>
<path d="M619.80 37.00v25.10" class="stroke"/>
<use x="647.80" y="46.00" xlink:href="#hd"/>
<path d="M644.30 46.00v20.20" class="stroke"/>
<use x="672.40" y="52.00" xlink:href="#hd"/>
<path d="M668.90 52.00v18.20" class="stroke"/>
</g>
<g stroke-width="0.70" style="font:italic 14.00px Times">
<path class="stroke" stroke-width="1"
	d="M213.00 148.00v-24.00"/>
<path class="stroke" stroke-width="1"
	d="M371.60 148.00v-24.00"/>
<path class="stroke" stroke-width="1"
	d="M530.20 148.00v-24.00"/>
<path class="stroke" stroke-width="3"
	d="M690.10 148.00v-24.00"/>
<path class="stroke" stroke-width="1"
	d="M685.60 148.00v-24.00"/>
<defs>
<g id="rdots" class="fill">
	<circle cx="0" cy="-9" r="1.2"/>
	<circle cx="0" cy="-15" r="1.2"/>
</g>
</defs>
<use x="681.60" y="148.00" xlink:href="#rdots"/>
<path d="m10.00 148.00
	h681.60
	M10.00 142.00
	h681.60
	M10.00 136.00
	h681.60
	M10.00 130.00
	h681.60
	M10.00 124.00
	h681.60
	" class="stroke"/>
</g>
<g stroke-width="0.70" style="font:13.00px Times">
<text x="58.50" y="109.40">1</text>
<path class="stroke"
	d="M54.50 98.00m0 20v-20h629.10v20"/>
<use x="22.00" y="142.00" xlink:href="#tclef"/>
<use x="37.00" y="124.00" xlink:href="#sh0"/>
<path class="fill"
	d="M64.40 167.30l49.90 -9.90v-3.20l-49.90 9.90"/>
<use x="68.20" y="148.00" xlink:href="#hd"/>
<path d="M64.70 148.00v18.20" class="stroke"/>
<use x="92.80" y="127.00" xlink:href="#hd"/>
<path d="M89.30 127.00v34.30" class="stroke"/>
<use x="117.40" y="121.00" xlink:href="#hd"/>
<path d="M113.90 121.00v35.40" class="stroke"/>
<path class="fill"
	d="M140.90 138.10l49.90 8.20v-3.20l-49.90 -8.20"/>
<use x="144.70" y="118.00" xlink:href="#hl"/>
<use x="144.70" y="115.00" xlink:href="#hd"/>
<path d="M141.20 115.00v22.10" class="stroke"/>
<use x="169.30" y="121.00" xlink:href="#hd"/>
<path d="M165.80 121.00v20.20" class="stroke"/>
<use x="193.90" y="127.00" xlink:href="#hd"/>
<path d="M190.40 127.00v18.20" class="stroke"/>
<path class="fill"
	d="M222.90 161.30l49.90 -8.40v-3.20l-49.90 8.40"/>
<use x="226.70" y="142.00" xlink:href="#hd"/>
<path d="M223.20 142.00v18.20" class="stroke"/>
<use x="251.30" y="130.00" xlink:href="#hd"/>
<path d="M247.80 130.00v26.00" class="stroke"/>
<use x="275.90" y="121.00" xlink:href="#hd"/>
<path d="M272.40 121.00v30.90" class="stroke"/>
<path class="fill"
	d="M299.40 142.90l49.90 6.70v-3.20l-49.90 -6.70"/>
<use x="303.20" y="118.00" xlink:href="#hl"/>
<use x="303.20" y="115.00" xlink:href="#hd"/>
<path d="M299.70 115.00v26.90" class="stroke"/>
<use x="327.80" y="127.00" xlink:href="#hd"/>
<path d="M324.30 127.00v18.20" class="stroke"/>
<use x="352.40" y="130.00" xlink:href="#hd"/>
<path d="M348.90 130.00v18.50" class="stroke"/>
<path class="fill"
	d="M381.40 155.30l49.90 -8.20v-3.20l-49.90 8.20"/>
<use x="385.30" y="136.00" xlink:href="#hd"/>
<path d="M381.80 136.00v18.20" class="stroke"/>
<use x="409.90" y="130.00" xlink:href="#hd"/>
<use x="400.90" y="130.00" xlink:href="#sh0"/>
<path d="M406.40 130.00v20.20" class="stroke"/>
<use x="434.50" y="124.00" xlink:href="#hd"/>
<path d="M431.00 124.00v22.10" class="stroke"/>
<path class="fill"
	d="M458.00 142.60l49.90 6.70v-3.20l-49.90 -6.70"/>
<use x="461.80" y="118.00" xlink:href="#hl"/>
<use x="461.80" y="115.00" xlink:href="#hd"/>
<path d="M458.30 115.00v26.60" class="stroke"/>
<use x="486.40" y="124.00" xlink:href="#hd"/>
<path d="M482.90 124.00v20.90" class="stroke"/>
<use x="511.10" y="130.00" xlink:href="#hd"/>
<use x="502.10" y="130.00" xlink:href="#sh0"/>
<path d="M507.60 130.00v18.20" class="stroke"/>
<path class="fill"
	d="M540.10 155.30l49.90 -8.20v-3.20l-49.90 8.20"/>
<use x="543.90" y="136.00" xlink:href="#hd"/>
<path d="M540.40 136.00v18.20" class="stroke"/>
<use x="568.50" y="130.00" xlink:href="#hd"/>
<use x="559.50" y="130.00" xlink:href="#sh0"/>
<path d="M565.00 130.00v20.20" class="stroke"/>
<use x="593.10" y="124.00" xlink:href="#hd"/>
<path d="M589.60 124.00v22.10" class="stroke"/>
<path class="fill"
	d="M616.60 142.60l49.90 6.70v-3.20l-49.90 -6.70"/>
<use x="620.50" y="118.00" xlink:href="#hl"/>
<use x="620.50" y="115.00" xlink:href="#hd"/>
<path d="M617.00 115.00v26.60" class="stroke"/>
<use x="645.00" y="124.00" xlink:href="#hd"/>
<path d="M641.50 124.00v20.90" class="stroke"/>
<use x="669.70" y="130.00" xlink:href="#hd"/>
<use x="660.70" y="130.00" xlink:href="#sh0"/>
<path d="M666.20 130.00v18.20" class="stroke"/>
</g>
<g stroke-width="0.70" style="font:13.00px Times">
<path class="stroke" stroke-width="1"
	d="M235.60 223.00v-24.00"/>
<path class="stroke" stroke-width="1"
	d="M329.30 223.00v-24.00"/>
<path class="stroke" stroke-width="1"
	d="M510.50 223.00v-24.00"/>
<path class="stroke" stroke-width="1"
	d="M691.60 223.00v-24.00"/>
<path d="m10.00 223.00
	h681.60
	M10.00 217.00
	h681.60
	M10.00 211.00
	h681.60
	M10.00 205.00
	h681.60
	M10.00 199.00
	h681.60
	" class="stroke"/>
<text x="58.50" y="184.40">2</text>
<path class="stroke"
	d="M54.50 173.00m0 20v-20h637.10v20"/>
<use x="22.00" y="217.00" xlink:href="#tclef"/>
<use x="37.00" y="199.00" xlink:href="#sh0"/>
<path class="fill"
	d="M66.30 222.80l56.90 -3.20v-3.20l-56.90 3.20"/>
<use x="70.10" y="202.00" xlink:href="#hd"/>
<path d="M66.60 202.00v19.80" class="stroke"/>
<use x="98.20" y="202.00" xlink:href="#hd"/>
<path d="M94.70 202.00v18.20" class="stroke"/>
<use x="126.30" y="196.00" xlink:href="#hd"/>
<path d="M122.80 196.00v22.60" class="stroke"/>
<path class="fill"
	d="M153.70 212.70l56.90 8.50v-3.20l-56.90 -8.50"/>
<use x="157.60" y="193.00" xlink:href="#hl"/>
<use x="157.60" y="190.00" xlink:href="#hd"/>
<path d="M154.10 190.00v21.80" class="stroke"/>
<use x="185.70" y="196.00" xlink:href="#hd"/>
<path d="M182.20 196.00v20.00" class="stroke"/>
<use x="213.80" y="202.00" xlink:href="#hd"/>
<path d="M210.30 202.00v18.20" class="stroke"/>
<path class="fill"
	d="M247.40 230.30l56.90 -8.50v-3.20l-56.90 8.50"/>
<use x="251.30" y="211.00" xlink:href="#hd"/>
<path d="M247.80 211.00v18.20" class="stroke"/>
<use x="279.40" y="205.00" xlink:href="#hd"/>
<use x="270.40" y="205.00" xlink:href="#sh0"/>
<path d="M275.90 205.00v20.00" class="stroke"/>
<use x="307.50" y="199.00" xlink:href="#hd"/>
<path d="M304.00 199.00v21.80" class="stroke"/>
<path class="fill"
	d="M341.10 222.80l56.90 -3.20v-3.20l-56.90 3.20"/>
<use x="344.90" y="202.00" xlink:href="#hd"/>
<path d="M341.40 202.00v19.80" class="stroke"/>
<use x="373.00" y="202.00" xlink:href="#hd"/>
<path d="M369.50 202.00v18.20" class="stroke"/>
<use x="401.20" y="196.00" xlink:href="#hd"/>
<path d="M397.70 196.00v22.60" class="stroke"/>
<path class="fill"
	d="M428.50 212.70l56.90 8.50v-3.20l-56.90 -8.50"/>
<use x="432.40" y="193.00" xlink:href="#hl"/>
<use x="432.40" y="190.00" xlink:href="#hd"/>
<path d="M428.90 190.00v21.80" class="stroke"/>
<use x="460.50" y="196.00" xlink:href="#hd"/>
<path d="M457.00 196.00v20.00" class="stroke"/>
<use x="488.60" y="202.00" xlink:href="#hd"/>
<path d="M485.10 202.00v18.20" class="stroke"/>
<path class="fill"
	d="M522.20 222.80l56.90 -3.20v-3.20l-56.90 3.20"/>
<use x="526.10" y="202.00" xlink:href="#hd"/>
<path d="M522.60 202.00v19.80" class="stroke"/>
<use x="554.20" y="202.00" xlink:href="#hd"/>
<path d="M550.70 202.00v18.20" class="stroke"/>
<use x="582.30" y="196.00" xlink:href="#hd"/>
<path d="M578.80 196.00v22.60" class="stroke"/>
<path class="fill"
	d="M609.70 212.70l56.90 8.50v-3.20l-56.90 -8.50"/>
<use x="613.50" y="193.00" xlink:href="#hl"/>
<use x="613.50" y="190.00" xlink:href="#hd"/>
<path d="M610.00 190.00v21.80" class="stroke"/>
<use x="641.60" y="196.00" xlink:href="#hd"/>
<path d="M638.10 196.00v20.00" class="stroke"/>
<use x="669.70" y="202.00" xlink:href="#hd"/>
<path d="M666.20 202.00v18.20" class="stroke"/>
</g>
</svg>
