<?xml version="1.0" standalone="no"?>
<!DOCTYPE svg PUBLIC "-//W3C//DTD SVG 1.1//EN"
	"http://www.w3.org/Graphics/SVG/1.1/DTD/svg11.dtd">
<svg xmlns="http://www.w3.org/2000/svg" version="1.1"
	xmlns:xlink="http://www.w3.org/1999/xlink"
	color="black"
	width="701.60px" height="465.00px">
<style type="text/css">
.fill {fill: currentColor}
.stroke {stroke: currentColor; fill: none}
text{white-space: pre}
</style>
<title>/media/tim/Data1/tims_code/sphinx-tunes/source/_abcfiles/kempshott_hunt. (1) tune 1</title>
<!-- Creator: abcm2ps-8.14.6 -->
<!-- CreationDate: Jul 30, 2023 12:21 -->
<!-- CommandLine: -g /media/tim/Data1/tims_code/sphinx-tunes/source/_abcfiles/kempshott_hunt.abc -O /media/tim/Data1/tims_code/sphinx-tunes/source/_abcfiles/kempshott_hunt.svg -->
<g stroke-width="0.70">
<!-- title: Kempshott Hunt -->
</g>
<g stroke-width="0.70" style="font:20.00px Times">
<text x="350.80" y="22.00" text-anchor="middle">Kempshott Hunt</text>
</g>
<g stroke-width="0.70" style="font:20.00px Times">
<defs>
<g id="rdots" class="fill">
	<circle cx="0" cy="-9" r="1.2"/>
	<circle cx="0" cy="-15" r="1.2"/>
</g>
</defs>
<use x="81.50" y="86.00" xlink:href="#rdots"/>
<path class="stroke" stroke-width="1"
	d="M77.50 86.00v-24.00"/>
<path class="stroke" stroke-width="3"
	d="M73.00 86.00v-24.00"/>
<path class="stroke" stroke-width="1"
	d="M227.00 86.00v-24.00"/>
<path class="stroke" stroke-width="1"
	d="M395.80 86.00v-24.00"/>
<path class="stroke" stroke-width="1"
	d="M564.60 86.00v-24.00"/>
<path class="stroke" stroke-width="1"
	d="M691.60 86.00v-24.00"/>
<path d="m10.00 86.00
	h681.60
	M10.00 80.00
	h681.60
	M10.00 74.00
	h681.60
	M10.00 68.00
	h681.60
	M10.00 62.00
	h681.60
	" class="stroke"/>
</g>
<g stroke-width="0.70" style="font:12.00px Helvetica">
<text x="98.00" y="49.60">G</text>
<text x="581.00" y="49.60">F</text>
<text x="649.60" y="49.60">D</text>
<defs>
<path id="utclef" class="fill" d="m-50 -90
	c-72 -41 -72 -158 52 -188
	150 -10 220 188 90 256
	-114 52 -275 0 -293 -136
	-15 -181 93 -229 220 -334
	88 -87 79 -133 62 -210
	-51 33 -94 105 -89 186
	17 267 36 374 49 574
	6 96 -19 134 -77 135
	-80 1 -126 -93 -61 -133
	85 -41 133 101 31 105
	23 17 92 37 90 -92
	-10 -223 -39 -342 -50 -617
	0 -90 0 -162 96 -232
	56 72 63 230 22 289
	-74 106 -257 168 -255 316
	9 153 148 185 252 133
	86 -65 29 -192 -80 -176
	-71 12 -105 67 -59 124"/>
<use id="tclef" transform="translate(0,6) scale(0.045)"
	xlink:href="#utclef"/>
</defs>
<use x="22.00" y="80.00" xlink:href="#tclef"/>
<defs>
<path id="usharp" class="fill" d="
	m136 -702
	v890
	h32
	v-890
	m128 840
	h32
	v-888
	h-32
	m-232 286
	v116
	l338 -96
	v-116
	m-338 442
	v116
	l338 -98
	v-114"/>
<use id="sh0" transform="translate(-4,5) scale(0.018)"
	xlink:href="#usharp"/>
</defs>
<use x="37.00" y="62.00" xlink:href="#sh0"/>
<g style="font:bold 16px serif"
	transform="translate(53.00,85.50) scale(1.2,1)">
	<text text-anchor="middle">4</text>
	<text y="-12" text-anchor="middle">2</text>
</g>
<defs>
<ellipse id="hd" rx="4.1" ry="2.9"
	transform="rotate(-20)" class="fill"/>
</defs>
<use x="101.80" y="68.00" xlink:href="#hd"/>
<path d="M98.30 68.00v21.00" class="stroke"/>
<path class="fill"
	d="M154.10 51.80l49.80 4.90v3.20l-49.80 -4.90"/>
<path class="fill"
	d="M154.40 56.80l24.60 2.40v3.20l-24.60 -2.40"/>
<use x="150.90" y="74.00" xlink:href="#hd"/>
<path d="M154.40 74.00v-21.20" class="stroke"/>
<use x="175.50" y="77.00" xlink:href="#hd"/>
<path d="M179.00 77.00v-21.80" class="stroke"/>
<use x="200.00" y="80.00" xlink:href="#hd"/>
<path d="M203.50 80.00v-22.40" class="stroke"/>
<path class="fill"
	d="M249.50 51.80l49.80 4.90v3.20l-49.80 -4.90"/>
<path class="fill"
	d="M249.80 56.80l24.60 2.40v3.20l-24.60 -2.40"/>
<use x="246.30" y="74.00" xlink:href="#hd"/>
<path d="M249.80 74.00v-21.20" class="stroke"/>
<use x="270.90" y="77.00" xlink:href="#hd"/>
<path d="M274.40 77.00v-21.80" class="stroke"/>
<use x="295.50" y="80.00" xlink:href="#hd"/>
<path d="M299.00 80.00v-22.40" class="stroke"/>
<path class="fill"
	d="M330.20 94.30l35.40 -4.50v-3.20l-35.40 4.50"/>
<use x="334.10" y="74.00" xlink:href="#hd"/>
<path d="M330.60 74.00v19.20" class="stroke"/>
<use x="368.80" y="68.00" xlink:href="#hd"/>
<path d="M365.30 68.00v20.80" class="stroke"/>
<path class="fill"
	d="M418.30 51.80l49.80 4.90v3.20l-49.80 -4.90"/>
<path class="fill"
	d="M418.60 56.80l24.60 2.40v3.20l-24.60 -2.40"/>
<use x="415.10" y="74.00" xlink:href="#hd"/>
<path d="M418.60 74.00v-21.20" class="stroke"/>
<use x="439.70" y="77.00" xlink:href="#hd"/>
<path d="M443.20 77.00v-21.80" class="stroke"/>
<use x="464.20" y="80.00" xlink:href="#hd"/>
<path d="M467.70 80.00v-22.40" class="stroke"/>
<path class="fill"
	d="M499.00 94.30l35.40 -4.50v-3.20l-35.40 4.50"/>
<use x="502.80" y="74.00" xlink:href="#hd"/>
<path d="M499.30 74.00v19.20" class="stroke"/>
<use x="537.60" y="68.00" xlink:href="#hd"/>
<path d="M534.10 68.00v20.80" class="stroke"/>
<path class="fill"
	d="M580.10 92.70l35.40 4.50v-3.20l-35.40 -4.50"/>
<use x="583.90" y="71.00" xlink:href="#hd"/>
<path d="M580.40 71.00v20.80" class="stroke"/>
<use x="618.70" y="77.00" xlink:href="#hd"/>
<path d="M615.20 77.00v19.20" class="stroke"/>
<use x="653.40" y="77.00" xlink:href="#hd"/>
<path d="M656.90 77.00v-21.00" class="stroke"/>
</g>
<g stroke-width="0.70" style="font:12.00px Helvetica">
<path class="stroke" stroke-width="1"
	d="M219.60 156.00v-24.00"/>
<path class="stroke" stroke-width="1"
	d="M367.40 156.00v-24.00"/>
<path class="stroke" stroke-width="1"
	d="M541.90 156.00v-24.00"/>
<path class="stroke" stroke-width="3"
	d="M690.10 156.00v-24.00"/>
<path class="stroke" stroke-width="1"
	d="M685.60 156.00v-24.00"/>
<use x="681.60" y="156.00" xlink:href="#rdots"/>
<path d="m10.00 156.00
	h681.60
	M10.00 150.00
	h681.60
	M10.00 144.00
	h681.60
	M10.00 138.00
	h681.60
	M10.00 132.00
	h681.60
	" class="stroke"/>
<text x="237.60" y="122.60">G</text>
<text x="468.60" y="122.60">C</text>
<text x="559.90" y="122.60">D</text>
<text x="638.50" y="122.60">G</text>
<use x="22.00" y="150.00" xlink:href="#tclef"/>
<use x="37.00" y="132.00" xlink:href="#sh0"/>
<path class="fill"
	d="M51.20 164.30l39.90 -4.70v-3.20l-39.90 4.70"/>
<use x="55.00" y="144.00" xlink:href="#hd"/>
<path d="M51.50 144.00v19.30" class="stroke"/>
<use x="94.30" y="138.00" xlink:href="#hd"/>
<path d="M90.80 138.00v20.70" class="stroke"/>
<path class="fill"
	d="M136.70 121.80l56.20 5.00v3.20l-56.20 -5.00"/>
<path class="fill"
	d="M137.00 126.80l27.70 2.50v3.20l-27.70 -2.50"/>
<use x="133.50" y="144.00" xlink:href="#hd"/>
<path d="M137.00 144.00v-21.20" class="stroke"/>
<use x="161.30" y="147.00" xlink:href="#hd"/>
<path d="M164.80 147.00v-21.70" class="stroke"/>
<use x="189.00" y="150.00" xlink:href="#hd"/>
<path d="M192.50 150.00v-22.30" class="stroke"/>
<path class="fill"
	d="M237.50 164.30l39.90 -4.70v-3.20l-39.90 4.70"/>
<use x="241.40" y="144.00" xlink:href="#hd"/>
<path d="M237.90 144.00v19.30" class="stroke"/>
<use x="280.60" y="138.00" xlink:href="#hd"/>
<path d="M277.10 138.00v20.70" class="stroke"/>
<use x="324.30" y="138.00" xlink:href="#hd"/>
<path d="M320.80 138.00v21.00" class="stroke"/>
<path class="fill"
	d="M385.40 164.30l39.90 -4.70v-3.20l-39.90 4.70"/>
<use x="389.20" y="144.00" xlink:href="#hd"/>
<path d="M385.70 144.00v19.30" class="stroke"/>
<use x="428.50" y="138.00" xlink:href="#hd"/>
<path d="M425.00 138.00v20.70" class="stroke"/>
<path class="fill"
	d="M468.30 161.30l39.90 -4.70v-3.20l-39.90 4.70"/>
<use x="472.10" y="141.00" xlink:href="#hd"/>
<path d="M468.60 141.00v19.30" class="stroke"/>
<use x="511.40" y="135.00" xlink:href="#hd"/>
<path d="M507.90 135.00v20.70" class="stroke"/>
<path class="fill"
	d="M559.90 161.70l39.90 7.60v-3.20l-39.90 -7.60"/>
<use x="563.70" y="138.00" xlink:href="#hd"/>
<path d="M560.20 138.00v22.80" class="stroke"/>
<use x="603.00" y="150.00" xlink:href="#hd"/>
<path d="M599.50 150.00v18.20" class="stroke"/>
<use x="642.30" y="150.00" xlink:href="#hd"/>
<path d="M645.80 150.00v-21.00" class="stroke"/>
</g>
<g stroke-width="0.70" style="font:12.00px Helvetica">
<use x="61.50" y="229.00" xlink:href="#rdots"/>
<path class="stroke" stroke-width="1"
	d="M57.50 229.00v-24.00"/>
<path class="stroke" stroke-width="3"
	d="M53.00 229.00v-24.00"/>
<path class="stroke" stroke-width="1"
	d="M234.00 229.00v-24.00"/>
<path class="stroke" stroke-width="1"
	d="M391.00 229.00v-24.00"/>
<path class="stroke" stroke-width="1"
	d="M562.50 229.00v-24.00"/>
<path class="stroke" stroke-width="1"
	d="M691.60 229.00v-24.00"/>
<path d="m10.00 229.00
	h681.60
	M10.00 223.00
	h681.60
	M10.00 217.00
	h681.60
	M10.00 211.00
	h681.60
	M10.00 205.00
	h681.60
	" class="stroke"/>
<text x="78.30" y="190.60">G</text>
<text x="250.10" y="190.60">C</text>
<text x="324.40" y="190.60">D</text>
<text x="406.80" y="190.60">G</text>
<text x="579.20" y="190.60">F</text>
<use x="22.00" y="223.00" xlink:href="#tclef"/>
<use x="37.00" y="205.00" xlink:href="#sh0"/>
<path class="fill"
	d="M85.30 197.00l50.60 0.00v3.20l-50.60 -0.00"/>
<path class="fill"
	d="M85.60 202.00l25.00 0.00v3.20l-25.00 -0.00"/>
<use x="82.10" y="223.00" xlink:href="#hd"/>
<path d="M85.60 223.00v-25.00" class="stroke"/>
<use x="107.10" y="220.00" xlink:href="#hd"/>
<path d="M110.60 220.00v-22.00" class="stroke"/>
<use x="132.00" y="223.00" xlink:href="#hd"/>
<path d="M135.50 223.00v-25.00" class="stroke"/>
<path class="fill"
	d="M167.40 232.70l36.00 4.60v-3.20l-36.00 -4.60"/>
<use x="171.30" y="211.00" xlink:href="#hd"/>
<path d="M167.80 211.00v20.80" class="stroke"/>
<use x="206.60" y="217.00" xlink:href="#hd"/>
<path d="M203.10 217.00v19.20" class="stroke"/>
<path class="fill"
	d="M249.80 229.70l36.00 4.60v-3.20l-36.00 -4.60"/>
<use x="253.70" y="208.00" xlink:href="#hd"/>
<path d="M250.20 208.00v20.80" class="stroke"/>
<use x="289.00" y="214.00" xlink:href="#hd"/>
<path d="M285.50 214.00v19.20" class="stroke"/>
<path class="fill"
	d="M324.40 232.70l36.00 4.60v-3.20l-36.00 -4.60"/>
<use x="328.20" y="211.00" xlink:href="#hd"/>
<path d="M324.70 211.00v20.80" class="stroke"/>
<use x="363.50" y="217.00" xlink:href="#hd"/>
<path d="M360.00 217.00v19.20" class="stroke"/>
<path class="fill"
	d="M413.80 197.00l50.60 0.00v3.20l-50.60 -0.00"/>
<path class="fill"
	d="M414.10 202.00l25.00 0.00v3.20l-25.00 -0.00"/>
<use x="410.60" y="223.00" xlink:href="#hd"/>
<path d="M414.10 223.00v-25.00" class="stroke"/>
<use x="435.60" y="220.00" xlink:href="#hd"/>
<path d="M439.10 220.00v-22.00" class="stroke"/>
<use x="460.50" y="223.00" xlink:href="#hd"/>
<path d="M464.00 223.00v-25.00" class="stroke"/>
<path class="fill"
	d="M495.90 232.70l36.00 4.60v-3.20l-36.00 -4.60"/>
<use x="499.80" y="211.00" xlink:href="#hd"/>
<path d="M496.30 211.00v20.80" class="stroke"/>
<use x="535.10" y="217.00" xlink:href="#hd"/>
<path d="M531.60 217.00v19.20" class="stroke"/>
<path class="fill"
	d="M578.30 235.70l36.00 4.60v-3.20l-36.00 -4.60"/>
<use x="582.20" y="214.00" xlink:href="#hd"/>
<path d="M578.70 214.00v20.80" class="stroke"/>
<use x="617.50" y="220.00" xlink:href="#hd"/>
<path d="M614.00 220.00v19.20" class="stroke"/>
<use x="652.80" y="220.00" xlink:href="#hd"/>
<path d="M656.30 220.00v-21.00" class="stroke"/>
</g>
<g stroke-width="0.70" style="font:12.00px Helvetica">
<path class="stroke" stroke-width="1"
	d="M216.10 302.00v-24.00"/>
<path class="stroke" stroke-width="1"
	d="M382.50 302.00v-24.00"/>
<path class="stroke" stroke-width="1"
	d="M548.90 302.00v-24.00"/>
<path class="stroke" stroke-width="3"
	d="M690.10 302.00v-24.00"/>
<path class="stroke" stroke-width="1"
	d="M685.60 302.00v-24.00"/>
<use x="681.60" y="302.00" xlink:href="#rdots"/>
<path d="m10.00 302.00
	h681.60
	M10.00 296.00
	h681.60
	M10.00 290.00
	h681.60
	M10.00 284.00
	h681.60
	M10.00 278.00
	h681.60
	" class="stroke"/>
<text x="51.20" y="263.60">G</text>
<text x="233.40" y="263.60">C</text>
<text x="312.10" y="263.60">D</text>
<text x="399.50" y="263.60">G</text>
<text x="478.80" y="263.60">C</text>
<text x="565.90" y="263.60">D</text>
<text x="640.70" y="263.60">G</text>
<use x="22.00" y="296.00" xlink:href="#tclef"/>
<use x="37.00" y="278.00" xlink:href="#sh0"/>
<path class="fill"
	d="M58.20 270.00l53.60 0.00v3.20l-53.60 -0.00"/>
<path class="fill"
	d="M58.50 275.00l26.50 0.00v3.20l-26.50 -0.00"/>
<use x="55.00" y="296.00" xlink:href="#hd"/>
<path d="M58.50 296.00v-25.00" class="stroke"/>
<use x="81.50" y="293.00" xlink:href="#hd"/>
<path d="M85.00 293.00v-22.00" class="stroke"/>
<use x="107.90" y="296.00" xlink:href="#hd"/>
<path d="M111.40 296.00v-25.00" class="stroke"/>
<path class="fill"
	d="M145.70 305.70l38.10 4.60v-3.20l-38.10 -4.60"/>
<use x="149.50" y="284.00" xlink:href="#hd"/>
<path d="M146.00 284.00v20.70" class="stroke"/>
<use x="187.00" y="290.00" xlink:href="#hd"/>
<path d="M183.50 290.00v19.30" class="stroke"/>
<path class="fill"
	d="M233.00 302.70l38.10 4.60v-3.20l-38.10 -4.60"/>
<use x="236.90" y="281.00" xlink:href="#hd"/>
<path d="M233.40 281.00v20.70" class="stroke"/>
<use x="274.30" y="287.00" xlink:href="#hd"/>
<path d="M270.80 287.00v19.30" class="stroke"/>
<path class="fill"
	d="M312.10 305.70l38.10 4.60v-3.20l-38.10 -4.60"/>
<use x="315.90" y="284.00" xlink:href="#hd"/>
<path d="M312.40 284.00v20.70" class="stroke"/>
<use x="353.40" y="290.00" xlink:href="#hd"/>
<path d="M349.90 290.00v19.30" class="stroke"/>
<path class="fill"
	d="M399.40 310.30l38.10 -4.60v-3.20l-38.10 4.60"/>
<use x="403.30" y="290.00" xlink:href="#hd"/>
<path d="M399.80 290.00v19.30" class="stroke"/>
<use x="440.70" y="284.00" xlink:href="#hd"/>
<path d="M437.20 284.00v20.70" class="stroke"/>
<path class="fill"
	d="M478.50 307.30l38.10 -4.60v-3.20l-38.10 4.60"/>
<use x="482.30" y="287.00" xlink:href="#hd"/>
<path d="M478.80 287.00v19.30" class="stroke"/>
<use x="519.80" y="281.00" xlink:href="#hd"/>
<path d="M516.30 281.00v20.70" class="stroke"/>
<path class="fill"
	d="M565.80 307.80l38.10 7.40v-3.20l-38.10 -7.40"/>
<use x="569.70" y="284.00" xlink:href="#hd"/>
<path d="M566.20 284.00v22.90" class="stroke"/>
<use x="607.10" y="296.00" xlink:href="#hd"/>
<path d="M603.60 296.00v18.20" class="stroke"/>
<use x="644.60" y="296.00" xlink:href="#hd"/>
<path d="M648.10 296.00v-21.00" class="stroke"/>
</g>
<g stroke-width="0.70" style="font:12.00px Helvetica">
<use x="61.50" y="372.00" xlink:href="#rdots"/>
<path class="stroke" stroke-width="1"
	d="M57.50 372.00v-24.00"/>
<path class="stroke" stroke-width="3"
	d="M53.00 372.00v-24.00"/>
<path class="stroke" stroke-width="1"
	d="M223.30 372.00v-24.00"/>
<path class="stroke" stroke-width="1"
	d="M384.10 372.00v-24.00"/>
<path class="stroke" stroke-width="1"
	d="M545.00 372.00v-24.00"/>
<path class="stroke" stroke-width="1"
	d="M691.60 372.00v-24.00"/>
<path d="m10.00 372.00
	h681.60
	M10.00 366.00
	h681.60
	M10.00 360.00
	h681.60
	M10.00 354.00
	h681.60
	M10.00 348.00
	h681.60
	" class="stroke"/>
<text x="85.20" y="336.60">G</text>
<text x="469.80" y="336.60">D</text>
<text x="564.30" y="336.60">F</text>
<use x="22.00" y="366.00" xlink:href="#tclef"/>
<use x="37.00" y="348.00" xlink:href="#sh0"/>
<defs>
<path id="ghd" class="fill" d="m2.2 -1.5
	c-1.32 -2.31 -5.94 0.33 -4.62 2.64
	1.32 2.31 5.94 -0.33 4.62 -2.64"/>
</defs>
<use x="77.00" y="348.00" xlink:href="#ghd"/>
<path d="M79.30 348.00v-15.00" class="stroke"/>
<path class="fill"
	d="M79.30 333.00c0.6 3.4 5.6 3.8 3 10
	1.2 -4.4 -1.4 -7 -3 -7
"/>
<path class="stroke"
	d="M77.00 353.00c1.40 2.20 5.60 0.40 7.00 -3.00"/>
<use x="89.00" y="345.00" xlink:href="#hd"/>
<path d="M85.50 345.00v21.00" class="stroke"/>
<path class="fill"
	d="M148.20 375.70l40.80 4.70v-3.20l-40.80 -4.70"/>
<use x="152.00" y="354.00" xlink:href="#hd"/>
<path d="M148.50 354.00v20.70" class="stroke"/>
<use x="192.10" y="360.00" xlink:href="#hd"/>
<path d="M188.60 360.00v19.30" class="stroke"/>
<use x="237.80" y="348.00" xlink:href="#ghd"/>
<path d="M240.10 348.00v-15.00" class="stroke"/>
<path class="fill"
	d="M240.10 333.00c0.6 3.4 5.6 3.8 3 10
	1.2 -4.4 -1.4 -7 -3 -7
"/>
<path class="stroke"
	d="M237.80 353.00c1.40 2.20 5.60 0.40 7.00 -3.00"/>
<use x="249.80" y="345.00" xlink:href="#hd"/>
<path d="M246.30 345.00v21.00" class="stroke"/>
<path class="fill"
	d="M309.00 375.70l40.80 4.70v-3.20l-40.80 -4.70"/>
<use x="312.80" y="354.00" xlink:href="#hd"/>
<path d="M309.30 354.00v20.70" class="stroke"/>
<use x="352.90" y="360.00" xlink:href="#hd"/>
<path d="M349.40 360.00v19.30" class="stroke"/>
<use x="398.60" y="348.00" xlink:href="#ghd"/>
<path d="M400.90 348.00v-15.00" class="stroke"/>
<path class="fill"
	d="M400.90 333.00c0.6 3.4 5.6 3.8 3 10
	1.2 -4.4 -1.4 -7 -3 -7
"/>
<path class="stroke"
	d="M398.60 353.00c1.40 2.20 5.60 0.40 7.00 -3.00"/>
<use x="410.60" y="345.00" xlink:href="#hd"/>
<path d="M407.10 345.00v21.00" class="stroke"/>
<path class="fill"
	d="M469.80 375.70l40.80 4.70v-3.20l-40.80 -4.70"/>
<use x="473.70" y="354.00" xlink:href="#hd"/>
<path d="M470.20 354.00v20.70" class="stroke"/>
<use x="513.80" y="360.00" xlink:href="#hd"/>
<path d="M510.30 360.00v19.30" class="stroke"/>
<path class="fill"
	d="M563.40 378.70l40.80 4.70v-3.20l-40.80 -4.70"/>
<use x="567.30" y="357.00" xlink:href="#hd"/>
<path d="M563.80 357.00v20.70" class="stroke"/>
<use x="607.40" y="363.00" xlink:href="#hd"/>
<path d="M603.90 363.00v19.30" class="stroke"/>
<use x="647.50" y="363.00" xlink:href="#hd"/>
<path d="M651.00 363.00v-21.00" class="stroke"/>
</g>
<g stroke-width="0.70" style="font:12.00px Helvetica">
<path class="stroke" stroke-width="1"
	d="M199.40 442.00v-24.00"/>
<path class="stroke" stroke-width="1"
	d="M360.20 442.00v-24.00"/>
<path class="stroke" stroke-width="1"
	d="M538.60 442.00v-24.00"/>
<path class="stroke" stroke-width="3"
	d="M690.10 442.00v-24.00"/>
<path class="stroke" stroke-width="1"
	d="M685.60 442.00v-24.00"/>
<use x="681.60" y="442.00" xlink:href="#rdots"/>
<path d="m10.00 442.00
	h681.60
	M10.00 436.00
	h681.60
	M10.00 430.00
	h681.60
	M10.00 424.00
	h681.60
	M10.00 418.00
	h681.60
	" class="stroke"/>
<text x="61.20" y="406.60">G</text>
<text x="463.70" y="406.60">C</text>
<text x="557.10" y="406.60">D</text>
<text x="637.40" y="406.60">G</text>
<use x="22.00" y="436.00" xlink:href="#tclef"/>
<use x="37.00" y="418.00" xlink:href="#sh0"/>
<use x="53.00" y="418.00" xlink:href="#ghd"/>
<path d="M55.30 418.00v-15.00" class="stroke"/>
<path class="fill"
	d="M55.30 403.00c0.6 3.4 5.6 3.8 3 10
	1.2 -4.4 -1.4 -7 -3 -7
"/>
<path class="stroke"
	d="M53.00 423.00c1.40 2.20 5.60 0.40 7.00 -3.00"/>
<use x="65.00" y="415.00" xlink:href="#hd"/>
<path d="M61.50 415.00v21.00" class="stroke"/>
<path class="fill"
	d="M124.20 445.70l40.80 4.70v-3.20l-40.80 -4.70"/>
<use x="128.00" y="424.00" xlink:href="#hd"/>
<path d="M124.50 424.00v20.70" class="stroke"/>
<use x="168.20" y="430.00" xlink:href="#hd"/>
<path d="M164.70 430.00v19.30" class="stroke"/>
<use x="213.90" y="418.00" xlink:href="#ghd"/>
<path d="M216.20 418.00v-15.00" class="stroke"/>
<path class="fill"
	d="M216.20 403.00c0.6 3.4 5.6 3.8 3 10
	1.2 -4.4 -1.4 -7 -3 -7
"/>
<path class="stroke"
	d="M213.90 423.00c1.40 2.20 5.60 0.40 7.00 -3.00"/>
<use x="225.90" y="415.00" xlink:href="#hd"/>
<path d="M222.40 415.00v21.00" class="stroke"/>
<path class="fill"
	d="M285.10 445.70l40.80 4.70v-3.20l-40.80 -4.70"/>
<use x="288.90" y="424.00" xlink:href="#hd"/>
<path d="M285.40 424.00v20.70" class="stroke"/>
<use x="329.00" y="430.00" xlink:href="#hd"/>
<path d="M325.50 430.00v19.30" class="stroke"/>
<path class="fill"
	d="M378.70 450.30l40.80 -4.70v-3.20l-40.80 4.70"/>
<use x="382.50" y="430.00" xlink:href="#hd"/>
<path d="M379.00 430.00v19.30" class="stroke"/>
<use x="422.70" y="424.00" xlink:href="#hd"/>
<path d="M419.20 424.00v20.70" class="stroke"/>
<path class="fill"
	d="M463.40 447.30l40.80 -4.70v-3.20l-40.80 4.70"/>
<use x="467.30" y="427.00" xlink:href="#hd"/>
<path d="M463.80 427.00v19.30" class="stroke"/>
<use x="507.40" y="421.00" xlink:href="#hd"/>
<path d="M503.90 421.00v20.70" class="stroke"/>
<path class="fill"
	d="M557.10 447.60l40.80 7.60v-3.20l-40.80 -7.60"/>
<use x="560.90" y="424.00" xlink:href="#hd"/>
<path d="M557.40 424.00v22.70" class="stroke"/>
<use x="601.00" y="436.00" xlink:href="#hd"/>
<path d="M597.50 436.00v18.20" class="stroke"/>
<use x="641.20" y="436.00" xlink:href="#hd"/>
<path d="M644.70 436.00v-21.00" class="stroke"/>
</g>
</svg>
