<?xml version="1.0" standalone="no"?>
<!DOCTYPE svg PUBLIC "-//W3C//DTD SVG 1.1//EN"
	"http://www.w3.org/Graphics/SVG/1.1/DTD/svg11.dtd">
<svg xmlns="http://www.w3.org/2000/svg" version="1.1"
	xmlns:xlink="http://www.w3.org/1999/xlink"
	color="black"
	width="701.60px" height="192.00px">
<style type="text/css">
.fill {fill: currentColor}
.stroke {stroke: currentColor; fill: none}
text{white-space: pre}
</style>
<title>/media/tim/Data1/tims_code/sphinx-tunes/source/_abcfiles/King of the Moo (1) tune 1</title>
<!-- Creator: abcm2ps-8.14.6 -->
<!-- CreationDate: Jul 30, 2023 12:21 -->
<!-- CommandLine: -g '/media/tim/Data1/tims_code/sphinx-tunes/source/_abcfiles/King of the Moors.abc' -O '/media/tim/Data1/tims_code/sphinx-tunes/source/_abcfiles/King of the Moors.svg' -->
<g stroke-width="0.70">
<!-- title: King of the Moors -->
</g>
<g stroke-width="0.70" style="font:20.00px Times">
<text x="350.80" y="22.00" text-anchor="middle">King of the Moors</text>
</g>
<g stroke-width="0.70" style="font:italic 14.00px Times">
<text x="691.60" y="46.00" text-anchor="end">Jackie Tolliday-Bailey</text>
</g>
<g stroke-width="0.70" style="font:italic 14.00px Times">
<path class="stroke" stroke-width="1"
	d="M80.00 99.00v-24.00"/>
<path class="stroke" stroke-width="1"
	d="M156.30 99.00v-24.00"/>
<path class="stroke" stroke-width="1"
	d="M234.10 99.00v-24.00"/>
<path class="stroke" stroke-width="1"
	d="M310.30 99.00v-24.00"/>
<path class="stroke" stroke-width="1"
	d="M378.90 99.00v-24.00"/>
<path class="stroke" stroke-width="1"
	d="M394.90 99.00v-24.00"/>
<path class="stroke" stroke-width="1"
	d="M471.20 99.00v-24.00"/>
<path class="stroke" stroke-width="1"
	d="M546.00 99.00v-24.00"/>
<path class="stroke" stroke-width="1"
	d="M621.10 99.00v-24.00"/>
<path class="stroke" stroke-width="1"
	d="M691.60 99.00v-24.00"/>
<path d="m10.00 99.00
	h681.60
	M10.00 93.00
	h681.60
	M10.00 87.00
	h681.60
	M10.00 81.00
	h681.60
	M10.00 75.00
	h681.60
	" class="stroke"/>
<defs>
<path id="utclef" class="fill" d="m-50 -90
	c-72 -41 -72 -158 52 -188
	150 -10 220 188 90 256
	-114 52 -275 0 -293 -136
	-15 -181 93 -229 220 -334
	88 -87 79 -133 62 -210
	-51 33 -94 105 -89 186
	17 267 36 374 49 574
	6 96 -19 134 -77 135
	-80 1 -126 -93 -61 -133
	85 -41 133 101 31 105
	23 17 92 37 90 -92
	-10 -223 -39 -342 -50 -617
	0 -90 0 -162 96 -232
	56 72 63 230 22 289
	-74 106 -257 168 -255 316
	9 153 148 185 252 133
	86 -65 29 -192 -80 -176
	-71 12 -105 67 -59 124"/>
<use id="tclef" transform="translate(0,6) scale(0.045)"
	xlink:href="#utclef"/>
</defs>
<use x="22.00" y="93.00" xlink:href="#tclef"/>
<defs>
<path id="uflat" class="fill" d="
	m100 -746
	h32
	v734
	l-32 4
	m32 -332
	c46 -72 152 -90 208 -20
	100 110 -120 326 -208 348
	m0 -28
	c54 0 200 -206 130 -290
	-50 -60 -130 -4 -130 34"/>
<use id="ft0" transform="translate(-3.5,3.5) scale(0.018)"
	xlink:href="#uflat"/>
</defs>
<use x="37.00" y="87.00" xlink:href="#ft0"/>
<use x="42.50" y="78.00" xlink:href="#ft0"/>
<g style="font:bold 16px serif"
	transform="translate(58.50,98.50) scale(1.2,1)">
	<text text-anchor="middle">4</text>
	<text y="-12" text-anchor="middle">4</text>
</g>
<defs>
<ellipse id="hd" rx="4.1" ry="2.9"
	transform="rotate(-20)" class="fill"/>
</defs>
<use x="92.50" y="102.00" xlink:href="#hd"/>
<path d="M96.00 102.00v-21.00" class="stroke"/>
<defs>
<path id="hl" class="stroke" d="m-6 0h12"/>
</defs>
<use x="106.40" y="105.00" xlink:href="#hl"/>
<use x="106.40" y="111.00" xlink:href="#hl"/>
<use x="106.40" y="114.00" xlink:href="#hd"/>
<path d="M109.90 114.00v-27.00" class="stroke"/>
<path class="fill"
	d="M124.30 86.50l11.90 -2.10v3.20l-11.90 2.10"/>
<use x="121.10" y="105.00" xlink:href="#hl"/>
<use x="121.10" y="108.00" xlink:href="#hd"/>
<path d="M124.60 108.00v-20.50" class="stroke"/>
<use x="132.30" y="105.00" xlink:href="#hl"/>
<use x="132.30" y="105.00" xlink:href="#hd"/>
<path d="M135.80 105.00v-19.50" class="stroke"/>
<use x="143.50" y="102.00" xlink:href="#hd"/>
<path d="M147.00 102.00v-21.00" class="stroke"/>
<use x="168.80" y="105.00" xlink:href="#hl"/>
<use x="168.80" y="105.00" xlink:href="#hd"/>
<path d="M172.30 105.00v-21.00" class="stroke"/>
<use x="183.50" y="105.00" xlink:href="#hl"/>
<use x="183.50" y="108.00" xlink:href="#hd"/>
<path d="M187.00 108.00v-21.00" class="stroke"/>
<path class="fill"
	d="M201.30 86.80l11.90 0.00v3.20l-11.90 -0.00"/>
<use x="198.10" y="105.00" xlink:href="#hl"/>
<use x="198.10" y="111.00" xlink:href="#hl"/>
<use x="198.10" y="111.00" xlink:href="#hd"/>
<path d="M201.60 111.00v-23.20" class="stroke"/>
<use x="209.30" y="105.00" xlink:href="#hl"/>
<use x="209.30" y="108.00" xlink:href="#hd"/>
<path d="M212.80 108.00v-20.20" class="stroke"/>
<use x="221.20" y="105.00" xlink:href="#hl"/>
<use x="221.20" y="105.00" xlink:href="#hd"/>
<path d="M224.70 105.00v-21.00" class="stroke"/>
<use x="246.60" y="102.00" xlink:href="#hd"/>
<path d="M250.10 102.00v-21.00" class="stroke"/>
<use x="260.50" y="105.00" xlink:href="#hl"/>
<use x="260.50" y="111.00" xlink:href="#hl"/>
<use x="260.50" y="114.00" xlink:href="#hd"/>
<path d="M264.00 114.00v-27.00" class="stroke"/>
<path class="fill"
	d="M278.30 86.50l11.90 -2.10v3.20l-11.90 2.10"/>
<use x="275.20" y="105.00" xlink:href="#hl"/>
<use x="275.20" y="108.00" xlink:href="#hd"/>
<path d="M278.70 108.00v-20.50" class="stroke"/>
<use x="286.40" y="105.00" xlink:href="#hl"/>
<use x="286.40" y="105.00" xlink:href="#hd"/>
<path d="M289.90 105.00v-19.50" class="stroke"/>
<use x="297.50" y="102.00" xlink:href="#hd"/>
<path d="M301.00 102.00v-21.00" class="stroke"/>
<use x="322.80" y="105.00" xlink:href="#hl"/>
<use x="322.80" y="105.00" xlink:href="#hd"/>
<path d="M326.30 105.00v-21.00" class="stroke"/>
<use x="337.50" y="105.00" xlink:href="#hl"/>
<use x="337.50" y="108.00" xlink:href="#hd"/>
<path d="M341.00 108.00v-21.00" class="stroke"/>
<use x="352.20" y="105.00" xlink:href="#hl"/>
<use x="352.20" y="111.00" xlink:href="#hl"/>
<use x="352.20" y="111.00" xlink:href="#hd"/>
<path d="M355.70 111.00v-24.00" class="stroke"/>
<use x="366.10" y="102.00" xlink:href="#hd"/>
<path d="M369.60 102.00v-21.00" class="stroke"/>
<use x="407.40" y="102.00" xlink:href="#hd"/>
<path d="M410.90 102.00v-21.00" class="stroke"/>
<use x="421.40" y="105.00" xlink:href="#hl"/>
<use x="421.40" y="111.00" xlink:href="#hl"/>
<use x="421.40" y="114.00" xlink:href="#hd"/>
<path d="M424.90 114.00v-27.00" class="stroke"/>
<path class="fill"
	d="M439.20 86.50l11.90 -2.10v3.20l-11.90 2.10"/>
<use x="436.00" y="105.00" xlink:href="#hl"/>
<use x="436.00" y="108.00" xlink:href="#hd"/>
<path d="M439.50 108.00v-20.50" class="stroke"/>
<use x="447.20" y="105.00" xlink:href="#hl"/>
<use x="447.20" y="105.00" xlink:href="#hd"/>
<path d="M450.70 105.00v-19.50" class="stroke"/>
<use x="458.40" y="102.00" xlink:href="#hd"/>
<path d="M461.90 102.00v-21.00" class="stroke"/>
<use x="483.70" y="105.00" xlink:href="#hl"/>
<use x="483.70" y="105.00" xlink:href="#hd"/>
<path d="M487.20 105.00v-21.00" class="stroke"/>
<use x="497.60" y="102.00" xlink:href="#hd"/>
<path d="M501.10 102.00v-21.00" class="stroke"/>
<path class="fill"
	d="M514.70 78.50l11.20 2.00v3.20l-11.20 -2.00"/>
<use x="511.60" y="99.00" xlink:href="#hd"/>
<path d="M515.10 99.00v-19.50" class="stroke"/>
<use x="522.10" y="102.00" xlink:href="#hd"/>
<path d="M525.60 102.00v-20.50" class="stroke"/>
<use x="533.20" y="105.00" xlink:href="#hl"/>
<use x="533.20" y="105.00" xlink:href="#hd"/>
<path d="M536.70 105.00v-21.00" class="stroke"/>
<use x="558.50" y="81.00" xlink:href="#hd"/>
<path d="M555.00 81.00v21.00" class="stroke"/>
<use x="571.50" y="93.00" xlink:href="#hd"/>
<path d="M575.00 93.00v-21.00" class="stroke"/>
<path class="fill"
	d="M582.80 107.50l11.20 -2.00v-3.20l-11.20 2.00"/>
<use x="586.70" y="87.00" xlink:href="#hd"/>
<path d="M583.20 87.00v19.50" class="stroke"/>
<use x="597.10" y="84.00" xlink:href="#hd"/>
<path d="M593.60 84.00v20.50" class="stroke"/>
<use x="608.30" y="81.00" xlink:href="#hd"/>
<path d="M604.80 81.00v21.00" class="stroke"/>
<path class="fill"
	d="M629.80 109.20l32.10 0.00v-3.20l-32.10 -0.00"/>
<use x="633.60" y="84.00" xlink:href="#hd"/>
<path d="M630.10 84.00v24.20" class="stroke"/>
<use x="644.10" y="87.00" xlink:href="#hd"/>
<path d="M640.60 87.00v21.20" class="stroke"/>
<use x="654.60" y="90.00" xlink:href="#hd"/>
<path d="M651.10 90.00v18.20" class="stroke"/>
<use x="665.10" y="87.00" xlink:href="#hd"/>
<path d="M661.60 87.00v21.20" class="stroke"/>
<defs>
<path id="Hd" class="fill" d="m3 -1.6
	c-1 -1.8 -7 1.4 -6 3.2
	1 1.8 7 -1.4 6 -3.2
	m0.5 -0.3
	c2 3.8 -5 7.6 -7 3.8
	-2 -3.8 5 -7.6 7 -3.8"/>
</defs>
<use x="675.80" y="93.00" xlink:href="#Hd"/>
<path d="M679.30 93.00v-21.00" class="stroke"/>
</g>
<g stroke-width="0.70" style="font:italic 14.00px Times">
<path class="stroke" stroke-width="1"
	d="M236.70 169.00v-24.00"/>
<path d="m10.00 169.00
	h280.90
	M10.00 163.00
	h280.90
	M10.00 157.00
	h280.90
	M10.00 151.00
	h280.90
	M10.00 145.00
	h280.90
	" class="stroke"/>
<use x="22.00" y="163.00" xlink:href="#tclef"/>
<use x="37.00" y="157.00" xlink:href="#ft0"/>
<use x="42.50" y="148.00" xlink:href="#ft0"/>
<use x="60.50" y="151.00" xlink:href="#hd"/>
<path d="M57.00 151.00v21.00" class="stroke"/>
<use x="100.50" y="142.00" xlink:href="#hd"/>
<path d="M97.00 142.00v21.00" class="stroke"/>
<path class="fill"
	d="M136.70 163.20l77.10 0.00v-3.20l-77.10 -0.00"/>
<use x="140.50" y="142.00" xlink:href="#hd"/>
<path d="M137.00 142.00v20.20" class="stroke"/>
<use x="166.00" y="145.00" xlink:href="#hd"/>
<path d="M162.50 145.00v17.20" class="stroke"/>
<use x="191.40" y="142.00" xlink:href="#hd"/>
<path d="M187.90 142.00v20.20" class="stroke"/>
<use x="216.90" y="139.00" xlink:href="#hl"/>
<use x="216.90" y="139.00" xlink:href="#hd"/>
<path d="M213.40 139.00v23.20" class="stroke"/>
<use x="250.90" y="139.00" xlink:href="#hl"/>
<use x="250.90" y="136.00" xlink:href="#hd"/>
<path d="M247.40 136.00v21.00" class="stroke"/>
</g>
</svg>
