<?xml version="1.0" standalone="no"?>
<!DOCTYPE svg PUBLIC "-//W3C//DTD SVG 1.1//EN"
	"http://www.w3.org/Graphics/SVG/1.1/DTD/svg11.dtd">
<svg xmlns="http://www.w3.org/2000/svg" version="1.1"
	xmlns:xlink="http://www.w3.org/1999/xlink"
	color="black"
	width="701.60px" height="432.00px">
<style type="text/css">
.fill {fill: currentColor}
.stroke {stroke: currentColor; fill: none}
text{white-space: pre}
</style>
<title>/mnt/ed617834-7c4b-4156-8731-6c17b22f12c7/tims_code/sphinx-tunes/source/ (1) tune 1</title>
<!-- Creator: abcm2ps-8.14.6 -->
<!-- CreationDate: Aug  1, 2021 16:39 -->
<!-- CommandLine: -g '/mnt/ed617834-7c4b-4156-8731-6c17b22f12c7/tims_code/sphinx-tunes/source/_abcfiles/_King of the Faries.abc' -O '/mnt/ed617834-7c4b-4156-8731-6c17b22f12c7/tims_code/sphinx-tunes/source/_abcfiles/King of the Faries.svg' -->
<g stroke-width="0.70">
<path class="stroke" stroke-width="1"
	d="M234.00 59.00v-24.00"/>
<path class="stroke" stroke-width="1"
	d="M380.00 59.00v-24.00"/>
<path class="stroke" stroke-width="1"
	d="M543.10 59.00v-24.00"/>
<path class="stroke" stroke-width="1"
	d="M691.60 59.00v-24.00"/>
<path d="m10.00 59.00
	h681.60
	M10.00 53.00
	h681.60
	M10.00 47.00
	h681.60
	M10.00 41.00
	h681.60
	M10.00 35.00
	h681.60
	" class="stroke"/>
<text style="font:italic 12px serif"
	x="516.10" y="29.30" text-anchor="middle">3</text>
<defs>
<path id="utclef" class="fill" d="m-50 -90
	c-72 -41 -72 -158 52 -188
	150 -10 220 188 90 256
	-114 52 -275 0 -293 -136
	-15 -181 93 -229 220 -334
	88 -87 79 -133 62 -210
	-51 33 -94 105 -89 186
	17 267 36 374 49 574
	6 96 -19 134 -77 135
	-80 1 -126 -93 -61 -133
	85 -41 133 101 31 105
	23 17 92 37 90 -92
	-10 -223 -39 -342 -50 -617
	0 -90 0 -162 96 -232
	56 72 63 230 22 289
	-74 106 -257 168 -255 316
	9 153 148 185 252 133
	86 -65 29 -192 -80 -176
	-71 12 -105 67 -59 124"/>
<use id="tclef" transform="translate(0,6) scale(0.045)"
	xlink:href="#utclef"/>
</defs>
<use x="22.00" y="53.00" xlink:href="#tclef"/>
<defs>
<path id="usharp" class="fill" d="
	m136 -702
	v890
	h32
	v-890
	m128 840
	h32
	v-888
	h-32
	m-232 286
	v116
	l338 -96
	v-116
	m-338 442
	v116
	l338 -98
	v-114"/>
<use id="sh0" transform="translate(-4,5) scale(0.018)"
	xlink:href="#usharp"/>
</defs>
<use x="37.00" y="35.00" xlink:href="#sh0"/>
<use x="42.50" y="44.00" xlink:href="#sh0"/>
<g style="font:bold 16px serif"
	transform="translate(58.50,58.50) scale(1.2,1)">
	<text text-anchor="middle">4</text>
	<text y="-12" text-anchor="middle">4</text>
</g>
<path class="fill"
	d="M79.70 37.30l24.60 2.50v3.20l-24.60 -2.50"/>
<path class="fill"
	d="M96.90 44.00l7.00 0.70v3.20l-7.00 -0.70"/>
<defs>
<ellipse id="hd" rx="4.1" ry="2.9"
	transform="rotate(-20)" class="fill"/>
</defs>
<use x="76.50" y="59.00" xlink:href="#hd"/>
<circle class="fill" cx="84.20" cy="56.00" r="1.2"/>
<path d="M80.00 59.00v-20.70" class="stroke"/>
<use x="100.40" y="62.00" xlink:href="#hd"/>
<path d="M103.90 62.00v-21.30" class="stroke"/>
<path class="fill"
	d="M120.00 36.20l24.60 -2.50v3.20l-24.60 2.50"/>
<path class="fill"
	d="M137.30 39.50l7.00 -0.70v3.20l-7.00 0.70"/>
<use x="116.80" y="59.00" xlink:href="#hd"/>
<circle class="fill" cx="124.50" cy="56.00" r="1.2"/>
<path d="M120.30 59.00v-21.80" class="stroke"/>
<use x="140.80" y="56.00" xlink:href="#hd"/>
<path d="M144.30 56.00v-21.20" class="stroke"/>
<path class="fill"
	d="M160.30 31.30l24.60 2.50v3.20l-24.60 -2.50"/>
<path class="fill"
	d="M177.60 38.00l7.00 0.70v3.20l-7.00 -0.70"/>
<use x="157.20" y="53.00" xlink:href="#hd"/>
<circle class="fill" cx="164.90" cy="50.00" r="1.2"/>
<path d="M160.70 53.00v-20.70" class="stroke"/>
<use x="181.10" y="56.00" xlink:href="#hd"/>
<path d="M184.60 56.00v-21.30" class="stroke"/>
<path class="fill"
	d="M200.70 30.20l24.60 -2.50v3.20l-24.60 2.50"/>
<path class="fill"
	d="M218.00 33.50l7.00 -0.70v3.20l-7.00 0.70"/>
<use x="197.50" y="53.00" xlink:href="#hd"/>
<circle class="fill" cx="205.20" cy="50.00" r="1.2"/>
<path d="M201.00 53.00v-21.80" class="stroke"/>
<use x="221.50" y="50.00" xlink:href="#hd"/>
<path d="M225.00 50.00v-21.20" class="stroke"/>
<use x="246.50" y="47.00" xlink:href="#hd"/>
<path d="M250.00 47.00v-21.00" class="stroke"/>
<use x="278.80" y="47.00" xlink:href="#hd"/>
<path d="M282.30 47.00v-21.00" class="stroke"/>
<use x="311.20" y="53.00" xlink:href="#hd"/>
<path d="M314.70 53.00v-21.00" class="stroke"/>
<path class="fill"
	d="M346.70 30.20l24.60 -2.50v3.20l-24.60 2.50"/>
<path class="fill"
	d="M364.00 33.50l7.00 -0.70v3.20l-7.00 0.70"/>
<use x="343.50" y="53.00" xlink:href="#hd"/>
<circle class="fill" cx="351.20" cy="50.00" r="1.2"/>
<path d="M347.00 53.00v-21.80" class="stroke"/>
<use x="367.50" y="50.00" xlink:href="#hd"/>
<path d="M371.00 50.00v-21.20" class="stroke"/>
<use x="392.50" y="47.00" xlink:href="#hd"/>
<path d="M396.00 47.00v-21.00" class="stroke"/>
<use x="424.80" y="59.00" xlink:href="#hd"/>
<path d="M428.30 59.00v-21.00" class="stroke"/>
<path class="fill"
	d="M460.40 36.20l24.60 -2.50v3.20l-24.60 2.50"/>
<path class="fill"
	d="M477.60 39.50l7.00 -0.70v3.20l-7.00 0.70"/>
<use x="457.20" y="59.00" xlink:href="#hd"/>
<circle class="fill" cx="464.90" cy="56.00" r="1.2"/>
<path d="M460.70 59.00v-21.80" class="stroke"/>
<use x="481.10" y="56.00" xlink:href="#hd"/>
<path d="M484.60 56.00v-21.20" class="stroke"/>
<path class="fill"
	d="M500.70 32.80l33.30 4.50v3.20l-33.30 -4.50"/>
<use x="497.60" y="53.00" xlink:href="#hd"/>
<path d="M501.10 53.00v-19.20" class="stroke"/>
<use x="513.80" y="56.00" xlink:href="#hd"/>
<path d="M517.30 56.00v-20.00" class="stroke"/>
<use x="530.10" y="59.00" xlink:href="#hd"/>
<path d="M533.60 59.00v-20.80" class="stroke"/>
<path class="fill"
	d="M558.80 33.20l24.60 -2.50v3.20l-24.60 2.50"/>
<path class="fill"
	d="M576.00 36.50l7.00 -0.70v3.20l-7.00 0.70"/>
<use x="555.60" y="56.00" xlink:href="#hd"/>
<circle class="fill" cx="563.30" cy="56.00" r="1.2"/>
<path d="M559.10 56.00v-21.80" class="stroke"/>
<use x="579.50" y="53.00" xlink:href="#hd"/>
<path d="M583.00 53.00v-21.20" class="stroke"/>
<path class="fill"
	d="M599.10 34.30l24.60 2.50v3.20l-24.60 -2.50"/>
<path class="fill"
	d="M616.40 41.00l7.00 0.70v3.20l-7.00 -0.70"/>
<use x="595.90" y="56.00" xlink:href="#hd"/>
<circle class="fill" cx="603.60" cy="56.00" r="1.2"/>
<path d="M599.40 56.00v-20.70" class="stroke"/>
<use x="619.90" y="59.00" xlink:href="#hd"/>
<path d="M623.40 59.00v-21.30" class="stroke"/>
<use x="636.30" y="62.00" xlink:href="#hd"/>
<path d="M639.80 62.00v-21.00" class="stroke"/>
<use x="668.60" y="47.00" xlink:href="#hd"/>
<path d="M672.10 47.00v-21.00" class="stroke"/>
</g>
<g stroke-width="0.70">
<path class="stroke" stroke-width="1"
	d="M236.10 129.00v-24.00"/>
<path class="stroke" stroke-width="1"
	d="M416.40 129.00v-24.00"/>
<path class="stroke" stroke-width="1"
	d="M584.60 129.00v-24.00"/>
<path class="stroke" stroke-width="3"
	d="M690.10 129.00v-24.00"/>
<path class="stroke" stroke-width="1"
	d="M685.60 129.00v-24.00"/>
<defs>
<g id="rdots" class="fill">
	<circle cx="0" cy="-9" r="1.2"/>
	<circle cx="0" cy="-15" r="1.2"/>
</g>
</defs>
<use x="681.60" y="129.00" xlink:href="#rdots"/>
<path d="m10.00 129.00
	h681.60
	M10.00 123.00
	h681.60
	M10.00 117.00
	h681.60
	M10.00 111.00
	h681.60
	M10.00 105.00
	h681.60
	" class="stroke"/>
<use x="22.00" y="123.00" xlink:href="#tclef"/>
<use x="37.00" y="105.00" xlink:href="#sh0"/>
<use x="42.50" y="114.00" xlink:href="#sh0"/>
<path class="fill"
	d="M63.70 107.20l27.50 2.50v3.20l-27.50 -2.50"/>
<path class="fill"
	d="M83.80 114.10l7.00 0.60v3.20l-7.00 -0.60"/>
<use x="60.50" y="129.00" xlink:href="#hd"/>
<circle class="fill" cx="68.20" cy="126.00" r="1.2"/>
<path d="M64.00 129.00v-20.70" class="stroke"/>
<use x="87.30" y="132.00" xlink:href="#hd"/>
<path d="M90.80 132.00v-21.30" class="stroke"/>
<path class="fill"
	d="M108.90 106.30l27.50 -2.50v3.20l-27.50 2.50"/>
<path class="fill"
	d="M129.10 109.40l7.00 -0.60v3.20l-7.00 0.60"/>
<use x="105.80" y="129.00" xlink:href="#hd"/>
<circle class="fill" cx="113.50" cy="126.00" r="1.2"/>
<path d="M109.30 129.00v-21.70" class="stroke"/>
<use x="132.60" y="126.00" xlink:href="#hd"/>
<path d="M136.10 126.00v-21.20" class="stroke"/>
<path class="fill"
	d="M154.20 101.20l27.50 2.50v3.20l-27.50 -2.50"/>
<path class="fill"
	d="M174.30 108.10l7.00 0.60v3.20l-7.00 -0.60"/>
<use x="151.00" y="123.00" xlink:href="#hd"/>
<circle class="fill" cx="158.70" cy="120.00" r="1.2"/>
<path d="M154.50 123.00v-20.70" class="stroke"/>
<use x="177.80" y="126.00" xlink:href="#hd"/>
<path d="M181.30 126.00v-21.30" class="stroke"/>
<path class="fill"
	d="M199.40 100.30l27.50 -2.50v3.20l-27.50 2.50"/>
<path class="fill"
	d="M219.60 103.40l7.00 -0.60v3.20l-7.00 0.60"/>
<use x="196.30" y="123.00" xlink:href="#hd"/>
<circle class="fill" cx="204.00" cy="120.00" r="1.2"/>
<path d="M199.80 123.00v-21.70" class="stroke"/>
<use x="223.10" y="120.00" xlink:href="#hd"/>
<path d="M226.60 120.00v-21.20" class="stroke"/>
<path class="fill"
	d="M252.40 95.20l27.50 2.50v3.20l-27.50 -2.50"/>
<path class="fill"
	d="M272.50 102.10l7.00 0.60v3.20l-7.00 -0.60"/>
<use x="249.20" y="117.00" xlink:href="#hd"/>
<circle class="fill" cx="256.90" cy="114.00" r="1.2"/>
<path d="M252.70 117.00v-20.70" class="stroke"/>
<use x="276.00" y="120.00" xlink:href="#hd"/>
<path d="M279.50 120.00v-21.30" class="stroke"/>
<path class="fill"
	d="M297.60 99.00l27.50 -4.20v3.20l-27.50 4.20"/>
<path class="fill"
	d="M317.80 100.90l7.00 -1.10v3.20l-7.00 1.10"/>
<use x="294.50" y="123.00" xlink:href="#hd"/>
<circle class="fill" cx="302.20" cy="120.00" r="1.2"/>
<path d="M298.00 123.00v-23.10" class="stroke"/>
<use x="321.30" y="117.00" xlink:href="#hd"/>
<path d="M324.80 117.00v-21.20" class="stroke"/>
<use x="339.80" y="111.00" xlink:href="#hd"/>
<path d="M336.30 111.00v21.00" class="stroke"/>
<path class="fill"
	d="M372.80 134.20l27.50 2.50v-3.20l-27.50 -2.50"/>
<path class="fill"
	d="M392.90 131.10l7.00 0.60v-3.20l-7.00 -0.60"/>
<use x="376.60" y="111.00" xlink:href="#hd"/>
<circle class="fill" cx="384.30" cy="108.00" r="1.2"/>
<path d="M373.10 111.00v22.30" class="stroke"/>
<use x="403.40" y="114.00" xlink:href="#hd"/>
<path d="M399.90 114.00v21.70" class="stroke"/>
<use x="429.50" y="117.00" xlink:href="#hd"/>
<path d="M426.00 117.00v21.00" class="stroke"/>
<use x="462.70" y="129.00" xlink:href="#hd"/>
<path d="M466.20 129.00v-21.00" class="stroke"/>
<path class="fill"
	d="M502.70 101.20l27.50 2.50v3.20l-27.50 -2.50"/>
<path class="fill"
	d="M522.80 108.10l7.00 0.60v3.20l-7.00 -0.60"/>
<use x="499.50" y="123.00" xlink:href="#hd"/>
<circle class="fill" cx="507.20" cy="120.00" r="1.2"/>
<path d="M503.00 123.00v-20.70" class="stroke"/>
<use x="526.30" y="126.00" xlink:href="#hd"/>
<path d="M529.80 126.00v-21.30" class="stroke"/>
<path class="fill"
	d="M547.90 107.20l27.50 2.50v3.20l-27.50 -2.50"/>
<path class="fill"
	d="M568.10 114.10l7.00 0.60v3.20l-7.00 -0.60"/>
<use x="544.80" y="129.00" xlink:href="#hd"/>
<circle class="fill" cx="552.50" cy="126.00" r="1.2"/>
<path d="M548.30 129.00v-20.70" class="stroke"/>
<use x="571.60" y="132.00" xlink:href="#hd"/>
<path d="M575.10 132.00v-21.30" class="stroke"/>
<defs>
<path id="Hd" class="fill" d="m3 -1.6
	c-1 -1.8 -7 1.4 -6 3.2
	1 1.8 7 -1.4 6 -3.2
	m0.5 -0.3
	c2 3.8 -5 7.6 -7 3.8
	-2 -3.8 5 -7.6 7 -3.8"/>
</defs>
<use x="597.70" y="129.00" xlink:href="#Hd"/>
<path d="M601.20 129.00v-21.00" class="stroke"/>
<use x="649.80" y="117.00" xlink:href="#Hd"/>
<path d="M653.30 117.00v-21.00" class="stroke"/>
</g>
<g stroke-width="0.70">
<path class="stroke" stroke-width="1"
	d="M60.00 199.00v-24.00"/>
<path class="stroke" stroke-width="1"
	d="M57.00 199.00v-24.00"/>
<path class="stroke" stroke-width="1"
	d="M210.50 199.00v-24.00"/>
<path class="stroke" stroke-width="1"
	d="M369.00 199.00v-24.00"/>
<path class="stroke" stroke-width="1"
	d="M516.60 199.00v-24.00"/>
<path class="stroke" stroke-width="1"
	d="M691.60 199.00v-24.00"/>
<path d="m10.00 199.00
	h681.60
	M10.00 193.00
	h681.60
	M10.00 187.00
	h681.60
	M10.00 181.00
	h681.60
	M10.00 175.00
	h681.60
	" class="stroke"/>
<text style="font:italic 12px serif"
	x="660.70" y="218.70" text-anchor="middle">3</text>
<use x="22.00" y="193.00" xlink:href="#tclef"/>
<use x="37.00" y="175.00" xlink:href="#sh0"/>
<use x="42.50" y="184.00" xlink:href="#sh0"/>
<use x="72.50" y="178.00" xlink:href="#hd"/>
<path d="M69.00 178.00v21.00" class="stroke"/>
<use x="103.90" y="178.00" xlink:href="#hd"/>
<path d="M100.40 178.00v21.00" class="stroke"/>
<path class="fill"
	d="M131.50 209.00l24.00 -4.10v-3.20l-24.00 4.10"/>
<path class="fill"
	d="M148.20 201.20l7.00 -1.20v-3.20l-7.00 1.20"/>
<use x="135.30" y="187.00" xlink:href="#hd"/>
<circle class="fill" cx="143.00" cy="184.00" r="1.2"/>
<path d="M131.80 187.00v21.00" class="stroke"/>
<use x="158.70" y="181.00" xlink:href="#hd"/>
<path d="M155.20 181.00v23.00" class="stroke"/>
<path class="fill"
	d="M170.80 200.70l24.00 -2.50v-3.20l-24.00 2.50"/>
<path class="fill"
	d="M187.50 194.00l7.00 -0.70v-3.20l-7.00 0.70"/>
<use x="174.70" y="178.00" xlink:href="#hd"/>
<circle class="fill" cx="182.40" cy="178.00" r="1.2"/>
<path d="M171.20 178.00v21.70" class="stroke"/>
<use x="198.00" y="175.00" xlink:href="#hd"/>
<path d="M194.50 175.00v22.30" class="stroke"/>
<path class="fill"
	d="M219.20 194.70l24.00 -2.50v-3.20l-24.00 2.50"/>
<path class="fill"
	d="M235.90 188.00l7.00 -0.70v-3.20l-7.00 0.70"/>
<use x="223.00" y="172.00" xlink:href="#hd"/>
<circle class="fill" cx="230.70" cy="172.00" r="1.2"/>
<path d="M219.50 172.00v21.70" class="stroke"/>
<defs>
<path id="hl" class="stroke" d="m-6 0h12"/>
</defs>
<use x="246.40" y="169.00" xlink:href="#hl"/>
<use x="246.40" y="169.00" xlink:href="#hd"/>
<path d="M242.90 169.00v22.30" class="stroke"/>
<path class="fill"
	d="M258.50 195.30l24.00 2.50v-3.20l-24.00 -2.50"/>
<path class="fill"
	d="M275.30 192.00l7.00 0.70v-3.20l-7.00 -0.70"/>
<use x="262.40" y="172.00" xlink:href="#hd"/>
<circle class="fill" cx="270.10" cy="172.00" r="1.2"/>
<path d="M258.90 172.00v22.30" class="stroke"/>
<use x="285.80" y="175.00" xlink:href="#hd"/>
<path d="M282.30 175.00v21.70" class="stroke"/>
<use x="301.70" y="178.00" xlink:href="#hd"/>
<path d="M298.20 178.00v21.00" class="stroke"/>
<path class="fill"
	d="M329.30 200.70l24.00 -2.50v-3.20l-24.00 2.50"/>
<path class="fill"
	d="M346.00 194.00l7.00 -0.70v-3.20l-7.00 0.70"/>
<use x="333.10" y="178.00" xlink:href="#hd"/>
<circle class="fill" cx="340.80" cy="178.00" r="1.2"/>
<path d="M329.60 178.00v21.70" class="stroke"/>
<use x="356.50" y="175.00" xlink:href="#hd"/>
<path d="M353.00 175.00v22.30" class="stroke"/>
<use x="381.50" y="178.00" xlink:href="#hd"/>
<path d="M378.00 178.00v21.00" class="stroke"/>
<use x="412.90" y="187.00" xlink:href="#hd"/>
<path d="M409.40 187.00v21.00" class="stroke"/>
<path class="fill"
	d="M444.40 165.30l24.00 2.50v3.20l-24.00 -2.50"/>
<path class="fill"
	d="M461.10 172.00l7.00 0.70v3.20l-7.00 -0.70"/>
<use x="441.30" y="187.00" xlink:href="#hd"/>
<circle class="fill" cx="449.00" cy="184.00" r="1.2"/>
<path d="M444.80 187.00v-20.70" class="stroke"/>
<use x="464.60" y="190.00" xlink:href="#hd"/>
<path d="M468.10 190.00v-21.30" class="stroke"/>
<path class="fill"
	d="M476.90 209.70l24.00 -2.50v-3.20l-24.00 2.50"/>
<path class="fill"
	d="M493.60 203.00l7.00 -0.70v-3.20l-7.00 0.70"/>
<use x="480.80" y="187.00" xlink:href="#hd"/>
<circle class="fill" cx="488.50" cy="184.00" r="1.2"/>
<path d="M477.30 187.00v21.70" class="stroke"/>
<use x="504.10" y="184.00" xlink:href="#hd"/>
<path d="M500.60 184.00v22.30" class="stroke"/>
<path class="fill"
	d="M525.30 203.70l24.00 -2.50v-3.20l-24.00 2.50"/>
<path class="fill"
	d="M542.00 197.00l7.00 -0.70v-3.20l-7.00 0.70"/>
<use x="529.10" y="181.00" xlink:href="#hd"/>
<circle class="fill" cx="536.80" cy="178.00" r="1.2"/>
<path d="M525.60 181.00v21.70" class="stroke"/>
<use x="552.50" y="178.00" xlink:href="#hd"/>
<path d="M549.00 178.00v22.30" class="stroke"/>
<path class="fill"
	d="M564.60 204.30l24.00 2.50v-3.20l-24.00 -2.50"/>
<path class="fill"
	d="M581.30 201.00l7.00 0.70v-3.20l-7.00 -0.70"/>
<use x="568.50" y="181.00" xlink:href="#hd"/>
<circle class="fill" cx="576.20" cy="178.00" r="1.2"/>
<path d="M565.00 181.00v22.30" class="stroke"/>
<use x="591.80" y="184.00" xlink:href="#hd"/>
<path d="M588.30 184.00v21.70" class="stroke"/>
<path class="fill"
	d="M604.00 209.70l24.00 -2.50v-3.20l-24.00 2.50"/>
<path class="fill"
	d="M620.70 203.00l7.00 -0.70v-3.20l-7.00 0.70"/>
<use x="607.80" y="187.00" xlink:href="#hd"/>
<circle class="fill" cx="615.50" cy="184.00" r="1.2"/>
<path d="M604.30 187.00v21.70" class="stroke"/>
<use x="631.20" y="184.00" xlink:href="#hd"/>
<path d="M627.70 184.00v22.30" class="stroke"/>
<path class="fill"
	d="M643.30 202.80l32.40 4.40v-3.20l-32.40 -4.40"/>
<use x="647.20" y="181.00" xlink:href="#hd"/>
<path d="M643.70 181.00v20.80" class="stroke"/>
<use x="663.00" y="184.00" xlink:href="#hd"/>
<path d="M659.50 184.00v20.00" class="stroke"/>
<use x="678.90" y="187.00" xlink:href="#hd"/>
<path d="M675.40 187.00v19.20" class="stroke"/>
</g>
<g stroke-width="0.70">
<path class="stroke" stroke-width="1"
	d="M212.80 269.00v-24.00"/>
<path class="stroke" stroke-width="1"
	d="M394.20 269.00v-24.00"/>
<path class="stroke" stroke-width="1"
	d="M586.30 269.00v-24.00"/>
<path class="stroke" stroke-width="1"
	d="M691.60 269.00v-24.00"/>
<path d="m10.00 269.00
	h681.60
	M10.00 263.00
	h681.60
	M10.00 257.00
	h681.60
	M10.00 251.00
	h681.60
	M10.00 245.00
	h681.60
	" class="stroke"/>
<text style="font:italic 12px serif"
	x="552.60" y="283.30" text-anchor="middle">3</text>
<use x="22.00" y="263.00" xlink:href="#tclef"/>
<use x="37.00" y="245.00" xlink:href="#sh0"/>
<use x="42.50" y="254.00" xlink:href="#sh0"/>
<use x="60.50" y="248.00" xlink:href="#hd"/>
<path d="M57.00 248.00v21.00" class="stroke"/>
<use x="95.80" y="248.00" xlink:href="#hd"/>
<path d="M92.30 248.00v21.00" class="stroke"/>
<path class="fill"
	d="M127.20 279.10l26.40 -4.20v-3.20l-26.40 4.20"/>
<path class="fill"
	d="M146.30 271.10l7.00 -1.10v-3.20l-7.00 1.10"/>
<use x="131.00" y="257.00" xlink:href="#hd"/>
<circle class="fill" cx="138.70" cy="254.00" r="1.2"/>
<path d="M127.50 257.00v21.00" class="stroke"/>
<use x="156.80" y="251.00" xlink:href="#hd"/>
<path d="M153.30 251.00v23.00" class="stroke"/>
<path class="fill"
	d="M170.70 270.70l26.40 -2.50v-3.20l-26.40 2.50"/>
<path class="fill"
	d="M189.70 263.90l7.00 -0.70v-3.20l-7.00 0.70"/>
<use x="174.50" y="248.00" xlink:href="#hd"/>
<circle class="fill" cx="182.20" cy="248.00" r="1.2"/>
<path d="M171.00 248.00v21.70" class="stroke"/>
<use x="200.20" y="245.00" xlink:href="#hd"/>
<path d="M196.70 245.00v22.30" class="stroke"/>
<path class="fill"
	d="M221.60 264.70l26.40 -2.50v-3.20l-26.40 2.50"/>
<path class="fill"
	d="M240.70 257.90l7.00 -0.70v-3.20l-7.00 0.70"/>
<use x="225.50" y="242.00" xlink:href="#hd"/>
<circle class="fill" cx="233.20" cy="242.00" r="1.2"/>
<path d="M222.00 242.00v21.70" class="stroke"/>
<use x="251.20" y="239.00" xlink:href="#hl"/>
<use x="251.20" y="239.00" xlink:href="#hd"/>
<path d="M247.70 239.00v22.30" class="stroke"/>
<path class="fill"
	d="M265.10 265.30l26.40 2.50v-3.20l-26.40 -2.50"/>
<path class="fill"
	d="M284.20 262.10l7.00 0.70v-3.20l-7.00 -0.70"/>
<use x="268.90" y="242.00" xlink:href="#hd"/>
<circle class="fill" cx="276.60" cy="242.00" r="1.2"/>
<path d="M265.40 242.00v22.30" class="stroke"/>
<use x="294.70" y="245.00" xlink:href="#hd"/>
<path d="M291.20 245.00v21.70" class="stroke"/>
<path class="fill"
	d="M308.60 270.70l26.40 -2.50v-3.20l-26.40 2.50"/>
<path class="fill"
	d="M327.70 263.90l7.00 -0.70v-3.20l-7.00 0.70"/>
<use x="312.40" y="248.00" xlink:href="#hd"/>
<circle class="fill" cx="320.10" cy="248.00" r="1.2"/>
<path d="M308.90 248.00v21.70" class="stroke"/>
<use x="338.20" y="245.00" xlink:href="#hd"/>
<path d="M334.70 245.00v22.30" class="stroke"/>
<path class="fill"
	d="M352.00 271.30l26.40 2.50v-3.20l-26.40 -2.50"/>
<path class="fill"
	d="M371.10 268.10l7.00 0.70v-3.20l-7.00 -0.70"/>
<use x="355.90" y="248.00" xlink:href="#hd"/>
<circle class="fill" cx="363.60" cy="248.00" r="1.2"/>
<path d="M352.40 248.00v22.30" class="stroke"/>
<use x="381.60" y="251.00" xlink:href="#hd"/>
<path d="M378.10 251.00v21.70" class="stroke"/>
<path class="fill"
	d="M403.00 279.10l26.40 -4.20v-3.20l-26.40 4.20"/>
<path class="fill"
	d="M422.10 271.10l7.00 -1.10v-3.20l-7.00 1.10"/>
<use x="406.80" y="257.00" xlink:href="#hd"/>
<circle class="fill" cx="414.50" cy="254.00" r="1.2"/>
<path d="M403.30 257.00v21.00" class="stroke"/>
<use x="432.60" y="251.00" xlink:href="#hd"/>
<path d="M429.10 251.00v23.00" class="stroke"/>
<path class="fill"
	d="M446.50 270.10l26.40 -4.20v-3.20l-26.40 4.20"/>
<path class="fill"
	d="M465.60 262.10l7.00 -1.10v-3.20l-7.00 1.10"/>
<use x="450.30" y="248.00" xlink:href="#hd"/>
<circle class="fill" cx="458.00" cy="248.00" r="1.2"/>
<path d="M446.80 248.00v21.00" class="stroke"/>
<use x="476.10" y="242.00" xlink:href="#hd"/>
<path d="M472.60 242.00v23.00" class="stroke"/>
<path class="fill"
	d="M490.00 268.30l26.40 2.50v-3.20l-26.40 -2.50"/>
<path class="fill"
	d="M509.10 265.10l7.00 0.70v-3.20l-7.00 -0.70"/>
<use x="493.80" y="245.00" xlink:href="#hd"/>
<circle class="fill" cx="501.50" cy="242.00" r="1.2"/>
<path d="M490.30 245.00v22.30" class="stroke"/>
<use x="519.60" y="248.00" xlink:href="#hd"/>
<path d="M516.10 248.00v21.70" class="stroke"/>
<path class="fill"
	d="M533.40 271.30l35.90 -4.60v-3.20l-35.90 4.60"/>
<use x="537.30" y="251.00" xlink:href="#hd"/>
<path d="M533.80 251.00v19.20" class="stroke"/>
<use x="554.90" y="248.00" xlink:href="#hd"/>
<path d="M551.40 248.00v20.00" class="stroke"/>
<use x="572.50" y="245.00" xlink:href="#hd"/>
<path d="M569.00 245.00v20.80" class="stroke"/>
<use x="599.30" y="248.00" xlink:href="#Hd"/>
<circle class="fill" cx="608.00" cy="248.00" r="1.2"/>
<path d="M595.80 248.00v21.00" class="stroke"/>
<defs>
<path id="r8e" class="fill" d="m 0 0
	c-1.5 1.5 -2.4 2 -3.6 2
	2.4 -2.8 -2.8 -4 -2.8 -1.2
	c0 2.7 4.3 2.4 5.9 0.6"/>
<g id="r8">
	<path d="m3.3 -4l-3.4 9.6" class="stroke"/>
	<use x="3.4" y="-4" xlink:href="#r8e"/>
</g>
</defs>
<use x="650.50" y="257.00" xlink:href="#r8"/>
<circle class="fill" cx="658.50" cy="254.00" r="1.2"/>
<use x="679.10" y="245.00" xlink:href="#hd"/>
<path d="M675.60 245.00v23.00" class="stroke"/>
<path class="fill"
	d="M675.60 268.00c0.9 -3.7 9.1 -6.4 6 -12.4
	1 5.4 -4.2 8.4 -6 8.4
M675.60 262.60c0.9 -3.7 9.1 -6.4 6 -12.4
	1 5.4 -4.2 8.4 -6 8.4
"/>
</g>
<g stroke-width="0.70">
<path class="stroke" stroke-width="1"
	d="M199.60 339.00v-24.00"/>
<path class="stroke" stroke-width="1"
	d="M359.30 339.00v-24.00"/>
<path class="stroke" stroke-width="1"
	d="M525.50 339.00v-24.00"/>
<path class="stroke" stroke-width="1"
	d="M691.60 339.00v-24.00"/>
<path d="m10.00 339.00
	h681.60
	M10.00 333.00
	h681.60
	M10.00 327.00
	h681.60
	M10.00 321.00
	h681.60
	M10.00 315.00
	h681.60
	" class="stroke"/>
<use x="22.00" y="333.00" xlink:href="#tclef"/>
<use x="37.00" y="315.00" xlink:href="#sh0"/>
<use x="42.50" y="324.00" xlink:href="#sh0"/>
<use x="60.50" y="312.00" xlink:href="#hd"/>
<path d="M57.00 312.00v21.00" class="stroke"/>
<path class="fill"
	d="M88.30 336.20l24.30 4.10v-3.20l-24.30 -4.10"/>
<path class="fill"
	d="M105.30 334.00l7.00 1.20v-3.20l-7.00 -1.20"/>
<use x="92.20" y="312.00" xlink:href="#hd"/>
<circle class="fill" cx="99.90" cy="312.00" r="1.2"/>
<path d="M88.70 312.00v23.20" class="stroke"/>
<use x="115.80" y="318.00" xlink:href="#hd"/>
<path d="M112.30 318.00v21.20" class="stroke"/>
<use x="131.90" y="315.00" xlink:href="#hd"/>
<path d="M128.40 315.00v21.00" class="stroke"/>
<path class="fill"
	d="M159.70 339.20l24.30 4.10v-3.20l-24.30 -4.10"/>
<path class="fill"
	d="M176.60 337.00l7.00 1.20v-3.20l-7.00 -1.20"/>
<use x="163.60" y="315.00" xlink:href="#hd"/>
<circle class="fill" cx="171.30" cy="312.00" r="1.2"/>
<path d="M160.10 315.00v23.20" class="stroke"/>
<use x="187.10" y="321.00" xlink:href="#hd"/>
<path d="M183.60 321.00v21.20" class="stroke"/>
<path class="fill"
	d="M208.30 341.30l24.30 2.50v-3.20l-24.30 -2.50"/>
<path class="fill"
	d="M225.20 338.00l7.00 0.70v-3.20l-7.00 -0.70"/>
<use x="212.10" y="318.00" xlink:href="#hd"/>
<circle class="fill" cx="219.80" cy="318.00" r="1.2"/>
<path d="M208.60 318.00v22.30" class="stroke"/>
<use x="235.70" y="321.00" xlink:href="#hd"/>
<path d="M232.20 321.00v21.70" class="stroke"/>
<path class="fill"
	d="M248.00 349.70l24.30 -2.50v-3.20l-24.30 2.50"/>
<path class="fill"
	d="M264.90 343.00l7.00 -0.70v-3.20l-7.00 0.70"/>
<use x="251.80" y="327.00" xlink:href="#hd"/>
<circle class="fill" cx="259.50" cy="324.00" r="1.2"/>
<path d="M248.30 327.00v21.70" class="stroke"/>
<use x="275.40" y="324.00" xlink:href="#hd"/>
<path d="M271.90 324.00v22.30" class="stroke"/>
<use x="291.50" y="321.00" xlink:href="#hd"/>
<path d="M288.00 321.00v21.00" class="stroke"/>
<path class="fill"
	d="M319.40 343.70l24.30 -2.50v-3.20l-24.30 2.50"/>
<path class="fill"
	d="M336.30 337.00l7.00 -0.70v-3.20l-7.00 0.70"/>
<use x="323.20" y="321.00" xlink:href="#hd"/>
<circle class="fill" cx="330.90" cy="318.00" r="1.2"/>
<path d="M319.70 321.00v21.70" class="stroke"/>
<use x="346.80" y="318.00" xlink:href="#hd"/>
<path d="M343.30 318.00v22.30" class="stroke"/>
<path class="fill"
	d="M367.90 345.20l24.30 4.10v-3.20l-24.30 -4.10"/>
<path class="fill"
	d="M384.80 343.00l7.00 1.20v-3.20l-7.00 -1.20"/>
<use x="371.80" y="321.00" xlink:href="#hd"/>
<circle class="fill" cx="379.50" cy="318.00" r="1.2"/>
<path d="M368.30 321.00v23.20" class="stroke"/>
<use x="395.30" y="327.00" xlink:href="#hd"/>
<path d="M391.80 327.00v21.20" class="stroke"/>
<path class="fill"
	d="M413.10 309.00l24.30 4.10v3.20l-24.30 -4.10"/>
<path class="fill"
	d="M430.00 316.80l7.00 1.20v3.20l-7.00 -1.20"/>
<use x="409.90" y="330.00" xlink:href="#hd"/>
<circle class="fill" cx="417.60" cy="330.00" r="1.2"/>
<path d="M413.40 330.00v-20.00" class="stroke"/>
<use x="433.50" y="336.00" xlink:href="#hd"/>
<path d="M437.00 336.00v-22.00" class="stroke"/>
<path class="fill"
	d="M452.80 310.20l24.30 -2.50v3.20l-24.30 2.50"/>
<path class="fill"
	d="M469.70 313.50l7.00 -0.70v3.20l-7.00 0.70"/>
<use x="449.60" y="333.00" xlink:href="#hd"/>
<circle class="fill" cx="457.30" cy="330.00" r="1.2"/>
<path d="M453.10 333.00v-21.80" class="stroke"/>
<use x="473.20" y="330.00" xlink:href="#hd"/>
<path d="M476.70 330.00v-21.20" class="stroke"/>
<path class="fill"
	d="M485.60 349.70l24.30 -2.50v-3.20l-24.30 2.50"/>
<path class="fill"
	d="M502.50 343.00l7.00 -0.70v-3.20l-7.00 0.70"/>
<use x="489.40" y="327.00" xlink:href="#hd"/>
<circle class="fill" cx="497.10" cy="324.00" r="1.2"/>
<path d="M485.90 327.00v21.70" class="stroke"/>
<use x="513.00" y="324.00" xlink:href="#hd"/>
<path d="M509.50 324.00v22.30" class="stroke"/>
<path class="fill"
	d="M534.20 345.20l24.30 4.10v-3.20l-24.30 -4.10"/>
<path class="fill"
	d="M551.10 343.00l7.00 1.20v-3.20l-7.00 -1.20"/>
<use x="538.00" y="321.00" xlink:href="#hd"/>
<circle class="fill" cx="545.70" cy="318.00" r="1.2"/>
<path d="M534.50 321.00v23.20" class="stroke"/>
<use x="561.60" y="327.00" xlink:href="#hd"/>
<path d="M558.10 327.00v21.20" class="stroke"/>
<path class="fill"
	d="M579.30 309.00l24.30 4.10v3.20l-24.30 -4.10"/>
<path class="fill"
	d="M596.20 316.80l7.00 1.20v3.20l-7.00 -1.20"/>
<use x="576.10" y="330.00" xlink:href="#hd"/>
<circle class="fill" cx="583.80" cy="330.00" r="1.2"/>
<path d="M579.60 330.00v-20.00" class="stroke"/>
<use x="599.70" y="336.00" xlink:href="#hd"/>
<path d="M603.20 336.00v-22.00" class="stroke"/>
<path class="fill"
	d="M619.00 311.30l24.30 2.50v3.20l-24.30 -2.50"/>
<path class="fill"
	d="M635.90 318.00l7.00 0.70v3.20l-7.00 -0.70"/>
<use x="615.80" y="333.00" xlink:href="#hd"/>
<circle class="fill" cx="623.50" cy="330.00" r="1.2"/>
<path d="M619.30 333.00v-20.70" class="stroke"/>
<use x="639.40" y="336.00" xlink:href="#hd"/>
<path d="M642.90 336.00v-21.30" class="stroke"/>
<path class="fill"
	d="M658.70 317.30l24.30 2.50v3.20l-24.30 -2.50"/>
<path class="fill"
	d="M675.60 324.00l7.00 0.70v3.20l-7.00 -0.70"/>
<use x="655.50" y="339.00" xlink:href="#hd"/>
<circle class="fill" cx="663.20" cy="336.00" r="1.2"/>
<path d="M659.00 339.00v-20.70" class="stroke"/>
<use x="679.10" y="342.00" xlink:href="#hd"/>
<path d="M682.60 342.00v-21.30" class="stroke"/>
</g>
<g stroke-width="0.70">
<path class="stroke" stroke-width="1"
	d="M248.90 409.00v-24.00"/>
<path class="stroke" stroke-width="1"
	d="M433.50 409.00v-24.00"/>
<path class="stroke" stroke-width="1"
	d="M614.10 409.00v-24.00"/>
<path class="stroke" stroke-width="1"
	d="M691.60 409.00v-24.00"/>
<path class="stroke" stroke-width="1"
	d="M688.60 409.00v-24.00"/>
<path d="m10.00 409.00
	h681.60
	M10.00 403.00
	h681.60
	M10.00 397.00
	h681.60
	M10.00 391.00
	h681.60
	M10.00 385.00
	h681.60
	" class="stroke"/>
<use x="22.00" y="403.00" xlink:href="#tclef"/>
<use x="37.00" y="385.00" xlink:href="#sh0"/>
<use x="42.50" y="394.00" xlink:href="#sh0"/>
<path class="fill"
	d="M63.70 377.70l29.40 6.70v3.20l-29.40 -6.70"/>
<path class="fill"
	d="M85.70 387.70l7.00 1.60v3.20l-7.00 -1.60"/>
<use x="60.50" y="397.00" xlink:href="#hd"/>
<circle class="fill" cx="68.20" cy="394.00" r="1.2"/>
<path d="M64.00 397.00v-18.30" class="stroke"/>
<use x="89.20" y="409.00" xlink:href="#hd"/>
<path d="M92.70 409.00v-23.70" class="stroke"/>
<path class="fill"
	d="M112.20 387.20l29.40 2.50v3.20l-29.40 -2.50"/>
<path class="fill"
	d="M134.30 394.10l7.00 0.60v3.20l-7.00 -0.60"/>
<use x="109.10" y="409.00" xlink:href="#hd"/>
<circle class="fill" cx="116.80" cy="406.00" r="1.2"/>
<path d="M112.60 409.00v-20.70" class="stroke"/>
<use x="137.80" y="412.00" xlink:href="#hd"/>
<path d="M141.30 412.00v-21.30" class="stroke"/>
<path class="fill"
	d="M160.80 386.30l29.40 -2.50v3.20l-29.40 2.50"/>
<path class="fill"
	d="M182.90 389.40l7.00 -0.60v3.20l-7.00 0.60"/>
<use x="157.70" y="409.00" xlink:href="#hd"/>
<circle class="fill" cx="165.40" cy="406.00" r="1.2"/>
<path d="M161.20 409.00v-21.70" class="stroke"/>
<use x="186.40" y="406.00" xlink:href="#hd"/>
<path d="M189.90 406.00v-21.20" class="stroke"/>
<path class="fill"
	d="M209.40 380.30l29.40 -2.50v3.20l-29.40 2.50"/>
<path class="fill"
	d="M231.50 383.40l7.00 -0.60v3.20l-7.00 0.60"/>
<use x="206.20" y="403.00" xlink:href="#hd"/>
<circle class="fill" cx="213.90" cy="400.00" r="1.2"/>
<path d="M209.70 403.00v-21.70" class="stroke"/>
<use x="235.00" y="400.00" xlink:href="#hd"/>
<path d="M238.50 400.00v-21.20" class="stroke"/>
<use x="262.90" y="397.00" xlink:href="#hd"/>
<path d="M266.40 397.00v-21.00" class="stroke"/>
<use x="302.60" y="388.00" xlink:href="#hd"/>
<path d="M299.10 388.00v21.00" class="stroke"/>
<path class="fill"
	d="M338.40 411.20l29.40 2.50v-3.20l-29.40 -2.50"/>
<path class="fill"
	d="M360.50 408.10l7.00 0.60v-3.20l-7.00 -0.60"/>
<use x="342.30" y="388.00" xlink:href="#hd"/>
<circle class="fill" cx="350.00" cy="388.00" r="1.2"/>
<path d="M338.80 388.00v22.30" class="stroke"/>
<use x="371.00" y="391.00" xlink:href="#hd"/>
<path d="M367.50 391.00v21.70" class="stroke"/>
<path class="fill"
	d="M387.00 410.80l29.40 -2.50v-3.20l-29.40 2.50"/>
<path class="fill"
	d="M409.10 403.90l7.00 -0.60v-3.20l-7.00 0.60"/>
<use x="390.80" y="388.00" xlink:href="#hd"/>
<circle class="fill" cx="398.50" cy="388.00" r="1.2"/>
<path d="M387.30 388.00v21.70" class="stroke"/>
<use x="419.60" y="385.00" xlink:href="#hd"/>
<path d="M416.10 385.00v22.30" class="stroke"/>
<use x="447.50" y="388.00" xlink:href="#hd"/>
<path d="M444.00 388.00v21.00" class="stroke"/>
<use x="487.20" y="397.00" xlink:href="#hd"/>
<path d="M483.70 397.00v21.00" class="stroke"/>
<path class="fill"
	d="M526.00 375.20l29.40 2.50v3.20l-29.40 -2.50"/>
<path class="fill"
	d="M548.10 382.10l7.00 0.60v3.20l-7.00 -0.60"/>
<use x="522.90" y="397.00" xlink:href="#hd"/>
<circle class="fill" cx="530.60" cy="394.00" r="1.2"/>
<path d="M526.40 397.00v-20.70" class="stroke"/>
<use x="551.60" y="400.00" xlink:href="#hd"/>
<path d="M555.10 400.00v-21.30" class="stroke"/>
<path class="fill"
	d="M574.60 381.20l29.40 2.50v3.20l-29.40 -2.50"/>
<path class="fill"
	d="M596.70 388.10l7.00 0.60v3.20l-7.00 -0.60"/>
<use x="571.50" y="403.00" xlink:href="#hd"/>
<circle class="fill" cx="579.20" cy="400.00" r="1.2"/>
<path d="M575.00 403.00v-20.70" class="stroke"/>
<use x="600.20" y="406.00" xlink:href="#hd"/>
<path d="M603.70 406.00v-21.30" class="stroke"/>
<defs>
<path id="HD" class="fill" d="m-2.7 -1.4
	c1.5 -2.8 6.9 0 5.3 2.7
	-1.5 2.8 -6.9 0 -5.3 -2.7
	m8.3 1.4
	c0 -1.5 -2.2 -3 -5.6 -3
	-3.4 0 -5.6 1.5 -5.6 3
	0 1.5 2.2 3 5.6 3
	3.4 0 5.6 -1.5 5.6 -3"/>
</defs>
<use x="629.10" y="409.00" xlink:href="#HD"/>
</g>
</svg>
