<?xml version="1.0" standalone="no"?>
<!DOCTYPE svg PUBLIC "-//W3C//DTD SVG 1.1//EN"
	"http://www.w3.org/Graphics/SVG/1.1/DTD/svg11.dtd">
<svg xmlns="http://www.w3.org/2000/svg" version="1.1"
	xmlns:xlink="http://www.w3.org/1999/xlink"
	color="black"
	width="701.60px" height="458.00px">
<style type="text/css">
.fill {fill: currentColor}
.stroke {stroke: currentColor; fill: none}
text{white-space: pre}
</style>
<title>/media/tim/Data1/tims_code/sphinx-tunes/source/_abcfiles/King of the Far (1) tune 1</title>
<!-- Creator: abcm2ps-8.14.6 -->
<!-- CreationDate: Jul 30, 2023 12:21 -->
<!-- CommandLine: -g '/media/tim/Data1/tims_code/sphinx-tunes/source/_abcfiles/King of the Faries.abc' -O '/media/tim/Data1/tims_code/sphinx-tunes/source/_abcfiles/King of the Faries.svg' -->
<g stroke-width="0.70">
<!-- title: King Of The Fairies -->
</g>
<g stroke-width="0.70" style="font:20.00px Times">
<text x="350.80" y="22.00" text-anchor="middle">King Of The Fairies</text>
</g>
<g stroke-width="0.70" style="font:20.00px Times">
<path class="stroke" stroke-width="1"
	d="M234.00 85.00v-24.00"/>
<path class="stroke" stroke-width="1"
	d="M380.00 85.00v-24.00"/>
<path class="stroke" stroke-width="1"
	d="M543.10 85.00v-24.00"/>
<path class="stroke" stroke-width="1"
	d="M691.60 85.00v-24.00"/>
<path d="m10.00 85.00
	h681.60
	M10.00 79.00
	h681.60
	M10.00 73.00
	h681.60
	M10.00 67.00
	h681.60
	M10.00 61.00
	h681.60
	" class="stroke"/>
<text style="font:italic 12px serif"
	x="516.10" y="55.30" text-anchor="middle">3</text>
<defs>
<path id="utclef" class="fill" d="m-50 -90
	c-72 -41 -72 -158 52 -188
	150 -10 220 188 90 256
	-114 52 -275 0 -293 -136
	-15 -181 93 -229 220 -334
	88 -87 79 -133 62 -210
	-51 33 -94 105 -89 186
	17 267 36 374 49 574
	6 96 -19 134 -77 135
	-80 1 -126 -93 -61 -133
	85 -41 133 101 31 105
	23 17 92 37 90 -92
	-10 -223 -39 -342 -50 -617
	0 -90 0 -162 96 -232
	56 72 63 230 22 289
	-74 106 -257 168 -255 316
	9 153 148 185 252 133
	86 -65 29 -192 -80 -176
	-71 12 -105 67 -59 124"/>
<use id="tclef" transform="translate(0,6) scale(0.045)"
	xlink:href="#utclef"/>
</defs>
<use x="22.00" y="79.00" xlink:href="#tclef"/>
<defs>
<path id="usharp" class="fill" d="
	m136 -702
	v890
	h32
	v-890
	m128 840
	h32
	v-888
	h-32
	m-232 286
	v116
	l338 -96
	v-116
	m-338 442
	v116
	l338 -98
	v-114"/>
<use id="sh0" transform="translate(-4,5) scale(0.018)"
	xlink:href="#usharp"/>
</defs>
<use x="37.00" y="61.00" xlink:href="#sh0"/>
<use x="42.50" y="70.00" xlink:href="#sh0"/>
<g style="font:bold 16px serif"
	transform="translate(58.50,84.50) scale(1.2,1)">
	<text text-anchor="middle">4</text>
	<text y="-12" text-anchor="middle">4</text>
</g>
<path class="fill"
	d="M79.70 63.30l24.60 2.50v3.20l-24.60 -2.50"/>
<path class="fill"
	d="M96.90 70.00l7.00 0.70v3.20l-7.00 -0.70"/>
<defs>
<ellipse id="hd" rx="4.1" ry="2.9"
	transform="rotate(-20)" class="fill"/>
</defs>
<use x="76.50" y="85.00" xlink:href="#hd"/>
<circle class="fill" cx="84.20" cy="82.00" r="1.2"/>
<path d="M80.00 85.00v-20.70" class="stroke"/>
<use x="100.40" y="88.00" xlink:href="#hd"/>
<path d="M103.90 88.00v-21.30" class="stroke"/>
<path class="fill"
	d="M120.00 62.20l24.60 -2.50v3.20l-24.60 2.50"/>
<path class="fill"
	d="M137.30 65.50l7.00 -0.70v3.20l-7.00 0.70"/>
<use x="116.80" y="85.00" xlink:href="#hd"/>
<circle class="fill" cx="124.50" cy="82.00" r="1.2"/>
<path d="M120.30 85.00v-21.80" class="stroke"/>
<use x="140.80" y="82.00" xlink:href="#hd"/>
<path d="M144.30 82.00v-21.20" class="stroke"/>
<path class="fill"
	d="M160.30 57.30l24.60 2.50v3.20l-24.60 -2.50"/>
<path class="fill"
	d="M177.60 64.00l7.00 0.70v3.20l-7.00 -0.70"/>
<use x="157.20" y="79.00" xlink:href="#hd"/>
<circle class="fill" cx="164.90" cy="76.00" r="1.2"/>
<path d="M160.70 79.00v-20.70" class="stroke"/>
<use x="181.10" y="82.00" xlink:href="#hd"/>
<path d="M184.60 82.00v-21.30" class="stroke"/>
<path class="fill"
	d="M200.70 56.20l24.60 -2.50v3.20l-24.60 2.50"/>
<path class="fill"
	d="M218.00 59.50l7.00 -0.70v3.20l-7.00 0.70"/>
<use x="197.50" y="79.00" xlink:href="#hd"/>
<circle class="fill" cx="205.20" cy="76.00" r="1.2"/>
<path d="M201.00 79.00v-21.80" class="stroke"/>
<use x="221.50" y="76.00" xlink:href="#hd"/>
<path d="M225.00 76.00v-21.20" class="stroke"/>
<use x="246.50" y="73.00" xlink:href="#hd"/>
<path d="M250.00 73.00v-21.00" class="stroke"/>
<use x="278.80" y="73.00" xlink:href="#hd"/>
<path d="M282.30 73.00v-21.00" class="stroke"/>
<use x="311.20" y="79.00" xlink:href="#hd"/>
<path d="M314.70 79.00v-21.00" class="stroke"/>
<path class="fill"
	d="M346.70 56.20l24.60 -2.50v3.20l-24.60 2.50"/>
<path class="fill"
	d="M364.00 59.50l7.00 -0.70v3.20l-7.00 0.70"/>
<use x="343.50" y="79.00" xlink:href="#hd"/>
<circle class="fill" cx="351.20" cy="76.00" r="1.2"/>
<path d="M347.00 79.00v-21.80" class="stroke"/>
<use x="367.50" y="76.00" xlink:href="#hd"/>
<path d="M371.00 76.00v-21.20" class="stroke"/>
<use x="392.50" y="73.00" xlink:href="#hd"/>
<path d="M396.00 73.00v-21.00" class="stroke"/>
<use x="424.80" y="85.00" xlink:href="#hd"/>
<path d="M428.30 85.00v-21.00" class="stroke"/>
<path class="fill"
	d="M460.40 62.20l24.60 -2.50v3.20l-24.60 2.50"/>
<path class="fill"
	d="M477.60 65.50l7.00 -0.70v3.20l-7.00 0.70"/>
<use x="457.20" y="85.00" xlink:href="#hd"/>
<circle class="fill" cx="464.90" cy="82.00" r="1.2"/>
<path d="M460.70 85.00v-21.80" class="stroke"/>
<use x="481.10" y="82.00" xlink:href="#hd"/>
<path d="M484.60 82.00v-21.20" class="stroke"/>
<path class="fill"
	d="M500.70 58.80l33.30 4.50v3.20l-33.30 -4.50"/>
<use x="497.60" y="79.00" xlink:href="#hd"/>
<path d="M501.10 79.00v-19.20" class="stroke"/>
<use x="513.80" y="82.00" xlink:href="#hd"/>
<path d="M517.30 82.00v-20.00" class="stroke"/>
<use x="530.10" y="85.00" xlink:href="#hd"/>
<path d="M533.60 85.00v-20.80" class="stroke"/>
<path class="fill"
	d="M558.80 59.20l24.60 -2.50v3.20l-24.60 2.50"/>
<path class="fill"
	d="M576.00 62.50l7.00 -0.70v3.20l-7.00 0.70"/>
<use x="555.60" y="82.00" xlink:href="#hd"/>
<circle class="fill" cx="563.30" cy="82.00" r="1.2"/>
<path d="M559.10 82.00v-21.80" class="stroke"/>
<use x="579.50" y="79.00" xlink:href="#hd"/>
<path d="M583.00 79.00v-21.20" class="stroke"/>
<path class="fill"
	d="M599.10 60.30l24.60 2.50v3.20l-24.60 -2.50"/>
<path class="fill"
	d="M616.40 67.00l7.00 0.70v3.20l-7.00 -0.70"/>
<use x="595.90" y="82.00" xlink:href="#hd"/>
<circle class="fill" cx="603.60" cy="82.00" r="1.2"/>
<path d="M599.40 82.00v-20.70" class="stroke"/>
<use x="619.90" y="85.00" xlink:href="#hd"/>
<path d="M623.40 85.00v-21.30" class="stroke"/>
<use x="636.30" y="88.00" xlink:href="#hd"/>
<path d="M639.80 88.00v-21.00" class="stroke"/>
<use x="668.60" y="73.00" xlink:href="#hd"/>
<path d="M672.10 73.00v-21.00" class="stroke"/>
</g>
<g stroke-width="0.70" style="font:20.00px Times">
<path class="stroke" stroke-width="1"
	d="M236.10 155.00v-24.00"/>
<path class="stroke" stroke-width="1"
	d="M416.40 155.00v-24.00"/>
<path class="stroke" stroke-width="1"
	d="M584.60 155.00v-24.00"/>
<path class="stroke" stroke-width="3"
	d="M690.10 155.00v-24.00"/>
<path class="stroke" stroke-width="1"
	d="M685.60 155.00v-24.00"/>
<defs>
<g id="rdots" class="fill">
	<circle cx="0" cy="-9" r="1.2"/>
	<circle cx="0" cy="-15" r="1.2"/>
</g>
</defs>
<use x="681.60" y="155.00" xlink:href="#rdots"/>
<path d="m10.00 155.00
	h681.60
	M10.00 149.00
	h681.60
	M10.00 143.00
	h681.60
	M10.00 137.00
	h681.60
	M10.00 131.00
	h681.60
	" class="stroke"/>
<use x="22.00" y="149.00" xlink:href="#tclef"/>
<use x="37.00" y="131.00" xlink:href="#sh0"/>
<use x="42.50" y="140.00" xlink:href="#sh0"/>
<path class="fill"
	d="M63.70 133.20l27.50 2.50v3.20l-27.50 -2.50"/>
<path class="fill"
	d="M83.80 140.10l7.00 0.60v3.20l-7.00 -0.60"/>
<use x="60.50" y="155.00" xlink:href="#hd"/>
<circle class="fill" cx="68.20" cy="152.00" r="1.2"/>
<path d="M64.00 155.00v-20.70" class="stroke"/>
<use x="87.30" y="158.00" xlink:href="#hd"/>
<path d="M90.80 158.00v-21.30" class="stroke"/>
<path class="fill"
	d="M108.90 132.30l27.50 -2.50v3.20l-27.50 2.50"/>
<path class="fill"
	d="M129.10 135.40l7.00 -0.60v3.20l-7.00 0.60"/>
<use x="105.80" y="155.00" xlink:href="#hd"/>
<circle class="fill" cx="113.50" cy="152.00" r="1.2"/>
<path d="M109.30 155.00v-21.70" class="stroke"/>
<use x="132.60" y="152.00" xlink:href="#hd"/>
<path d="M136.10 152.00v-21.20" class="stroke"/>
<path class="fill"
	d="M154.20 127.20l27.50 2.50v3.20l-27.50 -2.50"/>
<path class="fill"
	d="M174.30 134.10l7.00 0.60v3.20l-7.00 -0.60"/>
<use x="151.00" y="149.00" xlink:href="#hd"/>
<circle class="fill" cx="158.70" cy="146.00" r="1.2"/>
<path d="M154.50 149.00v-20.70" class="stroke"/>
<use x="177.80" y="152.00" xlink:href="#hd"/>
<path d="M181.30 152.00v-21.30" class="stroke"/>
<path class="fill"
	d="M199.40 126.30l27.50 -2.50v3.20l-27.50 2.50"/>
<path class="fill"
	d="M219.60 129.40l7.00 -0.60v3.20l-7.00 0.60"/>
<use x="196.30" y="149.00" xlink:href="#hd"/>
<circle class="fill" cx="204.00" cy="146.00" r="1.2"/>
<path d="M199.80 149.00v-21.70" class="stroke"/>
<use x="223.10" y="146.00" xlink:href="#hd"/>
<path d="M226.60 146.00v-21.20" class="stroke"/>
<path class="fill"
	d="M252.40 121.20l27.50 2.50v3.20l-27.50 -2.50"/>
<path class="fill"
	d="M272.50 128.10l7.00 0.60v3.20l-7.00 -0.60"/>
<use x="249.20" y="143.00" xlink:href="#hd"/>
<circle class="fill" cx="256.90" cy="140.00" r="1.2"/>
<path d="M252.70 143.00v-20.70" class="stroke"/>
<use x="276.00" y="146.00" xlink:href="#hd"/>
<path d="M279.50 146.00v-21.30" class="stroke"/>
<path class="fill"
	d="M297.60 125.00l27.50 -4.20v3.20l-27.50 4.20"/>
<path class="fill"
	d="M317.80 126.90l7.00 -1.10v3.20l-7.00 1.10"/>
<use x="294.50" y="149.00" xlink:href="#hd"/>
<circle class="fill" cx="302.20" cy="146.00" r="1.2"/>
<path d="M298.00 149.00v-23.10" class="stroke"/>
<use x="321.30" y="143.00" xlink:href="#hd"/>
<path d="M324.80 143.00v-21.20" class="stroke"/>
<use x="339.80" y="137.00" xlink:href="#hd"/>
<path d="M336.30 137.00v21.00" class="stroke"/>
<path class="fill"
	d="M372.80 160.20l27.50 2.50v-3.20l-27.50 -2.50"/>
<path class="fill"
	d="M392.90 157.10l7.00 0.60v-3.20l-7.00 -0.60"/>
<use x="376.60" y="137.00" xlink:href="#hd"/>
<circle class="fill" cx="384.30" cy="134.00" r="1.2"/>
<path d="M373.10 137.00v22.30" class="stroke"/>
<use x="403.40" y="140.00" xlink:href="#hd"/>
<path d="M399.90 140.00v21.70" class="stroke"/>
<use x="429.50" y="143.00" xlink:href="#hd"/>
<path d="M426.00 143.00v21.00" class="stroke"/>
<use x="462.70" y="155.00" xlink:href="#hd"/>
<path d="M466.20 155.00v-21.00" class="stroke"/>
<path class="fill"
	d="M502.70 127.20l27.50 2.50v3.20l-27.50 -2.50"/>
<path class="fill"
	d="M522.80 134.10l7.00 0.60v3.20l-7.00 -0.60"/>
<use x="499.50" y="149.00" xlink:href="#hd"/>
<circle class="fill" cx="507.20" cy="146.00" r="1.2"/>
<path d="M503.00 149.00v-20.70" class="stroke"/>
<use x="526.30" y="152.00" xlink:href="#hd"/>
<path d="M529.80 152.00v-21.30" class="stroke"/>
<path class="fill"
	d="M547.90 133.20l27.50 2.50v3.20l-27.50 -2.50"/>
<path class="fill"
	d="M568.10 140.10l7.00 0.60v3.20l-7.00 -0.60"/>
<use x="544.80" y="155.00" xlink:href="#hd"/>
<circle class="fill" cx="552.50" cy="152.00" r="1.2"/>
<path d="M548.30 155.00v-20.70" class="stroke"/>
<use x="571.60" y="158.00" xlink:href="#hd"/>
<path d="M575.10 158.00v-21.30" class="stroke"/>
<defs>
<path id="Hd" class="fill" d="m3 -1.6
	c-1 -1.8 -7 1.4 -6 3.2
	1 1.8 7 -1.4 6 -3.2
	m0.5 -0.3
	c2 3.8 -5 7.6 -7 3.8
	-2 -3.8 5 -7.6 7 -3.8"/>
</defs>
<use x="597.70" y="155.00" xlink:href="#Hd"/>
<path d="M601.20 155.00v-21.00" class="stroke"/>
<use x="649.80" y="143.00" xlink:href="#Hd"/>
<path d="M653.30 143.00v-21.00" class="stroke"/>
</g>
<g stroke-width="0.70" style="font:20.00px Times">
<path class="stroke" stroke-width="1"
	d="M60.00 225.00v-24.00"/>
<path class="stroke" stroke-width="1"
	d="M57.00 225.00v-24.00"/>
<path class="stroke" stroke-width="1"
	d="M210.50 225.00v-24.00"/>
<path class="stroke" stroke-width="1"
	d="M369.00 225.00v-24.00"/>
<path class="stroke" stroke-width="1"
	d="M516.60 225.00v-24.00"/>
<path class="stroke" stroke-width="1"
	d="M691.60 225.00v-24.00"/>
<path d="m10.00 225.00
	h681.60
	M10.00 219.00
	h681.60
	M10.00 213.00
	h681.60
	M10.00 207.00
	h681.60
	M10.00 201.00
	h681.60
	" class="stroke"/>
<text style="font:italic 12px serif"
	x="660.70" y="244.70" text-anchor="middle">3</text>
<use x="22.00" y="219.00" xlink:href="#tclef"/>
<use x="37.00" y="201.00" xlink:href="#sh0"/>
<use x="42.50" y="210.00" xlink:href="#sh0"/>
<use x="72.50" y="204.00" xlink:href="#hd"/>
<path d="M69.00 204.00v21.00" class="stroke"/>
<use x="103.90" y="204.00" xlink:href="#hd"/>
<path d="M100.40 204.00v21.00" class="stroke"/>
<path class="fill"
	d="M131.50 235.00l24.00 -4.10v-3.20l-24.00 4.10"/>
<path class="fill"
	d="M148.20 227.20l7.00 -1.20v-3.20l-7.00 1.20"/>
<use x="135.30" y="213.00" xlink:href="#hd"/>
<circle class="fill" cx="143.00" cy="210.00" r="1.2"/>
<path d="M131.80 213.00v21.00" class="stroke"/>
<use x="158.70" y="207.00" xlink:href="#hd"/>
<path d="M155.20 207.00v23.00" class="stroke"/>
<path class="fill"
	d="M170.80 226.70l24.00 -2.50v-3.20l-24.00 2.50"/>
<path class="fill"
	d="M187.50 220.00l7.00 -0.70v-3.20l-7.00 0.70"/>
<use x="174.70" y="204.00" xlink:href="#hd"/>
<circle class="fill" cx="182.40" cy="204.00" r="1.2"/>
<path d="M171.20 204.00v21.70" class="stroke"/>
<use x="198.00" y="201.00" xlink:href="#hd"/>
<path d="M194.50 201.00v22.30" class="stroke"/>
<path class="fill"
	d="M219.20 220.70l24.00 -2.50v-3.20l-24.00 2.50"/>
<path class="fill"
	d="M235.90 214.00l7.00 -0.70v-3.20l-7.00 0.70"/>
<use x="223.00" y="198.00" xlink:href="#hd"/>
<circle class="fill" cx="230.70" cy="198.00" r="1.2"/>
<path d="M219.50 198.00v21.70" class="stroke"/>
<defs>
<path id="hl" class="stroke" d="m-6 0h12"/>
</defs>
<use x="246.40" y="195.00" xlink:href="#hl"/>
<use x="246.40" y="195.00" xlink:href="#hd"/>
<path d="M242.90 195.00v22.30" class="stroke"/>
<path class="fill"
	d="M258.50 221.30l24.00 2.50v-3.20l-24.00 -2.50"/>
<path class="fill"
	d="M275.30 218.00l7.00 0.70v-3.20l-7.00 -0.70"/>
<use x="262.40" y="198.00" xlink:href="#hd"/>
<circle class="fill" cx="270.10" cy="198.00" r="1.2"/>
<path d="M258.90 198.00v22.30" class="stroke"/>
<use x="285.80" y="201.00" xlink:href="#hd"/>
<path d="M282.30 201.00v21.70" class="stroke"/>
<use x="301.70" y="204.00" xlink:href="#hd"/>
<path d="M298.20 204.00v21.00" class="stroke"/>
<path class="fill"
	d="M329.30 226.70l24.00 -2.50v-3.20l-24.00 2.50"/>
<path class="fill"
	d="M346.00 220.00l7.00 -0.70v-3.20l-7.00 0.70"/>
<use x="333.10" y="204.00" xlink:href="#hd"/>
<circle class="fill" cx="340.80" cy="204.00" r="1.2"/>
<path d="M329.60 204.00v21.70" class="stroke"/>
<use x="356.50" y="201.00" xlink:href="#hd"/>
<path d="M353.00 201.00v22.30" class="stroke"/>
<use x="381.50" y="204.00" xlink:href="#hd"/>
<path d="M378.00 204.00v21.00" class="stroke"/>
<use x="412.90" y="213.00" xlink:href="#hd"/>
<path d="M409.40 213.00v21.00" class="stroke"/>
<path class="fill"
	d="M444.40 191.30l24.00 2.50v3.20l-24.00 -2.50"/>
<path class="fill"
	d="M461.10 198.00l7.00 0.70v3.20l-7.00 -0.70"/>
<use x="441.30" y="213.00" xlink:href="#hd"/>
<circle class="fill" cx="449.00" cy="210.00" r="1.2"/>
<path d="M444.80 213.00v-20.70" class="stroke"/>
<use x="464.60" y="216.00" xlink:href="#hd"/>
<path d="M468.10 216.00v-21.30" class="stroke"/>
<path class="fill"
	d="M476.90 235.70l24.00 -2.50v-3.20l-24.00 2.50"/>
<path class="fill"
	d="M493.60 229.00l7.00 -0.70v-3.20l-7.00 0.70"/>
<use x="480.80" y="213.00" xlink:href="#hd"/>
<circle class="fill" cx="488.50" cy="210.00" r="1.2"/>
<path d="M477.30 213.00v21.70" class="stroke"/>
<use x="504.10" y="210.00" xlink:href="#hd"/>
<path d="M500.60 210.00v22.30" class="stroke"/>
<path class="fill"
	d="M525.30 229.70l24.00 -2.50v-3.20l-24.00 2.50"/>
<path class="fill"
	d="M542.00 223.00l7.00 -0.70v-3.20l-7.00 0.70"/>
<use x="529.10" y="207.00" xlink:href="#hd"/>
<circle class="fill" cx="536.80" cy="204.00" r="1.2"/>
<path d="M525.60 207.00v21.70" class="stroke"/>
<use x="552.50" y="204.00" xlink:href="#hd"/>
<path d="M549.00 204.00v22.30" class="stroke"/>
<path class="fill"
	d="M564.60 230.30l24.00 2.50v-3.20l-24.00 -2.50"/>
<path class="fill"
	d="M581.30 227.00l7.00 0.70v-3.20l-7.00 -0.70"/>
<use x="568.50" y="207.00" xlink:href="#hd"/>
<circle class="fill" cx="576.20" cy="204.00" r="1.2"/>
<path d="M565.00 207.00v22.30" class="stroke"/>
<use x="591.80" y="210.00" xlink:href="#hd"/>
<path d="M588.30 210.00v21.70" class="stroke"/>
<path class="fill"
	d="M604.00 235.70l24.00 -2.50v-3.20l-24.00 2.50"/>
<path class="fill"
	d="M620.70 229.00l7.00 -0.70v-3.20l-7.00 0.70"/>
<use x="607.80" y="213.00" xlink:href="#hd"/>
<circle class="fill" cx="615.50" cy="210.00" r="1.2"/>
<path d="M604.30 213.00v21.70" class="stroke"/>
<use x="631.20" y="210.00" xlink:href="#hd"/>
<path d="M627.70 210.00v22.30" class="stroke"/>
<path class="fill"
	d="M643.30 228.80l32.40 4.40v-3.20l-32.40 -4.40"/>
<use x="647.20" y="207.00" xlink:href="#hd"/>
<path d="M643.70 207.00v20.80" class="stroke"/>
<use x="663.00" y="210.00" xlink:href="#hd"/>
<path d="M659.50 210.00v20.00" class="stroke"/>
<use x="678.90" y="213.00" xlink:href="#hd"/>
<path d="M675.40 213.00v19.20" class="stroke"/>
</g>
<g stroke-width="0.70" style="font:20.00px Times">
<path class="stroke" stroke-width="1"
	d="M212.80 295.00v-24.00"/>
<path class="stroke" stroke-width="1"
	d="M394.20 295.00v-24.00"/>
<path class="stroke" stroke-width="1"
	d="M586.30 295.00v-24.00"/>
<path class="stroke" stroke-width="1"
	d="M691.60 295.00v-24.00"/>
<path d="m10.00 295.00
	h681.60
	M10.00 289.00
	h681.60
	M10.00 283.00
	h681.60
	M10.00 277.00
	h681.60
	M10.00 271.00
	h681.60
	" class="stroke"/>
<text style="font:italic 12px serif"
	x="552.60" y="309.30" text-anchor="middle">3</text>
<use x="22.00" y="289.00" xlink:href="#tclef"/>
<use x="37.00" y="271.00" xlink:href="#sh0"/>
<use x="42.50" y="280.00" xlink:href="#sh0"/>
<use x="60.50" y="274.00" xlink:href="#hd"/>
<path d="M57.00 274.00v21.00" class="stroke"/>
<use x="95.80" y="274.00" xlink:href="#hd"/>
<path d="M92.30 274.00v21.00" class="stroke"/>
<path class="fill"
	d="M127.20 305.10l26.40 -4.20v-3.20l-26.40 4.20"/>
<path class="fill"
	d="M146.30 297.10l7.00 -1.10v-3.20l-7.00 1.10"/>
<use x="131.00" y="283.00" xlink:href="#hd"/>
<circle class="fill" cx="138.70" cy="280.00" r="1.2"/>
<path d="M127.50 283.00v21.00" class="stroke"/>
<use x="156.80" y="277.00" xlink:href="#hd"/>
<path d="M153.30 277.00v23.00" class="stroke"/>
<path class="fill"
	d="M170.70 296.70l26.40 -2.50v-3.20l-26.40 2.50"/>
<path class="fill"
	d="M189.70 289.90l7.00 -0.70v-3.20l-7.00 0.70"/>
<use x="174.50" y="274.00" xlink:href="#hd"/>
<circle class="fill" cx="182.20" cy="274.00" r="1.2"/>
<path d="M171.00 274.00v21.70" class="stroke"/>
<use x="200.20" y="271.00" xlink:href="#hd"/>
<path d="M196.70 271.00v22.30" class="stroke"/>
<path class="fill"
	d="M221.60 290.70l26.40 -2.50v-3.20l-26.40 2.50"/>
<path class="fill"
	d="M240.70 283.90l7.00 -0.70v-3.20l-7.00 0.70"/>
<use x="225.50" y="268.00" xlink:href="#hd"/>
<circle class="fill" cx="233.20" cy="268.00" r="1.2"/>
<path d="M222.00 268.00v21.70" class="stroke"/>
<use x="251.20" y="265.00" xlink:href="#hl"/>
<use x="251.20" y="265.00" xlink:href="#hd"/>
<path d="M247.70 265.00v22.30" class="stroke"/>
<path class="fill"
	d="M265.10 291.30l26.40 2.50v-3.20l-26.40 -2.50"/>
<path class="fill"
	d="M284.20 288.10l7.00 0.70v-3.20l-7.00 -0.70"/>
<use x="268.90" y="268.00" xlink:href="#hd"/>
<circle class="fill" cx="276.60" cy="268.00" r="1.2"/>
<path d="M265.40 268.00v22.30" class="stroke"/>
<use x="294.70" y="271.00" xlink:href="#hd"/>
<path d="M291.20 271.00v21.70" class="stroke"/>
<path class="fill"
	d="M308.60 296.70l26.40 -2.50v-3.20l-26.40 2.50"/>
<path class="fill"
	d="M327.70 289.90l7.00 -0.70v-3.20l-7.00 0.70"/>
<use x="312.40" y="274.00" xlink:href="#hd"/>
<circle class="fill" cx="320.10" cy="274.00" r="1.2"/>
<path d="M308.90 274.00v21.70" class="stroke"/>
<use x="338.20" y="271.00" xlink:href="#hd"/>
<path d="M334.70 271.00v22.30" class="stroke"/>
<path class="fill"
	d="M352.00 297.30l26.40 2.50v-3.20l-26.40 -2.50"/>
<path class="fill"
	d="M371.10 294.10l7.00 0.70v-3.20l-7.00 -0.70"/>
<use x="355.90" y="274.00" xlink:href="#hd"/>
<circle class="fill" cx="363.60" cy="274.00" r="1.2"/>
<path d="M352.40 274.00v22.30" class="stroke"/>
<use x="381.60" y="277.00" xlink:href="#hd"/>
<path d="M378.10 277.00v21.70" class="stroke"/>
<path class="fill"
	d="M403.00 305.10l26.40 -4.20v-3.20l-26.40 4.20"/>
<path class="fill"
	d="M422.10 297.10l7.00 -1.10v-3.20l-7.00 1.10"/>
<use x="406.80" y="283.00" xlink:href="#hd"/>
<circle class="fill" cx="414.50" cy="280.00" r="1.2"/>
<path d="M403.30 283.00v21.00" class="stroke"/>
<use x="432.60" y="277.00" xlink:href="#hd"/>
<path d="M429.10 277.00v23.00" class="stroke"/>
<path class="fill"
	d="M446.50 296.10l26.40 -4.20v-3.20l-26.40 4.20"/>
<path class="fill"
	d="M465.60 288.10l7.00 -1.10v-3.20l-7.00 1.10"/>
<use x="450.30" y="274.00" xlink:href="#hd"/>
<circle class="fill" cx="458.00" cy="274.00" r="1.2"/>
<path d="M446.80 274.00v21.00" class="stroke"/>
<use x="476.10" y="268.00" xlink:href="#hd"/>
<path d="M472.60 268.00v23.00" class="stroke"/>
<path class="fill"
	d="M490.00 294.30l26.40 2.50v-3.20l-26.40 -2.50"/>
<path class="fill"
	d="M509.10 291.10l7.00 0.70v-3.20l-7.00 -0.70"/>
<use x="493.80" y="271.00" xlink:href="#hd"/>
<circle class="fill" cx="501.50" cy="268.00" r="1.2"/>
<path d="M490.30 271.00v22.30" class="stroke"/>
<use x="519.60" y="274.00" xlink:href="#hd"/>
<path d="M516.10 274.00v21.70" class="stroke"/>
<path class="fill"
	d="M533.40 297.30l35.90 -4.60v-3.20l-35.90 4.60"/>
<use x="537.30" y="277.00" xlink:href="#hd"/>
<path d="M533.80 277.00v19.20" class="stroke"/>
<use x="554.90" y="274.00" xlink:href="#hd"/>
<path d="M551.40 274.00v20.00" class="stroke"/>
<use x="572.50" y="271.00" xlink:href="#hd"/>
<path d="M569.00 271.00v20.80" class="stroke"/>
<use x="599.30" y="274.00" xlink:href="#Hd"/>
<circle class="fill" cx="608.00" cy="274.00" r="1.2"/>
<path d="M595.80 274.00v21.00" class="stroke"/>
<defs>
<path id="r8e" class="fill" d="m 0 0
	c-1.5 1.5 -2.4 2 -3.6 2
	2.4 -2.8 -2.8 -4 -2.8 -1.2
	c0 2.7 4.3 2.4 5.9 0.6"/>
<g id="r8">
	<path d="m3.3 -4l-3.4 9.6" class="stroke"/>
	<use x="3.4" y="-4" xlink:href="#r8e"/>
</g>
</defs>
<use x="650.50" y="283.00" xlink:href="#r8"/>
<circle class="fill" cx="658.50" cy="280.00" r="1.2"/>
<use x="679.10" y="271.00" xlink:href="#hd"/>
<path d="M675.60 271.00v23.00" class="stroke"/>
<path class="fill"
	d="M675.60 294.00c0.9 -3.7 9.1 -6.4 6 -12.4
	1 5.4 -4.2 8.4 -6 8.4
M675.60 288.60c0.9 -3.7 9.1 -6.4 6 -12.4
	1 5.4 -4.2 8.4 -6 8.4
"/>
</g>
<g stroke-width="0.70" style="font:20.00px Times">
<path class="stroke" stroke-width="1"
	d="M199.60 365.00v-24.00"/>
<path class="stroke" stroke-width="1"
	d="M359.30 365.00v-24.00"/>
<path class="stroke" stroke-width="1"
	d="M525.50 365.00v-24.00"/>
<path class="stroke" stroke-width="1"
	d="M691.60 365.00v-24.00"/>
<path d="m10.00 365.00
	h681.60
	M10.00 359.00
	h681.60
	M10.00 353.00
	h681.60
	M10.00 347.00
	h681.60
	M10.00 341.00
	h681.60
	" class="stroke"/>
<use x="22.00" y="359.00" xlink:href="#tclef"/>
<use x="37.00" y="341.00" xlink:href="#sh0"/>
<use x="42.50" y="350.00" xlink:href="#sh0"/>
<use x="60.50" y="338.00" xlink:href="#hd"/>
<path d="M57.00 338.00v21.00" class="stroke"/>
<path class="fill"
	d="M88.30 362.20l24.30 4.10v-3.20l-24.30 -4.10"/>
<path class="fill"
	d="M105.30 360.00l7.00 1.20v-3.20l-7.00 -1.20"/>
<use x="92.20" y="338.00" xlink:href="#hd"/>
<circle class="fill" cx="99.90" cy="338.00" r="1.2"/>
<path d="M88.70 338.00v23.20" class="stroke"/>
<use x="115.80" y="344.00" xlink:href="#hd"/>
<path d="M112.30 344.00v21.20" class="stroke"/>
<use x="131.90" y="341.00" xlink:href="#hd"/>
<path d="M128.40 341.00v21.00" class="stroke"/>
<path class="fill"
	d="M159.70 365.20l24.30 4.10v-3.20l-24.30 -4.10"/>
<path class="fill"
	d="M176.60 363.00l7.00 1.20v-3.20l-7.00 -1.20"/>
<use x="163.60" y="341.00" xlink:href="#hd"/>
<circle class="fill" cx="171.30" cy="338.00" r="1.2"/>
<path d="M160.10 341.00v23.20" class="stroke"/>
<use x="187.10" y="347.00" xlink:href="#hd"/>
<path d="M183.60 347.00v21.20" class="stroke"/>
<path class="fill"
	d="M208.30 367.30l24.30 2.50v-3.20l-24.30 -2.50"/>
<path class="fill"
	d="M225.20 364.00l7.00 0.70v-3.20l-7.00 -0.70"/>
<use x="212.10" y="344.00" xlink:href="#hd"/>
<circle class="fill" cx="219.80" cy="344.00" r="1.2"/>
<path d="M208.60 344.00v22.30" class="stroke"/>
<use x="235.70" y="347.00" xlink:href="#hd"/>
<path d="M232.20 347.00v21.70" class="stroke"/>
<path class="fill"
	d="M248.00 375.70l24.30 -2.50v-3.20l-24.30 2.50"/>
<path class="fill"
	d="M264.90 369.00l7.00 -0.70v-3.20l-7.00 0.70"/>
<use x="251.80" y="353.00" xlink:href="#hd"/>
<circle class="fill" cx="259.50" cy="350.00" r="1.2"/>
<path d="M248.30 353.00v21.70" class="stroke"/>
<use x="275.40" y="350.00" xlink:href="#hd"/>
<path d="M271.90 350.00v22.30" class="stroke"/>
<use x="291.50" y="347.00" xlink:href="#hd"/>
<path d="M288.00 347.00v21.00" class="stroke"/>
<path class="fill"
	d="M319.40 369.70l24.30 -2.50v-3.20l-24.30 2.50"/>
<path class="fill"
	d="M336.30 363.00l7.00 -0.70v-3.20l-7.00 0.70"/>
<use x="323.20" y="347.00" xlink:href="#hd"/>
<circle class="fill" cx="330.90" cy="344.00" r="1.2"/>
<path d="M319.70 347.00v21.70" class="stroke"/>
<use x="346.80" y="344.00" xlink:href="#hd"/>
<path d="M343.30 344.00v22.30" class="stroke"/>
<path class="fill"
	d="M367.90 371.20l24.30 4.10v-3.20l-24.30 -4.10"/>
<path class="fill"
	d="M384.80 369.00l7.00 1.20v-3.20l-7.00 -1.20"/>
<use x="371.80" y="347.00" xlink:href="#hd"/>
<circle class="fill" cx="379.50" cy="344.00" r="1.2"/>
<path d="M368.30 347.00v23.20" class="stroke"/>
<use x="395.30" y="353.00" xlink:href="#hd"/>
<path d="M391.80 353.00v21.20" class="stroke"/>
<path class="fill"
	d="M413.10 335.00l24.30 4.10v3.20l-24.30 -4.10"/>
<path class="fill"
	d="M430.00 342.80l7.00 1.20v3.20l-7.00 -1.20"/>
<use x="409.90" y="356.00" xlink:href="#hd"/>
<circle class="fill" cx="417.60" cy="356.00" r="1.2"/>
<path d="M413.40 356.00v-20.00" class="stroke"/>
<use x="433.50" y="362.00" xlink:href="#hd"/>
<path d="M437.00 362.00v-22.00" class="stroke"/>
<path class="fill"
	d="M452.80 336.20l24.30 -2.50v3.20l-24.30 2.50"/>
<path class="fill"
	d="M469.70 339.50l7.00 -0.70v3.20l-7.00 0.70"/>
<use x="449.60" y="359.00" xlink:href="#hd"/>
<circle class="fill" cx="457.30" cy="356.00" r="1.2"/>
<path d="M453.10 359.00v-21.80" class="stroke"/>
<use x="473.20" y="356.00" xlink:href="#hd"/>
<path d="M476.70 356.00v-21.20" class="stroke"/>
<path class="fill"
	d="M485.60 375.70l24.30 -2.50v-3.20l-24.30 2.50"/>
<path class="fill"
	d="M502.50 369.00l7.00 -0.70v-3.20l-7.00 0.70"/>
<use x="489.40" y="353.00" xlink:href="#hd"/>
<circle class="fill" cx="497.10" cy="350.00" r="1.2"/>
<path d="M485.90 353.00v21.70" class="stroke"/>
<use x="513.00" y="350.00" xlink:href="#hd"/>
<path d="M509.50 350.00v22.30" class="stroke"/>
<path class="fill"
	d="M534.20 371.20l24.30 4.10v-3.20l-24.30 -4.10"/>
<path class="fill"
	d="M551.10 369.00l7.00 1.20v-3.20l-7.00 -1.20"/>
<use x="538.00" y="347.00" xlink:href="#hd"/>
<circle class="fill" cx="545.70" cy="344.00" r="1.2"/>
<path d="M534.50 347.00v23.20" class="stroke"/>
<use x="561.60" y="353.00" xlink:href="#hd"/>
<path d="M558.10 353.00v21.20" class="stroke"/>
<path class="fill"
	d="M579.30 335.00l24.30 4.10v3.20l-24.30 -4.10"/>
<path class="fill"
	d="M596.20 342.80l7.00 1.20v3.20l-7.00 -1.20"/>
<use x="576.10" y="356.00" xlink:href="#hd"/>
<circle class="fill" cx="583.80" cy="356.00" r="1.2"/>
<path d="M579.60 356.00v-20.00" class="stroke"/>
<use x="599.70" y="362.00" xlink:href="#hd"/>
<path d="M603.20 362.00v-22.00" class="stroke"/>
<path class="fill"
	d="M619.00 337.30l24.30 2.50v3.20l-24.30 -2.50"/>
<path class="fill"
	d="M635.90 344.00l7.00 0.70v3.20l-7.00 -0.70"/>
<use x="615.80" y="359.00" xlink:href="#hd"/>
<circle class="fill" cx="623.50" cy="356.00" r="1.2"/>
<path d="M619.30 359.00v-20.70" class="stroke"/>
<use x="639.40" y="362.00" xlink:href="#hd"/>
<path d="M642.90 362.00v-21.30" class="stroke"/>
<path class="fill"
	d="M658.70 343.30l24.30 2.50v3.20l-24.30 -2.50"/>
<path class="fill"
	d="M675.60 350.00l7.00 0.70v3.20l-7.00 -0.70"/>
<use x="655.50" y="365.00" xlink:href="#hd"/>
<circle class="fill" cx="663.20" cy="362.00" r="1.2"/>
<path d="M659.00 365.00v-20.70" class="stroke"/>
<use x="679.10" y="368.00" xlink:href="#hd"/>
<path d="M682.60 368.00v-21.30" class="stroke"/>
</g>
<g stroke-width="0.70" style="font:20.00px Times">
<path class="stroke" stroke-width="1"
	d="M248.90 435.00v-24.00"/>
<path class="stroke" stroke-width="1"
	d="M433.50 435.00v-24.00"/>
<path class="stroke" stroke-width="1"
	d="M614.10 435.00v-24.00"/>
<path class="stroke" stroke-width="1"
	d="M691.60 435.00v-24.00"/>
<path class="stroke" stroke-width="1"
	d="M688.60 435.00v-24.00"/>
<path d="m10.00 435.00
	h681.60
	M10.00 429.00
	h681.60
	M10.00 423.00
	h681.60
	M10.00 417.00
	h681.60
	M10.00 411.00
	h681.60
	" class="stroke"/>
<use x="22.00" y="429.00" xlink:href="#tclef"/>
<use x="37.00" y="411.00" xlink:href="#sh0"/>
<use x="42.50" y="420.00" xlink:href="#sh0"/>
<path class="fill"
	d="M63.70 403.70l29.40 6.70v3.20l-29.40 -6.70"/>
<path class="fill"
	d="M85.70 413.70l7.00 1.60v3.20l-7.00 -1.60"/>
<use x="60.50" y="423.00" xlink:href="#hd"/>
<circle class="fill" cx="68.20" cy="420.00" r="1.2"/>
<path d="M64.00 423.00v-18.30" class="stroke"/>
<use x="89.20" y="435.00" xlink:href="#hd"/>
<path d="M92.70 435.00v-23.70" class="stroke"/>
<path class="fill"
	d="M112.20 413.20l29.40 2.50v3.20l-29.40 -2.50"/>
<path class="fill"
	d="M134.30 420.10l7.00 0.60v3.20l-7.00 -0.60"/>
<use x="109.10" y="435.00" xlink:href="#hd"/>
<circle class="fill" cx="116.80" cy="432.00" r="1.2"/>
<path d="M112.60 435.00v-20.70" class="stroke"/>
<use x="137.80" y="438.00" xlink:href="#hd"/>
<path d="M141.30 438.00v-21.30" class="stroke"/>
<path class="fill"
	d="M160.80 412.30l29.40 -2.50v3.20l-29.40 2.50"/>
<path class="fill"
	d="M182.90 415.40l7.00 -0.60v3.20l-7.00 0.60"/>
<use x="157.70" y="435.00" xlink:href="#hd"/>
<circle class="fill" cx="165.40" cy="432.00" r="1.2"/>
<path d="M161.20 435.00v-21.70" class="stroke"/>
<use x="186.40" y="432.00" xlink:href="#hd"/>
<path d="M189.90 432.00v-21.20" class="stroke"/>
<path class="fill"
	d="M209.40 406.30l29.40 -2.50v3.20l-29.40 2.50"/>
<path class="fill"
	d="M231.50 409.40l7.00 -0.60v3.20l-7.00 0.60"/>
<use x="206.20" y="429.00" xlink:href="#hd"/>
<circle class="fill" cx="213.90" cy="426.00" r="1.2"/>
<path d="M209.70 429.00v-21.70" class="stroke"/>
<use x="235.00" y="426.00" xlink:href="#hd"/>
<path d="M238.50 426.00v-21.20" class="stroke"/>
<use x="262.90" y="423.00" xlink:href="#hd"/>
<path d="M266.40 423.00v-21.00" class="stroke"/>
<use x="302.60" y="414.00" xlink:href="#hd"/>
<path d="M299.10 414.00v21.00" class="stroke"/>
<path class="fill"
	d="M338.40 437.20l29.40 2.50v-3.20l-29.40 -2.50"/>
<path class="fill"
	d="M360.50 434.10l7.00 0.60v-3.20l-7.00 -0.60"/>
<use x="342.30" y="414.00" xlink:href="#hd"/>
<circle class="fill" cx="350.00" cy="414.00" r="1.2"/>
<path d="M338.80 414.00v22.30" class="stroke"/>
<use x="371.00" y="417.00" xlink:href="#hd"/>
<path d="M367.50 417.00v21.70" class="stroke"/>
<path class="fill"
	d="M387.00 436.80l29.40 -2.50v-3.20l-29.40 2.50"/>
<path class="fill"
	d="M409.10 429.90l7.00 -0.60v-3.20l-7.00 0.60"/>
<use x="390.80" y="414.00" xlink:href="#hd"/>
<circle class="fill" cx="398.50" cy="414.00" r="1.2"/>
<path d="M387.30 414.00v21.70" class="stroke"/>
<use x="419.60" y="411.00" xlink:href="#hd"/>
<path d="M416.10 411.00v22.30" class="stroke"/>
<use x="447.50" y="414.00" xlink:href="#hd"/>
<path d="M444.00 414.00v21.00" class="stroke"/>
<use x="487.20" y="423.00" xlink:href="#hd"/>
<path d="M483.70 423.00v21.00" class="stroke"/>
<path class="fill"
	d="M526.00 401.20l29.40 2.50v3.20l-29.40 -2.50"/>
<path class="fill"
	d="M548.10 408.10l7.00 0.60v3.20l-7.00 -0.60"/>
<use x="522.90" y="423.00" xlink:href="#hd"/>
<circle class="fill" cx="530.60" cy="420.00" r="1.2"/>
<path d="M526.40 423.00v-20.70" class="stroke"/>
<use x="551.60" y="426.00" xlink:href="#hd"/>
<path d="M555.10 426.00v-21.30" class="stroke"/>
<path class="fill"
	d="M574.60 407.20l29.40 2.50v3.20l-29.40 -2.50"/>
<path class="fill"
	d="M596.70 414.10l7.00 0.60v3.20l-7.00 -0.60"/>
<use x="571.50" y="429.00" xlink:href="#hd"/>
<circle class="fill" cx="579.20" cy="426.00" r="1.2"/>
<path d="M575.00 429.00v-20.70" class="stroke"/>
<use x="600.20" y="432.00" xlink:href="#hd"/>
<path d="M603.70 432.00v-21.30" class="stroke"/>
<defs>
<path id="HD" class="fill" d="m-2.7 -1.4
	c1.5 -2.8 6.9 0 5.3 2.7
	-1.5 2.8 -6.9 0 -5.3 -2.7
	m8.3 1.4
	c0 -1.5 -2.2 -3 -5.6 -3
	-3.4 0 -5.6 1.5 -5.6 3
	0 1.5 2.2 3 5.6 3
	3.4 0 5.6 -1.5 5.6 -3"/>
</defs>
<use x="629.10" y="435.00" xlink:href="#HD"/>
</g>
</svg>
