<?xml version="1.0" standalone="no"?>
<!DOCTYPE svg PUBLIC "-//W3C//DTD SVG 1.1//EN"
	"http://www.w3.org/Graphics/SVG/1.1/DTD/svg11.dtd">
<svg xmlns="http://www.w3.org/2000/svg" version="1.1"
	xmlns:xlink="http://www.w3.org/1999/xlink"
	color="black"
	width="701.60px" height="342.00px">
<style type="text/css">
.fill {fill: currentColor}
.stroke {stroke: currentColor; fill: none}
text{white-space: pre}
</style>
<title>/media/tim/Data1/tims_code/sphinx-tunes/source/_abcfiles/le_petit_chien. (1) tune 1</title>
<!-- Creator: abcm2ps-8.14.6 -->
<!-- CreationDate: Jul 30, 2023 12:21 -->
<!-- CommandLine: -g /media/tim/Data1/tims_code/sphinx-tunes/source/_abcfiles/le_petit_chien.abc -O /media/tim/Data1/tims_code/sphinx-tunes/source/_abcfiles/le_petit_chien.svg -->
<g stroke-width="0.70">
<!-- title: Le Petit Chien -->
</g>
<g stroke-width="0.70" style="font:20.00px Times">
<text x="350.80" y="22.00" text-anchor="middle">Le Petit Chien</text>
</g>
<g stroke-width="0.70" style="font:italic 14.00px Times">
<text x="691.60" y="46.00" text-anchor="end">Andy Cutting</text>
</g>
<g stroke-width="0.70" style="font:italic 14.00px Times">
<path class="stroke" stroke-width="1"
	d="M229.10 99.00v-24.00"/>
<path class="stroke" stroke-width="1"
	d="M396.50 99.00v-24.00"/>
<path class="stroke" stroke-width="1"
	d="M552.40 99.00v-24.00"/>
<path class="stroke" stroke-width="1"
	d="M691.60 99.00v-24.00"/>
<path d="m10.00 99.00
	h681.60
	M10.00 93.00
	h681.60
	M10.00 87.00
	h681.60
	M10.00 81.00
	h681.60
	M10.00 75.00
	h681.60
	" class="stroke"/>
<defs>
<path id="utclef" class="fill" d="m-50 -90
	c-72 -41 -72 -158 52 -188
	150 -10 220 188 90 256
	-114 52 -275 0 -293 -136
	-15 -181 93 -229 220 -334
	88 -87 79 -133 62 -210
	-51 33 -94 105 -89 186
	17 267 36 374 49 574
	6 96 -19 134 -77 135
	-80 1 -126 -93 -61 -133
	85 -41 133 101 31 105
	23 17 92 37 90 -92
	-10 -223 -39 -342 -50 -617
	0 -90 0 -162 96 -232
	56 72 63 230 22 289
	-74 106 -257 168 -255 316
	9 153 148 185 252 133
	86 -65 29 -192 -80 -176
	-71 12 -105 67 -59 124"/>
<use id="tclef" transform="translate(0,6) scale(0.045)"
	xlink:href="#utclef"/>
</defs>
<use x="22.00" y="93.00" xlink:href="#tclef"/>
<defs>
<path id="usharp" class="fill" d="
	m136 -702
	v890
	h32
	v-890
	m128 840
	h32
	v-888
	h-32
	m-232 286
	v116
	l338 -96
	v-116
	m-338 442
	v116
	l338 -98
	v-114"/>
<use id="sh0" transform="translate(-4,5) scale(0.018)"
	xlink:href="#usharp"/>
</defs>
<use x="37.00" y="75.00" xlink:href="#sh0"/>
<use x="42.50" y="84.00" xlink:href="#sh0"/>
<g style="font:bold 16px serif"
	transform="translate(58.50,98.50) scale(1.2,1)">
	<text text-anchor="middle">2</text>
	<text y="-12" text-anchor="middle">2</text>
</g>
<defs>
<ellipse id="hd" rx="4.1" ry="2.9"
	transform="rotate(-20)" class="fill"/>
</defs>
<use x="76.50" y="87.00" xlink:href="#hd"/>
<path d="M73.00 87.00v21.00" class="stroke"/>
<path class="fill"
	d="M105.10 107.70l21.40 -2.40v-3.20l-21.40 2.40"/>
<use x="108.90" y="87.00" xlink:href="#hd"/>
<path d="M105.40 87.00v19.70" class="stroke"/>
<use x="129.70" y="84.00" xlink:href="#hd"/>
<path d="M126.20 84.00v20.30" class="stroke"/>
<path class="fill"
	d="M153.60 67.80l63.00 0.00v3.20l-63.00 -0.00"/>
<use x="150.40" y="87.00" xlink:href="#hd"/>
<path d="M153.90 87.00v-18.20" class="stroke"/>
<use x="171.20" y="90.00" xlink:href="#hd"/>
<path d="M174.70 90.00v-21.20" class="stroke"/>
<use x="191.90" y="96.00" xlink:href="#hd"/>
<path d="M195.40 96.00v-27.20" class="stroke"/>
<use x="212.70" y="90.00" xlink:href="#hd"/>
<path d="M216.20 90.00v-21.20" class="stroke"/>
<use x="241.60" y="87.00" xlink:href="#hd"/>
<path d="M245.10 87.00v-21.00" class="stroke"/>
<path class="fill"
	d="M277.10 68.70l21.40 -2.40v3.20l-21.40 2.40"/>
<use x="274.00" y="90.00" xlink:href="#hd"/>
<path d="M277.50 90.00v-20.30" class="stroke"/>
<use x="294.70" y="87.00" xlink:href="#hd"/>
<path d="M298.20 87.00v-19.70" class="stroke"/>
<path class="fill"
	d="M314.00 103.00l63.00 7.10v-3.20l-63.00 -7.10"/>
<use x="317.90" y="81.00" xlink:href="#hd"/>
<path d="M314.40 81.00v21.00" class="stroke"/>
<use x="338.60" y="84.00" xlink:href="#hd"/>
<path d="M335.10 84.00v20.30" class="stroke"/>
<use x="359.40" y="87.00" xlink:href="#hd"/>
<path d="M355.90 87.00v19.70" class="stroke"/>
<use x="380.10" y="90.00" xlink:href="#hd"/>
<path d="M376.60 90.00v19.00" class="stroke"/>
<use x="409.00" y="78.00" xlink:href="#hd"/>
<path d="M405.50 78.00v21.00" class="stroke"/>
<use x="441.40" y="78.00" xlink:href="#hd"/>
<path d="M437.90 78.00v21.00" class="stroke"/>
<path class="fill"
	d="M470.00 103.00l63.00 7.10v-3.20l-63.00 -7.10"/>
<use x="473.80" y="81.00" xlink:href="#hd"/>
<path d="M470.30 81.00v21.00" class="stroke"/>
<use x="494.60" y="84.00" xlink:href="#hd"/>
<path d="M491.10 84.00v20.30" class="stroke"/>
<use x="515.30" y="87.00" xlink:href="#hd"/>
<path d="M511.80 87.00v19.70" class="stroke"/>
<use x="536.10" y="90.00" xlink:href="#hd"/>
<path d="M532.60 90.00v19.00" class="stroke"/>
<path class="fill"
	d="M561.10 101.70l21.40 -2.40v-3.20l-21.40 2.40"/>
<use x="564.90" y="81.00" xlink:href="#hd"/>
<path d="M561.40 81.00v19.70" class="stroke"/>
<use x="585.70" y="78.00" xlink:href="#hd"/>
<path d="M582.20 78.00v20.30" class="stroke"/>
<defs>
<path id="Hd" class="fill" d="m3 -1.6
	c-1 -1.8 -7 1.4 -6 3.2
	1 1.8 7 -1.4 6 -3.2
	m0.5 -0.3
	c2 3.8 -5 7.6 -7 3.8
	-2 -3.8 5 -7.6 7 -3.8"/>
</defs>
<use x="608.70" y="84.00" xlink:href="#Hd"/>
<path d="M605.20 84.00v21.00" class="stroke"/>
<path class="fill"
	d="M650.60 102.30l21.40 2.40v-3.20l-21.40 -2.40"/>
<use x="654.50" y="81.00" xlink:href="#hd"/>
<path d="M651.00 81.00v20.30" class="stroke"/>
<use x="675.20" y="84.00" xlink:href="#hd"/>
<path d="M671.70 84.00v19.70" class="stroke"/>
</g>
<g stroke-width="0.70" style="font:italic 14.00px Times">
<path class="stroke" stroke-width="1"
	d="M178.90 174.00v-24.00"/>
<path class="stroke" stroke-width="1"
	d="M311.80 174.00v-24.00"/>
<path class="stroke" stroke-width="1"
	d="M434.90 174.00v-24.00"/>
<path class="stroke" stroke-width="3"
	d="M550.30 174.00v-24.00"/>
<path class="stroke" stroke-width="1"
	d="M545.80 174.00v-24.00"/>
<defs>
<g id="rdots" class="fill">
	<circle cx="0" cy="-9" r="1.2"/>
	<circle cx="0" cy="-15" r="1.2"/>
</g>
</defs>
<use x="541.80" y="174.00" xlink:href="#rdots"/>
<path class="stroke" stroke-width="1"
	d="M661.80 174.00v-24.00"/>
<path d="m10.00 174.00
	h681.60
	M10.00 168.00
	h681.60
	M10.00 162.00
	h681.60
	M10.00 156.00
	h681.60
	M10.00 150.00
	h681.60
	" class="stroke"/>
<path class="fill"
	d="M466.50 148.80c2.33 -3.14 12.47 -0.26 14.80 4.20
	v-0.21c-2.78 -6.25 -12.03 -9.12 -14.80 -3.99"/>
</g>
<g stroke-width="0.70" style="font:13.00px Times">
<text x="438.90" y="135.40">1</text>
<path class="stroke"
	d="M434.90 124.00m0 20v-20h108.90v20"/>
<text x="555.80" y="135.40">2</text>
<path class="stroke"
	d="M551.80 124.00m0 20v-20h135.80"/>
<use x="22.00" y="168.00" xlink:href="#tclef"/>
<use x="37.00" y="150.00" xlink:href="#sh0"/>
<use x="42.50" y="159.00" xlink:href="#sh0"/>
<use x="60.50" y="162.00" xlink:href="#hd"/>
<path d="M57.00 162.00v21.00" class="stroke"/>
<path class="fill"
	d="M81.00 182.60l16.80 -2.30v-3.20l-16.80 2.30"/>
<use x="84.90" y="162.00" xlink:href="#hd"/>
<path d="M81.40 162.00v19.60" class="stroke"/>
<use x="101.00" y="159.00" xlink:href="#hd"/>
<path d="M97.50 159.00v20.40" class="stroke"/>
<path class="fill"
	d="M120.30 142.80l49.00 0.00v3.20l-49.00 -0.00"/>
<use x="117.10" y="162.00" xlink:href="#hd"/>
<path d="M120.60 162.00v-18.20" class="stroke"/>
<use x="133.20" y="165.00" xlink:href="#hd"/>
<path d="M136.70 165.00v-21.20" class="stroke"/>
<use x="149.30" y="171.00" xlink:href="#hd"/>
<path d="M152.80 171.00v-27.20" class="stroke"/>
<use x="165.40" y="165.00" xlink:href="#hd"/>
<path d="M168.90 165.00v-21.20" class="stroke"/>
<use x="191.40" y="162.00" xlink:href="#hd"/>
<path d="M194.90 162.00v-21.00" class="stroke"/>
<path class="fill"
	d="M218.90 143.60l16.80 -2.30v3.20l-16.80 2.30"/>
<use x="215.80" y="165.00" xlink:href="#hd"/>
<path d="M219.30 165.00v-20.40" class="stroke"/>
<use x="231.90" y="162.00" xlink:href="#hd"/>
<path d="M235.40 162.00v-19.60" class="stroke"/>
<path class="fill"
	d="M246.20 178.20l49.00 6.60v-3.20l-49.00 -6.60"/>
<use x="250.00" y="156.00" xlink:href="#hd"/>
<path d="M246.50 156.00v21.20" class="stroke"/>
<use x="266.10" y="159.00" xlink:href="#hd"/>
<path d="M262.60 159.00v20.40" class="stroke"/>
<use x="282.20" y="162.00" xlink:href="#hd"/>
<path d="M278.70 162.00v19.60" class="stroke"/>
<use x="298.30" y="165.00" xlink:href="#hd"/>
<path d="M294.80 165.00v18.80" class="stroke"/>
<use x="324.30" y="153.00" xlink:href="#hd"/>
<path d="M320.80 153.00v21.00" class="stroke"/>
<use x="348.70" y="153.00" xlink:href="#hd"/>
<path d="M345.20 153.00v21.00" class="stroke"/>
<path class="fill"
	d="M369.30 178.20l49.00 6.60v-3.20l-49.00 -6.60"/>
<use x="373.10" y="156.00" xlink:href="#hd"/>
<path d="M369.60 156.00v21.20" class="stroke"/>
<use x="389.20" y="159.00" xlink:href="#hd"/>
<path d="M385.70 159.00v20.40" class="stroke"/>
<use x="405.30" y="162.00" xlink:href="#hd"/>
<path d="M401.80 162.00v19.60" class="stroke"/>
<use x="421.40" y="165.00" xlink:href="#hd"/>
<path d="M417.90 165.00v18.80" class="stroke"/>
<path class="fill"
	d="M443.60 176.60l16.80 -2.30v-3.20l-16.80 2.30"/>
<use x="447.40" y="156.00" xlink:href="#hd"/>
<path d="M443.90 156.00v19.60" class="stroke"/>
<use x="463.50" y="153.00" xlink:href="#hd"/>
<path d="M460.00 153.00v20.40" class="stroke"/>
<use x="481.30" y="159.00" xlink:href="#Hd"/>
<path d="M477.80 159.00v21.00" class="stroke"/>
<path class="fill"
	d="M511.40 177.40l16.80 2.30v-3.20l-16.80 -2.30"/>
<use x="515.20" y="156.00" xlink:href="#hd"/>
<path d="M511.70 156.00v20.40" class="stroke"/>
<use x="531.30" y="159.00" xlink:href="#hd"/>
<path d="M527.80 159.00v19.60" class="stroke"/>
<path class="fill"
	d="M560.50 176.60l16.80 -2.30v-3.20l-16.80 2.30"/>
<use x="564.30" y="156.00" xlink:href="#hd"/>
<path d="M560.80 156.00v19.60" class="stroke"/>
<use x="580.40" y="153.00" xlink:href="#hd"/>
<path d="M576.90 153.00v20.40" class="stroke"/>
<use x="598.20" y="159.00" xlink:href="#Hd"/>
<path d="M594.70 159.00v21.00" class="stroke"/>
<path class="fill"
	d="M628.30 176.60l16.80 -2.30v-3.20l-16.80 2.30"/>
<use x="632.20" y="156.00" xlink:href="#hd"/>
<path d="M628.70 156.00v19.60" class="stroke"/>
<use x="648.30" y="153.00" xlink:href="#hd"/>
<path d="M644.80 153.00v20.40" class="stroke"/>
<use x="672.80" y="150.00" xlink:href="#sh0"/>
<defs>
<path id="unat" class="fill" d="
	m96 -750
	h-32
	v716
	l32 -8
	182 -54
	v282
	h32
	v-706
	l-34 10
	-180 50
	v-290
	m0 592
	v-190
	l182 -52
	v188"/>
<use id="nt0" transform="translate(-3,5) scale(0.018)"
	xlink:href="#unat"/>
</defs>
<use x="680.30" y="159.00" xlink:href="#nt0"/>
</g>
<g stroke-width="0.70" style="font:13.00px Times">
<path class="stroke" stroke-width="1"
	d="M54.50 244.00v-24.00"/>
<path class="stroke" stroke-width="1"
	d="M203.20 244.00v-24.00"/>
<path class="stroke" stroke-width="1"
	d="M366.00 244.00v-24.00"/>
<path class="stroke" stroke-width="1"
	d="M519.90 244.00v-24.00"/>
<path class="stroke" stroke-width="1"
	d="M691.60 244.00v-24.00"/>
<path d="m10.00 244.00
	h681.60
	M10.00 238.00
	h681.60
	M10.00 232.00
	h681.60
	M10.00 226.00
	h681.60
	M10.00 220.00
	h681.60
	" class="stroke"/>
<use x="22.00" y="238.00" xlink:href="#tclef"/>
<use x="37.00" y="220.00" xlink:href="#sh0"/>
<use x="67.00" y="232.00" xlink:href="#hd"/>
<path d="M63.50 232.00v21.00" class="stroke"/>
<use x="98.50" y="232.00" xlink:href="#hd"/>
<path d="M95.00 232.00v21.00" class="stroke"/>
<path class="fill"
	d="M130.00 215.00l61.10 7.00v3.20l-61.10 -7.00"/>
<use x="126.80" y="235.00" xlink:href="#hd"/>
<path d="M130.30 235.00v-19.00" class="stroke"/>
<use x="147.00" y="238.00" xlink:href="#hd"/>
<path d="M150.50 238.00v-19.70" class="stroke"/>
<use x="167.10" y="241.00" xlink:href="#hd"/>
<path d="M170.60 241.00v-20.30" class="stroke"/>
<use x="187.30" y="244.00" xlink:href="#hd"/>
<path d="M190.80 244.00v-21.00" class="stroke"/>
<use x="215.70" y="235.00" xlink:href="#hd"/>
<path d="M219.20 235.00v-21.00" class="stroke"/>
<path class="fill"
	d="M250.30 216.70l20.80 -2.40v3.20l-20.80 2.40"/>
<use x="247.10" y="238.00" xlink:href="#hd"/>
<path d="M250.60 238.00v-20.30" class="stroke"/>
<use x="267.30" y="235.00" xlink:href="#hd"/>
<path d="M270.80 235.00v-19.70" class="stroke"/>
<path class="fill"
	d="M292.80 212.80l61.10 5.00v3.20l-61.10 -5.00"/>
<use x="289.60" y="232.00" xlink:href="#hd"/>
<path d="M293.10 232.00v-18.20" class="stroke"/>
<use x="309.80" y="238.00" xlink:href="#hd"/>
<path d="M313.30 238.00v-22.50" class="stroke"/>
<use x="329.90" y="244.00" xlink:href="#hd"/>
<path d="M333.40 244.00v-26.90" class="stroke"/>
<use x="350.10" y="241.00" xlink:href="#hd"/>
<path d="M353.60 241.00v-22.20" class="stroke"/>
<use x="378.50" y="238.00" xlink:href="#hd"/>
<path d="M382.00 238.00v-21.00" class="stroke"/>
<path class="fill"
	d="M413.10 220.30l20.80 2.40v3.20l-20.80 -2.40"/>
<use x="409.90" y="241.00" xlink:href="#hd"/>
<path d="M413.40 241.00v-19.70" class="stroke"/>
<use x="430.10" y="244.00" xlink:href="#hd"/>
<path d="M433.60 244.00v-20.30" class="stroke"/>
<use x="452.40" y="235.00" xlink:href="#hd"/>
<path d="M455.90 235.00v-21.00" class="stroke"/>
<path class="fill"
	d="M487.10 217.30l20.80 2.40v3.20l-20.80 -2.40"/>
<use x="483.90" y="238.00" xlink:href="#hd"/>
<path d="M487.40 238.00v-19.70" class="stroke"/>
<use x="504.10" y="241.00" xlink:href="#hd"/>
<path d="M507.60 241.00v-20.30" class="stroke"/>
<path class="fill"
	d="M535.60 222.00l61.10 -7.00v3.20l-61.10 7.00"/>
<use x="532.40" y="244.00" xlink:href="#hd"/>
<path d="M535.90 244.00v-21.00" class="stroke"/>
<use x="552.60" y="241.00" xlink:href="#hd"/>
<path d="M556.10 241.00v-20.30" class="stroke"/>
<use x="572.70" y="238.00" xlink:href="#hd"/>
<path d="M576.20 238.00v-19.70" class="stroke"/>
<use x="592.90" y="235.00" xlink:href="#hd"/>
<path d="M596.40 235.00v-19.00" class="stroke"/>
<path class="fill"
	d="M618.40 220.00l61.10 -4.20v3.20l-61.10 4.20"/>
<use x="615.30" y="241.00" xlink:href="#hd"/>
<path d="M618.80 241.00v-20.00" class="stroke"/>
<use x="635.40" y="247.00" xlink:href="#hd"/>
<path d="M638.90 247.00v-27.40" class="stroke"/>
<use x="655.60" y="238.00" xlink:href="#hd"/>
<path d="M659.10 238.00v-19.80" class="stroke"/>
<use x="675.70" y="235.00" xlink:href="#hd"/>
<path d="M679.20 235.00v-18.20" class="stroke"/>
</g>
<g stroke-width="0.70" style="font:13.00px Times">
<path class="stroke" stroke-width="1"
	d="M175.30 319.00v-24.00"/>
<path class="stroke" stroke-width="1"
	d="M305.20 319.00v-24.00"/>
<path class="stroke" stroke-width="1"
	d="M435.00 319.00v-24.00"/>
<path class="stroke" stroke-width="3"
	d="M550.30 319.00v-24.00"/>
<path class="stroke" stroke-width="1"
	d="M545.80 319.00v-24.00"/>
<use x="541.80" y="319.00" xlink:href="#rdots"/>
<path class="stroke" stroke-width="3"
	d="M690.10 319.00v-24.00"/>
<path class="stroke" stroke-width="1"
	d="M685.60 319.00v-24.00"/>
<path d="m10.00 319.00
	h681.60
	M10.00 313.00
	h681.60
	M10.00 307.00
	h681.60
	M10.00 301.00
	h681.60
	M10.00 295.00
	h681.60
	" class="stroke"/>
<text x="58.50" y="280.40"></text>
<path class="stroke"
	d="M54.50 269.00h380.50v20"/>
<text x="439.00" y="280.40">1</text>
<path class="stroke"
	d="M435.00 269.00m0 20v-20h108.70v20"/>
<text x="555.80" y="280.40">2</text>
<path class="stroke"
	d="M551.80 269.00m0 20v-20h139.80v20"/>
<use x="22.00" y="313.00" xlink:href="#tclef"/>
<use x="37.00" y="295.00" xlink:href="#sh0"/>
<use x="67.00" y="307.00" xlink:href="#hd"/>
<path d="M70.50 307.00v-21.00" class="stroke"/>
<use x="91.00" y="307.00" xlink:href="#hd"/>
<path d="M94.50 307.00v-21.00" class="stroke"/>
<path class="fill"
	d="M118.20 290.20l47.90 6.60v3.20l-47.90 -6.60"/>
<use x="115.10" y="310.00" xlink:href="#hd"/>
<path d="M118.60 310.00v-18.80" class="stroke"/>
<use x="130.80" y="313.00" xlink:href="#hd"/>
<path d="M134.30 313.00v-19.60" class="stroke"/>
<use x="146.60" y="316.00" xlink:href="#hd"/>
<path d="M150.10 316.00v-20.40" class="stroke"/>
<use x="162.30" y="319.00" xlink:href="#hd"/>
<path d="M165.80 319.00v-21.20" class="stroke"/>
<use x="187.80" y="310.00" xlink:href="#hd"/>
<path d="M191.30 310.00v-21.00" class="stroke"/>
<path class="fill"
	d="M215.00 291.60l16.40 -2.30v3.20l-16.40 2.30"/>
<use x="211.80" y="313.00" xlink:href="#hd"/>
<path d="M215.30 313.00v-20.40" class="stroke"/>
<use x="227.60" y="310.00" xlink:href="#hd"/>
<path d="M231.10 310.00v-19.60" class="stroke"/>
<path class="fill"
	d="M248.10 287.80l47.90 4.80v3.20l-47.90 -4.80"/>
<use x="244.90" y="307.00" xlink:href="#hd"/>
<path d="M248.40 307.00v-18.20" class="stroke"/>
<use x="260.70" y="313.00" xlink:href="#hd"/>
<path d="M264.20 313.00v-22.60" class="stroke"/>
<use x="276.40" y="319.00" xlink:href="#hd"/>
<path d="M279.90 319.00v-27.00" class="stroke"/>
<use x="292.20" y="316.00" xlink:href="#hd"/>
<path d="M295.70 316.00v-22.50" class="stroke"/>
<use x="317.70" y="313.00" xlink:href="#hd"/>
<path d="M321.20 313.00v-21.00" class="stroke"/>
<path class="fill"
	d="M344.90 295.40l16.40 2.30v3.20l-16.40 -2.30"/>
<use x="341.70" y="316.00" xlink:href="#hd"/>
<path d="M345.20 316.00v-19.60" class="stroke"/>
<use x="357.50" y="319.00" xlink:href="#hd"/>
<path d="M361.00 319.00v-20.40" class="stroke"/>
<path class="fill"
	d="M378.00 293.80l47.90 -6.60v3.20l-47.90 6.60"/>
<use x="374.80" y="316.00" xlink:href="#hd"/>
<path d="M378.30 316.00v-21.20" class="stroke"/>
<use x="390.60" y="313.00" xlink:href="#hd"/>
<path d="M394.10 313.00v-20.40" class="stroke"/>
<use x="406.30" y="310.00" xlink:href="#hd"/>
<path d="M409.80 310.00v-19.60" class="stroke"/>
<use x="422.10" y="307.00" xlink:href="#hd"/>
<path d="M425.60 307.00v-18.80" class="stroke"/>
<use x="447.50" y="316.00" xlink:href="#hd"/>
<path d="M451.00 316.00v-21.00" class="stroke"/>
<use x="471.60" y="319.00" xlink:href="#hd"/>
<circle class="fill" cx="479.30" cy="316.00" r="1.2"/>
<path d="M475.10 319.00v-21.00" class="stroke"/>
<path class="fill"
	d="M502.90 294.20l32.20 -4.40v3.20l-32.20 4.40"/>
<use x="499.80" y="316.00" xlink:href="#hd"/>
<path d="M503.30 316.00v-20.80" class="stroke"/>
<use x="515.50" y="313.00" xlink:href="#hd"/>
<path d="M519.00 313.00v-20.00" class="stroke"/>
<use x="531.30" y="310.00" xlink:href="#hd"/>
<path d="M534.80 310.00v-19.20" class="stroke"/>
<path class="fill"
	d="M567.40 293.20l47.90 6.60v3.20l-47.90 -6.60"/>
<use x="564.30" y="313.00" xlink:href="#hd"/>
<path d="M567.80 313.00v-18.80" class="stroke"/>
<use x="580.00" y="316.00" xlink:href="#hd"/>
<path d="M583.50 316.00v-19.60" class="stroke"/>
<use x="595.80" y="319.00" xlink:href="#hd"/>
<path d="M599.30 319.00v-20.40" class="stroke"/>
<use x="611.50" y="322.00" xlink:href="#hd"/>
<path d="M615.00 322.00v-21.20" class="stroke"/>
<path class="fill"
	d="M632.00 297.40l47.90 -5.50v3.20l-47.90 5.50"/>
<defs>
<path id="hl" class="stroke" d="m-6 0h12"/>
</defs>
<use x="628.90" y="325.00" xlink:href="#hl"/>
<use x="628.90" y="328.00" xlink:href="#hd"/>
<path d="M632.40 328.00v-29.60" class="stroke"/>
<use x="644.60" y="316.00" xlink:href="#hd"/>
<path d="M648.10 316.00v-19.40" class="stroke"/>
<use x="660.40" y="313.00" xlink:href="#hd"/>
<path d="M663.90 313.00v-18.20" class="stroke"/>
<use x="676.10" y="316.00" xlink:href="#hd"/>
<path d="M679.60 316.00v-23.00" class="stroke"/>
</g>
</svg>
