<?xml version="1.0" standalone="no"?>
<!DOCTYPE svg PUBLIC "-//W3C//DTD SVG 1.1//EN"
	"http://www.w3.org/Graphics/SVG/1.1/DTD/svg11.dtd">
<svg xmlns="http://www.w3.org/2000/svg" version="1.1"
	xmlns:xlink="http://www.w3.org/1999/xlink"
	color="black"
	width="701.60px" height="328.00px">
<style type="text/css">
.fill {fill: currentColor}
.stroke {stroke: currentColor; fill: none}
text{white-space: pre}
</style>
<title>/media/tim/Data1/tims_code/sphinx-tunes/source/_abcfiles/linconneau_d_li (1) tune 1</title>
<!-- Creator: abcm2ps-8.14.6 -->
<!-- CreationDate: Jul 30, 2023 12:21 -->
<!-- CommandLine: -g /media/tim/Data1/tims_code/sphinx-tunes/source/_abcfiles/linconneau_d_limoise.abc -O /media/tim/Data1/tims_code/sphinx-tunes/source/_abcfiles/linconneau_d_limoise.svg -->
<g stroke-width="0.70">
<!-- title: L'Inconnu De Limoise -->
</g>
<g stroke-width="0.70" style="font:20.00px Times">
<text x="350.80" y="22.00" text-anchor="middle">L&apos;Inconnu De Limoise</text>
</g>
<g stroke-width="0.70" style="font:20.00px Times">
<defs>
<g id="rdots" class="fill">
	<circle cx="0" cy="-9" r="1.2"/>
	<circle cx="0" cy="-15" r="1.2"/>
</g>
</defs>
<use x="134.30" y="85.00" xlink:href="#rdots"/>
<path class="stroke" stroke-width="1"
	d="M130.30 85.00v-24.00"/>
<path class="stroke" stroke-width="3"
	d="M125.80 85.00v-24.00"/>
<path class="stroke" stroke-width="1"
	d="M249.00 85.00v-24.00"/>
<path class="stroke" stroke-width="1"
	d="M363.00 85.00v-24.00"/>
<path class="stroke" stroke-width="1"
	d="M475.30 85.00v-24.00"/>
<path class="stroke" stroke-width="1"
	d="M577.90 85.00v-24.00"/>
<path class="stroke" stroke-width="1"
	d="M691.60 85.00v-24.00"/>
<path d="m10.00 85.00
	h681.60
	M10.00 79.00
	h681.60
	M10.00 73.00
	h681.60
	M10.00 67.00
	h681.60
	M10.00 61.00
	h681.60
	" class="stroke"/>
<defs>
<path id="utclef" class="fill" d="m-50 -90
	c-72 -41 -72 -158 52 -188
	150 -10 220 188 90 256
	-114 52 -275 0 -293 -136
	-15 -181 93 -229 220 -334
	88 -87 79 -133 62 -210
	-51 33 -94 105 -89 186
	17 267 36 374 49 574
	6 96 -19 134 -77 135
	-80 1 -126 -93 -61 -133
	85 -41 133 101 31 105
	23 17 92 37 90 -92
	-10 -223 -39 -342 -50 -617
	0 -90 0 -162 96 -232
	56 72 63 230 22 289
	-74 106 -257 168 -255 316
	9 153 148 185 252 133
	86 -65 29 -192 -80 -176
	-71 12 -105 67 -59 124"/>
<use id="tclef" transform="translate(0,6) scale(0.045)"
	xlink:href="#utclef"/>
</defs>
<use x="22.00" y="79.00" xlink:href="#tclef"/>
<defs>
<path id="usharp" class="fill" d="
	m136 -702
	v890
	h32
	v-890
	m128 840
	h32
	v-888
	h-32
	m-232 286
	v116
	l338 -96
	v-116
	m-338 442
	v116
	l338 -98
	v-114"/>
<use id="sh0" transform="translate(-4,5) scale(0.018)"
	xlink:href="#usharp"/>
</defs>
<use x="37.00" y="61.00" xlink:href="#sh0"/>
<g style="font:bold 16px serif"
	transform="translate(53.00,84.50) scale(1.2,1)">
	<text text-anchor="middle">4</text>
	<text y="-12" text-anchor="middle">3</text>
</g>
<defs>
<ellipse id="hd" rx="4.1" ry="2.9"
	transform="rotate(-20)" class="fill"/>
</defs>
<use x="71.00" y="88.00" xlink:href="#hd"/>
<path d="M74.50 88.00v-21.00" class="stroke"/>
<path class="fill"
	d="M74.50 67.00c0.6 5.6 9.6 9 5.6 18.4
	1.6 -6 -1.3 -11.6 -5.6 -12.8
"/>
<path class="fill"
	d="M95.60 56.20l23.00 -2.40v3.20l-23.00 2.40"/>
<path class="fill"
	d="M111.30 59.50l7.00 -0.70v3.20l-7.00 0.70"/>
<use x="92.40" y="79.00" xlink:href="#hd"/>
<circle class="fill" cx="100.10" cy="76.00" r="1.2"/>
<path d="M95.90 79.00v-21.80" class="stroke"/>
<use x="114.80" y="76.00" xlink:href="#hd"/>
<path d="M118.30 76.00v-21.20" class="stroke"/>
<use x="147.80" y="73.00" xlink:href="#hd"/>
<path d="M151.30 73.00v-21.00" class="stroke"/>
<path class="fill"
	d="M179.90 52.00l23.00 4.00v3.20l-23.00 -4.00"/>
<path class="fill"
	d="M195.60 59.70l7.00 1.20v3.20l-7.00 -1.20"/>
<use x="176.80" y="73.00" xlink:href="#hd"/>
<circle class="fill" cx="184.50" cy="70.00" r="1.2"/>
<path d="M180.30 73.00v-20.00" class="stroke"/>
<use x="199.10" y="79.00" xlink:href="#hd"/>
<path d="M202.60 79.00v-22.00" class="stroke"/>
<path class="fill"
	d="M217.30 49.00l23.00 4.00v3.20l-23.00 -4.00"/>
<path class="fill"
	d="M233.00 56.70l7.00 1.20v3.20l-7.00 -1.20"/>
<use x="214.20" y="70.00" xlink:href="#hd"/>
<circle class="fill" cx="221.90" cy="70.00" r="1.2"/>
<path d="M217.70 70.00v-20.00" class="stroke"/>
<use x="236.50" y="76.00" xlink:href="#hd"/>
<path d="M240.00 76.00v-22.00" class="stroke"/>
<use x="261.50" y="73.00" xlink:href="#hd"/>
<path d="M265.00 73.00v-21.00" class="stroke"/>
<path class="fill"
	d="M293.60 48.80l23.00 0.00v3.20l-23.00 -0.00"/>
<path class="fill"
	d="M309.30 53.80l7.00 0.00v3.20l-7.00 -0.00"/>
<use x="290.50" y="73.00" xlink:href="#hd"/>
<circle class="fill" cx="298.20" cy="70.00" r="1.2"/>
<path d="M294.00 73.00v-23.20" class="stroke"/>
<use x="312.80" y="73.00" xlink:href="#hd"/>
<path d="M316.30 73.00v-23.20" class="stroke"/>
<path class="fill"
	d="M324.30 92.70l23.00 -2.40v-3.20l-23.00 2.40"/>
<path class="fill"
	d="M340.00 86.10l7.00 -0.70v-3.20l-7.00 0.70"/>
<use x="328.20" y="70.00" xlink:href="#hd"/>
<circle class="fill" cx="335.90" cy="70.00" r="1.2"/>
<path d="M324.70 70.00v21.70" class="stroke"/>
<use x="350.50" y="67.00" xlink:href="#hd"/>
<path d="M347.00 67.00v22.30" class="stroke"/>
<use x="375.50" y="70.00" xlink:href="#hd"/>
<path d="M372.00 70.00v21.00" class="stroke"/>
<path class="fill"
	d="M400.70 93.30l23.00 2.40v-3.20l-23.00 -2.40"/>
<path class="fill"
	d="M416.30 89.90l7.00 0.70v-3.20l-7.00 -0.70"/>
<use x="404.50" y="70.00" xlink:href="#hd"/>
<circle class="fill" cx="412.20" cy="70.00" r="1.2"/>
<path d="M401.00 70.00v22.30" class="stroke"/>
<use x="426.80" y="73.00" xlink:href="#hd"/>
<path d="M423.30 73.00v21.70" class="stroke"/>
<path class="fill"
	d="M443.70 54.30l23.00 2.40v3.20l-23.00 -2.40"/>
<path class="fill"
	d="M459.30 60.90l7.00 0.70v3.20l-7.00 -0.70"/>
<use x="440.50" y="76.00" xlink:href="#hd"/>
<circle class="fill" cx="448.20" cy="76.00" r="1.2"/>
<path d="M444.00 76.00v-20.70" class="stroke"/>
<use x="462.80" y="79.00" xlink:href="#hd"/>
<path d="M466.30 79.00v-21.30" class="stroke"/>
<use x="487.80" y="76.00" xlink:href="#hd"/>
<circle class="fill" cx="495.50" cy="76.00" r="1.2"/>
<path d="M491.30 76.00v-21.00" class="stroke"/>
<use x="521.60" y="88.00" xlink:href="#hd"/>
<path d="M525.10 88.00v-21.00" class="stroke"/>
<path class="fill"
	d="M525.10 67.00c0.6 5.6 9.6 9 5.6 18.4
	1.6 -6 -1.3 -11.6 -5.6 -12.8
"/>
<path class="fill"
	d="M546.20 56.20l23.00 -2.40v3.20l-23.00 2.40"/>
<path class="fill"
	d="M561.90 59.50l7.00 -0.70v3.20l-7.00 0.70"/>
<use x="543.10" y="79.00" xlink:href="#hd"/>
<circle class="fill" cx="550.80" cy="76.00" r="1.2"/>
<path d="M546.60 79.00v-21.80" class="stroke"/>
<use x="565.40" y="76.00" xlink:href="#hd"/>
<path d="M568.90 76.00v-21.20" class="stroke"/>
<use x="590.40" y="73.00" xlink:href="#hd"/>
<path d="M593.90 73.00v-21.00" class="stroke"/>
<path class="fill"
	d="M622.60 52.00l23.00 4.00v3.20l-23.00 -4.00"/>
<path class="fill"
	d="M638.20 59.70l7.00 1.20v3.20l-7.00 -1.20"/>
<use x="619.40" y="73.00" xlink:href="#hd"/>
<circle class="fill" cx="627.10" cy="70.00" r="1.2"/>
<path d="M622.90 73.00v-20.00" class="stroke"/>
<use x="641.70" y="79.00" xlink:href="#hd"/>
<path d="M645.20 79.00v-22.00" class="stroke"/>
<path class="fill"
	d="M660.00 49.00l23.00 4.00v3.20l-23.00 -4.00"/>
<path class="fill"
	d="M675.60 56.70l7.00 1.20v3.20l-7.00 -1.20"/>
<use x="656.80" y="70.00" xlink:href="#hd"/>
<circle class="fill" cx="664.50" cy="70.00" r="1.2"/>
<path d="M660.30 70.00v-20.00" class="stroke"/>
<use x="679.10" y="76.00" xlink:href="#hd"/>
<path d="M682.60 76.00v-22.00" class="stroke"/>
</g>
<g stroke-width="0.70" style="font:20.00px Times">
<path class="stroke" stroke-width="1"
	d="M210.80 160.00v-24.00"/>
<path class="stroke" stroke-width="1"
	d="M381.00 160.00v-24.00"/>
<path class="stroke" stroke-width="3"
	d="M533.10 160.00v-24.00"/>
<path class="stroke" stroke-width="1"
	d="M528.60 160.00v-24.00"/>
<use x="524.60" y="160.00" xlink:href="#rdots"/>
<path class="stroke" stroke-width="1"
	d="M691.60 160.00v-24.00"/>
<path class="stroke" stroke-width="1"
	d="M688.60 160.00v-24.00"/>
<path d="m10.00 160.00
	h681.60
	M10.00 154.00
	h681.60
	M10.00 148.00
	h681.60
	M10.00 142.00
	h681.60
	M10.00 136.00
	h681.60
	" class="stroke"/>
</g>
<g stroke-width="0.70" style="font:13.00px Times">
<text x="385.00" y="121.40">1</text>
<path class="stroke"
	d="M381.00 110.00m0 20v-20h145.60v20"/>
<text x="538.60" y="121.40">2</text>
<path class="stroke"
	d="M534.60 110.00m0 20v-20h157.00v20"/>
<use x="22.00" y="154.00" xlink:href="#tclef"/>
<use x="37.00" y="136.00" xlink:href="#sh0"/>
<use x="55.00" y="148.00" xlink:href="#hd"/>
<path d="M58.50 148.00v-21.00" class="stroke"/>
<path class="fill"
	d="M105.40 123.80l34.90 0.00v3.20l-34.90 -0.00"/>
<path class="fill"
	d="M133.00 128.80l7.00 0.00v3.20l-7.00 -0.00"/>
<use x="102.20" y="148.00" xlink:href="#hd"/>
<circle class="fill" cx="109.90" cy="145.00" r="1.2"/>
<path d="M105.70 148.00v-23.20" class="stroke"/>
<use x="136.50" y="148.00" xlink:href="#hd"/>
<path d="M140.00 148.00v-23.20" class="stroke"/>
<path class="fill"
	d="M156.20 167.80l34.90 -2.60v-3.20l-34.90 2.60"/>
<path class="fill"
	d="M183.80 160.70l7.00 -0.50v-3.20l-7.00 0.50"/>
<use x="160.10" y="145.00" xlink:href="#hd"/>
<circle class="fill" cx="167.80" cy="145.00" r="1.2"/>
<path d="M156.60 145.00v21.80" class="stroke"/>
<use x="194.30" y="142.00" xlink:href="#hd"/>
<path d="M190.80 142.00v22.20" class="stroke"/>
<use x="227.50" y="145.00" xlink:href="#hd"/>
<path d="M224.00 145.00v21.00" class="stroke"/>
<path class="fill"
	d="M270.90 168.20l34.90 2.60v-3.20l-34.90 -2.60"/>
<path class="fill"
	d="M298.50 165.30l7.00 0.50v-3.20l-7.00 -0.50"/>
<use x="274.80" y="145.00" xlink:href="#hd"/>
<circle class="fill" cx="282.50" cy="145.00" r="1.2"/>
<path d="M271.30 145.00v22.20" class="stroke"/>
<use x="309.00" y="148.00" xlink:href="#hd"/>
<path d="M305.50 148.00v21.80" class="stroke"/>
<path class="fill"
	d="M333.40 129.20l34.90 2.60v3.20l-34.90 -2.60"/>
<path class="fill"
	d="M361.00 136.30l7.00 0.50v3.20l-7.00 -0.50"/>
<use x="330.20" y="151.00" xlink:href="#hd"/>
<circle class="fill" cx="337.90" cy="151.00" r="1.2"/>
<path d="M333.70 151.00v-20.80" class="stroke"/>
<use x="364.50" y="154.00" xlink:href="#hd"/>
<path d="M368.00 154.00v-21.20" class="stroke"/>
<use x="397.70" y="142.00" xlink:href="#hd"/>
<circle class="fill" cx="405.40" cy="139.00" r="1.2"/>
<path d="M394.20 142.00v21.00" class="stroke"/>
<use x="446.10" y="163.00" xlink:href="#hd"/>
<path d="M449.60 163.00v-21.00" class="stroke"/>
<path class="fill"
	d="M449.60 142.00c0.6 5.6 9.6 9 5.6 18.4
	1.6 -6 -1.3 -11.6 -5.6 -12.8
"/>
<path class="fill"
	d="M482.70 131.40l34.90 -2.60v3.20l-34.90 2.60"/>
<path class="fill"
	d="M510.20 134.30l7.00 -0.50v3.20l-7.00 0.50"/>
<use x="479.50" y="154.00" xlink:href="#hd"/>
<circle class="fill" cx="487.20" cy="151.00" r="1.2"/>
<path d="M483.00 154.00v-21.60" class="stroke"/>
<use x="513.70" y="151.00" xlink:href="#hd"/>
<path d="M517.20 151.00v-21.20" class="stroke"/>
<use x="551.30" y="142.00" xlink:href="#hd"/>
<circle class="fill" cx="559.00" cy="139.00" r="1.2"/>
<path d="M547.80 142.00v21.00" class="stroke"/>
<use x="605.10" y="148.00" xlink:href="#hd"/>
<path d="M601.60 148.00v21.00" class="stroke"/>
<path class="fill"
	d="M601.60 169.00c0.6 -5.6 9.6 -9 5.6 -18.4
	1.6 6 -1.3 11.6 -5.6 12.8
"/>
<path class="fill"
	d="M634.60 167.80l34.90 -2.60v-3.20l-34.90 2.60"/>
<path class="fill"
	d="M662.20 160.70l7.00 -0.50v-3.20l-7.00 0.50"/>
<use x="638.50" y="145.00" xlink:href="#hd"/>
<circle class="fill" cx="646.20" cy="145.00" r="1.2"/>
<path d="M635.00 145.00v21.80" class="stroke"/>
<use x="672.70" y="142.00" xlink:href="#hd"/>
<path d="M669.20 142.00v22.20" class="stroke"/>
</g>
<g stroke-width="0.70" style="font:13.00px Times">
<use x="61.50" y="230.00" xlink:href="#rdots"/>
<path class="stroke" stroke-width="1"
	d="M57.50 230.00v-24.00"/>
<path class="stroke" stroke-width="3"
	d="M53.00 230.00v-24.00"/>
<path class="stroke" stroke-width="1"
	d="M222.00 230.00v-24.00"/>
<path class="stroke" stroke-width="1"
	d="M379.30 230.00v-24.00"/>
<path class="stroke" stroke-width="1"
	d="M548.60 230.00v-24.00"/>
<path class="stroke" stroke-width="1"
	d="M691.60 230.00v-24.00"/>
<path d="m10.00 230.00
	h681.60
	M10.00 224.00
	h681.60
	M10.00 218.00
	h681.60
	M10.00 212.00
	h681.60
	M10.00 206.00
	h681.60
	" class="stroke"/>
<use x="22.00" y="224.00" xlink:href="#tclef"/>
<use x="37.00" y="206.00" xlink:href="#sh0"/>
<use x="77.90" y="209.00" xlink:href="#hd"/>
<path d="M74.40 209.00v21.00" class="stroke"/>
<path class="fill"
	d="M117.80 226.20l32.30 2.60v-3.20l-32.30 -2.60"/>
<path class="fill"
	d="M142.80 223.20l7.00 0.60v-3.20l-7.00 -0.60"/>
<use x="121.60" y="203.00" xlink:href="#hd"/>
<circle class="fill" cx="129.30" cy="203.00" r="1.2"/>
<path d="M118.10 203.00v22.20" class="stroke"/>
<use x="153.30" y="206.00" xlink:href="#hd"/>
<path d="M149.80 206.00v21.80" class="stroke"/>
<path class="fill"
	d="M171.20 231.80l32.30 -2.60v-3.20l-32.30 2.60"/>
<path class="fill"
	d="M196.20 224.80l7.00 -0.60v-3.20l-7.00 0.60"/>
<use x="175.10" y="209.00" xlink:href="#hd"/>
<circle class="fill" cx="182.80" cy="209.00" r="1.2"/>
<path d="M171.60 209.00v21.80" class="stroke"/>
<use x="206.70" y="206.00" xlink:href="#hd"/>
<path d="M203.20 206.00v22.20" class="stroke"/>
<use x="237.50" y="212.00" xlink:href="#hd"/>
<path d="M234.00 212.00v21.00" class="stroke"/>
<path class="fill"
	d="M277.30 235.20l32.30 2.60v-3.20l-32.30 -2.60"/>
<path class="fill"
	d="M302.30 232.20l7.00 0.60v-3.20l-7.00 -0.60"/>
<use x="281.10" y="212.00" xlink:href="#hd"/>
<circle class="fill" cx="288.80" cy="209.00" r="1.2"/>
<path d="M277.60 212.00v22.20" class="stroke"/>
<use x="312.80" y="215.00" xlink:href="#hd"/>
<path d="M309.30 215.00v21.80" class="stroke"/>
<path class="fill"
	d="M335.60 196.20l32.30 2.60v3.20l-32.30 -2.60"/>
<path class="fill"
	d="M360.50 203.20l7.00 0.60v3.20l-7.00 -0.60"/>
<use x="332.40" y="218.00" xlink:href="#hd"/>
<circle class="fill" cx="340.10" cy="215.00" r="1.2"/>
<path d="M335.90 218.00v-20.80" class="stroke"/>
<use x="364.00" y="221.00" xlink:href="#hd"/>
<path d="M367.50 221.00v-21.20" class="stroke"/>
<path class="fill"
	d="M397.90 202.20l32.30 2.60v3.20l-32.30 -2.60"/>
<path class="fill"
	d="M422.90 209.20l7.00 0.60v3.20l-7.00 -0.60"/>
<use x="394.80" y="224.00" xlink:href="#hd"/>
<circle class="fill" cx="402.50" cy="221.00" r="1.2"/>
<path d="M398.30 224.00v-20.80" class="stroke"/>
<use x="426.40" y="227.00" xlink:href="#hd"/>
<path d="M429.90 227.00v-21.20" class="stroke"/>
<path class="fill"
	d="M451.40 201.30l32.30 -2.60v3.20l-32.30 2.60"/>
<path class="fill"
	d="M476.40 204.40l7.00 -0.60v3.20l-7.00 0.60"/>
<use x="448.20" y="224.00" xlink:href="#hd"/>
<circle class="fill" cx="455.90" cy="221.00" r="1.2"/>
<path d="M451.70 224.00v-21.70" class="stroke"/>
<use x="479.90" y="221.00" xlink:href="#hd"/>
<path d="M483.40 221.00v-21.20" class="stroke"/>
<path class="fill"
	d="M504.90 196.80l32.30 4.40v3.20l-32.30 -4.40"/>
<path class="fill"
	d="M529.80 205.20l7.00 1.00v3.20l-7.00 -1.00"/>
<use x="501.70" y="218.00" xlink:href="#hd"/>
<circle class="fill" cx="509.40" cy="215.00" r="1.2"/>
<path d="M505.20 218.00v-20.20" class="stroke"/>
<use x="533.30" y="224.00" xlink:href="#hd"/>
<path d="M536.80 224.00v-21.80" class="stroke"/>
<use x="564.10" y="233.00" xlink:href="#hd"/>
<circle class="fill" cx="571.80" cy="233.00" r="1.2"/>
<path d="M567.60 233.00v-21.00" class="stroke"/>
<use x="613.80" y="224.00" xlink:href="#hd"/>
<path d="M617.30 224.00v-21.00" class="stroke"/>
<path class="fill"
	d="M617.30 203.00c0.6 5.6 9.6 9 5.6 18.4
	1.6 -6 -1.3 -11.6 -5.6 -12.8
"/>
<path class="fill"
	d="M647.80 202.20l32.30 2.60v3.20l-32.30 -2.60"/>
<path class="fill"
	d="M672.80 209.20l7.00 0.60v3.20l-7.00 -0.60"/>
<use x="644.70" y="224.00" xlink:href="#hd"/>
<circle class="fill" cx="652.40" cy="221.00" r="1.2"/>
<path d="M648.20 224.00v-20.80" class="stroke"/>
<use x="676.30" y="227.00" xlink:href="#hd"/>
<path d="M679.80 227.00v-21.20" class="stroke"/>
</g>
<g stroke-width="0.70" style="font:13.00px Times">
<path class="stroke" stroke-width="1"
	d="M198.20 305.00v-24.00"/>
<path class="stroke" stroke-width="1"
	d="M330.70 305.00v-24.00"/>
<path class="stroke" stroke-width="1"
	d="M489.20 305.00v-24.00"/>
<path class="stroke" stroke-width="3"
	d="M635.20 305.00v-24.00"/>
<path class="stroke" stroke-width="1"
	d="M630.70 305.00v-24.00"/>
<use x="626.70" y="305.00" xlink:href="#rdots"/>
<path class="stroke" stroke-width="1"
	d="M691.60 305.00v-24.00"/>
<path class="stroke" stroke-width="1"
	d="M688.60 305.00v-24.00"/>
<path d="m10.00 305.00
	h681.60
	M10.00 299.00
	h681.60
	M10.00 293.00
	h681.60
	M10.00 287.00
	h681.60
	M10.00 281.00
	h681.60
	" class="stroke"/>
<text x="493.20" y="266.40">1</text>
<path class="stroke"
	d="M489.20 255.00m0 20v-20h139.50v20"/>
<text x="640.70" y="266.40">2</text>
<path class="stroke"
	d="M636.70 255.00m0 20v-20h54.90v20"/>
<use x="22.00" y="299.00" xlink:href="#tclef"/>
<use x="37.00" y="281.00" xlink:href="#sh0"/>
<use x="55.00" y="305.00" xlink:href="#hd"/>
<path d="M58.50 305.00v-21.00" class="stroke"/>
<path class="fill"
	d="M101.60 282.30l32.10 -2.60v3.20l-32.10 2.60"/>
<path class="fill"
	d="M126.30 285.40l7.00 -0.60v3.20l-7.00 0.60"/>
<use x="98.40" y="305.00" xlink:href="#hd"/>
<circle class="fill" cx="106.10" cy="302.00" r="1.2"/>
<path d="M101.90 305.00v-21.70" class="stroke"/>
<use x="129.80" y="302.00" xlink:href="#hd"/>
<path d="M133.30 302.00v-21.20" class="stroke"/>
<path class="fill"
	d="M154.70 276.30l32.10 -2.60v3.20l-32.10 2.60"/>
<path class="fill"
	d="M179.50 279.40l7.00 -0.60v3.20l-7.00 0.60"/>
<use x="151.50" y="299.00" xlink:href="#hd"/>
<circle class="fill" cx="159.20" cy="296.00" r="1.2"/>
<path d="M155.00 299.00v-21.70" class="stroke"/>
<use x="183.00" y="296.00" xlink:href="#hd"/>
<path d="M186.50 296.00v-21.20" class="stroke"/>
<use x="213.50" y="299.00" xlink:href="#hd"/>
<path d="M217.00 299.00v-21.00" class="stroke"/>
<use x="256.90" y="302.00" xlink:href="#hd"/>
<path d="M260.40 302.00v-21.00" class="stroke"/>
<use x="300.30" y="305.00" xlink:href="#hd"/>
<path d="M303.80 305.00v-21.00" class="stroke"/>
<use x="346.00" y="302.00" xlink:href="#hd"/>
<path d="M349.50 302.00v-21.00" class="stroke"/>
<path class="fill"
	d="M392.60 279.30l32.10 -2.60v3.20l-32.10 2.60"/>
<path class="fill"
	d="M417.40 282.40l7.00 -0.60v3.20l-7.00 0.60"/>
<use x="389.40" y="302.00" xlink:href="#hd"/>
<circle class="fill" cx="397.10" cy="302.00" r="1.2"/>
<path d="M392.90 302.00v-21.70" class="stroke"/>
<use x="420.90" y="299.00" xlink:href="#hd"/>
<path d="M424.40 299.00v-21.20" class="stroke"/>
<path class="fill"
	d="M445.70 273.30l32.10 -2.60v3.20l-32.10 2.60"/>
<path class="fill"
	d="M470.50 276.40l7.00 -0.60v3.20l-7.00 0.60"/>
<use x="442.60" y="296.00" xlink:href="#hd"/>
<circle class="fill" cx="450.30" cy="296.00" r="1.2"/>
<path d="M446.10 296.00v-21.70" class="stroke"/>
<use x="474.00" y="293.00" xlink:href="#hd"/>
<path d="M477.50 293.00v-21.20" class="stroke"/>
<use x="504.60" y="296.00" xlink:href="#hd"/>
<circle class="fill" cx="512.30" cy="296.00" r="1.2"/>
<path d="M508.10 296.00v-21.00" class="stroke"/>
<use x="553.90" y="293.00" xlink:href="#hd"/>
<path d="M557.40 293.00v-21.00" class="stroke"/>
<path class="fill"
	d="M557.40 272.00c0.6 5.6 9.6 9 5.6 18.4
	1.6 -6 -1.3 -11.6 -5.6 -12.8
"/>
<path class="fill"
	d="M580.80 312.80l32.10 -2.60v-3.20l-32.10 2.60"/>
<path class="fill"
	d="M605.60 305.80l7.00 -0.60v-3.20l-7.00 0.60"/>
<use x="584.70" y="290.00" xlink:href="#hd"/>
<circle class="fill" cx="592.40" cy="290.00" r="1.2"/>
<path d="M581.20 290.00v21.80" class="stroke"/>
<use x="616.10" y="287.00" xlink:href="#hd"/>
<path d="M612.60 287.00v22.20" class="stroke"/>
<use x="652.10" y="299.00" xlink:href="#hd"/>
<circle class="fill" cx="659.80" cy="296.00" r="1.2"/>
<path d="M655.60 299.00v-21.00" class="stroke"/>
</g>
</svg>
