<?xml version="1.0" standalone="no"?>
<!DOCTYPE svg PUBLIC "-//W3C//DTD SVG 1.1//EN"
	"http://www.w3.org/Graphics/SVG/1.1/DTD/svg11.dtd">
<svg xmlns="http://www.w3.org/2000/svg" version="1.1"
	xmlns:xlink="http://www.w3.org/1999/xlink"
	color="black"
	width="701.60px" height="308.00px">
<style type="text/css">
.fill {fill: currentColor}
.stroke {stroke: currentColor; fill: none}
text{white-space: pre}
</style>
<title>/media/tim/Data1/tims_code/sphinx-tunes/source/_abcfiles/Linnonu.abc (1) tune 1</title>
<!-- Creator: abcm2ps-8.14.6 -->
<!-- CreationDate: Jul 30, 2023 12:21 -->
<!-- CommandLine: -g /media/tim/Data1/tims_code/sphinx-tunes/source/_abcfiles/Linnonu.abc -O /media/tim/Data1/tims_code/sphinx-tunes/source/_abcfiles/Linnonu.svg -->
<g stroke-width="0.70">
<!-- title: L'Auvergnate -->
</g>
<g stroke-width="0.70" style="font:20.00px Times">
<text x="350.80" y="22.00" text-anchor="middle">L&apos;Auvergnate</text>
</g>
<g stroke-width="0.70" style="font:italic 14.00px Times">
<text x="691.60" y="46.00" text-anchor="end">Harmony Myrna Luff</text>
</g>
<g stroke-width="0.70" style="font:italic 14.00px Times">
<path class="stroke" stroke-width="1"
	d="M10.00 157.00v-82.00"/>
<defs>
<path id="brace" class="fill" d="m-2.5 101
	c-4.5 -4.6 -7.5 -12.2 -4.4 -26.8
	3.5 -14.3 3.2 -21.7 -2.1 -24.2
	7.4 2.4 7.3 14.2 3.5 29.5
	-2.7 9.5 -1.5 16.2 3 21.5
	M-2.5 1c-4.5 4.6 -7.5 12.2 -4.4 26.8
	c3.5 14.3 3.2 21.7 -2.1 24.2
	7.4 -2.4 7.3 -14.2 3.5 -29.5
	-2.7 -9.5 -1.5 -16.2 3 -21.5"/>
</defs>
<g transform="translate(10.00,75.00) scale(1,0.82)">
	<use xlink:href="#brace"/>
</g>
<defs>
<g id="rdots" class="fill">
	<circle cx="0" cy="-9" r="1.2"/>
	<circle cx="0" cy="-15" r="1.2"/>
</g>
</defs>
<use x="95.00" y="99.00" xlink:href="#rdots"/>
<path class="stroke" stroke-width="1"
	d="M91.00 99.00v-24.00"/>
<path class="stroke" stroke-width="3"
	d="M86.50 99.00v-24.00"/>
<path class="stroke" stroke-width="1"
	d="M96.00 157.00v-58.00"/>
<path class="stroke" stroke-width="1"
	d="M177.50 99.00v-24.00"/>
<path class="stroke" stroke-width="1"
	d="M177.50 157.00v-58.00"/>
<path class="stroke" stroke-width="1"
	d="M258.90 99.00v-24.00"/>
<path class="stroke" stroke-width="1"
	d="M258.90 157.00v-58.00"/>
<path class="stroke" stroke-width="1"
	d="M322.40 99.00v-24.00"/>
<path class="stroke" stroke-width="1"
	d="M322.40 157.00v-58.00"/>
<path class="stroke" stroke-width="1"
	d="M393.70 99.00v-24.00"/>
<path class="stroke" stroke-width="1"
	d="M393.70 157.00v-58.00"/>
<path class="stroke" stroke-width="1"
	d="M475.20 99.00v-24.00"/>
<path class="stroke" stroke-width="1"
	d="M475.20 157.00v-58.00"/>
<path class="stroke" stroke-width="1"
	d="M556.70 99.00v-24.00"/>
<path class="stroke" stroke-width="1"
	d="M556.70 157.00v-58.00"/>
<path class="stroke" stroke-width="1"
	d="M620.20 99.00v-24.00"/>
<path class="stroke" stroke-width="1"
	d="M620.20 157.00v-58.00"/>
<path class="stroke" stroke-width="3"
	d="M690.10 99.00v-24.00"/>
<path class="stroke" stroke-width="1"
	d="M685.60 99.00v-24.00"/>
<use x="681.60" y="99.00" xlink:href="#rdots"/>
<path class="stroke" stroke-width="3"
	d="M690.10 157.00v-58.00"/>
<path class="stroke" stroke-width="1"
	d="M685.60 157.00v-58.00"/>
<use x="681.60" y="157.00" xlink:href="#rdots"/>
<path d="m10.00 99.00
	h681.60
	M10.00 93.00
	h681.60
	M10.00 87.00
	h681.60
	M10.00 81.00
	h681.60
	M10.00 75.00
	h681.60
	" class="stroke"/>
<path d="m10.00 157.00
	h681.60
	M10.00 151.00
	h681.60
	M10.00 145.00
	h681.60
	M10.00 139.00
	h681.60
	M10.00 133.00
	h681.60
	" class="stroke"/>
<path class="fill"
	d="M435.20 100.40c2.73 3.17 14.62 0.30 17.35 -4.20
	v0.22c-3.25 6.28 -14.10 9.16 -17.35 3.98"/>
<defs>
<path id="utclef" class="fill" d="m-50 -90
	c-72 -41 -72 -158 52 -188
	150 -10 220 188 90 256
	-114 52 -275 0 -293 -136
	-15 -181 93 -229 220 -334
	88 -87 79 -133 62 -210
	-51 33 -94 105 -89 186
	17 267 36 374 49 574
	6 96 -19 134 -77 135
	-80 1 -126 -93 -61 -133
	85 -41 133 101 31 105
	23 17 92 37 90 -92
	-10 -223 -39 -342 -50 -617
	0 -90 0 -162 96 -232
	56 72 63 230 22 289
	-74 106 -257 168 -255 316
	9 153 148 185 252 133
	86 -65 29 -192 -80 -176
	-71 12 -105 67 -59 124"/>
<use id="tclef" transform="translate(0,6) scale(0.045)"
	xlink:href="#utclef"/>
</defs>
<use x="22.00" y="93.00" xlink:href="#tclef"/>
<defs>
<path id="usharp" class="fill" d="
	m136 -702
	v890
	h32
	v-890
	m128 840
	h32
	v-888
	h-32
	m-232 286
	v116
	l338 -96
	v-116
	m-338 442
	v116
	l338 -98
	v-114"/>
<use id="sh0" transform="translate(-4,5) scale(0.018)"
	xlink:href="#usharp"/>
</defs>
<use x="37.00" y="75.00" xlink:href="#sh0"/>
<g style="font:bold 16px serif"
	transform="translate(53.00,98.50) scale(1.2,1)">
	<text text-anchor="middle">4</text>
	<text y="-12" text-anchor="middle">2</text>
</g>
<defs>
<ellipse id="hd" rx="4.1" ry="2.9"
	transform="rotate(-20)" class="fill"/>
</defs>
<use x="71.00" y="102.00" xlink:href="#hd"/>
<path d="M74.50 102.00v-21.00" class="stroke"/>
<path class="fill"
	d="M74.50 81.00c0.6 5.6 9.6 9 5.6 18.4
	1.6 -6 -1.3 -11.6 -5.6 -12.8
"/>
<path class="fill"
	d="M111.70 72.00l13.20 0.00v3.20l-13.20 -0.00"/>
<use x="108.50" y="93.00" xlink:href="#hd"/>
<path d="M112.00 93.00v-20.00" class="stroke"/>
<use x="121.00" y="93.00" xlink:href="#hd"/>
<path d="M124.50 93.00v-20.00" class="stroke"/>
<path class="fill"
	d="M137.60 67.00l31.20 0.00v3.20l-31.20 -0.00"/>
<path class="fill"
	d="M137.90 72.00l30.50 0.00v3.20l-30.50 -0.00"/>
<use x="134.40" y="96.00" xlink:href="#hd"/>
<path d="M137.90 96.00v-28.00" class="stroke"/>
<use x="144.60" y="93.00" xlink:href="#hd"/>
<path d="M148.10 93.00v-25.00" class="stroke"/>
<use x="154.80" y="90.00" xlink:href="#hd"/>
<path d="M158.30 90.00v-22.00" class="stroke"/>
<use x="165.00" y="96.00" xlink:href="#hd"/>
<path d="M168.50 96.00v-28.00" class="stroke"/>
<path class="fill"
	d="M193.10 72.00l13.20 0.00v3.20l-13.20 -0.00"/>
<use x="190.00" y="93.00" xlink:href="#hd"/>
<path d="M193.50 93.00v-20.00" class="stroke"/>
<use x="202.50" y="93.00" xlink:href="#hd"/>
<path d="M206.00 93.00v-20.00" class="stroke"/>
<path class="fill"
	d="M219.10 61.80l31.20 0.00v3.20l-31.20 -0.00"/>
<path class="fill"
	d="M219.40 66.80l30.50 0.00v3.20l-30.50 -0.00"/>
<use x="215.90" y="90.00" xlink:href="#hd"/>
<path d="M219.40 90.00v-27.20" class="stroke"/>
<use x="226.10" y="87.00" xlink:href="#hd"/>
<path d="M229.60 87.00v-24.20" class="stroke"/>
<use x="236.30" y="84.00" xlink:href="#hd"/>
<path d="M239.80 84.00v-21.20" class="stroke"/>
<use x="246.40" y="90.00" xlink:href="#hd"/>
<path d="M249.90 90.00v-27.20" class="stroke"/>
<path class="fill"
	d="M274.60 67.40l13.20 3.20v3.20l-13.20 -3.20"/>
<use x="271.40" y="87.00" xlink:href="#hd"/>
<path d="M274.90 87.00v-18.50" class="stroke"/>
<use x="284.00" y="93.00" xlink:href="#hd"/>
<path d="M287.50 93.00v-21.50" class="stroke"/>
<path class="fill"
	d="M300.60 69.40l13.20 2.10v3.20l-13.20 -2.10"/>
<use x="297.40" y="90.00" xlink:href="#hd"/>
<path d="M300.90 90.00v-19.50" class="stroke"/>
<use x="309.90" y="93.00" xlink:href="#hd"/>
<path d="M313.40 93.00v-20.50" class="stroke"/>
<path class="fill"
	d="M338.10 73.70l21.00 3.90v3.20l-21.00 -3.90"/>
<path class="fill"
	d="M338.40 78.80l10.20 1.90v3.20l-10.20 -1.90"/>
<use x="334.90" y="96.00" xlink:href="#hd"/>
<path d="M338.40 96.00v-21.20" class="stroke"/>
<use x="345.10" y="99.00" xlink:href="#hd"/>
<path d="M348.60 99.00v-22.30" class="stroke"/>
<use x="355.30" y="102.00" xlink:href="#hd"/>
<path d="M358.80 102.00v-23.40" class="stroke"/>
<use x="368.70" y="102.00" xlink:href="#hd"/>
<path d="M372.20 102.00v-21.00" class="stroke"/>
<path class="fill"
	d="M409.40 72.00l13.20 0.00v3.20l-13.20 -0.00"/>
<use x="406.20" y="93.00" xlink:href="#hd"/>
<path d="M409.70 93.00v-20.00" class="stroke"/>
<use x="418.80" y="93.00" xlink:href="#hd"/>
<path d="M422.30 93.00v-20.00" class="stroke"/>
<path class="fill"
	d="M435.30 67.00l31.20 0.00v3.20l-31.20 -0.00"/>
<path class="fill"
	d="M435.70 72.00l30.50 0.00v3.20l-30.50 -0.00"/>
<use x="432.20" y="96.00" xlink:href="#hd"/>
<path d="M435.70 96.00v-28.00" class="stroke"/>
<use x="442.30" y="93.00" xlink:href="#hd"/>
<path d="M445.80 93.00v-25.00" class="stroke"/>
<use x="452.50" y="90.00" xlink:href="#hd"/>
<path d="M456.00 90.00v-22.00" class="stroke"/>
<use x="462.70" y="96.00" xlink:href="#hd"/>
<path d="M466.20 96.00v-28.00" class="stroke"/>
<path class="fill"
	d="M490.90 72.00l13.20 0.00v3.20l-13.20 -0.00"/>
<use x="487.70" y="93.00" xlink:href="#hd"/>
<path d="M491.20 93.00v-20.00" class="stroke"/>
<use x="500.20" y="93.00" xlink:href="#hd"/>
<path d="M503.70 93.00v-20.00" class="stroke"/>
<path class="fill"
	d="M516.80 61.80l31.20 0.00v3.20l-31.20 -0.00"/>
<path class="fill"
	d="M517.10 66.80l30.50 0.00v3.20l-30.50 -0.00"/>
<use x="513.60" y="90.00" xlink:href="#hd"/>
<path d="M517.10 90.00v-27.20" class="stroke"/>
<use x="523.80" y="87.00" xlink:href="#hd"/>
<path d="M527.30 87.00v-24.20" class="stroke"/>
<use x="534.00" y="84.00" xlink:href="#hd"/>
<path d="M537.50 84.00v-21.20" class="stroke"/>
<use x="544.20" y="90.00" xlink:href="#hd"/>
<path d="M547.70 90.00v-27.20" class="stroke"/>
<path class="fill"
	d="M572.30 67.40l13.20 3.20v3.20l-13.20 -3.20"/>
<use x="569.20" y="87.00" xlink:href="#hd"/>
<path d="M572.70 87.00v-18.50" class="stroke"/>
<use x="581.70" y="93.00" xlink:href="#hd"/>
<path d="M585.20 93.00v-21.50" class="stroke"/>
<path class="fill"
	d="M598.30 70.40l13.20 3.20v3.20l-13.20 -3.20"/>
<use x="595.10" y="90.00" xlink:href="#hd"/>
<path d="M598.60 90.00v-18.50" class="stroke"/>
<use x="607.70" y="96.00" xlink:href="#hd"/>
<path d="M611.20 96.00v-21.50" class="stroke"/>
<path class="fill"
	d="M635.80 72.00l13.20 0.00v3.20l-13.20 -0.00"/>
<use x="632.70" y="93.00" xlink:href="#hd"/>
<path d="M636.20 93.00v-20.00" class="stroke"/>
<use x="645.20" y="93.00" xlink:href="#hd"/>
<path d="M648.70 93.00v-20.00" class="stroke"/>
<use x="658.60" y="93.00" xlink:href="#hd"/>
<path d="M662.10 93.00v-21.00" class="stroke"/>
<path class="fill"
	d="M662.10 72.00c0.6 5.6 9.6 9 5.6 18.4
	1.6 -6 -1.3 -11.6 -5.6 -12.8
"/>
<use x="22.00" y="151.00" xlink:href="#tclef"/>
<use x="37.00" y="133.00" xlink:href="#sh0"/>
<g style="font:bold 16px serif"
	transform="translate(53.00,156.50) scale(1.2,1)">
	<text text-anchor="middle">4</text>
	<text y="-12" text-anchor="middle">2</text>
</g>
<use x="71.00" y="139.00" xlink:href="#hd"/>
<path d="M67.50 139.00v21.00" class="stroke"/>
<path class="fill"
	d="M67.50 160.00c0.6 -5.6 9.6 -9 5.6 -18.4
	1.6 6 -1.3 11.6 -5.6 12.8
"/>
<path class="fill"
	d="M104.70 166.00l13.20 0.00v-3.20l-13.20 -0.00"/>
<use x="108.50" y="145.00" xlink:href="#hd"/>
<path d="M105.00 145.00v20.00" class="stroke"/>
<use x="121.00" y="145.00" xlink:href="#hd"/>
<path d="M117.50 145.00v20.00" class="stroke"/>
<path class="fill"
	d="M130.60 170.20l31.20 0.00v-3.20l-31.20 -0.00"/>
<path class="fill"
	d="M130.90 165.20l30.50 0.00v-3.20l-30.50 -0.00"/>
<use x="134.40" y="148.00" xlink:href="#hd"/>
<path d="M130.90 148.00v21.20" class="stroke"/>
<use x="144.60" y="145.00" xlink:href="#hd"/>
<path d="M141.10 145.00v24.20" class="stroke"/>
<use x="154.80" y="142.00" xlink:href="#hd"/>
<path d="M151.30 142.00v27.20" class="stroke"/>
<use x="165.00" y="148.00" xlink:href="#hd"/>
<path d="M161.50 148.00v21.20" class="stroke"/>
<path class="fill"
	d="M186.10 166.00l13.20 0.00v-3.20l-13.20 -0.00"/>
<use x="190.00" y="145.00" xlink:href="#hd"/>
<path d="M186.50 145.00v20.00" class="stroke"/>
<use x="202.50" y="145.00" xlink:href="#hd"/>
<path d="M199.00 145.00v20.00" class="stroke"/>
<path class="fill"
	d="M212.10 164.90l31.20 0.00v-3.20l-31.20 -0.00"/>
<path class="fill"
	d="M212.40 159.90l30.50 0.00v-3.20l-30.50 -0.00"/>
<use x="215.90" y="142.00" xlink:href="#hd"/>
<path d="M212.40 142.00v22.00" class="stroke"/>
<use x="226.10" y="139.00" xlink:href="#hd"/>
<path d="M222.60 139.00v25.00" class="stroke"/>
<use x="236.30" y="136.00" xlink:href="#hd"/>
<path d="M232.80 136.00v28.00" class="stroke"/>
<use x="246.40" y="142.00" xlink:href="#hd"/>
<path d="M242.90 142.00v22.00" class="stroke"/>
<path class="fill"
	d="M267.60 158.30l13.20 -3.90v-3.20l-13.20 3.90"/>
<use x="271.40" y="139.00" xlink:href="#hd"/>
<path d="M267.90 139.00v18.20" class="stroke"/>
<use x="284.00" y="130.00" xlink:href="#hd"/>
<path d="M280.50 130.00v23.50" class="stroke"/>
<path class="fill"
	d="M293.60 154.40l13.20 2.10v-3.20l-13.20 -2.10"/>
<use x="297.40" y="133.00" xlink:href="#hd"/>
<path d="M293.90 133.00v20.50" class="stroke"/>
<use x="309.90" y="136.00" xlink:href="#hd"/>
<path d="M306.40 136.00v19.50" class="stroke"/>
<path class="fill"
	d="M331.10 161.30l21.00 -3.90v-3.20l-21.00 3.90"/>
<path class="fill"
	d="M331.40 156.20l10.20 -1.90v-3.20l-10.20 1.90"/>
<use x="334.90" y="139.00" xlink:href="#hd"/>
<path d="M331.40 139.00v21.20" class="stroke"/>
<use x="345.10" y="136.00" xlink:href="#hd"/>
<path d="M341.60 136.00v22.30" class="stroke"/>
<use x="355.30" y="133.00" xlink:href="#hd"/>
<path d="M351.80 133.00v23.40" class="stroke"/>
<path class="fill"
	d="M364.90 163.40l13.20 3.90v-3.20l-13.20 -3.90"/>
<use x="368.70" y="139.00" xlink:href="#hd"/>
<path d="M365.20 139.00v23.50" class="stroke"/>
<use x="381.20" y="148.00" xlink:href="#hd"/>
<path d="M377.70 148.00v18.20" class="stroke"/>
<path class="fill"
	d="M402.40 166.00l13.20 0.00v-3.20l-13.20 -0.00"/>
<use x="406.20" y="145.00" xlink:href="#hd"/>
<path d="M402.70 145.00v20.00" class="stroke"/>
<use x="418.80" y="145.00" xlink:href="#hd"/>
<path d="M415.30 145.00v20.00" class="stroke"/>
<path class="fill"
	d="M428.30 170.20l31.20 0.00v-3.20l-31.20 -0.00"/>
<path class="fill"
	d="M428.70 165.20l30.50 0.00v-3.20l-30.50 -0.00"/>
<use x="432.20" y="148.00" xlink:href="#hd"/>
<path d="M428.70 148.00v21.20" class="stroke"/>
<use x="442.30" y="145.00" xlink:href="#hd"/>
<path d="M438.80 145.00v24.20" class="stroke"/>
<use x="452.50" y="142.00" xlink:href="#hd"/>
<path d="M449.00 142.00v27.20" class="stroke"/>
<use x="462.70" y="148.00" xlink:href="#hd"/>
<path d="M459.20 148.00v21.20" class="stroke"/>
<path class="fill"
	d="M483.90 166.00l13.20 0.00v-3.20l-13.20 -0.00"/>
<use x="487.70" y="145.00" xlink:href="#hd"/>
<path d="M484.20 145.00v20.00" class="stroke"/>
<use x="500.20" y="145.00" xlink:href="#hd"/>
<path d="M496.70 145.00v20.00" class="stroke"/>
<path class="fill"
	d="M509.80 164.90l31.20 0.00v-3.20l-31.20 -0.00"/>
<path class="fill"
	d="M510.10 159.90l30.50 0.00v-3.20l-30.50 -0.00"/>
<use x="513.60" y="142.00" xlink:href="#hd"/>
<path d="M510.10 142.00v22.00" class="stroke"/>
<use x="523.80" y="139.00" xlink:href="#hd"/>
<path d="M520.30 139.00v25.00" class="stroke"/>
<use x="534.00" y="136.00" xlink:href="#hd"/>
<path d="M530.50 136.00v28.00" class="stroke"/>
<use x="544.20" y="142.00" xlink:href="#hd"/>
<path d="M540.70 142.00v22.00" class="stroke"/>
<path class="fill"
	d="M565.30 158.30l13.20 -3.90v-3.20l-13.20 3.90"/>
<use x="569.20" y="139.00" xlink:href="#hd"/>
<path d="M565.70 139.00v18.20" class="stroke"/>
<use x="581.70" y="130.00" xlink:href="#hd"/>
<path d="M578.20 130.00v23.50" class="stroke"/>
<path class="fill"
	d="M591.30 155.40l13.20 3.20v-3.20l-13.20 -3.20"/>
<use x="595.10" y="133.00" xlink:href="#hd"/>
<path d="M591.60 133.00v21.50" class="stroke"/>
<use x="607.70" y="139.00" xlink:href="#hd"/>
<path d="M604.20 139.00v18.50" class="stroke"/>
<path class="fill"
	d="M628.80 166.00l13.20 0.00v-3.20l-13.20 -0.00"/>
<use x="632.70" y="145.00" xlink:href="#hd"/>
<path d="M629.20 145.00v20.00" class="stroke"/>
<use x="645.20" y="145.00" xlink:href="#hd"/>
<path d="M641.70 145.00v20.00" class="stroke"/>
<use x="658.60" y="145.00" xlink:href="#hd"/>
<path d="M655.10 145.00v21.00" class="stroke"/>
<path class="fill"
	d="M655.10 166.00c0.6 -5.6 9.6 -9 5.6 -18.4
	1.6 6 -1.3 11.6 -5.6 12.8
"/>
</g>
<g stroke-width="0.70" style="font:italic 14.00px Times">
<path class="stroke" stroke-width="1"
	d="M10.00 285.00v-82.00"/>
<g transform="translate(10.00,203.00) scale(1,0.82)">
	<use xlink:href="#brace"/>
</g>
<use x="61.50" y="227.00" xlink:href="#rdots"/>
<path class="stroke" stroke-width="1"
	d="M57.50 227.00v-24.00"/>
<path class="stroke" stroke-width="3"
	d="M53.00 227.00v-24.00"/>
<use x="61.50" y="285.00" xlink:href="#rdots"/>
<path class="stroke" stroke-width="1"
	d="M57.50 285.00v-58.00"/>
<path class="stroke" stroke-width="3"
	d="M53.00 285.00v-58.00"/>
<use x="99.00" y="227.00" xlink:href="#rdots"/>
<path class="stroke" stroke-width="1"
	d="M95.00 227.00v-24.00"/>
<path class="stroke" stroke-width="3"
	d="M90.50 227.00v-24.00"/>
<path class="stroke" stroke-width="1"
	d="M100.00 285.00v-58.00"/>
<path class="stroke" stroke-width="1"
	d="M173.50 227.00v-24.00"/>
<path class="stroke" stroke-width="1"
	d="M173.50 285.00v-58.00"/>
<path class="stroke" stroke-width="1"
	d="M246.10 227.00v-24.00"/>
<path class="stroke" stroke-width="1"
	d="M246.10 285.00v-58.00"/>
<path class="stroke" stroke-width="1"
	d="M318.90 227.00v-24.00"/>
<path class="stroke" stroke-width="1"
	d="M318.90 285.00v-58.00"/>
<path class="stroke" stroke-width="1"
	d="M388.30 227.00v-24.00"/>
<path class="stroke" stroke-width="1"
	d="M388.30 285.00v-58.00"/>
<path class="stroke" stroke-width="1"
	d="M461.80 227.00v-24.00"/>
<path class="stroke" stroke-width="1"
	d="M461.80 285.00v-58.00"/>
<path class="stroke" stroke-width="1"
	d="M534.40 227.00v-24.00"/>
<path class="stroke" stroke-width="1"
	d="M534.40 285.00v-58.00"/>
<path class="stroke" stroke-width="1"
	d="M622.40 227.00v-24.00"/>
<path class="stroke" stroke-width="1"
	d="M622.40 285.00v-58.00"/>
<path class="stroke" stroke-width="3"
	d="M690.10 227.00v-24.00"/>
<path class="stroke" stroke-width="1"
	d="M685.60 227.00v-24.00"/>
<use x="681.60" y="227.00" xlink:href="#rdots"/>
<path class="stroke" stroke-width="3"
	d="M690.10 285.00v-58.00"/>
<path class="stroke" stroke-width="1"
	d="M685.60 285.00v-58.00"/>
<use x="681.60" y="285.00" xlink:href="#rdots"/>
<path d="m10.00 227.00
	h681.60
	M10.00 221.00
	h681.60
	M10.00 215.00
	h681.60
	M10.00 209.00
	h681.60
	M10.00 203.00
	h681.60
	" class="stroke"/>
<path d="m10.00 285.00
	h681.60
	M10.00 279.00
	h681.60
	M10.00 273.00
	h681.60
	M10.00 267.00
	h681.60
	M10.00 261.00
	h681.60
	" class="stroke"/>
<use x="22.00" y="221.00" xlink:href="#tclef"/>
<use x="37.00" y="203.00" xlink:href="#sh0"/>
<use x="75.00" y="215.00" xlink:href="#hd"/>
<path d="M78.50 215.00v-21.00" class="stroke"/>
<path class="fill"
	d="M78.50 194.00c0.6 5.6 9.6 9 5.6 18.4
	1.6 -6 -1.3 -11.6 -5.6 -12.8
"/>
<path class="fill"
	d="M108.70 230.00l15.80 0.00v-3.20l-15.80 -0.00"/>
<use x="112.50" y="209.00" xlink:href="#hd"/>
<path d="M109.00 209.00v20.00" class="stroke"/>
<use x="127.70" y="209.00" xlink:href="#hd"/>
<path d="M124.20 209.00v20.00" class="stroke"/>
<path class="fill"
	d="M141.10 233.40l15.80 2.20v-3.20l-15.80 -2.20"/>
<use x="144.90" y="212.00" xlink:href="#hd"/>
<path d="M141.40 212.00v20.40" class="stroke"/>
<use x="160.10" y="215.00" xlink:href="#hd"/>
<path d="M156.60 215.00v19.60" class="stroke"/>
<path class="fill"
	d="M189.20 195.10l19.80 -2.40v3.20l-19.80 2.40"/>
<path class="fill"
	d="M201.60 198.60l7.00 -0.80v3.20l-7.00 0.80"/>
<use x="186.00" y="218.00" xlink:href="#hd"/>
<circle class="fill" cx="193.70" cy="218.00" r="1.2"/>
<path d="M189.50 218.00v-21.90" class="stroke"/>
<use x="205.10" y="215.00" xlink:href="#hd"/>
<path d="M208.60 215.00v-21.20" class="stroke"/>
<path class="fill"
	d="M220.70 192.30l15.80 3.50v3.20l-15.80 -3.50"/>
<use x="217.50" y="212.00" xlink:href="#hd"/>
<path d="M221.00 212.00v-18.70" class="stroke"/>
<use x="232.70" y="218.00" xlink:href="#hd"/>
<path d="M236.20 218.00v-21.30" class="stroke"/>
<path class="fill"
	d="M261.80 195.30l15.80 3.50v3.20l-15.80 -3.50"/>
<use x="258.60" y="215.00" xlink:href="#hd"/>
<path d="M262.10 215.00v-18.70" class="stroke"/>
<use x="273.80" y="221.00" xlink:href="#hd"/>
<path d="M277.30 221.00v-21.30" class="stroke"/>
<path class="fill"
	d="M293.50 197.40l15.80 2.20v3.20l-15.80 -2.20"/>
<use x="290.30" y="218.00" xlink:href="#hd"/>
<path d="M293.80 218.00v-19.60" class="stroke"/>
<use x="305.50" y="221.00" xlink:href="#hd"/>
<path d="M309.00 221.00v-20.40" class="stroke"/>
<path class="fill"
	d="M334.50 201.70l23.60 4.10v3.20l-23.60 -4.10"/>
<path class="fill"
	d="M334.90 206.80l11.50 2.00v3.20l-11.50 -2.00"/>
<use x="331.40" y="224.00" xlink:href="#hd"/>
<path d="M334.90 224.00v-21.20" class="stroke"/>
<use x="342.90" y="227.00" xlink:href="#hd"/>
<path d="M346.40 227.00v-22.20" class="stroke"/>
<use x="354.30" y="230.00" xlink:href="#hd"/>
<path d="M357.80 230.00v-23.30" class="stroke"/>
<use x="370.90" y="230.00" xlink:href="#hd"/>
<path d="M374.40 230.00v-21.00" class="stroke"/>
<path class="fill"
	d="M397.00 230.00l15.80 0.00v-3.20l-15.80 -0.00"/>
<use x="400.80" y="209.00" xlink:href="#hd"/>
<path d="M397.30 209.00v20.00" class="stroke"/>
<use x="416.00" y="209.00" xlink:href="#hd"/>
<path d="M412.50 209.00v20.00" class="stroke"/>
<path class="fill"
	d="M429.40 233.40l15.80 2.20v-3.20l-15.80 -2.20"/>
<use x="433.30" y="212.00" xlink:href="#hd"/>
<path d="M429.80 212.00v20.40" class="stroke"/>
<use x="448.40" y="215.00" xlink:href="#hd"/>
<path d="M444.90 215.00v19.60" class="stroke"/>
<path class="fill"
	d="M477.50 195.10l19.80 -2.40v3.20l-19.80 2.40"/>
<path class="fill"
	d="M489.90 198.60l7.00 -0.80v3.20l-7.00 0.80"/>
<use x="474.30" y="218.00" xlink:href="#hd"/>
<circle class="fill" cx="482.00" cy="218.00" r="1.2"/>
<path d="M477.80 218.00v-21.90" class="stroke"/>
<use x="493.40" y="215.00" xlink:href="#hd"/>
<path d="M496.90 215.00v-21.20" class="stroke"/>
<path class="fill"
	d="M509.00 192.30l15.80 3.50v3.20l-15.80 -3.50"/>
<use x="505.90" y="212.00" xlink:href="#hd"/>
<path d="M509.40 212.00v-18.70" class="stroke"/>
<use x="521.00" y="218.00" xlink:href="#hd"/>
<path d="M524.50 218.00v-21.30" class="stroke"/>
<path class="fill"
	d="M550.10 195.00l23.60 4.10v3.20l-23.60 -4.10"/>
<use x="546.90" y="215.00" xlink:href="#hd"/>
<path d="M550.40 215.00v-19.00" class="stroke"/>
<use x="569.90" y="221.00" xlink:href="#hd"/>
<path d="M573.40 221.00v-21.00" class="stroke"/>
<path class="fill"
	d="M597.00 198.30l15.80 3.50v3.20l-15.80 -3.50"/>
<use x="593.80" y="218.00" xlink:href="#hd"/>
<path d="M597.30 218.00v-18.70" class="stroke"/>
<use x="609.00" y="224.00" xlink:href="#hd"/>
<path d="M612.50 224.00v-21.30" class="stroke"/>
<path class="fill"
	d="M638.00 200.00l15.80 0.00v3.20l-15.80 -0.00"/>
<use x="634.90" y="221.00" xlink:href="#hd"/>
<path d="M638.40 221.00v-20.00" class="stroke"/>
<use x="650.00" y="221.00" xlink:href="#hd"/>
<path d="M653.50 221.00v-20.00" class="stroke"/>
<use x="666.60" y="221.00" xlink:href="#hd"/>
<path d="M670.10 221.00v-21.00" class="stroke"/>
<path class="fill"
	d="M670.10 200.00c0.6 5.6 9.6 9 5.6 18.4
	1.6 -6 -1.3 -11.6 -5.6 -12.8
"/>
<use x="22.00" y="279.00" xlink:href="#tclef"/>
<use x="37.00" y="261.00" xlink:href="#sh0"/>
<use x="75.00" y="279.00" xlink:href="#hd"/>
<path d="M78.50 279.00v-21.00" class="stroke"/>
<path class="fill"
	d="M78.50 258.00c0.6 5.6 9.6 9 5.6 18.4
	1.6 -6 -1.3 -11.6 -5.6 -12.8
"/>
<path class="fill"
	d="M115.70 252.00l15.80 0.00v3.20l-15.80 -0.00"/>
<use x="112.50" y="273.00" xlink:href="#hd"/>
<path d="M116.00 273.00v-20.00" class="stroke"/>
<use x="127.70" y="273.00" xlink:href="#hd"/>
<path d="M131.20 273.00v-20.00" class="stroke"/>
<path class="fill"
	d="M141.10 285.40l15.80 2.20v-3.20l-15.80 -2.20"/>
<use x="144.90" y="264.00" xlink:href="#hd"/>
<path d="M141.40 264.00v20.40" class="stroke"/>
<use x="160.10" y="267.00" xlink:href="#hd"/>
<path d="M156.60 267.00v19.60" class="stroke"/>
<path class="fill"
	d="M182.20 292.70l19.80 -2.40v-3.20l-19.80 2.40"/>
<path class="fill"
	d="M194.60 286.20l7.00 -0.80v-3.20l-7.00 0.80"/>
<use x="186.00" y="270.00" xlink:href="#hd"/>
<circle class="fill" cx="193.70" cy="270.00" r="1.2"/>
<path d="M182.50 270.00v21.60" class="stroke"/>
<use x="205.10" y="267.00" xlink:href="#hd"/>
<path d="M201.60 267.00v22.40" class="stroke"/>
<path class="fill"
	d="M213.70 284.60l15.80 -2.20v-3.20l-15.80 2.20"/>
<use x="217.50" y="264.00" xlink:href="#hd"/>
<path d="M214.00 264.00v19.60" class="stroke"/>
<use x="232.70" y="261.00" xlink:href="#hd"/>
<path d="M229.20 261.00v20.40" class="stroke"/>
<path class="fill"
	d="M254.80 286.30l15.80 -4.30v-3.20l-15.80 4.30"/>
<use x="258.60" y="267.00" xlink:href="#hd"/>
<path d="M255.10 267.00v18.20" class="stroke"/>
<use x="273.80" y="258.00" xlink:href="#hd"/>
<path d="M270.30 258.00v23.10" class="stroke"/>
<path class="fill"
	d="M286.50 291.40l15.80 2.20v-3.20l-15.80 -2.20"/>
<use x="290.30" y="270.00" xlink:href="#hd"/>
<path d="M286.80 270.00v20.40" class="stroke"/>
<use x="305.50" y="273.00" xlink:href="#hd"/>
<path d="M302.00 273.00v19.60" class="stroke"/>
<path class="fill"
	d="M334.50 253.70l23.60 4.10v3.20l-23.60 -4.10"/>
<path class="fill"
	d="M334.90 258.80l11.50 2.00v3.20l-11.50 -2.00"/>
<use x="331.40" y="276.00" xlink:href="#hd"/>
<path d="M334.90 276.00v-21.20" class="stroke"/>
<use x="342.90" y="279.00" xlink:href="#hd"/>
<path d="M346.40 279.00v-22.20" class="stroke"/>
<use x="354.30" y="282.00" xlink:href="#hd"/>
<path d="M357.80 282.00v-23.30" class="stroke"/>
<use x="370.90" y="282.00" xlink:href="#hd"/>
<path d="M374.40 282.00v-21.00" class="stroke"/>
<path class="fill"
	d="M404.00 252.00l15.80 0.00v3.20l-15.80 -0.00"/>
<use x="400.80" y="273.00" xlink:href="#hd"/>
<path d="M404.30 273.00v-20.00" class="stroke"/>
<use x="416.00" y="273.00" xlink:href="#hd"/>
<path d="M419.50 273.00v-20.00" class="stroke"/>
<path class="fill"
	d="M429.40 285.40l15.80 2.20v-3.20l-15.80 -2.20"/>
<use x="433.30" y="264.00" xlink:href="#hd"/>
<path d="M429.80 264.00v20.40" class="stroke"/>
<use x="448.40" y="267.00" xlink:href="#hd"/>
<path d="M444.90 267.00v19.60" class="stroke"/>
<path class="fill"
	d="M470.50 292.70l19.80 -2.40v-3.20l-19.80 2.40"/>
<path class="fill"
	d="M482.90 286.20l7.00 -0.80v-3.20l-7.00 0.80"/>
<use x="474.30" y="270.00" xlink:href="#hd"/>
<circle class="fill" cx="482.00" cy="270.00" r="1.2"/>
<path d="M470.80 270.00v21.60" class="stroke"/>
<use x="493.40" y="267.00" xlink:href="#hd"/>
<path d="M489.90 267.00v22.40" class="stroke"/>
<path class="fill"
	d="M502.00 284.60l15.80 -2.20v-3.20l-15.80 2.20"/>
<use x="505.90" y="264.00" xlink:href="#hd"/>
<path d="M502.40 264.00v19.60" class="stroke"/>
<use x="521.00" y="261.00" xlink:href="#hd"/>
<path d="M517.50 261.00v20.40" class="stroke"/>
<path class="fill"
	d="M543.10 289.30l35.10 -6.00v-3.20l-35.10 6.00"/>
<path class="fill"
	d="M543.40 284.20l34.50 -5.90v-3.20l-34.50 5.90"/>
<use x="546.90" y="267.00" xlink:href="#hd"/>
<path d="M543.40 267.00v21.20" class="stroke"/>
<use x="558.40" y="264.00" xlink:href="#hd"/>
<path d="M554.90 264.00v22.20" class="stroke"/>
<use x="569.90" y="261.00" xlink:href="#hd"/>
<path d="M566.40 261.00v23.30" class="stroke"/>
<use x="581.40" y="258.00" xlink:href="#hd"/>
<path d="M577.90 258.00v24.30" class="stroke"/>
<path class="fill"
	d="M590.00 283.30l15.80 3.50v-3.20l-15.80 -3.50"/>
<use x="593.80" y="261.00" xlink:href="#hd"/>
<path d="M590.30 261.00v21.30" class="stroke"/>
<use x="609.00" y="267.00" xlink:href="#hd"/>
<path d="M605.50 267.00v18.70" class="stroke"/>
<path class="fill"
	d="M631.00 294.00l15.80 0.00v-3.20l-15.80 -0.00"/>
<use x="634.90" y="273.00" xlink:href="#hd"/>
<path d="M631.40 273.00v20.00" class="stroke"/>
<use x="650.00" y="273.00" xlink:href="#hd"/>
<path d="M646.50 273.00v20.00" class="stroke"/>
<use x="666.60" y="273.00" xlink:href="#hd"/>
<path d="M663.10 273.00v21.00" class="stroke"/>
<path class="fill"
	d="M663.10 294.00c0.6 -5.6 9.6 -9 5.6 -18.4
	1.6 6 -1.3 11.6 -5.6 12.8
"/>
</g>
</svg>
