<?xml version="1.0" standalone="no"?>
<!DOCTYPE svg PUBLIC "-//W3C//DTD SVG 1.1//EN"
	"http://www.w3.org/Graphics/SVG/1.1/DTD/svg11.dtd">
<svg xmlns="http://www.w3.org/2000/svg" version="1.1"
	xmlns:xlink="http://www.w3.org/1999/xlink"
	color="black"
	width="701.60px" height="308.00px">
<style type="text/css">
.fill {fill: currentColor}
.stroke {stroke: currentColor; fill: none}
text{white-space: pre}
</style>
<title>/media/tim/Data1/tims_code/sphinx-tunes/source/_abcfiles/Linnonu.abc (2) tune 2</title>
<!-- Creator: abcm2ps-8.14.6 -->
<!-- CreationDate: Jul 30, 2023 12:21 -->
<!-- CommandLine: -g /media/tim/Data1/tims_code/sphinx-tunes/source/_abcfiles/Linnonu.abc -O /media/tim/Data1/tims_code/sphinx-tunes/source/_abcfiles/Linnonu.svg -->
<g stroke-width="0.70">
<!-- title: L'Inconnu de Michel -->
</g>
<g stroke-width="0.70" style="font:20.00px Times">
<text x="350.80" y="22.00" text-anchor="middle">L&apos;Inconnu de Michel</text>
</g>
<g stroke-width="0.70" style="font:italic 14.00px Times">
<text x="691.60" y="46.00" text-anchor="end">Harmony Myrna Luff</text>
</g>
<g stroke-width="0.70" style="font:italic 14.00px Times">
<path class="stroke" stroke-width="1"
	d="M10.00 157.00v-82.00"/>
<defs>
<path id="brace" class="fill" d="m-2.5 101
	c-4.5 -4.6 -7.5 -12.2 -4.4 -26.8
	3.5 -14.3 3.2 -21.7 -2.1 -24.2
	7.4 2.4 7.3 14.2 3.5 29.5
	-2.7 9.5 -1.5 16.2 3 21.5
	M-2.5 1c-4.5 4.6 -7.5 12.2 -4.4 26.8
	c3.5 14.3 3.2 21.7 -2.1 24.2
	7.4 -2.4 7.3 -14.2 3.5 -29.5
	-2.7 -9.5 -1.5 -16.2 3 -21.5"/>
</defs>
<g transform="translate(10.00,75.00) scale(1,0.82)">
	<use xlink:href="#brace"/>
</g>
<defs>
<g id="rdots" class="fill">
	<circle cx="0" cy="-9" r="1.2"/>
	<circle cx="0" cy="-15" r="1.2"/>
</g>
</defs>
<use x="81.50" y="99.00" xlink:href="#rdots"/>
<path class="stroke" stroke-width="1"
	d="M77.50 99.00v-24.00"/>
<path class="stroke" stroke-width="3"
	d="M73.00 99.00v-24.00"/>
<use x="81.50" y="157.00" xlink:href="#rdots"/>
<path class="stroke" stroke-width="1"
	d="M77.50 157.00v-58.00"/>
<path class="stroke" stroke-width="3"
	d="M73.00 157.00v-58.00"/>
<path class="stroke" stroke-width="1"
	d="M151.60 99.00v-24.00"/>
<path class="stroke" stroke-width="1"
	d="M151.60 157.00v-58.00"/>
<path class="stroke" stroke-width="1"
	d="M235.60 99.00v-24.00"/>
<path class="stroke" stroke-width="1"
	d="M235.60 157.00v-58.00"/>
<path class="stroke" stroke-width="1"
	d="M304.80 99.00v-24.00"/>
<path class="stroke" stroke-width="1"
	d="M304.80 157.00v-58.00"/>
<path class="stroke" stroke-width="1"
	d="M407.80 99.00v-24.00"/>
<path class="stroke" stroke-width="1"
	d="M407.80 157.00v-58.00"/>
<path class="stroke" stroke-width="1"
	d="M476.90 99.00v-24.00"/>
<path class="stroke" stroke-width="1"
	d="M476.90 157.00v-58.00"/>
<path class="stroke" stroke-width="1"
	d="M560.90 99.00v-24.00"/>
<path class="stroke" stroke-width="1"
	d="M560.90 157.00v-58.00"/>
<path class="stroke" stroke-width="1"
	d="M630.10 99.00v-24.00"/>
<path class="stroke" stroke-width="1"
	d="M630.10 157.00v-58.00"/>
<path class="stroke" stroke-width="3"
	d="M690.10 99.00v-24.00"/>
<path class="stroke" stroke-width="1"
	d="M685.60 99.00v-24.00"/>
<use x="681.60" y="99.00" xlink:href="#rdots"/>
<path class="stroke" stroke-width="3"
	d="M690.10 157.00v-58.00"/>
<path class="stroke" stroke-width="1"
	d="M685.60 157.00v-58.00"/>
<use x="681.60" y="157.00" xlink:href="#rdots"/>
<path d="m10.00 99.00
	h681.60
	M10.00 93.00
	h681.60
	M10.00 87.00
	h681.60
	M10.00 81.00
	h681.60
	M10.00 75.00
	h681.60
	" class="stroke"/>
<path d="m10.00 157.00
	h681.60
	M10.00 151.00
	h681.60
	M10.00 145.00
	h681.60
	M10.00 139.00
	h681.60
	M10.00 133.00
	h681.60
	" class="stroke"/>
<defs>
<path id="utclef" class="fill" d="m-50 -90
	c-72 -41 -72 -158 52 -188
	150 -10 220 188 90 256
	-114 52 -275 0 -293 -136
	-15 -181 93 -229 220 -334
	88 -87 79 -133 62 -210
	-51 33 -94 105 -89 186
	17 267 36 374 49 574
	6 96 -19 134 -77 135
	-80 1 -126 -93 -61 -133
	85 -41 133 101 31 105
	23 17 92 37 90 -92
	-10 -223 -39 -342 -50 -617
	0 -90 0 -162 96 -232
	56 72 63 230 22 289
	-74 106 -257 168 -255 316
	9 153 148 185 252 133
	86 -65 29 -192 -80 -176
	-71 12 -105 67 -59 124"/>
<use id="tclef" transform="translate(0,6) scale(0.045)"
	xlink:href="#utclef"/>
</defs>
<use x="22.00" y="93.00" xlink:href="#tclef"/>
<defs>
<path id="usharp" class="fill" d="
	m136 -702
	v890
	h32
	v-890
	m128 840
	h32
	v-888
	h-32
	m-232 286
	v116
	l338 -96
	v-116
	m-338 442
	v116
	l338 -98
	v-114"/>
<use id="sh0" transform="translate(-4,5) scale(0.018)"
	xlink:href="#usharp"/>
</defs>
<use x="37.00" y="75.00" xlink:href="#sh0"/>
<g style="font:bold 16px serif"
	transform="translate(53.00,98.50) scale(1.2,1)">
	<text text-anchor="middle">4</text>
	<text y="-12" text-anchor="middle">2</text>
</g>
<path class="fill"
	d="M91.20 106.70l14.90 -3.40v-3.20l-14.90 3.40"/>
<defs>
<ellipse id="hd" rx="4.1" ry="2.9"
	transform="rotate(-20)" class="fill"/>
</defs>
<use x="95.00" y="87.00" xlink:href="#hd"/>
<path d="M91.50 87.00v18.60" class="stroke"/>
<use x="109.20" y="81.00" xlink:href="#hd"/>
<path d="M105.70 81.00v21.40" class="stroke"/>
<path class="fill"
	d="M120.70 106.70l14.90 -3.40v-3.20l-14.90 3.40"/>
<use x="124.60" y="87.00" xlink:href="#hd"/>
<path d="M121.10 87.00v18.60" class="stroke"/>
<use x="138.80" y="81.00" xlink:href="#hd"/>
<path d="M135.30 81.00v21.40" class="stroke"/>
<path class="fill"
	d="M160.30 112.20l33.40 0.00v-3.20l-33.40 -0.00"/>
<path class="fill"
	d="M160.60 107.20l32.70 0.00v-3.20l-32.70 -0.00"/>
<use x="164.10" y="84.00" xlink:href="#hd"/>
<path d="M160.60 84.00v27.20" class="stroke"/>
<use x="175.00" y="87.00" xlink:href="#hd"/>
<path d="M171.50 87.00v24.20" class="stroke"/>
<use x="185.90" y="90.00" xlink:href="#hd"/>
<path d="M182.40 90.00v21.20" class="stroke"/>
<use x="196.80" y="87.00" xlink:href="#hd"/>
<path d="M193.30 87.00v24.20" class="stroke"/>
<path class="fill"
	d="M204.80 105.00l14.90 0.00v-3.20l-14.90 -0.00"/>
<use x="208.60" y="84.00" xlink:href="#hd"/>
<path d="M205.10 84.00v20.00" class="stroke"/>
<use x="222.80" y="84.00" xlink:href="#hd"/>
<path d="M219.30 84.00v20.00" class="stroke"/>
<path class="fill"
	d="M244.30 109.70l14.90 -3.40v-3.20l-14.90 3.40"/>
<use x="248.10" y="90.00" xlink:href="#hd"/>
<path d="M244.60 90.00v18.60" class="stroke"/>
<use x="262.30" y="84.00" xlink:href="#hd"/>
<path d="M258.80 84.00v21.40" class="stroke"/>
<path class="fill"
	d="M273.90 109.70l14.90 -3.40v-3.20l-14.90 3.40"/>
<use x="277.70" y="90.00" xlink:href="#hd"/>
<path d="M274.20 90.00v18.60" class="stroke"/>
<use x="291.90" y="84.00" xlink:href="#hd"/>
<path d="M288.40 84.00v21.40" class="stroke"/>
<path class="fill"
	d="M320.40 62.80l33.40 0.00v3.20l-33.40 -0.00"/>
<path class="fill"
	d="M320.80 67.80l32.70 0.00v3.20l-32.70 -0.00"/>
<use x="317.30" y="87.00" xlink:href="#hd"/>
<path d="M320.80 87.00v-23.20" class="stroke"/>
<use x="328.20" y="90.00" xlink:href="#hd"/>
<path d="M331.70 90.00v-26.20" class="stroke"/>
<use x="339.10" y="93.00" xlink:href="#hd"/>
<path d="M342.60 93.00v-29.20" class="stroke"/>
<use x="350.00" y="90.00" xlink:href="#hd"/>
<path d="M353.50 90.00v-26.20" class="stroke"/>
<path class="fill"
	d="M358.70 107.00l22.50 -4.00v-3.20l-22.50 4.00"/>
<use x="362.60" y="87.00" xlink:href="#hd"/>
<path d="M359.10 87.00v18.90" class="stroke"/>
<use x="384.40" y="81.00" xlink:href="#hd"/>
<path d="M380.90 81.00v21.10" class="stroke"/>
<path class="fill"
	d="M416.50 106.70l14.90 -3.40v-3.20l-14.90 3.40"/>
<use x="420.30" y="87.00" xlink:href="#hd"/>
<path d="M416.80 87.00v18.60" class="stroke"/>
<use x="434.50" y="81.00" xlink:href="#hd"/>
<path d="M431.00 81.00v21.40" class="stroke"/>
<path class="fill"
	d="M446.00 106.70l14.90 -3.40v-3.20l-14.90 3.40"/>
<use x="449.90" y="87.00" xlink:href="#hd"/>
<path d="M446.40 87.00v18.60" class="stroke"/>
<use x="464.10" y="81.00" xlink:href="#hd"/>
<path d="M460.60 81.00v21.40" class="stroke"/>
<path class="fill"
	d="M485.60 112.20l33.40 0.00v-3.20l-33.40 -0.00"/>
<path class="fill"
	d="M485.90 107.20l32.70 0.00v-3.20l-32.70 -0.00"/>
<use x="489.40" y="84.00" xlink:href="#hd"/>
<path d="M485.90 84.00v27.20" class="stroke"/>
<use x="500.30" y="87.00" xlink:href="#hd"/>
<path d="M496.80 87.00v24.20" class="stroke"/>
<use x="511.20" y="90.00" xlink:href="#hd"/>
<path d="M507.70 90.00v21.20" class="stroke"/>
<use x="522.10" y="87.00" xlink:href="#hd"/>
<path d="M518.60 87.00v24.20" class="stroke"/>
<path class="fill"
	d="M530.10 105.00l14.90 0.00v-3.20l-14.90 -0.00"/>
<use x="533.90" y="84.00" xlink:href="#hd"/>
<path d="M530.40 84.00v20.00" class="stroke"/>
<use x="548.10" y="84.00" xlink:href="#hd"/>
<path d="M544.60 84.00v20.00" class="stroke"/>
<path class="fill"
	d="M569.60 109.70l14.90 -3.40v-3.20l-14.90 3.40"/>
<use x="573.40" y="90.00" xlink:href="#hd"/>
<path d="M569.90 90.00v18.60" class="stroke"/>
<use x="587.60" y="84.00" xlink:href="#hd"/>
<path d="M584.10 84.00v21.40" class="stroke"/>
<path class="fill"
	d="M606.20 70.30l14.90 3.40v3.20l-14.90 -3.40"/>
<use x="603.00" y="90.00" xlink:href="#hd"/>
<path d="M606.50 90.00v-18.60" class="stroke"/>
<use x="617.20" y="96.00" xlink:href="#hd"/>
<path d="M620.70 96.00v-21.40" class="stroke"/>
<use x="642.60" y="93.00" xlink:href="#hd"/>
<path d="M646.10 93.00v-21.00" class="stroke"/>
<use x="663.10" y="93.00" xlink:href="#hd"/>
<path d="M666.60 93.00v-21.00" class="stroke"/>
<use x="22.00" y="151.00" xlink:href="#tclef"/>
<use x="37.00" y="133.00" xlink:href="#sh0"/>
<g style="font:bold 16px serif"
	transform="translate(53.00,156.50) scale(1.2,1)">
	<text text-anchor="middle">4</text>
	<text y="-12" text-anchor="middle">2</text>
</g>
<path class="fill"
	d="M98.20 131.70l14.90 4.20v3.20l-14.90 -4.20"/>
<use x="95.00" y="151.00" xlink:href="#hd"/>
<path d="M98.50 151.00v-18.20" class="stroke"/>
<use x="109.20" y="160.00" xlink:href="#hd"/>
<path d="M112.70 160.00v-23.20" class="stroke"/>
<path class="fill"
	d="M127.70 128.70l14.90 -3.40v3.20l-14.90 3.40"/>
<use x="124.60" y="151.00" xlink:href="#hd"/>
<path d="M128.10 151.00v-21.40" class="stroke"/>
<use x="138.80" y="145.00" xlink:href="#hd"/>
<path d="M142.30 145.00v-18.60" class="stroke"/>
<path class="fill"
	d="M167.30 125.10l33.40 0.00v3.20l-33.40 -0.00"/>
<path class="fill"
	d="M167.60 130.10l32.70 0.00v3.20l-32.70 -0.00"/>
<use x="164.10" y="148.00" xlink:href="#hd"/>
<path d="M167.60 148.00v-22.00" class="stroke"/>
<use x="175.00" y="151.00" xlink:href="#hd"/>
<path d="M178.50 151.00v-25.00" class="stroke"/>
<use x="185.90" y="154.00" xlink:href="#hd"/>
<path d="M189.40 154.00v-28.00" class="stroke"/>
<use x="196.80" y="151.00" xlink:href="#hd"/>
<path d="M200.30 151.00v-25.00" class="stroke"/>
<path class="fill"
	d="M211.80 127.00l14.90 0.00v3.20l-14.90 -0.00"/>
<use x="208.60" y="148.00" xlink:href="#hd"/>
<path d="M212.10 148.00v-20.00" class="stroke"/>
<use x="222.80" y="148.00" xlink:href="#hd"/>
<path d="M226.30 148.00v-20.00" class="stroke"/>
<path class="fill"
	d="M251.30 131.70l14.90 -3.40v3.20l-14.90 3.40"/>
<use x="248.10" y="154.00" xlink:href="#hd"/>
<path d="M251.60 154.00v-21.40" class="stroke"/>
<use x="262.30" y="148.00" xlink:href="#hd"/>
<path d="M265.80 148.00v-18.60" class="stroke"/>
<path class="fill"
	d="M280.90 134.30l14.90 3.40v3.20l-14.90 -3.40"/>
<use x="277.70" y="154.00" xlink:href="#hd"/>
<path d="M281.20 154.00v-18.60" class="stroke"/>
<use x="291.90" y="160.00" xlink:href="#hd"/>
<path d="M295.40 160.00v-21.40" class="stroke"/>
<path class="fill"
	d="M320.40 131.70l22.50 5.10v3.20l-22.50 -5.10"/>
<use x="317.30" y="151.00" xlink:href="#hd"/>
<path d="M320.80 151.00v-18.20" class="stroke"/>
<use x="339.10" y="160.00" xlink:href="#hd"/>
<path d="M342.60 160.00v-22.30" class="stroke"/>
<path class="fill"
	d="M365.70 120.80l33.40 0.00v3.20l-33.40 -0.00"/>
<path class="fill"
	d="M366.10 125.80l32.70 0.00v3.20l-32.70 -0.00"/>
<use x="362.60" y="151.00" xlink:href="#hd"/>
<path d="M366.10 151.00v-29.20" class="stroke"/>
<use x="373.50" y="148.00" xlink:href="#hd"/>
<path d="M377.00 148.00v-26.20" class="stroke"/>
<use x="384.40" y="145.00" xlink:href="#hd"/>
<path d="M387.90 145.00v-23.20" class="stroke"/>
<use x="395.30" y="148.00" xlink:href="#hd"/>
<path d="M398.80 148.00v-26.20" class="stroke"/>
<path class="fill"
	d="M423.50 131.70l14.90 4.20v3.20l-14.90 -4.20"/>
<use x="420.30" y="151.00" xlink:href="#hd"/>
<path d="M423.80 151.00v-18.20" class="stroke"/>
<use x="434.50" y="160.00" xlink:href="#hd"/>
<path d="M438.00 160.00v-23.20" class="stroke"/>
<path class="fill"
	d="M453.00 128.70l14.90 -3.40v3.20l-14.90 3.40"/>
<use x="449.90" y="151.00" xlink:href="#hd"/>
<path d="M453.40 151.00v-21.40" class="stroke"/>
<use x="464.10" y="145.00" xlink:href="#hd"/>
<path d="M467.60 145.00v-18.60" class="stroke"/>
<path class="fill"
	d="M492.60 125.10l33.40 0.00v3.20l-33.40 -0.00"/>
<path class="fill"
	d="M492.90 130.10l32.70 0.00v3.20l-32.70 -0.00"/>
<use x="489.40" y="148.00" xlink:href="#hd"/>
<path d="M492.90 148.00v-22.00" class="stroke"/>
<use x="500.30" y="151.00" xlink:href="#hd"/>
<path d="M503.80 151.00v-25.00" class="stroke"/>
<use x="511.20" y="154.00" xlink:href="#hd"/>
<path d="M514.70 154.00v-28.00" class="stroke"/>
<use x="522.10" y="151.00" xlink:href="#hd"/>
<path d="M525.60 151.00v-25.00" class="stroke"/>
<path class="fill"
	d="M537.10 127.40l14.90 2.20v3.20l-14.90 -2.20"/>
<use x="533.90" y="148.00" xlink:href="#hd"/>
<path d="M537.40 148.00v-19.60" class="stroke"/>
<use x="548.10" y="151.00" xlink:href="#hd"/>
<path d="M551.60 151.00v-20.40" class="stroke"/>
<path class="fill"
	d="M576.60 134.30l14.90 3.40v3.20l-14.90 -3.40"/>
<use x="573.40" y="154.00" xlink:href="#hd"/>
<path d="M576.90 154.00v-18.60" class="stroke"/>
<use x="587.60" y="160.00" xlink:href="#hd"/>
<path d="M591.10 160.00v-21.40" class="stroke"/>
<path class="fill"
	d="M606.20 127.40l14.90 -4.70v3.20l-14.90 4.70"/>
<use x="603.00" y="154.00" xlink:href="#hd"/>
<path d="M606.50 154.00v-25.70" class="stroke"/>
<use x="617.20" y="142.00" xlink:href="#hd"/>
<path d="M620.70 142.00v-18.20" class="stroke"/>
<use x="642.60" y="145.00" xlink:href="#hd"/>
<path d="M646.10 145.00v-21.00" class="stroke"/>
<use x="663.10" y="145.00" xlink:href="#hd"/>
<path d="M666.60 145.00v-21.00" class="stroke"/>
</g>
<g stroke-width="0.70" style="font:italic 14.00px Times">
<path class="stroke" stroke-width="1"
	d="M10.00 285.00v-82.00"/>
<g transform="translate(10.00,203.00) scale(1,0.82)">
	<use xlink:href="#brace"/>
</g>
<use x="61.50" y="227.00" xlink:href="#rdots"/>
<path class="stroke" stroke-width="1"
	d="M57.50 227.00v-24.00"/>
<path class="stroke" stroke-width="3"
	d="M53.00 227.00v-24.00"/>
<use x="61.50" y="285.00" xlink:href="#rdots"/>
<path class="stroke" stroke-width="1"
	d="M57.50 285.00v-58.00"/>
<path class="stroke" stroke-width="3"
	d="M53.00 285.00v-58.00"/>
<path class="stroke" stroke-width="1"
	d="M137.80 227.00v-24.00"/>
<path class="stroke" stroke-width="1"
	d="M137.80 285.00v-58.00"/>
<path class="stroke" stroke-width="1"
	d="M212.50 227.00v-24.00"/>
<path class="stroke" stroke-width="1"
	d="M212.50 285.00v-58.00"/>
<path class="stroke" stroke-width="1"
	d="M288.30 227.00v-24.00"/>
<path class="stroke" stroke-width="1"
	d="M288.30 285.00v-58.00"/>
<path class="stroke" stroke-width="1"
	d="M371.90 227.00v-24.00"/>
<path class="stroke" stroke-width="1"
	d="M371.90 285.00v-58.00"/>
<path class="stroke" stroke-width="1"
	d="M447.20 227.00v-24.00"/>
<path class="stroke" stroke-width="1"
	d="M447.20 285.00v-58.00"/>
<path class="stroke" stroke-width="1"
	d="M538.50 227.00v-24.00"/>
<path class="stroke" stroke-width="1"
	d="M538.50 285.00v-58.00"/>
<path class="stroke" stroke-width="1"
	d="M632.90 227.00v-24.00"/>
<path class="stroke" stroke-width="1"
	d="M632.90 285.00v-58.00"/>
<path class="stroke" stroke-width="3"
	d="M690.10 227.00v-24.00"/>
<path class="stroke" stroke-width="1"
	d="M685.60 227.00v-24.00"/>
<use x="681.60" y="227.00" xlink:href="#rdots"/>
<path class="stroke" stroke-width="3"
	d="M690.10 285.00v-58.00"/>
<path class="stroke" stroke-width="1"
	d="M685.60 285.00v-58.00"/>
<use x="681.60" y="285.00" xlink:href="#rdots"/>
<path d="m10.00 227.00
	h681.60
	M10.00 221.00
	h681.60
	M10.00 215.00
	h681.60
	M10.00 209.00
	h681.60
	M10.00 203.00
	h681.60
	" class="stroke"/>
<path d="m10.00 285.00
	h681.60
	M10.00 279.00
	h681.60
	M10.00 273.00
	h681.60
	M10.00 267.00
	h681.60
	M10.00 261.00
	h681.60
	" class="stroke"/>
<use x="22.00" y="221.00" xlink:href="#tclef"/>
<use x="37.00" y="203.00" xlink:href="#sh0"/>
<path class="fill"
	d="M78.20 198.10l20.20 -2.40v3.20l-20.20 2.40"/>
<path class="fill"
	d="M91.10 201.60l7.00 -0.80v3.20l-7.00 0.80"/>
<use x="75.00" y="221.00" xlink:href="#hd"/>
<circle class="fill" cx="82.70" cy="218.00" r="1.2"/>
<path d="M78.50 221.00v-21.90" class="stroke"/>
<use x="94.60" y="218.00" xlink:href="#hd"/>
<path d="M98.10 218.00v-21.20" class="stroke"/>
<path class="fill"
	d="M104.20 235.60l16.70 -2.30v-3.20l-16.70 2.30"/>
<use x="108.10" y="215.00" xlink:href="#hd"/>
<path d="M104.60 215.00v19.60" class="stroke"/>
<use x="124.10" y="212.00" xlink:href="#hd"/>
<path d="M120.60 212.00v20.40" class="stroke"/>
<path class="fill"
	d="M146.40 231.70l20.20 -2.40v-3.20l-20.20 2.40"/>
<path class="fill"
	d="M159.30 225.20l7.00 -0.80v-3.20l-7.00 0.80"/>
<use x="150.30" y="209.00" xlink:href="#hd"/>
<circle class="fill" cx="158.00" cy="206.00" r="1.2"/>
<path d="M146.80 209.00v21.60" class="stroke"/>
<use x="169.80" y="206.00" xlink:href="#hd"/>
<path d="M166.30 206.00v22.40" class="stroke"/>
<path class="fill"
	d="M179.00 231.20l16.70 3.60v-3.20l-16.70 -3.60"/>
<use x="182.80" y="209.00" xlink:href="#hd"/>
<path d="M179.30 209.00v21.30" class="stroke"/>
<use x="198.90" y="215.00" xlink:href="#hd"/>
<path d="M195.40 215.00v18.70" class="stroke"/>
<path class="fill"
	d="M221.20 234.20l16.70 3.60v-3.20l-16.70 -3.60"/>
<use x="225.00" y="212.00" xlink:href="#hd"/>
<path d="M221.50 212.00v21.30" class="stroke"/>
<use x="241.00" y="218.00" xlink:href="#hd"/>
<path d="M237.50 218.00v18.70" class="stroke"/>
<path class="fill"
	d="M261.80 199.60l16.70 -2.30v3.20l-16.70 2.30"/>
<use x="258.70" y="221.00" xlink:href="#hd"/>
<path d="M262.20 221.00v-20.40" class="stroke"/>
<use x="274.70" y="218.00" xlink:href="#hd"/>
<path d="M278.20 218.00v-19.60" class="stroke"/>
<use x="300.80" y="215.00" xlink:href="#hd"/>
<path d="M304.30 215.00v-21.00" class="stroke"/>
<path class="fill"
	d="M345.40 201.70l16.70 4.40v3.20l-16.70 -4.40"/>
<use x="342.20" y="221.00" xlink:href="#hd"/>
<path d="M345.70 221.00v-18.20" class="stroke"/>
<use x="358.30" y="230.00" xlink:href="#hd"/>
<path d="M361.80 230.00v-23.00" class="stroke"/>
<path class="fill"
	d="M387.60 198.10l20.20 -2.40v3.20l-20.20 2.40"/>
<path class="fill"
	d="M400.50 201.60l7.00 -0.80v3.20l-7.00 0.80"/>
<use x="384.40" y="221.00" xlink:href="#hd"/>
<circle class="fill" cx="392.10" cy="218.00" r="1.2"/>
<path d="M387.90 221.00v-21.90" class="stroke"/>
<use x="404.00" y="218.00" xlink:href="#hd"/>
<path d="M407.50 218.00v-21.20" class="stroke"/>
<path class="fill"
	d="M413.70 235.60l16.70 -2.30v-3.20l-16.70 2.30"/>
<use x="417.50" y="215.00" xlink:href="#hd"/>
<path d="M414.00 215.00v19.60" class="stroke"/>
<use x="433.60" y="212.00" xlink:href="#hd"/>
<path d="M430.10 212.00v20.40" class="stroke"/>
<path class="fill"
	d="M455.80 231.80l36.30 -2.60v-3.20l-36.30 2.60"/>
<path class="fill"
	d="M484.80 224.70l7.00 -0.50v-3.20l-7.00 0.50"/>
<use x="459.70" y="209.00" xlink:href="#hd"/>
<circle class="fill" cx="467.40" cy="206.00" r="1.2"/>
<path d="M456.20 209.00v21.80" class="stroke"/>
<use x="495.30" y="206.00" xlink:href="#hd"/>
<path d="M491.80 206.00v22.20" class="stroke"/>
<path class="fill"
	d="M505.00 231.20l16.70 3.60v-3.20l-16.70 -3.60"/>
<use x="508.90" y="209.00" xlink:href="#hd"/>
<path d="M505.40 209.00v21.30" class="stroke"/>
<use x="524.90" y="215.00" xlink:href="#hd"/>
<path d="M521.40 215.00v18.70" class="stroke"/>
<path class="fill"
	d="M547.20 234.20l16.70 3.60v-3.20l-16.70 -3.60"/>
<use x="551.00" y="212.00" xlink:href="#hd"/>
<path d="M547.50 212.00v21.30" class="stroke"/>
<use x="567.10" y="218.00" xlink:href="#hd"/>
<path d="M563.60 218.00v18.70" class="stroke"/>
<path class="fill"
	d="M587.90 200.30l24.50 2.50v3.20l-24.50 -2.50"/>
<use x="584.70" y="221.00" xlink:href="#hd"/>
<path d="M588.20 221.00v-19.70" class="stroke"/>
<use x="608.50" y="224.00" xlink:href="#hd"/>
<path d="M612.00 224.00v-20.30" class="stroke"/>
<use x="645.40" y="221.00" xlink:href="#hd"/>
<path d="M648.90 221.00v-21.00" class="stroke"/>
<use x="669.50" y="221.00" xlink:href="#hd"/>
<path d="M673.00 221.00v-21.00" class="stroke"/>
<use x="22.00" y="279.00" xlink:href="#tclef"/>
<use x="37.00" y="261.00" xlink:href="#sh0"/>
<path class="fill"
	d="M78.20 263.60l20.20 -3.80v3.20l-20.20 3.80"/>
<path class="fill"
	d="M91.10 266.10l7.00 -1.30v3.20l-7.00 1.30"/>
<use x="75.00" y="288.00" xlink:href="#hd"/>
<circle class="fill" cx="82.70" cy="288.00" r="1.2"/>
<path d="M78.50 288.00v-23.50" class="stroke"/>
<use x="94.60" y="282.00" xlink:href="#hd"/>
<path d="M98.10 282.00v-21.20" class="stroke"/>
<path class="fill"
	d="M111.20 257.60l16.70 -2.30v3.20l-16.70 2.30"/>
<use x="108.10" y="279.00" xlink:href="#hd"/>
<path d="M111.60 279.00v-20.40" class="stroke"/>
<use x="124.10" y="276.00" xlink:href="#hd"/>
<path d="M127.60 276.00v-19.60" class="stroke"/>
<path class="fill"
	d="M146.40 295.70l20.20 -2.40v-3.20l-20.20 2.40"/>
<path class="fill"
	d="M159.30 289.20l7.00 -0.80v-3.20l-7.00 0.80"/>
<use x="150.30" y="273.00" xlink:href="#hd"/>
<circle class="fill" cx="158.00" cy="270.00" r="1.2"/>
<path d="M146.80 273.00v21.60" class="stroke"/>
<use x="169.80" y="270.00" xlink:href="#hd"/>
<path d="M166.30 270.00v22.40" class="stroke"/>
<path class="fill"
	d="M179.00 292.30l16.70 -5.40v-3.20l-16.70 5.40"/>
<use x="182.80" y="273.00" xlink:href="#hd"/>
<path d="M179.30 273.00v18.20" class="stroke"/>
<use x="198.90" y="258.00" xlink:href="#hd"/>
<path d="M195.40 258.00v28.00" class="stroke"/>
<path class="fill"
	d="M221.20 286.20l16.70 3.60v-3.20l-16.70 -3.60"/>
<use x="225.00" y="264.00" xlink:href="#hd"/>
<path d="M221.50 264.00v21.30" class="stroke"/>
<use x="241.00" y="270.00" xlink:href="#hd"/>
<path d="M237.50 270.00v18.70" class="stroke"/>
<path class="fill"
	d="M254.80 284.60l16.70 -2.30v-3.20l-16.70 2.30"/>
<use x="258.70" y="264.00" xlink:href="#hd"/>
<path d="M255.20 264.00v19.60" class="stroke"/>
<use x="274.70" y="261.00" xlink:href="#hd"/>
<path d="M271.20 261.00v20.40" class="stroke"/>
<path class="fill"
	d="M297.00 281.90l24.50 4.10v-3.20l-24.50 -4.10"/>
<path class="fill"
	d="M297.30 277.00l11.90 2.00v-3.20l-11.90 -2.00"/>
<use x="300.80" y="258.00" xlink:href="#hd"/>
<path d="M297.30 258.00v23.00" class="stroke"/>
<use x="312.70" y="261.00" xlink:href="#hd"/>
<path d="M309.20 261.00v22.00" class="stroke"/>
<use x="324.60" y="264.00" xlink:href="#hd"/>
<path d="M321.10 264.00v21.00" class="stroke"/>
<path class="fill"
	d="M338.40 289.20l16.70 3.60v-3.20l-16.70 -3.60"/>
<use x="342.20" y="267.00" xlink:href="#hd"/>
<path d="M338.70 267.00v21.30" class="stroke"/>
<use x="358.30" y="273.00" xlink:href="#hd"/>
<path d="M354.80 273.00v18.70" class="stroke"/>
<path class="fill"
	d="M387.60 263.60l20.20 -3.80v3.20l-20.20 3.80"/>
<path class="fill"
	d="M400.50 266.10l7.00 -1.30v3.20l-7.00 1.30"/>
<use x="384.40" y="288.00" xlink:href="#hd"/>
<circle class="fill" cx="392.10" cy="288.00" r="1.2"/>
<path d="M387.90 288.00v-23.50" class="stroke"/>
<use x="404.00" y="282.00" xlink:href="#hd"/>
<path d="M407.50 282.00v-21.20" class="stroke"/>
<path class="fill"
	d="M420.70 257.60l16.70 -2.30v3.20l-16.70 2.30"/>
<use x="417.50" y="279.00" xlink:href="#hd"/>
<path d="M421.00 279.00v-20.40" class="stroke"/>
<use x="433.60" y="276.00" xlink:href="#hd"/>
<path d="M437.10 276.00v-19.60" class="stroke"/>
<path class="fill"
	d="M462.80 247.80l36.30 0.00v3.20l-36.30 -0.00"/>
<path class="fill"
	d="M463.20 252.80l35.70 0.00v3.20l-35.70 -0.00"/>
<use x="459.70" y="273.00" xlink:href="#hd"/>
<path d="M463.20 273.00v-24.20" class="stroke"/>
<use x="471.60" y="276.00" xlink:href="#hd"/>
<path d="M475.10 276.00v-27.20" class="stroke"/>
<use x="483.50" y="273.00" xlink:href="#hd"/>
<path d="M487.00 273.00v-24.20" class="stroke"/>
<use x="495.30" y="270.00" xlink:href="#hd"/>
<path d="M498.80 270.00v-21.20" class="stroke"/>
<path class="fill"
	d="M505.00 292.30l16.70 -5.40v-3.20l-16.70 5.40"/>
<use x="508.90" y="273.00" xlink:href="#hd"/>
<path d="M505.40 273.00v18.20" class="stroke"/>
<use x="524.90" y="258.00" xlink:href="#hd"/>
<path d="M521.40 258.00v28.00" class="stroke"/>
<path class="fill"
	d="M547.20 286.20l16.70 3.60v-3.20l-16.70 -3.60"/>
<use x="551.00" y="264.00" xlink:href="#hd"/>
<path d="M547.50 264.00v21.30" class="stroke"/>
<use x="567.10" y="270.00" xlink:href="#hd"/>
<path d="M563.60 270.00v18.70" class="stroke"/>
<path class="fill"
	d="M580.90 298.20l36.40 0.00v-3.20l-36.40 -0.00"/>
<path class="fill"
	d="M581.20 293.20l35.70 0.00v-3.20l-35.70 -0.00"/>
<use x="584.70" y="276.00" xlink:href="#hd"/>
<path d="M581.20 276.00v21.20" class="stroke"/>
<use x="596.60" y="273.00" xlink:href="#hd"/>
<path d="M593.10 273.00v24.20" class="stroke"/>
<use x="608.50" y="270.00" xlink:href="#hd"/>
<path d="M605.00 270.00v27.20" class="stroke"/>
<use x="620.40" y="276.00" xlink:href="#hd"/>
<path d="M616.90 276.00v21.20" class="stroke"/>
<use x="645.40" y="273.00" xlink:href="#hd"/>
<path d="M641.90 273.00v21.00" class="stroke"/>
<use x="669.50" y="273.00" xlink:href="#hd"/>
<path d="M666.00 273.00v21.00" class="stroke"/>
<defs>
<path id="emb" d="m-2.5 -3h5" class="stroke" stroke-width="1.2" stroke-linecap="round"/>
</defs>
<use x="384.40" y="297.00" xlink:href="#emb"/>
</g>
</svg>
