<?xml version="1.0" standalone="no"?>
<!DOCTYPE svg PUBLIC "-//W3C//DTD SVG 1.1//EN"
	"http://www.w3.org/Graphics/SVG/1.1/DTD/svg11.dtd">
<svg xmlns="http://www.w3.org/2000/svg" version="1.1"
	xmlns:xlink="http://www.w3.org/1999/xlink"
	color="black"
	width="701.60px" height="598.00px">
<style type="text/css">
.fill {fill: currentColor}
.stroke {stroke: currentColor; fill: none}
text{white-space: pre}
</style>
<title>/media/tim/Data1/tims_code/sphinx-tunes/source/_abcfiles/March of the Me (1) tune 1</title>
<!-- Creator: abcm2ps-8.14.6 -->
<!-- CreationDate: Jul 30, 2023 12:21 -->
<!-- CommandLine: -g '/media/tim/Data1/tims_code/sphinx-tunes/source/_abcfiles/March of the Men of Devon.abc' -O '/media/tim/Data1/tims_code/sphinx-tunes/source/_abcfiles/March of the Men of Devon.svg' -->
<g stroke-width="0.70">
<!-- title: March Of The Men Of Devon -->
</g>
<g stroke-width="0.70" style="font:20.00px Times">
<text x="350.80" y="22.00" text-anchor="middle">March Of The Men Of Devon</text>
</g>
<g stroke-width="0.70" style="font:20.00px Times">
<path class="stroke" stroke-width="1"
	d="M130.10 85.00v-24.00"/>
<path class="stroke" stroke-width="1"
	d="M271.40 85.00v-24.00"/>
<path class="stroke" stroke-width="1"
	d="M412.60 85.00v-24.00"/>
<path class="stroke" stroke-width="1"
	d="M550.30 85.00v-24.00"/>
<path class="stroke" stroke-width="1"
	d="M691.60 85.00v-24.00"/>
<path d="m10.00 85.00
	h681.60
	M10.00 79.00
	h681.60
	M10.00 73.00
	h681.60
	M10.00 67.00
	h681.60
	M10.00 61.00
	h681.60
	" class="stroke"/>
<defs>
<path id="utclef" class="fill" d="m-50 -90
	c-72 -41 -72 -158 52 -188
	150 -10 220 188 90 256
	-114 52 -275 0 -293 -136
	-15 -181 93 -229 220 -334
	88 -87 79 -133 62 -210
	-51 33 -94 105 -89 186
	17 267 36 374 49 574
	6 96 -19 134 -77 135
	-80 1 -126 -93 -61 -133
	85 -41 133 101 31 105
	23 17 92 37 90 -92
	-10 -223 -39 -342 -50 -617
	0 -90 0 -162 96 -232
	56 72 63 230 22 289
	-74 106 -257 168 -255 316
	9 153 148 185 252 133
	86 -65 29 -192 -80 -176
	-71 12 -105 67 -59 124"/>
<use id="tclef" transform="translate(0,6) scale(0.045)"
	xlink:href="#utclef"/>
</defs>
<use x="22.00" y="79.00" xlink:href="#tclef"/>
<defs>
<path id="usharp" class="fill" d="
	m136 -702
	v890
	h32
	v-890
	m128 840
	h32
	v-888
	h-32
	m-232 286
	v116
	l338 -96
	v-116
	m-338 442
	v116
	l338 -98
	v-114"/>
<use id="sh0" transform="translate(-4,5) scale(0.018)"
	xlink:href="#usharp"/>
</defs>
<use x="37.00" y="61.00" xlink:href="#sh0"/>
<use x="42.50" y="70.00" xlink:href="#sh0"/>
<g style="font:bold 16px serif"
	transform="translate(58.50,84.50) scale(1.2,1)">
	<text text-anchor="middle">4</text>
	<text y="-12" text-anchor="middle">2</text>
</g>
<path class="fill"
	d="M79.70 54.20l36.80 2.60v3.20l-36.80 -2.60"/>
<path class="fill"
	d="M109.20 61.30l7.00 0.50v3.20l-7.00 -0.50"/>
<defs>
<ellipse id="hd" rx="4.1" ry="2.9"
	transform="rotate(-20)" class="fill"/>
</defs>
<use x="76.50" y="76.00" xlink:href="#hd"/>
<circle class="fill" cx="84.20" cy="76.00" r="1.2"/>
<path d="M80.00 76.00v-20.80" class="stroke"/>
<use x="112.70" y="79.00" xlink:href="#hd"/>
<path d="M116.20 79.00v-21.20" class="stroke"/>
<path class="fill"
	d="M150.90 61.80l32.50 4.40v3.20l-32.50 -4.40"/>
<use x="147.80" y="82.00" xlink:href="#hd"/>
<path d="M151.30 82.00v-19.20" class="stroke"/>
<use x="179.60" y="88.00" xlink:href="#hd"/>
<path d="M183.10 88.00v-20.80" class="stroke"/>
<path class="fill"
	d="M218.00 66.80l32.50 0.00v3.20l-32.50 -0.00"/>
<use x="214.90" y="88.00" xlink:href="#hd"/>
<path d="M218.40 88.00v-20.20" class="stroke"/>
<use x="246.70" y="88.00" xlink:href="#hd"/>
<path d="M250.20 88.00v-20.20" class="stroke"/>
<path class="fill"
	d="M292.20 66.20l32.50 -4.40v3.20l-32.50 4.40"/>
<use x="289.00" y="88.00" xlink:href="#hd"/>
<path d="M292.50 88.00v-20.80" class="stroke"/>
<use x="320.80" y="82.00" xlink:href="#hd"/>
<path d="M324.30 82.00v-19.20" class="stroke"/>
<path class="fill"
	d="M352.30 95.40l32.50 -5.90v-3.20l-32.50 5.90"/>
<use x="356.10" y="76.00" xlink:href="#hd"/>
<path d="M352.60 76.00v18.40" class="stroke"/>
<use x="387.90" y="67.00" xlink:href="#hd"/>
<path d="M384.40 67.00v21.60" class="stroke"/>
<path class="fill"
	d="M426.40 91.80l32.50 4.40v-3.20l-32.50 -4.40"/>
<use x="430.30" y="70.00" xlink:href="#hd"/>
<path d="M426.80 70.00v20.80" class="stroke"/>
<use x="462.10" y="76.00" xlink:href="#hd"/>
<path d="M458.60 76.00v19.20" class="stroke"/>
<path class="fill"
	d="M497.00 55.00l32.50 0.00v3.20l-32.50 -0.00"/>
<use x="493.80" y="76.00" xlink:href="#hd"/>
<path d="M497.30 76.00v-20.00" class="stroke"/>
<use x="525.60" y="76.00" xlink:href="#hd"/>
<path d="M529.10 76.00v-20.00" class="stroke"/>
<path class="fill"
	d="M571.20 54.20l32.50 -4.40v3.20l-32.50 4.40"/>
<use x="568.00" y="76.00" xlink:href="#hd"/>
<path d="M571.50 76.00v-20.80" class="stroke"/>
<use x="599.80" y="70.00" xlink:href="#hd"/>
<path d="M603.30 70.00v-19.20" class="stroke"/>
<path class="fill"
	d="M631.30 84.20l32.50 -4.40v-3.20l-32.50 4.40"/>
<use x="635.10" y="64.00" xlink:href="#hd"/>
<path d="M631.60 64.00v19.20" class="stroke"/>
<use x="666.90" y="58.00" xlink:href="#hd"/>
<path d="M663.40 58.00v20.80" class="stroke"/>
</g>
<g stroke-width="0.70" style="font:20.00px Times">
<path class="stroke" stroke-width="1"
	d="M190.30 155.00v-24.00"/>
<path class="stroke" stroke-width="1"
	d="M338.60 155.00v-24.00"/>
<path class="stroke" stroke-width="1"
	d="M543.30 155.00v-24.00"/>
<path class="stroke" stroke-width="1"
	d="M691.60 155.00v-24.00"/>
<path d="m10.00 155.00
	h681.60
	M10.00 149.00
	h681.60
	M10.00 143.00
	h681.60
	M10.00 137.00
	h681.60
	M10.00 131.00
	h681.60
	" class="stroke"/>
<use x="22.00" y="149.00" xlink:href="#tclef"/>
<use x="37.00" y="131.00" xlink:href="#sh0"/>
<use x="42.50" y="140.00" xlink:href="#sh0"/>
<path class="fill"
	d="M56.70 152.70l34.10 4.50v-3.20l-34.10 -4.50"/>
<use x="60.50" y="131.00" xlink:href="#hd"/>
<path d="M57.00 131.00v20.80" class="stroke"/>
<use x="93.90" y="137.00" xlink:href="#hd"/>
<path d="M90.40 137.00v19.20" class="stroke"/>
<path class="fill"
	d="M127.10 158.20l34.10 2.60v-3.20l-34.10 -2.60"/>
<use x="131.00" y="137.00" xlink:href="#hd"/>
<path d="M127.50 137.00v20.20" class="stroke"/>
<use x="164.30" y="140.00" xlink:href="#hd"/>
<path d="M160.80 140.00v19.80" class="stroke"/>
<path class="fill"
	d="M205.00 162.30l34.10 -8.10v-3.20l-34.10 8.10"/>
<use x="208.80" y="143.00" xlink:href="#hd"/>
<path d="M205.30 143.00v18.20" class="stroke"/>
<use x="242.20" y="128.00" xlink:href="#hd"/>
<path d="M238.70 128.00v25.30" class="stroke"/>
<path class="fill"
	d="M275.50 149.20l34.10 2.60v-3.20l-34.10 -2.60"/>
<use x="279.30" y="128.00" xlink:href="#hd"/>
<path d="M275.80 128.00v20.20" class="stroke"/>
<use x="312.70" y="131.00" xlink:href="#hd"/>
<path d="M309.20 131.00v19.80" class="stroke"/>
<path class="fill"
	d="M353.30 157.00l71.40 0.00v-3.20l-71.40 -0.00"/>
<path class="fill"
	d="M353.70 152.00l70.80 0.00v-3.20l-70.80 -0.00"/>
<use x="357.20" y="134.00" xlink:href="#hd"/>
<path d="M353.70 134.00v22.00" class="stroke"/>
<use x="380.80" y="131.00" xlink:href="#hd"/>
<path d="M377.30 131.00v25.00" class="stroke"/>
<use x="404.40" y="134.00" xlink:href="#hd"/>
<path d="M400.90 134.00v22.00" class="stroke"/>
<use x="427.90" y="137.00" xlink:href="#hd"/>
<path d="M424.40 137.00v19.00" class="stroke"/>
<path class="fill"
	d="M450.30 163.00l71.40 0.00v-3.20l-71.40 -0.00"/>
<path class="fill"
	d="M450.70 158.00l70.80 0.00v-3.20l-70.80 -0.00"/>
<use x="454.20" y="140.00" xlink:href="#hd"/>
<path d="M450.70 140.00v22.00" class="stroke"/>
<use x="477.70" y="137.00" xlink:href="#hd"/>
<path d="M474.20 137.00v25.00" class="stroke"/>
<use x="501.30" y="140.00" xlink:href="#hd"/>
<path d="M497.80 140.00v22.00" class="stroke"/>
<use x="524.90" y="143.00" xlink:href="#hd"/>
<path d="M521.40 143.00v19.00" class="stroke"/>
<path class="fill"
	d="M565.00 125.20l34.10 2.60v3.20l-34.10 -2.60"/>
<use x="561.80" y="146.00" xlink:href="#hd"/>
<path d="M565.30 146.00v-19.80" class="stroke"/>
<use x="595.20" y="149.00" xlink:href="#hd"/>
<path d="M598.70 149.00v-20.20" class="stroke"/>
<path class="fill"
	d="M635.40 131.20l34.10 2.60v3.20l-34.10 -2.60"/>
<use x="632.30" y="152.00" xlink:href="#hd"/>
<path d="M635.80 152.00v-19.80" class="stroke"/>
<use x="665.60" y="155.00" xlink:href="#hd"/>
<path d="M669.10 155.00v-20.20" class="stroke"/>
</g>
<g stroke-width="0.70" style="font:20.00px Times">
<path class="stroke" stroke-width="1"
	d="M203.90 225.00v-24.00"/>
<path class="stroke" stroke-width="1"
	d="M367.90 225.00v-24.00"/>
<path class="stroke" stroke-width="1"
	d="M527.70 225.00v-24.00"/>
<path class="stroke" stroke-width="1"
	d="M691.60 225.00v-24.00"/>
<path d="m10.00 225.00
	h681.60
	M10.00 219.00
	h681.60
	M10.00 213.00
	h681.60
	M10.00 207.00
	h681.60
	M10.00 201.00
	h681.60
	" class="stroke"/>
<use x="22.00" y="219.00" xlink:href="#tclef"/>
<use x="37.00" y="201.00" xlink:href="#sh0"/>
<use x="42.50" y="210.00" xlink:href="#sh0"/>
<path class="fill"
	d="M63.70 201.70l37.60 4.60v3.20l-37.60 -4.60"/>
<use x="60.50" y="222.00" xlink:href="#hd"/>
<path d="M64.00 222.00v-19.30" class="stroke"/>
<use x="97.40" y="228.00" xlink:href="#hd"/>
<path d="M100.90 228.00v-20.70" class="stroke"/>
<path class="fill"
	d="M141.50 206.80l37.60 0.00v3.20l-37.60 -0.00"/>
<use x="138.40" y="228.00" xlink:href="#hd"/>
<path d="M141.90 228.00v-20.20" class="stroke"/>
<use x="175.20" y="228.00" xlink:href="#hd"/>
<path d="M178.70 228.00v-20.20" class="stroke"/>
<path class="fill"
	d="M227.60 206.30l37.60 -4.60v3.20l-37.60 4.60"/>
<use x="224.40" y="228.00" xlink:href="#hd"/>
<path d="M227.90 228.00v-20.70" class="stroke"/>
<use x="261.30" y="222.00" xlink:href="#hd"/>
<path d="M264.80 222.00v-19.30" class="stroke"/>
<path class="fill"
	d="M298.40 235.60l37.60 -6.20v-3.20l-37.60 6.20"/>
<use x="302.30" y="216.00" xlink:href="#hd"/>
<path d="M298.80 216.00v18.50" class="stroke"/>
<use x="339.20" y="207.00" xlink:href="#hd"/>
<path d="M335.70 207.00v21.50" class="stroke"/>
<path class="fill"
	d="M384.50 231.70l37.60 4.60v-3.20l-37.60 -4.60"/>
<use x="388.30" y="210.00" xlink:href="#hd"/>
<path d="M384.80 210.00v20.70" class="stroke"/>
<use x="425.20" y="216.00" xlink:href="#hd"/>
<path d="M421.70 216.00v19.30" class="stroke"/>
<path class="fill"
	d="M465.30 195.00l37.60 0.00v3.20l-37.60 -0.00"/>
<use x="462.10" y="216.00" xlink:href="#hd"/>
<path d="M465.60 216.00v-20.00" class="stroke"/>
<use x="499.00" y="216.00" xlink:href="#hd"/>
<path d="M502.50 216.00v-20.00" class="stroke"/>
<path class="fill"
	d="M551.30 194.30l37.60 -4.60v3.20l-37.60 4.60"/>
<use x="548.20" y="216.00" xlink:href="#hd"/>
<path d="M551.70 216.00v-20.70" class="stroke"/>
<use x="585.10" y="210.00" xlink:href="#hd"/>
<path d="M588.60 210.00v-19.30" class="stroke"/>
<path class="fill"
	d="M622.20 224.30l37.60 -4.60v-3.20l-37.60 4.60"/>
<use x="626.00" y="204.00" xlink:href="#hd"/>
<path d="M622.50 204.00v19.30" class="stroke"/>
<use x="662.90" y="198.00" xlink:href="#hd"/>
<path d="M659.40 198.00v20.70" class="stroke"/>
</g>
<g stroke-width="0.70" style="font:20.00px Times">
<path class="stroke" stroke-width="1"
	d="M213.40 295.00v-24.00"/>
<path class="stroke" stroke-width="1"
	d="M388.20 295.00v-24.00"/>
<path class="stroke" stroke-width="1"
	d="M538.10 295.00v-24.00"/>
<path class="stroke" stroke-width="1"
	d="M691.60 295.00v-24.00"/>
<path d="m10.00 295.00
	h681.60
	M10.00 289.00
	h681.60
	M10.00 283.00
	h681.60
	M10.00 277.00
	h681.60
	M10.00 271.00
	h681.60
	" class="stroke"/>
<use x="22.00" y="289.00" xlink:href="#tclef"/>
<use x="37.00" y="271.00" xlink:href="#sh0"/>
<use x="42.50" y="280.00" xlink:href="#sh0"/>
<path class="fill"
	d="M56.70 292.70l40.00 4.70v-3.20l-40.00 -4.70"/>
<use x="60.50" y="271.00" xlink:href="#hd"/>
<path d="M57.00 271.00v20.70" class="stroke"/>
<use x="99.80" y="277.00" xlink:href="#hd"/>
<path d="M96.30 277.00v19.30" class="stroke"/>
<path class="fill"
	d="M139.70 298.20l40.00 2.60v-3.20l-40.00 -2.60"/>
<use x="143.50" y="277.00" xlink:href="#hd"/>
<path d="M140.00 277.00v20.20" class="stroke"/>
<use x="182.80" y="280.00" xlink:href="#hd"/>
<path d="M179.30 280.00v19.80" class="stroke"/>
<path class="fill"
	d="M231.40 302.30l40.00 -8.70v-3.20l-40.00 8.70"/>
<use x="235.30" y="283.00" xlink:href="#hd"/>
<path d="M231.80 283.00v18.20" class="stroke"/>
<use x="274.60" y="268.00" xlink:href="#hd"/>
<path d="M271.10 268.00v24.70" class="stroke"/>
<path class="fill"
	d="M314.40 295.70l40.00 4.70v-3.20l-40.00 -4.70"/>
<use x="318.30" y="274.00" xlink:href="#hd"/>
<path d="M314.80 274.00v20.70" class="stroke"/>
<use x="357.60" y="280.00" xlink:href="#hd"/>
<path d="M354.10 280.00v19.30" class="stroke"/>
<use x="410.00" y="277.00" xlink:href="#hd"/>
<path d="M406.50 277.00v21.00" class="stroke"/>
<path class="fill"
	d="M467.90 300.20l45.40 2.70v-3.20l-45.40 -2.70"/>
<path class="fill"
	d="M506.00 297.40l7.00 0.40v-3.20l-7.00 -0.40"/>
<use x="471.80" y="277.00" xlink:href="#hd"/>
<circle class="fill" cx="479.50" cy="274.00" r="1.2"/>
<path d="M468.30 277.00v22.20" class="stroke"/>
<use x="516.50" y="280.00" xlink:href="#hd"/>
<path d="M513.00 280.00v21.80" class="stroke"/>
<use x="559.90" y="277.00" xlink:href="#hd"/>
<path d="M556.40 277.00v21.00" class="stroke"/>
<path class="fill"
	d="M617.90 291.80l40.00 -2.60v-3.20l-40.00 2.60"/>
<use x="621.70" y="271.00" xlink:href="#hd"/>
<path d="M618.20 271.00v19.80" class="stroke"/>
<use x="661.00" y="268.00" xlink:href="#hd"/>
<path d="M657.50 268.00v20.20" class="stroke"/>
</g>
<g stroke-width="0.70" style="font:20.00px Times">
<path class="stroke" stroke-width="1"
	d="M203.00 365.00v-24.00"/>
<path class="stroke" stroke-width="1"
	d="M365.90 365.00v-24.00"/>
<path class="stroke" stroke-width="1"
	d="M528.70 365.00v-24.00"/>
<path class="stroke" stroke-width="1"
	d="M691.60 365.00v-24.00"/>
<path d="m10.00 365.00
	h681.60
	M10.00 359.00
	h681.60
	M10.00 353.00
	h681.60
	M10.00 347.00
	h681.60
	M10.00 341.00
	h681.60
	" class="stroke"/>
<use x="22.00" y="359.00" xlink:href="#tclef"/>
<use x="37.00" y="341.00" xlink:href="#sh0"/>
<use x="42.50" y="350.00" xlink:href="#sh0"/>
<path class="fill"
	d="M56.70 356.70l37.30 4.60v-3.20l-37.30 -4.60"/>
<defs>
<path id="hl" class="stroke" d="m-6 0h12"/>
</defs>
<use x="60.50" y="335.00" xlink:href="#hl"/>
<use x="60.50" y="335.00" xlink:href="#hd"/>
<path d="M57.00 335.00v20.70" class="stroke"/>
<use x="97.10" y="341.00" xlink:href="#hd"/>
<path d="M93.60 341.00v19.30" class="stroke"/>
<path class="fill"
	d="M134.00 362.70l37.30 4.60v-3.20l-37.30 -4.60"/>
<use x="137.90" y="341.00" xlink:href="#hd"/>
<path d="M134.40 341.00v20.70" class="stroke"/>
<use x="174.50" y="347.00" xlink:href="#hd"/>
<path d="M171.00 347.00v19.30" class="stroke"/>
<path class="fill"
	d="M219.50 362.70l37.30 4.60v-3.20l-37.30 -4.60"/>
<use x="223.40" y="341.00" xlink:href="#hd"/>
<path d="M219.90 341.00v20.70" class="stroke"/>
<use x="260.00" y="347.00" xlink:href="#hd"/>
<path d="M256.50 347.00v19.30" class="stroke"/>
<path class="fill"
	d="M296.90 361.30l37.30 -4.60v-3.20l-37.30 4.60"/>
<use x="300.70" y="341.00" xlink:href="#hd"/>
<path d="M297.20 341.00v19.30" class="stroke"/>
<use x="337.40" y="335.00" xlink:href="#hl"/>
<use x="337.40" y="335.00" xlink:href="#hd"/>
<path d="M333.90 335.00v20.70" class="stroke"/>
<path class="fill"
	d="M382.40 359.70l37.30 4.60v-3.20l-37.30 -4.60"/>
<use x="386.20" y="338.00" xlink:href="#hd"/>
<path d="M382.70 338.00v20.70" class="stroke"/>
<use x="422.90" y="344.00" xlink:href="#hd"/>
<path d="M419.40 344.00v19.30" class="stroke"/>
<path class="fill"
	d="M459.70 365.70l37.30 4.60v-3.20l-37.30 -4.60"/>
<use x="463.60" y="344.00" xlink:href="#hd"/>
<path d="M460.10 344.00v20.70" class="stroke"/>
<use x="500.20" y="350.00" xlink:href="#hd"/>
<path d="M496.70 350.00v19.30" class="stroke"/>
<path class="fill"
	d="M545.30 365.70l37.30 4.60v-3.20l-37.30 -4.60"/>
<use x="549.10" y="344.00" xlink:href="#hd"/>
<path d="M545.60 344.00v20.70" class="stroke"/>
<use x="585.70" y="350.00" xlink:href="#hd"/>
<path d="M582.20 350.00v19.30" class="stroke"/>
<path class="fill"
	d="M622.60 364.30l37.30 -4.60v-3.20l-37.30 4.60"/>
<use x="626.50" y="344.00" xlink:href="#hd"/>
<path d="M623.00 344.00v19.30" class="stroke"/>
<use x="663.10" y="338.00" xlink:href="#hd"/>
<path d="M659.60 338.00v20.70" class="stroke"/>
</g>
<g stroke-width="0.70" style="font:20.00px Times">
<path class="stroke" stroke-width="1"
	d="M190.30 435.00v-24.00"/>
<path class="stroke" stroke-width="1"
	d="M338.60 435.00v-24.00"/>
<path class="stroke" stroke-width="1"
	d="M543.30 435.00v-24.00"/>
<path class="stroke" stroke-width="1"
	d="M691.60 435.00v-24.00"/>
<path d="m10.00 435.00
	h681.60
	M10.00 429.00
	h681.60
	M10.00 423.00
	h681.60
	M10.00 417.00
	h681.60
	M10.00 411.00
	h681.60
	" class="stroke"/>
<use x="22.00" y="429.00" xlink:href="#tclef"/>
<use x="37.00" y="411.00" xlink:href="#sh0"/>
<use x="42.50" y="420.00" xlink:href="#sh0"/>
<path class="fill"
	d="M56.70 432.70l34.10 4.50v-3.20l-34.10 -4.50"/>
<use x="60.50" y="411.00" xlink:href="#hd"/>
<path d="M57.00 411.00v20.80" class="stroke"/>
<use x="93.90" y="417.00" xlink:href="#hd"/>
<path d="M90.40 417.00v19.20" class="stroke"/>
<path class="fill"
	d="M127.10 438.20l34.10 2.60v-3.20l-34.10 -2.60"/>
<use x="131.00" y="417.00" xlink:href="#hd"/>
<path d="M127.50 417.00v20.20" class="stroke"/>
<use x="164.30" y="420.00" xlink:href="#hd"/>
<path d="M160.80 420.00v19.80" class="stroke"/>
<path class="fill"
	d="M205.00 442.30l34.10 -8.10v-3.20l-34.10 8.10"/>
<use x="208.80" y="423.00" xlink:href="#hd"/>
<path d="M205.30 423.00v18.20" class="stroke"/>
<use x="242.20" y="408.00" xlink:href="#hd"/>
<path d="M238.70 408.00v25.30" class="stroke"/>
<path class="fill"
	d="M275.50 429.20l34.10 2.60v-3.20l-34.10 -2.60"/>
<use x="279.30" y="408.00" xlink:href="#hd"/>
<path d="M275.80 408.00v20.20" class="stroke"/>
<use x="312.70" y="411.00" xlink:href="#hd"/>
<path d="M309.20 411.00v19.80" class="stroke"/>
<path class="fill"
	d="M353.30 437.00l71.40 0.00v-3.20l-71.40 -0.00"/>
<path class="fill"
	d="M353.70 432.00l70.80 0.00v-3.20l-70.80 -0.00"/>
<use x="357.20" y="414.00" xlink:href="#hd"/>
<path d="M353.70 414.00v22.00" class="stroke"/>
<use x="380.80" y="411.00" xlink:href="#hd"/>
<path d="M377.30 411.00v25.00" class="stroke"/>
<use x="404.40" y="414.00" xlink:href="#hd"/>
<path d="M400.90 414.00v22.00" class="stroke"/>
<use x="427.90" y="417.00" xlink:href="#hd"/>
<path d="M424.40 417.00v19.00" class="stroke"/>
<path class="fill"
	d="M450.30 443.00l71.40 0.00v-3.20l-71.40 -0.00"/>
<path class="fill"
	d="M450.70 438.00l70.80 0.00v-3.20l-70.80 -0.00"/>
<use x="454.20" y="420.00" xlink:href="#hd"/>
<path d="M450.70 420.00v22.00" class="stroke"/>
<use x="477.70" y="417.00" xlink:href="#hd"/>
<path d="M474.20 417.00v25.00" class="stroke"/>
<use x="501.30" y="420.00" xlink:href="#hd"/>
<path d="M497.80 420.00v22.00" class="stroke"/>
<use x="524.90" y="423.00" xlink:href="#hd"/>
<path d="M521.40 423.00v19.00" class="stroke"/>
<path class="fill"
	d="M565.00 405.20l34.10 2.60v3.20l-34.10 -2.60"/>
<use x="561.80" y="426.00" xlink:href="#hd"/>
<path d="M565.30 426.00v-19.80" class="stroke"/>
<use x="595.20" y="429.00" xlink:href="#hd"/>
<path d="M598.70 429.00v-20.20" class="stroke"/>
<path class="fill"
	d="M635.40 411.20l34.10 2.60v3.20l-34.10 -2.60"/>
<use x="632.30" y="432.00" xlink:href="#hd"/>
<path d="M635.80 432.00v-19.80" class="stroke"/>
<use x="665.60" y="435.00" xlink:href="#hd"/>
<path d="M669.10 435.00v-20.20" class="stroke"/>
</g>
<g stroke-width="0.70" style="font:20.00px Times">
<path class="stroke" stroke-width="1"
	d="M203.90 505.00v-24.00"/>
<path class="stroke" stroke-width="1"
	d="M367.90 505.00v-24.00"/>
<path class="stroke" stroke-width="1"
	d="M527.70 505.00v-24.00"/>
<path class="stroke" stroke-width="1"
	d="M691.60 505.00v-24.00"/>
<path d="m10.00 505.00
	h681.60
	M10.00 499.00
	h681.60
	M10.00 493.00
	h681.60
	M10.00 487.00
	h681.60
	M10.00 481.00
	h681.60
	" class="stroke"/>
<use x="22.00" y="499.00" xlink:href="#tclef"/>
<use x="37.00" y="481.00" xlink:href="#sh0"/>
<use x="42.50" y="490.00" xlink:href="#sh0"/>
<path class="fill"
	d="M63.70 481.70l37.60 4.60v3.20l-37.60 -4.60"/>
<use x="60.50" y="502.00" xlink:href="#hd"/>
<path d="M64.00 502.00v-19.30" class="stroke"/>
<use x="97.40" y="508.00" xlink:href="#hd"/>
<path d="M100.90 508.00v-20.70" class="stroke"/>
<path class="fill"
	d="M141.50 486.80l37.60 0.00v3.20l-37.60 -0.00"/>
<use x="138.40" y="508.00" xlink:href="#hd"/>
<path d="M141.90 508.00v-20.20" class="stroke"/>
<use x="175.20" y="508.00" xlink:href="#hd"/>
<path d="M178.70 508.00v-20.20" class="stroke"/>
<path class="fill"
	d="M227.60 486.30l37.60 -4.60v3.20l-37.60 4.60"/>
<use x="224.40" y="508.00" xlink:href="#hd"/>
<path d="M227.90 508.00v-20.70" class="stroke"/>
<use x="261.30" y="502.00" xlink:href="#hd"/>
<path d="M264.80 502.00v-19.30" class="stroke"/>
<path class="fill"
	d="M298.40 515.60l37.60 -6.20v-3.20l-37.60 6.20"/>
<use x="302.30" y="496.00" xlink:href="#hd"/>
<path d="M298.80 496.00v18.50" class="stroke"/>
<use x="339.20" y="487.00" xlink:href="#hd"/>
<path d="M335.70 487.00v21.50" class="stroke"/>
<path class="fill"
	d="M384.50 511.70l37.60 4.60v-3.20l-37.60 -4.60"/>
<use x="388.30" y="490.00" xlink:href="#hd"/>
<path d="M384.80 490.00v20.70" class="stroke"/>
<use x="425.20" y="496.00" xlink:href="#hd"/>
<path d="M421.70 496.00v19.30" class="stroke"/>
<path class="fill"
	d="M465.30 475.00l37.60 0.00v3.20l-37.60 -0.00"/>
<use x="462.10" y="496.00" xlink:href="#hd"/>
<path d="M465.60 496.00v-20.00" class="stroke"/>
<use x="499.00" y="496.00" xlink:href="#hd"/>
<path d="M502.50 496.00v-20.00" class="stroke"/>
<path class="fill"
	d="M551.30 474.30l37.60 -4.60v3.20l-37.60 4.60"/>
<use x="548.20" y="496.00" xlink:href="#hd"/>
<path d="M551.70 496.00v-20.70" class="stroke"/>
<use x="585.10" y="490.00" xlink:href="#hd"/>
<path d="M588.60 490.00v-19.30" class="stroke"/>
<path class="fill"
	d="M622.20 504.30l37.60 -4.60v-3.20l-37.60 4.60"/>
<use x="626.00" y="484.00" xlink:href="#hd"/>
<path d="M622.50 484.00v19.30" class="stroke"/>
<use x="662.90" y="478.00" xlink:href="#hd"/>
<path d="M659.40 478.00v20.70" class="stroke"/>
</g>
<g stroke-width="0.70" style="font:20.00px Times">
<path class="stroke" stroke-width="1"
	d="M236.30 575.00v-24.00"/>
<path class="stroke" stroke-width="1"
	d="M437.30 575.00v-24.00"/>
<path class="stroke" stroke-width="1"
	d="M609.70 575.00v-24.00"/>
<path class="stroke" stroke-width="1"
	d="M691.60 575.00v-24.00"/>
<path class="stroke" stroke-width="1"
	d="M688.60 575.00v-24.00"/>
<path d="m10.00 575.00
	h681.60
	M10.00 569.00
	h681.60
	M10.00 563.00
	h681.60
	M10.00 557.00
	h681.60
	M10.00 551.00
	h681.60
	" class="stroke"/>
<use x="22.00" y="569.00" xlink:href="#tclef"/>
<use x="37.00" y="551.00" xlink:href="#sh0"/>
<use x="42.50" y="560.00" xlink:href="#sh0"/>
<path class="fill"
	d="M56.70 572.60l45.90 4.80v-3.20l-45.90 -4.80"/>
<use x="60.50" y="551.00" xlink:href="#hd"/>
<path d="M57.00 551.00v20.60" class="stroke"/>
<use x="105.70" y="557.00" xlink:href="#hd"/>
<path d="M102.20 557.00v19.40" class="stroke"/>
<path class="fill"
	d="M152.10 578.20l45.90 2.70v-3.20l-45.90 -2.70"/>
<use x="155.90" y="557.00" xlink:href="#hd"/>
<path d="M152.40 557.00v20.20" class="stroke"/>
<use x="201.20" y="560.00" xlink:href="#hd"/>
<path d="M197.70 560.00v19.80" class="stroke"/>
<path class="fill"
	d="M257.60 582.30l45.90 -9.20v-3.20l-45.90 9.20"/>
<use x="261.40" y="563.00" xlink:href="#hd"/>
<path d="M257.90 563.00v18.20" class="stroke"/>
<use x="306.70" y="548.00" xlink:href="#hd"/>
<path d="M303.20 548.00v24.20" class="stroke"/>
<path class="fill"
	d="M353.00 575.60l45.90 4.80v-3.20l-45.90 -4.80"/>
<use x="356.90" y="554.00" xlink:href="#hd"/>
<path d="M353.40 554.00v20.60" class="stroke"/>
<use x="402.10" y="560.00" xlink:href="#hd"/>
<path d="M398.60 560.00v19.40" class="stroke"/>
<use x="462.40" y="557.00" xlink:href="#hd"/>
<path d="M458.90 557.00v21.00" class="stroke"/>
<path class="fill"
	d="M529.50 580.10l52.10 2.70v-3.20l-52.10 -2.70"/>
<path class="fill"
	d="M574.30 577.50l7.00 0.40v-3.20l-7.00 -0.40"/>
<use x="533.40" y="557.00" xlink:href="#hd"/>
<circle class="fill" cx="541.10" cy="554.00" r="1.2"/>
<path d="M529.90 557.00v22.20" class="stroke"/>
<use x="584.80" y="560.00" xlink:href="#hd"/>
<path d="M581.30 560.00v21.80" class="stroke"/>
<use x="634.80" y="557.00" xlink:href="#hd"/>
<path d="M631.30 557.00v21.00" class="stroke"/>
</g>
</svg>
