<?xml version="1.0" standalone="no"?>
<!DOCTYPE svg PUBLIC "-//W3C//DTD SVG 1.1//EN"
	"http://www.w3.org/Graphics/SVG/1.1/DTD/svg11.dtd">
<svg xmlns="http://www.w3.org/2000/svg" version="1.1"
	xmlns:xlink="http://www.w3.org/1999/xlink"
	color="black"
	width="701.60px" height="738.00px">
<style type="text/css">
.fill {fill: currentColor}
.stroke {stroke: currentColor; fill: none}
text{white-space: pre}
</style>
<title>/media/tim/Data1/tims_code/sphinx-tunes/source/_abcfiles/Nutting_Girl.ab (1) tune 1</title>
<!-- Creator: abcm2ps-8.14.6 -->
<!-- CreationDate: Jul 30, 2023 12:21 -->
<!-- CommandLine: -g /media/tim/Data1/tims_code/sphinx-tunes/source/_abcfiles/Nutting_Girl.abc -O /media/tim/Data1/tims_code/sphinx-tunes/source/_abcfiles/Nutting_Girl.svg -->
<g stroke-width="0.70">
<!-- title: Nutting Girl - Field Town -->
</g>
<g stroke-width="0.70" style="font:20.00px Times">
<text x="350.80" y="22.00" text-anchor="middle">Nutting Girl - Field Town</text>
</g>
<g stroke-width="0.70" style="font:20.00px Times">
<path class="stroke" stroke-width="1"
	d="M109.10 85.00v-24.00"/>
<path class="stroke" stroke-width="1"
	d="M281.50 85.00v-24.00"/>
<path class="stroke" stroke-width="1"
	d="M420.60 85.00v-24.00"/>
<path class="stroke" stroke-width="1"
	d="M571.40 85.00v-24.00"/>
<path class="stroke" stroke-width="1"
	d="M691.60 85.00v-24.00"/>
<path d="m10.00 85.00
	h681.60
	M10.00 79.00
	h681.60
	M10.00 73.00
	h681.60
	M10.00 67.00
	h681.60
	M10.00 61.00
	h681.60
	" class="stroke"/>
<defs>
<path id="utclef" class="fill" d="m-50 -90
	c-72 -41 -72 -158 52 -188
	150 -10 220 188 90 256
	-114 52 -275 0 -293 -136
	-15 -181 93 -229 220 -334
	88 -87 79 -133 62 -210
	-51 33 -94 105 -89 186
	17 267 36 374 49 574
	6 96 -19 134 -77 135
	-80 1 -126 -93 -61 -133
	85 -41 133 101 31 105
	23 17 92 37 90 -92
	-10 -223 -39 -342 -50 -617
	0 -90 0 -162 96 -232
	56 72 63 230 22 289
	-74 106 -257 168 -255 316
	9 153 148 185 252 133
	86 -65 29 -192 -80 -176
	-71 12 -105 67 -59 124"/>
<use id="tclef" transform="translate(0,6) scale(0.045)"
	xlink:href="#utclef"/>
</defs>
<use x="22.00" y="79.00" xlink:href="#tclef"/>
<defs>
<path id="usharp" class="fill" d="
	m136 -702
	v890
	h32
	v-890
	m128 840
	h32
	v-888
	h-32
	m-232 286
	v116
	l338 -96
	v-116
	m-338 442
	v116
	l338 -98
	v-114"/>
<use id="sh0" transform="translate(-4,5) scale(0.018)"
	xlink:href="#usharp"/>
</defs>
<use x="37.00" y="61.00" xlink:href="#sh0"/>
<g style="font:bold 16px serif"
	transform="translate(53.00,84.50) scale(1.2,1)">
	<text text-anchor="middle">4</text>
	<text y="-12" text-anchor="middle">4</text>
</g>
<path class="fill"
	d="M74.20 51.30l26.30 2.50v3.20l-26.30 -2.50"/>
<path class="fill"
	d="M93.10 58.10l7.00 0.70v3.20l-7.00 -0.70"/>
<defs>
<ellipse id="hd" rx="4.1" ry="2.9"
	transform="rotate(-20)" class="fill"/>
</defs>
<use x="71.00" y="73.00" xlink:href="#hd"/>
<circle class="fill" cx="78.70" cy="70.00" r="1.2"/>
<path d="M74.50 73.00v-20.70" class="stroke"/>
<use x="96.60" y="76.00" xlink:href="#hd"/>
<path d="M100.10 76.00v-21.30" class="stroke"/>
<use x="121.70" y="79.00" xlink:href="#hd"/>
<path d="M125.20 79.00v-21.00" class="stroke"/>
<path class="fill"
	d="M160.00 56.30l26.30 -2.50v3.20l-26.30 2.50"/>
<path class="fill"
	d="M179.00 59.50l7.00 -0.70v3.20l-7.00 0.70"/>
<use x="156.80" y="79.00" xlink:href="#hd"/>
<circle class="fill" cx="164.50" cy="76.00" r="1.2"/>
<path d="M160.30 79.00v-21.80" class="stroke"/>
<use x="182.50" y="76.00" xlink:href="#hd"/>
<path d="M186.00 76.00v-21.20" class="stroke"/>
<path class="fill"
	d="M203.30 51.30l26.30 2.50v3.20l-26.30 -2.50"/>
<path class="fill"
	d="M222.20 58.10l7.00 0.70v3.20l-7.00 -0.70"/>
<use x="200.10" y="73.00" xlink:href="#hd"/>
<circle class="fill" cx="207.80" cy="70.00" r="1.2"/>
<path d="M203.60 73.00v-20.70" class="stroke"/>
<use x="225.70" y="76.00" xlink:href="#hd"/>
<path d="M229.20 76.00v-21.30" class="stroke"/>
<path class="fill"
	d="M246.50 54.90l26.30 -4.20v3.20l-26.30 4.20"/>
<path class="fill"
	d="M265.50 56.90l7.00 -1.10v3.20l-7.00 1.10"/>
<use x="243.40" y="79.00" xlink:href="#hd"/>
<circle class="fill" cx="251.10" cy="76.00" r="1.2"/>
<path d="M246.90 79.00v-23.10" class="stroke"/>
<use x="269.00" y="73.00" xlink:href="#hd"/>
<path d="M272.50 73.00v-21.20" class="stroke"/>
<use x="294.10" y="67.00" xlink:href="#hd"/>
<path d="M290.60 67.00v21.00" class="stroke"/>
<use x="329.20" y="70.00" xlink:href="#hd"/>
<path d="M325.70 70.00v21.00" class="stroke"/>
<use x="360.80" y="76.00" xlink:href="#hd"/>
<path d="M364.30 76.00v-21.00" class="stroke"/>
<use x="395.90" y="82.00" xlink:href="#hd"/>
<path d="M399.40 82.00v-21.00" class="stroke"/>
<use x="433.20" y="79.00" xlink:href="#hd"/>
<path d="M436.70 79.00v-21.00" class="stroke"/>
<path class="fill"
	d="M464.50 95.70l26.30 -2.50v-3.20l-26.30 2.50"/>
<path class="fill"
	d="M483.50 88.90l7.00 -0.70v-3.20l-7.00 0.70"/>
<use x="468.30" y="73.00" xlink:href="#hd"/>
<circle class="fill" cx="476.00" cy="70.00" r="1.2"/>
<path d="M464.80 73.00v21.70" class="stroke"/>
<use x="494.00" y="70.00" xlink:href="#hd"/>
<path d="M490.50 70.00v22.30" class="stroke"/>
<use x="511.60" y="67.00" xlink:href="#hd"/>
<path d="M508.10 67.00v21.00" class="stroke"/>
<use x="546.70" y="58.00" xlink:href="#hd"/>
<path d="M543.20 58.00v21.00" class="stroke"/>
<defs>
<path id="Hd" class="fill" d="m3 -1.6
	c-1 -1.8 -7 1.4 -6 3.2
	1 1.8 7 -1.4 6 -3.2
	m0.5 -0.3
	c2 3.8 -5 7.6 -7 3.8
	-2 -3.8 5 -7.6 7 -3.8"/>
</defs>
<use x="584.40" y="67.00" xlink:href="#Hd"/>
<path d="M580.90 67.00v21.00" class="stroke"/>
<use x="634.00" y="67.00" xlink:href="#hd"/>
<circle class="fill" cx="641.70" cy="64.00" r="1.2"/>
<path d="M630.50 67.00v21.00" class="stroke"/>
<use x="674.00" y="73.00" xlink:href="#hd"/>
<path d="M670.50 73.00v21.00" class="stroke"/>
<path class="fill"
	d="M670.50 94.00c0.6 -5.6 9.6 -9 5.6 -18.4
	1.6 6 -1.3 11.6 -5.6 12.8
"/>
</g>
<g stroke-width="0.70" style="font:20.00px Times">
<path class="stroke" stroke-width="1"
	d="M233.70 155.00v-24.00"/>
<path class="stroke" stroke-width="1"
	d="M426.60 155.00v-24.00"/>
<path class="stroke" stroke-width="1"
	d="M584.60 155.00v-24.00"/>
<path class="stroke" stroke-width="1"
	d="M691.60 155.00v-24.00"/>
<path class="stroke" stroke-width="1"
	d="M688.60 155.00v-24.00"/>
<path d="m10.00 155.00
	h681.60
	M10.00 149.00
	h681.60
	M10.00 143.00
	h681.60
	M10.00 137.00
	h681.60
	M10.00 131.00
	h681.60
	" class="stroke"/>
<use x="22.00" y="149.00" xlink:href="#tclef"/>
<use x="37.00" y="131.00" xlink:href="#sh0"/>
<path class="fill"
	d="M51.20 162.80l29.60 -2.50v-3.20l-29.60 2.50"/>
<path class="fill"
	d="M73.40 155.90l7.00 -0.60v-3.20l-7.00 0.60"/>
<use x="55.00" y="140.00" xlink:href="#hd"/>
<circle class="fill" cx="62.70" cy="140.00" r="1.2"/>
<path d="M51.50 140.00v21.70" class="stroke"/>
<use x="83.90" y="137.00" xlink:href="#hd"/>
<path d="M80.40 137.00v22.30" class="stroke"/>
<path class="fill"
	d="M100.10 157.90l29.60 4.30v-3.20l-29.60 -4.30"/>
<path class="fill"
	d="M122.40 156.20l7.00 1.00v-3.20l-7.00 -1.00"/>
<use x="103.90" y="134.00" xlink:href="#hd"/>
<circle class="fill" cx="111.60" cy="134.00" r="1.2"/>
<path d="M100.40 134.00v23.00" class="stroke"/>
<use x="132.90" y="140.00" xlink:href="#hd"/>
<path d="M129.40 140.00v21.20" class="stroke"/>
<use x="150.80" y="146.00" xlink:href="#hd"/>
<path d="M154.30 146.00v-21.00" class="stroke"/>
<path class="fill"
	d="M187.00 165.80l29.60 -2.50v-3.20l-29.60 2.50"/>
<path class="fill"
	d="M209.20 158.90l7.00 -0.60v-3.20l-7.00 0.60"/>
<use x="190.80" y="143.00" xlink:href="#hd"/>
<circle class="fill" cx="198.50" cy="140.00" r="1.2"/>
<path d="M187.30 143.00v21.70" class="stroke"/>
<use x="219.70" y="140.00" xlink:href="#hd"/>
<path d="M216.20 140.00v22.30" class="stroke"/>
<path class="fill"
	d="M244.00 165.80l29.60 -2.50v-3.20l-29.60 2.50"/>
<path class="fill"
	d="M266.30 158.90l7.00 -0.60v-3.20l-7.00 0.60"/>
<use x="247.90" y="143.00" xlink:href="#hd"/>
<circle class="fill" cx="255.60" cy="140.00" r="1.2"/>
<path d="M244.40 143.00v21.70" class="stroke"/>
<use x="276.80" y="140.00" xlink:href="#hd"/>
<path d="M273.30 140.00v22.30" class="stroke"/>
<path class="fill"
	d="M292.90 160.90l29.60 4.30v-3.20l-29.60 -4.30"/>
<path class="fill"
	d="M315.20 159.20l7.00 1.00v-3.20l-7.00 -1.00"/>
<use x="296.80" y="137.00" xlink:href="#hd"/>
<circle class="fill" cx="304.50" cy="134.00" r="1.2"/>
<path d="M293.30 137.00v23.00" class="stroke"/>
<use x="325.70" y="143.00" xlink:href="#hd"/>
<path d="M322.20 143.00v21.20" class="stroke"/>
<use x="343.70" y="149.00" xlink:href="#hd"/>
<path d="M347.20 149.00v-21.00" class="stroke"/>
<path class="fill"
	d="M386.80 123.30l29.60 -2.50v3.20l-29.60 2.50"/>
<path class="fill"
	d="M409.10 126.40l7.00 -0.60v3.20l-7.00 0.60"/>
<use x="383.70" y="146.00" xlink:href="#hd"/>
<circle class="fill" cx="391.40" cy="146.00" r="1.2"/>
<path d="M387.20 146.00v-21.70" class="stroke"/>
<use x="412.60" y="143.00" xlink:href="#hd"/>
<path d="M416.10 143.00v-21.20" class="stroke"/>
<use x="440.70" y="140.00" xlink:href="#hd"/>
<path d="M437.20 140.00v21.00" class="stroke"/>
<use x="476.70" y="146.00" xlink:href="#hd"/>
<path d="M480.20 146.00v-21.00" class="stroke"/>
<use x="516.60" y="149.00" xlink:href="#hd"/>
<path d="M520.10 149.00v-21.00" class="stroke"/>
<use x="556.60" y="152.00" xlink:href="#hd"/>
<path d="M560.10 152.00v-21.00" class="stroke"/>
<use x="598.70" y="149.00" xlink:href="#Hd"/>
<path d="M602.20 149.00v-21.00" class="stroke"/>
<use x="655.20" y="149.00" xlink:href="#hd"/>
<circle class="fill" cx="662.90" cy="146.00" r="1.2"/>
<path d="M658.70 149.00v-21.00" class="stroke"/>
</g>
<g stroke-width="0.70" style="font:20.00px Times">
<path class="stroke" stroke-width="1"
	d="M99.80 225.00v-24.00"/>
<path class="stroke" stroke-width="1"
	d="M294.00 225.00v-24.00"/>
<path class="stroke" stroke-width="1"
	d="M488.10 225.00v-24.00"/>
<path class="stroke" stroke-width="1"
	d="M691.60 225.00v-24.00"/>
<path d="m10.00 225.00
	h681.60
	M10.00 219.00
	h681.60
	M10.00 213.00
	h681.60
	M10.00 207.00
	h681.60
	M10.00 201.00
	h681.60
	" class="stroke"/>
<use x="22.00" y="219.00" xlink:href="#tclef"/>
<use x="37.00" y="201.00" xlink:href="#sh0"/>
<path class="fill"
	d="M58.20 191.20l30.90 2.60v3.20l-30.90 -2.60"/>
<path class="fill"
	d="M81.70 198.20l7.00 0.60v3.20l-7.00 -0.60"/>
<use x="55.00" y="213.00" xlink:href="#hd"/>
<circle class="fill" cx="62.70" cy="210.00" r="1.2"/>
<path d="M58.50 213.00v-20.80" class="stroke"/>
<use x="85.20" y="216.00" xlink:href="#hd"/>
<path d="M88.70 216.00v-21.20" class="stroke"/>
<use x="114.60" y="219.00" xlink:href="#hd"/>
<path d="M118.10 219.00v-21.00" class="stroke"/>
<use x="156.30" y="198.00" xlink:href="#hd"/>
<path d="M152.80 198.00v21.00" class="stroke"/>
<path class="fill"
	d="M194.20 221.90l30.90 4.40v-3.20l-30.90 -4.40"/>
<path class="fill"
	d="M217.80 220.20l7.00 1.00v-3.20l-7.00 -1.00"/>
<use x="198.00" y="198.00" xlink:href="#hd"/>
<circle class="fill" cx="205.70" cy="198.00" r="1.2"/>
<path d="M194.50 198.00v22.90" class="stroke"/>
<use x="228.30" y="204.00" xlink:href="#hd"/>
<path d="M224.80 204.00v21.20" class="stroke"/>
<path class="fill"
	d="M245.30 223.80l30.90 -2.60v-3.20l-30.90 2.60"/>
<path class="fill"
	d="M268.90 216.80l7.00 -0.60v-3.20l-7.00 0.60"/>
<use x="249.10" y="201.00" xlink:href="#hd"/>
<circle class="fill" cx="256.80" cy="198.00" r="1.2"/>
<path d="M245.60 201.00v21.80" class="stroke"/>
<use x="279.40" y="198.00" xlink:href="#hd"/>
<path d="M275.90 198.00v22.20" class="stroke"/>
<path class="fill"
	d="M304.90 224.20l30.90 2.60v-3.20l-30.90 -2.60"/>
<path class="fill"
	d="M328.50 221.20l7.00 0.60v-3.20l-7.00 -0.60"/>
<use x="308.70" y="201.00" xlink:href="#hd"/>
<circle class="fill" cx="316.40" cy="198.00" r="1.2"/>
<path d="M305.20 201.00v22.20" class="stroke"/>
<use x="339.00" y="204.00" xlink:href="#hd"/>
<path d="M335.50 204.00v21.80" class="stroke"/>
<use x="359.80" y="207.00" xlink:href="#hd"/>
<path d="M356.30 207.00v21.00" class="stroke"/>
<use x="401.50" y="207.00" xlink:href="#hd"/>
<path d="M398.00 207.00v21.00" class="stroke"/>
<path class="fill"
	d="M439.40 235.80l30.90 -2.60v-3.20l-30.90 2.60"/>
<path class="fill"
	d="M463.00 228.80l7.00 -0.60v-3.20l-7.00 0.60"/>
<use x="443.30" y="213.00" xlink:href="#hd"/>
<circle class="fill" cx="451.00" cy="210.00" r="1.2"/>
<path d="M439.80 213.00v21.80" class="stroke"/>
<use x="473.50" y="210.00" xlink:href="#hd"/>
<path d="M470.00 210.00v22.20" class="stroke"/>
<use x="502.90" y="207.00" xlink:href="#hd"/>
<path d="M499.40 207.00v21.00" class="stroke"/>
<path class="fill"
	d="M540.70 226.80l30.90 -2.60v-3.20l-30.90 2.60"/>
<path class="fill"
	d="M564.30 219.80l7.00 -0.60v-3.20l-7.00 0.60"/>
<use x="544.60" y="204.00" xlink:href="#hd"/>
<circle class="fill" cx="552.30" cy="204.00" r="1.2"/>
<path d="M541.10 204.00v21.80" class="stroke"/>
<use x="574.80" y="201.00" xlink:href="#hd"/>
<path d="M571.30 201.00v22.20" class="stroke"/>
<path class="fill"
	d="M591.80 221.20l30.90 2.60v-3.20l-30.90 -2.60"/>
<path class="fill"
	d="M615.40 218.20l7.00 0.60v-3.20l-7.00 -0.60"/>
<use x="595.70" y="198.00" xlink:href="#hd"/>
<circle class="fill" cx="603.40" cy="198.00" r="1.2"/>
<path d="M592.20 198.00v22.20" class="stroke"/>
<use x="625.90" y="201.00" xlink:href="#hd"/>
<path d="M622.40 201.00v21.80" class="stroke"/>
<path class="fill"
	d="M642.90 224.20l30.90 2.60v-3.20l-30.90 -2.60"/>
<path class="fill"
	d="M666.50 221.20l7.00 0.60v-3.20l-7.00 -0.60"/>
<use x="646.80" y="201.00" xlink:href="#hd"/>
<circle class="fill" cx="654.50" cy="198.00" r="1.2"/>
<path d="M643.30 201.00v22.20" class="stroke"/>
<use x="677.00" y="204.00" xlink:href="#hd"/>
<path d="M673.50 204.00v21.80" class="stroke"/>
</g>
<g stroke-width="0.70" style="font:20.00px Times">
<path class="stroke" stroke-width="1"
	d="M184.10 295.00v-24.00"/>
<path class="stroke" stroke-width="1"
	d="M352.30 295.00v-24.00"/>
<path class="stroke" stroke-width="1"
	d="M520.60 295.00v-24.00"/>
<path class="stroke" stroke-width="1"
	d="M691.60 295.00v-24.00"/>
<path d="m10.00 295.00
	h681.60
	M10.00 289.00
	h681.60
	M10.00 283.00
	h681.60
	M10.00 277.00
	h681.60
	M10.00 271.00
	h681.60
	" class="stroke"/>
<use x="22.00" y="289.00" xlink:href="#tclef"/>
<use x="37.00" y="271.00" xlink:href="#sh0"/>
<use x="55.50" y="271.00" xlink:href="#Hd"/>
<path d="M52.00 271.00v21.00" class="stroke"/>
<use x="115.20" y="271.00" xlink:href="#hd"/>
<circle class="fill" cx="122.90" cy="268.00" r="1.2"/>
<path d="M111.70 271.00v21.00" class="stroke"/>
<use x="163.20" y="274.00" xlink:href="#hd"/>
<path d="M159.70 274.00v21.00" class="stroke"/>
<path class="fill"
	d="M159.70 295.00c0.6 -5.6 9.6 -9 5.6 -18.4
	1.6 6 -1.3 11.6 -5.6 12.8
"/>
<use x="199.00" y="277.00" xlink:href="#hd"/>
<path d="M195.50 277.00v21.00" class="stroke"/>
<use x="241.20" y="268.00" xlink:href="#hd"/>
<path d="M237.70 268.00v21.00" class="stroke"/>
<use x="283.40" y="268.00" xlink:href="#hd"/>
<circle class="fill" cx="291.10" cy="268.00" r="1.2"/>
<path d="M279.90 268.00v21.00" class="stroke"/>
<use x="331.50" y="271.00" xlink:href="#hd"/>
<path d="M328.00 271.00v21.00" class="stroke"/>
<path class="fill"
	d="M328.00 292.00c0.6 -5.6 9.6 -9 5.6 -18.4
	1.6 6 -1.3 11.6 -5.6 12.8
"/>
<use x="367.30" y="274.00" xlink:href="#hd"/>
<path d="M363.80 274.00v21.00" class="stroke"/>
<use x="409.50" y="277.00" xlink:href="#hd"/>
<path d="M406.00 277.00v21.00" class="stroke"/>
<use x="451.70" y="277.00" xlink:href="#hd"/>
<circle class="fill" cx="459.40" cy="274.00" r="1.2"/>
<path d="M448.20 277.00v21.00" class="stroke"/>
<use x="499.70" y="283.00" xlink:href="#hd"/>
<path d="M496.20 283.00v21.00" class="stroke"/>
<path class="fill"
	d="M496.20 304.00c0.6 -5.6 9.6 -9 5.6 -18.4
	1.6 6 -1.3 11.6 -5.6 12.8
"/>
<use x="535.50" y="286.00" xlink:href="#hd"/>
<path d="M539.00 286.00v-21.00" class="stroke"/>
<use x="577.70" y="283.00" xlink:href="#hd"/>
<path d="M581.20 283.00v-21.00" class="stroke"/>
<use x="619.90" y="280.00" xlink:href="#hd"/>
<path d="M616.40 280.00v21.00" class="stroke"/>
<use x="662.10" y="277.00" xlink:href="#hd"/>
<path d="M658.60 277.00v21.00" class="stroke"/>
</g>
<g stroke-width="0.70" style="font:20.00px Times">
<path class="stroke" stroke-width="1"
	d="M276.10 365.00v-24.00"/>
<path class="stroke" stroke-width="1"
	d="M505.60 365.00v-24.00"/>
<path class="stroke" stroke-width="1"
	d="M691.60 365.00v-24.00"/>
<path d="m10.00 365.00
	h681.60
	M10.00 359.00
	h681.60
	M10.00 353.00
	h681.60
	M10.00 347.00
	h681.60
	M10.00 341.00
	h681.60
	" class="stroke"/>
<use x="22.00" y="359.00" xlink:href="#tclef"/>
<use x="37.00" y="341.00" xlink:href="#sh0"/>
<path class="fill"
	d="M51.20 366.80l34.80 -2.60v-3.20l-34.80 2.60"/>
<path class="fill"
	d="M78.60 359.70l7.00 -0.50v-3.20l-7.00 0.50"/>
<use x="55.00" y="344.00" xlink:href="#hd"/>
<circle class="fill" cx="62.70" cy="344.00" r="1.2"/>
<path d="M51.50 344.00v21.80" class="stroke"/>
<use x="89.10" y="341.00" xlink:href="#hd"/>
<path d="M85.60 341.00v22.20" class="stroke"/>
<path class="fill"
	d="M108.80 361.70l34.80 4.50v-3.20l-34.80 -4.50"/>
<path class="fill"
	d="M136.20 360.30l7.00 0.90v-3.20l-7.00 -0.90"/>
<use x="112.60" y="338.00" xlink:href="#hd"/>
<circle class="fill" cx="120.30" cy="338.00" r="1.2"/>
<path d="M109.10 338.00v22.80" class="stroke"/>
<use x="146.70" y="344.00" xlink:href="#hd"/>
<path d="M143.20 344.00v21.20" class="stroke"/>
<path class="fill"
	d="M166.40 370.20l34.80 2.60v-3.20l-34.80 -2.60"/>
<path class="fill"
	d="M193.80 367.30l7.00 0.50v-3.20l-7.00 -0.50"/>
<use x="170.20" y="347.00" xlink:href="#hd"/>
<circle class="fill" cx="177.90" cy="344.00" r="1.2"/>
<path d="M166.70 347.00v22.20" class="stroke"/>
<use x="204.30" y="350.00" xlink:href="#hd"/>
<path d="M200.80 350.00v21.80" class="stroke"/>
<path class="fill"
	d="M228.70 331.20l34.80 2.60v3.20l-34.80 -2.60"/>
<path class="fill"
	d="M256.10 338.30l7.00 0.50v3.20l-7.00 -0.50"/>
<use x="225.50" y="353.00" xlink:href="#hd"/>
<circle class="fill" cx="233.20" cy="350.00" r="1.2"/>
<path d="M229.00 353.00v-20.80" class="stroke"/>
<use x="259.60" y="356.00" xlink:href="#hd"/>
<path d="M263.10 356.00v-21.20" class="stroke"/>
<use x="292.70" y="359.00" xlink:href="#hd"/>
<path d="M296.20 359.00v-21.00" class="stroke"/>
<path class="fill"
	d="M342.90 336.40l34.80 -2.60v3.20l-34.80 2.60"/>
<path class="fill"
	d="M370.40 339.30l7.00 -0.50v3.20l-7.00 0.50"/>
<use x="339.80" y="359.00" xlink:href="#hd"/>
<circle class="fill" cx="347.50" cy="356.00" r="1.2"/>
<path d="M343.30 359.00v-21.60" class="stroke"/>
<use x="373.90" y="356.00" xlink:href="#hd"/>
<path d="M377.40 356.00v-21.20" class="stroke"/>
<path class="fill"
	d="M400.50 331.20l34.80 2.60v3.20l-34.80 -2.60"/>
<path class="fill"
	d="M428.00 338.30l7.00 0.50v3.20l-7.00 -0.50"/>
<use x="397.40" y="353.00" xlink:href="#hd"/>
<circle class="fill" cx="405.10" cy="350.00" r="1.2"/>
<path d="M400.90 353.00v-20.80" class="stroke"/>
<use x="431.50" y="356.00" xlink:href="#hd"/>
<path d="M435.00 356.00v-21.20" class="stroke"/>
<path class="fill"
	d="M458.20 335.30l34.80 -4.50v3.20l-34.80 4.50"/>
<path class="fill"
	d="M485.60 336.70l7.00 -0.90v3.20l-7.00 0.90"/>
<use x="455.00" y="359.00" xlink:href="#hd"/>
<circle class="fill" cx="462.70" cy="356.00" r="1.2"/>
<path d="M458.50 359.00v-22.80" class="stroke"/>
<use x="489.10" y="353.00" xlink:href="#hd"/>
<path d="M492.60 353.00v-21.20" class="stroke"/>
<use x="522.20" y="347.00" xlink:href="#hd"/>
<path d="M518.70 347.00v21.00" class="stroke"/>
<use x="569.30" y="350.00" xlink:href="#hd"/>
<path d="M565.80 350.00v21.00" class="stroke"/>
<use x="611.60" y="356.00" xlink:href="#hd"/>
<path d="M615.10 356.00v-21.00" class="stroke"/>
<use x="658.70" y="362.00" xlink:href="#hd"/>
<path d="M662.20 362.00v-21.00" class="stroke"/>
</g>
<g stroke-width="0.70" style="font:20.00px Times">
<path class="stroke" stroke-width="1"
	d="M260.60 435.00v-24.00"/>
<path class="stroke" stroke-width="1"
	d="M438.80 435.00v-24.00"/>
<path class="stroke" stroke-width="1"
	d="M691.60 435.00v-24.00"/>
<path d="m10.00 435.00
	h681.60
	M10.00 429.00
	h681.60
	M10.00 423.00
	h681.60
	M10.00 417.00
	h681.60
	M10.00 411.00
	h681.60
	" class="stroke"/>
<use x="22.00" y="429.00" xlink:href="#tclef"/>
<use x="37.00" y="411.00" xlink:href="#sh0"/>
<use x="55.00" y="429.00" xlink:href="#hd"/>
<path d="M58.50 429.00v-21.00" class="stroke"/>
<path class="fill"
	d="M103.50 445.80l38.60 -2.60v-3.20l-38.60 2.60"/>
<path class="fill"
	d="M134.80 438.70l7.00 -0.50v-3.20l-7.00 0.50"/>
<use x="107.40" y="423.00" xlink:href="#hd"/>
<circle class="fill" cx="115.10" cy="420.00" r="1.2"/>
<path d="M103.90 423.00v21.80" class="stroke"/>
<use x="145.30" y="420.00" xlink:href="#hd"/>
<path d="M141.80 420.00v22.20" class="stroke"/>
<use x="171.50" y="417.00" xlink:href="#hd"/>
<path d="M168.00 417.00v21.00" class="stroke"/>
<use x="223.90" y="408.00" xlink:href="#hd"/>
<path d="M220.40 408.00v21.00" class="stroke"/>
<use x="279.10" y="417.00" xlink:href="#Hd"/>
<path d="M275.60 417.00v21.00" class="stroke"/>
<use x="353.20" y="417.00" xlink:href="#hd"/>
<circle class="fill" cx="360.90" cy="414.00" r="1.2"/>
<path d="M349.70 417.00v21.00" class="stroke"/>
<use x="412.80" y="423.00" xlink:href="#hd"/>
<path d="M409.30 423.00v21.00" class="stroke"/>
<path class="fill"
	d="M409.30 444.00c0.6 -5.6 9.6 -9 5.6 -18.4
	1.6 6 -1.3 11.6 -5.6 12.8
"/>
<path class="fill"
	d="M453.40 442.80l38.60 -2.60v-3.20l-38.60 2.60"/>
<path class="fill"
	d="M484.70 435.70l7.00 -0.50v-3.20l-7.00 0.50"/>
<use x="457.30" y="420.00" xlink:href="#hd"/>
<circle class="fill" cx="465.00" cy="420.00" r="1.2"/>
<path d="M453.80 420.00v21.80" class="stroke"/>
<use x="495.20" y="417.00" xlink:href="#hd"/>
<path d="M491.70 417.00v22.20" class="stroke"/>
<path class="fill"
	d="M517.60 437.70l38.60 4.60v-3.20l-38.60 -4.60"/>
<path class="fill"
	d="M548.90 436.40l7.00 0.80v-3.20l-7.00 -0.80"/>
<use x="521.40" y="414.00" xlink:href="#hd"/>
<circle class="fill" cx="529.10" cy="414.00" r="1.2"/>
<path d="M517.90 414.00v22.70" class="stroke"/>
<use x="559.40" y="420.00" xlink:href="#hd"/>
<path d="M555.90 420.00v21.30" class="stroke"/>
<use x="582.90" y="426.00" xlink:href="#hd"/>
<path d="M586.40 426.00v-21.00" class="stroke"/>
<path class="fill"
	d="M631.50 445.80l38.60 -2.60v-3.20l-38.60 2.60"/>
<path class="fill"
	d="M662.80 438.70l7.00 -0.50v-3.20l-7.00 0.50"/>
<use x="635.30" y="423.00" xlink:href="#hd"/>
<circle class="fill" cx="643.00" cy="420.00" r="1.2"/>
<path d="M631.80 423.00v21.80" class="stroke"/>
<use x="673.30" y="420.00" xlink:href="#hd"/>
<path d="M669.80 420.00v22.20" class="stroke"/>
</g>
<g stroke-width="0.70" style="font:20.00px Times">
<path class="stroke" stroke-width="1"
	d="M311.40 505.00v-24.00"/>
<path class="stroke" stroke-width="1"
	d="M538.00 505.00v-24.00"/>
<path class="stroke" stroke-width="1"
	d="M691.60 505.00v-24.00"/>
<path class="stroke" stroke-width="1"
	d="M688.60 505.00v-24.00"/>
<path d="m10.00 505.00
	h681.60
	M10.00 499.00
	h681.60
	M10.00 493.00
	h681.60
	M10.00 487.00
	h681.60
	M10.00 481.00
	h681.60
	" class="stroke"/>
<use x="22.00" y="499.00" xlink:href="#tclef"/>
<use x="37.00" y="481.00" xlink:href="#sh0"/>
<path class="fill"
	d="M51.20 515.80l42.20 -2.70v-3.20l-42.20 2.70"/>
<path class="fill"
	d="M86.00 508.60l7.00 -0.40v-3.20l-7.00 0.40"/>
<use x="55.00" y="493.00" xlink:href="#hd"/>
<circle class="fill" cx="62.70" cy="490.00" r="1.2"/>
<path d="M51.50 493.00v21.80" class="stroke"/>
<use x="96.50" y="490.00" xlink:href="#hd"/>
<path d="M93.00 490.00v22.20" class="stroke"/>
<path class="fill"
	d="M121.30 510.60l42.20 4.70v-3.20l-42.20 -4.70"/>
<path class="fill"
	d="M156.20 509.50l7.00 0.80v-3.20l-7.00 -0.80"/>
<use x="125.20" y="487.00" xlink:href="#hd"/>
<circle class="fill" cx="132.90" cy="484.00" r="1.2"/>
<path d="M121.70 487.00v22.70" class="stroke"/>
<use x="166.70" y="493.00" xlink:href="#hd"/>
<path d="M163.20 493.00v21.30" class="stroke"/>
<use x="192.50" y="499.00" xlink:href="#hd"/>
<path d="M196.00 499.00v-21.00" class="stroke"/>
<path class="fill"
	d="M253.00 473.40l42.20 -2.70v3.20l-42.20 2.70"/>
<path class="fill"
	d="M287.80 476.20l7.00 -0.40v3.20l-7.00 0.40"/>
<use x="249.80" y="496.00" xlink:href="#hd"/>
<circle class="fill" cx="257.50" cy="496.00" r="1.2"/>
<path d="M253.30 496.00v-21.60" class="stroke"/>
<use x="291.30" y="493.00" xlink:href="#hd"/>
<path d="M294.80 493.00v-21.20" class="stroke"/>
<use x="331.70" y="490.00" xlink:href="#hd"/>
<path d="M328.20 490.00v21.00" class="stroke"/>
<use x="383.30" y="496.00" xlink:href="#hd"/>
<path d="M386.80 496.00v-21.00" class="stroke"/>
<use x="440.60" y="499.00" xlink:href="#hd"/>
<path d="M444.10 499.00v-21.00" class="stroke"/>
<use x="497.90" y="502.00" xlink:href="#hd"/>
<path d="M501.40 502.00v-21.00" class="stroke"/>
<use x="558.30" y="499.00" xlink:href="#Hd"/>
<path d="M561.80 499.00v-21.00" class="stroke"/>
<use x="639.40" y="499.00" xlink:href="#hd"/>
<circle class="fill" cx="647.10" cy="496.00" r="1.2"/>
<path d="M642.90 499.00v-21.00" class="stroke"/>
</g>
<g stroke-width="0.70" style="font:20.00px Times">
<path class="stroke" stroke-width="1"
	d="M95.10 575.00v-24.00"/>
<path class="stroke" stroke-width="1"
	d="M221.60 575.00v-24.00"/>
<path class="stroke" stroke-width="1"
	d="M360.00 575.00v-24.00"/>
<path class="stroke" stroke-width="1"
	d="M462.50 575.00v-24.00"/>
<path class="stroke" stroke-width="1"
	d="M565.10 575.00v-24.00"/>
<path class="stroke" stroke-width="1"
	d="M691.60 575.00v-24.00"/>
<path d="m10.00 575.00
	h681.60
	M10.00 569.00
	h681.60
	M10.00 563.00
	h681.60
	M10.00 557.00
	h681.60
	M10.00 551.00
	h681.60
	" class="stroke"/>
<use x="22.00" y="569.00" xlink:href="#tclef"/>
<use x="37.00" y="551.00" xlink:href="#sh0"/>
<path class="fill"
	d="M58.20 541.20l27.70 2.50v3.20l-27.70 -2.50"/>
<path class="fill"
	d="M78.50 548.10l7.00 0.60v3.20l-7.00 -0.60"/>
<use x="55.00" y="563.00" xlink:href="#hd"/>
<circle class="fill" cx="62.70" cy="560.00" r="1.2"/>
<path d="M58.50 563.00v-20.70" class="stroke"/>
<use x="82.00" y="566.00" xlink:href="#hd"/>
<path d="M85.50 566.00v-21.30" class="stroke"/>
<use x="108.30" y="569.00" xlink:href="#Hd"/>
<path d="M111.80 569.00v-21.00" class="stroke"/>
<use x="160.80" y="569.00" xlink:href="#hd"/>
<circle class="fill" cx="168.50" cy="566.00" r="1.2"/>
<path d="M164.30 569.00v-21.00" class="stroke"/>
<defs>
<path id="hl" class="stroke" d="m-6 0h12"/>
</defs>
<use x="203.10" y="545.00" xlink:href="#hl"/>
<use x="203.10" y="545.00" xlink:href="#hd"/>
<path d="M199.60 545.00v21.00" class="stroke"/>
<path class="fill"
	d="M199.60 566.00c0.6 -5.6 9.6 -9 5.6 -18.4
	1.6 6 -1.3 11.6 -5.6 12.8
"/>
<use x="234.80" y="563.00" xlink:href="#hd"/>
<circle class="fill" cx="242.50" cy="560.00" r="1.2"/>
<path d="M231.30 563.00v21.00" class="stroke"/>
<use x="272.90" y="566.00" xlink:href="#hd"/>
<path d="M276.40 566.00v-21.00" class="stroke"/>
<path class="fill"
	d="M276.40 545.00c0.6 5.6 9.6 9 5.6 18.4
	1.6 -6 -1.3 -11.6 -5.6 -12.8
"/>
<use x="299.20" y="569.00" xlink:href="#hd"/>
<circle class="fill" cx="306.90" cy="566.00" r="1.2"/>
<path d="M302.70 569.00v-21.00" class="stroke"/>
<use x="341.50" y="563.00" xlink:href="#hd"/>
<path d="M345.00 563.00v-21.00" class="stroke"/>
<path class="fill"
	d="M345.00 542.00c0.6 5.6 9.6 9 5.6 18.4
	1.6 -6 -1.3 -11.6 -5.6 -12.8
"/>
<use x="373.20" y="557.00" xlink:href="#Hd"/>
<path d="M369.70 557.00v21.00" class="stroke"/>
<use x="425.70" y="560.00" xlink:href="#Hd"/>
<path d="M422.20 560.00v21.00" class="stroke"/>
<use x="475.80" y="566.00" xlink:href="#Hd"/>
<path d="M479.30 566.00v-21.00" class="stroke"/>
<use x="528.30" y="572.00" xlink:href="#Hd"/>
<path d="M531.80 572.00v-21.00" class="stroke"/>
<use x="578.30" y="569.00" xlink:href="#Hd"/>
<path d="M581.80 569.00v-21.00" class="stroke"/>
<use x="630.80" y="563.00" xlink:href="#hd"/>
<circle class="fill" cx="638.50" cy="560.00" r="1.2"/>
<path d="M634.30 563.00v-21.00" class="stroke"/>
<use x="673.10" y="560.00" xlink:href="#hd"/>
<path d="M669.60 560.00v21.00" class="stroke"/>
<path class="fill"
	d="M669.60 581.00c0.6 -5.6 9.6 -9 5.6 -18.4
	1.6 6 -1.3 11.6 -5.6 12.8
"/>
</g>
<g stroke-width="0.70" style="font:20.00px Times">
<path class="stroke" stroke-width="1"
	d="M175.50 645.00v-24.00"/>
<path class="stroke" stroke-width="1"
	d="M313.10 645.00v-24.00"/>
<path class="stroke" stroke-width="1"
	d="M450.80 645.00v-24.00"/>
<path class="stroke" stroke-width="1"
	d="M691.60 645.00v-24.00"/>
<path d="m10.00 645.00
	h681.60
	M10.00 639.00
	h681.60
	M10.00 633.00
	h681.60
	M10.00 627.00
	h681.60
	M10.00 621.00
	h681.60
	" class="stroke"/>
<use x="22.00" y="639.00" xlink:href="#tclef"/>
<use x="37.00" y="621.00" xlink:href="#sh0"/>
<use x="55.50" y="627.00" xlink:href="#Hd"/>
<path d="M52.00 627.00v21.00" class="stroke"/>
<use x="126.10" y="618.00" xlink:href="#Hd"/>
<path d="M122.60 618.00v21.00" class="stroke"/>
<use x="193.10" y="627.00" xlink:href="#Hd"/>
<path d="M189.60 627.00v21.00" class="stroke"/>
<use x="263.70" y="627.00" xlink:href="#Hd"/>
<path d="M260.20 627.00v21.00" class="stroke"/>
<use x="330.80" y="627.00" xlink:href="#Hd"/>
<path d="M327.30 627.00v21.00" class="stroke"/>
<use x="401.40" y="633.00" xlink:href="#Hd"/>
<path d="M397.90 633.00v21.00" class="stroke"/>
<path class="fill"
	d="M464.60 652.80l36.80 -2.60v-3.20l-36.80 2.60"/>
<path class="fill"
	d="M494.10 645.70l7.00 -0.50v-3.20l-7.00 0.50"/>
<use x="468.40" y="630.00" xlink:href="#hd"/>
<circle class="fill" cx="476.10" cy="630.00" r="1.2"/>
<path d="M464.90 630.00v21.80" class="stroke"/>
<use x="504.60" y="627.00" xlink:href="#hd"/>
<path d="M501.10 627.00v22.20" class="stroke"/>
<path class="fill"
	d="M525.70 647.70l36.80 4.60v-3.20l-36.80 -4.60"/>
<path class="fill"
	d="M555.20 646.40l7.00 0.90v-3.20l-7.00 -0.90"/>
<use x="529.50" y="624.00" xlink:href="#hd"/>
<circle class="fill" cx="537.20" cy="624.00" r="1.2"/>
<path d="M526.00 624.00v22.70" class="stroke"/>
<use x="565.70" y="630.00" xlink:href="#hd"/>
<path d="M562.20 630.00v21.30" class="stroke"/>
<use x="588.10" y="636.00" xlink:href="#hd"/>
<path d="M591.60 636.00v-21.00" class="stroke"/>
<path class="fill"
	d="M634.20 655.80l36.80 -2.60v-3.20l-36.80 2.60"/>
<path class="fill"
	d="M663.60 648.70l7.00 -0.50v-3.20l-7.00 0.50"/>
<use x="638.00" y="633.00" xlink:href="#hd"/>
<circle class="fill" cx="645.70" cy="630.00" r="1.2"/>
<path d="M634.50 633.00v21.80" class="stroke"/>
<use x="674.10" y="630.00" xlink:href="#hd"/>
<path d="M670.60 630.00v22.20" class="stroke"/>
</g>
<g stroke-width="0.70" style="font:20.00px Times">
<path class="stroke" stroke-width="1"
	d="M311.40 715.00v-24.00"/>
<path class="stroke" stroke-width="1"
	d="M538.00 715.00v-24.00"/>
<path class="stroke" stroke-width="1"
	d="M691.60 715.00v-24.00"/>
<path class="stroke" stroke-width="1"
	d="M688.60 715.00v-24.00"/>
<path d="m10.00 715.00
	h681.60
	M10.00 709.00
	h681.60
	M10.00 703.00
	h681.60
	M10.00 697.00
	h681.60
	M10.00 691.00
	h681.60
	" class="stroke"/>
<use x="22.00" y="709.00" xlink:href="#tclef"/>
<use x="37.00" y="691.00" xlink:href="#sh0"/>
<path class="fill"
	d="M51.20 725.80l42.20 -2.70v-3.20l-42.20 2.70"/>
<path class="fill"
	d="M86.00 718.60l7.00 -0.40v-3.20l-7.00 0.40"/>
<use x="55.00" y="703.00" xlink:href="#hd"/>
<circle class="fill" cx="62.70" cy="700.00" r="1.2"/>
<path d="M51.50 703.00v21.80" class="stroke"/>
<use x="96.50" y="700.00" xlink:href="#hd"/>
<path d="M93.00 700.00v22.20" class="stroke"/>
<path class="fill"
	d="M121.30 720.60l42.20 4.70v-3.20l-42.20 -4.70"/>
<path class="fill"
	d="M156.20 719.50l7.00 0.80v-3.20l-7.00 -0.80"/>
<use x="125.20" y="697.00" xlink:href="#hd"/>
<circle class="fill" cx="132.90" cy="694.00" r="1.2"/>
<path d="M121.70 697.00v22.70" class="stroke"/>
<use x="166.70" y="703.00" xlink:href="#hd"/>
<path d="M163.20 703.00v21.30" class="stroke"/>
<use x="192.50" y="709.00" xlink:href="#hd"/>
<path d="M196.00 709.00v-21.00" class="stroke"/>
<path class="fill"
	d="M253.00 683.40l42.20 -2.70v3.20l-42.20 2.70"/>
<path class="fill"
	d="M287.80 686.20l7.00 -0.40v3.20l-7.00 0.40"/>
<use x="249.80" y="706.00" xlink:href="#hd"/>
<circle class="fill" cx="257.50" cy="706.00" r="1.2"/>
<path d="M253.30 706.00v-21.60" class="stroke"/>
<use x="291.30" y="703.00" xlink:href="#hd"/>
<path d="M294.80 703.00v-21.20" class="stroke"/>
<use x="331.70" y="700.00" xlink:href="#hd"/>
<path d="M328.20 700.00v21.00" class="stroke"/>
<use x="383.30" y="706.00" xlink:href="#hd"/>
<path d="M386.80 706.00v-21.00" class="stroke"/>
<use x="440.60" y="709.00" xlink:href="#hd"/>
<path d="M444.10 709.00v-21.00" class="stroke"/>
<use x="497.90" y="712.00" xlink:href="#hd"/>
<path d="M501.40 712.00v-21.00" class="stroke"/>
<use x="558.30" y="709.00" xlink:href="#Hd"/>
<path d="M561.80 709.00v-21.00" class="stroke"/>
<use x="639.40" y="709.00" xlink:href="#hd"/>
<circle class="fill" cx="647.10" cy="706.00" r="1.2"/>
<path d="M642.90 709.00v-21.00" class="stroke"/>
</g>
</svg>
