<?xml version="1.0" standalone="no"?>
<!DOCTYPE svg PUBLIC "-//W3C//DTD SVG 1.1//EN"
	"http://www.w3.org/Graphics/SVG/1.1/DTD/svg11.dtd">
<svg xmlns="http://www.w3.org/2000/svg" version="1.1"
	xmlns:xlink="http://www.w3.org/1999/xlink"
	color="black"
	width="701.60px" height="332.00px">
<style type="text/css">
.fill {fill: currentColor}
.stroke {stroke: currentColor; fill: none}
text{white-space: pre}
</style>
<title>/media/tim/Data1/tims_code/sphinx-tunes/source/_abcfiles/Pathways.abc (1) tune 1</title>
<!-- Creator: abcm2ps-8.14.6 -->
<!-- CreationDate: Jul 30, 2023 12:21 -->
<!-- CommandLine: -g /media/tim/Data1/tims_code/sphinx-tunes/source/_abcfiles/Pathways.abc -O /media/tim/Data1/tims_code/sphinx-tunes/source/_abcfiles/Pathways.svg -->
<g stroke-width="0.70">
<!-- title: Pathways -->
</g>
<g stroke-width="0.70" style="font:20.00px Times">
<text x="350.80" y="22.00" text-anchor="middle">Pathways</text>
</g>
<g stroke-width="0.70" style="font:italic 14.00px Times">
<text x="691.60" y="46.00" text-anchor="end">Jackie Tolliday-Bailey</text>
</g>
<g stroke-width="0.70" style="font:italic 14.00px Times">
<path class="stroke" stroke-width="1"
	d="M244.70 99.00v-24.00"/>
<path class="stroke" stroke-width="1"
	d="M377.80 99.00v-24.00"/>
<path class="stroke" stroke-width="1"
	d="M558.50 99.00v-24.00"/>
<path class="stroke" stroke-width="1"
	d="M691.60 99.00v-24.00"/>
<path d="m10.00 99.00
	h681.60
	M10.00 93.00
	h681.60
	M10.00 87.00
	h681.60
	M10.00 81.00
	h681.60
	M10.00 75.00
	h681.60
	" class="stroke"/>
<defs>
<path id="utclef" class="fill" d="m-50 -90
	c-72 -41 -72 -158 52 -188
	150 -10 220 188 90 256
	-114 52 -275 0 -293 -136
	-15 -181 93 -229 220 -334
	88 -87 79 -133 62 -210
	-51 33 -94 105 -89 186
	17 267 36 374 49 574
	6 96 -19 134 -77 135
	-80 1 -126 -93 -61 -133
	85 -41 133 101 31 105
	23 17 92 37 90 -92
	-10 -223 -39 -342 -50 -617
	0 -90 0 -162 96 -232
	56 72 63 230 22 289
	-74 106 -257 168 -255 316
	9 153 148 185 252 133
	86 -65 29 -192 -80 -176
	-71 12 -105 67 -59 124"/>
<use id="tclef" transform="translate(0,6) scale(0.045)"
	xlink:href="#utclef"/>
</defs>
<use x="22.00" y="93.00" xlink:href="#tclef"/>
<defs>
<path id="uflat" class="fill" d="
	m100 -746
	h32
	v734
	l-32 4
	m32 -332
	c46 -72 152 -90 208 -20
	100 110 -120 326 -208 348
	m0 -28
	c54 0 200 -206 130 -290
	-50 -60 -130 -4 -130 34"/>
<use id="ft0" transform="translate(-3.5,3.5) scale(0.018)"
	xlink:href="#uflat"/>
</defs>
<use x="37.00" y="87.00" xlink:href="#ft0"/>
<use x="42.50" y="78.00" xlink:href="#ft0"/>
<g style="font:bold 16px serif"
	transform="translate(58.50,98.50) scale(1.2,1)">
	<text text-anchor="middle">4</text>
	<text y="-12" text-anchor="middle">4</text>
</g>
<path class="fill"
	d="M79.70 86.80l64.60 0.00v3.20l-64.60 -0.00"/>
<defs>
<path id="hl" class="stroke" d="m-6 0h12"/>
</defs>
<use x="76.50" y="105.00" xlink:href="#hl"/>
<use x="76.50" y="111.00" xlink:href="#hl"/>
<defs>
<ellipse id="hd" rx="4.1" ry="2.9"
	transform="rotate(-20)" class="fill"/>
</defs>
<use x="76.50" y="114.00" xlink:href="#hd"/>
<path d="M80.00 114.00v-26.20" class="stroke"/>
<use x="97.80" y="105.00" xlink:href="#hl"/>
<use x="97.80" y="111.00" xlink:href="#hl"/>
<use x="97.80" y="111.00" xlink:href="#hd"/>
<path d="M101.30 111.00v-23.20" class="stroke"/>
<use x="119.10" y="105.00" xlink:href="#hl"/>
<use x="119.10" y="108.00" xlink:href="#hd"/>
<path d="M122.60 108.00v-20.20" class="stroke"/>
<use x="140.40" y="105.00" xlink:href="#hl"/>
<use x="140.40" y="111.00" xlink:href="#hl"/>
<use x="140.40" y="111.00" xlink:href="#hd"/>
<path d="M143.90 111.00v-23.20" class="stroke"/>
<path class="fill"
	d="M167.20 86.80l64.60 0.00v3.20l-64.60 -0.00"/>
<use x="164.10" y="105.00" xlink:href="#hl"/>
<use x="164.10" y="111.00" xlink:href="#hl"/>
<use x="164.10" y="114.00" xlink:href="#hd"/>
<path d="M167.60 114.00v-26.20" class="stroke"/>
<use x="185.40" y="105.00" xlink:href="#hl"/>
<use x="185.40" y="111.00" xlink:href="#hl"/>
<use x="185.40" y="111.00" xlink:href="#hd"/>
<path d="M188.90 111.00v-23.20" class="stroke"/>
<use x="206.70" y="105.00" xlink:href="#hl"/>
<use x="206.70" y="108.00" xlink:href="#hd"/>
<path d="M210.20 108.00v-20.20" class="stroke"/>
<use x="228.00" y="105.00" xlink:href="#hl"/>
<use x="228.00" y="111.00" xlink:href="#hl"/>
<use x="228.00" y="111.00" xlink:href="#hd"/>
<path d="M231.50 111.00v-23.20" class="stroke"/>
<path class="fill"
	d="M260.40 86.80l64.60 0.00v3.20l-64.60 -0.00"/>
<use x="257.20" y="105.00" xlink:href="#hl"/>
<use x="257.20" y="111.00" xlink:href="#hl"/>
<use x="257.20" y="114.00" xlink:href="#hd"/>
<path d="M260.70 114.00v-26.20" class="stroke"/>
<use x="278.50" y="105.00" xlink:href="#hl"/>
<use x="278.50" y="111.00" xlink:href="#hl"/>
<use x="278.50" y="111.00" xlink:href="#hd"/>
<path d="M282.00 111.00v-23.20" class="stroke"/>
<use x="299.80" y="105.00" xlink:href="#hl"/>
<use x="299.80" y="108.00" xlink:href="#hd"/>
<path d="M303.30 108.00v-20.20" class="stroke"/>
<use x="321.20" y="105.00" xlink:href="#hl"/>
<use x="321.20" y="111.00" xlink:href="#hl"/>
<use x="321.20" y="111.00" xlink:href="#hd"/>
<path d="M324.70 111.00v-23.20" class="stroke"/>
<defs>
<path id="Hd" class="fill" d="m3 -1.6
	c-1 -1.8 -7 1.4 -6 3.2
	1 1.8 7 -1.4 6 -3.2
	m0.5 -0.3
	c2 3.8 -5 7.6 -7 3.8
	-2 -3.8 5 -7.6 7 -3.8"/>
</defs>
<use x="344.80" y="102.00" xlink:href="#Hd"/>
<path d="M348.30 102.00v-21.00" class="stroke"/>
<path class="fill"
	d="M393.40 86.80l64.60 0.00v3.20l-64.60 -0.00"/>
<use x="390.30" y="105.00" xlink:href="#hl"/>
<use x="390.30" y="111.00" xlink:href="#hl"/>
<use x="390.30" y="114.00" xlink:href="#hd"/>
<path d="M393.80 114.00v-26.20" class="stroke"/>
<use x="411.60" y="105.00" xlink:href="#hl"/>
<use x="411.60" y="111.00" xlink:href="#hl"/>
<use x="411.60" y="111.00" xlink:href="#hd"/>
<path d="M415.10 111.00v-23.20" class="stroke"/>
<use x="432.90" y="105.00" xlink:href="#hl"/>
<use x="432.90" y="108.00" xlink:href="#hd"/>
<path d="M436.40 108.00v-20.20" class="stroke"/>
<use x="454.20" y="105.00" xlink:href="#hl"/>
<use x="454.20" y="111.00" xlink:href="#hl"/>
<use x="454.20" y="111.00" xlink:href="#hd"/>
<path d="M457.70 111.00v-23.20" class="stroke"/>
<path class="fill"
	d="M481.00 86.80l64.60 0.00v3.20l-64.60 -0.00"/>
<use x="477.80" y="105.00" xlink:href="#hl"/>
<use x="477.80" y="111.00" xlink:href="#hl"/>
<use x="477.80" y="114.00" xlink:href="#hd"/>
<path d="M481.30 114.00v-26.20" class="stroke"/>
<use x="499.20" y="105.00" xlink:href="#hl"/>
<use x="499.20" y="111.00" xlink:href="#hl"/>
<use x="499.20" y="111.00" xlink:href="#hd"/>
<path d="M502.70 111.00v-23.20" class="stroke"/>
<use x="520.50" y="105.00" xlink:href="#hl"/>
<use x="520.50" y="108.00" xlink:href="#hd"/>
<path d="M524.00 108.00v-20.20" class="stroke"/>
<use x="541.80" y="105.00" xlink:href="#hl"/>
<use x="541.80" y="111.00" xlink:href="#hl"/>
<use x="541.80" y="111.00" xlink:href="#hd"/>
<path d="M545.30 111.00v-23.20" class="stroke"/>
<path class="fill"
	d="M574.20 86.80l64.60 0.00v3.20l-64.60 -0.00"/>
<use x="571.00" y="105.00" xlink:href="#hl"/>
<use x="571.00" y="111.00" xlink:href="#hl"/>
<use x="571.00" y="114.00" xlink:href="#hd"/>
<path d="M574.50 114.00v-26.20" class="stroke"/>
<use x="592.30" y="105.00" xlink:href="#hl"/>
<use x="592.30" y="111.00" xlink:href="#hl"/>
<use x="592.30" y="111.00" xlink:href="#hd"/>
<path d="M595.80 111.00v-23.20" class="stroke"/>
<use x="613.60" y="105.00" xlink:href="#hl"/>
<use x="613.60" y="108.00" xlink:href="#hd"/>
<path d="M617.10 108.00v-20.20" class="stroke"/>
<use x="634.90" y="105.00" xlink:href="#hl"/>
<use x="634.90" y="111.00" xlink:href="#hl"/>
<use x="634.90" y="111.00" xlink:href="#hd"/>
<path d="M638.40 111.00v-23.20" class="stroke"/>
<use x="658.60" y="105.00" xlink:href="#hl"/>
<use x="658.60" y="111.00" xlink:href="#hl"/>
<use x="658.60" y="111.00" xlink:href="#Hd"/>
<path d="M662.10 111.00v-24.00" class="stroke"/>
</g>
<g stroke-width="0.70" style="font:italic 14.00px Times">
<path class="stroke" stroke-width="1"
	d="M232.00 169.00v-24.00"/>
<path class="stroke" stroke-width="1"
	d="M367.60 169.00v-24.00"/>
<path class="stroke" stroke-width="1"
	d="M551.40 169.00v-24.00"/>
<path class="stroke" stroke-width="1"
	d="M691.60 169.00v-24.00"/>
<path class="stroke" stroke-width="1"
	d="M688.60 169.00v-24.00"/>
<path d="m10.00 169.00
	h681.60
	M10.00 163.00
	h681.60
	M10.00 157.00
	h681.60
	M10.00 151.00
	h681.60
	M10.00 145.00
	h681.60
	" class="stroke"/>
<use x="22.00" y="163.00" xlink:href="#tclef"/>
<use x="37.00" y="157.00" xlink:href="#ft0"/>
<use x="42.50" y="148.00" xlink:href="#ft0"/>
<path class="fill"
	d="M63.70 156.80l65.90 0.00v3.20l-65.90 -0.00"/>
<use x="60.50" y="175.00" xlink:href="#hl"/>
<use x="60.50" y="181.00" xlink:href="#hl"/>
<use x="60.50" y="184.00" xlink:href="#hd"/>
<path d="M64.00 184.00v-26.20" class="stroke"/>
<use x="82.20" y="175.00" xlink:href="#hl"/>
<use x="82.20" y="181.00" xlink:href="#hl"/>
<use x="82.20" y="181.00" xlink:href="#hd"/>
<path d="M85.70 181.00v-23.20" class="stroke"/>
<use x="104.00" y="175.00" xlink:href="#hl"/>
<use x="104.00" y="178.00" xlink:href="#hd"/>
<path d="M107.50 178.00v-20.20" class="stroke"/>
<use x="125.70" y="175.00" xlink:href="#hl"/>
<use x="125.70" y="181.00" xlink:href="#hl"/>
<use x="125.70" y="181.00" xlink:href="#hd"/>
<path d="M129.20 181.00v-23.20" class="stroke"/>
<path class="fill"
	d="M153.00 156.80l65.90 0.00v3.20l-65.90 -0.00"/>
<use x="149.80" y="175.00" xlink:href="#hl"/>
<use x="149.80" y="181.00" xlink:href="#hl"/>
<use x="149.80" y="184.00" xlink:href="#hd"/>
<path d="M153.30 184.00v-26.20" class="stroke"/>
<use x="171.60" y="175.00" xlink:href="#hl"/>
<use x="171.60" y="181.00" xlink:href="#hl"/>
<use x="171.60" y="181.00" xlink:href="#hd"/>
<path d="M175.10 181.00v-23.20" class="stroke"/>
<use x="193.30" y="175.00" xlink:href="#hl"/>
<use x="193.30" y="178.00" xlink:href="#hd"/>
<path d="M196.80 178.00v-20.20" class="stroke"/>
<use x="215.00" y="175.00" xlink:href="#hl"/>
<use x="215.00" y="181.00" xlink:href="#hl"/>
<use x="215.00" y="181.00" xlink:href="#hd"/>
<path d="M218.50 181.00v-23.20" class="stroke"/>
<path class="fill"
	d="M247.70 156.80l65.90 0.00v3.20l-65.90 -0.00"/>
<use x="244.50" y="175.00" xlink:href="#hl"/>
<use x="244.50" y="181.00" xlink:href="#hl"/>
<use x="244.50" y="184.00" xlink:href="#hd"/>
<path d="M248.00 184.00v-26.20" class="stroke"/>
<use x="266.30" y="175.00" xlink:href="#hl"/>
<use x="266.30" y="181.00" xlink:href="#hl"/>
<use x="266.30" y="181.00" xlink:href="#hd"/>
<path d="M269.80 181.00v-23.20" class="stroke"/>
<use x="288.00" y="175.00" xlink:href="#hl"/>
<use x="288.00" y="178.00" xlink:href="#hd"/>
<path d="M291.50 178.00v-20.20" class="stroke"/>
<use x="309.70" y="175.00" xlink:href="#hl"/>
<use x="309.70" y="181.00" xlink:href="#hl"/>
<use x="309.70" y="181.00" xlink:href="#hd"/>
<path d="M313.20 181.00v-23.20" class="stroke"/>
<use x="333.80" y="172.00" xlink:href="#Hd"/>
<path d="M337.30 172.00v-21.00" class="stroke"/>
<path class="fill"
	d="M383.20 131.80l65.80 0.00v3.20l-65.80 -0.00"/>
<use x="380.10" y="151.00" xlink:href="#hd"/>
<path d="M383.60 151.00v-18.20" class="stroke"/>
<use x="401.80" y="172.00" xlink:href="#hd"/>
<path d="M405.30 172.00v-39.20" class="stroke"/>
<use x="423.50" y="166.00" xlink:href="#hd"/>
<path d="M427.00 166.00v-33.20" class="stroke"/>
<use x="445.20" y="160.00" xlink:href="#hd"/>
<path d="M448.70 160.00v-27.20" class="stroke"/>
<path class="fill"
	d="M472.40 134.80l65.80 5.80v3.20l-65.80 -5.80"/>
<use x="469.30" y="154.00" xlink:href="#hd"/>
<path d="M472.80 154.00v-18.20" class="stroke"/>
<use x="491.00" y="157.00" xlink:href="#hd"/>
<path d="M494.50 157.00v-19.30" class="stroke"/>
<use x="512.70" y="160.00" xlink:href="#hd"/>
<path d="M516.20 160.00v-20.40" class="stroke"/>
<use x="534.40" y="166.00" xlink:href="#hd"/>
<path d="M537.90 166.00v-24.40" class="stroke"/>
<path class="fill"
	d="M567.00 137.40l65.80 -3.90v3.20l-65.80 3.90"/>
<use x="563.90" y="166.00" xlink:href="#hd"/>
<path d="M567.40 166.00v-27.70" class="stroke"/>
<use x="585.60" y="160.00" xlink:href="#hd"/>
<path d="M589.10 160.00v-22.90" class="stroke"/>
<use x="607.30" y="154.00" xlink:href="#hd"/>
<path d="M610.80 154.00v-18.20" class="stroke"/>
<use x="629.00" y="160.00" xlink:href="#hd"/>
<path d="M632.50 160.00v-25.50" class="stroke"/>
<use x="653.10" y="163.00" xlink:href="#Hd"/>
<path d="M656.60 163.00v-21.00" class="stroke"/>
</g>
<g stroke-width="0.70" style="font:italic 14.00px Times">
<path class="stroke" stroke-width="1"
	d="M203.00 239.00v-24.00"/>
<path class="stroke" stroke-width="1"
	d="M358.10 239.00v-24.00"/>
<path class="stroke" stroke-width="1"
	d="M513.10 239.00v-24.00"/>
<path class="stroke" stroke-width="1"
	d="M691.60 239.00v-24.00"/>
<path d="m10.00 239.00
	h681.60
	M10.00 233.00
	h681.60
	M10.00 227.00
	h681.60
	M10.00 221.00
	h681.60
	M10.00 215.00
	h681.60
	" class="stroke"/>
<use x="22.00" y="233.00" xlink:href="#tclef"/>
<use x="37.00" y="227.00" xlink:href="#ft0"/>
<use x="42.50" y="218.00" xlink:href="#ft0"/>
<path class="fill"
	d="M63.70 211.00l63.80 -7.10v3.20l-63.80 7.10"/>
<use x="60.50" y="233.00" xlink:href="#hd"/>
<path d="M64.00 233.00v-21.00" class="stroke"/>
<use x="81.50" y="230.00" xlink:href="#hd"/>
<path d="M85.00 230.00v-20.30" class="stroke"/>
<use x="102.50" y="227.00" xlink:href="#hd"/>
<path d="M106.00 227.00v-19.70" class="stroke"/>
<use x="123.60" y="224.00" xlink:href="#hd"/>
<path d="M127.10 224.00v-19.00" class="stroke"/>
<use x="147.00" y="221.00" xlink:href="#hd"/>
<path d="M143.50 221.00v21.00" class="stroke"/>
<defs>
<path id="r4" class="fill" d="m-1 -8.5
	l3.6 5.1 -2.1 5.2 2.2 4.3
	c-2.6 -2.3 -5.1 0 -2.4 2.6
	-4.8 -3 -1.5 -6.9 1.4 -4.1
	l-3.1 -4.5 1.9 -5.1 -1.5 -3.5"/>
</defs>
<use x="179.80" y="227.00" xlink:href="#r4"/>
<path class="fill"
	d="M218.70 214.00l63.80 -7.10v3.20l-63.80 7.10"/>
<use x="215.50" y="236.00" xlink:href="#hd"/>
<path d="M219.00 236.00v-21.00" class="stroke"/>
<use x="236.60" y="233.00" xlink:href="#hd"/>
<path d="M240.10 233.00v-20.30" class="stroke"/>
<use x="257.60" y="230.00" xlink:href="#hd"/>
<path d="M261.10 230.00v-19.70" class="stroke"/>
<use x="278.60" y="227.00" xlink:href="#hd"/>
<path d="M282.10 227.00v-19.00" class="stroke"/>
<use x="302.00" y="224.00" xlink:href="#hd"/>
<path d="M298.50 224.00v21.00" class="stroke"/>
<use x="334.90" y="227.00" xlink:href="#r4"/>
<path class="fill"
	d="M373.70 211.00l63.80 -7.10v3.20l-63.80 7.10"/>
<use x="370.60" y="233.00" xlink:href="#hd"/>
<path d="M374.10 233.00v-21.00" class="stroke"/>
<use x="391.60" y="230.00" xlink:href="#hd"/>
<path d="M395.10 230.00v-20.30" class="stroke"/>
<use x="412.60" y="227.00" xlink:href="#hd"/>
<path d="M416.10 227.00v-19.70" class="stroke"/>
<use x="433.60" y="224.00" xlink:href="#hd"/>
<path d="M437.10 224.00v-19.00" class="stroke"/>
<use x="457.10" y="221.00" xlink:href="#hd"/>
<path d="M453.60 221.00v21.00" class="stroke"/>
<use x="489.90" y="227.00" xlink:href="#r4"/>
<path class="fill"
	d="M521.80 242.00l63.80 0.00v-3.20l-63.80 -0.00"/>
<use x="525.60" y="221.00" xlink:href="#hd"/>
<path d="M522.10 221.00v20.00" class="stroke"/>
<use x="546.60" y="218.00" xlink:href="#hd"/>
<path d="M543.10 218.00v23.00" class="stroke"/>
<use x="567.70" y="221.00" xlink:href="#hd"/>
<path d="M564.20 221.00v20.00" class="stroke"/>
<use x="588.70" y="224.00" xlink:href="#hd"/>
<path d="M585.20 224.00v17.00" class="stroke"/>
<path class="fill"
	d="M608.20 243.00l63.80 7.10v-3.20l-63.80 -7.10"/>
<use x="612.00" y="221.00" xlink:href="#hd"/>
<path d="M608.50 221.00v21.00" class="stroke"/>
<use x="633.00" y="224.00" xlink:href="#hd"/>
<path d="M629.50 224.00v20.30" class="stroke"/>
<use x="654.10" y="227.00" xlink:href="#hd"/>
<path d="M650.60 227.00v19.70" class="stroke"/>
<use x="675.10" y="230.00" xlink:href="#hd"/>
<path d="M671.60 230.00v19.00" class="stroke"/>
</g>
<g stroke-width="0.70" style="font:italic 14.00px Times">
<path class="stroke" stroke-width="1"
	d="M213.80 309.00v-24.00"/>
<path class="stroke" stroke-width="1"
	d="M379.80 309.00v-24.00"/>
<path class="stroke" stroke-width="1"
	d="M545.80 309.00v-24.00"/>
<path class="stroke" stroke-width="3"
	d="M690.10 309.00v-24.00"/>
<path class="stroke" stroke-width="1"
	d="M685.60 309.00v-24.00"/>
<path d="m10.00 309.00
	h681.60
	M10.00 303.00
	h681.60
	M10.00 297.00
	h681.60
	M10.00 291.00
	h681.60
	M10.00 285.00
	h681.60
	" class="stroke"/>
<use x="22.00" y="303.00" xlink:href="#tclef"/>
<use x="37.00" y="297.00" xlink:href="#ft0"/>
<use x="42.50" y="288.00" xlink:href="#ft0"/>
<path class="fill"
	d="M63.70 281.10l68.50 -7.20v3.20l-68.50 7.20"/>
<use x="60.50" y="303.00" xlink:href="#hd"/>
<path d="M64.00 303.00v-20.90" class="stroke"/>
<use x="83.10" y="300.00" xlink:href="#hd"/>
<path d="M86.60 300.00v-20.30" class="stroke"/>
<use x="105.70" y="297.00" xlink:href="#hd"/>
<path d="M109.20 297.00v-19.70" class="stroke"/>
<use x="128.30" y="294.00" xlink:href="#hd"/>
<path d="M131.80 294.00v-19.10" class="stroke"/>
<use x="153.50" y="291.00" xlink:href="#hd"/>
<path d="M150.00 291.00v21.00" class="stroke"/>
<use x="188.90" y="297.00" xlink:href="#r4"/>
<path class="fill"
	d="M229.60 284.10l68.50 -7.20v3.20l-68.50 7.20"/>
<use x="226.50" y="306.00" xlink:href="#hd"/>
<path d="M230.00 306.00v-20.90" class="stroke"/>
<use x="249.10" y="303.00" xlink:href="#hd"/>
<path d="M252.60 303.00v-20.30" class="stroke"/>
<use x="271.70" y="300.00" xlink:href="#hd"/>
<path d="M275.20 300.00v-19.70" class="stroke"/>
<use x="294.30" y="297.00" xlink:href="#hd"/>
<path d="M297.80 297.00v-19.10" class="stroke"/>
<use x="319.50" y="294.00" xlink:href="#hd"/>
<path d="M316.00 294.00v21.00" class="stroke"/>
<use x="354.90" y="297.00" xlink:href="#r4"/>
<path class="fill"
	d="M395.60 281.10l68.50 -7.20v3.20l-68.50 7.20"/>
<use x="392.50" y="303.00" xlink:href="#hd"/>
<path d="M396.00 303.00v-20.90" class="stroke"/>
<use x="415.10" y="300.00" xlink:href="#hd"/>
<path d="M418.60 300.00v-20.30" class="stroke"/>
<use x="437.70" y="297.00" xlink:href="#hd"/>
<path d="M441.20 297.00v-19.70" class="stroke"/>
<use x="460.30" y="294.00" xlink:href="#hd"/>
<path d="M463.80 294.00v-19.10" class="stroke"/>
<use x="485.40" y="291.00" xlink:href="#hd"/>
<path d="M481.90 291.00v21.00" class="stroke"/>
<use x="520.90" y="297.00" xlink:href="#r4"/>
<path class="fill"
	d="M561.60 274.80l68.50 0.00v3.20l-68.50 -0.00"/>
<use x="558.40" y="294.00" xlink:href="#hd"/>
<path d="M561.90 294.00v-18.20" class="stroke"/>
<use x="581.10" y="306.00" xlink:href="#hd"/>
<path d="M584.60 306.00v-30.20" class="stroke"/>
<use x="603.70" y="294.00" xlink:href="#hd"/>
<path d="M607.20 294.00v-18.20" class="stroke"/>
<use x="626.30" y="300.00" xlink:href="#hd"/>
<path d="M629.80 300.00v-24.20" class="stroke"/>
<use x="651.40" y="303.00" xlink:href="#Hd"/>
<path d="M654.90 303.00v-21.00" class="stroke"/>
</g>
</svg>
