<?xml version="1.0" standalone="no"?>
<!DOCTYPE svg PUBLIC "-//W3C//DTD SVG 1.1//EN"
	"http://www.w3.org/Graphics/SVG/1.1/DTD/svg11.dtd">
<svg xmlns="http://www.w3.org/2000/svg" version="1.1"
	xmlns:xlink="http://www.w3.org/1999/xlink"
	color="black"
	width="701.60px" height="472.00px">
<style type="text/css">
.fill {fill: currentColor}
.stroke {stroke: currentColor; fill: none}
text{white-space: pre}
</style>
<title>/media/tim/Data1/tims_code/sphinx-tunes/source/_abcfiles/Phoenix.abc (1) tune 1</title>
<!-- Creator: abcm2ps-8.14.6 -->
<!-- CreationDate: Jul 30, 2023 12:21 -->
<!-- CommandLine: -g /media/tim/Data1/tims_code/sphinx-tunes/source/_abcfiles/Phoenix.abc -O /media/tim/Data1/tims_code/sphinx-tunes/source/_abcfiles/Phoenix.svg -->
<g stroke-width="0.70">
<!-- title: Phoenix -->
</g>
<g stroke-width="0.70" style="font:20.00px Times">
<text x="350.80" y="22.00" text-anchor="middle">Phoenix</text>
</g>
<g stroke-width="0.70" style="font:italic 14.00px Times">
<text x="691.60" y="46.00" text-anchor="end">Jackie Tolliday-Bailey</text>
</g>
<g stroke-width="0.70" style="font:italic 14.00px Times">
<path class="stroke" stroke-width="1"
	d="M234.60 99.00v-24.00"/>
<path class="stroke" stroke-width="1"
	d="M391.80 99.00v-24.00"/>
<path class="stroke" stroke-width="1"
	d="M541.70 99.00v-24.00"/>
<path class="stroke" stroke-width="1"
	d="M691.60 99.00v-24.00"/>
<path d="m10.00 99.00
	h681.60
	M10.00 93.00
	h681.60
	M10.00 87.00
	h681.60
	M10.00 81.00
	h681.60
	M10.00 75.00
	h681.60
	" class="stroke"/>
<defs>
<path id="utclef" class="fill" d="m-50 -90
	c-72 -41 -72 -158 52 -188
	150 -10 220 188 90 256
	-114 52 -275 0 -293 -136
	-15 -181 93 -229 220 -334
	88 -87 79 -133 62 -210
	-51 33 -94 105 -89 186
	17 267 36 374 49 574
	6 96 -19 134 -77 135
	-80 1 -126 -93 -61 -133
	85 -41 133 101 31 105
	23 17 92 37 90 -92
	-10 -223 -39 -342 -50 -617
	0 -90 0 -162 96 -232
	56 72 63 230 22 289
	-74 106 -257 168 -255 316
	9 153 148 185 252 133
	86 -65 29 -192 -80 -176
	-71 12 -105 67 -59 124"/>
<use id="tclef" transform="translate(0,6) scale(0.045)"
	xlink:href="#utclef"/>
</defs>
<use x="22.00" y="93.00" xlink:href="#tclef"/>
<defs>
<path id="usharp" class="fill" d="
	m136 -702
	v890
	h32
	v-890
	m128 840
	h32
	v-888
	h-32
	m-232 286
	v116
	l338 -96
	v-116
	m-338 442
	v116
	l338 -98
	v-114"/>
<use id="sh0" transform="translate(-4,5) scale(0.018)"
	xlink:href="#usharp"/>
</defs>
<use x="37.00" y="75.00" xlink:href="#sh0"/>
<use x="42.50" y="84.00" xlink:href="#sh0"/>
<g style="font:bold 16px serif"
	transform="translate(58.50,98.50) scale(1.2,1)">
	<text text-anchor="middle">4</text>
	<text y="-12" text-anchor="middle">6</text>
</g>
<path class="fill"
	d="M72.70 96.00l54.40 0.00v-3.20l-54.40 -0.00"/>
<defs>
<ellipse id="hd" rx="4.1" ry="2.9"
	transform="rotate(-20)" class="fill"/>
</defs>
<use x="76.50" y="75.00" xlink:href="#hd"/>
<path d="M73.00 75.00v20.00" class="stroke"/>
<use x="103.30" y="72.00" xlink:href="#hd"/>
<path d="M99.80 72.00v23.00" class="stroke"/>
<use x="130.20" y="75.00" xlink:href="#hd"/>
<path d="M126.70 75.00v20.00" class="stroke"/>
<path class="fill"
	d="M156.20 99.20l54.40 0.00v-3.20l-54.40 -0.00"/>
<use x="160.00" y="78.00" xlink:href="#hd"/>
<path d="M156.50 78.00v20.20" class="stroke"/>
<use x="186.80" y="75.00" xlink:href="#hd"/>
<path d="M183.30 75.00v23.20" class="stroke"/>
<use x="213.70" y="78.00" xlink:href="#hd"/>
<path d="M210.20 78.00v20.20" class="stroke"/>
<path class="fill"
	d="M245.60 102.00l54.40 0.00v-3.20l-54.40 -0.00"/>
<use x="249.50" y="81.00" xlink:href="#hd"/>
<path d="M246.00 81.00v20.00" class="stroke"/>
<use x="276.30" y="78.00" xlink:href="#hd"/>
<path d="M272.80 78.00v23.00" class="stroke"/>
<use x="303.10" y="81.00" xlink:href="#hd"/>
<path d="M299.60 81.00v20.00" class="stroke"/>
<use x="333.00" y="84.00" xlink:href="#hd"/>
<path d="M329.50 84.00v21.00" class="stroke"/>
<use x="370.90" y="96.00" xlink:href="#hd"/>
<path d="M374.40 96.00v-21.00" class="stroke"/>
<path class="fill"
	d="M374.40 75.00c0.6 5.6 9.6 9 5.6 18.4
	1.6 -6 -1.3 -11.6 -5.6 -12.8
"/>
<use x="406.70" y="87.00" xlink:href="#hd"/>
<path d="M410.20 87.00v-21.00" class="stroke"/>
<use x="448.80" y="84.00" xlink:href="#hd"/>
<path d="M445.30 84.00v21.00" class="stroke"/>
<path class="fill"
	d="M445.30 105.00c0.6 -5.6 9.6 -9 5.6 -18.4
	1.6 6 -1.3 11.6 -5.6 12.8
"/>
<use x="478.70" y="81.00" xlink:href="#hd"/>
<path d="M475.20 81.00v21.00" class="stroke"/>
<use x="520.80" y="78.00" xlink:href="#hd"/>
<path d="M517.30 78.00v21.00" class="stroke"/>
<path class="fill"
	d="M517.30 99.00c0.6 -5.6 9.6 -9 5.6 -18.4
	1.6 6 -1.3 11.6 -5.6 12.8
"/>
<use x="556.60" y="75.00" xlink:href="#hd"/>
<path d="M553.10 75.00v21.00" class="stroke"/>
<use x="598.80" y="78.00" xlink:href="#hd"/>
<path d="M595.30 78.00v21.00" class="stroke"/>
<path class="fill"
	d="M595.30 99.00c0.6 -5.6 9.6 -9 5.6 -18.4
	1.6 6 -1.3 11.6 -5.6 12.8
"/>
<use x="628.60" y="81.00" xlink:href="#hd"/>
<path d="M625.10 81.00v21.00" class="stroke"/>
<use x="670.70" y="84.00" xlink:href="#hd"/>
<path d="M667.20 84.00v21.00" class="stroke"/>
<path class="fill"
	d="M667.20 105.00c0.6 -5.6 9.6 -9 5.6 -18.4
	1.6 6 -1.3 11.6 -5.6 12.8
"/>
</g>
<g stroke-width="0.70" style="font:italic 14.00px Times">
<path class="stroke" stroke-width="1"
	d="M249.60 169.00v-24.00"/>
<path class="stroke" stroke-width="1"
	d="M437.60 169.00v-24.00"/>
<path class="stroke" stroke-width="1"
	d="M616.90 169.00v-24.00"/>
<path class="stroke" stroke-width="1"
	d="M691.60 169.00v-24.00"/>
<path d="m10.00 169.00
	h681.60
	M10.00 163.00
	h681.60
	M10.00 157.00
	h681.60
	M10.00 151.00
	h681.60
	M10.00 145.00
	h681.60
	" class="stroke"/>
<use x="22.00" y="163.00" xlink:href="#tclef"/>
<use x="37.00" y="145.00" xlink:href="#sh0"/>
<use x="42.50" y="154.00" xlink:href="#sh0"/>
<path class="fill"
	d="M56.70 166.00l64.90 0.00v-3.20l-64.90 -0.00"/>
<use x="60.50" y="145.00" xlink:href="#hd"/>
<path d="M57.00 145.00v20.00" class="stroke"/>
<use x="92.60" y="142.00" xlink:href="#hd"/>
<path d="M89.10 142.00v23.00" class="stroke"/>
<use x="124.70" y="145.00" xlink:href="#hd"/>
<path d="M121.20 145.00v20.00" class="stroke"/>
<path class="fill"
	d="M156.50 169.20l64.90 0.00v-3.20l-64.90 -0.00"/>
<use x="160.40" y="148.00" xlink:href="#hd"/>
<path d="M156.90 148.00v20.20" class="stroke"/>
<use x="192.50" y="145.00" xlink:href="#hd"/>
<path d="M189.00 145.00v23.20" class="stroke"/>
<use x="224.60" y="148.00" xlink:href="#hd"/>
<path d="M221.10 148.00v20.20" class="stroke"/>
<path class="fill"
	d="M263.60 172.00l64.90 0.00v-3.20l-64.90 -0.00"/>
<use x="267.40" y="151.00" xlink:href="#hd"/>
<path d="M263.90 151.00v20.00" class="stroke"/>
<use x="299.50" y="148.00" xlink:href="#hd"/>
<path d="M296.00 148.00v23.00" class="stroke"/>
<use x="331.60" y="151.00" xlink:href="#hd"/>
<path d="M328.10 151.00v20.00" class="stroke"/>
<use x="367.30" y="154.00" xlink:href="#hd"/>
<path d="M363.80 154.00v21.00" class="stroke"/>
<use x="412.70" y="166.00" xlink:href="#hd"/>
<path d="M416.20 166.00v-21.00" class="stroke"/>
<path class="fill"
	d="M416.20 145.00c0.6 5.6 9.6 9 5.6 18.4
	1.6 -6 -1.3 -11.6 -5.6 -12.8
"/>
<use x="455.50" y="157.00" xlink:href="#hd"/>
<path d="M459.00 157.00v-21.00" class="stroke"/>
<use x="505.90" y="154.00" xlink:href="#hd"/>
<path d="M502.40 154.00v21.00" class="stroke"/>
<path class="fill"
	d="M502.40 175.00c0.6 -5.6 9.6 -9 5.6 -18.4
	1.6 6 -1.3 11.6 -5.6 12.8
"/>
<use x="541.60" y="151.00" xlink:href="#hd"/>
<path d="M538.10 151.00v21.00" class="stroke"/>
<use x="592.00" y="148.00" xlink:href="#hd"/>
<path d="M588.50 148.00v21.00" class="stroke"/>
<path class="fill"
	d="M588.50 169.00c0.6 -5.6 9.6 -9 5.6 -18.4
	1.6 6 -1.3 11.6 -5.6 12.8
"/>
<defs>
<path id="Hd" class="fill" d="m3 -1.6
	c-1 -1.8 -7 1.4 -6 3.2
	1 1.8 7 -1.4 6 -3.2
	m0.5 -0.3
	c2 3.8 -5 7.6 -7 3.8
	-2 -3.8 5 -7.6 7 -3.8"/>
</defs>
<use x="634.80" y="145.00" xlink:href="#Hd"/>
<circle class="fill" cx="643.50" cy="142.00" r="1.2"/>
<path d="M631.30 145.00v21.00" class="stroke"/>
</g>
<g stroke-width="0.70" style="font:italic 14.00px Times">
<path class="stroke" stroke-width="1"
	d="M215.20 239.00v-24.00"/>
<path class="stroke" stroke-width="1"
	d="M398.20 239.00v-24.00"/>
<path class="stroke" stroke-width="1"
	d="M544.90 239.00v-24.00"/>
<path class="stroke" stroke-width="1"
	d="M691.60 239.00v-24.00"/>
<path d="m10.00 239.00
	h681.60
	M10.00 233.00
	h681.60
	M10.00 227.00
	h681.60
	M10.00 221.00
	h681.60
	M10.00 215.00
	h681.60
	" class="stroke"/>
<use x="22.00" y="233.00" xlink:href="#tclef"/>
<use x="37.00" y="215.00" xlink:href="#sh0"/>
<use x="42.50" y="224.00" xlink:href="#sh0"/>
<path class="fill"
	d="M56.70 236.00l53.20 0.00v-3.20l-53.20 -0.00"/>
<use x="60.50" y="215.00" xlink:href="#hd"/>
<path d="M57.00 215.00v20.00" class="stroke"/>
<use x="86.80" y="212.00" xlink:href="#hd"/>
<path d="M83.30 212.00v23.00" class="stroke"/>
<use x="113.00" y="215.00" xlink:href="#hd"/>
<path d="M109.50 215.00v20.00" class="stroke"/>
<path class="fill"
	d="M138.40 239.20l53.20 0.00v-3.20l-53.20 -0.00"/>
<use x="142.20" y="218.00" xlink:href="#hd"/>
<path d="M138.70 218.00v20.20" class="stroke"/>
<use x="168.50" y="215.00" xlink:href="#hd"/>
<path d="M165.00 215.00v23.20" class="stroke"/>
<use x="194.70" y="218.00" xlink:href="#hd"/>
<path d="M191.20 218.00v20.20" class="stroke"/>
<path class="fill"
	d="M225.90 242.00l53.20 0.00v-3.20l-53.20 -0.00"/>
<use x="229.80" y="221.00" xlink:href="#hd"/>
<path d="M226.30 221.00v20.00" class="stroke"/>
<use x="256.00" y="218.00" xlink:href="#hd"/>
<path d="M252.50 218.00v23.00" class="stroke"/>
<use x="282.30" y="221.00" xlink:href="#hd"/>
<path d="M278.80 221.00v20.00" class="stroke"/>
<use x="311.50" y="224.00" xlink:href="#hd"/>
<path d="M308.00 224.00v21.00" class="stroke"/>
<use x="348.60" y="236.00" xlink:href="#hd"/>
<path d="M352.10 236.00v-21.00" class="stroke"/>
<path class="fill"
	d="M352.10 215.00c0.6 5.6 9.6 9 5.6 18.4
	1.6 -6 -1.3 -11.6 -5.6 -12.8
"/>
<use x="377.80" y="215.00" xlink:href="#hd"/>
<path d="M374.30 215.00v21.00" class="stroke"/>
<path class="fill"
	d="M374.30 236.00c0.6 -5.6 9.6 -9 5.6 -18.4
	1.6 6 -1.3 11.6 -5.6 12.8
"/>
<use x="412.80" y="212.00" xlink:href="#hd"/>
<path d="M409.30 212.00v21.00" class="stroke"/>
<use x="454.00" y="218.00" xlink:href="#hd"/>
<path d="M450.50 218.00v21.00" class="stroke"/>
<path class="fill"
	d="M450.50 239.00c0.6 -5.6 9.6 -9 5.6 -18.4
	1.6 6 -1.3 11.6 -5.6 12.8
"/>
<use x="483.20" y="215.00" xlink:href="#hd"/>
<path d="M479.70 215.00v21.00" class="stroke"/>
<use x="524.50" y="212.00" xlink:href="#hd"/>
<path d="M521.00 212.00v21.00" class="stroke"/>
<path class="fill"
	d="M521.00 233.00c0.6 -5.6 9.6 -9 5.6 -18.4
	1.6 6 -1.3 11.6 -5.6 12.8
"/>
<use x="559.50" y="215.00" xlink:href="#hd"/>
<path d="M556.00 215.00v21.00" class="stroke"/>
<use x="600.70" y="218.00" xlink:href="#hd"/>
<path d="M597.20 218.00v21.00" class="stroke"/>
<path class="fill"
	d="M597.20 239.00c0.6 -5.6 9.6 -9 5.6 -18.4
	1.6 6 -1.3 11.6 -5.6 12.8
"/>
<use x="629.90" y="221.00" xlink:href="#hd"/>
<path d="M626.40 221.00v21.00" class="stroke"/>
<use x="671.20" y="224.00" xlink:href="#hd"/>
<path d="M667.70 224.00v21.00" class="stroke"/>
<path class="fill"
	d="M667.70 245.00c0.6 -5.6 9.6 -9 5.6 -18.4
	1.6 6 -1.3 11.6 -5.6 12.8
"/>
</g>
<g stroke-width="0.70" style="font:italic 14.00px Times">
<path class="stroke" stroke-width="1"
	d="M249.60 309.00v-24.00"/>
<path class="stroke" stroke-width="1"
	d="M437.60 309.00v-24.00"/>
<path class="stroke" stroke-width="1"
	d="M616.90 309.00v-24.00"/>
<path class="stroke" stroke-width="1"
	d="M691.60 309.00v-24.00"/>
<path d="m10.00 309.00
	h681.60
	M10.00 303.00
	h681.60
	M10.00 297.00
	h681.60
	M10.00 291.00
	h681.60
	M10.00 285.00
	h681.60
	" class="stroke"/>
<use x="22.00" y="303.00" xlink:href="#tclef"/>
<use x="37.00" y="285.00" xlink:href="#sh0"/>
<use x="42.50" y="294.00" xlink:href="#sh0"/>
<path class="fill"
	d="M56.70 306.00l64.90 0.00v-3.20l-64.90 -0.00"/>
<use x="60.50" y="285.00" xlink:href="#hd"/>
<path d="M57.00 285.00v20.00" class="stroke"/>
<use x="92.60" y="282.00" xlink:href="#hd"/>
<path d="M89.10 282.00v23.00" class="stroke"/>
<use x="124.70" y="285.00" xlink:href="#hd"/>
<path d="M121.20 285.00v20.00" class="stroke"/>
<path class="fill"
	d="M156.50 309.20l64.90 0.00v-3.20l-64.90 -0.00"/>
<use x="160.40" y="288.00" xlink:href="#hd"/>
<path d="M156.90 288.00v20.20" class="stroke"/>
<use x="192.50" y="285.00" xlink:href="#hd"/>
<path d="M189.00 285.00v23.20" class="stroke"/>
<use x="224.60" y="288.00" xlink:href="#hd"/>
<path d="M221.10 288.00v20.20" class="stroke"/>
<path class="fill"
	d="M263.60 312.00l64.90 0.00v-3.20l-64.90 -0.00"/>
<use x="267.40" y="291.00" xlink:href="#hd"/>
<path d="M263.90 291.00v20.00" class="stroke"/>
<use x="299.50" y="288.00" xlink:href="#hd"/>
<path d="M296.00 288.00v23.00" class="stroke"/>
<use x="331.60" y="291.00" xlink:href="#hd"/>
<path d="M328.10 291.00v20.00" class="stroke"/>
<use x="367.30" y="294.00" xlink:href="#hd"/>
<path d="M363.80 294.00v21.00" class="stroke"/>
<use x="412.70" y="306.00" xlink:href="#hd"/>
<path d="M416.20 306.00v-21.00" class="stroke"/>
<path class="fill"
	d="M416.20 285.00c0.6 5.6 9.6 9 5.6 18.4
	1.6 -6 -1.3 -11.6 -5.6 -12.8
"/>
<use x="455.50" y="297.00" xlink:href="#hd"/>
<path d="M459.00 297.00v-21.00" class="stroke"/>
<use x="505.90" y="294.00" xlink:href="#hd"/>
<path d="M502.40 294.00v21.00" class="stroke"/>
<path class="fill"
	d="M502.40 315.00c0.6 -5.6 9.6 -9 5.6 -18.4
	1.6 6 -1.3 11.6 -5.6 12.8
"/>
<use x="541.60" y="291.00" xlink:href="#hd"/>
<path d="M538.10 291.00v21.00" class="stroke"/>
<use x="592.00" y="288.00" xlink:href="#hd"/>
<path d="M588.50 288.00v21.00" class="stroke"/>
<path class="fill"
	d="M588.50 309.00c0.6 -5.6 9.6 -9 5.6 -18.4
	1.6 6 -1.3 11.6 -5.6 12.8
"/>
<use x="634.80" y="297.00" xlink:href="#Hd"/>
<circle class="fill" cx="643.50" cy="294.00" r="1.2"/>
<path d="M631.30 297.00v21.00" class="stroke"/>
</g>
<g stroke-width="0.70" style="font:italic 14.00px Times">
<defs>
<g id="rdots" class="fill">
	<circle cx="0" cy="-9" r="1.2"/>
	<circle cx="0" cy="-15" r="1.2"/>
</g>
</defs>
<use x="67.00" y="379.00" xlink:href="#rdots"/>
<path class="stroke" stroke-width="1"
	d="M63.00 379.00v-24.00"/>
<path class="stroke" stroke-width="3"
	d="M58.50 379.00v-24.00"/>
<path class="stroke" stroke-width="1"
	d="M229.30 379.00v-24.00"/>
<path class="stroke" stroke-width="1"
	d="M377.70 379.00v-24.00"/>
<path class="stroke" stroke-width="1"
	d="M539.00 379.00v-24.00"/>
<path class="stroke" stroke-width="1"
	d="M691.60 379.00v-24.00"/>
<path d="m10.00 379.00
	h681.60
	M10.00 373.00
	h681.60
	M10.00 367.00
	h681.60
	M10.00 361.00
	h681.60
	M10.00 355.00
	h681.60
	" class="stroke"/>
<use x="22.00" y="373.00" xlink:href="#tclef"/>
<use x="37.00" y="355.00" xlink:href="#sh0"/>
<use x="42.50" y="364.00" xlink:href="#sh0"/>
<path class="fill"
	d="M79.30 385.20l55.30 0.00v-3.20l-55.30 -0.00"/>
<use x="83.20" y="364.00" xlink:href="#hd"/>
<path d="M79.70 364.00v20.20" class="stroke"/>
<use x="110.50" y="361.00" xlink:href="#hd"/>
<path d="M107.00 361.00v23.20" class="stroke"/>
<use x="137.80" y="364.00" xlink:href="#hd"/>
<path d="M134.30 364.00v20.20" class="stroke"/>
<use x="165.20" y="376.00" xlink:href="#hd"/>
<path d="M168.70 376.00v-21.00" class="stroke"/>
<use x="208.10" y="364.00" xlink:href="#hd"/>
<path d="M204.60 364.00v21.00" class="stroke"/>
<path class="fill"
	d="M204.60 385.00c0.6 -5.6 9.6 -9 5.6 -18.4
	1.6 6 -1.3 11.6 -5.6 12.8
"/>
<use x="244.50" y="361.00" xlink:href="#hd"/>
<path d="M241.00 361.00v21.00" class="stroke"/>
<use x="287.40" y="364.00" xlink:href="#hd"/>
<path d="M283.90 364.00v21.00" class="stroke"/>
<path class="fill"
	d="M283.90 385.00c0.6 -5.6 9.6 -9 5.6 -18.4
	1.6 6 -1.3 11.6 -5.6 12.8
"/>
<use x="317.80" y="367.00" xlink:href="#hd"/>
<path d="M314.30 367.00v21.00" class="stroke"/>
<use x="356.40" y="370.00" xlink:href="#hd"/>
<path d="M359.90 370.00v-21.00" class="stroke"/>
<path class="fill"
	d="M359.90 349.00c0.6 5.6 9.6 9 5.6 18.4
	1.6 -6 -1.3 -11.6 -5.6 -12.8
"/>
<path class="fill"
	d="M389.00 387.00l55.30 0.00v-3.20l-55.30 -0.00"/>
<use x="392.80" y="367.00" xlink:href="#hd"/>
<path d="M389.30 367.00v19.00" class="stroke"/>
<use x="420.20" y="364.00" xlink:href="#hd"/>
<path d="M416.70 364.00v22.00" class="stroke"/>
<use x="447.50" y="367.00" xlink:href="#hd"/>
<path d="M444.00 367.00v19.00" class="stroke"/>
<use x="474.80" y="376.00" xlink:href="#hd"/>
<path d="M478.30 376.00v-21.00" class="stroke"/>
<use x="517.70" y="367.00" xlink:href="#hd"/>
<path d="M521.20 367.00v-21.00" class="stroke"/>
<path class="fill"
	d="M521.20 346.00c0.6 5.6 9.6 9 5.6 18.4
	1.6 -6 -1.3 -11.6 -5.6 -12.8
"/>
<use x="554.20" y="364.00" xlink:href="#hd"/>
<path d="M550.70 364.00v21.00" class="stroke"/>
<use x="597.10" y="367.00" xlink:href="#hd"/>
<path d="M593.60 367.00v21.00" class="stroke"/>
<path class="fill"
	d="M593.60 388.00c0.6 -5.6 9.6 -9 5.6 -18.4
	1.6 6 -1.3 11.6 -5.6 12.8
"/>
<use x="627.40" y="361.00" xlink:href="#hd"/>
<path d="M623.90 361.00v21.00" class="stroke"/>
<use x="670.30" y="364.00" xlink:href="#hd"/>
<path d="M666.80 364.00v21.00" class="stroke"/>
<path class="fill"
	d="M666.80 385.00c0.6 -5.6 9.6 -9 5.6 -18.4
	1.6 6 -1.3 11.6 -5.6 12.8
"/>
</g>
<g stroke-width="0.70" style="font:italic 14.00px Times">
<path class="stroke" stroke-width="1"
	d="M238.70 449.00v-24.00"/>
<path class="stroke" stroke-width="1"
	d="M419.60 449.00v-24.00"/>
<path class="stroke" stroke-width="1"
	d="M605.70 449.00v-24.00"/>
<path class="stroke" stroke-width="3"
	d="M690.10 449.00v-24.00"/>
<path class="stroke" stroke-width="1"
	d="M685.60 449.00v-24.00"/>
<use x="681.60" y="449.00" xlink:href="#rdots"/>
<path d="m10.00 449.00
	h681.60
	M10.00 443.00
	h681.60
	M10.00 437.00
	h681.60
	M10.00 431.00
	h681.60
	M10.00 425.00
	h681.60
	" class="stroke"/>
<use x="22.00" y="443.00" xlink:href="#tclef"/>
<use x="37.00" y="425.00" xlink:href="#sh0"/>
<use x="42.50" y="434.00" xlink:href="#sh0"/>
<path class="fill"
	d="M56.70 455.20l67.30 0.00v-3.20l-67.30 -0.00"/>
<use x="60.50" y="434.00" xlink:href="#hd"/>
<path d="M57.00 434.00v20.20" class="stroke"/>
<use x="93.80" y="431.00" xlink:href="#hd"/>
<path d="M90.30 431.00v23.20" class="stroke"/>
<use x="127.10" y="434.00" xlink:href="#hd"/>
<path d="M123.60 434.00v20.20" class="stroke"/>
<use x="160.50" y="446.00" xlink:href="#hd"/>
<path d="M164.00 446.00v-21.00" class="stroke"/>
<use x="212.80" y="434.00" xlink:href="#hd"/>
<path d="M209.30 434.00v21.00" class="stroke"/>
<path class="fill"
	d="M209.30 455.00c0.6 -5.6 9.6 -9 5.6 -18.4
	1.6 6 -1.3 11.6 -5.6 12.8
"/>
<use x="257.20" y="431.00" xlink:href="#hd"/>
<path d="M253.70 431.00v21.00" class="stroke"/>
<use x="309.50" y="434.00" xlink:href="#hd"/>
<path d="M306.00 434.00v21.00" class="stroke"/>
<path class="fill"
	d="M306.00 455.00c0.6 -5.6 9.6 -9 5.6 -18.4
	1.6 6 -1.3 11.6 -5.6 12.8
"/>
<use x="346.60" y="437.00" xlink:href="#hd"/>
<path d="M343.10 437.00v21.00" class="stroke"/>
<use x="393.70" y="443.00" xlink:href="#hd"/>
<path d="M397.20 443.00v-21.00" class="stroke"/>
<path class="fill"
	d="M397.20 422.00c0.6 5.6 9.6 9 5.6 18.4
	1.6 -6 -1.3 -11.6 -5.6 -12.8
"/>
<use x="438.10" y="437.00" xlink:href="#hd"/>
<path d="M441.60 437.00v-21.00" class="stroke"/>
<use x="490.40" y="434.00" xlink:href="#hd"/>
<path d="M486.90 434.00v21.00" class="stroke"/>
<path class="fill"
	d="M486.90 455.00c0.6 -5.6 9.6 -9 5.6 -18.4
	1.6 6 -1.3 11.6 -5.6 12.8
"/>
<use x="527.40" y="431.00" xlink:href="#hd"/>
<path d="M523.90 431.00v21.00" class="stroke"/>
<use x="579.80" y="434.00" xlink:href="#hd"/>
<path d="M576.30 434.00v21.00" class="stroke"/>
<path class="fill"
	d="M576.30 455.00c0.6 -5.6 9.6 -9 5.6 -18.4
	1.6 6 -1.3 11.6 -5.6 12.8
"/>
<use x="624.20" y="437.00" xlink:href="#Hd"/>
<circle class="fill" cx="632.90" cy="434.00" r="1.2"/>
<path d="M620.70 437.00v21.00" class="stroke"/>
</g>
</svg>
