<?xml version="1.0" standalone="no"?>
<!DOCTYPE svg PUBLIC "-//W3C//DTD SVG 1.1//EN"
	"http://www.w3.org/Graphics/SVG/1.1/DTD/svg11.dtd">
<svg xmlns="http://www.w3.org/2000/svg" version="1.1"
	xmlns:xlink="http://www.w3.org/1999/xlink"
	color="black"
	width="701.60px" height="458.00px">
<style type="text/css">
.fill {fill: currentColor}
.stroke {stroke: currentColor; fill: none}
text{white-space: pre}
</style>
<title>/media/tim/Data1/tims_code/sphinx-tunes/source/_abcfiles/rats.abc (16) tune 16</title>
<!-- Creator: abcm2ps-8.14.6 -->
<!-- CreationDate: Jul 30, 2023 12:21 -->
<!-- CommandLine: -g /media/tim/Data1/tims_code/sphinx-tunes/source/_abcfiles/rats.abc -O /media/tim/Data1/tims_code/sphinx-tunes/source/_abcfiles/rats.svg -->
<g stroke-width="0.70">
<!-- title: Pheonix -->
</g>
<g stroke-width="0.70" style="font:20.00px Times">
<text x="350.80" y="22.00" text-anchor="middle">Pheonix</text>
</g>
<g stroke-width="0.70" style="font:20.00px Times">
<path class="stroke" stroke-width="1"
	d="M234.60 85.00v-24.00"/>
<path class="stroke" stroke-width="1"
	d="M391.80 85.00v-24.00"/>
<path class="stroke" stroke-width="1"
	d="M541.70 85.00v-24.00"/>
<path class="stroke" stroke-width="1"
	d="M691.60 85.00v-24.00"/>
<path d="m10.00 85.00
	h681.60
	M10.00 79.00
	h681.60
	M10.00 73.00
	h681.60
	M10.00 67.00
	h681.60
	M10.00 61.00
	h681.60
	" class="stroke"/>
<defs>
<path id="utclef" class="fill" d="m-50 -90
	c-72 -41 -72 -158 52 -188
	150 -10 220 188 90 256
	-114 52 -275 0 -293 -136
	-15 -181 93 -229 220 -334
	88 -87 79 -133 62 -210
	-51 33 -94 105 -89 186
	17 267 36 374 49 574
	6 96 -19 134 -77 135
	-80 1 -126 -93 -61 -133
	85 -41 133 101 31 105
	23 17 92 37 90 -92
	-10 -223 -39 -342 -50 -617
	0 -90 0 -162 96 -232
	56 72 63 230 22 289
	-74 106 -257 168 -255 316
	9 153 148 185 252 133
	86 -65 29 -192 -80 -176
	-71 12 -105 67 -59 124"/>
<use id="tclef" transform="translate(0,6) scale(0.045)"
	xlink:href="#utclef"/>
</defs>
<use x="22.00" y="79.00" xlink:href="#tclef"/>
<defs>
<path id="usharp" class="fill" d="
	m136 -702
	v890
	h32
	v-890
	m128 840
	h32
	v-888
	h-32
	m-232 286
	v116
	l338 -96
	v-116
	m-338 442
	v116
	l338 -98
	v-114"/>
<use id="sh0" transform="translate(-4,5) scale(0.018)"
	xlink:href="#usharp"/>
</defs>
<use x="37.00" y="61.00" xlink:href="#sh0"/>
<use x="42.50" y="70.00" xlink:href="#sh0"/>
<g style="font:bold 16px serif"
	transform="translate(58.50,84.50) scale(1.2,1)">
	<text text-anchor="middle">4</text>
	<text y="-12" text-anchor="middle">4</text>
</g>
<path class="fill"
	d="M72.70 82.00l54.40 0.00v-3.20l-54.40 -0.00"/>
<defs>
<ellipse id="hd" rx="4.1" ry="2.9"
	transform="rotate(-20)" class="fill"/>
</defs>
<use x="76.50" y="61.00" xlink:href="#hd"/>
<path d="M73.00 61.00v20.00" class="stroke"/>
<use x="103.30" y="58.00" xlink:href="#hd"/>
<path d="M99.80 58.00v23.00" class="stroke"/>
<use x="130.20" y="61.00" xlink:href="#hd"/>
<path d="M126.70 61.00v20.00" class="stroke"/>
<path class="fill"
	d="M156.20 85.20l54.40 0.00v-3.20l-54.40 -0.00"/>
<use x="160.00" y="64.00" xlink:href="#hd"/>
<path d="M156.50 64.00v20.20" class="stroke"/>
<use x="186.80" y="61.00" xlink:href="#hd"/>
<path d="M183.30 61.00v23.20" class="stroke"/>
<use x="213.70" y="64.00" xlink:href="#hd"/>
<path d="M210.20 64.00v20.20" class="stroke"/>
<path class="fill"
	d="M245.60 88.00l54.40 0.00v-3.20l-54.40 -0.00"/>
<use x="249.50" y="67.00" xlink:href="#hd"/>
<path d="M246.00 67.00v20.00" class="stroke"/>
<use x="276.30" y="64.00" xlink:href="#hd"/>
<path d="M272.80 64.00v23.00" class="stroke"/>
<use x="303.10" y="67.00" xlink:href="#hd"/>
<path d="M299.60 67.00v20.00" class="stroke"/>
<use x="333.00" y="70.00" xlink:href="#hd"/>
<path d="M329.50 70.00v21.00" class="stroke"/>
<use x="370.90" y="82.00" xlink:href="#hd"/>
<path d="M374.40 82.00v-21.00" class="stroke"/>
<path class="fill"
	d="M374.40 61.00c0.6 5.6 9.6 9 5.6 18.4
	1.6 -6 -1.3 -11.6 -5.6 -12.8
"/>
<use x="406.70" y="73.00" xlink:href="#hd"/>
<path d="M410.20 73.00v-21.00" class="stroke"/>
<use x="448.80" y="70.00" xlink:href="#hd"/>
<path d="M445.30 70.00v21.00" class="stroke"/>
<path class="fill"
	d="M445.30 91.00c0.6 -5.6 9.6 -9 5.6 -18.4
	1.6 6 -1.3 11.6 -5.6 12.8
"/>
<use x="478.70" y="67.00" xlink:href="#hd"/>
<path d="M475.20 67.00v21.00" class="stroke"/>
<use x="520.80" y="64.00" xlink:href="#hd"/>
<path d="M517.30 64.00v21.00" class="stroke"/>
<path class="fill"
	d="M517.30 85.00c0.6 -5.6 9.6 -9 5.6 -18.4
	1.6 6 -1.3 11.6 -5.6 12.8
"/>
<use x="556.60" y="61.00" xlink:href="#hd"/>
<path d="M553.10 61.00v21.00" class="stroke"/>
<use x="598.80" y="64.00" xlink:href="#hd"/>
<path d="M595.30 64.00v21.00" class="stroke"/>
<path class="fill"
	d="M595.30 85.00c0.6 -5.6 9.6 -9 5.6 -18.4
	1.6 6 -1.3 11.6 -5.6 12.8
"/>
<use x="628.60" y="67.00" xlink:href="#hd"/>
<path d="M625.10 67.00v21.00" class="stroke"/>
<use x="670.70" y="70.00" xlink:href="#hd"/>
<path d="M667.20 70.00v21.00" class="stroke"/>
<path class="fill"
	d="M667.20 91.00c0.6 -5.6 9.6 -9 5.6 -18.4
	1.6 6 -1.3 11.6 -5.6 12.8
"/>
</g>
<g stroke-width="0.70" style="font:20.00px Times">
<path class="stroke" stroke-width="1"
	d="M249.60 155.00v-24.00"/>
<path class="stroke" stroke-width="1"
	d="M437.60 155.00v-24.00"/>
<path class="stroke" stroke-width="1"
	d="M616.90 155.00v-24.00"/>
<path class="stroke" stroke-width="1"
	d="M691.60 155.00v-24.00"/>
<path d="m10.00 155.00
	h681.60
	M10.00 149.00
	h681.60
	M10.00 143.00
	h681.60
	M10.00 137.00
	h681.60
	M10.00 131.00
	h681.60
	" class="stroke"/>
<use x="22.00" y="149.00" xlink:href="#tclef"/>
<use x="37.00" y="131.00" xlink:href="#sh0"/>
<use x="42.50" y="140.00" xlink:href="#sh0"/>
<path class="fill"
	d="M56.70 152.00l64.90 0.00v-3.20l-64.90 -0.00"/>
<use x="60.50" y="131.00" xlink:href="#hd"/>
<path d="M57.00 131.00v20.00" class="stroke"/>
<use x="92.60" y="128.00" xlink:href="#hd"/>
<path d="M89.10 128.00v23.00" class="stroke"/>
<use x="124.70" y="131.00" xlink:href="#hd"/>
<path d="M121.20 131.00v20.00" class="stroke"/>
<path class="fill"
	d="M156.50 155.20l64.90 0.00v-3.20l-64.90 -0.00"/>
<use x="160.40" y="134.00" xlink:href="#hd"/>
<path d="M156.90 134.00v20.20" class="stroke"/>
<use x="192.50" y="131.00" xlink:href="#hd"/>
<path d="M189.00 131.00v23.20" class="stroke"/>
<use x="224.60" y="134.00" xlink:href="#hd"/>
<path d="M221.10 134.00v20.20" class="stroke"/>
<path class="fill"
	d="M263.60 158.00l64.90 0.00v-3.20l-64.90 -0.00"/>
<use x="267.40" y="137.00" xlink:href="#hd"/>
<path d="M263.90 137.00v20.00" class="stroke"/>
<use x="299.50" y="134.00" xlink:href="#hd"/>
<path d="M296.00 134.00v23.00" class="stroke"/>
<use x="331.60" y="137.00" xlink:href="#hd"/>
<path d="M328.10 137.00v20.00" class="stroke"/>
<use x="367.30" y="140.00" xlink:href="#hd"/>
<path d="M363.80 140.00v21.00" class="stroke"/>
<use x="412.70" y="152.00" xlink:href="#hd"/>
<path d="M416.20 152.00v-21.00" class="stroke"/>
<path class="fill"
	d="M416.20 131.00c0.6 5.6 9.6 9 5.6 18.4
	1.6 -6 -1.3 -11.6 -5.6 -12.8
"/>
<use x="455.50" y="143.00" xlink:href="#hd"/>
<path d="M459.00 143.00v-21.00" class="stroke"/>
<use x="505.90" y="140.00" xlink:href="#hd"/>
<path d="M502.40 140.00v21.00" class="stroke"/>
<path class="fill"
	d="M502.40 161.00c0.6 -5.6 9.6 -9 5.6 -18.4
	1.6 6 -1.3 11.6 -5.6 12.8
"/>
<use x="541.60" y="137.00" xlink:href="#hd"/>
<path d="M538.10 137.00v21.00" class="stroke"/>
<use x="592.00" y="134.00" xlink:href="#hd"/>
<path d="M588.50 134.00v21.00" class="stroke"/>
<path class="fill"
	d="M588.50 155.00c0.6 -5.6 9.6 -9 5.6 -18.4
	1.6 6 -1.3 11.6 -5.6 12.8
"/>
<defs>
<path id="Hd" class="fill" d="m3 -1.6
	c-1 -1.8 -7 1.4 -6 3.2
	1 1.8 7 -1.4 6 -3.2
	m0.5 -0.3
	c2 3.8 -5 7.6 -7 3.8
	-2 -3.8 5 -7.6 7 -3.8"/>
</defs>
<use x="634.80" y="131.00" xlink:href="#Hd"/>
<circle class="fill" cx="643.50" cy="128.00" r="1.2"/>
<path d="M631.30 131.00v21.00" class="stroke"/>
</g>
<g stroke-width="0.70" style="font:20.00px Times">
<path class="stroke" stroke-width="1"
	d="M221.60 225.00v-24.00"/>
<path class="stroke" stroke-width="1"
	d="M386.10 225.00v-24.00"/>
<path class="stroke" stroke-width="1"
	d="M538.80 225.00v-24.00"/>
<path class="stroke" stroke-width="1"
	d="M691.60 225.00v-24.00"/>
<path d="m10.00 225.00
	h681.60
	M10.00 219.00
	h681.60
	M10.00 213.00
	h681.60
	M10.00 207.00
	h681.60
	M10.00 201.00
	h681.60
	" class="stroke"/>
<use x="22.00" y="219.00" xlink:href="#tclef"/>
<use x="37.00" y="201.00" xlink:href="#sh0"/>
<use x="42.50" y="210.00" xlink:href="#sh0"/>
<path class="fill"
	d="M56.70 222.00l55.40 0.00v-3.20l-55.40 -0.00"/>
<use x="60.50" y="201.00" xlink:href="#hd"/>
<path d="M57.00 201.00v20.00" class="stroke"/>
<use x="87.90" y="198.00" xlink:href="#hd"/>
<path d="M84.40 198.00v23.00" class="stroke"/>
<use x="115.20" y="201.00" xlink:href="#hd"/>
<path d="M111.70 201.00v20.00" class="stroke"/>
<path class="fill"
	d="M141.80 225.20l55.40 0.00v-3.20l-55.40 -0.00"/>
<use x="145.60" y="204.00" xlink:href="#hd"/>
<path d="M142.10 204.00v20.20" class="stroke"/>
<use x="172.90" y="201.00" xlink:href="#hd"/>
<path d="M169.40 201.00v23.20" class="stroke"/>
<use x="200.30" y="204.00" xlink:href="#hd"/>
<path d="M196.80 204.00v20.20" class="stroke"/>
<path class="fill"
	d="M232.90 228.00l55.40 0.00v-3.20l-55.40 -0.00"/>
<use x="236.80" y="207.00" xlink:href="#hd"/>
<path d="M233.30 207.00v20.00" class="stroke"/>
<use x="264.10" y="204.00" xlink:href="#hd"/>
<path d="M260.60 204.00v23.00" class="stroke"/>
<use x="291.50" y="207.00" xlink:href="#hd"/>
<path d="M288.00 207.00v20.00" class="stroke"/>
<use x="321.80" y="210.00" xlink:href="#hd"/>
<path d="M318.30 210.00v21.00" class="stroke"/>
<use x="364.80" y="201.00" xlink:href="#hd"/>
<path d="M361.30 201.00v21.00" class="stroke"/>
<path class="fill"
	d="M361.30 222.00c0.6 -5.6 9.6 -9 5.6 -18.4
	1.6 6 -1.3 11.6 -5.6 12.8
"/>
<use x="401.30" y="198.00" xlink:href="#hd"/>
<path d="M397.80 198.00v21.00" class="stroke"/>
<use x="444.20" y="204.00" xlink:href="#hd"/>
<path d="M440.70 204.00v21.00" class="stroke"/>
<path class="fill"
	d="M440.70 225.00c0.6 -5.6 9.6 -9 5.6 -18.4
	1.6 6 -1.3 11.6 -5.6 12.8
"/>
<use x="474.60" y="201.00" xlink:href="#hd"/>
<path d="M471.10 201.00v21.00" class="stroke"/>
<use x="517.60" y="198.00" xlink:href="#hd"/>
<path d="M514.10 198.00v21.00" class="stroke"/>
<path class="fill"
	d="M514.10 219.00c0.6 -5.6 9.6 -9 5.6 -18.4
	1.6 6 -1.3 11.6 -5.6 12.8
"/>
<use x="554.00" y="201.00" xlink:href="#hd"/>
<path d="M550.50 201.00v21.00" class="stroke"/>
<use x="597.00" y="204.00" xlink:href="#hd"/>
<path d="M593.50 204.00v21.00" class="stroke"/>
<path class="fill"
	d="M593.50 225.00c0.6 -5.6 9.6 -9 5.6 -18.4
	1.6 6 -1.3 11.6 -5.6 12.8
"/>
<use x="627.40" y="207.00" xlink:href="#hd"/>
<path d="M623.90 207.00v21.00" class="stroke"/>
<use x="670.30" y="210.00" xlink:href="#hd"/>
<path d="M666.80 210.00v21.00" class="stroke"/>
<path class="fill"
	d="M666.80 231.00c0.6 -5.6 9.6 -9 5.6 -18.4
	1.6 6 -1.3 11.6 -5.6 12.8
"/>
</g>
<g stroke-width="0.70" style="font:20.00px Times">
<path class="stroke" stroke-width="1"
	d="M247.20 295.00v-24.00"/>
<path class="stroke" stroke-width="1"
	d="M432.80 295.00v-24.00"/>
<path class="stroke" stroke-width="1"
	d="M609.90 295.00v-24.00"/>
<path class="stroke" stroke-width="1"
	d="M691.60 295.00v-24.00"/>
<path class="stroke" stroke-width="1"
	d="M688.60 295.00v-24.00"/>
<path d="m10.00 295.00
	h681.60
	M10.00 289.00
	h681.60
	M10.00 283.00
	h681.60
	M10.00 277.00
	h681.60
	M10.00 271.00
	h681.60
	" class="stroke"/>
<use x="22.00" y="289.00" xlink:href="#tclef"/>
<use x="37.00" y="271.00" xlink:href="#sh0"/>
<use x="42.50" y="280.00" xlink:href="#sh0"/>
<path class="fill"
	d="M56.70 292.00l64.10 0.00v-3.20l-64.10 -0.00"/>
<use x="60.50" y="271.00" xlink:href="#hd"/>
<path d="M57.00 271.00v20.00" class="stroke"/>
<use x="92.20" y="268.00" xlink:href="#hd"/>
<path d="M88.70 268.00v23.00" class="stroke"/>
<use x="123.90" y="271.00" xlink:href="#hd"/>
<path d="M120.40 271.00v20.00" class="stroke"/>
<path class="fill"
	d="M155.30 295.20l64.10 0.00v-3.20l-64.10 -0.00"/>
<use x="159.10" y="274.00" xlink:href="#hd"/>
<path d="M155.60 274.00v20.20" class="stroke"/>
<use x="190.80" y="271.00" xlink:href="#hd"/>
<path d="M187.30 271.00v23.20" class="stroke"/>
<use x="222.50" y="274.00" xlink:href="#hd"/>
<path d="M219.00 274.00v20.20" class="stroke"/>
<path class="fill"
	d="M260.90 298.00l64.10 0.00v-3.20l-64.10 -0.00"/>
<use x="264.80" y="277.00" xlink:href="#hd"/>
<path d="M261.30 277.00v20.00" class="stroke"/>
<use x="296.50" y="274.00" xlink:href="#hd"/>
<path d="M293.00 274.00v23.00" class="stroke"/>
<use x="328.20" y="277.00" xlink:href="#hd"/>
<path d="M324.70 277.00v20.00" class="stroke"/>
<use x="363.40" y="280.00" xlink:href="#hd"/>
<path d="M359.90 280.00v21.00" class="stroke"/>
<use x="408.20" y="292.00" xlink:href="#hd"/>
<path d="M411.70 292.00v-21.00" class="stroke"/>
<path class="fill"
	d="M411.70 271.00c0.6 5.6 9.6 9 5.6 18.4
	1.6 -6 -1.3 -11.6 -5.6 -12.8
"/>
<use x="450.40" y="283.00" xlink:href="#hd"/>
<path d="M453.90 283.00v-21.00" class="stroke"/>
<use x="500.20" y="280.00" xlink:href="#hd"/>
<path d="M496.70 280.00v21.00" class="stroke"/>
<path class="fill"
	d="M496.70 301.00c0.6 -5.6 9.6 -9 5.6 -18.4
	1.6 6 -1.3 11.6 -5.6 12.8
"/>
<use x="535.40" y="277.00" xlink:href="#hd"/>
<path d="M531.90 277.00v21.00" class="stroke"/>
<use x="585.20" y="280.00" xlink:href="#hd"/>
<path d="M581.70 280.00v21.00" class="stroke"/>
<path class="fill"
	d="M581.70 301.00c0.6 -5.6 9.6 -9 5.6 -18.4
	1.6 6 -1.3 11.6 -5.6 12.8
"/>
<use x="627.50" y="283.00" xlink:href="#Hd"/>
<circle class="fill" cx="636.20" cy="280.00" r="1.2"/>
<path d="M624.00 283.00v21.00" class="stroke"/>
</g>
<g stroke-width="0.70" style="font:20.00px Times">
<path class="stroke" stroke-width="1"
	d="M212.10 365.00v-24.00"/>
<path class="stroke" stroke-width="1"
	d="M366.00 365.00v-24.00"/>
<path class="stroke" stroke-width="1"
	d="M533.30 365.00v-24.00"/>
<path class="stroke" stroke-width="1"
	d="M691.60 365.00v-24.00"/>
<path d="m10.00 365.00
	h681.60
	M10.00 359.00
	h681.60
	M10.00 353.00
	h681.60
	M10.00 347.00
	h681.60
	M10.00 341.00
	h681.60
	" class="stroke"/>
<use x="22.00" y="359.00" xlink:href="#tclef"/>
<use x="37.00" y="341.00" xlink:href="#sh0"/>
<use x="42.50" y="350.00" xlink:href="#sh0"/>
<path class="fill"
	d="M56.70 371.20l57.40 0.00v-3.20l-57.40 -0.00"/>
<use x="60.50" y="350.00" xlink:href="#hd"/>
<path d="M57.00 350.00v20.20" class="stroke"/>
<use x="88.80" y="347.00" xlink:href="#hd"/>
<path d="M85.30 347.00v23.20" class="stroke"/>
<use x="117.20" y="350.00" xlink:href="#hd"/>
<path d="M113.70 350.00v20.20" class="stroke"/>
<use x="145.50" y="362.00" xlink:href="#hd"/>
<path d="M149.00 362.00v-21.00" class="stroke"/>
<use x="190.00" y="350.00" xlink:href="#hd"/>
<path d="M186.50 350.00v21.00" class="stroke"/>
<path class="fill"
	d="M186.50 371.00c0.6 -5.6 9.6 -9 5.6 -18.4
	1.6 6 -1.3 11.6 -5.6 12.8
"/>
<use x="227.80" y="347.00" xlink:href="#hd"/>
<path d="M224.30 347.00v21.00" class="stroke"/>
<use x="272.40" y="350.00" xlink:href="#hd"/>
<path d="M268.90 350.00v21.00" class="stroke"/>
<path class="fill"
	d="M268.90 371.00c0.6 -5.6 9.6 -9 5.6 -18.4
	1.6 6 -1.3 11.6 -5.6 12.8
"/>
<use x="303.80" y="353.00" xlink:href="#hd"/>
<path d="M300.30 353.00v21.00" class="stroke"/>
<use x="343.90" y="356.00" xlink:href="#hd"/>
<path d="M347.40 356.00v-21.00" class="stroke"/>
<path class="fill"
	d="M347.40 335.00c0.6 5.6 9.6 9 5.6 18.4
	1.6 -6 -1.3 -11.6 -5.6 -12.8
"/>
<path class="fill"
	d="M377.90 373.00l57.40 0.00v-3.20l-57.40 -0.00"/>
<use x="381.70" y="353.00" xlink:href="#hd"/>
<path d="M378.20 353.00v19.00" class="stroke"/>
<use x="410.00" y="350.00" xlink:href="#hd"/>
<path d="M406.50 350.00v22.00" class="stroke"/>
<use x="438.40" y="353.00" xlink:href="#hd"/>
<path d="M434.90 353.00v19.00" class="stroke"/>
<use x="466.70" y="362.00" xlink:href="#hd"/>
<path d="M470.20 362.00v-21.00" class="stroke"/>
<use x="511.20" y="353.00" xlink:href="#hd"/>
<path d="M514.70 353.00v-21.00" class="stroke"/>
<path class="fill"
	d="M514.70 332.00c0.6 5.6 9.6 9 5.6 18.4
	1.6 -6 -1.3 -11.6 -5.6 -12.8
"/>
<use x="549.00" y="350.00" xlink:href="#hd"/>
<path d="M545.50 350.00v21.00" class="stroke"/>
<use x="593.50" y="353.00" xlink:href="#hd"/>
<path d="M590.00 353.00v21.00" class="stroke"/>
<path class="fill"
	d="M590.00 374.00c0.6 -5.6 9.6 -9 5.6 -18.4
	1.6 6 -1.3 11.6 -5.6 12.8
"/>
<use x="625.00" y="347.00" xlink:href="#hd"/>
<path d="M621.50 347.00v21.00" class="stroke"/>
<use x="669.60" y="353.00" xlink:href="#hd"/>
<path d="M666.10 353.00v21.00" class="stroke"/>
<path class="fill"
	d="M666.10 374.00c0.6 -5.6 9.6 -9 5.6 -18.4
	1.6 6 -1.3 11.6 -5.6 12.8
"/>
</g>
<g stroke-width="0.70" style="font:20.00px Times">
<path class="stroke" stroke-width="1"
	d="M238.70 435.00v-24.00"/>
<path class="stroke" stroke-width="1"
	d="M419.60 435.00v-24.00"/>
<path class="stroke" stroke-width="1"
	d="M605.70 435.00v-24.00"/>
<path class="stroke" stroke-width="3"
	d="M690.10 435.00v-24.00"/>
<path class="stroke" stroke-width="1"
	d="M685.60 435.00v-24.00"/>
<defs>
<g id="rdots" class="fill">
	<circle cx="0" cy="-9" r="1.2"/>
	<circle cx="0" cy="-15" r="1.2"/>
</g>
</defs>
<use x="681.60" y="435.00" xlink:href="#rdots"/>
<path d="m10.00 435.00
	h681.60
	M10.00 429.00
	h681.60
	M10.00 423.00
	h681.60
	M10.00 417.00
	h681.60
	M10.00 411.00
	h681.60
	" class="stroke"/>
<use x="22.00" y="429.00" xlink:href="#tclef"/>
<use x="37.00" y="411.00" xlink:href="#sh0"/>
<use x="42.50" y="420.00" xlink:href="#sh0"/>
<path class="fill"
	d="M56.70 441.20l67.30 0.00v-3.20l-67.30 -0.00"/>
<use x="60.50" y="420.00" xlink:href="#hd"/>
<path d="M57.00 420.00v20.20" class="stroke"/>
<use x="93.80" y="417.00" xlink:href="#hd"/>
<path d="M90.30 417.00v23.20" class="stroke"/>
<use x="127.10" y="420.00" xlink:href="#hd"/>
<path d="M123.60 420.00v20.20" class="stroke"/>
<use x="160.50" y="432.00" xlink:href="#hd"/>
<path d="M164.00 432.00v-21.00" class="stroke"/>
<use x="212.80" y="420.00" xlink:href="#hd"/>
<path d="M209.30 420.00v21.00" class="stroke"/>
<path class="fill"
	d="M209.30 441.00c0.6 -5.6 9.6 -9 5.6 -18.4
	1.6 6 -1.3 11.6 -5.6 12.8
"/>
<use x="257.20" y="417.00" xlink:href="#hd"/>
<path d="M253.70 417.00v21.00" class="stroke"/>
<use x="309.50" y="420.00" xlink:href="#hd"/>
<path d="M306.00 420.00v21.00" class="stroke"/>
<path class="fill"
	d="M306.00 441.00c0.6 -5.6 9.6 -9 5.6 -18.4
	1.6 6 -1.3 11.6 -5.6 12.8
"/>
<use x="346.60" y="423.00" xlink:href="#hd"/>
<path d="M343.10 423.00v21.00" class="stroke"/>
<use x="393.70" y="426.00" xlink:href="#hd"/>
<path d="M397.20 426.00v-21.00" class="stroke"/>
<path class="fill"
	d="M397.20 405.00c0.6 5.6 9.6 9 5.6 18.4
	1.6 -6 -1.3 -11.6 -5.6 -12.8
"/>
<use x="438.10" y="423.00" xlink:href="#hd"/>
<path d="M441.60 423.00v-21.00" class="stroke"/>
<use x="490.40" y="420.00" xlink:href="#hd"/>
<path d="M486.90 420.00v21.00" class="stroke"/>
<path class="fill"
	d="M486.90 441.00c0.6 -5.6 9.6 -9 5.6 -18.4
	1.6 6 -1.3 11.6 -5.6 12.8
"/>
<use x="527.40" y="417.00" xlink:href="#hd"/>
<path d="M523.90 417.00v21.00" class="stroke"/>
<use x="579.80" y="420.00" xlink:href="#hd"/>
<path d="M576.30 420.00v21.00" class="stroke"/>
<path class="fill"
	d="M576.30 441.00c0.6 -5.6 9.6 -9 5.6 -18.4
	1.6 6 -1.3 11.6 -5.6 12.8
"/>
<use x="624.20" y="423.00" xlink:href="#Hd"/>
<circle class="fill" cx="632.90" cy="420.00" r="1.2"/>
<path d="M620.70 423.00v21.00" class="stroke"/>
</g>
</svg>
