<?xml version="1.0" standalone="no"?>
<!DOCTYPE svg PUBLIC "-//W3C//DTD SVG 1.1//EN"
	"http://www.w3.org/Graphics/SVG/1.1/DTD/svg11.dtd">
<svg xmlns="http://www.w3.org/2000/svg" version="1.1"
	xmlns:xlink="http://www.w3.org/1999/xlink"
	color="black"
	width="701.60px" height="318.00px">
<style type="text/css">
.fill {fill: currentColor}
.stroke {stroke: currentColor; fill: none}
text{white-space: pre}
</style>
<title>/media/tim/Data1/tims_code/sphinx-tunes/source/_abcfiles/rats.abc (11) tune 11</title>
<!-- Creator: abcm2ps-8.14.6 -->
<!-- CreationDate: Jul 30, 2023 12:21 -->
<!-- CommandLine: -g /media/tim/Data1/tims_code/sphinx-tunes/source/_abcfiles/rats.abc -O /media/tim/Data1/tims_code/sphinx-tunes/source/_abcfiles/rats.svg -->
<g stroke-width="0.70">
<!-- title: King of the Moors -->
</g>
<g stroke-width="0.70" style="font:20.00px Times">
<text x="350.80" y="22.00" text-anchor="middle">King of the Moors</text>
</g>
<g stroke-width="0.70" style="font:20.00px Times">
<path class="stroke" stroke-width="1"
	d="M223.70 85.00v-24.00"/>
<path class="stroke" stroke-width="1"
	d="M383.90 85.00v-24.00"/>
<path class="stroke" stroke-width="1"
	d="M544.00 85.00v-24.00"/>
<path class="stroke" stroke-width="1"
	d="M691.60 85.00v-24.00"/>
<path d="m10.00 85.00
	h681.60
	M10.00 79.00
	h681.60
	M10.00 73.00
	h681.60
	M10.00 67.00
	h681.60
	M10.00 61.00
	h681.60
	" class="stroke"/>
<defs>
<path id="utclef" class="fill" d="m-50 -90
	c-72 -41 -72 -158 52 -188
	150 -10 220 188 90 256
	-114 52 -275 0 -293 -136
	-15 -181 93 -229 220 -334
	88 -87 79 -133 62 -210
	-51 33 -94 105 -89 186
	17 267 36 374 49 574
	6 96 -19 134 -77 135
	-80 1 -126 -93 -61 -133
	85 -41 133 101 31 105
	23 17 92 37 90 -92
	-10 -223 -39 -342 -50 -617
	0 -90 0 -162 96 -232
	56 72 63 230 22 289
	-74 106 -257 168 -255 316
	9 153 148 185 252 133
	86 -65 29 -192 -80 -176
	-71 12 -105 67 -59 124"/>
<use id="tclef" transform="translate(0,6) scale(0.045)"
	xlink:href="#utclef"/>
</defs>
<use x="22.00" y="79.00" xlink:href="#tclef"/>
<defs>
<path id="uflat" class="fill" d="
	m100 -746
	h32
	v734
	l-32 4
	m32 -332
	c46 -72 152 -90 208 -20
	100 110 -120 326 -208 348
	m0 -28
	c54 0 200 -206 130 -290
	-50 -60 -130 -4 -130 34"/>
<use id="ft0" transform="translate(-3.5,3.5) scale(0.018)"
	xlink:href="#uflat"/>
</defs>
<use x="37.00" y="73.00" xlink:href="#ft0"/>
<use x="42.50" y="64.00" xlink:href="#ft0"/>
<g style="font:bold 16px serif"
	transform="translate(58.50,84.50) scale(1.2,1)">
	<text text-anchor="middle">4</text>
	<text y="-12" text-anchor="middle">4</text>
</g>
<defs>
<ellipse id="hd" rx="4.1" ry="2.9"
	transform="rotate(-20)" class="fill"/>
</defs>
<use x="76.50" y="88.00" xlink:href="#hd"/>
<path d="M80.00 88.00v-21.00" class="stroke"/>
<defs>
<path id="hl" class="stroke" d="m-6 0h12"/>
</defs>
<use x="112.80" y="91.00" xlink:href="#hl"/>
<use x="112.80" y="97.00" xlink:href="#hl"/>
<use x="112.80" y="100.00" xlink:href="#hd"/>
<path d="M116.30 100.00v-27.00" class="stroke"/>
<path class="fill"
	d="M152.40 72.70l23.90 -2.50v3.20l-23.90 2.50"/>
<use x="149.20" y="91.00" xlink:href="#hl"/>
<use x="149.20" y="94.00" xlink:href="#hd"/>
<path d="M152.70 94.00v-20.30" class="stroke"/>
<use x="172.40" y="91.00" xlink:href="#hl"/>
<use x="172.40" y="91.00" xlink:href="#hd"/>
<path d="M175.90 91.00v-19.70" class="stroke"/>
<use x="198.10" y="88.00" xlink:href="#hd"/>
<path d="M201.60 88.00v-21.00" class="stroke"/>
<use x="236.70" y="91.00" xlink:href="#hl"/>
<use x="236.70" y="91.00" xlink:href="#hd"/>
<path d="M240.20 91.00v-21.00" class="stroke"/>
<use x="273.00" y="91.00" xlink:href="#hl"/>
<use x="273.00" y="94.00" xlink:href="#hd"/>
<path d="M276.50 94.00v-21.00" class="stroke"/>
<path class="fill"
	d="M312.50 72.80l23.90 0.00v3.20l-23.90 -0.00"/>
<use x="309.40" y="91.00" xlink:href="#hl"/>
<use x="309.40" y="97.00" xlink:href="#hl"/>
<use x="309.40" y="97.00" xlink:href="#hd"/>
<path d="M312.90 97.00v-23.20" class="stroke"/>
<use x="332.60" y="91.00" xlink:href="#hl"/>
<use x="332.60" y="94.00" xlink:href="#hd"/>
<path d="M336.10 94.00v-20.20" class="stroke"/>
<use x="358.40" y="91.00" xlink:href="#hl"/>
<use x="358.40" y="91.00" xlink:href="#hd"/>
<path d="M361.90 91.00v-21.00" class="stroke"/>
<use x="396.90" y="88.00" xlink:href="#hd"/>
<path d="M400.40 88.00v-21.00" class="stroke"/>
<use x="433.20" y="91.00" xlink:href="#hl"/>
<use x="433.20" y="97.00" xlink:href="#hl"/>
<use x="433.20" y="100.00" xlink:href="#hd"/>
<path d="M436.70 100.00v-27.00" class="stroke"/>
<path class="fill"
	d="M472.70 72.70l23.90 -2.50v3.20l-23.90 2.50"/>
<use x="469.60" y="91.00" xlink:href="#hl"/>
<use x="469.60" y="94.00" xlink:href="#hd"/>
<path d="M473.10 94.00v-20.30" class="stroke"/>
<use x="492.80" y="91.00" xlink:href="#hl"/>
<use x="492.80" y="91.00" xlink:href="#hd"/>
<path d="M496.30 91.00v-19.70" class="stroke"/>
<use x="518.50" y="88.00" xlink:href="#hd"/>
<path d="M522.00 88.00v-21.00" class="stroke"/>
<use x="557.00" y="91.00" xlink:href="#hl"/>
<use x="557.00" y="91.00" xlink:href="#hd"/>
<path d="M560.50 91.00v-21.00" class="stroke"/>
<use x="593.40" y="91.00" xlink:href="#hl"/>
<use x="593.40" y="94.00" xlink:href="#hd"/>
<path d="M596.90 94.00v-21.00" class="stroke"/>
<use x="629.70" y="91.00" xlink:href="#hl"/>
<use x="629.70" y="97.00" xlink:href="#hl"/>
<use x="629.70" y="97.00" xlink:href="#hd"/>
<path d="M633.20 97.00v-24.00" class="stroke"/>
<use x="666.10" y="88.00" xlink:href="#hd"/>
<path d="M669.60 88.00v-21.00" class="stroke"/>
</g>
<g stroke-width="0.70" style="font:20.00px Times">
<path class="stroke" stroke-width="1"
	d="M212.60 155.00v-24.00"/>
<path class="stroke" stroke-width="1"
	d="M378.10 155.00v-24.00"/>
<path class="stroke" stroke-width="1"
	d="M539.80 155.00v-24.00"/>
<path class="stroke" stroke-width="1"
	d="M691.60 155.00v-24.00"/>
<path class="stroke" stroke-width="1"
	d="M688.60 155.00v-24.00"/>
<path d="m10.00 155.00
	h681.60
	M10.00 149.00
	h681.60
	M10.00 143.00
	h681.60
	M10.00 137.00
	h681.60
	M10.00 131.00
	h681.60
	" class="stroke"/>
<use x="22.00" y="149.00" xlink:href="#tclef"/>
<use x="37.00" y="143.00" xlink:href="#ft0"/>
<use x="42.50" y="134.00" xlink:href="#ft0"/>
<use x="60.50" y="158.00" xlink:href="#hd"/>
<path d="M64.00 158.00v-21.00" class="stroke"/>
<use x="98.10" y="161.00" xlink:href="#hl"/>
<use x="98.10" y="167.00" xlink:href="#hl"/>
<use x="98.10" y="170.00" xlink:href="#hd"/>
<path d="M101.60 170.00v-27.00" class="stroke"/>
<path class="fill"
	d="M138.80 142.70l24.60 -2.50v3.20l-24.60 2.50"/>
<use x="135.70" y="161.00" xlink:href="#hl"/>
<use x="135.70" y="164.00" xlink:href="#hd"/>
<path d="M139.20 164.00v-20.30" class="stroke"/>
<use x="159.70" y="161.00" xlink:href="#hl"/>
<use x="159.70" y="161.00" xlink:href="#hd"/>
<path d="M163.20 161.00v-19.70" class="stroke"/>
<use x="186.30" y="158.00" xlink:href="#hd"/>
<path d="M189.80 158.00v-21.00" class="stroke"/>
<use x="226.00" y="161.00" xlink:href="#hl"/>
<use x="226.00" y="161.00" xlink:href="#hd"/>
<path d="M229.50 161.00v-21.00" class="stroke"/>
<use x="263.60" y="158.00" xlink:href="#hd"/>
<path d="M267.10 158.00v-21.00" class="stroke"/>
<path class="fill"
	d="M304.30 134.30l24.60 2.50v3.20l-24.60 -2.50"/>
<use x="301.20" y="155.00" xlink:href="#hd"/>
<path d="M304.70 155.00v-19.70" class="stroke"/>
<use x="325.10" y="158.00" xlink:href="#hd"/>
<path d="M328.60 158.00v-20.30" class="stroke"/>
<use x="351.70" y="161.00" xlink:href="#hl"/>
<use x="351.70" y="161.00" xlink:href="#hd"/>
<path d="M355.20 161.00v-21.00" class="stroke"/>
<use x="391.50" y="137.00" xlink:href="#hd"/>
<path d="M388.00 137.00v21.00" class="stroke"/>
<use x="425.30" y="149.00" xlink:href="#hd"/>
<path d="M428.80 149.00v-21.00" class="stroke"/>
<path class="fill"
	d="M459.10 163.70l24.60 -2.50v-3.20l-24.60 2.50"/>
<use x="462.90" y="143.00" xlink:href="#hd"/>
<path d="M459.40 143.00v19.70" class="stroke"/>
<use x="486.90" y="140.00" xlink:href="#hd"/>
<path d="M483.40 140.00v20.30" class="stroke"/>
<use x="513.50" y="137.00" xlink:href="#hd"/>
<path d="M510.00 137.00v21.00" class="stroke"/>
<path class="fill"
	d="M549.40 165.20l72.60 0.00v-3.20l-72.60 -0.00"/>
<use x="553.20" y="140.00" xlink:href="#hd"/>
<path d="M549.70 140.00v24.20" class="stroke"/>
<use x="577.20" y="143.00" xlink:href="#hd"/>
<path d="M573.70 143.00v21.20" class="stroke"/>
<use x="601.10" y="146.00" xlink:href="#hd"/>
<path d="M597.60 146.00v18.20" class="stroke"/>
<use x="625.10" y="143.00" xlink:href="#hd"/>
<path d="M621.60 143.00v21.20" class="stroke"/>
<defs>
<path id="Hd" class="fill" d="m3 -1.6
	c-1 -1.8 -7 1.4 -6 3.2
	1 1.8 7 -1.4 6 -3.2
	m0.5 -0.3
	c2 3.8 -5 7.6 -7 3.8
	-2 -3.8 5 -7.6 7 -3.8"/>
</defs>
<use x="649.00" y="149.00" xlink:href="#Hd"/>
<path d="M652.50 149.00v-21.00" class="stroke"/>
</g>
<g stroke-width="0.70" style="font:20.00px Times">
<path class="stroke" stroke-width="1"
	d="M220.20 225.00v-24.00"/>
<path class="stroke" stroke-width="1"
	d="M379.60 225.00v-24.00"/>
<path class="stroke" stroke-width="1"
	d="M552.30 225.00v-24.00"/>
<path class="stroke" stroke-width="1"
	d="M691.60 225.00v-24.00"/>
<path d="m10.00 225.00
	h681.60
	M10.00 219.00
	h681.60
	M10.00 213.00
	h681.60
	M10.00 207.00
	h681.60
	M10.00 201.00
	h681.60
	" class="stroke"/>
<use x="22.00" y="219.00" xlink:href="#tclef"/>
<use x="37.00" y="213.00" xlink:href="#ft0"/>
<use x="42.50" y="204.00" xlink:href="#ft0"/>
<use x="60.50" y="207.00" xlink:href="#hd"/>
<path d="M57.00 207.00v21.00" class="stroke"/>
<use x="96.70" y="198.00" xlink:href="#hd"/>
<path d="M93.20 198.00v21.00" class="stroke"/>
<path class="fill"
	d="M129.00 219.20l69.90 0.00v-3.20l-69.90 -0.00"/>
<use x="132.90" y="198.00" xlink:href="#hd"/>
<path d="M129.40 198.00v20.20" class="stroke"/>
<use x="156.00" y="201.00" xlink:href="#hd"/>
<path d="M152.50 201.00v17.20" class="stroke"/>
<use x="179.00" y="198.00" xlink:href="#hd"/>
<path d="M175.50 198.00v20.20" class="stroke"/>
<use x="202.10" y="195.00" xlink:href="#hl"/>
<use x="202.10" y="195.00" xlink:href="#hd"/>
<path d="M198.60 195.00v23.20" class="stroke"/>
<use x="233.10" y="195.00" xlink:href="#hl"/>
<use x="233.10" y="192.00" xlink:href="#hd"/>
<path d="M229.60 192.00v21.00" class="stroke"/>
<path class="fill"
	d="M265.50 219.20l23.80 0.00v-3.20l-23.80 -0.00"/>
<use x="269.30" y="198.00" xlink:href="#hd"/>
<path d="M265.80 198.00v20.20" class="stroke"/>
<use x="292.40" y="198.00" xlink:href="#hd"/>
<path d="M288.90 198.00v20.20" class="stroke"/>
<use x="318.00" y="195.00" xlink:href="#hl"/>
<use x="318.00" y="192.00" xlink:href="#hd"/>
<path d="M314.50 192.00v21.00" class="stroke"/>
<use x="354.20" y="198.00" xlink:href="#hd"/>
<path d="M350.70 198.00v21.00" class="stroke"/>
<use x="392.60" y="210.00" xlink:href="#hd"/>
<path d="M389.10 210.00v21.00" class="stroke"/>
<use x="428.80" y="201.00" xlink:href="#hd"/>
<path d="M425.30 201.00v21.00" class="stroke"/>
<path class="fill"
	d="M461.10 222.00l69.90 0.00v-3.20l-69.90 -0.00"/>
<use x="464.90" y="201.00" xlink:href="#hd"/>
<path d="M461.40 201.00v20.00" class="stroke"/>
<use x="488.00" y="204.00" xlink:href="#hd"/>
<path d="M484.50 204.00v17.00" class="stroke"/>
<use x="511.10" y="201.00" xlink:href="#hd"/>
<path d="M507.60 201.00v20.00" class="stroke"/>
<use x="534.20" y="198.00" xlink:href="#hd"/>
<path d="M530.70 198.00v23.00" class="stroke"/>
<use x="570.80" y="195.00" xlink:href="#hl"/>
<use x="570.80" y="195.00" xlink:href="#hd"/>
<use x="561.80" y="195.00" xlink:href="#ft0"/>
<path d="M567.30 195.00v21.00" class="stroke"/>
<path class="fill"
	d="M603.10 216.30l23.80 2.50v-3.20l-23.80 -2.50"/>
<use x="607.00" y="195.00" xlink:href="#hl"/>
<use x="607.00" y="195.00" xlink:href="#hd"/>
<path d="M603.50 195.00v20.30" class="stroke"/>
<use x="630.10" y="198.00" xlink:href="#hd"/>
<path d="M626.60 198.00v19.70" class="stroke"/>
<use x="655.70" y="201.00" xlink:href="#Hd"/>
<path d="M652.20 201.00v21.00" class="stroke"/>
</g>
<g stroke-width="0.70" style="font:20.00px Times">
<path class="stroke" stroke-width="1"
	d="M227.20 295.00v-24.00"/>
<path class="stroke" stroke-width="1"
	d="M393.70 295.00v-24.00"/>
<path class="stroke" stroke-width="1"
	d="M559.70 295.00v-24.00"/>
<path class="stroke" stroke-width="3"
	d="M690.10 295.00v-24.00"/>
<path class="stroke" stroke-width="1"
	d="M685.60 295.00v-24.00"/>
<path d="m10.00 295.00
	h681.60
	M10.00 289.00
	h681.60
	M10.00 283.00
	h681.60
	M10.00 277.00
	h681.60
	M10.00 271.00
	h681.60
	" class="stroke"/>
<use x="22.00" y="289.00" xlink:href="#tclef"/>
<use x="37.00" y="283.00" xlink:href="#ft0"/>
<use x="42.50" y="274.00" xlink:href="#ft0"/>
<use x="60.50" y="277.00" xlink:href="#hd"/>
<path d="M57.00 277.00v21.00" class="stroke"/>
<use x="98.30" y="268.00" xlink:href="#hd"/>
<path d="M94.80 268.00v21.00" class="stroke"/>
<path class="fill"
	d="M132.30 289.20l73.00 0.00v-3.20l-73.00 -0.00"/>
<use x="136.10" y="268.00" xlink:href="#hd"/>
<path d="M132.60 268.00v20.20" class="stroke"/>
<use x="160.20" y="271.00" xlink:href="#hd"/>
<path d="M156.70 271.00v17.20" class="stroke"/>
<use x="184.30" y="268.00" xlink:href="#hd"/>
<path d="M180.80 268.00v20.20" class="stroke"/>
<use x="208.40" y="265.00" xlink:href="#hl"/>
<use x="208.40" y="265.00" xlink:href="#hd"/>
<path d="M204.90 265.00v23.20" class="stroke"/>
<use x="240.70" y="265.00" xlink:href="#hl"/>
<use x="240.70" y="262.00" xlink:href="#hd"/>
<path d="M237.20 262.00v21.00" class="stroke"/>
<path class="fill"
	d="M274.60 289.20l24.80 0.00v-3.20l-24.80 -0.00"/>
<use x="278.50" y="268.00" xlink:href="#hd"/>
<path d="M275.00 268.00v20.20" class="stroke"/>
<use x="302.60" y="268.00" xlink:href="#hd"/>
<path d="M299.10 268.00v20.20" class="stroke"/>
<use x="329.30" y="277.00" xlink:href="#hd"/>
<path d="M325.80 277.00v21.00" class="stroke"/>
<use x="367.20" y="268.00" xlink:href="#hd"/>
<path d="M363.70 268.00v21.00" class="stroke"/>
<use x="407.10" y="271.00" xlink:href="#hd"/>
<path d="M403.60 271.00v21.00" class="stroke"/>
<use x="444.90" y="277.00" xlink:href="#hd"/>
<path d="M441.40 277.00v21.00" class="stroke"/>
<use x="482.80" y="280.00" xlink:href="#hd"/>
<path d="M479.30 280.00v21.00" class="stroke"/>
<path class="fill"
	d="M520.00 268.00l24.80 0.00v3.20l-24.80 -0.00"/>
<use x="516.80" y="289.00" xlink:href="#hd"/>
<path d="M520.30 289.00v-20.00" class="stroke"/>
<use x="540.90" y="289.00" xlink:href="#hd"/>
<path d="M544.40 289.00v-20.00" class="stroke"/>
<use x="573.10" y="292.00" xlink:href="#hd"/>
<path d="M576.60 292.00v-21.00" class="stroke"/>
<use x="610.90" y="286.00" xlink:href="#hd"/>
<path d="M614.40 286.00v-21.00" class="stroke"/>
<use x="648.80" y="289.00" xlink:href="#Hd"/>
<path d="M652.30 289.00v-21.00" class="stroke"/>
</g>
</svg>
