<?xml version="1.0" standalone="no"?>
<!DOCTYPE svg PUBLIC "-//W3C//DTD SVG 1.1//EN"
	"http://www.w3.org/Graphics/SVG/1.1/DTD/svg11.dtd">
<svg xmlns="http://www.w3.org/2000/svg" version="1.1"
	xmlns:xlink="http://www.w3.org/1999/xlink"
	color="black"
	width="701.60px" height="318.00px">
<style type="text/css">
.fill {fill: currentColor}
.stroke {stroke: currentColor; fill: none}
text{white-space: pre}
</style>
<title>/media/tim/Data1/tims_code/sphinx-tunes/source/_abcfiles/rats.abc (1) tune 1</title>
<!-- Creator: abcm2ps-8.14.6 -->
<!-- CreationDate: Jul 30, 2023 12:21 -->
<!-- CommandLine: -g /media/tim/Data1/tims_code/sphinx-tunes/source/_abcfiles/rats.abc -O /media/tim/Data1/tims_code/sphinx-tunes/source/_abcfiles/rats.svg -->
<g stroke-width="0.70">
<!-- title: The Beginning -->
</g>
<g stroke-width="0.70" style="font:20.00px Times">
<text x="350.80" y="22.00" text-anchor="middle">The Beginning</text>
</g>
<g stroke-width="0.70" style="font:20.00px Times">
<path class="stroke" stroke-width="1"
	d="M205.20 85.00v-24.00"/>
<path class="stroke" stroke-width="1"
	d="M400.60 85.00v-24.00"/>
<path class="stroke" stroke-width="1"
	d="M547.70 85.00v-24.00"/>
<path class="stroke" stroke-width="1"
	d="M691.60 85.00v-24.00"/>
<path d="m10.00 85.00
	h681.60
	M10.00 79.00
	h681.60
	M10.00 73.00
	h681.60
	M10.00 67.00
	h681.60
	M10.00 61.00
	h681.60
	" class="stroke"/>
<defs>
<path id="utclef" class="fill" d="m-50 -90
	c-72 -41 -72 -158 52 -188
	150 -10 220 188 90 256
	-114 52 -275 0 -293 -136
	-15 -181 93 -229 220 -334
	88 -87 79 -133 62 -210
	-51 33 -94 105 -89 186
	17 267 36 374 49 574
	6 96 -19 134 -77 135
	-80 1 -126 -93 -61 -133
	85 -41 133 101 31 105
	23 17 92 37 90 -92
	-10 -223 -39 -342 -50 -617
	0 -90 0 -162 96 -232
	56 72 63 230 22 289
	-74 106 -257 168 -255 316
	9 153 148 185 252 133
	86 -65 29 -192 -80 -176
	-71 12 -105 67 -59 124"/>
<use id="tclef" transform="translate(0,6) scale(0.045)"
	xlink:href="#utclef"/>
</defs>
<use x="22.00" y="79.00" xlink:href="#tclef"/>
<defs>
<path id="uflat" class="fill" d="
	m100 -746
	h32
	v734
	l-32 4
	m32 -332
	c46 -72 152 -90 208 -20
	100 110 -120 326 -208 348
	m0 -28
	c54 0 200 -206 130 -290
	-50 -60 -130 -4 -130 34"/>
<use id="ft0" transform="translate(-3.5,3.5) scale(0.018)"
	xlink:href="#uflat"/>
</defs>
<use x="37.00" y="73.00" xlink:href="#ft0"/>
<g style="font:bold 16px serif"
	transform="translate(53.00,84.50) scale(1.2,1)">
	<text text-anchor="middle">4</text>
	<text y="-12" text-anchor="middle">4</text>
</g>
<defs>
<ellipse id="hd" rx="4.1" ry="2.9"
	transform="rotate(-20)" class="fill"/>
</defs>
<use x="71.00" y="82.00" xlink:href="#hd"/>
<path d="M74.50 82.00v-21.00" class="stroke"/>
<use x="107.20" y="76.00" xlink:href="#hd"/>
<path d="M110.70 76.00v-21.00" class="stroke"/>
<use x="143.50" y="85.00" xlink:href="#hd"/>
<path d="M147.00 85.00v-21.00" class="stroke"/>
<use x="179.70" y="76.00" xlink:href="#hd"/>
<path d="M183.20 76.00v-21.00" class="stroke"/>
<path class="fill"
	d="M221.30 60.80l70.00 0.00v3.20l-70.00 -0.00"/>
<use x="218.10" y="82.00" xlink:href="#hd"/>
<path d="M221.60 82.00v-20.20" class="stroke"/>
<use x="241.20" y="85.00" xlink:href="#hd"/>
<path d="M244.70 85.00v-23.20" class="stroke"/>
<use x="264.30" y="82.00" xlink:href="#hd"/>
<path d="M267.80 82.00v-20.20" class="stroke"/>
<use x="287.50" y="79.00" xlink:href="#hd"/>
<path d="M291.00 79.00v-17.20" class="stroke"/>
<path class="fill"
	d="M316.30 58.00l70.00 0.00v3.20l-70.00 -0.00"/>
<use x="313.10" y="76.00" xlink:href="#hd"/>
<path d="M316.60 76.00v-17.00" class="stroke"/>
<use x="336.30" y="79.00" xlink:href="#hd"/>
<path d="M339.80 79.00v-20.00" class="stroke"/>
<use x="359.40" y="82.00" xlink:href="#hd"/>
<path d="M362.90 82.00v-23.00" class="stroke"/>
<use x="382.50" y="76.00" xlink:href="#hd"/>
<path d="M386.00 76.00v-17.00" class="stroke"/>
<use x="413.50" y="82.00" xlink:href="#hd"/>
<path d="M417.00 82.00v-21.00" class="stroke"/>
<use x="449.70" y="76.00" xlink:href="#hd"/>
<path d="M453.20 76.00v-21.00" class="stroke"/>
<use x="486.00" y="85.00" xlink:href="#hd"/>
<path d="M489.50 85.00v-21.00" class="stroke"/>
<use x="522.20" y="76.00" xlink:href="#hd"/>
<path d="M525.70 76.00v-21.00" class="stroke"/>
<path class="fill"
	d="M563.80 64.00l70.00 0.00v3.20l-70.00 -0.00"/>
<use x="560.60" y="82.00" xlink:href="#hd"/>
<path d="M564.10 82.00v-17.00" class="stroke"/>
<use x="583.70" y="85.00" xlink:href="#hd"/>
<path d="M587.20 85.00v-20.00" class="stroke"/>
<use x="606.90" y="88.00" xlink:href="#hd"/>
<path d="M610.40 88.00v-23.00" class="stroke"/>
<use x="630.00" y="85.00" xlink:href="#hd"/>
<path d="M633.50 85.00v-20.00" class="stroke"/>
<defs>
<path id="Hd" class="fill" d="m3 -1.6
	c-1 -1.8 -7 1.4 -6 3.2
	1 1.8 7 -1.4 6 -3.2
	m0.5 -0.3
	c2 3.8 -5 7.6 -7 3.8
	-2 -3.8 5 -7.6 7 -3.8"/>
</defs>
<use x="655.70" y="88.00" xlink:href="#Hd"/>
<path d="M659.20 88.00v-21.00" class="stroke"/>
</g>
<g stroke-width="0.70" style="font:20.00px Times">
<path class="stroke" stroke-width="1"
	d="M191.60 155.00v-24.00"/>
<path class="stroke" stroke-width="1"
	d="M390.30 155.00v-24.00"/>
<path class="stroke" stroke-width="1"
	d="M540.00 155.00v-24.00"/>
<path class="stroke" stroke-width="1"
	d="M691.60 155.00v-24.00"/>
<path class="stroke" stroke-width="1"
	d="M688.60 155.00v-24.00"/>
<path d="m10.00 155.00
	h681.60
	M10.00 149.00
	h681.60
	M10.00 143.00
	h681.60
	M10.00 137.00
	h681.60
	M10.00 131.00
	h681.60
	" class="stroke"/>
<use x="22.00" y="149.00" xlink:href="#tclef"/>
<use x="37.00" y="143.00" xlink:href="#ft0"/>
<use x="55.00" y="152.00" xlink:href="#hd"/>
<path d="M58.50 152.00v-21.00" class="stroke"/>
<defs>
<path id="hl" class="stroke" d="m-6 0h12"/>
</defs>
<use x="91.90" y="161.00" xlink:href="#hl"/>
<use x="91.90" y="167.00" xlink:href="#hl"/>
<use x="91.90" y="167.00" xlink:href="#hd"/>
<path d="M95.40 167.00v-24.00" class="stroke"/>
<use x="128.80" y="155.00" xlink:href="#hd"/>
<path d="M132.30 155.00v-21.00" class="stroke"/>
<use x="165.70" y="161.00" xlink:href="#hl"/>
<use x="165.70" y="167.00" xlink:href="#hl"/>
<use x="165.70" y="167.00" xlink:href="#hd"/>
<path d="M169.20 167.00v-24.00" class="stroke"/>
<path class="fill"
	d="M207.90 130.80l71.20 0.00v3.20l-71.20 -0.00"/>
<use x="204.70" y="152.00" xlink:href="#hd"/>
<path d="M208.20 152.00v-20.20" class="stroke"/>
<use x="228.20" y="155.00" xlink:href="#hd"/>
<path d="M231.70 155.00v-23.20" class="stroke"/>
<use x="251.70" y="152.00" xlink:href="#hd"/>
<path d="M255.20 152.00v-20.20" class="stroke"/>
<use x="275.30" y="149.00" xlink:href="#hd"/>
<path d="M278.80 149.00v-17.20" class="stroke"/>
<path class="fill"
	d="M304.50 125.90l71.20 7.20v3.20l-71.20 -7.20"/>
<use x="301.40" y="146.00" xlink:href="#hd"/>
<path d="M304.90 146.00v-19.10" class="stroke"/>
<use x="324.90" y="149.00" xlink:href="#hd"/>
<path d="M328.40 149.00v-19.70" class="stroke"/>
<use x="348.40" y="152.00" xlink:href="#hd"/>
<path d="M351.90 152.00v-20.30" class="stroke"/>
<use x="372.00" y="155.00" xlink:href="#hd"/>
<path d="M375.50 155.00v-20.90" class="stroke"/>
<use x="403.40" y="152.00" xlink:href="#hd"/>
<path d="M406.90 152.00v-21.00" class="stroke"/>
<use x="440.30" y="161.00" xlink:href="#hl"/>
<use x="440.30" y="167.00" xlink:href="#hl"/>
<use x="440.30" y="167.00" xlink:href="#hd"/>
<path d="M443.80 167.00v-24.00" class="stroke"/>
<use x="477.20" y="155.00" xlink:href="#hd"/>
<path d="M480.70 155.00v-21.00" class="stroke"/>
<use x="514.10" y="161.00" xlink:href="#hl"/>
<use x="514.10" y="167.00" xlink:href="#hl"/>
<use x="514.10" y="167.00" xlink:href="#hd"/>
<path d="M517.60 167.00v-24.00" class="stroke"/>
<path class="fill"
	d="M556.30 134.00l71.20 0.00v3.20l-71.20 -0.00"/>
<use x="553.10" y="158.00" xlink:href="#hd"/>
<path d="M556.60 158.00v-23.00" class="stroke"/>
<use x="576.60" y="155.00" xlink:href="#hd"/>
<path d="M580.10 155.00v-20.00" class="stroke"/>
<use x="600.20" y="152.00" xlink:href="#hd"/>
<path d="M603.70 152.00v-17.00" class="stroke"/>
<use x="623.70" y="155.00" xlink:href="#hd"/>
<path d="M627.20 155.00v-20.00" class="stroke"/>
<use x="649.80" y="158.00" xlink:href="#Hd"/>
<path d="M653.30 158.00v-21.00" class="stroke"/>
</g>
<g stroke-width="0.70" style="font:20.00px Times">
<path class="stroke" stroke-width="1"
	d="M223.50 225.00v-24.00"/>
<path class="stroke" stroke-width="1"
	d="M377.30 225.00v-24.00"/>
<path class="stroke" stroke-width="1"
	d="M558.20 225.00v-24.00"/>
<path class="stroke" stroke-width="1"
	d="M691.60 225.00v-24.00"/>
<path d="m10.00 225.00
	h681.60
	M10.00 219.00
	h681.60
	M10.00 213.00
	h681.60
	M10.00 207.00
	h681.60
	M10.00 201.00
	h681.60
	" class="stroke"/>
<use x="22.00" y="219.00" xlink:href="#tclef"/>
<use x="37.00" y="213.00" xlink:href="#ft0"/>
<path class="fill"
	d="M51.20 227.00l64.70 -7.10v-3.20l-64.70 7.10"/>
<use x="55.00" y="207.00" xlink:href="#hd"/>
<path d="M51.50 207.00v19.00" class="stroke"/>
<use x="76.30" y="204.00" xlink:href="#hd"/>
<path d="M72.80 204.00v19.70" class="stroke"/>
<use x="97.70" y="201.00" xlink:href="#hd"/>
<path d="M94.20 201.00v20.30" class="stroke"/>
<use x="119.00" y="198.00" xlink:href="#hd"/>
<path d="M115.50 198.00v21.00" class="stroke"/>
<path class="fill"
	d="M138.90 226.20l64.70 9.00v-3.20l-64.70 -9.00"/>
<use x="142.70" y="195.00" xlink:href="#hl"/>
<use x="142.70" y="195.00" xlink:href="#hd"/>
<path d="M139.20 195.00v30.30" class="stroke"/>
<use x="164.00" y="201.00" xlink:href="#hd"/>
<path d="M160.50 201.00v27.20" class="stroke"/>
<use x="185.40" y="207.00" xlink:href="#hd"/>
<path d="M181.90 207.00v24.20" class="stroke"/>
<use x="206.70" y="216.00" xlink:href="#hd"/>
<path d="M203.20 216.00v18.20" class="stroke"/>
<path class="fill"
	d="M232.10 227.00l64.70 -7.10v-3.20l-64.70 7.10"/>
<use x="236.00" y="207.00" xlink:href="#hd"/>
<path d="M232.50 207.00v19.00" class="stroke"/>
<use x="257.30" y="204.00" xlink:href="#hd"/>
<path d="M253.80 204.00v19.70" class="stroke"/>
<use x="278.60" y="201.00" xlink:href="#hd"/>
<path d="M275.10 201.00v20.30" class="stroke"/>
<use x="300.00" y="198.00" xlink:href="#hd"/>
<path d="M296.50 198.00v21.00" class="stroke"/>
<use x="323.70" y="204.00" xlink:href="#hd"/>
<path d="M320.20 204.00v21.00" class="stroke"/>
<use x="353.70" y="216.00" xlink:href="#hd"/>
<path d="M357.20 216.00v-21.00" class="stroke"/>
<path class="fill"
	d="M385.90 227.00l64.70 -7.10v-3.20l-64.70 7.10"/>
<use x="389.80" y="207.00" xlink:href="#hd"/>
<path d="M386.30 207.00v19.00" class="stroke"/>
<use x="411.10" y="204.00" xlink:href="#hd"/>
<path d="M407.60 204.00v19.70" class="stroke"/>
<use x="432.40" y="201.00" xlink:href="#hd"/>
<path d="M428.90 201.00v20.30" class="stroke"/>
<use x="453.80" y="198.00" xlink:href="#hd"/>
<path d="M450.30 198.00v21.00" class="stroke"/>
<path class="fill"
	d="M473.60 226.20l64.70 9.00v-3.20l-64.70 -9.00"/>
<use x="477.50" y="195.00" xlink:href="#hl"/>
<use x="477.50" y="195.00" xlink:href="#hd"/>
<path d="M474.00 195.00v30.30" class="stroke"/>
<use x="498.80" y="201.00" xlink:href="#hd"/>
<path d="M495.30 201.00v27.20" class="stroke"/>
<use x="520.10" y="207.00" xlink:href="#hd"/>
<path d="M516.60 207.00v24.20" class="stroke"/>
<use x="541.50" y="216.00" xlink:href="#hd"/>
<path d="M538.00 216.00v18.20" class="stroke"/>
<path class="fill"
	d="M566.90 225.20l64.70 0.00v-3.20l-64.70 -0.00"/>
<use x="570.70" y="207.00" xlink:href="#hd"/>
<path d="M567.20 207.00v17.20" class="stroke"/>
<use x="592.00" y="204.00" xlink:href="#hd"/>
<path d="M588.50 204.00v20.20" class="stroke"/>
<use x="613.40" y="201.00" xlink:href="#hd"/>
<path d="M609.90 201.00v23.20" class="stroke"/>
<use x="634.70" y="207.00" xlink:href="#hd"/>
<path d="M631.20 207.00v17.20" class="stroke"/>
<use x="658.40" y="204.00" xlink:href="#Hd"/>
<path d="M654.90 204.00v21.00" class="stroke"/>
</g>
<g stroke-width="0.70" style="font:20.00px Times">
<path class="stroke" stroke-width="1"
	d="M226.50 295.00v-24.00"/>
<path class="stroke" stroke-width="1"
	d="M362.10 295.00v-24.00"/>
<path class="stroke" stroke-width="1"
	d="M551.10 295.00v-24.00"/>
<path class="stroke" stroke-width="3"
	d="M690.10 295.00v-24.00"/>
<path class="stroke" stroke-width="1"
	d="M685.60 295.00v-24.00"/>
<path d="m10.00 295.00
	h681.60
	M10.00 289.00
	h681.60
	M10.00 283.00
	h681.60
	M10.00 277.00
	h681.60
	M10.00 271.00
	h681.60
	" class="stroke"/>
<use x="22.00" y="289.00" xlink:href="#tclef"/>
<use x="37.00" y="283.00" xlink:href="#ft0"/>
<path class="fill"
	d="M51.20 297.10l65.90 -7.10v-3.20l-65.90 7.10"/>
<use x="55.00" y="277.00" xlink:href="#hd"/>
<path d="M51.50 277.00v19.00" class="stroke"/>
<use x="76.70" y="274.00" xlink:href="#hd"/>
<path d="M73.20 274.00v19.70" class="stroke"/>
<use x="98.50" y="271.00" xlink:href="#hd"/>
<path d="M95.00 271.00v20.30" class="stroke"/>
<use x="120.20" y="268.00" xlink:href="#hd"/>
<path d="M116.70 268.00v21.00" class="stroke"/>
<path class="fill"
	d="M140.50 296.20l65.90 9.10v-3.20l-65.90 -9.10"/>
<use x="144.30" y="265.00" xlink:href="#hl"/>
<use x="144.30" y="265.00" xlink:href="#hd"/>
<path d="M140.80 265.00v30.20" class="stroke"/>
<use x="166.10" y="271.00" xlink:href="#hd"/>
<path d="M162.60 271.00v27.20" class="stroke"/>
<use x="187.80" y="277.00" xlink:href="#hd"/>
<path d="M184.30 277.00v24.20" class="stroke"/>
<use x="209.50" y="286.00" xlink:href="#hd"/>
<path d="M206.00 286.00v18.20" class="stroke"/>
<path class="fill"
	d="M242.20 260.80l65.90 6.90v3.20l-65.90 -6.90"/>
<use x="239.00" y="280.00" xlink:href="#hd"/>
<path d="M242.50 280.00v-18.20" class="stroke"/>
<use x="260.80" y="286.00" xlink:href="#hd"/>
<path d="M264.30 286.00v-21.90" class="stroke"/>
<use x="282.50" y="289.00" xlink:href="#hd"/>
<path d="M286.00 289.00v-22.60" class="stroke"/>
<use x="304.20" y="295.00" xlink:href="#hd"/>
<path d="M307.70 295.00v-26.40" class="stroke"/>
<use x="328.40" y="286.00" xlink:href="#Hd"/>
<path d="M331.90 286.00v-21.00" class="stroke"/>
<path class="fill"
	d="M377.80 263.80l65.90 0.00v3.20l-65.90 -0.00"/>
<use x="374.60" y="286.00" xlink:href="#hd"/>
<path d="M378.10 286.00v-21.20" class="stroke"/>
<use x="396.40" y="283.00" xlink:href="#hd"/>
<path d="M399.90 283.00v-18.20" class="stroke"/>
<use x="418.10" y="286.00" xlink:href="#hd"/>
<path d="M421.60 286.00v-21.20" class="stroke"/>
<use x="439.80" y="289.00" xlink:href="#hd"/>
<path d="M443.30 289.00v-24.20" class="stroke"/>
<path class="fill"
	d="M467.10 266.00l22.40 4.00v3.20l-22.40 -4.00"/>
<use x="464.00" y="286.00" xlink:href="#hd"/>
<path d="M467.50 286.00v-18.90" class="stroke"/>
<use x="485.70" y="292.00" xlink:href="#hd"/>
<path d="M489.20 292.00v-21.10" class="stroke"/>
<use x="509.80" y="298.00" xlink:href="#hd"/>
<path d="M513.30 298.00v-21.00" class="stroke"/>
<path class="fill"
	d="M513.30 277.00c0.6 5.6 9.6 9 5.6 18.4
	1.6 -6 -1.3 -11.6 -5.6 -12.8
"/>
<use x="534.00" y="301.00" xlink:href="#hl"/>
<use x="534.00" y="307.00" xlink:href="#hl"/>
<use x="534.00" y="307.00" xlink:href="#hd"/>
<path d="M537.50 307.00v-24.00" class="stroke"/>
<path class="fill"
	d="M537.50 283.00c0.6 5.6 9.6 9 5.6 18.4
	1.6 -6 -1.3 -11.6 -5.6 -12.8
"/>
<path class="fill"
	d="M566.80 260.80l65.90 5.80v3.20l-65.90 -5.80"/>
<use x="563.60" y="280.00" xlink:href="#hd"/>
<path d="M567.10 280.00v-18.20" class="stroke"/>
<use x="585.40" y="286.00" xlink:href="#hd"/>
<path d="M588.90 286.00v-22.30" class="stroke"/>
<use x="607.10" y="289.00" xlink:href="#hd"/>
<path d="M610.60 289.00v-23.30" class="stroke"/>
<use x="628.80" y="292.00" xlink:href="#hd"/>
<path d="M632.30 292.00v-24.40" class="stroke"/>
<use x="653.00" y="298.00" xlink:href="#Hd"/>
<path d="M656.50 298.00v-21.00" class="stroke"/>
</g>
</svg>
