<?xml version="1.0" standalone="no"?>
<!DOCTYPE svg PUBLIC "-//W3C//DTD SVG 1.1//EN"
	"http://www.w3.org/Graphics/SVG/1.1/DTD/svg11.dtd">
<svg xmlns="http://www.w3.org/2000/svg" version="1.1"
	xmlns:xlink="http://www.w3.org/1999/xlink"
	color="black"
	width="701.60px" height="318.00px">
<style type="text/css">
.fill {fill: currentColor}
.stroke {stroke: currentColor; fill: none}
text{white-space: pre}
</style>
<title>/media/tim/Data1/tims_code/sphinx-tunes/source/_abcfiles/rats.abc (13) tune 13</title>
<!-- Creator: abcm2ps-8.14.6 -->
<!-- CreationDate: Jul 30, 2023 12:21 -->
<!-- CommandLine: -g /media/tim/Data1/tims_code/sphinx-tunes/source/_abcfiles/rats.abc -O /media/tim/Data1/tims_code/sphinx-tunes/source/_abcfiles/rats.svg -->
<g stroke-width="0.70">
<!-- title: Pathways -->
</g>
<g stroke-width="0.70" style="font:20.00px Times">
<text x="350.80" y="22.00" text-anchor="middle">Pathways</text>
</g>
<g stroke-width="0.70" style="font:20.00px Times">
<path class="stroke" stroke-width="1"
	d="M244.70 85.00v-24.00"/>
<path class="stroke" stroke-width="1"
	d="M377.80 85.00v-24.00"/>
<path class="stroke" stroke-width="1"
	d="M558.50 85.00v-24.00"/>
<path class="stroke" stroke-width="1"
	d="M691.60 85.00v-24.00"/>
<path d="m10.00 85.00
	h681.60
	M10.00 79.00
	h681.60
	M10.00 73.00
	h681.60
	M10.00 67.00
	h681.60
	M10.00 61.00
	h681.60
	" class="stroke"/>
<defs>
<path id="utclef" class="fill" d="m-50 -90
	c-72 -41 -72 -158 52 -188
	150 -10 220 188 90 256
	-114 52 -275 0 -293 -136
	-15 -181 93 -229 220 -334
	88 -87 79 -133 62 -210
	-51 33 -94 105 -89 186
	17 267 36 374 49 574
	6 96 -19 134 -77 135
	-80 1 -126 -93 -61 -133
	85 -41 133 101 31 105
	23 17 92 37 90 -92
	-10 -223 -39 -342 -50 -617
	0 -90 0 -162 96 -232
	56 72 63 230 22 289
	-74 106 -257 168 -255 316
	9 153 148 185 252 133
	86 -65 29 -192 -80 -176
	-71 12 -105 67 -59 124"/>
<use id="tclef" transform="translate(0,6) scale(0.045)"
	xlink:href="#utclef"/>
</defs>
<use x="22.00" y="79.00" xlink:href="#tclef"/>
<defs>
<path id="uflat" class="fill" d="
	m100 -746
	h32
	v734
	l-32 4
	m32 -332
	c46 -72 152 -90 208 -20
	100 110 -120 326 -208 348
	m0 -28
	c54 0 200 -206 130 -290
	-50 -60 -130 -4 -130 34"/>
<use id="ft0" transform="translate(-3.5,3.5) scale(0.018)"
	xlink:href="#uflat"/>
</defs>
<use x="37.00" y="73.00" xlink:href="#ft0"/>
<use x="42.50" y="64.00" xlink:href="#ft0"/>
<g style="font:bold 16px serif"
	transform="translate(58.50,84.50) scale(1.2,1)">
	<text text-anchor="middle">4</text>
	<text y="-12" text-anchor="middle">4</text>
</g>
<path class="fill"
	d="M79.70 72.80l64.60 0.00v3.20l-64.60 -0.00"/>
<defs>
<path id="hl" class="stroke" d="m-6 0h12"/>
</defs>
<use x="76.50" y="91.00" xlink:href="#hl"/>
<use x="76.50" y="97.00" xlink:href="#hl"/>
<defs>
<ellipse id="hd" rx="4.1" ry="2.9"
	transform="rotate(-20)" class="fill"/>
</defs>
<use x="76.50" y="100.00" xlink:href="#hd"/>
<path d="M80.00 100.00v-26.20" class="stroke"/>
<use x="97.80" y="91.00" xlink:href="#hl"/>
<use x="97.80" y="97.00" xlink:href="#hl"/>
<use x="97.80" y="97.00" xlink:href="#hd"/>
<path d="M101.30 97.00v-23.20" class="stroke"/>
<use x="119.10" y="91.00" xlink:href="#hl"/>
<use x="119.10" y="94.00" xlink:href="#hd"/>
<path d="M122.60 94.00v-20.20" class="stroke"/>
<use x="140.40" y="91.00" xlink:href="#hl"/>
<use x="140.40" y="97.00" xlink:href="#hl"/>
<use x="140.40" y="97.00" xlink:href="#hd"/>
<path d="M143.90 97.00v-23.20" class="stroke"/>
<path class="fill"
	d="M167.20 72.80l64.60 0.00v3.20l-64.60 -0.00"/>
<use x="164.10" y="91.00" xlink:href="#hl"/>
<use x="164.10" y="97.00" xlink:href="#hl"/>
<use x="164.10" y="100.00" xlink:href="#hd"/>
<path d="M167.60 100.00v-26.20" class="stroke"/>
<use x="185.40" y="91.00" xlink:href="#hl"/>
<use x="185.40" y="97.00" xlink:href="#hl"/>
<use x="185.40" y="97.00" xlink:href="#hd"/>
<path d="M188.90 97.00v-23.20" class="stroke"/>
<use x="206.70" y="91.00" xlink:href="#hl"/>
<use x="206.70" y="94.00" xlink:href="#hd"/>
<path d="M210.20 94.00v-20.20" class="stroke"/>
<use x="228.00" y="91.00" xlink:href="#hl"/>
<use x="228.00" y="97.00" xlink:href="#hl"/>
<use x="228.00" y="97.00" xlink:href="#hd"/>
<path d="M231.50 97.00v-23.20" class="stroke"/>
<path class="fill"
	d="M260.40 72.80l64.60 0.00v3.20l-64.60 -0.00"/>
<use x="257.20" y="91.00" xlink:href="#hl"/>
<use x="257.20" y="97.00" xlink:href="#hl"/>
<use x="257.20" y="100.00" xlink:href="#hd"/>
<path d="M260.70 100.00v-26.20" class="stroke"/>
<use x="278.50" y="91.00" xlink:href="#hl"/>
<use x="278.50" y="97.00" xlink:href="#hl"/>
<use x="278.50" y="97.00" xlink:href="#hd"/>
<path d="M282.00 97.00v-23.20" class="stroke"/>
<use x="299.80" y="91.00" xlink:href="#hl"/>
<use x="299.80" y="94.00" xlink:href="#hd"/>
<path d="M303.30 94.00v-20.20" class="stroke"/>
<use x="321.20" y="91.00" xlink:href="#hl"/>
<use x="321.20" y="97.00" xlink:href="#hl"/>
<use x="321.20" y="97.00" xlink:href="#hd"/>
<path d="M324.70 97.00v-23.20" class="stroke"/>
<defs>
<path id="Hd" class="fill" d="m3 -1.6
	c-1 -1.8 -7 1.4 -6 3.2
	1 1.8 7 -1.4 6 -3.2
	m0.5 -0.3
	c2 3.8 -5 7.6 -7 3.8
	-2 -3.8 5 -7.6 7 -3.8"/>
</defs>
<use x="344.80" y="88.00" xlink:href="#Hd"/>
<path d="M348.30 88.00v-21.00" class="stroke"/>
<path class="fill"
	d="M393.40 72.80l64.60 0.00v3.20l-64.60 -0.00"/>
<use x="390.30" y="91.00" xlink:href="#hl"/>
<use x="390.30" y="97.00" xlink:href="#hl"/>
<use x="390.30" y="97.00" xlink:href="#hd"/>
<path d="M393.80 97.00v-23.20" class="stroke"/>
<use x="411.60" y="91.00" xlink:href="#hl"/>
<use x="411.60" y="94.00" xlink:href="#hd"/>
<path d="M415.10 94.00v-20.20" class="stroke"/>
<use x="432.90" y="91.00" xlink:href="#hl"/>
<use x="432.90" y="91.00" xlink:href="#hd"/>
<path d="M436.40 91.00v-17.20" class="stroke"/>
<use x="454.20" y="91.00" xlink:href="#hl"/>
<use x="454.20" y="94.00" xlink:href="#hd"/>
<path d="M457.70 94.00v-20.20" class="stroke"/>
<path class="fill"
	d="M481.00 72.80l64.60 0.00v3.20l-64.60 -0.00"/>
<use x="477.80" y="91.00" xlink:href="#hl"/>
<use x="477.80" y="97.00" xlink:href="#hl"/>
<use x="477.80" y="97.00" xlink:href="#hd"/>
<path d="M481.30 97.00v-23.20" class="stroke"/>
<use x="499.20" y="91.00" xlink:href="#hl"/>
<use x="499.20" y="94.00" xlink:href="#hd"/>
<path d="M502.70 94.00v-20.20" class="stroke"/>
<use x="520.50" y="91.00" xlink:href="#hl"/>
<use x="520.50" y="91.00" xlink:href="#hd"/>
<path d="M524.00 91.00v-17.20" class="stroke"/>
<use x="541.80" y="91.00" xlink:href="#hl"/>
<use x="541.80" y="94.00" xlink:href="#hd"/>
<path d="M545.30 94.00v-20.20" class="stroke"/>
<path class="fill"
	d="M574.20 72.80l64.60 0.00v3.20l-64.60 -0.00"/>
<use x="571.00" y="91.00" xlink:href="#hl"/>
<use x="571.00" y="97.00" xlink:href="#hl"/>
<use x="571.00" y="97.00" xlink:href="#hd"/>
<path d="M574.50 97.00v-23.20" class="stroke"/>
<use x="592.30" y="91.00" xlink:href="#hl"/>
<use x="592.30" y="94.00" xlink:href="#hd"/>
<path d="M595.80 94.00v-20.20" class="stroke"/>
<use x="613.60" y="91.00" xlink:href="#hl"/>
<use x="613.60" y="91.00" xlink:href="#hd"/>
<path d="M617.10 91.00v-17.20" class="stroke"/>
<use x="634.90" y="91.00" xlink:href="#hl"/>
<use x="634.90" y="94.00" xlink:href="#hd"/>
<path d="M638.40 94.00v-20.20" class="stroke"/>
<use x="658.60" y="91.00" xlink:href="#hl"/>
<use x="658.60" y="97.00" xlink:href="#hl"/>
<use x="658.60" y="97.00" xlink:href="#Hd"/>
<path d="M662.10 97.00v-24.00" class="stroke"/>
</g>
<g stroke-width="0.70" style="font:20.00px Times">
<path class="stroke" stroke-width="1"
	d="M242.80 155.00v-24.00"/>
<path class="stroke" stroke-width="1"
	d="M375.20 155.00v-24.00"/>
<path class="stroke" stroke-width="1"
	d="M554.70 155.00v-24.00"/>
<path class="stroke" stroke-width="1"
	d="M691.60 155.00v-24.00"/>
<path class="stroke" stroke-width="1"
	d="M688.60 155.00v-24.00"/>
<path d="m10.00 155.00
	h681.60
	M10.00 149.00
	h681.60
	M10.00 143.00
	h681.60
	M10.00 137.00
	h681.60
	M10.00 131.00
	h681.60
	" class="stroke"/>
<use x="22.00" y="149.00" xlink:href="#tclef"/>
<use x="37.00" y="143.00" xlink:href="#ft0"/>
<use x="42.50" y="134.00" xlink:href="#ft0"/>
<defs>
<path id="r8e" class="fill" d="m 0 0
	c-1.5 1.5 -2.4 2 -3.6 2
	2.4 -2.8 -2.8 -4 -2.8 -1.2
	c0 2.7 4.3 2.4 5.9 0.6"/>
<g id="r16">
	<path d="m3.3 -4l-4 15.6" class="stroke"/>
	<use x="3.4" y="-4" xlink:href="#r8e"/>
	<use x="1.9" y="2" xlink:href="#r8e"/>
</g>
</defs>
<use x="60.50" y="143.00" xlink:href="#r16"/>
<path class="fill"
	d="M78.70 142.80l64.30 0.00v3.20l-64.30 -0.00"/>
<use x="75.50" y="161.00" xlink:href="#hl"/>
<use x="75.50" y="167.00" xlink:href="#hl"/>
<use x="75.50" y="170.00" xlink:href="#hd"/>
<path d="M79.00 170.00v-26.20" class="stroke"/>
<use x="96.70" y="161.00" xlink:href="#hl"/>
<use x="96.70" y="167.00" xlink:href="#hl"/>
<use x="96.70" y="167.00" xlink:href="#hd"/>
<path d="M100.20 167.00v-23.20" class="stroke"/>
<use x="117.90" y="161.00" xlink:href="#hl"/>
<use x="117.90" y="164.00" xlink:href="#hd"/>
<path d="M121.40 164.00v-20.20" class="stroke"/>
<use x="139.10" y="161.00" xlink:href="#hl"/>
<use x="139.10" y="167.00" xlink:href="#hl"/>
<use x="139.10" y="167.00" xlink:href="#hd"/>
<path d="M142.60 167.00v-23.20" class="stroke"/>
<path class="fill"
	d="M165.80 142.80l64.30 0.00v3.20l-64.30 -0.00"/>
<use x="162.60" y="161.00" xlink:href="#hl"/>
<use x="162.60" y="167.00" xlink:href="#hl"/>
<use x="162.60" y="170.00" xlink:href="#hd"/>
<path d="M166.10 170.00v-26.20" class="stroke"/>
<use x="183.80" y="161.00" xlink:href="#hl"/>
<use x="183.80" y="167.00" xlink:href="#hl"/>
<use x="183.80" y="167.00" xlink:href="#hd"/>
<path d="M187.30 167.00v-23.20" class="stroke"/>
<use x="205.00" y="161.00" xlink:href="#hl"/>
<use x="205.00" y="164.00" xlink:href="#hd"/>
<path d="M208.50 164.00v-20.20" class="stroke"/>
<use x="226.20" y="161.00" xlink:href="#hl"/>
<use x="226.20" y="167.00" xlink:href="#hl"/>
<use x="226.20" y="167.00" xlink:href="#hd"/>
<path d="M229.70 167.00v-23.20" class="stroke"/>
<path class="fill"
	d="M258.40 142.80l64.30 0.00v3.20l-64.30 -0.00"/>
<use x="255.30" y="161.00" xlink:href="#hl"/>
<use x="255.30" y="167.00" xlink:href="#hl"/>
<use x="255.30" y="170.00" xlink:href="#hd"/>
<path d="M258.80 170.00v-26.20" class="stroke"/>
<use x="276.50" y="161.00" xlink:href="#hl"/>
<use x="276.50" y="167.00" xlink:href="#hl"/>
<use x="276.50" y="167.00" xlink:href="#hd"/>
<path d="M280.00 167.00v-23.20" class="stroke"/>
<use x="297.70" y="161.00" xlink:href="#hl"/>
<use x="297.70" y="164.00" xlink:href="#hd"/>
<path d="M301.20 164.00v-20.20" class="stroke"/>
<use x="318.90" y="161.00" xlink:href="#hl"/>
<use x="318.90" y="167.00" xlink:href="#hl"/>
<use x="318.90" y="167.00" xlink:href="#hd"/>
<path d="M322.40 167.00v-23.20" class="stroke"/>
<use x="342.30" y="158.00" xlink:href="#Hd"/>
<path d="M345.80 158.00v-21.00" class="stroke"/>
<path class="fill"
	d="M390.90 117.80l64.10 0.00v3.20l-64.10 -0.00"/>
<use x="387.70" y="137.00" xlink:href="#hd"/>
<path d="M391.20 137.00v-18.20" class="stroke"/>
<use x="408.90" y="158.00" xlink:href="#hd"/>
<path d="M412.40 158.00v-39.20" class="stroke"/>
<use x="430.00" y="152.00" xlink:href="#hd"/>
<path d="M433.50 152.00v-33.20" class="stroke"/>
<use x="451.10" y="146.00" xlink:href="#hd"/>
<path d="M454.60 146.00v-27.20" class="stroke"/>
<path class="fill"
	d="M477.80 120.80l64.10 5.80v3.20l-64.10 -5.80"/>
<use x="474.60" y="140.00" xlink:href="#hd"/>
<path d="M478.10 140.00v-18.20" class="stroke"/>
<use x="495.80" y="143.00" xlink:href="#hd"/>
<path d="M499.30 143.00v-19.30" class="stroke"/>
<use x="516.90" y="146.00" xlink:href="#hd"/>
<path d="M520.40 146.00v-20.40" class="stroke"/>
<use x="538.10" y="152.00" xlink:href="#hd"/>
<path d="M541.60 152.00v-24.50" class="stroke"/>
<path class="fill"
	d="M570.30 123.40l64.10 -3.80v3.20l-64.10 3.80"/>
<use x="567.20" y="152.00" xlink:href="#hd"/>
<path d="M570.70 152.00v-27.70" class="stroke"/>
<use x="588.30" y="146.00" xlink:href="#hd"/>
<path d="M591.80 146.00v-22.90" class="stroke"/>
<use x="609.50" y="140.00" xlink:href="#hd"/>
<path d="M613.00 140.00v-18.20" class="stroke"/>
<use x="630.60" y="146.00" xlink:href="#hd"/>
<path d="M634.10 146.00v-25.50" class="stroke"/>
<use x="654.10" y="149.00" xlink:href="#Hd"/>
<path d="M657.60 149.00v-21.00" class="stroke"/>
</g>
<g stroke-width="0.70" style="font:20.00px Times">
<path class="stroke" stroke-width="1"
	d="M203.00 225.00v-24.00"/>
<path class="stroke" stroke-width="1"
	d="M358.10 225.00v-24.00"/>
<path class="stroke" stroke-width="1"
	d="M513.10 225.00v-24.00"/>
<path class="stroke" stroke-width="1"
	d="M691.60 225.00v-24.00"/>
<path d="m10.00 225.00
	h681.60
	M10.00 219.00
	h681.60
	M10.00 213.00
	h681.60
	M10.00 207.00
	h681.60
	M10.00 201.00
	h681.60
	" class="stroke"/>
<use x="22.00" y="219.00" xlink:href="#tclef"/>
<use x="37.00" y="213.00" xlink:href="#ft0"/>
<use x="42.50" y="204.00" xlink:href="#ft0"/>
<path class="fill"
	d="M63.70 197.00l63.80 -7.10v3.20l-63.80 7.10"/>
<use x="60.50" y="219.00" xlink:href="#hd"/>
<path d="M64.00 219.00v-21.00" class="stroke"/>
<use x="81.50" y="216.00" xlink:href="#hd"/>
<path d="M85.00 216.00v-20.30" class="stroke"/>
<use x="102.50" y="213.00" xlink:href="#hd"/>
<path d="M106.00 213.00v-19.70" class="stroke"/>
<use x="123.60" y="210.00" xlink:href="#hd"/>
<path d="M127.10 210.00v-19.00" class="stroke"/>
<use x="147.00" y="207.00" xlink:href="#hd"/>
<path d="M143.50 207.00v21.00" class="stroke"/>
<defs>
<path id="r4" class="fill" d="m-1 -8.5
	l3.6 5.1 -2.1 5.2 2.2 4.3
	c-2.6 -2.3 -5.1 0 -2.4 2.6
	-4.8 -3 -1.5 -6.9 1.4 -4.1
	l-3.1 -4.5 1.9 -5.1 -1.5 -3.5"/>
</defs>
<use x="179.80" y="213.00" xlink:href="#r4"/>
<path class="fill"
	d="M218.70 200.00l63.80 -7.10v3.20l-63.80 7.10"/>
<use x="215.50" y="222.00" xlink:href="#hd"/>
<path d="M219.00 222.00v-21.00" class="stroke"/>
<use x="236.60" y="219.00" xlink:href="#hd"/>
<path d="M240.10 219.00v-20.30" class="stroke"/>
<use x="257.60" y="216.00" xlink:href="#hd"/>
<path d="M261.10 216.00v-19.70" class="stroke"/>
<use x="278.60" y="213.00" xlink:href="#hd"/>
<path d="M282.10 213.00v-19.00" class="stroke"/>
<use x="302.00" y="210.00" xlink:href="#hd"/>
<path d="M298.50 210.00v21.00" class="stroke"/>
<use x="334.90" y="213.00" xlink:href="#r4"/>
<path class="fill"
	d="M373.70 197.00l63.80 -7.10v3.20l-63.80 7.10"/>
<use x="370.60" y="219.00" xlink:href="#hd"/>
<path d="M374.10 219.00v-21.00" class="stroke"/>
<use x="391.60" y="216.00" xlink:href="#hd"/>
<path d="M395.10 216.00v-20.30" class="stroke"/>
<use x="412.60" y="213.00" xlink:href="#hd"/>
<path d="M416.10 213.00v-19.70" class="stroke"/>
<use x="433.60" y="210.00" xlink:href="#hd"/>
<path d="M437.10 210.00v-19.00" class="stroke"/>
<use x="457.10" y="207.00" xlink:href="#hd"/>
<path d="M453.60 207.00v21.00" class="stroke"/>
<use x="489.90" y="213.00" xlink:href="#r4"/>
<path class="fill"
	d="M521.80 228.00l63.80 0.00v-3.20l-63.80 -0.00"/>
<use x="525.60" y="207.00" xlink:href="#hd"/>
<path d="M522.10 207.00v20.00" class="stroke"/>
<use x="546.60" y="204.00" xlink:href="#hd"/>
<path d="M543.10 204.00v23.00" class="stroke"/>
<use x="567.70" y="207.00" xlink:href="#hd"/>
<path d="M564.20 207.00v20.00" class="stroke"/>
<use x="588.70" y="210.00" xlink:href="#hd"/>
<path d="M585.20 210.00v17.00" class="stroke"/>
<path class="fill"
	d="M608.20 229.00l63.80 7.10v-3.20l-63.80 -7.10"/>
<use x="612.00" y="207.00" xlink:href="#hd"/>
<path d="M608.50 207.00v21.00" class="stroke"/>
<use x="633.00" y="210.00" xlink:href="#hd"/>
<path d="M629.50 210.00v20.30" class="stroke"/>
<use x="654.10" y="213.00" xlink:href="#hd"/>
<path d="M650.60 213.00v19.70" class="stroke"/>
<use x="675.10" y="216.00" xlink:href="#hd"/>
<path d="M671.60 216.00v19.00" class="stroke"/>
</g>
<g stroke-width="0.70" style="font:20.00px Times">
<path class="stroke" stroke-width="1"
	d="M213.80 295.00v-24.00"/>
<path class="stroke" stroke-width="1"
	d="M379.80 295.00v-24.00"/>
<path class="stroke" stroke-width="1"
	d="M545.80 295.00v-24.00"/>
<path class="stroke" stroke-width="3"
	d="M690.10 295.00v-24.00"/>
<path class="stroke" stroke-width="1"
	d="M685.60 295.00v-24.00"/>
<path d="m10.00 295.00
	h681.60
	M10.00 289.00
	h681.60
	M10.00 283.00
	h681.60
	M10.00 277.00
	h681.60
	M10.00 271.00
	h681.60
	" class="stroke"/>
<use x="22.00" y="289.00" xlink:href="#tclef"/>
<use x="37.00" y="283.00" xlink:href="#ft0"/>
<use x="42.50" y="274.00" xlink:href="#ft0"/>
<path class="fill"
	d="M63.70 267.10l68.50 -7.20v3.20l-68.50 7.20"/>
<use x="60.50" y="289.00" xlink:href="#hd"/>
<path d="M64.00 289.00v-20.90" class="stroke"/>
<use x="83.10" y="286.00" xlink:href="#hd"/>
<path d="M86.60 286.00v-20.30" class="stroke"/>
<use x="105.70" y="283.00" xlink:href="#hd"/>
<path d="M109.20 283.00v-19.70" class="stroke"/>
<use x="128.30" y="280.00" xlink:href="#hd"/>
<path d="M131.80 280.00v-19.10" class="stroke"/>
<use x="153.50" y="277.00" xlink:href="#hd"/>
<path d="M150.00 277.00v21.00" class="stroke"/>
<use x="188.90" y="283.00" xlink:href="#r4"/>
<path class="fill"
	d="M229.60 270.10l68.50 -7.20v3.20l-68.50 7.20"/>
<use x="226.50" y="292.00" xlink:href="#hd"/>
<path d="M230.00 292.00v-20.90" class="stroke"/>
<use x="249.10" y="289.00" xlink:href="#hd"/>
<path d="M252.60 289.00v-20.30" class="stroke"/>
<use x="271.70" y="286.00" xlink:href="#hd"/>
<path d="M275.20 286.00v-19.70" class="stroke"/>
<use x="294.30" y="283.00" xlink:href="#hd"/>
<path d="M297.80 283.00v-19.10" class="stroke"/>
<use x="319.50" y="280.00" xlink:href="#hd"/>
<path d="M316.00 280.00v21.00" class="stroke"/>
<use x="354.90" y="283.00" xlink:href="#r4"/>
<path class="fill"
	d="M395.60 267.10l68.50 -7.20v3.20l-68.50 7.20"/>
<use x="392.50" y="289.00" xlink:href="#hd"/>
<path d="M396.00 289.00v-20.90" class="stroke"/>
<use x="415.10" y="286.00" xlink:href="#hd"/>
<path d="M418.60 286.00v-20.30" class="stroke"/>
<use x="437.70" y="283.00" xlink:href="#hd"/>
<path d="M441.20 283.00v-19.70" class="stroke"/>
<use x="460.30" y="280.00" xlink:href="#hd"/>
<path d="M463.80 280.00v-19.10" class="stroke"/>
<use x="485.40" y="277.00" xlink:href="#hd"/>
<path d="M481.90 277.00v21.00" class="stroke"/>
<use x="520.90" y="283.00" xlink:href="#r4"/>
<path class="fill"
	d="M561.60 260.80l68.50 0.00v3.20l-68.50 -0.00"/>
<use x="558.40" y="280.00" xlink:href="#hd"/>
<path d="M561.90 280.00v-18.20" class="stroke"/>
<use x="581.10" y="292.00" xlink:href="#hd"/>
<path d="M584.60 292.00v-30.20" class="stroke"/>
<use x="603.70" y="280.00" xlink:href="#hd"/>
<path d="M607.20 280.00v-18.20" class="stroke"/>
<use x="626.30" y="286.00" xlink:href="#hd"/>
<path d="M629.80 286.00v-24.20" class="stroke"/>
<use x="651.40" y="289.00" xlink:href="#Hd"/>
<path d="M654.90 289.00v-21.00" class="stroke"/>
</g>
</svg>
