<?xml version="1.0" standalone="no"?>
<!DOCTYPE svg PUBLIC "-//W3C//DTD SVG 1.1//EN"
	"http://www.w3.org/Graphics/SVG/1.1/DTD/svg11.dtd">
<svg xmlns="http://www.w3.org/2000/svg" version="1.1"
	xmlns:xlink="http://www.w3.org/1999/xlink"
	color="black"
	width="701.60px" height="318.00px">
<style type="text/css">
.fill {fill: currentColor}
.stroke {stroke: currentColor; fill: none}
text{white-space: pre}
</style>
<title>/media/tim/Data1/tims_code/sphinx-tunes/source/_abcfiles/rats.abc (5) tune 5</title>
<!-- Creator: abcm2ps-8.14.6 -->
<!-- CreationDate: Jul 30, 2023 12:21 -->
<!-- CommandLine: -g /media/tim/Data1/tims_code/sphinx-tunes/source/_abcfiles/rats.abc -O /media/tim/Data1/tims_code/sphinx-tunes/source/_abcfiles/rats.svg -->
<g stroke-width="0.70">
<!-- title: Devon -->
</g>
<g stroke-width="0.70" style="font:20.00px Times">
<text x="350.80" y="22.00" text-anchor="middle">Devon</text>
</g>
<g stroke-width="0.70" style="font:20.00px Times">
<path class="stroke" stroke-width="1"
	d="M103.50 85.00v-24.00"/>
<path class="stroke" stroke-width="1"
	d="M250.50 85.00v-24.00"/>
<path class="stroke" stroke-width="1"
	d="M397.60 85.00v-24.00"/>
<path class="stroke" stroke-width="1"
	d="M544.60 85.00v-24.00"/>
<path class="stroke" stroke-width="1"
	d="M691.60 85.00v-24.00"/>
<path d="m10.00 85.00
	h681.60
	M10.00 79.00
	h681.60
	M10.00 73.00
	h681.60
	M10.00 67.00
	h681.60
	M10.00 61.00
	h681.60
	" class="stroke"/>
<defs>
<path id="utclef" class="fill" d="m-50 -90
	c-72 -41 -72 -158 52 -188
	150 -10 220 188 90 256
	-114 52 -275 0 -293 -136
	-15 -181 93 -229 220 -334
	88 -87 79 -133 62 -210
	-51 33 -94 105 -89 186
	17 267 36 374 49 574
	6 96 -19 134 -77 135
	-80 1 -126 -93 -61 -133
	85 -41 133 101 31 105
	23 17 92 37 90 -92
	-10 -223 -39 -342 -50 -617
	0 -90 0 -162 96 -232
	56 72 63 230 22 289
	-74 106 -257 168 -255 316
	9 153 148 185 252 133
	86 -65 29 -192 -80 -176
	-71 12 -105 67 -59 124"/>
<use id="tclef" transform="translate(0,6) scale(0.045)"
	xlink:href="#utclef"/>
</defs>
<use x="22.00" y="79.00" xlink:href="#tclef"/>
<defs>
<path id="uflat" class="fill" d="
	m100 -746
	h32
	v734
	l-32 4
	m32 -332
	c46 -72 152 -90 208 -20
	100 110 -120 326 -208 348
	m0 -28
	c54 0 200 -206 130 -290
	-50 -60 -130 -4 -130 34"/>
<use id="ft0" transform="translate(-3.5,3.5) scale(0.018)"
	xlink:href="#uflat"/>
</defs>
<use x="37.00" y="73.00" xlink:href="#ft0"/>
<g style="font:bold 16px serif"
	transform="translate(53.00,84.50) scale(1.2,1)">
	<text text-anchor="middle">4</text>
	<text y="-12" text-anchor="middle">4</text>
</g>
<path class="fill"
	d="M74.20 61.30l18.70 2.30v3.20l-18.70 -2.30"/>
<defs>
<ellipse id="hd" rx="4.1" ry="2.9"
	transform="rotate(-20)" class="fill"/>
</defs>
<use x="71.00" y="82.00" xlink:href="#hd"/>
<path d="M74.50 82.00v-19.60" class="stroke"/>
<use x="89.00" y="85.00" xlink:href="#hd"/>
<path d="M92.50 85.00v-20.40" class="stroke"/>
<use x="116.00" y="88.00" xlink:href="#hd"/>
<path d="M119.50 88.00v-21.00" class="stroke"/>
<path class="fill"
	d="M147.10 66.70l18.70 -2.30v3.20l-18.70 2.30"/>
<use x="143.90" y="88.00" xlink:href="#hd"/>
<path d="M147.40 88.00v-20.40" class="stroke"/>
<use x="162.00" y="85.00" xlink:href="#hd"/>
<path d="M165.50 85.00v-19.60" class="stroke"/>
<path class="fill"
	d="M185.10 60.80l54.80 0.00v3.20l-54.80 -0.00"/>
<use x="181.90" y="82.00" xlink:href="#hd"/>
<path d="M185.40 82.00v-20.20" class="stroke"/>
<use x="200.00" y="85.00" xlink:href="#hd"/>
<path d="M203.50 85.00v-23.20" class="stroke"/>
<use x="218.00" y="82.00" xlink:href="#hd"/>
<path d="M221.50 82.00v-20.20" class="stroke"/>
<use x="236.10" y="79.00" xlink:href="#hd"/>
<path d="M239.60 79.00v-17.20" class="stroke"/>
<path class="fill"
	d="M266.20 53.80l54.80 0.00v3.20l-54.80 -0.00"/>
<use x="263.00" y="76.00" xlink:href="#hd"/>
<path d="M266.50 76.00v-21.20" class="stroke"/>
<use x="281.10" y="73.00" xlink:href="#hd"/>
<path d="M284.60 73.00v-18.20" class="stroke"/>
<use x="299.10" y="76.00" xlink:href="#hd"/>
<path d="M302.60 76.00v-21.20" class="stroke"/>
<use x="317.20" y="82.00" xlink:href="#hd"/>
<path d="M320.70 82.00v-27.20" class="stroke"/>
<use x="337.10" y="88.00" xlink:href="#hd"/>
<path d="M340.60 88.00v-21.00" class="stroke"/>
<path class="fill"
	d="M368.20 62.10l18.70 3.70v3.20l-18.70 -3.70"/>
<use x="365.00" y="82.00" xlink:href="#hd"/>
<path d="M368.50 82.00v-18.80" class="stroke"/>
<use x="383.10" y="88.00" xlink:href="#hd"/>
<path d="M386.60 88.00v-21.20" class="stroke"/>
<use x="410.10" y="85.00" xlink:href="#hd"/>
<path d="M413.60 85.00v-21.00" class="stroke"/>
<path class="fill"
	d="M441.10 63.70l18.70 -2.30v3.20l-18.70 2.30"/>
<use x="438.00" y="85.00" xlink:href="#hd"/>
<path d="M441.50 85.00v-20.40" class="stroke"/>
<use x="456.00" y="82.00" xlink:href="#hd"/>
<path d="M459.50 82.00v-19.60" class="stroke"/>
<path class="fill"
	d="M479.10 59.80l54.80 3.80v3.20l-54.80 -3.80"/>
<use x="476.00" y="79.00" xlink:href="#hd"/>
<path d="M479.50 79.00v-18.20" class="stroke"/>
<use x="494.00" y="85.00" xlink:href="#hd"/>
<path d="M497.50 85.00v-23.00" class="stroke"/>
<defs>
<path id="hl" class="stroke" d="m-6 0h12"/>
</defs>
<use x="512.10" y="91.00" xlink:href="#hl"/>
<use x="512.10" y="91.00" xlink:href="#hd"/>
<path d="M515.60 91.00v-27.70" class="stroke"/>
<use x="530.10" y="85.00" xlink:href="#hd"/>
<path d="M533.60 85.00v-20.50" class="stroke"/>
<path class="fill"
	d="M560.20 59.10l54.80 6.80v3.20l-54.80 -6.80"/>
<use x="557.10" y="79.00" xlink:href="#hd"/>
<path d="M560.60 79.00v-18.90" class="stroke"/>
<use x="575.10" y="82.00" xlink:href="#hd"/>
<path d="M578.60 82.00v-19.60" class="stroke"/>
<use x="593.20" y="85.00" xlink:href="#hd"/>
<path d="M596.70 85.00v-20.40" class="stroke"/>
<use x="611.20" y="88.00" xlink:href="#hd"/>
<path d="M614.70 88.00v-21.10" class="stroke"/>
<use x="631.20" y="91.00" xlink:href="#hl"/>
<use x="631.20" y="91.00" xlink:href="#hd"/>
<path d="M634.70 91.00v-21.00" class="stroke"/>
<path class="fill"
	d="M662.30 61.30l18.70 2.30v3.20l-18.70 -2.30"/>
<use x="659.10" y="82.00" xlink:href="#hd"/>
<path d="M662.60 82.00v-19.60" class="stroke"/>
<use x="677.10" y="85.00" xlink:href="#hd"/>
<path d="M680.60 85.00v-20.40" class="stroke"/>
</g>
<g stroke-width="0.70" style="font:20.00px Times">
<path class="stroke" stroke-width="1"
	d="M228.60 155.00v-24.00"/>
<path class="stroke" stroke-width="1"
	d="M373.10 155.00v-24.00"/>
<path class="stroke" stroke-width="1"
	d="M541.60 155.00v-24.00"/>
<path class="stroke" stroke-width="1"
	d="M691.60 155.00v-24.00"/>
<path class="stroke" stroke-width="1"
	d="M688.60 155.00v-24.00"/>
<path d="m10.00 155.00
	h681.60
	M10.00 149.00
	h681.60
	M10.00 143.00
	h681.60
	M10.00 137.00
	h681.60
	M10.00 131.00
	h681.60
	" class="stroke"/>
<use x="22.00" y="149.00" xlink:href="#tclef"/>
<use x="37.00" y="143.00" xlink:href="#ft0"/>
<use x="55.00" y="158.00" xlink:href="#hd"/>
<path d="M58.50 158.00v-21.00" class="stroke"/>
<path class="fill"
	d="M94.70 136.70l24.00 -2.50v3.20l-24.00 2.50"/>
<use x="91.50" y="158.00" xlink:href="#hd"/>
<path d="M95.00 158.00v-20.30" class="stroke"/>
<use x="114.80" y="155.00" xlink:href="#hd"/>
<path d="M118.30 155.00v-19.70" class="stroke"/>
<path class="fill"
	d="M143.80 130.80l70.50 0.00v3.20l-70.50 -0.00"/>
<use x="140.60" y="152.00" xlink:href="#hd"/>
<path d="M144.10 152.00v-20.20" class="stroke"/>
<use x="163.90" y="155.00" xlink:href="#hd"/>
<path d="M167.40 155.00v-23.20" class="stroke"/>
<use x="187.20" y="152.00" xlink:href="#hd"/>
<path d="M190.70 152.00v-20.20" class="stroke"/>
<use x="210.40" y="149.00" xlink:href="#hd"/>
<path d="M213.90 149.00v-17.20" class="stroke"/>
<use x="241.60" y="146.00" xlink:href="#hd"/>
<path d="M245.10 146.00v-21.00" class="stroke"/>
<use x="278.10" y="137.00" xlink:href="#hd"/>
<path d="M274.60 137.00v21.00" class="stroke"/>
<use x="314.60" y="137.00" xlink:href="#hd"/>
<path d="M311.10 137.00v21.00" class="stroke"/>
<use x="347.50" y="146.00" xlink:href="#hd"/>
<path d="M351.00 146.00v-21.00" class="stroke"/>
<use x="386.10" y="143.00" xlink:href="#hd"/>
<circle class="fill" cx="393.80" cy="140.00" r="1.2"/>
<path d="M389.60 143.00v-21.00" class="stroke"/>
<use x="427.70" y="146.00" xlink:href="#hd"/>
<path d="M431.20 146.00v-21.00" class="stroke"/>
<path class="fill"
	d="M431.20 125.00c0.6 5.6 9.6 9 5.6 18.4
	1.6 -6 -1.3 -11.6 -5.6 -12.8
"/>
<path class="fill"
	d="M456.80 129.80l70.50 5.90v3.20l-70.50 -5.90"/>
<use x="453.60" y="149.00" xlink:href="#hd"/>
<path d="M457.10 149.00v-18.20" class="stroke"/>
<use x="476.90" y="152.00" xlink:href="#hd"/>
<path d="M480.40 152.00v-19.30" class="stroke"/>
<use x="500.10" y="155.00" xlink:href="#hd"/>
<path d="M503.60 155.00v-20.30" class="stroke"/>
<use x="523.40" y="161.00" xlink:href="#hl"/>
<use x="523.40" y="161.00" xlink:href="#hd"/>
<path d="M526.90 161.00v-24.40" class="stroke"/>
<path class="fill"
	d="M557.70 134.00l70.50 0.00v3.20l-70.50 -0.00"/>
<use x="554.60" y="158.00" xlink:href="#hd"/>
<path d="M558.10 158.00v-23.00" class="stroke"/>
<use x="577.90" y="155.00" xlink:href="#hd"/>
<path d="M581.40 155.00v-20.00" class="stroke"/>
<use x="601.10" y="152.00" xlink:href="#hd"/>
<path d="M604.60 152.00v-17.00" class="stroke"/>
<use x="624.40" y="155.00" xlink:href="#hd"/>
<path d="M627.90 155.00v-20.00" class="stroke"/>
<defs>
<path id="Hd" class="fill" d="m3 -1.6
	c-1 -1.8 -7 1.4 -6 3.2
	1 1.8 7 -1.4 6 -3.2
	m0.5 -0.3
	c2 3.8 -5 7.6 -7 3.8
	-2 -3.8 5 -7.6 7 -3.8"/>
</defs>
<use x="650.30" y="158.00" xlink:href="#Hd"/>
<path d="M653.80 158.00v-21.00" class="stroke"/>
</g>
<g stroke-width="0.70" style="font:20.00px Times">
<path class="stroke" stroke-width="1"
	d="M214.50 225.00v-24.00"/>
<path class="stroke" stroke-width="1"
	d="M381.10 225.00v-24.00"/>
<path class="stroke" stroke-width="1"
	d="M548.10 225.00v-24.00"/>
<path class="stroke" stroke-width="1"
	d="M691.60 225.00v-24.00"/>
<path d="m10.00 225.00
	h681.60
	M10.00 219.00
	h681.60
	M10.00 213.00
	h681.60
	M10.00 207.00
	h681.60
	M10.00 201.00
	h681.60
	" class="stroke"/>
<use x="22.00" y="219.00" xlink:href="#tclef"/>
<use x="37.00" y="213.00" xlink:href="#ft0"/>
<use x="55.00" y="216.00" xlink:href="#hd"/>
<path d="M58.50 216.00v-21.00" class="stroke"/>
<use x="91.20" y="207.00" xlink:href="#hd"/>
<path d="M87.70 207.00v21.00" class="stroke"/>
<path class="fill"
	d="M123.50 225.20l69.80 0.00v-3.20l-69.80 -0.00"/>
<use x="127.30" y="207.00" xlink:href="#hd"/>
<path d="M123.80 207.00v17.20" class="stroke"/>
<use x="150.40" y="204.00" xlink:href="#hd"/>
<path d="M146.90 204.00v20.20" class="stroke"/>
<use x="173.40" y="201.00" xlink:href="#hd"/>
<path d="M169.90 201.00v23.20" class="stroke"/>
<use x="196.50" y="204.00" xlink:href="#hd"/>
<path d="M193.00 204.00v20.20" class="stroke"/>
<path class="fill"
	d="M223.50 228.00l69.80 0.00v-3.20l-69.80 -0.00"/>
<use x="227.40" y="207.00" xlink:href="#hd"/>
<path d="M223.90 207.00v20.00" class="stroke"/>
<use x="250.40" y="204.00" xlink:href="#hd"/>
<path d="M246.90 204.00v23.00" class="stroke"/>
<use x="273.50" y="207.00" xlink:href="#hd"/>
<path d="M270.00 207.00v20.00" class="stroke"/>
<use x="296.60" y="210.00" xlink:href="#hd"/>
<path d="M293.10 210.00v17.00" class="stroke"/>
<use x="319.60" y="216.00" xlink:href="#hd"/>
<path d="M323.10 216.00v-21.00" class="stroke"/>
<use x="355.80" y="216.00" xlink:href="#hd"/>
<path d="M359.30 216.00v-21.00" class="stroke"/>
<use x="394.00" y="213.00" xlink:href="#hd"/>
<circle class="fill" cx="401.70" cy="210.00" r="1.2"/>
<path d="M397.50 213.00v-21.00" class="stroke"/>
<use x="435.30" y="216.00" xlink:href="#hd"/>
<path d="M438.80 216.00v-21.00" class="stroke"/>
<path class="fill"
	d="M438.80 195.00c0.6 5.6 9.6 9 5.6 18.4
	1.6 -6 -1.3 -11.6 -5.6 -12.8
"/>
<path class="fill"
	d="M464.10 193.80l69.80 0.00v3.20l-69.80 -0.00"/>
<use x="460.90" y="219.00" xlink:href="#hd"/>
<path d="M464.40 219.00v-24.20" class="stroke"/>
<use x="484.00" y="216.00" xlink:href="#hd"/>
<path d="M487.50 216.00v-21.20" class="stroke"/>
<use x="507.00" y="213.00" xlink:href="#hd"/>
<path d="M510.50 213.00v-18.20" class="stroke"/>
<use x="530.10" y="219.00" xlink:href="#hd"/>
<path d="M533.60 219.00v-24.20" class="stroke"/>
<path class="fill"
	d="M564.10 193.80l69.80 0.00v3.20l-69.80 -0.00"/>
<use x="561.00" y="216.00" xlink:href="#hd"/>
<path d="M564.50 216.00v-21.20" class="stroke"/>
<use x="584.00" y="213.00" xlink:href="#hd"/>
<path d="M587.50 213.00v-18.20" class="stroke"/>
<use x="607.10" y="216.00" xlink:href="#hd"/>
<path d="M610.60 216.00v-21.20" class="stroke"/>
<use x="630.10" y="222.00" xlink:href="#hd"/>
<path d="M633.60 222.00v-27.20" class="stroke"/>
<use x="655.70" y="228.00" xlink:href="#Hd"/>
<path d="M659.20 228.00v-21.00" class="stroke"/>
</g>
<g stroke-width="0.70" style="font:20.00px Times">
<path class="stroke" stroke-width="1"
	d="M219.80 295.00v-24.00"/>
<path class="stroke" stroke-width="1"
	d="M392.00 295.00v-24.00"/>
<path class="stroke" stroke-width="1"
	d="M538.00 295.00v-24.00"/>
<path class="stroke" stroke-width="3"
	d="M690.10 295.00v-24.00"/>
<path class="stroke" stroke-width="1"
	d="M685.60 295.00v-24.00"/>
<path d="m10.00 295.00
	h681.60
	M10.00 289.00
	h681.60
	M10.00 283.00
	h681.60
	M10.00 277.00
	h681.60
	M10.00 271.00
	h681.60
	" class="stroke"/>
<use x="22.00" y="289.00" xlink:href="#tclef"/>
<use x="37.00" y="283.00" xlink:href="#ft0"/>
<use x="55.00" y="286.00" xlink:href="#hd"/>
<path d="M58.50 286.00v-21.00" class="stroke"/>
<use x="92.40" y="277.00" xlink:href="#hd"/>
<path d="M88.90 277.00v21.00" class="stroke"/>
<path class="fill"
	d="M125.90 295.20l72.20 0.00v-3.20l-72.20 -0.00"/>
<use x="129.80" y="277.00" xlink:href="#hd"/>
<path d="M126.30 277.00v17.20" class="stroke"/>
<use x="153.60" y="274.00" xlink:href="#hd"/>
<path d="M150.10 274.00v20.20" class="stroke"/>
<use x="177.40" y="271.00" xlink:href="#hd"/>
<path d="M173.90 271.00v23.20" class="stroke"/>
<use x="201.30" y="274.00" xlink:href="#hd"/>
<path d="M197.80 274.00v20.20" class="stroke"/>
<path class="fill"
	d="M229.30 298.00l72.20 0.00v-3.20l-72.20 -0.00"/>
<use x="233.10" y="277.00" xlink:href="#hd"/>
<path d="M229.60 277.00v20.00" class="stroke"/>
<use x="256.90" y="274.00" xlink:href="#hd"/>
<path d="M253.40 274.00v23.00" class="stroke"/>
<use x="280.80" y="277.00" xlink:href="#hd"/>
<path d="M277.30 277.00v20.00" class="stroke"/>
<use x="304.60" y="280.00" xlink:href="#hd"/>
<path d="M301.10 280.00v17.00" class="stroke"/>
<use x="328.40" y="286.00" xlink:href="#hd"/>
<path d="M331.90 286.00v-21.00" class="stroke"/>
<use x="365.80" y="286.00" xlink:href="#hd"/>
<path d="M369.30 286.00v-21.00" class="stroke"/>
<use x="405.30" y="289.00" xlink:href="#hd"/>
<circle class="fill" cx="413.00" cy="286.00" r="1.2"/>
<path d="M408.80 289.00v-21.00" class="stroke"/>
<use x="447.90" y="292.00" xlink:href="#hd"/>
<path d="M451.40 292.00v-21.00" class="stroke"/>
<path class="fill"
	d="M451.40 271.00c0.6 5.6 9.6 9 5.6 18.4
	1.6 -6 -1.3 -11.6 -5.6 -12.8
"/>
<use x="474.40" y="295.00" xlink:href="#hd"/>
<path d="M477.90 295.00v-21.00" class="stroke"/>
<use x="511.80" y="301.00" xlink:href="#hl"/>
<use x="511.80" y="301.00" xlink:href="#hd"/>
<path d="M515.30 301.00v-21.00" class="stroke"/>
<path class="fill"
	d="M554.50 274.00l72.20 0.00v3.20l-72.20 -0.00"/>
<use x="551.30" y="298.00" xlink:href="#hd"/>
<path d="M554.80 298.00v-23.00" class="stroke"/>
<use x="575.10" y="295.00" xlink:href="#hd"/>
<path d="M578.60 295.00v-20.00" class="stroke"/>
<use x="598.90" y="292.00" xlink:href="#hd"/>
<path d="M602.40 292.00v-17.00" class="stroke"/>
<use x="622.80" y="295.00" xlink:href="#hd"/>
<path d="M626.30 295.00v-20.00" class="stroke"/>
<use x="649.20" y="298.00" xlink:href="#Hd"/>
<path d="M652.70 298.00v-21.00" class="stroke"/>
</g>
</svg>
