<?xml version="1.0" standalone="no"?>
<!DOCTYPE svg PUBLIC "-//W3C//DTD SVG 1.1//EN"
	"http://www.w3.org/Graphics/SVG/1.1/DTD/svg11.dtd">
<svg xmlns="http://www.w3.org/2000/svg" version="1.1"
	xmlns:xlink="http://www.w3.org/1999/xlink"
	color="black"
	width="701.60px" height="528.00px">
<style type="text/css">
.fill {fill: currentColor}
.stroke {stroke: currentColor; fill: none}
text{white-space: pre}
</style>
<title>/media/tim/Data1/tims_code/sphinx-tunes/source/_abcfiles/rats.abc (4) tune 4</title>
<!-- Creator: abcm2ps-8.14.6 -->
<!-- CreationDate: Jul 30, 2023 12:21 -->
<!-- CommandLine: -g /media/tim/Data1/tims_code/sphinx-tunes/source/_abcfiles/rats.abc -O /media/tim/Data1/tims_code/sphinx-tunes/source/_abcfiles/rats.svg -->
<g stroke-width="0.70">
<!-- title: Dance of the Gasket Rats -->
</g>
<g stroke-width="0.70" style="font:20.00px Times">
<text x="350.80" y="22.00" text-anchor="middle">Dance of the Gasket Rats</text>
</g>
<g stroke-width="0.70" style="font:20.00px Times">
<path class="stroke" stroke-width="1"
	d="M197.80 85.00v-24.00"/>
<path class="stroke" stroke-width="1"
	d="M349.50 85.00v-24.00"/>
<path class="stroke" stroke-width="1"
	d="M512.40 85.00v-24.00"/>
<path class="stroke" stroke-width="1"
	d="M691.60 85.00v-24.00"/>
<path d="m10.00 85.00
	h681.60
	M10.00 79.00
	h681.60
	M10.00 73.00
	h681.60
	M10.00 67.00
	h681.60
	M10.00 61.00
	h681.60
	" class="stroke"/>
<defs>
<path id="utclef" class="fill" d="m-50 -90
	c-72 -41 -72 -158 52 -188
	150 -10 220 188 90 256
	-114 52 -275 0 -293 -136
	-15 -181 93 -229 220 -334
	88 -87 79 -133 62 -210
	-51 33 -94 105 -89 186
	17 267 36 374 49 574
	6 96 -19 134 -77 135
	-80 1 -126 -93 -61 -133
	85 -41 133 101 31 105
	23 17 92 37 90 -92
	-10 -223 -39 -342 -50 -617
	0 -90 0 -162 96 -232
	56 72 63 230 22 289
	-74 106 -257 168 -255 316
	9 153 148 185 252 133
	86 -65 29 -192 -80 -176
	-71 12 -105 67 -59 124"/>
<use id="tclef" transform="translate(0,6) scale(0.045)"
	xlink:href="#utclef"/>
</defs>
<use x="22.00" y="79.00" xlink:href="#tclef"/>
<g style="font:bold 16px serif"
	transform="translate(40.50,84.50) scale(1.2,1)">
	<text text-anchor="middle">4</text>
	<text y="-12" text-anchor="middle">4</text>
</g>
<path class="fill"
	d="M61.70 58.00l57.70 0.00v3.20l-57.70 -0.00"/>
<defs>
<ellipse id="hd" rx="4.1" ry="2.9"
	transform="rotate(-20)" class="fill"/>
</defs>
<use x="58.50" y="85.00" xlink:href="#hd"/>
<path d="M62.00 85.00v-26.00" class="stroke"/>
<use x="77.50" y="76.00" xlink:href="#hd"/>
<path d="M81.00 76.00v-17.00" class="stroke"/>
<use x="96.50" y="76.00" xlink:href="#hd"/>
<path d="M100.00 76.00v-17.00" class="stroke"/>
<use x="115.50" y="79.00" xlink:href="#hd"/>
<path d="M119.00 79.00v-20.00" class="stroke"/>
<path class="fill"
	d="M139.80 54.70l19.70 -2.40v3.20l-19.70 2.40"/>
<use x="136.60" y="76.00" xlink:href="#hd"/>
<path d="M140.10 76.00v-20.40" class="stroke"/>
<use x="155.60" y="73.00" xlink:href="#hd"/>
<path d="M159.10 73.00v-19.60" class="stroke"/>
<use x="176.80" y="70.00" xlink:href="#hd"/>
<path d="M173.30 70.00v21.00" class="stroke"/>
<path class="fill"
	d="M213.50 57.10l57.70 -6.40v3.20l-57.70 6.40"/>
<use x="210.30" y="85.00" xlink:href="#hd"/>
<path d="M213.80 85.00v-26.90" class="stroke"/>
<use x="229.30" y="76.00" xlink:href="#hd"/>
<path d="M232.80 76.00v-20.00" class="stroke"/>
<use x="248.40" y="76.00" xlink:href="#hd"/>
<path d="M251.90 76.00v-22.10" class="stroke"/>
<use x="267.40" y="70.00" xlink:href="#hd"/>
<path d="M270.90 70.00v-18.20" class="stroke"/>
<path class="fill"
	d="M291.60 53.10l19.70 3.80v3.20l-19.70 -3.80"/>
<use x="288.40" y="73.00" xlink:href="#hd"/>
<path d="M291.90 73.00v-18.80" class="stroke"/>
<use x="307.40" y="79.00" xlink:href="#hd"/>
<path d="M310.90 79.00v-21.20" class="stroke"/>
<use x="328.50" y="85.00" xlink:href="#hd"/>
<path d="M332.00 85.00v-21.00" class="stroke"/>
<path class="fill"
	d="M365.20 58.00l57.70 0.00v3.20l-57.70 -0.00"/>
<use x="362.00" y="85.00" xlink:href="#hd"/>
<path d="M365.50 85.00v-26.00" class="stroke"/>
<use x="381.10" y="76.00" xlink:href="#hd"/>
<path d="M384.60 76.00v-17.00" class="stroke"/>
<use x="400.10" y="76.00" xlink:href="#hd"/>
<path d="M403.60 76.00v-17.00" class="stroke"/>
<use x="419.10" y="79.00" xlink:href="#hd"/>
<path d="M422.60 79.00v-20.00" class="stroke"/>
<path class="fill"
	d="M436.40 96.00l57.70 -6.90v-3.20l-57.70 6.90"/>
<use x="440.30" y="76.00" xlink:href="#hd"/>
<path d="M436.80 76.00v18.90" class="stroke"/>
<use x="459.30" y="73.00" xlink:href="#hd"/>
<path d="M455.80 73.00v19.60" class="stroke"/>
<use x="478.30" y="70.00" xlink:href="#hd"/>
<path d="M474.80 70.00v20.40" class="stroke"/>
<use x="497.30" y="67.00" xlink:href="#hd"/>
<path d="M493.80 67.00v21.10" class="stroke"/>
<path class="fill"
	d="M521.00 85.70l38.70 4.60v-3.20l-38.70 -4.60"/>
<use x="524.90" y="64.00" xlink:href="#hd"/>
<path d="M521.40 64.00v20.70" class="stroke"/>
<use x="543.90" y="67.00" xlink:href="#hd"/>
<path d="M540.40 67.00v20.00" class="stroke"/>
<use x="562.90" y="70.00" xlink:href="#hd"/>
<path d="M559.40 70.00v19.30" class="stroke"/>
<path class="fill"
	d="M585.00 52.70l38.70 4.60v3.20l-38.70 -4.60"/>
<use x="581.90" y="73.00" xlink:href="#hd"/>
<path d="M585.40 73.00v-19.30" class="stroke"/>
<use x="600.90" y="76.00" xlink:href="#hd"/>
<path d="M604.40 76.00v-20.00" class="stroke"/>
<use x="619.90" y="79.00" xlink:href="#hd"/>
<path d="M623.40 79.00v-20.70" class="stroke"/>
<use x="641.00" y="76.00" xlink:href="#hd"/>
<path d="M644.50 76.00v-21.00" class="stroke"/>
<use x="670.60" y="76.00" xlink:href="#hd"/>
<path d="M674.10 76.00v-21.00" class="stroke"/>
</g>
<g stroke-width="0.70" style="font:20.00px Times">
<path class="stroke" stroke-width="1"
	d="M190.50 155.00v-24.00"/>
<path class="stroke" stroke-width="1"
	d="M347.10 155.00v-24.00"/>
<path class="stroke" stroke-width="1"
	d="M503.60 155.00v-24.00"/>
<path class="stroke" stroke-width="1"
	d="M691.60 155.00v-24.00"/>
<path class="stroke" stroke-width="1"
	d="M688.60 155.00v-24.00"/>
<path d="m10.00 155.00
	h681.60
	M10.00 149.00
	h681.60
	M10.00 143.00
	h681.60
	M10.00 137.00
	h681.60
	M10.00 131.00
	h681.60
	" class="stroke"/>
<use x="22.00" y="149.00" xlink:href="#tclef"/>
<path class="fill"
	d="M42.70 152.00l59.70 0.00v-3.20l-59.70 -0.00"/>
<use x="46.50" y="134.00" xlink:href="#hd"/>
<path d="M43.00 134.00v17.00" class="stroke"/>
<defs>
<path id="hl" class="stroke" d="m-6 0h12"/>
</defs>
<use x="66.10" y="125.00" xlink:href="#hl"/>
<use x="66.10" y="125.00" xlink:href="#hd"/>
<path d="M62.60 125.00v26.00" class="stroke"/>
<use x="85.90" y="125.00" xlink:href="#hl"/>
<use x="85.90" y="125.00" xlink:href="#hd"/>
<path d="M82.40 125.00v26.00" class="stroke"/>
<use x="105.50" y="128.00" xlink:href="#hd"/>
<path d="M102.00 128.00v23.00" class="stroke"/>
<path class="fill"
	d="M123.50 145.70l20.40 -2.40v-3.20l-20.40 2.40"/>
<use x="127.30" y="125.00" xlink:href="#hl"/>
<use x="127.30" y="125.00" xlink:href="#hd"/>
<path d="M123.80 125.00v19.60" class="stroke"/>
<use x="147.00" y="125.00" xlink:href="#hl"/>
<use x="147.00" y="122.00" xlink:href="#hd"/>
<path d="M143.50 122.00v20.40" class="stroke"/>
<use x="168.90" y="125.00" xlink:href="#hl"/>
<use x="168.90" y="119.00" xlink:href="#hl"/>
<use x="168.90" y="119.00" xlink:href="#hd"/>
<path d="M165.40 119.00v24.00" class="stroke"/>
<path class="fill"
	d="M199.20 153.20l59.70 -5.40v-3.20l-59.70 5.40"/>
<use x="203.00" y="134.00" xlink:href="#hd"/>
<path d="M199.50 134.00v18.20" class="stroke"/>
<use x="222.70" y="125.00" xlink:href="#hl"/>
<use x="222.70" y="125.00" xlink:href="#hd"/>
<path d="M219.20 125.00v25.40" class="stroke"/>
<use x="242.40" y="125.00" xlink:href="#hl"/>
<use x="242.40" y="125.00" xlink:href="#hd"/>
<path d="M238.90 125.00v23.70" class="stroke"/>
<use x="262.10" y="125.00" xlink:href="#hl"/>
<use x="262.10" y="119.00" xlink:href="#hl"/>
<use x="262.10" y="119.00" xlink:href="#hd"/>
<path d="M258.60 119.00v27.90" class="stroke"/>
<path class="fill"
	d="M280.10 144.10l20.30 3.90v-3.20l-20.30 -3.90"/>
<use x="284.00" y="125.00" xlink:href="#hl"/>
<use x="284.00" y="122.00" xlink:href="#hd"/>
<path d="M280.50 122.00v21.10" class="stroke"/>
<use x="303.60" y="128.00" xlink:href="#hd"/>
<path d="M300.10 128.00v18.90" class="stroke"/>
<use x="325.40" y="134.00" xlink:href="#hd"/>
<path d="M321.90 134.00v21.00" class="stroke"/>
<path class="fill"
	d="M355.80 152.00l59.70 0.00v-3.20l-59.70 -0.00"/>
<use x="359.60" y="134.00" xlink:href="#hd"/>
<path d="M356.10 134.00v17.00" class="stroke"/>
<use x="379.20" y="125.00" xlink:href="#hl"/>
<use x="379.20" y="125.00" xlink:href="#hd"/>
<path d="M375.70 125.00v26.00" class="stroke"/>
<use x="399.00" y="125.00" xlink:href="#hl"/>
<use x="399.00" y="125.00" xlink:href="#hd"/>
<path d="M395.50 125.00v26.00" class="stroke"/>
<use x="418.60" y="128.00" xlink:href="#hd"/>
<path d="M415.10 128.00v23.00" class="stroke"/>
<path class="fill"
	d="M436.60 145.70l20.40 -2.40v-3.20l-20.40 2.40"/>
<use x="440.40" y="125.00" xlink:href="#hl"/>
<use x="440.40" y="125.00" xlink:href="#hd"/>
<path d="M436.90 125.00v19.60" class="stroke"/>
<use x="460.10" y="125.00" xlink:href="#hl"/>
<use x="460.10" y="122.00" xlink:href="#hd"/>
<path d="M456.60 122.00v20.40" class="stroke"/>
<use x="482.00" y="125.00" xlink:href="#hl"/>
<use x="482.00" y="119.00" xlink:href="#hl"/>
<use x="482.00" y="119.00" xlink:href="#hd"/>
<path d="M478.50 119.00v24.00" class="stroke"/>
<path class="fill"
	d="M512.30 155.70l40.00 4.70v-3.20l-40.00 -4.70"/>
<use x="516.10" y="134.00" xlink:href="#hd"/>
<path d="M512.60 134.00v20.70" class="stroke"/>
<use x="535.80" y="137.00" xlink:href="#hd"/>
<path d="M532.30 137.00v20.00" class="stroke"/>
<use x="555.40" y="140.00" xlink:href="#hd"/>
<path d="M551.90 140.00v19.30" class="stroke"/>
<path class="fill"
	d="M578.30 122.70l40.00 4.70v3.20l-40.00 -4.70"/>
<use x="575.10" y="143.00" xlink:href="#hd"/>
<path d="M578.60 143.00v-19.30" class="stroke"/>
<use x="594.70" y="146.00" xlink:href="#hd"/>
<path d="M598.20 146.00v-20.00" class="stroke"/>
<use x="614.40" y="149.00" xlink:href="#hd"/>
<path d="M617.90 149.00v-20.70" class="stroke"/>
<use x="636.20" y="146.00" xlink:href="#hd"/>
<path d="M639.70 146.00v-21.00" class="stroke"/>
<use x="666.90" y="146.00" xlink:href="#hd"/>
<path d="M670.40 146.00v-21.00" class="stroke"/>
</g>
<g stroke-width="0.70" style="font:20.00px Times">
<path class="stroke" stroke-width="1"
	d="M197.80 225.00v-24.00"/>
<path class="stroke" stroke-width="1"
	d="M364.00 225.00v-24.00"/>
<path class="stroke" stroke-width="1"
	d="M527.80 225.00v-24.00"/>
<path class="stroke" stroke-width="1"
	d="M691.60 225.00v-24.00"/>
<path d="m10.00 225.00
	h681.60
	M10.00 219.00
	h681.60
	M10.00 213.00
	h681.60
	M10.00 207.00
	h681.60
	M10.00 201.00
	h681.60
	" class="stroke"/>
<use x="22.00" y="219.00" xlink:href="#tclef"/>
<path class="fill"
	d="M42.70 235.20l63.60 0.00v-3.20l-63.60 -0.00"/>
<use x="46.50" y="207.00" xlink:href="#hd"/>
<path d="M43.00 207.00v27.20" class="stroke"/>
<use x="67.50" y="216.00" xlink:href="#hd"/>
<path d="M64.00 216.00v18.20" class="stroke"/>
<use x="88.50" y="216.00" xlink:href="#hd"/>
<path d="M85.00 216.00v18.20" class="stroke"/>
<use x="109.40" y="207.00" xlink:href="#hd"/>
<path d="M105.90 207.00v27.20" class="stroke"/>
<path class="fill"
	d="M128.90 231.30l21.70 2.40v-3.20l-21.70 -2.40"/>
<use x="132.70" y="210.00" xlink:href="#hd"/>
<path d="M129.20 210.00v20.30" class="stroke"/>
<use x="153.70" y="213.00" xlink:href="#hd"/>
<path d="M150.20 213.00v19.70" class="stroke"/>
<use x="174.70" y="216.00" xlink:href="#hd"/>
<path d="M178.20 216.00v-21.00" class="stroke"/>
<path class="fill"
	d="M213.50 198.00l63.60 0.00v3.20l-63.60 -0.00"/>
<use x="210.30" y="216.00" xlink:href="#hd"/>
<path d="M213.80 216.00v-17.00" class="stroke"/>
<use x="231.30" y="225.00" xlink:href="#hd"/>
<path d="M234.80 225.00v-26.00" class="stroke"/>
<use x="252.30" y="225.00" xlink:href="#hd"/>
<path d="M255.80 225.00v-26.00" class="stroke"/>
<use x="273.30" y="216.00" xlink:href="#hd"/>
<path d="M276.80 216.00v-17.00" class="stroke"/>
<path class="fill"
	d="M299.70 198.30l21.70 2.40v3.20l-21.70 -2.40"/>
<use x="296.60" y="219.00" xlink:href="#hd"/>
<path d="M300.10 219.00v-19.70" class="stroke"/>
<use x="317.50" y="222.00" xlink:href="#hd"/>
<path d="M321.00 222.00v-20.30" class="stroke"/>
<use x="340.80" y="225.00" xlink:href="#hd"/>
<path d="M344.30 225.00v-21.00" class="stroke"/>
<path class="fill"
	d="M372.60 235.20l63.60 0.00v-3.20l-63.60 -0.00"/>
<use x="376.50" y="207.00" xlink:href="#hd"/>
<path d="M373.00 207.00v27.20" class="stroke"/>
<use x="397.40" y="216.00" xlink:href="#hd"/>
<path d="M393.90 216.00v18.20" class="stroke"/>
<use x="418.40" y="216.00" xlink:href="#hd"/>
<path d="M414.90 216.00v18.20" class="stroke"/>
<use x="439.40" y="207.00" xlink:href="#hd"/>
<path d="M435.90 207.00v27.20" class="stroke"/>
<path class="fill"
	d="M458.80 231.30l21.70 2.40v-3.20l-21.70 -2.40"/>
<use x="462.70" y="210.00" xlink:href="#hd"/>
<path d="M459.20 210.00v20.30" class="stroke"/>
<use x="483.70" y="213.00" xlink:href="#hd"/>
<path d="M480.20 213.00v19.70" class="stroke"/>
<use x="504.70" y="216.00" xlink:href="#hd"/>
<path d="M508.20 216.00v-21.00" class="stroke"/>
<path class="fill"
	d="M536.40 222.40l63.60 6.90v-3.20l-63.60 -6.90"/>
<use x="540.30" y="195.00" xlink:href="#hl"/>
<use x="540.30" y="195.00" xlink:href="#hd"/>
<path d="M536.80 195.00v26.40" class="stroke"/>
<use x="561.30" y="204.00" xlink:href="#hd"/>
<path d="M557.80 204.00v19.70" class="stroke"/>
<use x="582.20" y="207.00" xlink:href="#hd"/>
<path d="M578.70 207.00v18.90" class="stroke"/>
<use x="603.20" y="210.00" xlink:href="#hd"/>
<path d="M599.70 210.00v18.20" class="stroke"/>
<path class="fill"
	d="M622.70 233.70l21.70 -2.40v-3.20l-21.70 2.40"/>
<use x="626.50" y="213.00" xlink:href="#hd"/>
<path d="M623.00 213.00v19.70" class="stroke"/>
<use x="647.50" y="210.00" xlink:href="#hd"/>
<path d="M644.00 210.00v20.30" class="stroke"/>
<use x="668.50" y="216.00" xlink:href="#hd"/>
<path d="M672.00 216.00v-21.00" class="stroke"/>
</g>
<g stroke-width="0.70" style="font:20.00px Times">
<path class="stroke" stroke-width="1"
	d="M195.70 295.00v-24.00"/>
<path class="stroke" stroke-width="1"
	d="M371.60 295.00v-24.00"/>
<path class="stroke" stroke-width="1"
	d="M535.70 295.00v-24.00"/>
<path class="stroke" stroke-width="1"
	d="M691.60 295.00v-24.00"/>
<path class="stroke" stroke-width="1"
	d="M688.60 295.00v-24.00"/>
<path d="m10.00 295.00
	h681.60
	M10.00 289.00
	h681.60
	M10.00 283.00
	h681.60
	M10.00 277.00
	h681.60
	M10.00 271.00
	h681.60
	" class="stroke"/>
<use x="22.00" y="289.00" xlink:href="#tclef"/>
<path class="fill"
	d="M42.70 305.20l62.80 0.00v-3.20l-62.80 -0.00"/>
<use x="46.50" y="277.00" xlink:href="#hd"/>
<path d="M43.00 277.00v27.20" class="stroke"/>
<use x="67.20" y="286.00" xlink:href="#hd"/>
<path d="M63.70 286.00v18.20" class="stroke"/>
<use x="87.90" y="286.00" xlink:href="#hd"/>
<path d="M84.40 286.00v18.20" class="stroke"/>
<use x="108.60" y="277.00" xlink:href="#hd"/>
<path d="M105.10 277.00v27.20" class="stroke"/>
<path class="fill"
	d="M127.70 301.30l21.40 2.40v-3.20l-21.40 -2.40"/>
<use x="131.50" y="280.00" xlink:href="#hd"/>
<path d="M128.00 280.00v20.30" class="stroke"/>
<use x="152.20" y="283.00" xlink:href="#hd"/>
<path d="M148.70 283.00v19.70" class="stroke"/>
<use x="172.90" y="286.00" xlink:href="#hd"/>
<path d="M176.40 286.00v-21.00" class="stroke"/>
<path class="fill"
	d="M211.40 276.00l62.80 -7.10v3.20l-62.80 7.10"/>
<use x="208.20" y="298.00" xlink:href="#hd"/>
<path d="M211.70 298.00v-21.00" class="stroke"/>
<use x="228.90" y="295.00" xlink:href="#hd"/>
<path d="M232.40 295.00v-20.30" class="stroke"/>
<use x="249.60" y="292.00" xlink:href="#hd"/>
<path d="M253.10 292.00v-19.70" class="stroke"/>
<use x="270.30" y="289.00" xlink:href="#hd"/>
<path d="M273.80 289.00v-19.00" class="stroke"/>
<path class="fill"
	d="M296.40 270.80l62.80 0.00v3.20l-62.80 -0.00"/>
<use x="293.30" y="298.00" xlink:href="#hd"/>
<path d="M296.80 298.00v-26.20" class="stroke"/>
<use x="314.00" y="289.00" xlink:href="#hd"/>
<path d="M317.50 289.00v-17.20" class="stroke"/>
<use x="334.60" y="292.00" xlink:href="#hd"/>
<path d="M338.10 292.00v-20.20" class="stroke"/>
<use x="355.30" y="295.00" xlink:href="#hd"/>
<path d="M358.80 295.00v-23.20" class="stroke"/>
<path class="fill"
	d="M387.20 280.00l62.80 0.00v3.20l-62.80 -0.00"/>
<use x="384.10" y="298.00" xlink:href="#hd"/>
<path d="M387.60 298.00v-17.00" class="stroke"/>
<use x="404.80" y="301.00" xlink:href="#hl"/>
<use x="404.80" y="307.00" xlink:href="#hl"/>
<use x="404.80" y="307.00" xlink:href="#hd"/>
<path d="M408.30 307.00v-26.00" class="stroke"/>
<use x="425.50" y="301.00" xlink:href="#hl"/>
<use x="425.50" y="307.00" xlink:href="#hl"/>
<use x="425.50" y="307.00" xlink:href="#hd"/>
<path d="M429.00 307.00v-26.00" class="stroke"/>
<use x="446.20" y="298.00" xlink:href="#hd"/>
<path d="M449.70 298.00v-17.00" class="stroke"/>
<path class="fill"
	d="M472.30 280.30l21.40 2.40v3.20l-21.40 -2.40"/>
<use x="469.10" y="301.00" xlink:href="#hl"/>
<use x="469.10" y="301.00" xlink:href="#hd"/>
<path d="M472.60 301.00v-19.70" class="stroke"/>
<use x="489.90" y="301.00" xlink:href="#hl"/>
<use x="489.90" y="304.00" xlink:href="#hd"/>
<path d="M493.40 304.00v-20.30" class="stroke"/>
<use x="512.90" y="301.00" xlink:href="#hl"/>
<use x="512.90" y="307.00" xlink:href="#hl"/>
<use x="512.90" y="307.00" xlink:href="#hd"/>
<path d="M516.40 307.00v-24.00" class="stroke"/>
<path class="fill"
	d="M551.30 276.00l62.80 -7.10v3.20l-62.80 7.10"/>
<use x="548.20" y="298.00" xlink:href="#hd"/>
<path d="M551.70 298.00v-21.00" class="stroke"/>
<use x="568.90" y="295.00" xlink:href="#hd"/>
<path d="M572.40 295.00v-20.30" class="stroke"/>
<use x="589.60" y="292.00" xlink:href="#hd"/>
<path d="M593.10 292.00v-19.70" class="stroke"/>
<use x="610.30" y="289.00" xlink:href="#hd"/>
<path d="M613.80 289.00v-19.00" class="stroke"/>
<use x="633.20" y="298.00" xlink:href="#hd"/>
<path d="M636.70 298.00v-21.00" class="stroke"/>
<use x="665.60" y="298.00" xlink:href="#hd"/>
<path d="M669.10 298.00v-21.00" class="stroke"/>
</g>
<g stroke-width="0.70" style="font:20.00px Times">
<path class="stroke" stroke-width="1"
	d="M211.50 365.00v-24.00"/>
<path class="stroke" stroke-width="1"
	d="M389.00 365.00v-24.00"/>
<path class="stroke" stroke-width="1"
	d="M534.00 365.00v-24.00"/>
<path class="stroke" stroke-width="3"
	d="M690.10 365.00v-24.00"/>
<path class="stroke" stroke-width="1"
	d="M685.60 365.00v-24.00"/>
<defs>
<g id="rdots" class="fill">
	<circle cx="0" cy="-9" r="1.2"/>
	<circle cx="0" cy="-15" r="1.2"/>
</g>
</defs>
<use x="681.60" y="365.00" xlink:href="#rdots"/>
<path d="m10.00 365.00
	h681.60
	M10.00 359.00
	h681.60
	M10.00 353.00
	h681.60
	M10.00 347.00
	h681.60
	M10.00 341.00
	h681.60
	" class="stroke"/>
<use x="22.00" y="359.00" xlink:href="#tclef"/>
<path class="fill"
	d="M49.70 349.00l63.40 -7.10v3.20l-63.40 7.10"/>
<use x="46.50" y="371.00" xlink:href="#hl"/>
<use x="46.50" y="371.00" xlink:href="#hd"/>
<path d="M50.00 371.00v-21.00" class="stroke"/>
<use x="67.40" y="368.00" xlink:href="#hd"/>
<path d="M70.90 368.00v-20.30" class="stroke"/>
<use x="88.30" y="365.00" xlink:href="#hd"/>
<path d="M91.80 365.00v-19.70" class="stroke"/>
<use x="109.20" y="362.00" xlink:href="#hd"/>
<path d="M112.70 362.00v-19.00" class="stroke"/>
<path class="fill"
	d="M135.50 340.80l63.40 0.00v3.20l-63.40 -0.00"/>
<use x="132.40" y="359.00" xlink:href="#hd"/>
<path d="M135.90 359.00v-17.20" class="stroke"/>
<use x="153.30" y="368.00" xlink:href="#hd"/>
<path d="M156.80 368.00v-26.20" class="stroke"/>
<use x="174.20" y="359.00" xlink:href="#hd"/>
<path d="M177.70 359.00v-17.20" class="stroke"/>
<use x="195.10" y="368.00" xlink:href="#hd"/>
<path d="M198.60 368.00v-26.20" class="stroke"/>
<path class="fill"
	d="M227.10 340.00l63.40 -7.10v3.20l-63.40 7.10"/>
<use x="224.00" y="362.00" xlink:href="#hd"/>
<path d="M227.50 362.00v-21.00" class="stroke"/>
<use x="244.90" y="359.00" xlink:href="#hd"/>
<path d="M248.40 359.00v-20.30" class="stroke"/>
<use x="265.80" y="356.00" xlink:href="#hd"/>
<path d="M269.30 356.00v-19.70" class="stroke"/>
<use x="286.60" y="353.00" xlink:href="#hd"/>
<path d="M290.10 353.00v-19.00" class="stroke"/>
<path class="fill"
	d="M306.10 368.00l63.40 0.00v-3.20l-63.40 -0.00"/>
<use x="309.90" y="350.00" xlink:href="#hd"/>
<path d="M306.40 350.00v17.00" class="stroke"/>
<use x="330.80" y="344.00" xlink:href="#hd"/>
<path d="M327.30 344.00v23.00" class="stroke"/>
<use x="351.70" y="347.00" xlink:href="#hd"/>
<path d="M348.20 347.00v20.00" class="stroke"/>
<use x="372.60" y="350.00" xlink:href="#hd"/>
<path d="M369.10 350.00v17.00" class="stroke"/>
<path class="fill"
	d="M404.60 338.00l21.60 0.00v3.20l-21.60 -0.00"/>
<use x="401.50" y="359.00" xlink:href="#hd"/>
<path d="M405.00 359.00v-20.00" class="stroke"/>
<use x="422.40" y="359.00" xlink:href="#hd"/>
<path d="M425.90 359.00v-20.00" class="stroke"/>
<use x="445.60" y="353.00" xlink:href="#hd"/>
<path d="M449.10 353.00v-21.00" class="stroke"/>
<use x="478.30" y="347.00" xlink:href="#hd"/>
<path d="M474.80 347.00v21.00" class="stroke"/>
<use x="511.00" y="353.00" xlink:href="#hd"/>
<path d="M507.50 353.00v21.00" class="stroke"/>
<path class="fill"
	d="M542.70 372.20l63.40 0.00v-3.20l-63.40 -0.00"/>
<use x="546.50" y="350.00" xlink:href="#hd"/>
<path d="M543.00 350.00v21.20" class="stroke"/>
<use x="567.40" y="344.00" xlink:href="#hd"/>
<path d="M563.90 344.00v27.20" class="stroke"/>
<use x="588.30" y="347.00" xlink:href="#hd"/>
<path d="M584.80 347.00v24.20" class="stroke"/>
<use x="609.20" y="353.00" xlink:href="#hd"/>
<path d="M605.70 353.00v18.20" class="stroke"/>
<use x="632.40" y="350.00" xlink:href="#hd"/>
<path d="M628.90 350.00v21.00" class="stroke"/>
<use x="665.10" y="350.00" xlink:href="#hd"/>
<path d="M661.60 350.00v21.00" class="stroke"/>
</g>
<g stroke-width="0.70" style="font:20.00px Times">
<path class="stroke" stroke-width="1"
	d="M230.60 435.00v-24.00"/>
<path class="stroke" stroke-width="1"
	d="M375.50 435.00v-24.00"/>
<path class="stroke" stroke-width="1"
	d="M546.70 435.00v-24.00"/>
<path class="stroke" stroke-width="1"
	d="M691.60 435.00v-24.00"/>
<path d="m10.00 435.00
	h681.60
	M10.00 429.00
	h681.60
	M10.00 423.00
	h681.60
	M10.00 417.00
	h681.60
	M10.00 411.00
	h681.60
	" class="stroke"/>
<use x="22.00" y="429.00" xlink:href="#tclef"/>
<path class="fill"
	d="M49.70 412.40l70.70 -3.90v3.20l-70.70 3.90"/>
<use x="46.50" y="441.00" xlink:href="#hl"/>
<use x="46.50" y="441.00" xlink:href="#hd"/>
<path d="M50.00 441.00v-27.60" class="stroke"/>
<use x="69.80" y="435.00" xlink:href="#hd"/>
<path d="M73.30 435.00v-22.90" class="stroke"/>
<use x="93.20" y="429.00" xlink:href="#hd"/>
<path d="M96.70 429.00v-18.20" class="stroke"/>
<use x="116.50" y="435.00" xlink:href="#hd"/>
<path d="M120.00 435.00v-25.50" class="stroke"/>
<path class="fill"
	d="M145.60 409.40l70.70 -3.90v3.20l-70.70 3.90"/>
<use x="142.40" y="438.00" xlink:href="#hd"/>
<path d="M145.90 438.00v-27.60" class="stroke"/>
<use x="165.80" y="432.00" xlink:href="#hd"/>
<path d="M169.30 432.00v-22.90" class="stroke"/>
<use x="189.10" y="426.00" xlink:href="#hd"/>
<path d="M192.60 426.00v-18.20" class="stroke"/>
<use x="212.40" y="432.00" xlink:href="#hd"/>
<path d="M215.90 432.00v-25.50" class="stroke"/>
<use x="243.60" y="417.00" xlink:href="#hd"/>
<path d="M240.10 417.00v21.00" class="stroke"/>
<use x="276.60" y="426.00" xlink:href="#hd"/>
<path d="M280.10 426.00v-21.00" class="stroke"/>
<use x="313.20" y="432.00" xlink:href="#hd"/>
<path d="M316.70 432.00v-21.00" class="stroke"/>
<use x="349.80" y="438.00" xlink:href="#hd"/>
<path d="M353.30 438.00v-21.00" class="stroke"/>
<path class="fill"
	d="M391.70 412.40l70.70 -3.90v3.20l-70.70 3.90"/>
<use x="388.50" y="441.00" xlink:href="#hl"/>
<use x="388.50" y="441.00" xlink:href="#hd"/>
<path d="M392.00 441.00v-27.60" class="stroke"/>
<use x="411.90" y="435.00" xlink:href="#hd"/>
<path d="M415.40 435.00v-22.90" class="stroke"/>
<use x="435.20" y="429.00" xlink:href="#hd"/>
<path d="M438.70 429.00v-18.20" class="stroke"/>
<use x="458.50" y="435.00" xlink:href="#hd"/>
<path d="M462.00 435.00v-25.50" class="stroke"/>
<use x="484.40" y="438.00" xlink:href="#hd"/>
<path d="M487.90 438.00v-21.00" class="stroke"/>
<use x="521.10" y="438.00" xlink:href="#hd"/>
<path d="M524.60 438.00v-21.00" class="stroke"/>
<use x="559.70" y="417.00" xlink:href="#hd"/>
<path d="M556.20 417.00v21.00" class="stroke"/>
<use x="592.70" y="426.00" xlink:href="#hd"/>
<path d="M596.20 426.00v-21.00" class="stroke"/>
<use x="629.30" y="432.00" xlink:href="#hd"/>
<path d="M632.80 432.00v-21.00" class="stroke"/>
<use x="665.90" y="438.00" xlink:href="#hd"/>
<path d="M669.40 438.00v-21.00" class="stroke"/>
</g>
<g stroke-width="0.70" style="font:20.00px Times">
<path class="stroke" stroke-width="1"
	d="M245.00 505.00v-24.00"/>
<path class="stroke" stroke-width="1"
	d="M472.30 505.00v-24.00"/>
<path class="stroke" stroke-width="3"
	d="M690.10 505.00v-24.00"/>
<path class="stroke" stroke-width="1"
	d="M685.60 505.00v-24.00"/>
<path d="m10.00 505.00
	h681.60
	M10.00 499.00
	h681.60
	M10.00 493.00
	h681.60
	M10.00 487.00
	h681.60
	M10.00 481.00
	h681.60
	" class="stroke"/>
<use x="22.00" y="499.00" xlink:href="#tclef"/>
<path class="fill"
	d="M49.70 484.00l88.50 0.00v3.20l-88.50 -0.00"/>
<use x="46.50" y="502.00" xlink:href="#hd"/>
<path d="M50.00 502.00v-17.00" class="stroke"/>
<use x="75.80" y="508.00" xlink:href="#hd"/>
<path d="M79.30 508.00v-23.00" class="stroke"/>
<use x="105.00" y="508.00" xlink:href="#hd"/>
<path d="M108.50 508.00v-23.00" class="stroke"/>
<use x="134.30" y="502.00" xlink:href="#hd"/>
<path d="M137.80 502.00v-17.00" class="stroke"/>
<use x="166.80" y="499.00" xlink:href="#hd"/>
<defs>
<path id="usharp" class="fill" d="
	m136 -702
	v890
	h32
	v-890
	m128 840
	h32
	v-888
	h-32
	m-232 286
	v116
	l338 -96
	v-116
	m-338 442
	v116
	l338 -98
	v-114"/>
<use id="sh0" transform="translate(-4,5) scale(0.018)"
	xlink:href="#usharp"/>
</defs>
<use x="157.80" y="499.00" xlink:href="#sh0"/>
<path d="M170.30 499.00v-21.00" class="stroke"/>
<use x="212.80" y="496.00" xlink:href="#hd"/>
<path d="M216.30 496.00v-21.00" class="stroke"/>
<path class="fill"
	d="M257.40 515.20l88.50 0.00v-3.20l-88.50 -0.00"/>
<use x="261.20" y="487.00" xlink:href="#hd"/>
<path d="M257.70 487.00v27.20" class="stroke"/>
<use x="290.50" y="496.00" xlink:href="#hd"/>
<path d="M287.00 496.00v18.20" class="stroke"/>
<use x="319.80" y="487.00" xlink:href="#hd"/>
<path d="M316.30 487.00v27.20" class="stroke"/>
<use x="349.00" y="496.00" xlink:href="#hd"/>
<path d="M345.50 496.00v18.20" class="stroke"/>
<path class="fill"
	d="M377.70 510.80l29.90 -2.50v-3.20l-29.90 2.50"/>
<use x="381.60" y="490.00" xlink:href="#hd"/>
<path d="M378.10 490.00v19.70" class="stroke"/>
<use x="410.80" y="487.00" xlink:href="#hd"/>
<path d="M407.30 487.00v20.30" class="stroke"/>
<use x="440.10" y="496.00" xlink:href="#hd"/>
<path d="M443.60 496.00v-21.00" class="stroke"/>
<path class="fill"
	d="M491.70 484.00l88.50 0.00v3.20l-88.50 -0.00"/>
<use x="488.50" y="502.00" xlink:href="#hd"/>
<path d="M492.00 502.00v-17.00" class="stroke"/>
<use x="517.80" y="508.00" xlink:href="#hd"/>
<path d="M521.30 508.00v-23.00" class="stroke"/>
<use x="547.10" y="505.00" xlink:href="#hd"/>
<path d="M550.60 505.00v-20.00" class="stroke"/>
<use x="576.30" y="502.00" xlink:href="#hd"/>
<path d="M579.80 502.00v-17.00" class="stroke"/>
<use x="608.90" y="508.00" xlink:href="#hd"/>
<path d="M612.40 508.00v-21.00" class="stroke"/>
<use x="654.80" y="508.00" xlink:href="#hd"/>
<path d="M658.30 508.00v-21.00" class="stroke"/>
</g>
</svg>
