<?xml version="1.0" standalone="no"?>
<!DOCTYPE svg PUBLIC "-//W3C//DTD SVG 1.1//EN"
	"http://www.w3.org/Graphics/SVG/1.1/DTD/svg11.dtd">
<svg xmlns="http://www.w3.org/2000/svg" version="1.1"
	xmlns:xlink="http://www.w3.org/1999/xlink"
	color="black"
	width="701.60px" height="318.00px">
<style type="text/css">
.fill {fill: currentColor}
.stroke {stroke: currentColor; fill: none}
text{white-space: pre}
</style>
<title>/media/tim/Data1/tims_code/sphinx-tunes/source/_abcfiles/rats.abc (8) tune 8</title>
<!-- Creator: abcm2ps-8.14.6 -->
<!-- CreationDate: Jul 30, 2023 12:21 -->
<!-- CommandLine: -g /media/tim/Data1/tims_code/sphinx-tunes/source/_abcfiles/rats.abc -O /media/tim/Data1/tims_code/sphinx-tunes/source/_abcfiles/rats.svg -->
<g stroke-width="0.70">
<!-- title: Jetstream -->
</g>
<g stroke-width="0.70" style="font:20.00px Times">
<text x="350.80" y="22.00" text-anchor="middle">Jetstream</text>
</g>
<g stroke-width="0.70" style="font:20.00px Times">
<path class="stroke" stroke-width="1"
	d="M107.30 85.00v-24.00"/>
<path class="stroke" stroke-width="1"
	d="M236.90 85.00v-24.00"/>
<path class="stroke" stroke-width="1"
	d="M400.30 85.00v-24.00"/>
<path class="stroke" stroke-width="1"
	d="M528.10 85.00v-24.00"/>
<path class="stroke" stroke-width="1"
	d="M691.60 85.00v-24.00"/>
<path d="m10.00 85.00
	h681.60
	M10.00 79.00
	h681.60
	M10.00 73.00
	h681.60
	M10.00 67.00
	h681.60
	M10.00 61.00
	h681.60
	" class="stroke"/>
<defs>
<path id="utclef" class="fill" d="m-50 -90
	c-72 -41 -72 -158 52 -188
	150 -10 220 188 90 256
	-114 52 -275 0 -293 -136
	-15 -181 93 -229 220 -334
	88 -87 79 -133 62 -210
	-51 33 -94 105 -89 186
	17 267 36 374 49 574
	6 96 -19 134 -77 135
	-80 1 -126 -93 -61 -133
	85 -41 133 101 31 105
	23 17 92 37 90 -92
	-10 -223 -39 -342 -50 -617
	0 -90 0 -162 96 -232
	56 72 63 230 22 289
	-74 106 -257 168 -255 316
	9 153 148 185 252 133
	86 -65 29 -192 -80 -176
	-71 12 -105 67 -59 124"/>
<use id="tclef" transform="translate(0,6) scale(0.045)"
	xlink:href="#utclef"/>
</defs>
<use x="22.00" y="79.00" xlink:href="#tclef"/>
<defs>
<path id="usharp" class="fill" d="
	m136 -702
	v890
	h32
	v-890
	m128 840
	h32
	v-888
	h-32
	m-232 286
	v116
	l338 -96
	v-116
	m-338 442
	v116
	l338 -98
	v-114"/>
<use id="sh0" transform="translate(-4,5) scale(0.018)"
	xlink:href="#usharp"/>
</defs>
<use x="37.00" y="61.00" xlink:href="#sh0"/>
<g style="font:bold 16px serif"
	transform="translate(53.00,84.50) scale(1.2,1)">
	<text text-anchor="middle">4</text>
	<text y="-12" text-anchor="middle">4</text>
</g>
<path class="fill"
	d="M67.20 73.30l21.00 2.40v-3.20l-21.00 -2.40"/>
<defs>
<path id="hl" class="stroke" d="m-6 0h12"/>
</defs>
<use x="71.00" y="55.00" xlink:href="#hl"/>
<defs>
<ellipse id="hd" rx="4.1" ry="2.9"
	transform="rotate(-20)" class="fill"/>
</defs>
<use x="71.00" y="52.00" xlink:href="#hd"/>
<path d="M67.50 52.00v20.30" class="stroke"/>
<use x="91.30" y="55.00" xlink:href="#hl"/>
<use x="91.30" y="55.00" xlink:href="#hd"/>
<path d="M87.80 55.00v19.70" class="stroke"/>
<use x="119.80" y="58.00" xlink:href="#hd"/>
<path d="M116.30 58.00v21.00" class="stroke"/>
<use x="151.40" y="64.00" xlink:href="#hd"/>
<path d="M147.90 64.00v21.00" class="stroke"/>
<use x="182.90" y="64.00" xlink:href="#hd"/>
<path d="M179.40 64.00v21.00" class="stroke"/>
<use x="214.50" y="58.00" xlink:href="#hd"/>
<path d="M211.00 58.00v21.00" class="stroke"/>
<path class="fill"
	d="M245.50 85.20l61.40 0.00v-3.20l-61.40 -0.00"/>
<use x="249.40" y="61.00" xlink:href="#hd"/>
<path d="M245.90 61.00v23.20" class="stroke"/>
<use x="269.60" y="64.00" xlink:href="#hd"/>
<path d="M266.10 64.00v20.20" class="stroke"/>
<use x="289.80" y="67.00" xlink:href="#hd"/>
<path d="M286.30 67.00v17.20" class="stroke"/>
<use x="310.10" y="64.00" xlink:href="#hd"/>
<path d="M306.60 64.00v20.20" class="stroke"/>
<use x="332.50" y="61.00" xlink:href="#hd"/>
<path d="M329.00 61.00v21.00" class="stroke"/>
<path class="fill"
	d="M360.20 85.30l20.90 2.40v-3.20l-20.90 -2.40"/>
<use x="364.10" y="64.00" xlink:href="#hd"/>
<path d="M360.60 64.00v20.30" class="stroke"/>
<use x="384.30" y="67.00" xlink:href="#hd"/>
<path d="M380.80 67.00v19.70" class="stroke"/>
<use x="412.80" y="64.00" xlink:href="#hd"/>
<path d="M409.30 64.00v21.00" class="stroke"/>
<use x="444.40" y="73.00" xlink:href="#hd"/>
<path d="M440.90 73.00v21.00" class="stroke"/>
<use x="475.90" y="73.00" xlink:href="#hd"/>
<circle class="fill" cx="483.60" cy="70.00" r="1.2"/>
<path d="M472.40 73.00v21.00" class="stroke"/>
<use x="512.10" y="73.00" xlink:href="#hd"/>
<path d="M508.60 73.00v21.00" class="stroke"/>
<path class="fill"
	d="M508.60 94.00c0.6 -5.6 9.6 -9 5.6 -18.4
	1.6 6 -1.3 11.6 -5.6 12.8
"/>
<path class="fill"
	d="M543.80 58.00l61.40 0.00v3.20l-61.40 -0.00"/>
<use x="540.60" y="76.00" xlink:href="#hd"/>
<path d="M544.10 76.00v-17.00" class="stroke"/>
<use x="560.90" y="79.00" xlink:href="#hd"/>
<path d="M564.40 79.00v-20.00" class="stroke"/>
<use x="581.10" y="82.00" xlink:href="#hd"/>
<path d="M584.60 82.00v-23.00" class="stroke"/>
<use x="601.40" y="79.00" xlink:href="#hd"/>
<path d="M604.90 79.00v-20.00" class="stroke"/>
<use x="623.80" y="76.00" xlink:href="#hd"/>
<path d="M627.30 76.00v-21.00" class="stroke"/>
<path class="fill"
	d="M658.50 58.30l20.90 2.40v3.20l-20.90 -2.40"/>
<use x="655.40" y="79.00" xlink:href="#hd"/>
<path d="M658.90 79.00v-19.70" class="stroke"/>
<use x="675.60" y="82.00" xlink:href="#hd"/>
<path d="M679.10 82.00v-20.30" class="stroke"/>
</g>
<g stroke-width="0.70" style="font:20.00px Times">
<path class="stroke" stroke-width="1"
	d="M212.20 155.00v-24.00"/>
<path class="stroke" stroke-width="1"
	d="M410.70 155.00v-24.00"/>
<path class="stroke" stroke-width="1"
	d="M608.60 155.00v-24.00"/>
<path class="stroke" stroke-width="1"
	d="M691.60 155.00v-24.00"/>
<path class="stroke" stroke-width="1"
	d="M688.60 155.00v-24.00"/>
<path d="m10.00 155.00
	h681.60
	M10.00 149.00
	h681.60
	M10.00 143.00
	h681.60
	M10.00 137.00
	h681.60
	M10.00 131.00
	h681.60
	" class="stroke"/>
<use x="22.00" y="149.00" xlink:href="#tclef"/>
<use x="37.00" y="131.00" xlink:href="#sh0"/>
<use x="55.00" y="155.00" xlink:href="#hd"/>
<path d="M58.50 155.00v-21.00" class="stroke"/>
<use x="97.50" y="134.00" xlink:href="#hd"/>
<path d="M94.00 134.00v21.00" class="stroke"/>
<use x="140.00" y="134.00" xlink:href="#hd"/>
<path d="M136.50 134.00v21.00" class="stroke"/>
<use x="182.50" y="128.00" xlink:href="#hd"/>
<path d="M179.00 128.00v21.00" class="stroke"/>
<path class="fill"
	d="M223.40 155.20l81.80 0.00v-3.20l-81.80 -0.00"/>
<use x="227.20" y="131.00" xlink:href="#hd"/>
<path d="M223.70 131.00v23.20" class="stroke"/>
<use x="254.30" y="134.00" xlink:href="#hd"/>
<path d="M250.80 134.00v20.20" class="stroke"/>
<use x="281.30" y="137.00" xlink:href="#hd"/>
<path d="M277.80 137.00v17.20" class="stroke"/>
<use x="308.40" y="134.00" xlink:href="#hd"/>
<path d="M304.90 134.00v20.20" class="stroke"/>
<use x="338.40" y="131.00" xlink:href="#hd"/>
<path d="M334.90 131.00v21.00" class="stroke"/>
<use x="380.90" y="131.00" xlink:href="#hd"/>
<path d="M377.40 131.00v21.00" class="stroke"/>
<use x="425.70" y="134.00" xlink:href="#hd"/>
<path d="M422.20 134.00v21.00" class="stroke"/>
<use x="468.20" y="143.00" xlink:href="#hd"/>
<path d="M464.70 143.00v21.00" class="stroke"/>
<path class="fill"
	d="M509.60 126.80l81.80 6.00v3.20l-81.80 -6.00"/>
<use x="506.40" y="146.00" xlink:href="#hd"/>
<path d="M509.90 146.00v-18.20" class="stroke"/>
<use x="533.50" y="149.00" xlink:href="#hd"/>
<path d="M537.00 149.00v-19.20" class="stroke"/>
<use x="560.50" y="152.00" xlink:href="#hd"/>
<path d="M564.00 152.00v-20.20" class="stroke"/>
<use x="587.60" y="158.00" xlink:href="#hd"/>
<path d="M591.10 158.00v-24.20" class="stroke"/>
<defs>
<path id="HD" class="fill" d="m-2.7 -1.4
	c1.5 -2.8 6.9 0 5.3 2.7
	-1.5 2.8 -6.9 0 -5.3 -2.7
	m8.3 1.4
	c0 -1.5 -2.2 -3 -5.6 -3
	-3.4 0 -5.6 1.5 -5.6 3
	0 1.5 2.2 3 5.6 3
	3.4 0 5.6 -1.5 5.6 -3"/>
</defs>
<use x="624.60" y="155.00" xlink:href="#HD"/>
</g>
<g stroke-width="0.70" style="font:20.00px Times">
<path class="stroke" stroke-width="1"
	d="M224.70 225.00v-24.00"/>
<path class="stroke" stroke-width="1"
	d="M362.10 225.00v-24.00"/>
<path class="stroke" stroke-width="1"
	d="M560.50 225.00v-24.00"/>
<path class="stroke" stroke-width="1"
	d="M691.60 225.00v-24.00"/>
<path d="m10.00 225.00
	h681.60
	M10.00 219.00
	h681.60
	M10.00 213.00
	h681.60
	M10.00 207.00
	h681.60
	M10.00 201.00
	h681.60
	" class="stroke"/>
<use x="22.00" y="219.00" xlink:href="#tclef"/>
<use x="37.00" y="201.00" xlink:href="#sh0"/>
<use x="55.00" y="195.00" xlink:href="#hl"/>
<use x="55.00" y="192.00" xlink:href="#hd"/>
<path d="M51.50 192.00v21.00" class="stroke"/>
<use x="96.10" y="195.00" xlink:href="#hl"/>
<use x="96.10" y="192.00" xlink:href="#hd"/>
<path d="M92.60 192.00v21.00" class="stroke"/>
<use x="137.20" y="195.00" xlink:href="#hl"/>
<use x="137.20" y="192.00" xlink:href="#hd"/>
<path d="M133.70 192.00v21.00" class="stroke"/>
<path class="fill"
	d="M174.40 216.20l26.80 2.50v-3.20l-26.80 -2.50"/>
<use x="178.20" y="195.00" xlink:href="#hl"/>
<use x="178.20" y="195.00" xlink:href="#hd"/>
<path d="M174.70 195.00v20.30" class="stroke"/>
<use x="204.40" y="198.00" xlink:href="#hd"/>
<path d="M200.90 198.00v19.70" class="stroke"/>
<use x="239.30" y="195.00" xlink:href="#hl"/>
<use x="239.30" y="195.00" xlink:href="#hd"/>
<path d="M235.80 195.00v21.00" class="stroke"/>
<use x="280.40" y="201.00" xlink:href="#hd"/>
<path d="M276.90 201.00v21.00" class="stroke"/>
<defs>
<path id="Hd" class="fill" d="m3 -1.6
	c-1 -1.8 -7 1.4 -6 3.2
	1 1.8 7 -1.4 6 -3.2
	m0.5 -0.3
	c2 3.8 -5 7.6 -7 3.8
	-2 -3.8 5 -7.6 7 -3.8"/>
</defs>
<use x="321.40" y="207.00" xlink:href="#Hd"/>
<path d="M317.90 207.00v21.00" class="stroke"/>
<use x="376.70" y="198.00" xlink:href="#hd"/>
<path d="M373.20 198.00v21.00" class="stroke"/>
<path class="fill"
	d="M413.90 218.80l26.80 -2.50v-3.20l-26.80 2.50"/>
<use x="417.70" y="198.00" xlink:href="#hd"/>
<path d="M414.20 198.00v19.70" class="stroke"/>
<use x="443.90" y="195.00" xlink:href="#hl"/>
<use x="443.90" y="195.00" xlink:href="#hd"/>
<path d="M440.40 195.00v20.30" class="stroke"/>
<use x="473.00" y="198.00" xlink:href="#hd"/>
<path d="M469.50 198.00v21.00" class="stroke"/>
<path class="fill"
	d="M510.20 222.20l26.80 2.50v-3.20l-26.80 -2.50"/>
<use x="514.00" y="201.00" xlink:href="#hd"/>
<path d="M510.50 201.00v20.30" class="stroke"/>
<use x="540.20" y="204.00" xlink:href="#hd"/>
<path d="M536.70 204.00v19.70" class="stroke"/>
<use x="575.10" y="201.00" xlink:href="#hd"/>
<circle class="fill" cx="582.80" cy="198.00" r="1.2"/>
<path d="M571.60 201.00v21.00" class="stroke"/>
<use x="621.80" y="198.00" xlink:href="#hd"/>
<path d="M618.30 198.00v21.00" class="stroke"/>
<path class="fill"
	d="M618.30 219.00c0.6 -5.6 9.6 -9 5.6 -18.4
	1.6 6 -1.3 11.6 -5.6 12.8
"/>
<use x="650.90" y="201.00" xlink:href="#Hd"/>
<path d="M647.40 201.00v21.00" class="stroke"/>
</g>
<g stroke-width="0.70" style="font:20.00px Times">
<path class="stroke" stroke-width="1"
	d="M230.10 295.00v-24.00"/>
<path class="stroke" stroke-width="1"
	d="M389.90 295.00v-24.00"/>
<path class="stroke" stroke-width="1"
	d="M595.40 295.00v-24.00"/>
<path class="stroke" stroke-width="3"
	d="M690.10 295.00v-24.00"/>
<path class="stroke" stroke-width="1"
	d="M685.60 295.00v-24.00"/>
<path d="m10.00 295.00
	h681.60
	M10.00 289.00
	h681.60
	M10.00 283.00
	h681.60
	M10.00 277.00
	h681.60
	M10.00 271.00
	h681.60
	" class="stroke"/>
<use x="22.00" y="289.00" xlink:href="#tclef"/>
<use x="37.00" y="271.00" xlink:href="#sh0"/>
<use x="55.50" y="274.00" xlink:href="#Hd"/>
<path d="M52.00 274.00v21.00" class="stroke"/>
<use x="125.20" y="274.00" xlink:href="#hd"/>
<path d="M121.70 274.00v21.00" class="stroke"/>
<path class="fill"
	d="M170.60 298.20l32.00 2.60v-3.20l-32.00 -2.60"/>
<use x="174.40" y="277.00" xlink:href="#hd"/>
<path d="M170.90 277.00v20.20" class="stroke"/>
<use x="205.80" y="280.00" xlink:href="#hd"/>
<path d="M202.30 280.00v19.80" class="stroke"/>
<use x="247.60" y="283.00" xlink:href="#hd"/>
<path d="M244.10 283.00v21.00" class="stroke"/>
<use x="291.90" y="289.00" xlink:href="#hd"/>
<path d="M295.40 289.00v-21.00" class="stroke"/>
<use x="341.10" y="295.00" xlink:href="#Hd"/>
<path d="M344.60 295.00v-21.00" class="stroke"/>
<use x="407.30" y="298.00" xlink:href="#Hd"/>
<path d="M410.80 298.00v-21.00" class="stroke"/>
<path class="fill"
	d="M480.10 276.80l94.70 -4.00v3.20l-94.70 4.00"/>
<use x="477.00" y="298.00" xlink:href="#hd"/>
<path d="M480.50 298.00v-20.20" class="stroke"/>
<use x="508.30" y="301.00" xlink:href="#hl"/>
<use x="508.30" y="304.00" xlink:href="#hd"/>
<path d="M511.80 304.00v-27.60" class="stroke"/>
<use x="539.70" y="298.00" xlink:href="#hd"/>
<path d="M543.20 298.00v-22.90" class="stroke"/>
<use x="571.00" y="292.00" xlink:href="#hd"/>
<path d="M574.50 292.00v-18.20" class="stroke"/>
<use x="613.80" y="295.00" xlink:href="#HD"/>
<path class="fill"
	d="M410.80 298.00c9.23 5.63 53.44 5.63 62.67 -0.00
	v0.26c-11.11 7.37 -51.56 7.37 -62.67 -0.26"/>
</g>
</svg>
