<?xml version="1.0" standalone="no"?>
<!DOCTYPE svg PUBLIC "-//W3C//DTD SVG 1.1//EN"
	"http://www.w3.org/Graphics/SVG/1.1/DTD/svg11.dtd">
<svg xmlns="http://www.w3.org/2000/svg" version="1.1"
	xmlns:xlink="http://www.w3.org/1999/xlink"
	color="black"
	width="701.60px" height="318.00px">
<style type="text/css">
.fill {fill: currentColor}
.stroke {stroke: currentColor; fill: none}
text{white-space: pre}
</style>
<title>/media/tim/Data1/tims_code/sphinx-tunes/source/_abcfiles/rats.abc (9) tune 9</title>
<!-- Creator: abcm2ps-8.14.6 -->
<!-- CreationDate: Jul 30, 2023 12:21 -->
<!-- CommandLine: -g /media/tim/Data1/tims_code/sphinx-tunes/source/_abcfiles/rats.abc -O /media/tim/Data1/tims_code/sphinx-tunes/source/_abcfiles/rats.svg -->
<g stroke-width="0.70">
<!-- title: Jetstream2 -->
</g>
<g stroke-width="0.70" style="font:20.00px Times">
<text x="350.80" y="22.00" text-anchor="middle">Jetstream2</text>
</g>
<g stroke-width="0.70" style="font:20.00px Times">
<path class="stroke" stroke-width="1"
	d="M211.90 85.00v-24.00"/>
<path class="stroke" stroke-width="1"
	d="M399.80 85.00v-24.00"/>
<path class="stroke" stroke-width="1"
	d="M553.20 85.00v-24.00"/>
<path class="stroke" stroke-width="1"
	d="M691.60 85.00v-24.00"/>
<path d="m10.00 85.00
	h681.60
	M10.00 79.00
	h681.60
	M10.00 73.00
	h681.60
	M10.00 67.00
	h681.60
	M10.00 61.00
	h681.60
	" class="stroke"/>
<defs>
<path id="utclef" class="fill" d="m-50 -90
	c-72 -41 -72 -158 52 -188
	150 -10 220 188 90 256
	-114 52 -275 0 -293 -136
	-15 -181 93 -229 220 -334
	88 -87 79 -133 62 -210
	-51 33 -94 105 -89 186
	17 267 36 374 49 574
	6 96 -19 134 -77 135
	-80 1 -126 -93 -61 -133
	85 -41 133 101 31 105
	23 17 92 37 90 -92
	-10 -223 -39 -342 -50 -617
	0 -90 0 -162 96 -232
	56 72 63 230 22 289
	-74 106 -257 168 -255 316
	9 153 148 185 252 133
	86 -65 29 -192 -80 -176
	-71 12 -105 67 -59 124"/>
<use id="tclef" transform="translate(0,6) scale(0.045)"
	xlink:href="#utclef"/>
</defs>
<use x="22.00" y="79.00" xlink:href="#tclef"/>
<defs>
<path id="uflat" class="fill" d="
	m100 -746
	h32
	v734
	l-32 4
	m32 -332
	c46 -72 152 -90 208 -20
	100 110 -120 326 -208 348
	m0 -28
	c54 0 200 -206 130 -290
	-50 -60 -130 -4 -130 34"/>
<use id="ft0" transform="translate(-3.5,3.5) scale(0.018)"
	xlink:href="#uflat"/>
</defs>
<use x="37.00" y="73.00" xlink:href="#ft0"/>
<g style="font:bold 16px serif"
	transform="translate(53.00,84.50) scale(1.2,1)">
	<text text-anchor="middle">4</text>
	<text y="-12" text-anchor="middle">4</text>
</g>
<defs>
<ellipse id="hd" rx="4.1" ry="2.9"
	transform="rotate(-20)" class="fill"/>
</defs>
<use x="71.00" y="88.00" xlink:href="#hd"/>
<path d="M74.50 88.00v-21.00" class="stroke"/>
<path class="fill"
	d="M109.00 66.70l22.90 -2.40v3.20l-22.90 2.40"/>
<use x="105.80" y="88.00" xlink:href="#hd"/>
<path d="M109.30 88.00v-20.30" class="stroke"/>
<use x="128.00" y="85.00" xlink:href="#hd"/>
<path d="M131.50 85.00v-19.70" class="stroke"/>
<use x="152.70" y="82.00" xlink:href="#hd"/>
<path d="M156.20 82.00v-21.00" class="stroke"/>
<use x="187.50" y="76.00" xlink:href="#hd"/>
<path d="M191.00 76.00v-21.00" class="stroke"/>
<path class="fill"
	d="M227.60 53.80l67.30 0.00v3.20l-67.30 -0.00"/>
<use x="224.40" y="73.00" xlink:href="#hd"/>
<path d="M227.90 73.00v-18.20" class="stroke"/>
<use x="246.70" y="76.00" xlink:href="#hd"/>
<path d="M250.20 76.00v-21.20" class="stroke"/>
<use x="268.90" y="79.00" xlink:href="#hd"/>
<path d="M272.40 79.00v-24.20" class="stroke"/>
<use x="291.10" y="73.00" xlink:href="#hd"/>
<path d="M294.60 73.00v-18.20" class="stroke"/>
<path class="fill"
	d="M318.90 55.90l67.30 7.20v3.20l-67.30 -7.20"/>
<use x="315.80" y="76.00" xlink:href="#hd"/>
<path d="M319.30 76.00v-19.00" class="stroke"/>
<use x="338.00" y="79.00" xlink:href="#hd"/>
<path d="M341.50 79.00v-19.70" class="stroke"/>
<use x="360.20" y="82.00" xlink:href="#hd"/>
<path d="M363.70 82.00v-20.30" class="stroke"/>
<use x="382.40" y="85.00" xlink:href="#hd"/>
<path d="M385.90 85.00v-21.00" class="stroke"/>
<use x="412.30" y="88.00" xlink:href="#hd"/>
<path d="M415.80 88.00v-21.00" class="stroke"/>
<path class="fill"
	d="M450.20 66.70l22.90 -2.40v3.20l-22.90 2.40"/>
<use x="447.10" y="88.00" xlink:href="#hd"/>
<path d="M450.60 88.00v-20.30" class="stroke"/>
<use x="469.30" y="85.00" xlink:href="#hd"/>
<path d="M472.80 85.00v-19.70" class="stroke"/>
<use x="494.00" y="82.00" xlink:href="#hd"/>
<path d="M497.50 82.00v-21.00" class="stroke"/>
<use x="528.80" y="76.00" xlink:href="#hd"/>
<path d="M532.30 76.00v-21.00" class="stroke"/>
<path class="fill"
	d="M568.90 53.80l67.30 0.00v3.20l-67.30 -0.00"/>
<use x="565.70" y="73.00" xlink:href="#hd"/>
<path d="M569.20 73.00v-18.20" class="stroke"/>
<use x="588.00" y="76.00" xlink:href="#hd"/>
<path d="M591.50 76.00v-21.20" class="stroke"/>
<use x="610.20" y="79.00" xlink:href="#hd"/>
<path d="M613.70 79.00v-24.20" class="stroke"/>
<use x="632.40" y="73.00" xlink:href="#hd"/>
<path d="M635.90 73.00v-18.20" class="stroke"/>
<defs>
<path id="Hd" class="fill" d="m3 -1.6
	c-1 -1.8 -7 1.4 -6 3.2
	1 1.8 7 -1.4 6 -3.2
	m0.5 -0.3
	c2 3.8 -5 7.6 -7 3.8
	-2 -3.8 5 -7.6 7 -3.8"/>
</defs>
<use x="657.10" y="76.00" xlink:href="#Hd"/>
<path d="M660.60 76.00v-21.00" class="stroke"/>
</g>
<g stroke-width="0.70" style="font:20.00px Times">
<path class="stroke" stroke-width="1"
	d="M195.80 155.00v-24.00"/>
<path class="stroke" stroke-width="1"
	d="M387.90 155.00v-24.00"/>
<path class="stroke" stroke-width="1"
	d="M545.00 155.00v-24.00"/>
<path class="stroke" stroke-width="1"
	d="M691.60 155.00v-24.00"/>
<path class="stroke" stroke-width="1"
	d="M688.60 155.00v-24.00"/>
<path d="m10.00 155.00
	h681.60
	M10.00 149.00
	h681.60
	M10.00 143.00
	h681.60
	M10.00 137.00
	h681.60
	M10.00 131.00
	h681.60
	" class="stroke"/>
<use x="22.00" y="149.00" xlink:href="#tclef"/>
<use x="37.00" y="143.00" xlink:href="#ft0"/>
<use x="55.00" y="137.00" xlink:href="#hd"/>
<path d="M51.50 137.00v21.00" class="stroke"/>
<path class="fill"
	d="M90.30 125.00l23.40 0.00v3.20l-23.40 -0.00"/>
<use x="87.10" y="146.00" xlink:href="#hd"/>
<path d="M90.60 146.00v-20.00" class="stroke"/>
<use x="109.80" y="146.00" xlink:href="#hd"/>
<path d="M113.30 146.00v-20.00" class="stroke"/>
<use x="135.10" y="152.00" xlink:href="#hd"/>
<path d="M138.60 152.00v-21.00" class="stroke"/>
<use x="170.70" y="146.00" xlink:href="#hd"/>
<path d="M174.20 146.00v-21.00" class="stroke"/>
<path class="fill"
	d="M211.70 123.80l68.90 0.00v3.20l-68.90 -0.00"/>
<use x="208.50" y="143.00" xlink:href="#hd"/>
<path d="M212.00 143.00v-18.20" class="stroke"/>
<use x="231.20" y="146.00" xlink:href="#hd"/>
<path d="M234.70 146.00v-21.20" class="stroke"/>
<use x="254.00" y="149.00" xlink:href="#hd"/>
<path d="M257.50 149.00v-24.20" class="stroke"/>
<use x="276.70" y="143.00" xlink:href="#hd"/>
<path d="M280.20 143.00v-18.20" class="stroke"/>
<path class="fill"
	d="M305.10 125.90l68.90 7.20v3.20l-68.90 -7.20"/>
<use x="302.00" y="146.00" xlink:href="#hd"/>
<path d="M305.50 146.00v-19.10" class="stroke"/>
<use x="324.70" y="149.00" xlink:href="#hd"/>
<path d="M328.20 149.00v-19.70" class="stroke"/>
<use x="347.50" y="152.00" xlink:href="#hd"/>
<path d="M351.00 152.00v-20.30" class="stroke"/>
<use x="370.20" y="155.00" xlink:href="#hd"/>
<path d="M373.70 155.00v-20.90" class="stroke"/>
<use x="400.70" y="158.00" xlink:href="#hd"/>
<path d="M404.20 158.00v-21.00" class="stroke"/>
<path class="fill"
	d="M439.50 136.70l23.40 -2.40v3.20l-23.40 2.40"/>
<use x="436.30" y="158.00" xlink:href="#hd"/>
<path d="M439.80 158.00v-20.30" class="stroke"/>
<use x="459.10" y="155.00" xlink:href="#hd"/>
<path d="M462.60 155.00v-19.70" class="stroke"/>
<use x="484.30" y="152.00" xlink:href="#hd"/>
<path d="M487.80 152.00v-21.00" class="stroke"/>
<use x="520.00" y="143.00" xlink:href="#hd"/>
<path d="M523.50 143.00v-21.00" class="stroke"/>
<path class="fill"
	d="M560.90 125.90l68.90 7.20v3.20l-68.90 -7.20"/>
<use x="557.70" y="146.00" xlink:href="#hd"/>
<path d="M561.20 146.00v-19.10" class="stroke"/>
<use x="580.50" y="149.00" xlink:href="#hd"/>
<path d="M584.00 149.00v-19.70" class="stroke"/>
<use x="603.20" y="152.00" xlink:href="#hd"/>
<path d="M606.70 152.00v-20.30" class="stroke"/>
<use x="625.90" y="155.00" xlink:href="#hd"/>
<path d="M629.40 155.00v-20.90" class="stroke"/>
<use x="651.20" y="158.00" xlink:href="#Hd"/>
<path d="M654.70 158.00v-21.00" class="stroke"/>
</g>
<g stroke-width="0.70" style="font:20.00px Times">
<path class="stroke" stroke-width="1"
	d="M202.00 225.00v-24.00"/>
<path class="stroke" stroke-width="1"
	d="M387.60 225.00v-24.00"/>
<path class="stroke" stroke-width="1"
	d="M547.50 225.00v-24.00"/>
<path class="stroke" stroke-width="1"
	d="M691.60 225.00v-24.00"/>
<path d="m10.00 225.00
	h681.60
	M10.00 219.00
	h681.60
	M10.00 213.00
	h681.60
	M10.00 207.00
	h681.60
	M10.00 201.00
	h681.60
	" class="stroke"/>
<use x="22.00" y="219.00" xlink:href="#tclef"/>
<use x="37.00" y="213.00" xlink:href="#ft0"/>
<use x="55.00" y="207.00" xlink:href="#hd"/>
<path d="M51.50 207.00v21.00" class="stroke"/>
<path class="fill"
	d="M87.50 227.70l23.80 -2.50v-3.20l-23.80 2.50"/>
<use x="91.30" y="207.00" xlink:href="#hd"/>
<path d="M87.80 207.00v19.70" class="stroke"/>
<use x="114.50" y="204.00" xlink:href="#hd"/>
<path d="M111.00 204.00v20.30" class="stroke"/>
<use x="140.20" y="201.00" xlink:href="#hd"/>
<path d="M136.70 201.00v21.00" class="stroke"/>
<use x="176.50" y="198.00" xlink:href="#hd"/>
<path d="M173.00 198.00v21.00" class="stroke"/>
<path class="fill"
	d="M211.10 216.90l70.10 7.20v-3.20l-70.10 -7.20"/>
<defs>
<path id="hl" class="stroke" d="m-6 0h12"/>
</defs>
<use x="214.90" y="195.00" xlink:href="#hl"/>
<use x="214.90" y="195.00" xlink:href="#hd"/>
<path d="M211.40 195.00v20.90" class="stroke"/>
<use x="238.00" y="198.00" xlink:href="#hd"/>
<path d="M234.50 198.00v20.30" class="stroke"/>
<use x="261.20" y="201.00" xlink:href="#hd"/>
<path d="M257.70 201.00v19.70" class="stroke"/>
<use x="284.40" y="204.00" xlink:href="#hd"/>
<path d="M280.90 204.00v19.10" class="stroke"/>
<use x="310.10" y="201.00" xlink:href="#hd"/>
<path d="M306.60 201.00v21.00" class="stroke"/>
<path class="fill"
	d="M342.50 228.00l23.80 0.00v-3.20l-23.80 -0.00"/>
<use x="346.40" y="207.00" xlink:href="#hd"/>
<path d="M342.90 207.00v20.00" class="stroke"/>
<use x="369.50" y="207.00" xlink:href="#hd"/>
<path d="M366.00 207.00v20.00" class="stroke"/>
<use x="400.50" y="210.00" xlink:href="#hd"/>
<path d="M397.00 210.00v21.00" class="stroke"/>
<path class="fill"
	d="M433.00 230.70l23.80 -2.50v-3.20l-23.80 2.50"/>
<use x="436.80" y="210.00" xlink:href="#hd"/>
<path d="M433.30 210.00v19.70" class="stroke"/>
<use x="460.00" y="207.00" xlink:href="#hd"/>
<path d="M456.50 207.00v20.30" class="stroke"/>
<use x="485.70" y="204.00" xlink:href="#hd"/>
<path d="M482.20 204.00v21.00" class="stroke"/>
<use x="522.00" y="201.00" xlink:href="#hd"/>
<path d="M518.50 201.00v21.00" class="stroke"/>
<path class="fill"
	d="M556.60 222.00l70.10 0.00v-3.20l-70.10 -0.00"/>
<use x="560.40" y="198.00" xlink:href="#hd"/>
<path d="M556.90 198.00v23.00" class="stroke"/>
<use x="583.60" y="195.00" xlink:href="#hl"/>
<use x="583.60" y="195.00" xlink:href="#hd"/>
<path d="M580.10 195.00v26.00" class="stroke"/>
<use x="606.70" y="198.00" xlink:href="#hd"/>
<path d="M603.20 198.00v23.00" class="stroke"/>
<use x="629.90" y="204.00" xlink:href="#hd"/>
<path d="M626.40 204.00v17.00" class="stroke"/>
<use x="655.60" y="210.00" xlink:href="#Hd"/>
<path d="M652.10 210.00v21.00" class="stroke"/>
</g>
<g stroke-width="0.70" style="font:20.00px Times">
<path class="stroke" stroke-width="1"
	d="M201.50 295.00v-24.00"/>
<path class="stroke" stroke-width="1"
	d="M383.40 295.00v-24.00"/>
<path class="stroke" stroke-width="1"
	d="M542.80 295.00v-24.00"/>
<path class="stroke" stroke-width="3"
	d="M690.10 295.00v-24.00"/>
<path class="stroke" stroke-width="1"
	d="M685.60 295.00v-24.00"/>
<path d="m10.00 295.00
	h681.60
	M10.00 289.00
	h681.60
	M10.00 283.00
	h681.60
	M10.00 277.00
	h681.60
	M10.00 271.00
	h681.60
	" class="stroke"/>
<use x="22.00" y="289.00" xlink:href="#tclef"/>
<use x="37.00" y="283.00" xlink:href="#ft0"/>
<use x="55.00" y="277.00" xlink:href="#hd"/>
<path d="M51.50 277.00v21.00" class="stroke"/>
<path class="fill"
	d="M87.40 297.70l23.80 -2.50v-3.20l-23.80 2.50"/>
<use x="91.20" y="277.00" xlink:href="#hd"/>
<path d="M87.70 277.00v19.70" class="stroke"/>
<use x="114.30" y="274.00" xlink:href="#hd"/>
<path d="M110.80 274.00v20.30" class="stroke"/>
<use x="139.90" y="271.00" xlink:href="#hd"/>
<path d="M136.40 271.00v21.00" class="stroke"/>
<use x="176.10" y="268.00" xlink:href="#hd"/>
<path d="M172.60 268.00v21.00" class="stroke"/>
<path class="fill"
	d="M210.60 286.00l69.90 0.00v-3.20l-69.90 -0.00"/>
<use x="214.40" y="265.00" xlink:href="#hl"/>
<use x="214.40" y="265.00" xlink:href="#hd"/>
<path d="M210.90 265.00v20.00" class="stroke"/>
<use x="237.50" y="265.00" xlink:href="#hl"/>
<use x="237.50" y="262.00" xlink:href="#hd"/>
<path d="M234.00 262.00v23.00" class="stroke"/>
<use x="260.60" y="265.00" xlink:href="#hl"/>
<use x="260.60" y="265.00" xlink:href="#hd"/>
<path d="M257.10 265.00v20.00" class="stroke"/>
<use x="283.70" y="268.00" xlink:href="#hd"/>
<path d="M280.20 268.00v17.00" class="stroke"/>
<path class="fill"
	d="M305.50 287.00l23.80 4.10v-3.20l-23.80 -4.10"/>
<use x="309.30" y="265.00" xlink:href="#hl"/>
<use x="309.30" y="265.00" xlink:href="#hd"/>
<path d="M305.80 265.00v21.00" class="stroke"/>
<use x="332.40" y="271.00" xlink:href="#hd"/>
<path d="M328.90 271.00v19.00" class="stroke"/>
<use x="358.00" y="277.00" xlink:href="#hd"/>
<path d="M354.50 277.00v21.00" class="stroke"/>
<use x="396.30" y="298.00" xlink:href="#hd"/>
<path d="M399.80 298.00v-21.00" class="stroke"/>
<path class="fill"
	d="M435.70 276.70l23.80 -2.50v3.20l-23.80 2.50"/>
<use x="432.50" y="298.00" xlink:href="#hd"/>
<path d="M436.00 298.00v-20.30" class="stroke"/>
<use x="455.60" y="295.00" xlink:href="#hd"/>
<path d="M459.10 295.00v-19.70" class="stroke"/>
<use x="481.20" y="292.00" xlink:href="#hd"/>
<path d="M484.70 292.00v-21.00" class="stroke"/>
<use x="517.40" y="283.00" xlink:href="#hd"/>
<path d="M520.90 283.00v-21.00" class="stroke"/>
<path class="fill"
	d="M558.90 265.90l69.90 7.20v3.20l-69.90 -7.20"/>
<use x="555.70" y="286.00" xlink:href="#hd"/>
<path d="M559.20 286.00v-19.10" class="stroke"/>
<use x="578.80" y="289.00" xlink:href="#hd"/>
<path d="M582.30 289.00v-19.70" class="stroke"/>
<use x="601.90" y="292.00" xlink:href="#hd"/>
<path d="M605.40 292.00v-20.30" class="stroke"/>
<use x="624.90" y="295.00" xlink:href="#hd"/>
<path d="M628.40 295.00v-20.90" class="stroke"/>
<use x="650.60" y="298.00" xlink:href="#Hd"/>
<path d="M654.10 298.00v-21.00" class="stroke"/>
</g>
</svg>
