<?xml version="1.0" standalone="no"?>
<!DOCTYPE svg PUBLIC "-//W3C//DTD SVG 1.1//EN"
	"http://www.w3.org/Graphics/SVG/1.1/DTD/svg11.dtd">
<svg xmlns="http://www.w3.org/2000/svg" version="1.1"
	xmlns:xlink="http://www.w3.org/1999/xlink"
	color="black"
	width="701.60px" height="248.00px">
<style type="text/css">
.fill {fill: currentColor}
.stroke {stroke: currentColor; fill: none}
text{white-space: pre}
</style>
<title>/media/tim/Data1/tims_code/sphinx-tunes/source/_abcfiles/Red House of Ca (1) tune 1</title>
<!-- Creator: abcm2ps-8.14.6 -->
<!-- CreationDate: Jul 30, 2023 12:21 -->
<!-- CommandLine: -g '/media/tim/Data1/tims_code/sphinx-tunes/source/_abcfiles/Red House of Cardiff the.abc' -O '/media/tim/Data1/tims_code/sphinx-tunes/source/_abcfiles/Red House of Cardiff the.svg' -->
<g stroke-width="0.70">
<!-- title: Little Red House In Cardiff -->
</g>
<g stroke-width="0.70" style="font:20.00px Times">
<text x="350.80" y="22.00" text-anchor="middle">Little Red House In Cardiff</text>
</g>
<g stroke-width="0.70" style="font:20.00px Times">
<defs>
<g id="rdots" class="fill">
	<circle cx="0" cy="-9" r="1.2"/>
	<circle cx="0" cy="-15" r="1.2"/>
</g>
</defs>
<use x="81.50" y="85.00" xlink:href="#rdots"/>
<path class="stroke" stroke-width="1"
	d="M77.50 85.00v-24.00"/>
<path class="stroke" stroke-width="3"
	d="M73.00 85.00v-24.00"/>
<path class="stroke" stroke-width="1"
	d="M117.80 85.00v-24.00"/>
<path class="stroke" stroke-width="1"
	d="M192.30 85.00v-24.00"/>
<path class="stroke" stroke-width="1"
	d="M248.50 85.00v-24.00"/>
<path class="stroke" stroke-width="1"
	d="M321.60 85.00v-24.00"/>
<path class="stroke" stroke-width="1"
	d="M411.50 85.00v-24.00"/>
<path class="stroke" stroke-width="1"
	d="M486.10 85.00v-24.00"/>
<path class="stroke" stroke-width="1"
	d="M542.20 85.00v-24.00"/>
<path class="stroke" stroke-width="1"
	d="M624.00 85.00v-24.00"/>
<path class="stroke" stroke-width="3"
	d="M690.10 85.00v-24.00"/>
<path class="stroke" stroke-width="1"
	d="M685.60 85.00v-24.00"/>
<use x="681.60" y="85.00" xlink:href="#rdots"/>
<path d="m10.00 85.00
	h681.60
	M10.00 79.00
	h681.60
	M10.00 73.00
	h681.60
	M10.00 67.00
	h681.60
	M10.00 61.00
	h681.60
	" class="stroke"/>
<defs>
<path id="utclef" class="fill" d="m-50 -90
	c-72 -41 -72 -158 52 -188
	150 -10 220 188 90 256
	-114 52 -275 0 -293 -136
	-15 -181 93 -229 220 -334
	88 -87 79 -133 62 -210
	-51 33 -94 105 -89 186
	17 267 36 374 49 574
	6 96 -19 134 -77 135
	-80 1 -126 -93 -61 -133
	85 -41 133 101 31 105
	23 17 92 37 90 -92
	-10 -223 -39 -342 -50 -617
	0 -90 0 -162 96 -232
	56 72 63 230 22 289
	-74 106 -257 168 -255 316
	9 153 148 185 252 133
	86 -65 29 -192 -80 -176
	-71 12 -105 67 -59 124"/>
<use id="tclef" transform="translate(0,6) scale(0.045)"
	xlink:href="#utclef"/>
</defs>
<use x="22.00" y="79.00" xlink:href="#tclef"/>
<defs>
<path id="usharp" class="fill" d="
	m136 -702
	v890
	h32
	v-890
	m128 840
	h32
	v-888
	h-32
	m-232 286
	v116
	l338 -96
	v-116
	m-338 442
	v116
	l338 -98
	v-114"/>
<use id="sh0" transform="translate(-4,5) scale(0.018)"
	xlink:href="#usharp"/>
</defs>
<use x="37.00" y="61.00" xlink:href="#sh0"/>
<g style="font:bold 16px serif"
	transform="translate(53.00,84.50) scale(1.2,1)">
	<text text-anchor="middle">4</text>
	<text y="-12" text-anchor="middle">4</text>
</g>
<path class="fill"
	d="M98.20 52.50l11.00 2.00v3.20l-11.00 -2.00"/>
<defs>
<ellipse id="hd" rx="4.1" ry="2.9"
	transform="rotate(-20)" class="fill"/>
</defs>
<use x="95.00" y="73.00" xlink:href="#hd"/>
<path d="M98.50 73.00v-19.40" class="stroke"/>
<use x="105.30" y="76.00" xlink:href="#hd"/>
<path d="M108.80 76.00v-20.60" class="stroke"/>
<use x="130.30" y="79.00" xlink:href="#hd"/>
<path d="M133.80 79.00v-21.00" class="stroke"/>
<use x="145.00" y="58.00" xlink:href="#hd"/>
<path d="M141.50 58.00v21.00" class="stroke"/>
<path class="fill"
	d="M154.50 79.50l11.00 2.00v-3.20l-11.00 -2.00"/>
<use x="158.40" y="58.00" xlink:href="#hd"/>
<path d="M154.90 58.00v20.60" class="stroke"/>
<use x="168.70" y="61.00" xlink:href="#hd"/>
<path d="M165.20 61.00v19.40" class="stroke"/>
<use x="179.60" y="64.00" xlink:href="#hd"/>
<path d="M176.10 64.00v21.00" class="stroke"/>
<defs>
<path id="Hd" class="fill" d="m3 -1.6
	c-1 -1.8 -7 1.4 -6 3.2
	1 1.8 7 -1.4 6 -3.2
	m0.5 -0.3
	c2 3.8 -5 7.6 -7 3.8
	-2 -3.8 5 -7.6 7 -3.8"/>
</defs>
<use x="205.30" y="67.00" xlink:href="#Hd"/>
<path d="M201.80 67.00v21.00" class="stroke"/>
<use x="222.40" y="70.00" xlink:href="#hd"/>
<path d="M218.90 70.00v21.00" class="stroke"/>
<use x="235.70" y="73.00" xlink:href="#hd"/>
<path d="M232.20 73.00v21.00" class="stroke"/>
<use x="261.00" y="70.00" xlink:href="#hd"/>
<path d="M257.50 70.00v21.00" class="stroke"/>
<use x="274.30" y="64.00" xlink:href="#hd"/>
<path d="M270.80 64.00v21.00" class="stroke"/>
<path class="fill"
	d="M283.80 85.50l11.00 2.00v-3.20l-11.00 -2.00"/>
<use x="287.70" y="64.00" xlink:href="#hd"/>
<path d="M284.20 64.00v20.60" class="stroke"/>
<use x="298.00" y="67.00" xlink:href="#hd"/>
<path d="M294.50 67.00v19.40" class="stroke"/>
<use x="308.90" y="70.00" xlink:href="#hd"/>
<path d="M305.40 70.00v21.00" class="stroke"/>
<path class="fill"
	d="M330.30 95.20l31.60 0.00v-3.20l-31.60 -0.00"/>
<use x="334.10" y="73.00" xlink:href="#hd"/>
<path d="M330.60 73.00v21.20" class="stroke"/>
<use x="344.50" y="70.00" xlink:href="#hd"/>
<path d="M341.00 70.00v24.20" class="stroke"/>
<use x="354.80" y="73.00" xlink:href="#hd"/>
<path d="M351.30 73.00v21.20" class="stroke"/>
<use x="365.10" y="76.00" xlink:href="#hd"/>
<path d="M361.60 76.00v18.20" class="stroke"/>
<use x="375.40" y="79.00" xlink:href="#hd"/>
<path d="M378.90 79.00v-21.00" class="stroke"/>
<path class="fill"
	d="M391.90 52.50l11.00 2.00v3.20l-11.00 -2.00"/>
<use x="388.70" y="73.00" xlink:href="#hd"/>
<path d="M392.20 73.00v-19.40" class="stroke"/>
<use x="399.00" y="76.00" xlink:href="#hd"/>
<path d="M402.50 76.00v-20.60" class="stroke"/>
<use x="424.00" y="79.00" xlink:href="#hd"/>
<path d="M427.50 79.00v-21.00" class="stroke"/>
<use x="438.70" y="58.00" xlink:href="#hd"/>
<path d="M435.20 58.00v21.00" class="stroke"/>
<path class="fill"
	d="M448.20 79.50l11.00 2.00v-3.20l-11.00 -2.00"/>
<use x="452.10" y="58.00" xlink:href="#hd"/>
<path d="M448.60 58.00v20.60" class="stroke"/>
<use x="462.40" y="61.00" xlink:href="#hd"/>
<path d="M458.90 61.00v19.40" class="stroke"/>
<use x="473.30" y="64.00" xlink:href="#hd"/>
<path d="M469.80 64.00v21.00" class="stroke"/>
<use x="499.10" y="67.00" xlink:href="#Hd"/>
<path d="M495.60 67.00v21.00" class="stroke"/>
<use x="516.10" y="70.00" xlink:href="#hd"/>
<path d="M512.60 70.00v21.00" class="stroke"/>
<use x="529.40" y="73.00" xlink:href="#hd"/>
<path d="M525.90 73.00v21.00" class="stroke"/>
<use x="554.70" y="73.00" xlink:href="#hd"/>
<path d="M551.20 73.00v21.00" class="stroke"/>
<use x="567.20" y="79.00" xlink:href="#hd"/>
<path d="M570.70 79.00v-21.00" class="stroke"/>
<path class="fill"
	d="M583.70 58.00l31.60 0.00v3.20l-31.60 -0.00"/>
<use x="580.50" y="82.00" xlink:href="#hd"/>
<path d="M584.00 82.00v-23.00" class="stroke"/>
<use x="590.80" y="79.00" xlink:href="#hd"/>
<path d="M594.30 79.00v-20.00" class="stroke"/>
<use x="601.10" y="76.00" xlink:href="#hd"/>
<path d="M604.60 76.00v-17.00" class="stroke"/>
<use x="611.50" y="82.00" xlink:href="#hd"/>
<path d="M615.00 82.00v-23.00" class="stroke"/>
<use x="636.50" y="79.00" xlink:href="#hd"/>
<path d="M640.00 79.00v-21.00" class="stroke"/>
<use x="649.80" y="73.00" xlink:href="#hd"/>
<path d="M653.30 73.00v-21.00" class="stroke"/>
<use x="663.10" y="79.00" xlink:href="#hd"/>
<path d="M666.60 79.00v-21.00" class="stroke"/>
</g>
<g stroke-width="0.70" style="font:20.00px Times">
<use x="52.60" y="155.00" xlink:href="#rdots"/>
<path class="stroke" stroke-width="1"
	d="M48.60 155.00v-24.00"/>
<path class="stroke" stroke-width="3"
	d="M44.10 155.00v-24.00"/>
<path class="stroke" stroke-width="1"
	d="M83.20 155.00v-24.00"/>
<path class="stroke" stroke-width="1"
	d="M165.90 155.00v-24.00"/>
<path class="stroke" stroke-width="1"
	d="M241.00 155.00v-24.00"/>
<path class="stroke" stroke-width="1"
	d="M324.60 155.00v-24.00"/>
<path class="stroke" stroke-width="1"
	d="M398.30 155.00v-24.00"/>
<path class="stroke" stroke-width="1"
	d="M481.00 155.00v-24.00"/>
<path class="stroke" stroke-width="1"
	d="M556.10 155.00v-24.00"/>
<path class="stroke" stroke-width="1"
	d="M629.80 155.00v-24.00"/>
<path class="stroke" stroke-width="3"
	d="M690.10 155.00v-24.00"/>
<path class="stroke" stroke-width="1"
	d="M685.60 155.00v-24.00"/>
<use x="681.60" y="155.00" xlink:href="#rdots"/>
<path d="m10.00 155.00
	h681.60
	M10.00 149.00
	h681.60
	M10.00 143.00
	h681.60
	M10.00 137.00
	h681.60
	M10.00 131.00
	h681.60
	" class="stroke"/>
<use x="18.30" y="149.00" xlink:href="#tclef"/>
<use x="32.40" y="131.00" xlink:href="#sh0"/>
<path class="fill"
	d="M60.20 163.50l9.50 -1.90v-3.20l-9.50 1.90"/>
<use x="64.00" y="143.00" xlink:href="#hd"/>
<path d="M60.50 143.00v19.40" class="stroke"/>
<use x="72.80" y="140.00" xlink:href="#hd"/>
<path d="M69.30 140.00v20.60" class="stroke"/>
<path class="fill"
	d="M89.80 159.80l27.20 5.50v-3.20l-27.20 -5.50"/>
<use x="93.60" y="137.00" xlink:href="#hd"/>
<path d="M90.10 137.00v21.80" class="stroke"/>
<use x="102.50" y="140.00" xlink:href="#hd"/>
<path d="M99.00 140.00v20.60" class="stroke"/>
<use x="111.30" y="143.00" xlink:href="#hd"/>
<path d="M107.80 143.00v19.40" class="stroke"/>
<use x="120.10" y="146.00" xlink:href="#hd"/>
<path d="M116.60 146.00v18.20" class="stroke"/>
<path class="fill"
	d="M132.20 126.20l27.20 -5.50v3.20l-27.20 5.50"/>
<use x="129.00" y="149.00" xlink:href="#hd"/>
<path d="M132.50 149.00v-21.80" class="stroke"/>
<use x="137.80" y="146.00" xlink:href="#hd"/>
<path d="M141.30 146.00v-20.60" class="stroke"/>
<use x="146.70" y="143.00" xlink:href="#hd"/>
<path d="M150.20 143.00v-19.40" class="stroke"/>
<use x="155.50" y="140.00" xlink:href="#hd"/>
<path d="M159.00 140.00v-18.20" class="stroke"/>
<use x="176.30" y="137.00" xlink:href="#hd"/>
<path d="M172.80 137.00v21.00" class="stroke"/>
<use x="190.20" y="137.00" xlink:href="#hd"/>
<path d="M186.70 137.00v21.00" class="stroke"/>
<path class="fill"
	d="M200.20 159.80l27.20 5.50v-3.20l-27.20 -5.50"/>
<use x="204.10" y="137.00" xlink:href="#hd"/>
<path d="M200.60 137.00v21.80" class="stroke"/>
<use x="212.90" y="140.00" xlink:href="#hd"/>
<path d="M209.40 140.00v20.60" class="stroke"/>
<use x="221.80" y="143.00" xlink:href="#hd"/>
<path d="M218.30 143.00v19.40" class="stroke"/>
<use x="230.60" y="146.00" xlink:href="#hd"/>
<path d="M227.10 146.00v18.20" class="stroke"/>
<path class="fill"
	d="M254.50 120.70l27.20 5.50v3.20l-27.20 -5.50"/>
<use x="251.40" y="140.00" xlink:href="#hd"/>
<path d="M254.90 140.00v-18.20" class="stroke"/>
<use x="260.20" y="143.00" xlink:href="#hd"/>
<path d="M263.70 143.00v-19.40" class="stroke"/>
<use x="269.10" y="146.00" xlink:href="#hd"/>
<path d="M272.60 146.00v-20.60" class="stroke"/>
<use x="277.90" y="149.00" xlink:href="#hd"/>
<path d="M281.40 149.00v-21.80" class="stroke"/>
<path class="fill"
	d="M290.90 129.20l27.20 -5.50v3.20l-27.20 5.50"/>
<use x="287.70" y="152.00" xlink:href="#hd"/>
<path d="M291.20 152.00v-21.80" class="stroke"/>
<use x="296.60" y="149.00" xlink:href="#hd"/>
<path d="M300.10 149.00v-20.60" class="stroke"/>
<use x="305.40" y="146.00" xlink:href="#hd"/>
<path d="M308.90 146.00v-19.40" class="stroke"/>
<use x="314.30" y="143.00" xlink:href="#hd"/>
<path d="M317.80 143.00v-18.20" class="stroke"/>
<use x="335.00" y="140.00" xlink:href="#hd"/>
<path d="M331.50 140.00v21.00" class="stroke"/>
<use x="348.90" y="140.00" xlink:href="#hd"/>
<path d="M345.40 140.00v21.00" class="stroke"/>
<path class="fill"
	d="M364.60 120.70l27.20 5.50v3.20l-27.20 -5.50"/>
<use x="361.40" y="140.00" xlink:href="#hd"/>
<path d="M364.90 140.00v-18.20" class="stroke"/>
<use x="370.30" y="143.00" xlink:href="#hd"/>
<path d="M373.80 143.00v-19.40" class="stroke"/>
<use x="379.10" y="146.00" xlink:href="#hd"/>
<path d="M382.60 146.00v-20.60" class="stroke"/>
<use x="387.90" y="149.00" xlink:href="#hd"/>
<path d="M391.40 149.00v-21.80" class="stroke"/>
<path class="fill"
	d="M404.90 159.80l27.20 5.50v-3.20l-27.20 -5.50"/>
<use x="408.70" y="137.00" xlink:href="#hd"/>
<path d="M405.20 137.00v21.80" class="stroke"/>
<use x="417.60" y="140.00" xlink:href="#hd"/>
<path d="M414.10 140.00v20.60" class="stroke"/>
<use x="426.40" y="143.00" xlink:href="#hd"/>
<path d="M422.90 143.00v19.40" class="stroke"/>
<use x="435.20" y="146.00" xlink:href="#hd"/>
<path d="M431.70 146.00v18.20" class="stroke"/>
<path class="fill"
	d="M447.20 126.20l27.20 -5.50v3.20l-27.20 5.50"/>
<use x="444.10" y="149.00" xlink:href="#hd"/>
<path d="M447.60 149.00v-21.80" class="stroke"/>
<use x="452.90" y="146.00" xlink:href="#hd"/>
<path d="M456.40 146.00v-20.60" class="stroke"/>
<use x="461.80" y="143.00" xlink:href="#hd"/>
<path d="M465.30 143.00v-19.40" class="stroke"/>
<use x="470.60" y="140.00" xlink:href="#hd"/>
<path d="M474.10 140.00v-18.20" class="stroke"/>
<use x="491.40" y="137.00" xlink:href="#hd"/>
<path d="M487.90 137.00v21.00" class="stroke"/>
<use x="505.30" y="137.00" xlink:href="#hd"/>
<path d="M501.80 137.00v21.00" class="stroke"/>
<path class="fill"
	d="M515.30 159.80l27.20 5.50v-3.20l-27.20 -5.50"/>
<use x="519.20" y="137.00" xlink:href="#hd"/>
<path d="M515.70 137.00v21.80" class="stroke"/>
<use x="528.00" y="140.00" xlink:href="#hd"/>
<path d="M524.50 140.00v20.60" class="stroke"/>
<use x="536.80" y="143.00" xlink:href="#hd"/>
<path d="M533.30 143.00v19.40" class="stroke"/>
<use x="545.70" y="146.00" xlink:href="#hd"/>
<path d="M542.20 146.00v18.20" class="stroke"/>
<use x="566.50" y="143.00" xlink:href="#hd"/>
<path d="M563.00 143.00v21.00" class="stroke"/>
<use x="579.00" y="149.00" xlink:href="#hd"/>
<path d="M582.50 149.00v-21.00" class="stroke"/>
<path class="fill"
	d="M596.00 128.00l27.20 0.00v3.20l-27.20 -0.00"/>
<use x="592.80" y="152.00" xlink:href="#hd"/>
<path d="M596.30 152.00v-23.00" class="stroke"/>
<use x="601.70" y="149.00" xlink:href="#hd"/>
<path d="M605.20 149.00v-20.00" class="stroke"/>
<use x="610.50" y="146.00" xlink:href="#hd"/>
<path d="M614.00 146.00v-17.00" class="stroke"/>
<use x="619.40" y="152.00" xlink:href="#hd"/>
<path d="M622.90 152.00v-23.00" class="stroke"/>
<use x="640.10" y="149.00" xlink:href="#hd"/>
<path d="M643.60 149.00v-21.00" class="stroke"/>
<use x="654.00" y="143.00" xlink:href="#hd"/>
<path d="M657.50 143.00v-21.00" class="stroke"/>
<use x="667.90" y="149.00" xlink:href="#hd"/>
<path d="M671.40 149.00v-21.00" class="stroke"/>
</g>
<g stroke-width="0.70" style="font:20.00px Times">
<use x="61.50" y="225.00" xlink:href="#rdots"/>
<path class="stroke" stroke-width="1"
	d="M57.50 225.00v-24.00"/>
<path class="stroke" stroke-width="3"
	d="M53.00 225.00v-24.00"/>
<path class="stroke" stroke-width="1"
	d="M87.50 225.00v-24.00"/>
<path class="stroke" stroke-width="1"
	d="M166.60 225.00v-24.00"/>
<path class="stroke" stroke-width="1"
	d="M245.60 225.00v-24.00"/>
<path class="stroke" stroke-width="1"
	d="M321.90 225.00v-24.00"/>
<path class="stroke" stroke-width="1"
	d="M399.70 225.00v-24.00"/>
<path class="stroke" stroke-width="1"
	d="M478.80 225.00v-24.00"/>
<path class="stroke" stroke-width="1"
	d="M557.80 225.00v-24.00"/>
<path class="stroke" stroke-width="1"
	d="M635.20 225.00v-24.00"/>
<path class="stroke" stroke-width="3"
	d="M690.10 225.00v-24.00"/>
<path class="stroke" stroke-width="1"
	d="M685.60 225.00v-24.00"/>
<use x="681.60" y="225.00" xlink:href="#rdots"/>
<path d="m10.00 225.00
	h681.60
	M10.00 219.00
	h681.60
	M10.00 213.00
	h681.60
	M10.00 207.00
	h681.60
	M10.00 201.00
	h681.60
	" class="stroke"/>
<use x="22.00" y="219.00" xlink:href="#tclef"/>
<use x="37.00" y="201.00" xlink:href="#sh0"/>
<use x="75.00" y="219.00" xlink:href="#hd"/>
<path d="M78.50 219.00v-21.00" class="stroke"/>
<path class="fill"
	d="M103.20 194.50l10.40 -2.00v3.20l-10.40 2.00"/>
<use x="100.00" y="216.00" xlink:href="#hd"/>
<path d="M103.50 216.00v-20.60" class="stroke"/>
<use x="109.70" y="213.00" xlink:href="#hd"/>
<path d="M113.20 213.00v-19.40" class="stroke"/>
<use x="121.50" y="210.00" xlink:href="#hd"/>
<path d="M118.00 210.00v21.00" class="stroke"/>
<path class="fill"
	d="M135.80 194.50l10.40 -2.00v3.20l-10.40 2.00"/>
<use x="132.60" y="216.00" xlink:href="#hd"/>
<path d="M136.10 216.00v-20.60" class="stroke"/>
<use x="142.30" y="213.00" xlink:href="#hd"/>
<path d="M145.80 213.00v-19.40" class="stroke"/>
<use x="154.10" y="210.00" xlink:href="#hd"/>
<path d="M150.60 210.00v21.00" class="stroke"/>
<path class="fill"
	d="M182.30 194.50l10.40 -2.00v3.20l-10.40 2.00"/>
<use x="179.10" y="216.00" xlink:href="#hd"/>
<path d="M182.60 216.00v-20.60" class="stroke"/>
<use x="188.80" y="213.00" xlink:href="#hd"/>
<path d="M192.30 213.00v-19.40" class="stroke"/>
<use x="200.60" y="210.00" xlink:href="#hd"/>
<path d="M197.10 210.00v21.00" class="stroke"/>
<use x="212.30" y="210.00" xlink:href="#hd"/>
<path d="M208.80 210.00v21.00" class="stroke"/>
<path class="fill"
	d="M226.60 192.50l10.40 2.00v3.20l-10.40 -2.00"/>
<use x="223.40" y="213.00" xlink:href="#hd"/>
<path d="M226.90 213.00v-19.40" class="stroke"/>
<use x="233.10" y="216.00" xlink:href="#hd"/>
<path d="M236.60 216.00v-20.60" class="stroke"/>
<path class="fill"
	d="M254.30 233.50l10.40 -2.00v-3.20l-10.40 2.00"/>
<use x="258.10" y="213.00" xlink:href="#hd"/>
<path d="M254.60 213.00v19.40" class="stroke"/>
<use x="267.80" y="210.00" xlink:href="#hd"/>
<path d="M264.30 210.00v20.60" class="stroke"/>
<use x="277.90" y="207.00" xlink:href="#hd"/>
<path d="M274.40 207.00v21.00" class="stroke"/>
<path class="fill"
	d="M285.70 233.50l10.40 -2.00v-3.20l-10.40 2.00"/>
<use x="289.60" y="213.00" xlink:href="#hd"/>
<path d="M286.10 213.00v19.40" class="stroke"/>
<use x="299.30" y="210.00" xlink:href="#hd"/>
<path d="M295.80 210.00v20.60" class="stroke"/>
<use x="309.40" y="207.00" xlink:href="#hd"/>
<path d="M305.90 207.00v21.00" class="stroke"/>
<path class="fill"
	d="M330.50 233.50l10.40 -2.00v-3.20l-10.40 2.00"/>
<use x="334.40" y="213.00" xlink:href="#hd"/>
<path d="M330.90 213.00v19.40" class="stroke"/>
<use x="344.10" y="210.00" xlink:href="#hd"/>
<path d="M340.60 210.00v20.60" class="stroke"/>
<use x="354.10" y="207.00" xlink:href="#hd"/>
<path d="M350.60 207.00v21.00" class="stroke"/>
<use x="365.80" y="207.00" xlink:href="#hd"/>
<path d="M362.30 207.00v21.00" class="stroke"/>
<path class="fill"
	d="M373.60 231.50l10.40 2.00v-3.20l-10.40 -2.00"/>
<use x="377.50" y="210.00" xlink:href="#hd"/>
<path d="M374.00 210.00v20.60" class="stroke"/>
<use x="387.20" y="213.00" xlink:href="#hd"/>
<path d="M383.70 213.00v19.40" class="stroke"/>
<path class="fill"
	d="M415.30 194.50l10.40 -2.00v3.20l-10.40 2.00"/>
<use x="412.20" y="216.00" xlink:href="#hd"/>
<path d="M415.70 216.00v-20.60" class="stroke"/>
<use x="421.90" y="213.00" xlink:href="#hd"/>
<path d="M425.40 213.00v-19.40" class="stroke"/>
<use x="433.70" y="210.00" xlink:href="#hd"/>
<path d="M430.20 210.00v21.00" class="stroke"/>
<path class="fill"
	d="M448.00 194.50l10.40 -2.00v3.20l-10.40 2.00"/>
<use x="444.80" y="216.00" xlink:href="#hd"/>
<path d="M448.30 216.00v-20.60" class="stroke"/>
<use x="454.50" y="213.00" xlink:href="#hd"/>
<path d="M458.00 213.00v-19.40" class="stroke"/>
<use x="466.30" y="210.00" xlink:href="#hd"/>
<path d="M462.80 210.00v21.00" class="stroke"/>
<path class="fill"
	d="M494.50 194.50l10.40 -2.00v3.20l-10.40 2.00"/>
<use x="491.30" y="216.00" xlink:href="#hd"/>
<path d="M494.80 216.00v-20.60" class="stroke"/>
<use x="501.00" y="213.00" xlink:href="#hd"/>
<path d="M504.50 213.00v-19.40" class="stroke"/>
<use x="512.80" y="210.00" xlink:href="#hd"/>
<path d="M509.30 210.00v21.00" class="stroke"/>
<use x="524.50" y="210.00" xlink:href="#hd"/>
<path d="M521.00 210.00v21.00" class="stroke"/>
<path class="fill"
	d="M538.80 192.50l10.40 2.00v3.20l-10.40 -2.00"/>
<use x="535.60" y="213.00" xlink:href="#hd"/>
<path d="M539.10 213.00v-19.40" class="stroke"/>
<use x="545.30" y="216.00" xlink:href="#hd"/>
<path d="M548.80 216.00v-20.60" class="stroke"/>
<use x="570.30" y="213.00" xlink:href="#hd"/>
<path d="M573.80 213.00v-21.00" class="stroke"/>
<use x="582.00" y="219.00" xlink:href="#hd"/>
<path d="M585.50 219.00v-21.00" class="stroke"/>
<path class="fill"
	d="M596.80 198.00l29.80 0.00v3.20l-29.80 -0.00"/>
<use x="593.70" y="222.00" xlink:href="#hd"/>
<path d="M597.20 222.00v-23.00" class="stroke"/>
<use x="603.40" y="219.00" xlink:href="#hd"/>
<path d="M606.90 219.00v-20.00" class="stroke"/>
<use x="613.10" y="216.00" xlink:href="#hd"/>
<path d="M616.60 216.00v-17.00" class="stroke"/>
<use x="622.70" y="222.00" xlink:href="#hd"/>
<path d="M626.20 222.00v-23.00" class="stroke"/>
<use x="647.70" y="219.00" xlink:href="#hd"/>
<path d="M651.20 219.00v-21.00" class="stroke"/>
<use x="659.40" y="213.00" xlink:href="#hd"/>
<path d="M662.90 213.00v-21.00" class="stroke"/>
<use x="671.10" y="219.00" xlink:href="#hd"/>
<path d="M674.60 219.00v-21.00" class="stroke"/>
</g>
</svg>
