<?xml version="1.0" standalone="no"?>
<!DOCTYPE svg PUBLIC "-//W3C//DTD SVG 1.1//EN"
	"http://www.w3.org/Graphics/SVG/1.1/DTD/svg11.dtd">
<svg xmlns="http://www.w3.org/2000/svg" version="1.1"
	xmlns:xlink="http://www.w3.org/1999/xlink"
	color="black"
	width="701.60px" height="346.00px">
<style type="text/css">
.fill {fill: currentColor}
.stroke {stroke: currentColor; fill: none}
text{white-space: pre}
</style>
<title>/media/tim/Data1/tims_code/sphinx-tunes/source/_abcfiles/Rowantree_Hill. (1) tune 1</title>
<!-- Creator: abcm2ps-8.14.6 -->
<!-- CreationDate: Jul 30, 2023 12:21 -->
<!-- CommandLine: -g /media/tim/Data1/tims_code/sphinx-tunes/source/_abcfiles/Rowantree_Hill.abc -O /media/tim/Data1/tims_code/sphinx-tunes/source/_abcfiles/Rowantree_Hill.svg -->
<g stroke-width="0.70">
<!-- title: Rowantree Hill -->
</g>
<g stroke-width="0.70" style="font:20.00px Times">
<text x="350.80" y="22.00" text-anchor="middle">Rowantree Hill</text>
</g>
<g stroke-width="0.70" style="font:italic 14.00px Times">
<text x="691.60" y="46.00" text-anchor="end">Jack Armstrong Arr. Roy Harknell</text>
</g>
<g stroke-width="0.70" style="font:italic 14.00px Times">
<text x="691.60" y="60.00" text-anchor="end">(Some Grace Notes Suggested by Paul Tabbush)</text>
</g>
<g stroke-width="0.70" style="font:italic 14.00px Times">
<path class="stroke" stroke-width="1"
	d="M88.60 113.00v-24.00"/>
<path class="stroke" stroke-width="1"
	d="M162.70 113.00v-24.00"/>
<path class="stroke" stroke-width="1"
	d="M239.60 113.00v-24.00"/>
<path class="stroke" stroke-width="1"
	d="M320.20 113.00v-24.00"/>
<path class="stroke" stroke-width="1"
	d="M383.10 113.00v-24.00"/>
<path class="stroke" stroke-width="1"
	d="M459.10 113.00v-24.00"/>
<path class="stroke" stroke-width="1"
	d="M533.70 113.00v-24.00"/>
<path class="stroke" stroke-width="1"
	d="M628.70 113.00v-24.00"/>
<path class="stroke" stroke-width="1"
	d="M691.60 113.00v-24.00"/>
<path d="m10.00 113.00
	h681.60
	M10.00 107.00
	h681.60
	M10.00 101.00
	h681.60
	M10.00 95.00
	h681.60
	M10.00 89.00
	h681.60
	" class="stroke"/>
<defs>
<path id="utclef" class="fill" d="m-50 -90
	c-72 -41 -72 -158 52 -188
	150 -10 220 188 90 256
	-114 52 -275 0 -293 -136
	-15 -181 93 -229 220 -334
	88 -87 79 -133 62 -210
	-51 33 -94 105 -89 186
	17 267 36 374 49 574
	6 96 -19 134 -77 135
	-80 1 -126 -93 -61 -133
	85 -41 133 101 31 105
	23 17 92 37 90 -92
	-10 -223 -39 -342 -50 -617
	0 -90 0 -162 96 -232
	56 72 63 230 22 289
	-74 106 -257 168 -255 316
	9 153 148 185 252 133
	86 -65 29 -192 -80 -176
	-71 12 -105 67 -59 124"/>
<use id="tclef" transform="translate(0,6) scale(0.045)"
	xlink:href="#utclef"/>
</defs>
<use x="22.00" y="107.00" xlink:href="#tclef"/>
<defs>
<path id="usharp" class="fill" d="
	m136 -702
	v890
	h32
	v-890
	m128 840
	h32
	v-888
	h-32
	m-232 286
	v116
	l338 -96
	v-116
	m-338 442
	v116
	l338 -98
	v-114"/>
<use id="sh0" transform="translate(-4,5) scale(0.018)"
	xlink:href="#usharp"/>
</defs>
<use x="37.00" y="89.00" xlink:href="#sh0"/>
<g style="font:bold 16px serif"
	transform="translate(53.00,112.50) scale(1.2,1)">
	<text text-anchor="middle">4</text>
	<text y="-12" text-anchor="middle">3</text>
</g>
<defs>
<ellipse id="hd" rx="4.1" ry="2.9"
	transform="rotate(-20)" class="fill"/>
</defs>
<use x="71.00" y="107.00" xlink:href="#hd"/>
<path d="M74.50 107.00v-21.00" class="stroke"/>
<use x="101.10" y="101.00" xlink:href="#hd"/>
<circle class="fill" cx="108.80" cy="98.00" r="1.2"/>
<path d="M104.60 101.00v-21.00" class="stroke"/>
<use x="129.50" y="98.00" xlink:href="#hd"/>
<path d="M126.00 98.00v21.00" class="stroke"/>
<path class="fill"
	d="M126.00 119.00c0.6 -5.6 9.6 -9 5.6 -18.4
	1.6 6 -1.3 11.6 -5.6 12.8
"/>
<use x="145.10" y="104.00" xlink:href="#hd"/>
<path d="M148.60 104.00v-21.00" class="stroke"/>
<defs>
<path id="ghd" class="fill" d="m2.2 -1.5
	c-1.32 -2.31 -5.94 0.33 -4.62 2.64
	1.32 2.31 5.94 -0.33 4.62 -2.64"/>
</defs>
<use x="177.20" y="110.00" xlink:href="#ghd"/>
<path d="M179.50 110.00v-15.00" class="stroke"/>
<path class="fill"
	d="M179.50 95.00c0.6 3.4 5.6 3.8 3 10
	1.2 -4.4 -1.4 -7 -3 -7
"/>
<path class="stroke"
	d="M177.20 115.00c2.30 2.40 9.20 0.60 11.50 -3.00"/>
<defs>
<path id="Hd" class="fill" d="m3 -1.6
	c-1 -1.8 -7 1.4 -6 3.2
	1 1.8 7 -1.4 6 -3.2
	m0.5 -0.3
	c2 3.8 -5 7.6 -7 3.8
	-2 -3.8 5 -7.6 7 -3.8"/>
</defs>
<use x="189.70" y="107.00" xlink:href="#Hd"/>
<path d="M193.20 107.00v-21.00" class="stroke"/>
<use x="221.90" y="110.00" xlink:href="#hd"/>
<path d="M225.40 110.00v-21.00" class="stroke"/>
<use x="252.10" y="113.00" xlink:href="#hd"/>
<path d="M255.60 113.00v-21.00" class="stroke"/>
<use x="275.40" y="107.00" xlink:href="#hd"/>
<circle class="fill" cx="283.10" cy="104.00" r="1.2"/>
<path d="M278.90 107.00v-21.00" class="stroke"/>
<use x="303.20" y="113.00" xlink:href="#hd"/>
<path d="M306.70 113.00v-21.00" class="stroke"/>
<path class="fill"
	d="M306.70 92.00c0.6 5.6 9.6 9 5.6 18.4
	1.6 -6 -1.3 -11.6 -5.6 -12.8
"/>
<use x="333.20" y="116.00" xlink:href="#Hd"/>
<path d="M336.70 116.00v-21.00" class="stroke"/>
<use x="365.50" y="116.00" xlink:href="#hd"/>
<path d="M369.00 116.00v-21.00" class="stroke"/>
<use x="395.60" y="101.00" xlink:href="#hd"/>
<circle class="fill" cx="403.30" cy="98.00" r="1.2"/>
<path d="M399.10 101.00v-21.00" class="stroke"/>
<use x="423.50" y="104.00" xlink:href="#hd"/>
<path d="M427.00 104.00v-21.00" class="stroke"/>
<path class="fill"
	d="M427.00 83.00c0.6 5.6 9.6 9 5.6 18.4
	1.6 -6 -1.3 -11.6 -5.6 -12.8
"/>
<use x="441.50" y="101.00" xlink:href="#hd"/>
<path d="M445.00 101.00v-21.00" class="stroke"/>
<use x="471.60" y="95.00" xlink:href="#hd"/>
<path d="M468.10 95.00v21.00" class="stroke"/>
<use x="494.90" y="98.00" xlink:href="#hd"/>
<path d="M491.40 98.00v21.00" class="stroke"/>
<use x="516.00" y="104.00" xlink:href="#hd"/>
<path d="M519.50 104.00v-21.00" class="stroke"/>
<path class="fill"
	d="M550.20 84.70l8.60 3.20v1.80l-8.60 -3.20"/>
<path class="fill"
	d="M550.50 88.30l8.00 3.00v1.80l-8.00 -3.00"/>
<use x="548.20" y="101.00" xlink:href="#ghd"/>
<path d="M550.50 101.00v-15.20" class="stroke"/>
<path d="M547.20 97.00l8.00 -13.70" class="stroke"/>
<use x="556.20" y="104.00" xlink:href="#ghd"/>
<path d="M558.50 104.00v-15.20" class="stroke"/>
<path class="stroke"
	d="M552.20 108.00c2.90 3.80 11.60 6.20 14.50 4.00"/>
<use x="567.70" y="107.00" xlink:href="#Hd"/>
<path d="M571.20 107.00v-21.00" class="stroke"/>
<path class="fill"
	d="M603.10 82.60l16.20 -2.30v3.20l-16.20 2.30"/>
<use x="599.90" y="104.00" xlink:href="#hd"/>
<path d="M603.40 104.00v-20.40" class="stroke"/>
<use x="615.40" y="101.00" xlink:href="#hd"/>
<path d="M618.90 101.00v-19.60" class="stroke"/>
<use x="641.70" y="104.00" xlink:href="#Hd"/>
<path d="M645.20 104.00v-21.00" class="stroke"/>
<use x="674.00" y="116.00" xlink:href="#hd"/>
<path d="M677.50 116.00v-21.00" class="stroke"/>
</g>
<g stroke-width="0.70" style="font:italic 14.00px Times">
<path class="stroke" stroke-width="1"
	d="M127.10 183.00v-24.00"/>
<path class="stroke" stroke-width="1"
	d="M211.40 183.00v-24.00"/>
<path class="stroke" stroke-width="1"
	d="M293.30 183.00v-24.00"/>
<path class="stroke" stroke-width="1"
	d="M378.80 183.00v-24.00"/>
<path class="stroke" stroke-width="1"
	d="M463.40 183.00v-24.00"/>
<path class="stroke" stroke-width="1"
	d="M548.30 183.00v-24.00"/>
<path class="stroke" stroke-width="1"
	d="M633.10 183.00v-24.00"/>
<path class="stroke" stroke-width="1"
	d="M691.60 183.00v-24.00"/>
<path class="stroke" stroke-width="1"
	d="M688.60 183.00v-24.00"/>
<path d="m10.00 183.00
	h681.60
	M10.00 177.00
	h681.60
	M10.00 171.00
	h681.60
	M10.00 165.00
	h681.60
	M10.00 159.00
	h681.60
	" class="stroke"/>
<use x="22.00" y="177.00" xlink:href="#tclef"/>
<use x="37.00" y="159.00" xlink:href="#sh0"/>
<use x="55.00" y="171.00" xlink:href="#hd"/>
<circle class="fill" cx="62.70" cy="168.00" r="1.2"/>
<path d="M58.50 171.00v-21.00" class="stroke"/>
<use x="87.40" y="168.00" xlink:href="#hd"/>
<path d="M83.90 168.00v21.00" class="stroke"/>
<path class="fill"
	d="M83.90 189.00c0.6 -5.6 9.6 -9 5.6 -18.4
	1.6 6 -1.3 11.6 -5.6 12.8
"/>
<use x="107.10" y="165.00" xlink:href="#hd"/>
<path d="M103.60 165.00v21.00" class="stroke"/>
<use x="139.60" y="165.00" xlink:href="#hd"/>
<circle class="fill" cx="147.30" cy="162.00" r="1.2"/>
<path d="M136.10 165.00v21.00" class="stroke"/>
<use x="171.70" y="162.00" xlink:href="#hd"/>
<path d="M168.20 162.00v21.00" class="stroke"/>
<path class="fill"
	d="M168.20 183.00c0.6 -5.6 9.6 -9 5.6 -18.4
	1.6 6 -1.3 11.6 -5.6 12.8
"/>
<use x="191.40" y="159.00" xlink:href="#hd"/>
<path d="M187.90 159.00v21.00" class="stroke"/>
<use x="223.90" y="156.00" xlink:href="#hd"/>
<circle class="fill" cx="231.60" cy="156.00" r="1.2"/>
<path d="M220.40 156.00v21.00" class="stroke"/>
<use x="253.00" y="177.00" xlink:href="#hd"/>
<path d="M256.50 177.00v-21.00" class="stroke"/>
<path class="fill"
	d="M256.50 156.00c0.6 5.6 9.6 9 5.6 18.4
	1.6 -6 -1.3 -11.6 -5.6 -12.8
"/>
<use x="273.30" y="174.00" xlink:href="#hd"/>
<path d="M276.80 174.00v-21.00" class="stroke"/>
<use x="307.80" y="174.00" xlink:href="#ghd"/>
<path d="M310.10 174.00v-15.00" class="stroke"/>
<path class="fill"
	d="M310.10 159.00c0.6 3.4 5.6 3.8 3 10
	1.2 -4.4 -1.4 -7 -3 -7
"/>
<path class="stroke"
	d="M307.80 179.00c2.30 2.40 9.20 0.60 11.50 -3.00"/>
<use x="320.30" y="171.00" xlink:href="#Hd"/>
<path d="M323.80 171.00v-21.00" class="stroke"/>
<use x="358.80" y="171.00" xlink:href="#hd"/>
<path d="M362.30 171.00v-21.00" class="stroke"/>
<use x="391.30" y="174.00" xlink:href="#hd"/>
<circle class="fill" cx="399.00" cy="174.00" r="1.2"/>
<path d="M394.80 174.00v-21.00" class="stroke"/>
<use x="423.70" y="168.00" xlink:href="#hd"/>
<path d="M420.20 168.00v21.00" class="stroke"/>
<path class="fill"
	d="M420.20 189.00c0.6 -5.6 9.6 -9 5.6 -18.4
	1.6 6 -1.3 11.6 -5.6 12.8
"/>
<use x="443.40" y="162.00" xlink:href="#hd"/>
<path d="M439.90 162.00v21.00" class="stroke"/>
<use x="475.90" y="165.00" xlink:href="#hd"/>
<path d="M472.40 165.00v21.00" class="stroke"/>
<use x="503.40" y="171.00" xlink:href="#hd"/>
<path d="M499.90 171.00v21.00" class="stroke"/>
<use x="528.30" y="177.00" xlink:href="#hd"/>
<path d="M531.80 177.00v-21.00" class="stroke"/>
<use x="560.80" y="180.00" xlink:href="#hd"/>
<path d="M564.30 180.00v-21.00" class="stroke"/>
<path class="fill"
	d="M564.30 159.00c0.6 5.6 9.6 9 5.6 18.4
	1.6 -6 -1.3 -11.6 -5.6 -12.8
"/>
<use x="581.10" y="171.00" xlink:href="#hd"/>
<circle class="fill" cx="588.80" cy="168.00" r="1.2"/>
<path d="M584.60 171.00v-21.00" class="stroke"/>
<use x="613.10" y="174.00" xlink:href="#hd"/>
<path d="M616.60 174.00v-21.00" class="stroke"/>
<use x="647.60" y="180.00" xlink:href="#ghd"/>
<path d="M649.90 180.00v-15.00" class="stroke"/>
<path class="fill"
	d="M649.90 165.00c0.6 3.4 5.6 3.8 3 10
	1.2 -4.4 -1.4 -7 -3 -7
"/>
<path class="stroke"
	d="M647.60 185.00c2.30 2.40 9.20 0.60 11.50 -3.00"/>
<use x="660.10" y="177.00" xlink:href="#Hd"/>
<path d="M663.60 177.00v-21.00" class="stroke"/>
</g>
<g stroke-width="0.70" style="font:italic 14.00px Times">
<path class="stroke" stroke-width="1"
	d="M91.60 253.00v-24.00"/>
<path class="stroke" stroke-width="1"
	d="M164.10 253.00v-24.00"/>
<path class="stroke" stroke-width="1"
	d="M236.60 253.00v-24.00"/>
<path class="stroke" stroke-width="1"
	d="M308.70 253.00v-24.00"/>
<path class="stroke" stroke-width="1"
	d="M405.40 253.00v-24.00"/>
<path class="stroke" stroke-width="1"
	d="M478.00 253.00v-24.00"/>
<path class="stroke" stroke-width="1"
	d="M552.10 253.00v-24.00"/>
<path class="stroke" stroke-width="1"
	d="M630.70 253.00v-24.00"/>
<path class="stroke" stroke-width="1"
	d="M691.60 253.00v-24.00"/>
<path d="m10.00 253.00
	h681.60
	M10.00 247.00
	h681.60
	M10.00 241.00
	h681.60
	M10.00 235.00
	h681.60
	M10.00 229.00
	h681.60
	" class="stroke"/>
<text style="font:italic 12px serif"
	x="64.70" y="267.40" text-anchor="middle">3</text>
<use x="22.00" y="247.00" xlink:href="#tclef"/>
<use x="37.00" y="229.00" xlink:href="#sh0"/>
<path class="fill"
	d="M51.20 255.10l24.70 -4.10v-3.20l-24.70 4.10"/>
<use x="55.00" y="235.00" xlink:href="#hd"/>
<path d="M51.50 235.00v19.00" class="stroke"/>
<use x="67.00" y="232.00" xlink:href="#hd"/>
<path d="M63.50 232.00v20.00" class="stroke"/>
<use x="79.10" y="229.00" xlink:href="#hd"/>
<path d="M75.60 229.00v21.00" class="stroke"/>
<use x="104.10" y="226.00" xlink:href="#hd"/>
<circle class="fill" cx="111.80" cy="226.00" r="1.2"/>
<path d="M100.60 226.00v21.00" class="stroke"/>
<defs>
<path id="hl" class="stroke" d="m-6 0h12"/>
</defs>
<use x="130.80" y="223.00" xlink:href="#hl"/>
<use x="130.80" y="223.00" xlink:href="#hd"/>
<path d="M127.30 223.00v21.00" class="stroke"/>
<path class="fill"
	d="M127.30 244.00c0.6 -5.6 9.6 -9 5.6 -18.4
	1.6 6 -1.3 11.6 -5.6 12.8
"/>
<use x="147.20" y="229.00" xlink:href="#hd"/>
<path d="M143.70 229.00v21.00" class="stroke"/>
<use x="176.60" y="232.00" xlink:href="#hd"/>
<circle class="fill" cx="184.30" cy="232.00" r="1.2"/>
<path d="M173.10 232.00v21.00" class="stroke"/>
<use x="203.30" y="226.00" xlink:href="#hd"/>
<path d="M199.80 226.00v21.00" class="stroke"/>
<path class="fill"
	d="M199.80 247.00c0.6 -5.6 9.6 -9 5.6 -18.4
	1.6 6 -1.3 11.6 -5.6 12.8
"/>
<use x="219.70" y="232.00" xlink:href="#hd"/>
<path d="M216.20 232.00v21.00" class="stroke"/>
<use x="249.10" y="235.00" xlink:href="#hd"/>
<path d="M245.60 235.00v21.00" class="stroke"/>
<use x="269.40" y="247.00" xlink:href="#hd"/>
<path d="M272.90 247.00v-21.00" class="stroke"/>
<use x="291.80" y="244.00" xlink:href="#hd"/>
<path d="M295.30 244.00v-21.00" class="stroke"/>
<use x="323.20" y="238.00" xlink:href="#ghd"/>
<path d="M325.50 238.00v-15.00" class="stroke"/>
<path class="fill"
	d="M325.50 223.00c0.6 3.4 5.6 3.8 3 10
	1.2 -4.4 -1.4 -7 -3 -7
"/>
<path class="stroke"
	d="M323.20 243.00c2.10 3.60 8.40 5.40 10.50 3.00"/>
<use x="334.70" y="241.00" xlink:href="#Hd"/>
<path d="M338.20 241.00v-21.00" class="stroke"/>
<use x="366.20" y="235.00" xlink:href="#hd"/>
<path d="M362.70 235.00v21.00" class="stroke"/>
<use x="417.90" y="226.00" xlink:href="#hd"/>
<circle class="fill" cx="425.60" cy="226.00" r="1.2"/>
<path d="M414.40 226.00v21.00" class="stroke"/>
<use x="444.70" y="223.00" xlink:href="#hl"/>
<use x="444.70" y="223.00" xlink:href="#hd"/>
<path d="M441.20 223.00v21.00" class="stroke"/>
<path class="fill"
	d="M441.20 244.00c0.6 -5.6 9.6 -9 5.6 -18.4
	1.6 6 -1.3 11.6 -5.6 12.8
"/>
<use x="461.00" y="229.00" xlink:href="#hd"/>
<path d="M457.50 229.00v21.00" class="stroke"/>
<use x="490.50" y="232.00" xlink:href="#hd"/>
<path d="M487.00 232.00v21.00" class="stroke"/>
<use x="512.80" y="235.00" xlink:href="#hd"/>
<path d="M509.30 235.00v21.00" class="stroke"/>
<use x="535.20" y="241.00" xlink:href="#hd"/>
<path d="M531.70 241.00v21.00" class="stroke"/>
<use x="564.60" y="244.00" xlink:href="#hd"/>
<path d="M568.10 244.00v-21.00" class="stroke"/>
<use x="587.00" y="253.00" xlink:href="#hd"/>
<circle class="fill" cx="594.70" cy="250.00" r="1.2"/>
<path d="M590.50 253.00v-21.00" class="stroke"/>
<use x="613.70" y="241.00" xlink:href="#hd"/>
<path d="M617.20 241.00v-21.00" class="stroke"/>
<path class="fill"
	d="M617.20 220.00c0.6 5.6 9.6 9 5.6 18.4
	1.6 -6 -1.3 -11.6 -5.6 -12.8
"/>
<use x="643.70" y="244.00" xlink:href="#Hd"/>
<path d="M647.20 244.00v-21.00" class="stroke"/>
<use x="674.70" y="253.00" xlink:href="#hd"/>
<path d="M678.20 253.00v-21.00" class="stroke"/>
</g>
<g stroke-width="0.70" style="font:italic 14.00px Times">
<path class="stroke" stroke-width="1"
	d="M54.50 323.00v-24.00"/>
<path class="stroke" stroke-width="1"
	d="M137.70 323.00v-24.00"/>
<path class="stroke" stroke-width="1"
	d="M220.80 323.00v-24.00"/>
<path class="stroke" stroke-width="1"
	d="M301.40 323.00v-24.00"/>
<path class="stroke" stroke-width="1"
	d="M384.90 323.00v-24.00"/>
<path class="stroke" stroke-width="1"
	d="M467.40 323.00v-24.00"/>
<path class="stroke" stroke-width="1"
	d="M550.40 323.00v-24.00"/>
<path class="stroke" stroke-width="1"
	d="M633.60 323.00v-24.00"/>
<path class="stroke" stroke-width="3"
	d="M690.10 323.00v-24.00"/>
<path class="stroke" stroke-width="1"
	d="M685.60 323.00v-24.00"/>
<path d="m10.00 323.00
	h681.60
	M10.00 317.00
	h681.60
	M10.00 311.00
	h681.60
	M10.00 305.00
	h681.60
	M10.00 299.00
	h681.60
	" class="stroke"/>
<use x="22.00" y="317.00" xlink:href="#tclef"/>
<use x="37.00" y="299.00" xlink:href="#sh0"/>
<use x="67.00" y="326.00" xlink:href="#hd"/>
<circle class="fill" cx="74.70" cy="326.00" r="1.2"/>
<path d="M70.50 326.00v-21.00" class="stroke"/>
<use x="98.30" y="323.00" xlink:href="#hd"/>
<path d="M101.80 323.00v-21.00" class="stroke"/>
<path class="fill"
	d="M101.80 302.00c0.6 5.6 9.6 9 5.6 18.4
	1.6 -6 -1.3 -11.6 -5.6 -12.8
"/>
<use x="118.10" y="320.00" xlink:href="#hd"/>
<path d="M121.60 320.00v-21.00" class="stroke"/>
<use x="150.20" y="317.00" xlink:href="#hd"/>
<circle class="fill" cx="157.90" cy="314.00" r="1.2"/>
<path d="M153.70 317.00v-21.00" class="stroke"/>
<use x="181.40" y="314.00" xlink:href="#hd"/>
<path d="M184.90 314.00v-21.00" class="stroke"/>
<path class="fill"
	d="M184.90 293.00c0.6 5.6 9.6 9 5.6 18.4
	1.6 -6 -1.3 -11.6 -5.6 -12.8
"/>
<use x="201.30" y="311.00" xlink:href="#hd"/>
<path d="M204.80 311.00v-21.00" class="stroke"/>
<use x="233.30" y="323.00" xlink:href="#hd"/>
<path d="M236.80 323.00v-21.00" class="stroke"/>
<path class="fill"
	d="M236.80 302.00c0.6 5.6 9.6 9 5.6 18.4
	1.6 -6 -1.3 -11.6 -5.6 -12.8
"/>
<use x="253.50" y="308.00" xlink:href="#hd"/>
<circle class="fill" cx="261.20" cy="308.00" r="1.2"/>
<path d="M250.00 308.00v21.00" class="stroke"/>
<use x="281.90" y="314.00" xlink:href="#hd"/>
<path d="M285.40 314.00v-21.00" class="stroke"/>
<use x="313.90" y="320.00" xlink:href="#hd"/>
<path d="M317.40 320.00v-21.00" class="stroke"/>
<path class="fill"
	d="M317.40 299.00c0.6 5.6 9.6 9 5.6 18.4
	1.6 -6 -1.3 -11.6 -5.6 -12.8
"/>
<use x="334.10" y="305.00" xlink:href="#hd"/>
<circle class="fill" cx="341.80" cy="302.00" r="1.2"/>
<path d="M330.60 305.00v21.00" class="stroke"/>
<use x="365.30" y="308.00" xlink:href="#hd"/>
<path d="M361.80 308.00v21.00" class="stroke"/>
<use x="397.40" y="311.00" xlink:href="#hd"/>
<path d="M393.90 311.00v21.00" class="stroke"/>
<path class="fill"
	d="M393.90 332.00c0.6 -5.6 9.6 -9 5.6 -18.4
	1.6 6 -1.3 11.6 -5.6 12.8
"/>
<use x="416.60" y="296.00" xlink:href="#hd"/>
<circle class="fill" cx="424.30" cy="296.00" r="1.2"/>
<path d="M413.10 296.00v21.00" class="stroke"/>
<use x="447.90" y="311.00" xlink:href="#hd"/>
<path d="M444.40 311.00v21.00" class="stroke"/>
<use x="479.90" y="308.00" xlink:href="#hd"/>
<path d="M476.40 308.00v21.00" class="stroke"/>
<use x="504.10" y="314.00" xlink:href="#hd"/>
<path d="M507.60 314.00v-21.00" class="stroke"/>
<use x="530.90" y="326.00" xlink:href="#hd"/>
<path d="M534.40 326.00v-21.00" class="stroke"/>
<use x="562.90" y="320.00" xlink:href="#hd"/>
<path d="M566.40 320.00v-21.00" class="stroke"/>
<path class="fill"
	d="M566.40 299.00c0.6 5.6 9.6 9 5.6 18.4
	1.6 -6 -1.3 -11.6 -5.6 -12.8
"/>
<use x="582.80" y="311.00" xlink:href="#hd"/>
<circle class="fill" cx="590.50" cy="308.00" r="1.2"/>
<path d="M586.30 311.00v-21.00" class="stroke"/>
<use x="614.00" y="314.00" xlink:href="#hd"/>
<path d="M617.50 314.00v-21.00" class="stroke"/>
<use x="648.10" y="320.00" xlink:href="#ghd"/>
<path d="M650.40 320.00v-15.00" class="stroke"/>
<path class="fill"
	d="M650.40 305.00c0.6 3.4 5.6 3.8 3 10
	1.2 -4.4 -1.4 -7 -3 -7
"/>
<path class="stroke"
	d="M648.10 325.00c2.30 2.40 9.20 0.60 11.50 -3.00"/>
<use x="660.60" y="317.00" xlink:href="#Hd"/>
<path d="M664.10 317.00v-21.00" class="stroke"/>
<defs>
<g id="hld" class="fill">
	<circle cx="0" cy="-3" r="1.3"/>
	<path d="m-7.5 -1.5
		c0 -11.5 15 -11.5 15 0
		h-0.25
		c-1.25 -9 -13.25 -9 -14.5 0"/>
</g>
</defs>
<use x="416.60" y="290.00" xlink:href="#hld"/>
</g>
</svg>
