<?xml version="1.0" standalone="no"?>
<!DOCTYPE svg PUBLIC "-//W3C//DTD SVG 1.1//EN"
	"http://www.w3.org/Graphics/SVG/1.1/DTD/svg11.dtd">
<svg xmlns="http://www.w3.org/2000/svg" version="1.1"
	xmlns:xlink="http://www.w3.org/1999/xlink"
	color="black"
	width="701.60px" height="318.00px">
<style type="text/css">
.fill {fill: currentColor}
.stroke {stroke: currentColor; fill: none}
text{white-space: pre}
</style>
<title>/media/tim/Data1/tims_code/sphinx-tunes/source/_abcfiles/Rusty Gully.abc (1) tune 1</title>
<!-- Creator: abcm2ps-8.14.6 -->
<!-- CreationDate: Jul 30, 2023 12:21 -->
<!-- CommandLine: -g '/media/tim/Data1/tims_code/sphinx-tunes/source/_abcfiles/Rusty Gully.abc' -O '/media/tim/Data1/tims_code/sphinx-tunes/source/_abcfiles/Rusty Gully.svg' -->
<g stroke-width="0.70">
<!-- title: The Rusty Gulley -->
</g>
<g stroke-width="0.70" style="font:20.00px Times">
<text x="350.80" y="22.00" text-anchor="middle">The Rusty Gulley</text>
</g>
<g stroke-width="0.70" style="font:20.00px Times">
<defs>
<g id="rdots" class="fill">
	<circle cx="0" cy="-9" r="1.2"/>
	<circle cx="0" cy="-15" r="1.2"/>
</g>
</defs>
<use x="81.50" y="85.00" xlink:href="#rdots"/>
<path class="stroke" stroke-width="1"
	d="M77.50 85.00v-24.00"/>
<path class="stroke" stroke-width="3"
	d="M73.00 85.00v-24.00"/>
<path class="stroke" stroke-width="1"
	d="M240.60 85.00v-24.00"/>
<path class="stroke" stroke-width="1"
	d="M381.20 85.00v-24.00"/>
<path class="stroke" stroke-width="1"
	d="M539.30 85.00v-24.00"/>
<path class="stroke" stroke-width="3"
	d="M690.10 85.00v-24.00"/>
<path class="stroke" stroke-width="1"
	d="M685.60 85.00v-24.00"/>
<use x="681.60" y="85.00" xlink:href="#rdots"/>
<path d="m10.00 85.00
	h681.60
	M10.00 79.00
	h681.60
	M10.00 73.00
	h681.60
	M10.00 67.00
	h681.60
	M10.00 61.00
	h681.60
	" class="stroke"/>
<defs>
<path id="utclef" class="fill" d="m-50 -90
	c-72 -41 -72 -158 52 -188
	150 -10 220 188 90 256
	-114 52 -275 0 -293 -136
	-15 -181 93 -229 220 -334
	88 -87 79 -133 62 -210
	-51 33 -94 105 -89 186
	17 267 36 374 49 574
	6 96 -19 134 -77 135
	-80 1 -126 -93 -61 -133
	85 -41 133 101 31 105
	23 17 92 37 90 -92
	-10 -223 -39 -342 -50 -617
	0 -90 0 -162 96 -232
	56 72 63 230 22 289
	-74 106 -257 168 -255 316
	9 153 148 185 252 133
	86 -65 29 -192 -80 -176
	-71 12 -105 67 -59 124"/>
<use id="tclef" transform="translate(0,6) scale(0.045)"
	xlink:href="#utclef"/>
</defs>
<use x="22.00" y="79.00" xlink:href="#tclef"/>
<defs>
<path id="usharp" class="fill" d="
	m136 -702
	v890
	h32
	v-890
	m128 840
	h32
	v-888
	h-32
	m-232 286
	v116
	l338 -96
	v-116
	m-338 442
	v116
	l338 -98
	v-114"/>
<use id="sh0" transform="translate(-4,5) scale(0.018)"
	xlink:href="#usharp"/>
</defs>
<use x="37.00" y="61.00" xlink:href="#sh0"/>
<g style="font:bold 16px serif"
	transform="translate(53.00,84.50) scale(1.2,1)">
	<text text-anchor="middle">2</text>
	<text y="-12" text-anchor="middle">3</text>
</g>
<path class="fill"
	d="M98.20 54.30l46.30 -6.50v3.20l-46.30 6.50"/>
<path class="fill"
	d="M98.50 59.30l45.60 -6.50v3.20l-45.60 6.50"/>
<defs>
<ellipse id="hd" rx="4.1" ry="2.9"
	transform="rotate(-20)" class="fill"/>
</defs>
<use x="95.00" y="79.00" xlink:href="#hd"/>
<path d="M98.50 79.00v-23.70" class="stroke"/>
<use x="110.20" y="76.00" xlink:href="#hd"/>
<path d="M113.70 76.00v-22.90" class="stroke"/>
<use x="125.40" y="73.00" xlink:href="#hd"/>
<path d="M128.90 73.00v-22.00" class="stroke"/>
<use x="140.60" y="70.00" xlink:href="#hd"/>
<path d="M144.10 70.00v-21.20" class="stroke"/>
<path class="fill"
	d="M160.60 47.70l22.00 5.80v3.20l-22.00 -5.80"/>
<use x="157.50" y="67.00" xlink:href="#hd"/>
<path d="M161.00 67.00v-18.20" class="stroke"/>
<use x="178.80" y="79.00" xlink:href="#hd"/>
<path d="M182.30 79.00v-24.60" class="stroke"/>
<path class="fill"
	d="M205.60 53.00l22.00 4.00v3.20l-22.00 -4.00"/>
<use x="202.40" y="73.00" xlink:href="#hd"/>
<path d="M205.90 73.00v-18.90" class="stroke"/>
<use x="223.70" y="79.00" xlink:href="#hd"/>
<path d="M227.20 79.00v-21.10" class="stroke"/>
<path class="fill"
	d="M256.30 60.00l22.00 -4.00v3.20l-22.00 4.00"/>
<use x="253.10" y="82.00" xlink:href="#hd"/>
<path d="M256.60 82.00v-21.10" class="stroke"/>
<use x="274.40" y="76.00" xlink:href="#hd"/>
<path d="M277.90 76.00v-18.90" class="stroke"/>
<path class="fill"
	d="M301.20 54.00l22.00 -4.00v3.20l-22.00 4.00"/>
<use x="298.10" y="76.00" xlink:href="#hd"/>
<path d="M301.60 76.00v-21.10" class="stroke"/>
<use x="319.40" y="70.00" xlink:href="#hd"/>
<path d="M322.90 70.00v-18.90" class="stroke"/>
<path class="fill"
	d="M346.20 52.30l22.00 2.40v3.20l-22.00 -2.40"/>
<use x="343.00" y="73.00" xlink:href="#hd"/>
<path d="M346.50 73.00v-19.70" class="stroke"/>
<use x="364.40" y="76.00" xlink:href="#hd"/>
<path d="M367.90 76.00v-20.30" class="stroke"/>
<path class="fill"
	d="M396.90 54.30l46.30 -6.50v3.20l-46.30 6.50"/>
<path class="fill"
	d="M397.20 59.30l45.60 -6.50v3.20l-45.60 6.50"/>
<use x="393.70" y="79.00" xlink:href="#hd"/>
<path d="M397.20 79.00v-23.70" class="stroke"/>
<use x="408.90" y="76.00" xlink:href="#hd"/>
<path d="M412.40 76.00v-22.90" class="stroke"/>
<use x="424.10" y="73.00" xlink:href="#hd"/>
<path d="M427.60 73.00v-22.00" class="stroke"/>
<use x="439.30" y="70.00" xlink:href="#hd"/>
<path d="M442.80 70.00v-21.20" class="stroke"/>
<path class="fill"
	d="M459.40 47.70l22.00 5.80v3.20l-22.00 -5.80"/>
<use x="456.20" y="67.00" xlink:href="#hd"/>
<path d="M459.70 67.00v-18.20" class="stroke"/>
<use x="477.50" y="79.00" xlink:href="#hd"/>
<path d="M481.00 79.00v-24.60" class="stroke"/>
<path class="fill"
	d="M504.30 53.00l22.00 4.00v3.20l-22.00 -4.00"/>
<use x="501.20" y="73.00" xlink:href="#hd"/>
<path d="M504.70 73.00v-18.90" class="stroke"/>
<use x="522.50" y="79.00" xlink:href="#hd"/>
<path d="M526.00 79.00v-21.10" class="stroke"/>
<path class="fill"
	d="M555.00 64.80l22.00 -5.00v3.20l-22.00 5.00"/>
<use x="551.80" y="88.00" xlink:href="#hd"/>
<path d="M555.30 88.00v-22.30" class="stroke"/>
<use x="573.20" y="79.00" xlink:href="#hd"/>
<path d="M576.70 79.00v-18.20" class="stroke"/>
<path class="fill"
	d="M600.00 57.00l22.00 -4.00v3.20l-22.00 4.00"/>
<use x="596.80" y="79.00" xlink:href="#hd"/>
<path d="M600.30 79.00v-21.10" class="stroke"/>
<use x="618.10" y="73.00" xlink:href="#hd"/>
<path d="M621.60 73.00v-18.90" class="stroke"/>
<path class="fill"
	d="M644.90 55.30l22.00 2.40v3.20l-22.00 -2.40"/>
<use x="641.80" y="76.00" xlink:href="#hd"/>
<path d="M645.30 76.00v-19.70" class="stroke"/>
<use x="663.10" y="79.00" xlink:href="#hd"/>
<path d="M666.60 79.00v-20.30" class="stroke"/>
</g>
<g stroke-width="0.70" style="font:20.00px Times">
<use x="61.50" y="155.00" xlink:href="#rdots"/>
<path class="stroke" stroke-width="1"
	d="M57.50 155.00v-24.00"/>
<path class="stroke" stroke-width="3"
	d="M53.00 155.00v-24.00"/>
<path class="stroke" stroke-width="1"
	d="M195.70 155.00v-24.00"/>
<path class="stroke" stroke-width="1"
	d="M355.20 155.00v-24.00"/>
<path class="stroke" stroke-width="1"
	d="M514.70 155.00v-24.00"/>
<path class="stroke" stroke-width="3"
	d="M690.10 155.00v-24.00"/>
<path class="stroke" stroke-width="1"
	d="M685.60 155.00v-24.00"/>
<use x="681.60" y="155.00" xlink:href="#rdots"/>
<path d="m10.00 155.00
	h681.60
	M10.00 149.00
	h681.60
	M10.00 143.00
	h681.60
	M10.00 137.00
	h681.60
	M10.00 131.00
	h681.60
	" class="stroke"/>
<text style="font:italic 12px serif"
	x="573.90" y="122.00" text-anchor="middle">3</text>
<use x="22.00" y="149.00" xlink:href="#tclef"/>
<use x="37.00" y="131.00" xlink:href="#sh0"/>
<use x="76.10" y="128.00" xlink:href="#hd"/>
<path d="M72.60 128.00v21.00" class="stroke"/>
<use x="114.20" y="131.00" xlink:href="#hd"/>
<path d="M110.70 131.00v21.00" class="stroke"/>
<path class="fill"
	d="M148.50 154.10l25.00 -4.10v-3.20l-25.00 4.10"/>
<use x="152.40" y="134.00" xlink:href="#hd"/>
<path d="M148.90 134.00v19.00" class="stroke"/>
<use x="176.70" y="128.00" xlink:href="#hd"/>
<path d="M173.20 128.00v21.00" class="stroke"/>
<path class="fill"
	d="M205.40 152.90l25.00 4.10v-3.20l-25.00 -4.10"/>
<use x="209.20" y="131.00" xlink:href="#hd"/>
<path d="M205.70 131.00v21.00" class="stroke"/>
<use x="233.60" y="137.00" xlink:href="#hd"/>
<path d="M230.10 137.00v19.00" class="stroke"/>
<path class="fill"
	d="M256.70 157.10l25.00 -4.10v-3.20l-25.00 4.10"/>
<use x="260.60" y="137.00" xlink:href="#hd"/>
<path d="M257.10 137.00v19.00" class="stroke"/>
<use x="284.90" y="131.00" xlink:href="#hd"/>
<path d="M281.40 131.00v21.00" class="stroke"/>
<path class="fill"
	d="M308.10 155.30l25.00 2.50v-3.20l-25.00 -2.50"/>
<use x="311.90" y="134.00" xlink:href="#hd"/>
<path d="M308.40 134.00v20.30" class="stroke"/>
<use x="336.20" y="137.00" xlink:href="#hd"/>
<path d="M332.70 137.00v19.70" class="stroke"/>
<path class="fill"
	d="M364.90 160.10l25.00 -4.10v-3.20l-25.00 4.10"/>
<use x="368.80" y="140.00" xlink:href="#hd"/>
<path d="M365.30 140.00v19.00" class="stroke"/>
<use x="393.10" y="134.00" xlink:href="#hd"/>
<path d="M389.60 134.00v21.00" class="stroke"/>
<path class="fill"
	d="M416.30 163.10l25.00 -4.10v-3.20l-25.00 4.10"/>
<use x="420.10" y="143.00" xlink:href="#hd"/>
<path d="M416.60 143.00v19.00" class="stroke"/>
<use x="444.40" y="137.00" xlink:href="#hd"/>
<path d="M440.90 137.00v21.00" class="stroke"/>
<path class="fill"
	d="M467.60 166.10l25.00 -4.10v-3.20l-25.00 4.10"/>
<use x="471.50" y="146.00" xlink:href="#hd"/>
<path d="M468.00 146.00v19.00" class="stroke"/>
<use x="495.80" y="140.00" xlink:href="#hd"/>
<path d="M492.30 140.00v21.00" class="stroke"/>
<use x="528.30" y="143.00" xlink:href="#hd"/>
<path d="M524.80 143.00v21.00" class="stroke"/>
<path class="fill"
	d="M524.80 164.00c0.6 -5.6 9.6 -9 5.6 -18.4
	1.6 6 -1.3 11.6 -5.6 12.8
"/>
<path class="fill"
	d="M555.80 128.00l38.70 0.00v3.20l-38.70 -0.00"/>
<use x="552.70" y="149.00" xlink:href="#hd"/>
<path d="M556.20 149.00v-20.00" class="stroke"/>
<use x="571.60" y="149.00" xlink:href="#hd"/>
<path d="M575.10 149.00v-20.00" class="stroke"/>
<use x="590.60" y="149.00" xlink:href="#hd"/>
<path d="M594.10 149.00v-20.00" class="stroke"/>
<use x="611.70" y="143.00" xlink:href="#hd"/>
<path d="M615.20 143.00v-21.00" class="stroke"/>
<path class="fill"
	d="M615.20 122.00c0.6 5.6 9.6 9 5.6 18.4
	1.6 -6 -1.3 -11.6 -5.6 -12.8
"/>
<path class="fill"
	d="M641.90 125.30l25.00 2.50v3.20l-25.00 -2.50"/>
<use x="638.80" y="146.00" xlink:href="#hd"/>
<path d="M642.30 146.00v-19.70" class="stroke"/>
<use x="663.10" y="149.00" xlink:href="#hd"/>
<path d="M666.60 149.00v-20.30" class="stroke"/>
</g>
<g stroke-width="0.70" style="font:20.00px Times">
<use x="61.50" y="225.00" xlink:href="#rdots"/>
<path class="stroke" stroke-width="1"
	d="M57.50 225.00v-24.00"/>
<path class="stroke" stroke-width="3"
	d="M53.00 225.00v-24.00"/>
<path class="stroke" stroke-width="1"
	d="M225.10 225.00v-24.00"/>
<path class="stroke" stroke-width="1"
	d="M381.80 225.00v-24.00"/>
<path class="stroke" stroke-width="1"
	d="M544.50 225.00v-24.00"/>
<path class="stroke" stroke-width="3"
	d="M690.10 225.00v-24.00"/>
<path class="stroke" stroke-width="1"
	d="M685.60 225.00v-24.00"/>
<use x="681.60" y="225.00" xlink:href="#rdots"/>
<path d="m10.00 225.00
	h681.60
	M10.00 219.00
	h681.60
	M10.00 213.00
	h681.60
	M10.00 207.00
	h681.60
	M10.00 201.00
	h681.60
	" class="stroke"/>
<use x="22.00" y="219.00" xlink:href="#tclef"/>
<use x="37.00" y="201.00" xlink:href="#sh0"/>
<path class="fill"
	d="M78.20 194.20l44.40 -6.50v3.20l-44.40 6.50"/>
<path class="fill"
	d="M78.50 199.20l43.70 -6.40v3.20l-43.70 6.40"/>
<use x="75.00" y="219.00" xlink:href="#hd"/>
<path d="M78.50 219.00v-23.80" class="stroke"/>
<use x="89.60" y="216.00" xlink:href="#hd"/>
<path d="M93.10 216.00v-23.00" class="stroke"/>
<use x="104.10" y="213.00" xlink:href="#hd"/>
<path d="M107.60 213.00v-22.10" class="stroke"/>
<use x="118.70" y="210.00" xlink:href="#hd"/>
<path d="M122.20 210.00v-21.20" class="stroke"/>
<path class="fill"
	d="M138.00 187.70l21.00 5.70v3.20l-21.00 -5.70"/>
<use x="134.80" y="207.00" xlink:href="#hd"/>
<path d="M138.30 207.00v-18.20" class="stroke"/>
<use x="155.20" y="219.00" xlink:href="#hd"/>
<path d="M158.70 219.00v-24.70" class="stroke"/>
<path class="fill"
	d="M180.90 191.20l35.60 4.50v3.20l-35.60 -4.50"/>
<path class="fill"
	d="M201.60 198.80l14.60 1.90v3.20l-14.60 -1.90"/>
<use x="177.70" y="213.00" xlink:href="#hd"/>
<path d="M181.20 213.00v-20.80" class="stroke"/>
<use x="198.10" y="216.00" xlink:href="#hd"/>
<path d="M201.60 216.00v-21.20" class="stroke"/>
<use x="212.60" y="219.00" xlink:href="#hd"/>
<path d="M216.10 219.00v-22.30" class="stroke"/>
<path class="fill"
	d="M240.80 200.00l21.00 -3.90v3.20l-21.00 3.90"/>
<use x="237.60" y="222.00" xlink:href="#hd"/>
<path d="M241.10 222.00v-21.10" class="stroke"/>
<use x="258.00" y="216.00" xlink:href="#hd"/>
<path d="M261.50 216.00v-18.90" class="stroke"/>
<use x="280.50" y="216.00" xlink:href="#hd"/>
<path d="M284.00 216.00v-21.00" class="stroke"/>
<path class="fill"
	d="M284.00 195.00c0.6 5.6 9.6 9 5.6 18.4
	1.6 -6 -1.3 -11.6 -5.6 -12.8
"/>
<path class="fill"
	d="M306.60 187.80l29.80 4.30v3.20l-29.80 -4.30"/>
<path class="fill"
	d="M306.90 192.80l29.10 4.20v3.20l-29.10 -4.20"/>
<use x="303.40" y="210.00" xlink:href="#hd"/>
<path d="M306.90 210.00v-21.20" class="stroke"/>
<use x="318.00" y="213.00" xlink:href="#hd"/>
<path d="M321.50 213.00v-22.10" class="stroke"/>
<use x="332.50" y="216.00" xlink:href="#hd"/>
<path d="M336.00 216.00v-23.00" class="stroke"/>
<use x="348.60" y="219.00" xlink:href="#hd"/>
<path d="M352.10 219.00v-21.00" class="stroke"/>
<path class="fill"
	d="M352.10 198.00c0.6 5.6 9.6 9 5.6 18.4
	1.6 -6 -1.3 -11.6 -5.6 -12.8
"/>
<defs>
<path id="r8e" class="fill" d="m 0 0
	c-1.5 1.5 -2.4 2 -3.6 2
	2.4 -2.8 -2.8 -4 -2.8 -1.2
	c0 2.7 4.3 2.4 5.9 0.6"/>
<g id="r16">
	<path d="m3.3 -4l-4 15.6" class="stroke"/>
	<use x="3.4" y="-4" xlink:href="#r8e"/>
	<use x="1.9" y="2" xlink:href="#r8e"/>
</g>
</defs>
<use x="369.30" y="213.00" xlink:href="#r16"/>
<path class="fill"
	d="M397.50 194.20l44.40 -6.50v3.20l-44.40 6.50"/>
<path class="fill"
	d="M397.80 199.20l43.70 -6.40v3.20l-43.70 6.40"/>
<use x="394.30" y="219.00" xlink:href="#hd"/>
<path d="M397.80 219.00v-23.80" class="stroke"/>
<use x="408.90" y="216.00" xlink:href="#hd"/>
<path d="M412.40 216.00v-23.00" class="stroke"/>
<use x="423.50" y="213.00" xlink:href="#hd"/>
<path d="M427.00 213.00v-22.10" class="stroke"/>
<use x="438.00" y="210.00" xlink:href="#hd"/>
<path d="M441.50 210.00v-21.20" class="stroke"/>
<path class="fill"
	d="M457.30 187.70l21.00 5.70v3.20l-21.00 -5.70"/>
<use x="454.10" y="207.00" xlink:href="#hd"/>
<path d="M457.60 207.00v-18.20" class="stroke"/>
<use x="474.50" y="219.00" xlink:href="#hd"/>
<path d="M478.00 219.00v-24.70" class="stroke"/>
<path class="fill"
	d="M500.20 191.20l35.60 4.50v3.20l-35.60 -4.50"/>
<path class="fill"
	d="M520.90 198.80l14.60 1.90v3.20l-14.60 -1.90"/>
<use x="497.00" y="213.00" xlink:href="#hd"/>
<path d="M500.50 213.00v-20.80" class="stroke"/>
<use x="517.40" y="216.00" xlink:href="#hd"/>
<path d="M520.90 216.00v-21.20" class="stroke"/>
<use x="532.00" y="219.00" xlink:href="#hd"/>
<path d="M535.50 219.00v-22.30" class="stroke"/>
<path class="fill"
	d="M560.10 204.70l21.00 -4.90v3.20l-21.00 4.90"/>
<use x="557.00" y="228.00" xlink:href="#hd"/>
<path d="M560.50 228.00v-22.40" class="stroke"/>
<use x="577.30" y="219.00" xlink:href="#hd"/>
<path d="M580.80 219.00v-18.20" class="stroke"/>
<path class="fill"
	d="M603.00 197.00l21.00 -3.90v3.20l-21.00 3.90"/>
<use x="599.90" y="219.00" xlink:href="#hd"/>
<path d="M603.40 219.00v-21.10" class="stroke"/>
<use x="620.20" y="213.00" xlink:href="#hd"/>
<path d="M623.70 213.00v-18.90" class="stroke"/>
<path class="fill"
	d="M645.90 195.30l21.00 2.40v3.20l-21.00 -2.40"/>
<use x="642.70" y="216.00" xlink:href="#hd"/>
<path d="M646.20 216.00v-19.70" class="stroke"/>
<use x="663.10" y="219.00" xlink:href="#hd"/>
<path d="M666.60 219.00v-20.30" class="stroke"/>
</g>
<g stroke-width="0.70" style="font:20.00px Times">
<use x="61.50" y="295.00" xlink:href="#rdots"/>
<path class="stroke" stroke-width="1"
	d="M57.50 295.00v-24.00"/>
<path class="stroke" stroke-width="3"
	d="M53.00 295.00v-24.00"/>
<path class="stroke" stroke-width="1"
	d="M236.20 295.00v-24.00"/>
<path class="stroke" stroke-width="1"
	d="M375.20 295.00v-24.00"/>
<path class="stroke" stroke-width="1"
	d="M541.70 295.00v-24.00"/>
<path class="stroke" stroke-width="3"
	d="M690.10 295.00v-24.00"/>
<path class="stroke" stroke-width="1"
	d="M685.60 295.00v-24.00"/>
<use x="681.60" y="295.00" xlink:href="#rdots"/>
<path d="m10.00 295.00
	h681.60
	M10.00 289.00
	h681.60
	M10.00 283.00
	h681.60
	M10.00 277.00
	h681.60
	M10.00 271.00
	h681.60
	" class="stroke"/>
<text style="font:italic 12px serif"
	x="591.80" y="312.00" text-anchor="middle">3</text>
<use x="22.00" y="289.00" xlink:href="#tclef"/>
<use x="37.00" y="271.00" xlink:href="#sh0"/>
<path class="fill"
	d="M71.20 292.70l45.70 6.50v-3.20l-45.70 -6.50"/>
<path class="fill"
	d="M71.50 287.80l45.10 6.40v-3.20l-45.10 -6.40"/>
<use x="75.00" y="268.00" xlink:href="#hd"/>
<path d="M71.50 268.00v23.80" class="stroke"/>
<use x="90.00" y="271.00" xlink:href="#hd"/>
<path d="M86.50 271.00v22.90" class="stroke"/>
<use x="105.00" y="274.00" xlink:href="#hd"/>
<path d="M101.50 274.00v22.10" class="stroke"/>
<use x="120.10" y="277.00" xlink:href="#hd"/>
<path d="M116.60 277.00v21.20" class="stroke"/>
<path class="fill"
	d="M132.90 295.70l45.70 6.50v-3.20l-45.70 -6.50"/>
<path class="fill"
	d="M133.20 290.80l45.10 6.40v-3.20l-45.10 -6.40"/>
<use x="136.70" y="271.00" xlink:href="#hd"/>
<path d="M133.20 271.00v23.80" class="stroke"/>
<use x="151.70" y="274.00" xlink:href="#hd"/>
<path d="M148.20 274.00v22.90" class="stroke"/>
<use x="166.80" y="277.00" xlink:href="#hd"/>
<path d="M163.30 277.00v22.10" class="stroke"/>
<use x="181.80" y="280.00" xlink:href="#hd"/>
<path d="M178.30 280.00v21.20" class="stroke"/>
<path class="fill"
	d="M194.60 294.00l21.70 -3.90v-3.20l-21.70 3.90"/>
<use x="198.40" y="274.00" xlink:href="#hd"/>
<path d="M194.90 274.00v18.90" class="stroke"/>
<use x="219.50" y="268.00" xlink:href="#hd"/>
<path d="M216.00 268.00v21.10" class="stroke"/>
<path class="fill"
	d="M244.80 293.00l21.70 3.90v-3.20l-21.70 -3.90"/>
<use x="248.70" y="271.00" xlink:href="#hd"/>
<path d="M245.20 271.00v21.10" class="stroke"/>
<use x="269.70" y="277.00" xlink:href="#hd"/>
<path d="M266.20 277.00v18.90" class="stroke"/>
<path class="fill"
	d="M289.20 297.00l21.70 -3.90v-3.20l-21.70 3.90"/>
<use x="293.10" y="277.00" xlink:href="#hd"/>
<path d="M289.60 277.00v18.90" class="stroke"/>
<use x="314.10" y="271.00" xlink:href="#hd"/>
<path d="M310.60 271.00v21.10" class="stroke"/>
<path class="fill"
	d="M333.60 295.30l21.70 2.40v-3.20l-21.70 -2.40"/>
<use x="337.50" y="274.00" xlink:href="#hd"/>
<path d="M334.00 274.00v20.30" class="stroke"/>
<use x="358.50" y="277.00" xlink:href="#hd"/>
<path d="M355.00 277.00v19.70" class="stroke"/>
<path class="fill"
	d="M383.90 305.90l32.50 -3.40v-3.20l-32.50 3.40"/>
<path class="fill"
	d="M405.30 298.60l10.80 -1.10v-3.20l-10.80 1.10"/>
<path class="fill"
	d="M412.30 292.90l-7.00 0.70v-3.20l7.00 -0.70"/>
<use x="387.70" y="286.00" xlink:href="#hd"/>
<path d="M384.20 286.00v18.90" class="stroke"/>
<use x="408.80" y="274.00" xlink:href="#hd"/>
<path d="M405.30 274.00v28.60" class="stroke"/>
<use x="419.50" y="280.00" xlink:href="#hd"/>
<circle class="fill" cx="427.20" cy="280.00" r="1.2"/>
<path d="M416.00 280.00v21.50" class="stroke"/>
<path class="fill"
	d="M435.00 302.90l32.50 -3.40v-3.20l-32.50 3.40"/>
<path class="fill"
	d="M456.40 295.60l10.80 -1.10v-3.20l-10.80 1.10"/>
<path class="fill"
	d="M463.40 289.90l-7.00 0.70v-3.20l7.00 -0.70"/>
<use x="438.80" y="283.00" xlink:href="#hd"/>
<path d="M435.30 283.00v18.90" class="stroke"/>
<use x="459.90" y="271.00" xlink:href="#hd"/>
<path d="M456.40 271.00v28.60" class="stroke"/>
<use x="470.60" y="277.00" xlink:href="#hd"/>
<circle class="fill" cx="478.30" cy="274.00" r="1.2"/>
<path d="M467.10 277.00v21.50" class="stroke"/>
<path class="fill"
	d="M486.10 299.90l32.50 -3.40v-3.20l-32.50 3.40"/>
<path class="fill"
	d="M507.50 292.60l10.80 -1.10v-3.20l-10.80 1.10"/>
<path class="fill"
	d="M514.50 286.90l-7.00 0.70v-3.20l7.00 -0.70"/>
<use x="489.90" y="280.00" xlink:href="#hd"/>
<path d="M486.40 280.00v18.90" class="stroke"/>
<use x="511.00" y="268.00" xlink:href="#hd"/>
<path d="M507.50 268.00v28.60" class="stroke"/>
<use x="521.70" y="274.00" xlink:href="#hd"/>
<circle class="fill" cx="529.40" cy="274.00" r="1.2"/>
<path d="M518.20 274.00v21.50" class="stroke"/>
<use x="554.20" y="283.00" xlink:href="#hd"/>
<path d="M550.70 283.00v21.00" class="stroke"/>
<path class="fill"
	d="M550.70 304.00c0.6 -5.6 9.6 -9 5.6 -18.4
	1.6 6 -1.3 11.6 -5.6 12.8
"/>
<path class="fill"
	d="M573.70 298.00l33.70 0.00v-3.20l-33.70 -0.00"/>
<use x="577.60" y="277.00" xlink:href="#hd"/>
<path d="M574.10 277.00v20.00" class="stroke"/>
<use x="594.10" y="277.00" xlink:href="#hd"/>
<path d="M590.60 277.00v20.00" class="stroke"/>
<use x="610.70" y="277.00" xlink:href="#hd"/>
<path d="M607.20 277.00v20.00" class="stroke"/>
<path class="fill"
	d="M625.10 303.40l42.80 -4.70v-3.20l-42.80 4.70"/>
<use x="629.00" y="283.00" xlink:href="#hd"/>
<path d="M625.50 283.00v19.30" class="stroke"/>
<use x="650.00" y="280.00" xlink:href="#hd"/>
<path d="M646.50 280.00v20.00" class="stroke"/>
<use x="671.10" y="277.00" xlink:href="#hd"/>
<path d="M667.60 277.00v20.70" class="stroke"/>
</g>
</svg>
