<?xml version="1.0" standalone="no"?>
<!DOCTYPE svg PUBLIC "-//W3C//DTD SVG 1.1//EN"
	"http://www.w3.org/Graphics/SVG/1.1/DTD/svg11.dtd">
<svg xmlns="http://www.w3.org/2000/svg" version="1.1"
	xmlns:xlink="http://www.w3.org/1999/xlink"
	color="black"
	width="701.60px" height="617.20px">
<style type="text/css">
.fill {fill: currentColor}
.stroke {stroke: currentColor; fill: none}
text{white-space: pre}
</style>
<title>/media/tim/Data1/tims_code/sphinx-tunes/source/_abcfiles/San Day Carol.a (1) tune 1</title>
<!-- Creator: abcm2ps-8.14.6 -->
<!-- CreationDate: Jul 30, 2023 12:21 -->
<!-- CommandLine: -g '/media/tim/Data1/tims_code/sphinx-tunes/source/_abcfiles/San Day Carol.abc' -O '/media/tim/Data1/tims_code/sphinx-tunes/source/_abcfiles/San Day Carol.svg' -->
<g stroke-width="0.70">
<!-- title: The Holly Bears a Berry (Sans Day Carol) -->
</g>
<g stroke-width="0.70" style="font:20.00px Times">
<text x="350.80" y="22.00" text-anchor="middle">The Holly Bears a Berry (Sans Day Carol)</text>
</g>
<g stroke-width="0.70" style="font:20.00px Times">
<path class="stroke" stroke-width="1"
	d="M117.30 85.00v-24.00"/>
<path class="stroke" stroke-width="1"
	d="M244.90 85.00v-24.00"/>
<path class="stroke" stroke-width="1"
	d="M352.20 85.00v-24.00"/>
<path class="stroke" stroke-width="1"
	d="M459.50 85.00v-24.00"/>
<path class="stroke" stroke-width="1"
	d="M565.00 85.00v-24.00"/>
<path class="stroke" stroke-width="1"
	d="M691.60 85.00v-24.00"/>
<path d="m10.00 85.00
	h681.60
	M10.00 79.00
	h681.60
	M10.00 73.00
	h681.60
	M10.00 67.00
	h681.60
	M10.00 61.00
	h681.60
	" class="stroke"/>
<defs>
<path id="utclef" class="fill" d="m-50 -90
	c-72 -41 -72 -158 52 -188
	150 -10 220 188 90 256
	-114 52 -275 0 -293 -136
	-15 -181 93 -229 220 -334
	88 -87 79 -133 62 -210
	-51 33 -94 105 -89 186
	17 267 36 374 49 574
	6 96 -19 134 -77 135
	-80 1 -126 -93 -61 -133
	85 -41 133 101 31 105
	23 17 92 37 90 -92
	-10 -223 -39 -342 -50 -617
	0 -90 0 -162 96 -232
	56 72 63 230 22 289
	-74 106 -257 168 -255 316
	9 153 148 185 252 133
	86 -65 29 -192 -80 -176
	-71 12 -105 67 -59 124"/>
<use id="tclef" transform="translate(0,6) scale(0.045)"
	xlink:href="#utclef"/>
</defs>
<use x="22.00" y="79.00" xlink:href="#tclef"/>
<defs>
<path id="usharp" class="fill" d="
	m136 -702
	v890
	h32
	v-890
	m128 840
	h32
	v-888
	h-32
	m-232 286
	v116
	l338 -96
	v-116
	m-338 442
	v116
	l338 -98
	v-114"/>
<use id="sh0" transform="translate(-4,5) scale(0.018)"
	xlink:href="#usharp"/>
</defs>
<use x="37.00" y="61.00" xlink:href="#sh0"/>
<g style="font:bold 16px serif"
	transform="translate(53.00,84.50) scale(1.2,1)">
	<text text-anchor="middle">4</text>
	<text y="-12" text-anchor="middle">3</text>
</g>
<defs>
<ellipse id="hd" rx="4.1" ry="2.9"
	transform="rotate(-20)" class="fill"/>
</defs>
<use x="71.00" y="79.00" xlink:href="#hd"/>
<circle class="fill" cx="78.70" cy="76.00" r="1.2"/>
<path d="M74.50 79.00v-21.00" class="stroke"/>
<path class="fill"
	d="M74.50 58.00c0.6 5.6 9.6 9 5.6 18.4
	1.6 -6 -1.3 -11.6 -5.6 -12.8
"/>
<use x="100.30" y="73.00" xlink:href="#hd"/>
<path d="M103.80 73.00v-22.00" class="stroke"/>
<path class="fill"
	d="M103.80 51.00c0.9 3.7 9.1 6.4 6 12.4
	1 -5.4 -4.2 -8.4 -6 -8.4
M103.80 56.40c0.9 3.7 9.1 6.4 6 12.4
	1 -5.4 -4.2 -8.4 -6 -8.4
"/>
<use x="130.30" y="67.00" xlink:href="#hd"/>
<path d="M126.80 67.00v21.00" class="stroke"/>
<use x="166.50" y="67.00" xlink:href="#hd"/>
<path d="M163.00 67.00v21.00" class="stroke"/>
<use x="202.80" y="67.00" xlink:href="#hd"/>
<circle class="fill" cx="210.50" cy="64.00" r="1.2"/>
<path d="M199.30 67.00v21.00" class="stroke"/>
<path class="fill"
	d="M199.30 88.00c0.6 -5.6 9.6 -9 5.6 -18.4
	1.6 6 -1.3 11.6 -5.6 12.8
"/>
<use x="232.10" y="70.00" xlink:href="#hd"/>
<path d="M228.60 70.00v23.00" class="stroke"/>
<path class="fill"
	d="M228.60 93.00c0.9 -3.7 9.1 -6.4 6 -12.4
	1 5.4 -4.2 8.4 -6 8.4
M228.60 87.60c0.9 -3.7 9.1 -6.4 6 -12.4
	1 5.4 -4.2 8.4 -6 8.4
"/>
<use x="257.90" y="73.00" xlink:href="#hd"/>
<path d="M254.40 73.00v21.00" class="stroke"/>
<use x="290.50" y="79.00" xlink:href="#hd"/>
<path d="M294.00 79.00v-21.00" class="stroke"/>
<use x="326.80" y="73.00" xlink:href="#hd"/>
<path d="M330.30 73.00v-21.00" class="stroke"/>
<use x="365.20" y="70.00" xlink:href="#hd"/>
<path d="M361.70 70.00v21.00" class="stroke"/>
<use x="397.80" y="76.00" xlink:href="#hd"/>
<path d="M401.30 76.00v-21.00" class="stroke"/>
<use x="434.10" y="82.00" xlink:href="#hd"/>
<path d="M437.60 82.00v-21.00" class="stroke"/>
<defs>
<path id="Hd" class="fill" d="m3 -1.6
	c-1 -1.8 -7 1.4 -6 3.2
	1 1.8 7 -1.4 6 -3.2
	m0.5 -0.3
	c2 3.8 -5 7.6 -7 3.8
	-2 -3.8 5 -7.6 7 -3.8"/>
</defs>
<use x="472.50" y="79.00" xlink:href="#Hd"/>
<path d="M476.00 79.00v-21.00" class="stroke"/>
<path class="fill"
	d="M526.90 57.00l23.80 -4.10v3.20l-23.80 4.10"/>
<use x="523.70" y="79.00" xlink:href="#hd"/>
<path d="M527.20 79.00v-21.00" class="stroke"/>
<use x="546.90" y="73.00" xlink:href="#hd"/>
<path d="M550.40 73.00v-19.00" class="stroke"/>
<use x="577.90" y="67.00" xlink:href="#hd"/>
<path d="M574.40 67.00v21.00" class="stroke"/>
<use x="614.20" y="67.00" xlink:href="#hd"/>
<path d="M610.70 67.00v21.00" class="stroke"/>
<path class="fill"
	d="M646.50 88.30l23.80 2.50v-3.20l-23.80 -2.50"/>
<use x="650.40" y="67.00" xlink:href="#hd"/>
<path d="M646.90 67.00v20.30" class="stroke"/>
<use x="673.50" y="70.00" xlink:href="#hd"/>
<path d="M670.00 70.00v19.70" class="stroke"/>
</g>
<g stroke-width="0.70" style="font:20.00px Times">
<path class="stroke" stroke-width="1"
	d="M154.50 155.00v-24.00"/>
<path class="stroke" stroke-width="1"
	d="M252.20 155.00v-24.00"/>
<path class="stroke" stroke-width="1"
	d="M348.70 155.00v-24.00"/>
<path class="stroke" stroke-width="1"
	d="M464.00 155.00v-24.00"/>
<path class="stroke" stroke-width="1"
	d="M576.40 155.00v-24.00"/>
<path class="stroke" stroke-width="1"
	d="M691.60 155.00v-24.00"/>
<path d="m10.00 155.00
	h681.60
	M10.00 149.00
	h681.60
	M10.00 143.00
	h681.60
	M10.00 137.00
	h681.60
	M10.00 131.00
	h681.60
	" class="stroke"/>
<use x="22.00" y="149.00" xlink:href="#tclef"/>
<use x="37.00" y="131.00" xlink:href="#sh0"/>
<use x="55.00" y="143.00" xlink:href="#hd"/>
<path d="M51.50 143.00v21.00" class="stroke"/>
<use x="84.50" y="149.00" xlink:href="#hd"/>
<path d="M88.00 149.00v-21.00" class="stroke"/>
<path class="fill"
	d="M120.30 122.00l21.60 0.00v3.20l-21.60 -0.00"/>
<use x="117.10" y="143.00" xlink:href="#hd"/>
<path d="M120.60 143.00v-20.00" class="stroke"/>
<use x="138.10" y="143.00" xlink:href="#hd"/>
<path d="M141.60 143.00v-20.00" class="stroke"/>
<use x="167.00" y="140.00" xlink:href="#hd"/>
<path d="M163.50 140.00v21.00" class="stroke"/>
<use x="196.40" y="146.00" xlink:href="#hd"/>
<path d="M199.90 146.00v-21.00" class="stroke"/>
<use x="229.10" y="152.00" xlink:href="#hd"/>
<path d="M232.60 152.00v-21.00" class="stroke"/>
<use x="265.20" y="149.00" xlink:href="#Hd"/>
<path d="M268.70 149.00v-21.00" class="stroke"/>
<path class="fill"
	d="M314.50 127.00l21.60 -3.90v3.20l-21.60 3.90"/>
<use x="311.40" y="149.00" xlink:href="#hd"/>
<path d="M314.90 149.00v-21.10" class="stroke"/>
<use x="332.30" y="143.00" xlink:href="#hd"/>
<path d="M335.80 143.00v-18.90" class="stroke"/>
<use x="361.20" y="137.00" xlink:href="#hd"/>
<path d="M357.70 137.00v21.00" class="stroke"/>
<use x="393.90" y="137.00" xlink:href="#hd"/>
<path d="M390.40 137.00v21.00" class="stroke"/>
<path class="fill"
	d="M422.80 154.70l21.60 -2.40v-3.20l-21.60 2.40"/>
<use x="426.60" y="134.00" xlink:href="#hd"/>
<path d="M423.10 134.00v19.70" class="stroke"/>
<use x="447.50" y="131.00" xlink:href="#hd"/>
<path d="M444.00 131.00v20.30" class="stroke"/>
<path class="fill"
	d="M472.60 149.20l21.60 0.00v-3.20l-21.60 -0.00"/>
<use x="476.50" y="128.00" xlink:href="#hd"/>
<path d="M473.00 128.00v20.20" class="stroke"/>
<use x="497.40" y="128.00" xlink:href="#hd"/>
<path d="M493.90 128.00v20.20" class="stroke"/>
<use x="520.60" y="137.00" xlink:href="#hd"/>
<path d="M517.10 137.00v21.00" class="stroke"/>
<use x="553.30" y="137.00" xlink:href="#hd"/>
<path d="M549.80 137.00v21.00" class="stroke"/>
<use x="588.90" y="137.00" xlink:href="#hd"/>
<path d="M585.40 137.00v21.00" class="stroke"/>
<use x="621.60" y="137.00" xlink:href="#hd"/>
<path d="M618.10 137.00v21.00" class="stroke"/>
<path class="fill"
	d="M650.40 154.70l21.60 -2.40v-3.20l-21.60 2.40"/>
<use x="654.20" y="134.00" xlink:href="#hd"/>
<path d="M650.70 134.00v19.70" class="stroke"/>
<use x="675.20" y="131.00" xlink:href="#hd"/>
<path d="M671.70 131.00v20.30" class="stroke"/>
</g>
<g stroke-width="0.70" style="font:20.00px Times">
<path class="stroke" stroke-width="1"
	d="M185.20 225.00v-24.00"/>
<path class="stroke" stroke-width="1"
	d="M373.10 225.00v-24.00"/>
<path class="stroke" stroke-width="1"
	d="M532.40 225.00v-24.00"/>
<path class="stroke" stroke-width="1"
	d="M691.60 225.00v-24.00"/>
<path d="m10.00 225.00
	h681.60
	M10.00 219.00
	h681.60
	M10.00 213.00
	h681.60
	M10.00 207.00
	h681.60
	M10.00 201.00
	h681.60
	" class="stroke"/>
<use x="22.00" y="219.00" xlink:href="#tclef"/>
<use x="37.00" y="201.00" xlink:href="#sh0"/>
<use x="55.50" y="198.00" xlink:href="#Hd"/>
<path d="M52.00 198.00v21.00" class="stroke"/>
<path class="fill"
	d="M127.30 197.30l35.00 -4.50v3.20l-35.00 4.50"/>
<use x="124.20" y="219.00" xlink:href="#hd"/>
<path d="M127.70 219.00v-20.80" class="stroke"/>
<use x="158.50" y="213.00" xlink:href="#hd"/>
<path d="M162.00 213.00v-19.20" class="stroke"/>
<use x="204.30" y="207.00" xlink:href="#hd"/>
<path d="M200.80 207.00v21.00" class="stroke"/>
<use x="258.20" y="207.00" xlink:href="#hd"/>
<path d="M254.70 207.00v21.00" class="stroke"/>
<path class="fill"
	d="M308.20 228.20l35.00 2.60v-3.20l-35.00 -2.60"/>
<use x="312.10" y="207.00" xlink:href="#hd"/>
<path d="M308.60 207.00v20.20" class="stroke"/>
<use x="346.40" y="210.00" xlink:href="#hd"/>
<path d="M342.90 210.00v19.80" class="stroke"/>
<use x="392.20" y="213.00" xlink:href="#hd"/>
<path d="M388.70 213.00v21.00" class="stroke"/>
<use x="440.70" y="219.00" xlink:href="#hd"/>
<path d="M444.20 219.00v-21.00" class="stroke"/>
<use x="494.60" y="213.00" xlink:href="#hd"/>
<path d="M498.10 213.00v-21.00" class="stroke"/>
<use x="551.40" y="210.00" xlink:href="#hd"/>
<path d="M547.90 210.00v21.00" class="stroke"/>
<use x="599.90" y="216.00" xlink:href="#hd"/>
<path d="M603.40 216.00v-21.00" class="stroke"/>
<use x="653.90" y="222.00" xlink:href="#hd"/>
<path d="M657.40 222.00v-21.00" class="stroke"/>
</g>
<g stroke-width="0.70" style="font:20.00px Times">
<path class="stroke" stroke-width="1"
	d="M128.30 295.00v-24.00"/>
<path class="stroke" stroke-width="1"
	d="M214.10 295.00v-24.00"/>
<path class="stroke" stroke-width="1"
	d="M314.90 295.00v-24.00"/>
<path class="stroke" stroke-width="1"
	d="M435.40 295.00v-24.00"/>
<path class="stroke" stroke-width="1"
	d="M537.50 295.00v-24.00"/>
<path class="stroke" stroke-width="1"
	d="M639.60 295.00v-24.00"/>
<path class="stroke" stroke-width="1"
	d="M691.60 295.00v-24.00"/>
<path class="stroke" stroke-width="1"
	d="M688.60 295.00v-24.00"/>
<path d="m10.00 295.00
	h681.60
	M10.00 289.00
	h681.60
	M10.00 283.00
	h681.60
	M10.00 277.00
	h681.60
	M10.00 271.00
	h681.60
	" class="stroke"/>
<use x="22.00" y="289.00" xlink:href="#tclef"/>
<use x="37.00" y="271.00" xlink:href="#sh0"/>
<use x="55.50" y="289.00" xlink:href="#Hd"/>
<path d="M59.00 289.00v-21.00" class="stroke"/>
<use x="104.10" y="286.00" xlink:href="#hd"/>
<path d="M107.60 286.00v-21.00" class="stroke"/>
<use x="141.30" y="286.00" xlink:href="#Hd"/>
<path d="M144.80 286.00v-21.00" class="stroke"/>
<use x="189.90" y="286.00" xlink:href="#hd"/>
<path d="M193.40 286.00v-21.00" class="stroke"/>
<use x="227.10" y="283.00" xlink:href="#Hd"/>
<path d="M230.60 283.00v-21.00" class="stroke"/>
<path class="fill"
	d="M278.90 267.00l22.70 -4.00v3.20l-22.70 4.00"/>
<use x="275.70" y="289.00" xlink:href="#hd"/>
<path d="M279.20 289.00v-21.10" class="stroke"/>
<use x="297.70" y="283.00" xlink:href="#hd"/>
<path d="M301.20 283.00v-18.90" class="stroke"/>
<use x="327.40" y="277.00" xlink:href="#hd"/>
<path d="M323.90 277.00v21.00" class="stroke"/>
<use x="361.80" y="277.00" xlink:href="#hd"/>
<path d="M358.30 277.00v21.00" class="stroke"/>
<path class="fill"
	d="M392.40 298.30l22.70 2.40v-3.20l-22.70 -2.40"/>
<use x="396.20" y="277.00" xlink:href="#hd"/>
<path d="M392.70 277.00v20.30" class="stroke"/>
<use x="418.20" y="280.00" xlink:href="#hd"/>
<path d="M414.70 280.00v19.70" class="stroke"/>
<use x="447.90" y="283.00" xlink:href="#hd"/>
<path d="M444.40 283.00v21.00" class="stroke"/>
<use x="478.90" y="289.00" xlink:href="#hd"/>
<path d="M482.40 289.00v-21.00" class="stroke"/>
<use x="513.30" y="283.00" xlink:href="#hd"/>
<path d="M516.80 283.00v-21.00" class="stroke"/>
<use x="550.00" y="280.00" xlink:href="#hd"/>
<path d="M546.50 280.00v21.00" class="stroke"/>
<use x="581.00" y="286.00" xlink:href="#hd"/>
<path d="M584.50 286.00v-21.00" class="stroke"/>
<use x="615.40" y="292.00" xlink:href="#hd"/>
<path d="M618.90 292.00v-21.00" class="stroke"/>
<use x="652.60" y="289.00" xlink:href="#Hd"/>
<path d="M656.10 289.00v-21.00" class="stroke"/>
</g>
<g stroke-width="0.70" style="font:16.00px Arial">
<text x="60.00" y="335.60">Now the holly bears a berry as white as the milk</text>
</g>
<g stroke-width="0.70" style="font:16.00px Arial">
<text x="60.00" y="353.20">And Mary bore Jesus, all wrappéd in silk</text>
</g>
<g stroke-width="0.70" style="font:16.00px Arial">
<text x="60.00" y="388.40">Holly! Holly!</text>
</g>
<g stroke-width="0.70" style="font:16.00px Arial">
<text x="60.00" y="406.00">And the first tree in the greenwood, it was the holly!</text>
</g>
<g stroke-width="0.70" style="font:16.00px Arial">
<text x="60.00" y="441.20">And Mary bore Jesus Christ our Saviour for to be,</text>
</g>
<g stroke-width="0.70" style="font:16.00px Arial">
<text x="60.00" y="458.80">And the first tree in the greenwood, it was the holly.</text>
</g>
<g stroke-width="0.70" style="font:16.00px Arial">
<text x="60.00" y="494.00">Now the holly bears a berry as green as the grass,</text>
</g>
<g stroke-width="0.70" style="font:16.00px Arial">
<text x="60.00" y="511.60">And Mary bore Jesus, who died on the cross,</text>
</g>
<g stroke-width="0.70" style="font:16.00px Arial">
<text x="60.00" y="546.80">Now the holly bears a berry as black as the coal,</text>
</g>
<g stroke-width="0.70" style="font:16.00px Arial">
<text x="60.00" y="564.40">And Mary bore Jesus, who died for us all,</text>
</g>
<g stroke-width="0.70" style="font:16.00px Arial">
<text x="60.00" y="599.60">Now the holly bears a berry as blood is it red,</text>
</g>
<g stroke-width="0.70" style="font:16.00px Arial">
<text x="60.00" y="617.20">And Mary bore Jesus who rose from the dead,</text>
</g>
</svg>
