<?xml version="1.0" standalone="no"?>
<!DOCTYPE svg PUBLIC "-//W3C//DTD SVG 1.1//EN"
	"http://www.w3.org/Graphics/SVG/1.1/DTD/svg11.dtd">
<svg xmlns="http://www.w3.org/2000/svg" version="1.1"
	xmlns:xlink="http://www.w3.org/1999/xlink"
	color="black"
	width="701.60px" height="579.50px">
<style type="text/css">
.fill {fill: currentColor}
.stroke {stroke: currentColor; fill: none}
text{white-space: pre}
</style>
<title>/media/tim/Data1/tims_code/sphinx-tunes/source/_abcfiles/Silent Night.ab (0) tune 1</title>
<!-- Creator: abcm2ps-8.14.6 -->
<!-- CreationDate: Jul 30, 2023 12:21 -->
<!-- CommandLine: -g '/media/tim/Data1/tims_code/sphinx-tunes/source/_abcfiles/Silent Night.abc' -O '/media/tim/Data1/tims_code/sphinx-tunes/source/_abcfiles/Silent Night.svg' -->
<g stroke-width="0.70">
<!-- title: Silent Night -->
</g>
<g stroke-width="0.70" style="font:20.00px Times">
<text x="350.80" y="22.00" text-anchor="middle">Silent Night</text>
</g>
<g stroke-width="0.70" style="font:italic 14.00px Times">
<text x="691.60" y="46.00" text-anchor="end">Franz Gruber</text>
</g>
<g stroke-width="0.70" transform="scale(0.700)" style="font:italic 14.00px Times">
<defs>
<ellipse id="hd" rx="4.1" ry="2.9"
	transform="rotate(-20)" class="fill"/>
</defs>
<use x="118.71" y="95.57" xlink:href="#hd"/>
<path d="M122.21 95.57v-21.00" class="stroke"/>
</g>
<g stroke-width="0.70" style="font:bold 15.00px Times">
<text x="90.80" y="69.00">= 55</text>
<path class="stroke" stroke-width="1"
	d="M10.00 179.30v-92.30"/>
<path class="stroke" stroke-width="1"
	d="M218.00 111.00v-24.00"/>
<path class="stroke" stroke-width="1"
	d="M218.00 179.30v-68.30"/>
<path class="stroke" stroke-width="1"
	d="M370.20 111.00v-24.00"/>
<path class="stroke" stroke-width="1"
	d="M370.20 179.30v-68.30"/>
<path class="stroke" stroke-width="1"
	d="M530.50 111.00v-24.00"/>
<path class="stroke" stroke-width="1"
	d="M530.50 179.30v-68.30"/>
<path class="stroke" stroke-width="1"
	d="M691.60 111.00v-24.00"/>
<path class="stroke" stroke-width="1"
	d="M691.60 179.30v-68.30"/>
<path d="m10.00 111.00
	h681.60
	M10.00 105.00
	h681.60
	M10.00 99.00
	h681.60
	M10.00 93.00
	h681.60
	M10.00 87.00
	h681.60
	" class="stroke"/>
<path d="m10.00 179.30
	h681.60
	M10.00 173.30
	h681.60
	M10.00 167.30
	h681.60
	M10.00 161.30
	h681.60
	M10.00 155.30
	h681.60
	" class="stroke"/>
<path class="fill"
	d="M84.00 107.10c5.22 3.72 27.92 2.28 33.14 -2.10
	v0.23c-6.21 6.15 -26.93 7.58 -33.14 1.87"/>
<path class="fill"
	d="M241.20 107.10c5.22 3.72 27.92 2.28 33.14 -2.10
	v0.23c-6.21 6.15 -26.93 7.58 -33.14 1.87"/>
<path class="fill"
	d="M440.20 85.80c3.39 -3.23 18.11 -0.35 21.49 4.20
	v-0.22c-4.03 -6.33 -17.46 -9.21 -21.49 -3.98"/>
<path class="fill"
	d="M599.90 89.40c3.23 -2.84 17.26 1.68 20.49 6.60
	v-0.22c-3.84 -6.70 -16.65 -11.22 -20.49 -6.38"/>
<path class="fill"
	d="M84.00 181.40c5.22 3.72 27.92 2.28 33.14 -2.10
	v0.23c-6.21 6.15 -26.93 7.58 -33.14 1.87"/>
<path class="fill"
	d="M241.20 181.40c5.22 3.72 27.92 2.28 33.14 -2.10
	v0.23c-6.21 6.15 -26.93 7.58 -33.14 1.87"/>
</g>
<g stroke-width="0.70" style="font:13.00px Arial">
<text x="72.00" y="143.10">Si</text>
<path class="stroke" stroke-width="1.2"
	stroke-dasharray="5,26"
	d="M109.50 139.20h5"/>
<text x="132.80" y="143.10">lent</text>
<text x="163.40" y="143.10">night!</text>
<text x="227.00" y="143.10">Ho</text>
<path class="stroke" stroke-width="1.2"
	stroke-dasharray="5,23"
	d="M268.85 139.20h5"/>
<text x="291.00" y="143.10">ly</text>
<text x="315.60" y="143.10">night!</text>
<text x="379.20" y="143.10">All</text>
<text x="430.50" y="143.10">is</text>
<path class="stroke" stroke-width="0.8"
	d="M443.00 143.10h24.60"/>
<text x="477.00" y="143.10">calm,</text>
<text x="539.50" y="143.10">all</text>
<text x="589.20" y="143.10">is</text>
<path class="stroke" stroke-width="0.8"
	d="M601.70 143.10h24.60"/>
<text x="635.50" y="143.10">bright.</text>
<defs>
<path id="utclef" class="fill" d="m-50 -90
	c-72 -41 -72 -158 52 -188
	150 -10 220 188 90 256
	-114 52 -275 0 -293 -136
	-15 -181 93 -229 220 -334
	88 -87 79 -133 62 -210
	-51 33 -94 105 -89 186
	17 267 36 374 49 574
	6 96 -19 134 -77 135
	-80 1 -126 -93 -61 -133
	85 -41 133 101 31 105
	23 17 92 37 90 -92
	-10 -223 -39 -342 -50 -617
	0 -90 0 -162 96 -232
	56 72 63 230 22 289
	-74 106 -257 168 -255 316
	9 153 148 185 252 133
	86 -65 29 -192 -80 -176
	-71 12 -105 67 -59 124"/>
<use id="tclef" transform="translate(0,6) scale(0.045)"
	xlink:href="#utclef"/>
</defs>
<use x="22.00" y="105.00" xlink:href="#tclef"/>
<defs>
<path id="usharp" class="fill" d="
	m136 -702
	v890
	h32
	v-890
	m128 840
	h32
	v-888
	h-32
	m-232 286
	v116
	l338 -96
	v-116
	m-338 442
	v116
	l338 -98
	v-114"/>
<use id="sh0" transform="translate(-4,5) scale(0.018)"
	xlink:href="#usharp"/>
</defs>
<use x="37.00" y="87.00" xlink:href="#sh0"/>
<use x="42.50" y="96.00" xlink:href="#sh0"/>
<g style="font:bold 16px serif"
	transform="translate(58.50,110.50) scale(1.2,1)">
	<text text-anchor="middle">8</text>
	<text y="-12" text-anchor="middle">6</text>
</g>
<path class="fill"
	d="M85.70 79.40l35.30 -2.60v3.20l-35.30 2.60"/>
<path class="fill"
	d="M113.60 82.30l7.00 -0.50v3.20l-7.00 0.50"/>
<use x="82.50" y="102.00" xlink:href="#hd"/>
<circle class="fill" cx="90.20" cy="102.00" r="1.2"/>
<path d="M86.00 102.00v-21.60" class="stroke"/>
<use x="117.10" y="99.00" xlink:href="#hd"/>
<path d="M120.60 99.00v-21.20" class="stroke"/>
<use x="144.30" y="102.00" xlink:href="#hd"/>
<path d="M147.80 102.00v-21.00" class="stroke"/>
<path class="fill"
	d="M147.80 81.00c0.6 5.6 9.6 9 5.6 18.4
	1.6 -6 -1.3 -11.6 -5.6 -12.8
"/>
<use x="179.90" y="108.00" xlink:href="#hd"/>
<circle class="fill" cx="187.60" cy="108.00" r="1.2"/>
<path d="M183.40 108.00v-21.00" class="stroke"/>
<path class="fill"
	d="M242.90 79.40l35.30 -2.60v3.20l-35.30 2.60"/>
<path class="fill"
	d="M270.90 82.30l7.00 -0.50v3.20l-7.00 0.50"/>
<use x="239.70" y="102.00" xlink:href="#hd"/>
<circle class="fill" cx="247.40" cy="102.00" r="1.2"/>
<path d="M243.20 102.00v-21.60" class="stroke"/>
<use x="274.40" y="99.00" xlink:href="#hd"/>
<path d="M277.90 99.00v-21.20" class="stroke"/>
<use x="298.30" y="102.00" xlink:href="#hd"/>
<path d="M301.80 102.00v-21.00" class="stroke"/>
<path class="fill"
	d="M301.80 81.00c0.6 5.6 9.6 9 5.6 18.4
	1.6 -6 -1.3 -11.6 -5.6 -12.8
"/>
<use x="332.10" y="108.00" xlink:href="#hd"/>
<circle class="fill" cx="339.80" cy="108.00" r="1.2"/>
<path d="M335.60 108.00v-21.00" class="stroke"/>
<use x="389.40" y="90.00" xlink:href="#hd"/>
<path d="M385.90 90.00v21.00" class="stroke"/>
<path class="fill"
	d="M433.30 117.10l25.20 4.10v-3.20l-25.20 -4.10"/>
<path class="fill"
	d="M433.70 112.20l24.50 4.00v-3.20l-24.50 -4.00"/>
<path class="fill"
	d="M451.20 110.00l7.00 1.20v-3.20l-7.00 -1.20"/>
<use x="437.20" y="90.00" xlink:href="#hd"/>
<circle class="fill" cx="444.90" cy="90.00" r="1.2"/>
<path d="M433.70 90.00v26.20" class="stroke"/>
<use x="461.70" y="96.00" xlink:href="#hd"/>
<path d="M458.20 96.00v24.20" class="stroke"/>
<use x="492.40" y="96.00" xlink:href="#hd"/>
<circle class="fill" cx="500.10" cy="96.00" r="1.2"/>
<path d="M488.90 96.00v21.00" class="stroke"/>
<use x="548.00" y="93.00" xlink:href="#hd"/>
<path d="M544.50 93.00v21.00" class="stroke"/>
<path class="fill"
	d="M592.00 121.90l25.20 5.30v-3.20l-25.20 -5.30"/>
<path class="fill"
	d="M592.40 117.00l24.50 5.20v-3.20l-24.50 -5.20"/>
<path class="fill"
	d="M609.90 115.70l7.00 1.50v-3.20l-7.00 -1.50"/>
<use x="595.90" y="93.00" xlink:href="#hd"/>
<circle class="fill" cx="603.60" cy="90.00" r="1.2"/>
<path d="M592.40 93.00v28.00" class="stroke"/>
<use x="620.40" y="102.00" xlink:href="#hd"/>
<path d="M616.90 102.00v24.20" class="stroke"/>
<use x="653.50" y="102.00" xlink:href="#hd"/>
<circle class="fill" cx="661.20" cy="102.00" r="1.2"/>
<path d="M657.00 102.00v-21.00" class="stroke"/>
<use x="22.00" y="173.30" xlink:href="#tclef"/>
<use x="37.00" y="155.30" xlink:href="#sh0"/>
<use x="42.50" y="164.30" xlink:href="#sh0"/>
<g style="font:bold 16px serif"
	transform="translate(58.50,178.80) scale(1.2,1)">
	<text text-anchor="middle">8</text>
	<text y="-12" text-anchor="middle">6</text>
</g>
<path class="fill"
	d="M85.70 153.70l35.30 -2.60v3.20l-35.30 2.60"/>
<path class="fill"
	d="M113.60 156.60l7.00 -0.50v3.20l-7.00 0.50"/>
<use x="82.50" y="176.30" xlink:href="#hd"/>
<circle class="fill" cx="90.20" cy="176.30" r="1.2"/>
<path d="M86.00 176.30v-21.60" class="stroke"/>
<use x="117.10" y="173.30" xlink:href="#hd"/>
<path d="M120.60 173.30v-21.20" class="stroke"/>
<use x="144.30" y="176.30" xlink:href="#hd"/>
<path d="M147.80 176.30v-21.00" class="stroke"/>
<path class="fill"
	d="M147.80 155.30c0.6 5.6 9.6 9 5.6 18.4
	1.6 -6 -1.3 -11.6 -5.6 -12.8
"/>
<use x="179.90" y="182.30" xlink:href="#hd"/>
<circle class="fill" cx="187.60" cy="182.30" r="1.2"/>
<path d="M183.40 182.30v-21.00" class="stroke"/>
<path class="fill"
	d="M242.90 153.70l35.30 -2.60v3.20l-35.30 2.60"/>
<path class="fill"
	d="M270.90 156.60l7.00 -0.50v3.20l-7.00 0.50"/>
<use x="239.70" y="176.30" xlink:href="#hd"/>
<circle class="fill" cx="247.40" cy="176.30" r="1.2"/>
<path d="M243.20 176.30v-21.60" class="stroke"/>
<use x="274.40" y="173.30" xlink:href="#hd"/>
<path d="M277.90 173.30v-21.20" class="stroke"/>
<use x="298.30" y="176.30" xlink:href="#hd"/>
<path d="M301.80 176.30v-21.00" class="stroke"/>
<path class="fill"
	d="M301.80 155.30c0.6 5.6 9.6 9 5.6 18.4
	1.6 -6 -1.3 -11.6 -5.6 -12.8
"/>
<use x="332.10" y="182.30" xlink:href="#hd"/>
<circle class="fill" cx="339.80" cy="182.30" r="1.2"/>
<path d="M335.60 182.30v-21.00" class="stroke"/>
<use x="389.40" y="173.30" xlink:href="#hd"/>
<path d="M392.90 173.30v-21.00" class="stroke"/>
<use x="437.20" y="173.30" xlink:href="#hd"/>
<path d="M440.70 173.30v-21.00" class="stroke"/>
<path class="fill"
	d="M440.70 152.30c0.6 5.6 9.6 9 5.6 18.4
	1.6 -6 -1.3 -11.6 -5.6 -12.8
"/>
<use x="492.40" y="173.30" xlink:href="#hd"/>
<circle class="fill" cx="500.10" cy="170.30" r="1.2"/>
<path d="M495.90 173.30v-21.00" class="stroke"/>
<use x="548.00" y="176.30" xlink:href="#hd"/>
<path d="M551.50 176.30v-21.00" class="stroke"/>
<use x="595.90" y="176.30" xlink:href="#hd"/>
<path d="M599.40 176.30v-21.00" class="stroke"/>
<path class="fill"
	d="M599.40 155.30c0.6 5.6 9.6 9 5.6 18.4
	1.6 -6 -1.3 -11.6 -5.6 -12.8
"/>
<use x="653.50" y="176.30" xlink:href="#hd"/>
<circle class="fill" cx="661.20" cy="176.30" r="1.2"/>
<path d="M657.00 176.30v-21.00" class="stroke"/>
</g>
<g stroke-width="0.70" style="font:13.00px Arial">
<path class="stroke" stroke-width="1"
	d="M10.00 316.60v-91.30"/>
<path class="stroke" stroke-width="1"
	d="M272.40 249.30v-24.00"/>
<path class="stroke" stroke-width="1"
	d="M272.40 316.60v-67.30"/>
<path class="stroke" stroke-width="1"
	d="M460.00 249.30v-24.00"/>
<path class="stroke" stroke-width="1"
	d="M460.00 316.60v-67.30"/>
<path class="stroke" stroke-width="1"
	d="M691.60 249.30v-24.00"/>
<path class="stroke" stroke-width="1"
	d="M691.60 316.60v-67.30"/>
<path d="m10.00 249.30
	h681.60
	M10.00 243.30
	h681.60
	M10.00 237.30
	h681.60
	M10.00 231.30
	h681.60
	M10.00 225.30
	h681.60
	" class="stroke"/>
<path d="m10.00 316.60
	h681.60
	M10.00 310.60
	h681.60
	M10.00 304.60
	h681.60
	M10.00 298.60
	h681.60
	M10.00 292.60
	h681.60
	" class="stroke"/>
<path class="fill"
	d="M172.40 226.20c6.47 -3.83 34.78 -2.39 41.25 2.10
	v-0.24c-7.71 -6.25 -33.54 -7.69 -41.25 -1.86"/>
<path class="fill"
	d="M170.90 310.60c6.47 4.49 34.78 5.93 41.25 2.10
	v0.24c-7.71 5.59 -33.54 4.15 -41.25 -2.34"/>
<text x="52.00" y="274.40">Round</text>
<text x="117.70" y="274.40">yon</text>
<text x="157.50" y="274.40">Vir</text>
<path class="stroke" stroke-width="1.2"
	stroke-dasharray="5,26"
	d="M190.30 270.50h36"/>
<text x="233.00" y="274.40">gin</text>
<text x="282.70" y="274.40">Mo</text>
<path class="stroke" stroke-width="1.2"
	stroke-dasharray="5,20"
	d="M316.05 270.50h5"/>
<text x="327.40" y="274.40">ther</text>
<text x="360.10" y="274.40">and</text>
<text x="396.00" y="274.40">Child.</text>
<text x="470.30" y="274.40">Ho</text>
<path class="stroke" stroke-width="1.2"
	stroke-dasharray="5,23"
	d="M512.40 270.50h5"/>
<text x="534.80" y="274.40">ly</text>
<text x="573.30" y="274.40">In</text>
<path class="stroke" stroke-width="1.2"
	stroke-dasharray="5,23"
	d="M602.75 270.50h5"/>
<text x="618.10" y="274.40">fant,</text>
<text x="654.40" y="274.40">so</text>
<use x="22.00" y="243.30" xlink:href="#tclef"/>
<use x="37.00" y="225.30" xlink:href="#sh0"/>
<use x="42.50" y="234.30" xlink:href="#sh0"/>
<use x="70.10" y="237.30" xlink:href="#hd"/>
<path d="M73.60 237.30v-21.00" class="stroke"/>
<use x="129.10" y="237.30" xlink:href="#hd"/>
<path d="M132.60 237.30v-21.00" class="stroke"/>
<path class="fill"
	d="M132.60 216.30c0.6 5.6 9.6 9 5.6 18.4
	1.6 -6 -1.3 -11.6 -5.6 -12.8
"/>
<path class="fill"
	d="M167.00 254.50l43.40 2.70v-3.20l-43.40 -2.70"/>
<path class="fill"
	d="M203.10 251.70l7.00 0.40v-3.20l-7.00 -0.40"/>
<use x="170.90" y="231.30" xlink:href="#hd"/>
<circle class="fill" cx="178.60" cy="228.30" r="1.2"/>
<path d="M167.40 231.30v22.20" class="stroke"/>
<use x="213.60" y="234.30" xlink:href="#hd"/>
<path d="M210.10 234.30v21.80" class="stroke"/>
<use x="243.10" y="237.30" xlink:href="#hd"/>
<path d="M239.60 237.30v21.00" class="stroke"/>
<path class="fill"
	d="M239.60 258.30c0.6 -5.6 9.6 -9 5.6 -18.4
	1.6 6 -1.3 11.6 -5.6 12.8
"/>
<path class="fill"
	d="M299.50 217.80l43.40 -2.70v3.20l-43.40 2.70"/>
<path class="fill"
	d="M335.60 220.50l7.00 -0.40v3.20l-7.00 0.40"/>
<use x="296.40" y="240.30" xlink:href="#hd"/>
<circle class="fill" cx="304.10" cy="240.30" r="1.2"/>
<path d="M299.90 240.30v-21.60" class="stroke"/>
<use x="339.10" y="237.30" xlink:href="#hd"/>
<path d="M342.60 237.30v-21.20" class="stroke"/>
<use x="371.20" y="240.30" xlink:href="#hd"/>
<path d="M374.70 240.30v-21.00" class="stroke"/>
<path class="fill"
	d="M374.70 219.30c0.6 5.6 9.6 9 5.6 18.4
	1.6 -6 -1.3 -11.6 -5.6 -12.8
"/>
<use x="413.00" y="246.30" xlink:href="#hd"/>
<circle class="fill" cx="420.70" cy="246.30" r="1.2"/>
<path d="M416.50 246.30v-21.00" class="stroke"/>
<use x="483.10" y="237.30" xlink:href="#hd"/>
<path d="M486.60 237.30v-21.00" class="stroke"/>
<use x="542.10" y="237.30" xlink:href="#hd"/>
<path d="M545.60 237.30v-21.00" class="stroke"/>
<path class="fill"
	d="M545.60 216.30c0.6 5.6 9.6 9 5.6 18.4
	1.6 -6 -1.3 -11.6 -5.6 -12.8
"/>
<use x="583.80" y="231.30" xlink:href="#hd"/>
<circle class="fill" cx="591.50" cy="228.30" r="1.2"/>
<path d="M580.30 231.30v21.00" class="stroke"/>
<path class="fill"
	d="M580.30 252.30c0.6 -5.6 9.6 -9 5.6 -18.4
	1.6 6 -1.3 11.6 -5.6 12.8
"/>
<use x="631.30" y="234.30" xlink:href="#hd"/>
<path d="M627.80 234.30v23.00" class="stroke"/>
<path class="fill"
	d="M627.80 257.30c0.9 -3.7 9.1 -6.4 6 -12.4
	1 5.4 -4.2 8.4 -6 8.4
M627.80 251.90c0.9 -3.7 9.1 -6.4 6 -12.4
	1 5.4 -4.2 8.4 -6 8.4
"/>
<use x="662.40" y="237.30" xlink:href="#hd"/>
<path d="M658.90 237.30v21.00" class="stroke"/>
<path class="fill"
	d="M658.90 258.30c0.6 -5.6 9.6 -9 5.6 -18.4
	1.6 6 -1.3 11.6 -5.6 12.8
"/>
<use x="22.00" y="310.60" xlink:href="#tclef"/>
<use x="37.00" y="292.60" xlink:href="#sh0"/>
<use x="42.50" y="301.60" xlink:href="#sh0"/>
<use x="70.10" y="310.60" xlink:href="#hd"/>
<path d="M73.60 310.60v-21.00" class="stroke"/>
<use x="129.10" y="310.60" xlink:href="#hd"/>
<path d="M132.60 310.60v-21.00" class="stroke"/>
<path class="fill"
	d="M132.60 289.60c0.6 5.6 9.6 9 5.6 18.4
	1.6 -6 -1.3 -11.6 -5.6 -12.8
"/>
<path class="fill"
	d="M174.00 282.70l43.40 2.70v3.20l-43.40 -2.70"/>
<path class="fill"
	d="M210.10 290.00l7.00 0.40v3.20l-7.00 -0.40"/>
<use x="170.90" y="304.60" xlink:href="#hd"/>
<circle class="fill" cx="178.60" cy="301.60" r="1.2"/>
<path d="M174.40 304.60v-20.80" class="stroke"/>
<use x="213.60" y="307.60" xlink:href="#hd"/>
<path d="M217.10 307.60v-21.20" class="stroke"/>
<use x="243.10" y="310.60" xlink:href="#hd"/>
<path d="M246.60 310.60v-21.00" class="stroke"/>
<path class="fill"
	d="M246.60 289.60c0.6 5.6 9.6 9 5.6 18.4
	1.6 -6 -1.3 -11.6 -5.6 -12.8
"/>
<path class="fill"
	d="M299.50 291.10l43.40 -2.70v3.20l-43.40 2.70"/>
<path class="fill"
	d="M335.60 293.80l7.00 -0.40v3.20l-7.00 0.40"/>
<use x="296.40" y="313.60" xlink:href="#hd"/>
<circle class="fill" cx="304.10" cy="313.60" r="1.2"/>
<path d="M299.90 313.60v-21.60" class="stroke"/>
<use x="339.10" y="310.60" xlink:href="#hd"/>
<path d="M342.60 310.60v-21.20" class="stroke"/>
<use x="371.20" y="313.60" xlink:href="#hd"/>
<path d="M374.70 313.60v-21.00" class="stroke"/>
<path class="fill"
	d="M374.70 292.60c0.6 5.6 9.6 9 5.6 18.4
	1.6 -6 -1.3 -11.6 -5.6 -12.8
"/>
<use x="413.00" y="319.60" xlink:href="#hd"/>
<circle class="fill" cx="420.70" cy="319.60" r="1.2"/>
<path d="M416.50 319.60v-21.00" class="stroke"/>
<use x="483.10" y="319.60" xlink:href="#hd"/>
<path d="M486.60 319.60v-21.00" class="stroke"/>
<use x="542.10" y="310.60" xlink:href="#hd"/>
<path d="M545.60 310.60v-21.00" class="stroke"/>
<path class="fill"
	d="M545.60 289.60c0.6 5.6 9.6 9 5.6 18.4
	1.6 -6 -1.3 -11.6 -5.6 -12.8
"/>
<use x="583.80" y="304.60" xlink:href="#hd"/>
<circle class="fill" cx="591.50" cy="301.60" r="1.2"/>
<path d="M587.30 304.60v-21.00" class="stroke"/>
<path class="fill"
	d="M587.30 283.60c0.6 5.6 9.6 9 5.6 18.4
	1.6 -6 -1.3 -11.6 -5.6 -12.8
"/>
<use x="631.30" y="307.60" xlink:href="#hd"/>
<path d="M634.80 307.60v-22.00" class="stroke"/>
<path class="fill"
	d="M634.80 285.60c0.9 3.7 9.1 6.4 6 12.4
	1 -5.4 -4.2 -8.4 -6 -8.4
M634.80 291.00c0.9 3.7 9.1 6.4 6 12.4
	1 -5.4 -4.2 -8.4 -6 -8.4
"/>
<use x="662.40" y="310.60" xlink:href="#hd"/>
<path d="M665.90 310.60v-21.00" class="stroke"/>
<path class="fill"
	d="M665.90 289.60c0.6 5.6 9.6 9 5.6 18.4
	1.6 -6 -1.3 -11.6 -5.6 -12.8
"/>
</g>
<g stroke-width="0.70" style="font:13.00px Arial">
<path class="stroke" stroke-width="1"
	d="M10.00 450.90v-88.30"/>
<path class="stroke" stroke-width="1"
	d="M180.60 386.60v-24.00"/>
<path class="stroke" stroke-width="1"
	d="M180.60 450.90v-64.30"/>
<path class="stroke" stroke-width="1"
	d="M338.70 386.60v-24.00"/>
<path class="stroke" stroke-width="1"
	d="M338.70 450.90v-64.30"/>
<path class="stroke" stroke-width="1"
	d="M428.80 386.60v-24.00"/>
<path class="stroke" stroke-width="1"
	d="M428.80 450.90v-64.30"/>
<path class="stroke" stroke-width="1"
	d="M597.50 386.60v-24.00"/>
<path class="stroke" stroke-width="1"
	d="M597.50 450.90v-64.30"/>
<path class="stroke" stroke-width="3"
	d="M690.10 386.60v-24.00"/>
<path class="stroke" stroke-width="1"
	d="M685.60 386.60v-24.00"/>
<path class="stroke" stroke-width="3"
	d="M690.10 450.90v-64.30"/>
<path class="stroke" stroke-width="1"
	d="M685.60 450.90v-64.30"/>
<path d="m10.00 386.60
	h681.60
	M10.00 380.60
	h681.60
	M10.00 374.60
	h681.60
	M10.00 368.60
	h681.60
	M10.00 362.60
	h681.60
	" class="stroke"/>
<path d="m10.00 450.90
	h681.60
	M10.00 444.90
	h681.60
	M10.00 438.90
	h681.60
	M10.00 432.90
	h681.60
	M10.00 426.90
	h681.60
	" class="stroke"/>
<path class="fill"
	d="M364.00 362.60c5.37 -4.72 28.75 -7.60 34.12 -4.20
	v-0.23c-6.40 -5.17 -27.73 -2.29 -34.12 4.43"/>
<path class="fill"
	d="M456.40 365.00c3.03 -2.82 16.19 1.70 19.21 6.60
	v-0.22c-3.60 -6.68 -15.61 -11.20 -19.21 -6.38"/>
<path class="fill"
	d="M622.80 395.60c5.85 4.10 31.28 4.10 37.12 -0.00
	v0.24c-6.96 5.86 -30.16 5.86 -37.12 -0.24"/>
<path class="fill"
	d="M367.00 452.10c5.37 3.40 28.75 0.52 34.12 -4.20
	v0.23c-6.40 6.49 -27.73 9.37 -34.12 3.97"/>
<path class="fill"
	d="M622.80 453.90c5.37 4.72 28.75 7.60 34.12 4.20
	v0.23c-6.40 5.17 -27.73 2.29 -34.12 -4.43"/>
<text x="52.00" y="412.70">ten</text>
<path class="stroke" stroke-width="1.2"
	stroke-dasharray="5,20"
	d="M77.65 408.80h5"/>
<text x="83.80" y="412.70">der</text>
<text x="109.20" y="412.70">and</text>
<text x="137.00" y="412.70">mild.</text>
<text x="188.60" y="412.70">Sleep</text>
<text x="232.90" y="412.70">in</text>
<text x="251.20" y="412.70">heav</text>
<path class="stroke" stroke-width="1.2"
	stroke-dasharray="5,20"
	d="M286.35 408.80h5"/>
<text x="292.50" y="412.70">en</text>
<text x="313.10" y="412.70">ly</text>
<text x="346.70" y="412.70">peace,</text>
<path class="stroke" stroke-width="0.8"
	d="M385.80 412.70h21.30"/>
<text x="436.80" y="412.70">Sleep</text>
<path class="stroke" stroke-width="0.8"
	d="M471.60 412.70h10.00"/>
<text x="491.70" y="412.70">in</text>
<text x="510.00" y="412.70">heav</text>
<path class="stroke" stroke-width="1.2"
	stroke-dasharray="5,20"
	d="M545.15 408.80h5"/>
<text x="551.30" y="412.70">en</text>
<text x="571.90" y="412.70">ly</text>
<text x="605.50" y="412.70">peace.</text>
<path class="stroke" stroke-width="0.8"
	d="M644.60 412.70h21.30"/>
<use x="22.00" y="380.60" xlink:href="#tclef"/>
<use x="37.00" y="362.60" xlink:href="#sh0"/>
<use x="42.50" y="371.60" xlink:href="#sh0"/>
<path class="fill"
	d="M67.90 354.90l29.90 -2.50v3.20l-29.90 2.50"/>
<path class="fill"
	d="M90.40 358.00l7.00 -0.60v3.20l-7.00 0.60"/>
<use x="64.70" y="377.60" xlink:href="#hd"/>
<circle class="fill" cx="72.40" cy="377.60" r="1.2"/>
<path d="M68.20 377.60v-21.70" class="stroke"/>
<use x="93.90" y="374.60" xlink:href="#hd"/>
<path d="M97.40 374.60v-21.20" class="stroke"/>
<use x="120.30" y="377.60" xlink:href="#hd"/>
<path d="M123.80 377.60v-21.00" class="stroke"/>
<path class="fill"
	d="M123.80 356.60c0.6 5.6 9.6 9 5.6 18.4
	1.6 -6 -1.3 -11.6 -5.6 -12.8
"/>
<use x="151.80" y="383.60" xlink:href="#hd"/>
<circle class="fill" cx="159.50" cy="383.60" r="1.2"/>
<path d="M155.30 383.60v-21.00" class="stroke"/>
<use x="204.20" y="365.60" xlink:href="#hd"/>
<path d="M200.70 365.60v21.00" class="stroke"/>
<use x="240.20" y="365.60" xlink:href="#hd"/>
<path d="M236.70 365.60v21.00" class="stroke"/>
<path class="fill"
	d="M236.70 386.60c0.6 -5.6 9.6 -9 5.6 -18.4
	1.6 6 -1.3 11.6 -5.6 12.8
"/>
<use x="267.70" y="359.60" xlink:href="#hd"/>
<circle class="fill" cx="275.40" cy="359.60" r="1.2"/>
<path d="M264.20 359.60v21.00" class="stroke"/>
<path class="fill"
	d="M264.20 380.60c0.6 -5.6 9.6 -9 5.6 -18.4
	1.6 6 -1.3 11.6 -5.6 12.8
"/>
<use x="300.80" y="365.60" xlink:href="#hd"/>
<path d="M297.30 365.60v23.00" class="stroke"/>
<path class="fill"
	d="M297.30 388.60c0.9 -3.7 9.1 -6.4 6 -12.4
	1 5.4 -4.2 8.4 -6 8.4
M297.30 383.20c0.9 -3.7 9.1 -6.4 6 -12.4
	1 5.4 -4.2 8.4 -6 8.4
"/>
<use x="320.50" y="371.60" xlink:href="#hd"/>
<path d="M317.00 371.60v21.00" class="stroke"/>
<path class="fill"
	d="M317.00 392.60c0.6 -5.6 9.6 -9 5.6 -18.4
	1.6 6 -1.3 11.6 -5.6 12.8
"/>
<use x="364.00" y="368.60" xlink:href="#hd"/>
<circle class="fill" cx="371.70" cy="365.60" r="1.2"/>
<path d="M360.50 368.60v21.00" class="stroke"/>
<use x="401.20" y="362.60" xlink:href="#hd"/>
<circle class="fill" cx="408.90" cy="359.60" r="1.2"/>
<path d="M397.70 362.60v21.00" class="stroke"/>
<path class="fill"
	d="M448.50 391.70l23.90 5.20v-3.20l-23.90 -5.20"/>
<use x="452.40" y="368.60" xlink:href="#hd"/>
<path d="M448.90 368.60v22.10" class="stroke"/>
<use x="475.60" y="377.60" xlink:href="#hd"/>
<path d="M472.10 377.60v18.20" class="stroke"/>
<use x="499.00" y="383.60" xlink:href="#hd"/>
<path d="M502.50 383.60v-21.00" class="stroke"/>
<path class="fill"
	d="M502.50 362.60c0.6 5.6 9.6 9 5.6 18.4
	1.6 -6 -1.3 -11.6 -5.6 -12.8
"/>
<use x="526.50" y="377.60" xlink:href="#hd"/>
<circle class="fill" cx="534.20" cy="377.60" r="1.2"/>
<path d="M530.00 377.60v-21.00" class="stroke"/>
<path class="fill"
	d="M530.00 356.60c0.6 5.6 9.6 9 5.6 18.4
	1.6 -6 -1.3 -11.6 -5.6 -12.8
"/>
<use x="559.60" y="380.60" xlink:href="#hd"/>
<path d="M563.10 380.60v-22.00" class="stroke"/>
<path class="fill"
	d="M563.10 358.60c0.9 3.7 9.1 6.4 6 12.4
	1 -5.4 -4.2 -8.4 -6 -8.4
M563.10 364.00c0.9 3.7 9.1 6.4 6 12.4
	1 -5.4 -4.2 -8.4 -6 -8.4
"/>
<use x="579.30" y="386.60" xlink:href="#hd"/>
<path d="M582.80 386.60v-21.00" class="stroke"/>
<path class="fill"
	d="M582.80 365.60c0.6 5.6 9.6 9 5.6 18.4
	1.6 -6 -1.3 -11.6 -5.6 -12.8
"/>
<use x="622.80" y="389.60" xlink:href="#hd"/>
<circle class="fill" cx="630.50" cy="389.60" r="1.2"/>
<path d="M626.30 389.60v-21.00" class="stroke"/>
<use x="659.90" y="389.60" xlink:href="#hd"/>
<circle class="fill" cx="667.60" cy="389.60" r="1.2"/>
<path d="M663.40 389.60v-21.00" class="stroke"/>
<use x="22.00" y="444.90" xlink:href="#tclef"/>
<use x="37.00" y="426.90" xlink:href="#sh0"/>
<use x="42.50" y="435.90" xlink:href="#sh0"/>
<path class="fill"
	d="M67.90 425.20l29.90 -2.50v3.20l-29.90 2.50"/>
<path class="fill"
	d="M90.40 428.30l7.00 -0.60v3.20l-7.00 0.60"/>
<use x="64.70" y="447.90" xlink:href="#hd"/>
<circle class="fill" cx="72.40" cy="447.90" r="1.2"/>
<path d="M68.20 447.90v-21.70" class="stroke"/>
<use x="93.90" y="444.90" xlink:href="#hd"/>
<path d="M97.40 444.90v-21.20" class="stroke"/>
<use x="120.30" y="447.90" xlink:href="#hd"/>
<path d="M123.80 447.90v-21.00" class="stroke"/>
<path class="fill"
	d="M123.80 426.90c0.6 5.6 9.6 9 5.6 18.4
	1.6 -6 -1.3 -11.6 -5.6 -12.8
"/>
<use x="151.80" y="453.90" xlink:href="#hd"/>
<circle class="fill" cx="159.50" cy="453.90" r="1.2"/>
<path d="M155.30 453.90v-21.00" class="stroke"/>
<use x="204.20" y="444.90" xlink:href="#hd"/>
<path d="M207.70 444.90v-21.00" class="stroke"/>
<use x="240.20" y="444.90" xlink:href="#hd"/>
<path d="M243.70 444.90v-21.00" class="stroke"/>
<path class="fill"
	d="M243.70 423.90c0.6 5.6 9.6 9 5.6 18.4
	1.6 -6 -1.3 -11.6 -5.6 -12.8
"/>
<use x="267.70" y="450.90" xlink:href="#hd"/>
<circle class="fill" cx="275.40" cy="447.90" r="1.2"/>
<path d="M271.20 450.90v-21.00" class="stroke"/>
<path class="fill"
	d="M271.20 429.90c0.6 5.6 9.6 9 5.6 18.4
	1.6 -6 -1.3 -11.6 -5.6 -12.8
"/>
<use x="300.80" y="444.90" xlink:href="#hd"/>
<path d="M304.30 444.90v-22.00" class="stroke"/>
<path class="fill"
	d="M304.30 422.90c0.9 3.7 9.1 6.4 6 12.4
	1 -5.4 -4.2 -8.4 -6 -8.4
M304.30 428.30c0.9 3.7 9.1 6.4 6 12.4
	1 -5.4 -4.2 -8.4 -6 -8.4
"/>
<use x="320.50" y="441.90" xlink:href="#hd"/>
<path d="M324.00 441.90v-21.00" class="stroke"/>
<path class="fill"
	d="M324.00 420.90c0.6 5.6 9.6 9 5.6 18.4
	1.6 -6 -1.3 -11.6 -5.6 -12.8
"/>
<use x="364.00" y="447.90" xlink:href="#hd"/>
<circle class="fill" cx="371.70" cy="447.90" r="1.2"/>
<path d="M367.50 447.90v-21.00" class="stroke"/>
<use x="401.20" y="441.90" xlink:href="#hd"/>
<circle class="fill" cx="408.90" cy="441.90" r="1.2"/>
<path d="M404.70 441.90v-21.00" class="stroke"/>
<use x="452.40" y="447.90" xlink:href="#hd"/>
<path d="M455.90 447.90v-21.00" class="stroke"/>
<use x="499.00" y="453.90" xlink:href="#hd"/>
<path d="M502.50 453.90v-21.00" class="stroke"/>
<path class="fill"
	d="M502.50 432.90c0.6 5.6 9.6 9 5.6 18.4
	1.6 -6 -1.3 -11.6 -5.6 -12.8
"/>
<defs>
<path id="hl" class="stroke" d="m-6 0h12"/>
</defs>
<use x="526.50" y="456.90" xlink:href="#hl"/>
<use x="526.50" y="456.90" xlink:href="#hd"/>
<circle class="fill" cx="534.20" cy="453.90" r="1.2"/>
<path d="M530.00 456.90v-21.00" class="stroke"/>
<path class="fill"
	d="M530.00 435.90c0.6 5.6 9.6 9 5.6 18.4
	1.6 -6 -1.3 -11.6 -5.6 -12.8
"/>
<use x="559.60" y="450.90" xlink:href="#hd"/>
<path d="M563.10 450.90v-22.00" class="stroke"/>
<path class="fill"
	d="M563.10 428.90c0.9 3.7 9.1 6.4 6 12.4
	1 -5.4 -4.2 -8.4 -6 -8.4
M563.10 434.30c0.9 3.7 9.1 6.4 6 12.4
	1 -5.4 -4.2 -8.4 -6 -8.4
"/>
<use x="579.30" y="444.90" xlink:href="#hd"/>
<path d="M582.80 444.90v-21.00" class="stroke"/>
<path class="fill"
	d="M582.80 423.90c0.6 5.6 9.6 9 5.6 18.4
	1.6 -6 -1.3 -11.6 -5.6 -12.8
"/>
<use x="622.80" y="447.90" xlink:href="#hd"/>
<circle class="fill" cx="630.50" cy="447.90" r="1.2"/>
<path d="M626.30 447.90v-21.00" class="stroke"/>
<use x="659.90" y="453.90" xlink:href="#hd"/>
<circle class="fill" cx="667.60" cy="453.90" r="1.2"/>
<path d="M663.40 453.90v-21.00" class="stroke"/>
</g>
<g stroke-width="0.70" style="font:16.00px Arial">
<text x="60.00" y="491.50">Silent night! Holy night!</text>
<text x="375.80" y="491.50">Silent night! Holy night!</text>
</g>
<g stroke-width="0.70" style="font:16.00px Arial">
<text x="60.00" y="509.10">Shepherds quake at the sight!</text>
<text x="375.80" y="509.10">Son of God, love&apos;s pure light</text>
</g>
<g stroke-width="0.70" style="font:16.00px Arial">
<text x="60.00" y="526.70">Glories stream from heaven afar,</text>
<text x="375.80" y="526.70">Radiant beams from thy holy face</text>
</g>
<g stroke-width="0.70" style="font:16.00px Arial">
<text x="60.00" y="544.30">Heavenly hosts sing Alleluia!</text>
<text x="375.80" y="544.30">With the dawn of redeeming grace,</text>
</g>
<g stroke-width="0.70" style="font:16.00px Arial">
<text x="60.00" y="561.90">Christ the Saviour is born!</text>
<text x="375.80" y="561.90">Jesus, Lord, at thy birth!</text>
</g>
<g stroke-width="0.70" style="font:16.00px Arial">
<text x="60.00" y="579.50">Christ the Saviour is born!</text>
<text x="375.80" y="579.50">Jesus, Lord, at thy birth!</text>
</g>
</svg>
