<?xml version="1.0" standalone="no"?>
<!DOCTYPE svg PUBLIC "-//W3C//DTD SVG 1.1//EN"
	"http://www.w3.org/Graphics/SVG/1.1/DTD/svg11.dtd">
<svg xmlns="http://www.w3.org/2000/svg" version="1.1"
	xmlns:xlink="http://www.w3.org/1999/xlink"
	color="black"
	width="701.60px" height="437.00px">
<style type="text/css">
.fill {fill: currentColor}
.stroke {stroke: currentColor; fill: none}
text{white-space: pre}
</style>
<title>/mnt/ed617834-7c4b-4156-8731-6c17b22f12c7/tims_code/sphinx-tunes/source/ (1) tune 1</title>
<!-- Creator: abcm2ps-8.14.6 -->
<!-- CreationDate: Aug  9, 2021 22:56 -->
<!-- CommandLine: -g '/mnt/ed617834-7c4b-4156-8731-6c17b22f12c7/tims_code/sphinx-tunes/source/_abcfiles/_Spring all Summer Long.abc' -O '/mnt/ed617834-7c4b-4156-8731-6c17b22f12c7/tims_code/sphinx-tunes/source/_abcfiles/Spring all Summer Long.svg' -->
<g stroke-width="0.70">
<path class="stroke" stroke-width="1"
	d="M223.50 59.00v-24.00"/>
<path class="stroke" stroke-width="1"
	d="M374.10 59.00v-24.00"/>
<path class="stroke" stroke-width="1"
	d="M538.00 59.00v-24.00"/>
<path class="stroke" stroke-width="1"
	d="M691.60 59.00v-24.00"/>
<path d="m10.00 59.00
	h681.60
	M10.00 53.00
	h681.60
	M10.00 47.00
	h681.60
	M10.00 41.00
	h681.60
	M10.00 35.00
	h681.60
	" class="stroke"/>
<defs>
<path id="utclef" class="fill" d="m-50 -90
	c-72 -41 -72 -158 52 -188
	150 -10 220 188 90 256
	-114 52 -275 0 -293 -136
	-15 -181 93 -229 220 -334
	88 -87 79 -133 62 -210
	-51 33 -94 105 -89 186
	17 267 36 374 49 574
	6 96 -19 134 -77 135
	-80 1 -126 -93 -61 -133
	85 -41 133 101 31 105
	23 17 92 37 90 -92
	-10 -223 -39 -342 -50 -617
	0 -90 0 -162 96 -232
	56 72 63 230 22 289
	-74 106 -257 168 -255 316
	9 153 148 185 252 133
	86 -65 29 -192 -80 -176
	-71 12 -105 67 -59 124"/>
<use id="tclef" transform="translate(0,6) scale(0.045)"
	xlink:href="#utclef"/>
</defs>
<use x="22.00" y="53.00" xlink:href="#tclef"/>
<defs>
<path id="usharp" class="fill" d="
	m136 -702
	v890
	h32
	v-890
	m128 840
	h32
	v-888
	h-32
	m-232 286
	v116
	l338 -96
	v-116
	m-338 442
	v116
	l338 -98
	v-114"/>
<use id="sh0" transform="translate(-4,5) scale(0.018)"
	xlink:href="#usharp"/>
</defs>
<use x="37.00" y="35.00" xlink:href="#sh0"/>
<use x="42.50" y="44.00" xlink:href="#sh0"/>
<g style="font:bold 16px serif"
	transform="translate(58.50,58.50) scale(1.2,1)">
	<text text-anchor="middle">4</text>
	<text y="-12" text-anchor="middle">4</text>
</g>
<defs>
<ellipse id="hd" rx="4.1" ry="2.9"
	transform="rotate(-20)" class="fill"/>
</defs>
<use x="76.50" y="62.00" xlink:href="#hd"/>
<circle class="fill" cx="84.20" cy="62.00" r="1.2"/>
<path d="M80.00 62.00v-21.00" class="stroke"/>
<use x="123.70" y="62.00" xlink:href="#hd"/>
<path d="M127.20 62.00v-21.00" class="stroke"/>
<path class="fill"
	d="M127.20 41.00c0.6 5.6 9.6 9 5.6 18.4
	1.6 -6 -1.3 -11.6 -5.6 -12.8
"/>
<use x="153.00" y="59.00" xlink:href="#hd"/>
<path d="M156.50 59.00v-21.00" class="stroke"/>
<use x="194.50" y="56.00" xlink:href="#hd"/>
<path d="M198.00 56.00v-21.00" class="stroke"/>
<use x="238.20" y="41.00" xlink:href="#hd"/>
<circle class="fill" cx="245.90" cy="38.00" r="1.2"/>
<path d="M234.70 41.00v21.00" class="stroke"/>
<use x="285.40" y="44.00" xlink:href="#hd"/>
<path d="M281.90 44.00v21.00" class="stroke"/>
<path class="fill"
	d="M281.90 65.00c0.6 -5.6 9.6 -9 5.6 -18.4
	1.6 6 -1.3 11.6 -5.6 12.8
"/>
<use x="314.70" y="47.00" xlink:href="#hd"/>
<path d="M311.20 47.00v21.00" class="stroke"/>
<path class="fill"
	d="M311.20 68.00c0.6 -5.6 9.6 -9 5.6 -18.4
	1.6 6 -1.3 11.6 -5.6 12.8
"/>
<use x="341.10" y="50.00" xlink:href="#hd"/>
<circle class="fill" cx="348.80" cy="50.00" r="1.2"/>
<path d="M344.60 50.00v-21.00" class="stroke"/>
<use x="388.80" y="50.00" xlink:href="#hd"/>
<path d="M392.30 50.00v-21.00" class="stroke"/>
<use x="430.30" y="56.00" xlink:href="#hd"/>
<path d="M433.80 56.00v-21.00" class="stroke"/>
<use x="471.70" y="41.00" xlink:href="#hd"/>
<path d="M468.20 41.00v21.00" class="stroke"/>
<use x="509.00" y="56.00" xlink:href="#hd"/>
<path d="M512.50 56.00v-21.00" class="stroke"/>
<use x="552.70" y="59.00" xlink:href="#hd"/>
<circle class="fill" cx="560.40" cy="56.00" r="1.2"/>
<path d="M556.20 59.00v-21.00" class="stroke"/>
<use x="599.90" y="62.00" xlink:href="#hd"/>
<path d="M603.40 62.00v-21.00" class="stroke"/>
<path class="fill"
	d="M603.40 41.00c0.6 5.6 9.6 9 5.6 18.4
	1.6 -6 -1.3 -11.6 -5.6 -12.8
"/>
<use x="629.20" y="59.00" xlink:href="#hd"/>
<path d="M632.70 59.00v-21.00" class="stroke"/>
<path class="fill"
	d="M632.70 38.00c0.6 5.6 9.6 9 5.6 18.4
	1.6 -6 -1.3 -11.6 -5.6 -12.8
"/>
<use x="658.60" y="56.00" xlink:href="#hd"/>
<circle class="fill" cx="666.30" cy="56.00" r="1.2"/>
<path d="M662.10 56.00v-21.00" class="stroke"/>
</g>
<g stroke-width="0.70">
<path class="stroke" stroke-width="1"
	d="M209.20 134.00v-24.00"/>
<path class="stroke" stroke-width="1"
	d="M369.90 134.00v-24.00"/>
<path class="stroke" stroke-width="1"
	d="M527.70 134.00v-24.00"/>
<path class="stroke" stroke-width="3"
	d="M608.20 134.00v-24.00"/>
<path class="stroke" stroke-width="1"
	d="M603.70 134.00v-24.00"/>
<defs>
<g id="rdots" class="fill">
	<circle cx="0" cy="-9" r="1.2"/>
	<circle cx="0" cy="-15" r="1.2"/>
</g>
</defs>
<use x="599.70" y="134.00" xlink:href="#rdots"/>
<path class="stroke" stroke-width="1"
	d="M691.60 134.00v-24.00"/>
<path class="stroke" stroke-width="1"
	d="M688.60 134.00v-24.00"/>
<path d="m10.00 134.00
	h681.60
	M10.00 128.00
	h681.60
	M10.00 122.00
	h681.60
	M10.00 116.00
	h681.60
	M10.00 110.00
	h681.60
	" class="stroke"/>
</g>
<g stroke-width="0.70" style="font:13.00px Times">
<text x="531.70" y="95.40">1</text>
<path class="stroke"
	d="M527.70 84.00m0 20v-20h73.90v20"/>
<text x="613.70" y="95.40">2</text>
<path class="stroke"
	d="M609.70 84.00m0 20v-20h81.90v20"/>
<use x="22.00" y="128.00" xlink:href="#tclef"/>
<use x="37.00" y="110.00" xlink:href="#sh0"/>
<use x="42.50" y="119.00" xlink:href="#sh0"/>
<use x="60.50" y="137.00" xlink:href="#hd"/>
<circle class="fill" cx="68.20" cy="137.00" r="1.2"/>
<path d="M64.00 137.00v-21.00" class="stroke"/>
<use x="108.20" y="137.00" xlink:href="#hd"/>
<path d="M111.70 137.00v-21.00" class="stroke"/>
<path class="fill"
	d="M111.70 116.00c0.6 5.6 9.6 9 5.6 18.4
	1.6 -6 -1.3 -11.6 -5.6 -12.8
"/>
<use x="137.90" y="134.00" xlink:href="#hd"/>
<path d="M141.40 134.00v-21.00" class="stroke"/>
<use x="179.80" y="131.00" xlink:href="#hd"/>
<path d="M183.30 131.00v-21.00" class="stroke"/>
<use x="224.00" y="116.00" xlink:href="#hd"/>
<circle class="fill" cx="231.70" cy="113.00" r="1.2"/>
<path d="M220.50 116.00v21.00" class="stroke"/>
<use x="271.80" y="113.00" xlink:href="#hd"/>
<path d="M268.30 113.00v21.00" class="stroke"/>
<path class="fill"
	d="M268.30 134.00c0.6 -5.6 9.6 -9 5.6 -18.4
	1.6 6 -1.3 11.6 -5.6 12.8
"/>
<use x="301.40" y="110.00" xlink:href="#hd"/>
<circle class="fill" cx="309.10" cy="107.00" r="1.2"/>
<path d="M297.90 110.00v21.00" class="stroke"/>
<use x="349.20" y="113.00" xlink:href="#hd"/>
<path d="M345.70 113.00v21.00" class="stroke"/>
<path class="fill"
	d="M345.70 134.00c0.6 -5.6 9.6 -9 5.6 -18.4
	1.6 6 -1.3 11.6 -5.6 12.8
"/>
<use x="384.80" y="116.00" xlink:href="#hd"/>
<path d="M381.30 116.00v21.00" class="stroke"/>
<path class="fill"
	d="M381.30 137.00c0.6 -5.6 9.6 -9 5.6 -18.4
	1.6 6 -1.3 11.6 -5.6 12.8
"/>
<use x="411.50" y="131.00" xlink:href="#hd"/>
<circle class="fill" cx="419.20" cy="131.00" r="1.2"/>
<path d="M415.00 131.00v-21.00" class="stroke"/>
<use x="459.20" y="134.00" xlink:href="#hd"/>
<circle class="fill" cx="466.90" cy="131.00" r="1.2"/>
<path d="M462.70 134.00v-21.00" class="stroke"/>
<use x="507.00" y="137.00" xlink:href="#hd"/>
<path d="M510.50 137.00v-21.00" class="stroke"/>
<path class="fill"
	d="M510.50 116.00c0.6 5.6 9.6 9 5.6 18.4
	1.6 -6 -1.3 -11.6 -5.6 -12.8
"/>
<defs>
<path id="HD" class="fill" d="m-2.7 -1.4
	c1.5 -2.8 6.9 0 5.3 2.7
	-1.5 2.8 -6.9 0 -5.3 -2.7
	m8.3 1.4
	c0 -1.5 -2.2 -3 -5.6 -3
	-3.4 0 -5.6 1.5 -5.6 3
	0 1.5 2.2 3 5.6 3
	3.4 0 5.6 -1.5 5.6 -3"/>
</defs>
<use x="543.60" y="134.00" xlink:href="#HD"/>
<use x="625.50" y="137.00" xlink:href="#HD"/>
</g>
<g stroke-width="0.70" style="font:13.00px Times">
<path class="stroke" stroke-width="1"
	d="M195.50 204.00v-24.00"/>
<path class="stroke" stroke-width="1"
	d="M353.80 204.00v-24.00"/>
<path class="stroke" stroke-width="1"
	d="M528.20 204.00v-24.00"/>
<path class="stroke" stroke-width="1"
	d="M691.60 204.00v-24.00"/>
<path d="m10.00 204.00
	h681.60
	M10.00 198.00
	h681.60
	M10.00 192.00
	h681.60
	M10.00 186.00
	h681.60
	M10.00 180.00
	h681.60
	" class="stroke"/>
<use x="22.00" y="198.00" xlink:href="#tclef"/>
<use x="37.00" y="180.00" xlink:href="#sh0"/>
<use x="42.50" y="189.00" xlink:href="#sh0"/>
<defs>
<path id="Hd" class="fill" d="m3 -1.6
	c-1 -1.8 -7 1.4 -6 3.2
	1 1.8 7 -1.4 6 -3.2
	m0.5 -0.3
	c2 3.8 -5 7.6 -7 3.8
	-2 -3.8 5 -7.6 7 -3.8"/>
</defs>
<use x="61.00" y="186.00" xlink:href="#Hd"/>
<path d="M57.50 186.00v21.00" class="stroke"/>
<use x="123.40" y="186.00" xlink:href="#hd"/>
<circle class="fill" cx="131.10" cy="183.00" r="1.2"/>
<path d="M119.90 186.00v21.00" class="stroke"/>
<use x="173.60" y="189.00" xlink:href="#hd"/>
<path d="M170.10 189.00v21.00" class="stroke"/>
<path class="fill"
	d="M170.10 210.00c0.6 -5.6 9.6 -9 5.6 -18.4
	1.6 6 -1.3 11.6 -5.6 12.8
"/>
<use x="211.10" y="192.00" xlink:href="#hd"/>
<circle class="fill" cx="218.80" cy="189.00" r="1.2"/>
<path d="M207.60 192.00v21.00" class="stroke"/>
<use x="256.30" y="195.00" xlink:href="#hd"/>
<path d="M259.80 195.00v-21.00" class="stroke"/>
<path class="fill"
	d="M259.80 174.00c0.6 5.6 9.6 9 5.6 18.4
	1.6 -6 -1.3 -11.6 -5.6 -12.8
"/>
<use x="287.50" y="192.00" xlink:href="#hd"/>
<path d="M291.00 192.00v-21.00" class="stroke"/>
<path class="fill"
	d="M291.00 171.00c0.6 5.6 9.6 9 5.6 18.4
	1.6 -6 -1.3 -11.6 -5.6 -12.8
"/>
<use x="318.70" y="186.00" xlink:href="#hd"/>
<circle class="fill" cx="326.40" cy="183.00" r="1.2"/>
<path d="M315.20 186.00v21.00" class="stroke"/>
<use x="369.40" y="195.00" xlink:href="#hd"/>
<path d="M372.90 195.00v-21.00" class="stroke"/>
<use x="413.50" y="201.00" xlink:href="#hd"/>
<path d="M417.00 201.00v-21.00" class="stroke"/>
<use x="457.60" y="186.00" xlink:href="#hd"/>
<path d="M454.10 186.00v21.00" class="stroke"/>
<use x="497.30" y="195.00" xlink:href="#hd"/>
<path d="M500.80 195.00v-21.00" class="stroke"/>
<use x="543.80" y="192.00" xlink:href="#hd"/>
<circle class="fill" cx="551.50" cy="189.00" r="1.2"/>
<path d="M547.30 192.00v-21.00" class="stroke"/>
<use x="594.00" y="204.00" xlink:href="#hd"/>
<path d="M597.50 204.00v-21.00" class="stroke"/>
<path class="fill"
	d="M597.50 183.00c0.6 5.6 9.6 9 5.6 18.4
	1.6 -6 -1.3 -11.6 -5.6 -12.8
"/>
<use x="625.20" y="201.00" xlink:href="#hd"/>
<path d="M628.70 201.00v-21.00" class="stroke"/>
<path class="fill"
	d="M628.70 180.00c0.6 5.6 9.6 9 5.6 18.4
	1.6 -6 -1.3 -11.6 -5.6 -12.8
"/>
<use x="656.50" y="204.00" xlink:href="#hd"/>
<circle class="fill" cx="664.20" cy="201.00" r="1.2"/>
<path d="M660.00 204.00v-21.00" class="stroke"/>
</g>
<g stroke-width="0.70" style="font:13.00px Times">
<path class="stroke" stroke-width="1"
	d="M216.10 274.00v-24.00"/>
<path class="stroke" stroke-width="1"
	d="M413.90 274.00v-24.00"/>
<path class="stroke" stroke-width="1"
	d="M602.40 274.00v-24.00"/>
<path class="stroke" stroke-width="1"
	d="M691.60 274.00v-24.00"/>
<path d="m10.00 274.00
	h681.60
	M10.00 268.00
	h681.60
	M10.00 262.00
	h681.60
	M10.00 256.00
	h681.60
	M10.00 250.00
	h681.60
	" class="stroke"/>
<use x="22.00" y="268.00" xlink:href="#tclef"/>
<use x="37.00" y="250.00" xlink:href="#sh0"/>
<use x="42.50" y="259.00" xlink:href="#sh0"/>
<use x="61.00" y="256.00" xlink:href="#Hd"/>
<path d="M57.50 256.00v21.00" class="stroke"/>
<use x="133.00" y="256.00" xlink:href="#hd"/>
<circle class="fill" cx="140.70" cy="253.00" r="1.2"/>
<path d="M129.50 256.00v21.00" class="stroke"/>
<use x="190.90" y="259.00" xlink:href="#hd"/>
<path d="M187.40 259.00v21.00" class="stroke"/>
<path class="fill"
	d="M187.40 280.00c0.6 -5.6 9.6 -9 5.6 -18.4
	1.6 6 -1.3 11.6 -5.6 12.8
"/>
<use x="234.10" y="262.00" xlink:href="#hd"/>
<path d="M230.60 262.00v21.00" class="stroke"/>
<use x="279.90" y="265.00" xlink:href="#hd"/>
<path d="M283.40 265.00v-21.00" class="stroke"/>
<use x="330.80" y="256.00" xlink:href="#hd"/>
<circle class="fill" cx="338.50" cy="253.00" r="1.2"/>
<path d="M327.30 256.00v21.00" class="stroke"/>
<use x="388.70" y="253.00" xlink:href="#hd"/>
<path d="M385.20 253.00v21.00" class="stroke"/>
<path class="fill"
	d="M385.20 274.00c0.6 -5.6 9.6 -9 5.6 -18.4
	1.6 6 -1.3 11.6 -5.6 12.8
"/>
<use x="431.90" y="250.00" xlink:href="#hd"/>
<circle class="fill" cx="439.60" cy="247.00" r="1.2"/>
<path d="M428.40 250.00v21.00" class="stroke"/>
<use x="489.80" y="253.00" xlink:href="#hd"/>
<path d="M486.30 253.00v21.00" class="stroke"/>
<path class="fill"
	d="M486.30 274.00c0.6 -5.6 9.6 -9 5.6 -18.4
	1.6 6 -1.3 11.6 -5.6 12.8
"/>
<use x="525.80" y="256.00" xlink:href="#hd"/>
<path d="M522.30 256.00v21.00" class="stroke"/>
<path class="fill"
	d="M522.30 277.00c0.6 -5.6 9.6 -9 5.6 -18.4
	1.6 6 -1.3 11.6 -5.6 12.8
"/>
<use x="561.80" y="259.00" xlink:href="#hd"/>
<circle class="fill" cx="569.50" cy="259.00" r="1.2"/>
<path d="M558.30 259.00v21.00" class="stroke"/>
<use x="621.40" y="256.00" xlink:href="#HD"/>
</g>
<g stroke-width="0.70" style="font:13.00px Times">
<path class="stroke" stroke-width="1"
	d="M197.10 344.00v-24.00"/>
<path class="stroke" stroke-width="1"
	d="M357.30 344.00v-24.00"/>
<path class="stroke" stroke-width="1"
	d="M526.30 344.00v-24.00"/>
<path class="stroke" stroke-width="1"
	d="M691.60 344.00v-24.00"/>
<path d="m10.00 344.00
	h681.60
	M10.00 338.00
	h681.60
	M10.00 332.00
	h681.60
	M10.00 326.00
	h681.60
	M10.00 320.00
	h681.60
	" class="stroke"/>
<use x="22.00" y="338.00" xlink:href="#tclef"/>
<use x="37.00" y="320.00" xlink:href="#sh0"/>
<use x="42.50" y="329.00" xlink:href="#sh0"/>
<use x="61.00" y="326.00" xlink:href="#Hd"/>
<path d="M57.50 326.00v21.00" class="stroke"/>
<use x="124.20" y="326.00" xlink:href="#hd"/>
<circle class="fill" cx="131.90" cy="323.00" r="1.2"/>
<path d="M120.70 326.00v21.00" class="stroke"/>
<use x="175.00" y="329.00" xlink:href="#hd"/>
<path d="M171.50 329.00v21.00" class="stroke"/>
<path class="fill"
	d="M171.50 350.00c0.6 -5.6 9.6 -9 5.6 -18.4
	1.6 6 -1.3 11.6 -5.6 12.8
"/>
<use x="212.90" y="332.00" xlink:href="#hd"/>
<circle class="fill" cx="220.60" cy="329.00" r="1.2"/>
<path d="M209.40 332.00v21.00" class="stroke"/>
<use x="258.60" y="335.00" xlink:href="#hd"/>
<path d="M262.10 335.00v-21.00" class="stroke"/>
<path class="fill"
	d="M262.10 314.00c0.6 5.6 9.6 9 5.6 18.4
	1.6 -6 -1.3 -11.6 -5.6 -12.8
"/>
<use x="290.20" y="332.00" xlink:href="#hd"/>
<path d="M293.70 332.00v-21.00" class="stroke"/>
<path class="fill"
	d="M293.70 311.00c0.6 5.6 9.6 9 5.6 18.4
	1.6 -6 -1.3 -11.6 -5.6 -12.8
"/>
<use x="321.70" y="323.00" xlink:href="#hd"/>
<circle class="fill" cx="329.40" cy="323.00" r="1.2"/>
<path d="M318.20 323.00v21.00" class="stroke"/>
<use x="373.10" y="326.00" xlink:href="#hd"/>
<path d="M369.60 326.00v21.00" class="stroke"/>
<path class="fill"
	d="M369.60 347.00c0.6 -5.6 9.6 -9 5.6 -18.4
	1.6 6 -1.3 11.6 -5.6 12.8
"/>
<use x="404.70" y="332.00" xlink:href="#hd"/>
<circle class="fill" cx="412.40" cy="329.00" r="1.2"/>
<path d="M401.20 332.00v21.00" class="stroke"/>
<use x="450.40" y="335.00" xlink:href="#hd"/>
<path d="M453.90 335.00v-21.00" class="stroke"/>
<use x="495.00" y="341.00" xlink:href="#hd"/>
<path d="M498.50 341.00v-21.00" class="stroke"/>
<use x="542.10" y="332.00" xlink:href="#hd"/>
<circle class="fill" cx="549.80" cy="329.00" r="1.2"/>
<path d="M545.60 332.00v-21.00" class="stroke"/>
<use x="592.90" y="344.00" xlink:href="#hd"/>
<path d="M596.40 344.00v-21.00" class="stroke"/>
<path class="fill"
	d="M596.40 323.00c0.6 5.6 9.6 9 5.6 18.4
	1.6 -6 -1.3 -11.6 -5.6 -12.8
"/>
<use x="624.50" y="341.00" xlink:href="#hd"/>
<path d="M628.00 341.00v-21.00" class="stroke"/>
<path class="fill"
	d="M628.00 320.00c0.6 5.6 9.6 9 5.6 18.4
	1.6 -6 -1.3 -11.6 -5.6 -12.8
"/>
<use x="656.00" y="344.00" xlink:href="#hd"/>
<circle class="fill" cx="663.70" cy="341.00" r="1.2"/>
<path d="M659.50 344.00v-21.00" class="stroke"/>
</g>
<g stroke-width="0.70" style="font:13.00px Times">
<path class="stroke" stroke-width="1"
	d="M231.40 414.00v-24.00"/>
<path class="stroke" stroke-width="1"
	d="M416.10 414.00v-24.00"/>
<path class="stroke" stroke-width="1"
	d="M597.40 414.00v-24.00"/>
<path class="stroke" stroke-width="3"
	d="M690.10 414.00v-24.00"/>
<path class="stroke" stroke-width="1"
	d="M685.60 414.00v-24.00"/>
<path d="m10.00 414.00
	h681.60
	M10.00 408.00
	h681.60
	M10.00 402.00
	h681.60
	M10.00 396.00
	h681.60
	M10.00 390.00
	h681.60
	" class="stroke"/>
<use x="22.00" y="408.00" xlink:href="#tclef"/>
<use x="37.00" y="390.00" xlink:href="#sh0"/>
<use x="42.50" y="399.00" xlink:href="#sh0"/>
<use x="60.50" y="417.00" xlink:href="#hd"/>
<circle class="fill" cx="68.20" cy="417.00" r="1.2"/>
<path d="M64.00 417.00v-21.00" class="stroke"/>
<use x="115.40" y="417.00" xlink:href="#hd"/>
<path d="M118.90 417.00v-21.00" class="stroke"/>
<path class="fill"
	d="M118.90 396.00c0.6 5.6 9.6 9 5.6 18.4
	1.6 -6 -1.3 -11.6 -5.6 -12.8
"/>
<use x="149.50" y="414.00" xlink:href="#hd"/>
<path d="M153.00 414.00v-21.00" class="stroke"/>
<use x="197.70" y="411.00" xlink:href="#hd"/>
<path d="M201.20 411.00v-21.00" class="stroke"/>
<use x="248.40" y="396.00" xlink:href="#hd"/>
<circle class="fill" cx="256.10" cy="393.00" r="1.2"/>
<path d="M244.90 396.00v21.00" class="stroke"/>
<use x="303.30" y="393.00" xlink:href="#hd"/>
<path d="M299.80 393.00v21.00" class="stroke"/>
<path class="fill"
	d="M299.80 414.00c0.6 -5.6 9.6 -9 5.6 -18.4
	1.6 6 -1.3 11.6 -5.6 12.8
"/>
<use x="337.40" y="390.00" xlink:href="#hd"/>
<circle class="fill" cx="345.10" cy="387.00" r="1.2"/>
<path d="M333.90 390.00v21.00" class="stroke"/>
<use x="392.30" y="393.00" xlink:href="#hd"/>
<path d="M388.80 393.00v21.00" class="stroke"/>
<path class="fill"
	d="M388.80 414.00c0.6 -5.6 9.6 -9 5.6 -18.4
	1.6 6 -1.3 11.6 -5.6 12.8
"/>
<use x="433.20" y="396.00" xlink:href="#hd"/>
<path d="M429.70 396.00v21.00" class="stroke"/>
<path class="fill"
	d="M429.70 417.00c0.6 -5.6 9.6 -9 5.6 -18.4
	1.6 6 -1.3 11.6 -5.6 12.8
"/>
<use x="463.90" y="411.00" xlink:href="#hd"/>
<circle class="fill" cx="471.60" cy="411.00" r="1.2"/>
<path d="M467.40 411.00v-21.00" class="stroke"/>
<use x="518.70" y="414.00" xlink:href="#hd"/>
<circle class="fill" cx="526.40" cy="411.00" r="1.2"/>
<path d="M522.20 414.00v-21.00" class="stroke"/>
<use x="573.60" y="417.00" xlink:href="#hd"/>
<path d="M577.10 417.00v-21.00" class="stroke"/>
<path class="fill"
	d="M577.10 396.00c0.6 5.6 9.6 9 5.6 18.4
	1.6 -6 -1.3 -11.6 -5.6 -12.8
"/>
<use x="615.50" y="417.00" xlink:href="#HD"/>
</g>
</svg>
