<?xml version="1.0" standalone="no"?>
<!DOCTYPE svg PUBLIC "-//W3C//DTD SVG 1.1//EN"
	"http://www.w3.org/Graphics/SVG/1.1/DTD/svg11.dtd">
<svg xmlns="http://www.w3.org/2000/svg" version="1.1"
	xmlns:xlink="http://www.w3.org/1999/xlink"
	color="black"
	width="701.60px" height="318.00px">
<style type="text/css">
.fill {fill: currentColor}
.stroke {stroke: currentColor; fill: none}
text{white-space: pre}
</style>
<title>/media/tim/Data1/tims_code/sphinx-tunes/source/_abcfiles/The Lakes of Po (1) tune 1</title>
<!-- Creator: abcm2ps-8.14.6 -->
<!-- CreationDate: Jul 30, 2023 12:21 -->
<!-- CommandLine: -g '/media/tim/Data1/tims_code/sphinx-tunes/source/_abcfiles/The Lakes of Ponchartrain.abc' -O '/media/tim/Data1/tims_code/sphinx-tunes/source/_abcfiles/The Lakes of Ponchartrain.svg' -->
<g stroke-width="0.70">
<!-- title: The Lakes Of Ponchartrain -->
</g>
<g stroke-width="0.70" style="font:20.00px Times">
<text x="350.80" y="22.00" text-anchor="middle">The Lakes Of Ponchartrain</text>
</g>
<g stroke-width="0.70" style="font:20.00px Times">
<defs>
<g id="rdots" class="fill">
	<circle cx="0" cy="-9" r="1.2"/>
	<circle cx="0" cy="-15" r="1.2"/>
</g>
</defs>
<use x="81.50" y="85.00" xlink:href="#rdots"/>
<path class="stroke" stroke-width="1"
	d="M77.50 85.00v-24.00"/>
<path class="stroke" stroke-width="3"
	d="M73.00 85.00v-24.00"/>
<path class="stroke" stroke-width="1"
	d="M114.80 85.00v-24.00"/>
<path class="stroke" stroke-width="1"
	d="M185.90 85.00v-24.00"/>
<path class="stroke" stroke-width="1"
	d="M269.10 85.00v-24.00"/>
<path class="stroke" stroke-width="1"
	d="M353.40 85.00v-24.00"/>
<path class="stroke" stroke-width="1"
	d="M420.50 85.00v-24.00"/>
<path class="stroke" stroke-width="1"
	d="M504.70 85.00v-24.00"/>
<path class="stroke" stroke-width="1"
	d="M575.50 85.00v-24.00"/>
<path class="stroke" stroke-width="1"
	d="M620.50 85.00v-24.00"/>
<path class="stroke" stroke-width="1"
	d="M691.60 85.00v-24.00"/>
<path d="m10.00 85.00
	h681.60
	M10.00 79.00
	h681.60
	M10.00 73.00
	h681.60
	M10.00 67.00
	h681.60
	M10.00 61.00
	h681.60
	" class="stroke"/>
<path class="fill"
	d="M588.50 85.00c6.99 4.21 38.01 4.21 45.00 -0.00
	v0.24c-8.34 5.96 -36.66 5.96 -45.00 -0.24"/>
<defs>
<path id="utclef" class="fill" d="m-50 -90
	c-72 -41 -72 -158 52 -188
	150 -10 220 188 90 256
	-114 52 -275 0 -293 -136
	-15 -181 93 -229 220 -334
	88 -87 79 -133 62 -210
	-51 33 -94 105 -89 186
	17 267 36 374 49 574
	6 96 -19 134 -77 135
	-80 1 -126 -93 -61 -133
	85 -41 133 101 31 105
	23 17 92 37 90 -92
	-10 -223 -39 -342 -50 -617
	0 -90 0 -162 96 -232
	56 72 63 230 22 289
	-74 106 -257 168 -255 316
	9 153 148 185 252 133
	86 -65 29 -192 -80 -176
	-71 12 -105 67 -59 124"/>
<use id="tclef" transform="translate(0,6) scale(0.045)"
	xlink:href="#utclef"/>
</defs>
<use x="22.00" y="79.00" xlink:href="#tclef"/>
<defs>
<path id="usharp" class="fill" d="
	m136 -702
	v890
	h32
	v-890
	m128 840
	h32
	v-888
	h-32
	m-232 286
	v116
	l338 -96
	v-116
	m-338 442
	v116
	l338 -98
	v-114"/>
<use id="sh0" transform="translate(-4,5) scale(0.018)"
	xlink:href="#usharp"/>
</defs>
<use x="37.00" y="61.00" xlink:href="#sh0"/>
<g style="font:bold 16px serif"
	transform="translate(53.00,84.50) scale(1.2,1)">
	<text text-anchor="middle">4</text>
	<text y="-12" text-anchor="middle">3</text>
</g>
<defs>
<ellipse id="hd" rx="4.1" ry="2.9"
	transform="rotate(-20)" class="fill"/>
</defs>
<use x="95.00" y="88.00" xlink:href="#hd"/>
<path d="M98.50 88.00v-21.00" class="stroke"/>
<defs>
<path id="Hd" class="fill" d="m3 -1.6
	c-1 -1.8 -7 1.4 -6 3.2
	1 1.8 7 -1.4 6 -3.2
	m0.5 -0.3
	c2 3.8 -5 7.6 -7 3.8
	-2 -3.8 5 -7.6 7 -3.8"/>
</defs>
<use x="127.80" y="79.00" xlink:href="#Hd"/>
<path d="M131.30 79.00v-21.00" class="stroke"/>
<use x="166.10" y="64.00" xlink:href="#hd"/>
<path d="M162.60 64.00v21.00" class="stroke"/>
<use x="198.90" y="67.00" xlink:href="#Hd"/>
<path d="M195.40 67.00v21.00" class="stroke"/>
<path class="fill"
	d="M233.10 85.30l18.40 2.30v-3.20l-18.40 -2.30"/>
<use x="236.90" y="64.00" xlink:href="#hd"/>
<path d="M233.40 64.00v20.40" class="stroke"/>
<use x="254.60" y="67.00" xlink:href="#hd"/>
<path d="M251.10 67.00v19.60" class="stroke"/>
<use x="281.60" y="73.00" xlink:href="#hd"/>
<path d="M278.10 73.00v21.00" class="stroke"/>
<use x="306.20" y="76.00" xlink:href="#hd"/>
<path d="M309.70 76.00v-21.00" class="stroke"/>
<use x="333.60" y="67.00" xlink:href="#hd"/>
<path d="M330.10 67.00v21.00" class="stroke"/>
<use x="366.40" y="73.00" xlink:href="#Hd"/>
<path d="M362.90 73.00v21.00" class="stroke"/>
<use x="400.70" y="76.00" xlink:href="#hd"/>
<path d="M404.20 76.00v-21.00" class="stroke"/>
<use x="433.00" y="79.00" xlink:href="#hd"/>
<path d="M436.50 79.00v-21.00" class="stroke"/>
<path class="fill"
	d="M436.50 58.00c0.6 5.6 9.6 9 5.6 18.4
	1.6 -6 -1.3 -11.6 -5.6 -12.8
"/>
<use x="453.20" y="85.00" xlink:href="#hd"/>
<circle class="fill" cx="460.90" cy="82.00" r="1.2"/>
<path d="M456.70 85.00v-21.00" class="stroke"/>
<use x="484.90" y="82.00" xlink:href="#hd"/>
<path d="M488.40 82.00v-21.00" class="stroke"/>
<use x="517.70" y="79.00" xlink:href="#Hd"/>
<path d="M521.20 79.00v-21.00" class="stroke"/>
<use x="555.70" y="79.00" xlink:href="#hd"/>
<path d="M559.20 79.00v-21.00" class="stroke"/>
<use x="588.50" y="79.00" xlink:href="#Hd"/>
<circle class="fill" cx="597.20" cy="76.00" r="1.2"/>
<path d="M592.00 79.00v-21.00" class="stroke"/>
<use x="633.50" y="79.00" xlink:href="#Hd"/>
<path d="M637.00 79.00v-21.00" class="stroke"/>
<use x="671.80" y="67.00" xlink:href="#hd"/>
<path d="M668.30 67.00v21.00" class="stroke"/>
</g>
<g stroke-width="0.70" style="font:20.00px Times">
<path class="stroke" stroke-width="1"
	d="M121.30 155.00v-24.00"/>
<path class="stroke" stroke-width="1"
	d="M217.80 155.00v-24.00"/>
<path class="stroke" stroke-width="1"
	d="M296.60 155.00v-24.00"/>
<path class="stroke" stroke-width="1"
	d="M393.20 155.00v-24.00"/>
<path class="stroke" stroke-width="1"
	d="M467.60 155.00v-24.00"/>
<path class="stroke" stroke-width="1"
	d="M564.30 155.00v-24.00"/>
<path class="stroke" stroke-width="1"
	d="M612.80 155.00v-24.00"/>
<path class="stroke" stroke-width="1"
	d="M691.60 155.00v-24.00"/>
<path d="m10.00 155.00
	h681.60
	M10.00 149.00
	h681.60
	M10.00 143.00
	h681.60
	M10.00 137.00
	h681.60
	M10.00 131.00
	h681.60
	" class="stroke"/>
<path class="fill"
	d="M577.30 128.00c7.46 -4.25 41.06 -4.25 48.52 -0.00
	v-0.25c-8.91 -6.01 -39.61 -6.01 -48.52 0.25"/>
<use x="22.00" y="149.00" xlink:href="#tclef"/>
<use x="37.00" y="131.00" xlink:href="#sh0"/>
<use x="55.50" y="137.00" xlink:href="#Hd"/>
<path d="M52.00 137.00v21.00" class="stroke"/>
<use x="99.20" y="143.00" xlink:href="#hd"/>
<path d="M95.70 143.00v21.00" class="stroke"/>
<use x="133.80" y="137.00" xlink:href="#hd"/>
<path d="M130.30 137.00v21.00" class="stroke"/>
<use x="164.80" y="134.00" xlink:href="#hd"/>
<path d="M161.30 134.00v21.00" class="stroke"/>
<use x="195.80" y="131.00" xlink:href="#hd"/>
<path d="M192.30 131.00v21.00" class="stroke"/>
<use x="230.80" y="128.00" xlink:href="#Hd"/>
<path d="M227.30 128.00v21.00" class="stroke"/>
<use x="274.60" y="128.00" xlink:href="#hd"/>
<path d="M271.10 128.00v21.00" class="stroke"/>
<use x="309.10" y="131.00" xlink:href="#hd"/>
<path d="M305.60 131.00v21.00" class="stroke"/>
<use x="340.10" y="134.00" xlink:href="#hd"/>
<path d="M336.60 134.00v21.00" class="stroke"/>
<use x="371.10" y="137.00" xlink:href="#hd"/>
<path d="M367.60 137.00v21.00" class="stroke"/>
<use x="406.20" y="143.00" xlink:href="#Hd"/>
<path d="M402.70 143.00v21.00" class="stroke"/>
<use x="445.60" y="146.00" xlink:href="#hd"/>
<path d="M449.10 146.00v-21.00" class="stroke"/>
<use x="480.10" y="143.00" xlink:href="#hd"/>
<path d="M483.60 143.00v-21.00" class="stroke"/>
<use x="511.30" y="140.00" xlink:href="#hd"/>
<path d="M507.80 140.00v21.00" class="stroke"/>
<use x="542.30" y="137.00" xlink:href="#hd"/>
<path d="M538.80 137.00v21.00" class="stroke"/>
<use x="577.30" y="134.00" xlink:href="#Hd"/>
<circle class="fill" cx="586.00" cy="134.00" r="1.2"/>
<path d="M573.80 134.00v21.00" class="stroke"/>
<use x="625.80" y="134.00" xlink:href="#Hd"/>
<path d="M622.30 134.00v21.00" class="stroke"/>
<use x="669.60" y="134.00" xlink:href="#hd"/>
<path d="M666.10 134.00v21.00" class="stroke"/>
</g>
<g stroke-width="0.70" style="font:20.00px Times">
<path class="stroke" stroke-width="1"
	d="M121.80 225.00v-24.00"/>
<path class="stroke" stroke-width="1"
	d="M219.00 225.00v-24.00"/>
<path class="stroke" stroke-width="1"
	d="M298.30 225.00v-24.00"/>
<path class="stroke" stroke-width="1"
	d="M395.60 225.00v-24.00"/>
<path class="stroke" stroke-width="1"
	d="M470.50 225.00v-24.00"/>
<path class="stroke" stroke-width="1"
	d="M567.90 225.00v-24.00"/>
<path class="stroke" stroke-width="1"
	d="M616.70 225.00v-24.00"/>
<path class="stroke" stroke-width="1"
	d="M691.60 225.00v-24.00"/>
<path d="m10.00 225.00
	h681.60
	M10.00 219.00
	h681.60
	M10.00 213.00
	h681.60
	M10.00 207.00
	h681.60
	M10.00 201.00
	h681.60
	" class="stroke"/>
<path class="fill"
	d="M580.90 198.00c7.49 -4.26 41.29 -4.26 48.78 -0.00
	v-0.25c-8.95 -6.01 -39.83 -6.01 -48.78 0.25"/>
<use x="22.00" y="219.00" xlink:href="#tclef"/>
<use x="37.00" y="201.00" xlink:href="#sh0"/>
<use x="55.50" y="207.00" xlink:href="#Hd"/>
<path d="M52.00 207.00v21.00" class="stroke"/>
<use x="99.60" y="213.00" xlink:href="#hd"/>
<path d="M96.10 213.00v21.00" class="stroke"/>
<use x="134.30" y="207.00" xlink:href="#hd"/>
<path d="M130.80 207.00v21.00" class="stroke"/>
<use x="165.60" y="204.00" xlink:href="#hd"/>
<path d="M162.10 204.00v21.00" class="stroke"/>
<use x="196.80" y="201.00" xlink:href="#hd"/>
<path d="M193.30 201.00v21.00" class="stroke"/>
<use x="232.00" y="198.00" xlink:href="#Hd"/>
<path d="M228.50 198.00v21.00" class="stroke"/>
<use x="276.10" y="198.00" xlink:href="#hd"/>
<path d="M272.60 198.00v21.00" class="stroke"/>
<use x="310.80" y="201.00" xlink:href="#hd"/>
<path d="M307.30 201.00v21.00" class="stroke"/>
<use x="342.10" y="204.00" xlink:href="#hd"/>
<path d="M338.60 204.00v21.00" class="stroke"/>
<use x="373.40" y="207.00" xlink:href="#hd"/>
<path d="M369.90 207.00v21.00" class="stroke"/>
<use x="408.60" y="213.00" xlink:href="#Hd"/>
<path d="M405.10 213.00v21.00" class="stroke"/>
<use x="448.30" y="216.00" xlink:href="#hd"/>
<path d="M451.80 216.00v-21.00" class="stroke"/>
<use x="483.00" y="213.00" xlink:href="#hd"/>
<path d="M486.50 213.00v-21.00" class="stroke"/>
<use x="514.40" y="210.00" xlink:href="#hd"/>
<path d="M510.90 210.00v21.00" class="stroke"/>
<use x="545.70" y="207.00" xlink:href="#hd"/>
<path d="M542.20 207.00v21.00" class="stroke"/>
<use x="580.90" y="204.00" xlink:href="#Hd"/>
<circle class="fill" cx="589.60" cy="204.00" r="1.2"/>
<path d="M577.40 204.00v21.00" class="stroke"/>
<use x="629.70" y="204.00" xlink:href="#Hd"/>
<path d="M626.20 204.00v21.00" class="stroke"/>
<use x="669.40" y="219.00" xlink:href="#hd"/>
<path d="M672.90 219.00v-21.00" class="stroke"/>
</g>
<g stroke-width="0.70" style="font:20.00px Times">
<path class="stroke" stroke-width="1"
	d="M126.90 295.00v-24.00"/>
<path class="stroke" stroke-width="1"
	d="M225.90 295.00v-24.00"/>
<path class="stroke" stroke-width="1"
	d="M326.20 295.00v-24.00"/>
<path class="stroke" stroke-width="1"
	d="M405.80 295.00v-24.00"/>
<path class="stroke" stroke-width="1"
	d="M504.60 295.00v-24.00"/>
<path class="stroke" stroke-width="1"
	d="M588.90 295.00v-24.00"/>
<path class="stroke" stroke-width="1"
	d="M640.10 295.00v-24.00"/>
<path class="stroke" stroke-width="3"
	d="M690.10 295.00v-24.00"/>
<path class="stroke" stroke-width="1"
	d="M685.60 295.00v-24.00"/>
<use x="681.60" y="295.00" xlink:href="#rdots"/>
<path d="m10.00 295.00
	h681.60
	M10.00 289.00
	h681.60
	M10.00 283.00
	h681.60
	M10.00 277.00
	h681.60
	M10.00 271.00
	h681.60
	" class="stroke"/>
<path class="fill"
	d="M601.90 295.00c7.82 4.29 43.47 4.29 51.28 -0.00
	v0.25c-9.36 6.04 -41.93 6.04 -51.28 -0.25"/>
<use x="22.00" y="289.00" xlink:href="#tclef"/>
<use x="37.00" y="271.00" xlink:href="#sh0"/>
<use x="55.50" y="289.00" xlink:href="#Hd"/>
<path d="M59.00 289.00v-21.00" class="stroke"/>
<use x="103.10" y="274.00" xlink:href="#hd"/>
<path d="M99.60 274.00v21.00" class="stroke"/>
<use x="139.90" y="277.00" xlink:href="#Hd"/>
<path d="M136.40 277.00v21.00" class="stroke"/>
<path class="fill"
	d="M183.60 295.30l22.20 2.40v-3.20l-22.20 -2.40"/>
<use x="187.40" y="274.00" xlink:href="#hd"/>
<path d="M183.90 274.00v20.30" class="stroke"/>
<use x="208.90" y="277.00" xlink:href="#hd"/>
<path d="M205.40 277.00v19.70" class="stroke"/>
<use x="238.40" y="283.00" xlink:href="#hd"/>
<path d="M234.90 283.00v21.00" class="stroke"/>
<use x="268.70" y="286.00" xlink:href="#hd"/>
<path d="M272.20 286.00v-21.00" class="stroke"/>
<use x="302.40" y="277.00" xlink:href="#hd"/>
<path d="M298.90 277.00v21.00" class="stroke"/>
<use x="339.20" y="283.00" xlink:href="#Hd"/>
<path d="M335.70 283.00v21.00" class="stroke"/>
<use x="382.00" y="286.00" xlink:href="#hd"/>
<path d="M385.50 286.00v-21.00" class="stroke"/>
<use x="418.30" y="289.00" xlink:href="#hd"/>
<path d="M421.80 289.00v-21.00" class="stroke"/>
<path class="fill"
	d="M421.80 268.00c0.6 5.6 9.6 9 5.6 18.4
	1.6 -6 -1.3 -11.6 -5.6 -12.8
"/>
<use x="442.30" y="295.00" xlink:href="#hd"/>
<circle class="fill" cx="450.00" cy="292.00" r="1.2"/>
<path d="M445.80 295.00v-21.00" class="stroke"/>
<use x="480.80" y="292.00" xlink:href="#hd"/>
<path d="M484.30 292.00v-21.00" class="stroke"/>
<use x="517.60" y="289.00" xlink:href="#Hd"/>
<path d="M521.10 289.00v-21.00" class="stroke"/>
<use x="565.10" y="289.00" xlink:href="#hd"/>
<path d="M568.60 289.00v-21.00" class="stroke"/>
<use x="601.90" y="289.00" xlink:href="#Hd"/>
<circle class="fill" cx="610.60" cy="286.00" r="1.2"/>
<path d="M605.40 289.00v-21.00" class="stroke"/>
<use x="653.10" y="289.00" xlink:href="#Hd"/>
<path d="M656.60 289.00v-21.00" class="stroke"/>
</g>
</svg>
