<?xml version="1.0" standalone="no"?>
<!DOCTYPE svg PUBLIC "-//W3C//DTD SVG 1.1//EN"
	"http://www.w3.org/Graphics/SVG/1.1/DTD/svg11.dtd">
<svg xmlns="http://www.w3.org/2000/svg" version="1.1"
	xmlns:xlink="http://www.w3.org/1999/xlink"
	color="black"
	width="828.44px" height="459.00px">
<style type="text/css">
.fill {fill: currentColor}
.stroke {stroke: currentColor; fill: none}
text{white-space: pre}
</style>
<title>/media/tim/Data1/tims_code/sphinx-tunes/source/_abcfiles/the_road_to_the (1) tune 1</title>
<!-- Creator: abcm2ps-8.14.6 -->
<!-- CreationDate: Jul 30, 2023 12:21 -->
<!-- CommandLine: -g /media/tim/Data1/tims_code/sphinx-tunes/source/_abcfiles/the_road_to_the_north.abc -O /media/tim/Data1/tims_code/sphinx-tunes/source/_abcfiles/the_road_to_the_north.svg -->
<g stroke-width="0.70">
<!-- title: The Road To The North -->
</g>
<g stroke-width="0.70" style="font:20.00px Times">
<text x="414.20" y="22.00" text-anchor="middle">The Road To The North</text>
</g>
<g stroke-width="0.70" style="font:20.00px Times">
<path class="stroke" stroke-width="1"
	d="M124.50 85.00v-24.00"/>
<path class="stroke" stroke-width="1"
	d="M326.40 85.00v-24.00"/>
<path class="stroke" stroke-width="1"
	d="M450.80 85.00v-24.00"/>
<path class="stroke" stroke-width="1"
	d="M632.40 85.00v-24.00"/>
<path class="stroke" stroke-width="1"
	d="M818.40 85.00v-24.00"/>
<path d="m10.00 85.00
	h808.40
	M10.00 79.00
	h808.40
	M10.00 73.00
	h808.40
	M10.00 67.00
	h808.40
	M10.00 61.00
	h808.40
	" class="stroke"/>
<defs>
<path id="utclef" class="fill" d="m-50 -90
	c-72 -41 -72 -158 52 -188
	150 -10 220 188 90 256
	-114 52 -275 0 -293 -136
	-15 -181 93 -229 220 -334
	88 -87 79 -133 62 -210
	-51 33 -94 105 -89 186
	17 267 36 374 49 574
	6 96 -19 134 -77 135
	-80 1 -126 -93 -61 -133
	85 -41 133 101 31 105
	23 17 92 37 90 -92
	-10 -223 -39 -342 -50 -617
	0 -90 0 -162 96 -232
	56 72 63 230 22 289
	-74 106 -257 168 -255 316
	9 153 148 185 252 133
	86 -65 29 -192 -80 -176
	-71 12 -105 67 -59 124"/>
<use id="tclef" transform="translate(0,6) scale(0.045)"
	xlink:href="#utclef"/>
</defs>
<use x="22.00" y="79.00" xlink:href="#tclef"/>
<defs>
<path id="usharp" class="fill" d="
	m136 -702
	v890
	h32
	v-890
	m128 840
	h32
	v-888
	h-32
	m-232 286
	v116
	l338 -96
	v-116
	m-338 442
	v116
	l338 -98
	v-114"/>
<use id="sh0" transform="translate(-4,5) scale(0.018)"
	xlink:href="#usharp"/>
</defs>
<use x="37.00" y="61.00" xlink:href="#sh0"/>
<use x="42.50" y="70.00" xlink:href="#sh0"/>
<g style="font:bold 16px serif"
	transform="translate(58.50,84.50) scale(1.2,1)">
	<text text-anchor="middle">4</text>
	<text y="-12" text-anchor="middle">4</text>
</g>
<path class="fill"
	d="M72.70 76.20l27.70 2.50v-3.20l-27.70 -2.50"/>
<defs>
<path id="hl" class="stroke" d="m-6 0h12"/>
</defs>
<use x="76.50" y="55.00" xlink:href="#hl"/>
<defs>
<ellipse id="hd" rx="4.1" ry="2.9"
	transform="rotate(-20)" class="fill"/>
</defs>
<use x="76.50" y="55.00" xlink:href="#hd"/>
<path d="M73.00 55.00v20.30" class="stroke"/>
<use x="103.50" y="58.00" xlink:href="#hd"/>
<path d="M100.00 58.00v19.70" class="stroke"/>
<use x="139.50" y="61.00" xlink:href="#hd"/>
<path d="M136.00 61.00v21.00" class="stroke"/>
<use x="181.90" y="67.00" xlink:href="#hd"/>
<path d="M178.40 67.00v21.00" class="stroke"/>
<path class="fill"
	d="M220.50 88.00l81.70 0.00v-3.20l-81.70 -0.00"/>
<use x="224.30" y="70.00" xlink:href="#hd"/>
<path d="M220.80 70.00v17.00" class="stroke"/>
<use x="251.30" y="67.00" xlink:href="#hd"/>
<path d="M247.80 67.00v20.00" class="stroke"/>
<use x="278.30" y="64.00" xlink:href="#hd"/>
<path d="M274.80 64.00v23.00" class="stroke"/>
<use x="305.30" y="70.00" xlink:href="#hd"/>
<path d="M301.80 70.00v17.00" class="stroke"/>
<defs>
<path id="Hd" class="fill" d="m3 -1.6
	c-1 -1.8 -7 1.4 -6 3.2
	1 1.8 7 -1.4 6 -3.2
	m0.5 -0.3
	c2 3.8 -5 7.6 -7 3.8
	-2 -3.8 5 -7.6 7 -3.8"/>
</defs>
<use x="341.40" y="67.00" xlink:href="#Hd"/>
<circle class="fill" cx="350.10" cy="64.00" r="1.2"/>
<path d="M337.90 67.00v21.00" class="stroke"/>
<path class="fill"
	d="M406.00 54.80l27.70 -2.50v3.20l-27.70 2.50"/>
<use x="402.80" y="76.00" xlink:href="#hd"/>
<path d="M406.30 76.00v-20.30" class="stroke"/>
<use x="429.80" y="73.00" xlink:href="#hd"/>
<path d="M433.30 73.00v-19.70" class="stroke"/>
<use x="470.40" y="70.00" xlink:href="#Hd"/>
<defs>
<path id="unat" class="fill" d="
	m96 -750
	h-32
	v716
	l32 -8
	182 -54
	v282
	h32
	v-706
	l-34 10
	-180 50
	v-290
	m0 592
	v-190
	l182 -52
	v188"/>
<use id="nt0" transform="translate(-3,5) scale(0.018)"
	xlink:href="#unat"/>
</defs>
<use x="460.40" y="70.00" xlink:href="#nt0"/>
<path d="M466.90 70.00v21.00" class="stroke"/>
<path class="fill"
	d="M526.60 92.20l81.70 0.00v-3.20l-81.70 -0.00"/>
<use x="530.40" y="70.00" xlink:href="#hd"/>
<path d="M526.90 70.00v21.20" class="stroke"/>
<use x="557.40" y="73.00" xlink:href="#hd"/>
<path d="M553.90 73.00v18.20" class="stroke"/>
<use x="584.40" y="70.00" xlink:href="#hd"/>
<path d="M580.90 70.00v21.20" class="stroke"/>
<use x="611.40" y="67.00" xlink:href="#hd"/>
<path d="M607.90 67.00v24.20" class="stroke"/>
<use x="647.40" y="73.00" xlink:href="#hd"/>
<path d="M643.90 73.00v21.00" class="stroke"/>
<use x="685.60" y="79.00" xlink:href="#hd"/>
<path d="M689.10 79.00v-21.00" class="stroke"/>
<use x="728.00" y="76.00" xlink:href="#hd"/>
<path d="M731.50 76.00v-21.00" class="stroke"/>
<path class="fill"
	d="M766.60 76.20l27.70 2.50v-3.20l-27.70 -2.50"/>
<use x="770.40" y="55.00" xlink:href="#hl"/>
<use x="770.40" y="55.00" xlink:href="#hd"/>
<path d="M766.90 55.00v20.30" class="stroke"/>
<use x="797.40" y="58.00" xlink:href="#hd"/>
<path d="M793.90 58.00v19.70" class="stroke"/>
</g>
<g stroke-width="0.70" style="font:20.00px Times">
<path class="stroke" stroke-width="1"
	d="M253.90 155.00v-24.00"/>
<path class="stroke" stroke-width="1"
	d="M458.50 155.00v-24.00"/>
<path class="stroke" stroke-width="1"
	d="M682.50 155.00v-24.00"/>
<path class="stroke" stroke-width="1"
	d="M818.40 155.00v-24.00"/>
<path d="m10.00 155.00
	h808.40
	M10.00 149.00
	h808.40
	M10.00 143.00
	h808.40
	M10.00 137.00
	h808.40
	M10.00 131.00
	h808.40
	" class="stroke"/>
<use x="22.00" y="149.00" xlink:href="#tclef"/>
<use x="37.00" y="131.00" xlink:href="#sh0"/>
<use x="42.50" y="140.00" xlink:href="#sh0"/>
<use x="60.50" y="131.00" xlink:href="#hd"/>
<path d="M57.00 131.00v21.00" class="stroke"/>
<use x="104.40" y="137.00" xlink:href="#hd"/>
<path d="M100.90 137.00v21.00" class="stroke"/>
<path class="fill"
	d="M144.50 158.00l84.50 0.00v-3.20l-84.50 -0.00"/>
<use x="148.30" y="140.00" xlink:href="#hd"/>
<path d="M144.80 140.00v17.00" class="stroke"/>
<use x="176.30" y="137.00" xlink:href="#hd"/>
<path d="M172.80 137.00v20.00" class="stroke"/>
<use x="204.20" y="134.00" xlink:href="#hd"/>
<path d="M200.70 134.00v23.00" class="stroke"/>
<use x="232.20" y="140.00" xlink:href="#hd"/>
<path d="M228.70 140.00v17.00" class="stroke"/>
<use x="269.40" y="137.00" xlink:href="#hd"/>
<path d="M265.90 137.00v21.00" class="stroke"/>
<use x="309.00" y="146.00" xlink:href="#hd"/>
<path d="M312.50 146.00v-21.00" class="stroke"/>
<path class="fill"
	d="M356.00 128.00l84.50 0.00v3.20l-84.50 -0.00"/>
<use x="352.90" y="152.00" xlink:href="#hd"/>
<path d="M356.40 152.00v-23.00" class="stroke"/>
<use x="380.80" y="149.00" xlink:href="#hd"/>
<path d="M384.30 149.00v-20.00" class="stroke"/>
<use x="408.80" y="146.00" xlink:href="#hd"/>
<path d="M412.30 146.00v-17.00" class="stroke"/>
<use x="436.70" y="152.00" xlink:href="#hd"/>
<path d="M440.20 152.00v-23.00" class="stroke"/>
<path class="fill"
	d="M470.20 175.20l84.50 -10.00v-3.20l-84.50 10.00"/>
<use x="474.00" y="158.00" xlink:href="#hd"/>
<path d="M470.50 158.00v16.20" class="stroke"/>
<use x="502.00" y="125.00" xlink:href="#hl"/>
<use x="502.00" y="125.00" xlink:href="#hd"/>
<path d="M498.50 125.00v45.90" class="stroke"/>
<use x="529.90" y="128.00" xlink:href="#hd"/>
<path d="M526.40 128.00v39.60" class="stroke"/>
<use x="557.90" y="131.00" xlink:href="#hd"/>
<path d="M554.40 131.00v33.30" class="stroke"/>
<use x="588.90" y="134.00" xlink:href="#hd"/>
<path d="M585.40 134.00v21.00" class="stroke"/>
<path class="fill"
	d="M629.00 158.20l28.60 2.50v-3.20l-28.60 -2.50"/>
<use x="632.80" y="137.00" xlink:href="#hd"/>
<path d="M629.30 137.00v20.30" class="stroke"/>
<use x="660.80" y="140.00" xlink:href="#hd"/>
<path d="M657.30 140.00v19.70" class="stroke"/>
<use x="698.10" y="137.00" xlink:href="#Hd"/>
<circle class="fill" cx="706.80" cy="134.00" r="1.2"/>
<path d="M694.60 137.00v21.00" class="stroke"/>
<path class="fill"
	d="M764.90 146.20l28.60 2.50v-3.20l-28.60 -2.50"/>
<use x="768.70" y="125.00" xlink:href="#hl"/>
<use x="768.70" y="125.00" xlink:href="#hd"/>
<path d="M765.20 125.00v20.30" class="stroke"/>
<use x="796.70" y="128.00" xlink:href="#hd"/>
<path d="M793.20 128.00v19.70" class="stroke"/>
</g>
<g stroke-width="0.70" style="font:20.00px Times">
<path class="stroke" stroke-width="1"
	d="M269.70 226.00v-24.00"/>
<path class="stroke" stroke-width="1"
	d="M409.00 226.00v-24.00"/>
<path class="stroke" stroke-width="1"
	d="M610.20 226.00v-24.00"/>
<path class="stroke" stroke-width="1"
	d="M818.40 226.00v-24.00"/>
<path d="m10.00 226.00
	h808.40
	M10.00 220.00
	h808.40
	M10.00 214.00
	h808.40
	M10.00 208.00
	h808.40
	M10.00 202.00
	h808.40
	" class="stroke"/>
<use x="22.00" y="220.00" xlink:href="#tclef"/>
<use x="37.00" y="202.00" xlink:href="#sh0"/>
<use x="42.50" y="211.00" xlink:href="#sh0"/>
<use x="60.50" y="202.00" xlink:href="#hd"/>
<path d="M57.00 202.00v21.00" class="stroke"/>
<use x="108.00" y="208.00" xlink:href="#hd"/>
<path d="M104.50 208.00v21.00" class="stroke"/>
<path class="fill"
	d="M151.60 229.00l91.40 0.00v-3.20l-91.40 -0.00"/>
<use x="155.50" y="211.00" xlink:href="#hd"/>
<path d="M152.00 211.00v17.00" class="stroke"/>
<use x="185.70" y="208.00" xlink:href="#hd"/>
<path d="M182.20 208.00v20.00" class="stroke"/>
<use x="215.90" y="205.00" xlink:href="#hd"/>
<path d="M212.40 205.00v23.00" class="stroke"/>
<use x="246.20" y="211.00" xlink:href="#hd"/>
<path d="M242.70 211.00v17.00" class="stroke"/>
<use x="286.50" y="208.00" xlink:href="#Hd"/>
<circle class="fill" cx="295.20" cy="205.00" r="1.2"/>
<path d="M283.00 208.00v21.00" class="stroke"/>
<path class="fill"
	d="M358.40 195.80l30.90 -2.60v3.20l-30.90 2.60"/>
<use x="355.30" y="217.00" xlink:href="#hd"/>
<path d="M358.80 217.00v-20.20" class="stroke"/>
<use x="385.50" y="214.00" xlink:href="#hd"/>
<path d="M389.00 214.00v-19.80" class="stroke"/>
<use x="428.80" y="211.00" xlink:href="#Hd"/>
<use x="418.80" y="211.00" xlink:href="#nt0"/>
<path d="M425.30 211.00v21.00" class="stroke"/>
<path class="fill"
	d="M492.10 233.20l91.40 0.00v-3.20l-91.40 -0.00"/>
<use x="496.00" y="211.00" xlink:href="#hd"/>
<path d="M492.50 211.00v21.20" class="stroke"/>
<use x="526.20" y="214.00" xlink:href="#hd"/>
<path d="M522.70 214.00v18.20" class="stroke"/>
<use x="556.40" y="211.00" xlink:href="#hd"/>
<path d="M552.90 211.00v21.20" class="stroke"/>
<use x="586.70" y="208.00" xlink:href="#hd"/>
<path d="M583.20 208.00v24.20" class="stroke"/>
<use x="627.00" y="214.00" xlink:href="#hd"/>
<path d="M623.50 214.00v21.00" class="stroke"/>
<use x="669.70" y="220.00" xlink:href="#hd"/>
<path d="M673.20 220.00v-21.00" class="stroke"/>
<use x="717.20" y="217.00" xlink:href="#hd"/>
<path d="M720.70 217.00v-21.00" class="stroke"/>
<path class="fill"
	d="M767.90 201.80l30.90 -2.60v3.20l-30.90 2.60"/>
<use x="764.70" y="223.00" xlink:href="#hd"/>
<path d="M768.20 223.00v-20.20" class="stroke"/>
<use x="794.90" y="220.00" xlink:href="#hd"/>
<path d="M798.40 220.00v-19.80" class="stroke"/>
</g>
<g stroke-width="0.70" style="font:20.00px Times">
<path class="stroke" stroke-width="1"
	d="M291.20 296.00v-24.00"/>
<path class="stroke" stroke-width="1"
	d="M457.00 296.00v-24.00"/>
<path class="stroke" stroke-width="1"
	d="M730.50 296.00v-24.00"/>
<path class="stroke" stroke-width="1"
	d="M818.40 296.00v-24.00"/>
<path class="stroke" stroke-width="1"
	d="M815.40 296.00v-24.00"/>
<path d="m10.00 296.00
	h808.40
	M10.00 290.00
	h808.40
	M10.00 284.00
	h808.40
	M10.00 278.00
	h808.40
	M10.00 272.00
	h808.40
	" class="stroke"/>
<use x="22.00" y="290.00" xlink:href="#tclef"/>
<use x="37.00" y="272.00" xlink:href="#sh0"/>
<use x="42.50" y="281.00" xlink:href="#sh0"/>
<use x="60.50" y="287.00" xlink:href="#hd"/>
<path d="M64.00 287.00v-21.00" class="stroke"/>
<use x="114.10" y="278.00" xlink:href="#hd"/>
<path d="M110.60 278.00v21.00" class="stroke"/>
<path class="fill"
	d="M165.50 261.80l103.00 6.20v3.20l-103.00 -6.20"/>
<use x="162.30" y="281.00" xlink:href="#hd"/>
<use x="153.30" y="281.00" xlink:href="#nt0"/>
<path d="M165.80 281.00v-18.20" class="stroke"/>
<use x="196.40" y="287.00" xlink:href="#hd"/>
<path d="M199.90 287.00v-22.10" class="stroke"/>
<use x="230.50" y="290.00" xlink:href="#hd"/>
<path d="M234.00 290.00v-23.10" class="stroke"/>
<use x="264.60" y="293.00" xlink:href="#hd"/>
<path d="M268.10 293.00v-24.00" class="stroke"/>
<use x="310.10" y="290.00" xlink:href="#Hd"/>
<circle class="fill" cx="318.80" cy="287.00" r="1.2"/>
<path d="M313.60 290.00v-21.00" class="stroke"/>
<path class="fill"
	d="M399.60 271.80l34.80 -2.60v3.20l-34.80 2.60"/>
<use x="396.40" y="293.00" xlink:href="#hd"/>
<path d="M399.90 293.00v-20.20" class="stroke"/>
<use x="430.50" y="290.00" xlink:href="#hd"/>
<path d="M434.00 290.00v-19.80" class="stroke"/>
<path class="fill"
	d="M472.20 306.20l103.00 -6.60v-3.20l-103.00 6.60"/>
<use x="476.00" y="287.00" xlink:href="#hd"/>
<path d="M472.50 287.00v18.20" class="stroke"/>
<use x="510.10" y="266.00" xlink:href="#hl"/>
<use x="510.10" y="266.00" xlink:href="#hd"/>
<path d="M506.60 266.00v37.00" class="stroke"/>
<use x="544.20" y="269.00" xlink:href="#hd"/>
<path d="M540.70 269.00v31.80" class="stroke"/>
<use x="578.30" y="272.00" xlink:href="#hd"/>
<path d="M574.80 272.00v26.60" class="stroke"/>
<use x="616.30" y="275.00" xlink:href="#hd"/>
<path d="M612.80 275.00v21.00" class="stroke"/>
<path class="fill"
	d="M666.00 299.20l34.80 2.60v-3.20l-34.80 -2.60"/>
<use x="669.80" y="278.00" xlink:href="#hd"/>
<path d="M666.30 278.00v20.20" class="stroke"/>
<use x="703.90" y="281.00" xlink:href="#hd"/>
<path d="M700.40 281.00v19.80" class="stroke"/>
<use x="749.40" y="278.00" xlink:href="#Hd"/>
<circle class="fill" cx="758.10" cy="275.00" r="1.2"/>
<path d="M745.90 278.00v21.00" class="stroke"/>
</g>
<g stroke-width="0.70" style="font:20.00px Times">
<defs>
<g id="rdots" class="fill">
	<circle cx="0" cy="-9" r="1.2"/>
	<circle cx="0" cy="-15" r="1.2"/>
</g>
</defs>
<use x="67.00" y="366.00" xlink:href="#rdots"/>
<path class="stroke" stroke-width="1"
	d="M63.00 366.00v-24.00"/>
<path class="stroke" stroke-width="3"
	d="M58.50 366.00v-24.00"/>
<path class="stroke" stroke-width="1"
	d="M136.40 366.00v-24.00"/>
<path class="stroke" stroke-width="1"
	d="M342.90 366.00v-24.00"/>
<path class="stroke" stroke-width="1"
	d="M465.50 366.00v-24.00"/>
<path class="stroke" stroke-width="1"
	d="M675.90 366.00v-24.00"/>
<path class="stroke" stroke-width="1"
	d="M818.40 366.00v-24.00"/>
<path d="m10.00 366.00
	h808.40
	M10.00 360.00
	h808.40
	M10.00 354.00
	h808.40
	M10.00 348.00
	h808.40
	M10.00 342.00
	h808.40
	" class="stroke"/>
<use x="22.00" y="360.00" xlink:href="#tclef"/>
<use x="37.00" y="342.00" xlink:href="#sh0"/>
<use x="42.50" y="351.00" xlink:href="#sh0"/>
<path class="fill"
	d="M87.40 341.80l30.00 -2.50v3.20l-30.00 2.50"/>
<use x="84.30" y="363.00" xlink:href="#hd"/>
<path d="M87.80 363.00v-20.30" class="stroke"/>
<use x="113.60" y="360.00" xlink:href="#hd"/>
<path d="M117.10 360.00v-19.70" class="stroke"/>
<use x="152.70" y="357.00" xlink:href="#hd"/>
<path d="M156.20 357.00v-21.00" class="stroke"/>
<use x="198.70" y="348.00" xlink:href="#hd"/>
<path d="M195.20 348.00v21.00" class="stroke"/>
<use x="244.70" y="348.00" xlink:href="#hd"/>
<path d="M241.20 348.00v21.00" class="stroke"/>
<path class="fill"
	d="M286.90 371.80l30.00 -2.50v-3.20l-30.00 2.50"/>
<use x="290.80" y="351.00" xlink:href="#hd"/>
<path d="M287.30 351.00v19.70" class="stroke"/>
<use x="320.10" y="348.00" xlink:href="#hd"/>
<path d="M316.60 348.00v20.30" class="stroke"/>
<use x="359.20" y="345.00" xlink:href="#Hd"/>
<circle class="fill" cx="367.90" cy="345.00" r="1.2"/>
<path d="M355.70 345.00v21.00" class="stroke"/>
<use x="433.30" y="348.00" xlink:href="#hd"/>
<path d="M429.80 348.00v21.00" class="stroke"/>
<path class="fill"
	d="M477.90 377.30l88.60 -7.50v-3.20l-88.60 7.50"/>
<use x="481.80" y="357.00" xlink:href="#hd"/>
<path d="M478.30 357.00v19.20" class="stroke"/>
<use x="511.10" y="354.00" xlink:href="#hd"/>
<path d="M507.60 354.00v19.70" class="stroke"/>
<use x="540.40" y="351.00" xlink:href="#hd"/>
<use x="531.40" y="351.00" xlink:href="#nt0"/>
<path d="M536.90 351.00v20.30" class="stroke"/>
<use x="569.70" y="348.00" xlink:href="#hd"/>
<path d="M566.20 348.00v20.80" class="stroke"/>
<use x="602.30" y="354.00" xlink:href="#hd"/>
<path d="M598.80 354.00v21.00" class="stroke"/>
<use x="643.70" y="360.00" xlink:href="#hd"/>
<path d="M647.20 360.00v-21.00" class="stroke"/>
<use x="692.20" y="357.00" xlink:href="#Hd"/>
<circle class="fill" cx="700.90" cy="357.00" r="1.2"/>
<path d="M695.70 357.00v-21.00" class="stroke"/>
<path class="fill"
	d="M769.50 341.80l30.00 -2.50v3.20l-30.00 2.50"/>
<use x="766.30" y="363.00" xlink:href="#hd"/>
<path d="M769.80 363.00v-20.30" class="stroke"/>
<use x="795.60" y="360.00" xlink:href="#hd"/>
<path d="M799.10 360.00v-19.70" class="stroke"/>
</g>
<g stroke-width="0.70" style="font:20.00px Times">
<path class="stroke" stroke-width="1"
	d="M265.30 436.00v-24.00"/>
<path class="stroke" stroke-width="1"
	d="M499.80 436.00v-24.00"/>
<path class="stroke" stroke-width="1"
	d="M737.10 436.00v-24.00"/>
<path class="stroke" stroke-width="3"
	d="M816.90 436.00v-24.00"/>
<path class="stroke" stroke-width="1"
	d="M812.40 436.00v-24.00"/>
<use x="808.40" y="436.00" xlink:href="#rdots"/>
<path d="m10.00 436.00
	h808.40
	M10.00 430.00
	h808.40
	M10.00 424.00
	h808.40
	M10.00 418.00
	h808.40
	M10.00 412.00
	h808.40
	" class="stroke"/>
<use x="22.00" y="430.00" xlink:href="#tclef"/>
<use x="37.00" y="412.00" xlink:href="#sh0"/>
<use x="42.50" y="421.00" xlink:href="#sh0"/>
<use x="60.50" y="427.00" xlink:href="#hd"/>
<path d="M64.00 427.00v-21.00" class="stroke"/>
<use x="110.10" y="418.00" xlink:href="#hd"/>
<path d="M106.60 418.00v21.00" class="stroke"/>
<use x="159.60" y="418.00" xlink:href="#hd"/>
<path d="M156.10 418.00v21.00" class="stroke"/>
<path class="fill"
	d="M205.40 441.80l32.20 -2.60v-3.20l-32.20 2.60"/>
<use x="209.20" y="421.00" xlink:href="#hd"/>
<path d="M205.70 421.00v19.80" class="stroke"/>
<use x="240.80" y="418.00" xlink:href="#hd"/>
<path d="M237.30 418.00v20.20" class="stroke"/>
<use x="282.90" y="415.00" xlink:href="#hd"/>
<path d="M279.40 415.00v21.00" class="stroke"/>
<path class="fill"
	d="M328.60 439.20l32.20 2.60v-3.20l-32.20 -2.60"/>
<use x="332.40" y="418.00" xlink:href="#hd"/>
<path d="M328.90 418.00v20.20" class="stroke"/>
<use x="364.00" y="421.00" xlink:href="#hd"/>
<path d="M360.50 421.00v19.80" class="stroke"/>
<use x="399.10" y="418.00" xlink:href="#hd"/>
<path d="M395.60 418.00v21.00" class="stroke"/>
<path class="fill"
	d="M446.90 405.80l32.20 -2.60v3.20l-32.20 2.60"/>
<use x="443.70" y="427.00" xlink:href="#hd"/>
<path d="M447.20 427.00v-20.20" class="stroke"/>
<use x="475.30" y="424.00" xlink:href="#hd"/>
<path d="M478.80 424.00v-19.80" class="stroke"/>
<use x="518.70" y="421.00" xlink:href="#hd"/>
<use x="509.70" y="421.00" xlink:href="#nt0"/>
<path d="M515.20 421.00v21.00" class="stroke"/>
<use x="568.20" y="409.00" xlink:href="#hd"/>
<path d="M564.70 409.00v21.00" class="stroke"/>
<path class="fill"
	d="M614.00 433.70l95.40 7.60v-3.20l-95.40 -7.60"/>
<use x="617.80" y="412.00" xlink:href="#hd"/>
<path d="M614.30 412.00v20.70" class="stroke"/>
<use x="649.40" y="415.00" xlink:href="#hd"/>
<path d="M645.90 415.00v20.20" class="stroke"/>
<use x="680.90" y="418.00" xlink:href="#hd"/>
<path d="M677.40 418.00v19.80" class="stroke"/>
<use x="712.50" y="421.00" xlink:href="#hd"/>
<use x="703.50" y="421.00" xlink:href="#sh0"/>
<path d="M709.00 421.00v19.30" class="stroke"/>
<use x="754.60" y="418.00" xlink:href="#Hd"/>
<circle class="fill" cx="763.30" cy="415.00" r="1.2"/>
<path d="M751.10 418.00v21.00" class="stroke"/>
</g>
</svg>
