<?xml version="1.0" standalone="no"?>
<!DOCTYPE svg PUBLIC "-//W3C//DTD SVG 1.1//EN"
	"http://www.w3.org/Graphics/SVG/1.1/DTD/svg11.dtd">
<svg xmlns="http://www.w3.org/2000/svg" version="1.1"
	xmlns:xlink="http://www.w3.org/1999/xlink"
	color="black"
	width="701.60px" height="132.00px">
<style type="text/css">
.fill {fill: currentColor}
.stroke {stroke: currentColor; fill: none}
text{white-space: pre}
</style>
<title>/media/tim/Data1/tims_code/sphinx-tunes/source/_abcfiles/theory_sheet.ab (3) tune 4</title>
<!-- Creator: abcm2ps-8.14.6 -->
<!-- CreationDate: Jul 30, 2023 12:21 -->
<!-- CommandLine: -g /media/tim/Data1/tims_code/sphinx-tunes/source/_abcfiles/theory_sheet.abc -O /media/tim/Data1/tims_code/sphinx-tunes/source/_abcfiles/theory_sheet.svg -->
<g stroke-width="0.70">
<!-- title: D Major (Pipers) -->
</g>
<g stroke-width="0.70" style="font:20.00px Times">
<text x="350.80" y="22.00" text-anchor="middle">D Major (Pipers)</text>
</g>
<g stroke-width="0.70" style="font:16.00px Times">
<text x="10.00" y="55.60">(B Minor)</text>
</g>
<g stroke-width="0.70" style="font:16.00px Times">
<path class="stroke" stroke-width="1"
	d="M113.40 109.00v-24.00"/>
<path class="stroke" stroke-width="1"
	d="M468.70 109.00v-24.00"/>
<path class="stroke" stroke-width="1"
	d="M691.60 109.00v-24.00"/>
<path d="m10.00 109.00
	h681.60
	M10.00 103.00
	h681.60
	M10.00 97.00
	h681.60
	M10.00 91.00
	h681.60
	M10.00 85.00
	h681.60
	" class="stroke"/>
</g>
<g stroke-width="0.70" style="font:12.00px Helvetica">
<text x="255.20" y="75.60">R4</text>
<text x="390.70" y="75.60">P</text>
<defs>
<path id="utclef" class="fill" d="m-50 -90
	c-72 -41 -72 -158 52 -188
	150 -10 220 188 90 256
	-114 52 -275 0 -293 -136
	-15 -181 93 -229 220 -334
	88 -87 79 -133 62 -210
	-51 33 -94 105 -89 186
	17 267 36 374 49 574
	6 96 -19 134 -77 135
	-80 1 -126 -93 -61 -133
	85 -41 133 101 31 105
	23 17 92 37 90 -92
	-10 -223 -39 -342 -50 -617
	0 -90 0 -162 96 -232
	56 72 63 230 22 289
	-74 106 -257 168 -255 316
	9 153 148 185 252 133
	86 -65 29 -192 -80 -176
	-71 12 -105 67 -59 124"/>
<use id="tclef" transform="translate(0,6) scale(0.045)"
	xlink:href="#utclef"/>
</defs>
<use x="22.00" y="103.00" xlink:href="#tclef"/>
<defs>
<path id="usharp" class="fill" d="
	m136 -702
	v890
	h32
	v-890
	m128 840
	h32
	v-888
	h-32
	m-232 286
	v116
	l338 -96
	v-116
	m-338 442
	v116
	l338 -98
	v-114"/>
<use id="sh0" transform="translate(-4,5) scale(0.018)"
	xlink:href="#usharp"/>
</defs>
<use x="37.00" y="85.00" xlink:href="#sh0"/>
<use x="42.50" y="94.00" xlink:href="#sh0"/>
<g style="font:bold 16px serif"
	transform="translate(58.50,108.50) scale(1.2,1)">
	<text text-anchor="middle">4</text>
	<text y="-12" text-anchor="middle">4</text>
</g>
<defs>
<path id="hl" class="stroke" d="m-6 0h12"/>
</defs>
<use x="82.50" y="115.00" xlink:href="#hl"/>
<defs>
<ellipse id="hd" rx="4.1" ry="2.9"
	transform="rotate(-20)" class="fill"/>
</defs>
<use x="82.50" y="115.00" xlink:href="#hd"/>
<use x="73.50" y="115.00" xlink:href="#sh0"/>
<path d="M86.00 115.00v-21.00" class="stroke"/>
<use x="129.00" y="112.00" xlink:href="#hd"/>
<path d="M132.50 112.00v-21.00" class="stroke"/>
<use x="173.10" y="109.00" xlink:href="#hd"/>
<path d="M176.60 109.00v-21.00" class="stroke"/>
<use x="217.20" y="106.00" xlink:href="#hd"/>
<use x="208.20" y="106.00" xlink:href="#sh0"/>
<path d="M220.70 106.00v-21.00" class="stroke"/>
<use x="261.30" y="103.00" xlink:href="#hd"/>
<path d="M264.80 103.00v-21.00" class="stroke"/>
<use x="305.40" y="100.00" xlink:href="#hd"/>
<path d="M308.90 100.00v-21.00" class="stroke"/>
<use x="349.60" y="97.00" xlink:href="#hd"/>
<path d="M353.10 97.00v-21.00" class="stroke"/>
<use x="393.70" y="94.00" xlink:href="#hd"/>
<use x="384.70" y="94.00" xlink:href="#sh0"/>
<path d="M390.20 94.00v21.00" class="stroke"/>
<use x="437.80" y="91.00" xlink:href="#hd"/>
<path d="M434.30 91.00v21.00" class="stroke"/>
<use x="484.30" y="88.00" xlink:href="#hd"/>
<path d="M480.80 88.00v21.00" class="stroke"/>
<use x="528.40" y="85.00" xlink:href="#hd"/>
<use x="519.40" y="85.00" xlink:href="#sh0"/>
<path d="M524.90 85.00v21.00" class="stroke"/>
<use x="572.50" y="82.00" xlink:href="#hd"/>
<path d="M569.00 82.00v21.00" class="stroke"/>
<use x="616.60" y="79.00" xlink:href="#hl"/>
<use x="616.60" y="79.00" xlink:href="#hd"/>
<path d="M613.10 79.00v21.00" class="stroke"/>
<use x="660.70" y="79.00" xlink:href="#hl"/>
<use x="660.70" y="76.00" xlink:href="#hd"/>
<path d="M657.20 76.00v21.00" class="stroke"/>
</g>
</svg>
