<?xml version="1.0" standalone="no"?>
<!DOCTYPE svg PUBLIC "-//W3C//DTD SVG 1.1//EN"
	"http://www.w3.org/Graphics/SVG/1.1/DTD/svg11.dtd">
<svg xmlns="http://www.w3.org/2000/svg" version="1.1"
	xmlns:xlink="http://www.w3.org/1999/xlink"
	color="black"
	width="701.60px" height="528.80px">
<style type="text/css">
.fill {fill: currentColor}
.stroke {stroke: currentColor; fill: none}
text{white-space: pre}
</style>
<title>/media/tim/Data1/tims_code/sphinx-tunes/source/_abcfiles/Theory.abc (1) tune 1</title>
<!-- Creator: abcm2ps-8.14.6 -->
<!-- CreationDate: Jul 30, 2023 12:21 -->
<!-- CommandLine: -g /media/tim/Data1/tims_code/sphinx-tunes/source/_abcfiles/Theory.abc -O /media/tim/Data1/tims_code/sphinx-tunes/source/_abcfiles/Theory.svg -->
<g stroke-width="0.70">
<!-- title: Music Theory Notes -->
</g>
<g stroke-width="0.70" style="font:20.00px Times">
<text x="350.80" y="22.00" text-anchor="middle">Music Theory Notes</text>
</g>
<g stroke-width="0.70" style="font:italic 14.00px Times">
<text x="691.60" y="46.00" text-anchor="end">Traditional</text>
</g>
<g stroke-width="0.70" transform="scale(0.700)" style="font:italic 14.00px Times">
<defs>
<ellipse id="hd" rx="4.1" ry="2.9"
	transform="rotate(-20)" class="fill"/>
</defs>
<use x="89.43" y="95.57" xlink:href="#hd"/>
<path d="M92.93 95.57v-21.00" class="stroke"/>
</g>
<g stroke-width="0.70" style="font:bold 15.00px Times">
<text x="70.30" y="69.00">= </text>
</g>
<g stroke-width="0.70" transform="scale(0.700)" style="font:bold 15.00px Times">
<use x="127.62" y="95.57" xlink:href="#hd"/>
<path d="M131.12 95.57v-21.00" class="stroke"/>
<path class="fill"
	d="M131.12 74.57c0.9 3.7 9.1 6.4 6 12.4
	1 -5.4 -4.2 -8.4 -6 -8.4
M131.12 79.97c0.9 3.7 9.1 6.4 6 12.4
	1 -5.4 -4.2 -8.4 -6 -8.4
M131.12 85.37c0.9 3.7 9.1 6.4 6 12.4
	1 -5.4 -4.2 -8.4 -6 -8.4
M131.12 90.77c0.9 3.7 9.1 6.4 6 12.4
	1 -5.4 -4.2 -8.4 -6 -8.4
M131.12 96.17c0.9 3.7 9.1 6.4 6 12.4
	1 -5.4 -4.2 -8.4 -6 -8.4
"/>
</g>
<g stroke-width="0.70" style="font:bold 15.00px Times">
<path class="stroke" stroke-width="1"
	d="M62.00 109.00v-24.00"/>
<path class="stroke" stroke-width="1"
	d="M189.00 109.00v-24.00"/>
<path class="stroke" stroke-width="1"
	d="M314.60 109.00v-24.00"/>
<path class="stroke" stroke-width="1"
	d="M440.30 109.00v-24.00"/>
<path class="stroke" stroke-width="1"
	d="M565.90 109.00v-24.00"/>
<path class="stroke" stroke-width="1"
	d="M691.60 109.00v-24.00"/>
<path d="m10.00 109.00
	h681.60
	M10.00 103.00
	h681.60
	M10.00 97.00
	h681.60
	M10.00 91.00
	h681.60
	M10.00 85.00
	h681.60
	" class="stroke"/>
</g>
<g stroke-width="0.70" style="font:bold 13.00px Times">
<text x="84.20" y="145.10">MajorChords</text>
<defs>
<path id="utclef" class="fill" d="m-50 -90
	c-72 -41 -72 -158 52 -188
	150 -10 220 188 90 256
	-114 52 -275 0 -293 -136
	-15 -181 93 -229 220 -334
	88 -87 79 -133 62 -210
	-51 33 -94 105 -89 186
	17 267 36 374 49 574
	6 96 -19 134 -77 135
	-80 1 -126 -93 -61 -133
	85 -41 133 101 31 105
	23 17 92 37 90 -92
	-10 -223 -39 -342 -50 -617
	0 -90 0 -162 96 -232
	56 72 63 230 22 289
	-74 106 -257 168 -255 316
	9 153 148 185 252 133
	86 -65 29 -192 -80 -176
	-71 12 -105 67 -59 124"/>
<use id="tclef" transform="translate(0,6) scale(0.045)"
	xlink:href="#utclef"/>
</defs>
<use x="22.00" y="103.00" xlink:href="#tclef"/>
<defs>
<path id="csig" class="fill" d="
	m6 -5.3
	c0.9 0 2.3 0.7 2.4 2.2
	-1.2 -2 -3.6 0.1 -1.6 1.7
	2 1 3.8 -3.5 -0.8 -4.7
	-2 -0.4 -6.4 1.3 -5.8 7
	0.4 6.4 7.9 6.8 9.1 0.7
	-2.3 5.6 -6.7 5.1 -6.8 0
	-0.5 -4.4 0.7 -7.5 3.5 -6.9"/>
</defs>
<use x="35.50" y="97.00" xlink:href="#csig"/>
<defs>
<path id="hl" class="stroke" d="m-6 0h12"/>
</defs>
<use x="104.20" y="79.00" xlink:href="#hl"/>
<use x="104.20" y="79.00" xlink:href="#hd"/>
<path d="M100.70 79.00v50.00" class="stroke"/>
<use x="104.20" y="112.00" xlink:href="#hd"/>
<use x="104.20" y="100.00" xlink:href="#hd"/>
<use x="104.20" y="91.00" xlink:href="#hd"/>
<use x="231.10" y="109.00" xlink:href="#hd"/>
<path d="M234.60 109.00v-40.00" class="stroke"/>
<use x="231.10" y="97.00" xlink:href="#hd"/>
<use x="231.10" y="88.00" xlink:href="#hd"/>
<use x="356.80" y="82.00" xlink:href="#hd"/>
<path d="M353.30 82.00v40.00" class="stroke"/>
<use x="356.80" y="103.00" xlink:href="#hd"/>
<use x="356.80" y="91.00" xlink:href="#hd"/>
<use x="482.50" y="79.00" xlink:href="#hl"/>
<use x="482.50" y="79.00" xlink:href="#hd"/>
<path d="M479.00 79.00v40.00" class="stroke"/>
<use x="482.50" y="100.00" xlink:href="#hd"/>
<use x="482.50" y="88.00" xlink:href="#hd"/>
<use x="608.10" y="97.00" xlink:href="#hd"/>
<path d="M604.60 97.00v21.00" class="stroke"/>
</g>
<g stroke-width="0.70" style="font:bold 13.00px Times">
<path class="stroke" stroke-width="1"
	d="M42.00 196.30v-24.00"/>
<path class="stroke" stroke-width="1"
	d="M202.40 196.30v-24.00"/>
<path class="stroke" stroke-width="1"
	d="M362.80 196.30v-24.00"/>
<path class="stroke" stroke-width="1"
	d="M523.20 196.30v-24.00"/>
<path class="stroke" stroke-width="1"
	d="M683.60 196.30v-24.00"/>
<path d="m10.00 196.30
	h681.60
	M10.00 190.30
	h681.60
	M10.00 184.30
	h681.60
	M10.00 178.30
	h681.60
	M10.00 172.30
	h681.60
	" class="stroke"/>
<text x="81.30" y="231.40">Emin</text>
<text x="240.50" y="231.40">Esus4</text>
<text x="401.50" y="231.40">Amin</text>
<text x="562.20" y="231.40">Bmin</text>
<use x="22.00" y="190.30" xlink:href="#tclef"/>
<use x="95.80" y="169.30" xlink:href="#hd"/>
<path d="M92.30 169.30v46.00" class="stroke"/>
<use x="95.80" y="196.30" xlink:href="#hd"/>
<use x="95.80" y="190.30" xlink:href="#hd"/>
<use x="95.80" y="175.30" xlink:href="#hd"/>
<use x="256.20" y="166.30" xlink:href="#hl"/>
<use x="256.20" y="166.30" xlink:href="#hd"/>
<path d="M252.70 166.30v49.00" class="stroke"/>
<use x="256.20" y="196.30" xlink:href="#hd"/>
<use x="256.20" y="184.30" xlink:href="#hd"/>
<use x="416.60" y="166.30" xlink:href="#hl"/>
<use x="416.60" y="166.30" xlink:href="#hd"/>
<path d="M413.10 166.30v40.00" class="stroke"/>
<use x="416.60" y="187.30" xlink:href="#hd"/>
<use x="416.60" y="178.30" xlink:href="#hd"/>
<use x="577.00" y="178.30" xlink:href="#hd"/>
<path d="M573.50 178.30v25.00" class="stroke"/>
<use x="577.00" y="184.30" xlink:href="#hd"/>
</g>
<g stroke-width="0.70" style="font:bold 13.00px Times">
<path class="stroke" stroke-width="1"
	d="M42.00 282.60v-24.00"/>
<path class="stroke" stroke-width="1"
	d="M241.30 282.60v-24.00"/>
<path class="stroke" stroke-width="1"
	d="M440.50 282.60v-24.00"/>
<path class="stroke" stroke-width="1"
	d="M639.80 282.60v-24.00"/>
<path d="m10.00 282.60
	h681.60
	M10.00 276.60
	h681.60
	M10.00 270.60
	h681.60
	M10.00 264.60
	h681.60
	M10.00 258.60
	h681.60
	" class="stroke"/>
<text x="52.70" y="304.70">D</text>
<text x="92.50" y="304.70">Major</text>
<use x="22.00" y="276.60" xlink:href="#tclef"/>
<use x="59.40" y="285.60" xlink:href="#hd"/>
<path d="M62.90 285.60v-21.00" class="stroke"/>
<use x="108.50" y="282.60" xlink:href="#hd"/>
<path d="M112.00 282.60v-21.00" class="stroke"/>
<use x="157.70" y="279.60" xlink:href="#hd"/>
<defs>
<path id="usharp" class="fill" d="
	m136 -702
	v890
	h32
	v-890
	m128 840
	h32
	v-888
	h-32
	m-232 286
	v116
	l338 -96
	v-116
	m-338 442
	v116
	l338 -98
	v-114"/>
<use id="sh0" transform="translate(-4,5) scale(0.018)"
	xlink:href="#usharp"/>
</defs>
<use x="148.70" y="279.60" xlink:href="#sh0"/>
<path d="M161.20 279.60v-21.00" class="stroke"/>
<use x="206.90" y="276.60" xlink:href="#hd"/>
<path d="M210.40 276.60v-21.00" class="stroke"/>
<use x="258.70" y="273.60" xlink:href="#hd"/>
<path d="M262.20 273.60v-21.00" class="stroke"/>
<use x="307.80" y="270.60" xlink:href="#hd"/>
<path d="M311.30 270.60v-21.00" class="stroke"/>
<use x="357.00" y="267.60" xlink:href="#hd"/>
<use x="348.00" y="267.60" xlink:href="#sh0"/>
<path d="M353.50 267.60v21.00" class="stroke"/>
<use x="406.10" y="264.60" xlink:href="#hd"/>
<path d="M402.60 264.60v21.00" class="stroke"/>
<use x="457.90" y="261.60" xlink:href="#hd"/>
<path d="M454.40 261.60v21.00" class="stroke"/>
<use x="507.10" y="258.60" xlink:href="#hd"/>
<use x="498.10" y="258.60" xlink:href="#sh0"/>
<path d="M503.60 258.60v21.00" class="stroke"/>
<use x="556.20" y="255.60" xlink:href="#hd"/>
<path d="M552.70 255.60v21.00" class="stroke"/>
<use x="605.40" y="252.60" xlink:href="#hl"/>
<use x="605.40" y="252.60" xlink:href="#hd"/>
<path d="M601.90 252.60v21.00" class="stroke"/>
<use x="657.20" y="252.60" xlink:href="#hl"/>
<use x="657.20" y="249.60" xlink:href="#hd"/>
<path d="M653.70 249.60v21.00" class="stroke"/>
</g>
<g stroke-width="0.70" style="font:bold 13.00px Times">
<path class="stroke" stroke-width="1"
	d="M42.00 355.90v-24.00"/>
<path class="stroke" stroke-width="1"
	d="M301.20 355.90v-24.00"/>
<path class="stroke" stroke-width="1"
	d="M560.30 355.90v-24.00"/>
<path d="m10.00 355.90
	h681.60
	M10.00 349.90
	h681.60
	M10.00 343.90
	h681.60
	M10.00 337.90
	h681.60
	M10.00 331.90
	h681.60
	" class="stroke"/>
<text x="57.90" y="378.00">G</text>
<text x="112.50" y="378.00">Major</text>
<use x="22.00" y="349.90" xlink:href="#tclef"/>
<use x="64.60" y="349.90" xlink:href="#hd"/>
<path d="M68.10 349.90v-21.00" class="stroke"/>
<use x="128.50" y="346.90" xlink:href="#hd"/>
<path d="M132.00 346.90v-21.00" class="stroke"/>
<use x="192.50" y="343.90" xlink:href="#hd"/>
<path d="M196.00 343.90v-21.00" class="stroke"/>
<use x="256.40" y="340.90" xlink:href="#hd"/>
<path d="M252.90 340.90v21.00" class="stroke"/>
<use x="323.80" y="337.90" xlink:href="#hd"/>
<path d="M320.30 337.90v21.00" class="stroke"/>
<use x="387.70" y="334.90" xlink:href="#hd"/>
<path d="M384.20 334.90v21.00" class="stroke"/>
<use x="451.60" y="331.90" xlink:href="#hd"/>
<use x="442.60" y="331.90" xlink:href="#sh0"/>
<path d="M448.10 331.90v21.00" class="stroke"/>
<use x="515.60" y="328.90" xlink:href="#hd"/>
<path d="M512.10 328.90v21.00" class="stroke"/>
<use x="582.90" y="325.90" xlink:href="#hl"/>
<use x="582.90" y="325.90" xlink:href="#hd"/>
<path d="M579.40 325.90v21.00" class="stroke"/>
<use x="646.80" y="325.90" xlink:href="#hl"/>
<use x="646.80" y="322.90" xlink:href="#hd"/>
<path d="M643.30 322.90v21.00" class="stroke"/>
</g>
<g stroke-width="0.70" style="font:bold 13.00px Times">
<path class="stroke" stroke-width="1"
	d="M42.00 429.20v-24.00"/>
<path class="stroke" stroke-width="1"
	d="M329.40 429.20v-24.00"/>
<path class="stroke" stroke-width="1"
	d="M616.90 429.20v-24.00"/>
<path d="m10.00 429.20
	h681.60
	M10.00 423.20
	h681.60
	M10.00 417.20
	h681.60
	M10.00 411.20
	h681.60
	M10.00 405.20
	h681.60
	" class="stroke"/>
<text x="60.40" y="451.30">A</text>
<text x="121.60" y="451.30">Minor</text>
<use x="22.00" y="423.20" xlink:href="#tclef"/>
<use x="67.10" y="420.20" xlink:href="#hd"/>
<path d="M70.60 420.20v-21.00" class="stroke"/>
<use x="138.00" y="417.20" xlink:href="#hd"/>
<path d="M141.50 417.20v-21.00" class="stroke"/>
<use x="208.90" y="414.20" xlink:href="#hd"/>
<path d="M205.40 414.20v21.00" class="stroke"/>
<use x="279.80" y="411.20" xlink:href="#hd"/>
<path d="M276.30 411.20v21.00" class="stroke"/>
<use x="354.50" y="408.20" xlink:href="#hd"/>
<path d="M351.00 408.20v21.00" class="stroke"/>
<use x="425.40" y="405.20" xlink:href="#hd"/>
<path d="M421.90 405.20v21.00" class="stroke"/>
<use x="496.30" y="402.20" xlink:href="#hd"/>
<path d="M492.80 402.20v21.00" class="stroke"/>
<use x="567.20" y="399.20" xlink:href="#hl"/>
<use x="567.20" y="399.20" xlink:href="#hd"/>
<path d="M563.70 399.20v21.00" class="stroke"/>
<use x="642.00" y="399.20" xlink:href="#hl"/>
<use x="642.00" y="396.20" xlink:href="#hd"/>
<path d="M638.50 396.20v21.00" class="stroke"/>
</g>
<g stroke-width="0.70" style="font:bold 13.00px Times">
<path class="stroke" stroke-width="1"
	d="M42.00 502.50v-24.00"/>
<path class="stroke" stroke-width="1"
	d="M329.40 502.50v-24.00"/>
<path class="stroke" stroke-width="1"
	d="M616.90 502.50v-24.00"/>
<path d="m10.00 502.50
	h681.60
	M10.00 496.50
	h681.60
	M10.00 490.50
	h681.60
	M10.00 484.50
	h681.60
	M10.00 478.50
	h681.60
	" class="stroke"/>
<text x="60.40" y="524.60">A</text>
<text x="121.90" y="524.60">Major</text>
<use x="22.00" y="496.50" xlink:href="#tclef"/>
<use x="67.10" y="493.50" xlink:href="#hd"/>
<path d="M70.60 493.50v-21.00" class="stroke"/>
<use x="138.00" y="490.50" xlink:href="#hd"/>
<path d="M141.50 490.50v-21.00" class="stroke"/>
<use x="208.90" y="487.50" xlink:href="#hd"/>
<use x="199.90" y="487.50" xlink:href="#sh0"/>
<path d="M205.40 487.50v21.00" class="stroke"/>
<use x="279.80" y="484.50" xlink:href="#hd"/>
<path d="M276.30 484.50v21.00" class="stroke"/>
<use x="354.50" y="481.50" xlink:href="#hd"/>
<path d="M351.00 481.50v21.00" class="stroke"/>
<use x="425.40" y="478.50" xlink:href="#hd"/>
<use x="416.40" y="478.50" xlink:href="#sh0"/>
<path d="M421.90 478.50v21.00" class="stroke"/>
<use x="496.30" y="475.50" xlink:href="#hd"/>
<use x="487.30" y="475.50" xlink:href="#sh0"/>
<path d="M492.80 475.50v21.00" class="stroke"/>
<use x="567.20" y="472.50" xlink:href="#hl"/>
<use x="567.20" y="472.50" xlink:href="#hd"/>
<path d="M563.70 472.50v21.00" class="stroke"/>
<use x="642.00" y="472.50" xlink:href="#hl"/>
<use x="642.00" y="469.50" xlink:href="#hd"/>
<path d="M638.50 469.50v21.00" class="stroke"/>
</g>
</svg>
