<?xml version="1.0" standalone="no"?>
<!DOCTYPE svg PUBLIC "-//W3C//DTD SVG 1.1//EN"
	"http://www.w3.org/Graphics/SVG/1.1/DTD/svg11.dtd">
<svg xmlns="http://www.w3.org/2000/svg" version="1.1"
	xmlns:xlink="http://www.w3.org/1999/xlink"
	color="black"
	width="701.60px" height="196.40px">
<style type="text/css">
.fill {fill: currentColor}
.stroke {stroke: currentColor; fill: none}
text{white-space: pre}
</style>
<title>/media/tim/Data1/tims_code/sphinx-tunes/source/_abcfiles/theory_sheet.ab (0) tune 1</title>
<!-- Creator: abcm2ps-8.14.6 -->
<!-- CreationDate: Jul 30, 2023 12:21 -->
<!-- CommandLine: -g /media/tim/Data1/tims_code/sphinx-tunes/source/_abcfiles/theory_sheet.abc -O /media/tim/Data1/tims_code/sphinx-tunes/source/_abcfiles/theory_sheet.svg -->
<g stroke-width="0.70">
<!-- title: Fingering -->
</g>
<g stroke-width="0.70" style="font:20.00px Times">
<text x="350.80" y="22.00" text-anchor="middle">Fingering</text>
</g>
<g stroke-width="0.70" style="font:20.00px Times">
<path class="stroke" stroke-width="1"
	d="M164.80 97.40v-24.00"/>
<path class="stroke" stroke-width="1"
	d="M277.30 97.40v-24.00"/>
<path class="stroke" stroke-width="1"
	d="M395.00 97.40v-24.00"/>
<path class="stroke" stroke-width="1"
	d="M513.60 97.40v-24.00"/>
<path class="stroke" stroke-width="1"
	d="M633.10 97.40v-24.00"/>
<path class="stroke" stroke-width="1"
	d="M691.60 97.40v-24.00"/>
<path d="m10.00 97.40
	h681.60
	M10.00 91.40
	h681.60
	M10.00 85.40
	h681.60
	M10.00 79.40
	h681.60
	M10.00 73.40
	h681.60
	" class="stroke"/>
</g>
<g stroke-width="0.70" style="font:12.00px Helvetica">
<text x="61.60" y="56.00">P</text>
<text x="89.00" y="56.00">c</text>
<text x="116.30" y="56.00">p</text>
<text x="142.90" y="56.00">p</text>
<text x="174.90" y="56.00">c</text>
<text x="201.20" y="56.00">p</text>
<text x="228.90" y="56.00">p</text>
<text x="255.70" y="56.00">➀</text>
<text x="293.20" y="56.00">p</text>
<text x="320.10" y="56.00">➁</text>
<text x="346.60" y="56.00">➂</text>
<text x="373.40" y="56.00">➃</text>
<text x="410.90" y="56.00">p</text>
<text x="437.80" y="56.00">➄</text>
<text x="465.10" y="56.00">p</text>
<text x="492.00" y="56.00">➅</text>
<text x="529.40" y="56.00">p</text>
<text x="557.40" y="56.00">➆</text>
<text x="583.90" y="56.00">➇</text>
<text x="611.30" y="56.00">p</text>
<text x="643.30" y="56.00">c</text>
<text x="669.70" y="56.00">p</text>
<defs>
<path id="utclef" class="fill" d="m-50 -90
	c-72 -41 -72 -158 52 -188
	150 -10 220 188 90 256
	-114 52 -275 0 -293 -136
	-15 -181 93 -229 220 -334
	88 -87 79 -133 62 -210
	-51 33 -94 105 -89 186
	17 267 36 374 49 574
	6 96 -19 134 -77 135
	-80 1 -126 -93 -61 -133
	85 -41 133 101 31 105
	23 17 92 37 90 -92
	-10 -223 -39 -342 -50 -617
	0 -90 0 -162 96 -232
	56 72 63 230 22 289
	-74 106 -257 168 -255 316
	9 153 148 185 252 133
	86 -65 29 -192 -80 -176
	-71 12 -105 67 -59 124"/>
<use id="tclef" transform="translate(0,6) scale(0.045)"
	xlink:href="#utclef"/>
</defs>
<use x="22.00" y="91.40" xlink:href="#tclef"/>
<g style="font:bold 16px serif"
	transform="translate(40.50,96.90) scale(1.2,1)">
	<text text-anchor="middle">4</text>
	<text y="-12" text-anchor="middle">4</text>
</g>
<defs>
<path id="hl" class="stroke" d="m-6 0h12"/>
</defs>
<use x="64.50" y="103.40" xlink:href="#hl"/>
<defs>
<ellipse id="hd" rx="4.1" ry="2.9"
	transform="rotate(-20)" class="fill"/>
</defs>
<use x="64.50" y="106.40" xlink:href="#hd"/>
<defs>
<path id="uflat" class="fill" d="
	m100 -746
	h32
	v734
	l-32 4
	m32 -332
	c46 -72 152 -90 208 -20
	100 110 -120 326 -208 348
	m0 -28
	c54 0 200 -206 130 -290
	-50 -60 -130 -4 -130 34"/>
<use id="ft0" transform="translate(-3.5,3.5) scale(0.018)"
	xlink:href="#uflat"/>
</defs>
<use x="55.50" y="106.40" xlink:href="#ft0"/>
<path d="M68.00 106.40v-21.00" class="stroke"/>
<use x="91.30" y="103.40" xlink:href="#hl"/>
<use x="91.30" y="103.40" xlink:href="#hd"/>
<path d="M94.80 103.40v-21.00" class="stroke"/>
<use x="118.90" y="103.40" xlink:href="#hl"/>
<use x="118.90" y="103.40" xlink:href="#hd"/>
<defs>
<path id="usharp" class="fill" d="
	m136 -702
	v890
	h32
	v-890
	m128 840
	h32
	v-888
	h-32
	m-232 286
	v116
	l338 -96
	v-116
	m-338 442
	v116
	l338 -98
	v-114"/>
<use id="sh0" transform="translate(-4,5) scale(0.018)"
	xlink:href="#usharp"/>
</defs>
<use x="109.90" y="103.40" xlink:href="#sh0"/>
<path d="M122.40 103.40v-21.00" class="stroke"/>
<use x="145.50" y="100.40" xlink:href="#hd"/>
<path d="M149.00 100.40v-21.00" class="stroke"/>
<use x="177.30" y="97.40" xlink:href="#hd"/>
<path d="M180.80 97.40v-21.00" class="stroke"/>
<use x="203.80" y="94.40" xlink:href="#hd"/>
<path d="M207.30 94.40v-21.00" class="stroke"/>
<use x="231.50" y="94.40" xlink:href="#hd"/>
<use x="222.50" y="94.40" xlink:href="#sh0"/>
<path d="M235.00 94.40v-21.00" class="stroke"/>
<use x="258.10" y="91.40" xlink:href="#hd"/>
<path d="M261.60 91.40v-21.00" class="stroke"/>
<use x="295.80" y="91.40" xlink:href="#hd"/>
<use x="286.80" y="91.40" xlink:href="#sh0"/>
<path d="M299.30 91.40v-21.00" class="stroke"/>
<use x="322.40" y="88.40" xlink:href="#hd"/>
<path d="M325.90 88.40v-21.00" class="stroke"/>
<use x="348.90" y="85.40" xlink:href="#hd"/>
<path d="M352.40 85.40v-21.00" class="stroke"/>
<use x="375.80" y="82.40" xlink:href="#hd"/>
<path d="M372.30 82.40v21.00" class="stroke"/>
<use x="413.50" y="82.40" xlink:href="#hd"/>
<use x="404.50" y="82.40" xlink:href="#sh0"/>
<path d="M410.00 82.40v21.00" class="stroke"/>
<use x="440.10" y="79.40" xlink:href="#hd"/>
<path d="M436.60 79.40v21.00" class="stroke"/>
<use x="467.70" y="79.40" xlink:href="#hd"/>
<use x="458.70" y="79.40" xlink:href="#sh0"/>
<path d="M464.20 79.40v21.00" class="stroke"/>
<use x="494.30" y="76.40" xlink:href="#hd"/>
<path d="M490.80 76.40v21.00" class="stroke"/>
<use x="532.10" y="73.40" xlink:href="#hd"/>
<defs>
<path id="unat" class="fill" d="
	m96 -750
	h-32
	v716
	l32 -8
	182 -54
	v282
	h32
	v-706
	l-34 10
	-180 50
	v-290
	m0 592
	v-190
	l182 -52
	v188"/>
<use id="nt0" transform="translate(-3,5) scale(0.018)"
	xlink:href="#unat"/>
</defs>
<use x="523.10" y="73.40" xlink:href="#nt0"/>
<path d="M528.60 73.40v21.00" class="stroke"/>
<use x="559.70" y="73.40" xlink:href="#hd"/>
<use x="550.70" y="73.40" xlink:href="#sh0"/>
<path d="M556.20 73.40v21.00" class="stroke"/>
<use x="586.30" y="70.40" xlink:href="#hd"/>
<path d="M582.80 70.40v21.00" class="stroke"/>
<use x="613.90" y="70.40" xlink:href="#hd"/>
<use x="604.90" y="70.40" xlink:href="#sh0"/>
<path d="M610.40 70.40v21.00" class="stroke"/>
<use x="645.60" y="67.40" xlink:href="#hl"/>
<use x="645.60" y="67.40" xlink:href="#hd"/>
<path d="M642.10 67.40v21.00" class="stroke"/>
<use x="672.40" y="67.40" xlink:href="#hl"/>
<use x="672.40" y="64.40" xlink:href="#hd"/>
<path d="M668.90 64.40v21.00" class="stroke"/>
</g>
<g stroke-width="0.70" style="font:12.00px Helvetica">
<path class="stroke" stroke-width="1"
	d="M155.10 173.40v-24.00"/>
<path class="stroke" stroke-width="1"
	d="M269.80 173.40v-24.00"/>
<path class="stroke" stroke-width="1"
	d="M389.80 173.40v-24.00"/>
<path class="stroke" stroke-width="1"
	d="M510.50 173.40v-24.00"/>
<path class="stroke" stroke-width="1"
	d="M632.10 173.40v-24.00"/>
<path class="stroke" stroke-width="1"
	d="M691.60 173.40v-24.00"/>
<path d="m10.00 173.40
	h681.60
	M10.00 167.40
	h681.60
	M10.00 161.40
	h681.60
	M10.00 155.40
	h681.60
	M10.00 149.40
	h681.60
	" class="stroke"/>
<text x="49.60" y="132.00">P</text>
<text x="78.40" y="132.00">c</text>
<text x="105.40" y="132.00">p</text>
<text x="132.80" y="132.00">p</text>
<text x="165.20" y="132.00">c</text>
<text x="193.10" y="132.00">p</text>
<text x="220.30" y="132.00">p</text>
<text x="247.90" y="132.00">➀</text>
<text x="285.70" y="132.00">p</text>
<text x="313.20" y="132.00">➁</text>
<text x="340.40" y="132.00">➂</text>
<text x="367.90" y="132.00">➃</text>
<text x="405.70" y="132.00">p</text>
<text x="433.20" y="132.00">➄</text>
<text x="461.00" y="132.00">p</text>
<text x="488.60" y="132.00">➅</text>
<text x="526.40" y="132.00">p</text>
<text x="554.90" y="132.00">➆</text>
<text x="582.10" y="132.00">➇</text>
<text x="609.90" y="132.00">p</text>
<text x="642.30" y="132.00">c</text>
<text x="669.40" y="132.00">p</text>
<use x="22.00" y="167.40" xlink:href="#tclef"/>
<use x="52.50" y="179.40" xlink:href="#hl"/>
<use x="52.50" y="185.40" xlink:href="#hl"/>
<use x="52.50" y="188.40" xlink:href="#hd"/>
<use x="43.50" y="188.40" xlink:href="#sh0"/>
<path d="M56.00 188.40v-27.00" class="stroke"/>
<use x="80.70" y="179.40" xlink:href="#hl"/>
<use x="80.70" y="182.40" xlink:href="#hd"/>
<use x="71.70" y="182.40" xlink:href="#ft0"/>
<path d="M84.20 182.40v-21.00" class="stroke"/>
<use x="108.10" y="179.40" xlink:href="#hl"/>
<use x="108.10" y="182.40" xlink:href="#hd"/>
<path d="M111.60 182.40v-21.00" class="stroke"/>
<use x="135.50" y="179.40" xlink:href="#hl"/>
<use x="135.50" y="179.40" xlink:href="#hd"/>
<path d="M139.00 179.40v-21.00" class="stroke"/>
<use x="167.60" y="176.40" xlink:href="#hd"/>
<path d="M171.10 176.40v-21.00" class="stroke"/>
<use x="195.70" y="176.40" xlink:href="#hd"/>
<use x="186.70" y="176.40" xlink:href="#sh0"/>
<path d="M199.20 176.40v-21.00" class="stroke"/>
<use x="223.00" y="173.40" xlink:href="#hd"/>
<path d="M226.50 173.40v-21.00" class="stroke"/>
<use x="250.20" y="170.40" xlink:href="#hd"/>
<path d="M253.70 170.40v-21.00" class="stroke"/>
<use x="288.30" y="167.40" xlink:href="#hd"/>
<use x="279.30" y="167.40" xlink:href="#sh0"/>
<path d="M291.80 167.40v-21.00" class="stroke"/>
<use x="315.50" y="164.40" xlink:href="#hd"/>
<path d="M319.00 164.40v-21.00" class="stroke"/>
<use x="342.70" y="161.40" xlink:href="#hd"/>
<path d="M346.20 161.40v-21.00" class="stroke"/>
<use x="370.20" y="158.40" xlink:href="#hd"/>
<path d="M366.70 158.40v21.00" class="stroke"/>
<use x="408.30" y="158.40" xlink:href="#hd"/>
<use x="399.30" y="158.40" xlink:href="#sh0"/>
<path d="M404.80 158.40v21.00" class="stroke"/>
<use x="435.60" y="155.40" xlink:href="#hd"/>
<path d="M432.10 155.40v21.00" class="stroke"/>
<use x="463.70" y="155.40" xlink:href="#hd"/>
<use x="454.70" y="155.40" xlink:href="#sh0"/>
<path d="M460.20 155.40v21.00" class="stroke"/>
<use x="490.90" y="152.40" xlink:href="#hd"/>
<path d="M487.40 152.40v21.00" class="stroke"/>
<use x="529.00" y="149.40" xlink:href="#hd"/>
<use x="520.00" y="149.40" xlink:href="#nt0"/>
<path d="M525.50 149.40v21.00" class="stroke"/>
<use x="557.20" y="149.40" xlink:href="#hd"/>
<use x="548.20" y="149.40" xlink:href="#sh0"/>
<path d="M553.70 149.40v21.00" class="stroke"/>
<use x="584.40" y="146.40" xlink:href="#hd"/>
<path d="M580.90 146.40v21.00" class="stroke"/>
<use x="612.50" y="146.40" xlink:href="#hd"/>
<use x="603.50" y="146.40" xlink:href="#sh0"/>
<path d="M609.00 146.40v21.00" class="stroke"/>
<use x="644.60" y="143.40" xlink:href="#hl"/>
<use x="644.60" y="143.40" xlink:href="#hd"/>
<path d="M641.10 143.40v21.00" class="stroke"/>
<use x="672.00" y="143.40" xlink:href="#hl"/>
<use x="672.00" y="140.40" xlink:href="#hd"/>
<path d="M668.50 140.40v21.00" class="stroke"/>
</g>
</svg>
