<?xml version="1.0" standalone="no"?>
<!DOCTYPE svg PUBLIC "-//W3C//DTD SVG 1.1//EN"
	"http://www.w3.org/Graphics/SVG/1.1/DTD/svg11.dtd">
<svg xmlns="http://www.w3.org/2000/svg" version="1.1"
	xmlns:xlink="http://www.w3.org/1999/xlink"
	color="black"
	width="701.60px" height="132.00px">
<style type="text/css">
.fill {fill: currentColor}
.stroke {stroke: currentColor; fill: none}
text{white-space: pre}
</style>
<title>/media/tim/Data1/tims_code/sphinx-tunes/source/_abcfiles/theory_sheet.ab (1) tune 2</title>
<!-- Creator: abcm2ps-8.14.6 -->
<!-- CreationDate: Jul 30, 2023 12:21 -->
<!-- CommandLine: -g /media/tim/Data1/tims_code/sphinx-tunes/source/_abcfiles/theory_sheet.abc -O /media/tim/Data1/tims_code/sphinx-tunes/source/_abcfiles/theory_sheet.svg -->
<g stroke-width="0.70">
<!-- title: G Major (Pipers) -->
</g>
<g stroke-width="0.70" style="font:20.00px Times">
<text x="350.80" y="22.00" text-anchor="middle">G Major (Pipers)</text>
</g>
<g stroke-width="0.70" style="font:16.00px Times">
<text x="10.00" y="55.60">(E Minor)</text>
</g>
<g stroke-width="0.70" style="font:16.00px Times">
<path class="stroke" stroke-width="1"
	d="M237.30 109.00v-24.00"/>
<path class="stroke" stroke-width="1"
	d="M599.30 109.00v-24.00"/>
<path class="stroke" stroke-width="1"
	d="M691.60 109.00v-24.00"/>
<path d="m10.00 109.00
	h681.60
	M10.00 103.00
	h681.60
	M10.00 97.00
	h681.60
	M10.00 91.00
	h681.60
	M10.00 85.00
	h681.60
	" class="stroke"/>
</g>
<g stroke-width="0.70" style="font:12.00px Helvetica">
<text x="247.00" y="75.60">R4</text>
<defs>
<path id="utclef" class="fill" d="m-50 -90
	c-72 -41 -72 -158 52 -188
	150 -10 220 188 90 256
	-114 52 -275 0 -293 -136
	-15 -181 93 -229 220 -334
	88 -87 79 -133 62 -210
	-51 33 -94 105 -89 186
	17 267 36 374 49 574
	6 96 -19 134 -77 135
	-80 1 -126 -93 -61 -133
	85 -41 133 101 31 105
	23 17 92 37 90 -92
	-10 -223 -39 -342 -50 -617
	0 -90 0 -162 96 -232
	56 72 63 230 22 289
	-74 106 -257 168 -255 316
	9 153 148 185 252 133
	86 -65 29 -192 -80 -176
	-71 12 -105 67 -59 124"/>
<use id="tclef" transform="translate(0,6) scale(0.045)"
	xlink:href="#utclef"/>
</defs>
<use x="22.00" y="103.00" xlink:href="#tclef"/>
<defs>
<path id="usharp" class="fill" d="
	m136 -702
	v890
	h32
	v-890
	m128 840
	h32
	v-888
	h-32
	m-232 286
	v116
	l338 -96
	v-116
	m-338 442
	v116
	l338 -98
	v-114"/>
<use id="sh0" transform="translate(-4,5) scale(0.018)"
	xlink:href="#usharp"/>
</defs>
<use x="37.00" y="85.00" xlink:href="#sh0"/>
<g style="font:bold 16px serif"
	transform="translate(53.00,108.50) scale(1.2,1)">
	<text text-anchor="middle">4</text>
	<text y="-12" text-anchor="middle">4</text>
</g>
<defs>
<path id="hl" class="stroke" d="m-6 0h12"/>
</defs>
<use x="71.00" y="115.00" xlink:href="#hl"/>
<defs>
<ellipse id="hd" rx="4.1" ry="2.9"
	transform="rotate(-20)" class="fill"/>
</defs>
<use x="71.00" y="115.00" xlink:href="#hd"/>
<path d="M74.50 115.00v-21.00" class="stroke"/>
<use x="115.90" y="112.00" xlink:href="#hd"/>
<path d="M119.40 112.00v-21.00" class="stroke"/>
<use x="160.90" y="109.00" xlink:href="#hd"/>
<path d="M164.40 109.00v-21.00" class="stroke"/>
<use x="205.80" y="106.00" xlink:href="#hd"/>
<use x="196.80" y="106.00" xlink:href="#sh0"/>
<path d="M209.30 106.00v-21.00" class="stroke"/>
<use x="253.20" y="103.00" xlink:href="#hd"/>
<path d="M256.70 103.00v-21.00" class="stroke"/>
<use x="298.10" y="100.00" xlink:href="#hd"/>
<path d="M301.60 100.00v-21.00" class="stroke"/>
<use x="343.10" y="97.00" xlink:href="#hd"/>
<path d="M346.60 97.00v-21.00" class="stroke"/>
<use x="388.00" y="94.00" xlink:href="#hd"/>
<path d="M384.50 94.00v21.00" class="stroke"/>
<use x="433.00" y="91.00" xlink:href="#hd"/>
<path d="M429.50 91.00v21.00" class="stroke"/>
<use x="477.90" y="88.00" xlink:href="#hd"/>
<path d="M474.40 88.00v21.00" class="stroke"/>
<use x="522.90" y="85.00" xlink:href="#hd"/>
<use x="513.90" y="85.00" xlink:href="#sh0"/>
<path d="M519.40 85.00v21.00" class="stroke"/>
<use x="567.80" y="82.00" xlink:href="#hd"/>
<path d="M564.30 82.00v21.00" class="stroke"/>
<use x="615.20" y="79.00" xlink:href="#hl"/>
<use x="615.20" y="79.00" xlink:href="#hd"/>
<path d="M611.70 79.00v21.00" class="stroke"/>
<use x="660.10" y="79.00" xlink:href="#hl"/>
<use x="660.10" y="76.00" xlink:href="#hd"/>
<path d="M656.60 76.00v21.00" class="stroke"/>
</g>
</svg>
