<?xml version="1.0" standalone="no"?>
<!DOCTYPE svg PUBLIC "-//W3C//DTD SVG 1.1//EN"
	"http://www.w3.org/Graphics/SVG/1.1/DTD/svg11.dtd">
<svg xmlns="http://www.w3.org/2000/svg" version="1.1"
	xmlns:xlink="http://www.w3.org/1999/xlink"
	color="black"
	width="701.60px" height="508.08px">
<style type="text/css">
.fill {fill: currentColor}
.stroke {stroke: currentColor; fill: none}
text{white-space: pre}
</style>
<title>/media/tim/Data1/tims_code/sphinx-tunes/source/_abcfiles/Three Around Th (2) tune 1</title>
<!-- Creator: abcm2ps-8.14.6 -->
<!-- CreationDate: Jul 30, 2023 12:21 -->
<!-- CommandLine: -g '/media/tim/Data1/tims_code/sphinx-tunes/source/_abcfiles/Three Around Three.abc' -O '/media/tim/Data1/tims_code/sphinx-tunes/source/_abcfiles/Three Around Three.svg' -->
<g stroke-width="0.70">
<!-- title: Three Around Three -->
</g>
<g stroke-width="0.70" style="font:20.00px Times">
<text x="350.80" y="22.00" text-anchor="middle">Three Around Three</text>
</g>
<g stroke-width="0.70" style="font:italic 14.00px Times">
<text x="691.60" y="46.00" text-anchor="end">Trad, Variations Tim Pillinger</text>
</g>
<g stroke-width="0.70" style="font:italic 14.00px Times">
<path class="stroke" stroke-width="1"
	d="M134.40 99.00v-24.00"/>
<path class="stroke" stroke-width="1"
	d="M211.30 99.00v-24.00"/>
<path class="stroke" stroke-width="1"
	d="M305.40 99.00v-24.00"/>
<path class="stroke" stroke-width="1"
	d="M373.70 99.00v-24.00"/>
<path class="stroke" stroke-width="1"
	d="M449.50 99.00v-24.00"/>
<path class="stroke" stroke-width="1"
	d="M526.50 99.00v-24.00"/>
<path class="stroke" stroke-width="1"
	d="M620.50 99.00v-24.00"/>
<path class="stroke" stroke-width="3"
	d="M690.10 99.00v-24.00"/>
<path class="stroke" stroke-width="1"
	d="M685.60 99.00v-24.00"/>
<defs>
<g id="rdots" class="fill">
	<circle cx="0" cy="-9" r="1.2"/>
	<circle cx="0" cy="-15" r="1.2"/>
</g>
</defs>
<use x="681.60" y="99.00" xlink:href="#rdots"/>
<path d="m10.00 99.00
	h681.60
	M10.00 93.00
	h681.60
	M10.00 87.00
	h681.60
	M10.00 81.00
	h681.60
	M10.00 75.00
	h681.60
	" class="stroke"/>
<defs>
<path id="utclef" class="fill" d="m-50 -90
	c-72 -41 -72 -158 52 -188
	150 -10 220 188 90 256
	-114 52 -275 0 -293 -136
	-15 -181 93 -229 220 -334
	88 -87 79 -133 62 -210
	-51 33 -94 105 -89 186
	17 267 36 374 49 574
	6 96 -19 134 -77 135
	-80 1 -126 -93 -61 -133
	85 -41 133 101 31 105
	23 17 92 37 90 -92
	-10 -223 -39 -342 -50 -617
	0 -90 0 -162 96 -232
	56 72 63 230 22 289
	-74 106 -257 168 -255 316
	9 153 148 185 252 133
	86 -65 29 -192 -80 -176
	-71 12 -105 67 -59 124"/>
<use id="tclef" transform="translate(0,6) scale(0.045)"
	xlink:href="#utclef"/>
</defs>
<use x="22.00" y="93.00" xlink:href="#tclef"/>
<defs>
<path id="usharp" class="fill" d="
	m136 -702
	v890
	h32
	v-890
	m128 840
	h32
	v-888
	h-32
	m-232 286
	v116
	l338 -96
	v-116
	m-338 442
	v116
	l338 -98
	v-114"/>
<use id="sh0" transform="translate(-4,5) scale(0.018)"
	xlink:href="#usharp"/>
</defs>
<use x="37.00" y="75.00" xlink:href="#sh0"/>
<g style="font:bold 16px serif"
	transform="translate(53.00,98.50) scale(1.2,1)">
	<text text-anchor="middle">4</text>
	<text y="-12" text-anchor="middle">4</text>
</g>
<defs>
<ellipse id="hd" rx="4.1" ry="2.9"
	transform="rotate(-20)" class="fill"/>
</defs>
<use x="71.00" y="81.00" xlink:href="#hd"/>
<path d="M67.50 81.00v21.00" class="stroke"/>
<path class="fill"
	d="M87.70 66.50l11.40 2.00v3.20l-11.40 -2.00"/>
<use x="84.60" y="87.00" xlink:href="#hd"/>
<path d="M88.10 87.00v-19.50" class="stroke"/>
<use x="95.30" y="90.00" xlink:href="#hd"/>
<path d="M98.80 90.00v-20.50" class="stroke"/>
<use x="106.80" y="93.00" xlink:href="#hd"/>
<path d="M110.30 93.00v-21.00" class="stroke"/>
<use x="121.50" y="93.00" xlink:href="#hd"/>
<path d="M125.00 93.00v-21.00" class="stroke"/>
<use x="146.90" y="90.00" xlink:href="#hd"/>
<path d="M150.40 90.00v-21.00" class="stroke"/>
<path class="fill"
	d="M164.70 66.50l11.40 2.00v3.20l-11.40 -2.00"/>
<use x="161.50" y="87.00" xlink:href="#hd"/>
<path d="M165.00 87.00v-19.50" class="stroke"/>
<use x="172.30" y="90.00" xlink:href="#hd"/>
<path d="M175.80 90.00v-20.50" class="stroke"/>
<use x="183.70" y="93.00" xlink:href="#hd"/>
<path d="M187.20 93.00v-21.00" class="stroke"/>
<use x="198.40" y="102.00" xlink:href="#hd"/>
<path d="M201.90 102.00v-21.00" class="stroke"/>
<path class="fill"
	d="M227.00 78.00l32.90 0.00v3.20l-32.90 -0.00"/>
<use x="223.80" y="99.00" xlink:href="#hd"/>
<path d="M227.30 99.00v-20.00" class="stroke"/>
<use x="234.50" y="102.00" xlink:href="#hd"/>
<path d="M238.00 102.00v-23.00" class="stroke"/>
<use x="245.30" y="99.00" xlink:href="#hd"/>
<path d="M248.80 99.00v-20.00" class="stroke"/>
<use x="256.00" y="96.00" xlink:href="#hd"/>
<path d="M259.50 96.00v-17.00" class="stroke"/>
<use x="267.50" y="93.00" xlink:href="#hd"/>
<path d="M271.00 93.00v-21.00" class="stroke"/>
<path class="fill"
	d="M285.30 68.50l11.40 -2.00v3.20l-11.40 2.00"/>
<use x="282.10" y="90.00" xlink:href="#hd"/>
<path d="M285.60 90.00v-20.50" class="stroke"/>
<use x="292.90" y="87.00" xlink:href="#hd"/>
<path d="M296.40 87.00v-19.50" class="stroke"/>
<use x="317.90" y="84.00" xlink:href="#hd"/>
<path d="M314.40 84.00v21.00" class="stroke"/>
<use x="332.50" y="87.00" xlink:href="#hd"/>
<path d="M329.00 87.00v21.00" class="stroke"/>
<use x="347.20" y="87.00" xlink:href="#hd"/>
<path d="M343.70 87.00v21.00" class="stroke"/>
<use x="360.80" y="90.00" xlink:href="#hd"/>
<path d="M364.30 90.00v-21.00" class="stroke"/>
<use x="386.20" y="81.00" xlink:href="#hd"/>
<path d="M382.70 81.00v21.00" class="stroke"/>
<path class="fill"
	d="M402.90 66.50l11.40 2.00v3.20l-11.40 -2.00"/>
<use x="399.80" y="87.00" xlink:href="#hd"/>
<path d="M403.30 87.00v-19.50" class="stroke"/>
<use x="410.50" y="90.00" xlink:href="#hd"/>
<path d="M414.00 90.00v-20.50" class="stroke"/>
<use x="422.00" y="93.00" xlink:href="#hd"/>
<path d="M425.50 93.00v-21.00" class="stroke"/>
<use x="436.70" y="93.00" xlink:href="#hd"/>
<path d="M440.20 93.00v-21.00" class="stroke"/>
<use x="462.00" y="90.00" xlink:href="#hd"/>
<path d="M465.50 90.00v-21.00" class="stroke"/>
<path class="fill"
	d="M479.90 66.50l11.40 2.00v3.20l-11.40 -2.00"/>
<use x="476.70" y="87.00" xlink:href="#hd"/>
<path d="M480.20 87.00v-19.50" class="stroke"/>
<use x="487.40" y="90.00" xlink:href="#hd"/>
<path d="M490.90 90.00v-20.50" class="stroke"/>
<use x="498.90" y="93.00" xlink:href="#hd"/>
<path d="M502.40 93.00v-21.00" class="stroke"/>
<use x="513.60" y="102.00" xlink:href="#hd"/>
<path d="M517.10 102.00v-21.00" class="stroke"/>
<path class="fill"
	d="M542.20 78.00l32.90 0.00v3.20l-32.90 -0.00"/>
<use x="539.00" y="99.00" xlink:href="#hd"/>
<path d="M542.50 99.00v-20.00" class="stroke"/>
<use x="549.70" y="102.00" xlink:href="#hd"/>
<path d="M553.20 102.00v-23.00" class="stroke"/>
<use x="560.40" y="99.00" xlink:href="#hd"/>
<path d="M563.90 99.00v-20.00" class="stroke"/>
<use x="571.20" y="96.00" xlink:href="#hd"/>
<path d="M574.70 96.00v-17.00" class="stroke"/>
<use x="582.70" y="93.00" xlink:href="#hd"/>
<path d="M586.20 93.00v-21.00" class="stroke"/>
<path class="fill"
	d="M600.50 67.50l11.40 -3.00v3.20l-11.40 3.00"/>
<use x="597.30" y="90.00" xlink:href="#hd"/>
<path d="M600.80 90.00v-21.60" class="stroke"/>
<use x="608.00" y="84.00" xlink:href="#hd"/>
<path d="M611.50 84.00v-18.40" class="stroke"/>
<use x="633.00" y="87.00" xlink:href="#hd"/>
<path d="M636.50 87.00v-21.00" class="stroke"/>
<use x="647.70" y="90.00" xlink:href="#hd"/>
<path d="M651.20 90.00v-21.00" class="stroke"/>
<defs>
<path id="Hd" class="fill" d="m3 -1.6
	c-1 -1.8 -7 1.4 -6 3.2
	1 1.8 7 -1.4 6 -3.2
	m0.5 -0.3
	c2 3.8 -5 7.6 -7 3.8
	-2 -3.8 5 -7.6 7 -3.8"/>
</defs>
<use x="662.60" y="93.00" xlink:href="#Hd"/>
<path d="M666.10 93.00v-21.00" class="stroke"/>
</g>
<g stroke-width="0.70" style="font:italic 14.00px Times">
<use x="61.50" y="176.00" xlink:href="#rdots"/>
<path class="stroke" stroke-width="1"
	d="M57.50 176.00v-24.00"/>
<path class="stroke" stroke-width="3"
	d="M53.00 176.00v-24.00"/>
<path class="stroke" stroke-width="1"
	d="M158.50 176.00v-24.00"/>
<path class="stroke" stroke-width="1"
	d="M218.40 176.00v-24.00"/>
<path class="stroke" stroke-width="1"
	d="M299.00 176.00v-24.00"/>
<path class="stroke" stroke-width="1"
	d="M373.20 176.00v-24.00"/>
<path class="stroke" stroke-width="1"
	d="M469.20 176.00v-24.00"/>
<path class="stroke" stroke-width="1"
	d="M540.60 176.00v-24.00"/>
<path class="stroke" stroke-width="1"
	d="M636.60 176.00v-24.00"/>
<path class="stroke" stroke-width="3"
	d="M690.10 176.00v-24.00"/>
<path class="stroke" stroke-width="1"
	d="M685.60 176.00v-24.00"/>
<use x="681.60" y="176.00" xlink:href="#rdots"/>
<path d="m10.00 176.00
	h681.60
	M10.00 170.00
	h681.60
	M10.00 164.00
	h681.60
	M10.00 158.00
	h681.60
	M10.00 152.00
	h681.60
	" class="stroke"/>
<text x="10.00" y="138.00">9</text>
<use x="22.00" y="170.00" xlink:href="#tclef"/>
<use x="37.00" y="152.00" xlink:href="#sh0"/>
<use x="75.00" y="158.00" xlink:href="#hd"/>
<path d="M71.50 158.00v21.00" class="stroke"/>
<path class="fill"
	d="M86.40 175.50l11.70 -2.10v-3.20l-11.70 2.10"/>
<use x="90.20" y="155.00" xlink:href="#hd"/>
<path d="M86.70 155.00v19.50" class="stroke"/>
<use x="101.20" y="152.00" xlink:href="#hd"/>
<path d="M97.70 152.00v20.50" class="stroke"/>
<path class="fill"
	d="M109.20 171.50l33.70 5.90v-3.20l-33.70 -5.90"/>
<use x="113.10" y="149.00" xlink:href="#hd"/>
<path d="M109.60 149.00v21.60" class="stroke"/>
<use x="124.10" y="152.00" xlink:href="#hd"/>
<path d="M120.60 152.00v20.50" class="stroke"/>
<use x="135.00" y="155.00" xlink:href="#hd"/>
<path d="M131.50 155.00v19.50" class="stroke"/>
<use x="146.00" y="158.00" xlink:href="#hd"/>
<path d="M142.50 158.00v18.40" class="stroke"/>
<use x="171.00" y="155.00" xlink:href="#hd"/>
<path d="M167.50 155.00v21.00" class="stroke"/>
<use x="186.30" y="155.00" xlink:href="#hd"/>
<path d="M182.80 155.00v21.00" class="stroke"/>
<use x="201.70" y="155.00" xlink:href="#Hd"/>
<path d="M198.20 155.00v21.00" class="stroke"/>
<use x="230.90" y="158.00" xlink:href="#hd"/>
<path d="M227.40 158.00v21.00" class="stroke"/>
<use x="246.20" y="164.00" xlink:href="#hd"/>
<path d="M242.70 164.00v21.00" class="stroke"/>
<use x="261.40" y="164.00" xlink:href="#hd"/>
<path d="M257.90 164.00v21.00" class="stroke"/>
<path class="fill"
	d="M278.60 146.50l11.70 2.10v3.20l-11.70 -2.10"/>
<use x="275.50" y="167.00" xlink:href="#hd"/>
<path d="M279.00 167.00v-19.50" class="stroke"/>
<use x="286.50" y="170.00" xlink:href="#hd"/>
<path d="M290.00 170.00v-20.50" class="stroke"/>
<path class="fill"
	d="M314.60 150.50l33.70 -5.90v3.20l-33.70 5.90"/>
<use x="311.50" y="173.00" xlink:href="#hd"/>
<path d="M315.00 173.00v-21.60" class="stroke"/>
<use x="322.50" y="170.00" xlink:href="#hd"/>
<path d="M326.00 170.00v-20.50" class="stroke"/>
<use x="333.50" y="167.00" xlink:href="#hd"/>
<path d="M337.00 167.00v-19.50" class="stroke"/>
<use x="344.40" y="164.00" xlink:href="#hd"/>
<path d="M347.90 164.00v-18.40" class="stroke"/>
<use x="356.50" y="167.00" xlink:href="#Hd"/>
<path d="M360.00 167.00v-21.00" class="stroke"/>
<use x="385.70" y="158.00" xlink:href="#hd"/>
<path d="M382.20 158.00v21.00" class="stroke"/>
<path class="fill"
	d="M397.10 175.50l11.70 -2.10v-3.20l-11.70 2.10"/>
<use x="400.90" y="155.00" xlink:href="#hd"/>
<path d="M397.40 155.00v19.50" class="stroke"/>
<use x="411.90" y="152.00" xlink:href="#hd"/>
<path d="M408.40 152.00v20.50" class="stroke"/>
<path class="fill"
	d="M419.90 171.50l33.70 5.90v-3.20l-33.70 -5.90"/>
<use x="423.70" y="149.00" xlink:href="#hd"/>
<path d="M420.20 149.00v21.60" class="stroke"/>
<use x="434.70" y="152.00" xlink:href="#hd"/>
<path d="M431.20 152.00v20.50" class="stroke"/>
<use x="445.70" y="155.00" xlink:href="#hd"/>
<path d="M442.20 155.00v19.50" class="stroke"/>
<use x="456.70" y="158.00" xlink:href="#hd"/>
<path d="M453.20 158.00v18.40" class="stroke"/>
<use x="481.70" y="155.00" xlink:href="#hd"/>
<path d="M478.20 155.00v21.00" class="stroke"/>
<use x="497.00" y="155.00" xlink:href="#hd"/>
<path d="M493.50 155.00v21.00" class="stroke"/>
<use x="512.20" y="155.00" xlink:href="#hd"/>
<path d="M508.70 155.00v21.00" class="stroke"/>
<use x="527.40" y="158.00" xlink:href="#hd"/>
<path d="M523.90 158.00v21.00" class="stroke"/>
<path class="fill"
	d="M549.20 175.50l11.70 -2.10v-3.20l-11.70 2.10"/>
<use x="553.10" y="155.00" xlink:href="#hd"/>
<path d="M549.60 155.00v19.50" class="stroke"/>
<use x="564.00" y="152.00" xlink:href="#hd"/>
<path d="M560.50 152.00v20.50" class="stroke"/>
<use x="575.90" y="149.00" xlink:href="#hd"/>
<path d="M572.40 149.00v21.00" class="stroke"/>
<path class="fill"
	d="M587.30 170.20l33.70 0.00v-3.20l-33.70 -0.00"/>
<use x="591.10" y="152.00" xlink:href="#hd"/>
<path d="M587.60 152.00v17.20" class="stroke"/>
<use x="602.10" y="149.00" xlink:href="#hd"/>
<path d="M598.60 149.00v20.20" class="stroke"/>
<defs>
<path id="hl" class="stroke" d="m-6 0h12"/>
</defs>
<use x="613.10" y="146.00" xlink:href="#hl"/>
<use x="613.10" y="146.00" xlink:href="#hd"/>
<path d="M609.60 146.00v23.20" class="stroke"/>
<use x="624.10" y="152.00" xlink:href="#hd"/>
<path d="M620.60 152.00v17.20" class="stroke"/>
<use x="649.60" y="149.00" xlink:href="#Hd"/>
<path d="M646.10 149.00v21.00" class="stroke"/>
<use x="670.10" y="149.00" xlink:href="#Hd"/>
<path d="M666.60 149.00v21.00" class="stroke"/>
<text style="font:16px serif"
	x="670.10" y="136.80" text-anchor="middle">FINE</text>
</g>
<g stroke-width="0.70" style="font:italic 14.00px Times">
<path class="stroke" stroke-width="1"
	d="M126.70 253.00v-24.00"/>
<path class="stroke" stroke-width="1"
	d="M211.40 253.00v-24.00"/>
<path class="stroke" stroke-width="1"
	d="M296.10 253.00v-24.00"/>
<path class="stroke" stroke-width="1"
	d="M354.80 253.00v-24.00"/>
<path class="stroke" stroke-width="1"
	d="M439.00 253.00v-24.00"/>
<path class="stroke" stroke-width="1"
	d="M523.70 253.00v-24.00"/>
<path class="stroke" stroke-width="1"
	d="M616.20 253.00v-24.00"/>
<path class="stroke" stroke-width="3"
	d="M690.10 253.00v-24.00"/>
<path class="stroke" stroke-width="1"
	d="M685.60 253.00v-24.00"/>
<use x="681.60" y="253.00" xlink:href="#rdots"/>
<path d="m10.00 253.00
	h681.60
	M10.00 247.00
	h681.60
	M10.00 241.00
	h681.60
	M10.00 235.00
	h681.60
	M10.00 229.00
	h681.60
	" class="stroke"/>
<text x="10.00" y="215.00">17</text>
<use x="22.00" y="247.00" xlink:href="#tclef"/>
<use x="37.00" y="229.00" xlink:href="#sh0"/>
<use x="55.00" y="235.00" xlink:href="#hd"/>
<path d="M51.50 235.00v21.00" class="stroke"/>
<path class="fill"
	d="M69.00 220.50l10.30 2.00v3.20l-10.30 -2.00"/>
<use x="65.90" y="241.00" xlink:href="#hd"/>
<path d="M69.40 241.00v-19.40" class="stroke"/>
<use x="75.50" y="244.00" xlink:href="#hd"/>
<path d="M79.00 244.00v-20.60" class="stroke"/>
<path class="fill"
	d="M88.60 219.80l29.50 -4.00v3.20l-29.50 4.00"/>
<use x="85.40" y="247.00" xlink:href="#hd"/>
<path d="M88.90 247.00v-26.30" class="stroke"/>
<use x="95.00" y="241.00" xlink:href="#hd"/>
<path d="M98.50 241.00v-21.60" class="stroke"/>
<use x="104.60" y="247.00" xlink:href="#hd"/>
<path d="M108.10 247.00v-28.90" class="stroke"/>
<use x="114.20" y="235.00" xlink:href="#hd"/>
<path d="M117.70 235.00v-18.20" class="stroke"/>
<use x="139.20" y="244.00" xlink:href="#hd"/>
<path d="M142.70 244.00v-21.00" class="stroke"/>
<path class="fill"
	d="M153.80 220.50l10.30 2.00v3.20l-10.30 -2.00"/>
<use x="150.60" y="241.00" xlink:href="#hd"/>
<path d="M154.10 241.00v-19.40" class="stroke"/>
<use x="160.20" y="244.00" xlink:href="#hd"/>
<path d="M163.70 244.00v-20.60" class="stroke"/>
<path class="fill"
	d="M173.30 226.00l29.50 0.00v3.20l-29.50 -0.00"/>
<use x="170.10" y="247.00" xlink:href="#hd"/>
<path d="M173.60 247.00v-20.00" class="stroke"/>
<use x="179.70" y="256.00" xlink:href="#hd"/>
<path d="M183.20 256.00v-29.00" class="stroke"/>
<use x="189.30" y="247.00" xlink:href="#hd"/>
<path d="M192.80 247.00v-20.00" class="stroke"/>
<use x="198.90" y="244.00" xlink:href="#hd"/>
<path d="M202.40 244.00v-17.00" class="stroke"/>
<path class="fill"
	d="M227.10 232.00l29.50 0.00v3.20l-29.50 -0.00"/>
<use x="223.90" y="253.00" xlink:href="#hd"/>
<path d="M227.40 253.00v-20.00" class="stroke"/>
<use x="233.50" y="256.00" xlink:href="#hd"/>
<path d="M237.00 256.00v-23.00" class="stroke"/>
<use x="243.10" y="253.00" xlink:href="#hd"/>
<path d="M246.60 253.00v-20.00" class="stroke"/>
<use x="252.70" y="250.00" xlink:href="#hd"/>
<path d="M256.20 250.00v-17.00" class="stroke"/>
<use x="262.70" y="247.00" xlink:href="#hd"/>
<path d="M266.20 247.00v-21.00" class="stroke"/>
<path class="fill"
	d="M277.20 222.50l10.30 -2.00v3.20l-10.30 2.00"/>
<use x="274.00" y="244.00" xlink:href="#hd"/>
<path d="M277.50 244.00v-20.60" class="stroke"/>
<use x="283.60" y="241.00" xlink:href="#hd"/>
<path d="M287.10 241.00v-19.40" class="stroke"/>
<use x="308.60" y="238.00" xlink:href="#hd"/>
<path d="M305.10 238.00v21.00" class="stroke"/>
<use x="320.00" y="241.00" xlink:href="#hd"/>
<path d="M316.50 241.00v21.00" class="stroke"/>
<use x="331.40" y="241.00" xlink:href="#hd"/>
<path d="M327.90 241.00v21.00" class="stroke"/>
<use x="342.30" y="244.00" xlink:href="#hd"/>
<path d="M345.80 244.00v-21.00" class="stroke"/>
<use x="367.30" y="235.00" xlink:href="#hd"/>
<path d="M363.80 235.00v21.00" class="stroke"/>
<path class="fill"
	d="M381.30 220.50l10.30 2.00v3.20l-10.30 -2.00"/>
<use x="378.10" y="241.00" xlink:href="#hd"/>
<path d="M381.60 241.00v-19.40" class="stroke"/>
<use x="387.70" y="244.00" xlink:href="#hd"/>
<path d="M391.20 244.00v-20.60" class="stroke"/>
<path class="fill"
	d="M400.80 219.80l29.50 -4.00v3.20l-29.50 4.00"/>
<use x="397.70" y="247.00" xlink:href="#hd"/>
<path d="M401.20 247.00v-26.30" class="stroke"/>
<use x="407.30" y="241.00" xlink:href="#hd"/>
<path d="M410.80 241.00v-21.60" class="stroke"/>
<use x="416.90" y="247.00" xlink:href="#hd"/>
<path d="M420.40 247.00v-28.90" class="stroke"/>
<use x="426.50" y="235.00" xlink:href="#hd"/>
<path d="M430.00 235.00v-18.20" class="stroke"/>
<use x="451.50" y="244.00" xlink:href="#hd"/>
<path d="M455.00 244.00v-21.00" class="stroke"/>
<path class="fill"
	d="M466.00 220.50l10.30 2.00v3.20l-10.30 -2.00"/>
<use x="462.90" y="241.00" xlink:href="#hd"/>
<path d="M466.40 241.00v-19.40" class="stroke"/>
<use x="472.50" y="244.00" xlink:href="#hd"/>
<path d="M476.00 244.00v-20.60" class="stroke"/>
<path class="fill"
	d="M485.60 226.00l29.50 0.00v3.20l-29.50 -0.00"/>
<use x="482.40" y="247.00" xlink:href="#hd"/>
<path d="M485.90 247.00v-20.00" class="stroke"/>
<use x="492.00" y="256.00" xlink:href="#hd"/>
<path d="M495.50 256.00v-29.00" class="stroke"/>
<use x="501.60" y="247.00" xlink:href="#hd"/>
<path d="M505.10 247.00v-20.00" class="stroke"/>
<use x="511.20" y="244.00" xlink:href="#hd"/>
<path d="M514.70 244.00v-17.00" class="stroke"/>
<path class="fill"
	d="M539.40 232.00l29.50 0.00v3.20l-29.50 -0.00"/>
<use x="536.20" y="253.00" xlink:href="#hd"/>
<path d="M539.70 253.00v-20.00" class="stroke"/>
<use x="545.80" y="256.00" xlink:href="#hd"/>
<path d="M549.30 256.00v-23.00" class="stroke"/>
<use x="555.40" y="253.00" xlink:href="#hd"/>
<path d="M558.90 253.00v-20.00" class="stroke"/>
<use x="565.00" y="250.00" xlink:href="#hd"/>
<path d="M568.50 250.00v-17.00" class="stroke"/>
<path class="fill"
	d="M578.10 220.60l29.50 -4.80v3.20l-29.50 4.80"/>
<use x="574.90" y="247.00" xlink:href="#hd"/>
<path d="M578.40 247.00v-25.50" class="stroke"/>
<use x="584.50" y="244.00" xlink:href="#hd"/>
<path d="M588.00 244.00v-24.10" class="stroke"/>
<use x="594.10" y="241.00" xlink:href="#hd"/>
<path d="M597.60 241.00v-22.60" class="stroke"/>
<use x="603.70" y="235.00" xlink:href="#hd"/>
<path d="M607.20 235.00v-18.20" class="stroke"/>
<use x="628.70" y="241.00" xlink:href="#hd"/>
<path d="M632.20 241.00v-21.00" class="stroke"/>
<use x="640.10" y="244.00" xlink:href="#hd"/>
<path d="M643.60 244.00v-21.00" class="stroke"/>
<defs>
<path id="ghd" class="fill" d="m2.2 -1.5
	c-1.32 -2.31 -5.94 0.33 -4.62 2.64
	1.32 2.31 5.94 -0.33 4.62 -2.64"/>
</defs>
<use x="651.10" y="247.00" xlink:href="#ghd"/>
<path d="M653.40 247.00v-15.00" class="stroke"/>
<path class="fill"
	d="M653.40 232.00c0.6 3.4 5.6 3.8 3 10
	1.2 -4.4 -1.4 -7 -3 -7
"/>
<path class="stroke"
	d="M651.10 252.00c2.10 3.00 8.40 3.00 10.50 -0.00"/>
<use x="662.60" y="247.00" xlink:href="#Hd"/>
<path d="M666.10 247.00v-21.00" class="stroke"/>
</g>
<g stroke-width="0.70" style="font:italic 14.00px Times">
<use x="61.50" y="330.00" xlink:href="#rdots"/>
<path class="stroke" stroke-width="1"
	d="M57.50 330.00v-24.00"/>
<path class="stroke" stroke-width="3"
	d="M53.00 330.00v-24.00"/>
<path class="stroke" stroke-width="1"
	d="M158.00 330.00v-24.00"/>
<path class="stroke" stroke-width="1"
	d="M241.60 330.00v-24.00"/>
<path class="stroke" stroke-width="1"
	d="M313.60 330.00v-24.00"/>
<path class="stroke" stroke-width="1"
	d="M381.80 330.00v-24.00"/>
<path class="stroke" stroke-width="1"
	d="M469.90 330.00v-24.00"/>
<path class="stroke" stroke-width="1"
	d="M553.50 330.00v-24.00"/>
<path class="stroke" stroke-width="1"
	d="M641.50 330.00v-24.00"/>
<path class="stroke" stroke-width="3"
	d="M690.10 330.00v-24.00"/>
<path class="stroke" stroke-width="1"
	d="M685.60 330.00v-24.00"/>
<use x="681.60" y="330.00" xlink:href="#rdots"/>
<path d="m10.00 330.00
	h681.60
	M10.00 324.00
	h681.60
	M10.00 318.00
	h681.60
	M10.00 312.00
	h681.60
	M10.00 306.00
	h681.60
	" class="stroke"/>
<text x="10.00" y="292.00">25</text>
<use x="22.00" y="324.00" xlink:href="#tclef"/>
<use x="37.00" y="306.00" xlink:href="#sh0"/>
<path class="fill"
	d="M71.20 330.20l30.70 0.00v-3.20l-30.70 -0.00"/>
<use x="75.00" y="312.00" xlink:href="#hd"/>
<path d="M71.50 312.00v17.20" class="stroke"/>
<use x="85.00" y="303.00" xlink:href="#hd"/>
<path d="M81.50 303.00v26.20" class="stroke"/>
<use x="95.00" y="306.00" xlink:href="#hd"/>
<path d="M91.50 306.00v23.20" class="stroke"/>
<use x="105.00" y="303.00" xlink:href="#hd"/>
<path d="M101.50 303.00v26.20" class="stroke"/>
<path class="fill"
	d="M111.70 322.60l30.70 5.80v-3.20l-30.70 -5.80"/>
<use x="115.50" y="300.00" xlink:href="#hl"/>
<use x="115.50" y="300.00" xlink:href="#hd"/>
<path d="M112.00 300.00v21.70" class="stroke"/>
<use x="125.50" y="303.00" xlink:href="#hd"/>
<path d="M122.00 303.00v20.60" class="stroke"/>
<use x="135.50" y="306.00" xlink:href="#hd"/>
<path d="M132.00 306.00v19.40" class="stroke"/>
<use x="145.50" y="309.00" xlink:href="#hd"/>
<path d="M142.00 309.00v18.30" class="stroke"/>
<path class="fill"
	d="M166.70 333.00l30.70 0.00v-3.20l-30.70 -0.00"/>
<use x="170.50" y="309.00" xlink:href="#hd"/>
<path d="M167.00 309.00v23.00" class="stroke"/>
<use x="180.50" y="303.00" xlink:href="#hd"/>
<path d="M177.00 303.00v29.00" class="stroke"/>
<use x="190.50" y="315.00" xlink:href="#hd"/>
<path d="M187.00 315.00v17.00" class="stroke"/>
<use x="200.50" y="309.00" xlink:href="#hd"/>
<path d="M197.00 309.00v23.00" class="stroke"/>
<use x="211.00" y="312.00" xlink:href="#hd"/>
<circle class="fill" cx="218.70" cy="309.00" r="1.2"/>
<path d="M207.50 312.00v21.00" class="stroke"/>
<use x="229.10" y="312.00" xlink:href="#hd"/>
<path d="M225.60 312.00v21.00" class="stroke"/>
<path class="fill"
	d="M225.60 333.00c0.6 -5.6 9.6 -9 5.6 -18.4
	1.6 6 -1.3 11.6 -5.6 12.8
"/>
<use x="254.10" y="312.00" xlink:href="#hd"/>
<path d="M250.60 312.00v21.00" class="stroke"/>
<use x="266.70" y="318.00" xlink:href="#hd"/>
<path d="M263.20 318.00v21.00" class="stroke"/>
<use x="279.20" y="318.00" xlink:href="#hd"/>
<path d="M275.70 318.00v21.00" class="stroke"/>
<path class="fill"
	d="M294.20 300.50l10.70 2.00v3.20l-10.70 -2.00"/>
<use x="291.10" y="321.00" xlink:href="#hd"/>
<path d="M294.60 321.00v-19.40" class="stroke"/>
<use x="301.10" y="324.00" xlink:href="#hd"/>
<path d="M304.60 324.00v-20.60" class="stroke"/>
<path class="fill"
	d="M329.20 304.40l30.70 -5.80v3.20l-30.70 5.80"/>
<use x="326.10" y="327.00" xlink:href="#hd"/>
<path d="M329.60 327.00v-21.70" class="stroke"/>
<use x="336.10" y="324.00" xlink:href="#hd"/>
<path d="M339.60 324.00v-20.60" class="stroke"/>
<use x="346.10" y="321.00" xlink:href="#hd"/>
<path d="M349.60 321.00v-19.40" class="stroke"/>
<use x="356.10" y="318.00" xlink:href="#hd"/>
<path d="M359.60 318.00v-18.30" class="stroke"/>
<use x="366.90" y="321.00" xlink:href="#Hd"/>
<path d="M370.40 321.00v-21.00" class="stroke"/>
<use x="394.30" y="312.00" xlink:href="#hd"/>
<path d="M390.80 312.00v21.00" class="stroke"/>
<path class="fill"
	d="M403.00 329.50l10.70 -2.00v-3.20l-10.70 2.00"/>
<use x="406.90" y="309.00" xlink:href="#hd"/>
<path d="M403.40 309.00v19.40" class="stroke"/>
<use x="416.90" y="306.00" xlink:href="#hd"/>
<path d="M413.40 306.00v20.60" class="stroke"/>
<path class="fill"
	d="M423.50 325.60l30.70 5.80v-3.20l-30.70 -5.80"/>
<use x="427.40" y="303.00" xlink:href="#hd"/>
<path d="M423.90 303.00v21.70" class="stroke"/>
<use x="437.40" y="306.00" xlink:href="#hd"/>
<path d="M433.90 306.00v20.60" class="stroke"/>
<use x="447.40" y="309.00" xlink:href="#hd"/>
<path d="M443.90 309.00v19.40" class="stroke"/>
<use x="457.40" y="312.00" xlink:href="#hd"/>
<path d="M453.90 312.00v18.30" class="stroke"/>
<path class="fill"
	d="M478.50 333.00l30.70 0.00v-3.20l-30.70 -0.00"/>
<use x="482.40" y="309.00" xlink:href="#hd"/>
<path d="M478.90 309.00v23.00" class="stroke"/>
<use x="492.40" y="303.00" xlink:href="#hd"/>
<path d="M488.90 303.00v29.00" class="stroke"/>
<use x="502.40" y="315.00" xlink:href="#hd"/>
<path d="M498.90 315.00v17.00" class="stroke"/>
<use x="512.40" y="309.00" xlink:href="#hd"/>
<path d="M508.90 309.00v23.00" class="stroke"/>
<use x="522.90" y="312.00" xlink:href="#hd"/>
<circle class="fill" cx="530.60" cy="309.00" r="1.2"/>
<path d="M519.40 312.00v21.00" class="stroke"/>
<use x="541.00" y="312.00" xlink:href="#hd"/>
<path d="M537.50 312.00v21.00" class="stroke"/>
<path class="fill"
	d="M537.50 333.00c0.6 -5.6 9.6 -9 5.6 -18.4
	1.6 6 -1.3 11.6 -5.6 12.8
"/>
<path class="fill"
	d="M562.20 329.50l10.70 -2.00v-3.20l-10.70 2.00"/>
<use x="566.00" y="309.00" xlink:href="#hd"/>
<path d="M562.50 309.00v19.40" class="stroke"/>
<use x="576.00" y="306.00" xlink:href="#hd"/>
<path d="M572.50 306.00v20.60" class="stroke"/>
<use x="586.50" y="303.00" xlink:href="#hd"/>
<path d="M583.00 303.00v21.00" class="stroke"/>
<path class="fill"
	d="M595.20 324.20l30.70 0.00v-3.20l-30.70 -0.00"/>
<use x="599.00" y="306.00" xlink:href="#hd"/>
<path d="M595.50 306.00v17.20" class="stroke"/>
<use x="609.00" y="303.00" xlink:href="#hd"/>
<path d="M605.50 303.00v20.20" class="stroke"/>
<use x="619.00" y="300.00" xlink:href="#hl"/>
<use x="619.00" y="300.00" xlink:href="#hd"/>
<path d="M615.50 300.00v23.20" class="stroke"/>
<use x="629.00" y="306.00" xlink:href="#hd"/>
<path d="M625.50 306.00v17.20" class="stroke"/>
<use x="654.50" y="303.00" xlink:href="#Hd"/>
<path d="M651.00 303.00v21.00" class="stroke"/>
<use x="670.60" y="303.00" xlink:href="#Hd"/>
<path d="M667.10 303.00v21.00" class="stroke"/>
</g>
<g stroke-width="0.70" style="font:italic 14.00px Times">
<path class="stroke" stroke-width="1"
	d="M123.50 407.70v-24.00"/>
<path class="stroke" stroke-width="1"
	d="M203.60 407.70v-24.00"/>
<path class="stroke" stroke-width="1"
	d="M316.60 407.70v-24.00"/>
<path class="stroke" stroke-width="1"
	d="M389.40 407.70v-24.00"/>
<path class="stroke" stroke-width="1"
	d="M459.10 407.70v-24.00"/>
<path class="stroke" stroke-width="1"
	d="M529.40 407.70v-24.00"/>
<path class="stroke" stroke-width="1"
	d="M625.20 407.70v-24.00"/>
<path class="stroke" stroke-width="3"
	d="M690.10 407.70v-24.00"/>
<path class="stroke" stroke-width="1"
	d="M685.60 407.70v-24.00"/>
<use x="681.60" y="407.70" xlink:href="#rdots"/>
<path d="m10.00 407.70
	h681.60
	M10.00 401.70
	h681.60
	M10.00 395.70
	h681.60
	M10.00 389.70
	h681.60
	M10.00 383.70
	h681.60
	" class="stroke"/>
<text x="10.00" y="369.70">33</text>
<text style="font:italic 12px serif"
	x="267.90" y="361.00" text-anchor="middle">3</text>
<text style="font:italic 12px serif"
	x="292.80" y="431.10" text-anchor="middle">3</text>
<text style="font:italic 12px serif"
	x="606.00" y="364.20" text-anchor="middle">3</text>
<use x="22.00" y="401.70" xlink:href="#tclef"/>
<use x="37.00" y="383.70" xlink:href="#sh0"/>
<use x="55.00" y="389.70" xlink:href="#hd"/>
<path d="M51.50 389.70v21.00" class="stroke"/>
<path class="fill"
	d="M63.40 407.20l10.70 -2.00v-3.20l-10.70 2.00"/>
<use x="67.30" y="386.70" xlink:href="#hd"/>
<path d="M63.80 386.70v19.40" class="stroke"/>
<use x="77.30" y="383.70" xlink:href="#hd"/>
<path d="M73.80 383.70v20.60" class="stroke"/>
<use x="87.80" y="380.70" xlink:href="#hd"/>
<path d="M84.30 380.70v21.00" class="stroke"/>
<use x="98.80" y="383.70" xlink:href="#ghd"/>
<path d="M101.10 383.70v-15.00" class="stroke"/>
<path class="fill"
	d="M101.10 368.70c0.6 3.4 5.6 3.8 3 10
	1.2 -4.4 -1.4 -7 -3 -7
"/>
<path class="stroke"
	d="M98.80 388.70c1.40 2.20 5.60 0.40 7.00 -3.00"/>
<use x="110.80" y="380.70" xlink:href="#hd"/>
<path d="M107.30 380.70v21.00" class="stroke"/>
<use x="136.00" y="398.70" xlink:href="#hd"/>
<path d="M139.50 398.70v-21.00" class="stroke"/>
<path class="fill"
	d="M151.50 375.20l10.70 2.00v3.20l-10.70 -2.00"/>
<use x="148.30" y="395.70" xlink:href="#hd"/>
<path d="M151.80 395.70v-19.40" class="stroke"/>
<use x="158.30" y="398.70" xlink:href="#hd"/>
<path d="M161.80 398.70v-20.60" class="stroke"/>
<use x="168.80" y="401.70" xlink:href="#hd"/>
<path d="M172.30 401.70v-21.00" class="stroke"/>
<use x="179.80" y="407.70" xlink:href="#ghd"/>
<path d="M182.10 407.70v-15.00" class="stroke"/>
<path class="fill"
	d="M182.10 392.70c0.6 3.4 5.6 3.8 3 10
	1.2 -4.4 -1.4 -7 -3 -7
"/>
<path class="stroke"
	d="M179.80 412.70c2.00 3.60 8.00 5.40 10.00 3.00"/>
<use x="190.80" y="410.70" xlink:href="#hd"/>
<path d="M194.30 410.70v-21.00" class="stroke"/>
<path class="fill"
	d="M219.20 386.70l30.70 0.00v3.20l-30.70 -0.00"/>
<use x="216.10" y="407.70" xlink:href="#hd"/>
<path d="M219.60 407.70v-20.00" class="stroke"/>
<use x="226.10" y="410.70" xlink:href="#hd"/>
<path d="M229.60 410.70v-23.00" class="stroke"/>
<use x="236.10" y="407.70" xlink:href="#hd"/>
<path d="M239.60 407.70v-20.00" class="stroke"/>
<use x="246.10" y="404.70" xlink:href="#hd"/>
<path d="M249.60 404.70v-17.00" class="stroke"/>
<path class="fill"
	d="M259.70 372.70l18.70 -5.30v3.20l-18.70 5.30"/>
<path class="fill"
	d="M260.10 377.60l18.00 -5.10v3.20l-18.00 5.10"/>
<use x="256.60" y="401.70" xlink:href="#hd"/>
<path d="M260.10 401.70v-28.10" class="stroke"/>
<use x="265.60" y="395.70" xlink:href="#hd"/>
<path d="M269.10 395.70v-24.60" class="stroke"/>
<use x="274.60" y="389.70" xlink:href="#hd"/>
<path d="M278.10 389.70v-21.20" class="stroke"/>
<path class="fill"
	d="M282.20 413.30l18.70 4.70v-3.20l-18.70 -4.70"/>
<path class="fill"
	d="M282.60 408.40l18.00 4.50v-3.20l-18.00 -4.50"/>
<use x="286.10" y="380.70" xlink:href="#hd"/>
<path d="M282.60 380.70v31.70" class="stroke"/>
<use x="295.10" y="389.70" xlink:href="#hd"/>
<path d="M291.60 389.70v25.00" class="stroke"/>
<use x="304.10" y="395.70" xlink:href="#hd"/>
<path d="M300.60 395.70v21.20" class="stroke"/>
<use x="329.10" y="392.70" xlink:href="#hd"/>
<path d="M325.60 392.70v21.00" class="stroke"/>
<use x="341.40" y="395.70" xlink:href="#hd"/>
<path d="M337.90 395.70v21.00" class="stroke"/>
<use x="353.60" y="395.70" xlink:href="#hd"/>
<path d="M350.10 395.70v21.00" class="stroke"/>
<use x="364.60" y="401.70" xlink:href="#ghd"/>
<path d="M366.90 401.70v-15.00" class="stroke"/>
<path class="fill"
	d="M366.90 386.70c0.6 3.4 5.6 3.8 3 10
	1.2 -4.4 -1.4 -7 -3 -7
"/>
<path class="stroke"
	d="M364.60 406.70c2.20 2.40 8.80 0.60 11.00 -3.00"/>
<use x="376.60" y="398.70" xlink:href="#hd"/>
<path d="M380.10 398.70v-21.00" class="stroke"/>
<use x="401.90" y="389.70" xlink:href="#hd"/>
<path d="M398.40 389.70v21.00" class="stroke"/>
<path class="fill"
	d="M416.70 375.20l10.70 2.00v3.20l-10.70 -2.00"/>
<use x="413.60" y="395.70" xlink:href="#hd"/>
<path d="M417.10 395.70v-19.40" class="stroke"/>
<use x="423.60" y="398.70" xlink:href="#hd"/>
<path d="M427.10 398.70v-20.60" class="stroke"/>
<use x="434.00" y="401.70" xlink:href="#hd"/>
<path d="M437.50 401.70v-21.00" class="stroke"/>
<use x="446.30" y="401.70" xlink:href="#hd"/>
<path d="M449.80 401.70v-21.00" class="stroke"/>
<use x="471.60" y="398.70" xlink:href="#hd"/>
<path d="M475.10 398.70v-21.00" class="stroke"/>
<path class="fill"
	d="M487.00 375.20l10.70 2.00v3.20l-10.70 -2.00"/>
<use x="483.90" y="395.70" xlink:href="#hd"/>
<path d="M487.40 395.70v-19.40" class="stroke"/>
<use x="493.90" y="398.70" xlink:href="#hd"/>
<path d="M497.40 398.70v-20.60" class="stroke"/>
<use x="504.30" y="401.70" xlink:href="#hd"/>
<path d="M507.80 401.70v-21.00" class="stroke"/>
<use x="516.60" y="410.70" xlink:href="#hd"/>
<path d="M520.10 410.70v-21.00" class="stroke"/>
<path class="fill"
	d="M545.10 386.70l30.70 0.00v3.20l-30.70 -0.00"/>
<use x="541.90" y="407.70" xlink:href="#hd"/>
<path d="M545.40 407.70v-20.00" class="stroke"/>
<use x="551.90" y="410.70" xlink:href="#hd"/>
<path d="M555.40 410.70v-23.00" class="stroke"/>
<use x="561.90" y="407.70" xlink:href="#hd"/>
<path d="M565.40 407.70v-20.00" class="stroke"/>
<use x="571.90" y="404.70" xlink:href="#hd"/>
<path d="M575.40 404.70v-17.00" class="stroke"/>
<use x="582.40" y="401.70" xlink:href="#hd"/>
<path d="M585.90 401.70v-21.00" class="stroke"/>
<path class="fill"
	d="M597.90 374.10l18.70 -3.70v3.20l-18.70 3.70"/>
<path class="fill"
	d="M598.20 379.10l18.00 -3.60v3.20l-18.00 3.60"/>
<use x="594.70" y="398.70" xlink:href="#hd"/>
<path d="M598.20 398.70v-23.60" class="stroke"/>
<use x="603.70" y="395.70" xlink:href="#hd"/>
<path d="M607.20 395.70v-22.40" class="stroke"/>
<use x="612.70" y="392.70" xlink:href="#hd"/>
<path d="M616.20 392.70v-21.20" class="stroke"/>
<use x="637.70" y="395.70" xlink:href="#hd"/>
<path d="M641.20 395.70v-21.00" class="stroke"/>
<use x="650.00" y="398.70" xlink:href="#hd"/>
<path d="M653.50 398.70v-21.00" class="stroke"/>
<use x="662.60" y="401.70" xlink:href="#Hd"/>
<path d="M666.10 401.70v-21.00" class="stroke"/>
</g>
<g stroke-width="0.70" style="font:italic 14.00px Times">
<use x="61.50" y="485.08" xlink:href="#rdots"/>
<path class="stroke" stroke-width="1"
	d="M57.50 485.08v-24.00"/>
<path class="stroke" stroke-width="3"
	d="M53.00 485.08v-24.00"/>
<path class="stroke" stroke-width="1"
	d="M150.60 485.08v-24.00"/>
<path class="stroke" stroke-width="1"
	d="M218.40 485.08v-24.00"/>
<path class="stroke" stroke-width="1"
	d="M313.40 485.08v-24.00"/>
<path class="stroke" stroke-width="1"
	d="M381.70 485.08v-24.00"/>
<path class="stroke" stroke-width="1"
	d="M469.80 485.08v-24.00"/>
<path class="stroke" stroke-width="1"
	d="M553.50 485.08v-24.00"/>
<path class="stroke" stroke-width="1"
	d="M641.50 485.08v-24.00"/>
<path class="stroke" stroke-width="3"
	d="M690.10 485.08v-24.00"/>
<path class="stroke" stroke-width="1"
	d="M685.60 485.08v-24.00"/>
<use x="681.60" y="485.08" xlink:href="#rdots"/>
<path d="m10.00 485.08
	h681.60
	M10.00 479.08
	h681.60
	M10.00 473.08
	h681.60
	M10.00 467.08
	h681.60
	M10.00 461.08
	h681.60
	" class="stroke"/>
<text x="10.00" y="447.08">39</text>
<text style="font:italic 12px serif"
	x="169.80" y="498.58" text-anchor="middle">3</text>
<use x="22.00" y="479.08" xlink:href="#tclef"/>
<use x="37.00" y="461.08" xlink:href="#sh0"/>
<use x="75.00" y="467.08" xlink:href="#hd"/>
<path d="M71.50 467.08v21.00" class="stroke"/>
<path class="fill"
	d="M83.70 484.58l10.70 -2.00v-3.20l-10.70 2.00"/>
<use x="87.50" y="464.08" xlink:href="#hd"/>
<path d="M84.00 464.08v19.40" class="stroke"/>
<use x="97.60" y="461.08" xlink:href="#hd"/>
<path d="M94.10 461.08v20.60" class="stroke"/>
<path class="fill"
	d="M104.20 480.68l30.70 5.80v-3.20l-30.70 -5.80"/>
<use x="108.10" y="458.08" xlink:href="#hd"/>
<path d="M104.60 458.08v21.70" class="stroke"/>
<use x="118.10" y="461.08" xlink:href="#hd"/>
<path d="M114.60 461.08v20.60" class="stroke"/>
<use x="128.10" y="464.08" xlink:href="#hd"/>
<path d="M124.60 464.08v19.40" class="stroke"/>
<use x="138.10" y="467.08" xlink:href="#hd"/>
<path d="M134.60 467.08v18.30" class="stroke"/>
<path class="fill"
	d="M159.20 483.98l18.70 -3.70v-3.20l-18.70 3.70"/>
<use x="163.10" y="464.08" xlink:href="#hd"/>
<path d="M159.60 464.08v18.80" class="stroke"/>
<use x="172.10" y="461.08" xlink:href="#hd"/>
<path d="M168.60 461.08v20.00" class="stroke"/>
<use x="181.10" y="458.08" xlink:href="#hd"/>
<path d="M177.60 458.08v21.20" class="stroke"/>
<use x="190.60" y="464.08" xlink:href="#hd"/>
<path d="M187.10 464.08v21.00" class="stroke"/>
<use x="203.40" y="464.08" xlink:href="#Hd"/>
<path d="M199.90 464.08v21.00" class="stroke"/>
<path class="fill"
	d="M227.00 489.68l30.70 5.80v-3.20l-30.70 -5.80"/>
<use x="230.90" y="467.08" xlink:href="#hd"/>
<path d="M227.40 467.08v21.70" class="stroke"/>
<use x="240.90" y="470.08" xlink:href="#hd"/>
<path d="M237.40 470.08v20.60" class="stroke"/>
<use x="250.90" y="473.08" xlink:href="#hd"/>
<path d="M247.40 473.08v19.40" class="stroke"/>
<use x="260.90" y="476.08" xlink:href="#hd"/>
<path d="M257.40 476.08v18.30" class="stroke"/>
<path class="fill"
	d="M274.10 453.88l30.70 0.00v3.20l-30.70 -0.00"/>
<use x="270.90" y="473.08" xlink:href="#hd"/>
<path d="M274.40 473.08v-18.20" class="stroke"/>
<use x="280.90" y="476.08" xlink:href="#hd"/>
<path d="M284.40 476.08v-21.20" class="stroke"/>
<use x="290.90" y="479.08" xlink:href="#hd"/>
<path d="M294.40 479.08v-24.20" class="stroke"/>
<use x="300.90" y="476.08" xlink:href="#hd"/>
<path d="M304.40 476.08v-21.20" class="stroke"/>
<path class="fill"
	d="M329.10 459.48l30.70 -5.80v3.20l-30.70 5.80"/>
<use x="325.90" y="482.08" xlink:href="#hd"/>
<path d="M329.40 482.08v-21.70" class="stroke"/>
<use x="335.90" y="479.08" xlink:href="#hd"/>
<path d="M339.40 479.08v-20.60" class="stroke"/>
<use x="345.90" y="476.08" xlink:href="#hd"/>
<path d="M349.40 476.08v-19.40" class="stroke"/>
<use x="355.90" y="473.08" xlink:href="#hd"/>
<path d="M359.40 473.08v-18.30" class="stroke"/>
<use x="366.80" y="476.08" xlink:href="#Hd"/>
<path d="M370.30 476.08v-21.00" class="stroke"/>
<use x="394.20" y="467.08" xlink:href="#hd"/>
<path d="M390.70 467.08v21.00" class="stroke"/>
<path class="fill"
	d="M402.90 484.58l10.70 -2.00v-3.20l-10.70 2.00"/>
<use x="406.80" y="464.08" xlink:href="#hd"/>
<path d="M403.30 464.08v19.40" class="stroke"/>
<use x="416.80" y="461.08" xlink:href="#hd"/>
<path d="M413.30 461.08v20.60" class="stroke"/>
<path class="fill"
	d="M423.40 480.68l30.70 5.80v-3.20l-30.70 -5.80"/>
<use x="427.30" y="458.08" xlink:href="#hd"/>
<path d="M423.80 458.08v21.70" class="stroke"/>
<use x="437.30" y="461.08" xlink:href="#hd"/>
<path d="M433.80 461.08v20.60" class="stroke"/>
<use x="447.30" y="464.08" xlink:href="#hd"/>
<path d="M443.80 464.08v19.40" class="stroke"/>
<use x="457.30" y="467.08" xlink:href="#hd"/>
<path d="M453.80 467.08v18.30" class="stroke"/>
<path class="fill"
	d="M478.40 488.08l30.70 0.00v-3.20l-30.70 -0.00"/>
<use x="482.30" y="464.08" xlink:href="#hd"/>
<path d="M478.80 464.08v23.00" class="stroke"/>
<use x="492.30" y="458.08" xlink:href="#hd"/>
<path d="M488.80 458.08v29.00" class="stroke"/>
<use x="502.30" y="470.08" xlink:href="#hd"/>
<path d="M498.80 470.08v17.00" class="stroke"/>
<use x="512.30" y="464.08" xlink:href="#hd"/>
<path d="M508.80 464.08v23.00" class="stroke"/>
<use x="522.80" y="467.08" xlink:href="#hd"/>
<circle class="fill" cx="530.50" cy="464.08" r="1.2"/>
<path d="M519.30 467.08v21.00" class="stroke"/>
<use x="541.00" y="467.08" xlink:href="#hd"/>
<path d="M537.50 467.08v21.00" class="stroke"/>
<path class="fill"
	d="M537.50 488.08c0.6 -5.6 9.6 -9 5.6 -18.4
	1.6 6 -1.3 11.6 -5.6 12.8
"/>
<path class="fill"
	d="M562.10 484.58l10.70 -2.00v-3.20l-10.70 2.00"/>
<use x="566.00" y="464.08" xlink:href="#hd"/>
<path d="M562.50 464.08v19.40" class="stroke"/>
<use x="576.00" y="461.08" xlink:href="#hd"/>
<path d="M572.50 461.08v20.60" class="stroke"/>
<use x="586.50" y="458.08" xlink:href="#hd"/>
<path d="M583.00 458.08v21.00" class="stroke"/>
<path class="fill"
	d="M595.20 479.28l30.70 0.00v-3.20l-30.70 -0.00"/>
<use x="599.00" y="461.08" xlink:href="#hd"/>
<path d="M595.50 461.08v17.20" class="stroke"/>
<use x="609.00" y="458.08" xlink:href="#hd"/>
<path d="M605.50 458.08v20.20" class="stroke"/>
<use x="619.00" y="455.08" xlink:href="#hl"/>
<use x="619.00" y="455.08" xlink:href="#hd"/>
<path d="M615.50 455.08v23.20" class="stroke"/>
<use x="629.00" y="461.08" xlink:href="#hd"/>
<path d="M625.50 461.08v17.20" class="stroke"/>
<use x="654.50" y="458.08" xlink:href="#Hd"/>
<path d="M651.00 458.08v21.00" class="stroke"/>
<use x="670.60" y="458.08" xlink:href="#Hd"/>
<path d="M667.10 458.08v21.00" class="stroke"/>
<text style="font:16px serif"
	x="670.60" y="445.88" text-anchor="middle">D.C.</text>
</g>
</svg>
