<?xml version="1.0" standalone="no"?>
<!DOCTYPE svg PUBLIC "-//W3C//DTD SVG 1.1//EN"
	"http://www.w3.org/Graphics/SVG/1.1/DTD/svg11.dtd">
<svg xmlns="http://www.w3.org/2000/svg" version="1.1"
	xmlns:xlink="http://www.w3.org/1999/xlink"
	color="black"
	width="701.60px" height="296.00px">
<style type="text/css">
.fill {fill: currentColor}
.stroke {stroke: currentColor; fill: none}
text{white-space: pre}
</style>
<title>/media/tim/Data1/tims_code/sphinx-tunes/source/_abcfiles/Tims Hornpipe c (4) tune 1</title>
<!-- Creator: abcm2ps-8.14.6 -->
<!-- CreationDate: Jul 30, 2023 12:21 -->
<!-- CommandLine: -g '/media/tim/Data1/tims_code/sphinx-tunes/source/_abcfiles/Tims Hornpipe copy.abc' -O '/media/tim/Data1/tims_code/sphinx-tunes/source/_abcfiles/Tims Hornpipe copy.svg' -->
<g stroke-width="0.70">
<!-- title: The Accidental Polska -->
</g>
<g stroke-width="0.70" style="font:20.00px Times">
<text x="350.80" y="22.00" text-anchor="middle">The Accidental Polska</text>
</g>
<g stroke-width="0.70" style="font:italic 14.00px Times">
<text x="691.60" y="46.00" text-anchor="end">Tim Pillinger</text>
</g>
<g stroke-width="0.70" style="font:italic 14.00px Times">
<path class="stroke" stroke-width="1"
	d="M198.00 99.00v-24.00"/>
<path class="stroke" stroke-width="1"
	d="M198.00 157.00v-24.00"/>
<path class="stroke" stroke-width="1"
	d="M198.00 215.00v-24.00"/>
<path class="stroke" stroke-width="1"
	d="M198.00 273.00v-24.00"/>
<path class="stroke" stroke-width="1"
	d="M360.10 99.00v-24.00"/>
<path class="stroke" stroke-width="1"
	d="M360.10 157.00v-24.00"/>
<path class="stroke" stroke-width="1"
	d="M360.10 215.00v-24.00"/>
<path class="stroke" stroke-width="1"
	d="M360.10 273.00v-24.00"/>
<path class="stroke" stroke-width="1"
	d="M521.20 99.00v-24.00"/>
<path class="stroke" stroke-width="1"
	d="M521.20 157.00v-24.00"/>
<path class="stroke" stroke-width="1"
	d="M521.20 215.00v-24.00"/>
<path class="stroke" stroke-width="1"
	d="M521.20 273.00v-24.00"/>
<path class="stroke" stroke-width="1"
	d="M691.60 99.00v-24.00"/>
<path class="stroke" stroke-width="3"
	d="M690.10 157.00v-24.00"/>
<path class="stroke" stroke-width="1"
	d="M685.60 157.00v-24.00"/>
<defs>
<g id="rdots" class="fill">
	<circle cx="0" cy="-9" r="1.2"/>
	<circle cx="0" cy="-15" r="1.2"/>
</g>
</defs>
<use x="681.60" y="157.00" xlink:href="#rdots"/>
<path class="stroke" stroke-width="1"
	d="M691.60 215.00v-24.00"/>
<path class="stroke" stroke-width="3"
	d="M690.10 273.00v-24.00"/>
<path class="stroke" stroke-width="1"
	d="M685.60 273.00v-24.00"/>
<use x="681.60" y="273.00" xlink:href="#rdots"/>
<path d="m10.00 99.00
	h681.60
	M10.00 93.00
	h681.60
	M10.00 87.00
	h681.60
	M10.00 81.00
	h681.60
	M10.00 75.00
	h681.60
	" class="stroke"/>
<path d="m10.00 157.00
	h681.60
	M10.00 151.00
	h681.60
	M10.00 145.00
	h681.60
	M10.00 139.00
	h681.60
	M10.00 133.00
	h681.60
	" class="stroke"/>
<path d="m10.00 215.00
	h681.60
	M10.00 209.00
	h681.60
	M10.00 203.00
	h681.60
	M10.00 197.00
	h681.60
	M10.00 191.00
	h681.60
	" class="stroke"/>
<path d="m10.00 273.00
	h681.60
	M10.00 267.00
	h681.60
	M10.00 261.00
	h681.60
	M10.00 255.00
	h681.60
	M10.00 249.00
	h681.60
	" class="stroke"/>
<text style="font:italic 12px serif"
	x="392.10" y="108.00" text-anchor="middle">3</text>
<text style="font:italic 12px serif"
	x="392.10" y="166.00" text-anchor="middle">3</text>
<text style="font:italic 12px serif"
	x="279.30" y="289.70" text-anchor="middle">3</text>
<defs>
<path id="utclef" class="fill" d="m-50 -90
	c-72 -41 -72 -158 52 -188
	150 -10 220 188 90 256
	-114 52 -275 0 -293 -136
	-15 -181 93 -229 220 -334
	88 -87 79 -133 62 -210
	-51 33 -94 105 -89 186
	17 267 36 374 49 574
	6 96 -19 134 -77 135
	-80 1 -126 -93 -61 -133
	85 -41 133 101 31 105
	23 17 92 37 90 -92
	-10 -223 -39 -342 -50 -617
	0 -90 0 -162 96 -232
	56 72 63 230 22 289
	-74 106 -257 168 -255 316
	9 153 148 185 252 133
	86 -65 29 -192 -80 -176
	-71 12 -105 67 -59 124"/>
<use id="tclef" transform="translate(0,6) scale(0.045)"
	xlink:href="#utclef"/>
</defs>
<use x="22.00" y="93.00" xlink:href="#tclef"/>
<defs>
<path id="usharp" class="fill" d="
	m136 -702
	v890
	h32
	v-890
	m128 840
	h32
	v-888
	h-32
	m-232 286
	v116
	l338 -96
	v-116
	m-338 442
	v116
	l338 -98
	v-114"/>
<use id="sh0" transform="translate(-4,5) scale(0.018)"
	xlink:href="#usharp"/>
</defs>
<use x="37.00" y="75.00" xlink:href="#sh0"/>
<g style="font:bold 16px serif"
	transform="translate(53.00,98.50) scale(1.2,1)">
	<text text-anchor="middle">4</text>
	<text y="-12" text-anchor="middle">3</text>
</g>
<path class="fill"
	d="M74.20 69.10l29.90 -4.40v3.20l-29.90 4.40"/>
<path class="fill"
	d="M96.70 70.80l7.00 -1.00v3.20l-7.00 1.00"/>
<defs>
<ellipse id="hd" rx="4.1" ry="2.9"
	transform="rotate(-20)" class="fill"/>
</defs>
<use x="71.00" y="93.00" xlink:href="#hd"/>
<circle class="fill" cx="78.70" cy="90.00" r="1.2"/>
<path d="M74.50 93.00v-22.90" class="stroke"/>
<use x="100.20" y="87.00" xlink:href="#hd"/>
<path d="M103.70 87.00v-21.20" class="stroke"/>
<path class="fill"
	d="M123.50 68.80l29.90 4.40v3.20l-29.90 -4.40"/>
<path class="fill"
	d="M146.10 77.10l7.00 1.00v3.20l-7.00 -1.00"/>
<use x="120.40" y="90.00" xlink:href="#hd"/>
<circle class="fill" cx="128.10" cy="90.00" r="1.2"/>
<path d="M123.90 90.00v-20.10" class="stroke"/>
<use x="149.60" y="96.00" xlink:href="#hd"/>
<path d="M153.10 96.00v-21.90" class="stroke"/>
<use x="169.70" y="93.00" xlink:href="#hd"/>
<path d="M173.20 93.00v-21.00" class="stroke"/>
<path class="fill"
	d="M208.40 109.80l29.90 -2.50v-3.20l-29.90 2.50"/>
<path class="fill"
	d="M230.90 102.90l7.00 -0.60v-3.20l-7.00 0.60"/>
<use x="212.20" y="87.00" xlink:href="#hd"/>
<circle class="fill" cx="219.90" cy="84.00" r="1.2"/>
<path d="M208.70 87.00v21.70" class="stroke"/>
<use x="241.40" y="84.00" xlink:href="#hd"/>
<path d="M237.90 84.00v22.30" class="stroke"/>
<path class="fill"
	d="M257.80 103.90l50.70 -2.70v-3.20l-50.70 2.70"/>
<path class="fill"
	d="M301.20 96.50l7.00 -0.40v-3.20l-7.00 0.40"/>
<use x="261.60" y="81.00" xlink:href="#hd"/>
<circle class="fill" cx="269.30" cy="78.00" r="1.2"/>
<path d="M258.10 81.00v21.80" class="stroke"/>
<use x="311.70" y="78.00" xlink:href="#hd"/>
<path d="M308.20 78.00v22.20" class="stroke"/>
<use x="331.80" y="81.00" xlink:href="#hd"/>
<path d="M328.30 81.00v21.00" class="stroke"/>
<path class="fill"
	d="M370.50 93.20l40.70 0.00v-3.20l-40.70 -0.00"/>
<use x="374.30" y="72.00" xlink:href="#hd"/>
<path d="M370.80 72.00v20.20" class="stroke"/>
<use x="394.40" y="75.00" xlink:href="#hd"/>
<path d="M390.90 75.00v17.20" class="stroke"/>
<use x="414.40" y="72.00" xlink:href="#hd"/>
<path d="M410.90 72.00v20.20" class="stroke"/>
<path class="fill"
	d="M439.70 101.90l29.90 4.40v-3.20l-29.90 -4.40"/>
<path class="fill"
	d="M462.30 100.20l7.00 1.00v-3.20l-7.00 -1.00"/>
<use x="443.60" y="78.00" xlink:href="#hd"/>
<circle class="fill" cx="451.30" cy="78.00" r="1.2"/>
<path d="M440.10 78.00v22.90" class="stroke"/>
<use x="472.80" y="84.00" xlink:href="#hd"/>
<path d="M469.30 84.00v21.20" class="stroke"/>
<use x="492.90" y="90.00" xlink:href="#hd"/>
<path d="M496.40 90.00v-21.00" class="stroke"/>
<path class="fill"
	d="M538.60 73.50l44.50 -2.70v3.20l-44.50 2.70"/>
<path class="fill"
	d="M575.70 76.20l7.00 -0.40v3.20l-7.00 0.40"/>
<use x="535.40" y="96.00" xlink:href="#hd"/>
<circle class="fill" cx="543.10" cy="96.00" r="1.2"/>
<path d="M538.90 96.00v-21.60" class="stroke"/>
<use x="579.20" y="93.00" xlink:href="#hd"/>
<path d="M582.70 93.00v-21.20" class="stroke"/>
<path class="fill"
	d="M602.60 67.70l18.80 -2.30v3.20l-18.80 2.30"/>
<path class="fill"
	d="M609.90 71.80l-7.00 0.90v3.20l7.00 -0.90"/>
<use x="599.40" y="90.00" xlink:href="#hd"/>
<path d="M602.90 90.00v-21.40" class="stroke"/>
<use x="617.50" y="87.00" xlink:href="#hd"/>
<circle class="fill" cx="625.20" cy="84.00" r="1.2"/>
<path d="M621.00 87.00v-20.60" class="stroke"/>
<use x="663.40" y="90.00" xlink:href="#hd"/>
<path d="M666.90 90.00v-21.00" class="stroke"/>
<use x="22.00" y="151.00" xlink:href="#tclef"/>
<use x="37.00" y="133.00" xlink:href="#sh0"/>
<path class="fill"
	d="M74.20 127.10l29.90 -4.40v3.20l-29.90 4.40"/>
<path class="fill"
	d="M96.70 128.80l7.00 -1.00v3.20l-7.00 1.00"/>
<use x="71.00" y="151.00" xlink:href="#hd"/>
<circle class="fill" cx="78.70" cy="148.00" r="1.2"/>
<path d="M74.50 151.00v-22.90" class="stroke"/>
<use x="100.20" y="145.00" xlink:href="#hd"/>
<path d="M103.70 145.00v-21.20" class="stroke"/>
<path class="fill"
	d="M123.50 126.80l29.90 4.40v3.20l-29.90 -4.40"/>
<path class="fill"
	d="M146.10 135.10l7.00 1.00v3.20l-7.00 -1.00"/>
<use x="120.40" y="148.00" xlink:href="#hd"/>
<circle class="fill" cx="128.10" cy="148.00" r="1.2"/>
<path d="M123.90 148.00v-20.10" class="stroke"/>
<use x="149.60" y="154.00" xlink:href="#hd"/>
<path d="M153.10 154.00v-21.90" class="stroke"/>
<use x="169.70" y="151.00" xlink:href="#hd"/>
<path d="M173.20 151.00v-21.00" class="stroke"/>
<path class="fill"
	d="M208.40 167.80l29.90 -2.50v-3.20l-29.90 2.50"/>
<path class="fill"
	d="M230.90 160.90l7.00 -0.60v-3.20l-7.00 0.60"/>
<use x="212.20" y="145.00" xlink:href="#hd"/>
<circle class="fill" cx="219.90" cy="142.00" r="1.2"/>
<path d="M208.70 145.00v21.70" class="stroke"/>
<use x="241.40" y="142.00" xlink:href="#hd"/>
<path d="M237.90 142.00v22.30" class="stroke"/>
<path class="fill"
	d="M257.80 161.90l50.70 -2.70v-3.20l-50.70 2.70"/>
<path class="fill"
	d="M301.20 154.50l7.00 -0.40v-3.20l-7.00 0.40"/>
<use x="261.60" y="139.00" xlink:href="#hd"/>
<circle class="fill" cx="269.30" cy="136.00" r="1.2"/>
<path d="M258.10 139.00v21.80" class="stroke"/>
<use x="311.70" y="136.00" xlink:href="#hd"/>
<path d="M308.20 136.00v22.20" class="stroke"/>
<use x="331.80" y="139.00" xlink:href="#hd"/>
<path d="M328.30 139.00v21.00" class="stroke"/>
<path class="fill"
	d="M370.50 151.20l40.70 0.00v-3.20l-40.70 -0.00"/>
<use x="374.30" y="130.00" xlink:href="#hd"/>
<path d="M370.80 130.00v20.20" class="stroke"/>
<use x="394.40" y="133.00" xlink:href="#hd"/>
<path d="M390.90 133.00v17.20" class="stroke"/>
<use x="414.40" y="130.00" xlink:href="#hd"/>
<path d="M410.90 130.00v20.20" class="stroke"/>
<path class="fill"
	d="M439.70 159.90l29.90 4.40v-3.20l-29.90 -4.40"/>
<path class="fill"
	d="M462.30 158.20l7.00 1.00v-3.20l-7.00 -1.00"/>
<use x="443.60" y="136.00" xlink:href="#hd"/>
<circle class="fill" cx="451.30" cy="136.00" r="1.2"/>
<path d="M440.10 136.00v22.90" class="stroke"/>
<use x="472.80" y="142.00" xlink:href="#hd"/>
<path d="M469.30 142.00v21.20" class="stroke"/>
<use x="492.90" y="148.00" xlink:href="#hd"/>
<path d="M496.40 148.00v-21.00" class="stroke"/>
<path class="fill"
	d="M538.60 130.90l18.80 -3.70v3.20l-18.80 3.70"/>
<path class="fill"
	d="M545.90 134.40l-7.00 1.40v3.20l7.00 -1.40"/>
<use x="535.40" y="154.00" xlink:href="#hd"/>
<path d="M538.90 154.00v-22.20" class="stroke"/>
<use x="553.60" y="148.00" xlink:href="#hd"/>
<circle class="fill" cx="561.30" cy="148.00" r="1.2"/>
<path d="M557.10 148.00v-19.80" class="stroke"/>
<use x="599.40" y="151.00" xlink:href="#hd"/>
<path d="M602.90 151.00v-21.00" class="stroke"/>
<use x="663.40" y="151.00" xlink:href="#hd"/>
<path d="M666.90 151.00v-21.00" class="stroke"/>
<use x="22.00" y="209.00" xlink:href="#tclef"/>
<use x="37.00" y="191.00" xlink:href="#sh0"/>
<path class="fill"
	d="M67.20 211.20l29.90 2.50v-3.20l-29.90 -2.50"/>
<path class="fill"
	d="M89.70 208.10l7.00 0.60v-3.20l-7.00 -0.60"/>
<use x="71.00" y="188.00" xlink:href="#hd"/>
<circle class="fill" cx="78.70" cy="188.00" r="1.2"/>
<path d="M67.50 188.00v22.30" class="stroke"/>
<use x="100.20" y="191.00" xlink:href="#hd"/>
<path d="M96.70 191.00v21.70" class="stroke"/>
<path class="fill"
	d="M116.50 217.20l29.90 2.50v-3.20l-29.90 -2.50"/>
<path class="fill"
	d="M139.10 214.10l7.00 0.60v-3.20l-7.00 -0.60"/>
<use x="120.40" y="194.00" xlink:href="#hd"/>
<circle class="fill" cx="128.10" cy="194.00" r="1.2"/>
<path d="M116.90 194.00v22.30" class="stroke"/>
<use x="149.60" y="197.00" xlink:href="#hd"/>
<path d="M146.10 197.00v21.70" class="stroke"/>
<use x="169.70" y="200.00" xlink:href="#hd"/>
<path d="M166.20 200.00v21.00" class="stroke"/>
<path class="fill"
	d="M208.40 222.80l29.90 -2.50v-3.20l-29.90 2.50"/>
<path class="fill"
	d="M230.90 215.90l7.00 -0.60v-3.20l-7.00 0.60"/>
<use x="212.20" y="200.00" xlink:href="#hd"/>
<circle class="fill" cx="219.90" cy="200.00" r="1.2"/>
<path d="M208.70 200.00v21.70" class="stroke"/>
<use x="241.40" y="197.00" xlink:href="#hd"/>
<path d="M237.90 197.00v22.30" class="stroke"/>
<path class="fill"
	d="M257.80 217.50l50.70 4.90v-3.20l-50.70 -4.90"/>
<path class="fill"
	d="M301.20 216.70l7.00 0.70v-3.20l-7.00 -0.70"/>
<use x="261.60" y="194.00" xlink:href="#hd"/>
<circle class="fill" cx="269.30" cy="194.00" r="1.2"/>
<path d="M258.10 194.00v22.60" class="stroke"/>
<use x="311.70" y="200.00" xlink:href="#hd"/>
<path d="M308.20 200.00v21.40" class="stroke"/>
<use x="331.80" y="206.00" xlink:href="#hd"/>
<path d="M335.30 206.00v-21.00" class="stroke"/>
<path class="fill"
	d="M377.50 183.50l49.70 -2.70v3.20l-49.70 2.70"/>
<path class="fill"
	d="M419.90 186.20l7.00 -0.40v3.20l-7.00 0.40"/>
<use x="374.30" y="206.00" xlink:href="#hd"/>
<circle class="fill" cx="382.00" cy="206.00" r="1.2"/>
<path d="M377.80 206.00v-21.50" class="stroke"/>
<use x="423.40" y="203.00" xlink:href="#hd"/>
<path d="M426.90 203.00v-21.20" class="stroke"/>
<path class="fill"
	d="M446.70 178.80l29.90 4.40v3.20l-29.90 -4.40"/>
<path class="fill"
	d="M469.30 187.10l7.00 1.00v3.20l-7.00 -1.00"/>
<use x="443.60" y="200.00" xlink:href="#hd"/>
<circle class="fill" cx="451.30" cy="200.00" r="1.2"/>
<path d="M447.10 200.00v-20.10" class="stroke"/>
<use x="472.80" y="206.00" xlink:href="#hd"/>
<path d="M476.30 206.00v-21.90" class="stroke"/>
<use x="492.90" y="212.00" xlink:href="#hd"/>
<path d="M496.40 212.00v-21.00" class="stroke"/>
<path class="fill"
	d="M538.60 189.50l44.50 -2.70v3.20l-44.50 2.70"/>
<path class="fill"
	d="M575.70 192.20l7.00 -0.40v3.20l-7.00 0.40"/>
<use x="535.40" y="212.00" xlink:href="#hd"/>
<circle class="fill" cx="543.10" cy="212.00" r="1.2"/>
<path d="M538.90 212.00v-21.60" class="stroke"/>
<use x="579.20" y="209.00" xlink:href="#hd"/>
<path d="M582.70 209.00v-21.20" class="stroke"/>
<path class="fill"
	d="M602.60 184.60l44.50 4.80v3.20l-44.50 -4.80"/>
<path class="fill"
	d="M639.70 193.60l7.00 0.80v3.20l-7.00 -0.80"/>
<use x="599.40" y="206.00" xlink:href="#hd"/>
<circle class="fill" cx="607.10" cy="206.00" r="1.2"/>
<path d="M602.90 206.00v-20.40" class="stroke"/>
<use x="643.20" y="212.00" xlink:href="#hd"/>
<path d="M646.70 212.00v-21.60" class="stroke"/>
<use x="663.40" y="209.00" xlink:href="#hd"/>
<path d="M666.90 209.00v-21.00" class="stroke"/>
<use x="22.00" y="267.00" xlink:href="#tclef"/>
<use x="37.00" y="249.00" xlink:href="#sh0"/>
<path class="fill"
	d="M67.20 269.20l29.90 2.50v-3.20l-29.90 -2.50"/>
<path class="fill"
	d="M89.70 266.10l7.00 0.60v-3.20l-7.00 -0.60"/>
<use x="71.00" y="246.00" xlink:href="#hd"/>
<circle class="fill" cx="78.70" cy="246.00" r="1.2"/>
<path d="M67.50 246.00v22.30" class="stroke"/>
<use x="100.20" y="249.00" xlink:href="#hd"/>
<path d="M96.70 249.00v21.70" class="stroke"/>
<path class="fill"
	d="M116.50 275.20l29.90 2.50v-3.20l-29.90 -2.50"/>
<path class="fill"
	d="M139.10 272.10l7.00 0.60v-3.20l-7.00 -0.60"/>
<use x="120.40" y="252.00" xlink:href="#hd"/>
<circle class="fill" cx="128.10" cy="252.00" r="1.2"/>
<path d="M116.90 252.00v22.30" class="stroke"/>
<use x="149.60" y="255.00" xlink:href="#hd"/>
<path d="M146.10 255.00v21.70" class="stroke"/>
<use x="169.70" y="258.00" xlink:href="#hd"/>
<path d="M166.20 258.00v21.00" class="stroke"/>
<path class="fill"
	d="M208.40 280.80l29.90 -2.50v-3.20l-29.90 2.50"/>
<path class="fill"
	d="M230.90 273.90l7.00 -0.60v-3.20l-7.00 0.60"/>
<use x="212.20" y="258.00" xlink:href="#hd"/>
<circle class="fill" cx="219.90" cy="258.00" r="1.2"/>
<path d="M208.70 258.00v21.70" class="stroke"/>
<use x="241.40" y="255.00" xlink:href="#hd"/>
<path d="M237.90 255.00v22.30" class="stroke"/>
<path class="fill"
	d="M257.80 273.70l40.70 4.70v-3.20l-40.70 -4.70"/>
<use x="261.60" y="252.00" xlink:href="#hd"/>
<path d="M258.10 252.00v20.70" class="stroke"/>
<use x="281.60" y="255.00" xlink:href="#hd"/>
<path d="M278.10 255.00v20.00" class="stroke"/>
<use x="301.70" y="258.00" xlink:href="#hd"/>
<path d="M298.20 258.00v19.30" class="stroke"/>
<use x="331.80" y="264.00" xlink:href="#hd"/>
<path d="M335.30 264.00v-21.00" class="stroke"/>
<path class="fill"
	d="M377.50 241.50l49.70 -2.70v3.20l-49.70 2.70"/>
<path class="fill"
	d="M419.90 244.20l7.00 -0.40v3.20l-7.00 0.40"/>
<use x="374.30" y="264.00" xlink:href="#hd"/>
<circle class="fill" cx="382.00" cy="264.00" r="1.2"/>
<path d="M377.80 264.00v-21.50" class="stroke"/>
<use x="423.40" y="261.00" xlink:href="#hd"/>
<path d="M426.90 261.00v-21.20" class="stroke"/>
<path class="fill"
	d="M446.70 236.80l29.90 4.40v3.20l-29.90 -4.40"/>
<path class="fill"
	d="M469.30 245.10l7.00 1.00v3.20l-7.00 -1.00"/>
<use x="443.60" y="258.00" xlink:href="#hd"/>
<circle class="fill" cx="451.30" cy="258.00" r="1.2"/>
<path d="M447.10 258.00v-20.10" class="stroke"/>
<use x="472.80" y="264.00" xlink:href="#hd"/>
<path d="M476.30 264.00v-21.90" class="stroke"/>
<use x="492.90" y="270.00" xlink:href="#hd"/>
<path d="M496.40 270.00v-21.00" class="stroke"/>
<path class="fill"
	d="M538.60 240.50l44.50 -4.80v3.20l-44.50 4.80"/>
<path class="fill"
	d="M575.70 241.60l7.00 -0.80v3.20l-7.00 0.80"/>
<use x="535.40" y="264.00" xlink:href="#hd"/>
<circle class="fill" cx="543.10" cy="264.00" r="1.2"/>
<path d="M538.90 264.00v-22.50" class="stroke"/>
<use x="579.20" y="258.00" xlink:href="#hd"/>
<path d="M582.70 258.00v-21.20" class="stroke"/>
<path class="fill"
	d="M595.60 271.40l44.50 -4.80v-3.20l-44.50 4.80"/>
<path class="fill"
	d="M632.70 262.40l7.00 -0.80v-3.20l-7.00 0.80"/>
<use x="599.40" y="249.00" xlink:href="#hd"/>
<circle class="fill" cx="607.10" cy="246.00" r="1.2"/>
<path d="M595.90 249.00v21.40" class="stroke"/>
<defs>
<path id="hl" class="stroke" d="m-6 0h12"/>
</defs>
<use x="643.20" y="243.00" xlink:href="#hl"/>
<use x="643.20" y="243.00" xlink:href="#hd"/>
<path d="M639.70 243.00v22.60" class="stroke"/>
<use x="663.40" y="246.00" xlink:href="#hd"/>
<path d="M659.90 246.00v21.00" class="stroke"/>
</g>
</svg>
