<?xml version="1.0" standalone="no"?>
<!DOCTYPE svg PUBLIC "-//W3C//DTD SVG 1.1//EN"
	"http://www.w3.org/Graphics/SVG/1.1/DTD/svg11.dtd">
<svg xmlns="http://www.w3.org/2000/svg" version="1.1"
	xmlns:xlink="http://www.w3.org/1999/xlink"
	color="black"
	width="701.60px" height="473.00px">
<style type="text/css">
.fill {fill: currentColor}
.stroke {stroke: currentColor; fill: none}
text{white-space: pre}
</style>
<title>/media/tim/Data1/tims_code/sphinx-tunes/source/_abcfiles/Whinhams ft Bal (2) tune 1</title>
<!-- Creator: abcm2ps-8.14.6 -->
<!-- CreationDate: Jul 30, 2023 12:21 -->
<!-- CommandLine: -g '/media/tim/Data1/tims_code/sphinx-tunes/source/_abcfiles/Whinhams ft Ballantine.abc' -O '/media/tim/Data1/tims_code/sphinx-tunes/source/_abcfiles/Whinhams ft Ballantine.svg' -->
<g stroke-width="0.70">
<!-- title: Whinham's Reel -->
</g>
<g stroke-width="0.70" style="font:20.00px Times">
<text x="350.80" y="22.00" text-anchor="middle">Whinham&apos;s Reel</text>
</g>
<g stroke-width="0.70" style="font:italic 14.00px Times">
<text x="691.60" y="46.00" text-anchor="end">From Billy Balantine&apos;s Manuscript</text>
</g>
<g stroke-width="0.70" style="font:italic 14.00px Times">
<path class="stroke" stroke-width="1"
	d="M102.80 99.00v-24.00"/>
<path class="stroke" stroke-width="1"
	d="M257.60 99.00v-24.00"/>
<path class="stroke" stroke-width="1"
	d="M407.50 99.00v-24.00"/>
<path class="stroke" stroke-width="1"
	d="M562.30 99.00v-24.00"/>
<path class="stroke" stroke-width="3"
	d="M690.10 99.00v-24.00"/>
<path class="stroke" stroke-width="1"
	d="M685.60 99.00v-24.00"/>
<defs>
<g id="rdots" class="fill">
	<circle cx="0" cy="-9" r="1.2"/>
	<circle cx="0" cy="-15" r="1.2"/>
</g>
</defs>
<use x="681.60" y="99.00" xlink:href="#rdots"/>
<path d="m10.00 99.00
	h681.60
	M10.00 93.00
	h681.60
	M10.00 87.00
	h681.60
	M10.00 81.00
	h681.60
	M10.00 75.00
	h681.60
	" class="stroke"/>
<text style="font:italic 12px serif"
	x="82.90" y="69.60" text-anchor="middle">3</text>
<text style="font:italic 12px serif"
	x="586.70" y="64.60" text-anchor="middle">3</text>
<defs>
<path id="utclef" class="fill" d="m-50 -90
	c-72 -41 -72 -158 52 -188
	150 -10 220 188 90 256
	-114 52 -275 0 -293 -136
	-15 -181 93 -229 220 -334
	88 -87 79 -133 62 -210
	-51 33 -94 105 -89 186
	17 267 36 374 49 574
	6 96 -19 134 -77 135
	-80 1 -126 -93 -61 -133
	85 -41 133 101 31 105
	23 17 92 37 90 -92
	-10 -223 -39 -342 -50 -617
	0 -90 0 -162 96 -232
	56 72 63 230 22 289
	-74 106 -257 168 -255 316
	9 153 148 185 252 133
	86 -65 29 -192 -80 -176
	-71 12 -105 67 -59 124"/>
<use id="tclef" transform="translate(0,6) scale(0.045)"
	xlink:href="#utclef"/>
</defs>
<use x="22.00" y="93.00" xlink:href="#tclef"/>
<defs>
<path id="usharp" class="fill" d="
	m136 -702
	v890
	h32
	v-890
	m128 840
	h32
	v-888
	h-32
	m-232 286
	v116
	l338 -96
	v-116
	m-338 442
	v116
	l338 -98
	v-114"/>
<use id="sh0" transform="translate(-4,5) scale(0.018)"
	xlink:href="#usharp"/>
</defs>
<use x="37.00" y="75.00" xlink:href="#sh0"/>
<defs>
<path id="csig" class="fill" d="
	m6 -5.3
	c0.9 0 2.3 0.7 2.4 2.2
	-1.2 -2 -3.6 0.1 -1.6 1.7
	2 1 3.8 -3.5 -0.8 -4.7
	-2 -0.4 -6.4 1.3 -5.8 7
	0.4 6.4 7.9 6.8 9.1 0.7
	-2.3 5.6 -6.7 5.1 -6.8 0
	-0.5 -4.4 0.7 -7.5 3.5 -6.9"/>
<g id="ctsig">
	<use xlink:href="#csig"/>
	<path d="m5 8v-16" class="stroke"/>
</g>
</defs>
<use x="48.00" y="87.00" xlink:href="#ctsig"/>
<path class="fill"
	d="M74.20 77.60l19.90 -3.80v3.20l-19.90 3.80"/>
<path class="fill"
	d="M74.50 82.50l19.30 -3.70v3.20l-19.30 3.70"/>
<defs>
<ellipse id="hd" rx="4.1" ry="2.9"
	transform="rotate(-20)" class="fill"/>
</defs>
<use x="71.00" y="102.00" xlink:href="#hd"/>
<path d="M74.50 102.00v-23.50" class="stroke"/>
<use x="80.60" y="99.00" xlink:href="#hd"/>
<path d="M84.10 99.00v-22.40" class="stroke"/>
<use x="90.30" y="96.00" xlink:href="#hd"/>
<path d="M93.80 96.00v-21.20" class="stroke"/>
<path class="fill"
	d="M118.40 62.80l36.40 0.00v3.20l-36.40 -0.00"/>
<path class="fill"
	d="M118.80 67.80l35.70 0.00v3.20l-35.70 -0.00"/>
<use x="115.30" y="93.00" xlink:href="#hd"/>
<path d="M118.80 93.00v-29.20" class="stroke"/>
<use x="127.20" y="90.00" xlink:href="#hd"/>
<path d="M130.70 90.00v-26.20" class="stroke"/>
<use x="139.10" y="87.00" xlink:href="#hd"/>
<path d="M142.60 87.00v-23.20" class="stroke"/>
<use x="151.00" y="90.00" xlink:href="#hd"/>
<path d="M154.50 90.00v-26.20" class="stroke"/>
<path class="fill"
	d="M167.20 73.70l16.90 4.40v3.20l-16.90 -4.40"/>
<use x="164.00" y="93.00" xlink:href="#hd"/>
<path d="M167.50 93.00v-18.20" class="stroke"/>
<use x="180.30" y="102.00" xlink:href="#hd"/>
<path d="M183.80 102.00v-22.90" class="stroke"/>
<path class="fill"
	d="M201.30 68.80l28.80 0.00v3.20l-28.80 -0.00"/>
<path class="fill"
	d="M217.80 73.80l11.90 0.00v3.20l-11.90 -0.00"/>
<use x="198.10" y="96.00" xlink:href="#hd"/>
<path d="M201.60 96.00v-26.20" class="stroke"/>
<use x="214.30" y="93.00" xlink:href="#hd"/>
<path d="M217.80 93.00v-23.20" class="stroke"/>
<use x="226.20" y="96.00" xlink:href="#hd"/>
<path d="M229.70 96.00v-26.20" class="stroke"/>
<use x="239.30" y="102.00" xlink:href="#hd"/>
<path d="M242.80 102.00v-21.00" class="stroke"/>
<path class="fill"
	d="M273.20 68.80l28.80 0.00v3.20l-28.80 -0.00"/>
<path class="fill"
	d="M289.80 73.80l11.90 0.00v3.20l-11.90 -0.00"/>
<use x="270.10" y="99.00" xlink:href="#hd"/>
<path d="M273.60 99.00v-29.20" class="stroke"/>
<use x="286.30" y="93.00" xlink:href="#hd"/>
<path d="M289.80 93.00v-23.20" class="stroke"/>
<use x="298.20" y="99.00" xlink:href="#hd"/>
<path d="M301.70 99.00v-29.20" class="stroke"/>
<path class="fill"
	d="M314.40 78.20l16.90 -4.40v3.20l-16.90 4.40"/>
<use x="311.30" y="102.00" xlink:href="#hd"/>
<path d="M314.80 102.00v-22.90" class="stroke"/>
<use x="327.50" y="93.00" xlink:href="#hd"/>
<path d="M331.00 93.00v-18.20" class="stroke"/>
<path class="fill"
	d="M348.50 66.70l49.30 6.20v3.20l-49.30 -6.20"/>
<use x="345.30" y="87.00" xlink:href="#hd"/>
<path d="M348.80 87.00v-19.30" class="stroke"/>
<use x="361.50" y="90.00" xlink:href="#hd"/>
<path d="M365.00 90.00v-20.20" class="stroke"/>
<use x="377.70" y="90.00" xlink:href="#hd"/>
<path d="M381.20 90.00v-18.20" class="stroke"/>
<use x="394.00" y="102.00" xlink:href="#hd"/>
<path d="M397.50 102.00v-28.20" class="stroke"/>
<path class="fill"
	d="M423.20 62.80l36.40 0.00v3.20l-36.40 -0.00"/>
<path class="fill"
	d="M423.50 67.80l35.70 0.00v3.20l-35.70 -0.00"/>
<use x="420.00" y="93.00" xlink:href="#hd"/>
<path d="M423.50 93.00v-29.20" class="stroke"/>
<use x="431.90" y="90.00" xlink:href="#hd"/>
<path d="M435.40 90.00v-26.20" class="stroke"/>
<use x="443.80" y="87.00" xlink:href="#hd"/>
<path d="M447.30 87.00v-23.20" class="stroke"/>
<use x="455.70" y="90.00" xlink:href="#hd"/>
<path d="M459.20 90.00v-26.20" class="stroke"/>
<path class="fill"
	d="M472.00 73.70l16.90 4.40v3.20l-16.90 -4.40"/>
<use x="468.80" y="93.00" xlink:href="#hd"/>
<path d="M472.30 93.00v-18.20" class="stroke"/>
<use x="485.00" y="102.00" xlink:href="#hd"/>
<path d="M488.50 102.00v-22.90" class="stroke"/>
<path class="fill"
	d="M506.00 68.80l28.80 0.00v3.20l-28.80 -0.00"/>
<path class="fill"
	d="M522.60 73.80l11.90 0.00v3.20l-11.90 -0.00"/>
<use x="502.90" y="99.00" xlink:href="#hd"/>
<path d="M506.40 99.00v-29.20" class="stroke"/>
<use x="519.10" y="93.00" xlink:href="#hd"/>
<path d="M522.60 93.00v-23.20" class="stroke"/>
<use x="531.00" y="99.00" xlink:href="#hd"/>
<path d="M534.50 99.00v-29.20" class="stroke"/>
<use x="544.00" y="102.00" xlink:href="#hd"/>
<path d="M547.50 102.00v-21.00" class="stroke"/>
<path class="fill"
	d="M578.00 74.60l19.90 -3.80v3.20l-19.90 3.80"/>
<path class="fill"
	d="M578.30 79.50l19.30 -3.70v3.20l-19.30 3.70"/>
<use x="574.80" y="99.00" xlink:href="#hd"/>
<path d="M578.30 99.00v-23.50" class="stroke"/>
<use x="584.40" y="96.00" xlink:href="#hd"/>
<path d="M587.90 96.00v-22.40" class="stroke"/>
<use x="594.10" y="93.00" xlink:href="#hd"/>
<path d="M597.60 93.00v-21.20" class="stroke"/>
<path class="fill"
	d="M607.80 67.20l16.90 -5.50v3.20l-16.90 5.50"/>
<use x="604.60" y="96.00" xlink:href="#hd"/>
<path d="M608.10 96.00v-27.90" class="stroke"/>
<use x="620.80" y="81.00" xlink:href="#hd"/>
<path d="M624.30 81.00v-18.20" class="stroke"/>
<path class="fill"
	d="M641.80 67.80l33.10 3.00v3.20l-33.10 -3.00"/>
<use x="638.70" y="87.00" xlink:href="#hd"/>
<path d="M642.20 87.00v-18.20" class="stroke"/>
<use x="654.90" y="93.00" xlink:href="#hd"/>
<path d="M658.40 93.00v-22.70" class="stroke"/>
<use x="671.10" y="93.00" xlink:href="#hd"/>
<path d="M674.60 93.00v-21.30" class="stroke"/>
</g>
<g stroke-width="0.70" style="font:italic 14.00px Times">
<path class="stroke" stroke-width="1"
	d="M86.80 169.00v-24.00"/>
<path class="stroke" stroke-width="1"
	d="M229.80 169.00v-24.00"/>
<path class="stroke" stroke-width="1"
	d="M407.60 169.00v-24.00"/>
<path class="stroke" stroke-width="1"
	d="M550.60 169.00v-24.00"/>
<path class="stroke" stroke-width="3"
	d="M690.10 169.00v-24.00"/>
<path class="stroke" stroke-width="1"
	d="M685.60 169.00v-24.00"/>
<use x="681.60" y="169.00" xlink:href="#rdots"/>
<path d="m10.00 169.00
	h681.60
	M10.00 163.00
	h681.60
	M10.00 157.00
	h681.60
	M10.00 151.00
	h681.60
	M10.00 145.00
	h681.60
	" class="stroke"/>
<text style="font:italic 12px serif"
	x="62.40" y="187.40" text-anchor="middle">3</text>
<use x="22.00" y="163.00" xlink:href="#tclef"/>
<use x="37.00" y="145.00" xlink:href="#sh0"/>
<path class="fill"
	d="M51.20 173.30l20.00 -3.80v-3.20l-20.00 3.80"/>
<path class="fill"
	d="M51.50 168.20l19.30 -3.70v-3.20l-19.30 3.70"/>
<use x="55.00" y="151.00" xlink:href="#hd"/>
<path d="M51.50 151.00v21.20" class="stroke"/>
<use x="64.70" y="148.00" xlink:href="#hd"/>
<path d="M61.20 148.00v22.30" class="stroke"/>
<use x="74.30" y="145.00" xlink:href="#hd"/>
<path d="M70.80 145.00v23.50" class="stroke"/>
<path class="fill"
	d="M95.50 182.20l50.10 0.00v-3.20l-50.10 -0.00"/>
<use x="99.30" y="142.00" xlink:href="#hd"/>
<path d="M95.80 142.00v39.20" class="stroke"/>
<use x="115.80" y="163.00" xlink:href="#hd"/>
<path d="M112.30 163.00v18.20" class="stroke"/>
<use x="132.20" y="157.00" xlink:href="#hd"/>
<path d="M128.70 157.00v24.20" class="stroke"/>
<use x="148.70" y="142.00" xlink:href="#hd"/>
<path d="M145.20 142.00v39.20" class="stroke"/>
<path class="fill"
	d="M163.00 179.20l50.10 0.00v-3.20l-50.10 -0.00"/>
<use x="166.80" y="145.00" xlink:href="#hd"/>
<path d="M163.30 145.00v33.20" class="stroke"/>
<use x="183.30" y="160.00" xlink:href="#hd"/>
<path d="M179.80 160.00v18.20" class="stroke"/>
<use x="199.80" y="154.00" xlink:href="#hd"/>
<path d="M196.30 154.00v24.20" class="stroke"/>
<use x="216.20" y="148.00" xlink:href="#hd"/>
<path d="M212.70 148.00v30.20" class="stroke"/>
<path class="fill"
	d="M238.50 179.70l50.10 3.70v-3.20l-50.10 -3.70"/>
<use x="242.30" y="151.00" xlink:href="#hd"/>
<path d="M238.80 151.00v27.70" class="stroke"/>
<use x="258.80" y="157.00" xlink:href="#hd"/>
<path d="M255.30 157.00v23.00" class="stroke"/>
<use x="275.20" y="163.00" xlink:href="#hd"/>
<path d="M271.70 163.00v18.20" class="stroke"/>
<use x="291.70" y="157.00" xlink:href="#hd"/>
<path d="M288.20 157.00v25.40" class="stroke"/>
<path class="fill"
	d="M306.00 182.20l36.70 0.00v-3.20l-36.70 -0.00"/>
<path class="fill"
	d="M306.30 177.20l36.00 0.00v-3.20l-36.00 -0.00"/>
<use x="309.80" y="154.00" xlink:href="#hd"/>
<path d="M306.30 154.00v27.20" class="stroke"/>
<use x="321.80" y="157.00" xlink:href="#hd"/>
<path d="M318.30 157.00v24.20" class="stroke"/>
<use x="333.90" y="160.00" xlink:href="#hd"/>
<path d="M330.40 160.00v21.20" class="stroke"/>
<use x="345.90" y="157.00" xlink:href="#hd"/>
<path d="M342.40 157.00v24.20" class="stroke"/>
<path class="fill"
	d="M355.20 176.30l36.70 -6.10v-3.20l-36.70 6.10"/>
<path class="fill"
	d="M355.60 171.20l36.00 -6.00v-3.20l-36.00 6.00"/>
<use x="359.10" y="154.00" xlink:href="#hd"/>
<path d="M355.60 154.00v21.20" class="stroke"/>
<use x="371.10" y="151.00" xlink:href="#hd"/>
<path d="M367.60 151.00v22.20" class="stroke"/>
<use x="383.10" y="148.00" xlink:href="#hd"/>
<path d="M379.60 148.00v23.20" class="stroke"/>
<use x="395.10" y="145.00" xlink:href="#hd"/>
<path d="M391.60 145.00v24.20" class="stroke"/>
<path class="fill"
	d="M416.30 182.20l50.10 0.00v-3.20l-50.10 -0.00"/>
<use x="420.10" y="142.00" xlink:href="#hd"/>
<path d="M416.60 142.00v39.20" class="stroke"/>
<use x="436.60" y="163.00" xlink:href="#hd"/>
<path d="M433.10 163.00v18.20" class="stroke"/>
<use x="453.00" y="157.00" xlink:href="#hd"/>
<path d="M449.50 157.00v24.20" class="stroke"/>
<use x="469.50" y="142.00" xlink:href="#hd"/>
<path d="M466.00 142.00v39.20" class="stroke"/>
<path class="fill"
	d="M483.80 179.20l50.10 0.00v-3.20l-50.10 -0.00"/>
<use x="487.60" y="145.00" xlink:href="#hd"/>
<path d="M484.10 145.00v33.20" class="stroke"/>
<use x="504.10" y="160.00" xlink:href="#hd"/>
<path d="M500.60 160.00v18.20" class="stroke"/>
<use x="520.50" y="154.00" xlink:href="#hd"/>
<path d="M517.00 154.00v24.20" class="stroke"/>
<use x="537.00" y="148.00" xlink:href="#hd"/>
<path d="M533.50 148.00v30.20" class="stroke"/>
<path class="fill"
	d="M559.30 182.70l17.10 6.60v-3.20l-17.10 -6.60"/>
<use x="563.10" y="142.00" xlink:href="#hd"/>
<path d="M559.60 142.00v39.80" class="stroke"/>
<use x="579.60" y="172.00" xlink:href="#hd"/>
<path d="M576.10 172.00v16.20" class="stroke"/>
<path class="fill"
	d="M593.90 185.30l29.20 -7.10v-3.20l-29.20 7.10"/>
<path class="fill"
	d="M610.70 176.20l12.00 -2.90v-3.20l-12.00 2.90"/>
<use x="597.70" y="166.00" xlink:href="#hd"/>
<path d="M594.20 166.00v18.20" class="stroke"/>
<use x="614.20" y="142.00" xlink:href="#hd"/>
<path d="M610.70 142.00v38.20" class="stroke"/>
<use x="626.20" y="145.00" xlink:href="#hd"/>
<path d="M622.70 145.00v32.30" class="stroke"/>
<path class="fill"
	d="M641.30 137.80l33.60 3.00v3.20l-33.60 -3.00"/>
<use x="638.20" y="157.00" xlink:href="#hd"/>
<path d="M641.70 157.00v-18.20" class="stroke"/>
<use x="654.60" y="163.00" xlink:href="#hd"/>
<path d="M658.10 163.00v-22.70" class="stroke"/>
<use x="671.10" y="163.00" xlink:href="#hd"/>
<path d="M674.60 163.00v-21.20" class="stroke"/>
</g>
<g stroke-width="0.70" style="font:italic 14.00px Times">
<path class="stroke" stroke-width="1"
	d="M85.90 240.00v-24.00"/>
<path class="stroke" stroke-width="1"
	d="M237.90 240.00v-24.00"/>
<path class="stroke" stroke-width="1"
	d="M409.50 240.00v-24.00"/>
<path class="stroke" stroke-width="1"
	d="M558.00 240.00v-24.00"/>
<path class="stroke" stroke-width="3"
	d="M690.10 240.00v-24.00"/>
<path class="stroke" stroke-width="1"
	d="M685.60 240.00v-24.00"/>
<use x="681.60" y="240.00" xlink:href="#rdots"/>
<path d="m10.00 240.00
	h681.60
	M10.00 234.00
	h681.60
	M10.00 228.00
	h681.60
	M10.00 222.00
	h681.60
	M10.00 216.00
	h681.60
	" class="stroke"/>
<text style="font:italic 12px serif"
	x="66.50" y="210.50" text-anchor="middle">3</text>
<text style="font:italic 12px serif"
	x="390.10" y="208.50" text-anchor="middle">3</text>
<use x="22.00" y="234.00" xlink:href="#tclef"/>
<use x="37.00" y="216.00" xlink:href="#sh0"/>
<path class="fill"
	d="M58.20 218.50l19.10 -3.80v3.20l-19.10 3.80"/>
<path class="fill"
	d="M58.50 223.40l18.40 -3.60v3.20l-18.40 3.60"/>
<use x="55.00" y="243.00" xlink:href="#hd"/>
<path d="M58.50 243.00v-23.60" class="stroke"/>
<use x="64.20" y="240.00" xlink:href="#hd"/>
<path d="M67.70 240.00v-22.40" class="stroke"/>
<use x="73.40" y="237.00" xlink:href="#hd"/>
<path d="M76.90 237.00v-21.20" class="stroke"/>
<use x="98.40" y="234.00" xlink:href="#hd"/>
<path d="M101.90 234.00v-21.00" class="stroke"/>
<path class="fill"
	d="M101.90 213.00c0.6 5.6 9.6 9 5.6 18.4
	1.6 -6 -1.3 -11.6 -5.6 -12.8
"/>
<use x="116.00" y="228.00" xlink:href="#hd"/>
<path d="M119.50 228.00v-21.00" class="stroke"/>
<path class="fill"
	d="M119.50 207.00c0.6 5.6 9.6 9 5.6 18.4
	1.6 -6 -1.3 -11.6 -5.6 -12.8
"/>
<path class="fill"
	d="M136.70 202.80l34.40 0.00v3.20l-34.40 -0.00"/>
<path class="fill"
	d="M137.00 207.80l33.80 0.00v3.20l-33.80 -0.00"/>
<use x="133.50" y="228.00" xlink:href="#hd"/>
<path d="M137.00 228.00v-24.20" class="stroke"/>
<use x="144.80" y="225.00" xlink:href="#hd"/>
<path d="M148.30 225.00v-21.20" class="stroke"/>
<use x="156.00" y="228.00" xlink:href="#hd"/>
<path d="M159.50 228.00v-24.20" class="stroke"/>
<use x="167.30" y="231.00" xlink:href="#hd"/>
<path d="M170.80 231.00v-27.20" class="stroke"/>
<path class="fill"
	d="M182.70 215.80l46.00 0.00v3.20l-46.00 -0.00"/>
<use x="179.60" y="234.00" xlink:href="#hd"/>
<path d="M183.10 234.00v-17.20" class="stroke"/>
<use x="194.70" y="240.00" xlink:href="#hd"/>
<path d="M198.20 240.00v-23.20" class="stroke"/>
<use x="209.80" y="240.00" xlink:href="#hd"/>
<path d="M213.30 240.00v-23.20" class="stroke"/>
<use x="224.90" y="234.00" xlink:href="#hd"/>
<path d="M228.40 234.00v-17.20" class="stroke"/>
<path class="fill"
	d="M253.50 214.70l15.80 -3.50v3.20l-15.80 3.50"/>
<use x="250.40" y="237.00" xlink:href="#hd"/>
<path d="M253.90 237.00v-21.30" class="stroke"/>
<use x="265.50" y="231.00" xlink:href="#hd"/>
<path d="M269.00 231.00v-18.70" class="stroke"/>
<path class="fill"
	d="M285.20 219.00l27.10 -4.20v3.20l-27.10 4.20"/>
<path class="fill"
	d="M300.70 221.60l11.30 -1.80v3.20l-11.30 1.80"/>
<use x="282.10" y="243.00" xlink:href="#hd"/>
<path d="M285.60 243.00v-23.10" class="stroke"/>
<use x="297.20" y="240.00" xlink:href="#hd"/>
<path d="M300.70 240.00v-22.40" class="stroke"/>
<use x="308.40" y="237.00" xlink:href="#hd"/>
<path d="M311.90 237.00v-21.20" class="stroke"/>
<path class="fill"
	d="M323.90 208.70l34.40 -6.00v3.20l-34.40 6.00"/>
<path class="fill"
	d="M324.20 213.70l33.80 -5.90v3.20l-33.80 5.90"/>
<use x="320.70" y="234.00" xlink:href="#hd"/>
<path d="M324.20 234.00v-24.30" class="stroke"/>
<use x="332.00" y="231.00" xlink:href="#hd"/>
<path d="M335.50 231.00v-23.30" class="stroke"/>
<use x="343.20" y="228.00" xlink:href="#hd"/>
<path d="M346.70 228.00v-22.20" class="stroke"/>
<use x="354.50" y="225.00" xlink:href="#hd"/>
<path d="M358.00 225.00v-21.20" class="stroke"/>
<use x="367.30" y="222.00" xlink:href="#hd"/>
<path d="M363.80 222.00v23.00" class="stroke"/>
<path class="fill"
	d="M363.80 245.00c0.9 -3.7 9.1 -6.4 6 -12.4
	1 5.4 -4.2 8.4 -6 8.4
M363.80 239.60c0.9 -3.7 9.1 -6.4 6 -12.4
	1 5.4 -4.2 8.4 -6 8.4
"/>
<path class="fill"
	d="M381.70 218.50l19.10 -3.80v3.20l-19.10 3.80"/>
<path class="fill"
	d="M382.00 223.40l18.40 -3.60v3.20l-18.40 3.60"/>
<use x="378.50" y="243.00" xlink:href="#hd"/>
<path d="M382.00 243.00v-23.60" class="stroke"/>
<use x="387.80" y="240.00" xlink:href="#hd"/>
<path d="M391.30 240.00v-22.40" class="stroke"/>
<use x="397.00" y="237.00" xlink:href="#hd"/>
<path d="M400.50 237.00v-21.20" class="stroke"/>
<path class="fill"
	d="M425.10 211.70l15.80 -3.50v3.20l-15.80 3.50"/>
<use x="422.00" y="234.00" xlink:href="#hd"/>
<path d="M425.50 234.00v-21.30" class="stroke"/>
<use x="437.10" y="228.00" xlink:href="#hd"/>
<path d="M440.60 228.00v-18.70" class="stroke"/>
<path class="fill"
	d="M456.80 202.80l34.40 0.00v3.20l-34.40 -0.00"/>
<path class="fill"
	d="M457.20 207.80l33.80 0.00v3.20l-33.80 -0.00"/>
<use x="453.70" y="228.00" xlink:href="#hd"/>
<path d="M457.20 228.00v-24.20" class="stroke"/>
<use x="464.90" y="225.00" xlink:href="#hd"/>
<path d="M468.40 225.00v-21.20" class="stroke"/>
<use x="476.20" y="228.00" xlink:href="#hd"/>
<path d="M479.70 228.00v-24.20" class="stroke"/>
<use x="487.40" y="231.00" xlink:href="#hd"/>
<path d="M490.90 231.00v-27.20" class="stroke"/>
<path class="fill"
	d="M502.90 215.80l46.00 0.00v3.20l-46.00 -0.00"/>
<use x="499.70" y="234.00" xlink:href="#hd"/>
<path d="M503.20 234.00v-17.20" class="stroke"/>
<use x="514.80" y="240.00" xlink:href="#hd"/>
<path d="M518.30 240.00v-23.20" class="stroke"/>
<use x="529.90" y="240.00" xlink:href="#hd"/>
<path d="M533.40 240.00v-23.20" class="stroke"/>
<use x="545.10" y="234.00" xlink:href="#hd"/>
<path d="M548.60 234.00v-17.20" class="stroke"/>
<path class="fill"
	d="M573.70 214.70l15.80 -3.50v3.20l-15.80 3.50"/>
<use x="570.50" y="237.00" xlink:href="#hd"/>
<path d="M574.00 237.00v-21.30" class="stroke"/>
<use x="585.60" y="231.00" xlink:href="#hd"/>
<path d="M589.10 231.00v-18.70" class="stroke"/>
<path class="fill"
	d="M605.40 219.00l27.10 -4.20v3.20l-27.10 4.20"/>
<path class="fill"
	d="M620.80 221.60l11.30 -1.80v3.20l-11.30 1.80"/>
<use x="602.20" y="243.00" xlink:href="#hd"/>
<path d="M605.70 243.00v-23.10" class="stroke"/>
<use x="617.30" y="240.00" xlink:href="#hd"/>
<path d="M620.80 240.00v-22.40" class="stroke"/>
<use x="628.60" y="237.00" xlink:href="#hd"/>
<path d="M632.10 237.00v-21.20" class="stroke"/>
<path class="fill"
	d="M644.00 213.00l30.90 0.00v3.20l-30.90 -0.00"/>
<use x="640.90" y="234.00" xlink:href="#hd"/>
<path d="M644.40 234.00v-20.00" class="stroke"/>
<use x="656.00" y="234.00" xlink:href="#hd"/>
<path d="M659.50 234.00v-20.00" class="stroke"/>
<use x="671.10" y="234.00" xlink:href="#hd"/>
<path d="M674.60 234.00v-20.00" class="stroke"/>
</g>
<g stroke-width="0.70" style="font:italic 14.00px Times">
<path class="stroke" stroke-width="1"
	d="M95.10 310.00v-24.00"/>
<path class="stroke" stroke-width="1"
	d="M227.10 310.00v-24.00"/>
<path class="stroke" stroke-width="1"
	d="M370.50 310.00v-24.00"/>
<path class="stroke" stroke-width="1"
	d="M524.90 310.00v-24.00"/>
<path class="stroke" stroke-width="3"
	d="M690.10 310.00v-24.00"/>
<path class="stroke" stroke-width="1"
	d="M685.60 310.00v-24.00"/>
<use x="681.60" y="310.00" xlink:href="#rdots"/>
<path d="m10.00 310.00
	h681.60
	M10.00 304.00
	h681.60
	M10.00 298.00
	h681.60
	M10.00 292.00
	h681.60
	M10.00 286.00
	h681.60
	" class="stroke"/>
<text style="font:italic 12px serif"
	x="66.50" y="332.00" text-anchor="middle">3</text>
<use x="22.00" y="304.00" xlink:href="#tclef"/>
<use x="37.00" y="286.00" xlink:href="#sh0"/>
<path class="fill"
	d="M51.20 318.00l28.30 0.00v-3.20l-28.30 -0.00"/>
<path class="fill"
	d="M51.50 313.00l27.60 0.00v-3.20l-27.60 -0.00"/>
<use x="55.00" y="298.00" xlink:href="#hd"/>
<path d="M51.50 298.00v19.00" class="stroke"/>
<use x="64.60" y="295.00" xlink:href="#hd"/>
<path d="M61.10 295.00v22.00" class="stroke"/>
<use x="82.60" y="295.00" xlink:href="#hd"/>
<use x="73.60" y="295.00" xlink:href="#sh0"/>
<path d="M79.10 295.00v22.00" class="stroke"/>
<path class="fill"
	d="M103.80 318.80l49.60 -4.80v-3.20l-49.60 4.80"/>
<use x="107.60" y="292.00" xlink:href="#hd"/>
<path d="M104.10 292.00v25.80" class="stroke"/>
<use x="123.90" y="298.00" xlink:href="#hd"/>
<path d="M120.40 298.00v18.20" class="stroke"/>
<use x="140.20" y="292.00" xlink:href="#hd"/>
<path d="M136.70 292.00v22.60" class="stroke"/>
<use x="156.50" y="283.00" xlink:href="#hd"/>
<path d="M153.00 283.00v30.00" class="stroke"/>
<path class="fill"
	d="M170.60 307.40l17.00 2.30v-3.20l-17.00 -2.30"/>
<use x="174.50" y="286.00" xlink:href="#hd"/>
<path d="M171.00 286.00v20.40" class="stroke"/>
<use x="190.80" y="289.00" xlink:href="#hd"/>
<path d="M187.30 289.00v19.60" class="stroke"/>
<use x="208.70" y="289.00" xlink:href="#hd"/>
<path d="M205.20 289.00v21.00" class="stroke"/>
<path class="fill"
	d="M235.70 326.30l49.60 -10.50v-3.20l-49.60 10.50"/>
<use x="239.60" y="307.00" xlink:href="#hd"/>
<path d="M236.10 307.00v18.20" class="stroke"/>
<use x="255.90" y="301.00" xlink:href="#hd"/>
<path d="M252.40 301.00v20.70" class="stroke"/>
<use x="272.20" y="295.00" xlink:href="#hd"/>
<path d="M268.70 295.00v23.30" class="stroke"/>
<use x="288.50" y="289.00" xlink:href="#hd"/>
<path d="M285.00 289.00v25.80" class="stroke"/>
<path class="fill"
	d="M302.60 310.40l17.00 2.30v-3.20l-17.00 -2.30"/>
<use x="306.40" y="289.00" xlink:href="#hd"/>
<path d="M302.90 289.00v20.40" class="stroke"/>
<use x="322.70" y="292.00" xlink:href="#hd"/>
<path d="M319.20 292.00v19.60" class="stroke"/>
<use x="340.70" y="292.00" xlink:href="#hd"/>
<path d="M337.20 292.00v21.00" class="stroke"/>
<path class="fill"
	d="M337.20 313.00c0.6 -5.6 9.6 -9 5.6 -18.4
	1.6 6 -1.3 11.6 -5.6 12.8
"/>
<defs>
<path id="r8e" class="fill" d="m 0 0
	c-1.5 1.5 -2.4 2 -3.6 2
	2.4 -2.8 -2.8 -4 -2.8 -1.2
	c0 2.7 4.3 2.4 5.9 0.6"/>
<g id="r8">
	<path d="m3.3 -4l-3.4 9.6" class="stroke"/>
	<use x="3.4" y="-4" xlink:href="#r8e"/>
</g>
</defs>
<use x="357.00" y="298.00" xlink:href="#r8"/>
<path class="fill"
	d="M379.20 318.80l49.60 -4.80v-3.20l-49.60 4.80"/>
<use x="383.00" y="292.00" xlink:href="#hd"/>
<path d="M379.50 292.00v25.80" class="stroke"/>
<use x="399.30" y="298.00" xlink:href="#hd"/>
<path d="M395.80 298.00v18.20" class="stroke"/>
<use x="415.60" y="292.00" xlink:href="#hd"/>
<path d="M412.10 292.00v22.60" class="stroke"/>
<use x="431.90" y="283.00" xlink:href="#hd"/>
<path d="M428.40 283.00v30.00" class="stroke"/>
<path class="fill"
	d="M446.00 307.40l17.00 2.30v-3.20l-17.00 -2.30"/>
<use x="449.90" y="286.00" xlink:href="#hd"/>
<path d="M446.40 286.00v20.40" class="stroke"/>
<use x="466.20" y="289.00" xlink:href="#hd"/>
<path d="M462.70 289.00v19.60" class="stroke"/>
<path class="fill"
	d="M480.30 320.60l28.90 5.70v-3.20l-28.90 -5.70"/>
<path class="fill"
	d="M496.90 318.80l11.90 2.40v-3.20l-11.90 -2.40"/>
<use x="484.10" y="289.00" xlink:href="#hd"/>
<path d="M480.60 289.00v30.60" class="stroke"/>
<use x="500.40" y="301.00" xlink:href="#hd"/>
<path d="M496.90 301.00v21.80" class="stroke"/>
<use x="512.40" y="304.00" xlink:href="#hd"/>
<path d="M508.90 304.00v21.20" class="stroke"/>
<path class="fill"
	d="M540.50 281.80l36.40 -6.10v3.20l-36.40 6.10"/>
<path class="fill"
	d="M540.90 286.80l35.80 -6.00v3.20l-35.80 6.00"/>
<use x="537.40" y="307.00" xlink:href="#hd"/>
<path d="M540.90 307.00v-24.20" class="stroke"/>
<use x="549.30" y="304.00" xlink:href="#hd"/>
<path d="M552.80 304.00v-23.20" class="stroke"/>
<use x="561.20" y="301.00" xlink:href="#hd"/>
<path d="M564.70 301.00v-22.20" class="stroke"/>
<use x="573.10" y="298.00" xlink:href="#hd"/>
<path d="M576.60 298.00v-21.20" class="stroke"/>
<path class="fill"
	d="M582.80 317.30l36.40 -6.10v-3.20l-36.40 6.10"/>
<path class="fill"
	d="M583.10 312.20l35.80 -6.00v-3.20l-35.80 6.00"/>
<use x="586.60" y="295.00" xlink:href="#hd"/>
<path d="M583.10 295.00v21.20" class="stroke"/>
<use x="598.50" y="292.00" xlink:href="#hd"/>
<path d="M595.00 292.00v22.20" class="stroke"/>
<use x="610.40" y="289.00" xlink:href="#hd"/>
<path d="M606.90 289.00v23.20" class="stroke"/>
<use x="622.40" y="286.00" xlink:href="#hd"/>
<path d="M618.90 286.00v24.20" class="stroke"/>
<path class="fill"
	d="M631.60 304.20l17.00 0.00v-3.20l-17.00 -0.00"/>
<use x="635.50" y="283.00" xlink:href="#hd"/>
<path d="M632.00 283.00v20.20" class="stroke"/>
<use x="651.80" y="283.00" xlink:href="#hd"/>
<path d="M648.30 283.00v20.20" class="stroke"/>
<use x="669.70" y="283.00" xlink:href="#hd"/>
<path d="M666.20 283.00v21.00" class="stroke"/>
</g>
<g stroke-width="0.70" style="font:italic 14.00px Times">
<path class="stroke" stroke-width="1"
	d="M203.70 380.00v-24.00"/>
<path class="stroke" stroke-width="1"
	d="M365.00 380.00v-24.00"/>
<path class="stroke" stroke-width="1"
	d="M507.20 380.00v-24.00"/>
<path class="stroke" stroke-width="1"
	d="M691.60 380.00v-24.00"/>
<path d="m10.00 380.00
	h681.60
	M10.00 374.00
	h681.60
	M10.00 368.00
	h681.60
	M10.00 362.00
	h681.60
	M10.00 356.00
	h681.60
	" class="stroke"/>
<text style="font:italic 12px serif"
	x="177.90" y="396.40" text-anchor="middle">3</text>
<text style="font:italic 12px serif"
	x="339.20" y="402.00" text-anchor="middle">3</text>
<use x="22.00" y="374.00" xlink:href="#tclef"/>
<use x="37.00" y="356.00" xlink:href="#sh0"/>
<path class="fill"
	d="M51.20 387.20l58.80 -6.70v-3.20l-58.80 6.70"/>
<use x="55.00" y="368.00" xlink:href="#hd"/>
<path d="M51.50 368.00v18.20" class="stroke"/>
<use x="74.40" y="365.00" xlink:href="#hd"/>
<path d="M70.90 365.00v19.00" class="stroke"/>
<use x="93.70" y="362.00" xlink:href="#hd"/>
<path d="M90.20 362.00v19.80" class="stroke"/>
<use x="113.10" y="353.00" xlink:href="#hd"/>
<path d="M109.60 353.00v26.50" class="stroke"/>
<use x="134.60" y="362.00" xlink:href="#hd"/>
<circle class="fill" cx="142.30" cy="359.00" r="1.2"/>
<path d="M131.10 362.00v21.00" class="stroke"/>
<path class="fill"
	d="M165.40 384.30l22.60 -4.00v-3.20l-22.60 4.00"/>
<path class="fill"
	d="M165.70 379.20l21.90 -3.90v-3.20l-21.90 3.90"/>
<use x="169.20" y="362.00" xlink:href="#hd"/>
<path d="M165.70 362.00v21.20" class="stroke"/>
<use x="180.20" y="359.00" xlink:href="#hd"/>
<path d="M176.70 359.00v22.30" class="stroke"/>
<use x="191.20" y="356.00" xlink:href="#hd"/>
<path d="M187.70 356.00v23.30" class="stroke"/>
<path class="fill"
	d="M219.30 352.00l58.80 -7.00v3.20l-58.80 7.00"/>
<use x="216.20" y="374.00" xlink:href="#hd"/>
<path d="M219.70 374.00v-21.10" class="stroke"/>
<use x="235.50" y="371.00" xlink:href="#hd"/>
<path d="M239.00 371.00v-20.40" class="stroke"/>
<use x="254.90" y="368.00" xlink:href="#hd"/>
<path d="M258.40 368.00v-19.60" class="stroke"/>
<use x="274.30" y="365.00" xlink:href="#hd"/>
<path d="M277.80 365.00v-18.90" class="stroke"/>
<use x="295.70" y="368.00" xlink:href="#hd"/>
<circle class="fill" cx="303.40" cy="365.00" r="1.2"/>
<path d="M299.20 368.00v-21.00" class="stroke"/>
<path class="fill"
	d="M326.70 388.00l22.60 0.00v-3.20l-22.60 -0.00"/>
<path class="fill"
	d="M327.10 383.00l21.90 0.00v-3.20l-21.90 -0.00"/>
<use x="330.60" y="368.00" xlink:href="#hd"/>
<path d="M327.10 368.00v19.00" class="stroke"/>
<use x="341.50" y="365.00" xlink:href="#hd"/>
<path d="M338.00 365.00v22.00" class="stroke"/>
<use x="352.50" y="368.00" xlink:href="#hd"/>
<path d="M349.00 368.00v19.00" class="stroke"/>
<path class="fill"
	d="M373.60 390.20l58.80 0.00v-3.20l-58.80 -0.00"/>
<use x="377.50" y="371.00" xlink:href="#hd"/>
<path d="M374.00 371.00v18.20" class="stroke"/>
<use x="396.90" y="368.00" xlink:href="#hd"/>
<path d="M393.40 368.00v21.20" class="stroke"/>
<use x="416.20" y="365.00" xlink:href="#hd"/>
<path d="M412.70 365.00v24.20" class="stroke"/>
<use x="435.60" y="371.00" xlink:href="#hd"/>
<path d="M432.10 371.00v18.20" class="stroke"/>
<use x="457.10" y="356.00" xlink:href="#hd"/>
<circle class="fill" cx="464.80" cy="353.00" r="1.2"/>
<path d="M453.60 356.00v21.00" class="stroke"/>
<use x="491.70" y="359.00" xlink:href="#hd"/>
<path d="M488.20 359.00v21.00" class="stroke"/>
<path class="fill"
	d="M488.20 380.00c0.6 -5.6 9.6 -9 5.6 -18.4
	1.6 6 -1.3 11.6 -5.6 12.8
"/>
<path class="fill"
	d="M515.80 383.00l59.40 0.00v-3.20l-59.40 -0.00"/>
<use x="519.70" y="359.00" xlink:href="#hd"/>
<path d="M516.20 359.00v23.00" class="stroke"/>
<use x="539.00" y="362.00" xlink:href="#hd"/>
<path d="M535.50 362.00v20.00" class="stroke"/>
<use x="559.00" y="365.00" xlink:href="#hd"/>
<use x="550.00" y="365.00" xlink:href="#sh0"/>
<path d="M555.50 365.00v17.00" class="stroke"/>
<use x="578.40" y="359.00" xlink:href="#hd"/>
<path d="M574.90 359.00v23.00" class="stroke"/>
<path class="fill"
	d="M596.00 386.20l42.30 0.00v-3.20l-42.30 -0.00"/>
<path class="fill"
	d="M596.30 381.20l41.60 0.00v-3.20l-41.60 -0.00"/>
<use x="599.80" y="362.00" xlink:href="#hd"/>
<path d="M596.30 362.00v23.20" class="stroke"/>
<use x="613.70" y="362.00" xlink:href="#hd"/>
<path d="M610.20 362.00v23.20" class="stroke"/>
<use x="627.60" y="362.00" xlink:href="#hd"/>
<path d="M624.10 362.00v23.20" class="stroke"/>
<use x="641.40" y="362.00" xlink:href="#hd"/>
<path d="M637.90 362.00v23.20" class="stroke"/>
<use x="656.80" y="362.00" xlink:href="#hd"/>
<path d="M653.30 362.00v21.00" class="stroke"/>
<path class="fill"
	d="M653.30 383.00c0.6 -5.6 9.6 -9 5.6 -18.4
	1.6 6 -1.3 11.6 -5.6 12.8
"/>
<use x="676.20" y="368.00" xlink:href="#r8"/>
</g>
<g stroke-width="0.70" style="font:italic 14.00px Times">
<path class="stroke" stroke-width="1"
	d="M273.70 450.00v-24.00"/>
<path class="stroke" stroke-width="1"
	d="M511.10 450.00v-24.00"/>
<path class="stroke" stroke-width="3"
	d="M690.10 450.00v-24.00"/>
<path class="stroke" stroke-width="1"
	d="M685.60 450.00v-24.00"/>
<path d="m10.00 450.00
	h681.60
	M10.00 444.00
	h681.60
	M10.00 438.00
	h681.60
	M10.00 432.00
	h681.60
	M10.00 426.00
	h681.60
	" class="stroke"/>
<text style="font:italic 12px serif"
	x="246.40" y="420.70" text-anchor="middle">3</text>
<use x="22.00" y="444.00" xlink:href="#tclef"/>
<use x="37.00" y="426.00" xlink:href="#sh0"/>
<path class="fill"
	d="M51.20 457.20l91.10 -7.30v-3.20l-91.10 7.30"/>
<use x="55.00" y="438.00" xlink:href="#hd"/>
<path d="M51.50 438.00v18.20" class="stroke"/>
<use x="85.10" y="435.00" xlink:href="#hd"/>
<path d="M81.60 435.00v18.80" class="stroke"/>
<use x="115.30" y="432.00" xlink:href="#hd"/>
<path d="M111.80 432.00v19.40" class="stroke"/>
<use x="145.40" y="423.00" xlink:href="#hd"/>
<path d="M141.90 423.00v25.90" class="stroke"/>
<use x="178.90" y="432.00" xlink:href="#hd"/>
<circle class="fill" cx="186.60" cy="429.00" r="1.2"/>
<path d="M175.40 432.00v21.00" class="stroke"/>
<path class="fill"
	d="M230.60 429.30l33.90 -4.50v3.20l-33.90 4.50"/>
<path class="fill"
	d="M231.00 434.20l33.30 -4.40v3.20l-33.30 4.40"/>
<use x="227.50" y="453.00" xlink:href="#hd"/>
<path d="M231.00 453.00v-22.80" class="stroke"/>
<use x="244.10" y="450.00" xlink:href="#hd"/>
<path d="M247.60 450.00v-22.00" class="stroke"/>
<use x="260.70" y="447.00" xlink:href="#hd"/>
<path d="M264.20 447.00v-21.20" class="stroke"/>
<path class="fill"
	d="M286.60 460.20l91.10 -6.90v-3.20l-91.10 6.90"/>
<use x="290.40" y="441.00" xlink:href="#hd"/>
<path d="M286.90 441.00v18.20" class="stroke"/>
<use x="320.60" y="435.00" xlink:href="#hd"/>
<path d="M317.10 435.00v21.90" class="stroke"/>
<use x="350.70" y="426.00" xlink:href="#hd"/>
<path d="M347.20 426.00v28.60" class="stroke"/>
<use x="380.80" y="429.00" xlink:href="#hd"/>
<path d="M377.30 429.00v23.30" class="stroke"/>
<path class="fill"
	d="M410.50 450.20l30.80 2.60v-3.20l-30.80 -2.60"/>
<use x="414.30" y="429.00" xlink:href="#hd"/>
<path d="M410.80 429.00v20.20" class="stroke"/>
<use x="444.50" y="432.00" xlink:href="#hd"/>
<path d="M441.00 432.00v19.80" class="stroke"/>
<use x="478.00" y="432.00" xlink:href="#hd"/>
<path d="M474.50 432.00v21.00" class="stroke"/>
<path class="fill"
	d="M524.00 453.70l91.10 7.60v-3.20l-91.10 -7.60"/>
<use x="527.90" y="432.00" xlink:href="#hd"/>
<path d="M524.40 432.00v20.70" class="stroke"/>
<use x="558.00" y="435.00" xlink:href="#hd"/>
<path d="M554.50 435.00v20.20" class="stroke"/>
<use x="588.20" y="438.00" xlink:href="#hd"/>
<path d="M584.70 438.00v19.80" class="stroke"/>
<use x="618.30" y="441.00" xlink:href="#hd"/>
<path d="M614.80 441.00v19.30" class="stroke"/>
<use x="648.50" y="453.00" xlink:href="#hd"/>
<circle class="fill" cx="656.20" cy="453.00" r="1.2"/>
<path d="M652.00 453.00v-21.00" class="stroke"/>
</g>
</svg>
