<?xml version="1.0" standalone="no"?>
<!DOCTYPE svg PUBLIC "-//W3C//DTD SVG 1.1//EN"
	"http://www.w3.org/Graphics/SVG/1.1/DTD/svg11.dtd">
<svg xmlns="http://www.w3.org/2000/svg" version="1.1"
	xmlns:xlink="http://www.w3.org/1999/xlink"
	color="black"
	width="701.60px" height="659.86px">
<style type="text/css">
.fill {fill: currentColor}
.stroke {stroke: currentColor; fill: none}
text{white-space: pre}
</style>
<title>/media/tim/Data1/tims_code/sphinx-tunes/source/_abcfiles/William Woods.a (1) tune 1</title>
<!-- Creator: abcm2ps-8.14.6 -->
<!-- CreationDate: Jul 30, 2023 12:21 -->
<!-- CommandLine: -g '/media/tim/Data1/tims_code/sphinx-tunes/source/_abcfiles/William Woods.abc' -O '/media/tim/Data1/tims_code/sphinx-tunes/source/_abcfiles/William Woods.svg' -->
<g stroke-width="0.70">
<!-- title: William Wood's Hornpipe & The Bridge End -->
</g>
<g stroke-width="0.70" style="font:20.00px Times">
<text x="350.80" y="22.00" text-anchor="middle">William Wood&apos;s Hornpipe &amp; The Bridge End</text>
</g>
<g stroke-width="0.70" style="font:italic 14.00px Times">
<text x="691.60" y="46.00" text-anchor="end">Chris Ormiston</text>
</g>
<g stroke-width="0.70" style="font:italic 14.00px Times">
<!-- subtitle: William Wood's Hornpipe -->
</g>
<g stroke-width="0.70" style="font:16.00px Times">
<text x="350.80" y="67.80" text-anchor="middle">William Wood&apos;s Hornpipe</text>
<defs>
<g id="rdots" class="fill">
	<circle cx="0" cy="-9" r="1.2"/>
	<circle cx="0" cy="-15" r="1.2"/>
</g>
</defs>
<use x="119.00" y="118.00" xlink:href="#rdots"/>
<path class="stroke" stroke-width="1"
	d="M115.00 118.00v-24.00"/>
<path class="stroke" stroke-width="3"
	d="M110.50 118.00v-24.00"/>
<path class="stroke" stroke-width="1"
	d="M264.00 118.00v-24.00"/>
<path class="stroke" stroke-width="1"
	d="M407.60 118.00v-24.00"/>
<path class="stroke" stroke-width="1"
	d="M558.60 118.00v-24.00"/>
<path class="stroke" stroke-width="1"
	d="M691.60 118.00v-24.00"/>
<path d="m10.00 118.00
	h681.60
	M10.00 112.00
	h681.60
	M10.00 106.00
	h681.60
	M10.00 100.00
	h681.60
	M10.00 94.00
	h681.60
	" class="stroke"/>
<text style="font:italic 12px serif"
	x="87.60" y="90.70" text-anchor="middle">3</text>
<text style="font:italic 12px serif"
	x="667.10" y="90.70" text-anchor="middle">3</text>
<defs>
<path id="utclef" class="fill" d="m-50 -90
	c-72 -41 -72 -158 52 -188
	150 -10 220 188 90 256
	-114 52 -275 0 -293 -136
	-15 -181 93 -229 220 -334
	88 -87 79 -133 62 -210
	-51 33 -94 105 -89 186
	17 267 36 374 49 574
	6 96 -19 134 -77 135
	-80 1 -126 -93 -61 -133
	85 -41 133 101 31 105
	23 17 92 37 90 -92
	-10 -223 -39 -342 -50 -617
	0 -90 0 -162 96 -232
	56 72 63 230 22 289
	-74 106 -257 168 -255 316
	9 153 148 185 252 133
	86 -65 29 -192 -80 -176
	-71 12 -105 67 -59 124"/>
<use id="tclef" transform="translate(0,6) scale(0.045)"
	xlink:href="#utclef"/>
</defs>
<use x="22.00" y="112.00" xlink:href="#tclef"/>
<defs>
<path id="usharp" class="fill" d="
	m136 -702
	v890
	h32
	v-890
	m128 840
	h32
	v-888
	h-32
	m-232 286
	v116
	l338 -96
	v-116
	m-338 442
	v116
	l338 -98
	v-114"/>
<use id="sh0" transform="translate(-4,5) scale(0.018)"
	xlink:href="#usharp"/>
</defs>
<use x="37.00" y="94.00" xlink:href="#sh0"/>
<defs>
<path id="csig" class="fill" d="
	m6 -5.3
	c0.9 0 2.3 0.7 2.4 2.2
	-1.2 -2 -3.6 0.1 -1.6 1.7
	2 1 3.8 -3.5 -0.8 -4.7
	-2 -0.4 -6.4 1.3 -5.8 7
	0.4 6.4 7.9 6.8 9.1 0.7
	-2.3 5.6 -6.7 5.1 -6.8 0
	-0.5 -4.4 0.7 -7.5 3.5 -6.9"/>
<g id="ctsig">
	<use xlink:href="#csig"/>
	<path d="m5 8v-16" class="stroke"/>
</g>
</defs>
<use x="48.00" y="106.00" xlink:href="#ctsig"/>
<path class="fill"
	d="M74.20 99.20l29.20 -4.30v3.20l-29.20 4.30"/>
<defs>
<ellipse id="hd" rx="4.1" ry="2.9"
	transform="rotate(-20)" class="fill"/>
</defs>
<use x="71.00" y="121.00" xlink:href="#hd"/>
<path d="M74.50 121.00v-20.90" class="stroke"/>
<use x="85.30" y="118.00" xlink:href="#hd"/>
<path d="M88.80 118.00v-20.00" class="stroke"/>
<use x="99.50" y="115.00" xlink:href="#hd"/>
<path d="M103.00 115.00v-19.10" class="stroke"/>
<path class="fill"
	d="M135.70 87.70l22.00 -4.00v3.20l-22.00 4.00"/>
<path class="fill"
	d="M150.30 90.10l7.00 -1.30v3.20l-7.00 1.30"/>
<use x="132.50" y="112.00" xlink:href="#hd"/>
<circle class="fill" cx="140.20" cy="109.00" r="1.2"/>
<path d="M136.00 112.00v-23.40" class="stroke"/>
<use x="153.80" y="106.00" xlink:href="#hd"/>
<path d="M157.30 106.00v-21.20" class="stroke"/>
<path class="fill"
	d="M164.70 124.30l22.00 4.00v-3.20l-22.00 -4.00"/>
<path class="fill"
	d="M179.30 121.90l7.00 1.30v-3.20l-7.00 -1.30"/>
<use x="168.50" y="100.00" xlink:href="#hd"/>
<circle class="fill" cx="176.20" cy="97.00" r="1.2"/>
<path d="M165.00 100.00v23.40" class="stroke"/>
<use x="189.80" y="106.00" xlink:href="#hd"/>
<path d="M186.30 106.00v21.20" class="stroke"/>
<use x="202.90" y="112.00" xlink:href="#hd"/>
<path d="M206.40 112.00v-21.00" class="stroke"/>
<path class="fill"
	d="M233.40 90.30l22.00 2.40v3.20l-22.00 -2.40"/>
<path class="fill"
	d="M248.00 96.90l7.00 0.80v3.20l-7.00 -0.80"/>
<use x="230.20" y="112.00" xlink:href="#hd"/>
<circle class="fill" cx="237.90" cy="109.00" r="1.2"/>
<path d="M233.70 112.00v-20.70" class="stroke"/>
<use x="251.50" y="115.00" xlink:href="#hd"/>
<path d="M255.00 115.00v-21.30" class="stroke"/>
<path class="fill"
	d="M279.70 81.80l56.30 0.00v3.20l-56.30 -0.00"/>
<path class="fill"
	d="M294.30 86.80l7.00 0.00v3.20l-7.00 -0.00"/>
<path class="fill"
	d="M328.60 86.80l7.00 0.00v3.20l-7.00 -0.00"/>
<use x="276.50" y="118.00" xlink:href="#hd"/>
<circle class="fill" cx="284.20" cy="115.00" r="1.2"/>
<path d="M280.00 118.00v-35.20" class="stroke"/>
<use x="297.80" y="112.00" xlink:href="#hd"/>
<path d="M301.30 112.00v-29.20" class="stroke"/>
<use x="310.80" y="103.00" xlink:href="#hd"/>
<circle class="fill" cx="318.50" cy="103.00" r="1.2"/>
<path d="M314.30 103.00v-20.20" class="stroke"/>
<use x="332.10" y="118.00" xlink:href="#hd"/>
<path d="M335.60 118.00v-35.20" class="stroke"/>
<use x="346.50" y="121.00" xlink:href="#hd"/>
<path d="M350.00 121.00v-21.00" class="stroke"/>
<path class="fill"
	d="M377.00 89.20l22.00 -2.40v3.20l-22.00 2.40"/>
<path class="fill"
	d="M391.60 92.60l7.00 -0.80v3.20l-7.00 0.80"/>
<use x="373.80" y="112.00" xlink:href="#hd"/>
<circle class="fill" cx="381.50" cy="109.00" r="1.2"/>
<path d="M377.30 112.00v-21.90" class="stroke"/>
<use x="395.10" y="109.00" xlink:href="#hd"/>
<path d="M398.60 109.00v-21.20" class="stroke"/>
<path class="fill"
	d="M423.30 80.80l56.30 0.00v3.20l-56.30 -0.00"/>
<path class="fill"
	d="M437.90 85.80l7.00 0.00v3.20l-7.00 -0.00"/>
<path class="fill"
	d="M472.30 85.80l7.00 0.00v3.20l-7.00 -0.00"/>
<use x="420.10" y="106.00" xlink:href="#hd"/>
<circle class="fill" cx="427.80" cy="103.00" r="1.2"/>
<path d="M423.60 106.00v-24.20" class="stroke"/>
<use x="441.40" y="112.00" xlink:href="#hd"/>
<path d="M444.90 112.00v-30.20" class="stroke"/>
<use x="454.50" y="100.00" xlink:href="#hd"/>
<circle class="fill" cx="462.20" cy="97.00" r="1.2"/>
<path d="M458.00 100.00v-18.20" class="stroke"/>
<use x="475.80" y="112.00" xlink:href="#hd"/>
<path d="M479.30 112.00v-30.20" class="stroke"/>
<path class="fill"
	d="M486.60 127.30l56.30 6.90v-3.20l-56.30 -6.90"/>
<path class="fill"
	d="M501.30 124.10l7.00 0.90v-3.20l-7.00 -0.90"/>
<path class="fill"
	d="M535.60 128.30l7.00 0.90v-3.20l-7.00 -0.90"/>
<use x="490.50" y="97.00" xlink:href="#hd"/>
<circle class="fill" cx="498.20" cy="97.00" r="1.2"/>
<path d="M487.00 97.00v29.40" class="stroke"/>
<use x="511.80" y="100.00" xlink:href="#hd"/>
<path d="M508.30 100.00v29.00" class="stroke"/>
<use x="524.80" y="106.00" xlink:href="#hd"/>
<circle class="fill" cx="532.50" cy="103.00" r="1.2"/>
<path d="M521.30 106.00v24.60" class="stroke"/>
<use x="546.10" y="112.00" xlink:href="#hd"/>
<path d="M542.60 112.00v21.20" class="stroke"/>
<use x="571.10" y="106.00" xlink:href="#hd"/>
<path d="M567.60 106.00v21.00" class="stroke"/>
<use x="595.90" y="109.00" xlink:href="#hd"/>
<path d="M599.40 109.00v-21.00" class="stroke"/>
<use x="623.20" y="109.00" xlink:href="#hd"/>
<path d="M626.70 109.00v-21.00" class="stroke"/>
<path class="fill"
	d="M653.70 99.20l29.20 -4.30v3.20l-29.20 4.30"/>
<use x="650.60" y="121.00" xlink:href="#hd"/>
<path d="M654.10 121.00v-20.90" class="stroke"/>
<use x="664.80" y="118.00" xlink:href="#hd"/>
<path d="M668.30 118.00v-20.00" class="stroke"/>
<use x="679.10" y="115.00" xlink:href="#hd"/>
<path d="M682.60 115.00v-19.10" class="stroke"/>
</g>
<g stroke-width="0.70" style="font:16.00px Times">
<path class="stroke" stroke-width="1"
	d="M218.60 188.00v-24.00"/>
<path class="stroke" stroke-width="1"
	d="M395.10 188.00v-24.00"/>
<path class="stroke" stroke-width="1"
	d="M576.40 188.00v-24.00"/>
<path class="stroke" stroke-width="3"
	d="M690.10 188.00v-24.00"/>
<path class="stroke" stroke-width="1"
	d="M685.60 188.00v-24.00"/>
<use x="681.60" y="188.00" xlink:href="#rdots"/>
<path d="m10.00 188.00
	h681.60
	M10.00 182.00
	h681.60
	M10.00 176.00
	h681.60
	M10.00 170.00
	h681.60
	M10.00 164.00
	h681.60
	" class="stroke"/>
<use x="22.00" y="182.00" xlink:href="#tclef"/>
<use x="37.00" y="164.00" xlink:href="#sh0"/>
<path class="fill"
	d="M58.20 153.10l70.20 -3.70v3.20l-70.20 3.70"/>
<path class="fill"
	d="M78.00 157.00l7.00 -0.40v3.20l-7.00 0.40"/>
<path class="fill"
	d="M121.00 154.80l7.00 -0.40v3.20l-7.00 0.40"/>
<use x="55.00" y="182.00" xlink:href="#hd"/>
<circle class="fill" cx="62.70" cy="179.00" r="1.2"/>
<path d="M58.50 182.00v-27.90" class="stroke"/>
<use x="81.50" y="176.00" xlink:href="#hd"/>
<path d="M85.00 176.00v-23.30" class="stroke"/>
<use x="98.00" y="170.00" xlink:href="#hd"/>
<circle class="fill" cx="105.70" cy="167.00" r="1.2"/>
<path d="M101.50 170.00v-18.20" class="stroke"/>
<use x="124.50" y="176.00" xlink:href="#hd"/>
<path d="M128.00 176.00v-25.60" class="stroke"/>
<use x="142.80" y="182.00" xlink:href="#hd"/>
<path d="M146.30 182.00v-21.00" class="stroke"/>
<path class="fill"
	d="M182.30 160.20l27.20 2.50v3.20l-27.20 -2.50"/>
<path class="fill"
	d="M202.20 167.10l7.00 0.60v3.20l-7.00 -0.60"/>
<use x="179.20" y="182.00" xlink:href="#hd"/>
<circle class="fill" cx="186.90" cy="179.00" r="1.2"/>
<path d="M182.70 182.00v-20.70" class="stroke"/>
<use x="205.70" y="185.00" xlink:href="#hd"/>
<path d="M209.20 185.00v-21.30" class="stroke"/>
<path class="fill"
	d="M234.70 151.80l70.20 0.00v3.20l-70.20 -0.00"/>
<path class="fill"
	d="M254.60 156.80l7.00 0.00v3.20l-7.00 -0.00"/>
<path class="fill"
	d="M297.60 156.80l7.00 0.00v3.20l-7.00 -0.00"/>
<use x="231.60" y="188.00" xlink:href="#hd"/>
<circle class="fill" cx="239.30" cy="185.00" r="1.2"/>
<path d="M235.10 188.00v-35.20" class="stroke"/>
<use x="258.10" y="182.00" xlink:href="#hd"/>
<path d="M261.60 182.00v-29.20" class="stroke"/>
<use x="274.50" y="173.00" xlink:href="#hd"/>
<circle class="fill" cx="282.20" cy="173.00" r="1.2"/>
<path d="M278.00 173.00v-20.20" class="stroke"/>
<use x="301.10" y="188.00" xlink:href="#hd"/>
<path d="M304.60 188.00v-35.20" class="stroke"/>
<use x="319.30" y="191.00" xlink:href="#hd"/>
<path d="M322.80 191.00v-21.00" class="stroke"/>
<path class="fill"
	d="M358.90 159.30l27.20 -2.50v3.20l-27.20 2.50"/>
<path class="fill"
	d="M378.80 162.40l7.00 -0.60v3.20l-7.00 0.60"/>
<use x="355.80" y="182.00" xlink:href="#hd"/>
<circle class="fill" cx="363.50" cy="179.00" r="1.2"/>
<path d="M359.30 182.00v-21.80" class="stroke"/>
<use x="382.30" y="179.00" xlink:href="#hd"/>
<path d="M385.80 179.00v-21.20" class="stroke"/>
<path class="fill"
	d="M404.30 196.00l70.20 0.00v-3.20l-70.20 -0.00"/>
<path class="fill"
	d="M424.20 191.00l7.00 0.00v-3.20l-7.00 -0.00"/>
<path class="fill"
	d="M467.10 191.00l7.00 0.00v-3.20l-7.00 -0.00"/>
<use x="408.10" y="176.00" xlink:href="#hd"/>
<circle class="fill" cx="415.80" cy="173.00" r="1.2"/>
<path d="M404.60 176.00v19.00" class="stroke"/>
<use x="434.70" y="167.00" xlink:href="#hd"/>
<path d="M431.20 167.00v28.00" class="stroke"/>
<use x="451.10" y="170.00" xlink:href="#hd"/>
<circle class="fill" cx="458.80" cy="167.00" r="1.2"/>
<path d="M447.60 170.00v25.00" class="stroke"/>
<use x="477.60" y="173.00" xlink:href="#hd"/>
<path d="M474.10 173.00v22.00" class="stroke"/>
<path class="fill"
	d="M497.20 154.90l70.20 4.90v3.20l-70.20 -4.90"/>
<path class="fill"
	d="M517.10 161.30l7.00 0.50v3.20l-7.00 -0.50"/>
<path class="fill"
	d="M560.10 164.30l7.00 0.50v3.20l-7.00 -0.50"/>
<use x="494.10" y="176.00" xlink:href="#hd"/>
<circle class="fill" cx="501.80" cy="173.00" r="1.2"/>
<path d="M497.60 176.00v-20.10" class="stroke"/>
<use x="520.60" y="179.00" xlink:href="#hd"/>
<path d="M524.10 179.00v-21.20" class="stroke"/>
<use x="537.10" y="182.00" xlink:href="#hd"/>
<circle class="fill" cx="544.80" cy="179.00" r="1.2"/>
<path d="M540.60 182.00v-23.00" class="stroke"/>
<use x="563.60" y="185.00" xlink:href="#hd"/>
<path d="M567.10 185.00v-24.20" class="stroke"/>
<use x="589.40" y="179.00" xlink:href="#hd"/>
<path d="M592.90 179.00v-21.00" class="stroke"/>
<use x="625.90" y="182.00" xlink:href="#hd"/>
<path d="M629.40 182.00v-21.00" class="stroke"/>
<use x="662.30" y="182.00" xlink:href="#hd"/>
<path d="M665.80 182.00v-21.00" class="stroke"/>
</g>
<g stroke-width="0.70" style="font:16.00px Times">
<path class="stroke" stroke-width="1"
	d="M89.80 258.00v-24.00"/>
<path class="stroke" stroke-width="1"
	d="M240.00 258.00v-24.00"/>
<path class="stroke" stroke-width="1"
	d="M388.80 258.00v-24.00"/>
<path class="stroke" stroke-width="1"
	d="M551.40 258.00v-24.00"/>
<path class="stroke" stroke-width="1"
	d="M691.60 258.00v-24.00"/>
<path d="m10.00 258.00
	h681.60
	M10.00 252.00
	h681.60
	M10.00 246.00
	h681.60
	M10.00 240.00
	h681.60
	M10.00 234.00
	h681.60
	" class="stroke"/>
<text style="font:italic 12px serif"
	x="666.40" y="230.70" text-anchor="middle">3</text>
<use x="22.00" y="252.00" xlink:href="#tclef"/>
<use x="37.00" y="234.00" xlink:href="#sh0"/>
<path class="fill"
	d="M58.20 227.30l22.90 2.40v3.20l-22.90 -2.40"/>
<path class="fill"
	d="M73.80 233.90l7.00 0.70v3.20l-7.00 -0.70"/>
<use x="55.00" y="249.00" xlink:href="#hd"/>
<circle class="fill" cx="62.70" cy="249.00" r="1.2"/>
<path d="M58.50 249.00v-20.70" class="stroke"/>
<use x="77.30" y="252.00" xlink:href="#hd"/>
<path d="M80.80 252.00v-21.30" class="stroke"/>
<path class="fill"
	d="M105.40 223.20l58.90 -3.90v3.20l-58.90 3.90"/>
<path class="fill"
	d="M121.00 227.20l7.00 -0.50v3.20l-7.00 0.50"/>
<path class="fill"
	d="M157.00 224.80l7.00 -0.50v3.20l-7.00 0.50"/>
<use x="102.30" y="255.00" xlink:href="#hd"/>
<circle class="fill" cx="110.00" cy="255.00" r="1.2"/>
<path d="M105.80 255.00v-30.80" class="stroke"/>
<use x="124.50" y="249.00" xlink:href="#hd"/>
<path d="M128.00 249.00v-26.30" class="stroke"/>
<use x="138.20" y="240.00" xlink:href="#hd"/>
<circle class="fill" cx="145.90" cy="237.00" r="1.2"/>
<path d="M141.70 240.00v-18.20" class="stroke"/>
<use x="160.50" y="249.00" xlink:href="#hd"/>
<path d="M164.00 249.00v-28.70" class="stroke"/>
<use x="175.60" y="255.00" xlink:href="#hd"/>
<path d="M179.10 255.00v-21.00" class="stroke"/>
<path class="fill"
	d="M201.40 263.30l22.90 2.40v-3.20l-22.90 -2.40"/>
<path class="fill"
	d="M217.00 259.90l7.00 0.70v-3.20l-7.00 -0.70"/>
<use x="205.20" y="240.00" xlink:href="#hd"/>
<circle class="fill" cx="212.90" cy="237.00" r="1.2"/>
<path d="M201.70 240.00v22.30" class="stroke"/>
<use x="227.50" y="243.00" xlink:href="#hd"/>
<path d="M224.00 243.00v21.70" class="stroke"/>
<path class="fill"
	d="M248.60 266.00l58.90 0.00v-3.20l-58.90 -0.00"/>
<path class="fill"
	d="M264.20 261.00l7.00 0.00v-3.20l-7.00 -0.00"/>
<path class="fill"
	d="M300.20 261.00l7.00 0.00v-3.20l-7.00 -0.00"/>
<use x="252.50" y="246.00" xlink:href="#hd"/>
<circle class="fill" cx="260.20" cy="243.00" r="1.2"/>
<path d="M249.00 246.00v19.00" class="stroke"/>
<use x="274.70" y="243.00" xlink:href="#hd"/>
<path d="M271.20 243.00v22.00" class="stroke"/>
<use x="288.50" y="240.00" xlink:href="#hd"/>
<circle class="fill" cx="296.20" cy="237.00" r="1.2"/>
<path d="M285.00 240.00v25.00" class="stroke"/>
<use x="310.70" y="246.00" xlink:href="#hd"/>
<path d="M307.20 246.00v19.00" class="stroke"/>
<use x="324.40" y="252.00" xlink:href="#hd"/>
<path d="M327.90 252.00v-21.00" class="stroke"/>
<path class="fill"
	d="M350.20 260.30l22.90 2.40v-3.20l-22.90 -2.40"/>
<path class="fill"
	d="M365.80 256.90l7.00 0.70v-3.20l-7.00 -0.70"/>
<use x="354.00" y="237.00" xlink:href="#hd"/>
<circle class="fill" cx="361.70" cy="237.00" r="1.2"/>
<path d="M350.50 237.00v22.30" class="stroke"/>
<use x="376.30" y="240.00" xlink:href="#hd"/>
<path d="M372.80 240.00v21.70" class="stroke"/>
<path class="fill"
	d="M403.40 264.10l58.90 -4.90v-3.20l-58.90 4.90"/>
<path class="fill"
	d="M419.00 257.80l7.00 -0.60v-3.20l-7.00 0.60"/>
<path class="fill"
	d="M455.00 254.80l7.00 -0.60v-3.20l-7.00 0.60"/>
<use x="407.30" y="243.00" xlink:href="#hd"/>
<circle class="fill" cx="415.00" cy="243.00" r="1.2"/>
<use x="398.30" y="243.00" xlink:href="#sh0"/>
<path d="M403.80 243.00v20.00" class="stroke"/>
<use x="429.50" y="240.00" xlink:href="#hd"/>
<path d="M426.00 240.00v21.20" class="stroke"/>
<use x="443.20" y="237.00" xlink:href="#hd"/>
<circle class="fill" cx="450.90" cy="237.00" r="1.2"/>
<path d="M439.70 237.00v23.10" class="stroke"/>
<use x="465.50" y="234.00" xlink:href="#hd"/>
<path d="M462.00 234.00v24.20" class="stroke"/>
<path class="fill"
	d="M476.80 263.30l58.90 8.00v-3.20l-58.90 -8.00"/>
<path class="fill"
	d="M492.40 260.40l7.00 0.90v-3.20l-7.00 -0.90"/>
<path class="fill"
	d="M528.40 265.30l7.00 0.90v-3.20l-7.00 -0.90"/>
<use x="480.60" y="231.00" xlink:href="#hd"/>
<circle class="fill" cx="488.30" cy="231.00" r="1.2"/>
<path d="M477.10 231.00v31.30" class="stroke"/>
<use x="502.90" y="237.00" xlink:href="#hd"/>
<path d="M499.40 237.00v28.30" class="stroke"/>
<use x="516.60" y="243.00" xlink:href="#hd"/>
<circle class="fill" cx="524.30" cy="243.00" r="1.2"/>
<path d="M513.10 243.00v24.20" class="stroke"/>
<use x="538.90" y="249.00" xlink:href="#hd"/>
<path d="M535.40 249.00v21.20" class="stroke"/>
<use x="563.90" y="237.00" xlink:href="#hd"/>
<path d="M560.40 237.00v21.00" class="stroke"/>
<use x="593.20" y="240.00" xlink:href="#hd"/>
<path d="M589.70 240.00v21.00" class="stroke"/>
<use x="622.50" y="240.00" xlink:href="#hd"/>
<path d="M619.00 240.00v21.00" class="stroke"/>
<path class="fill"
	d="M652.20 239.20l30.70 -4.40v3.20l-30.70 4.40"/>
<use x="649.00" y="261.00" xlink:href="#hd"/>
<path d="M652.50 261.00v-20.90" class="stroke"/>
<use x="664.10" y="258.00" xlink:href="#hd"/>
<path d="M667.60 258.00v-20.00" class="stroke"/>
<use x="679.10" y="255.00" xlink:href="#hd"/>
<path d="M682.60 255.00v-19.10" class="stroke"/>
</g>
<g stroke-width="0.70" style="font:16.00px Times">
<path class="stroke" stroke-width="1"
	d="M218.60 328.00v-24.00"/>
<path class="stroke" stroke-width="1"
	d="M395.10 328.00v-24.00"/>
<path class="stroke" stroke-width="1"
	d="M576.40 328.00v-24.00"/>
<path class="stroke" stroke-width="3"
	d="M690.10 328.00v-24.00"/>
<path class="stroke" stroke-width="1"
	d="M685.60 328.00v-24.00"/>
<use x="681.60" y="328.00" xlink:href="#rdots"/>
<path d="m10.00 328.00
	h681.60
	M10.00 322.00
	h681.60
	M10.00 316.00
	h681.60
	M10.00 310.00
	h681.60
	M10.00 304.00
	h681.60
	" class="stroke"/>
<use x="22.00" y="322.00" xlink:href="#tclef"/>
<use x="37.00" y="304.00" xlink:href="#sh0"/>
<path class="fill"
	d="M58.20 293.10l70.20 -3.70v3.20l-70.20 3.70"/>
<path class="fill"
	d="M78.00 297.00l7.00 -0.40v3.20l-7.00 0.40"/>
<path class="fill"
	d="M121.00 294.80l7.00 -0.40v3.20l-7.00 0.40"/>
<use x="55.00" y="322.00" xlink:href="#hd"/>
<circle class="fill" cx="62.70" cy="319.00" r="1.2"/>
<path d="M58.50 322.00v-27.90" class="stroke"/>
<use x="81.50" y="316.00" xlink:href="#hd"/>
<path d="M85.00 316.00v-23.30" class="stroke"/>
<use x="98.00" y="310.00" xlink:href="#hd"/>
<circle class="fill" cx="105.70" cy="307.00" r="1.2"/>
<path d="M101.50 310.00v-18.20" class="stroke"/>
<use x="124.50" y="316.00" xlink:href="#hd"/>
<path d="M128.00 316.00v-25.60" class="stroke"/>
<use x="142.80" y="322.00" xlink:href="#hd"/>
<path d="M146.30 322.00v-21.00" class="stroke"/>
<path class="fill"
	d="M182.30 300.20l27.20 2.50v3.20l-27.20 -2.50"/>
<path class="fill"
	d="M202.20 307.10l7.00 0.60v3.20l-7.00 -0.60"/>
<use x="179.20" y="322.00" xlink:href="#hd"/>
<circle class="fill" cx="186.90" cy="319.00" r="1.2"/>
<path d="M182.70 322.00v-20.70" class="stroke"/>
<use x="205.70" y="325.00" xlink:href="#hd"/>
<path d="M209.20 325.00v-21.30" class="stroke"/>
<path class="fill"
	d="M234.70 291.80l70.20 0.00v3.20l-70.20 -0.00"/>
<path class="fill"
	d="M254.60 296.80l7.00 0.00v3.20l-7.00 -0.00"/>
<path class="fill"
	d="M297.60 296.80l7.00 0.00v3.20l-7.00 -0.00"/>
<use x="231.60" y="328.00" xlink:href="#hd"/>
<circle class="fill" cx="239.30" cy="325.00" r="1.2"/>
<path d="M235.10 328.00v-35.20" class="stroke"/>
<use x="258.10" y="322.00" xlink:href="#hd"/>
<path d="M261.60 322.00v-29.20" class="stroke"/>
<use x="274.50" y="313.00" xlink:href="#hd"/>
<circle class="fill" cx="282.20" cy="313.00" r="1.2"/>
<path d="M278.00 313.00v-20.20" class="stroke"/>
<use x="301.10" y="328.00" xlink:href="#hd"/>
<path d="M304.60 328.00v-35.20" class="stroke"/>
<use x="319.30" y="331.00" xlink:href="#hd"/>
<path d="M322.80 331.00v-21.00" class="stroke"/>
<path class="fill"
	d="M358.90 299.30l27.20 -2.50v3.20l-27.20 2.50"/>
<path class="fill"
	d="M378.80 302.40l7.00 -0.60v3.20l-7.00 0.60"/>
<use x="355.80" y="322.00" xlink:href="#hd"/>
<circle class="fill" cx="363.50" cy="319.00" r="1.2"/>
<path d="M359.30 322.00v-21.80" class="stroke"/>
<use x="382.30" y="319.00" xlink:href="#hd"/>
<path d="M385.80 319.00v-21.20" class="stroke"/>
<path class="fill"
	d="M404.30 336.00l70.20 0.00v-3.20l-70.20 -0.00"/>
<path class="fill"
	d="M424.20 331.00l7.00 0.00v-3.20l-7.00 -0.00"/>
<path class="fill"
	d="M467.10 331.00l7.00 0.00v-3.20l-7.00 -0.00"/>
<use x="408.10" y="316.00" xlink:href="#hd"/>
<circle class="fill" cx="415.80" cy="313.00" r="1.2"/>
<path d="M404.60 316.00v19.00" class="stroke"/>
<use x="434.70" y="307.00" xlink:href="#hd"/>
<path d="M431.20 307.00v28.00" class="stroke"/>
<use x="451.10" y="310.00" xlink:href="#hd"/>
<circle class="fill" cx="458.80" cy="307.00" r="1.2"/>
<path d="M447.60 310.00v25.00" class="stroke"/>
<use x="477.60" y="313.00" xlink:href="#hd"/>
<path d="M474.10 313.00v22.00" class="stroke"/>
<path class="fill"
	d="M497.20 294.90l70.20 4.90v3.20l-70.20 -4.90"/>
<path class="fill"
	d="M517.10 301.30l7.00 0.50v3.20l-7.00 -0.50"/>
<path class="fill"
	d="M560.10 304.30l7.00 0.50v3.20l-7.00 -0.50"/>
<use x="494.10" y="316.00" xlink:href="#hd"/>
<circle class="fill" cx="501.80" cy="313.00" r="1.2"/>
<path d="M497.60 316.00v-20.10" class="stroke"/>
<use x="520.60" y="319.00" xlink:href="#hd"/>
<path d="M524.10 319.00v-21.20" class="stroke"/>
<use x="537.10" y="322.00" xlink:href="#hd"/>
<circle class="fill" cx="544.80" cy="319.00" r="1.2"/>
<path d="M540.60 322.00v-23.00" class="stroke"/>
<use x="563.60" y="325.00" xlink:href="#hd"/>
<path d="M567.10 325.00v-24.20" class="stroke"/>
<use x="589.40" y="319.00" xlink:href="#hd"/>
<path d="M592.90 319.00v-21.00" class="stroke"/>
<use x="625.90" y="322.00" xlink:href="#hd"/>
<path d="M629.40 322.00v-21.00" class="stroke"/>
<use x="662.30" y="322.00" xlink:href="#hd"/>
<path d="M665.80 322.00v-21.00" class="stroke"/>
</g>
<g stroke-width="0.70" style="font:16.00px Times">
<!-- subtitle: The Bridge End -->
<text x="350.80" y="366.80" text-anchor="middle">The Bridge End</text>
<use x="115.40" y="417.00" xlink:href="#rdots"/>
<path class="stroke" stroke-width="1"
	d="M111.40 417.00v-24.00"/>
<path class="stroke" stroke-width="3"
	d="M106.90 417.00v-24.00"/>
<path class="stroke" stroke-width="1"
	d="M260.70 417.00v-24.00"/>
<path class="stroke" stroke-width="1"
	d="M398.50 417.00v-24.00"/>
<path class="stroke" stroke-width="1"
	d="M542.80 417.00v-24.00"/>
<path class="stroke" stroke-width="1"
	d="M691.60 417.00v-24.00"/>
<path d="m10.00 417.00
	h681.60
	M10.00 411.00
	h681.60
	M10.00 405.00
	h681.60
	M10.00 399.00
	h681.60
	M10.00 393.00
	h681.60
	" class="stroke"/>
<text style="font:italic 12px serif"
	x="85.80" y="389.60" text-anchor="middle">3</text>
<text style="font:italic 12px serif"
	x="570.10" y="380.00" text-anchor="middle">3</text>
<text style="font:italic 12px serif"
	x="608.50" y="387.40" text-anchor="middle">3</text>
<text style="font:italic 12px serif"
	x="668.90" y="389.60" text-anchor="middle">3</text>
<use x="22.00" y="411.00" xlink:href="#tclef"/>
<use x="37.00" y="393.00" xlink:href="#sh0"/>
<use x="48.00" y="405.00" xlink:href="#ctsig"/>
<path class="fill"
	d="M74.20 398.10l25.60 -4.20v3.20l-25.60 4.20"/>
<use x="71.00" y="420.00" xlink:href="#hd"/>
<path d="M74.50 420.00v-21.00" class="stroke"/>
<use x="83.50" y="417.00" xlink:href="#hd"/>
<path d="M87.00 417.00v-20.00" class="stroke"/>
<use x="95.90" y="414.00" xlink:href="#hd"/>
<path d="M99.40 414.00v-19.00" class="stroke"/>
<path class="fill"
	d="M132.10 378.50l57.30 -4.90v3.20l-57.30 4.90"/>
<path class="fill"
	d="M144.70 382.40l7.00 -0.60v3.20l-7.00 0.60"/>
<path class="fill"
	d="M182.00 379.20l7.00 -0.60v3.20l-7.00 0.60"/>
<use x="128.90" y="411.00" xlink:href="#hd"/>
<circle class="fill" cx="136.60" cy="408.00" r="1.2"/>
<path d="M132.40 411.00v-31.50" class="stroke"/>
<use x="148.20" y="399.00" xlink:href="#hd"/>
<path d="M151.70 399.00v-21.20" class="stroke"/>
<use x="166.20" y="402.00" xlink:href="#hd"/>
<circle class="fill" cx="173.90" cy="402.00" r="1.2"/>
<use x="157.20" y="402.00" xlink:href="#sh0"/>
<path d="M169.70 402.00v-25.70" class="stroke"/>
<use x="185.50" y="399.00" xlink:href="#hd"/>
<path d="M189.00 399.00v-24.40" class="stroke"/>
<path class="fill"
	d="M201.20 380.80l50.80 0.00v3.20l-50.80 -0.00"/>
<path class="fill"
	d="M213.80 385.80l7.00 0.00v3.20l-7.00 -0.00"/>
<path class="fill"
	d="M244.70 385.80l7.00 0.00v3.20l-7.00 -0.00"/>
<use x="198.00" y="405.00" xlink:href="#hd"/>
<circle class="fill" cx="205.70" cy="402.00" r="1.2"/>
<path d="M201.50 405.00v-23.20" class="stroke"/>
<use x="217.30" y="411.00" xlink:href="#hd"/>
<path d="M220.80 411.00v-29.20" class="stroke"/>
<use x="228.90" y="408.00" xlink:href="#hd"/>
<circle class="fill" cx="236.60" cy="408.00" r="1.2"/>
<path d="M232.40 408.00v-26.20" class="stroke"/>
<use x="248.20" y="405.00" xlink:href="#hd"/>
<path d="M251.70 405.00v-23.20" class="stroke"/>
<path class="fill"
	d="M276.30 381.00l50.80 4.70v3.20l-50.80 -4.70"/>
<path class="fill"
	d="M289.00 387.20l7.00 0.60v3.20l-7.00 -0.60"/>
<path class="fill"
	d="M319.80 390.00l7.00 0.60v3.20l-7.00 -0.60"/>
<use x="273.20" y="402.00" xlink:href="#hd"/>
<circle class="fill" cx="280.90" cy="402.00" r="1.2"/>
<path d="M276.70 402.00v-20.00" class="stroke"/>
<use x="292.50" y="405.00" xlink:href="#hd"/>
<path d="M296.00 405.00v-21.20" class="stroke"/>
<use x="304.10" y="408.00" xlink:href="#hd"/>
<circle class="fill" cx="311.80" cy="408.00" r="1.2"/>
<path d="M307.60 408.00v-23.10" class="stroke"/>
<use x="323.30" y="411.00" xlink:href="#hd"/>
<path d="M326.80 411.00v-24.40" class="stroke"/>
<path class="fill"
	d="M339.00 391.00l50.80 0.00v3.20l-50.80 -0.00"/>
<path class="fill"
	d="M351.70 396.00l7.00 0.00v3.20l-7.00 -0.00"/>
<path class="fill"
	d="M382.50 396.00l7.00 0.00v3.20l-7.00 -0.00"/>
<use x="335.90" y="414.00" xlink:href="#hd"/>
<circle class="fill" cx="343.60" cy="414.00" r="1.2"/>
<path d="M339.40 414.00v-22.00" class="stroke"/>
<use x="355.20" y="420.00" xlink:href="#hd"/>
<path d="M358.70 420.00v-28.00" class="stroke"/>
<use x="366.70" y="417.00" xlink:href="#hd"/>
<circle class="fill" cx="374.40" cy="414.00" r="1.2"/>
<path d="M370.20 417.00v-25.00" class="stroke"/>
<use x="386.00" y="414.00" xlink:href="#hd"/>
<path d="M389.50 414.00v-22.00" class="stroke"/>
<path class="fill"
	d="M414.20 378.50l57.30 -4.90v3.20l-57.30 4.90"/>
<path class="fill"
	d="M426.80 382.40l7.00 -0.60v3.20l-7.00 0.60"/>
<path class="fill"
	d="M464.10 379.20l7.00 -0.60v3.20l-7.00 0.60"/>
<use x="411.00" y="411.00" xlink:href="#hd"/>
<circle class="fill" cx="418.70" cy="408.00" r="1.2"/>
<path d="M414.50 411.00v-31.50" class="stroke"/>
<use x="430.30" y="399.00" xlink:href="#hd"/>
<path d="M433.80 399.00v-21.20" class="stroke"/>
<use x="448.30" y="402.00" xlink:href="#hd"/>
<circle class="fill" cx="456.00" cy="402.00" r="1.2"/>
<use x="439.30" y="402.00" xlink:href="#sh0"/>
<path d="M451.80 402.00v-25.70" class="stroke"/>
<use x="467.60" y="399.00" xlink:href="#hd"/>
<path d="M471.10 399.00v-24.40" class="stroke"/>
<path class="fill"
	d="M483.30 380.80l50.80 0.00v3.20l-50.80 -0.00"/>
<path class="fill"
	d="M495.90 385.80l7.00 0.00v3.20l-7.00 -0.00"/>
<path class="fill"
	d="M526.80 385.80l7.00 0.00v3.20l-7.00 -0.00"/>
<use x="480.10" y="405.00" xlink:href="#hd"/>
<circle class="fill" cx="487.80" cy="402.00" r="1.2"/>
<path d="M483.60 405.00v-23.20" class="stroke"/>
<use x="499.40" y="411.00" xlink:href="#hd"/>
<path d="M502.90 411.00v-29.20" class="stroke"/>
<use x="511.00" y="402.00" xlink:href="#hd"/>
<circle class="fill" cx="518.70" cy="402.00" r="1.2"/>
<path d="M514.50 402.00v-20.20" class="stroke"/>
<use x="530.30" y="405.00" xlink:href="#hd"/>
<path d="M533.80 405.00v-23.20" class="stroke"/>
<path class="fill"
	d="M558.50 385.80l25.60 0.00v3.20l-25.60 -0.00"/>
<use x="555.30" y="408.00" xlink:href="#hd"/>
<path d="M558.80 408.00v-21.20" class="stroke"/>
<use x="567.80" y="405.00" xlink:href="#hd"/>
<path d="M571.30 405.00v-18.20" class="stroke"/>
<use x="580.20" y="408.00" xlink:href="#hd"/>
<path d="M583.70 408.00v-21.20" class="stroke"/>
<path class="fill"
	d="M596.90 390.90l25.60 4.20v3.20l-25.60 -4.20"/>
<use x="593.70" y="411.00" xlink:href="#hd"/>
<path d="M597.20 411.00v-19.00" class="stroke"/>
<use x="606.20" y="414.00" xlink:href="#hd"/>
<path d="M609.70 414.00v-20.00" class="stroke"/>
<use x="618.60" y="417.00" xlink:href="#hd"/>
<path d="M622.10 417.00v-21.00" class="stroke"/>
<use x="632.10" y="420.00" xlink:href="#hd"/>
<path d="M635.60 420.00v-21.00" class="stroke"/>
<path class="fill"
	d="M657.30 398.10l25.60 -4.20v3.20l-25.60 4.20"/>
<use x="654.20" y="420.00" xlink:href="#hd"/>
<path d="M657.70 420.00v-21.00" class="stroke"/>
<use x="666.60" y="417.00" xlink:href="#hd"/>
<path d="M670.10 417.00v-20.00" class="stroke"/>
<use x="679.10" y="414.00" xlink:href="#hd"/>
<path d="M682.60 414.00v-19.00" class="stroke"/>
</g>
<g stroke-width="0.70" style="font:16.00px Times">
<path class="stroke" stroke-width="1"
	d="M217.70 487.00v-24.00"/>
<path class="stroke" stroke-width="1"
	d="M390.30 487.00v-24.00"/>
<path class="stroke" stroke-width="1"
	d="M569.10 487.00v-24.00"/>
<path class="stroke" stroke-width="3"
	d="M690.10 487.00v-24.00"/>
<path class="stroke" stroke-width="1"
	d="M685.60 487.00v-24.00"/>
<use x="681.60" y="487.00" xlink:href="#rdots"/>
<path d="m10.00 487.00
	h681.60
	M10.00 481.00
	h681.60
	M10.00 475.00
	h681.60
	M10.00 469.00
	h681.60
	M10.00 463.00
	h681.60
	" class="stroke"/>
<use x="22.00" y="481.00" xlink:href="#tclef"/>
<use x="37.00" y="463.00" xlink:href="#sh0"/>
<path class="fill"
	d="M58.20 448.70l68.50 -5.20v3.20l-68.50 5.20"/>
<path class="fill"
	d="M76.40 452.30l7.00 -0.50v3.20l-7.00 0.50"/>
<path class="fill"
	d="M119.30 449.10l7.00 -0.50v3.20l-7.00 0.50"/>
<use x="55.00" y="481.00" xlink:href="#hd"/>
<circle class="fill" cx="62.70" cy="478.00" r="1.2"/>
<path d="M58.50 481.00v-31.30" class="stroke"/>
<use x="79.90" y="469.00" xlink:href="#hd"/>
<path d="M83.40 469.00v-21.20" class="stroke"/>
<use x="97.90" y="472.00" xlink:href="#hd"/>
<circle class="fill" cx="105.60" cy="472.00" r="1.2"/>
<use x="88.90" y="472.00" xlink:href="#sh0"/>
<path d="M101.40 472.00v-25.60" class="stroke"/>
<use x="122.80" y="469.00" xlink:href="#hd"/>
<path d="M126.30 469.00v-24.50" class="stroke"/>
<path class="fill"
	d="M143.10 450.80l65.90 0.00v3.20l-65.90 -0.00"/>
<path class="fill"
	d="M161.30 455.80l7.00 0.00v3.20l-7.00 -0.00"/>
<path class="fill"
	d="M201.70 455.80l7.00 0.00v3.20l-7.00 -0.00"/>
<use x="139.90" y="475.00" xlink:href="#hd"/>
<circle class="fill" cx="147.60" cy="472.00" r="1.2"/>
<path d="M143.40 475.00v-23.20" class="stroke"/>
<use x="164.80" y="481.00" xlink:href="#hd"/>
<path d="M168.30 481.00v-29.20" class="stroke"/>
<use x="180.20" y="478.00" xlink:href="#hd"/>
<circle class="fill" cx="187.90" cy="478.00" r="1.2"/>
<path d="M183.70 478.00v-26.20" class="stroke"/>
<use x="205.20" y="475.00" xlink:href="#hd"/>
<path d="M208.70 475.00v-23.20" class="stroke"/>
<path class="fill"
	d="M233.30 450.90l65.90 4.90v3.20l-65.90 -4.90"/>
<path class="fill"
	d="M251.60 457.30l7.00 0.50v3.20l-7.00 -0.50"/>
<path class="fill"
	d="M291.90 460.30l7.00 0.50v3.20l-7.00 -0.50"/>
<use x="230.20" y="472.00" xlink:href="#hd"/>
<circle class="fill" cx="237.90" cy="472.00" r="1.2"/>
<path d="M233.70 472.00v-20.00" class="stroke"/>
<use x="255.10" y="475.00" xlink:href="#hd"/>
<path d="M258.60 475.00v-21.20" class="stroke"/>
<use x="270.50" y="478.00" xlink:href="#hd"/>
<circle class="fill" cx="278.20" cy="478.00" r="1.2"/>
<path d="M274.00 478.00v-23.10" class="stroke"/>
<use x="295.40" y="481.00" xlink:href="#hd"/>
<path d="M298.90 481.00v-24.20" class="stroke"/>
<path class="fill"
	d="M315.70 461.00l65.90 0.00v3.20l-65.90 -0.00"/>
<path class="fill"
	d="M333.90 466.00l7.00 0.00v3.20l-7.00 -0.00"/>
<path class="fill"
	d="M374.30 466.00l7.00 0.00v3.20l-7.00 -0.00"/>
<use x="312.50" y="484.00" xlink:href="#hd"/>
<circle class="fill" cx="320.20" cy="484.00" r="1.2"/>
<path d="M316.00 484.00v-22.00" class="stroke"/>
<use x="337.40" y="490.00" xlink:href="#hd"/>
<path d="M340.90 490.00v-28.00" class="stroke"/>
<use x="352.80" y="487.00" xlink:href="#hd"/>
<circle class="fill" cx="360.50" cy="484.00" r="1.2"/>
<path d="M356.30 487.00v-25.00" class="stroke"/>
<use x="377.80" y="484.00" xlink:href="#hd"/>
<path d="M381.30 484.00v-22.00" class="stroke"/>
<path class="fill"
	d="M405.90 448.80l65.20 -5.30v3.20l-65.20 5.30"/>
<path class="fill"
	d="M424.20 452.40l7.00 -0.60v3.20l-7.00 0.60"/>
<use x="402.80" y="481.00" xlink:href="#hd"/>
<circle class="fill" cx="410.50" cy="478.00" r="1.2"/>
<path d="M406.30 481.00v-31.20" class="stroke"/>
<use x="427.70" y="469.00" xlink:href="#hd"/>
<path d="M431.20 469.00v-21.20" class="stroke"/>
<use x="445.70" y="472.00" xlink:href="#hd"/>
<use x="436.70" y="472.00" xlink:href="#sh0"/>
<path d="M449.20 472.00v-25.60" class="stroke"/>
<use x="467.30" y="469.00" xlink:href="#hd"/>
<path d="M470.80 469.00v-24.40" class="stroke"/>
<path class="fill"
	d="M487.50 495.00l65.90 0.00v-3.20l-65.90 -0.00"/>
<path class="fill"
	d="M505.80 490.00l7.00 0.00v-3.20l-7.00 -0.00"/>
<path class="fill"
	d="M546.10 490.00l7.00 0.00v-3.20l-7.00 -0.00"/>
<use x="491.40" y="472.00" xlink:href="#hd"/>
<circle class="fill" cx="499.10" cy="472.00" r="1.2"/>
<path d="M487.90 472.00v22.00" class="stroke"/>
<use x="516.30" y="466.00" xlink:href="#hd"/>
<path d="M512.80 466.00v28.00" class="stroke"/>
<use x="531.70" y="469.00" xlink:href="#hd"/>
<circle class="fill" cx="539.40" cy="466.00" r="1.2"/>
<path d="M528.20 469.00v25.00" class="stroke"/>
<use x="556.60" y="472.00" xlink:href="#hd"/>
<path d="M553.10 472.00v22.00" class="stroke"/>
<path class="fill"
	d="M584.80 453.90l65.90 4.90v3.20l-65.90 -4.90"/>
<path class="fill"
	d="M603.10 460.30l7.00 0.50v3.20l-7.00 -0.50"/>
<path class="fill"
	d="M643.40 463.30l7.00 0.50v3.20l-7.00 -0.50"/>
<use x="581.60" y="475.00" xlink:href="#hd"/>
<circle class="fill" cx="589.30" cy="472.00" r="1.2"/>
<path d="M585.10 475.00v-20.00" class="stroke"/>
<use x="606.60" y="478.00" xlink:href="#hd"/>
<path d="M610.10 478.00v-21.20" class="stroke"/>
<use x="622.00" y="481.00" xlink:href="#hd"/>
<circle class="fill" cx="629.70" cy="478.00" r="1.2"/>
<path d="M625.50 481.00v-23.10" class="stroke"/>
<use x="646.90" y="484.00" xlink:href="#hd"/>
<path d="M650.40 484.00v-24.20" class="stroke"/>
<use x="664.00" y="481.00" xlink:href="#hd"/>
<path d="M667.50 481.00v-21.00" class="stroke"/>
</g>
<g stroke-width="0.70" style="font:16.00px Times">
<use x="100.90" y="566.90" xlink:href="#rdots"/>
<path class="stroke" stroke-width="1"
	d="M96.90 566.90v-24.00"/>
<path class="stroke" stroke-width="3"
	d="M92.40 566.90v-24.00"/>
<path class="stroke" stroke-width="1"
	d="M243.20 566.90v-24.00"/>
<path class="stroke" stroke-width="1"
	d="M392.00 566.90v-24.00"/>
<path class="stroke" stroke-width="1"
	d="M533.20 566.90v-24.00"/>
<path class="stroke" stroke-width="1"
	d="M691.60 566.90v-24.00"/>
<path d="m10.00 566.90
	h681.60
	M10.00 560.90
	h681.60
	M10.00 554.90
	h681.60
	M10.00 548.90
	h681.60
	M10.00 542.90
	h681.60
	" class="stroke"/>
<text style="font:italic 12px serif"
	x="65.90" y="581.30" text-anchor="middle">3</text>
<path class="stroke"
	d="M352.10 522.00v-3l34.90 -4.00v3"/>
<rect x="362.50" y="511.00" width="14.00" height="12" fill="white"/>
<text style="font:italic 12px serif"
	x="369.50" y="521.00" text-anchor="middle">3</text>
<text style="font:italic 12px serif"
	x="561.30" y="529.90" text-anchor="middle">3</text>
<text style="font:italic 12px serif"
	x="602.10" y="537.30" text-anchor="middle">3</text>
<text style="font:italic 12px serif"
	x="663.60" y="581.30" text-anchor="middle">3</text>
<use x="22.00" y="560.90" xlink:href="#tclef"/>
<use x="37.00" y="542.90" xlink:href="#sh0"/>
<path class="fill"
	d="M51.20 569.00l27.10 -4.20v-3.20l-27.10 4.20"/>
<use x="55.00" y="548.90" xlink:href="#hd"/>
<path d="M51.50 548.90v19.10" class="stroke"/>
<use x="68.20" y="545.90" xlink:href="#hd"/>
<path d="M64.70 545.90v20.00" class="stroke"/>
<use x="81.40" y="542.90" xlink:href="#hd"/>
<path d="M77.90 542.90v20.90" class="stroke"/>
<path class="fill"
	d="M110.60 567.20l52.70 3.90v-3.20l-52.70 -3.90"/>
<path class="fill"
	d="M123.90 563.20l7.00 0.50v-3.20l-7.00 -0.50"/>
<path class="fill"
	d="M156.00 565.50l7.00 0.50v-3.20l-7.00 -0.50"/>
<use x="114.40" y="539.90" xlink:href="#hd"/>
<circle class="fill" cx="122.10" cy="539.90" r="1.2"/>
<path d="M110.90 539.90v26.40" class="stroke"/>
<use x="134.40" y="542.90" xlink:href="#hd"/>
<path d="M130.90 542.90v24.90" class="stroke"/>
<use x="146.50" y="539.90" xlink:href="#hd"/>
<circle class="fill" cx="154.20" cy="539.90" r="1.2"/>
<path d="M143.00 539.90v28.70" class="stroke"/>
<use x="166.50" y="548.90" xlink:href="#hd"/>
<path d="M163.00 548.90v21.20" class="stroke"/>
<path class="fill"
	d="M181.80 530.60l52.70 0.00v3.20l-52.70 -0.00"/>
<path class="fill"
	d="M195.10 535.60l7.00 0.00v3.20l-7.00 -0.00"/>
<path class="fill"
	d="M227.20 535.60l7.00 0.00v3.20l-7.00 -0.00"/>
<use x="178.60" y="554.90" xlink:href="#hd"/>
<circle class="fill" cx="186.30" cy="551.90" r="1.2"/>
<path d="M182.10 554.90v-23.20" class="stroke"/>
<use x="198.60" y="560.90" xlink:href="#hd"/>
<path d="M202.10 560.90v-29.20" class="stroke"/>
<use x="210.70" y="557.90" xlink:href="#hd"/>
<circle class="fill" cx="218.40" cy="557.90" r="1.2"/>
<path d="M214.20 557.90v-26.20" class="stroke"/>
<use x="230.70" y="554.90" xlink:href="#hd"/>
<path d="M234.20 554.90v-23.20" class="stroke"/>
<path class="fill"
	d="M258.80 530.80l52.70 4.70v3.20l-52.70 -4.70"/>
<path class="fill"
	d="M272.10 537.00l7.00 0.60v3.20l-7.00 -0.60"/>
<path class="fill"
	d="M304.20 539.90l7.00 0.60v3.20l-7.00 -0.60"/>
<use x="255.70" y="551.90" xlink:href="#hd"/>
<circle class="fill" cx="263.40" cy="551.90" r="1.2"/>
<path d="M259.20 551.90v-20.00" class="stroke"/>
<use x="275.60" y="554.90" xlink:href="#hd"/>
<path d="M279.10 554.90v-21.20" class="stroke"/>
<use x="287.80" y="557.90" xlink:href="#hd"/>
<circle class="fill" cx="295.50" cy="557.90" r="1.2"/>
<path d="M291.30 557.90v-23.10" class="stroke"/>
<use x="307.70" y="560.90" xlink:href="#hd"/>
<path d="M311.20 560.90v-24.30" class="stroke"/>
<path class="fill"
	d="M324.20 533.80l59.20 -10.20v3.20l-59.20 10.20"/>
<path class="fill"
	d="M337.50 536.50l7.00 -1.20v3.20l-7.00 1.20"/>
<use x="321.00" y="563.90" xlink:href="#hd"/>
<circle class="fill" cx="328.70" cy="563.90" r="1.2"/>
<path d="M324.50 563.90v-29.10" class="stroke"/>
<use x="341.00" y="569.90" xlink:href="#hd"/>
<path d="M344.50 569.90v-38.50" class="stroke"/>
<use x="353.10" y="548.90" xlink:href="#hd"/>
<path d="M356.60 548.90v-19.60" class="stroke"/>
<use x="366.30" y="545.90" xlink:href="#hd"/>
<path d="M369.80 545.90v-18.90" class="stroke"/>
<use x="379.50" y="542.90" xlink:href="#hd"/>
<path d="M383.00 542.90v-18.20" class="stroke"/>
<path class="fill"
	d="M400.70 567.20l52.70 3.90v-3.20l-52.70 -3.90"/>
<path class="fill"
	d="M414.00 563.20l7.00 0.50v-3.20l-7.00 -0.50"/>
<path class="fill"
	d="M446.10 565.50l7.00 0.50v-3.20l-7.00 -0.50"/>
<use x="404.50" y="539.90" xlink:href="#hd"/>
<circle class="fill" cx="412.20" cy="539.90" r="1.2"/>
<path d="M401.00 539.90v26.40" class="stroke"/>
<use x="424.50" y="542.90" xlink:href="#hd"/>
<path d="M421.00 542.90v24.90" class="stroke"/>
<use x="436.60" y="539.90" xlink:href="#hd"/>
<circle class="fill" cx="444.30" cy="539.90" r="1.2"/>
<path d="M433.10 539.90v28.70" class="stroke"/>
<use x="456.60" y="548.90" xlink:href="#hd"/>
<path d="M453.10 548.90v21.20" class="stroke"/>
<path class="fill"
	d="M471.90 530.60l52.70 0.00v3.20l-52.70 -0.00"/>
<path class="fill"
	d="M485.20 535.60l7.00 0.00v3.20l-7.00 -0.00"/>
<path class="fill"
	d="M517.20 535.60l7.00 0.00v3.20l-7.00 -0.00"/>
<use x="468.70" y="554.90" xlink:href="#hd"/>
<circle class="fill" cx="476.40" cy="551.90" r="1.2"/>
<path d="M472.20 554.90v-23.20" class="stroke"/>
<use x="488.70" y="560.90" xlink:href="#hd"/>
<path d="M492.20 560.90v-29.20" class="stroke"/>
<use x="500.80" y="551.90" xlink:href="#hd"/>
<circle class="fill" cx="508.50" cy="551.90" r="1.2"/>
<path d="M504.30 551.90v-20.20" class="stroke"/>
<use x="520.70" y="554.90" xlink:href="#hd"/>
<path d="M524.20 554.90v-23.20" class="stroke"/>
<path class="fill"
	d="M548.90 535.70l27.10 0.00v3.20l-27.10 -0.00"/>
<use x="545.70" y="557.90" xlink:href="#hd"/>
<path d="M549.20 557.90v-21.20" class="stroke"/>
<use x="559.00" y="554.90" xlink:href="#hd"/>
<path d="M562.50 554.90v-18.20" class="stroke"/>
<use x="572.20" y="557.90" xlink:href="#hd"/>
<path d="M575.70 557.90v-21.20" class="stroke"/>
<path class="fill"
	d="M589.80 540.70l27.10 4.20v3.20l-27.10 -4.20"/>
<use x="586.60" y="560.90" xlink:href="#hd"/>
<path d="M590.10 560.90v-19.10" class="stroke"/>
<use x="599.80" y="563.90" xlink:href="#hd"/>
<path d="M603.30 563.90v-20.00" class="stroke"/>
<use x="613.00" y="566.90" xlink:href="#hd"/>
<path d="M616.50 566.90v-20.90" class="stroke"/>
<use x="627.50" y="569.90" xlink:href="#hd"/>
<path d="M631.00 569.90v-21.00" class="stroke"/>
<path class="fill"
	d="M648.90 569.00l27.10 -4.20v-3.20l-27.10 4.20"/>
<use x="652.70" y="548.90" xlink:href="#hd"/>
<path d="M649.20 548.90v19.10" class="stroke"/>
<use x="665.90" y="545.90" xlink:href="#hd"/>
<path d="M662.40 545.90v20.00" class="stroke"/>
<use x="679.10" y="542.90" xlink:href="#hd"/>
<path d="M675.60 542.90v20.90" class="stroke"/>
</g>
<g stroke-width="0.70" style="font:16.00px Times">
<path class="stroke" stroke-width="1"
	d="M224.30 636.86v-24.00"/>
<path class="stroke" stroke-width="1"
	d="M395.50 636.86v-24.00"/>
<path class="stroke" stroke-width="1"
	d="M570.10 636.86v-24.00"/>
<path class="stroke" stroke-width="3"
	d="M690.10 636.86v-24.00"/>
<path class="stroke" stroke-width="1"
	d="M685.60 636.86v-24.00"/>
<use x="681.60" y="636.86" xlink:href="#rdots"/>
<path d="m10.00 636.86
	h681.60
	M10.00 630.86
	h681.60
	M10.00 624.86
	h681.60
	M10.00 618.86
	h681.60
	M10.00 612.86
	h681.60
	" class="stroke"/>
<path class="stroke"
	d="M132.70 608.26v-3l41.60 -6.00v3"/>
<rect x="146.50" y="596.26" width="14.00" height="12" fill="white"/>
<text style="font:italic 12px serif"
	x="153.50" y="606.26" text-anchor="middle">3</text>
<use x="22.00" y="630.86" xlink:href="#tclef"/>
<use x="37.00" y="612.86" xlink:href="#sh0"/>
<path class="fill"
	d="M58.20 600.66l65.30 0.00v3.20l-65.30 -0.00"/>
<path class="fill"
	d="M76.20 605.66l7.00 0.00v3.20l-7.00 -0.00"/>
<path class="fill"
	d="M116.20 605.66l7.00 0.00v3.20l-7.00 -0.00"/>
<use x="55.00" y="630.86" xlink:href="#hd"/>
<circle class="fill" cx="62.70" cy="627.86" r="1.2"/>
<path d="M58.50 630.86v-29.20" class="stroke"/>
<use x="79.70" y="624.86" xlink:href="#hd"/>
<path d="M83.20 624.86v-23.20" class="stroke"/>
<use x="95.00" y="627.86" xlink:href="#hd"/>
<circle class="fill" cx="102.70" cy="627.86" r="1.2"/>
<path d="M98.50 627.86v-26.20" class="stroke"/>
<use x="119.70" y="630.86" xlink:href="#hd"/>
<path d="M123.20 630.86v-29.20" class="stroke"/>
<path class="fill"
	d="M132.90 638.86l75.80 0.00v-3.20l-75.80 -0.00"/>
<path class="fill"
	d="M201.30 633.86l7.00 0.00v-3.20l-7.00 -0.00"/>
<use x="136.70" y="615.86" xlink:href="#hd"/>
<path d="M133.20 615.86v22.00" class="stroke"/>
<use x="153.50" y="612.86" xlink:href="#hd"/>
<path d="M150.00 612.86v25.00" class="stroke"/>
<use x="170.30" y="609.86" xlink:href="#hd"/>
<path d="M166.80 609.86v28.00" class="stroke"/>
<use x="187.10" y="618.86" xlink:href="#hd"/>
<circle class="fill" cx="194.80" cy="615.86" r="1.2"/>
<path d="M183.60 618.86v19.00" class="stroke"/>
<use x="211.80" y="609.86" xlink:href="#hd"/>
<path d="M208.30 609.86v28.00" class="stroke"/>
<path class="fill"
	d="M240.00 600.76l65.30 4.90v3.20l-65.30 -4.90"/>
<path class="fill"
	d="M258.00 607.16l7.00 0.50v3.20l-7.00 -0.50"/>
<path class="fill"
	d="M298.00 610.16l7.00 0.50v3.20l-7.00 -0.50"/>
<use x="236.80" y="621.86" xlink:href="#hd"/>
<circle class="fill" cx="244.50" cy="621.86" r="1.2"/>
<path d="M240.30 621.86v-20.00" class="stroke"/>
<use x="261.50" y="624.86" xlink:href="#hd"/>
<path d="M265.00 624.86v-21.20" class="stroke"/>
<use x="276.80" y="627.86" xlink:href="#hd"/>
<circle class="fill" cx="284.50" cy="627.86" r="1.2"/>
<path d="M280.30 627.86v-23.10" class="stroke"/>
<use x="301.50" y="630.86" xlink:href="#hd"/>
<path d="M305.00 630.86v-24.20" class="stroke"/>
<path class="fill"
	d="M321.50 610.86l65.30 0.00v3.20l-65.30 -0.00"/>
<path class="fill"
	d="M339.60 615.86l7.00 0.00v3.20l-7.00 -0.00"/>
<path class="fill"
	d="M379.50 615.86l7.00 0.00v3.20l-7.00 -0.00"/>
<use x="318.40" y="633.86" xlink:href="#hd"/>
<circle class="fill" cx="326.10" cy="633.86" r="1.2"/>
<path d="M321.90 633.86v-22.00" class="stroke"/>
<use x="343.10" y="639.86" xlink:href="#hd"/>
<path d="M346.60 639.86v-28.00" class="stroke"/>
<use x="358.30" y="636.86" xlink:href="#hd"/>
<circle class="fill" cx="366.00" cy="633.86" r="1.2"/>
<path d="M361.80 636.86v-25.00" class="stroke"/>
<use x="383.00" y="633.86" xlink:href="#hd"/>
<path d="M386.50 633.86v-22.00" class="stroke"/>
<path class="fill"
	d="M411.20 598.56l68.60 -5.10v3.20l-68.60 5.10"/>
<path class="fill"
	d="M436.20 601.66l43.20 -3.20v3.20l-43.20 3.20"/>
<use x="408.00" y="630.86" xlink:href="#hd"/>
<circle class="fill" cx="415.70" cy="627.86" r="1.2"/>
<path d="M411.50 630.86v-31.40" class="stroke"/>
<use x="432.70" y="618.86" xlink:href="#hd"/>
<circle class="fill" cx="440.40" cy="615.86" r="1.2"/>
<path d="M436.20 618.86v-21.20" class="stroke"/>
<use x="458.20" y="621.86" xlink:href="#hd"/>
<circle class="fill" cx="465.90" cy="621.86" r="1.2"/>
<use x="449.20" y="621.86" xlink:href="#sh0"/>
<path d="M461.70 621.86v-26.10" class="stroke"/>
<use x="475.90" y="618.86" xlink:href="#hd"/>
<path d="M479.40 618.86v-24.40" class="stroke"/>
<path class="fill"
	d="M489.10 644.86l65.30 0.00v-3.20l-65.30 -0.00"/>
<path class="fill"
	d="M507.20 639.86l7.00 0.00v-3.20l-7.00 -0.00"/>
<path class="fill"
	d="M547.10 639.86l7.00 0.00v-3.20l-7.00 -0.00"/>
<use x="493.00" y="621.86" xlink:href="#hd"/>
<circle class="fill" cx="500.70" cy="621.86" r="1.2"/>
<path d="M489.50 621.86v22.00" class="stroke"/>
<use x="517.70" y="615.86" xlink:href="#hd"/>
<path d="M514.20 615.86v28.00" class="stroke"/>
<use x="532.90" y="618.86" xlink:href="#hd"/>
<circle class="fill" cx="540.60" cy="615.86" r="1.2"/>
<path d="M529.40 618.86v25.00" class="stroke"/>
<use x="557.60" y="621.86" xlink:href="#hd"/>
<path d="M554.10 621.86v22.00" class="stroke"/>
<path class="fill"
	d="M585.80 603.76l65.30 4.90v3.20l-65.30 -4.90"/>
<path class="fill"
	d="M603.80 610.16l7.00 0.50v3.20l-7.00 -0.50"/>
<path class="fill"
	d="M643.80 613.16l7.00 0.50v3.20l-7.00 -0.50"/>
<use x="582.60" y="624.86" xlink:href="#hd"/>
<circle class="fill" cx="590.30" cy="621.86" r="1.2"/>
<path d="M586.10 624.86v-20.00" class="stroke"/>
<use x="607.30" y="627.86" xlink:href="#hd"/>
<path d="M610.80 627.86v-21.20" class="stroke"/>
<use x="622.60" y="630.86" xlink:href="#hd"/>
<circle class="fill" cx="630.30" cy="627.86" r="1.2"/>
<path d="M626.10 630.86v-23.10" class="stroke"/>
<use x="647.30" y="633.86" xlink:href="#hd"/>
<path d="M650.80 633.86v-24.20" class="stroke"/>
<use x="664.20" y="630.86" xlink:href="#hd"/>
<path d="M667.70 630.86v-21.00" class="stroke"/>
</g>
</svg>
