<?xml version="1.0" standalone="no"?>
<!DOCTYPE svg PUBLIC "-//W3C//DTD SVG 1.1//EN"
	"http://www.w3.org/Graphics/SVG/1.1/DTD/svg11.dtd">
<svg xmlns="http://www.w3.org/2000/svg" version="1.1"
	xmlns:xlink="http://www.w3.org/1999/xlink"
	color="black"
	width="701.60px" height="166.00px">
<style type="text/css">
.fill {fill: currentColor}
.stroke {stroke: currentColor; fill: none}
text{white-space: pre}
</style>
<title>/media/tim/Data1/tims_code/sphinx-tunes/source/_last_thought_bellingham_ (0) tune 1</title>
<!-- Creator: abcm2ps-8.14.6 -->
<!-- CreationDate: Jul 30, 2023 11:59 -->
<!-- CommandLine: -g /media/tim/Data1/tims_code/sphinx-tunes/source/_last_thought_bellingham_boat.abc -O /media/tim/Data1/tims_code/sphinx-tunes/source/_last_thought_bellingham_boat.svg -->
<g stroke-width="0.70" style="font:italic 14.00px Times">
<text x="691.60" y="20.00" text-anchor="end">England</text>
</g>
<g stroke-width="0.70" style="font:italic 14.00px Times">
<path class="stroke" stroke-width="1"
	d="M137.50 73.00v-24.00"/>
<path class="stroke" stroke-width="1"
	d="M216.50 73.00v-24.00"/>
<path class="stroke" stroke-width="1"
	d="M295.50 73.00v-24.00"/>
<path class="stroke" stroke-width="1"
	d="M372.90 73.00v-24.00"/>
<path class="stroke" stroke-width="1"
	d="M451.90 73.00v-24.00"/>
<path class="stroke" stroke-width="1"
	d="M529.30 73.00v-24.00"/>
<path class="stroke" stroke-width="1"
	d="M606.70 73.00v-24.00"/>
<path class="stroke" stroke-width="3"
	d="M690.10 73.00v-24.00"/>
<path class="stroke" stroke-width="1"
	d="M685.60 73.00v-24.00"/>
<defs>
<g id="rdots" class="fill">
	<circle cx="0" cy="-9" r="1.2"/>
	<circle cx="0" cy="-15" r="1.2"/>
</g>
</defs>
<use x="681.60" y="73.00" xlink:href="#rdots"/>
<path d="m10.00 73.00
	h681.60
	M10.00 67.00
	h681.60
	M10.00 61.00
	h681.60
	M10.00 55.00
	h681.60
	M10.00 49.00
	h681.60
	" class="stroke"/>
<defs>
<path id="utclef" class="fill" d="m-50 -90
	c-72 -41 -72 -158 52 -188
	150 -10 220 188 90 256
	-114 52 -275 0 -293 -136
	-15 -181 93 -229 220 -334
	88 -87 79 -133 62 -210
	-51 33 -94 105 -89 186
	17 267 36 374 49 574
	6 96 -19 134 -77 135
	-80 1 -126 -93 -61 -133
	85 -41 133 101 31 105
	23 17 92 37 90 -92
	-10 -223 -39 -342 -50 -617
	0 -90 0 -162 96 -232
	56 72 63 230 22 289
	-74 106 -257 168 -255 316
	9 153 148 185 252 133
	86 -65 29 -192 -80 -176
	-71 12 -105 67 -59 124"/>
<use id="tclef" transform="translate(0,6) scale(0.045)"
	xlink:href="#utclef"/>
</defs>
<use x="22.00" y="67.00" xlink:href="#tclef"/>
<defs>
<path id="usharp" class="fill" d="
	m136 -702
	v890
	h32
	v-890
	m128 840
	h32
	v-888
	h-32
	m-232 286
	v116
	l338 -96
	v-116
	m-338 442
	v116
	l338 -98
	v-114"/>
<use id="sh0" transform="translate(-4,5) scale(0.018)"
	xlink:href="#usharp"/>
</defs>
<use x="37.00" y="49.00" xlink:href="#sh0"/>
<g style="font:bold 16px serif"
	transform="translate(53.00,72.50) scale(1.2,1)">
	<text text-anchor="middle">8</text>
	<text y="-12" text-anchor="middle">6</text>
</g>
<path class="fill"
	d="M74.20 41.80l21.40 2.80v3.20l-21.40 -2.80"/>
<defs>
<ellipse id="hd" rx="4.1" ry="2.9"
	transform="rotate(-20)" class="fill"/>
</defs>
<use x="71.00" y="61.00" xlink:href="#hd"/>
<path d="M74.50 61.00v-18.20" class="stroke"/>
<use x="81.40" y="67.00" xlink:href="#hd"/>
<path d="M84.90 67.00v-22.90" class="stroke"/>
<use x="91.80" y="67.00" xlink:href="#hd"/>
<path d="M95.30 67.00v-21.50" class="stroke"/>
<path class="fill"
	d="M100.40 78.80l21.40 2.80v-3.20l-21.40 -2.80"/>
<use x="104.20" y="55.00" xlink:href="#hd"/>
<path d="M100.70 55.00v22.90" class="stroke"/>
<use x="114.60" y="61.00" xlink:href="#hd"/>
<path d="M111.10 61.00v18.20" class="stroke"/>
<use x="125.00" y="61.00" xlink:href="#hd"/>
<path d="M121.50 61.00v19.50" class="stroke"/>
<path class="fill"
	d="M153.20 41.80l21.40 2.80v3.20l-21.40 -2.80"/>
<use x="150.00" y="61.00" xlink:href="#hd"/>
<path d="M153.50 61.00v-18.20" class="stroke"/>
<use x="160.40" y="67.00" xlink:href="#hd"/>
<path d="M163.90 67.00v-22.90" class="stroke"/>
<use x="170.80" y="67.00" xlink:href="#hd"/>
<path d="M174.30 67.00v-21.50" class="stroke"/>
<path class="fill"
	d="M179.40 86.30l21.40 -5.90v-3.20l-21.40 5.90"/>
<use x="183.20" y="67.00" xlink:href="#hd"/>
<path d="M179.70 67.00v18.20" class="stroke"/>
<use x="193.60" y="46.00" xlink:href="#hd"/>
<path d="M190.10 46.00v36.40" class="stroke"/>
<use x="204.00" y="46.00" xlink:href="#hd"/>
<path d="M200.50 46.00v33.50" class="stroke"/>
<path class="fill"
	d="M232.10 41.80l21.40 2.80v3.20l-21.40 -2.80"/>
<use x="229.00" y="61.00" xlink:href="#hd"/>
<path d="M232.50 61.00v-18.20" class="stroke"/>
<use x="239.40" y="67.00" xlink:href="#hd"/>
<path d="M242.90 67.00v-22.90" class="stroke"/>
<use x="249.70" y="67.00" xlink:href="#hd"/>
<path d="M253.20 67.00v-21.50" class="stroke"/>
<path class="fill"
	d="M258.40 78.80l21.40 2.80v-3.20l-21.40 -2.80"/>
<use x="262.20" y="55.00" xlink:href="#hd"/>
<path d="M258.70 55.00v22.90" class="stroke"/>
<use x="272.60" y="61.00" xlink:href="#hd"/>
<path d="M269.10 61.00v18.20" class="stroke"/>
<use x="283.00" y="61.00" xlink:href="#hd"/>
<path d="M279.50 61.00v19.50" class="stroke"/>
<path class="fill"
	d="M304.10 81.00l21.40 4.40v-3.20l-21.40 -4.40"/>
<use x="308.00" y="52.00" xlink:href="#hd"/>
<path d="M304.50 52.00v28.10" class="stroke"/>
<use x="318.40" y="64.00" xlink:href="#hd"/>
<path d="M314.90 64.00v18.20" class="stroke"/>
<use x="328.70" y="64.00" xlink:href="#hd"/>
<path d="M325.20 64.00v20.30" class="stroke"/>
<path class="fill"
	d="M335.80 84.00l21.40 -3.90v-3.20l-21.40 3.90"/>
<use x="339.60" y="64.00" xlink:href="#hd"/>
<path d="M336.10 64.00v18.90" class="stroke"/>
<use x="350.00" y="61.00" xlink:href="#hd"/>
<path d="M346.50 61.00v20.00" class="stroke"/>
<use x="360.40" y="58.00" xlink:href="#hd"/>
<path d="M356.90 58.00v21.10" class="stroke"/>
<path class="fill"
	d="M388.60 41.80l21.40 2.80v3.20l-21.40 -2.80"/>
<use x="385.40" y="61.00" xlink:href="#hd"/>
<path d="M388.90 61.00v-18.20" class="stroke"/>
<use x="395.80" y="67.00" xlink:href="#hd"/>
<path d="M399.30 67.00v-22.90" class="stroke"/>
<use x="406.20" y="67.00" xlink:href="#hd"/>
<path d="M409.70 67.00v-21.50" class="stroke"/>
<path class="fill"
	d="M414.80 78.80l21.40 2.80v-3.20l-21.40 -2.80"/>
<use x="418.60" y="55.00" xlink:href="#hd"/>
<path d="M415.10 55.00v22.90" class="stroke"/>
<use x="429.00" y="61.00" xlink:href="#hd"/>
<path d="M425.50 61.00v18.20" class="stroke"/>
<use x="439.40" y="61.00" xlink:href="#hd"/>
<path d="M435.90 61.00v19.50" class="stroke"/>
<path class="fill"
	d="M460.50 75.80l21.40 2.80v-3.20l-21.40 -2.80"/>
<use x="464.40" y="52.00" xlink:href="#hd"/>
<path d="M460.90 52.00v22.90" class="stroke"/>
<use x="474.80" y="58.00" xlink:href="#hd"/>
<path d="M471.30 58.00v18.20" class="stroke"/>
<use x="485.10" y="58.00" xlink:href="#hd"/>
<path d="M481.60 58.00v19.50" class="stroke"/>
<path class="fill"
	d="M492.20 78.80l21.40 2.80v-3.20l-21.40 -2.80"/>
<use x="496.00" y="55.00" xlink:href="#hd"/>
<path d="M492.50 55.00v22.90" class="stroke"/>
<use x="506.40" y="61.00" xlink:href="#hd"/>
<path d="M502.90 61.00v18.20" class="stroke"/>
<use x="516.80" y="61.00" xlink:href="#hd"/>
<path d="M513.30 61.00v19.50" class="stroke"/>
<path class="fill"
	d="M538.00 75.80l21.40 2.80v-3.20l-21.40 -2.80"/>
<use x="541.80" y="52.00" xlink:href="#hd"/>
<path d="M538.30 52.00v22.90" class="stroke"/>
<use x="552.20" y="58.00" xlink:href="#hd"/>
<path d="M548.70 58.00v18.20" class="stroke"/>
<use x="562.60" y="58.00" xlink:href="#hd"/>
<path d="M559.10 58.00v19.50" class="stroke"/>
<path class="fill"
	d="M569.60 78.80l21.40 2.80v-3.20l-21.40 -2.80"/>
<use x="573.50" y="55.00" xlink:href="#hd"/>
<path d="M570.00 55.00v22.90" class="stroke"/>
<use x="583.80" y="61.00" xlink:href="#hd"/>
<path d="M580.30 61.00v18.20" class="stroke"/>
<use x="594.20" y="61.00" xlink:href="#hd"/>
<path d="M590.70 61.00v19.50" class="stroke"/>
<path class="fill"
	d="M615.40 83.70l21.40 5.00v-3.20l-21.40 -5.00"/>
<use x="619.20" y="52.00" xlink:href="#hd"/>
<path d="M615.70 52.00v30.80" class="stroke"/>
<use x="629.60" y="67.00" xlink:href="#hd"/>
<path d="M626.10 67.00v18.20" class="stroke"/>
<use x="640.00" y="67.00" xlink:href="#hd"/>
<path d="M636.50 67.00v20.60" class="stroke"/>
<path class="fill"
	d="M653.50 45.00l21.40 -3.90v3.20l-21.40 3.90"/>
<use x="650.30" y="67.00" xlink:href="#hd"/>
<path d="M653.80 67.00v-21.10" class="stroke"/>
<use x="660.70" y="64.00" xlink:href="#hd"/>
<path d="M664.20 64.00v-20.00" class="stroke"/>
<use x="671.10" y="61.00" xlink:href="#hd"/>
<path d="M674.60 61.00v-18.90" class="stroke"/>
</g>
<g stroke-width="0.70" style="font:italic 14.00px Times">
<path class="stroke" stroke-width="1"
	d="M118.60 143.00v-24.00"/>
<path class="stroke" stroke-width="1"
	d="M197.50 143.00v-24.00"/>
<path class="stroke" stroke-width="1"
	d="M273.60 143.00v-24.00"/>
<path class="stroke" stroke-width="1"
	d="M350.50 143.00v-24.00"/>
<path class="stroke" stroke-width="1"
	d="M426.50 143.00v-24.00"/>
<path class="stroke" stroke-width="1"
	d="M517.10 143.00v-24.00"/>
<path class="stroke" stroke-width="1"
	d="M600.40 143.00v-24.00"/>
<path class="stroke" stroke-width="3"
	d="M690.10 143.00v-24.00"/>
<path class="stroke" stroke-width="1"
	d="M685.60 143.00v-24.00"/>
<use x="681.60" y="143.00" xlink:href="#rdots"/>
<path d="m10.00 143.00
	h681.60
	M10.00 137.00
	h681.60
	M10.00 131.00
	h681.60
	M10.00 125.00
	h681.60
	M10.00 119.00
	h681.60
	" class="stroke"/>
<use x="22.00" y="137.00" xlink:href="#tclef"/>
<use x="37.00" y="119.00" xlink:href="#sh0"/>
<use x="55.00" y="125.00" xlink:href="#hd"/>
<circle class="fill" cx="62.70" cy="122.00" r="1.2"/>
<path d="M51.50 125.00v21.00" class="stroke"/>
<path class="fill"
	d="M71.90 145.00l31.00 0.00v-3.20l-31.00 -0.00"/>
<path class="fill"
	d="M72.20 140.00l9.40 0.00v-3.20l-9.40 -0.00"/>
<use x="75.70" y="122.00" xlink:href="#hd"/>
<path d="M72.20 122.00v22.00" class="stroke"/>
<use x="85.20" y="119.00" xlink:href="#hd"/>
<path d="M81.70 119.00v25.00" class="stroke"/>
<use x="94.60" y="116.00" xlink:href="#hd"/>
<path d="M91.10 116.00v28.00" class="stroke"/>
<use x="106.10" y="122.00" xlink:href="#hd"/>
<path d="M102.60 122.00v22.00" class="stroke"/>
<use x="131.10" y="125.00" xlink:href="#hd"/>
<circle class="fill" cx="138.80" cy="122.00" r="1.2"/>
<path d="M127.60 125.00v21.00" class="stroke"/>
<path class="fill"
	d="M127.60 146.00c0.6 -5.6 9.6 -9 5.6 -18.4
	1.6 6 -1.3 11.6 -5.6 12.8
"/>
<use x="147.60" y="137.00" xlink:href="#hd"/>
<path d="M151.10 137.00v-21.00" class="stroke"/>
<path class="fill"
	d="M151.10 116.00c0.6 5.6 9.6 9 5.6 18.4
	1.6 -6 -1.3 -11.6 -5.6 -12.8
"/>
<path class="fill"
	d="M165.20 115.00l23.70 -4.10v3.20l-23.70 4.10"/>
<use x="162.00" y="137.00" xlink:href="#hd"/>
<path d="M165.50 137.00v-21.00" class="stroke"/>
<use x="173.50" y="134.00" xlink:href="#hd"/>
<path d="M177.00 134.00v-20.00" class="stroke"/>
<use x="185.00" y="131.00" xlink:href="#hd"/>
<path d="M188.50 131.00v-19.00" class="stroke"/>
<use x="210.00" y="125.00" xlink:href="#hd"/>
<circle class="fill" cx="217.70" cy="122.00" r="1.2"/>
<path d="M206.50 125.00v21.00" class="stroke"/>
<path class="fill"
	d="M226.90 145.00l31.00 0.00v-3.20l-31.00 -0.00"/>
<path class="fill"
	d="M227.30 140.00l9.40 0.00v-3.20l-9.40 -0.00"/>
<use x="230.80" y="122.00" xlink:href="#hd"/>
<path d="M227.30 122.00v22.00" class="stroke"/>
<use x="240.20" y="119.00" xlink:href="#hd"/>
<path d="M236.70 119.00v25.00" class="stroke"/>
<use x="249.60" y="116.00" xlink:href="#hd"/>
<path d="M246.10 116.00v28.00" class="stroke"/>
<use x="261.10" y="122.00" xlink:href="#hd"/>
<path d="M257.60 122.00v22.00" class="stroke"/>
<defs>
<path id="hl" class="stroke" d="m-6 0h12"/>
</defs>
<use x="286.10" y="113.00" xlink:href="#hl"/>
<use x="286.10" y="113.00" xlink:href="#hd"/>
<path d="M282.60 113.00v21.00" class="stroke"/>
<use x="300.50" y="134.00" xlink:href="#hd"/>
<path d="M304.00 134.00v-21.00" class="stroke"/>
<path class="fill"
	d="M304.00 113.00c0.6 5.6 9.6 9 5.6 18.4
	1.6 -6 -1.3 -11.6 -5.6 -12.8
"/>
<path class="fill"
	d="M318.10 112.00l23.70 -4.10v3.20l-23.70 4.10"/>
<use x="315.00" y="134.00" xlink:href="#hd"/>
<path d="M318.50 134.00v-21.00" class="stroke"/>
<use x="326.50" y="131.00" xlink:href="#hd"/>
<path d="M330.00 131.00v-20.00" class="stroke"/>
<use x="338.00" y="128.00" xlink:href="#hd"/>
<path d="M341.50 128.00v-19.00" class="stroke"/>
<use x="363.00" y="125.00" xlink:href="#hd"/>
<circle class="fill" cx="370.70" cy="122.00" r="1.2"/>
<path d="M359.50 125.00v21.00" class="stroke"/>
<path class="fill"
	d="M379.90 145.00l31.00 0.00v-3.20l-31.00 -0.00"/>
<path class="fill"
	d="M380.20 140.00l9.40 0.00v-3.20l-9.40 -0.00"/>
<use x="383.70" y="122.00" xlink:href="#hd"/>
<path d="M380.20 122.00v22.00" class="stroke"/>
<use x="393.10" y="119.00" xlink:href="#hd"/>
<path d="M389.60 119.00v25.00" class="stroke"/>
<use x="402.50" y="116.00" xlink:href="#hd"/>
<path d="M399.00 116.00v28.00" class="stroke"/>
<use x="414.00" y="122.00" xlink:href="#hd"/>
<path d="M410.50 122.00v22.00" class="stroke"/>
<path class="fill"
	d="M435.20 150.20l23.70 0.00v-3.20l-23.70 -0.00"/>
<use x="439.00" y="125.00" xlink:href="#hd"/>
<path d="M435.50 125.00v24.20" class="stroke"/>
<use x="450.50" y="131.00" xlink:href="#hd"/>
<path d="M447.00 131.00v18.20" class="stroke"/>
<use x="462.00" y="125.00" xlink:href="#hd"/>
<path d="M458.50 125.00v24.20" class="stroke"/>
<path class="fill"
	d="M470.50 148.80l31.00 4.50v-3.20l-31.00 -4.50"/>
<path class="fill"
	d="M470.80 143.80l9.40 1.40v-3.20l-9.40 -1.40"/>
<use x="474.30" y="122.00" xlink:href="#hd"/>
<path d="M470.80 122.00v25.80" class="stroke"/>
<use x="483.70" y="119.00" xlink:href="#hd"/>
<path d="M480.20 119.00v30.20" class="stroke"/>
<use x="493.10" y="116.00" xlink:href="#hd"/>
<path d="M489.60 116.00v34.50" class="stroke"/>
<use x="504.60" y="134.00" xlink:href="#hd"/>
<path d="M501.10 134.00v18.20" class="stroke"/>
<path class="fill"
	d="M525.80 146.00l23.70 0.00v-3.20l-23.70 -0.00"/>
<use x="529.60" y="128.00" xlink:href="#hd"/>
<path d="M526.10 128.00v17.00" class="stroke"/>
<use x="541.10" y="113.00" xlink:href="#hl"/>
<use x="541.10" y="113.00" xlink:href="#hd"/>
<path d="M537.60 113.00v32.00" class="stroke"/>
<use x="552.60" y="128.00" xlink:href="#hd"/>
<path d="M549.10 128.00v17.00" class="stroke"/>
<path class="fill"
	d="M561.00 150.20l23.70 0.00v-3.20l-23.70 -0.00"/>
<use x="564.90" y="131.00" xlink:href="#hd"/>
<path d="M561.40 131.00v18.20" class="stroke"/>
<use x="576.40" y="119.00" xlink:href="#hd"/>
<path d="M572.90 119.00v30.20" class="stroke"/>
<use x="587.90" y="131.00" xlink:href="#hd"/>
<path d="M584.40 131.00v18.20" class="stroke"/>
<path class="fill"
	d="M609.00 150.30l23.70 5.70v-3.20l-23.70 -5.70"/>
<use x="612.90" y="116.00" xlink:href="#hd"/>
<path d="M609.40 116.00v33.40" class="stroke"/>
<use x="624.30" y="134.00" xlink:href="#hd"/>
<path d="M620.80 134.00v18.20" class="stroke"/>
<use x="635.80" y="134.00" xlink:href="#hd"/>
<path d="M632.30 134.00v21.00" class="stroke"/>
<path class="fill"
	d="M644.30 154.00l23.70 -4.10v-3.20l-23.70 4.10"/>
<use x="648.10" y="134.00" xlink:href="#hd"/>
<path d="M644.60 134.00v19.00" class="stroke"/>
<use x="659.60" y="131.00" xlink:href="#hd"/>
<path d="M656.10 131.00v20.00" class="stroke"/>
<use x="671.10" y="128.00" xlink:href="#hd"/>
<path d="M667.60 128.00v21.00" class="stroke"/>
</g>
</svg>
